<svg xmlns="http://www.w3.org/2000/svg" width="778.785mm" height="297.000mm" viewBox="0 0 778.785 297.000"><title>B09_B01_WORK_GRANULAR_G9</title><path d="M 24.000,28.736 L 55.527,30.244 L 85.477,32.049 L 123.532,34.395 L 167.823,35.884 L 217.513,36.193 L 271.443,35.421 L 328.795,34.374 L 387.739,33.444 L 446.699,32.582 L 504.249,31.765 L 558.667,31.079 L 608.957,29.488 L 653.848,27.304 L 693.016,24.624 L 726.641,24.000 L 754.785,34.246 L 734.755,95.175 L 714.956,101.865 L 686.778,115.889 L 650.559,129.684 L 608.129,140.104 L 559.609,148.134 L 506.176,153.387 L 448.921,157.402 L 389.627,159.406 L 330.343,159.222 L 273.152,157.314 L 219.926,154.113 L 171.586,147.860 L 129.211,138.352 L 93.259,125.355 L 64.626,110.691 L 46.224,99.223 L 24.000,28.736 Z" fill="#eee4d8" stroke="#594534" stroke-width=".4"/><path d="M 40.621,41.545 L 54.879,42.226 L 84.747,44.027 L 122.961,46.383 L 167.584,47.883 L 217.562,48.194 L 271.638,47.419 L 328.999,46.372 L 387.921,45.443 L 446.874,44.581 L 504.410,43.764 L 558.932,43.076 L 609.438,41.479 L 654.549,39.284 L 693.537,36.617 L 724.633,36.039 L 739.754,41.545 L 725.229,85.727 L 710.341,90.758 L 681.958,104.884 L 646.978,118.207 L 605.715,128.341 L 558.040,136.230 L 505.169,141.428 L 448.298,145.416 L 389.443,147.405 L 330.562,147.222 L 273.712,145.326 L 221.057,142.159 L 173.674,136.030 L 132.578,126.809 L 98.053,114.328 L 70.545,100.240 L 56.335,91.385 Z" fill="none" stroke="#645647" stroke-width=".3" stroke-dasharray="3 2"/><circle cx="48.478" cy="66.465" r="1" fill="none" stroke="#655446"/><circle cx="732.491" cy="63.636" r="1" fill="none" stroke="#655446"/><circle cx="418.871" cy="146.411" r="1" fill="none" stroke="#655446"/><circle cx="476.734" cy="143.422" r="1" fill="none" stroke="#655446"/><circle cx="247.385" cy="143.743" r="1" fill="none" stroke="#655446"/><circle cx="197.365" cy="139.095" r="1" fill="none" stroke="#655446"/><circle cx="153.126" cy="131.419" r="1" fill="none" stroke="#655446"/><circle cx="115.315" cy="120.568" r="1" fill="none" stroke="#655446"/><circle cx="696.149" cy="97.821" r="1" fill="none" stroke="#655446"/><circle cx="732.193" cy="38.792" r="1" fill="none" stroke="#655446"/><circle cx="674.043" cy="37.950" r="1" fill="none" stroke="#655446"/><circle cx="631.994" cy="40.381" r="1" fill="none" stroke="#655446"/><circle cx="584.185" cy="42.278" r="1" fill="none" stroke="#655446"/><circle cx="531.671" cy="43.420" r="1" fill="none" stroke="#655446"/><circle cx="475.642" cy="44.172" r="1" fill="none" stroke="#655446"/><circle cx="417.398" cy="45.012" r="1" fill="none" stroke="#655446"/><text x="12" y="12" font-family="sans-serif" font-size="5">B09_B01_WORK_GRANULAR_G9 / P1 / mm</text></svg>