<svg xmlns="http://www.w3.org/2000/svg" width="328.444mm" height="297.000mm" viewBox="0 0 328.444 297.000"><title>B09_B03_WORK_GRANULAR_CAP_A</title><path d="M 206.419,28.547 L 221.879,27.689 L 288.299,24.000 L 304.444,79.500 L 241.313,96.731 L 217.402,98.926 L 204.218,99.613 L 193.025,100.196 L 180.988,99.619 L 162.996,98.733 L 128.116,91.762 L 24.000,38.678 L 161.257,31.056 L 179.420,30.047 L 189.208,29.503 L 197.241,29.057 L 206.419,28.547 Z" fill="#eee4d8" stroke="#594534" stroke-width=".4"/><path d="M 207.084,40.529 L 197.907,41.039 L 189.874,41.485 L 180.085,42.028 L 161.922,43.037 L 69.081,48.193 L 132.092,80.320 L 164.475,86.792 L 181.570,87.633 L 193.000,88.181 L 203.593,87.629 L 216.541,86.954 L 239.169,84.878 L 289.513,71.136 L 279.441,36.510 L 222.545,39.670 Z" fill="none" stroke="#645647" stroke-width=".3" stroke-dasharray="3 2"/><circle cx="202.495" cy="40.784" r="1" fill="none" stroke="#655446"/><circle cx="198.297" cy="87.905" r="1" fill="none" stroke="#655446"/><circle cx="210.067" cy="87.292" r="1" fill="none" stroke="#655446"/><circle cx="227.855" cy="85.916" r="1" fill="none" stroke="#655446"/><circle cx="264.341" cy="78.007" r="1" fill="none" stroke="#655446"/><circle cx="284.477" cy="53.823" r="1" fill="none" stroke="#655446"/><circle cx="250.993" cy="38.090" r="1" fill="none" stroke="#655446"/><circle cx="214.814" cy="40.100" r="1" fill="none" stroke="#655446"/><circle cx="193.890" cy="41.262" r="1" fill="none" stroke="#655446"/><circle cx="184.980" cy="41.757" r="1" fill="none" stroke="#655446"/><circle cx="171.004" cy="42.533" r="1" fill="none" stroke="#655446"/><circle cx="115.501" cy="45.615" r="1" fill="none" stroke="#655446"/><circle cx="100.586" cy="64.256" r="1" fill="none" stroke="#655446"/><circle cx="148.283" cy="83.556" r="1" fill="none" stroke="#655446"/><circle cx="173.023" cy="87.213" r="1" fill="none" stroke="#655446"/><circle cx="187.285" cy="87.907" r="1" fill="none" stroke="#655446"/><text x="12" y="12" font-family="sans-serif" font-size="5">B09_B03_WORK_GRANULAR_CAP_A / P1 / mm</text></svg>