<svg xmlns="http://www.w3.org/2000/svg" width="460.977mm" height="297.000mm" viewBox="0 0 460.977 297.000"><title>B09_A_SOFT_-1_G15</title><path d="M 24.012,24.271 L 41.689,24.050 L 56.075,24.636 L 75.237,24.831 L 99.613,25.171 L 128.240,25.014 L 160.311,25.277 L 194.807,25.260 L 230.404,25.454 L 266.054,25.052 L 300.495,25.171 L 332.542,24.755 L 361.334,24.852 L 385.397,24.666 L 404.835,24.284 L 418.556,24.183 L 436.977,24.000 L 436.540,49.988 L 422.370,54.434 L 408.033,58.697 L 387.738,63.389 L 362.673,67.306 L 333.621,70.209 L 301.199,72.972 L 266.371,74.280 L 230.355,75.159 L 194.308,74.423 L 159.513,73.106 L 127.088,70.507 L 97.936,67.596 L 72.975,63.550 L 52.641,59.130 L 38.178,54.436 L 24.000,49.922 L 24.012,24.271 Z" fill="#eee4d8" stroke="#594534" stroke-width=".4"/><path d="M 36.007,36.122 L 41.520,36.053 L 55.770,36.634 L 75.092,36.830 L 99.562,37.172 L 128.224,37.014 L 160.265,37.277 L 194.777,37.260 L 230.439,37.454 L 266.101,37.052 L 300.553,37.171 L 332.600,36.755 L 361.361,36.852 L 385.562,36.665 L 404.997,36.283 L 418.660,36.183 L 424.772,36.122 L 424.687,41.130 L 418.864,42.957 L 404.968,47.089 L 385.457,51.600 L 361.149,55.398 L 332.515,58.260 L 300.464,60.991 L 266.000,62.286 L 230.331,63.156 L 194.657,62.427 L 160.220,61.125 L 128.164,58.555 L 99.493,55.692 L 75.211,51.756 L 55.775,47.531 L 41.850,43.012 L 36.004,41.151 Z" fill="none" stroke="#645647" stroke-width=".3" stroke-dasharray="3 2"/><circle cx="36.005" cy="38.636" r="1" fill="none" stroke="#655446"/><circle cx="424.729" cy="38.626" r="1" fill="none" stroke="#655446"/><circle cx="283.327" cy="37.112" r="1" fill="none" stroke="#655446"/><circle cx="373.461" cy="36.759" r="1" fill="none" stroke="#655446"/><circle cx="65.431" cy="36.732" r="1" fill="none" stroke="#655446"/><circle cx="177.521" cy="37.268" r="1" fill="none" stroke="#655446"/><circle cx="283.232" cy="61.638" r="1" fill="none" stroke="#655446"/><circle cx="373.303" cy="53.499" r="1" fill="none" stroke="#655446"/><circle cx="65.493" cy="49.643" r="1" fill="none" stroke="#655446"/><circle cx="177.438" cy="61.776" r="1" fill="none" stroke="#655446"/><text x="12" y="12" font-family="sans-serif" font-size="5">B09_A_SOFT_-1_G15 / P1 / mm</text></svg>