<svg xmlns="http://www.w3.org/2000/svg" width="1441.365mm" height="364.798mm" viewBox="0 0 1441.365 364.798"><title>L08_CONTINUOUS_COVER_I3</title><path d="M 24.080,24.388 L 78.546,24.355 L 121.053,24.325 L 163.600,24.291 L 206.247,24.248 L 249.072,24.193 L 291.914,24.135 L 334.603,24.084 L 377.069,24.049 L 419.445,24.028 L 461.795,24.015 L 504.142,24.008 L 546.504,24.004 L 588.905,24.002 L 631.349,24.000 L 673.818,24.000 L 716.290,24.000 L 758.820,24.001 L 801.574,24.002 L 844.478,24.003 L 887.387,24.005 L 930.156,24.008 L 972.714,24.011 L 1015.149,24.015 L 1057.539,24.018 L 1099.922,24.021 L 1142.329,24.024 L 1184.815,24.030 L 1227.578,24.046 L 1270.884,24.082 L 1314.768,24.146 L 1359.154,24.245 L 1415.828,24.417 L 1415.874,48.411 L 1415.960,60.435 L 1416.111,72.462 L 1416.336,84.491 L 1416.650,96.508 L 1417.365,115.662 L 1366.011,146.692 L 1320.905,172.211 L 1276.178,194.863 L 1231.837,213.673 L 1188.057,227.546 L 1144.919,237.813 L 1102.125,246.461 L 1059.422,253.811 L 1016.783,260.132 L 974.166,265.700 L 931.450,270.759 L 888.528,275.224 L 845.507,279.173 L 802.542,282.770 L 759.773,286.179 L 717.258,289.570 L 674.794,293.050 L 632.282,296.472 L 589.739,299.629 L 547.187,302.308 L 504.692,304.353 L 462.264,306.046 L 419.838,307.487 L 377.391,308.705 L 334.892,309.796 L 292.169,310.913 L 249.255,311.903 L 206.321,312.590 L 163.509,312.798 L 120.776,312.270 L 78.126,311.071 L 24.107,308.940 L 24.000,253.909 L 24.016,210.392 L 24.059,166.878 L 24.093,123.378 L 24.102,79.882 L 24.080,24.388 Z" fill="#eee4d8" stroke="#594534" stroke-width=".4"/><path d="M 36.085,36.381 L 78.554,36.355 L 121.062,36.325 L 163.611,36.291 L 206.261,36.248 L 249.087,36.193 L 291.930,36.135 L 334.617,36.084 L 377.078,36.049 L 419.451,36.028 L 461.798,36.015 L 504.144,36.008 L 546.505,36.004 L 588.906,36.002 L 631.349,36.000 L 673.818,36.000 L 716.290,36.000 L 758.820,36.001 L 801.573,36.002 L 844.477,36.003 L 887.387,36.005 L 930.155,36.008 L 972.713,36.011 L 1015.148,36.015 L 1057.538,36.018 L 1099.921,36.021 L 1142.328,36.024 L 1184.814,36.030 L 1227.573,36.046 L 1270.874,36.082 L 1314.751,36.146 L 1359.127,36.245 L 1403.851,36.381 L 1403.874,48.465 L 1403.960,60.553 L 1404.113,72.650 L 1404.339,84.760 L 1404.656,96.888 L 1405.110,109.046 L 1359.952,136.333 L 1315.236,161.631 L 1271.118,183.974 L 1227.672,202.405 L 1184.851,215.974 L 1142.340,226.091 L 1099.918,234.665 L 1057.524,241.961 L 1015.126,248.247 L 972.683,253.792 L 930.124,258.833 L 887.359,263.281 L 844.458,267.219 L 801.565,270.809 L 758.819,274.217 L 716.291,277.609 L 673.823,281.089 L 631.357,284.508 L 588.918,287.657 L 546.522,290.327 L 504.164,292.365 L 461.821,294.054 L 419.462,295.493 L 377.065,296.709 L 334.581,297.800 L 291.873,298.917 L 249.021,299.905 L 206.196,300.590 L 163.554,300.798 L 121.019,300.273 L 78.531,299.078 L 36.084,297.403 L 36.000,253.899 L 36.016,210.396 L 36.059,166.889 L 36.093,123.383 L 36.102,79.881 Z" fill="none" stroke="#645647" stroke-width=".3" stroke-dasharray="3 2"/><circle cx="1403.863" cy="42.423" r="1" fill="none" stroke="#655446"/><circle cx="99.808" cy="36.340" r="1" fill="none" stroke="#655446"/><circle cx="184.936" cy="36.269" r="1" fill="none" stroke="#655446"/><circle cx="270.509" cy="36.164" r="1" fill="none" stroke="#655446"/><circle cx="355.848" cy="36.067" r="1" fill="none" stroke="#655446"/><circle cx="440.625" cy="36.022" r="1" fill="none" stroke="#655446"/><circle cx="525.324" cy="36.006" r="1" fill="none" stroke="#655446"/><circle cx="610.128" cy="36.001" r="1" fill="none" stroke="#655446"/><circle cx="695.054" cy="36.000" r="1" fill="none" stroke="#655446"/><circle cx="780.197" cy="36.001" r="1" fill="none" stroke="#655446"/><circle cx="865.932" cy="36.004" r="1" fill="none" stroke="#655446"/><circle cx="951.434" cy="36.009" r="1" fill="none" stroke="#655446"/><circle cx="1036.343" cy="36.016" r="1" fill="none" stroke="#655446"/><circle cx="1121.125" cy="36.023" r="1" fill="none" stroke="#655446"/><circle cx="1206.193" cy="36.038" r="1" fill="none" stroke="#655446"/><circle cx="1292.813" cy="36.114" r="1" fill="none" stroke="#655446"/><circle cx="1381.489" cy="36.313" r="1" fill="none" stroke="#655446"/><circle cx="99.775" cy="299.675" r="1" fill="none" stroke="#655446"/><circle cx="184.875" cy="300.694" r="1" fill="none" stroke="#655446"/><circle cx="270.447" cy="299.411" r="1" fill="none" stroke="#655446"/><circle cx="355.823" cy="297.254" r="1" fill="none" stroke="#655446"/><circle cx="440.641" cy="294.773" r="1" fill="none" stroke="#655446"/><circle cx="525.343" cy="291.346" r="1" fill="none" stroke="#655446"/><circle cx="610.138" cy="286.082" r="1" fill="none" stroke="#655446"/><circle cx="695.057" cy="279.349" r="1" fill="none" stroke="#655446"/><circle cx="780.192" cy="272.513" r="1" fill="none" stroke="#655446"/><circle cx="865.909" cy="265.250" r="1" fill="none" stroke="#655446"/><circle cx="951.403" cy="256.312" r="1" fill="none" stroke="#655446"/><circle cx="1036.325" cy="245.104" r="1" fill="none" stroke="#655446"/><circle cx="1121.129" cy="230.378" r="1" fill="none" stroke="#655446"/><circle cx="1206.261" cy="209.190" r="1" fill="none" stroke="#655446"/><circle cx="1293.177" cy="172.802" r="1" fill="none" stroke="#655446"/><circle cx="1382.531" cy="122.689" r="1" fill="none" stroke="#655446"/><circle cx="36.093" cy="58.131" r="1" fill="none" stroke="#655446"/><circle cx="36.008" cy="232.148" r="1" fill="none" stroke="#655446"/><circle cx="36.097" cy="101.632" r="1" fill="none" stroke="#655446"/><text x="12" y="12" font-family="sans-serif" font-size="5">L08_CONTINUOUS_COVER_I3 / P1 / mm</text></svg>