<svg xmlns="http://www.w3.org/2000/svg" width="672.379mm" height="706.285mm" viewBox="0 0 672.379 706.285"><title>O08_SMOOTH_LOWER_W6_A_B_B</title><path d="M 39.236,24.000 L 73.550,36.206 L 108.660,44.817 L 145.428,52.102 L 183.644,58.195 L 222.418,63.123 L 260.658,66.916 L 298.589,70.045 L 336.960,72.738 L 375.728,74.723 L 414.845,75.675 L 593.676,33.350 L 647.230,24.000 L 648.379,105.757 L 647.798,223.884 L 644.918,388.485 L 590.977,422.551 L 399.995,654.285 L 360.642,649.840 L 321.612,642.558 L 282.974,632.927 L 244.817,621.879 L 206.349,608.123 L 167.339,589.499 L 128.963,566.250 L 92.240,538.536 L 57.511,506.457 L 24.000,463.765 L 29.613,264.939 L 34.647,122.375 L 39.236,24.000 Z" fill="#eee4d8" stroke="#594534" stroke-width=".4"/><path d="M 39.236,24.000 L 73.550,36.206 L 108.660,44.817 L 145.428,52.102 L 183.644,58.195 L 222.418,63.123 L 260.658,66.916 L 298.589,70.045 L 336.960,72.738 L 375.728,74.723 L 414.845,75.675 L 593.676,33.350 L 647.230,24.000 L 648.379,105.757 L 647.798,223.884 L 644.918,388.485 L 590.977,422.551 L 399.995,654.285 L 360.642,649.840 L 321.612,642.558 L 282.974,632.927 L 244.817,621.879 L 206.349,608.123 L 167.339,589.499 L 128.963,566.250 L 92.240,538.536 L 57.511,506.457 L 24.000,463.765 L 29.613,264.939 L 34.647,122.375 Z" fill="none" stroke="#645647" stroke-width=".3" stroke-dasharray="3 2"/><text x="12" y="12" font-family="sans-serif" font-size="5">O08_SMOOTH_LOWER_W6_A_B_B / P1 / mm</text></svg>