  0
SECTION
  2
HEADER
  9
$ACADVER
  1
AC1024
  9
$ACADMAINTVER
 70
6
  9
$DWGCODEPAGE
  3
ANSI_1252
  9
$LASTSAVEDBY
  1
ezdxf
  9
$INSBASE
 10
0.0
 20
0.0
 30
0.0
  9
$EXTMIN
 10
1e+20
 20
1e+20
 30
1e+20
  9
$EXTMAX
 10
-1e+20
 20
-1e+20
 30
-1e+20
  9
$LIMMIN
 10
0.0
 20
0.0
  9
$LIMMAX
 10
420.0
 20
297.0
  9
$ORTHOMODE
 70
0
  9
$REGENMODE
 70
1
  9
$FILLMODE
 70
1
  9
$QTEXTMODE
 70
0
  9
$MIRRTEXT
 70
1
  9
$LTSCALE
 40
1.0
  9
$ATTMODE
 70
1
  9
$TEXTSIZE
 40
2.5
  9
$TRACEWID
 40
1.0
  9
$TEXTSTYLE
  7
Standard
  9
$CLAYER
  8
0
  9
$CELTYPE
  6
ByLayer
  9
$CECOLOR
 62
256
  9
$CELTSCALE
 40
1.0
  9
$DISPSILH
 70
0
  9
$DIMSCALE
 40
1.0
  9
$DIMASZ
 40
2.5
  9
$DIMEXO
 40
0.625
  9
$DIMDLI
 40
3.75
  9
$DIMRND
 40
0.0
  9
$DIMDLE
 40
0.0
  9
$DIMEXE
 40
1.25
  9
$DIMTP
 40
0.0
  9
$DIMTM
 40
0.0
  9
$DIMTXT
 40
2.5
  9
$DIMCEN
 40
2.5
  9
$DIMTSZ
 40
0.0
  9
$DIMTOL
 70
0
  9
$DIMLIM
 70
0
  9
$DIMTIH
 70
0
  9
$DIMTOH
 70
0
  9
$DIMSE1
 70
0
  9
$DIMSE2
 70
0
  9
$DIMTAD
 70
1
  9
$DIMZIN
 70
8
  9
$DIMBLK
  1

  9
$DIMASO
 70
1
  9
$DIMSHO
 70
1
  9
$DIMPOST
  1

  9
$DIMAPOST
  1

  9
$DIMALT
 70
0
  9
$DIMALTD
 70
3
  9
$DIMALTF
 40
0.03937007874
  9
$DIMLFAC
 40
1.0
  9
$DIMTOFL
 70
1
  9
$DIMTVP
 40
0.0
  9
$DIMTIX
 70
0
  9
$DIMSOXD
 70
0
  9
$DIMSAH
 70
0
  9
$DIMBLK1
  1

  9
$DIMBLK2
  1

  9
$DIMSTYLE
  2
ISO-25
  9
$DIMCLRD
 70
0
  9
$DIMCLRE
 70
0
  9
$DIMCLRT
 70
0
  9
$DIMTFAC
 40
1.0
  9
$DIMGAP
 40
0.625
  9
$DIMJUST
 70
0
  9
$DIMSD1
 70
0
  9
$DIMSD2
 70
0
  9
$DIMTOLJ
 70
0
  9
$DIMTZIN
 70
8
  9
$DIMALTZ
 70
0
  9
$DIMALTTZ
 70
0
  9
$DIMUPT
 70
0
  9
$DIMDEC
 70
2
  9
$DIMTDEC
 70
2
  9
$DIMALTU
 70
2
  9
$DIMALTTD
 70
3
  9
$DIMTXSTY
  7
Standard
  9
$DIMAUNIT
 70
0
  9
$DIMADEC
 70
0
  9
$DIMALTRND
 40
0.0
  9
$DIMAZIN
 70
0
  9
$DIMDSEP
 70
44
  9
$DIMATFIT
 70
3
  9
$DIMFRAC
 70
0
  9
$DIMLDRBLK
  1

  9
$DIMLUNIT
 70
2
  9
$DIMLWD
 70
-2
  9
$DIMLWE
 70
-2
  9
$DIMTMOVE
 70
0
  9
$DIMFXL
 40
1.0
  9
$DIMFXLON
 70
0
  9
$DIMJOGANG
 40
0.785398163397
  9
$DIMTFILL
 70
0
  9
$DIMTFILLCLR
 70
0
  9
$DIMARCSYM
 70
0
  9
$DIMLTYPE
  6

  9
$DIMLTEX1
  6

  9
$DIMLTEX2
  6

  9
$DIMTXTDIRECTION
 70
0
  9
$LUNITS
 70
2
  9
$LUPREC
 70
4
  9
$SKETCHINC
 40
1.0
  9
$FILLETRAD
 40
10.0
  9
$AUNITS
 70
0
  9
$AUPREC
 70
2
  9
$MENU
  1
.
  9
$ELEVATION
 40
0.0
  9
$PELEVATION
 40
0.0
  9
$THICKNESS
 40
0.0
  9
$LIMCHECK
 70
0
  9
$CHAMFERA
 40
0.0
  9
$CHAMFERB
 40
0.0
  9
$CHAMFERC
 40
0.0
  9
$CHAMFERD
 40
0.0
  9
$SKPOLY
 70
0
  9
$TDCREATE
 40
2461316.70255787
  9
$TDUCREATE
 40
2458532.153996898
  9
$TDUPDATE
 40
2461316.70255787
  9
$TDUUPDATE
 40
2458532.1544311
  9
$TDINDWG
 40
0.0
  9
$TDUSRTIMER
 40
0.0
  9
$USRTIMER
 70
1
  9
$ANGBASE
 50
0.0
  9
$ANGDIR
 70
0
  9
$PDMODE
 70
0
  9
$PDSIZE
 40
0.0
  9
$PLINEWID
 40
0.0
  9
$SPLFRAME
 70
0
  9
$SPLINETYPE
 70
6
  9
$SPLINESEGS
 70
8
  9
$HANDSEED
  5
1F9
  9
$SURFTAB1
 70
6
  9
$SURFTAB2
 70
6
  9
$SURFTYPE
 70
6
  9
$SURFU
 70
6
  9
$SURFV
 70
6
  9
$UCSBASE
  2

  9
$UCSNAME
  2

  9
$UCSORG
 10
0.0
 20
0.0
 30
0.0
  9
$UCSXDIR
 10
1.0
 20
0.0
 30
0.0
  9
$UCSYDIR
 10
0.0
 20
1.0
 30
0.0
  9
$UCSORTHOREF
  2

  9
$UCSORTHOVIEW
 70
0
  9
$UCSORGTOP
 10
0.0
 20
0.0
 30
0.0
  9
$UCSORGBOTTOM
 10
0.0
 20
0.0
 30
0.0
  9
$UCSORGLEFT
 10
0.0
 20
0.0
 30
0.0
  9
$UCSORGRIGHT
 10
0.0
 20
0.0
 30
0.0
  9
$UCSORGFRONT
 10
0.0
 20
0.0
 30
0.0
  9
$UCSORGBACK
 10
0.0
 20
0.0
 30
0.0
  9
$PUCSBASE
  2

  9
$PUCSNAME
  2

  9
$PUCSORG
 10
0.0
 20
0.0
 30
0.0
  9
$PUCSXDIR
 10
1.0
 20
0.0
 30
0.0
  9
$PUCSYDIR
 10
0.0
 20
1.0
 30
0.0
  9
$PUCSORTHOREF
  2

  9
$PUCSORTHOVIEW
 70
0
  9
$PUCSORGTOP
 10
0.0
 20
0.0
 30
0.0
  9
$PUCSORGBOTTOM
 10
0.0
 20
0.0
 30
0.0
  9
$PUCSORGLEFT
 10
0.0
 20
0.0
 30
0.0
  9
$PUCSORGRIGHT
 10
0.0
 20
0.0
 30
0.0
  9
$PUCSORGFRONT
 10
0.0
 20
0.0
 30
0.0
  9
$PUCSORGBACK
 10
0.0
 20
0.0
 30
0.0
  9
$USERI1
 70
0
  9
$USERI2
 70
0
  9
$USERI3
 70
0
  9
$USERI4
 70
0
  9
$USERI5
 70
0
  9
$USERR1
 40
0.0
  9
$USERR2
 40
0.0
  9
$USERR3
 40
0.0
  9
$USERR4
 40
0.0
  9
$USERR5
 40
0.0
  9
$WORLDVIEW
 70
1
  9
$SHADEDGE
 70
3
  9
$SHADEDIF
 70
70
  9
$TILEMODE
 70
1
  9
$MAXACTVP
 70
64
  9
$PINSBASE
 10
0.0
 20
0.0
 30
0.0
  9
$PLIMCHECK
 70
0
  9
$PEXTMIN
 10
1e+20
 20
1e+20
 30
1e+20
  9
$PEXTMAX
 10
-1e+20
 20
-1e+20
 30
-1e+20
  9
$PLIMMIN
 10
0.0
 20
0.0
  9
$PLIMMAX
 10
420.0
 20
297.0
  9
$UNITMODE
 70
0
  9
$VISRETAIN
 70
1
  9
$PLINEGEN
 70
0
  9
$PSLTSCALE
 70
1
  9
$TREEDEPTH
 70
3020
  9
$CMLSTYLE
  2
Standard
  9
$CMLJUST
 70
0
  9
$CMLSCALE
 40
20.0
  9
$PROXYGRAPHICS
 70
1
  9
$MEASUREMENT
 70
1
  9
$CELWEIGHT
370
-1
  9
$ENDCAPS
280
0
  9
$JOINSTYLE
280
0
  9
$LWDISPLAY
290
0
  9
$INSUNITS
 70
4
  9
$HYPERLINKBASE
  1

  9
$STYLESHEET
  1

  9
$XEDIT
290
1
  9
$CEPSNTYPE
380
0
  9
$PSTYLEMODE
290
1
  9
$FINGERPRINTGUID
  2
{0015F79F-7E0A-459B-9CFC-7D71E0C552DA}
  9
$VERSIONGUID
  2
{33246B5D-F0E2-4A6E-8491-EDA0ED790EFE}
  9
$EXTNAMES
290
1
  9
$PSVPSCALE
 40
0.0
  9
$OLESTARTUP
290
0
  9
$SORTENTS
280
127
  9
$INDEXCTL
280
0
  9
$HIDETEXT
280
1
  9
$XCLIPFRAME
280
1
  9
$HALOGAP
280
0
  9
$OBSCOLOR
 70
257
  9
$OBSLTYPE
280
0
  9
$INTERSECTIONDISPLAY
280
0
  9
$INTERSECTIONCOLOR
 70
257
  9
$DIMASSOC
280
2
  9
$PROJECTNAME
  1

  9
$CAMERADISPLAY
290
0
  9
$LENSLENGTH
 40
50.0
  9
$CAMERAHEIGHT
 40
0.0
  9
$STEPSPERSEC
 40
24.0
  9
$STEPSIZE
 40
100.0
  9
$3DDWFPREC
 40
2.0
  9
$PSOLWIDTH
 40
0.005
  9
$PSOLHEIGHT
 40
0.08
  9
$LOFTANG1
 40
1.570796326795
  9
$LOFTANG2
 40
1.570796326795
  9
$LOFTMAG1
 40
0.0
  9
$LOFTMAG2
 40
0.0
  9
$LOFTPARAM
 70
7
  9
$LOFTNORMALS
280
1
  9
$LATITUDE
 40
37.795
  9
$LONGITUDE
 40
-122.394
  9
$NORTHDIRECTION
 40
0.0
  9
$TIMEZONE
 70
-8000
  9
$LIGHTGLYPHDISPLAY
280
1
  9
$TILEMODELIGHTSYNCH
280
1
  9
$CMATERIAL
347
20
  9
$SOLIDHIST
280
0
  9
$SHOWHIST
280
1
  9
$DWFFRAME
280
2
  9
$DGNFRAME
280
2
  9
$REALWORLDSCALE
290
1
  9
$INTERFERECOLOR
 62
256
  9
$CSHADOW
280
0
  9
$SHADOWPLANELOCATION
 40
0.0
  0
ENDSEC
  0
SECTION
  2
CLASSES
  0
CLASS
  1
ACDBDICTIONARYWDFLT
  2
AcDbDictionaryWithDefault
  3
ObjectDBX Classes
 90
0
 91
0
280
0
281
0
  0
CLASS
  1
SUN
  2
AcDbSun
  3
SCENEOE
 90
1153
 91
0
280
0
281
0
  0
CLASS
  1
VISUALSTYLE
  2
AcDbVisualStyle
  3
ObjectDBX Classes
 90
4095
 91
0
280
0
281
0
  0
CLASS
  1
MATERIAL
  2
AcDbMaterial
  3
ObjectDBX Classes
 90
1153
 91
0
280
0
281
0
  0
CLASS
  1
SCALE
  2
AcDbScale
  3
ObjectDBX Classes
 90
1153
 91
0
280
0
281
0
  0
CLASS
  1
TABLESTYLE
  2
AcDbTableStyle
  3
ObjectDBX Classes
 90
4095
 91
0
280
0
281
0
  0
CLASS
  1
MLEADERSTYLE
  2
AcDbMLeaderStyle
  3
ACDB_MLEADERSTYLE_CLASS
 90
4095
 91
0
280
0
281
0
  0
CLASS
  1
DICTIONARYVAR
  2
AcDbDictionaryVar
  3
ObjectDBX Classes
 90
0
 91
0
280
0
281
0
  0
CLASS
  1
CELLSTYLEMAP
  2
AcDbCellStyleMap
  3
ObjectDBX Classes
 90
1152
 91
0
280
0
281
0
  0
CLASS
  1
MENTALRAYRENDERSETTINGS
  2
AcDbMentalRayRenderSettings
  3
SCENEOE
 90
1024
 91
0
280
0
281
0
  0
CLASS
  1
ACDBDETAILVIEWSTYLE
  2
AcDbDetailViewStyle
  3
ObjectDBX Classes
 90
1025
 91
0
280
0
281
0
  0
CLASS
  1
ACDBSECTIONVIEWSTYLE
  2
AcDbSectionViewStyle
  3
ObjectDBX Classes
 90
1025
 91
0
280
0
281
0
  0
CLASS
  1
RASTERVARIABLES
  2
AcDbRasterVariables
  3
ISM
 90
0
 91
0
280
0
281
0
  0
CLASS
  1
LAYOUT
  2
AcDbLayout
  3
ObjectDBX Classes
 90
0
 91
0
280
0
281
0
  0
CLASS
  1
ACDBPLACEHOLDER
  2
AcDbPlaceHolder
  3
ObjectDBX Classes
 90
0
 91
0
280
0
281
0
  0
ENDSEC
  0
SECTION
  2
TABLES
  0
TABLE
  2
VPORT
  5
8
330
0
100
AcDbSymbolTable
 70
1
  0
VPORT
  5
23
330
8
100
AcDbSymbolTableRecord
100
AcDbViewportTableRecord
  2
*Active
 70
0
 10
0.0
 20
0.0
 11
1.0
 21
1.0
 12
0.0
 22
0.0
 13
0.0
 23
0.0
 14
0.5
 24
0.5
 15
0.5
 25
0.5
 16
0.0
 26
0.0
 36
1.0
 17
0.0
 27
0.0
 37
0.0
 40
1000.0
 41
1.34
 42
50.0
 43
0.0
 44
0.0
 50
0.0
 51
0.0
 71
0
 72
1000
 73
1
 74
3
 75
0
 76
0
 77
0
 78
0
281
0
 65
0
146
0.0
  0
ENDTAB
  0
TABLE
  2
LTYPE
  5
2
330
0
100
AcDbSymbolTable
 70
3
  0
LTYPE
  5
24
330
2
100
AcDbSymbolTableRecord
100
AcDbLinetypeTableRecord
  2
ByBlock
 70
0
  3

 72
65
 73
0
 40
0.0
  0
LTYPE
  5
25
330
2
100
AcDbSymbolTableRecord
100
AcDbLinetypeTableRecord
  2
ByLayer
 70
0
  3

 72
65
 73
0
 40
0.0
  0
LTYPE
  5
26
330
2
100
AcDbSymbolTableRecord
100
AcDbLinetypeTableRecord
  2
Continuous
 70
0
  3

 72
65
 73
0
 40
0.0
  0
ENDTAB
  0
TABLE
  2
LAYER
  5
1
330
0
100
AcDbSymbolTable
 70
33
  0
LAYER
  5
27
330
1
100
AcDbSymbolTableRecord
100
AcDbLayerTableRecord
  2
0
 70
0
 62
7
  6
Continuous
370
-3
390
13
347
21
  0
LAYER
  5
28
330
1
100
AcDbSymbolTableRecord
100
AcDbLayerTableRecord
  2
Defpoints
 70
0
 62
7
  6
Continuous
290
0
370
-3
390
13
347
21
  0
LAYER
  5
2F
330
1
100
AcDbSymbolTableRecord
100
AcDbLayerTableRecord
  2
O01
 70
0
 62
7
  6
Continuous
370
-3
390
13
347
21
  0
LAYER
  5
31
330
1
100
AcDbSymbolTableRecord
100
AcDbLayerTableRecord
  2
O02
 70
0
 62
7
  6
Continuous
370
-3
390
13
347
21
  0
LAYER
  5
33
330
1
100
AcDbSymbolTableRecord
100
AcDbLayerTableRecord
  2
O03
 70
0
 62
7
  6
Continuous
370
-3
390
13
347
21
  0
LAYER
  5
35
330
1
100
AcDbSymbolTableRecord
100
AcDbLayerTableRecord
  2
O04
 70
0
 62
7
  6
Continuous
370
-3
390
13
347
21
  0
LAYER
  5
37
330
1
100
AcDbSymbolTableRecord
100
AcDbLayerTableRecord
  2
O05
 70
0
 62
7
  6
Continuous
370
-3
390
13
347
21
  0
LAYER
  5
39
330
1
100
AcDbSymbolTableRecord
100
AcDbLayerTableRecord
  2
O06A
 70
0
 62
7
  6
Continuous
370
-3
390
13
347
21
  0
LAYER
  5
3B
330
1
100
AcDbSymbolTableRecord
100
AcDbLayerTableRecord
  2
O06B
 70
0
 62
7
  6
Continuous
370
-3
390
13
347
21
  0
LAYER
  5
3D
330
1
100
AcDbSymbolTableRecord
100
AcDbLayerTableRecord
  2
O07A
 70
0
 62
7
  6
Continuous
370
-3
390
13
347
21
  0
LAYER
  5
3F
330
1
100
AcDbSymbolTableRecord
100
AcDbLayerTableRecord
  2
O07B
 70
0
 62
7
  6
Continuous
370
-3
390
13
347
21
  0
LAYER
  5
41
330
1
100
AcDbSymbolTableRecord
100
AcDbLayerTableRecord
  2
O08A
 70
0
 62
7
  6
Continuous
370
-3
390
13
347
21
  0
LAYER
  5
43
330
1
100
AcDbSymbolTableRecord
100
AcDbLayerTableRecord
  2
O08B
 70
0
 62
7
  6
Continuous
370
-3
390
13
347
21
  0
LAYER
  5
45
330
1
100
AcDbSymbolTableRecord
100
AcDbLayerTableRecord
  2
O09A
 70
0
 62
7
  6
Continuous
370
-3
390
13
347
21
  0
LAYER
  5
47
330
1
100
AcDbSymbolTableRecord
100
AcDbLayerTableRecord
  2
O09B
 70
0
 62
7
  6
Continuous
370
-3
390
13
347
21
  0
LAYER
  5
49
330
1
100
AcDbSymbolTableRecord
100
AcDbLayerTableRecord
  2
O10A
 70
0
 62
7
  6
Continuous
370
-3
390
13
347
21
  0
LAYER
  5
4B
330
1
100
AcDbSymbolTableRecord
100
AcDbLayerTableRecord
  2
O10B
 70
0
 62
7
  6
Continuous
370
-3
390
13
347
21
  0
LAYER
  5
4D
330
1
100
AcDbSymbolTableRecord
100
AcDbLayerTableRecord
  2
O11A
 70
0
 62
7
  6
Continuous
370
-3
390
13
347
21
  0
LAYER
  5
4F
330
1
100
AcDbSymbolTableRecord
100
AcDbLayerTableRecord
  2
O11B
 70
0
 62
7
  6
Continuous
370
-3
390
13
347
21
  0
LAYER
  5
51
330
1
100
AcDbSymbolTableRecord
100
AcDbLayerTableRecord
  2
O12
 70
0
 62
7
  6
Continuous
370
-3
390
13
347
21
  0
LAYER
  5
53
330
1
100
AcDbSymbolTableRecord
100
AcDbLayerTableRecord
  2
O13
 70
0
 62
7
  6
Continuous
370
-3
390
13
347
21
  0
LAYER
  5
55
330
1
100
AcDbSymbolTableRecord
100
AcDbLayerTableRecord
  2
O14
 70
0
 62
7
  6
Continuous
370
-3
390
13
347
21
  0
LAYER
  5
57
330
1
100
AcDbSymbolTableRecord
100
AcDbLayerTableRecord
  2
O15
 70
0
 62
7
  6
Continuous
370
-3
390
13
347
21
  0
LAYER
  5
59
330
1
100
AcDbSymbolTableRecord
100
AcDbLayerTableRecord
  2
O16
 70
0
 62
7
  6
Continuous
370
-3
390
13
347
21
  0
LAYER
  5
5B
330
1
100
AcDbSymbolTableRecord
100
AcDbLayerTableRecord
  2
OF
 70
0
 62
7
  6
Continuous
370
-3
390
13
347
21
  0
LAYER
  5
5D
330
1
100
AcDbSymbolTableRecord
100
AcDbLayerTableRecord
  2
OHEAD
 70
0
 62
7
  6
Continuous
370
-3
390
13
347
21
  0
LAYER
  5
5F
330
1
100
AcDbSymbolTableRecord
100
AcDbLayerTableRecord
  2
OFOOT
 70
0
 62
7
  6
Continuous
370
-3
390
13
347
21
  0
LAYER
  5
61
330
1
100
AcDbSymbolTableRecord
100
AcDbLayerTableRecord
  2
FOAM_MATTRESS
 70
0
 62
7
  6
Continuous
370
-3
390
13
347
21
  0
LAYER
  5
92
330
1
100
AcDbSymbolTableRecord
100
AcDbLayerTableRecord
  2
FOAM_UNDERLAY
 70
0
 62
7
  6
Continuous
370
-3
390
13
347
21
  0
LAYER
  5
C3
330
1
100
AcDbSymbolTableRecord
100
AcDbLayerTableRecord
  2
EH0
 70
0
 62
7
  6
Continuous
370
-3
390
13
347
21
  0
LAYER
  5
125
330
1
100
AcDbSymbolTableRecord
100
AcDbLayerTableRecord
  2
EH1
 70
0
 62
7
  6
Continuous
370
-3
390
13
347
21
  0
LAYER
  5
187
330
1
100
AcDbSymbolTableRecord
100
AcDbLayerTableRecord
  2
EH2
 70
0
 62
7
  6
Continuous
370
-3
390
13
347
21
  0
LAYER
  5
1E9
330
1
100
AcDbSymbolTableRecord
100
AcDbLayerTableRecord
  2
E11
 70
0
 62
7
  6
Continuous
370
-3
390
13
347
21
  0
ENDTAB
  0
TABLE
  2
STYLE
  5
5
330
0
100
AcDbSymbolTable
 70
1
  0
STYLE
  5
29
330
5
100
AcDbSymbolTableRecord
100
AcDbTextStyleTableRecord
  2
Standard
 70
0
 40
0.0
 41
1.0
 50
0.0
 71
0
 42
2.5
  3
txt
  4

  0
ENDTAB
  0
TABLE
  2
VIEW
  5
7
330
0
100
AcDbSymbolTable
 70
0
  0
ENDTAB
  0
TABLE
  2
UCS
  5
6
330
0
100
AcDbSymbolTable
 70
0
  0
ENDTAB
  0
TABLE
  2
APPID
  5
3
330
0
100
AcDbSymbolTable
 70
3
  0
APPID
  5
2A
330
3
100
AcDbSymbolTableRecord
100
AcDbRegAppTableRecord
  2
ACAD
 70
0
  0
APPID
  5
1F6
330
3
100
AcDbSymbolTableRecord
100
AcDbRegAppTableRecord
  2
HATCHBACKGROUNDCOLOR
 70
0
  0
APPID
  5
1F7
330
3
100
AcDbSymbolTableRecord
100
AcDbRegAppTableRecord
  2
EZDXF
 70
0
  0
ENDTAB
  0
TABLE
  2
DIMSTYLE
  5
4
330
0
100
AcDbSymbolTable
 70
1
100
AcDbDimStyleTable
  0
DIMSTYLE
105
2B
330
4
100
AcDbSymbolTableRecord
100
AcDbDimStyleTableRecord
  2
Standard
 70
0
 40
1.0
 41
2.5
 42
0.625
 43
3.75
 44
1.25
 45
0.0
 46
0.0
 47
0.0
 48
0.0
 49
2.5
140
2.5
141
2.5
142
0.0
143
0.03937007874
144
1.0
145
0.0
146
1.0
147
0.625
148
0.0
 69
0
 70
0
 71
0
 72
0
 73
0
 74
0
 75
0
 76
0
 77
1
 78
8
 79
3
170
0
171
3
172
1
173
0
174
0
175
0
176
0
177
0
178
0
179
2
271
2
272
2
273
2
274
3
275
0
276
0
277
2
278
44
279
0
280
0
281
0
282
0
283
0
284
8
285
0
286
0
288
0
289
3
290
0
371
-2
372
-2
  0
ENDTAB
  0
TABLE
  2
BLOCK_RECORD
  5
9
330
0
100
AcDbSymbolTable
 70
2
  0
BLOCK_RECORD
  5
17
330
9
100
AcDbSymbolTableRecord
100
AcDbBlockTableRecord
  2
*Model_Space
340
1A
 70
0
280
1
281
0
  0
BLOCK_RECORD
  5
1B
330
9
100
AcDbSymbolTableRecord
100
AcDbBlockTableRecord
  2
*Paper_Space
340
1E
 70
0
280
1
281
0
  0
ENDTAB
  0
ENDSEC
  0
SECTION
  2
BLOCKS
  0
BLOCK
  5
18
330
17
100
AcDbEntity
  8
0
100
AcDbBlockBegin
  2
*Model_Space
 70
0
 10
0.0
 20
0.0
 30
0.0
  3
*Model_Space
  1

  0
ENDBLK
  5
19
330
17
100
AcDbEntity
  8
0
100
AcDbBlockEnd
  0
BLOCK
  5
1C
330
1B
100
AcDbEntity
  8
0
100
AcDbBlockBegin
  2
*Paper_Space
 70
0
 10
0.0
 20
0.0
 30
0.0
  3
*Paper_Space
  1

  0
ENDBLK
  5
1D
330
1B
100
AcDbEntity
  8
0
100
AcDbBlockEnd
  0
ENDSEC
  0
SECTION
  2
ENTITIES
  0
LWPOLYLINE
  5
30
330
17
100
AcDbEntity
  8
O01
100
AcDbPolyline
 90
38
 70
1
 10
0.0
 20
0.0
 10
80.0
 20
0.0
 10
150.0
 20
0.0
 10
250.0
 20
0.0
 10
350.0
 20
0.0
 10
500.0
 20
0.0
 10
650.0
 20
0.0
 10
800.0
 20
0.0
 10
950.0
 20
0.0
 10
1100.0
 20
0.0
 10
1250.0
 20
0.0
 10
1400.0
 20
0.0
 10
1550.0
 20
0.0
 10
1725.0
 20
0.0
 10
1900.0
 20
0.0
 10
2050.0
 20
0.0
 10
2200.0
 20
0.0
 10
2280.0
 20
0.0
 10
2360.0
 20
0.0
 10
2360.0
 20
33.607151183060736
 10
2280.0
 20
45.29659507282099
 10
2200.0
 20
56.986038962581254
 10
2050.0
 20
65.02253163679143
 10
1900.0
 20
73.05902431100161
 10
1725.0
 20
77.4425657696617
 10
1550.0
 20
81.82610722832179
 10
1400.0
 20
86.2096486869819
 10
1250.0
 20
90.59319014564198
 10
1100.0
 20
95.7073218474121
 10
950.0
 20
100.82145354918221
 10
800.0
 20
110.31912670961243
 10
650.0
 20
119.81679987004263
 10
500.0
 20
127.1227023011428
 10
350.0
 20
134.42860473224295
 10
250.0
 20
119.81679987004263
 10
150.0
 20
105.20499500784231
 10
80.0
 20
76.56585747792968
 10
0.0
 20
43.83541458660097
  0
LWPOLYLINE
  5
32
330
17
100
AcDbEntity
  8
O02
100
AcDbPolyline
 90
38
 70
1
 10
0.0
 20
43.83541458660097
 10
80.0
 20
76.56585747792968
 10
150.0
 20
105.20499500784231
 10
250.0
 20
119.81679987004263
 10
350.0
 20
134.42860473224295
 10
500.0
 20
127.1227023011428
 10
650.0
 20
119.81679987004263
 10
800.0
 20
110.31912670961243
 10
950.0
 20
100.82145354918221
 10
1100.0
 20
95.7073218474121
 10
1250.0
 20
90.59319014564198
 10
1400.0
 20
86.2096486869819
 10
1550.0
 20
81.82610722832179
 10
1725.0
 20
77.4425657696617
 10
1900.0
 20
73.05902431100161
 10
2050.0
 20
65.02253163679143
 10
2200.0
 20
56.986038962581254
 10
2280.0
 20
45.29659507282099
 10
2360.0
 20
33.607151183060736
 10
2360.0
 20
71.71963394572565
 10
2280.0
 20
96.66559357902152
 10
2200.0
 20
121.61155321231739
 10
2050.0
 20
138.76190046020832
 10
1900.0
 20
155.91224770809924
 10
1725.0
 20
165.26698257058518
 10
1550.0
 20
174.62171743307115
 10
1400.0
 20
183.9764522955571
 10
1250.0
 20
193.33118715804304
 10
1100.0
 20
204.24504449761
 10
950.0
 20
215.15890183717696
 10
800.0
 20
235.42749403922986
 10
650.0
 20
255.69608624128276
 10
500.0
 20
271.2873110120927
 10
350.0
 20
286.8785357829026
 10
250.0
 20
255.69608624128276
 10
150.0
 20
224.5136366996629
 10
80.0
 20
163.396035598088
 10
0.0
 20
93.54734862485954
  0
LWPOLYLINE
  5
34
330
17
100
AcDbEntity
  8
O03
100
AcDbPolyline
 90
38
 70
1
 10
0.0
 20
93.54734862485954
 10
80.0
 20
163.396035598088
 10
150.0
 20
224.5136366996629
 10
250.0
 20
255.69608624128276
 10
350.0
 20
286.8785357829026
 10
500.0
 20
271.2873110120927
 10
650.0
 20
255.69608624128276
 10
800.0
 20
235.42749403922986
 10
950.0
 20
215.15890183717696
 10
1100.0
 20
204.24504449761
 10
1250.0
 20
193.33118715804304
 10
1400.0
 20
183.9764522955571
 10
1550.0
 20
174.62171743307115
 10
1725.0
 20
165.26698257058518
 10
1900.0
 20
155.91224770809924
 10
2050.0
 20
138.76190046020832
 10
2200.0
 20
121.61155321231739
 10
2280.0
 20
96.66559357902152
 10
2360.0
 20
71.71963394572565
 10
2360.0
 20
111.29224981583017
 10
2280.0
 20
150.00259757785807
 10
2200.0
 20
188.71294533988595
 10
2050.0
 20
215.32630942628012
 10
1900.0
 20
241.93967351267432
 10
1725.0
 20
256.45605392343475
 10
1550.0
 20
270.9724343341952
 10
1400.0
 20
285.4888147449557
 10
1250.0
 20
300.00519515571614
 10
1100.0
 20
316.9409723016033
 10
950.0
 20
333.87674944749057
 10
800.0
 20
365.3289070041382
 10
650.0
 20
396.78106456078586
 10
500.0
 20
420.9750319120533
 10
350.0
 20
445.1689992633207
 10
250.0
 20
396.78106456078586
 10
150.0
 20
348.393129858251
 10
80.0
 20
253.55277784128265
 10
0.0
 20
145.1638041076046
  0
LWPOLYLINE
  5
36
330
17
100
AcDbEntity
  8
O04
100
AcDbPolyline
 90
38
 70
1
 10
0.0
 20
145.1638041076046
 10
80.0
 20
253.55277784128265
 10
150.0
 20
348.393129858251
 10
250.0
 20
396.78106456078586
 10
350.0
 20
445.1689992633207
 10
500.0
 20
420.9750319120533
 10
650.0
 20
396.78106456078586
 10
800.0
 20
365.3289070041382
 10
950.0
 20
333.87674944749057
 10
1100.0
 20
316.9409723016033
 10
1250.0
 20
300.00519515571614
 10
1400.0
 20
285.4888147449557
 10
1550.0
 20
270.9724343341952
 10
1725.0
 20
256.45605392343475
 10
1900.0
 20
241.93967351267432
 10
2050.0
 20
215.32630942628012
 10
2200.0
 20
188.71294533988595
 10
2280.0
 20
150.00259757785807
 10
2360.0
 20
111.29224981583017
 10
2360.0
 20
149.16313526069368
 10
2280.0
 20
201.0459649165871
 10
2200.0
 20
252.92879457248057
 10
2050.0
 20
288.59823996090734
 10
1900.0
 20
324.2676853493341
 10
1725.0
 20
343.72374647029415
 10
1550.0
 20
363.1798075912542
 10
1400.0
 20
382.6358687122142
 10
1250.0
 20
402.0919298331742
 10
1100.0
 20
424.79066780762764
 10
950.0
 20
447.489405782081
 10
800.0
 20
489.6442048774945
 10
650.0
 20
531.7990039729079
 10
500.0
 20
564.2257725078413
 10
350.0
 20
596.6525410427747
 10
250.0
 20
531.7990039729079
 10
150.0
 20
466.94546690304105
 10
80.0
 20
339.8325342461021
 10
0.0
 20
194.56061120960047
  0
LWPOLYLINE
  5
38
330
17
100
AcDbEntity
  8
O05
100
AcDbPolyline
 90
38
 70
1
 10
0.0
 20
194.56061120960047
 10
80.0
 20
339.8325342461021
 10
150.0
 20
466.94546690304105
 10
250.0
 20
531.7990039729079
 10
350.0
 20
596.6525410427747
 10
500.0
 20
564.2257725078413
 10
650.0
 20
531.7990039729079
 10
800.0
 20
489.6442048774945
 10
950.0
 20
447.489405782081
 10
1100.0
 20
424.79066780762764
 10
1250.0
 20
402.0919298331742
 10
1400.0
 20
382.6358687122142
 10
1550.0
 20
363.1798075912542
 10
1725.0
 20
343.72374647029415
 10
1900.0
 20
324.2676853493341
 10
2050.0
 20
288.59823996090734
 10
2200.0
 20
252.92879457248057
 10
2280.0
 20
201.0459649165871
 10
2360.0
 20
149.16313526069368
 10
2360.0
 20
182.30639550420383
 10
2280.0
 20
245.71731567957906
 10
2200.0
 20
309.1282358549543
 10
2050.0
 20
352.72324347552484
 10
1900.0
 20
396.3182510960953
 10
1725.0
 20
420.09734616186097
 10
1550.0
 20
443.87644122762674
 10
1400.0
 20
467.65553629339246
 10
1250.0
 20
491.4346313591581
 10
1100.0
 20
519.1769089358849
 10
950.0
 20
546.9191865126114
 10
800.0
 20
598.4405591551039
 10
650.0
 20
649.9619317975963
 10
500.0
 20
689.5937569072058
 10
350.0
 20
729.2255820168153
 10
250.0
 20
649.9619317975963
 10
150.0
 20
570.6982815783772
 10
80.0
 20
415.3415271487078
 10
0.0
 20
237.79095065765716
  0
LWPOLYLINE
  5
3A
330
17
100
AcDbEntity
  8
O06A
100
AcDbPolyline
 90
14
 70
1
 10
650.0
 20
649.9619317975963
 10
800.0
 20
598.4405591551039
 10
950.0
 20
546.9191865126114
 10
1100.0
 20
519.1769089358849
 10
1250.0
 20
491.4346313591581
 10
1400.0
 20
467.65553629339246
 10
1550.0
 20
443.87644122762674
 10
1550.0
 20
506.61465071463607
 10
1400.0
 20
533.7547212886344
 10
1250.0
 20
560.8947918626328
 10
1100.0
 20
592.5582075322975
 10
950.0
 20
624.2216232019623
 10
800.0
 20
683.0251094456254
 10
650.0
 20
741.8285956892886
  0
LWPOLYLINE
  5
3C
330
17
100
AcDbEntity
  8
O06B
100
AcDbPolyline
 90
14
 70
1
 10
1550.0
 20
443.87644122762674
 10
1725.0
 20
420.09734616186097
 10
1900.0
 20
396.3182510960953
 10
2050.0
 20
352.72324347552484
 10
2200.0
 20
309.1282358549543
 10
2280.0
 20
245.71731567957906
 10
2360.0
 20
182.30639550420383
 10
2360.0
 20
208.0738744006541
 10
2280.0
 20
280.4473959313164
 10
2200.0
 20
352.82091746197875
 10
2050.0
 20
402.57771351430904
 10
1900.0
 20
452.3345095666394
 10
1725.0
 20
479.4745801406377
 10
1550.0
 20
506.61465071463607
  0
LWPOLYLINE
  5
3E
330
17
100
AcDbEntity
  8
O07A
100
AcDbPolyline
 90
14
 70
1
 10
650.0
 20
741.8285956892886
 10
800.0
 20
683.0251094456254
 10
950.0
 20
624.2216232019623
 10
1100.0
 20
592.5582075322975
 10
1250.0
 20
560.8947918626328
 10
1400.0
 20
533.7547212886344
 10
1550.0
 20
506.61465071463607
 10
1550.0
 20
546.3816348431379
 10
1400.0
 20
575.6520795668774
 10
1250.0
 20
604.9225242906169
 10
1100.0
 20
639.0713764683131
 10
950.0
 20
673.2202286460093
 10
800.0
 20
736.6395255474449
 10
650.0
 20
800.0588224488806
  0
LWPOLYLINE
  5
40
330
17
100
AcDbEntity
  8
O07B
100
AcDbPolyline
 90
14
 70
1
 10
1550.0
 20
506.61465071463607
 10
1725.0
 20
479.4745801406377
 10
1900.0
 20
452.3345095666394
 10
2050.0
 20
402.57771351430904
 10
2200.0
 20
352.82091746197875
 10
2280.0
 20
280.4473959313164
 10
2360.0
 20
208.0738744006541
 10
2360.0
 20
224.40674288200307
 10
2280.0
 20
302.46126214530847
 10
2200.0
 20
380.5157814086139
 10
2050.0
 20
434.1782634021364
 10
1900.0
 20
487.84074539565887
 10
1725.0
 20
517.1111901193984
 10
1550.0
 20
546.3816348431379
  0
LWPOLYLINE
  5
42
330
17
100
AcDbEntity
  8
O08A
100
AcDbPolyline
 90
14
 70
1
 10
650.0
 20
800.0588224488806
 10
800.0
 20
736.6395255474449
 10
950.0
 20
673.2202286460093
 10
1100.0
 20
639.0713764683131
 10
1250.0
 20
604.9225242906169
 10
1400.0
 20
575.6520795668774
 10
1550.0
 20
546.3816348431379
 10
1550.0
 20
560.0
 10
1400.0
 20
590.0
 10
1250.0
 20
620.0
 10
1100.0
 20
655.0
 10
950.0
 20
690.0
 10
800.0
 20
755.0000000000001
 10
650.0
 20
820.0
  0
LWPOLYLINE
  5
44
330
17
100
AcDbEntity
  8
O08B
100
AcDbPolyline
 90
14
 70
1
 10
1550.0
 20
546.3816348431379
 10
1725.0
 20
517.1111901193984
 10
1900.0
 20
487.84074539565887
 10
2050.0
 20
434.1782634021364
 10
2200.0
 20
380.5157814086139
 10
2280.0
 20
302.46126214530847
 10
2360.0
 20
224.40674288200307
 10
2360.0
 20
230.00000000000003
 10
2280.0
 20
310.0
 10
2200.0
 20
390.0
 10
2050.0
 20
445.0
 10
1900.0
 20
500.0
 10
1725.0
 20
530.0
 10
1550.0
 20
560.0
  0
LWPOLYLINE
  5
46
330
17
100
AcDbEntity
  8
O09A
100
AcDbPolyline
 90
14
 70
1
 10
650.0
 20
820.0
 10
800.0
 20
755.0000000000001
 10
950.0
 20
690.0
 10
1100.0
 20
655.0
 10
1250.0
 20
620.0
 10
1400.0
 20
590.0
 10
1550.0
 20
560.0
 10
1550.0
 20
546.3816348431379
 10
1400.0
 20
575.6520795668774
 10
1250.0
 20
604.9225242906169
 10
1100.0
 20
639.0713764683131
 10
950.0
 20
673.2202286460093
 10
800.0
 20
736.6395255474449
 10
650.0
 20
800.0588224488806
  0
LWPOLYLINE
  5
48
330
17
100
AcDbEntity
  8
O09B
100
AcDbPolyline
 90
14
 70
1
 10
1550.0
 20
560.0
 10
1725.0
 20
530.0
 10
1900.0
 20
500.0
 10
2050.0
 20
445.0
 10
2200.0
 20
390.0
 10
2280.0
 20
310.0
 10
2360.0
 20
230.00000000000003
 10
2360.0
 20
224.40674288200307
 10
2280.0
 20
302.46126214530847
 10
2200.0
 20
380.5157814086139
 10
2050.0
 20
434.1782634021364
 10
1900.0
 20
487.84074539565887
 10
1725.0
 20
517.1111901193984
 10
1550.0
 20
546.3816348431379
  0
LWPOLYLINE
  5
4A
330
17
100
AcDbEntity
  8
O10A
100
AcDbPolyline
 90
14
 70
1
 10
650.0
 20
800.0588224488806
 10
800.0
 20
736.6395255474449
 10
950.0
 20
673.2202286460093
 10
1100.0
 20
639.0713764683131
 10
1250.0
 20
604.9225242906169
 10
1400.0
 20
575.6520795668774
 10
1550.0
 20
546.3816348431379
 10
1550.0
 20
506.61465071463607
 10
1400.0
 20
533.7547212886344
 10
1250.0
 20
560.8947918626328
 10
1100.0
 20
592.5582075322975
 10
950.0
 20
624.2216232019623
 10
800.0
 20
683.0251094456254
 10
650.0
 20
741.8285956892886
  0
LWPOLYLINE
  5
4C
330
17
100
AcDbEntity
  8
O10B
100
AcDbPolyline
 90
14
 70
1
 10
1550.0
 20
546.3816348431379
 10
1725.0
 20
517.1111901193984
 10
1900.0
 20
487.84074539565887
 10
2050.0
 20
434.1782634021364
 10
2200.0
 20
380.5157814086139
 10
2280.0
 20
302.46126214530847
 10
2360.0
 20
224.40674288200307
 10
2360.0
 20
208.0738744006541
 10
2280.0
 20
280.4473959313164
 10
2200.0
 20
352.82091746197875
 10
2050.0
 20
402.57771351430904
 10
1900.0
 20
452.3345095666394
 10
1725.0
 20
479.4745801406377
 10
1550.0
 20
506.61465071463607
  0
LWPOLYLINE
  5
4E
330
17
100
AcDbEntity
  8
O11A
100
AcDbPolyline
 90
14
 70
1
 10
650.0
 20
741.8285956892886
 10
800.0
 20
683.0251094456254
 10
950.0
 20
624.2216232019623
 10
1100.0
 20
592.5582075322975
 10
1250.0
 20
560.8947918626328
 10
1400.0
 20
533.7547212886344
 10
1550.0
 20
506.61465071463607
 10
1550.0
 20
443.87644122762674
 10
1400.0
 20
467.65553629339246
 10
1250.0
 20
491.4346313591581
 10
1100.0
 20
519.1769089358849
 10
950.0
 20
546.9191865126114
 10
800.0
 20
598.4405591551039
 10
650.0
 20
649.9619317975963
  0
LWPOLYLINE
  5
50
330
17
100
AcDbEntity
  8
O11B
100
AcDbPolyline
 90
14
 70
1
 10
1550.0
 20
506.61465071463607
 10
1725.0
 20
479.4745801406377
 10
1900.0
 20
452.3345095666394
 10
2050.0
 20
402.57771351430904
 10
2200.0
 20
352.82091746197875
 10
2280.0
 20
280.4473959313164
 10
2360.0
 20
208.0738744006541
 10
2360.0
 20
182.30639550420383
 10
2280.0
 20
245.71731567957906
 10
2200.0
 20
309.1282358549543
 10
2050.0
 20
352.72324347552484
 10
1900.0
 20
396.3182510960953
 10
1725.0
 20
420.09734616186097
 10
1550.0
 20
443.87644122762674
  0
LWPOLYLINE
  5
52
330
17
100
AcDbEntity
  8
O12
100
AcDbPolyline
 90
38
 70
1
 10
0.0
 20
237.79095065765716
 10
80.0
 20
415.3415271487078
 10
150.0
 20
570.6982815783772
 10
250.0
 20
649.9619317975963
 10
350.0
 20
729.2255820168153
 10
500.0
 20
689.5937569072058
 10
650.0
 20
649.9619317975963
 10
800.0
 20
598.4405591551039
 10
950.0
 20
546.9191865126114
 10
1100.0
 20
519.1769089358849
 10
1250.0
 20
491.4346313591581
 10
1400.0
 20
467.65553629339246
 10
1550.0
 20
443.87644122762674
 10
1725.0
 20
420.09734616186097
 10
1900.0
 20
396.3182510960953
 10
2050.0
 20
352.72324347552484
 10
2200.0
 20
309.1282358549543
 10
2280.0
 20
245.71731567957906
 10
2360.0
 20
182.30639550420383
 10
2360.0
 20
149.16313526069368
 10
2280.0
 20
201.0459649165871
 10
2200.0
 20
252.92879457248057
 10
2050.0
 20
288.59823996090734
 10
1900.0
 20
324.2676853493341
 10
1725.0
 20
343.72374647029415
 10
1550.0
 20
363.1798075912542
 10
1400.0
 20
382.6358687122142
 10
1250.0
 20
402.0919298331742
 10
1100.0
 20
424.79066780762764
 10
950.0
 20
447.489405782081
 10
800.0
 20
489.6442048774945
 10
650.0
 20
531.7990039729079
 10
500.0
 20
564.2257725078413
 10
350.0
 20
596.6525410427747
 10
250.0
 20
531.7990039729079
 10
150.0
 20
466.94546690304105
 10
80.0
 20
339.8325342461021
 10
0.0
 20
194.56061120960047
  0
LWPOLYLINE
  5
54
330
17
100
AcDbEntity
  8
O13
100
AcDbPolyline
 90
38
 70
1
 10
0.0
 20
194.56061120960047
 10
80.0
 20
339.8325342461021
 10
150.0
 20
466.94546690304105
 10
250.0
 20
531.7990039729079
 10
350.0
 20
596.6525410427747
 10
500.0
 20
564.2257725078413
 10
650.0
 20
531.7990039729079
 10
800.0
 20
489.6442048774945
 10
950.0
 20
447.489405782081
 10
1100.0
 20
424.79066780762764
 10
1250.0
 20
402.0919298331742
 10
1400.0
 20
382.6358687122142
 10
1550.0
 20
363.1798075912542
 10
1725.0
 20
343.72374647029415
 10
1900.0
 20
324.2676853493341
 10
2050.0
 20
288.59823996090734
 10
2200.0
 20
252.92879457248057
 10
2280.0
 20
201.0459649165871
 10
2360.0
 20
149.16313526069368
 10
2360.0
 20
111.29224981583019
 10
2280.0
 20
150.0025975778581
 10
2200.0
 20
188.71294533988598
 10
2050.0
 20
215.32630942628018
 10
1900.0
 20
241.93967351267435
 10
1725.0
 20
256.4560539234348
 10
1550.0
 20
270.9724343341952
 10
1400.0
 20
285.48881474495573
 10
1250.0
 20
300.0051951557162
 10
1100.0
 20
316.9409723016034
 10
950.0
 20
333.8767494474906
 10
800.0
 20
365.3289070041383
 10
650.0
 20
396.78106456078586
 10
500.0
 20
420.97503191205334
 10
350.0
 20
445.16899926332076
 10
250.0
 20
396.78106456078586
 10
150.0
 20
348.3931298582511
 10
80.0
 20
253.5527778412827
 10
0.0
 20
145.1638041076046
  0
LWPOLYLINE
  5
56
330
17
100
AcDbEntity
  8
O14
100
AcDbPolyline
 90
38
 70
1
 10
0.0
 20
145.1638041076046
 10
80.0
 20
253.5527778412827
 10
150.0
 20
348.3931298582511
 10
250.0
 20
396.78106456078586
 10
350.0
 20
445.16899926332076
 10
500.0
 20
420.97503191205334
 10
650.0
 20
396.78106456078586
 10
800.0
 20
365.3289070041383
 10
950.0
 20
333.8767494474906
 10
1100.0
 20
316.9409723016034
 10
1250.0
 20
300.0051951557162
 10
1400.0
 20
285.48881474495573
 10
1550.0
 20
270.9724343341952
 10
1725.0
 20
256.4560539234348
 10
1900.0
 20
241.93967351267435
 10
2050.0
 20
215.32630942628018
 10
2200.0
 20
188.71294533988598
 10
2280.0
 20
150.0025975778581
 10
2360.0
 20
111.29224981583019
 10
2360.0
 20
71.71963394572562
 10
2280.0
 20
96.66559357902149
 10
2200.0
 20
121.61155321231735
 10
2050.0
 20
138.76190046020827
 10
1900.0
 20
155.9122477080992
 10
1725.0
 20
165.26698257058513
 10
1550.0
 20
174.62171743307107
 10
1400.0
 20
183.976452295557
 10
1250.0
 20
193.33118715804298
 10
1100.0
 20
204.24504449760994
 10
950.0
 20
215.15890183717684
 10
800.0
 20
235.42749403922974
 10
650.0
 20
255.69608624128264
 10
500.0
 20
271.2873110120926
 10
350.0
 20
286.8785357829025
 10
250.0
 20
255.69608624128264
 10
150.0
 20
224.51363669966278
 10
80.0
 20
163.3960355980879
 10
0.0
 20
93.54734862485951
  0
LWPOLYLINE
  5
58
330
17
100
AcDbEntity
  8
O15
100
AcDbPolyline
 90
38
 70
1
 10
0.0
 20
93.54734862485951
 10
80.0
 20
163.3960355980879
 10
150.0
 20
224.51363669966278
 10
250.0
 20
255.69608624128264
 10
350.0
 20
286.8785357829025
 10
500.0
 20
271.2873110120926
 10
650.0
 20
255.69608624128264
 10
800.0
 20
235.42749403922974
 10
950.0
 20
215.15890183717684
 10
1100.0
 20
204.24504449760994
 10
1250.0
 20
193.33118715804298
 10
1400.0
 20
183.976452295557
 10
1550.0
 20
174.62171743307107
 10
1725.0
 20
165.26698257058513
 10
1900.0
 20
155.9122477080992
 10
2050.0
 20
138.76190046020827
 10
2200.0
 20
121.61155321231735
 10
2280.0
 20
96.66559357902149
 10
2360.0
 20
71.71963394572562
 10
2360.0
 20
33.607151183060715
 10
2280.0
 20
45.29659507282097
 10
2200.0
 20
56.98603896258121
 10
2050.0
 20
65.02253163679138
 10
1900.0
 20
73.05902431100155
 10
1725.0
 20
77.44256576966166
 10
1550.0
 20
81.82610722832175
 10
1400.0
 20
86.20964868698182
 10
1250.0
 20
90.59319014564194
 10
1100.0
 20
95.70732184741203
 10
950.0
 20
100.82145354918215
 10
800.0
 20
110.31912670961235
 10
650.0
 20
119.81679987004254
 10
500.0
 20
127.12270230114271
 10
350.0
 20
134.42860473224286
 10
250.0
 20
119.81679987004254
 10
150.0
 20
105.20499500784223
 10
80.0
 20
76.56585747792963
 10
0.0
 20
43.83541458660093
  0
LWPOLYLINE
  5
5A
330
17
100
AcDbEntity
  8
O16
100
AcDbPolyline
 90
38
 70
1
 10
0.0
 20
43.83541458660093
 10
80.0
 20
76.56585747792963
 10
150.0
 20
105.20499500784223
 10
250.0
 20
119.81679987004254
 10
350.0
 20
134.42860473224286
 10
500.0
 20
127.12270230114271
 10
650.0
 20
119.81679987004254
 10
800.0
 20
110.31912670961235
 10
950.0
 20
100.82145354918215
 10
1100.0
 20
95.70732184741203
 10
1250.0
 20
90.59319014564194
 10
1400.0
 20
86.20964868698182
 10
1550.0
 20
81.82610722832175
 10
1725.0
 20
77.44256576966166
 10
1900.0
 20
73.05902431100155
 10
2050.0
 20
65.02253163679138
 10
2200.0
 20
56.98603896258121
 10
2280.0
 20
45.29659507282097
 10
2360.0
 20
33.607151183060715
 10
2360.0
 20
0.0
 10
2280.0
 20
0.0
 10
2200.0
 20
0.0
 10
2050.0
 20
0.0
 10
1900.0
 20
0.0
 10
1725.0
 20
0.0
 10
1550.0
 20
0.0
 10
1400.0
 20
0.0
 10
1250.0
 20
0.0
 10
1100.0
 20
0.0
 10
950.0
 20
0.0
 10
800.0
 20
0.0
 10
650.0
 20
0.0
 10
500.0
 20
0.0
 10
350.0
 20
0.0
 10
250.0
 20
0.0
 10
150.0
 20
0.0
 10
80.0
 20
0.0
 10
0.0
 20
0.0
  0
LWPOLYLINE
  5
5C
330
17
100
AcDbEntity
  8
OF
100
AcDbPolyline
 90
38
 70
1
 10
0.0
 20
0.0
 10
80.0
 20
0.0
 10
150.0
 20
0.0
 10
250.0
 20
0.0
 10
350.0
 20
0.0
 10
500.0
 20
0.0
 10
650.0
 20
0.0
 10
800.0
 20
0.0
 10
950.0
 20
0.0
 10
1100.0
 20
0.0
 10
1250.0
 20
0.0
 10
1400.0
 20
0.0
 10
1550.0
 20
0.0
 10
1725.0
 20
0.0
 10
1900.0
 20
0.0
 10
2050.0
 20
0.0
 10
2200.0
 20
0.0
 10
2280.0
 20
0.0
 10
2360.0
 20
0.0
 10
2360.0
 20
0.0
 10
2280.0
 20
0.0
 10
2200.0
 20
0.0
 10
2050.0
 20
0.0
 10
1900.0
 20
0.0
 10
1725.0
 20
0.0
 10
1550.0
 20
0.0
 10
1400.0
 20
0.0
 10
1250.0
 20
0.0
 10
1100.0
 20
0.0
 10
950.0
 20
0.0
 10
800.0
 20
0.0
 10
650.0
 20
0.0
 10
500.0
 20
0.0
 10
350.0
 20
0.0
 10
250.0
 20
0.0
 10
150.0
 20
0.0
 10
80.0
 20
0.0
 10
0.0
 20
0.0
  0
LWPOLYLINE
  5
5E
330
17
100
AcDbEntity
  8
OHEAD
100
AcDbPolyline
 90
17
 70
1
 10
0.0
 20
0.0
 10
0.0
 20
43.83541458660097
 10
0.0
 20
93.54734862485954
 10
0.0
 20
145.1638041076046
 10
0.0
 20
194.56061120960047
 10
0.0
 20
237.79095065765716
 10
0.0
 20
271.4007057399836
 10
0.0
 20
292.7044472373953
 10
0.0
 20
300.0
 10
0.0
 20
292.7044472373953
 10
0.0
 20
271.4007057399836
 10
0.0
 20
237.79095065765716
 10
0.0
 20
194.56061120960047
 10
0.0
 20
145.1638041076046
 10
0.0
 20
93.54734862485951
 10
0.0
 20
43.83541458660093
 10
0.0
 20
0.0
  0
LWPOLYLINE
  5
60
330
17
100
AcDbEntity
  8
OFOOT
100
AcDbPolyline
 90
17
 70
1
 10
2360.0
 20
0.0
 10
2360.0
 20
33.607151183060736
 10
2360.0
 20
71.71963394572565
 10
2360.0
 20
111.29224981583017
 10
2360.0
 20
149.16313526069368
 10
2360.0
 20
182.30639550420383
 10
2360.0
 20
208.0738744006541
 10
2360.0
 20
224.40674288200307
 10
2360.0
 20
230.00000000000003
 10
2360.0
 20
224.40674288200307
 10
2360.0
 20
208.0738744006541
 10
2360.0
 20
182.30639550420383
 10
2360.0
 20
149.16313526069368
 10
2360.0
 20
111.29224981583019
 10
2360.0
 20
71.71963394572562
 10
2360.0
 20
33.607151183060715
 10
2360.0
 20
0.0
  0
LWPOLYLINE
  5
62
330
17
100
AcDbEntity
  8
FOAM_MATTRESS
100
AcDbPolyline
 90
2
 70
0
 10
80.0
 20
120.0
 10
80.0
 20
24.0
  0
LWPOLYLINE
  5
63
330
17
100
AcDbEntity
  8
FOAM_MATTRESS
100
AcDbPolyline
 90
2
 70
0
 10
150.0
 20
24.0
 10
150.0
 20
120.0
  0
LWPOLYLINE
  5
64
330
17
100
AcDbEntity
  8
FOAM_MATTRESS
100
AcDbPolyline
 90
2
 70
0
 10
80.0
 20
24.0
 10
150.0
 20
24.0
  0
LWPOLYLINE
  5
65
330
17
100
AcDbEntity
  8
FOAM_MATTRESS
100
AcDbPolyline
 90
2
 70
0
 10
150.0
 20
120.0
 10
80.0
 20
120.0
  0
LWPOLYLINE
  5
66
330
17
100
AcDbEntity
  8
FOAM_MATTRESS
100
AcDbPolyline
 90
2
 70
0
 10
150.0
 20
120.0
 10
350.0
 20
120.0
  0
LWPOLYLINE
  5
67
330
17
100
AcDbEntity
  8
FOAM_MATTRESS
100
AcDbPolyline
 90
2
 70
0
 10
350.0
 20
120.0
 10
1250.0
 20
120.0
  0
LWPOLYLINE
  5
68
330
17
100
AcDbEntity
  8
FOAM_MATTRESS
100
AcDbPolyline
 90
2
 70
0
 10
1250.0
 20
120.0
 10
1550.0
 20
120.0
  0
LWPOLYLINE
  5
69
330
17
100
AcDbEntity
  8
FOAM_MATTRESS
100
AcDbPolyline
 90
2
 70
0
 10
1550.0
 20
120.0
 10
1900.0
 20
120.0
  0
LWPOLYLINE
  5
6A
330
17
100
AcDbEntity
  8
FOAM_MATTRESS
100
AcDbPolyline
 90
2
 70
0
 10
1900.0
 20
120.0
 10
2200.0
 20
120.0
  0
LWPOLYLINE
  5
6B
330
17
100
AcDbEntity
  8
FOAM_MATTRESS
100
AcDbPolyline
 90
2
 70
0
 10
2200.0
 20
120.0
 10
2280.0
 20
120.0
  0
LWPOLYLINE
  5
6C
330
17
100
AcDbEntity
  8
FOAM_MATTRESS
100
AcDbPolyline
 90
2
 70
0
 10
2280.0
 20
120.0
 10
2280.0
 20
120.0
  0
LWPOLYLINE
  5
6D
330
17
100
AcDbEntity
  8
FOAM_MATTRESS
100
AcDbPolyline
 90
2
 70
0
 10
2280.0
 20
120.0
 10
2200.0
 20
120.0
  0
LWPOLYLINE
  5
6E
330
17
100
AcDbEntity
  8
FOAM_MATTRESS
100
AcDbPolyline
 90
2
 70
0
 10
2200.0
 20
120.0
 10
1900.0
 20
120.0
  0
LWPOLYLINE
  5
6F
330
17
100
AcDbEntity
  8
FOAM_MATTRESS
100
AcDbPolyline
 90
2
 70
0
 10
1900.0
 20
120.0
 10
1550.0
 20
120.0
  0
LWPOLYLINE
  5
70
330
17
100
AcDbEntity
  8
FOAM_MATTRESS
100
AcDbPolyline
 90
2
 70
0
 10
1550.0
 20
120.0
 10
1250.0
 20
120.0
  0
LWPOLYLINE
  5
71
330
17
100
AcDbEntity
  8
FOAM_MATTRESS
100
AcDbPolyline
 90
2
 70
0
 10
1250.0
 20
120.0
 10
350.0
 20
120.0
  0
LWPOLYLINE
  5
72
330
17
100
AcDbEntity
  8
FOAM_MATTRESS
100
AcDbPolyline
 90
2
 70
0
 10
350.0
 20
120.0
 10
150.0
 20
120.0
  0
LWPOLYLINE
  5
73
330
17
100
AcDbEntity
  8
FOAM_MATTRESS
100
AcDbPolyline
 90
2
 70
0
 10
150.0
 20
120.0
 10
80.0
 20
120.0
  0
LWPOLYLINE
  5
74
330
17
100
AcDbEntity
  8
FOAM_MATTRESS
100
AcDbPolyline
 90
2
 70
0
 10
80.0
 20
120.0
 10
80.0
 20
120.0
  0
LWPOLYLINE
  5
75
330
17
100
AcDbEntity
  8
FOAM_MATTRESS
100
AcDbPolyline
 90
2
 70
0
 10
150.0
 20
120.0
 10
150.0
 20
24.0
  0
LWPOLYLINE
  5
76
330
17
100
AcDbEntity
  8
FOAM_MATTRESS
100
AcDbPolyline
 90
2
 70
0
 10
80.0
 20
24.0
 10
80.0
 20
120.0
  0
LWPOLYLINE
  5
77
330
17
100
AcDbEntity
  8
FOAM_MATTRESS
100
AcDbPolyline
 90
2
 70
0
 10
150.0
 20
24.0
 10
80.0
 20
24.0
  0
LWPOLYLINE
  5
78
330
17
100
AcDbEntity
  8
FOAM_MATTRESS
100
AcDbPolyline
 90
2
 70
0
 10
350.0
 20
120.0
 10
350.0
 20
24.0
  0
LWPOLYLINE
  5
79
330
17
100
AcDbEntity
  8
FOAM_MATTRESS
100
AcDbPolyline
 90
2
 70
0
 10
350.0
 20
24.0
 10
150.0
 20
24.0
  0
LWPOLYLINE
  5
7A
330
17
100
AcDbEntity
  8
FOAM_MATTRESS
100
AcDbPolyline
 90
2
 70
0
 10
1250.0
 20
120.0
 10
1250.0
 20
24.0
  0
LWPOLYLINE
  5
7B
330
17
100
AcDbEntity
  8
FOAM_MATTRESS
100
AcDbPolyline
 90
2
 70
0
 10
1250.0
 20
24.0
 10
350.0
 20
24.0
  0
LWPOLYLINE
  5
7C
330
17
100
AcDbEntity
  8
FOAM_MATTRESS
100
AcDbPolyline
 90
2
 70
0
 10
1550.0
 20
120.0
 10
1550.0
 20
24.0
  0
LWPOLYLINE
  5
7D
330
17
100
AcDbEntity
  8
FOAM_MATTRESS
100
AcDbPolyline
 90
2
 70
0
 10
1550.0
 20
24.0
 10
1250.0
 20
24.0
  0
LWPOLYLINE
  5
7E
330
17
100
AcDbEntity
  8
FOAM_MATTRESS
100
AcDbPolyline
 90
2
 70
0
 10
1900.0
 20
120.0
 10
1900.0
 20
24.0
  0
LWPOLYLINE
  5
7F
330
17
100
AcDbEntity
  8
FOAM_MATTRESS
100
AcDbPolyline
 90
2
 70
0
 10
1900.0
 20
24.0
 10
1550.0
 20
24.0
  0
LWPOLYLINE
  5
80
330
17
100
AcDbEntity
  8
FOAM_MATTRESS
100
AcDbPolyline
 90
2
 70
0
 10
2200.0
 20
120.0
 10
2200.0
 20
24.0
  0
LWPOLYLINE
  5
81
330
17
100
AcDbEntity
  8
FOAM_MATTRESS
100
AcDbPolyline
 90
2
 70
0
 10
2200.0
 20
24.0
 10
1900.0
 20
24.0
  0
LWPOLYLINE
  5
82
330
17
100
AcDbEntity
  8
FOAM_MATTRESS
100
AcDbPolyline
 90
2
 70
0
 10
2280.0
 20
120.0
 10
2280.0
 20
24.0
  0
LWPOLYLINE
  5
83
330
17
100
AcDbEntity
  8
FOAM_MATTRESS
100
AcDbPolyline
 90
2
 70
0
 10
2280.0
 20
24.0
 10
2200.0
 20
24.0
  0
LWPOLYLINE
  5
84
330
17
100
AcDbEntity
  8
FOAM_MATTRESS
100
AcDbPolyline
 90
2
 70
0
 10
2280.0
 20
120.0
 10
2280.0
 20
24.0
  0
LWPOLYLINE
  5
85
330
17
100
AcDbEntity
  8
FOAM_MATTRESS
100
AcDbPolyline
 90
2
 70
0
 10
2280.0
 20
24.0
 10
2280.0
 20
24.0
  0
LWPOLYLINE
  5
86
330
17
100
AcDbEntity
  8
FOAM_MATTRESS
100
AcDbPolyline
 90
2
 70
0
 10
2200.0
 20
120.0
 10
2200.0
 20
24.0
  0
LWPOLYLINE
  5
87
330
17
100
AcDbEntity
  8
FOAM_MATTRESS
100
AcDbPolyline
 90
2
 70
0
 10
2200.0
 20
24.0
 10
2280.0
 20
24.0
  0
LWPOLYLINE
  5
88
330
17
100
AcDbEntity
  8
FOAM_MATTRESS
100
AcDbPolyline
 90
2
 70
0
 10
1900.0
 20
120.0
 10
1900.0
 20
24.0
  0
LWPOLYLINE
  5
89
330
17
100
AcDbEntity
  8
FOAM_MATTRESS
100
AcDbPolyline
 90
2
 70
0
 10
1900.0
 20
24.0
 10
2200.0
 20
24.0
  0
LWPOLYLINE
  5
8A
330
17
100
AcDbEntity
  8
FOAM_MATTRESS
100
AcDbPolyline
 90
2
 70
0
 10
1550.0
 20
120.0
 10
1550.0
 20
24.0
  0
LWPOLYLINE
  5
8B
330
17
100
AcDbEntity
  8
FOAM_MATTRESS
100
AcDbPolyline
 90
2
 70
0
 10
1550.0
 20
24.0
 10
1900.0
 20
24.0
  0
LWPOLYLINE
  5
8C
330
17
100
AcDbEntity
  8
FOAM_MATTRESS
100
AcDbPolyline
 90
2
 70
0
 10
1250.0
 20
120.0
 10
1250.0
 20
24.0
  0
LWPOLYLINE
  5
8D
330
17
100
AcDbEntity
  8
FOAM_MATTRESS
100
AcDbPolyline
 90
2
 70
0
 10
1250.0
 20
24.0
 10
1550.0
 20
24.0
  0
LWPOLYLINE
  5
8E
330
17
100
AcDbEntity
  8
FOAM_MATTRESS
100
AcDbPolyline
 90
2
 70
0
 10
350.0
 20
120.0
 10
350.0
 20
24.0
  0
LWPOLYLINE
  5
8F
330
17
100
AcDbEntity
  8
FOAM_MATTRESS
100
AcDbPolyline
 90
2
 70
0
 10
350.0
 20
24.0
 10
1250.0
 20
24.0
  0
LWPOLYLINE
  5
90
330
17
100
AcDbEntity
  8
FOAM_MATTRESS
100
AcDbPolyline
 90
2
 70
0
 10
350.0
 20
24.0
 10
150.0
 20
24.0
  0
LWPOLYLINE
  5
91
330
17
100
AcDbEntity
  8
FOAM_MATTRESS
100
AcDbPolyline
 90
2
 70
0
 10
80.0
 20
24.0
 10
80.0
 20
24.0
  0
LWPOLYLINE
  5
93
330
17
100
AcDbEntity
  8
FOAM_UNDERLAY
100
AcDbPolyline
 90
2
 70
0
 10
0.0
 20
24.0
 10
0.0
 20
0.0
  0
LWPOLYLINE
  5
94
330
17
100
AcDbEntity
  8
FOAM_UNDERLAY
100
AcDbPolyline
 90
2
 70
0
 10
150.0
 20
24.0
 10
0.0
 20
24.0
  0
LWPOLYLINE
  5
95
330
17
100
AcDbEntity
  8
FOAM_UNDERLAY
100
AcDbPolyline
 90
2
 70
0
 10
150.0
 20
0.0
 10
150.0
 20
24.0
  0
LWPOLYLINE
  5
96
330
17
100
AcDbEntity
  8
FOAM_UNDERLAY
100
AcDbPolyline
 90
2
 70
0
 10
0.0
 20
0.0
 10
150.0
 20
0.0
  0
LWPOLYLINE
  5
97
330
17
100
AcDbEntity
  8
FOAM_UNDERLAY
100
AcDbPolyline
 90
2
 70
0
 10
350.0
 20
0.0
 10
150.0
 20
0.0
  0
LWPOLYLINE
  5
98
330
17
100
AcDbEntity
  8
FOAM_UNDERLAY
100
AcDbPolyline
 90
2
 70
0
 10
1250.0
 20
0.0
 10
350.0
 20
0.0
  0
LWPOLYLINE
  5
99
330
17
100
AcDbEntity
  8
FOAM_UNDERLAY
100
AcDbPolyline
 90
2
 70
0
 10
1550.0
 20
0.0
 10
1250.0
 20
0.0
  0
LWPOLYLINE
  5
9A
330
17
100
AcDbEntity
  8
FOAM_UNDERLAY
100
AcDbPolyline
 90
2
 70
0
 10
1900.0
 20
0.0
 10
1550.0
 20
0.0
  0
LWPOLYLINE
  5
9B
330
17
100
AcDbEntity
  8
FOAM_UNDERLAY
100
AcDbPolyline
 90
2
 70
0
 10
2200.0
 20
0.0
 10
1900.0
 20
0.0
  0
LWPOLYLINE
  5
9C
330
17
100
AcDbEntity
  8
FOAM_UNDERLAY
100
AcDbPolyline
 90
2
 70
0
 10
2360.0
 20
0.0
 10
2200.0
 20
0.0
  0
LWPOLYLINE
  5
9D
330
17
100
AcDbEntity
  8
FOAM_UNDERLAY
100
AcDbPolyline
 90
2
 70
0
 10
2360.0
 20
0.0
 10
2360.0
 20
0.0
  0
LWPOLYLINE
  5
9E
330
17
100
AcDbEntity
  8
FOAM_UNDERLAY
100
AcDbPolyline
 90
2
 70
0
 10
2200.0
 20
0.0
 10
2360.0
 20
0.0
  0
LWPOLYLINE
  5
9F
330
17
100
AcDbEntity
  8
FOAM_UNDERLAY
100
AcDbPolyline
 90
2
 70
0
 10
1900.0
 20
0.0
 10
2200.0
 20
0.0
  0
LWPOLYLINE
  5
A0
330
17
100
AcDbEntity
  8
FOAM_UNDERLAY
100
AcDbPolyline
 90
2
 70
0
 10
1550.0
 20
0.0
 10
1900.0
 20
0.0
  0
LWPOLYLINE
  5
A1
330
17
100
AcDbEntity
  8
FOAM_UNDERLAY
100
AcDbPolyline
 90
2
 70
0
 10
1250.0
 20
0.0
 10
1550.0
 20
0.0
  0
LWPOLYLINE
  5
A2
330
17
100
AcDbEntity
  8
FOAM_UNDERLAY
100
AcDbPolyline
 90
2
 70
0
 10
350.0
 20
0.0
 10
1250.0
 20
0.0
  0
LWPOLYLINE
  5
A3
330
17
100
AcDbEntity
  8
FOAM_UNDERLAY
100
AcDbPolyline
 90
2
 70
0
 10
150.0
 20
0.0
 10
350.0
 20
0.0
  0
LWPOLYLINE
  5
A4
330
17
100
AcDbEntity
  8
FOAM_UNDERLAY
100
AcDbPolyline
 90
2
 70
0
 10
0.0
 20
0.0
 10
150.0
 20
0.0
  0
LWPOLYLINE
  5
A5
330
17
100
AcDbEntity
  8
FOAM_UNDERLAY
100
AcDbPolyline
 90
2
 70
0
 10
0.0
 20
0.0
 10
0.0
 20
0.0
  0
LWPOLYLINE
  5
A6
330
17
100
AcDbEntity
  8
FOAM_UNDERLAY
100
AcDbPolyline
 90
2
 70
0
 10
150.0
 20
24.0
 10
150.0
 20
0.0
  0
LWPOLYLINE
  5
A7
330
17
100
AcDbEntity
  8
FOAM_UNDERLAY
100
AcDbPolyline
 90
2
 70
0
 10
0.0
 20
24.0
 10
150.0
 20
24.0
  0
LWPOLYLINE
  5
A8
330
17
100
AcDbEntity
  8
FOAM_UNDERLAY
100
AcDbPolyline
 90
2
 70
0
 10
0.0
 20
0.0
 10
0.0
 20
24.0
  0
LWPOLYLINE
  5
A9
330
17
100
AcDbEntity
  8
FOAM_UNDERLAY
100
AcDbPolyline
 90
2
 70
0
 10
350.0
 20
24.0
 10
350.0
 20
0.0
  0
LWPOLYLINE
  5
AA
330
17
100
AcDbEntity
  8
FOAM_UNDERLAY
100
AcDbPolyline
 90
2
 70
0
 10
150.0
 20
24.0
 10
350.0
 20
24.0
  0
LWPOLYLINE
  5
AB
330
17
100
AcDbEntity
  8
FOAM_UNDERLAY
100
AcDbPolyline
 90
2
 70
0
 10
1250.0
 20
24.0
 10
1250.0
 20
0.0
  0
LWPOLYLINE
  5
AC
330
17
100
AcDbEntity
  8
FOAM_UNDERLAY
100
AcDbPolyline
 90
2
 70
0
 10
350.0
 20
24.0
 10
1250.0
 20
24.0
  0
LWPOLYLINE
  5
AD
330
17
100
AcDbEntity
  8
FOAM_UNDERLAY
100
AcDbPolyline
 90
2
 70
0
 10
1550.0
 20
24.0
 10
1550.0
 20
0.0
  0
LWPOLYLINE
  5
AE
330
17
100
AcDbEntity
  8
FOAM_UNDERLAY
100
AcDbPolyline
 90
2
 70
0
 10
1250.0
 20
24.0
 10
1550.0
 20
24.0
  0
LWPOLYLINE
  5
AF
330
17
100
AcDbEntity
  8
FOAM_UNDERLAY
100
AcDbPolyline
 90
2
 70
0
 10
1900.0
 20
24.0
 10
1900.0
 20
0.0
  0
LWPOLYLINE
  5
B0
330
17
100
AcDbEntity
  8
FOAM_UNDERLAY
100
AcDbPolyline
 90
2
 70
0
 10
1550.0
 20
24.0
 10
1900.0
 20
24.0
  0
LWPOLYLINE
  5
B1
330
17
100
AcDbEntity
  8
FOAM_UNDERLAY
100
AcDbPolyline
 90
2
 70
0
 10
2200.0
 20
24.0
 10
2200.0
 20
0.0
  0
LWPOLYLINE
  5
B2
330
17
100
AcDbEntity
  8
FOAM_UNDERLAY
100
AcDbPolyline
 90
2
 70
0
 10
1900.0
 20
24.0
 10
2200.0
 20
24.0
  0
LWPOLYLINE
  5
B3
330
17
100
AcDbEntity
  8
FOAM_UNDERLAY
100
AcDbPolyline
 90
2
 70
0
 10
2360.0
 20
24.0
 10
2360.0
 20
0.0
  0
LWPOLYLINE
  5
B4
330
17
100
AcDbEntity
  8
FOAM_UNDERLAY
100
AcDbPolyline
 90
2
 70
0
 10
2200.0
 20
24.0
 10
2360.0
 20
24.0
  0
LWPOLYLINE
  5
B5
330
17
100
AcDbEntity
  8
FOAM_UNDERLAY
100
AcDbPolyline
 90
2
 70
0
 10
2360.0
 20
24.0
 10
2360.0
 20
0.0
  0
LWPOLYLINE
  5
B6
330
17
100
AcDbEntity
  8
FOAM_UNDERLAY
100
AcDbPolyline
 90
2
 70
0
 10
2360.0
 20
24.0
 10
2360.0
 20
24.0
  0
LWPOLYLINE
  5
B7
330
17
100
AcDbEntity
  8
FOAM_UNDERLAY
100
AcDbPolyline
 90
2
 70
0
 10
2200.0
 20
24.0
 10
2200.0
 20
0.0
  0
LWPOLYLINE
  5
B8
330
17
100
AcDbEntity
  8
FOAM_UNDERLAY
100
AcDbPolyline
 90
2
 70
0
 10
2360.0
 20
24.0
 10
2200.0
 20
24.0
  0
LWPOLYLINE
  5
B9
330
17
100
AcDbEntity
  8
FOAM_UNDERLAY
100
AcDbPolyline
 90
2
 70
0
 10
1900.0
 20
24.0
 10
1900.0
 20
0.0
  0
LWPOLYLINE
  5
BA
330
17
100
AcDbEntity
  8
FOAM_UNDERLAY
100
AcDbPolyline
 90
2
 70
0
 10
2200.0
 20
24.0
 10
1900.0
 20
24.0
  0
LWPOLYLINE
  5
BB
330
17
100
AcDbEntity
  8
FOAM_UNDERLAY
100
AcDbPolyline
 90
2
 70
0
 10
1550.0
 20
24.0
 10
1550.0
 20
0.0
  0
LWPOLYLINE
  5
BC
330
17
100
AcDbEntity
  8
FOAM_UNDERLAY
100
AcDbPolyline
 90
2
 70
0
 10
1900.0
 20
24.0
 10
1550.0
 20
24.0
  0
LWPOLYLINE
  5
BD
330
17
100
AcDbEntity
  8
FOAM_UNDERLAY
100
AcDbPolyline
 90
2
 70
0
 10
1250.0
 20
24.0
 10
1250.0
 20
0.0
  0
LWPOLYLINE
  5
BE
330
17
100
AcDbEntity
  8
FOAM_UNDERLAY
100
AcDbPolyline
 90
2
 70
0
 10
1550.0
 20
24.0
 10
1250.0
 20
24.0
  0
LWPOLYLINE
  5
BF
330
17
100
AcDbEntity
  8
FOAM_UNDERLAY
100
AcDbPolyline
 90
2
 70
0
 10
350.0
 20
24.0
 10
350.0
 20
0.0
  0
LWPOLYLINE
  5
C0
330
17
100
AcDbEntity
  8
FOAM_UNDERLAY
100
AcDbPolyline
 90
2
 70
0
 10
1250.0
 20
24.0
 10
350.0
 20
24.0
  0
LWPOLYLINE
  5
C1
330
17
100
AcDbEntity
  8
FOAM_UNDERLAY
100
AcDbPolyline
 90
2
 70
0
 10
350.0
 20
24.0
 10
150.0
 20
24.0
  0
LWPOLYLINE
  5
C2
330
17
100
AcDbEntity
  8
FOAM_UNDERLAY
100
AcDbPolyline
 90
2
 70
0
 10
0.0
 20
24.0
 10
0.0
 20
24.0
  0
LWPOLYLINE
  5
C4
330
17
100
AcDbEntity
  8
EH0
100
AcDbPolyline
 90
2
 70
0
 10
260.0
 20
220.00000000000003
 10
735.6974338109596
 20
220.00000000000003
  0
LWPOLYLINE
  5
C5
330
17
100
AcDbEntity
  8
EH0
100
AcDbPolyline
 90
2
 70
0
 10
735.6974338109596
 20
220.00000000000003
 10
260.0
 20
242.18945267740878
  0
LWPOLYLINE
  5
C6
330
17
100
AcDbEntity
  8
EH0
100
AcDbPolyline
 90
2
 70
0
 10
260.0
 20
242.18945267740878
 10
260.0
 20
220.00000000000003
  0
LWPOLYLINE
  5
C7
330
17
100
AcDbEntity
  8
EH0
100
AcDbPolyline
 90
2
 70
0
 10
735.6974338109596
 20
220.00000000000003
 10
735.6974338109596
 20
242.18945267740878
  0
LWPOLYLINE
  5
C8
330
17
100
AcDbEntity
  8
EH0
100
AcDbPolyline
 90
2
 70
0
 10
735.6974338109596
 20
242.18945267740878
 10
260.0
 20
242.18945267740878
  0
LWPOLYLINE
  5
C9
330
17
100
AcDbEntity
  8
EH0
100
AcDbPolyline
 90
2
 70
0
 10
735.6974338109596
 20
242.18945267740878
 10
260.0
 20
263.9992376674286
  0
LWPOLYLINE
  5
CA
330
17
100
AcDbEntity
  8
EH0
100
AcDbPolyline
 90
2
 70
0
 10
260.0
 20
263.9992376674286
 10
260.0
 20
242.18945267740878
  0
LWPOLYLINE
  5
CB
330
17
100
AcDbEntity
  8
EH0
100
AcDbPolyline
 90
2
 70
0
 10
735.6974338109596
 20
242.18945267740878
 10
735.6974338109596
 20
263.9992376674286
  0
LWPOLYLINE
  5
CC
330
17
100
AcDbEntity
  8
EH0
100
AcDbPolyline
 90
2
 70
0
 10
735.6974338109596
 20
263.9992376674286
 10
260.0
 20
263.9992376674286
  0
LWPOLYLINE
  5
CD
330
17
100
AcDbEntity
  8
EH0
100
AcDbPolyline
 90
2
 70
0
 10
735.6974338109596
 20
263.9992376674286
 10
260.0
 20
285.05618350206527
  0
LWPOLYLINE
  5
CE
330
17
100
AcDbEntity
  8
EH0
100
AcDbPolyline
 90
2
 70
0
 10
260.0
 20
285.05618350206527
 10
260.0
 20
263.9992376674286
  0
LWPOLYLINE
  5
CF
330
17
100
AcDbEntity
  8
EH0
100
AcDbPolyline
 90
2
 70
0
 10
735.6974338109596
 20
263.9992376674286
 10
735.6974338109596
 20
285.05618350206527
  0
LWPOLYLINE
  5
D0
330
17
100
AcDbEntity
  8
EH0
100
AcDbPolyline
 90
2
 70
0
 10
735.6974338109596
 20
285.05618350206527
 10
260.0
 20
285.05618350206527
  0
LWPOLYLINE
  5
D1
330
17
100
AcDbEntity
  8
EH0
100
AcDbPolyline
 90
2
 70
0
 10
735.6974338109596
 20
285.05618350206527
 10
260.0
 20
305.0
  0
LWPOLYLINE
  5
D2
330
17
100
AcDbEntity
  8
EH0
100
AcDbPolyline
 90
2
 70
0
 10
260.0
 20
305.0
 10
260.0
 20
285.05618350206527
  0
LWPOLYLINE
  5
D3
330
17
100
AcDbEntity
  8
EH0
100
AcDbPolyline
 90
2
 70
0
 10
735.6974338109596
 20
285.05618350206527
 10
735.6974338109596
 20
305.0
  0
LWPOLYLINE
  5
D4
330
17
100
AcDbEntity
  8
EH0
100
AcDbPolyline
 90
2
 70
0
 10
735.6974338109596
 20
305.0
 10
260.0
 20
305.0
  0
LWPOLYLINE
  5
D5
330
17
100
AcDbEntity
  8
EH0
100
AcDbPolyline
 90
2
 70
0
 10
735.6974338109596
 20
305.0
 10
260.0
 20
323.48944293148253
  0
LWPOLYLINE
  5
D6
330
17
100
AcDbEntity
  8
EH0
100
AcDbPolyline
 90
2
 70
0
 10
260.0
 20
323.48944293148253
 10
260.0
 20
305.0
  0
LWPOLYLINE
  5
D7
330
17
100
AcDbEntity
  8
EH0
100
AcDbPolyline
 90
2
 70
0
 10
735.6974338109596
 20
305.0
 10
735.6974338109596
 20
323.48944293148253
  0
LWPOLYLINE
  5
D8
330
17
100
AcDbEntity
  8
EH0
100
AcDbPolyline
 90
2
 70
0
 10
735.6974338109596
 20
323.48944293148253
 10
260.0
 20
323.48944293148253
  0
LWPOLYLINE
  5
D9
330
17
100
AcDbEntity
  8
EH0
100
AcDbPolyline
 90
2
 70
0
 10
735.6974338109596
 20
323.48944293148253
 10
260.0
 20
340.2081528017131
  0
LWPOLYLINE
  5
DA
330
17
100
AcDbEntity
  8
EH0
100
AcDbPolyline
 90
2
 70
0
 10
260.0
 20
340.2081528017131
 10
260.0
 20
323.48944293148253
  0
LWPOLYLINE
  5
DB
330
17
100
AcDbEntity
  8
EH0
100
AcDbPolyline
 90
2
 70
0
 10
735.6974338109596
 20
323.48944293148253
 10
735.6974338109596
 20
340.2081528017131
  0
LWPOLYLINE
  5
DC
330
17
100
AcDbEntity
  8
EH0
100
AcDbPolyline
 90
2
 70
0
 10
735.6974338109596
 20
340.2081528017131
 10
260.0
 20
340.2081528017131
  0
LWPOLYLINE
  5
DD
330
17
100
AcDbEntity
  8
EH0
100
AcDbPolyline
 90
2
 70
0
 10
735.6974338109596
 20
340.2081528017131
 10
260.0
 20
354.87006784950995
  0
LWPOLYLINE
  5
DE
330
17
100
AcDbEntity
  8
EH0
100
AcDbPolyline
 90
2
 70
0
 10
260.0
 20
354.87006784950995
 10
260.0
 20
340.2081528017131
  0
LWPOLYLINE
  5
DF
330
17
100
AcDbEntity
  8
EH0
100
AcDbPolyline
 90
2
 70
0
 10
735.6974338109596
 20
340.2081528017131
 10
735.6974338109596
 20
354.87006784950995
  0
LWPOLYLINE
  5
E0
330
17
100
AcDbEntity
  8
EH0
100
AcDbPolyline
 90
2
 70
0
 10
735.6974338109596
 20
354.87006784950995
 10
260.0
 20
354.87006784950995
  0
LWPOLYLINE
  5
E1
330
17
100
AcDbEntity
  8
EH0
100
AcDbPolyline
 90
2
 70
0
 10
735.6974338109596
 20
354.87006784950995
 10
260.0
 20
367.22431864335454
  0
LWPOLYLINE
  5
E2
330
17
100
AcDbEntity
  8
EH0
100
AcDbPolyline
 90
2
 70
0
 10
260.0
 20
367.22431864335454
 10
260.0
 20
354.87006784950995
  0
LWPOLYLINE
  5
E3
330
17
100
AcDbEntity
  8
EH0
100
AcDbPolyline
 90
2
 70
0
 10
735.6974338109596
 20
354.87006784950995
 10
735.6974338109596
 20
367.22431864335454
  0
LWPOLYLINE
  5
E4
330
17
100
AcDbEntity
  8
EH0
100
AcDbPolyline
 90
2
 70
0
 10
735.6974338109596
 20
367.22431864335454
 10
260.0
 20
367.22431864335454
  0
LWPOLYLINE
  5
E5
330
17
100
AcDbEntity
  8
EH0
100
AcDbPolyline
 90
2
 70
0
 10
735.6974338109596
 20
367.22431864335454
 10
260.0
 20
377.05952052691873
  0
LWPOLYLINE
  5
E6
330
17
100
AcDbEntity
  8
EH0
100
AcDbPolyline
 90
2
 70
0
 10
260.0
 20
377.05952052691873
 10
260.0
 20
367.22431864335454
  0
LWPOLYLINE
  5
E7
330
17
100
AcDbEntity
  8
EH0
100
AcDbPolyline
 90
2
 70
0
 10
735.6974338109596
 20
367.22431864335454
 10
735.6974338109596
 20
377.05952052691873
  0
LWPOLYLINE
  5
E8
330
17
100
AcDbEntity
  8
EH0
100
AcDbPolyline
 90
2
 70
0
 10
735.6974338109596
 20
377.05952052691873
 10
260.0
 20
377.05952052691873
  0
LWPOLYLINE
  5
E9
330
17
100
AcDbEntity
  8
EH0
100
AcDbPolyline
 90
2
 70
0
 10
735.6974338109596
 20
377.05952052691873
 10
260.0
 20
384.2073904691416
  0
LWPOLYLINE
  5
EA
330
17
100
AcDbEntity
  8
EH0
100
AcDbPolyline
 90
2
 70
0
 10
260.0
 20
384.2073904691416
 10
260.0
 20
377.05952052691873
  0
LWPOLYLINE
  5
EB
330
17
100
AcDbEntity
  8
EH0
100
AcDbPolyline
 90
2
 70
0
 10
735.6974338109596
 20
377.05952052691873
 10
735.6974338109596
 20
384.2073904691416
  0
LWPOLYLINE
  5
EC
330
17
100
AcDbEntity
  8
EH0
100
AcDbPolyline
 90
2
 70
0
 10
735.6974338109596
 20
384.2073904691416
 10
260.0
 20
384.2073904691416
  0
LWPOLYLINE
  5
ED
330
17
100
AcDbEntity
  8
EH0
100
AcDbPolyline
 90
2
 70
0
 10
735.6974338109596
 20
384.2073904691416
 10
260.0
 20
388.5456264335478
  0
LWPOLYLINE
  5
EE
330
17
100
AcDbEntity
  8
EH0
100
AcDbPolyline
 90
2
 70
0
 10
260.0
 20
388.5456264335478
 10
260.0
 20
384.2073904691416
  0
LWPOLYLINE
  5
EF
330
17
100
AcDbEntity
  8
EH0
100
AcDbPolyline
 90
2
 70
0
 10
735.6974338109596
 20
384.2073904691416
 10
735.6974338109596
 20
388.5456264335478
  0
LWPOLYLINE
  5
F0
330
17
100
AcDbEntity
  8
EH0
100
AcDbPolyline
 90
2
 70
0
 10
735.6974338109596
 20
388.5456264335478
 10
260.0
 20
388.5456264335478
  0
LWPOLYLINE
  5
F1
330
17
100
AcDbEntity
  8
EH0
100
AcDbPolyline
 90
2
 70
0
 10
735.6974338109596
 20
388.5456264335478
 10
260.0
 20
390.0
  0
LWPOLYLINE
  5
F2
330
17
100
AcDbEntity
  8
EH0
100
AcDbPolyline
 90
2
 70
0
 10
260.0
 20
390.0
 10
260.0
 20
388.5456264335478
  0
LWPOLYLINE
  5
F3
330
17
100
AcDbEntity
  8
EH0
100
AcDbPolyline
 90
2
 70
0
 10
735.6974338109596
 20
388.5456264335478
 10
735.6974338109596
 20
390.0
  0
LWPOLYLINE
  5
F4
330
17
100
AcDbEntity
  8
EH0
100
AcDbPolyline
 90
2
 70
0
 10
735.6974338109596
 20
390.0
 10
260.0
 20
390.0
  0
LWPOLYLINE
  5
F5
330
17
100
AcDbEntity
  8
EH0
100
AcDbPolyline
 90
2
 70
0
 10
735.6974338109596
 20
390.0
 10
260.0
 20
388.5456264335478
  0
LWPOLYLINE
  5
F6
330
17
100
AcDbEntity
  8
EH0
100
AcDbPolyline
 90
2
 70
0
 10
260.0
 20
388.5456264335478
 10
260.0
 20
390.0
  0
LWPOLYLINE
  5
F7
330
17
100
AcDbEntity
  8
EH0
100
AcDbPolyline
 90
2
 70
0
 10
735.6974338109596
 20
390.0
 10
735.6974338109596
 20
388.5456264335478
  0
LWPOLYLINE
  5
F8
330
17
100
AcDbEntity
  8
EH0
100
AcDbPolyline
 90
2
 70
0
 10
735.6974338109596
 20
388.5456264335478
 10
260.0
 20
388.5456264335478
  0
LWPOLYLINE
  5
F9
330
17
100
AcDbEntity
  8
EH0
100
AcDbPolyline
 90
2
 70
0
 10
735.6974338109596
 20
388.5456264335478
 10
260.0
 20
384.2073904691416
  0
LWPOLYLINE
  5
FA
330
17
100
AcDbEntity
  8
EH0
100
AcDbPolyline
 90
2
 70
0
 10
260.0
 20
384.2073904691416
 10
260.0
 20
388.5456264335478
  0
LWPOLYLINE
  5
FB
330
17
100
AcDbEntity
  8
EH0
100
AcDbPolyline
 90
2
 70
0
 10
735.6974338109596
 20
388.5456264335478
 10
735.6974338109596
 20
384.2073904691416
  0
LWPOLYLINE
  5
FC
330
17
100
AcDbEntity
  8
EH0
100
AcDbPolyline
 90
2
 70
0
 10
735.6974338109596
 20
384.2073904691416
 10
260.0
 20
384.2073904691416
  0
LWPOLYLINE
  5
FD
330
17
100
AcDbEntity
  8
EH0
100
AcDbPolyline
 90
2
 70
0
 10
735.6974338109596
 20
384.2073904691416
 10
260.0
 20
377.05952052691873
  0
LWPOLYLINE
  5
FE
330
17
100
AcDbEntity
  8
EH0
100
AcDbPolyline
 90
2
 70
0
 10
260.0
 20
377.05952052691873
 10
260.0
 20
384.2073904691416
  0
LWPOLYLINE
  5
FF
330
17
100
AcDbEntity
  8
EH0
100
AcDbPolyline
 90
2
 70
0
 10
735.6974338109596
 20
384.2073904691416
 10
735.6974338109596
 20
377.05952052691873
  0
LWPOLYLINE
  5
100
330
17
100
AcDbEntity
  8
EH0
100
AcDbPolyline
 90
2
 70
0
 10
735.6974338109596
 20
377.05952052691873
 10
260.0
 20
377.05952052691873
  0
LWPOLYLINE
  5
101
330
17
100
AcDbEntity
  8
EH0
100
AcDbPolyline
 90
2
 70
0
 10
735.6974338109596
 20
377.05952052691873
 10
260.0
 20
367.2243186433546
  0
LWPOLYLINE
  5
102
330
17
100
AcDbEntity
  8
EH0
100
AcDbPolyline
 90
2
 70
0
 10
260.0
 20
367.2243186433546
 10
260.0
 20
377.05952052691873
  0
LWPOLYLINE
  5
103
330
17
100
AcDbEntity
  8
EH0
100
AcDbPolyline
 90
2
 70
0
 10
735.6974338109596
 20
377.05952052691873
 10
735.6974338109596
 20
367.2243186433546
  0
LWPOLYLINE
  5
104
330
17
100
AcDbEntity
  8
EH0
100
AcDbPolyline
 90
2
 70
0
 10
735.6974338109596
 20
367.2243186433546
 10
260.0
 20
367.2243186433546
  0
LWPOLYLINE
  5
105
330
17
100
AcDbEntity
  8
EH0
100
AcDbPolyline
 90
2
 70
0
 10
735.6974338109596
 20
367.2243186433546
 10
260.0
 20
354.87006784951
  0
LWPOLYLINE
  5
106
330
17
100
AcDbEntity
  8
EH0
100
AcDbPolyline
 90
2
 70
0
 10
260.0
 20
354.87006784951
 10
260.0
 20
367.2243186433546
  0
LWPOLYLINE
  5
107
330
17
100
AcDbEntity
  8
EH0
100
AcDbPolyline
 90
2
 70
0
 10
735.6974338109596
 20
367.2243186433546
 10
735.6974338109596
 20
354.87006784951
  0
LWPOLYLINE
  5
108
330
17
100
AcDbEntity
  8
EH0
100
AcDbPolyline
 90
2
 70
0
 10
735.6974338109596
 20
354.87006784951
 10
260.0
 20
354.87006784951
  0
LWPOLYLINE
  5
109
330
17
100
AcDbEntity
  8
EH0
100
AcDbPolyline
 90
2
 70
0
 10
735.6974338109596
 20
354.87006784951
 10
260.0
 20
340.2081528017131
  0
LWPOLYLINE
  5
10A
330
17
100
AcDbEntity
  8
EH0
100
AcDbPolyline
 90
2
 70
0
 10
260.0
 20
340.2081528017131
 10
260.0
 20
354.87006784951
  0
LWPOLYLINE
  5
10B
330
17
100
AcDbEntity
  8
EH0
100
AcDbPolyline
 90
2
 70
0
 10
735.6974338109596
 20
354.87006784951
 10
735.6974338109596
 20
340.2081528017131
  0
LWPOLYLINE
  5
10C
330
17
100
AcDbEntity
  8
EH0
100
AcDbPolyline
 90
2
 70
0
 10
735.6974338109596
 20
340.2081528017131
 10
260.0
 20
340.2081528017131
  0
LWPOLYLINE
  5
10D
330
17
100
AcDbEntity
  8
EH0
100
AcDbPolyline
 90
2
 70
0
 10
735.6974338109596
 20
340.2081528017131
 10
260.0
 20
323.48944293148253
  0
LWPOLYLINE
  5
10E
330
17
100
AcDbEntity
  8
EH0
100
AcDbPolyline
 90
2
 70
0
 10
260.0
 20
323.48944293148253
 10
260.0
 20
340.2081528017131
  0
LWPOLYLINE
  5
10F
330
17
100
AcDbEntity
  8
EH0
100
AcDbPolyline
 90
2
 70
0
 10
735.6974338109596
 20
340.2081528017131
 10
735.6974338109596
 20
323.48944293148253
  0
LWPOLYLINE
  5
110
330
17
100
AcDbEntity
  8
EH0
100
AcDbPolyline
 90
2
 70
0
 10
735.6974338109596
 20
323.48944293148253
 10
260.0
 20
323.48944293148253
  0
LWPOLYLINE
  5
111
330
17
100
AcDbEntity
  8
EH0
100
AcDbPolyline
 90
2
 70
0
 10
735.6974338109596
 20
323.48944293148253
 10
260.0
 20
305.00000000000006
  0
LWPOLYLINE
  5
112
330
17
100
AcDbEntity
  8
EH0
100
AcDbPolyline
 90
2
 70
0
 10
260.0
 20
305.00000000000006
 10
260.0
 20
323.48944293148253
  0
LWPOLYLINE
  5
113
330
17
100
AcDbEntity
  8
EH0
100
AcDbPolyline
 90
2
 70
0
 10
735.6974338109596
 20
323.48944293148253
 10
735.6974338109596
 20
305.00000000000006
  0
LWPOLYLINE
  5
114
330
17
100
AcDbEntity
  8
EH0
100
AcDbPolyline
 90
2
 70
0
 10
735.6974338109596
 20
305.00000000000006
 10
260.0
 20
305.00000000000006
  0
LWPOLYLINE
  5
115
330
17
100
AcDbEntity
  8
EH0
100
AcDbPolyline
 90
2
 70
0
 10
735.6974338109596
 20
305.00000000000006
 10
260.0
 20
285.05618350206527
  0
LWPOLYLINE
  5
116
330
17
100
AcDbEntity
  8
EH0
100
AcDbPolyline
 90
2
 70
0
 10
260.0
 20
285.05618350206527
 10
260.0
 20
305.00000000000006
  0
LWPOLYLINE
  5
117
330
17
100
AcDbEntity
  8
EH0
100
AcDbPolyline
 90
2
 70
0
 10
735.6974338109596
 20
305.00000000000006
 10
735.6974338109596
 20
285.05618350206527
  0
LWPOLYLINE
  5
118
330
17
100
AcDbEntity
  8
EH0
100
AcDbPolyline
 90
2
 70
0
 10
735.6974338109596
 20
285.05618350206527
 10
260.0
 20
285.05618350206527
  0
LWPOLYLINE
  5
119
330
17
100
AcDbEntity
  8
EH0
100
AcDbPolyline
 90
2
 70
0
 10
735.6974338109596
 20
285.05618350206527
 10
260.0
 20
263.99923766742853
  0
LWPOLYLINE
  5
11A
330
17
100
AcDbEntity
  8
EH0
100
AcDbPolyline
 90
2
 70
0
 10
260.0
 20
263.99923766742853
 10
260.0
 20
285.05618350206527
  0
LWPOLYLINE
  5
11B
330
17
100
AcDbEntity
  8
EH0
100
AcDbPolyline
 90
2
 70
0
 10
735.6974338109596
 20
285.05618350206527
 10
735.6974338109596
 20
263.99923766742853
  0
LWPOLYLINE
  5
11C
330
17
100
AcDbEntity
  8
EH0
100
AcDbPolyline
 90
2
 70
0
 10
735.6974338109596
 20
263.99923766742853
 10
260.0
 20
263.99923766742853
  0
LWPOLYLINE
  5
11D
330
17
100
AcDbEntity
  8
EH0
100
AcDbPolyline
 90
2
 70
0
 10
735.6974338109596
 20
263.99923766742853
 10
260.0
 20
242.1894526774088
  0
LWPOLYLINE
  5
11E
330
17
100
AcDbEntity
  8
EH0
100
AcDbPolyline
 90
2
 70
0
 10
260.0
 20
242.1894526774088
 10
260.0
 20
263.99923766742853
  0
LWPOLYLINE
  5
11F
330
17
100
AcDbEntity
  8
EH0
100
AcDbPolyline
 90
2
 70
0
 10
735.6974338109596
 20
263.99923766742853
 10
735.6974338109596
 20
242.1894526774088
  0
LWPOLYLINE
  5
120
330
17
100
AcDbEntity
  8
EH0
100
AcDbPolyline
 90
2
 70
0
 10
735.6974338109596
 20
242.1894526774088
 10
260.0
 20
242.1894526774088
  0
LWPOLYLINE
  5
121
330
17
100
AcDbEntity
  8
EH0
100
AcDbPolyline
 90
2
 70
0
 10
735.6974338109596
 20
242.1894526774088
 10
260.0
 20
220.0
  0
LWPOLYLINE
  5
122
330
17
100
AcDbEntity
  8
EH0
100
AcDbPolyline
 90
2
 70
0
 10
260.0
 20
220.0
 10
260.0
 20
242.1894526774088
  0
LWPOLYLINE
  5
123
330
17
100
AcDbEntity
  8
EH0
100
AcDbPolyline
 90
2
 70
0
 10
735.6974338109596
 20
242.1894526774088
 10
735.6974338109596
 20
220.0
  0
LWPOLYLINE
  5
124
330
17
100
AcDbEntity
  8
EH0
100
AcDbPolyline
 90
2
 70
0
 10
735.6974338109596
 20
220.0
 10
260.0
 20
220.0
  0
LWPOLYLINE
  5
126
330
17
100
AcDbEntity
  8
EH1
100
AcDbPolyline
 90
2
 70
0
 10
1280.0
 20
180.00000000000003
 10
1781.0480414550757
 20
180.00000000000003
  0
LWPOLYLINE
  5
127
330
17
100
AcDbEntity
  8
EH1
100
AcDbPolyline
 90
2
 70
0
 10
1781.0480414550757
 20
180.00000000000003
 10
1280.0
 20
202.71155744628896
  0
LWPOLYLINE
  5
128
330
17
100
AcDbEntity
  8
EH1
100
AcDbPolyline
 90
2
 70
0
 10
1280.0
 20
202.71155744628896
 10
1280.0
 20
180.00000000000003
  0
LWPOLYLINE
  5
129
330
17
100
AcDbEntity
  8
EH1
100
AcDbPolyline
 90
2
 70
0
 10
1781.0480414550757
 20
180.00000000000003
 10
1781.0480414550757
 20
202.71155744628896
  0
LWPOLYLINE
  5
12A
330
17
100
AcDbEntity
  8
EH1
100
AcDbPolyline
 90
2
 70
0
 10
1781.0480414550757
 20
202.71155744628896
 10
1280.0
 20
202.71155744628896
  0
LWPOLYLINE
  5
12B
330
17
100
AcDbEntity
  8
EH1
100
AcDbPolyline
 90
2
 70
0
 10
1781.0480414550757
 20
202.71155744628896
 10
1280.0
 20
225.03451384783867
  0
LWPOLYLINE
  5
12C
330
17
100
AcDbEntity
  8
EH1
100
AcDbPolyline
 90
2
 70
0
 10
1280.0
 20
225.03451384783867
 10
1280.0
 20
202.71155744628896
  0
LWPOLYLINE
  5
12D
330
17
100
AcDbEntity
  8
EH1
100
AcDbPolyline
 90
2
 70
0
 10
1781.0480414550757
 20
202.71155744628896
 10
1781.0480414550757
 20
225.03451384783867
  0
LWPOLYLINE
  5
12E
330
17
100
AcDbEntity
  8
EH1
100
AcDbPolyline
 90
2
 70
0
 10
1781.0480414550757
 20
225.03451384783867
 10
1280.0
 20
225.03451384783867
  0
LWPOLYLINE
  5
12F
330
17
100
AcDbEntity
  8
EH1
100
AcDbPolyline
 90
2
 70
0
 10
1781.0480414550757
 20
225.03451384783867
 10
1280.0
 20
246.58691723152566
  0
LWPOLYLINE
  5
130
330
17
100
AcDbEntity
  8
EH1
100
AcDbPolyline
 90
2
 70
0
 10
1280.0
 20
246.58691723152566
 10
1280.0
 20
225.03451384783867
  0
LWPOLYLINE
  5
131
330
17
100
AcDbEntity
  8
EH1
100
AcDbPolyline
 90
2
 70
0
 10
1781.0480414550757
 20
225.03451384783867
 10
1781.0480414550757
 20
246.58691723152566
  0
LWPOLYLINE
  5
132
330
17
100
AcDbEntity
  8
EH1
100
AcDbPolyline
 90
2
 70
0
 10
1781.0480414550757
 20
246.58691723152566
 10
1280.0
 20
246.58691723152566
  0
LWPOLYLINE
  5
133
330
17
100
AcDbEntity
  8
EH1
100
AcDbPolyline
 90
2
 70
0
 10
1781.0480414550757
 20
246.58691723152566
 10
1280.0
 20
267.0
  0
LWPOLYLINE
  5
134
330
17
100
AcDbEntity
  8
EH1
100
AcDbPolyline
 90
2
 70
0
 10
1280.0
 20
267.0
 10
1280.0
 20
246.58691723152566
  0
LWPOLYLINE
  5
135
330
17
100
AcDbEntity
  8
EH1
100
AcDbPolyline
 90
2
 70
0
 10
1781.0480414550757
 20
246.58691723152566
 10
1781.0480414550757
 20
267.0
  0
LWPOLYLINE
  5
136
330
17
100
AcDbEntity
  8
EH1
100
AcDbPolyline
 90
2
 70
0
 10
1781.0480414550757
 20
267.0
 10
1280.0
 20
267.0
  0
LWPOLYLINE
  5
137
330
17
100
AcDbEntity
  8
EH1
100
AcDbPolyline
 90
2
 70
0
 10
1781.0480414550757
 20
267.0
 10
1280.0
 20
285.9244886475174
  0
LWPOLYLINE
  5
138
330
17
100
AcDbEntity
  8
EH1
100
AcDbPolyline
 90
2
 70
0
 10
1280.0
 20
285.9244886475174
 10
1280.0
 20
267.0
  0
LWPOLYLINE
  5
139
330
17
100
AcDbEntity
  8
EH1
100
AcDbPolyline
 90
2
 70
0
 10
1781.0480414550757
 20
267.0
 10
1781.0480414550757
 20
285.9244886475174
  0
LWPOLYLINE
  5
13A
330
17
100
AcDbEntity
  8
EH1
100
AcDbPolyline
 90
2
 70
0
 10
1781.0480414550757
 20
285.9244886475174
 10
1280.0
 20
285.9244886475174
  0
LWPOLYLINE
  5
13B
330
17
100
AcDbEntity
  8
EH1
100
AcDbPolyline
 90
2
 70
0
 10
1781.0480414550757
 20
285.9244886475174
 10
1280.0
 20
303.0365799264593
  0
LWPOLYLINE
  5
13C
330
17
100
AcDbEntity
  8
EH1
100
AcDbPolyline
 90
2
 70
0
 10
1280.0
 20
303.0365799264593
 10
1280.0
 20
285.9244886475174
  0
LWPOLYLINE
  5
13D
330
17
100
AcDbEntity
  8
EH1
100
AcDbPolyline
 90
2
 70
0
 10
1781.0480414550757
 20
285.9244886475174
 10
1781.0480414550757
 20
303.0365799264593
  0
LWPOLYLINE
  5
13E
330
17
100
AcDbEntity
  8
EH1
100
AcDbPolyline
 90
2
 70
0
 10
1781.0480414550757
 20
303.0365799264593
 10
1280.0
 20
303.0365799264593
  0
LWPOLYLINE
  5
13F
330
17
100
AcDbEntity
  8
EH1
100
AcDbPolyline
 90
2
 70
0
 10
1781.0480414550757
 20
303.0365799264593
 10
1280.0
 20
318.04348121067494
  0
LWPOLYLINE
  5
140
330
17
100
AcDbEntity
  8
EH1
100
AcDbPolyline
 90
2
 70
0
 10
1280.0
 20
318.04348121067494
 10
1280.0
 20
303.0365799264593
  0
LWPOLYLINE
  5
141
330
17
100
AcDbEntity
  8
EH1
100
AcDbPolyline
 90
2
 70
0
 10
1781.0480414550757
 20
303.0365799264593
 10
1781.0480414550757
 20
318.04348121067494
  0
LWPOLYLINE
  5
142
330
17
100
AcDbEntity
  8
EH1
100
AcDbPolyline
 90
2
 70
0
 10
1781.0480414550757
 20
318.04348121067494
 10
1280.0
 20
318.04348121067494
  0
LWPOLYLINE
  5
143
330
17
100
AcDbEntity
  8
EH1
100
AcDbPolyline
 90
2
 70
0
 10
1781.0480414550757
 20
318.04348121067494
 10
1280.0
 20
330.68842025849233
  0
LWPOLYLINE
  5
144
330
17
100
AcDbEntity
  8
EH1
100
AcDbPolyline
 90
2
 70
0
 10
1280.0
 20
330.68842025849233
 10
1280.0
 20
318.04348121067494
  0
LWPOLYLINE
  5
145
330
17
100
AcDbEntity
  8
EH1
100
AcDbPolyline
 90
2
 70
0
 10
1781.0480414550757
 20
318.04348121067494
 10
1781.0480414550757
 20
330.68842025849233
  0
LWPOLYLINE
  5
146
330
17
100
AcDbEntity
  8
EH1
100
AcDbPolyline
 90
2
 70
0
 10
1781.0480414550757
 20
330.68842025849233
 10
1280.0
 20
330.68842025849233
  0
LWPOLYLINE
  5
147
330
17
100
AcDbEntity
  8
EH1
100
AcDbPolyline
 90
2
 70
0
 10
1781.0480414550757
 20
330.68842025849233
 10
1280.0
 20
340.7550386569639
  0
LWPOLYLINE
  5
148
330
17
100
AcDbEntity
  8
EH1
100
AcDbPolyline
 90
2
 70
0
 10
1280.0
 20
340.7550386569639
 10
1280.0
 20
330.68842025849233
  0
LWPOLYLINE
  5
149
330
17
100
AcDbEntity
  8
EH1
100
AcDbPolyline
 90
2
 70
0
 10
1781.0480414550757
 20
330.68842025849233
 10
1781.0480414550757
 20
340.7550386569639
  0
LWPOLYLINE
  5
14A
330
17
100
AcDbEntity
  8
EH1
100
AcDbPolyline
 90
2
 70
0
 10
1781.0480414550757
 20
340.7550386569639
 10
1280.0
 20
340.7550386569639
  0
LWPOLYLINE
  5
14B
330
17
100
AcDbEntity
  8
EH1
100
AcDbPolyline
 90
2
 70
0
 10
1781.0480414550757
 20
340.7550386569639
 10
1280.0
 20
348.0710937742979
  0
LWPOLYLINE
  5
14C
330
17
100
AcDbEntity
  8
EH1
100
AcDbPolyline
 90
2
 70
0
 10
1280.0
 20
348.0710937742979
 10
1280.0
 20
340.7550386569639
  0
LWPOLYLINE
  5
14D
330
17
100
AcDbEntity
  8
EH1
100
AcDbPolyline
 90
2
 70
0
 10
1781.0480414550757
 20
340.7550386569639
 10
1781.0480414550757
 20
348.0710937742979
  0
LWPOLYLINE
  5
14E
330
17
100
AcDbEntity
  8
EH1
100
AcDbPolyline
 90
2
 70
0
 10
1781.0480414550757
 20
348.0710937742979
 10
1280.0
 20
348.0710937742979
  0
LWPOLYLINE
  5
14F
330
17
100
AcDbEntity
  8
EH1
100
AcDbPolyline
 90
2
 70
0
 10
1781.0480414550757
 20
348.0710937742979
 10
1280.0
 20
352.51140587904297
  0
LWPOLYLINE
  5
150
330
17
100
AcDbEntity
  8
EH1
100
AcDbPolyline
 90
2
 70
0
 10
1280.0
 20
352.51140587904297
 10
1280.0
 20
348.0710937742979
  0
LWPOLYLINE
  5
151
330
17
100
AcDbEntity
  8
EH1
100
AcDbPolyline
 90
2
 70
0
 10
1781.0480414550757
 20
348.0710937742979
 10
1781.0480414550757
 20
352.51140587904297
  0
LWPOLYLINE
  5
152
330
17
100
AcDbEntity
  8
EH1
100
AcDbPolyline
 90
2
 70
0
 10
1781.0480414550757
 20
352.51140587904297
 10
1280.0
 20
352.51140587904297
  0
LWPOLYLINE
  5
153
330
17
100
AcDbEntity
  8
EH1
100
AcDbPolyline
 90
2
 70
0
 10
1781.0480414550757
 20
352.51140587904297
 10
1280.0
 20
354.0
  0
LWPOLYLINE
  5
154
330
17
100
AcDbEntity
  8
EH1
100
AcDbPolyline
 90
2
 70
0
 10
1280.0
 20
354.0
 10
1280.0
 20
352.51140587904297
  0
LWPOLYLINE
  5
155
330
17
100
AcDbEntity
  8
EH1
100
AcDbPolyline
 90
2
 70
0
 10
1781.0480414550757
 20
352.51140587904297
 10
1781.0480414550757
 20
354.0
  0
LWPOLYLINE
  5
156
330
17
100
AcDbEntity
  8
EH1
100
AcDbPolyline
 90
2
 70
0
 10
1781.0480414550757
 20
354.0
 10
1280.0
 20
354.0
  0
LWPOLYLINE
  5
157
330
17
100
AcDbEntity
  8
EH1
100
AcDbPolyline
 90
2
 70
0
 10
1781.0480414550757
 20
354.0
 10
1280.0
 20
352.51140587904297
  0
LWPOLYLINE
  5
158
330
17
100
AcDbEntity
  8
EH1
100
AcDbPolyline
 90
2
 70
0
 10
1280.0
 20
352.51140587904297
 10
1280.0
 20
354.0
  0
LWPOLYLINE
  5
159
330
17
100
AcDbEntity
  8
EH1
100
AcDbPolyline
 90
2
 70
0
 10
1781.0480414550757
 20
354.0
 10
1781.0480414550757
 20
352.51140587904297
  0
LWPOLYLINE
  5
15A
330
17
100
AcDbEntity
  8
EH1
100
AcDbPolyline
 90
2
 70
0
 10
1781.0480414550757
 20
352.51140587904297
 10
1280.0
 20
352.51140587904297
  0
LWPOLYLINE
  5
15B
330
17
100
AcDbEntity
  8
EH1
100
AcDbPolyline
 90
2
 70
0
 10
1781.0480414550757
 20
352.51140587904297
 10
1280.0
 20
348.0710937742979
  0
LWPOLYLINE
  5
15C
330
17
100
AcDbEntity
  8
EH1
100
AcDbPolyline
 90
2
 70
0
 10
1280.0
 20
348.0710937742979
 10
1280.0
 20
352.51140587904297
  0
LWPOLYLINE
  5
15D
330
17
100
AcDbEntity
  8
EH1
100
AcDbPolyline
 90
2
 70
0
 10
1781.0480414550757
 20
352.51140587904297
 10
1781.0480414550757
 20
348.0710937742979
  0
LWPOLYLINE
  5
15E
330
17
100
AcDbEntity
  8
EH1
100
AcDbPolyline
 90
2
 70
0
 10
1781.0480414550757
 20
348.0710937742979
 10
1280.0
 20
348.0710937742979
  0
LWPOLYLINE
  5
15F
330
17
100
AcDbEntity
  8
EH1
100
AcDbPolyline
 90
2
 70
0
 10
1781.0480414550757
 20
348.0710937742979
 10
1280.0
 20
340.7550386569639
  0
LWPOLYLINE
  5
160
330
17
100
AcDbEntity
  8
EH1
100
AcDbPolyline
 90
2
 70
0
 10
1280.0
 20
340.7550386569639
 10
1280.0
 20
348.0710937742979
  0
LWPOLYLINE
  5
161
330
17
100
AcDbEntity
  8
EH1
100
AcDbPolyline
 90
2
 70
0
 10
1781.0480414550757
 20
348.0710937742979
 10
1781.0480414550757
 20
340.7550386569639
  0
LWPOLYLINE
  5
162
330
17
100
AcDbEntity
  8
EH1
100
AcDbPolyline
 90
2
 70
0
 10
1781.0480414550757
 20
340.7550386569639
 10
1280.0
 20
340.7550386569639
  0
LWPOLYLINE
  5
163
330
17
100
AcDbEntity
  8
EH1
100
AcDbPolyline
 90
2
 70
0
 10
1781.0480414550757
 20
340.7550386569639
 10
1280.0
 20
330.68842025849233
  0
LWPOLYLINE
  5
164
330
17
100
AcDbEntity
  8
EH1
100
AcDbPolyline
 90
2
 70
0
 10
1280.0
 20
330.68842025849233
 10
1280.0
 20
340.7550386569639
  0
LWPOLYLINE
  5
165
330
17
100
AcDbEntity
  8
EH1
100
AcDbPolyline
 90
2
 70
0
 10
1781.0480414550757
 20
340.7550386569639
 10
1781.0480414550757
 20
330.68842025849233
  0
LWPOLYLINE
  5
166
330
17
100
AcDbEntity
  8
EH1
100
AcDbPolyline
 90
2
 70
0
 10
1781.0480414550757
 20
330.68842025849233
 10
1280.0
 20
330.68842025849233
  0
LWPOLYLINE
  5
167
330
17
100
AcDbEntity
  8
EH1
100
AcDbPolyline
 90
2
 70
0
 10
1781.0480414550757
 20
330.68842025849233
 10
1280.0
 20
318.04348121067494
  0
LWPOLYLINE
  5
168
330
17
100
AcDbEntity
  8
EH1
100
AcDbPolyline
 90
2
 70
0
 10
1280.0
 20
318.04348121067494
 10
1280.0
 20
330.68842025849233
  0
LWPOLYLINE
  5
169
330
17
100
AcDbEntity
  8
EH1
100
AcDbPolyline
 90
2
 70
0
 10
1781.0480414550757
 20
330.68842025849233
 10
1781.0480414550757
 20
318.04348121067494
  0
LWPOLYLINE
  5
16A
330
17
100
AcDbEntity
  8
EH1
100
AcDbPolyline
 90
2
 70
0
 10
1781.0480414550757
 20
318.04348121067494
 10
1280.0
 20
318.04348121067494
  0
LWPOLYLINE
  5
16B
330
17
100
AcDbEntity
  8
EH1
100
AcDbPolyline
 90
2
 70
0
 10
1781.0480414550757
 20
318.04348121067494
 10
1280.0
 20
303.03657992645924
  0
LWPOLYLINE
  5
16C
330
17
100
AcDbEntity
  8
EH1
100
AcDbPolyline
 90
2
 70
0
 10
1280.0
 20
303.03657992645924
 10
1280.0
 20
318.04348121067494
  0
LWPOLYLINE
  5
16D
330
17
100
AcDbEntity
  8
EH1
100
AcDbPolyline
 90
2
 70
0
 10
1781.0480414550757
 20
318.04348121067494
 10
1781.0480414550757
 20
303.03657992645924
  0
LWPOLYLINE
  5
16E
330
17
100
AcDbEntity
  8
EH1
100
AcDbPolyline
 90
2
 70
0
 10
1781.0480414550757
 20
303.03657992645924
 10
1280.0
 20
303.03657992645924
  0
LWPOLYLINE
  5
16F
330
17
100
AcDbEntity
  8
EH1
100
AcDbPolyline
 90
2
 70
0
 10
1781.0480414550757
 20
303.03657992645924
 10
1280.0
 20
285.9244886475174
  0
LWPOLYLINE
  5
170
330
17
100
AcDbEntity
  8
EH1
100
AcDbPolyline
 90
2
 70
0
 10
1280.0
 20
285.9244886475174
 10
1280.0
 20
303.03657992645924
  0
LWPOLYLINE
  5
171
330
17
100
AcDbEntity
  8
EH1
100
AcDbPolyline
 90
2
 70
0
 10
1781.0480414550757
 20
303.03657992645924
 10
1781.0480414550757
 20
285.9244886475174
  0
LWPOLYLINE
  5
172
330
17
100
AcDbEntity
  8
EH1
100
AcDbPolyline
 90
2
 70
0
 10
1781.0480414550757
 20
285.9244886475174
 10
1280.0
 20
285.9244886475174
  0
LWPOLYLINE
  5
173
330
17
100
AcDbEntity
  8
EH1
100
AcDbPolyline
 90
2
 70
0
 10
1781.0480414550757
 20
285.9244886475174
 10
1280.0
 20
267.00000000000006
  0
LWPOLYLINE
  5
174
330
17
100
AcDbEntity
  8
EH1
100
AcDbPolyline
 90
2
 70
0
 10
1280.0
 20
267.00000000000006
 10
1280.0
 20
285.9244886475174
  0
LWPOLYLINE
  5
175
330
17
100
AcDbEntity
  8
EH1
100
AcDbPolyline
 90
2
 70
0
 10
1781.0480414550757
 20
285.9244886475174
 10
1781.0480414550757
 20
267.00000000000006
  0
LWPOLYLINE
  5
176
330
17
100
AcDbEntity
  8
EH1
100
AcDbPolyline
 90
2
 70
0
 10
1781.0480414550757
 20
267.00000000000006
 10
1280.0
 20
267.00000000000006
  0
LWPOLYLINE
  5
177
330
17
100
AcDbEntity
  8
EH1
100
AcDbPolyline
 90
2
 70
0
 10
1781.0480414550757
 20
267.00000000000006
 10
1280.0
 20
246.5869172315256
  0
LWPOLYLINE
  5
178
330
17
100
AcDbEntity
  8
EH1
100
AcDbPolyline
 90
2
 70
0
 10
1280.0
 20
246.5869172315256
 10
1280.0
 20
267.00000000000006
  0
LWPOLYLINE
  5
179
330
17
100
AcDbEntity
  8
EH1
100
AcDbPolyline
 90
2
 70
0
 10
1781.0480414550757
 20
267.00000000000006
 10
1781.0480414550757
 20
246.5869172315256
  0
LWPOLYLINE
  5
17A
330
17
100
AcDbEntity
  8
EH1
100
AcDbPolyline
 90
2
 70
0
 10
1781.0480414550757
 20
246.5869172315256
 10
1280.0
 20
246.5869172315256
  0
LWPOLYLINE
  5
17B
330
17
100
AcDbEntity
  8
EH1
100
AcDbPolyline
 90
2
 70
0
 10
1781.0480414550757
 20
246.5869172315256
 10
1280.0
 20
225.03451384783864
  0
LWPOLYLINE
  5
17C
330
17
100
AcDbEntity
  8
EH1
100
AcDbPolyline
 90
2
 70
0
 10
1280.0
 20
225.03451384783864
 10
1280.0
 20
246.5869172315256
  0
LWPOLYLINE
  5
17D
330
17
100
AcDbEntity
  8
EH1
100
AcDbPolyline
 90
2
 70
0
 10
1781.0480414550757
 20
246.5869172315256
 10
1781.0480414550757
 20
225.03451384783864
  0
LWPOLYLINE
  5
17E
330
17
100
AcDbEntity
  8
EH1
100
AcDbPolyline
 90
2
 70
0
 10
1781.0480414550757
 20
225.03451384783864
 10
1280.0
 20
225.03451384783864
  0
LWPOLYLINE
  5
17F
330
17
100
AcDbEntity
  8
EH1
100
AcDbPolyline
 90
2
 70
0
 10
1781.0480414550757
 20
225.03451384783864
 10
1280.0
 20
202.71155744628902
  0
LWPOLYLINE
  5
180
330
17
100
AcDbEntity
  8
EH1
100
AcDbPolyline
 90
2
 70
0
 10
1280.0
 20
202.71155744628902
 10
1280.0
 20
225.03451384783864
  0
LWPOLYLINE
  5
181
330
17
100
AcDbEntity
  8
EH1
100
AcDbPolyline
 90
2
 70
0
 10
1781.0480414550757
 20
225.03451384783864
 10
1781.0480414550757
 20
202.71155744628902
  0
LWPOLYLINE
  5
182
330
17
100
AcDbEntity
  8
EH1
100
AcDbPolyline
 90
2
 70
0
 10
1781.0480414550757
 20
202.71155744628902
 10
1280.0
 20
202.71155744628902
  0
LWPOLYLINE
  5
183
330
17
100
AcDbEntity
  8
EH1
100
AcDbPolyline
 90
2
 70
0
 10
1781.0480414550757
 20
202.71155744628902
 10
1280.0
 20
180.0
  0
LWPOLYLINE
  5
184
330
17
100
AcDbEntity
  8
EH1
100
AcDbPolyline
 90
2
 70
0
 10
1280.0
 20
180.0
 10
1280.0
 20
202.71155744628902
  0
LWPOLYLINE
  5
185
330
17
100
AcDbEntity
  8
EH1
100
AcDbPolyline
 90
2
 70
0
 10
1781.0480414550757
 20
202.71155744628902
 10
1781.0480414550757
 20
180.0
  0
LWPOLYLINE
  5
186
330
17
100
AcDbEntity
  8
EH1
100
AcDbPolyline
 90
2
 70
0
 10
1781.0480414550757
 20
180.0
 10
1280.0
 20
180.0
  0
LWPOLYLINE
  5
188
330
17
100
AcDbEntity
  8
EH2
100
AcDbPolyline
 90
2
 70
0
 10
1820.0
 20
130.00000000000003
 10
2201.820344662607
 20
130.00000000000003
  0
LWPOLYLINE
  5
189
330
17
100
AcDbEntity
  8
EH2
100
AcDbPolyline
 90
2
 70
0
 10
2201.820344662607
 20
130.00000000000003
 10
1820.0
 20
148.2736669108072
  0
LWPOLYLINE
  5
18A
330
17
100
AcDbEntity
  8
EH2
100
AcDbPolyline
 90
2
 70
0
 10
1820.0
 20
148.2736669108072
 10
1820.0
 20
130.00000000000003
  0
LWPOLYLINE
  5
18B
330
17
100
AcDbEntity
  8
EH2
100
AcDbPolyline
 90
2
 70
0
 10
2201.820344662607
 20
130.00000000000003
 10
2201.820344662607
 20
148.2736669108072
  0
LWPOLYLINE
  5
18C
330
17
100
AcDbEntity
  8
EH2
100
AcDbPolyline
 90
2
 70
0
 10
2201.820344662607
 20
148.2736669108072
 10
1820.0
 20
148.2736669108072
  0
LWPOLYLINE
  5
18D
330
17
100
AcDbEntity
  8
EH2
100
AcDbPolyline
 90
2
 70
0
 10
2201.820344662607
 20
148.2736669108072
 10
1820.0
 20
166.23466631435295
  0
LWPOLYLINE
  5
18E
330
17
100
AcDbEntity
  8
EH2
100
AcDbPolyline
 90
2
 70
0
 10
1820.0
 20
166.23466631435295
 10
1820.0
 20
148.2736669108072
  0
LWPOLYLINE
  5
18F
330
17
100
AcDbEntity
  8
EH2
100
AcDbPolyline
 90
2
 70
0
 10
2201.820344662607
 20
148.2736669108072
 10
2201.820344662607
 20
166.23466631435295
  0
LWPOLYLINE
  5
190
330
17
100
AcDbEntity
  8
EH2
100
AcDbPolyline
 90
2
 70
0
 10
2201.820344662607
 20
166.23466631435295
 10
1820.0
 20
166.23466631435295
  0
LWPOLYLINE
  5
191
330
17
100
AcDbEntity
  8
EH2
100
AcDbPolyline
 90
2
 70
0
 10
2201.820344662607
 20
166.23466631435295
 10
1820.0
 20
183.5756805311126
  0
LWPOLYLINE
  5
192
330
17
100
AcDbEntity
  8
EH2
100
AcDbPolyline
 90
2
 70
0
 10
1820.0
 20
183.5756805311126
 10
1820.0
 20
166.23466631435295
  0
LWPOLYLINE
  5
193
330
17
100
AcDbEntity
  8
EH2
100
AcDbPolyline
 90
2
 70
0
 10
2201.820344662607
 20
166.23466631435295
 10
2201.820344662607
 20
183.5756805311126
  0
LWPOLYLINE
  5
194
330
17
100
AcDbEntity
  8
EH2
100
AcDbPolyline
 90
2
 70
0
 10
2201.820344662607
 20
183.5756805311126
 10
1820.0
 20
183.5756805311126
  0
LWPOLYLINE
  5
195
330
17
100
AcDbEntity
  8
EH2
100
AcDbPolyline
 90
2
 70
0
 10
2201.820344662607
 20
183.5756805311126
 10
1820.0
 20
200.0
  0
LWPOLYLINE
  5
196
330
17
100
AcDbEntity
  8
EH2
100
AcDbPolyline
 90
2
 70
0
 10
1820.0
 20
200.0
 10
1820.0
 20
183.5756805311126
  0
LWPOLYLINE
  5
197
330
17
100
AcDbEntity
  8
EH2
100
AcDbPolyline
 90
2
 70
0
 10
2201.820344662607
 20
183.5756805311126
 10
2201.820344662607
 20
200.0
  0
LWPOLYLINE
  5
198
330
17
100
AcDbEntity
  8
EH2
100
AcDbPolyline
 90
2
 70
0
 10
2201.820344662607
 20
200.0
 10
1820.0
 20
200.0
  0
LWPOLYLINE
  5
199
330
17
100
AcDbEntity
  8
EH2
100
AcDbPolyline
 90
2
 70
0
 10
2201.820344662607
 20
200.0
 10
1820.0
 20
215.22660006122092
  0
LWPOLYLINE
  5
19A
330
17
100
AcDbEntity
  8
EH2
100
AcDbPolyline
 90
2
 70
0
 10
1820.0
 20
215.22660006122092
 10
1820.0
 20
200.0
  0
LWPOLYLINE
  5
19B
330
17
100
AcDbEntity
  8
EH2
100
AcDbPolyline
 90
2
 70
0
 10
2201.820344662607
 20
200.0
 10
2201.820344662607
 20
215.22660006122092
  0
LWPOLYLINE
  5
19C
330
17
100
AcDbEntity
  8
EH2
100
AcDbPolyline
 90
2
 70
0
 10
2201.820344662607
 20
215.22660006122092
 10
1820.0
 20
215.22660006122092
  0
LWPOLYLINE
  5
19D
330
17
100
AcDbEntity
  8
EH2
100
AcDbPolyline
 90
2
 70
0
 10
2201.820344662607
 20
215.22660006122092
 10
1820.0
 20
228.99494936611666
  0
LWPOLYLINE
  5
19E
330
17
100
AcDbEntity
  8
EH2
100
AcDbPolyline
 90
2
 70
0
 10
1820.0
 20
228.99494936611666
 10
1820.0
 20
215.22660006122092
  0
LWPOLYLINE
  5
19F
330
17
100
AcDbEntity
  8
EH2
100
AcDbPolyline
 90
2
 70
0
 10
2201.820344662607
 20
215.22660006122092
 10
2201.820344662607
 20
228.99494936611666
  0
LWPOLYLINE
  5
1A0
330
17
100
AcDbEntity
  8
EH2
100
AcDbPolyline
 90
2
 70
0
 10
2201.820344662607
 20
228.99494936611666
 10
1820.0
 20
228.99494936611666
  0
LWPOLYLINE
  5
1A1
330
17
100
AcDbEntity
  8
EH2
100
AcDbPolyline
 90
2
 70
0
 10
2201.820344662607
 20
228.99494936611666
 10
1820.0
 20
241.06946764077293
  0
LWPOLYLINE
  5
1A2
330
17
100
AcDbEntity
  8
EH2
100
AcDbPolyline
 90
2
 70
0
 10
1820.0
 20
241.06946764077293
 10
1820.0
 20
228.99494936611666
  0
LWPOLYLINE
  5
1A3
330
17
100
AcDbEntity
  8
EH2
100
AcDbPolyline
 90
2
 70
0
 10
2201.820344662607
 20
228.99494936611666
 10
2201.820344662607
 20
241.06946764077293
  0
LWPOLYLINE
  5
1A4
330
17
100
AcDbEntity
  8
EH2
100
AcDbPolyline
 90
2
 70
0
 10
2201.820344662607
 20
241.06946764077293
 10
1820.0
 20
241.06946764077293
  0
LWPOLYLINE
  5
1A5
330
17
100
AcDbEntity
  8
EH2
100
AcDbPolyline
 90
2
 70
0
 10
2201.820344662607
 20
241.06946764077293
 10
1820.0
 20
251.24355652982138
  0
LWPOLYLINE
  5
1A6
330
17
100
AcDbEntity
  8
EH2
100
AcDbPolyline
 90
2
 70
0
 10
1820.0
 20
251.24355652982138
 10
1820.0
 20
241.06946764077293
  0
LWPOLYLINE
  5
1A7
330
17
100
AcDbEntity
  8
EH2
100
AcDbPolyline
 90
2
 70
0
 10
2201.820344662607
 20
241.06946764077293
 10
2201.820344662607
 20
251.24355652982138
  0
LWPOLYLINE
  5
1A8
330
17
100
AcDbEntity
  8
EH2
100
AcDbPolyline
 90
2
 70
0
 10
2201.820344662607
 20
251.24355652982138
 10
1820.0
 20
251.24355652982138
  0
LWPOLYLINE
  5
1A9
330
17
100
AcDbEntity
  8
EH2
100
AcDbPolyline
 90
2
 70
0
 10
2201.820344662607
 20
251.24355652982138
 10
1820.0
 20
259.34313455158014
  0
LWPOLYLINE
  5
1AA
330
17
100
AcDbEntity
  8
EH2
100
AcDbPolyline
 90
2
 70
0
 10
1820.0
 20
259.34313455158014
 10
1820.0
 20
251.24355652982138
  0
LWPOLYLINE
  5
1AB
330
17
100
AcDbEntity
  8
EH2
100
AcDbPolyline
 90
2
 70
0
 10
2201.820344662607
 20
251.24355652982138
 10
2201.820344662607
 20
259.34313455158014
  0
LWPOLYLINE
  5
1AC
330
17
100
AcDbEntity
  8
EH2
100
AcDbPolyline
 90
2
 70
0
 10
2201.820344662607
 20
259.34313455158014
 10
1820.0
 20
259.34313455158014
  0
LWPOLYLINE
  5
1AD
330
17
100
AcDbEntity
  8
EH2
100
AcDbPolyline
 90
2
 70
0
 10
2201.820344662607
 20
259.34313455158014
 10
1820.0
 20
265.2296156804696
  0
LWPOLYLINE
  5
1AE
330
17
100
AcDbEntity
  8
EH2
100
AcDbPolyline
 90
2
 70
0
 10
1820.0
 20
265.2296156804696
 10
1820.0
 20
259.34313455158014
  0
LWPOLYLINE
  5
1AF
330
17
100
AcDbEntity
  8
EH2
100
AcDbPolyline
 90
2
 70
0
 10
2201.820344662607
 20
259.34313455158014
 10
2201.820344662607
 20
265.2296156804696
  0
LWPOLYLINE
  5
1B0
330
17
100
AcDbEntity
  8
EH2
100
AcDbPolyline
 90
2
 70
0
 10
2201.820344662607
 20
265.2296156804696
 10
1820.0
 20
265.2296156804696
  0
LWPOLYLINE
  5
1B1
330
17
100
AcDbEntity
  8
EH2
100
AcDbPolyline
 90
2
 70
0
 10
2201.820344662607
 20
265.2296156804696
 10
1820.0
 20
268.80228059233343
  0
LWPOLYLINE
  5
1B2
330
17
100
AcDbEntity
  8
EH2
100
AcDbPolyline
 90
2
 70
0
 10
1820.0
 20
268.80228059233343
 10
1820.0
 20
265.2296156804696
  0
LWPOLYLINE
  5
1B3
330
17
100
AcDbEntity
  8
EH2
100
AcDbPolyline
 90
2
 70
0
 10
2201.820344662607
 20
265.2296156804696
 10
2201.820344662607
 20
268.80228059233343
  0
LWPOLYLINE
  5
1B4
330
17
100
AcDbEntity
  8
EH2
100
AcDbPolyline
 90
2
 70
0
 10
2201.820344662607
 20
268.80228059233343
 10
1820.0
 20
268.80228059233343
  0
LWPOLYLINE
  5
1B5
330
17
100
AcDbEntity
  8
EH2
100
AcDbPolyline
 90
2
 70
0
 10
2201.820344662607
 20
268.80228059233343
 10
1820.0
 20
270.0
  0
LWPOLYLINE
  5
1B6
330
17
100
AcDbEntity
  8
EH2
100
AcDbPolyline
 90
2
 70
0
 10
1820.0
 20
270.0
 10
1820.0
 20
268.80228059233343
  0
LWPOLYLINE
  5
1B7
330
17
100
AcDbEntity
  8
EH2
100
AcDbPolyline
 90
2
 70
0
 10
2201.820344662607
 20
268.80228059233343
 10
2201.820344662607
 20
270.0
  0
LWPOLYLINE
  5
1B8
330
17
100
AcDbEntity
  8
EH2
100
AcDbPolyline
 90
2
 70
0
 10
2201.820344662607
 20
270.0
 10
1820.0
 20
270.0
  0
LWPOLYLINE
  5
1B9
330
17
100
AcDbEntity
  8
EH2
100
AcDbPolyline
 90
2
 70
0
 10
2201.820344662607
 20
270.0
 10
1820.0
 20
268.80228059233343
  0
LWPOLYLINE
  5
1BA
330
17
100
AcDbEntity
  8
EH2
100
AcDbPolyline
 90
2
 70
0
 10
1820.0
 20
268.80228059233343
 10
1820.0
 20
270.0
  0
LWPOLYLINE
  5
1BB
330
17
100
AcDbEntity
  8
EH2
100
AcDbPolyline
 90
2
 70
0
 10
2201.820344662607
 20
270.0
 10
2201.820344662607
 20
268.80228059233343
  0
LWPOLYLINE
  5
1BC
330
17
100
AcDbEntity
  8
EH2
100
AcDbPolyline
 90
2
 70
0
 10
2201.820344662607
 20
268.80228059233343
 10
1820.0
 20
268.80228059233343
  0
LWPOLYLINE
  5
1BD
330
17
100
AcDbEntity
  8
EH2
100
AcDbPolyline
 90
2
 70
0
 10
2201.820344662607
 20
268.80228059233343
 10
1820.0
 20
265.2296156804696
  0
LWPOLYLINE
  5
1BE
330
17
100
AcDbEntity
  8
EH2
100
AcDbPolyline
 90
2
 70
0
 10
1820.0
 20
265.2296156804696
 10
1820.0
 20
268.80228059233343
  0
LWPOLYLINE
  5
1BF
330
17
100
AcDbEntity
  8
EH2
100
AcDbPolyline
 90
2
 70
0
 10
2201.820344662607
 20
268.80228059233343
 10
2201.820344662607
 20
265.2296156804696
  0
LWPOLYLINE
  5
1C0
330
17
100
AcDbEntity
  8
EH2
100
AcDbPolyline
 90
2
 70
0
 10
2201.820344662607
 20
265.2296156804696
 10
1820.0
 20
265.2296156804696
  0
LWPOLYLINE
  5
1C1
330
17
100
AcDbEntity
  8
EH2
100
AcDbPolyline
 90
2
 70
0
 10
2201.820344662607
 20
265.2296156804696
 10
1820.0
 20
259.3431345515802
  0
LWPOLYLINE
  5
1C2
330
17
100
AcDbEntity
  8
EH2
100
AcDbPolyline
 90
2
 70
0
 10
1820.0
 20
259.3431345515802
 10
1820.0
 20
265.2296156804696
  0
LWPOLYLINE
  5
1C3
330
17
100
AcDbEntity
  8
EH2
100
AcDbPolyline
 90
2
 70
0
 10
2201.820344662607
 20
265.2296156804696
 10
2201.820344662607
 20
259.3431345515802
  0
LWPOLYLINE
  5
1C4
330
17
100
AcDbEntity
  8
EH2
100
AcDbPolyline
 90
2
 70
0
 10
2201.820344662607
 20
259.3431345515802
 10
1820.0
 20
259.3431345515802
  0
LWPOLYLINE
  5
1C5
330
17
100
AcDbEntity
  8
EH2
100
AcDbPolyline
 90
2
 70
0
 10
2201.820344662607
 20
259.3431345515802
 10
1820.0
 20
251.24355652982143
  0
LWPOLYLINE
  5
1C6
330
17
100
AcDbEntity
  8
EH2
100
AcDbPolyline
 90
2
 70
0
 10
1820.0
 20
251.24355652982143
 10
1820.0
 20
259.3431345515802
  0
LWPOLYLINE
  5
1C7
330
17
100
AcDbEntity
  8
EH2
100
AcDbPolyline
 90
2
 70
0
 10
2201.820344662607
 20
259.3431345515802
 10
2201.820344662607
 20
251.24355652982143
  0
LWPOLYLINE
  5
1C8
330
17
100
AcDbEntity
  8
EH2
100
AcDbPolyline
 90
2
 70
0
 10
2201.820344662607
 20
251.24355652982143
 10
1820.0
 20
251.24355652982143
  0
LWPOLYLINE
  5
1C9
330
17
100
AcDbEntity
  8
EH2
100
AcDbPolyline
 90
2
 70
0
 10
2201.820344662607
 20
251.24355652982143
 10
1820.0
 20
241.06946764077293
  0
LWPOLYLINE
  5
1CA
330
17
100
AcDbEntity
  8
EH2
100
AcDbPolyline
 90
2
 70
0
 10
1820.0
 20
241.06946764077293
 10
1820.0
 20
251.24355652982143
  0
LWPOLYLINE
  5
1CB
330
17
100
AcDbEntity
  8
EH2
100
AcDbPolyline
 90
2
 70
0
 10
2201.820344662607
 20
251.24355652982143
 10
2201.820344662607
 20
241.06946764077293
  0
LWPOLYLINE
  5
1CC
330
17
100
AcDbEntity
  8
EH2
100
AcDbPolyline
 90
2
 70
0
 10
2201.820344662607
 20
241.06946764077293
 10
1820.0
 20
241.06946764077293
  0
LWPOLYLINE
  5
1CD
330
17
100
AcDbEntity
  8
EH2
100
AcDbPolyline
 90
2
 70
0
 10
2201.820344662607
 20
241.06946764077293
 10
1820.0
 20
228.99494936611666
  0
LWPOLYLINE
  5
1CE
330
17
100
AcDbEntity
  8
EH2
100
AcDbPolyline
 90
2
 70
0
 10
1820.0
 20
228.99494936611666
 10
1820.0
 20
241.06946764077293
  0
LWPOLYLINE
  5
1CF
330
17
100
AcDbEntity
  8
EH2
100
AcDbPolyline
 90
2
 70
0
 10
2201.820344662607
 20
241.06946764077293
 10
2201.820344662607
 20
228.99494936611666
  0
LWPOLYLINE
  5
1D0
330
17
100
AcDbEntity
  8
EH2
100
AcDbPolyline
 90
2
 70
0
 10
2201.820344662607
 20
228.99494936611666
 10
1820.0
 20
228.99494936611666
  0
LWPOLYLINE
  5
1D1
330
17
100
AcDbEntity
  8
EH2
100
AcDbPolyline
 90
2
 70
0
 10
2201.820344662607
 20
228.99494936611666
 10
1820.0
 20
215.2266000612209
  0
LWPOLYLINE
  5
1D2
330
17
100
AcDbEntity
  8
EH2
100
AcDbPolyline
 90
2
 70
0
 10
1820.0
 20
215.2266000612209
 10
1820.0
 20
228.99494936611666
  0
LWPOLYLINE
  5
1D3
330
17
100
AcDbEntity
  8
EH2
100
AcDbPolyline
 90
2
 70
0
 10
2201.820344662607
 20
228.99494936611666
 10
2201.820344662607
 20
215.2266000612209
  0
LWPOLYLINE
  5
1D4
330
17
100
AcDbEntity
  8
EH2
100
AcDbPolyline
 90
2
 70
0
 10
2201.820344662607
 20
215.2266000612209
 10
1820.0
 20
215.2266000612209
  0
LWPOLYLINE
  5
1D5
330
17
100
AcDbEntity
  8
EH2
100
AcDbPolyline
 90
2
 70
0
 10
2201.820344662607
 20
215.2266000612209
 10
1820.0
 20
200.00000000000003
  0
LWPOLYLINE
  5
1D6
330
17
100
AcDbEntity
  8
EH2
100
AcDbPolyline
 90
2
 70
0
 10
1820.0
 20
200.00000000000003
 10
1820.0
 20
215.2266000612209
  0
LWPOLYLINE
  5
1D7
330
17
100
AcDbEntity
  8
EH2
100
AcDbPolyline
 90
2
 70
0
 10
2201.820344662607
 20
215.2266000612209
 10
2201.820344662607
 20
200.00000000000003
  0
LWPOLYLINE
  5
1D8
330
17
100
AcDbEntity
  8
EH2
100
AcDbPolyline
 90
2
 70
0
 10
2201.820344662607
 20
200.00000000000003
 10
1820.0
 20
200.00000000000003
  0
LWPOLYLINE
  5
1D9
330
17
100
AcDbEntity
  8
EH2
100
AcDbPolyline
 90
2
 70
0
 10
2201.820344662607
 20
200.00000000000003
 10
1820.0
 20
183.57568053111257
  0
LWPOLYLINE
  5
1DA
330
17
100
AcDbEntity
  8
EH2
100
AcDbPolyline
 90
2
 70
0
 10
1820.0
 20
183.57568053111257
 10
1820.0
 20
200.00000000000003
  0
LWPOLYLINE
  5
1DB
330
17
100
AcDbEntity
  8
EH2
100
AcDbPolyline
 90
2
 70
0
 10
2201.820344662607
 20
200.00000000000003
 10
2201.820344662607
 20
183.57568053111257
  0
LWPOLYLINE
  5
1DC
330
17
100
AcDbEntity
  8
EH2
100
AcDbPolyline
 90
2
 70
0
 10
2201.820344662607
 20
183.57568053111257
 10
1820.0
 20
183.57568053111257
  0
LWPOLYLINE
  5
1DD
330
17
100
AcDbEntity
  8
EH2
100
AcDbPolyline
 90
2
 70
0
 10
2201.820344662607
 20
183.57568053111257
 10
1820.0
 20
166.23466631435292
  0
LWPOLYLINE
  5
1DE
330
17
100
AcDbEntity
  8
EH2
100
AcDbPolyline
 90
2
 70
0
 10
1820.0
 20
166.23466631435292
 10
1820.0
 20
183.57568053111257
  0
LWPOLYLINE
  5
1DF
330
17
100
AcDbEntity
  8
EH2
100
AcDbPolyline
 90
2
 70
0
 10
2201.820344662607
 20
183.57568053111257
 10
2201.820344662607
 20
166.23466631435292
  0
LWPOLYLINE
  5
1E0
330
17
100
AcDbEntity
  8
EH2
100
AcDbPolyline
 90
2
 70
0
 10
2201.820344662607
 20
166.23466631435292
 10
1820.0
 20
166.23466631435292
  0
LWPOLYLINE
  5
1E1
330
17
100
AcDbEntity
  8
EH2
100
AcDbPolyline
 90
2
 70
0
 10
2201.820344662607
 20
166.23466631435292
 10
1820.0
 20
148.27366691080726
  0
LWPOLYLINE
  5
1E2
330
17
100
AcDbEntity
  8
EH2
100
AcDbPolyline
 90
2
 70
0
 10
1820.0
 20
148.27366691080726
 10
1820.0
 20
166.23466631435292
  0
LWPOLYLINE
  5
1E3
330
17
100
AcDbEntity
  8
EH2
100
AcDbPolyline
 90
2
 70
0
 10
2201.820344662607
 20
166.23466631435292
 10
2201.820344662607
 20
148.27366691080726
  0
LWPOLYLINE
  5
1E4
330
17
100
AcDbEntity
  8
EH2
100
AcDbPolyline
 90
2
 70
0
 10
2201.820344662607
 20
148.27366691080726
 10
1820.0
 20
148.27366691080726
  0
LWPOLYLINE
  5
1E5
330
17
100
AcDbEntity
  8
EH2
100
AcDbPolyline
 90
2
 70
0
 10
2201.820344662607
 20
148.27366691080726
 10
1820.0
 20
130.0
  0
LWPOLYLINE
  5
1E6
330
17
100
AcDbEntity
  8
EH2
100
AcDbPolyline
 90
2
 70
0
 10
1820.0
 20
130.0
 10
1820.0
 20
148.27366691080726
  0
LWPOLYLINE
  5
1E7
330
17
100
AcDbEntity
  8
EH2
100
AcDbPolyline
 90
2
 70
0
 10
2201.820344662607
 20
148.27366691080726
 10
2201.820344662607
 20
130.0
  0
LWPOLYLINE
  5
1E8
330
17
100
AcDbEntity
  8
EH2
100
AcDbPolyline
 90
2
 70
0
 10
2201.820344662607
 20
130.0
 10
1820.0
 20
130.0
  0
LWPOLYLINE
  5
1EA
330
17
100
AcDbEntity
  8
E11
100
AcDbPolyline
 90
2
 70
0
 10
1045.0
 20
300.0
 10
1045.0
 20
410.0
  0
LWPOLYLINE
  5
1EB
330
17
100
AcDbEntity
  8
E11
100
AcDbPolyline
 90
2
 70
0
 10
1045.0
 20
410.0
 10
1045.0
 20
410.0
  0
LWPOLYLINE
  5
1EC
330
17
100
AcDbEntity
  8
E11
100
AcDbPolyline
 90
2
 70
0
 10
1045.0
 20
410.0
 10
1045.0
 20
300.0
  0
LWPOLYLINE
  5
1ED
330
17
100
AcDbEntity
  8
E11
100
AcDbPolyline
 90
2
 70
0
 10
1045.0
 20
300.0
 10
1045.0
 20
300.0
  0
LWPOLYLINE
  5
1EE
330
17
100
AcDbEntity
  8
E11
100
AcDbPolyline
 90
2
 70
0
 10
1215.0
 20
410.0
 10
1215.0
 20
300.0
  0
LWPOLYLINE
  5
1EF
330
17
100
AcDbEntity
  8
E11
100
AcDbPolyline
 90
2
 70
0
 10
1215.0
 20
410.0
 10
1215.0
 20
410.0
  0
LWPOLYLINE
  5
1F0
330
17
100
AcDbEntity
  8
E11
100
AcDbPolyline
 90
2
 70
0
 10
1215.0
 20
300.0
 10
1215.0
 20
410.0
  0
LWPOLYLINE
  5
1F1
330
17
100
AcDbEntity
  8
E11
100
AcDbPolyline
 90
2
 70
0
 10
1215.0
 20
300.0
 10
1215.0
 20
300.0
  0
LWPOLYLINE
  5
1F2
330
17
100
AcDbEntity
  8
E11
100
AcDbPolyline
 90
2
 70
0
 10
1045.0
 20
300.0
 10
1215.0
 20
300.0
  0
LWPOLYLINE
  5
1F3
330
17
100
AcDbEntity
  8
E11
100
AcDbPolyline
 90
2
 70
0
 10
1215.0
 20
410.0
 10
1045.0
 20
410.0
  0
LWPOLYLINE
  5
1F4
330
17
100
AcDbEntity
  8
E11
100
AcDbPolyline
 90
2
 70
0
 10
1215.0
 20
300.0
 10
1045.0
 20
300.0
  0
LWPOLYLINE
  5
1F5
330
17
100
AcDbEntity
  8
E11
100
AcDbPolyline
 90
2
 70
0
 10
1045.0
 20
410.0
 10
1215.0
 20
410.0
  0
ENDSEC
  0
SECTION
  2
OBJECTS
  0
DICTIONARY
  5
A
330
0
100
AcDbDictionary
281
1
  3
ACAD_COLOR
350
B
  3
ACAD_GROUP
350
C
  3
ACAD_LAYOUT
350
D
  3
ACAD_MATERIAL
350
E
  3
ACAD_MLEADERSTYLE
350
F
  3
ACAD_MLINESTYLE
350
10
  3
ACAD_PLOTSETTINGS
350
11
  3
ACAD_PLOTSTYLENAME
350
12
  3
ACAD_SCALELIST
350
14
  3
ACAD_TABLESTYLE
350
15
  3
ACAD_VISUALSTYLE
350
16
  3
EZDXF_META
350
2D
  0
DICTIONARY
  5
B
330
A
100
AcDbDictionary
281
1
  0
DICTIONARY
  5
C
330
A
100
AcDbDictionary
281
1
  0
DICTIONARY
  5
D
330
A
100
AcDbDictionary
281
1
  3
Model
350
1A
  3
Layout1
350
1E
  0
DICTIONARY
  5
E
330
A
100
AcDbDictionary
281
1
  3
ByBlock
350
1F
  3
ByLayer
350
20
  3
Global
350
21
  0
DICTIONARY
  5
F
330
A
100
AcDbDictionary
281
1
  3
Standard
350
2C
  0
DICTIONARY
  5
10
330
A
100
AcDbDictionary
281
1
  3
Standard
350
22
  0
DICTIONARY
  5
11
330
A
100
AcDbDictionary
281
1
  0
ACDBDICTIONARYWDFLT
  5
12
330
A
100
AcDbDictionary
281
1
  3
Normal
350
13
100
AcDbDictionaryWithDefault
340
13
  0
ACDBPLACEHOLDER
  5
13
330
12
  0
DICTIONARY
  5
14
330
A
100
AcDbDictionary
281
1
  0
DICTIONARY
  5
15
330
A
100
AcDbDictionary
281
1
  0
DICTIONARY
  5
16
330
A
100
AcDbDictionary
281
1
  0
LAYOUT
  5
1A
330
D
100
AcDbPlotSettings
  1

  4
A3
  6

 40
7.5
 41
20.0
 42
7.5
 43
20.0
 44
420.0
 45
297.0
 46
0.0
 47
0.0
 48
0.0
 49
0.0
140
0.0
141
0.0
142
1.0
143
1.0
 70
1024
 72
1
 73
0
 74
5
  7

 75
16
 76
0
 77
2
 78
300
147
1.0
148
0.0
149
0.0
100
AcDbLayout
  1
Model
 70
1
 71
0
 10
0.0
 20
0.0
 11
420.0
 21
297.0
 12
0.0
 22
0.0
 32
0.0
 14
1e+20
 24
1e+20
 34
1e+20
 15
-1e+20
 25
-1e+20
 35
-1e+20
146
0.0
 13
0.0
 23
0.0
 33
0.0
 16
1.0
 26
0.0
 36
0.0
 17
0.0
 27
1.0
 37
0.0
 76
1
330
17
  0
LAYOUT
  5
1E
330
D
100
AcDbPlotSettings
  1

  4
A3
  6

 40
7.5
 41
20.0
 42
7.5
 43
20.0
 44
420.0
 45
297.0
 46
0.0
 47
0.0
 48
0.0
 49
0.0
140
0.0
141
0.0
142
1.0
143
1.0
 70
0
 72
1
 73
0
 74
5
  7

 75
16
 76
0
 77
2
 78
300
147
1.0
148
0.0
149
0.0
100
AcDbLayout
  1
Layout1
 70
1
 71
1
 10
0.0
 20
0.0
 11
420.0
 21
297.0
 12
0.0
 22
0.0
 32
0.0
 14
1e+20
 24
1e+20
 34
1e+20
 15
-1e+20
 25
-1e+20
 35
-1e+20
146
0.0
 13
0.0
 23
0.0
 33
0.0
 16
1.0
 26
0.0
 36
0.0
 17
0.0
 27
1.0
 37
0.0
 76
1
330
1B
  0
MATERIAL
  5
1F
102
{ACAD_REACTORS
330
E
102
}
330
E
100
AcDbMaterial
  1
ByBlock
  2

 70
0
 40
1.0
 71
1
 41
1.0
 91
-1023410177
 42
1.0
 72
1
  3

 73
1
 74
1
 75
1
 44
0.5
 73
0
 45
1.0
 46
1.0
 77
1
  4

 78
1
 79
1
170
1
 48
1.0
171
1
  6

172
1
173
1
174
1
140
1.0
141
1.0
175
1
  7

176
1
177
1
178
1
143
1.0
179
1
  8

270
1
271
1
272
1
145
1.0
146
1.0
273
1
  9

274
1
275
1
276
1
 42
1.0
 72
1
  3

 73
1
 74
1
 75
1
 94
63
  0
MATERIAL
  5
20
102
{ACAD_REACTORS
330
E
102
}
330
E
100
AcDbMaterial
  1
ByLayer
  2

 70
0
 40
1.0
 71
1
 41
1.0
 91
-1023410177
 42
1.0
 72
1
  3

 73
1
 74
1
 75
1
 44
0.5
 73
0
 45
1.0
 46
1.0
 77
1
  4

 78
1
 79
1
170
1
 48
1.0
171
1
  6

172
1
173
1
174
1
140
1.0
141
1.0
175
1
  7

176
1
177
1
178
1
143
1.0
179
1
  8

270
1
271
1
272
1
145
1.0
146
1.0
273
1
  9

274
1
275
1
276
1
 42
1.0
 72
1
  3

 73
1
 74
1
 75
1
 94
63
  0
MATERIAL
  5
21
102
{ACAD_REACTORS
330
E
102
}
330
E
100
AcDbMaterial
  1
Global
  2

 70
0
 40
1.0
 71
1
 41
1.0
 91
-1023410177
 42
1.0
 72
1
  3

 73
1
 74
1
 75
1
 44
0.5
 73
0
 45
1.0
 46
1.0
 77
1
  4

 78
1
 79
1
170
1
 48
1.0
171
1
  6

172
1
173
1
174
1
140
1.0
141
1.0
175
1
  7

176
1
177
1
178
1
143
1.0
179
1
  8

270
1
271
1
272
1
145
1.0
146
1.0
273
1
  9

274
1
275
1
276
1
 42
1.0
 72
1
  3

 73
1
 74
1
 75
1
 94
63
  0
MLINESTYLE
  5
22
102
{ACAD_REACTORS
330
10
102
}
330
10
100
AcDbMlineStyle
  2
Standard
 70
0
  3

 62
256
 51
90.0
 52
90.0
 71
2
 49
0.5
 62
256
  6
BYLAYER
 49
-0.5
 62
256
  6
BYLAYER
  0
MLEADERSTYLE
  5
2C
102
{ACAD_REACTORS
330
F
102
}
330
F
100
AcDbMLeaderStyle
179
2
170
2
171
1
172
0
 90
2
 40
0.0
 41
0.0
173
1
 91
-1056964608
 92
-2
290
1
 42
2.0
291
1
 43
8.0
  3
Standard
 44
4.0
300

342
29
174
1
175
1
176
0
178
1
 93
-1056964608
 45
4.0
292
0
297
0
 46
4.0
 94
-1056964608
 47
1.0
 49
1.0
140
1.0
294
1
141
0.0
177
0
142
1.0
295
0
296
0
143
3.75
271
0
272
9
273
9
  0
DICTIONARY
  5
2D
330
A
100
AcDbDictionary
280
1
281
1
  3
CREATED_BY_EZDXF
350
2E
  3
WRITTEN_BY_EZDXF
350
1F8
  0
DICTIONARYVAR
  5
2E
330
2D
100
DictionaryVariables
280
0
  1
1.4.4 @ 2026-10-02T16:51:41.855716+00:00
  0
DICTIONARYVAR
  5
1F8
330
2D
100
DictionaryVariables
280
0
  1
1.4.4 @ 2026-10-02T16:51:41.882289+00:00
  0
ENDSEC
  0
EOF
