  0
SECTION
  2
HEADER
  9
$ACADVER
  1
AC1024
  9
$ACADMAINTVER
 70
6
  9
$DWGCODEPAGE
  3
ANSI_1252
  9
$LASTSAVEDBY
  1
ezdxf
  9
$INSBASE
 10
0.0
 20
0.0
 30
0.0
  9
$EXTMIN
 10
1e+20
 20
1e+20
 30
1e+20
  9
$EXTMAX
 10
-1e+20
 20
-1e+20
 30
-1e+20
  9
$LIMMIN
 10
0.0
 20
0.0
  9
$LIMMAX
 10
420.0
 20
297.0
  9
$ORTHOMODE
 70
0
  9
$REGENMODE
 70
1
  9
$FILLMODE
 70
1
  9
$QTEXTMODE
 70
0
  9
$MIRRTEXT
 70
1
  9
$LTSCALE
 40
1.0
  9
$ATTMODE
 70
1
  9
$TEXTSIZE
 40
2.5
  9
$TRACEWID
 40
1.0
  9
$TEXTSTYLE
  7
Standard
  9
$CLAYER
  8
0
  9
$CELTYPE
  6
ByLayer
  9
$CECOLOR
 62
256
  9
$CELTSCALE
 40
1.0
  9
$DISPSILH
 70
0
  9
$DIMSCALE
 40
1.0
  9
$DIMASZ
 40
2.5
  9
$DIMEXO
 40
0.625
  9
$DIMDLI
 40
3.75
  9
$DIMRND
 40
0.0
  9
$DIMDLE
 40
0.0
  9
$DIMEXE
 40
1.25
  9
$DIMTP
 40
0.0
  9
$DIMTM
 40
0.0
  9
$DIMTXT
 40
2.5
  9
$DIMCEN
 40
2.5
  9
$DIMTSZ
 40
0.0
  9
$DIMTOL
 70
0
  9
$DIMLIM
 70
0
  9
$DIMTIH
 70
0
  9
$DIMTOH
 70
0
  9
$DIMSE1
 70
0
  9
$DIMSE2
 70
0
  9
$DIMTAD
 70
1
  9
$DIMZIN
 70
8
  9
$DIMBLK
  1

  9
$DIMASO
 70
1
  9
$DIMSHO
 70
1
  9
$DIMPOST
  1

  9
$DIMAPOST
  1

  9
$DIMALT
 70
0
  9
$DIMALTD
 70
3
  9
$DIMALTF
 40
0.03937007874
  9
$DIMLFAC
 40
1.0
  9
$DIMTOFL
 70
1
  9
$DIMTVP
 40
0.0
  9
$DIMTIX
 70
0
  9
$DIMSOXD
 70
0
  9
$DIMSAH
 70
0
  9
$DIMBLK1
  1

  9
$DIMBLK2
  1

  9
$DIMSTYLE
  2
ISO-25
  9
$DIMCLRD
 70
0
  9
$DIMCLRE
 70
0
  9
$DIMCLRT
 70
0
  9
$DIMTFAC
 40
1.0
  9
$DIMGAP
 40
0.625
  9
$DIMJUST
 70
0
  9
$DIMSD1
 70
0
  9
$DIMSD2
 70
0
  9
$DIMTOLJ
 70
0
  9
$DIMTZIN
 70
8
  9
$DIMALTZ
 70
0
  9
$DIMALTTZ
 70
0
  9
$DIMUPT
 70
0
  9
$DIMDEC
 70
2
  9
$DIMTDEC
 70
2
  9
$DIMALTU
 70
2
  9
$DIMALTTD
 70
3
  9
$DIMTXSTY
  7
Standard
  9
$DIMAUNIT
 70
0
  9
$DIMADEC
 70
0
  9
$DIMALTRND
 40
0.0
  9
$DIMAZIN
 70
0
  9
$DIMDSEP
 70
44
  9
$DIMATFIT
 70
3
  9
$DIMFRAC
 70
0
  9
$DIMLDRBLK
  1

  9
$DIMLUNIT
 70
2
  9
$DIMLWD
 70
-2
  9
$DIMLWE
 70
-2
  9
$DIMTMOVE
 70
0
  9
$DIMFXL
 40
1.0
  9
$DIMFXLON
 70
0
  9
$DIMJOGANG
 40
0.785398163397
  9
$DIMTFILL
 70
0
  9
$DIMTFILLCLR
 70
0
  9
$DIMARCSYM
 70
0
  9
$DIMLTYPE
  6

  9
$DIMLTEX1
  6

  9
$DIMLTEX2
  6

  9
$DIMTXTDIRECTION
 70
0
  9
$LUNITS
 70
2
  9
$LUPREC
 70
4
  9
$SKETCHINC
 40
1.0
  9
$FILLETRAD
 40
10.0
  9
$AUNITS
 70
0
  9
$AUPREC
 70
2
  9
$MENU
  1
.
  9
$ELEVATION
 40
0.0
  9
$PELEVATION
 40
0.0
  9
$THICKNESS
 40
0.0
  9
$LIMCHECK
 70
0
  9
$CHAMFERA
 40
0.0
  9
$CHAMFERB
 40
0.0
  9
$CHAMFERC
 40
0.0
  9
$CHAMFERD
 40
0.0
  9
$SKPOLY
 70
0
  9
$TDCREATE
 40
2461316.702511574
  9
$TDUCREATE
 40
2458532.153996898
  9
$TDUPDATE
 40
2461316.702511574
  9
$TDUUPDATE
 40
2458532.1544311
  9
$TDINDWG
 40
0.0
  9
$TDUSRTIMER
 40
0.0
  9
$USRTIMER
 70
1
  9
$ANGBASE
 50
0.0
  9
$ANGDIR
 70
0
  9
$PDMODE
 70
0
  9
$PDSIZE
 40
0.0
  9
$PLINEWID
 40
0.0
  9
$SPLFRAME
 70
0
  9
$SPLINETYPE
 70
6
  9
$SPLINESEGS
 70
8
  9
$HANDSEED
  5
2DE
  9
$SURFTAB1
 70
6
  9
$SURFTAB2
 70
6
  9
$SURFTYPE
 70
6
  9
$SURFU
 70
6
  9
$SURFV
 70
6
  9
$UCSBASE
  2

  9
$UCSNAME
  2

  9
$UCSORG
 10
0.0
 20
0.0
 30
0.0
  9
$UCSXDIR
 10
1.0
 20
0.0
 30
0.0
  9
$UCSYDIR
 10
0.0
 20
1.0
 30
0.0
  9
$UCSORTHOREF
  2

  9
$UCSORTHOVIEW
 70
0
  9
$UCSORGTOP
 10
0.0
 20
0.0
 30
0.0
  9
$UCSORGBOTTOM
 10
0.0
 20
0.0
 30
0.0
  9
$UCSORGLEFT
 10
0.0
 20
0.0
 30
0.0
  9
$UCSORGRIGHT
 10
0.0
 20
0.0
 30
0.0
  9
$UCSORGFRONT
 10
0.0
 20
0.0
 30
0.0
  9
$UCSORGBACK
 10
0.0
 20
0.0
 30
0.0
  9
$PUCSBASE
  2

  9
$PUCSNAME
  2

  9
$PUCSORG
 10
0.0
 20
0.0
 30
0.0
  9
$PUCSXDIR
 10
1.0
 20
0.0
 30
0.0
  9
$PUCSYDIR
 10
0.0
 20
1.0
 30
0.0
  9
$PUCSORTHOREF
  2

  9
$PUCSORTHOVIEW
 70
0
  9
$PUCSORGTOP
 10
0.0
 20
0.0
 30
0.0
  9
$PUCSORGBOTTOM
 10
0.0
 20
0.0
 30
0.0
  9
$PUCSORGLEFT
 10
0.0
 20
0.0
 30
0.0
  9
$PUCSORGRIGHT
 10
0.0
 20
0.0
 30
0.0
  9
$PUCSORGFRONT
 10
0.0
 20
0.0
 30
0.0
  9
$PUCSORGBACK
 10
0.0
 20
0.0
 30
0.0
  9
$USERI1
 70
0
  9
$USERI2
 70
0
  9
$USERI3
 70
0
  9
$USERI4
 70
0
  9
$USERI5
 70
0
  9
$USERR1
 40
0.0
  9
$USERR2
 40
0.0
  9
$USERR3
 40
0.0
  9
$USERR4
 40
0.0
  9
$USERR5
 40
0.0
  9
$WORLDVIEW
 70
1
  9
$SHADEDGE
 70
3
  9
$SHADEDIF
 70
70
  9
$TILEMODE
 70
1
  9
$MAXACTVP
 70
64
  9
$PINSBASE
 10
0.0
 20
0.0
 30
0.0
  9
$PLIMCHECK
 70
0
  9
$PEXTMIN
 10
1e+20
 20
1e+20
 30
1e+20
  9
$PEXTMAX
 10
-1e+20
 20
-1e+20
 30
-1e+20
  9
$PLIMMIN
 10
0.0
 20
0.0
  9
$PLIMMAX
 10
420.0
 20
297.0
  9
$UNITMODE
 70
0
  9
$VISRETAIN
 70
1
  9
$PLINEGEN
 70
0
  9
$PSLTSCALE
 70
1
  9
$TREEDEPTH
 70
3020
  9
$CMLSTYLE
  2
Standard
  9
$CMLJUST
 70
0
  9
$CMLSCALE
 40
20.0
  9
$PROXYGRAPHICS
 70
1
  9
$MEASUREMENT
 70
1
  9
$CELWEIGHT
370
-1
  9
$ENDCAPS
280
0
  9
$JOINSTYLE
280
0
  9
$LWDISPLAY
290
0
  9
$INSUNITS
 70
4
  9
$HYPERLINKBASE
  1

  9
$STYLESHEET
  1

  9
$XEDIT
290
1
  9
$CEPSNTYPE
380
0
  9
$PSTYLEMODE
290
1
  9
$FINGERPRINTGUID
  2
{18938C4E-26B3-4474-B26A-ADCC34834FB8}
  9
$VERSIONGUID
  2
{6232380D-A927-444D-B4F1-86860FE0A259}
  9
$EXTNAMES
290
1
  9
$PSVPSCALE
 40
0.0
  9
$OLESTARTUP
290
0
  9
$SORTENTS
280
127
  9
$INDEXCTL
280
0
  9
$HIDETEXT
280
1
  9
$XCLIPFRAME
280
1
  9
$HALOGAP
280
0
  9
$OBSCOLOR
 70
257
  9
$OBSLTYPE
280
0
  9
$INTERSECTIONDISPLAY
280
0
  9
$INTERSECTIONCOLOR
 70
257
  9
$DIMASSOC
280
2
  9
$PROJECTNAME
  1

  9
$CAMERADISPLAY
290
0
  9
$LENSLENGTH
 40
50.0
  9
$CAMERAHEIGHT
 40
0.0
  9
$STEPSPERSEC
 40
24.0
  9
$STEPSIZE
 40
100.0
  9
$3DDWFPREC
 40
2.0
  9
$PSOLWIDTH
 40
0.005
  9
$PSOLHEIGHT
 40
0.08
  9
$LOFTANG1
 40
1.570796326795
  9
$LOFTANG2
 40
1.570796326795
  9
$LOFTMAG1
 40
0.0
  9
$LOFTMAG2
 40
0.0
  9
$LOFTPARAM
 70
7
  9
$LOFTNORMALS
280
1
  9
$LATITUDE
 40
37.795
  9
$LONGITUDE
 40
-122.394
  9
$NORTHDIRECTION
 40
0.0
  9
$TIMEZONE
 70
-8000
  9
$LIGHTGLYPHDISPLAY
280
1
  9
$TILEMODELIGHTSYNCH
280
1
  9
$CMATERIAL
347
20
  9
$SOLIDHIST
280
0
  9
$SHOWHIST
280
1
  9
$DWFFRAME
280
2
  9
$DGNFRAME
280
2
  9
$REALWORLDSCALE
290
1
  9
$INTERFERECOLOR
 62
256
  9
$CSHADOW
280
0
  9
$SHADOWPLANELOCATION
 40
0.0
  0
ENDSEC
  0
SECTION
  2
CLASSES
  0
CLASS
  1
ACDBDICTIONARYWDFLT
  2
AcDbDictionaryWithDefault
  3
ObjectDBX Classes
 90
0
 91
0
280
0
281
0
  0
CLASS
  1
SUN
  2
AcDbSun
  3
SCENEOE
 90
1153
 91
0
280
0
281
0
  0
CLASS
  1
VISUALSTYLE
  2
AcDbVisualStyle
  3
ObjectDBX Classes
 90
4095
 91
0
280
0
281
0
  0
CLASS
  1
MATERIAL
  2
AcDbMaterial
  3
ObjectDBX Classes
 90
1153
 91
0
280
0
281
0
  0
CLASS
  1
SCALE
  2
AcDbScale
  3
ObjectDBX Classes
 90
1153
 91
0
280
0
281
0
  0
CLASS
  1
TABLESTYLE
  2
AcDbTableStyle
  3
ObjectDBX Classes
 90
4095
 91
0
280
0
281
0
  0
CLASS
  1
MLEADERSTYLE
  2
AcDbMLeaderStyle
  3
ACDB_MLEADERSTYLE_CLASS
 90
4095
 91
0
280
0
281
0
  0
CLASS
  1
DICTIONARYVAR
  2
AcDbDictionaryVar
  3
ObjectDBX Classes
 90
0
 91
0
280
0
281
0
  0
CLASS
  1
CELLSTYLEMAP
  2
AcDbCellStyleMap
  3
ObjectDBX Classes
 90
1152
 91
0
280
0
281
0
  0
CLASS
  1
MENTALRAYRENDERSETTINGS
  2
AcDbMentalRayRenderSettings
  3
SCENEOE
 90
1024
 91
0
280
0
281
0
  0
CLASS
  1
ACDBDETAILVIEWSTYLE
  2
AcDbDetailViewStyle
  3
ObjectDBX Classes
 90
1025
 91
0
280
0
281
0
  0
CLASS
  1
ACDBSECTIONVIEWSTYLE
  2
AcDbSectionViewStyle
  3
ObjectDBX Classes
 90
1025
 91
0
280
0
281
0
  0
CLASS
  1
RASTERVARIABLES
  2
AcDbRasterVariables
  3
ISM
 90
0
 91
0
280
0
281
0
  0
CLASS
  1
LAYOUT
  2
AcDbLayout
  3
ObjectDBX Classes
 90
0
 91
0
280
0
281
0
  0
CLASS
  1
ACDBPLACEHOLDER
  2
AcDbPlaceHolder
  3
ObjectDBX Classes
 90
0
 91
0
280
0
281
0
  0
ENDSEC
  0
SECTION
  2
TABLES
  0
TABLE
  2
VPORT
  5
8
330
0
100
AcDbSymbolTable
 70
1
  0
VPORT
  5
23
330
8
100
AcDbSymbolTableRecord
100
AcDbViewportTableRecord
  2
*Active
 70
0
 10
0.0
 20
0.0
 11
1.0
 21
1.0
 12
0.0
 22
0.0
 13
0.0
 23
0.0
 14
0.5
 24
0.5
 15
0.5
 25
0.5
 16
0.0
 26
0.0
 36
1.0
 17
0.0
 27
0.0
 37
0.0
 40
1000.0
 41
1.34
 42
50.0
 43
0.0
 44
0.0
 50
0.0
 51
0.0
 71
0
 72
1000
 73
1
 74
3
 75
0
 76
0
 77
0
 78
0
281
0
 65
0
146
0.0
  0
ENDTAB
  0
TABLE
  2
LTYPE
  5
2
330
0
100
AcDbSymbolTable
 70
3
  0
LTYPE
  5
24
330
2
100
AcDbSymbolTableRecord
100
AcDbLinetypeTableRecord
  2
ByBlock
 70
0
  3

 72
65
 73
0
 40
0.0
  0
LTYPE
  5
25
330
2
100
AcDbSymbolTableRecord
100
AcDbLinetypeTableRecord
  2
ByLayer
 70
0
  3

 72
65
 73
0
 40
0.0
  0
LTYPE
  5
26
330
2
100
AcDbSymbolTableRecord
100
AcDbLinetypeTableRecord
  2
Continuous
 70
0
  3

 72
65
 73
0
 40
0.0
  0
ENDTAB
  0
TABLE
  2
LAYER
  5
1
330
0
100
AcDbSymbolTable
 70
36
  0
LAYER
  5
27
330
1
100
AcDbSymbolTableRecord
100
AcDbLayerTableRecord
  2
0
 70
0
 62
7
  6
Continuous
370
-3
390
13
347
21
  0
LAYER
  5
28
330
1
100
AcDbSymbolTableRecord
100
AcDbLayerTableRecord
  2
Defpoints
 70
0
 62
7
  6
Continuous
290
0
370
-3
390
13
347
21
  0
LAYER
  5
2F
330
1
100
AcDbSymbolTableRecord
100
AcDbLayerTableRecord
  2
O01
 70
0
 62
7
  6
Continuous
370
-3
390
13
347
21
  0
LAYER
  5
31
330
1
100
AcDbSymbolTableRecord
100
AcDbLayerTableRecord
  2
O02
 70
0
 62
7
  6
Continuous
370
-3
390
13
347
21
  0
LAYER
  5
33
330
1
100
AcDbSymbolTableRecord
100
AcDbLayerTableRecord
  2
O03
 70
0
 62
7
  6
Continuous
370
-3
390
13
347
21
  0
LAYER
  5
35
330
1
100
AcDbSymbolTableRecord
100
AcDbLayerTableRecord
  2
O04
 70
0
 62
7
  6
Continuous
370
-3
390
13
347
21
  0
LAYER
  5
37
330
1
100
AcDbSymbolTableRecord
100
AcDbLayerTableRecord
  2
O05
 70
0
 62
7
  6
Continuous
370
-3
390
13
347
21
  0
LAYER
  5
39
330
1
100
AcDbSymbolTableRecord
100
AcDbLayerTableRecord
  2
O06B
 70
0
 62
7
  6
Continuous
370
-3
390
13
347
21
  0
LAYER
  5
3B
330
1
100
AcDbSymbolTableRecord
100
AcDbLayerTableRecord
  2
O07B
 70
0
 62
7
  6
Continuous
370
-3
390
13
347
21
  0
LAYER
  5
3D
330
1
100
AcDbSymbolTableRecord
100
AcDbLayerTableRecord
  2
O08B
 70
0
 62
7
  6
Continuous
370
-3
390
13
347
21
  0
LAYER
  5
3F
330
1
100
AcDbSymbolTableRecord
100
AcDbLayerTableRecord
  2
O09B
 70
0
 62
7
  6
Continuous
370
-3
390
13
347
21
  0
LAYER
  5
41
330
1
100
AcDbSymbolTableRecord
100
AcDbLayerTableRecord
  2
O10B
 70
0
 62
7
  6
Continuous
370
-3
390
13
347
21
  0
LAYER
  5
43
330
1
100
AcDbSymbolTableRecord
100
AcDbLayerTableRecord
  2
O11B
 70
0
 62
7
  6
Continuous
370
-3
390
13
347
21
  0
LAYER
  5
45
330
1
100
AcDbSymbolTableRecord
100
AcDbLayerTableRecord
  2
O12
 70
0
 62
7
  6
Continuous
370
-3
390
13
347
21
  0
LAYER
  5
47
330
1
100
AcDbSymbolTableRecord
100
AcDbLayerTableRecord
  2
O13
 70
0
 62
7
  6
Continuous
370
-3
390
13
347
21
  0
LAYER
  5
49
330
1
100
AcDbSymbolTableRecord
100
AcDbLayerTableRecord
  2
O14
 70
0
 62
7
  6
Continuous
370
-3
390
13
347
21
  0
LAYER
  5
4B
330
1
100
AcDbSymbolTableRecord
100
AcDbLayerTableRecord
  2
O15
 70
0
 62
7
  6
Continuous
370
-3
390
13
347
21
  0
LAYER
  5
4D
330
1
100
AcDbSymbolTableRecord
100
AcDbLayerTableRecord
  2
O16
 70
0
 62
7
  6
Continuous
370
-3
390
13
347
21
  0
LAYER
  5
4F
330
1
100
AcDbSymbolTableRecord
100
AcDbLayerTableRecord
  2
OF
 70
0
 62
7
  6
Continuous
370
-3
390
13
347
21
  0
LAYER
  5
51
330
1
100
AcDbSymbolTableRecord
100
AcDbLayerTableRecord
  2
OHEAD
 70
0
 62
7
  6
Continuous
370
-3
390
13
347
21
  0
LAYER
  5
53
330
1
100
AcDbSymbolTableRecord
100
AcDbLayerTableRecord
  2
OFOOT
 70
0
 62
7
  6
Continuous
370
-3
390
13
347
21
  0
LAYER
  5
55
330
1
100
AcDbSymbolTableRecord
100
AcDbLayerTableRecord
  2
FOAM_MATTRESS
 70
0
 62
7
  6
Continuous
370
-3
390
13
347
21
  0
LAYER
  5
86
330
1
100
AcDbSymbolTableRecord
100
AcDbLayerTableRecord
  2
FOAM_UNDERLAY
 70
0
 62
7
  6
Continuous
370
-3
390
13
347
21
  0
LAYER
  5
B7
330
1
100
AcDbSymbolTableRecord
100
AcDbLayerTableRecord
  2
FOAM_BACK_WEDGE
 70
0
 62
7
  6
Continuous
370
-3
390
13
347
21
  0
LAYER
  5
C1
330
1
100
AcDbSymbolTableRecord
100
AcDbLayerTableRecord
  2
FOAM_ARM_L
 70
0
 62
7
  6
Continuous
370
-3
390
13
347
21
  0
LAYER
  5
CE
330
1
100
AcDbSymbolTableRecord
100
AcDbLayerTableRecord
  2
FOAM_ARM_R
 70
0
 62
7
  6
Continuous
370
-3
390
13
347
21
  0
LAYER
  5
DB
330
1
100
AcDbSymbolTableRecord
100
AcDbLayerTableRecord
  2
D20
 70
0
 62
7
  6
Continuous
370
-3
390
13
347
21
  0
LAYER
  5
128
330
1
100
AcDbSymbolTableRecord
100
AcDbLayerTableRecord
  2
D21
 70
0
 62
7
  6
Continuous
370
-3
390
13
347
21
  0
LAYER
  5
135
330
1
100
AcDbSymbolTableRecord
100
AcDbLayerTableRecord
  2
D22
 70
0
 62
7
  6
Continuous
370
-3
390
13
347
21
  0
LAYER
  5
142
330
1
100
AcDbSymbolTableRecord
100
AcDbLayerTableRecord
  2
H01
 70
0
 62
7
  6
Continuous
370
-3
390
13
347
21
  0
LAYER
  5
144
330
1
100
AcDbSymbolTableRecord
100
AcDbLayerTableRecord
  2
H02
 70
0
 62
7
  6
Continuous
370
-3
390
13
347
21
  0
LAYER
  5
146
330
1
100
AcDbSymbolTableRecord
100
AcDbLayerTableRecord
  2
EH0
 70
0
 62
7
  6
Continuous
370
-3
390
13
347
21
  0
LAYER
  5
1A8
330
1
100
AcDbSymbolTableRecord
100
AcDbLayerTableRecord
  2
EH1
 70
0
 62
7
  6
Continuous
370
-3
390
13
347
21
  0
LAYER
  5
20A
330
1
100
AcDbSymbolTableRecord
100
AcDbLayerTableRecord
  2
EH2
 70
0
 62
7
  6
Continuous
370
-3
390
13
347
21
  0
LAYER
  5
26C
330
1
100
AcDbSymbolTableRecord
100
AcDbLayerTableRecord
  2
EH3
 70
0
 62
7
  6
Continuous
370
-3
390
13
347
21
  0
LAYER
  5
2CE
330
1
100
AcDbSymbolTableRecord
100
AcDbLayerTableRecord
  2
E11
 70
0
 62
7
  6
Continuous
370
-3
390
13
347
21
  0
ENDTAB
  0
TABLE
  2
STYLE
  5
5
330
0
100
AcDbSymbolTable
 70
1
  0
STYLE
  5
29
330
5
100
AcDbSymbolTableRecord
100
AcDbTextStyleTableRecord
  2
Standard
 70
0
 40
0.0
 41
1.0
 50
0.0
 71
0
 42
2.5
  3
txt
  4

  0
ENDTAB
  0
TABLE
  2
VIEW
  5
7
330
0
100
AcDbSymbolTable
 70
0
  0
ENDTAB
  0
TABLE
  2
UCS
  5
6
330
0
100
AcDbSymbolTable
 70
0
  0
ENDTAB
  0
TABLE
  2
APPID
  5
3
330
0
100
AcDbSymbolTable
 70
3
  0
APPID
  5
2A
330
3
100
AcDbSymbolTableRecord
100
AcDbRegAppTableRecord
  2
ACAD
 70
0
  0
APPID
  5
2DB
330
3
100
AcDbSymbolTableRecord
100
AcDbRegAppTableRecord
  2
HATCHBACKGROUNDCOLOR
 70
0
  0
APPID
  5
2DC
330
3
100
AcDbSymbolTableRecord
100
AcDbRegAppTableRecord
  2
EZDXF
 70
0
  0
ENDTAB
  0
TABLE
  2
DIMSTYLE
  5
4
330
0
100
AcDbSymbolTable
 70
1
100
AcDbDimStyleTable
  0
DIMSTYLE
105
2B
330
4
100
AcDbSymbolTableRecord
100
AcDbDimStyleTableRecord
  2
Standard
 70
0
 40
1.0
 41
2.5
 42
0.625
 43
3.75
 44
1.25
 45
0.0
 46
0.0
 47
0.0
 48
0.0
 49
2.5
140
2.5
141
2.5
142
0.0
143
0.03937007874
144
1.0
145
0.0
146
1.0
147
0.625
148
0.0
 69
0
 70
0
 71
0
 72
0
 73
0
 74
0
 75
0
 76
0
 77
1
 78
8
 79
3
170
0
171
3
172
1
173
0
174
0
175
0
176
0
177
0
178
0
179
2
271
2
272
2
273
2
274
3
275
0
276
0
277
2
278
44
279
0
280
0
281
0
282
0
283
0
284
8
285
0
286
0
288
0
289
3
290
0
371
-2
372
-2
  0
ENDTAB
  0
TABLE
  2
BLOCK_RECORD
  5
9
330
0
100
AcDbSymbolTable
 70
2
  0
BLOCK_RECORD
  5
17
330
9
100
AcDbSymbolTableRecord
100
AcDbBlockTableRecord
  2
*Model_Space
340
1A
 70
0
280
1
281
0
  0
BLOCK_RECORD
  5
1B
330
9
100
AcDbSymbolTableRecord
100
AcDbBlockTableRecord
  2
*Paper_Space
340
1E
 70
0
280
1
281
0
  0
ENDTAB
  0
ENDSEC
  0
SECTION
  2
BLOCKS
  0
BLOCK
  5
18
330
17
100
AcDbEntity
  8
0
100
AcDbBlockBegin
  2
*Model_Space
 70
0
 10
0.0
 20
0.0
 30
0.0
  3
*Model_Space
  1

  0
ENDBLK
  5
19
330
17
100
AcDbEntity
  8
0
100
AcDbBlockEnd
  0
BLOCK
  5
1C
330
1B
100
AcDbEntity
  8
0
100
AcDbBlockBegin
  2
*Paper_Space
 70
0
 10
0.0
 20
0.0
 30
0.0
  3
*Paper_Space
  1

  0
ENDBLK
  5
1D
330
1B
100
AcDbEntity
  8
0
100
AcDbBlockEnd
  0
ENDSEC
  0
SECTION
  2
ENTITIES
  0
LWPOLYLINE
  5
30
330
17
100
AcDbEntity
  8
O01
100
AcDbPolyline
 90
38
 70
1
 10
-160.8693330549854
 20
0.0
 10
-238.49516995770847
 20
0.0
 10
-306.41777724759123
 20
0.0
 10
-344.7199994035401
 20
0.0
 10
-383.022221559489
 20
0.0
 10
-383.022221559489
 20
0.0
 10
-383.022221559489
 20
0.0
 10
-383.022221559489
 20
0.0
 10
-383.022221559489
 20
0.0
 10
-383.022221559489
 20
0.0
 10
-383.022221559489
 20
0.0
 10
-375.36177712829925
 20
0.0
 10
-367.7013326971094
 20
0.0
 10
-352.3804438347299
 20
0.0
 10
-337.0595549723503
 20
0.0
 10
-287.26666616961677
 20
0.0
 10
-237.47377736688318
 20
0.0
 10
-180.02044413295982
 20
0.0
 10
-122.56711089903648
 20
0.0
 10
-146.44983665911155
 20
33.607151183060736
 10
-215.0981975930701
 20
45.29659507282099
 10
-283.74655852702864
 20
56.986038962581254
 10
-343.2418046697927
 20
65.02253163679143
 10
-402.7370508125568
 20
73.05902431100161
 10
-421.0432803949457
 20
77.4425657696617
 10
-439.34950997733466
 20
81.82610722832179
 10
-448.50262476852913
 20
86.2096486869819
 10
-457.6557395597236
 20
90.59319014564198
 10
-457.6557395597236
 20
95.7073218474121
 10
-457.6557395597236
 20
100.82145354918221
 10
-457.6557395597236
 20
110.31912670961243
 10
-457.6557395597236
 20
119.81679987004263
 10
-457.6557395597236
 20
127.1227023011428
 10
-457.6557395597236
 20
134.42860473224295
 10
-411.89016560375126
 20
119.81679987004263
 10
-366.12459164777886
 20
105.20499500784231
 10
-284.9669738325212
 20
76.56585747792968
 10
-192.21541061508393
 20
43.83541458660097
  0
LWPOLYLINE
  5
32
330
17
100
AcDbEntity
  8
O02
100
AcDbPolyline
 90
38
 70
1
 10
-192.21541061508393
 20
43.83541458660097
 10
-284.9669738325212
 20
76.56585747792968
 10
-366.12459164777886
 20
105.20499500784231
 10
-411.89016560375126
 20
119.81679987004263
 10
-457.6557395597236
 20
134.42860473224295
 10
-457.6557395597236
 20
127.1227023011428
 10
-457.6557395597236
 20
119.81679987004263
 10
-457.6557395597236
 20
110.31912670961243
 10
-457.6557395597236
 20
100.82145354918221
 10
-457.6557395597236
 20
95.7073218474121
 10
-457.6557395597236
 20
90.59319014564198
 10
-448.50262476852913
 20
86.2096486869819
 10
-439.34950997733466
 20
81.82610722832179
 10
-421.0432803949457
 20
77.4425657696617
 10
-402.7370508125568
 20
73.05902431100161
 10
-343.2418046697927
 20
65.02253163679143
 10
-283.74655852702864
 20
56.986038962581254
 10
-215.0981975930701
 20
45.29659507282099
 10
-146.44983665911155
 20
33.607151183060736
 10
-158.6311778198097
 20
71.71963394572565
 10
-232.98954242284546
 20
96.66559357902152
 10
-307.3479070258812
 20
121.61155321231739
 10
-371.7918230151789
 20
138.76190046020832
 10
-436.2357390044766
 20
155.91224770809924
 10
-456.0646362319528
 20
165.26698257058518
 10
-475.893533459429
 20
174.62171743307115
 10
-485.8079820731671
 20
183.9764522955571
 10
-495.7224306869052
 20
193.33118715804304
 10
-495.7224306869052
 20
204.24504449761
 10
-495.7224306869052
 20
215.15890183717696
 10
-495.7224306869052
 20
235.42749403922986
 10
-495.7224306869052
 20
255.69608624128276
 10
-495.7224306869052
 20
271.2873110120927
 10
-495.7224306869052
 20
286.8785357829026
 10
-446.1501876182147
 20
255.69608624128276
 10
-396.5779445495242
 20
224.5136366996629
 10
-308.669833507713
 20
163.396035598088
 10
-208.2034208885002
 20
93.54734862485954
  0
LWPOLYLINE
  5
34
330
17
100
AcDbEntity
  8
O03
100
AcDbPolyline
 90
38
 70
1
 10
-208.2034208885002
 20
93.54734862485954
 10
-308.669833507713
 20
163.396035598088
 10
-396.5779445495242
 20
224.5136366996629
 10
-446.1501876182147
 20
255.69608624128276
 10
-495.7224306869052
 20
286.8785357829026
 10
-495.7224306869052
 20
271.2873110120927
 10
-495.7224306869052
 20
255.69608624128276
 10
-495.7224306869052
 20
235.42749403922986
 10
-495.7224306869052
 20
215.15890183717696
 10
-495.7224306869052
 20
204.24504449761
 10
-495.7224306869052
 20
193.33118715804304
 10
-485.8079820731671
 20
183.9764522955571
 10
-475.893533459429
 20
174.62171743307115
 10
-456.0646362319528
 20
165.26698257058518
 10
-436.2357390044766
 20
155.91224770809924
 10
-371.7918230151789
 20
138.76190046020832
 10
-307.3479070258812
 20
121.61155321231739
 10
-232.98954242284546
 20
96.66559357902152
 10
-158.6311778198097
 20
71.71963394572565
 10
-158.1378416748417
 20
111.29224981583017
 10
-232.26495495992376
 20
150.00259757785807
 10
-306.3920682450058
 20
188.71294533988595
 10
-370.6355664254103
 20
215.32630942628012
 10
-434.8790646058147
 20
241.93967351267432
 10
-454.6462948151699
 20
256.45605392343475
 10
-474.41352502452514
 20
270.9724343341952
 10
-484.2971401292027
 20
285.4888147449557
 10
-494.18075523388035
 20
300.00519515571614
 10
-494.18075523388035
 20
316.9409723016033
 10
-494.18075523388035
 20
333.87674944749057
 10
-494.18075523388035
 20
365.3289070041382
 10
-494.18075523388035
 20
396.78106456078586
 10
-494.18075523388035
 20
420.9750319120533
 10
-494.18075523388035
 20
445.1689992633207
 10
-444.7626797104923
 20
396.78106456078586
 10
-395.34460418710427
 20
348.393129858251
 10
-307.70988359229614
 20
253.55277784128265
 10
-207.55591719822974
 20
145.1638041076046
  0
LWPOLYLINE
  5
36
330
17
100
AcDbEntity
  8
O04
100
AcDbPolyline
 90
38
 70
1
 10
-207.55591719822974
 20
145.1638041076046
 10
-307.70988359229614
 20
253.55277784128265
 10
-395.34460418710427
 20
348.393129858251
 10
-444.7626797104923
 20
396.78106456078586
 10
-494.18075523388035
 20
445.1689992633207
 10
-494.18075523388035
 20
420.9750319120533
 10
-494.18075523388035
 20
396.78106456078586
 10
-494.18075523388035
 20
365.3289070041382
 10
-494.18075523388035
 20
333.87674944749057
 10
-494.18075523388035
 20
316.9409723016033
 10
-494.18075523388035
 20
300.00519515571614
 10
-484.2971401292027
 20
285.4888147449557
 10
-474.41352502452514
 20
270.9724343341952
 10
-454.6462948151699
 20
256.45605392343475
 10
-434.8790646058147
 20
241.93967351267432
 10
-370.6355664254103
 20
215.32630942628012
 10
-306.3920682450058
 20
188.71294533988595
 10
-232.26495495992376
 20
150.00259757785807
 10
-158.1378416748417
 20
111.29224981583017
 10
-145.00924592586398
 20
149.16313526069368
 10
-212.98232995361275
 20
201.0459649165871
 10
-280.95541398136146
 20
252.92879457248057
 10
-339.86542013874373
 20
288.59823996090734
 10
-398.775426296126
 20
324.2676853493341
 10
-416.901582036859
 20
343.72374647029415
 10
-435.027737777592
 20
363.1798075912542
 10
-444.0908156479585
 20
382.6358687122142
 10
-453.153893518325
 20
402.0919298331742
 10
-453.153893518325
 20
424.79066780762764
 10
-453.153893518325
 20
447.489405782081
 10
-453.153893518325
 20
489.6442048774945
 10
-453.153893518325
 20
531.7990039729079
 10
-453.153893518325
 20
564.2257725078413
 10
-453.153893518325
 20
596.6525410427747
 10
-407.8385041664925
 20
531.7990039729079
 10
-362.52311481465995
 20
466.94546690304105
 10
-282.163824364077
 20
339.8325342461021
 10
-190.32463527769647
 20
194.56061120960047
  0
LWPOLYLINE
  5
38
330
17
100
AcDbEntity
  8
O05
100
AcDbPolyline
 90
38
 70
1
 10
-190.32463527769647
 20
194.56061120960047
 10
-282.163824364077
 20
339.8325342461021
 10
-362.52311481465995
 20
466.94546690304105
 10
-407.8385041664925
 20
531.7990039729079
 10
-453.153893518325
 20
596.6525410427747
 10
-453.153893518325
 20
564.2257725078413
 10
-453.153893518325
 20
531.7990039729079
 10
-453.153893518325
 20
489.6442048774945
 10
-453.153893518325
 20
447.489405782081
 10
-453.153893518325
 20
424.79066780762764
 10
-453.153893518325
 20
402.0919298331742
 10
-444.0908156479585
 20
382.6358687122142
 10
-435.027737777592
 20
363.1798075912542
 10
-416.901582036859
 20
343.72374647029415
 10
-398.775426296126
 20
324.2676853493341
 10
-339.86542013874373
 20
288.59823996090734
 10
-280.95541398136146
 20
252.92879457248057
 10
-212.98232995361275
 20
201.0459649165871
 10
-145.00924592586398
 20
149.16313526069368
 10
-120.29436919663637
 20
182.30639550420383
 10
-176.68235475755966
 20
245.71731567957906
 10
-233.07034031848295
 20
309.1282358549543
 10
-281.9399278046165
 20
352.72324347552484
 10
-330.80951529075
 20
396.3182510960953
 10
-345.84631144032954
 20
420.09734616186097
 10
-360.8831075899091
 20
443.87644122762674
 10
-368.40150566469885
 20
467.65553629339246
 10
-375.91990373948863
 20
491.4346313591581
 10
-375.91990373948863
 20
519.1769089358849
 10
-375.91990373948863
 20
546.9191865126114
 10
-375.91990373948863
 20
598.4405591551039
 10
-375.91990373948863
 20
649.9619317975963
 10
-375.91990373948863
 20
689.5937569072058
 10
-375.91990373948863
 20
729.2255820168153
 10
-338.32791336553976
 20
649.9619317975963
 10
-300.7359229915909
 20
570.6982815783772
 10
-234.07279339512158
 20
415.3415271487078
 10
-157.88635957058523
 20
237.79095065765716
  0
LWPOLYLINE
  5
3A
330
17
100
AcDbEntity
  8
O06B
100
AcDbPolyline
 90
14
 70
1
 10
-360.8831075899091
 20
443.87644122762674
 10
-345.84631144032954
 20
420.09734616186097
 10
-330.80951529075
 20
396.3182510960953
 10
-281.9399278046165
 20
352.72324347552484
 10
-233.07034031848295
 20
309.1282358549543
 10
-176.68235475755966
 20
245.71731567957906
 10
-120.29436919663637
 20
182.30639550420383
 10
-85.96793733549184
 20
208.0738744006541
 10
-126.26540796150364
 20
280.4473959313164
 10
-166.56287858751543
 20
352.82091746197875
 10
-201.487353130059
 20
402.57771351430904
 10
-236.41182767260256
 20
452.3345095666394
 10
-247.15781983953903
 20
479.4745801406377
 10
-257.9038120064755
 20
506.61465071463607
  0
LWPOLYLINE
  5
3C
330
17
100
AcDbEntity
  8
O07B
100
AcDbPolyline
 90
14
 70
1
 10
-257.9038120064755
 20
506.61465071463607
 10
-247.15781983953903
 20
479.4745801406377
 10
-236.41182767260256
 20
452.3345095666394
 10
-201.487353130059
 20
402.57771351430904
 10
-166.56287858751543
 20
352.82091746197875
 10
-126.26540796150364
 20
280.4473959313164
 10
-85.96793733549184
 20
208.0738744006541
 10
-44.77264224495873
 20
224.40674288200307
 10
-65.75981829728315
 20
302.46126214530847
 10
-86.74699434960755
 20
380.5157814086139
 10
-104.93588026162203
 20
434.1782634021364
 10
-123.12476617363652
 20
487.84074539565887
 10
-128.72134645425635
 20
517.1111901193984
 10
-134.3179267348762
 20
546.3816348431379
  0
LWPOLYLINE
  5
3E
330
17
100
AcDbEntity
  8
O08B
100
AcDbPolyline
 90
14
 70
1
 10
-134.3179267348762
 20
546.3816348431379
 10
-128.72134645425635
 20
517.1111901193984
 10
-123.12476617363652
 20
487.84074539565887
 10
-104.93588026162203
 20
434.1782634021364
 10
-86.74699434960755
 20
380.5157814086139
 10
-65.75981829728315
 20
302.46126214530847
 10
-44.77264224495873
 20
224.40674288200307
 10
9.797174393178826e-15
 20
230.00000000000003
 10
1.43895998899814e-14
 20
310.0
 10
1.8982025386783973e-14
 20
390.0
 10
2.2962127484012872e-14
 20
445.0
 10
2.694222958124177e-14
 20
500.0
 10
2.8166876380389125e-14
 20
530.0
 10
2.939152317953648e-14
 20
560.0
  0
LWPOLYLINE
  5
40
330
17
100
AcDbEntity
  8
O09B
100
AcDbPolyline
 90
14
 70
1
 10
2.939152317953648e-14
 20
560.0
 10
2.8166876380389125e-14
 20
530.0
 10
2.694222958124177e-14
 20
500.0
 10
2.2962127484012872e-14
 20
445.0
 10
1.8982025386783973e-14
 20
390.0
 10
1.43895998899814e-14
 20
310.0
 10
9.797174393178826e-15
 20
230.00000000000003
 10
44.772642244958725
 20
224.40674288200307
 10
65.75981829728313
 20
302.46126214530847
 10
86.74699434960753
 20
380.5157814086139
 10
104.93588026162202
 20
434.1782634021364
 10
123.12476617363649
 20
487.84074539565887
 10
128.72134645425632
 20
517.1111901193984
 10
134.31792673487618
 20
546.3816348431379
  0
LWPOLYLINE
  5
42
330
17
100
AcDbEntity
  8
O10B
100
AcDbPolyline
 90
14
 70
1
 10
134.31792673487618
 20
546.3816348431379
 10
128.72134645425632
 20
517.1111901193984
 10
123.12476617363649
 20
487.84074539565887
 10
104.93588026162202
 20
434.1782634021364
 10
86.74699434960753
 20
380.5157814086139
 10
65.75981829728313
 20
302.46126214530847
 10
44.772642244958725
 20
224.40674288200307
 10
85.96793733549183
 20
208.0738744006541
 10
126.26540796150361
 20
280.4473959313164
 10
166.5628785875154
 20
352.82091746197875
 10
201.48735313005895
 20
402.57771351430904
 10
236.4118276726025
 20
452.3345095666394
 10
247.157819839539
 20
479.4745801406377
 10
257.90381200647545
 20
506.61465071463607
  0
LWPOLYLINE
  5
44
330
17
100
AcDbEntity
  8
O11B
100
AcDbPolyline
 90
14
 70
1
 10
257.90381200647545
 20
506.61465071463607
 10
247.157819839539
 20
479.4745801406377
 10
236.4118276726025
 20
452.3345095666394
 10
201.48735313005895
 20
402.57771351430904
 10
166.5628785875154
 20
352.82091746197875
 10
126.26540796150361
 20
280.4473959313164
 10
85.96793733549183
 20
208.0738744006541
 10
120.29436919663638
 20
182.30639550420383
 10
176.6823547575597
 20
245.71731567957906
 10
233.07034031848298
 20
309.1282358549543
 10
281.9399278046165
 20
352.72324347552484
 10
330.80951529075
 20
396.3182510960953
 10
345.8463114403296
 20
420.09734616186097
 10
360.8831075899092
 20
443.87644122762674
  0
LWPOLYLINE
  5
46
330
17
100
AcDbEntity
  8
O12
100
AcDbPolyline
 90
38
 70
1
 10
157.88635957058526
 20
237.79095065765716
 10
234.0727933951216
 20
415.3415271487078
 10
300.73592299159094
 20
570.6982815783772
 10
338.3279133655398
 20
649.9619317975963
 10
375.9199037394887
 20
729.2255820168153
 10
375.9199037394887
 20
689.5937569072058
 10
375.9199037394887
 20
649.9619317975963
 10
375.9199037394887
 20
598.4405591551039
 10
375.9199037394887
 20
546.9191865126114
 10
375.9199037394887
 20
519.1769089358849
 10
375.9199037394887
 20
491.4346313591581
 10
368.4015056646989
 20
467.65553629339246
 10
360.8831075899092
 20
443.87644122762674
 10
345.8463114403296
 20
420.09734616186097
 10
330.80951529075
 20
396.3182510960953
 10
281.9399278046165
 20
352.72324347552484
 10
233.07034031848298
 20
309.1282358549543
 10
176.6823547575597
 20
245.71731567957906
 10
120.29436919663638
 20
182.30639550420383
 10
145.00924592586398
 20
149.16313526069368
 10
212.98232995361275
 20
201.0459649165871
 10
280.95541398136146
 20
252.92879457248057
 10
339.86542013874373
 20
288.59823996090734
 10
398.775426296126
 20
324.2676853493341
 10
416.901582036859
 20
343.72374647029415
 10
435.027737777592
 20
363.1798075912542
 10
444.0908156479585
 20
382.6358687122142
 10
453.153893518325
 20
402.0919298331742
 10
453.153893518325
 20
424.79066780762764
 10
453.153893518325
 20
447.489405782081
 10
453.153893518325
 20
489.6442048774945
 10
453.153893518325
 20
531.7990039729079
 10
453.153893518325
 20
564.2257725078413
 10
453.153893518325
 20
596.6525410427747
 10
407.8385041664925
 20
531.7990039729079
 10
362.52311481465995
 20
466.94546690304105
 10
282.163824364077
 20
339.8325342461021
 10
190.32463527769647
 20
194.56061120960047
  0
LWPOLYLINE
  5
48
330
17
100
AcDbEntity
  8
O13
100
AcDbPolyline
 90
38
 70
1
 10
190.32463527769647
 20
194.56061120960047
 10
282.163824364077
 20
339.8325342461021
 10
362.52311481465995
 20
466.94546690304105
 10
407.8385041664925
 20
531.7990039729079
 10
453.153893518325
 20
596.6525410427747
 10
453.153893518325
 20
564.2257725078413
 10
453.153893518325
 20
531.7990039729079
 10
453.153893518325
 20
489.6442048774945
 10
453.153893518325
 20
447.489405782081
 10
453.153893518325
 20
424.79066780762764
 10
453.153893518325
 20
402.0919298331742
 10
444.0908156479585
 20
382.6358687122142
 10
435.027737777592
 20
363.1798075912542
 10
416.901582036859
 20
343.72374647029415
 10
398.775426296126
 20
324.2676853493341
 10
339.86542013874373
 20
288.59823996090734
 10
280.95541398136146
 20
252.92879457248057
 10
212.98232995361275
 20
201.0459649165871
 10
145.00924592586398
 20
149.16313526069368
 10
158.1378416748417
 20
111.29224981583019
 10
232.26495495992376
 20
150.0025975778581
 10
306.3920682450058
 20
188.71294533988598
 10
370.6355664254103
 20
215.32630942628018
 10
434.8790646058147
 20
241.93967351267435
 10
454.6462948151699
 20
256.4560539234348
 10
474.41352502452514
 20
270.9724343341952
 10
484.2971401292027
 20
285.48881474495573
 10
494.18075523388035
 20
300.0051951557162
 10
494.18075523388035
 20
316.9409723016034
 10
494.18075523388035
 20
333.8767494474906
 10
494.18075523388035
 20
365.3289070041383
 10
494.18075523388035
 20
396.78106456078586
 10
494.18075523388035
 20
420.97503191205334
 10
494.18075523388035
 20
445.16899926332076
 10
444.7626797104923
 20
396.78106456078586
 10
395.34460418710427
 20
348.3931298582511
 10
307.70988359229614
 20
253.5527778412827
 10
207.55591719822974
 20
145.1638041076046
  0
LWPOLYLINE
  5
4A
330
17
100
AcDbEntity
  8
O14
100
AcDbPolyline
 90
38
 70
1
 10
207.55591719822974
 20
145.1638041076046
 10
307.70988359229614
 20
253.5527778412827
 10
395.34460418710427
 20
348.3931298582511
 10
444.7626797104923
 20
396.78106456078586
 10
494.18075523388035
 20
445.16899926332076
 10
494.18075523388035
 20
420.97503191205334
 10
494.18075523388035
 20
396.78106456078586
 10
494.18075523388035
 20
365.3289070041383
 10
494.18075523388035
 20
333.8767494474906
 10
494.18075523388035
 20
316.9409723016034
 10
494.18075523388035
 20
300.0051951557162
 10
484.2971401292027
 20
285.48881474495573
 10
474.41352502452514
 20
270.9724343341952
 10
454.6462948151699
 20
256.4560539234348
 10
434.8790646058147
 20
241.93967351267435
 10
370.6355664254103
 20
215.32630942628018
 10
306.3920682450058
 20
188.71294533988598
 10
232.26495495992376
 20
150.0025975778581
 10
158.1378416748417
 20
111.29224981583019
 10
158.63117781980966
 20
71.71963394572562
 10
232.98954242284543
 20
96.66559357902149
 10
307.3479070258812
 20
121.61155321231735
 10
371.7918230151789
 20
138.76190046020827
 10
436.23573900447656
 20
155.9122477080992
 10
456.06463623195276
 20
165.26698257058513
 10
475.89353345942897
 20
174.62171743307107
 10
485.80798207316707
 20
183.976452295557
 10
495.72243068690517
 20
193.33118715804298
 10
495.72243068690517
 20
204.24504449760994
 10
495.72243068690517
 20
215.15890183717684
 10
495.72243068690517
 20
235.42749403922974
 10
495.72243068690517
 20
255.69608624128264
 10
495.72243068690517
 20
271.2873110120926
 10
495.72243068690517
 20
286.8785357829025
 10
446.15018761821466
 20
255.69608624128264
 10
396.57794454952415
 20
224.51363669966278
 10
308.66983350771295
 20
163.3960355980879
 10
208.20342088850018
 20
93.54734862485951
  0
LWPOLYLINE
  5
4C
330
17
100
AcDbEntity
  8
O15
100
AcDbPolyline
 90
38
 70
1
 10
208.20342088850018
 20
93.54734862485951
 10
308.66983350771295
 20
163.3960355980879
 10
396.57794454952415
 20
224.51363669966278
 10
446.15018761821466
 20
255.69608624128264
 10
495.72243068690517
 20
286.8785357829025
 10
495.72243068690517
 20
271.2873110120926
 10
495.72243068690517
 20
255.69608624128264
 10
495.72243068690517
 20
235.42749403922974
 10
495.72243068690517
 20
215.15890183717684
 10
495.72243068690517
 20
204.24504449760994
 10
495.72243068690517
 20
193.33118715804298
 10
485.80798207316707
 20
183.976452295557
 10
475.89353345942897
 20
174.62171743307107
 10
456.06463623195276
 20
165.26698257058513
 10
436.23573900447656
 20
155.9122477080992
 10
371.7918230151789
 20
138.76190046020827
 10
307.3479070258812
 20
121.61155321231735
 10
232.98954242284543
 20
96.66559357902149
 10
158.63117781980966
 20
71.71963394572562
 10
146.44983665911153
 20
33.607151183060715
 10
215.09819759307007
 20
45.29659507282097
 10
283.7465585270286
 20
56.98603896258121
 10
343.24180466979266
 20
65.02253163679138
 10
402.73705081255673
 20
73.05902431100155
 10
421.04328039494567
 20
77.44256576966166
 10
439.3495099773346
 20
81.82610722832175
 10
448.5026247685291
 20
86.20964868698182
 10
457.65573955972354
 20
90.59319014564194
 10
457.65573955972354
 20
95.70732184741203
 10
457.65573955972354
 20
100.82145354918215
 10
457.65573955972354
 20
110.31912670961235
 10
457.65573955972354
 20
119.81679987004254
 10
457.65573955972354
 20
127.12270230114271
 10
457.65573955972354
 20
134.42860473224286
 10
411.8901656037512
 20
119.81679987004254
 10
366.12459164777886
 20
105.20499500784223
 10
284.9669738325212
 20
76.56585747792963
 10
192.2154106150839
 20
43.83541458660093
  0
LWPOLYLINE
  5
4E
330
17
100
AcDbEntity
  8
O16
100
AcDbPolyline
 90
38
 70
1
 10
192.2154106150839
 20
43.83541458660093
 10
284.9669738325212
 20
76.56585747792963
 10
366.12459164777886
 20
105.20499500784223
 10
411.8901656037512
 20
119.81679987004254
 10
457.65573955972354
 20
134.42860473224286
 10
457.65573955972354
 20
127.12270230114271
 10
457.65573955972354
 20
119.81679987004254
 10
457.65573955972354
 20
110.31912670961235
 10
457.65573955972354
 20
100.82145354918215
 10
457.65573955972354
 20
95.70732184741203
 10
457.65573955972354
 20
90.59319014564194
 10
448.5026247685291
 20
86.20964868698182
 10
439.3495099773346
 20
81.82610722832175
 10
421.04328039494567
 20
77.44256576966166
 10
402.73705081255673
 20
73.05902431100155
 10
343.24180466979266
 20
65.02253163679138
 10
283.7465585270286
 20
56.98603896258121
 10
215.09819759307007
 20
45.29659507282097
 10
146.44983665911153
 20
33.607151183060715
 10
122.56711089903648
 20
0.0
 10
180.02044413295982
 20
0.0
 10
237.47377736688318
 20
0.0
 10
287.26666616961677
 20
0.0
 10
337.0595549723503
 20
0.0
 10
352.3804438347299
 20
0.0
 10
367.7013326971094
 20
0.0
 10
375.36177712829925
 20
0.0
 10
383.022221559489
 20
0.0
 10
383.022221559489
 20
0.0
 10
383.022221559489
 20
0.0
 10
383.022221559489
 20
0.0
 10
383.022221559489
 20
0.0
 10
383.022221559489
 20
0.0
 10
383.022221559489
 20
0.0
 10
344.7199994035401
 20
0.0
 10
306.41777724759123
 20
0.0
 10
238.49516995770847
 20
0.0
 10
160.8693330549854
 20
0.0
  0
LWPOLYLINE
  5
50
330
17
100
AcDbEntity
  8
OF
100
AcDbPolyline
 90
38
 70
1
 10
-160.8693330549854
 20
0.0
 10
-238.49516995770847
 20
0.0
 10
-306.41777724759123
 20
0.0
 10
-344.7199994035401
 20
0.0
 10
-383.022221559489
 20
0.0
 10
-383.022221559489
 20
0.0
 10
-383.022221559489
 20
0.0
 10
-383.022221559489
 20
0.0
 10
-383.022221559489
 20
0.0
 10
-383.022221559489
 20
0.0
 10
-383.022221559489
 20
0.0
 10
-375.36177712829925
 20
0.0
 10
-367.7013326971094
 20
0.0
 10
-352.3804438347299
 20
0.0
 10
-337.0595549723503
 20
0.0
 10
-287.26666616961677
 20
0.0
 10
-237.47377736688318
 20
0.0
 10
-180.02044413295982
 20
0.0
 10
-122.56711089903648
 20
0.0
 10
122.56711089903648
 20
0.0
 10
180.02044413295982
 20
0.0
 10
237.47377736688318
 20
0.0
 10
287.26666616961677
 20
0.0
 10
337.0595549723503
 20
0.0
 10
352.3804438347299
 20
0.0
 10
367.7013326971094
 20
0.0
 10
375.36177712829925
 20
0.0
 10
383.022221559489
 20
0.0
 10
383.022221559489
 20
0.0
 10
383.022221559489
 20
0.0
 10
383.022221559489
 20
0.0
 10
383.022221559489
 20
0.0
 10
383.022221559489
 20
0.0
 10
383.022221559489
 20
0.0
 10
344.7199994035401
 20
0.0
 10
306.41777724759123
 20
0.0
 10
238.49516995770847
 20
0.0
 10
160.8693330549854
 20
0.0
  0
LWPOLYLINE
  5
52
330
17
100
AcDbEntity
  8
OHEAD
100
AcDbPolyline
 90
17
 70
1
 10
-160.8693330549854
 20
0.0
 10
-192.21541061508393
 20
43.83541458660097
 10
-208.2034208885002
 20
93.54734862485954
 10
-207.55591719822974
 20
145.1638041076046
 10
-190.32463527769647
 20
194.56061120960047
 10
-157.88635957058523
 20
237.79095065765716
 10
-112.83291775283304
 20
271.4007057399836
 10
-58.764092946508335
 20
292.7044472373953
 10
1.2858791391047208e-14
 20
300.0
 10
58.76409294650833
 20
292.7044472373953
 10
112.83291775283301
 20
271.4007057399836
 10
157.88635957058526
 20
237.79095065765716
 10
190.32463527769647
 20
194.56061120960047
 10
207.55591719822974
 20
145.1638041076046
 10
208.20342088850018
 20
93.54734862485951
 10
192.2154106150839
 20
43.83541458660093
 10
160.8693330549854
 20
0.0
  0
LWPOLYLINE
  5
54
330
17
100
AcDbEntity
  8
OFOOT
100
AcDbPolyline
 90
17
 70
1
 10
-122.56711089903648
 20
0.0
 10
-146.44983665911155
 20
33.607151183060736
 10
-158.6311778198097
 20
71.71963394572565
 10
-158.1378416748417
 20
111.29224981583017
 10
-145.00924592586398
 20
149.16313526069368
 10
-120.29436919663637
 20
182.30639550420383
 10
-85.96793733549184
 20
208.0738744006541
 10
-44.77264224495873
 20
224.40674288200307
 10
9.797174393178826e-15
 20
230.00000000000003
 10
44.772642244958725
 20
224.40674288200307
 10
85.96793733549183
 20
208.0738744006541
 10
120.29436919663638
 20
182.30639550420383
 10
145.00924592586398
 20
149.16313526069368
 10
158.1378416748417
 20
111.29224981583019
 10
158.63117781980966
 20
71.71963394572562
 10
146.44983665911153
 20
33.607151183060715
 10
122.56711089903648
 20
0.0
  0
LWPOLYLINE
  5
56
330
17
100
AcDbEntity
  8
FOAM_MATTRESS
100
AcDbPolyline
 90
2
 70
0
 10
-211.70666666666668
 20
120.0
 10
-211.70666666666668
 20
24.0
  0
LWPOLYLINE
  5
57
330
17
100
AcDbEntity
  8
FOAM_MATTRESS
100
AcDbPolyline
 90
2
 70
0
 10
-272.0
 20
24.0
 10
-272.0
 20
120.0
  0
LWPOLYLINE
  5
58
330
17
100
AcDbEntity
  8
FOAM_MATTRESS
100
AcDbPolyline
 90
2
 70
0
 10
-211.70666666666668
 20
24.0
 10
-272.0
 20
24.0
  0
LWPOLYLINE
  5
59
330
17
100
AcDbEntity
  8
FOAM_MATTRESS
100
AcDbPolyline
 90
2
 70
0
 10
-272.0
 20
120.0
 10
-211.70666666666668
 20
120.0
  0
LWPOLYLINE
  5
5A
330
17
100
AcDbEntity
  8
FOAM_MATTRESS
100
AcDbPolyline
 90
2
 70
0
 10
-272.0
 20
120.0
 10
-340.0
 20
120.0
  0
LWPOLYLINE
  5
5B
330
17
100
AcDbEntity
  8
FOAM_MATTRESS
100
AcDbPolyline
 90
2
 70
0
 10
-340.0
 20
120.0
 10
-340.0
 20
120.0
  0
LWPOLYLINE
  5
5C
330
17
100
AcDbEntity
  8
FOAM_MATTRESS
100
AcDbPolyline
 90
2
 70
0
 10
-340.0
 20
120.0
 10
-326.40000000000003
 20
120.0
  0
LWPOLYLINE
  5
5D
330
17
100
AcDbEntity
  8
FOAM_MATTRESS
100
AcDbPolyline
 90
2
 70
0
 10
-326.40000000000003
 20
120.0
 10
-299.20000000000005
 20
120.0
  0
LWPOLYLINE
  5
5E
330
17
100
AcDbEntity
  8
FOAM_MATTRESS
100
AcDbPolyline
 90
2
 70
0
 10
-299.20000000000005
 20
120.0
 10
-210.8
 20
120.0
  0
LWPOLYLINE
  5
5F
330
17
100
AcDbEntity
  8
FOAM_MATTRESS
100
AcDbPolyline
 90
2
 70
0
 10
-210.8
 20
120.0
 10
-159.8
 20
120.0
  0
LWPOLYLINE
  5
60
330
17
100
AcDbEntity
  8
FOAM_MATTRESS
100
AcDbPolyline
 90
2
 70
0
 10
-159.8
 20
120.0
 10
159.8
 20
120.0
  0
LWPOLYLINE
  5
61
330
17
100
AcDbEntity
  8
FOAM_MATTRESS
100
AcDbPolyline
 90
2
 70
0
 10
159.8
 20
120.0
 10
210.8
 20
120.0
  0
LWPOLYLINE
  5
62
330
17
100
AcDbEntity
  8
FOAM_MATTRESS
100
AcDbPolyline
 90
2
 70
0
 10
210.8
 20
120.0
 10
299.20000000000005
 20
120.0
  0
LWPOLYLINE
  5
63
330
17
100
AcDbEntity
  8
FOAM_MATTRESS
100
AcDbPolyline
 90
2
 70
0
 10
299.20000000000005
 20
120.0
 10
326.40000000000003
 20
120.0
  0
LWPOLYLINE
  5
64
330
17
100
AcDbEntity
  8
FOAM_MATTRESS
100
AcDbPolyline
 90
2
 70
0
 10
326.40000000000003
 20
120.0
 10
340.0
 20
120.0
  0
LWPOLYLINE
  5
65
330
17
100
AcDbEntity
  8
FOAM_MATTRESS
100
AcDbPolyline
 90
2
 70
0
 10
340.0
 20
120.0
 10
340.0
 20
120.0
  0
LWPOLYLINE
  5
66
330
17
100
AcDbEntity
  8
FOAM_MATTRESS
100
AcDbPolyline
 90
2
 70
0
 10
340.0
 20
120.0
 10
272.0
 20
120.0
  0
LWPOLYLINE
  5
67
330
17
100
AcDbEntity
  8
FOAM_MATTRESS
100
AcDbPolyline
 90
2
 70
0
 10
272.0
 20
120.0
 10
211.70666666666668
 20
120.0
  0
LWPOLYLINE
  5
68
330
17
100
AcDbEntity
  8
FOAM_MATTRESS
100
AcDbPolyline
 90
2
 70
0
 10
211.70666666666668
 20
120.0
 10
-211.70666666666668
 20
120.0
  0
LWPOLYLINE
  5
69
330
17
100
AcDbEntity
  8
FOAM_MATTRESS
100
AcDbPolyline
 90
2
 70
0
 10
272.0
 20
120.0
 10
272.0
 20
24.0
  0
LWPOLYLINE
  5
6A
330
17
100
AcDbEntity
  8
FOAM_MATTRESS
100
AcDbPolyline
 90
2
 70
0
 10
211.70666666666668
 20
24.0
 10
211.70666666666668
 20
120.0
  0
LWPOLYLINE
  5
6B
330
17
100
AcDbEntity
  8
FOAM_MATTRESS
100
AcDbPolyline
 90
2
 70
0
 10
272.0
 20
24.0
 10
211.70666666666668
 20
24.0
  0
LWPOLYLINE
  5
6C
330
17
100
AcDbEntity
  8
FOAM_MATTRESS
100
AcDbPolyline
 90
2
 70
0
 10
340.0
 20
120.0
 10
340.0
 20
24.0
  0
LWPOLYLINE
  5
6D
330
17
100
AcDbEntity
  8
FOAM_MATTRESS
100
AcDbPolyline
 90
2
 70
0
 10
340.0
 20
24.0
 10
272.0
 20
24.0
  0
LWPOLYLINE
  5
6E
330
17
100
AcDbEntity
  8
FOAM_MATTRESS
100
AcDbPolyline
 90
2
 70
0
 10
340.0
 20
120.0
 10
340.0
 20
24.0
  0
LWPOLYLINE
  5
6F
330
17
100
AcDbEntity
  8
FOAM_MATTRESS
100
AcDbPolyline
 90
2
 70
0
 10
340.0
 20
24.0
 10
340.0
 20
24.0
  0
LWPOLYLINE
  5
70
330
17
100
AcDbEntity
  8
FOAM_MATTRESS
100
AcDbPolyline
 90
2
 70
0
 10
326.40000000000003
 20
120.0
 10
326.40000000000003
 20
24.0
  0
LWPOLYLINE
  5
71
330
17
100
AcDbEntity
  8
FOAM_MATTRESS
100
AcDbPolyline
 90
2
 70
0
 10
326.40000000000003
 20
24.0
 10
340.0
 20
24.0
  0
LWPOLYLINE
  5
72
330
17
100
AcDbEntity
  8
FOAM_MATTRESS
100
AcDbPolyline
 90
2
 70
0
 10
299.20000000000005
 20
120.0
 10
299.20000000000005
 20
24.0
  0
LWPOLYLINE
  5
73
330
17
100
AcDbEntity
  8
FOAM_MATTRESS
100
AcDbPolyline
 90
2
 70
0
 10
299.20000000000005
 20
24.0
 10
326.40000000000003
 20
24.0
  0
LWPOLYLINE
  5
74
330
17
100
AcDbEntity
  8
FOAM_MATTRESS
100
AcDbPolyline
 90
2
 70
0
 10
210.8
 20
120.0
 10
210.8
 20
24.0
  0
LWPOLYLINE
  5
75
330
17
100
AcDbEntity
  8
FOAM_MATTRESS
100
AcDbPolyline
 90
2
 70
0
 10
210.8
 20
24.0
 10
299.20000000000005
 20
24.0
  0
LWPOLYLINE
  5
76
330
17
100
AcDbEntity
  8
FOAM_MATTRESS
100
AcDbPolyline
 90
2
 70
0
 10
159.8
 20
120.0
 10
159.8
 20
24.0
  0
LWPOLYLINE
  5
77
330
17
100
AcDbEntity
  8
FOAM_MATTRESS
100
AcDbPolyline
 90
2
 70
0
 10
159.8
 20
24.0
 10
210.8
 20
24.0
  0
LWPOLYLINE
  5
78
330
17
100
AcDbEntity
  8
FOAM_MATTRESS
100
AcDbPolyline
 90
2
 70
0
 10
-159.8
 20
120.0
 10
-159.8
 20
24.0
  0
LWPOLYLINE
  5
79
330
17
100
AcDbEntity
  8
FOAM_MATTRESS
100
AcDbPolyline
 90
2
 70
0
 10
-159.8
 20
24.0
 10
159.8
 20
24.0
  0
LWPOLYLINE
  5
7A
330
17
100
AcDbEntity
  8
FOAM_MATTRESS
100
AcDbPolyline
 90
2
 70
0
 10
-210.8
 20
120.0
 10
-210.8
 20
24.0
  0
LWPOLYLINE
  5
7B
330
17
100
AcDbEntity
  8
FOAM_MATTRESS
100
AcDbPolyline
 90
2
 70
0
 10
-210.8
 20
24.0
 10
-159.8
 20
24.0
  0
LWPOLYLINE
  5
7C
330
17
100
AcDbEntity
  8
FOAM_MATTRESS
100
AcDbPolyline
 90
2
 70
0
 10
-299.20000000000005
 20
120.0
 10
-299.20000000000005
 20
24.0
  0
LWPOLYLINE
  5
7D
330
17
100
AcDbEntity
  8
FOAM_MATTRESS
100
AcDbPolyline
 90
2
 70
0
 10
-299.20000000000005
 20
24.0
 10
-210.8
 20
24.0
  0
LWPOLYLINE
  5
7E
330
17
100
AcDbEntity
  8
FOAM_MATTRESS
100
AcDbPolyline
 90
2
 70
0
 10
-326.40000000000003
 20
120.0
 10
-326.40000000000003
 20
24.0
  0
LWPOLYLINE
  5
7F
330
17
100
AcDbEntity
  8
FOAM_MATTRESS
100
AcDbPolyline
 90
2
 70
0
 10
-326.40000000000003
 20
24.0
 10
-299.20000000000005
 20
24.0
  0
LWPOLYLINE
  5
80
330
17
100
AcDbEntity
  8
FOAM_MATTRESS
100
AcDbPolyline
 90
2
 70
0
 10
-340.0
 20
120.0
 10
-340.0
 20
24.0
  0
LWPOLYLINE
  5
81
330
17
100
AcDbEntity
  8
FOAM_MATTRESS
100
AcDbPolyline
 90
2
 70
0
 10
-340.0
 20
24.0
 10
-326.40000000000003
 20
24.0
  0
LWPOLYLINE
  5
82
330
17
100
AcDbEntity
  8
FOAM_MATTRESS
100
AcDbPolyline
 90
2
 70
0
 10
-340.0
 20
120.0
 10
-340.0
 20
24.0
  0
LWPOLYLINE
  5
83
330
17
100
AcDbEntity
  8
FOAM_MATTRESS
100
AcDbPolyline
 90
2
 70
0
 10
-340.0
 20
24.0
 10
-340.0
 20
24.0
  0
LWPOLYLINE
  5
84
330
17
100
AcDbEntity
  8
FOAM_MATTRESS
100
AcDbPolyline
 90
2
 70
0
 10
-340.0
 20
24.0
 10
-272.0
 20
24.0
  0
LWPOLYLINE
  5
85
330
17
100
AcDbEntity
  8
FOAM_MATTRESS
100
AcDbPolyline
 90
2
 70
0
 10
-211.70666666666668
 20
24.0
 10
211.70666666666668
 20
24.0
  0
LWPOLYLINE
  5
87
330
17
100
AcDbEntity
  8
FOAM_UNDERLAY
100
AcDbPolyline
 90
2
 70
0
 10
-160.8693330549854
 20
24.0
 10
-160.8693330549854
 20
0.0
  0
LWPOLYLINE
  5
88
330
17
100
AcDbEntity
  8
FOAM_UNDERLAY
100
AcDbPolyline
 90
2
 70
0
 10
-306.41777724759123
 20
24.0
 10
-160.8693330549854
 20
24.0
  0
LWPOLYLINE
  5
89
330
17
100
AcDbEntity
  8
FOAM_UNDERLAY
100
AcDbPolyline
 90
2
 70
0
 10
-306.41777724759123
 20
0.0
 10
-306.41777724759123
 20
24.0
  0
LWPOLYLINE
  5
8A
330
17
100
AcDbEntity
  8
FOAM_UNDERLAY
100
AcDbPolyline
 90
2
 70
0
 10
-160.8693330549854
 20
0.0
 10
-306.41777724759123
 20
0.0
  0
LWPOLYLINE
  5
8B
330
17
100
AcDbEntity
  8
FOAM_UNDERLAY
100
AcDbPolyline
 90
2
 70
0
 10
-383.022221559489
 20
0.0
 10
-306.41777724759123
 20
0.0
  0
LWPOLYLINE
  5
8C
330
17
100
AcDbEntity
  8
FOAM_UNDERLAY
100
AcDbPolyline
 90
2
 70
0
 10
-383.022221559489
 20
0.0
 10
-383.022221559489
 20
0.0
  0
LWPOLYLINE
  5
8D
330
17
100
AcDbEntity
  8
FOAM_UNDERLAY
100
AcDbPolyline
 90
2
 70
0
 10
-367.7013326971094
 20
0.0
 10
-383.022221559489
 20
0.0
  0
LWPOLYLINE
  5
8E
330
17
100
AcDbEntity
  8
FOAM_UNDERLAY
100
AcDbPolyline
 90
2
 70
0
 10
-337.0595549723503
 20
0.0
 10
-367.7013326971094
 20
0.0
  0
LWPOLYLINE
  5
8F
330
17
100
AcDbEntity
  8
FOAM_UNDERLAY
100
AcDbPolyline
 90
2
 70
0
 10
-237.47377736688318
 20
0.0
 10
-337.0595549723503
 20
0.0
  0
LWPOLYLINE
  5
90
330
17
100
AcDbEntity
  8
FOAM_UNDERLAY
100
AcDbPolyline
 90
2
 70
0
 10
-122.56711089903648
 20
0.0
 10
-237.47377736688318
 20
0.0
  0
LWPOLYLINE
  5
91
330
17
100
AcDbEntity
  8
FOAM_UNDERLAY
100
AcDbPolyline
 90
2
 70
0
 10
122.56711089903648
 20
0.0
 10
-122.56711089903648
 20
0.0
  0
LWPOLYLINE
  5
92
330
17
100
AcDbEntity
  8
FOAM_UNDERLAY
100
AcDbPolyline
 90
2
 70
0
 10
237.47377736688318
 20
0.0
 10
122.56711089903648
 20
0.0
  0
LWPOLYLINE
  5
93
330
17
100
AcDbEntity
  8
FOAM_UNDERLAY
100
AcDbPolyline
 90
2
 70
0
 10
337.0595549723503
 20
0.0
 10
237.47377736688318
 20
0.0
  0
LWPOLYLINE
  5
94
330
17
100
AcDbEntity
  8
FOAM_UNDERLAY
100
AcDbPolyline
 90
2
 70
0
 10
367.7013326971094
 20
0.0
 10
337.0595549723503
 20
0.0
  0
LWPOLYLINE
  5
95
330
17
100
AcDbEntity
  8
FOAM_UNDERLAY
100
AcDbPolyline
 90
2
 70
0
 10
383.022221559489
 20
0.0
 10
367.7013326971094
 20
0.0
  0
LWPOLYLINE
  5
96
330
17
100
AcDbEntity
  8
FOAM_UNDERLAY
100
AcDbPolyline
 90
2
 70
0
 10
383.022221559489
 20
0.0
 10
383.022221559489
 20
0.0
  0
LWPOLYLINE
  5
97
330
17
100
AcDbEntity
  8
FOAM_UNDERLAY
100
AcDbPolyline
 90
2
 70
0
 10
306.41777724759123
 20
0.0
 10
383.022221559489
 20
0.0
  0
LWPOLYLINE
  5
98
330
17
100
AcDbEntity
  8
FOAM_UNDERLAY
100
AcDbPolyline
 90
2
 70
0
 10
160.8693330549854
 20
0.0
 10
306.41777724759123
 20
0.0
  0
LWPOLYLINE
  5
99
330
17
100
AcDbEntity
  8
FOAM_UNDERLAY
100
AcDbPolyline
 90
2
 70
0
 10
-160.8693330549854
 20
0.0
 10
160.8693330549854
 20
0.0
  0
LWPOLYLINE
  5
9A
330
17
100
AcDbEntity
  8
FOAM_UNDERLAY
100
AcDbPolyline
 90
2
 70
0
 10
306.41777724759123
 20
24.0
 10
306.41777724759123
 20
0.0
  0
LWPOLYLINE
  5
9B
330
17
100
AcDbEntity
  8
FOAM_UNDERLAY
100
AcDbPolyline
 90
2
 70
0
 10
160.8693330549854
 20
24.0
 10
306.41777724759123
 20
24.0
  0
LWPOLYLINE
  5
9C
330
17
100
AcDbEntity
  8
FOAM_UNDERLAY
100
AcDbPolyline
 90
2
 70
0
 10
160.8693330549854
 20
0.0
 10
160.8693330549854
 20
24.0
  0
LWPOLYLINE
  5
9D
330
17
100
AcDbEntity
  8
FOAM_UNDERLAY
100
AcDbPolyline
 90
2
 70
0
 10
383.022221559489
 20
24.0
 10
383.022221559489
 20
0.0
  0
LWPOLYLINE
  5
9E
330
17
100
AcDbEntity
  8
FOAM_UNDERLAY
100
AcDbPolyline
 90
2
 70
0
 10
306.41777724759123
 20
24.0
 10
383.022221559489
 20
24.0
  0
LWPOLYLINE
  5
9F
330
17
100
AcDbEntity
  8
FOAM_UNDERLAY
100
AcDbPolyline
 90
2
 70
0
 10
383.022221559489
 20
24.0
 10
383.022221559489
 20
0.0
  0
LWPOLYLINE
  5
A0
330
17
100
AcDbEntity
  8
FOAM_UNDERLAY
100
AcDbPolyline
 90
2
 70
0
 10
383.022221559489
 20
24.0
 10
383.022221559489
 20
24.0
  0
LWPOLYLINE
  5
A1
330
17
100
AcDbEntity
  8
FOAM_UNDERLAY
100
AcDbPolyline
 90
2
 70
0
 10
367.7013326971094
 20
24.0
 10
367.7013326971094
 20
0.0
  0
LWPOLYLINE
  5
A2
330
17
100
AcDbEntity
  8
FOAM_UNDERLAY
100
AcDbPolyline
 90
2
 70
0
 10
383.022221559489
 20
24.0
 10
367.7013326971094
 20
24.0
  0
LWPOLYLINE
  5
A3
330
17
100
AcDbEntity
  8
FOAM_UNDERLAY
100
AcDbPolyline
 90
2
 70
0
 10
337.0595549723503
 20
24.0
 10
337.0595549723503
 20
0.0
  0
LWPOLYLINE
  5
A4
330
17
100
AcDbEntity
  8
FOAM_UNDERLAY
100
AcDbPolyline
 90
2
 70
0
 10
367.7013326971094
 20
24.0
 10
337.0595549723503
 20
24.0
  0
LWPOLYLINE
  5
A5
330
17
100
AcDbEntity
  8
FOAM_UNDERLAY
100
AcDbPolyline
 90
2
 70
0
 10
237.47377736688318
 20
24.0
 10
237.47377736688318
 20
0.0
  0
LWPOLYLINE
  5
A6
330
17
100
AcDbEntity
  8
FOAM_UNDERLAY
100
AcDbPolyline
 90
2
 70
0
 10
337.0595549723503
 20
24.0
 10
237.47377736688318
 20
24.0
  0
LWPOLYLINE
  5
A7
330
17
100
AcDbEntity
  8
FOAM_UNDERLAY
100
AcDbPolyline
 90
2
 70
0
 10
122.56711089903648
 20
24.0
 10
122.56711089903648
 20
0.0
  0
LWPOLYLINE
  5
A8
330
17
100
AcDbEntity
  8
FOAM_UNDERLAY
100
AcDbPolyline
 90
2
 70
0
 10
237.47377736688318
 20
24.0
 10
122.56711089903648
 20
24.0
  0
LWPOLYLINE
  5
A9
330
17
100
AcDbEntity
  8
FOAM_UNDERLAY
100
AcDbPolyline
 90
2
 70
0
 10
-122.56711089903648
 20
24.0
 10
-122.56711089903648
 20
0.0
  0
LWPOLYLINE
  5
AA
330
17
100
AcDbEntity
  8
FOAM_UNDERLAY
100
AcDbPolyline
 90
2
 70
0
 10
122.56711089903648
 20
24.0
 10
-122.56711089903648
 20
24.0
  0
LWPOLYLINE
  5
AB
330
17
100
AcDbEntity
  8
FOAM_UNDERLAY
100
AcDbPolyline
 90
2
 70
0
 10
-237.47377736688318
 20
24.0
 10
-237.47377736688318
 20
0.0
  0
LWPOLYLINE
  5
AC
330
17
100
AcDbEntity
  8
FOAM_UNDERLAY
100
AcDbPolyline
 90
2
 70
0
 10
-122.56711089903648
 20
24.0
 10
-237.47377736688318
 20
24.0
  0
LWPOLYLINE
  5
AD
330
17
100
AcDbEntity
  8
FOAM_UNDERLAY
100
AcDbPolyline
 90
2
 70
0
 10
-337.0595549723503
 20
24.0
 10
-337.0595549723503
 20
0.0
  0
LWPOLYLINE
  5
AE
330
17
100
AcDbEntity
  8
FOAM_UNDERLAY
100
AcDbPolyline
 90
2
 70
0
 10
-237.47377736688318
 20
24.0
 10
-337.0595549723503
 20
24.0
  0
LWPOLYLINE
  5
AF
330
17
100
AcDbEntity
  8
FOAM_UNDERLAY
100
AcDbPolyline
 90
2
 70
0
 10
-367.7013326971094
 20
24.0
 10
-367.7013326971094
 20
0.0
  0
LWPOLYLINE
  5
B0
330
17
100
AcDbEntity
  8
FOAM_UNDERLAY
100
AcDbPolyline
 90
2
 70
0
 10
-337.0595549723503
 20
24.0
 10
-367.7013326971094
 20
24.0
  0
LWPOLYLINE
  5
B1
330
17
100
AcDbEntity
  8
FOAM_UNDERLAY
100
AcDbPolyline
 90
2
 70
0
 10
-383.022221559489
 20
24.0
 10
-383.022221559489
 20
0.0
  0
LWPOLYLINE
  5
B2
330
17
100
AcDbEntity
  8
FOAM_UNDERLAY
100
AcDbPolyline
 90
2
 70
0
 10
-367.7013326971094
 20
24.0
 10
-383.022221559489
 20
24.0
  0
LWPOLYLINE
  5
B3
330
17
100
AcDbEntity
  8
FOAM_UNDERLAY
100
AcDbPolyline
 90
2
 70
0
 10
-383.022221559489
 20
24.0
 10
-383.022221559489
 20
0.0
  0
LWPOLYLINE
  5
B4
330
17
100
AcDbEntity
  8
FOAM_UNDERLAY
100
AcDbPolyline
 90
2
 70
0
 10
-383.022221559489
 20
24.0
 10
-383.022221559489
 20
24.0
  0
LWPOLYLINE
  5
B5
330
17
100
AcDbEntity
  8
FOAM_UNDERLAY
100
AcDbPolyline
 90
2
 70
0
 10
-383.022221559489
 20
24.0
 10
-306.41777724759123
 20
24.0
  0
LWPOLYLINE
  5
B6
330
17
100
AcDbEntity
  8
FOAM_UNDERLAY
100
AcDbPolyline
 90
2
 70
0
 10
160.8693330549854
 20
24.0
 10
-160.8693330549854
 20
24.0
  0
LWPOLYLINE
  5
B8
330
17
100
AcDbEntity
  8
FOAM_BACK_WEDGE
100
AcDbPolyline
 90
2
 70
0
 10
-280.0
 20
120.0
 10
280.0
 20
120.0
  0
LWPOLYLINE
  5
B9
330
17
100
AcDbEntity
  8
FOAM_BACK_WEDGE
100
AcDbPolyline
 90
2
 70
0
 10
280.0
 20
120.0
 10
-280.0
 20
120.0
  0
LWPOLYLINE
  5
BA
330
17
100
AcDbEntity
  8
FOAM_BACK_WEDGE
100
AcDbPolyline
 90
2
 70
0
 10
280.0
 20
120.0
 10
280.0
 20
120.0
  0
LWPOLYLINE
  5
BB
330
17
100
AcDbEntity
  8
FOAM_BACK_WEDGE
100
AcDbPolyline
 90
2
 70
0
 10
-280.0
 20
120.0
 10
-280.0
 20
120.0
  0
LWPOLYLINE
  5
BC
330
17
100
AcDbEntity
  8
FOAM_BACK_WEDGE
100
AcDbPolyline
 90
2
 70
0
 10
280.0
 20
720.0
 10
-280.0
 20
720.0
  0
LWPOLYLINE
  5
BD
330
17
100
AcDbEntity
  8
FOAM_BACK_WEDGE
100
AcDbPolyline
 90
2
 70
0
 10
280.0
 20
120.0
 10
280.0
 20
720.0
  0
LWPOLYLINE
  5
BE
330
17
100
AcDbEntity
  8
FOAM_BACK_WEDGE
100
AcDbPolyline
 90
2
 70
0
 10
-280.0
 20
720.0
 10
-280.0
 20
120.0
  0
LWPOLYLINE
  5
BF
330
17
100
AcDbEntity
  8
FOAM_BACK_WEDGE
100
AcDbPolyline
 90
2
 70
0
 10
280.0
 20
720.0
 10
280.0
 20
120.0
  0
LWPOLYLINE
  5
C0
330
17
100
AcDbEntity
  8
FOAM_BACK_WEDGE
100
AcDbPolyline
 90
2
 70
0
 10
-280.0
 20
120.0
 10
-280.0
 20
720.0
  0
LWPOLYLINE
  5
C2
330
17
100
AcDbEntity
  8
FOAM_ARM_L
100
AcDbPolyline
 90
2
 70
0
 10
-410.0
 20
120.0
 10
-410.0
 20
410.0
  0
LWPOLYLINE
  5
C3
330
17
100
AcDbEntity
  8
FOAM_ARM_L
100
AcDbPolyline
 90
2
 70
0
 10
-410.0
 20
410.0
 10
-300.0
 20
410.0
  0
LWPOLYLINE
  5
C4
330
17
100
AcDbEntity
  8
FOAM_ARM_L
100
AcDbPolyline
 90
2
 70
0
 10
-300.0
 20
410.0
 10
-300.0
 20
120.0
  0
LWPOLYLINE
  5
C5
330
17
100
AcDbEntity
  8
FOAM_ARM_L
100
AcDbPolyline
 90
2
 70
0
 10
-300.0
 20
120.0
 10
-410.0
 20
120.0
  0
LWPOLYLINE
  5
C6
330
17
100
AcDbEntity
  8
FOAM_ARM_L
100
AcDbPolyline
 90
2
 70
0
 10
-410.0
 20
410.0
 10
-410.0
 20
120.0
  0
LWPOLYLINE
  5
C7
330
17
100
AcDbEntity
  8
FOAM_ARM_L
100
AcDbPolyline
 90
2
 70
0
 10
-300.0
 20
410.0
 10
-410.0
 20
410.0
  0
LWPOLYLINE
  5
C8
330
17
100
AcDbEntity
  8
FOAM_ARM_L
100
AcDbPolyline
 90
2
 70
0
 10
-300.0
 20
120.0
 10
-300.0
 20
410.0
  0
LWPOLYLINE
  5
C9
330
17
100
AcDbEntity
  8
FOAM_ARM_L
100
AcDbPolyline
 90
2
 70
0
 10
-410.0
 20
120.0
 10
-300.0
 20
120.0
  0
LWPOLYLINE
  5
CA
330
17
100
AcDbEntity
  8
FOAM_ARM_L
100
AcDbPolyline
 90
2
 70
0
 10
-410.0
 20
120.0
 10
-410.0
 20
120.0
  0
LWPOLYLINE
  5
CB
330
17
100
AcDbEntity
  8
FOAM_ARM_L
100
AcDbPolyline
 90
2
 70
0
 10
-410.0
 20
410.0
 10
-410.0
 20
410.0
  0
LWPOLYLINE
  5
CC
330
17
100
AcDbEntity
  8
FOAM_ARM_L
100
AcDbPolyline
 90
2
 70
0
 10
-300.0
 20
120.0
 10
-300.0
 20
120.0
  0
LWPOLYLINE
  5
CD
330
17
100
AcDbEntity
  8
FOAM_ARM_L
100
AcDbPolyline
 90
2
 70
0
 10
-300.0
 20
410.0
 10
-300.0
 20
410.0
  0
LWPOLYLINE
  5
CF
330
17
100
AcDbEntity
  8
FOAM_ARM_R
100
AcDbPolyline
 90
2
 70
0
 10
300.0
 20
120.0
 10
300.0
 20
410.0
  0
LWPOLYLINE
  5
D0
330
17
100
AcDbEntity
  8
FOAM_ARM_R
100
AcDbPolyline
 90
2
 70
0
 10
300.0
 20
410.0
 10
410.0
 20
410.0
  0
LWPOLYLINE
  5
D1
330
17
100
AcDbEntity
  8
FOAM_ARM_R
100
AcDbPolyline
 90
2
 70
0
 10
410.0
 20
410.0
 10
410.0
 20
120.0
  0
LWPOLYLINE
  5
D2
330
17
100
AcDbEntity
  8
FOAM_ARM_R
100
AcDbPolyline
 90
2
 70
0
 10
410.0
 20
120.0
 10
300.0
 20
120.0
  0
LWPOLYLINE
  5
D3
330
17
100
AcDbEntity
  8
FOAM_ARM_R
100
AcDbPolyline
 90
2
 70
0
 10
300.0
 20
410.0
 10
300.0
 20
120.0
  0
LWPOLYLINE
  5
D4
330
17
100
AcDbEntity
  8
FOAM_ARM_R
100
AcDbPolyline
 90
2
 70
0
 10
410.0
 20
410.0
 10
300.0
 20
410.0
  0
LWPOLYLINE
  5
D5
330
17
100
AcDbEntity
  8
FOAM_ARM_R
100
AcDbPolyline
 90
2
 70
0
 10
410.0
 20
120.0
 10
410.0
 20
410.0
  0
LWPOLYLINE
  5
D6
330
17
100
AcDbEntity
  8
FOAM_ARM_R
100
AcDbPolyline
 90
2
 70
0
 10
300.0
 20
120.0
 10
410.0
 20
120.0
  0
LWPOLYLINE
  5
D7
330
17
100
AcDbEntity
  8
FOAM_ARM_R
100
AcDbPolyline
 90
2
 70
0
 10
300.0
 20
120.0
 10
300.0
 20
120.0
  0
LWPOLYLINE
  5
D8
330
17
100
AcDbEntity
  8
FOAM_ARM_R
100
AcDbPolyline
 90
2
 70
0
 10
300.0
 20
410.0
 10
300.0
 20
410.0
  0
LWPOLYLINE
  5
D9
330
17
100
AcDbEntity
  8
FOAM_ARM_R
100
AcDbPolyline
 90
2
 70
0
 10
410.0
 20
120.0
 10
410.0
 20
120.0
  0
LWPOLYLINE
  5
DA
330
17
100
AcDbEntity
  8
FOAM_ARM_R
100
AcDbPolyline
 90
2
 70
0
 10
410.0
 20
410.0
 10
410.0
 20
410.0
  0
LWPOLYLINE
  5
DC
330
17
100
AcDbEntity
  8
D20
100
AcDbPolyline
 90
2
 70
0
 10
-300.0
 20
410.0
 10
-300.0
 20
422.0
  0
LWPOLYLINE
  5
DD
330
17
100
AcDbEntity
  8
D20
100
AcDbPolyline
 90
2
 70
0
 10
-300.0
 20
422.0
 10
300.0
 20
422.0
  0
LWPOLYLINE
  5
DE
330
17
100
AcDbEntity
  8
D20
100
AcDbPolyline
 90
2
 70
0
 10
300.0
 20
422.0
 10
300.0
 20
410.0
  0
LWPOLYLINE
  5
DF
330
17
100
AcDbEntity
  8
D20
100
AcDbPolyline
 90
2
 70
0
 10
300.0
 20
410.0
 10
-300.0
 20
410.0
  0
LWPOLYLINE
  5
E0
330
17
100
AcDbEntity
  8
D20
100
AcDbPolyline
 90
2
 70
0
 10
-360.0
 20
410.0
 10
-360.0
 20
422.0
  0
LWPOLYLINE
  5
E1
330
17
100
AcDbEntity
  8
D20
100
AcDbPolyline
 90
2
 70
0
 10
-360.0
 20
422.0
 10
-300.0
 20
422.0
  0
LWPOLYLINE
  5
E2
330
17
100
AcDbEntity
  8
D20
100
AcDbPolyline
 90
2
 70
0
 10
-300.0
 20
410.0
 10
-360.0
 20
410.0
  0
LWPOLYLINE
  5
E3
330
17
100
AcDbEntity
  8
D20
100
AcDbPolyline
 90
2
 70
0
 10
300.0
 20
422.0
 10
300.0
 20
422.0
  0
LWPOLYLINE
  5
E4
330
17
100
AcDbEntity
  8
D20
100
AcDbPolyline
 90
2
 70
0
 10
-300.0
 20
422.0
 10
-300.0
 20
422.0
  0
LWPOLYLINE
  5
E5
330
17
100
AcDbEntity
  8
D20
100
AcDbPolyline
 90
2
 70
0
 10
-300.0
 20
422.0
 10
300.0
 20
422.0
  0
LWPOLYLINE
  5
E6
330
17
100
AcDbEntity
  8
D20
100
AcDbPolyline
 90
2
 70
0
 10
-234.0
 20
422.0
 10
-234.0
 20
422.0
  0
LWPOLYLINE
  5
E7
330
17
100
AcDbEntity
  8
D20
100
AcDbPolyline
 90
2
 70
0
 10
-206.0
 20
422.0
 10
-234.0
 20
422.0
  0
LWPOLYLINE
  5
E8
330
17
100
AcDbEntity
  8
D20
100
AcDbPolyline
 90
2
 70
0
 10
-234.0
 20
422.0
 10
-206.0
 20
422.0
  0
LWPOLYLINE
  5
E9
330
17
100
AcDbEntity
  8
D20
100
AcDbPolyline
 90
2
 70
0
 10
-206.0
 20
422.0
 10
-206.0
 20
422.0
  0
LWPOLYLINE
  5
EA
330
17
100
AcDbEntity
  8
D20
100
AcDbPolyline
 90
2
 70
0
 10
-184.0
 20
422.0
 10
-184.0
 20
422.0
  0
LWPOLYLINE
  5
EB
330
17
100
AcDbEntity
  8
D20
100
AcDbPolyline
 90
2
 70
0
 10
-156.0
 20
422.0
 10
-184.0
 20
422.0
  0
LWPOLYLINE
  5
EC
330
17
100
AcDbEntity
  8
D20
100
AcDbPolyline
 90
2
 70
0
 10
-184.0
 20
422.0
 10
-156.0
 20
422.0
  0
LWPOLYLINE
  5
ED
330
17
100
AcDbEntity
  8
D20
100
AcDbPolyline
 90
2
 70
0
 10
-156.0
 20
422.0
 10
-156.0
 20
422.0
  0
LWPOLYLINE
  5
EE
330
17
100
AcDbEntity
  8
D20
100
AcDbPolyline
 90
2
 70
0
 10
156.0
 20
422.0
 10
156.0
 20
422.0
  0
LWPOLYLINE
  5
EF
330
17
100
AcDbEntity
  8
D20
100
AcDbPolyline
 90
2
 70
0
 10
184.0
 20
422.0
 10
156.0
 20
422.0
  0
LWPOLYLINE
  5
F0
330
17
100
AcDbEntity
  8
D20
100
AcDbPolyline
 90
2
 70
0
 10
156.0
 20
422.0
 10
184.0
 20
422.0
  0
LWPOLYLINE
  5
F1
330
17
100
AcDbEntity
  8
D20
100
AcDbPolyline
 90
2
 70
0
 10
184.0
 20
422.0
 10
184.0
 20
422.0
  0
LWPOLYLINE
  5
F2
330
17
100
AcDbEntity
  8
D20
100
AcDbPolyline
 90
2
 70
0
 10
206.0
 20
422.0
 10
206.0
 20
422.0
  0
LWPOLYLINE
  5
F3
330
17
100
AcDbEntity
  8
D20
100
AcDbPolyline
 90
2
 70
0
 10
234.0
 20
422.0
 10
206.0
 20
422.0
  0
LWPOLYLINE
  5
F4
330
17
100
AcDbEntity
  8
D20
100
AcDbPolyline
 90
2
 70
0
 10
234.0
 20
422.0
 10
234.0
 20
422.0
  0
LWPOLYLINE
  5
F5
330
17
100
AcDbEntity
  8
D20
100
AcDbPolyline
 90
2
 70
0
 10
206.0
 20
422.0
 10
234.0
 20
422.0
  0
LWPOLYLINE
  5
F6
330
17
100
AcDbEntity
  8
D20
100
AcDbPolyline
 90
2
 70
0
 10
300.0
 20
422.0
 10
360.0
 20
422.0
  0
LWPOLYLINE
  5
F7
330
17
100
AcDbEntity
  8
D20
100
AcDbPolyline
 90
2
 70
0
 10
360.0
 20
422.0
 10
360.0
 20
410.0
  0
LWPOLYLINE
  5
F8
330
17
100
AcDbEntity
  8
D20
100
AcDbPolyline
 90
2
 70
0
 10
360.0
 20
410.0
 10
300.0
 20
410.0
  0
LWPOLYLINE
  5
F9
330
17
100
AcDbEntity
  8
D20
100
AcDbPolyline
 90
2
 70
0
 10
300.0
 20
410.0
 10
300.0
 20
410.0
  0
LWPOLYLINE
  5
FA
330
17
100
AcDbEntity
  8
D20
100
AcDbPolyline
 90
2
 70
0
 10
-300.0
 20
410.0
 10
-300.0
 20
410.0
  0
LWPOLYLINE
  5
FB
330
17
100
AcDbEntity
  8
D20
100
AcDbPolyline
 90
2
 70
0
 10
300.0
 20
410.0
 10
-300.0
 20
410.0
  0
LWPOLYLINE
  5
FC
330
17
100
AcDbEntity
  8
D20
100
AcDbPolyline
 90
2
 70
0
 10
-234.0
 20
410.0
 10
-234.0
 20
410.0
  0
LWPOLYLINE
  5
FD
330
17
100
AcDbEntity
  8
D20
100
AcDbPolyline
 90
2
 70
0
 10
-234.0
 20
410.0
 10
-206.0
 20
410.0
  0
LWPOLYLINE
  5
FE
330
17
100
AcDbEntity
  8
D20
100
AcDbPolyline
 90
2
 70
0
 10
-206.0
 20
410.0
 10
-234.0
 20
410.0
  0
LWPOLYLINE
  5
FF
330
17
100
AcDbEntity
  8
D20
100
AcDbPolyline
 90
2
 70
0
 10
-206.0
 20
410.0
 10
-206.0
 20
410.0
  0
LWPOLYLINE
  5
100
330
17
100
AcDbEntity
  8
D20
100
AcDbPolyline
 90
2
 70
0
 10
-184.0
 20
410.0
 10
-184.0
 20
410.0
  0
LWPOLYLINE
  5
101
330
17
100
AcDbEntity
  8
D20
100
AcDbPolyline
 90
2
 70
0
 10
-184.0
 20
410.0
 10
-156.0
 20
410.0
  0
LWPOLYLINE
  5
102
330
17
100
AcDbEntity
  8
D20
100
AcDbPolyline
 90
2
 70
0
 10
-156.0
 20
410.0
 10
-184.0
 20
410.0
  0
LWPOLYLINE
  5
103
330
17
100
AcDbEntity
  8
D20
100
AcDbPolyline
 90
2
 70
0
 10
-156.0
 20
410.0
 10
-156.0
 20
410.0
  0
LWPOLYLINE
  5
104
330
17
100
AcDbEntity
  8
D20
100
AcDbPolyline
 90
2
 70
0
 10
156.0
 20
410.0
 10
156.0
 20
410.0
  0
LWPOLYLINE
  5
105
330
17
100
AcDbEntity
  8
D20
100
AcDbPolyline
 90
2
 70
0
 10
156.0
 20
410.0
 10
184.0
 20
410.0
  0
LWPOLYLINE
  5
106
330
17
100
AcDbEntity
  8
D20
100
AcDbPolyline
 90
2
 70
0
 10
184.0
 20
410.0
 10
156.0
 20
410.0
  0
LWPOLYLINE
  5
107
330
17
100
AcDbEntity
  8
D20
100
AcDbPolyline
 90
2
 70
0
 10
184.0
 20
410.0
 10
184.0
 20
410.0
  0
LWPOLYLINE
  5
108
330
17
100
AcDbEntity
  8
D20
100
AcDbPolyline
 90
2
 70
0
 10
206.0
 20
410.0
 10
206.0
 20
410.0
  0
LWPOLYLINE
  5
109
330
17
100
AcDbEntity
  8
D20
100
AcDbPolyline
 90
2
 70
0
 10
206.0
 20
410.0
 10
234.0
 20
410.0
  0
LWPOLYLINE
  5
10A
330
17
100
AcDbEntity
  8
D20
100
AcDbPolyline
 90
2
 70
0
 10
234.0
 20
410.0
 10
234.0
 20
410.0
  0
LWPOLYLINE
  5
10B
330
17
100
AcDbEntity
  8
D20
100
AcDbPolyline
 90
2
 70
0
 10
234.0
 20
410.0
 10
206.0
 20
410.0
  0
LWPOLYLINE
  5
10C
330
17
100
AcDbEntity
  8
D20
100
AcDbPolyline
 90
2
 70
0
 10
-360.0
 20
410.0
 10
-360.0
 20
410.0
  0
LWPOLYLINE
  5
10D
330
17
100
AcDbEntity
  8
D20
100
AcDbPolyline
 90
2
 70
0
 10
-360.0
 20
410.0
 10
-360.0
 20
422.0
  0
LWPOLYLINE
  5
10E
330
17
100
AcDbEntity
  8
D20
100
AcDbPolyline
 90
2
 70
0
 10
-360.0
 20
422.0
 10
-360.0
 20
422.0
  0
LWPOLYLINE
  5
10F
330
17
100
AcDbEntity
  8
D20
100
AcDbPolyline
 90
2
 70
0
 10
-360.0
 20
422.0
 10
-300.0
 20
422.0
  0
LWPOLYLINE
  5
110
330
17
100
AcDbEntity
  8
D20
100
AcDbPolyline
 90
2
 70
0
 10
-300.0
 20
410.0
 10
-360.0
 20
410.0
  0
LWPOLYLINE
  5
111
330
17
100
AcDbEntity
  8
D20
100
AcDbPolyline
 90
2
 70
0
 10
360.0
 20
422.0
 10
360.0
 20
422.0
  0
LWPOLYLINE
  5
112
330
17
100
AcDbEntity
  8
D20
100
AcDbPolyline
 90
2
 70
0
 10
300.0
 20
422.0
 10
360.0
 20
422.0
  0
LWPOLYLINE
  5
113
330
17
100
AcDbEntity
  8
D20
100
AcDbPolyline
 90
2
 70
0
 10
-300.0
 20
422.0
 10
-300.0
 20
410.0
  0
LWPOLYLINE
  5
114
330
17
100
AcDbEntity
  8
D20
100
AcDbPolyline
 90
2
 70
0
 10
300.0
 20
410.0
 10
300.0
 20
422.0
  0
LWPOLYLINE
  5
115
330
17
100
AcDbEntity
  8
D20
100
AcDbPolyline
 90
2
 70
0
 10
-234.0
 20
422.0
 10
-234.0
 20
410.0
  0
LWPOLYLINE
  5
116
330
17
100
AcDbEntity
  8
D20
100
AcDbPolyline
 90
2
 70
0
 10
-234.0
 20
410.0
 10
-234.0
 20
422.0
  0
LWPOLYLINE
  5
117
330
17
100
AcDbEntity
  8
D20
100
AcDbPolyline
 90
2
 70
0
 10
-206.0
 20
422.0
 10
-206.0
 20
410.0
  0
LWPOLYLINE
  5
118
330
17
100
AcDbEntity
  8
D20
100
AcDbPolyline
 90
2
 70
0
 10
-206.0
 20
410.0
 10
-206.0
 20
422.0
  0
LWPOLYLINE
  5
119
330
17
100
AcDbEntity
  8
D20
100
AcDbPolyline
 90
2
 70
0
 10
-184.0
 20
422.0
 10
-184.0
 20
410.0
  0
LWPOLYLINE
  5
11A
330
17
100
AcDbEntity
  8
D20
100
AcDbPolyline
 90
2
 70
0
 10
-184.0
 20
410.0
 10
-184.0
 20
422.0
  0
LWPOLYLINE
  5
11B
330
17
100
AcDbEntity
  8
D20
100
AcDbPolyline
 90
2
 70
0
 10
-156.0
 20
422.0
 10
-156.0
 20
410.0
  0
LWPOLYLINE
  5
11C
330
17
100
AcDbEntity
  8
D20
100
AcDbPolyline
 90
2
 70
0
 10
-156.0
 20
410.0
 10
-156.0
 20
422.0
  0
LWPOLYLINE
  5
11D
330
17
100
AcDbEntity
  8
D20
100
AcDbPolyline
 90
2
 70
0
 10
156.0
 20
422.0
 10
156.0
 20
410.0
  0
LWPOLYLINE
  5
11E
330
17
100
AcDbEntity
  8
D20
100
AcDbPolyline
 90
2
 70
0
 10
156.0
 20
410.0
 10
156.0
 20
422.0
  0
LWPOLYLINE
  5
11F
330
17
100
AcDbEntity
  8
D20
100
AcDbPolyline
 90
2
 70
0
 10
184.0
 20
422.0
 10
184.0
 20
410.0
  0
LWPOLYLINE
  5
120
330
17
100
AcDbEntity
  8
D20
100
AcDbPolyline
 90
2
 70
0
 10
184.0
 20
410.0
 10
184.0
 20
422.0
  0
LWPOLYLINE
  5
121
330
17
100
AcDbEntity
  8
D20
100
AcDbPolyline
 90
2
 70
0
 10
206.0
 20
422.0
 10
206.0
 20
410.0
  0
LWPOLYLINE
  5
122
330
17
100
AcDbEntity
  8
D20
100
AcDbPolyline
 90
2
 70
0
 10
206.0
 20
410.0
 10
206.0
 20
422.0
  0
LWPOLYLINE
  5
123
330
17
100
AcDbEntity
  8
D20
100
AcDbPolyline
 90
2
 70
0
 10
234.0
 20
422.0
 10
234.0
 20
410.0
  0
LWPOLYLINE
  5
124
330
17
100
AcDbEntity
  8
D20
100
AcDbPolyline
 90
2
 70
0
 10
234.0
 20
422.0
 10
234.0
 20
410.0
  0
LWPOLYLINE
  5
125
330
17
100
AcDbEntity
  8
D20
100
AcDbPolyline
 90
2
 70
0
 10
360.0
 20
410.0
 10
360.0
 20
410.0
  0
LWPOLYLINE
  5
126
330
17
100
AcDbEntity
  8
D20
100
AcDbPolyline
 90
2
 70
0
 10
360.0
 20
422.0
 10
360.0
 20
410.0
  0
LWPOLYLINE
  5
127
330
17
100
AcDbEntity
  8
D20
100
AcDbPolyline
 90
2
 70
0
 10
360.0
 20
410.0
 10
300.0
 20
410.0
  0
LWPOLYLINE
  5
129
330
17
100
AcDbEntity
  8
D21
100
AcDbPolyline
 90
2
 70
0
 10
-195.0
 20
438.0
 10
-195.0
 20
456.0
  0
LWPOLYLINE
  5
12A
330
17
100
AcDbEntity
  8
D21
100
AcDbPolyline
 90
2
 70
0
 10
-195.0
 20
456.0
 10
195.0
 20
456.0
  0
LWPOLYLINE
  5
12B
330
17
100
AcDbEntity
  8
D21
100
AcDbPolyline
 90
2
 70
0
 10
195.0
 20
456.0
 10
195.0
 20
438.0
  0
LWPOLYLINE
  5
12C
330
17
100
AcDbEntity
  8
D21
100
AcDbPolyline
 90
2
 70
0
 10
195.0
 20
438.0
 10
-195.0
 20
438.0
  0
LWPOLYLINE
  5
12D
330
17
100
AcDbEntity
  8
D21
100
AcDbPolyline
 90
2
 70
0
 10
-195.0
 20
456.0
 10
-195.0
 20
438.0
  0
LWPOLYLINE
  5
12E
330
17
100
AcDbEntity
  8
D21
100
AcDbPolyline
 90
2
 70
0
 10
195.0
 20
456.0
 10
-195.0
 20
456.0
  0
LWPOLYLINE
  5
12F
330
17
100
AcDbEntity
  8
D21
100
AcDbPolyline
 90
2
 70
0
 10
195.0
 20
438.0
 10
195.0
 20
456.0
  0
LWPOLYLINE
  5
130
330
17
100
AcDbEntity
  8
D21
100
AcDbPolyline
 90
2
 70
0
 10
-195.0
 20
438.0
 10
195.0
 20
438.0
  0
LWPOLYLINE
  5
131
330
17
100
AcDbEntity
  8
D21
100
AcDbPolyline
 90
2
 70
0
 10
-195.0
 20
438.0
 10
-195.0
 20
438.0
  0
LWPOLYLINE
  5
132
330
17
100
AcDbEntity
  8
D21
100
AcDbPolyline
 90
2
 70
0
 10
-195.0
 20
456.0
 10
-195.0
 20
456.0
  0
LWPOLYLINE
  5
133
330
17
100
AcDbEntity
  8
D21
100
AcDbPolyline
 90
2
 70
0
 10
195.0
 20
438.0
 10
195.0
 20
438.0
  0
LWPOLYLINE
  5
134
330
17
100
AcDbEntity
  8
D21
100
AcDbPolyline
 90
2
 70
0
 10
195.0
 20
456.0
 10
195.0
 20
456.0
  0
LWPOLYLINE
  5
136
330
17
100
AcDbEntity
  8
D22
100
AcDbPolyline
 90
2
 70
0
 10
-195.0
 20
454.7525298550935
 10
-195.0
 20
689.507954031207
  0
LWPOLYLINE
  5
137
330
17
100
AcDbEntity
  8
D22
100
AcDbPolyline
 90
2
 70
0
 10
-195.0
 20
689.507954031207
 10
195.0
 20
689.507954031207
  0
LWPOLYLINE
  5
138
330
17
100
AcDbEntity
  8
D22
100
AcDbPolyline
 90
2
 70
0
 10
195.0
 20
689.507954031207
 10
195.0
 20
454.7525298550935
  0
LWPOLYLINE
  5
139
330
17
100
AcDbEntity
  8
D22
100
AcDbPolyline
 90
2
 70
0
 10
195.0
 20
454.7525298550935
 10
-195.0
 20
454.7525298550935
  0
LWPOLYLINE
  5
13A
330
17
100
AcDbEntity
  8
D22
100
AcDbPolyline
 90
2
 70
0
 10
-195.0
 20
692.00289432102
 10
-195.0
 20
457.24747014490663
  0
LWPOLYLINE
  5
13B
330
17
100
AcDbEntity
  8
D22
100
AcDbPolyline
 90
2
 70
0
 10
195.0
 20
692.00289432102
 10
-195.0
 20
692.00289432102
  0
LWPOLYLINE
  5
13C
330
17
100
AcDbEntity
  8
D22
100
AcDbPolyline
 90
2
 70
0
 10
195.0
 20
457.24747014490663
 10
195.0
 20
692.00289432102
  0
LWPOLYLINE
  5
13D
330
17
100
AcDbEntity
  8
D22
100
AcDbPolyline
 90
2
 70
0
 10
-195.0
 20
457.24747014490663
 10
195.0
 20
457.24747014490663
  0
LWPOLYLINE
  5
13E
330
17
100
AcDbEntity
  8
D22
100
AcDbPolyline
 90
2
 70
0
 10
-195.0
 20
454.7525298550935
 10
-195.0
 20
457.24747014490663
  0
LWPOLYLINE
  5
13F
330
17
100
AcDbEntity
  8
D22
100
AcDbPolyline
 90
2
 70
0
 10
-195.0
 20
692.00289432102
 10
-195.0
 20
689.507954031207
  0
LWPOLYLINE
  5
140
330
17
100
AcDbEntity
  8
D22
100
AcDbPolyline
 90
2
 70
0
 10
195.0
 20
457.24747014490663
 10
195.0
 20
454.7525298550935
  0
LWPOLYLINE
  5
141
330
17
100
AcDbEntity
  8
D22
100
AcDbPolyline
 90
2
 70
0
 10
195.0
 20
689.507954031207
 10
195.0
 20
692.00289432102
  0
LWPOLYLINE
  5
143
330
17
100
AcDbEntity
  8
H01
100
AcDbPolyline
 90
50
 70
1
 10
-345.0
 20
441.0
 10
-342.04847717396456
 20
460.57892883300775
 10
-333.24441006972853
 20
479.82285676537816
 10
-318.73843871639394
 20
498.40251485476347
 10
-298.77876430563134
 20
516.0
 10
-273.7069024004761
 20
532.3142143513081
 10
-243.95183950935888
 20
547.0660171779821
 10
-210.02269300800862
 20
560.0030010436852
 10
-172.50000000000009
 20
570.9038105676658
 10
-132.02578416595597
 20
579.581929876693
 10
-89.2925705603697
 20
585.8888739433603
 10
-45.031536315917805
 20
589.7167292060716
 10
2.112515728529184e-14
 20
591.0
 10
45.03153631591776
 20
589.7167292060716
 10
89.29257056036965
 20
585.8888739433603
 10
132.0257841659559
 20
579.581929876693
 10
172.49999999999997
 20
570.9038105676658
 10
210.02269300800856
 20
560.0030010436853
 10
243.9518395093589
 20
547.0660171779821
 10
273.7069024004761
 20
532.3142143513081
 10
298.7787643056313
 20
516.0
 10
318.73843871639394
 20
498.40251485476347
 10
333.24441006972853
 20
479.8228567653781
 10
342.04847717396456
 20
460.5789288330078
 10
345.0
 20
441.0
 10
345.0
 20
441.0
 10
342.04847717396456
 20
460.5789288330078
 10
333.24441006972853
 20
479.8228567653781
 10
318.73843871639394
 20
498.40251485476347
 10
298.7787643056313
 20
516.0
 10
273.7069024004761
 20
532.3142143513081
 10
243.9518395093589
 20
547.0660171779821
 10
210.02269300800856
 20
560.0030010436853
 10
172.49999999999997
 20
570.9038105676658
 10
132.0257841659559
 20
579.581929876693
 10
89.29257056036965
 20
585.8888739433603
 10
45.03153631591776
 20
589.7167292060716
 10
2.112515728529184e-14
 20
591.0
 10
-45.031536315917805
 20
589.7167292060716
 10
-89.2925705603697
 20
585.8888739433603
 10
-132.02578416595597
 20
579.581929876693
 10
-172.50000000000009
 20
570.9038105676658
 10
-210.02269300800862
 20
560.0030010436852
 10
-243.95183950935888
 20
547.0660171779821
 10
-273.7069024004761
 20
532.3142143513081
 10
-298.77876430563134
 20
516.0
 10
-318.73843871639394
 20
498.40251485476347
 10
-333.24441006972853
 20
479.82285676537816
 10
-342.04847717396456
 20
460.57892883300775
 10
-345.0
 20
441.0
  0
LWPOLYLINE
  5
145
330
17
100
AcDbEntity
  8
H02
100
AcDbPolyline
 90
50
 70
1
 10
-336.375
 20
433.0
 10
-333.49726524461545
 20
452.57892883300775
 10
-324.9132998179853
 20
471.82285676537816
 10
-310.7699777484841
 20
490.40251485476347
 10
-291.30929519799054
 20
508.0
 10
-266.8642298404642
 20
524.3142143513081
 10
-237.8530435216249
 20
539.0660171779821
 10
-204.7721256828084
 20
552.0030010436852
 10
-168.18750000000009
 20
562.9038105676658
 10
-128.72513956180705
 20
571.581929876693
 10
-87.06025629636045
 20
577.8888739433603
 10
-43.90574790801986
 20
581.7167292060716
 10
2.0597028353159545e-14
 20
583.0
 10
43.90574790801982
 20
581.7167292060716
 10
87.06025629636041
 20
577.8888739433603
 10
128.725139561807
 20
571.581929876693
 10
168.18749999999997
 20
562.9038105676658
 10
204.77212568280834
 20
552.0030010436853
 10
237.85304352162493
 20
539.0660171779821
 10
266.8642298404642
 20
524.3142143513081
 10
291.3092951979905
 20
508.0
 10
310.7699777484841
 20
490.40251485476347
 10
324.9132998179853
 20
471.8228567653781
 10
333.49726524461545
 20
452.5789288330078
 10
336.375
 20
433.0
 10
336.375
 20
433.0
 10
333.49726524461545
 20
452.5789288330078
 10
324.9132998179853
 20
471.8228567653781
 10
310.7699777484841
 20
490.40251485476347
 10
291.3092951979905
 20
508.0
 10
266.8642298404642
 20
524.3142143513081
 10
237.85304352162493
 20
539.0660171779821
 10
204.77212568280834
 20
552.0030010436853
 10
168.18749999999997
 20
562.9038105676658
 10
128.725139561807
 20
571.581929876693
 10
87.06025629636041
 20
577.8888739433603
 10
43.90574790801982
 20
581.7167292060716
 10
2.0597028353159545e-14
 20
583.0
 10
-43.90574790801986
 20
581.7167292060716
 10
-87.06025629636045
 20
577.8888739433603
 10
-128.72513956180705
 20
571.581929876693
 10
-168.18750000000009
 20
562.9038105676658
 10
-204.7721256828084
 20
552.0030010436852
 10
-237.8530435216249
 20
539.0660171779821
 10
-266.8642298404642
 20
524.3142143513081
 10
-291.30929519799054
 20
508.0
 10
-310.7699777484841
 20
490.40251485476347
 10
-324.9132998179853
 20
471.82285676537816
 10
-333.49726524461545
 20
452.57892883300775
 10
-336.375
 20
433.0
  0
LWPOLYLINE
  5
147
330
17
100
AcDbEntity
  8
EH0
100
AcDbPolyline
 90
2
 70
0
 10
-350.0
 20
691.6819585778371
 10
-350.0
 20
417.47458501015876
  0
LWPOLYLINE
  5
148
330
17
100
AcDbEntity
  8
EH0
100
AcDbPolyline
 90
2
 70
0
 10
-350.0
 20
417.47458501015876
 10
-347.00570148083364
 20
709.8139566300305
  0
LWPOLYLINE
  5
149
330
17
100
AcDbEntity
  8
EH0
100
AcDbPolyline
 90
2
 70
0
 10
-347.00570148083364
 20
709.8139566300305
 10
-350.0
 20
691.6819585778371
  0
LWPOLYLINE
  5
14A
330
17
100
AcDbEntity
  8
EH0
100
AcDbPolyline
 90
2
 70
0
 10
-350.0
 20
417.47458501015876
 10
-347.00570148083364
 20
435.60658306235206
  0
LWPOLYLINE
  5
14B
330
17
100
AcDbEntity
  8
EH0
100
AcDbPolyline
 90
2
 70
0
 10
-347.00570148083364
 20
435.60658306235206
 10
-347.00570148083364
 20
709.8139566300305
  0
LWPOLYLINE
  5
14C
330
17
100
AcDbEntity
  8
EH0
100
AcDbPolyline
 90
2
 70
0
 10
-347.00570148083364
 20
435.60658306235206
 10
-338.0740392011739
 20
727.6357111684113
  0
LWPOLYLINE
  5
14D
330
17
100
AcDbEntity
  8
EH0
100
AcDbPolyline
 90
2
 70
0
 10
-338.0740392011739
 20
727.6357111684113
 10
-347.00570148083364
 20
709.8139566300305
  0
LWPOLYLINE
  5
14E
330
17
100
AcDbEntity
  8
EH0
100
AcDbPolyline
 90
2
 70
0
 10
-347.00570148083364
 20
435.60658306235206
 10
-338.0740392011739
 20
453.4283376007328
  0
LWPOLYLINE
  5
14F
330
17
100
AcDbEntity
  8
EH0
100
AcDbPolyline
 90
2
 70
0
 10
-338.0740392011739
 20
453.4283376007328
 10
-338.0740392011739
 20
727.6357111684113
  0
LWPOLYLINE
  5
150
330
17
100
AcDbEntity
  8
EH0
100
AcDbPolyline
 90
2
 70
0
 10
-338.0740392011739
 20
453.4283376007328
 10
-323.35783637895037
 20
744.8422870317037
  0
LWPOLYLINE
  5
151
330
17
100
AcDbEntity
  8
EH0
100
AcDbPolyline
 90
2
 70
0
 10
-323.35783637895037
 20
744.8422870317037
 10
-338.0740392011739
 20
727.6357111684113
  0
LWPOLYLINE
  5
152
330
17
100
AcDbEntity
  8
EH0
100
AcDbPolyline
 90
2
 70
0
 10
-338.0740392011739
 20
453.4283376007328
 10
-323.35783637895037
 20
470.6349134640253
  0
LWPOLYLINE
  5
153
330
17
100
AcDbEntity
  8
EH0
100
AcDbPolyline
 90
2
 70
0
 10
-323.35783637895037
 20
470.6349134640253
 10
-323.35783637895037
 20
744.8422870317037
  0
LWPOLYLINE
  5
154
330
17
100
AcDbEntity
  8
EH0
100
AcDbPolyline
 90
2
 70
0
 10
-323.35783637895037
 20
470.6349134640253
 10
-303.10889132455355
 20
761.1392749363231
  0
LWPOLYLINE
  5
155
330
17
100
AcDbEntity
  8
EH0
100
AcDbPolyline
 90
2
 70
0
 10
-303.10889132455355
 20
761.1392749363231
 10
-323.35783637895037
 20
744.8422870317037
  0
LWPOLYLINE
  5
156
330
17
100
AcDbEntity
  8
EH0
100
AcDbPolyline
 90
2
 70
0
 10
-323.35783637895037
 20
470.6349134640253
 10
-303.10889132455355
 20
486.9319013686446
  0
LWPOLYLINE
  5
157
330
17
100
AcDbEntity
  8
EH0
100
AcDbPolyline
 90
2
 70
0
 10
-303.10889132455355
 20
486.9319013686446
 10
-303.10889132455355
 20
761.1392749363231
  0
LWPOLYLINE
  5
158
330
17
100
AcDbEntity
  8
EH0
100
AcDbPolyline
 90
2
 70
0
 10
-303.10889132455355
 20
486.9319013686446
 10
-277.67366910193226
 20
776.2478289008425
  0
LWPOLYLINE
  5
159
330
17
100
AcDbEntity
  8
EH0
100
AcDbPolyline
 90
2
 70
0
 10
-277.67366910193226
 20
776.2478289008425
 10
-303.10889132455355
 20
761.1392749363231
  0
LWPOLYLINE
  5
15A
330
17
100
AcDbEntity
  8
EH0
100
AcDbPolyline
 90
2
 70
0
 10
-303.10889132455355
 20
486.9319013686446
 10
-277.67366910193226
 20
502.0404553331641
  0
LWPOLYLINE
  5
15B
330
17
100
AcDbEntity
  8
EH0
100
AcDbPolyline
 90
2
 70
0
 10
-277.67366910193226
 20
502.0404553331641
 10
-277.67366910193226
 20
776.2478289008425
  0
LWPOLYLINE
  5
15C
330
17
100
AcDbEntity
  8
EH0
100
AcDbPolyline
 90
2
 70
0
 10
-277.67366910193226
 20
502.0404553331641
 10
-247.48737341529161
 20
789.9094373780465
  0
LWPOLYLINE
  5
15D
330
17
100
AcDbEntity
  8
EH0
100
AcDbPolyline
 90
2
 70
0
 10
-247.48737341529161
 20
789.9094373780465
 10
-277.67366910193226
 20
776.2478289008425
  0
LWPOLYLINE
  5
15E
330
17
100
AcDbEntity
  8
EH0
100
AcDbPolyline
 90
2
 70
0
 10
-277.67366910193226
 20
502.0404553331641
 10
-247.48737341529161
 20
515.7020638103681
  0
LWPOLYLINE
  5
15F
330
17
100
AcDbEntity
  8
EH0
100
AcDbPolyline
 90
2
 70
0
 10
-247.48737341529161
 20
515.7020638103681
 10
-247.48737341529161
 20
789.9094373780465
  0
LWPOLYLINE
  5
160
330
17
100
AcDbEntity
  8
EH0
100
AcDbPolyline
 90
2
 70
0
 10
-247.48737341529161
 20
515.7020638103681
 10
-213.06650015305223
 20
801.8903464591768
  0
LWPOLYLINE
  5
161
330
17
100
AcDbEntity
  8
EH0
100
AcDbPolyline
 90
2
 70
0
 10
-213.06650015305223
 20
801.8903464591768
 10
-247.48737341529161
 20
789.9094373780465
  0
LWPOLYLINE
  5
162
330
17
100
AcDbEntity
  8
EH0
100
AcDbPolyline
 90
2
 70
0
 10
-247.48737341529161
 20
515.7020638103681
 10
-213.06650015305223
 20
527.6829728914984
  0
LWPOLYLINE
  5
163
330
17
100
AcDbEntity
  8
EH0
100
AcDbPolyline
 90
2
 70
0
 10
-213.06650015305223
 20
527.6829728914984
 10
-213.06650015305223
 20
801.8903464591768
  0
LWPOLYLINE
  5
164
330
17
100
AcDbEntity
  8
EH0
100
AcDbPolyline
 90
2
 70
0
 10
-213.06650015305223
 20
527.6829728914984
 10
-175.00000000000009
 20
811.9855594681196
  0
LWPOLYLINE
  5
165
330
17
100
AcDbEntity
  8
EH0
100
AcDbPolyline
 90
2
 70
0
 10
-175.00000000000009
 20
811.9855594681196
 10
-213.06650015305223
 20
801.8903464591768
  0
LWPOLYLINE
  5
166
330
17
100
AcDbEntity
  8
EH0
100
AcDbPolyline
 90
2
 70
0
 10
-213.06650015305223
 20
527.6829728914984
 10
-175.00000000000009
 20
537.7781859004413
  0
LWPOLYLINE
  5
167
330
17
100
AcDbEntity
  8
EH0
100
AcDbPolyline
 90
2
 70
0
 10
-175.00000000000009
 20
537.7781859004413
 10
-175.00000000000009
 20
811.9855594681196
  0
LWPOLYLINE
  5
168
330
17
100
AcDbEntity
  8
EH0
100
AcDbPolyline
 90
2
 70
0
 10
-175.00000000000009
 20
537.7781859004413
 10
-133.9392013277814
 20
820.0223445113702
  0
LWPOLYLINE
  5
169
330
17
100
AcDbEntity
  8
EH0
100
AcDbPolyline
 90
2
 70
0
 10
-133.9392013277814
 20
820.0223445113702
 10
-175.00000000000009
 20
811.9855594681196
  0
LWPOLYLINE
  5
16A
330
17
100
AcDbEntity
  8
EH0
100
AcDbPolyline
 90
2
 70
0
 10
-175.00000000000009
 20
537.7781859004413
 10
-133.9392013277814
 20
545.8149709436918
  0
LWPOLYLINE
  5
16B
330
17
100
AcDbEntity
  8
EH0
100
AcDbPolyline
 90
2
 70
0
 10
-133.9392013277814
 20
545.8149709436918
 10
-133.9392013277814
 20
820.0223445113702
  0
LWPOLYLINE
  5
16C
330
17
100
AcDbEntity
  8
EH0
100
AcDbPolyline
 90
2
 70
0
 10
-133.9392013277814
 20
545.8149709436918
 10
-90.5866657858823
 20
825.8631899686205
  0
LWPOLYLINE
  5
16D
330
17
100
AcDbEntity
  8
EH0
100
AcDbPolyline
 90
2
 70
0
 10
-90.5866657858823
 20
825.8631899686205
 10
-133.9392013277814
 20
820.0223445113702
  0
LWPOLYLINE
  5
16E
330
17
100
AcDbEntity
  8
EH0
100
AcDbPolyline
 90
2
 70
0
 10
-133.9392013277814
 20
545.8149709436918
 10
-90.5866657858823
 20
551.6558164009422
  0
LWPOLYLINE
  5
16F
330
17
100
AcDbEntity
  8
EH0
100
AcDbPolyline
 90
2
 70
0
 10
-90.5866657858823
 20
551.6558164009422
 10
-90.5866657858823
 20
825.8631899686205
  0
LWPOLYLINE
  5
170
330
17
100
AcDbEntity
  8
EH0
100
AcDbPolyline
 90
2
 70
0
 10
-90.5866657858823
 20
551.6558164009422
 10
-45.68416727701806
 20
829.408157354709
  0
LWPOLYLINE
  5
171
330
17
100
AcDbEntity
  8
EH0
100
AcDbPolyline
 90
2
 70
0
 10
-45.68416727701806
 20
829.408157354709
 10
-90.5866657858823
 20
825.8631899686205
  0
LWPOLYLINE
  5
172
330
17
100
AcDbEntity
  8
EH0
100
AcDbPolyline
 90
2
 70
0
 10
-90.5866657858823
 20
551.6558164009422
 10
-45.68416727701806
 20
555.2007837870307
  0
LWPOLYLINE
  5
173
330
17
100
AcDbEntity
  8
EH0
100
AcDbPolyline
 90
2
 70
0
 10
-45.68416727701806
 20
555.2007837870307
 10
-45.68416727701806
 20
829.408157354709
  0
LWPOLYLINE
  5
174
330
17
100
AcDbEntity
  8
EH0
100
AcDbPolyline
 90
2
 70
0
 10
-45.68416727701806
 20
555.2007837870307
 10
2.1431318985078682e-14
 20
830.596591294809
  0
LWPOLYLINE
  5
175
330
17
100
AcDbEntity
  8
EH0
100
AcDbPolyline
 90
2
 70
0
 10
2.1431318985078682e-14
 20
830.596591294809
 10
-45.68416727701806
 20
829.408157354709
  0
LWPOLYLINE
  5
176
330
17
100
AcDbEntity
  8
EH0
100
AcDbPolyline
 90
2
 70
0
 10
-45.68416727701806
 20
555.2007837870307
 10
2.1431318985078682e-14
 20
556.3892177271306
  0
LWPOLYLINE
  5
177
330
17
100
AcDbEntity
  8
EH0
100
AcDbPolyline
 90
2
 70
0
 10
2.1431318985078682e-14
 20
556.3892177271306
 10
2.1431318985078682e-14
 20
830.596591294809
  0
LWPOLYLINE
  5
178
330
17
100
AcDbEntity
  8
EH0
100
AcDbPolyline
 90
2
 70
0
 10
2.1431318985078682e-14
 20
556.3892177271306
 10
45.68416727701802
 20
829.408157354709
  0
LWPOLYLINE
  5
179
330
17
100
AcDbEntity
  8
EH0
100
AcDbPolyline
 90
2
 70
0
 10
45.68416727701802
 20
829.408157354709
 10
2.1431318985078682e-14
 20
830.596591294809
  0
LWPOLYLINE
  5
17A
330
17
100
AcDbEntity
  8
EH0
100
AcDbPolyline
 90
2
 70
0
 10
2.1431318985078682e-14
 20
556.3892177271306
 10
45.68416727701802
 20
555.2007837870307
  0
LWPOLYLINE
  5
17B
330
17
100
AcDbEntity
  8
EH0
100
AcDbPolyline
 90
2
 70
0
 10
45.68416727701802
 20
555.2007837870307
 10
45.68416727701802
 20
829.408157354709
  0
LWPOLYLINE
  5
17C
330
17
100
AcDbEntity
  8
EH0
100
AcDbPolyline
 90
2
 70
0
 10
45.68416727701802
 20
555.2007837870307
 10
90.58666578588226
 20
825.8631899686205
  0
LWPOLYLINE
  5
17D
330
17
100
AcDbEntity
  8
EH0
100
AcDbPolyline
 90
2
 70
0
 10
90.58666578588226
 20
825.8631899686205
 10
45.68416727701802
 20
829.408157354709
  0
LWPOLYLINE
  5
17E
330
17
100
AcDbEntity
  8
EH0
100
AcDbPolyline
 90
2
 70
0
 10
45.68416727701802
 20
555.2007837870307
 10
90.58666578588226
 20
551.6558164009422
  0
LWPOLYLINE
  5
17F
330
17
100
AcDbEntity
  8
EH0
100
AcDbPolyline
 90
2
 70
0
 10
90.58666578588226
 20
551.6558164009422
 10
90.58666578588226
 20
825.8631899686205
  0
LWPOLYLINE
  5
180
330
17
100
AcDbEntity
  8
EH0
100
AcDbPolyline
 90
2
 70
0
 10
90.58666578588226
 20
551.6558164009422
 10
133.93920132778138
 20
820.0223445113702
  0
LWPOLYLINE
  5
181
330
17
100
AcDbEntity
  8
EH0
100
AcDbPolyline
 90
2
 70
0
 10
133.93920132778138
 20
820.0223445113702
 10
90.58666578588226
 20
825.8631899686205
  0
LWPOLYLINE
  5
182
330
17
100
AcDbEntity
  8
EH0
100
AcDbPolyline
 90
2
 70
0
 10
90.58666578588226
 20
551.6558164009422
 10
133.93920132778138
 20
545.8149709436918
  0
LWPOLYLINE
  5
183
330
17
100
AcDbEntity
  8
EH0
100
AcDbPolyline
 90
2
 70
0
 10
133.93920132778138
 20
545.8149709436918
 10
133.93920132778138
 20
820.0223445113702
  0
LWPOLYLINE
  5
184
330
17
100
AcDbEntity
  8
EH0
100
AcDbPolyline
 90
2
 70
0
 10
133.93920132778138
 20
545.8149709436918
 10
174.99999999999997
 20
811.9855594681196
  0
LWPOLYLINE
  5
185
330
17
100
AcDbEntity
  8
EH0
100
AcDbPolyline
 90
2
 70
0
 10
174.99999999999997
 20
811.9855594681196
 10
133.93920132778138
 20
820.0223445113702
  0
LWPOLYLINE
  5
186
330
17
100
AcDbEntity
  8
EH0
100
AcDbPolyline
 90
2
 70
0
 10
133.93920132778138
 20
545.8149709436918
 10
174.99999999999997
 20
537.7781859004413
  0
LWPOLYLINE
  5
187
330
17
100
AcDbEntity
  8
EH0
100
AcDbPolyline
 90
2
 70
0
 10
174.99999999999997
 20
537.7781859004413
 10
174.99999999999997
 20
811.9855594681196
  0
LWPOLYLINE
  5
188
330
17
100
AcDbEntity
  8
EH0
100
AcDbPolyline
 90
2
 70
0
 10
174.99999999999997
 20
537.7781859004413
 10
213.06650015305215
 20
801.8903464591768
  0
LWPOLYLINE
  5
189
330
17
100
AcDbEntity
  8
EH0
100
AcDbPolyline
 90
2
 70
0
 10
213.06650015305215
 20
801.8903464591768
 10
174.99999999999997
 20
811.9855594681196
  0
LWPOLYLINE
  5
18A
330
17
100
AcDbEntity
  8
EH0
100
AcDbPolyline
 90
2
 70
0
 10
174.99999999999997
 20
537.7781859004413
 10
213.06650015305215
 20
527.6829728914985
  0
LWPOLYLINE
  5
18B
330
17
100
AcDbEntity
  8
EH0
100
AcDbPolyline
 90
2
 70
0
 10
213.06650015305215
 20
527.6829728914985
 10
213.06650015305215
 20
801.8903464591768
  0
LWPOLYLINE
  5
18C
330
17
100
AcDbEntity
  8
EH0
100
AcDbPolyline
 90
2
 70
0
 10
213.06650015305215
 20
527.6829728914985
 10
247.48737341529164
 20
789.9094373780465
  0
LWPOLYLINE
  5
18D
330
17
100
AcDbEntity
  8
EH0
100
AcDbPolyline
 90
2
 70
0
 10
247.48737341529164
 20
789.9094373780465
 10
213.06650015305215
 20
801.8903464591768
  0
LWPOLYLINE
  5
18E
330
17
100
AcDbEntity
  8
EH0
100
AcDbPolyline
 90
2
 70
0
 10
213.06650015305215
 20
527.6829728914985
 10
247.48737341529164
 20
515.7020638103681
  0
LWPOLYLINE
  5
18F
330
17
100
AcDbEntity
  8
EH0
100
AcDbPolyline
 90
2
 70
0
 10
247.48737341529164
 20
515.7020638103681
 10
247.48737341529164
 20
789.9094373780465
  0
LWPOLYLINE
  5
190
330
17
100
AcDbEntity
  8
EH0
100
AcDbPolyline
 90
2
 70
0
 10
247.48737341529164
 20
515.7020638103681
 10
277.67366910193226
 20
776.2478289008425
  0
LWPOLYLINE
  5
191
330
17
100
AcDbEntity
  8
EH0
100
AcDbPolyline
 90
2
 70
0
 10
277.67366910193226
 20
776.2478289008425
 10
247.48737341529164
 20
789.9094373780465
  0
LWPOLYLINE
  5
192
330
17
100
AcDbEntity
  8
EH0
100
AcDbPolyline
 90
2
 70
0
 10
247.48737341529164
 20
515.7020638103681
 10
277.67366910193226
 20
502.0404553331641
  0
LWPOLYLINE
  5
193
330
17
100
AcDbEntity
  8
EH0
100
AcDbPolyline
 90
2
 70
0
 10
277.67366910193226
 20
502.0404553331641
 10
277.67366910193226
 20
776.2478289008425
  0
LWPOLYLINE
  5
194
330
17
100
AcDbEntity
  8
EH0
100
AcDbPolyline
 90
2
 70
0
 10
277.67366910193226
 20
502.0404553331641
 10
303.1088913245535
 20
761.1392749363231
  0
LWPOLYLINE
  5
195
330
17
100
AcDbEntity
  8
EH0
100
AcDbPolyline
 90
2
 70
0
 10
303.1088913245535
 20
761.1392749363231
 10
277.67366910193226
 20
776.2478289008425
  0
LWPOLYLINE
  5
196
330
17
100
AcDbEntity
  8
EH0
100
AcDbPolyline
 90
2
 70
0
 10
277.67366910193226
 20
502.0404553331641
 10
303.1088913245535
 20
486.93190136864473
  0
LWPOLYLINE
  5
197
330
17
100
AcDbEntity
  8
EH0
100
AcDbPolyline
 90
2
 70
0
 10
303.1088913245535
 20
486.93190136864473
 10
303.1088913245535
 20
761.1392749363231
  0
LWPOLYLINE
  5
198
330
17
100
AcDbEntity
  8
EH0
100
AcDbPolyline
 90
2
 70
0
 10
303.1088913245535
 20
486.93190136864473
 10
323.35783637895037
 20
744.8422870317037
  0
LWPOLYLINE
  5
199
330
17
100
AcDbEntity
  8
EH0
100
AcDbPolyline
 90
2
 70
0
 10
323.35783637895037
 20
744.8422870317037
 10
303.1088913245535
 20
761.1392749363231
  0
LWPOLYLINE
  5
19A
330
17
100
AcDbEntity
  8
EH0
100
AcDbPolyline
 90
2
 70
0
 10
303.1088913245535
 20
486.93190136864473
 10
323.35783637895037
 20
470.6349134640253
  0
LWPOLYLINE
  5
19B
330
17
100
AcDbEntity
  8
EH0
100
AcDbPolyline
 90
2
 70
0
 10
323.35783637895037
 20
470.6349134640253
 10
323.35783637895037
 20
744.8422870317037
  0
LWPOLYLINE
  5
19C
330
17
100
AcDbEntity
  8
EH0
100
AcDbPolyline
 90
2
 70
0
 10
323.35783637895037
 20
470.6349134640253
 10
338.0740392011739
 20
727.6357111684111
  0
LWPOLYLINE
  5
19D
330
17
100
AcDbEntity
  8
EH0
100
AcDbPolyline
 90
2
 70
0
 10
338.0740392011739
 20
727.6357111684111
 10
323.35783637895037
 20
744.8422870317037
  0
LWPOLYLINE
  5
19E
330
17
100
AcDbEntity
  8
EH0
100
AcDbPolyline
 90
2
 70
0
 10
323.35783637895037
 20
470.6349134640253
 10
338.0740392011739
 20
453.4283376007328
  0
LWPOLYLINE
  5
19F
330
17
100
AcDbEntity
  8
EH0
100
AcDbPolyline
 90
2
 70
0
 10
338.0740392011739
 20
453.4283376007328
 10
338.0740392011739
 20
727.6357111684111
  0
LWPOLYLINE
  5
1A0
330
17
100
AcDbEntity
  8
EH0
100
AcDbPolyline
 90
2
 70
0
 10
338.0740392011739
 20
453.4283376007328
 10
347.00570148083364
 20
709.8139566300305
  0
LWPOLYLINE
  5
1A1
330
17
100
AcDbEntity
  8
EH0
100
AcDbPolyline
 90
2
 70
0
 10
347.00570148083364
 20
709.8139566300305
 10
338.0740392011739
 20
727.6357111684111
  0
LWPOLYLINE
  5
1A2
330
17
100
AcDbEntity
  8
EH0
100
AcDbPolyline
 90
2
 70
0
 10
338.0740392011739
 20
453.4283376007328
 10
347.00570148083364
 20
435.6065830623521
  0
LWPOLYLINE
  5
1A3
330
17
100
AcDbEntity
  8
EH0
100
AcDbPolyline
 90
2
 70
0
 10
347.00570148083364
 20
435.6065830623521
 10
347.00570148083364
 20
709.8139566300305
  0
LWPOLYLINE
  5
1A4
330
17
100
AcDbEntity
  8
EH0
100
AcDbPolyline
 90
2
 70
0
 10
347.00570148083364
 20
435.6065830623521
 10
350.0
 20
691.6819585778371
  0
LWPOLYLINE
  5
1A5
330
17
100
AcDbEntity
  8
EH0
100
AcDbPolyline
 90
2
 70
0
 10
350.0
 20
691.6819585778371
 10
347.00570148083364
 20
709.8139566300305
  0
LWPOLYLINE
  5
1A6
330
17
100
AcDbEntity
  8
EH0
100
AcDbPolyline
 90
2
 70
0
 10
347.00570148083364
 20
435.6065830623521
 10
350.0
 20
417.47458501015876
  0
LWPOLYLINE
  5
1A7
330
17
100
AcDbEntity
  8
EH0
100
AcDbPolyline
 90
2
 70
0
 10
350.0
 20
417.47458501015876
 10
350.0
 20
691.6819585778371
  0
LWPOLYLINE
  5
1A9
330
17
100
AcDbEntity
  8
EH1
100
AcDbPolyline
 90
2
 70
0
 10
-379.0
 20
180.00000000000003
 10
-379.0
 20
180.00000000000003
  0
LWPOLYLINE
  5
1AA
330
17
100
AcDbEntity
  8
EH1
100
AcDbPolyline
 90
2
 70
0
 10
-379.0
 20
180.00000000000003
 10
-375.75760246067415
 20
202.71155744628896
  0
LWPOLYLINE
  5
1AB
330
17
100
AcDbEntity
  8
EH1
100
AcDbPolyline
 90
2
 70
0
 10
-375.75760246067415
 20
202.71155744628896
 10
-379.0
 20
180.00000000000003
  0
LWPOLYLINE
  5
1AC
330
17
100
AcDbEntity
  8
EH1
100
AcDbPolyline
 90
2
 70
0
 10
-379.0
 20
180.00000000000003
 10
-375.75760246067415
 20
202.71155744628896
  0
LWPOLYLINE
  5
1AD
330
17
100
AcDbEntity
  8
EH1
100
AcDbPolyline
 90
2
 70
0
 10
-375.75760246067415
 20
202.71155744628896
 10
-375.75760246067415
 20
202.71155744628896
  0
LWPOLYLINE
  5
1AE
330
17
100
AcDbEntity
  8
EH1
100
AcDbPolyline
 90
2
 70
0
 10
-375.75760246067415
 20
202.71155744628896
 10
-366.08588816355683
 20
225.03451384783867
  0
LWPOLYLINE
  5
1AF
330
17
100
AcDbEntity
  8
EH1
100
AcDbPolyline
 90
2
 70
0
 10
-366.08588816355683
 20
225.03451384783867
 10
-375.75760246067415
 20
202.71155744628896
  0
LWPOLYLINE
  5
1B0
330
17
100
AcDbEntity
  8
EH1
100
AcDbPolyline
 90
2
 70
0
 10
-375.75760246067415
 20
202.71155744628896
 10
-366.08588816355683
 20
225.03451384783867
  0
LWPOLYLINE
  5
1B1
330
17
100
AcDbEntity
  8
EH1
100
AcDbPolyline
 90
2
 70
0
 10
-366.08588816355683
 20
225.03451384783867
 10
-366.08588816355683
 20
225.03451384783867
  0
LWPOLYLINE
  5
1B2
330
17
100
AcDbEntity
  8
EH1
100
AcDbPolyline
 90
2
 70
0
 10
-366.08588816355683
 20
225.03451384783867
 10
-350.15034282177766
 20
246.58691723152566
  0
LWPOLYLINE
  5
1B3
330
17
100
AcDbEntity
  8
EH1
100
AcDbPolyline
 90
2
 70
0
 10
-350.15034282177766
 20
246.58691723152566
 10
-366.08588816355683
 20
225.03451384783867
  0
LWPOLYLINE
  5
1B4
330
17
100
AcDbEntity
  8
EH1
100
AcDbPolyline
 90
2
 70
0
 10
-366.08588816355683
 20
225.03451384783867
 10
-350.15034282177766
 20
246.58691723152566
  0
LWPOLYLINE
  5
1B5
330
17
100
AcDbEntity
  8
EH1
100
AcDbPolyline
 90
2
 70
0
 10
-350.15034282177766
 20
246.58691723152566
 10
-350.15034282177766
 20
246.58691723152566
  0
LWPOLYLINE
  5
1B6
330
17
100
AcDbEntity
  8
EH1
100
AcDbPolyline
 90
2
 70
0
 10
-350.15034282177766
 20
246.58691723152566
 10
-328.2236280343023
 20
267.0
  0
LWPOLYLINE
  5
1B7
330
17
100
AcDbEntity
  8
EH1
100
AcDbPolyline
 90
2
 70
0
 10
-328.2236280343023
 20
267.0
 10
-350.15034282177766
 20
246.58691723152566
  0
LWPOLYLINE
  5
1B8
330
17
100
AcDbEntity
  8
EH1
100
AcDbPolyline
 90
2
 70
0
 10
-350.15034282177766
 20
246.58691723152566
 10
-328.2236280343023
 20
267.0
  0
LWPOLYLINE
  5
1B9
330
17
100
AcDbEntity
  8
EH1
100
AcDbPolyline
 90
2
 70
0
 10
-328.2236280343023
 20
267.0
 10
-328.2236280343023
 20
267.0
  0
LWPOLYLINE
  5
1BA
330
17
100
AcDbEntity
  8
EH1
100
AcDbPolyline
 90
2
 70
0
 10
-328.2236280343023
 20
267.0
 10
-300.68091597037807
 20
285.9244886475174
  0
LWPOLYLINE
  5
1BB
330
17
100
AcDbEntity
  8
EH1
100
AcDbPolyline
 90
2
 70
0
 10
-300.68091597037807
 20
285.9244886475174
 10
-328.2236280343023
 20
267.0
  0
LWPOLYLINE
  5
1BC
330
17
100
AcDbEntity
  8
EH1
100
AcDbPolyline
 90
2
 70
0
 10
-328.2236280343023
 20
267.0
 10
-300.68091597037807
 20
285.9244886475174
  0
LWPOLYLINE
  5
1BD
330
17
100
AcDbEntity
  8
EH1
100
AcDbPolyline
 90
2
 70
0
 10
-300.68091597037807
 20
285.9244886475174
 10
-300.68091597037807
 20
285.9244886475174
  0
LWPOLYLINE
  5
1BE
330
17
100
AcDbEntity
  8
EH1
100
AcDbPolyline
 90
2
 70
0
 10
-300.68091597037807
 20
285.9244886475174
 10
-267.9934700697015
 20
303.0365799264593
  0
LWPOLYLINE
  5
1BF
330
17
100
AcDbEntity
  8
EH1
100
AcDbPolyline
 90
2
 70
0
 10
-267.9934700697015
 20
303.0365799264593
 10
-300.68091597037807
 20
285.9244886475174
  0
LWPOLYLINE
  5
1C0
330
17
100
AcDbEntity
  8
EH1
100
AcDbPolyline
 90
2
 70
0
 10
-300.68091597037807
 20
285.9244886475174
 10
-267.9934700697015
 20
303.0365799264593
  0
LWPOLYLINE
  5
1C1
330
17
100
AcDbEntity
  8
EH1
100
AcDbPolyline
 90
2
 70
0
 10
-267.9934700697015
 20
303.0365799264593
 10
-267.9934700697015
 20
303.0365799264593
  0
LWPOLYLINE
  5
1C2
330
17
100
AcDbEntity
  8
EH1
100
AcDbPolyline
 90
2
 70
0
 10
-267.9934700697015
 20
303.0365799264593
 10
-230.72058159430512
 20
318.04348121067494
  0
LWPOLYLINE
  5
1C3
330
17
100
AcDbEntity
  8
EH1
100
AcDbPolyline
 90
2
 70
0
 10
-230.72058159430512
 20
318.04348121067494
 10
-267.9934700697015
 20
303.0365799264593
  0
LWPOLYLINE
  5
1C4
330
17
100
AcDbEntity
  8
EH1
100
AcDbPolyline
 90
2
 70
0
 10
-267.9934700697015
 20
303.0365799264593
 10
-230.72058159430512
 20
318.04348121067494
  0
LWPOLYLINE
  5
1C5
330
17
100
AcDbEntity
  8
EH1
100
AcDbPolyline
 90
2
 70
0
 10
-230.72058159430512
 20
318.04348121067494
 10
-230.72058159430512
 20
318.04348121067494
  0
LWPOLYLINE
  5
1C6
330
17
100
AcDbEntity
  8
EH1
100
AcDbPolyline
 90
2
 70
0
 10
-230.72058159430512
 20
318.04348121067494
 10
-189.50000000000009
 20
330.68842025849233
  0
LWPOLYLINE
  5
1C7
330
17
100
AcDbEntity
  8
EH1
100
AcDbPolyline
 90
2
 70
0
 10
-189.50000000000009
 20
330.68842025849233
 10
-230.72058159430512
 20
318.04348121067494
  0
LWPOLYLINE
  5
1C8
330
17
100
AcDbEntity
  8
EH1
100
AcDbPolyline
 90
2
 70
0
 10
-230.72058159430512
 20
318.04348121067494
 10
-189.50000000000009
 20
330.68842025849233
  0
LWPOLYLINE
  5
1C9
330
17
100
AcDbEntity
  8
EH1
100
AcDbPolyline
 90
2
 70
0
 10
-189.50000000000009
 20
330.68842025849233
 10
-189.50000000000009
 20
330.68842025849233
  0
LWPOLYLINE
  5
1CA
330
17
100
AcDbEntity
  8
EH1
100
AcDbPolyline
 90
2
 70
0
 10
-189.50000000000009
 20
330.68842025849233
 10
-145.037020866369
 20
340.7550386569639
  0
LWPOLYLINE
  5
1CB
330
17
100
AcDbEntity
  8
EH1
100
AcDbPolyline
 90
2
 70
0
 10
-145.037020866369
 20
340.7550386569639
 10
-189.50000000000009
 20
330.68842025849233
  0
LWPOLYLINE
  5
1CC
330
17
100
AcDbEntity
  8
EH1
100
AcDbPolyline
 90
2
 70
0
 10
-189.50000000000009
 20
330.68842025849233
 10
-145.037020866369
 20
340.7550386569639
  0
LWPOLYLINE
  5
1CD
330
17
100
AcDbEntity
  8
EH1
100
AcDbPolyline
 90
2
 70
0
 10
-145.037020866369
 20
340.7550386569639
 10
-145.037020866369
 20
340.7550386569639
  0
LWPOLYLINE
  5
1CE
330
17
100
AcDbEntity
  8
EH1
100
AcDbPolyline
 90
2
 70
0
 10
-145.037020866369
 20
340.7550386569639
 10
-98.0924180938554
 20
348.0710937742979
  0
LWPOLYLINE
  5
1CF
330
17
100
AcDbEntity
  8
EH1
100
AcDbPolyline
 90
2
 70
0
 10
-98.0924180938554
 20
348.0710937742979
 10
-145.037020866369
 20
340.7550386569639
  0
LWPOLYLINE
  5
1D0
330
17
100
AcDbEntity
  8
EH1
100
AcDbPolyline
 90
2
 70
0
 10
-145.037020866369
 20
340.7550386569639
 10
-98.0924180938554
 20
348.0710937742979
  0
LWPOLYLINE
  5
1D1
330
17
100
AcDbEntity
  8
EH1
100
AcDbPolyline
 90
2
 70
0
 10
-98.0924180938554
 20
348.0710937742979
 10
-98.0924180938554
 20
348.0710937742979
  0
LWPOLYLINE
  5
1D2
330
17
100
AcDbEntity
  8
EH1
100
AcDbPolyline
 90
2
 70
0
 10
-98.0924180938554
 20
348.0710937742979
 10
-49.469426851399554
 20
352.51140587904297
  0
LWPOLYLINE
  5
1D3
330
17
100
AcDbEntity
  8
EH1
100
AcDbPolyline
 90
2
 70
0
 10
-49.469426851399554
 20
352.51140587904297
 10
-98.0924180938554
 20
348.0710937742979
  0
LWPOLYLINE
  5
1D4
330
17
100
AcDbEntity
  8
EH1
100
AcDbPolyline
 90
2
 70
0
 10
-98.0924180938554
 20
348.0710937742979
 10
-49.469426851399554
 20
352.51140587904297
  0
LWPOLYLINE
  5
1D5
330
17
100
AcDbEntity
  8
EH1
100
AcDbPolyline
 90
2
 70
0
 10
-49.469426851399554
 20
352.51140587904297
 10
-49.469426851399554
 20
352.51140587904297
  0
LWPOLYLINE
  5
1D6
330
17
100
AcDbEntity
  8
EH1
100
AcDbPolyline
 90
2
 70
0
 10
-49.469426851399554
 20
352.51140587904297
 10
2.3207056843842342e-14
 20
354.0
  0
LWPOLYLINE
  5
1D7
330
17
100
AcDbEntity
  8
EH1
100
AcDbPolyline
 90
2
 70
0
 10
2.3207056843842342e-14
 20
354.0
 10
-49.469426851399554
 20
352.51140587904297
  0
LWPOLYLINE
  5
1D8
330
17
100
AcDbEntity
  8
EH1
100
AcDbPolyline
 90
2
 70
0
 10
-49.469426851399554
 20
352.51140587904297
 10
2.3207056843842342e-14
 20
354.0
  0
LWPOLYLINE
  5
1D9
330
17
100
AcDbEntity
  8
EH1
100
AcDbPolyline
 90
2
 70
0
 10
2.3207056843842342e-14
 20
354.0
 10
2.3207056843842342e-14
 20
354.0
  0
LWPOLYLINE
  5
1DA
330
17
100
AcDbEntity
  8
EH1
100
AcDbPolyline
 90
2
 70
0
 10
2.3207056843842342e-14
 20
354.0
 10
49.46942685139951
 20
352.51140587904297
  0
LWPOLYLINE
  5
1DB
330
17
100
AcDbEntity
  8
EH1
100
AcDbPolyline
 90
2
 70
0
 10
49.46942685139951
 20
352.51140587904297
 10
2.3207056843842342e-14
 20
354.0
  0
LWPOLYLINE
  5
1DC
330
17
100
AcDbEntity
  8
EH1
100
AcDbPolyline
 90
2
 70
0
 10
2.3207056843842342e-14
 20
354.0
 10
49.46942685139951
 20
352.51140587904297
  0
LWPOLYLINE
  5
1DD
330
17
100
AcDbEntity
  8
EH1
100
AcDbPolyline
 90
2
 70
0
 10
49.46942685139951
 20
352.51140587904297
 10
49.46942685139951
 20
352.51140587904297
  0
LWPOLYLINE
  5
1DE
330
17
100
AcDbEntity
  8
EH1
100
AcDbPolyline
 90
2
 70
0
 10
49.46942685139951
 20
352.51140587904297
 10
98.09241809385536
 20
348.0710937742979
  0
LWPOLYLINE
  5
1DF
330
17
100
AcDbEntity
  8
EH1
100
AcDbPolyline
 90
2
 70
0
 10
98.09241809385536
 20
348.0710937742979
 10
49.46942685139951
 20
352.51140587904297
  0
LWPOLYLINE
  5
1E0
330
17
100
AcDbEntity
  8
EH1
100
AcDbPolyline
 90
2
 70
0
 10
49.46942685139951
 20
352.51140587904297
 10
98.09241809385536
 20
348.0710937742979
  0
LWPOLYLINE
  5
1E1
330
17
100
AcDbEntity
  8
EH1
100
AcDbPolyline
 90
2
 70
0
 10
98.09241809385536
 20
348.0710937742979
 10
98.09241809385536
 20
348.0710937742979
  0
LWPOLYLINE
  5
1E2
330
17
100
AcDbEntity
  8
EH1
100
AcDbPolyline
 90
2
 70
0
 10
98.09241809385536
 20
348.0710937742979
 10
145.03702086636898
 20
340.7550386569639
  0
LWPOLYLINE
  5
1E3
330
17
100
AcDbEntity
  8
EH1
100
AcDbPolyline
 90
2
 70
0
 10
145.03702086636898
 20
340.7550386569639
 10
98.09241809385536
 20
348.0710937742979
  0
LWPOLYLINE
  5
1E4
330
17
100
AcDbEntity
  8
EH1
100
AcDbPolyline
 90
2
 70
0
 10
98.09241809385536
 20
348.0710937742979
 10
145.03702086636898
 20
340.7550386569639
  0
LWPOLYLINE
  5
1E5
330
17
100
AcDbEntity
  8
EH1
100
AcDbPolyline
 90
2
 70
0
 10
145.03702086636898
 20
340.7550386569639
 10
145.03702086636898
 20
340.7550386569639
  0
LWPOLYLINE
  5
1E6
330
17
100
AcDbEntity
  8
EH1
100
AcDbPolyline
 90
2
 70
0
 10
145.03702086636898
 20
340.7550386569639
 10
189.49999999999997
 20
330.68842025849233
  0
LWPOLYLINE
  5
1E7
330
17
100
AcDbEntity
  8
EH1
100
AcDbPolyline
 90
2
 70
0
 10
189.49999999999997
 20
330.68842025849233
 10
145.03702086636898
 20
340.7550386569639
  0
LWPOLYLINE
  5
1E8
330
17
100
AcDbEntity
  8
EH1
100
AcDbPolyline
 90
2
 70
0
 10
145.03702086636898
 20
340.7550386569639
 10
189.49999999999997
 20
330.68842025849233
  0
LWPOLYLINE
  5
1E9
330
17
100
AcDbEntity
  8
EH1
100
AcDbPolyline
 90
2
 70
0
 10
189.49999999999997
 20
330.68842025849233
 10
189.49999999999997
 20
330.68842025849233
  0
LWPOLYLINE
  5
1EA
330
17
100
AcDbEntity
  8
EH1
100
AcDbPolyline
 90
2
 70
0
 10
189.49999999999997
 20
330.68842025849233
 10
230.72058159430503
 20
318.04348121067494
  0
LWPOLYLINE
  5
1EB
330
17
100
AcDbEntity
  8
EH1
100
AcDbPolyline
 90
2
 70
0
 10
230.72058159430503
 20
318.04348121067494
 10
189.49999999999997
 20
330.68842025849233
  0
LWPOLYLINE
  5
1EC
330
17
100
AcDbEntity
  8
EH1
100
AcDbPolyline
 90
2
 70
0
 10
189.49999999999997
 20
330.68842025849233
 10
230.72058159430503
 20
318.04348121067494
  0
LWPOLYLINE
  5
1ED
330
17
100
AcDbEntity
  8
EH1
100
AcDbPolyline
 90
2
 70
0
 10
230.72058159430503
 20
318.04348121067494
 10
230.72058159430503
 20
318.04348121067494
  0
LWPOLYLINE
  5
1EE
330
17
100
AcDbEntity
  8
EH1
100
AcDbPolyline
 90
2
 70
0
 10
230.72058159430503
 20
318.04348121067494
 10
267.9934700697015
 20
303.03657992645924
  0
LWPOLYLINE
  5
1EF
330
17
100
AcDbEntity
  8
EH1
100
AcDbPolyline
 90
2
 70
0
 10
267.9934700697015
 20
303.03657992645924
 10
230.72058159430503
 20
318.04348121067494
  0
LWPOLYLINE
  5
1F0
330
17
100
AcDbEntity
  8
EH1
100
AcDbPolyline
 90
2
 70
0
 10
230.72058159430503
 20
318.04348121067494
 10
267.9934700697015
 20
303.03657992645924
  0
LWPOLYLINE
  5
1F1
330
17
100
AcDbEntity
  8
EH1
100
AcDbPolyline
 90
2
 70
0
 10
267.9934700697015
 20
303.03657992645924
 10
267.9934700697015
 20
303.03657992645924
  0
LWPOLYLINE
  5
1F2
330
17
100
AcDbEntity
  8
EH1
100
AcDbPolyline
 90
2
 70
0
 10
267.9934700697015
 20
303.03657992645924
 10
300.68091597037807
 20
285.9244886475174
  0
LWPOLYLINE
  5
1F3
330
17
100
AcDbEntity
  8
EH1
100
AcDbPolyline
 90
2
 70
0
 10
300.68091597037807
 20
285.9244886475174
 10
267.9934700697015
 20
303.03657992645924
  0
LWPOLYLINE
  5
1F4
330
17
100
AcDbEntity
  8
EH1
100
AcDbPolyline
 90
2
 70
0
 10
267.9934700697015
 20
303.03657992645924
 10
300.68091597037807
 20
285.9244886475174
  0
LWPOLYLINE
  5
1F5
330
17
100
AcDbEntity
  8
EH1
100
AcDbPolyline
 90
2
 70
0
 10
300.68091597037807
 20
285.9244886475174
 10
300.68091597037807
 20
285.9244886475174
  0
LWPOLYLINE
  5
1F6
330
17
100
AcDbEntity
  8
EH1
100
AcDbPolyline
 90
2
 70
0
 10
300.68091597037807
 20
285.9244886475174
 10
328.2236280343022
 20
267.00000000000006
  0
LWPOLYLINE
  5
1F7
330
17
100
AcDbEntity
  8
EH1
100
AcDbPolyline
 90
2
 70
0
 10
328.2236280343022
 20
267.00000000000006
 10
300.68091597037807
 20
285.9244886475174
  0
LWPOLYLINE
  5
1F8
330
17
100
AcDbEntity
  8
EH1
100
AcDbPolyline
 90
2
 70
0
 10
300.68091597037807
 20
285.9244886475174
 10
328.2236280343022
 20
267.00000000000006
  0
LWPOLYLINE
  5
1F9
330
17
100
AcDbEntity
  8
EH1
100
AcDbPolyline
 90
2
 70
0
 10
328.2236280343022
 20
267.00000000000006
 10
328.2236280343022
 20
267.00000000000006
  0
LWPOLYLINE
  5
1FA
330
17
100
AcDbEntity
  8
EH1
100
AcDbPolyline
 90
2
 70
0
 10
328.2236280343022
 20
267.00000000000006
 10
350.15034282177766
 20
246.5869172315256
  0
LWPOLYLINE
  5
1FB
330
17
100
AcDbEntity
  8
EH1
100
AcDbPolyline
 90
2
 70
0
 10
350.15034282177766
 20
246.5869172315256
 10
328.2236280343022
 20
267.00000000000006
  0
LWPOLYLINE
  5
1FC
330
17
100
AcDbEntity
  8
EH1
100
AcDbPolyline
 90
2
 70
0
 10
328.2236280343022
 20
267.00000000000006
 10
350.15034282177766
 20
246.5869172315256
  0
LWPOLYLINE
  5
1FD
330
17
100
AcDbEntity
  8
EH1
100
AcDbPolyline
 90
2
 70
0
 10
350.15034282177766
 20
246.5869172315256
 10
350.15034282177766
 20
246.5869172315256
  0
LWPOLYLINE
  5
1FE
330
17
100
AcDbEntity
  8
EH1
100
AcDbPolyline
 90
2
 70
0
 10
350.15034282177766
 20
246.5869172315256
 10
366.08588816355683
 20
225.03451384783864
  0
LWPOLYLINE
  5
1FF
330
17
100
AcDbEntity
  8
EH1
100
AcDbPolyline
 90
2
 70
0
 10
366.08588816355683
 20
225.03451384783864
 10
350.15034282177766
 20
246.5869172315256
  0
LWPOLYLINE
  5
200
330
17
100
AcDbEntity
  8
EH1
100
AcDbPolyline
 90
2
 70
0
 10
350.15034282177766
 20
246.5869172315256
 10
366.08588816355683
 20
225.03451384783864
  0
LWPOLYLINE
  5
201
330
17
100
AcDbEntity
  8
EH1
100
AcDbPolyline
 90
2
 70
0
 10
366.08588816355683
 20
225.03451384783864
 10
366.08588816355683
 20
225.03451384783864
  0
LWPOLYLINE
  5
202
330
17
100
AcDbEntity
  8
EH1
100
AcDbPolyline
 90
2
 70
0
 10
366.08588816355683
 20
225.03451384783864
 10
375.75760246067415
 20
202.71155744628902
  0
LWPOLYLINE
  5
203
330
17
100
AcDbEntity
  8
EH1
100
AcDbPolyline
 90
2
 70
0
 10
375.75760246067415
 20
202.71155744628902
 10
366.08588816355683
 20
225.03451384783864
  0
LWPOLYLINE
  5
204
330
17
100
AcDbEntity
  8
EH1
100
AcDbPolyline
 90
2
 70
0
 10
366.08588816355683
 20
225.03451384783864
 10
375.75760246067415
 20
202.71155744628902
  0
LWPOLYLINE
  5
205
330
17
100
AcDbEntity
  8
EH1
100
AcDbPolyline
 90
2
 70
0
 10
375.75760246067415
 20
202.71155744628902
 10
375.75760246067415
 20
202.71155744628902
  0
LWPOLYLINE
  5
206
330
17
100
AcDbEntity
  8
EH1
100
AcDbPolyline
 90
2
 70
0
 10
375.75760246067415
 20
202.71155744628902
 10
379.0
 20
180.0
  0
LWPOLYLINE
  5
207
330
17
100
AcDbEntity
  8
EH1
100
AcDbPolyline
 90
2
 70
0
 10
379.0
 20
180.0
 10
375.75760246067415
 20
202.71155744628902
  0
LWPOLYLINE
  5
208
330
17
100
AcDbEntity
  8
EH1
100
AcDbPolyline
 90
2
 70
0
 10
375.75760246067415
 20
202.71155744628902
 10
379.0
 20
180.0
  0
LWPOLYLINE
  5
209
330
17
100
AcDbEntity
  8
EH1
100
AcDbPolyline
 90
2
 70
0
 10
379.0
 20
180.0
 10
379.0
 20
180.0
  0
LWPOLYLINE
  5
20B
330
17
100
AcDbEntity
  8
EH2
100
AcDbPolyline
 90
2
 70
0
 10
-160.0
 20
130.00000000000003
 10
-160.0
 20
130.00000000000003
  0
LWPOLYLINE
  5
20C
330
17
100
AcDbEntity
  8
EH2
100
AcDbPolyline
 90
2
 70
0
 10
-160.0
 20
130.00000000000003
 10
-158.63117781980966
 20
148.2736669108072
  0
LWPOLYLINE
  5
20D
330
17
100
AcDbEntity
  8
EH2
100
AcDbPolyline
 90
2
 70
0
 10
-158.63117781980966
 20
148.2736669108072
 10
-160.0
 20
130.00000000000003
  0
LWPOLYLINE
  5
20E
330
17
100
AcDbEntity
  8
EH2
100
AcDbPolyline
 90
2
 70
0
 10
-160.0
 20
130.00000000000003
 10
-158.63117781980966
 20
148.2736669108072
  0
LWPOLYLINE
  5
20F
330
17
100
AcDbEntity
  8
EH2
100
AcDbPolyline
 90
2
 70
0
 10
-158.63117781980966
 20
148.2736669108072
 10
-158.63117781980966
 20
148.2736669108072
  0
LWPOLYLINE
  5
210
330
17
100
AcDbEntity
  8
EH2
100
AcDbPolyline
 90
2
 70
0
 10
-158.63117781980966
 20
148.2736669108072
 10
-154.5481322062509
 20
166.23466631435295
  0
LWPOLYLINE
  5
211
330
17
100
AcDbEntity
  8
EH2
100
AcDbPolyline
 90
2
 70
0
 10
-154.5481322062509
 20
166.23466631435295
 10
-158.63117781980966
 20
148.2736669108072
  0
LWPOLYLINE
  5
212
330
17
100
AcDbEntity
  8
EH2
100
AcDbPolyline
 90
2
 70
0
 10
-158.63117781980966
 20
148.2736669108072
 10
-154.5481322062509
 20
166.23466631435295
  0
LWPOLYLINE
  5
213
330
17
100
AcDbEntity
  8
EH2
100
AcDbPolyline
 90
2
 70
0
 10
-154.5481322062509
 20
166.23466631435295
 10
-154.5481322062509
 20
166.23466631435295
  0
LWPOLYLINE
  5
214
330
17
100
AcDbEntity
  8
EH2
100
AcDbPolyline
 90
2
 70
0
 10
-154.5481322062509
 20
166.23466631435295
 10
-147.82072520180589
 20
183.5756805311126
  0
LWPOLYLINE
  5
215
330
17
100
AcDbEntity
  8
EH2
100
AcDbPolyline
 90
2
 70
0
 10
-147.82072520180589
 20
183.5756805311126
 10
-154.5481322062509
 20
166.23466631435295
  0
LWPOLYLINE
  5
216
330
17
100
AcDbEntity
  8
EH2
100
AcDbPolyline
 90
2
 70
0
 10
-154.5481322062509
 20
166.23466631435295
 10
-147.82072520180589
 20
183.5756805311126
  0
LWPOLYLINE
  5
217
330
17
100
AcDbEntity
  8
EH2
100
AcDbPolyline
 90
2
 70
0
 10
-147.82072520180589
 20
183.5756805311126
 10
-147.82072520180589
 20
183.5756805311126
  0
LWPOLYLINE
  5
218
330
17
100
AcDbEntity
  8
EH2
100
AcDbPolyline
 90
2
 70
0
 10
-147.82072520180589
 20
183.5756805311126
 10
-138.5640646055102
 20
200.0
  0
LWPOLYLINE
  5
219
330
17
100
AcDbEntity
  8
EH2
100
AcDbPolyline
 90
2
 70
0
 10
-138.5640646055102
 20
200.0
 10
-147.82072520180589
 20
183.5756805311126
  0
LWPOLYLINE
  5
21A
330
17
100
AcDbEntity
  8
EH2
100
AcDbPolyline
 90
2
 70
0
 10
-147.82072520180589
 20
183.5756805311126
 10
-138.5640646055102
 20
200.0
  0
LWPOLYLINE
  5
21B
330
17
100
AcDbEntity
  8
EH2
100
AcDbPolyline
 90
2
 70
0
 10
-138.5640646055102
 20
200.0
 10
-138.5640646055102
 20
200.0
  0
LWPOLYLINE
  5
21C
330
17
100
AcDbEntity
  8
EH2
100
AcDbPolyline
 90
2
 70
0
 10
-138.5640646055102
 20
200.0
 10
-126.9365344465976
 20
215.22660006122092
  0
LWPOLYLINE
  5
21D
330
17
100
AcDbEntity
  8
EH2
100
AcDbPolyline
 90
2
 70
0
 10
-126.9365344465976
 20
215.22660006122092
 10
-138.5640646055102
 20
200.0
  0
LWPOLYLINE
  5
21E
330
17
100
AcDbEntity
  8
EH2
100
AcDbPolyline
 90
2
 70
0
 10
-138.5640646055102
 20
200.0
 10
-126.9365344465976
 20
215.22660006122092
  0
LWPOLYLINE
  5
21F
330
17
100
AcDbEntity
  8
EH2
100
AcDbPolyline
 90
2
 70
0
 10
-126.9365344465976
 20
215.22660006122092
 10
-126.9365344465976
 20
215.22660006122092
  0
LWPOLYLINE
  5
220
330
17
100
AcDbEntity
  8
EH2
100
AcDbPolyline
 90
2
 70
0
 10
-126.9365344465976
 20
215.22660006122092
 10
-113.1370849898476
 20
228.99494936611666
  0
LWPOLYLINE
  5
221
330
17
100
AcDbEntity
  8
EH2
100
AcDbPolyline
 90
2
 70
0
 10
-113.1370849898476
 20
228.99494936611666
 10
-126.9365344465976
 20
215.22660006122092
  0
LWPOLYLINE
  5
222
330
17
100
AcDbEntity
  8
EH2
100
AcDbPolyline
 90
2
 70
0
 10
-126.9365344465976
 20
215.22660006122092
 10
-113.1370849898476
 20
228.99494936611666
  0
LWPOLYLINE
  5
223
330
17
100
AcDbEntity
  8
EH2
100
AcDbPolyline
 90
2
 70
0
 10
-113.1370849898476
 20
228.99494936611666
 10
-113.1370849898476
 20
228.99494936611666
  0
LWPOLYLINE
  5
224
330
17
100
AcDbEntity
  8
EH2
100
AcDbPolyline
 90
2
 70
0
 10
-113.1370849898476
 20
228.99494936611666
 10
-97.4018286413953
 20
241.06946764077293
  0
LWPOLYLINE
  5
225
330
17
100
AcDbEntity
  8
EH2
100
AcDbPolyline
 90
2
 70
0
 10
-97.4018286413953
 20
241.06946764077293
 10
-113.1370849898476
 20
228.99494936611666
  0
LWPOLYLINE
  5
226
330
17
100
AcDbEntity
  8
EH2
100
AcDbPolyline
 90
2
 70
0
 10
-113.1370849898476
 20
228.99494936611666
 10
-97.4018286413953
 20
241.06946764077293
  0
LWPOLYLINE
  5
227
330
17
100
AcDbEntity
  8
EH2
100
AcDbPolyline
 90
2
 70
0
 10
-97.4018286413953
 20
241.06946764077293
 10
-97.4018286413953
 20
241.06946764077293
  0
LWPOLYLINE
  5
228
330
17
100
AcDbEntity
  8
EH2
100
AcDbPolyline
 90
2
 70
0
 10
-97.4018286413953
 20
241.06946764077293
 10
-80.00000000000003
 20
251.24355652982138
  0
LWPOLYLINE
  5
229
330
17
100
AcDbEntity
  8
EH2
100
AcDbPolyline
 90
2
 70
0
 10
-80.00000000000003
 20
251.24355652982138
 10
-97.4018286413953
 20
241.06946764077293
  0
LWPOLYLINE
  5
22A
330
17
100
AcDbEntity
  8
EH2
100
AcDbPolyline
 90
2
 70
0
 10
-97.4018286413953
 20
241.06946764077293
 10
-80.00000000000003
 20
251.24355652982138
  0
LWPOLYLINE
  5
22B
330
17
100
AcDbEntity
  8
EH2
100
AcDbPolyline
 90
2
 70
0
 10
-80.00000000000003
 20
251.24355652982138
 10
-80.00000000000003
 20
251.24355652982138
  0
LWPOLYLINE
  5
22C
330
17
100
AcDbEntity
  8
EH2
100
AcDbPolyline
 90
2
 70
0
 10
-80.00000000000003
 20
251.24355652982138
 10
-61.22934917841435
 20
259.34313455158014
  0
LWPOLYLINE
  5
22D
330
17
100
AcDbEntity
  8
EH2
100
AcDbPolyline
 90
2
 70
0
 10
-61.22934917841435
 20
259.34313455158014
 10
-80.00000000000003
 20
251.24355652982138
  0
LWPOLYLINE
  5
22E
330
17
100
AcDbEntity
  8
EH2
100
AcDbPolyline
 90
2
 70
0
 10
-80.00000000000003
 20
251.24355652982138
 10
-61.22934917841435
 20
259.34313455158014
  0
LWPOLYLINE
  5
22F
330
17
100
AcDbEntity
  8
EH2
100
AcDbPolyline
 90
2
 70
0
 10
-61.22934917841435
 20
259.34313455158014
 10
-61.22934917841435
 20
259.34313455158014
  0
LWPOLYLINE
  5
230
330
17
100
AcDbEntity
  8
EH2
100
AcDbPolyline
 90
2
 70
0
 10
-61.22934917841435
 20
259.34313455158014
 10
-41.41104721640333
 20
265.2296156804696
  0
LWPOLYLINE
  5
231
330
17
100
AcDbEntity
  8
EH2
100
AcDbPolyline
 90
2
 70
0
 10
-41.41104721640333
 20
265.2296156804696
 10
-61.22934917841435
 20
259.34313455158014
  0
LWPOLYLINE
  5
232
330
17
100
AcDbEntity
  8
EH2
100
AcDbPolyline
 90
2
 70
0
 10
-61.22934917841435
 20
259.34313455158014
 10
-41.41104721640333
 20
265.2296156804696
  0
LWPOLYLINE
  5
233
330
17
100
AcDbEntity
  8
EH2
100
AcDbPolyline
 90
2
 70
0
 10
-41.41104721640333
 20
265.2296156804696
 10
-41.41104721640333
 20
265.2296156804696
  0
LWPOLYLINE
  5
234
330
17
100
AcDbEntity
  8
EH2
100
AcDbPolyline
 90
2
 70
0
 10
-41.41104721640333
 20
265.2296156804696
 10
-20.884190755208255
 20
268.80228059233343
  0
LWPOLYLINE
  5
235
330
17
100
AcDbEntity
  8
EH2
100
AcDbPolyline
 90
2
 70
0
 10
-20.884190755208255
 20
268.80228059233343
 10
-41.41104721640333
 20
265.2296156804696
  0
LWPOLYLINE
  5
236
330
17
100
AcDbEntity
  8
EH2
100
AcDbPolyline
 90
2
 70
0
 10
-41.41104721640333
 20
265.2296156804696
 10
-20.884190755208255
 20
268.80228059233343
  0
LWPOLYLINE
  5
237
330
17
100
AcDbEntity
  8
EH2
100
AcDbPolyline
 90
2
 70
0
 10
-20.884190755208255
 20
268.80228059233343
 10
-20.884190755208255
 20
268.80228059233343
  0
LWPOLYLINE
  5
238
330
17
100
AcDbEntity
  8
EH2
100
AcDbPolyline
 90
2
 70
0
 10
-20.884190755208255
 20
268.80228059233343
 10
9.797174393178826e-15
 20
270.0
  0
LWPOLYLINE
  5
239
330
17
100
AcDbEntity
  8
EH2
100
AcDbPolyline
 90
2
 70
0
 10
9.797174393178826e-15
 20
270.0
 10
-20.884190755208255
 20
268.80228059233343
  0
LWPOLYLINE
  5
23A
330
17
100
AcDbEntity
  8
EH2
100
AcDbPolyline
 90
2
 70
0
 10
-20.884190755208255
 20
268.80228059233343
 10
9.797174393178826e-15
 20
270.0
  0
LWPOLYLINE
  5
23B
330
17
100
AcDbEntity
  8
EH2
100
AcDbPolyline
 90
2
 70
0
 10
9.797174393178826e-15
 20
270.0
 10
9.797174393178826e-15
 20
270.0
  0
LWPOLYLINE
  5
23C
330
17
100
AcDbEntity
  8
EH2
100
AcDbPolyline
 90
2
 70
0
 10
9.797174393178826e-15
 20
270.0
 10
20.884190755208238
 20
268.80228059233343
  0
LWPOLYLINE
  5
23D
330
17
100
AcDbEntity
  8
EH2
100
AcDbPolyline
 90
2
 70
0
 10
20.884190755208238
 20
268.80228059233343
 10
9.797174393178826e-15
 20
270.0
  0
LWPOLYLINE
  5
23E
330
17
100
AcDbEntity
  8
EH2
100
AcDbPolyline
 90
2
 70
0
 10
9.797174393178826e-15
 20
270.0
 10
20.884190755208238
 20
268.80228059233343
  0
LWPOLYLINE
  5
23F
330
17
100
AcDbEntity
  8
EH2
100
AcDbPolyline
 90
2
 70
0
 10
20.884190755208238
 20
268.80228059233343
 10
20.884190755208238
 20
268.80228059233343
  0
LWPOLYLINE
  5
240
330
17
100
AcDbEntity
  8
EH2
100
AcDbPolyline
 90
2
 70
0
 10
20.884190755208238
 20
268.80228059233343
 10
41.41104721640332
 20
265.2296156804696
  0
LWPOLYLINE
  5
241
330
17
100
AcDbEntity
  8
EH2
100
AcDbPolyline
 90
2
 70
0
 10
41.41104721640332
 20
265.2296156804696
 10
20.884190755208238
 20
268.80228059233343
  0
LWPOLYLINE
  5
242
330
17
100
AcDbEntity
  8
EH2
100
AcDbPolyline
 90
2
 70
0
 10
20.884190755208238
 20
268.80228059233343
 10
41.41104721640332
 20
265.2296156804696
  0
LWPOLYLINE
  5
243
330
17
100
AcDbEntity
  8
EH2
100
AcDbPolyline
 90
2
 70
0
 10
41.41104721640332
 20
265.2296156804696
 10
41.41104721640332
 20
265.2296156804696
  0
LWPOLYLINE
  5
244
330
17
100
AcDbEntity
  8
EH2
100
AcDbPolyline
 90
2
 70
0
 10
41.41104721640332
 20
265.2296156804696
 10
61.22934917841434
 20
259.3431345515802
  0
LWPOLYLINE
  5
245
330
17
100
AcDbEntity
  8
EH2
100
AcDbPolyline
 90
2
 70
0
 10
61.22934917841434
 20
259.3431345515802
 10
41.41104721640332
 20
265.2296156804696
  0
LWPOLYLINE
  5
246
330
17
100
AcDbEntity
  8
EH2
100
AcDbPolyline
 90
2
 70
0
 10
41.41104721640332
 20
265.2296156804696
 10
61.22934917841434
 20
259.3431345515802
  0
LWPOLYLINE
  5
247
330
17
100
AcDbEntity
  8
EH2
100
AcDbPolyline
 90
2
 70
0
 10
61.22934917841434
 20
259.3431345515802
 10
61.22934917841434
 20
259.3431345515802
  0
LWPOLYLINE
  5
248
330
17
100
AcDbEntity
  8
EH2
100
AcDbPolyline
 90
2
 70
0
 10
61.22934917841434
 20
259.3431345515802
 10
79.99999999999999
 20
251.24355652982143
  0
LWPOLYLINE
  5
249
330
17
100
AcDbEntity
  8
EH2
100
AcDbPolyline
 90
2
 70
0
 10
79.99999999999999
 20
251.24355652982143
 10
61.22934917841434
 20
259.3431345515802
  0
LWPOLYLINE
  5
24A
330
17
100
AcDbEntity
  8
EH2
100
AcDbPolyline
 90
2
 70
0
 10
61.22934917841434
 20
259.3431345515802
 10
79.99999999999999
 20
251.24355652982143
  0
LWPOLYLINE
  5
24B
330
17
100
AcDbEntity
  8
EH2
100
AcDbPolyline
 90
2
 70
0
 10
79.99999999999999
 20
251.24355652982143
 10
79.99999999999999
 20
251.24355652982143
  0
LWPOLYLINE
  5
24C
330
17
100
AcDbEntity
  8
EH2
100
AcDbPolyline
 90
2
 70
0
 10
79.99999999999999
 20
251.24355652982143
 10
97.40182864139527
 20
241.06946764077293
  0
LWPOLYLINE
  5
24D
330
17
100
AcDbEntity
  8
EH2
100
AcDbPolyline
 90
2
 70
0
 10
97.40182864139527
 20
241.06946764077293
 10
79.99999999999999
 20
251.24355652982143
  0
LWPOLYLINE
  5
24E
330
17
100
AcDbEntity
  8
EH2
100
AcDbPolyline
 90
2
 70
0
 10
79.99999999999999
 20
251.24355652982143
 10
97.40182864139527
 20
241.06946764077293
  0
LWPOLYLINE
  5
24F
330
17
100
AcDbEntity
  8
EH2
100
AcDbPolyline
 90
2
 70
0
 10
97.40182864139527
 20
241.06946764077293
 10
97.40182864139527
 20
241.06946764077293
  0
LWPOLYLINE
  5
250
330
17
100
AcDbEntity
  8
EH2
100
AcDbPolyline
 90
2
 70
0
 10
97.40182864139527
 20
241.06946764077293
 10
113.13708498984761
 20
228.99494936611666
  0
LWPOLYLINE
  5
251
330
17
100
AcDbEntity
  8
EH2
100
AcDbPolyline
 90
2
 70
0
 10
113.13708498984761
 20
228.99494936611666
 10
97.40182864139527
 20
241.06946764077293
  0
LWPOLYLINE
  5
252
330
17
100
AcDbEntity
  8
EH2
100
AcDbPolyline
 90
2
 70
0
 10
97.40182864139527
 20
241.06946764077293
 10
113.13708498984761
 20
228.99494936611666
  0
LWPOLYLINE
  5
253
330
17
100
AcDbEntity
  8
EH2
100
AcDbPolyline
 90
2
 70
0
 10
113.13708498984761
 20
228.99494936611666
 10
113.13708498984761
 20
228.99494936611666
  0
LWPOLYLINE
  5
254
330
17
100
AcDbEntity
  8
EH2
100
AcDbPolyline
 90
2
 70
0
 10
113.13708498984761
 20
228.99494936611666
 10
126.9365344465976
 20
215.2266000612209
  0
LWPOLYLINE
  5
255
330
17
100
AcDbEntity
  8
EH2
100
AcDbPolyline
 90
2
 70
0
 10
126.9365344465976
 20
215.2266000612209
 10
113.13708498984761
 20
228.99494936611666
  0
LWPOLYLINE
  5
256
330
17
100
AcDbEntity
  8
EH2
100
AcDbPolyline
 90
2
 70
0
 10
113.13708498984761
 20
228.99494936611666
 10
126.9365344465976
 20
215.2266000612209
  0
LWPOLYLINE
  5
257
330
17
100
AcDbEntity
  8
EH2
100
AcDbPolyline
 90
2
 70
0
 10
126.9365344465976
 20
215.2266000612209
 10
126.9365344465976
 20
215.2266000612209
  0
LWPOLYLINE
  5
258
330
17
100
AcDbEntity
  8
EH2
100
AcDbPolyline
 90
2
 70
0
 10
126.9365344465976
 20
215.2266000612209
 10
138.56406460551017
 20
200.00000000000003
  0
LWPOLYLINE
  5
259
330
17
100
AcDbEntity
  8
EH2
100
AcDbPolyline
 90
2
 70
0
 10
138.56406460551017
 20
200.00000000000003
 10
126.9365344465976
 20
215.2266000612209
  0
LWPOLYLINE
  5
25A
330
17
100
AcDbEntity
  8
EH2
100
AcDbPolyline
 90
2
 70
0
 10
126.9365344465976
 20
215.2266000612209
 10
138.56406460551017
 20
200.00000000000003
  0
LWPOLYLINE
  5
25B
330
17
100
AcDbEntity
  8
EH2
100
AcDbPolyline
 90
2
 70
0
 10
138.56406460551017
 20
200.00000000000003
 10
138.56406460551017
 20
200.00000000000003
  0
LWPOLYLINE
  5
25C
330
17
100
AcDbEntity
  8
EH2
100
AcDbPolyline
 90
2
 70
0
 10
138.56406460551017
 20
200.00000000000003
 10
147.82072520180589
 20
183.57568053111257
  0
LWPOLYLINE
  5
25D
330
17
100
AcDbEntity
  8
EH2
100
AcDbPolyline
 90
2
 70
0
 10
147.82072520180589
 20
183.57568053111257
 10
138.56406460551017
 20
200.00000000000003
  0
LWPOLYLINE
  5
25E
330
17
100
AcDbEntity
  8
EH2
100
AcDbPolyline
 90
2
 70
0
 10
138.56406460551017
 20
200.00000000000003
 10
147.82072520180589
 20
183.57568053111257
  0
LWPOLYLINE
  5
25F
330
17
100
AcDbEntity
  8
EH2
100
AcDbPolyline
 90
2
 70
0
 10
147.82072520180589
 20
183.57568053111257
 10
147.82072520180589
 20
183.57568053111257
  0
LWPOLYLINE
  5
260
330
17
100
AcDbEntity
  8
EH2
100
AcDbPolyline
 90
2
 70
0
 10
147.82072520180589
 20
183.57568053111257
 10
154.5481322062509
 20
166.23466631435292
  0
LWPOLYLINE
  5
261
330
17
100
AcDbEntity
  8
EH2
100
AcDbPolyline
 90
2
 70
0
 10
154.5481322062509
 20
166.23466631435292
 10
147.82072520180589
 20
183.57568053111257
  0
LWPOLYLINE
  5
262
330
17
100
AcDbEntity
  8
EH2
100
AcDbPolyline
 90
2
 70
0
 10
147.82072520180589
 20
183.57568053111257
 10
154.5481322062509
 20
166.23466631435292
  0
LWPOLYLINE
  5
263
330
17
100
AcDbEntity
  8
EH2
100
AcDbPolyline
 90
2
 70
0
 10
154.5481322062509
 20
166.23466631435292
 10
154.5481322062509
 20
166.23466631435292
  0
LWPOLYLINE
  5
264
330
17
100
AcDbEntity
  8
EH2
100
AcDbPolyline
 90
2
 70
0
 10
154.5481322062509
 20
166.23466631435292
 10
158.63117781980966
 20
148.27366691080726
  0
LWPOLYLINE
  5
265
330
17
100
AcDbEntity
  8
EH2
100
AcDbPolyline
 90
2
 70
0
 10
158.63117781980966
 20
148.27366691080726
 10
154.5481322062509
 20
166.23466631435292
  0
LWPOLYLINE
  5
266
330
17
100
AcDbEntity
  8
EH2
100
AcDbPolyline
 90
2
 70
0
 10
154.5481322062509
 20
166.23466631435292
 10
158.63117781980966
 20
148.27366691080726
  0
LWPOLYLINE
  5
267
330
17
100
AcDbEntity
  8
EH2
100
AcDbPolyline
 90
2
 70
0
 10
158.63117781980966
 20
148.27366691080726
 10
158.63117781980966
 20
148.27366691080726
  0
LWPOLYLINE
  5
268
330
17
100
AcDbEntity
  8
EH2
100
AcDbPolyline
 90
2
 70
0
 10
158.63117781980966
 20
148.27366691080726
 10
160.0
 20
130.0
  0
LWPOLYLINE
  5
269
330
17
100
AcDbEntity
  8
EH2
100
AcDbPolyline
 90
2
 70
0
 10
160.0
 20
130.0
 10
158.63117781980966
 20
148.27366691080726
  0
LWPOLYLINE
  5
26A
330
17
100
AcDbEntity
  8
EH2
100
AcDbPolyline
 90
2
 70
0
 10
158.63117781980966
 20
148.27366691080726
 10
160.0
 20
130.0
  0
LWPOLYLINE
  5
26B
330
17
100
AcDbEntity
  8
EH2
100
AcDbPolyline
 90
2
 70
0
 10
160.0
 20
130.0
 10
160.0
 20
130.0
  0
LWPOLYLINE
  5
26D
330
17
100
AcDbEntity
  8
EH3
100
AcDbPolyline
 90
2
 70
0
 10
-333.0
 20
441.0
 10
-333.0
 20
441.0
  0
LWPOLYLINE
  5
26E
330
17
100
AcDbEntity
  8
EH3
100
AcDbPolyline
 90
2
 70
0
 10
-333.0
 20
441.0
 10
-330.15113883747887
 20
459.0126145263671
  0
LWPOLYLINE
  5
26F
330
17
100
AcDbEntity
  8
EH3
100
AcDbPolyline
 90
2
 70
0
 10
-330.15113883747887
 20
459.0126145263671
 10
-333.0
 20
441.0
  0
LWPOLYLINE
  5
270
330
17
100
AcDbEntity
  8
EH3
100
AcDbPolyline
 90
2
 70
0
 10
-333.0
 20
441.0
 10
-330.15113883747887
 20
459.0126145263671
  0
LWPOLYLINE
  5
271
330
17
100
AcDbEntity
  8
EH3
100
AcDbPolyline
 90
2
 70
0
 10
-330.15113883747887
 20
459.0126145263671
 10
-330.15113883747887
 20
459.0126145263671
  0
LWPOLYLINE
  5
272
330
17
100
AcDbEntity
  8
EH3
100
AcDbPolyline
 90
2
 70
0
 10
-330.15113883747887
 20
459.0126145263671
 10
-321.65330015425974
 20
476.7170282241479
  0
LWPOLYLINE
  5
273
330
17
100
AcDbEntity
  8
EH3
100
AcDbPolyline
 90
2
 70
0
 10
-321.65330015425974
 20
476.7170282241479
 10
-330.15113883747887
 20
459.0126145263671
  0
LWPOLYLINE
  5
274
330
17
100
AcDbEntity
  8
EH3
100
AcDbPolyline
 90
2
 70
0
 10
-330.15113883747887
 20
459.0126145263671
 10
-321.65330015425974
 20
476.7170282241479
  0
LWPOLYLINE
  5
275
330
17
100
AcDbEntity
  8
EH3
100
AcDbPolyline
 90
2
 70
0
 10
-321.65330015425974
 20
476.7170282241479
 10
-321.65330015425974
 20
476.7170282241479
  0
LWPOLYLINE
  5
276
330
17
100
AcDbEntity
  8
EH3
100
AcDbPolyline
 90
2
 70
0
 10
-321.65330015425974
 20
476.7170282241479
 10
-307.6518843262585
 20
493.8103136663824
  0
LWPOLYLINE
  5
277
330
17
100
AcDbEntity
  8
EH3
100
AcDbPolyline
 90
2
 70
0
 10
-307.6518843262585
 20
493.8103136663824
 10
-321.65330015425974
 20
476.7170282241479
  0
LWPOLYLINE
  5
278
330
17
100
AcDbEntity
  8
EH3
100
AcDbPolyline
 90
2
 70
0
 10
-321.65330015425974
 20
476.7170282241479
 10
-307.6518843262585
 20
493.8103136663824
  0
LWPOLYLINE
  5
279
330
17
100
AcDbEntity
  8
EH3
100
AcDbPolyline
 90
2
 70
0
 10
-307.6518843262585
 20
493.8103136663824
 10
-307.6518843262585
 20
493.8103136663824
  0
LWPOLYLINE
  5
27A
330
17
100
AcDbEntity
  8
EH3
100
AcDbPolyline
 90
2
 70
0
 10
-307.6518843262585
 20
493.8103136663824
 10
-288.3864594602181
 20
510.0
  0
LWPOLYLINE
  5
27B
330
17
100
AcDbEntity
  8
EH3
100
AcDbPolyline
 90
2
 70
0
 10
-288.3864594602181
 20
510.0
 10
-307.6518843262585
 20
493.8103136663824
  0
LWPOLYLINE
  5
27C
330
17
100
AcDbEntity
  8
EH3
100
AcDbPolyline
 90
2
 70
0
 10
-307.6518843262585
 20
493.8103136663824
 10
-288.3864594602181
 20
510.0
  0
LWPOLYLINE
  5
27D
330
17
100
AcDbEntity
  8
EH3
100
AcDbPolyline
 90
2
 70
0
 10
-288.3864594602181
 20
510.0
 10
-288.3864594602181
 20
510.0
  0
LWPOLYLINE
  5
27E
330
17
100
AcDbEntity
  8
EH3
100
AcDbPolyline
 90
2
 70
0
 10
-288.3864594602181
 20
510.0
 10
-264.18666231698126
 20
525.0090772032034
  0
LWPOLYLINE
  5
27F
330
17
100
AcDbEntity
  8
EH3
100
AcDbPolyline
 90
2
 70
0
 10
-264.18666231698126
 20
525.0090772032034
 10
-288.3864594602181
 20
510.0
  0
LWPOLYLINE
  5
280
330
17
100
AcDbEntity
  8
EH3
100
AcDbPolyline
 90
2
 70
0
 10
-288.3864594602181
 20
510.0
 10
-264.18666231698126
 20
525.0090772032034
  0
LWPOLYLINE
  5
281
330
17
100
AcDbEntity
  8
EH3
100
AcDbPolyline
 90
2
 70
0
 10
-264.18666231698126
 20
525.0090772032034
 10
-264.18666231698126
 20
525.0090772032034
  0
LWPOLYLINE
  5
282
330
17
100
AcDbEntity
  8
EH3
100
AcDbPolyline
 90
2
 70
0
 10
-264.18666231698126
 20
525.0090772032034
 10
-235.4665581351203
 20
538.5807358037436
  0
LWPOLYLINE
  5
283
330
17
100
AcDbEntity
  8
EH3
100
AcDbPolyline
 90
2
 70
0
 10
-235.4665581351203
 20
538.5807358037436
 10
-264.18666231698126
 20
525.0090772032034
  0
LWPOLYLINE
  5
284
330
17
100
AcDbEntity
  8
EH3
100
AcDbPolyline
 90
2
 70
0
 10
-264.18666231698126
 20
525.0090772032034
 10
-235.4665581351203
 20
538.5807358037436
  0
LWPOLYLINE
  5
285
330
17
100
AcDbEntity
  8
EH3
100
AcDbPolyline
 90
2
 70
0
 10
-235.4665581351203
 20
538.5807358037436
 10
-235.4665581351203
 20
538.5807358037436
  0
LWPOLYLINE
  5
286
330
17
100
AcDbEntity
  8
EH3
100
AcDbPolyline
 90
2
 70
0
 10
-235.4665581351203
 20
538.5807358037436
 10
-202.71755585990397
 20
550.4827609601905
  0
LWPOLYLINE
  5
287
330
17
100
AcDbEntity
  8
EH3
100
AcDbPolyline
 90
2
 70
0
 10
-202.71755585990397
 20
550.4827609601905
 10
-235.4665581351203
 20
538.5807358037436
  0
LWPOLYLINE
  5
288
330
17
100
AcDbEntity
  8
EH3
100
AcDbPolyline
 90
2
 70
0
 10
-235.4665581351203
 20
538.5807358037436
 10
-202.71755585990397
 20
550.4827609601905
  0
LWPOLYLINE
  5
289
330
17
100
AcDbEntity
  8
EH3
100
AcDbPolyline
 90
2
 70
0
 10
-202.71755585990397
 20
550.4827609601905
 10
-202.71755585990397
 20
550.4827609601905
  0
LWPOLYLINE
  5
28A
330
17
100
AcDbEntity
  8
EH3
100
AcDbPolyline
 90
2
 70
0
 10
-202.71755585990397
 20
550.4827609601905
 10
-166.50000000000009
 20
560.5115057222525
  0
LWPOLYLINE
  5
28B
330
17
100
AcDbEntity
  8
EH3
100
AcDbPolyline
 90
2
 70
0
 10
-166.50000000000009
 20
560.5115057222525
 10
-202.71755585990397
 20
550.4827609601905
  0
LWPOLYLINE
  5
28C
330
17
100
AcDbEntity
  8
EH3
100
AcDbPolyline
 90
2
 70
0
 10
-202.71755585990397
 20
550.4827609601905
 10
-166.50000000000009
 20
560.5115057222525
  0
LWPOLYLINE
  5
28D
330
17
100
AcDbEntity
  8
EH3
100
AcDbPolyline
 90
2
 70
0
 10
-166.50000000000009
 20
560.5115057222525
 10
-166.50000000000009
 20
560.5115057222525
  0
LWPOLYLINE
  5
28E
330
17
100
AcDbEntity
  8
EH3
100
AcDbPolyline
 90
2
 70
0
 10
-166.50000000000009
 20
560.5115057222525
 10
-127.43358297757487
 20
568.4953754865576
  0
LWPOLYLINE
  5
28F
330
17
100
AcDbEntity
  8
EH3
100
AcDbPolyline
 90
2
 70
0
 10
-127.43358297757487
 20
568.4953754865576
 10
-166.50000000000009
 20
560.5115057222525
  0
LWPOLYLINE
  5
290
330
17
100
AcDbEntity
  8
EH3
100
AcDbPolyline
 90
2
 70
0
 10
-166.50000000000009
 20
560.5115057222525
 10
-127.43358297757487
 20
568.4953754865576
  0
LWPOLYLINE
  5
291
330
17
100
AcDbEntity
  8
EH3
100
AcDbPolyline
 90
2
 70
0
 10
-127.43358297757487
 20
568.4953754865576
 10
-127.43358297757487
 20
568.4953754865576
  0
LWPOLYLINE
  5
292
330
17
100
AcDbEntity
  8
EH3
100
AcDbPolyline
 90
2
 70
0
 10
-127.43358297757487
 20
568.4953754865576
 10
-86.18674201913944
 20
574.2977640278914
  0
LWPOLYLINE
  5
293
330
17
100
AcDbEntity
  8
EH3
100
AcDbPolyline
 90
2
 70
0
 10
-86.18674201913944
 20
574.2977640278914
 10
-127.43358297757487
 20
568.4953754865576
  0
LWPOLYLINE
  5
294
330
17
100
AcDbEntity
  8
EH3
100
AcDbPolyline
 90
2
 70
0
 10
-127.43358297757487
 20
568.4953754865576
 10
-86.18674201913944
 20
574.2977640278914
  0
LWPOLYLINE
  5
295
330
17
100
AcDbEntity
  8
EH3
100
AcDbPolyline
 90
2
 70
0
 10
-86.18674201913944
 20
574.2977640278914
 10
-86.18674201913944
 20
574.2977640278914
  0
LWPOLYLINE
  5
296
330
17
100
AcDbEntity
  8
EH3
100
AcDbPolyline
 90
2
 70
0
 10
-86.18674201913944
 20
574.2977640278914
 10
-43.465222009277184
 20
577.8193908695858
  0
LWPOLYLINE
  5
297
330
17
100
AcDbEntity
  8
EH3
100
AcDbPolyline
 90
2
 70
0
 10
-43.465222009277184
 20
577.8193908695858
 10
-86.18674201913944
 20
574.2977640278914
  0
LWPOLYLINE
  5
298
330
17
100
AcDbEntity
  8
EH3
100
AcDbPolyline
 90
2
 70
0
 10
-86.18674201913944
 20
574.2977640278914
 10
-43.465222009277184
 20
577.8193908695858
  0
LWPOLYLINE
  5
299
330
17
100
AcDbEntity
  8
EH3
100
AcDbPolyline
 90
2
 70
0
 10
-43.465222009277184
 20
577.8193908695858
 10
-43.465222009277184
 20
577.8193908695858
  0
LWPOLYLINE
  5
29A
330
17
100
AcDbEntity
  8
EH3
100
AcDbPolyline
 90
2
 70
0
 10
-43.465222009277184
 20
577.8193908695858
 10
2.039036920580343e-14
 20
579.0
  0
LWPOLYLINE
  5
29B
330
17
100
AcDbEntity
  8
EH3
100
AcDbPolyline
 90
2
 70
0
 10
2.039036920580343e-14
 20
579.0
 10
-43.465222009277184
 20
577.8193908695858
  0
LWPOLYLINE
  5
29C
330
17
100
AcDbEntity
  8
EH3
100
AcDbPolyline
 90
2
 70
0
 10
-43.465222009277184
 20
577.8193908695858
 10
2.039036920580343e-14
 20
579.0
  0
LWPOLYLINE
  5
29D
330
17
100
AcDbEntity
  8
EH3
100
AcDbPolyline
 90
2
 70
0
 10
2.039036920580343e-14
 20
579.0
 10
2.039036920580343e-14
 20
579.0
  0
LWPOLYLINE
  5
29E
330
17
100
AcDbEntity
  8
EH3
100
AcDbPolyline
 90
2
 70
0
 10
2.039036920580343e-14
 20
579.0
 10
43.46522200927715
 20
577.8193908695858
  0
LWPOLYLINE
  5
29F
330
17
100
AcDbEntity
  8
EH3
100
AcDbPolyline
 90
2
 70
0
 10
43.46522200927715
 20
577.8193908695858
 10
2.039036920580343e-14
 20
579.0
  0
LWPOLYLINE
  5
2A0
330
17
100
AcDbEntity
  8
EH3
100
AcDbPolyline
 90
2
 70
0
 10
2.039036920580343e-14
 20
579.0
 10
43.46522200927715
 20
577.8193908695858
  0
LWPOLYLINE
  5
2A1
330
17
100
AcDbEntity
  8
EH3
100
AcDbPolyline
 90
2
 70
0
 10
43.46522200927715
 20
577.8193908695858
 10
43.46522200927715
 20
577.8193908695858
  0
LWPOLYLINE
  5
2A2
330
17
100
AcDbEntity
  8
EH3
100
AcDbPolyline
 90
2
 70
0
 10
43.46522200927715
 20
577.8193908695858
 10
86.1867420191394
 20
574.2977640278914
  0
LWPOLYLINE
  5
2A3
330
17
100
AcDbEntity
  8
EH3
100
AcDbPolyline
 90
2
 70
0
 10
86.1867420191394
 20
574.2977640278914
 10
43.46522200927715
 20
577.8193908695858
  0
LWPOLYLINE
  5
2A4
330
17
100
AcDbEntity
  8
EH3
100
AcDbPolyline
 90
2
 70
0
 10
43.46522200927715
 20
577.8193908695858
 10
86.1867420191394
 20
574.2977640278914
  0
LWPOLYLINE
  5
2A5
330
17
100
AcDbEntity
  8
EH3
100
AcDbPolyline
 90
2
 70
0
 10
86.1867420191394
 20
574.2977640278914
 10
86.1867420191394
 20
574.2977640278914
  0
LWPOLYLINE
  5
2A6
330
17
100
AcDbEntity
  8
EH3
100
AcDbPolyline
 90
2
 70
0
 10
86.1867420191394
 20
574.2977640278914
 10
127.43358297757484
 20
568.4953754865576
  0
LWPOLYLINE
  5
2A7
330
17
100
AcDbEntity
  8
EH3
100
AcDbPolyline
 90
2
 70
0
 10
127.43358297757484
 20
568.4953754865576
 10
86.1867420191394
 20
574.2977640278914
  0
LWPOLYLINE
  5
2A8
330
17
100
AcDbEntity
  8
EH3
100
AcDbPolyline
 90
2
 70
0
 10
86.1867420191394
 20
574.2977640278914
 10
127.43358297757484
 20
568.4953754865576
  0
LWPOLYLINE
  5
2A9
330
17
100
AcDbEntity
  8
EH3
100
AcDbPolyline
 90
2
 70
0
 10
127.43358297757484
 20
568.4953754865576
 10
127.43358297757484
 20
568.4953754865576
  0
LWPOLYLINE
  5
2AA
330
17
100
AcDbEntity
  8
EH3
100
AcDbPolyline
 90
2
 70
0
 10
127.43358297757484
 20
568.4953754865576
 10
166.49999999999997
 20
560.5115057222525
  0
LWPOLYLINE
  5
2AB
330
17
100
AcDbEntity
  8
EH3
100
AcDbPolyline
 90
2
 70
0
 10
166.49999999999997
 20
560.5115057222525
 10
127.43358297757484
 20
568.4953754865576
  0
LWPOLYLINE
  5
2AC
330
17
100
AcDbEntity
  8
EH3
100
AcDbPolyline
 90
2
 70
0
 10
127.43358297757484
 20
568.4953754865576
 10
166.49999999999997
 20
560.5115057222525
  0
LWPOLYLINE
  5
2AD
330
17
100
AcDbEntity
  8
EH3
100
AcDbPolyline
 90
2
 70
0
 10
166.49999999999997
 20
560.5115057222525
 10
166.49999999999997
 20
560.5115057222525
  0
LWPOLYLINE
  5
2AE
330
17
100
AcDbEntity
  8
EH3
100
AcDbPolyline
 90
2
 70
0
 10
166.49999999999997
 20
560.5115057222525
 10
202.7175558599039
 20
550.4827609601905
  0
LWPOLYLINE
  5
2AF
330
17
100
AcDbEntity
  8
EH3
100
AcDbPolyline
 90
2
 70
0
 10
202.7175558599039
 20
550.4827609601905
 10
166.49999999999997
 20
560.5115057222525
  0
LWPOLYLINE
  5
2B0
330
17
100
AcDbEntity
  8
EH3
100
AcDbPolyline
 90
2
 70
0
 10
166.49999999999997
 20
560.5115057222525
 10
202.7175558599039
 20
550.4827609601905
  0
LWPOLYLINE
  5
2B1
330
17
100
AcDbEntity
  8
EH3
100
AcDbPolyline
 90
2
 70
0
 10
202.7175558599039
 20
550.4827609601905
 10
202.7175558599039
 20
550.4827609601905
  0
LWPOLYLINE
  5
2B2
330
17
100
AcDbEntity
  8
EH3
100
AcDbPolyline
 90
2
 70
0
 10
202.7175558599039
 20
550.4827609601905
 10
235.46655813512035
 20
538.5807358037436
  0
LWPOLYLINE
  5
2B3
330
17
100
AcDbEntity
  8
EH3
100
AcDbPolyline
 90
2
 70
0
 10
235.46655813512035
 20
538.5807358037436
 10
202.7175558599039
 20
550.4827609601905
  0
LWPOLYLINE
  5
2B4
330
17
100
AcDbEntity
  8
EH3
100
AcDbPolyline
 90
2
 70
0
 10
202.7175558599039
 20
550.4827609601905
 10
235.46655813512035
 20
538.5807358037436
  0
LWPOLYLINE
  5
2B5
330
17
100
AcDbEntity
  8
EH3
100
AcDbPolyline
 90
2
 70
0
 10
235.46655813512035
 20
538.5807358037436
 10
235.46655813512035
 20
538.5807358037436
  0
LWPOLYLINE
  5
2B6
330
17
100
AcDbEntity
  8
EH3
100
AcDbPolyline
 90
2
 70
0
 10
235.46655813512035
 20
538.5807358037436
 10
264.18666231698126
 20
525.0090772032034
  0
LWPOLYLINE
  5
2B7
330
17
100
AcDbEntity
  8
EH3
100
AcDbPolyline
 90
2
 70
0
 10
264.18666231698126
 20
525.0090772032034
 10
235.46655813512035
 20
538.5807358037436
  0
LWPOLYLINE
  5
2B8
330
17
100
AcDbEntity
  8
EH3
100
AcDbPolyline
 90
2
 70
0
 10
235.46655813512035
 20
538.5807358037436
 10
264.18666231698126
 20
525.0090772032034
  0
LWPOLYLINE
  5
2B9
330
17
100
AcDbEntity
  8
EH3
100
AcDbPolyline
 90
2
 70
0
 10
264.18666231698126
 20
525.0090772032034
 10
264.18666231698126
 20
525.0090772032034
  0
LWPOLYLINE
  5
2BA
330
17
100
AcDbEntity
  8
EH3
100
AcDbPolyline
 90
2
 70
0
 10
264.18666231698126
 20
525.0090772032034
 10
288.386459460218
 20
510.0
  0
LWPOLYLINE
  5
2BB
330
17
100
AcDbEntity
  8
EH3
100
AcDbPolyline
 90
2
 70
0
 10
288.386459460218
 20
510.0
 10
264.18666231698126
 20
525.0090772032034
  0
LWPOLYLINE
  5
2BC
330
17
100
AcDbEntity
  8
EH3
100
AcDbPolyline
 90
2
 70
0
 10
264.18666231698126
 20
525.0090772032034
 10
288.386459460218
 20
510.0
  0
LWPOLYLINE
  5
2BD
330
17
100
AcDbEntity
  8
EH3
100
AcDbPolyline
 90
2
 70
0
 10
288.386459460218
 20
510.0
 10
288.386459460218
 20
510.0
  0
LWPOLYLINE
  5
2BE
330
17
100
AcDbEntity
  8
EH3
100
AcDbPolyline
 90
2
 70
0
 10
288.386459460218
 20
510.0
 10
307.6518843262585
 20
493.8103136663824
  0
LWPOLYLINE
  5
2BF
330
17
100
AcDbEntity
  8
EH3
100
AcDbPolyline
 90
2
 70
0
 10
307.6518843262585
 20
493.8103136663824
 10
288.386459460218
 20
510.0
  0
LWPOLYLINE
  5
2C0
330
17
100
AcDbEntity
  8
EH3
100
AcDbPolyline
 90
2
 70
0
 10
288.386459460218
 20
510.0
 10
307.6518843262585
 20
493.8103136663824
  0
LWPOLYLINE
  5
2C1
330
17
100
AcDbEntity
  8
EH3
100
AcDbPolyline
 90
2
 70
0
 10
307.6518843262585
 20
493.8103136663824
 10
307.6518843262585
 20
493.8103136663824
  0
LWPOLYLINE
  5
2C2
330
17
100
AcDbEntity
  8
EH3
100
AcDbPolyline
 90
2
 70
0
 10
307.6518843262585
 20
493.8103136663824
 10
321.65330015425974
 20
476.7170282241479
  0
LWPOLYLINE
  5
2C3
330
17
100
AcDbEntity
  8
EH3
100
AcDbPolyline
 90
2
 70
0
 10
321.65330015425974
 20
476.7170282241479
 10
307.6518843262585
 20
493.8103136663824
  0
LWPOLYLINE
  5
2C4
330
17
100
AcDbEntity
  8
EH3
100
AcDbPolyline
 90
2
 70
0
 10
307.6518843262585
 20
493.8103136663824
 10
321.65330015425974
 20
476.7170282241479
  0
LWPOLYLINE
  5
2C5
330
17
100
AcDbEntity
  8
EH3
100
AcDbPolyline
 90
2
 70
0
 10
321.65330015425974
 20
476.7170282241479
 10
321.65330015425974
 20
476.7170282241479
  0
LWPOLYLINE
  5
2C6
330
17
100
AcDbEntity
  8
EH3
100
AcDbPolyline
 90
2
 70
0
 10
321.65330015425974
 20
476.7170282241479
 10
330.15113883747887
 20
459.01261452636714
  0
LWPOLYLINE
  5
2C7
330
17
100
AcDbEntity
  8
EH3
100
AcDbPolyline
 90
2
 70
0
 10
330.15113883747887
 20
459.01261452636714
 10
321.65330015425974
 20
476.7170282241479
  0
LWPOLYLINE
  5
2C8
330
17
100
AcDbEntity
  8
EH3
100
AcDbPolyline
 90
2
 70
0
 10
321.65330015425974
 20
476.7170282241479
 10
330.15113883747887
 20
459.01261452636714
  0
LWPOLYLINE
  5
2C9
330
17
100
AcDbEntity
  8
EH3
100
AcDbPolyline
 90
2
 70
0
 10
330.15113883747887
 20
459.01261452636714
 10
330.15113883747887
 20
459.01261452636714
  0
LWPOLYLINE
  5
2CA
330
17
100
AcDbEntity
  8
EH3
100
AcDbPolyline
 90
2
 70
0
 10
330.15113883747887
 20
459.01261452636714
 10
333.0
 20
441.0
  0
LWPOLYLINE
  5
2CB
330
17
100
AcDbEntity
  8
EH3
100
AcDbPolyline
 90
2
 70
0
 10
333.0
 20
441.0
 10
330.15113883747887
 20
459.01261452636714
  0
LWPOLYLINE
  5
2CC
330
17
100
AcDbEntity
  8
EH3
100
AcDbPolyline
 90
2
 70
0
 10
330.15113883747887
 20
459.01261452636714
 10
333.0
 20
441.0
  0
LWPOLYLINE
  5
2CD
330
17
100
AcDbEntity
  8
EH3
100
AcDbPolyline
 90
2
 70
0
 10
333.0
 20
441.0
 10
333.0
 20
441.0
  0
LWPOLYLINE
  5
2CF
330
17
100
AcDbEntity
  8
E11
100
AcDbPolyline
 90
2
 70
0
 10
-540.0
 20
300.0
 10
-540.0
 20
410.0
  0
LWPOLYLINE
  5
2D0
330
17
100
AcDbEntity
  8
E11
100
AcDbPolyline
 90
2
 70
0
 10
-540.0
 20
410.0
 10
-480.0
 20
410.0
  0
LWPOLYLINE
  5
2D1
330
17
100
AcDbEntity
  8
E11
100
AcDbPolyline
 90
2
 70
0
 10
-480.0
 20
410.0
 10
-480.0
 20
300.0
  0
LWPOLYLINE
  5
2D2
330
17
100
AcDbEntity
  8
E11
100
AcDbPolyline
 90
2
 70
0
 10
-480.0
 20
300.0
 10
-540.0
 20
300.0
  0
LWPOLYLINE
  5
2D3
330
17
100
AcDbEntity
  8
E11
100
AcDbPolyline
 90
2
 70
0
 10
-540.0
 20
410.0
 10
-540.0
 20
300.0
  0
LWPOLYLINE
  5
2D4
330
17
100
AcDbEntity
  8
E11
100
AcDbPolyline
 90
2
 70
0
 10
-480.0
 20
410.0
 10
-540.0
 20
410.0
  0
LWPOLYLINE
  5
2D5
330
17
100
AcDbEntity
  8
E11
100
AcDbPolyline
 90
2
 70
0
 10
-480.0
 20
300.0
 10
-480.0
 20
410.0
  0
LWPOLYLINE
  5
2D6
330
17
100
AcDbEntity
  8
E11
100
AcDbPolyline
 90
2
 70
0
 10
-540.0
 20
300.0
 10
-480.0
 20
300.0
  0
LWPOLYLINE
  5
2D7
330
17
100
AcDbEntity
  8
E11
100
AcDbPolyline
 90
2
 70
0
 10
-540.0
 20
300.0
 10
-540.0
 20
300.0
  0
LWPOLYLINE
  5
2D8
330
17
100
AcDbEntity
  8
E11
100
AcDbPolyline
 90
2
 70
0
 10
-540.0
 20
410.0
 10
-540.0
 20
410.0
  0
LWPOLYLINE
  5
2D9
330
17
100
AcDbEntity
  8
E11
100
AcDbPolyline
 90
2
 70
0
 10
-480.0
 20
300.0
 10
-480.0
 20
300.0
  0
LWPOLYLINE
  5
2DA
330
17
100
AcDbEntity
  8
E11
100
AcDbPolyline
 90
2
 70
0
 10
-480.0
 20
410.0
 10
-480.0
 20
410.0
  0
ENDSEC
  0
SECTION
  2
OBJECTS
  0
DICTIONARY
  5
A
330
0
100
AcDbDictionary
281
1
  3
ACAD_COLOR
350
B
  3
ACAD_GROUP
350
C
  3
ACAD_LAYOUT
350
D
  3
ACAD_MATERIAL
350
E
  3
ACAD_MLEADERSTYLE
350
F
  3
ACAD_MLINESTYLE
350
10
  3
ACAD_PLOTSETTINGS
350
11
  3
ACAD_PLOTSTYLENAME
350
12
  3
ACAD_SCALELIST
350
14
  3
ACAD_TABLESTYLE
350
15
  3
ACAD_VISUALSTYLE
350
16
  3
EZDXF_META
350
2D
  0
DICTIONARY
  5
B
330
A
100
AcDbDictionary
281
1
  0
DICTIONARY
  5
C
330
A
100
AcDbDictionary
281
1
  0
DICTIONARY
  5
D
330
A
100
AcDbDictionary
281
1
  3
Model
350
1A
  3
Layout1
350
1E
  0
DICTIONARY
  5
E
330
A
100
AcDbDictionary
281
1
  3
ByBlock
350
1F
  3
ByLayer
350
20
  3
Global
350
21
  0
DICTIONARY
  5
F
330
A
100
AcDbDictionary
281
1
  3
Standard
350
2C
  0
DICTIONARY
  5
10
330
A
100
AcDbDictionary
281
1
  3
Standard
350
22
  0
DICTIONARY
  5
11
330
A
100
AcDbDictionary
281
1
  0
ACDBDICTIONARYWDFLT
  5
12
330
A
100
AcDbDictionary
281
1
  3
Normal
350
13
100
AcDbDictionaryWithDefault
340
13
  0
ACDBPLACEHOLDER
  5
13
330
12
  0
DICTIONARY
  5
14
330
A
100
AcDbDictionary
281
1
  0
DICTIONARY
  5
15
330
A
100
AcDbDictionary
281
1
  0
DICTIONARY
  5
16
330
A
100
AcDbDictionary
281
1
  0
LAYOUT
  5
1A
330
D
100
AcDbPlotSettings
  1

  4
A3
  6

 40
7.5
 41
20.0
 42
7.5
 43
20.0
 44
420.0
 45
297.0
 46
0.0
 47
0.0
 48
0.0
 49
0.0
140
0.0
141
0.0
142
1.0
143
1.0
 70
1024
 72
1
 73
0
 74
5
  7

 75
16
 76
0
 77
2
 78
300
147
1.0
148
0.0
149
0.0
100
AcDbLayout
  1
Model
 70
1
 71
0
 10
0.0
 20
0.0
 11
420.0
 21
297.0
 12
0.0
 22
0.0
 32
0.0
 14
1e+20
 24
1e+20
 34
1e+20
 15
-1e+20
 25
-1e+20
 35
-1e+20
146
0.0
 13
0.0
 23
0.0
 33
0.0
 16
1.0
 26
0.0
 36
0.0
 17
0.0
 27
1.0
 37
0.0
 76
1
330
17
  0
LAYOUT
  5
1E
330
D
100
AcDbPlotSettings
  1

  4
A3
  6

 40
7.5
 41
20.0
 42
7.5
 43
20.0
 44
420.0
 45
297.0
 46
0.0
 47
0.0
 48
0.0
 49
0.0
140
0.0
141
0.0
142
1.0
143
1.0
 70
0
 72
1
 73
0
 74
5
  7

 75
16
 76
0
 77
2
 78
300
147
1.0
148
0.0
149
0.0
100
AcDbLayout
  1
Layout1
 70
1
 71
1
 10
0.0
 20
0.0
 11
420.0
 21
297.0
 12
0.0
 22
0.0
 32
0.0
 14
1e+20
 24
1e+20
 34
1e+20
 15
-1e+20
 25
-1e+20
 35
-1e+20
146
0.0
 13
0.0
 23
0.0
 33
0.0
 16
1.0
 26
0.0
 36
0.0
 17
0.0
 27
1.0
 37
0.0
 76
1
330
1B
  0
MATERIAL
  5
1F
102
{ACAD_REACTORS
330
E
102
}
330
E
100
AcDbMaterial
  1
ByBlock
  2

 70
0
 40
1.0
 71
1
 41
1.0
 91
-1023410177
 42
1.0
 72
1
  3

 73
1
 74
1
 75
1
 44
0.5
 73
0
 45
1.0
 46
1.0
 77
1
  4

 78
1
 79
1
170
1
 48
1.0
171
1
  6

172
1
173
1
174
1
140
1.0
141
1.0
175
1
  7

176
1
177
1
178
1
143
1.0
179
1
  8

270
1
271
1
272
1
145
1.0
146
1.0
273
1
  9

274
1
275
1
276
1
 42
1.0
 72
1
  3

 73
1
 74
1
 75
1
 94
63
  0
MATERIAL
  5
20
102
{ACAD_REACTORS
330
E
102
}
330
E
100
AcDbMaterial
  1
ByLayer
  2

 70
0
 40
1.0
 71
1
 41
1.0
 91
-1023410177
 42
1.0
 72
1
  3

 73
1
 74
1
 75
1
 44
0.5
 73
0
 45
1.0
 46
1.0
 77
1
  4

 78
1
 79
1
170
1
 48
1.0
171
1
  6

172
1
173
1
174
1
140
1.0
141
1.0
175
1
  7

176
1
177
1
178
1
143
1.0
179
1
  8

270
1
271
1
272
1
145
1.0
146
1.0
273
1
  9

274
1
275
1
276
1
 42
1.0
 72
1
  3

 73
1
 74
1
 75
1
 94
63
  0
MATERIAL
  5
21
102
{ACAD_REACTORS
330
E
102
}
330
E
100
AcDbMaterial
  1
Global
  2

 70
0
 40
1.0
 71
1
 41
1.0
 91
-1023410177
 42
1.0
 72
1
  3

 73
1
 74
1
 75
1
 44
0.5
 73
0
 45
1.0
 46
1.0
 77
1
  4

 78
1
 79
1
170
1
 48
1.0
171
1
  6

172
1
173
1
174
1
140
1.0
141
1.0
175
1
  7

176
1
177
1
178
1
143
1.0
179
1
  8

270
1
271
1
272
1
145
1.0
146
1.0
273
1
  9

274
1
275
1
276
1
 42
1.0
 72
1
  3

 73
1
 74
1
 75
1
 94
63
  0
MLINESTYLE
  5
22
102
{ACAD_REACTORS
330
10
102
}
330
10
100
AcDbMlineStyle
  2
Standard
 70
0
  3

 62
256
 51
90.0
 52
90.0
 71
2
 49
0.5
 62
256
  6
BYLAYER
 49
-0.5
 62
256
  6
BYLAYER
  0
MLEADERSTYLE
  5
2C
102
{ACAD_REACTORS
330
F
102
}
330
F
100
AcDbMLeaderStyle
179
2
170
2
171
1
172
0
 90
2
 40
0.0
 41
0.0
173
1
 91
-1056964608
 92
-2
290
1
 42
2.0
291
1
 43
8.0
  3
Standard
 44
4.0
300

342
29
174
1
175
1
176
0
178
1
 93
-1056964608
 45
4.0
292
0
297
0
 46
4.0
 94
-1056964608
 47
1.0
 49
1.0
140
1.0
294
1
141
0.0
177
0
142
1.0
295
0
296
0
143
3.75
271
0
272
9
273
9
  0
DICTIONARY
  5
2D
330
A
100
AcDbDictionary
280
1
281
1
  3
CREATED_BY_EZDXF
350
2E
  3
WRITTEN_BY_EZDXF
350
2DD
  0
DICTIONARYVAR
  5
2E
330
2D
100
DictionaryVariables
280
0
  1
1.4.4 @ 2026-10-02T16:51:37.770029+00:00
  0
DICTIONARYVAR
  5
2DD
330
2D
100
DictionaryVariables
280
0
  1
1.4.4 @ 2026-10-02T16:51:37.810963+00:00
  0
ENDSEC
  0
EOF
