  0
SECTION
  2
HEADER
  9
$ACADVER
  1
AC1024
  9
$ACADMAINTVER
 70
6
  9
$DWGCODEPAGE
  3
ANSI_1252
  9
$LASTSAVEDBY
  1
ezdxf
  9
$INSBASE
 10
0.0
 20
0.0
 30
0.0
  9
$EXTMIN
 10
1e+20
 20
1e+20
 30
1e+20
  9
$EXTMAX
 10
-1e+20
 20
-1e+20
 30
-1e+20
  9
$LIMMIN
 10
0.0
 20
0.0
  9
$LIMMAX
 10
420.0
 20
297.0
  9
$ORTHOMODE
 70
0
  9
$REGENMODE
 70
1
  9
$FILLMODE
 70
1
  9
$QTEXTMODE
 70
0
  9
$MIRRTEXT
 70
1
  9
$LTSCALE
 40
1.0
  9
$ATTMODE
 70
1
  9
$TEXTSIZE
 40
2.5
  9
$TRACEWID
 40
1.0
  9
$TEXTSTYLE
  7
Standard
  9
$CLAYER
  8
0
  9
$CELTYPE
  6
ByLayer
  9
$CECOLOR
 62
256
  9
$CELTSCALE
 40
1.0
  9
$DISPSILH
 70
0
  9
$DIMSCALE
 40
1.0
  9
$DIMASZ
 40
2.5
  9
$DIMEXO
 40
0.625
  9
$DIMDLI
 40
3.75
  9
$DIMRND
 40
0.0
  9
$DIMDLE
 40
0.0
  9
$DIMEXE
 40
1.25
  9
$DIMTP
 40
0.0
  9
$DIMTM
 40
0.0
  9
$DIMTXT
 40
2.5
  9
$DIMCEN
 40
2.5
  9
$DIMTSZ
 40
0.0
  9
$DIMTOL
 70
0
  9
$DIMLIM
 70
0
  9
$DIMTIH
 70
0
  9
$DIMTOH
 70
0
  9
$DIMSE1
 70
0
  9
$DIMSE2
 70
0
  9
$DIMTAD
 70
1
  9
$DIMZIN
 70
8
  9
$DIMBLK
  1

  9
$DIMASO
 70
1
  9
$DIMSHO
 70
1
  9
$DIMPOST
  1

  9
$DIMAPOST
  1

  9
$DIMALT
 70
0
  9
$DIMALTD
 70
3
  9
$DIMALTF
 40
0.03937007874
  9
$DIMLFAC
 40
1.0
  9
$DIMTOFL
 70
1
  9
$DIMTVP
 40
0.0
  9
$DIMTIX
 70
0
  9
$DIMSOXD
 70
0
  9
$DIMSAH
 70
0
  9
$DIMBLK1
  1

  9
$DIMBLK2
  1

  9
$DIMSTYLE
  2
ISO-25
  9
$DIMCLRD
 70
0
  9
$DIMCLRE
 70
0
  9
$DIMCLRT
 70
0
  9
$DIMTFAC
 40
1.0
  9
$DIMGAP
 40
0.625
  9
$DIMJUST
 70
0
  9
$DIMSD1
 70
0
  9
$DIMSD2
 70
0
  9
$DIMTOLJ
 70
0
  9
$DIMTZIN
 70
8
  9
$DIMALTZ
 70
0
  9
$DIMALTTZ
 70
0
  9
$DIMUPT
 70
0
  9
$DIMDEC
 70
2
  9
$DIMTDEC
 70
2
  9
$DIMALTU
 70
2
  9
$DIMALTTD
 70
3
  9
$DIMTXSTY
  7
Standard
  9
$DIMAUNIT
 70
0
  9
$DIMADEC
 70
0
  9
$DIMALTRND
 40
0.0
  9
$DIMAZIN
 70
0
  9
$DIMDSEP
 70
44
  9
$DIMATFIT
 70
3
  9
$DIMFRAC
 70
0
  9
$DIMLDRBLK
  1

  9
$DIMLUNIT
 70
2
  9
$DIMLWD
 70
-2
  9
$DIMLWE
 70
-2
  9
$DIMTMOVE
 70
0
  9
$DIMFXL
 40
1.0
  9
$DIMFXLON
 70
0
  9
$DIMJOGANG
 40
0.785398163397
  9
$DIMTFILL
 70
0
  9
$DIMTFILLCLR
 70
0
  9
$DIMARCSYM
 70
0
  9
$DIMLTYPE
  6

  9
$DIMLTEX1
  6

  9
$DIMLTEX2
  6

  9
$DIMTXTDIRECTION
 70
0
  9
$LUNITS
 70
2
  9
$LUPREC
 70
4
  9
$SKETCHINC
 40
1.0
  9
$FILLETRAD
 40
10.0
  9
$AUNITS
 70
0
  9
$AUPREC
 70
2
  9
$MENU
  1
.
  9
$ELEVATION
 40
0.0
  9
$PELEVATION
 40
0.0
  9
$THICKNESS
 40
0.0
  9
$LIMCHECK
 70
0
  9
$CHAMFERA
 40
0.0
  9
$CHAMFERB
 40
0.0
  9
$CHAMFERC
 40
0.0
  9
$CHAMFERD
 40
0.0
  9
$SKPOLY
 70
0
  9
$TDCREATE
 40
2461316.752685185
  9
$TDUCREATE
 40
2458532.153996898
  9
$TDUPDATE
 40
2461316.752696759
  9
$TDUUPDATE
 40
2458532.1544311
  9
$TDINDWG
 40
0.0
  9
$TDUSRTIMER
 40
0.0
  9
$USRTIMER
 70
1
  9
$ANGBASE
 50
0.0
  9
$ANGDIR
 70
0
  9
$PDMODE
 70
0
  9
$PDSIZE
 40
0.0
  9
$PLINEWID
 40
0.0
  9
$SPLFRAME
 70
0
  9
$SPLINETYPE
 70
6
  9
$SPLINESEGS
 70
8
  9
$HANDSEED
  5
6C
  9
$SURFTAB1
 70
6
  9
$SURFTAB2
 70
6
  9
$SURFTYPE
 70
6
  9
$SURFU
 70
6
  9
$SURFV
 70
6
  9
$UCSBASE
  2

  9
$UCSNAME
  2

  9
$UCSORG
 10
0.0
 20
0.0
 30
0.0
  9
$UCSXDIR
 10
1.0
 20
0.0
 30
0.0
  9
$UCSYDIR
 10
0.0
 20
1.0
 30
0.0
  9
$UCSORTHOREF
  2

  9
$UCSORTHOVIEW
 70
0
  9
$UCSORGTOP
 10
0.0
 20
0.0
 30
0.0
  9
$UCSORGBOTTOM
 10
0.0
 20
0.0
 30
0.0
  9
$UCSORGLEFT
 10
0.0
 20
0.0
 30
0.0
  9
$UCSORGRIGHT
 10
0.0
 20
0.0
 30
0.0
  9
$UCSORGFRONT
 10
0.0
 20
0.0
 30
0.0
  9
$UCSORGBACK
 10
0.0
 20
0.0
 30
0.0
  9
$PUCSBASE
  2

  9
$PUCSNAME
  2

  9
$PUCSORG
 10
0.0
 20
0.0
 30
0.0
  9
$PUCSXDIR
 10
1.0
 20
0.0
 30
0.0
  9
$PUCSYDIR
 10
0.0
 20
1.0
 30
0.0
  9
$PUCSORTHOREF
  2

  9
$PUCSORTHOVIEW
 70
0
  9
$PUCSORGTOP
 10
0.0
 20
0.0
 30
0.0
  9
$PUCSORGBOTTOM
 10
0.0
 20
0.0
 30
0.0
  9
$PUCSORGLEFT
 10
0.0
 20
0.0
 30
0.0
  9
$PUCSORGRIGHT
 10
0.0
 20
0.0
 30
0.0
  9
$PUCSORGFRONT
 10
0.0
 20
0.0
 30
0.0
  9
$PUCSORGBACK
 10
0.0
 20
0.0
 30
0.0
  9
$USERI1
 70
0
  9
$USERI2
 70
0
  9
$USERI3
 70
0
  9
$USERI4
 70
0
  9
$USERI5
 70
0
  9
$USERR1
 40
0.0
  9
$USERR2
 40
0.0
  9
$USERR3
 40
0.0
  9
$USERR4
 40
0.0
  9
$USERR5
 40
0.0
  9
$WORLDVIEW
 70
1
  9
$SHADEDGE
 70
3
  9
$SHADEDIF
 70
70
  9
$TILEMODE
 70
1
  9
$MAXACTVP
 70
64
  9
$PINSBASE
 10
0.0
 20
0.0
 30
0.0
  9
$PLIMCHECK
 70
0
  9
$PEXTMIN
 10
1e+20
 20
1e+20
 30
1e+20
  9
$PEXTMAX
 10
-1e+20
 20
-1e+20
 30
-1e+20
  9
$PLIMMIN
 10
0.0
 20
0.0
  9
$PLIMMAX
 10
420.0
 20
297.0
  9
$UNITMODE
 70
0
  9
$VISRETAIN
 70
1
  9
$PLINEGEN
 70
0
  9
$PSLTSCALE
 70
1
  9
$TREEDEPTH
 70
3020
  9
$CMLSTYLE
  2
Standard
  9
$CMLJUST
 70
0
  9
$CMLSCALE
 40
20.0
  9
$PROXYGRAPHICS
 70
1
  9
$MEASUREMENT
 70
1
  9
$CELWEIGHT
370
-1
  9
$ENDCAPS
280
0
  9
$JOINSTYLE
280
0
  9
$LWDISPLAY
290
0
  9
$INSUNITS
 70
4
  9
$HYPERLINKBASE
  1

  9
$STYLESHEET
  1

  9
$XEDIT
290
1
  9
$CEPSNTYPE
380
0
  9
$PSTYLEMODE
290
1
  9
$FINGERPRINTGUID
  2
{A602BEC6-5B3F-4276-9156-CA67B36DB0B9}
  9
$VERSIONGUID
  2
{615C25F7-D704-4E6F-8178-188B57E5FB8E}
  9
$EXTNAMES
290
1
  9
$PSVPSCALE
 40
0.0
  9
$OLESTARTUP
290
0
  9
$SORTENTS
280
127
  9
$INDEXCTL
280
0
  9
$HIDETEXT
280
1
  9
$XCLIPFRAME
280
1
  9
$HALOGAP
280
0
  9
$OBSCOLOR
 70
257
  9
$OBSLTYPE
280
0
  9
$INTERSECTIONDISPLAY
280
0
  9
$INTERSECTIONCOLOR
 70
257
  9
$DIMASSOC
280
2
  9
$PROJECTNAME
  1

  9
$CAMERADISPLAY
290
0
  9
$LENSLENGTH
 40
50.0
  9
$CAMERAHEIGHT
 40
0.0
  9
$STEPSPERSEC
 40
24.0
  9
$STEPSIZE
 40
100.0
  9
$3DDWFPREC
 40
2.0
  9
$PSOLWIDTH
 40
0.005
  9
$PSOLHEIGHT
 40
0.08
  9
$LOFTANG1
 40
1.570796326795
  9
$LOFTANG2
 40
1.570796326795
  9
$LOFTMAG1
 40
0.0
  9
$LOFTMAG2
 40
0.0
  9
$LOFTPARAM
 70
7
  9
$LOFTNORMALS
280
1
  9
$LATITUDE
 40
37.795
  9
$LONGITUDE
 40
-122.394
  9
$NORTHDIRECTION
 40
0.0
  9
$TIMEZONE
 70
-8000
  9
$LIGHTGLYPHDISPLAY
280
1
  9
$TILEMODELIGHTSYNCH
280
1
  9
$CMATERIAL
347
20
  9
$SOLIDHIST
280
0
  9
$SHOWHIST
280
1
  9
$DWFFRAME
280
2
  9
$DGNFRAME
280
2
  9
$REALWORLDSCALE
290
1
  9
$INTERFERECOLOR
 62
256
  9
$CSHADOW
280
0
  9
$SHADOWPLANELOCATION
 40
0.0
  0
ENDSEC
  0
SECTION
  2
CLASSES
  0
CLASS
  1
ACDBDICTIONARYWDFLT
  2
AcDbDictionaryWithDefault
  3
ObjectDBX Classes
 90
0
 91
0
280
0
281
0
  0
CLASS
  1
SUN
  2
AcDbSun
  3
SCENEOE
 90
1153
 91
0
280
0
281
0
  0
CLASS
  1
VISUALSTYLE
  2
AcDbVisualStyle
  3
ObjectDBX Classes
 90
4095
 91
0
280
0
281
0
  0
CLASS
  1
MATERIAL
  2
AcDbMaterial
  3
ObjectDBX Classes
 90
1153
 91
0
280
0
281
0
  0
CLASS
  1
SCALE
  2
AcDbScale
  3
ObjectDBX Classes
 90
1153
 91
0
280
0
281
0
  0
CLASS
  1
TABLESTYLE
  2
AcDbTableStyle
  3
ObjectDBX Classes
 90
4095
 91
0
280
0
281
0
  0
CLASS
  1
MLEADERSTYLE
  2
AcDbMLeaderStyle
  3
ACDB_MLEADERSTYLE_CLASS
 90
4095
 91
0
280
0
281
0
  0
CLASS
  1
DICTIONARYVAR
  2
AcDbDictionaryVar
  3
ObjectDBX Classes
 90
0
 91
0
280
0
281
0
  0
CLASS
  1
CELLSTYLEMAP
  2
AcDbCellStyleMap
  3
ObjectDBX Classes
 90
1152
 91
0
280
0
281
0
  0
CLASS
  1
MENTALRAYRENDERSETTINGS
  2
AcDbMentalRayRenderSettings
  3
SCENEOE
 90
1024
 91
0
280
0
281
0
  0
CLASS
  1
ACDBDETAILVIEWSTYLE
  2
AcDbDetailViewStyle
  3
ObjectDBX Classes
 90
1025
 91
0
280
0
281
0
  0
CLASS
  1
ACDBSECTIONVIEWSTYLE
  2
AcDbSectionViewStyle
  3
ObjectDBX Classes
 90
1025
 91
0
280
0
281
0
  0
CLASS
  1
RASTERVARIABLES
  2
AcDbRasterVariables
  3
ISM
 90
0
 91
0
280
0
281
0
  0
CLASS
  1
ACDBPLACEHOLDER
  2
AcDbPlaceHolder
  3
ObjectDBX Classes
 90
0
 91
0
280
0
281
0
  0
CLASS
  1
LAYOUT
  2
AcDbLayout
  3
ObjectDBX Classes
 90
0
 91
0
280
0
281
0
  0
ENDSEC
  0
SECTION
  2
TABLES
  0
TABLE
  2
VPORT
  5
8
330
0
100
AcDbSymbolTable
 70
1
  0
VPORT
  5
23
330
8
100
AcDbSymbolTableRecord
100
AcDbViewportTableRecord
  2
*Active
 70
0
 10
0.0
 20
0.0
 11
1.0
 21
1.0
 12
0.0
 22
0.0
 13
0.0
 23
0.0
 14
0.5
 24
0.5
 15
0.5
 25
0.5
 16
0.0
 26
0.0
 36
1.0
 17
0.0
 27
0.0
 37
0.0
 40
1000.0
 41
1.34
 42
50.0
 43
0.0
 44
0.0
 50
0.0
 51
0.0
 71
0
 72
1000
 73
1
 74
3
 75
0
 76
0
 77
0
 78
0
281
0
 65
0
146
0.0
  0
ENDTAB
  0
TABLE
  2
LTYPE
  5
2
330
0
100
AcDbSymbolTable
 70
3
  0
LTYPE
  5
24
330
2
100
AcDbSymbolTableRecord
100
AcDbLinetypeTableRecord
  2
ByBlock
 70
0
  3

 72
65
 73
0
 40
0.0
  0
LTYPE
  5
25
330
2
100
AcDbSymbolTableRecord
100
AcDbLinetypeTableRecord
  2
ByLayer
 70
0
  3

 72
65
 73
0
 40
0.0
  0
LTYPE
  5
26
330
2
100
AcDbSymbolTableRecord
100
AcDbLinetypeTableRecord
  2
Continuous
 70
0
  3

 72
65
 73
0
 40
0.0
  0
ENDTAB
  0
TABLE
  2
LAYER
  5
1
330
0
100
AcDbSymbolTable
 70
2
  0
LAYER
  5
27
330
1
100
AcDbSymbolTableRecord
100
AcDbLayerTableRecord
  2
0
 70
0
 62
7
  6
Continuous
370
-3
390
13
347
21
  0
LAYER
  5
28
330
1
100
AcDbSymbolTableRecord
100
AcDbLayerTableRecord
  2
Defpoints
 70
0
 62
7
  6
Continuous
290
0
370
-3
390
13
347
21
  0
ENDTAB
  0
TABLE
  2
STYLE
  5
5
330
0
100
AcDbSymbolTable
 70
1
  0
STYLE
  5
29
330
5
100
AcDbSymbolTableRecord
100
AcDbTextStyleTableRecord
  2
Standard
 70
0
 40
0.0
 41
1.0
 50
0.0
 71
0
 42
2.5
  3
txt
  4

  0
ENDTAB
  0
TABLE
  2
VIEW
  5
7
330
0
100
AcDbSymbolTable
 70
0
  0
ENDTAB
  0
TABLE
  2
UCS
  5
6
330
0
100
AcDbSymbolTable
 70
0
  0
ENDTAB
  0
TABLE
  2
APPID
  5
3
330
0
100
AcDbSymbolTable
 70
3
  0
APPID
  5
2A
330
3
100
AcDbSymbolTableRecord
100
AcDbRegAppTableRecord
  2
ACAD
 70
0
  0
APPID
  5
69
330
3
100
AcDbSymbolTableRecord
100
AcDbRegAppTableRecord
  2
HATCHBACKGROUNDCOLOR
 70
0
  0
APPID
  5
6A
330
3
100
AcDbSymbolTableRecord
100
AcDbRegAppTableRecord
  2
EZDXF
 70
0
  0
ENDTAB
  0
TABLE
  2
DIMSTYLE
  5
4
330
0
100
AcDbSymbolTable
 70
1
100
AcDbDimStyleTable
  0
DIMSTYLE
105
2B
330
4
100
AcDbSymbolTableRecord
100
AcDbDimStyleTableRecord
  2
Standard
 70
0
 40
1.0
 41
2.5
 42
0.625
 43
3.75
 44
1.25
 45
0.0
 46
0.0
 47
0.0
 48
0.0
 49
2.5
140
2.5
141
2.5
142
0.0
143
0.03937007874
144
1.0
145
0.0
146
1.0
147
0.625
148
0.0
 69
0
 70
0
 71
0
 72
0
 73
0
 74
0
 75
0
 76
0
 77
1
 78
8
 79
3
170
0
171
3
172
1
173
0
174
0
175
0
176
0
177
0
178
0
179
2
271
2
272
2
273
2
274
3
275
0
276
0
277
2
278
44
279
0
280
0
281
0
282
0
283
0
284
8
285
0
286
0
288
0
289
3
290
0
371
-2
372
-2
  0
ENDTAB
  0
TABLE
  2
BLOCK_RECORD
  5
9
330
0
100
AcDbSymbolTable
 70
2
  0
BLOCK_RECORD
  5
17
330
9
100
AcDbSymbolTableRecord
100
AcDbBlockTableRecord
  2
*Model_Space
340
1A
 70
0
280
1
281
0
  0
BLOCK_RECORD
  5
1B
330
9
100
AcDbSymbolTableRecord
100
AcDbBlockTableRecord
  2
*Paper_Space
340
1E
 70
0
280
1
281
0
  0
ENDTAB
  0
ENDSEC
  0
SECTION
  2
BLOCKS
  0
BLOCK
  5
18
330
17
100
AcDbEntity
  8
0
100
AcDbBlockBegin
  2
*Model_Space
 70
0
 10
0.0
 20
0.0
 30
0.0
  3
*Model_Space
  1

  0
ENDBLK
  5
19
330
17
100
AcDbEntity
  8
0
100
AcDbBlockEnd
  0
BLOCK
  5
1C
330
1B
100
AcDbEntity
  8
0
100
AcDbBlockBegin
  2
*Paper_Space
 70
0
 10
0.0
 20
0.0
 30
0.0
  3
*Paper_Space
  1

  0
ENDBLK
  5
1D
330
1B
100
AcDbEntity
  8
0
100
AcDbBlockEnd
  0
ENDSEC
  0
SECTION
  2
ENTITIES
  0
LWPOLYLINE
  5
2F
330
17
100
AcDbEntity
  8
0
100
AcDbPolyline
 90
53
 70
1
 10
37.98644715259136
 20
-13.858553281083289
 10
25.58253888242344
 20
13.684513335509816
 10
16.89960591730511
 20
34.161258606148024
 10
8.503236765720779
 20
57.37514047311975
 10
0.9445117522897999
 20
83.55401303436207
 10
-5.268335387675489
 20
112.54612379137687
 10
-9.69292287544322
 20
143.868363300993
 10
-11.99876948331784
 20
176.79356293072055
 10
-12.000015437747722
 20
210.43991029161222
 10
-9.67554837979801
 20
243.85408565047436
 10
-5.18399364616922
 20
276.09246492663834
 10
1.124823124433455
 20
306.3096498789668
 10
8.71166702279769
 20
333.8616058405301
 10
16.88473351854987
 20
358.4214265241796
 10
24.902156895342024
 20
380.0959310310575
 10
32.180937313063296
 20
399.53874382560184
 10
42.304001555888696
 20
428.42801226817045
 10
74.27359731988449
 20
420.2491965982192
 10
96.08213439812317
 20
417.7467885648504
 10
119.56768489038818
 20
417.23559155710365
 10
144.8345333438432
 20
418.00621445769286
 10
171.9014935787254
 20
419.5385931106641
 10
200.73512207093825
 20
421.50106801240526
 10
231.23106822914355
 20
423.7347042997063
 10
263.17474036607234
 20
426.2736505626038
 10
296.1418569338925
 20
429.4609179753813
 10
340.24057297567924
 20
435.930485093275
 10
349.4706041643991
 20
405.78268871756546
 10
355.8520440954279
 20
384.00008942460187
 10
361.9424963297145
 20
359.9495391751871
 10
367.35812262852295
 20
333.40017319426306
 10
371.74325543071217
 20
304.44760738732947
 10
374.77355458729556
 20
273.4856651618724
 10
376.1943835920993
 20
241.1359633820365
 10
375.8566926108549
 20
208.1673447665497
 10
373.74239098642704
 20
175.4162553634647
 10
369.98297231353
 20
143.70805004791288
 10
364.8745253869882
 20
113.77339869649191
 10
358.8822698035959
 20
86.15386921483856
 10
352.60986674353114
 20
61.0966391871628
 10
346.6881678232733
 20
38.44821329111701
 10
341.5424543975106
 20
17.573026373706558
 10
334.59044691756156
 20
-13.839009528734818
 10
290.60376787830575
 20
-5.9787979440900445
 10
259.5055091478369
 20
-2.682690956317495
 10
229.3470696258033
 20
-1.035781079135149
 10
200.11151755947165
 20
-0.3906265247951114
 10
171.842176607197
 20
-0.3846332078464344
 10
144.5948367683418
 20
-0.8816653724119748
 10
118.43842605773602
 20
-1.9221311612793117
 10
93.48864405000742
 20
-3.7103869295142524
 10
70.01181405202588
 20
-6.647328878015825
 10
37.98644715259136
 20
-13.858553281083289
  0
TEXT
  5
30
330
17
100
AcDbEntity
  8
0
100
AcDbText
 10
0.0
 20
0.0
 30
0.0
 40
25.0
  1
O01 DRAFT
100
AcDbText
  0
LWPOLYLINE
  5
31
330
17
100
AcDbEntity
  8
0
100
AcDbPolyline
 90
53
 70
1
 10
1811.3539199089066
 20
12.085217022337526
 10
1826.694756082863
 20
41.459300759000186
 10
1835.5556821679372
 20
59.01437248745055
 10
1844.029083792046
 20
77.86447364736313
 10
1851.7133488657184
 20
98.6512820092305
 10
1857.9721343072515
 20
121.667846050613
 10
1862.1633114973554
 20
146.82101931028237
 10
1863.8734748753984
 20
173.59971721856675
 10
1862.9439853089025
 20
201.19099132674998
 10
1859.3796685116595
 20
228.65888315251354
 10
1853.297399449716
 20
255.09755585879418
 10
1844.9564986530618
 20
279.773055907221
 10
1834.837311668779
 20
302.26722896704183
 10
1823.6391002880625
 20
322.56024007161466
 10
1812.1106517606638
 20
340.9903337321722
 10
1800.8155501652752
 20
358.13476512777856
 10
1782.8836499951597
 20
385.4161241459546
 10
1814.7607761636307
 20
403.19669609801565
 10
1837.5408746299033
 20
412.26436587340476
 10
1861.432228205691
 20
418.77466430676856
 10
1886.2586067365125
 20
423.13954341948124
 10
1911.9910299636065
 20
425.80469274980857
 10
1938.7145666984702
 20
427.20557672560665
 10
1966.6163812483596
 20
427.72371464811135
 10
1995.9928011496338
 20
427.60305462587263
 10
2027.2850503627726
 20
426.77299926419937
 10
2073.8480632535866
 20
423.50139095189985
 10
2067.752530875557
 20
390.15300968994256
 10
2064.2317863230483
 20
369.55467300676645
 10
2061.2292995816033
 20
347.7873218080516
 10
2058.951826867183
 20
324.3756007969033
 10
2057.580404475352
 20
299.21453702191036
 10
2057.2458883660674
 20
272.48456395130125
 10
2057.999091936823
 20
244.59201457107568
 10
2059.828908850788
 20
216.10460078525503
 10
2062.7123490042786
 20
187.6691392751283
 10
2066.645426437596
 20
159.91722795543947
 10
2071.6064245043153
 20
133.36566494325717
 10
2077.445149418935
 20
108.33284071934106
 10
2083.807850835623
 20
84.9010753795389
 10
2090.217758830459
 20
62.92640754404221
 10
2096.264801448048
 20
42.080918443063716
 10
2105.1250944748035
 20
9.93123913516127
 10
2059.91002678882
 20
-0.6725237051409686
 10
2027.9256903960743
 20
-6.081969671637242
 10
1997.6918142448264
 20
-9.546386633565188
 10
1969.2195234012431
 20
-11.448352636403559
 10
1942.369325605238
 20
-12.003500749596764
 10
1916.9177626599717
 20
-11.285156861363449
 10
1892.5935696158685
 20
-9.243297263281466
 10
1869.1003919042096
 20
-5.698491045509896
 10
1846.128625988452
 20
-0.2800876741510975
 10
1811.3539199089066
 20
12.085217022337526
  0
TEXT
  5
32
330
17
100
AcDbEntity
  8
0
100
AcDbText
 10
1800.0
 20
0.0
 30
0.0
 40
25.0
  1
L01 DRAFT
100
AcDbText
  0
LWPOLYLINE
  5
33
330
17
100
AcDbEntity
  8
0
100
AcDbPolyline
 90
53
 70
1
 10
3608.2403387307136
 20
-12.763798351473305
 10
3603.115151124902
 20
18.796242360704866
 10
3599.6901137271598
 20
40.68373487427834
 10
3596.432657502359
 20
64.42764187131658
 10
3593.5119069931125
 20
90.29135159550992
 10
3591.081606795767
 20
118.23173802072853
 10
3589.2836598895638
 20
147.939305338322
 10
3588.2328125368313
 20
178.90474688707124
 10
3587.9991624512345
 20
210.48902240676486
 10
3588.593633117011
 20
241.99095200420004
 10
3589.957157179898
 20
272.7131815455501
 10
3591.9546078512767
 20
302.02980092259315
 10
3594.377929766902
 20
329.4587004776842
 10
3596.966740603868
 20
354.73943150962
 10
3599.4544710612213
 20
377.91422944093347
 10
3601.643539024988
 20
399.40543093599484
 10
3604.567405801823
 20
431.59695061718384
 10
3651.134482564248
 20
428.9819082848466
 10
3687.861335483793
 20
428.79500206130183
 10
3726.7709231032027
 20
429.79253613637104
 10
3767.8065980243855
 20
431.45884467814335
 10
3810.8467069274525
 20
433.44899024696196
 10
3855.7310600172354
 20
435.5698427800161
 10
3902.2767720660395
 20
437.74944509306425
 10
3950.234582138716
 20
440.0415295475108
 10
3999.2574507234435
 20
442.7190571289725
 10
4060.3236269927647
 20
447.5160983894655
 10
4065.3866531659255
 20
413.632277981833
 10
4068.8000554987657
 20
389.90523509123614
 10
4071.990837233269
 20
364.71505812115674
 10
4074.799996187479
 20
337.82779445183434
 10
4077.0922689492063
 20
309.2522848659807
 10
4078.7474880422565
 20
279.22151763273405
 10
4079.6693422436447
 20
248.1453476645702
 10
4079.799691260014
 20
216.5531888851326
 10
4079.1335737657164
 20
185.03360437655854
 10
4077.7327600367557
 20
154.17255716079768
 10
4075.735372128808
 20
124.48974131453163
 10
4073.3555687248577
 20
96.37221650228278
 10
4070.8624363000085
 20
70.00696556330873
 10
4068.526856004583
 20
45.316934924881544
 10
4066.534516043158
 20
21.916852614462858
 10
4064.0052921238457
 20
-12.619168863795938
 10
4002.833420937029
 20
-9.306236960059934
 10
3954.6692516676394
 20
-8.061676446937968
 10
3907.540396245428
 20
-7.579844867496414
 10
3861.5578527831663
 20
-7.446168628534233
 10
3816.866240174283
 20
-7.458235793928831
 10
3773.6251244752116
 20
-7.548464968536901
 10
3732.0158596653723
 20
-7.756524510339083
 10
3692.2619766537255
 20
-8.24918709794409
 10
3654.676581872521
 20
-9.39216297372042
 10
3608.2403387307136
 20
-12.763798351473305
  0
TEXT
  5
34
330
17
100
AcDbEntity
  8
0
100
AcDbText
 10
3600.0
 20
0.0
 30
0.0
 40
25.0
  1
O02 DRAFT
100
AcDbText
  0
LWPOLYLINE
  5
35
330
17
100
AcDbEntity
  8
0
100
AcDbPolyline
 90
53
 70
1
 10
5400.269123347585
 20
-4.507778194235766
 10
5405.954712238173
 20
28.605571523305024
 10
5409.415074796162
 20
49.52492446353032
 10
5412.608844272236
 20
71.71088294248227
 10
5415.353046250063
 20
95.57868436806447
 10
5417.456504474712
 20
121.19700400748167
 10
5418.734703536008
 20
148.36450442894483
 10
5419.037881231702
 20
176.6834451694326
 10
5418.276157095152
 20
205.6268087777001
 10
5416.436651720121
 20
234.60345714905588
 10
5413.593934691496
 20
263.0236889518359
 10
5409.914213204839
 20
290.36458790034055
 10
5405.64728764241
 20
316.2335236164684
 10
5401.095916922125
 20
340.42833116747937
 10
5396.558357587599
 20
362.98974811243966
 10
5392.252731268227
 20
384.2252011433502
 10
5385.831005517262
 20
416.81971458027664
 10
5433.251601850873
 20
424.5903464000059
 10
5470.601055540461
 20
428.75624663067543
 10
5509.496180124312
 20
431.66010420368536
 10
5549.810762908229
 20
433.7490022128187
 10
5591.504356008395
 20
435.40076682079206
 10
5634.587303203994
 20
436.8815164003108
 10
5679.104159378614
 20
438.3306302844719
 10
5725.139158441473
 20
439.7382494991844
 10
5772.855404584986
 20
440.855872768387
 10
5834.998653689968
 20
440.8715294410361
 10
5832.651157955234
 20
405.31580226348063
 10
5831.1610450691
 20
382.0847296796749
 10
5829.910197616824
 20
357.8744302749346
 10
5829.015081763278
 20
332.34325262538454
 10
5828.555692050071
 20
305.42394587634357
 10
5828.593739742794
 20
277.26992410557006
 10
5829.174368190408
 20
248.19571080942376
 10
5830.320188325168
 20
218.61969413332233
 10
5832.0213314289595
 20
189.00989527654383
 10
5834.223295041475
 20
159.8311928063907
 10
5836.815972946369
 20
131.49331465334163
 10
5839.631389475621
 20
104.30026845069253
 10
5842.4595476371305
 20
78.40374740025912
 10
5845.086902472188
 20
53.76774110908457
 10
5847.355265410001
 20
30.16229668117319
 10
5850.25444709344
 20
-4.973051924407049
 10
5788.304397601794
 20
-8.80585685112645
 10
5739.816296411407
 20
-10.528955141259965
 10
5692.999957126214
 20
-11.428195770612001
 10
5647.94461978942
 20
-11.858344548520208
 10
5604.672256078225
 20
-12.000044282545948
 10
5563.161062585844
 20
-11.906484533186264
 10
5523.346688881373
 20
-11.519967480318666
 10
5485.116071530279
 20
-10.656417184722457
 10
5448.294988657712
 20
-8.945449536787075
 10
5400.269123347585
 20
-4.507778194235766
  0
TEXT
  5
36
330
17
100
AcDbEntity
  8
0
100
AcDbText
 10
5400.0
 20
0.0
 30
0.0
 40
25.0
  1
L02 DRAFT
100
AcDbText
  0
LWPOLYLINE
  5
37
330
17
100
AcDbEntity
  8
0
100
AcDbPolyline
 90
53
 70
1
 10
-1.7734926911359927
 20
1787.7082077053772
 10
-4.6224264286066115
 20
1821.9480060870073
 10
-6.545455297119641
 20
1845.718919582844
 10
-8.308407386881298
 20
1870.8580281683383
 10
-9.804773744628744
 20
1897.60271541125
 10
-10.955615553365224
 20
1925.9507025045702
 10
-11.700312571003405
 20
1955.6810451772753
 10
-12.000288544369992
 20
1986.402608194152
 10
-11.846577315221495
 20
2017.6115929424868
 10
-11.266779937650213
 20
2048.7510156109483
 10
-10.32905375570541
 20
2079.2699826759417
 10
-9.141504703801031
 20
2108.6826313127285
 10
-7.845097865862391
 20
2136.6270658572744
 10
-6.59779334970356
 20
2162.923874285048
 10
-5.548201942361753
 20
2187.6313944093295
 10
-4.796940422065348
 20
2211.0893604330477
 10
-4.092992747229601
 20
2245.7147864869175
 10
58.40073084817327
 20
2245.6135150462624
 10
110.16905325283363
 20
2246.885109280257
 10
163.15053368234976
 20
2249.0536485004086
 10
217.21541930013058
 20
2251.824992403893
 10
272.19971186339023
 20
2255.0725287574865
 10
327.926404268391
 20
2258.7732663536417
 10
384.20431410091
 20
2262.973182810613
 10
440.81321865960194
 20
2267.7948798872576
 10
497.467882380415
 20
2273.506421571652
 10
565.6836795962358
 20
2282.2529271238973
 10
571.1077643162183
 20
2246.709466641826
 10
574.2684479537277
 20
2221.556790833167
 10
576.8914216904826
 20
2194.7123660074585
 10
578.9743845135364
 20
2165.8626617601226
 10
580.507230678983
 20
2135.0035708508462
 10
581.4704722080385
 20
2102.4043357521587
 10
581.8468057706708
 20
2068.545423047008
 10
581.6366673794332
 20
2034.0483606764024
 10
580.872807896722
 20
1999.604454016082
 10
579.6310736297635
 20
1965.9036507551864
 10
578.0348597192321
 20
1933.5626322815565
 10
576.2495138848229
 20
1903.0509716181032
 10
574.4622017803352
 20
1874.615469711313
 10
572.8456192550032
 20
1848.2058955586156
 10
571.5084146405575
 20
1823.4128806275182
 10
569.8907333478829
 20
1787.6454286954236
 10
501.69066252711275
 20
1789.723565638376
 10
445.39507071721914
 20
1790.3245088060194
 10
389.08270088207826
 20
1790.3772253092761
 10
332.90485624836685
 20
1790.2236780921078
 10
277.0410269290301
 20
1790.0361573474336
 10
221.6615384478316
 20
1789.8930092188482
 10
166.97980451679777
 20
1789.8071261096634
 10
113.22439826752246
 20
1789.7057110844594
 10
60.70509282271543
 20
1789.339543988795
 10
-1.7734926911359927
 20
1787.7082077053772
  0
TEXT
  5
38
330
17
100
AcDbEntity
  8
0
100
AcDbText
 10
0.0
 20
1800.0
 30
0.0
 40
25.0
  1
O03 DRAFT
100
AcDbText
  0
LWPOLYLINE
  5
39
330
17
100
AcDbEntity
  8
0
100
AcDbPolyline
 90
53
 70
1
 10
1814.0122413206234
 20
1788.4679193982945
 10
1816.2320285827652
 20
1823.8634028838762
 10
1817.4725882823054
 20
1847.0728319835114
 10
1818.3320298915626
 20
1871.3147798453158
 10
1818.7057285951084
 20
1896.9237962741965
 10
1818.523841214381
 20
1923.9598435233008
 10
1817.7408336301812
 20
1952.2599935488427
 10
1816.3367244089177
 20
1981.4969970471295
 10
1814.3217958265925
 20
2011.2367639885665
 10
1811.7413710412554
 20
2040.993416642113
 10
1808.6791601113919
 20
2070.283153623808
 10
1805.2576402544862
 20
2098.677949356179
 10
1801.6323642583943
 20
2125.8590491919595
 10
1797.9759857959336
 20
2151.668071019642
 10
1794.4496837432957
 20
2176.1479763711936
 10
1791.1621496323357
 20
2199.554194762348
 10
1786.4833218271722
 20
2234.4029129013215
 10
1849.2640487025424
 20
2241.778774980423
 10
1901.1880424486617
 20
2246.5833386781605
 10
1953.9302134425577
 20
2250.6508764630976
 10
2007.3466954838839
 20
2254.3122863299977
 10
2061.3422169720925
 20
2257.7688697746494
 10
2115.8437725066433
 20
2261.127887855463
 10
2170.7984324351687
 20
2264.4239352979093
 10
2226.1872763768633
 20
2267.6042708589976
 10
2282.060348516619
 20
2270.4485575531476
 10
2350.8780397657347
 20
2272.719457838826
 10
2350.379290044577
 20
2236.192900146638
 10
2350.084662513098
 20
2211.4983312079034
 10
2350.0288987233107
 20
2185.4151225119576
 10
2350.344732990041
 20
2157.563146787444
 10
2351.12693202096
 20
2127.9015676964787
 10
2352.438904764994
 20
2096.66205740644
 10
2354.311123571101
 20
2064.27173986273
 10
2356.735950998531
 20
2031.2800728114044
 10
2359.660624923136
 20
1998.2911661684298
 10
2362.979581893948
 20
1965.8991861738864
 10
2366.5284645353377
 20
1934.624626696424
 10
2370.0844220371423
 20
1904.850198522381
 10
2373.3776736606033
 20
1876.7573630593238
 10
2376.1152580719236
 20
1850.2725962538382
 10
2378.015809450441
 20
1825.051740878625
 10
2379.3016349505006
 20
1788.3864070317043
 10
2309.8722083007574
 20
1788.3152504443208
 10
2253.23473912322
 20
1788.9116422934496
 10
2197.2464073184774
 20
1789.577572036351
 10
2141.9642697141007
 20
1790.0146690591398
 10
2087.4336989114136
 20
1790.105706380683
 10
2033.6945106952635
 20
1789.8376395667858
 10
1980.7718528931441
 20
1789.2704501826945
 10
1928.6558759610195
 20
1788.5516047275466
 10
1877.2606783971844
 20
1787.9995227054314
 10
1814.0122413206234
 20
1788.4679193982945
  0
TEXT
  5
3A
330
17
100
AcDbEntity
  8
0
100
AcDbText
 10
1800.0
 20
1800.0
 30
0.0
 40
25.0
  1
L03 DRAFT
100
AcDbText
  0
LWPOLYLINE
  5
3B
330
17
100
AcDbEntity
  8
0
100
AcDbPolyline
 90
53
 70
1
 10
3595.9010115618785
 20
1787.7417710210311
 10
3593.3393240776063
 20
1823.198125650033
 10
3591.624168307333
 20
1848.298321168373
 10
3590.12034194795
 20
1875.1156201341432
 10
3588.9556697174376
 20
1903.950603560602
 10
3588.226822315792
 20
1934.7851801795944
 10
3587.999627673333
 20
1967.326991397831
 10
3588.2996276375634
 20
2001.0788383756958
 10
3589.100983124567
 20
2035.4124415575757
 10
3590.3176527246846
 20
2069.6403528884052
 10
3591.7993533600784
 20
2103.085204121016
 10
3593.3354016124763
 20
2135.1472522237445
 10
3594.6709406231503
 20
2165.3715021297257
 10
3595.5390535799893
 20
2193.5160431413847
 10
3595.706342383014
 20
2219.6232019719514
 10
3595.0225322519236
 20
2244.0858959345614
 10
3592.6905518413896
 20
2279.4749090196556
 10
3660.968841364592
 20
2285.940982913238
 10
3717.3419370727984
 20
2292.95204481682
 10
3773.5711418507426
 20
2301.4466540696017
 10
3829.579927949482
 20
2311.2828275209154
 10
3885.2554845732675
 20
2322.406276947888
 10
3940.4662836343605
 20
2334.816900889663
 10
3995.0607510124664
 20
2348.5489832268527
 10
4048.855040068371
 20
2363.67526371669
 10
4101.610390076078
 20
2380.3370678091364
 10
4165.208088972786
 20
2403.188396761734
 10
4175.720327132927
 20
2368.130134771507
 10
4180.374442821924
 20
2341.3823101274475
 10
4183.382510701086
 20
2310.3672354057167
 10
4185.262420738667
 20
2274.5214187772567
 10
4186.269215854459
 20
2234.0211376250636
 10
4186.507373605566
 20
2189.6094680465008
 10
4186.016267583907
 20
2142.4112904754093
 10
4184.829594737173
 20
2093.785908504201
 10
4183.015191248131
 20
2045.205682583444
 10
4180.698591676517
 20
1998.1460900080583
 10
4178.070657304584
 20
1953.9764110829424
 10
4175.37442586794
 20
1913.8414755709593
 10
4172.863480061264
 20
1878.522402976119
 10
4170.733962787228
 20
1848.2514101813497
 10
4169.052556165729
 20
1822.433212867915
 10
4167.019657573058
 20
1787.5255581196643
 10
4104.549565038583
 20
1790.093784236041
 10
4052.7370691208603
 20
1791.0267388273596
 10
3999.6784480916263
 20
1791.2556753363956
 10
3945.503186531287
 20
1791.1156991351809
 10
3890.3703257693473
 20
1790.8183107940845
 10
3834.457471929682
 20
1790.4826466523596
 10
3777.9527778387205
 20
1790.1591769299537
 10
3721.0849131316595
 20
1789.8233068101329
 10
3664.1460384665634
 20
1789.3036733619701
 10
3595.9010115618785
 20
1787.7417710210311
  0
TEXT
  5
3C
330
17
100
AcDbEntity
  8
0
100
AcDbText
 10
3600.0
 20
1800.0
 30
0.0
 40
25.0
  1
O04 DRAFT
100
AcDbText
  0
LWPOLYLINE
  5
3D
330
17
100
AcDbEntity
  8
0
100
AcDbPolyline
 90
53
 70
1
 10
5486.855718730231
 20
1787.2349087305306
 10
5486.401312388793
 20
1823.473663663405
 10
5484.9188095366035
 20
1847.512708603882
 10
5482.066246454942
 20
1872.9170734706388
 10
5477.8670183302165
 20
1900.0656902961077
 10
5472.442088154476
 20
1928.9842423539326
 10
5465.963742594058
 20
1959.438156564472
 10
5458.6324726818275
 20
1991.0090029298744
 10
5450.664497787496
 20
2023.15962493687
 10
5442.2832338516755
 20
2055.2949407274914
 10
5433.712989751016
 20
2086.8226821325234
 10
5425.174172878551
 20
2117.215489592781
 10
5416.875592546309
 20
2146.0740250335894
 10
5408.995894852842
 20
2173.1895486196936
 10
5401.649797200347
 20
2198.600612161654
 10
5394.844960170848
 20
2222.6244662866648
 10
5385.193137860701
 20
2257.5504999278746
 10
5451.763869715691
 20
2274.971287925625
 10
5506.732522882361
 20
2288.1754259668714
 10
5561.400961900282
 20
2300.5821111262617
 10
5615.574639449665
 20
2312.459742528717
 10
5669.126040516636
 20
2323.958450773886
 10
5721.970077075594
 20
2335.141992851353
 10
5774.060162389357
 20
2346.001665351023
 10
5825.396720977028
 20
2356.4468538154956
 10
5876.054904703883
 20
2366.2613005407648
 10
5938.370031953522
 20
2377.0402672622367
 10
5942.801597240379
 20
2341.6495335075297
 10
5946.195403168691
 20
2316.267079202452
 10
5950.666048471242
 20
2286.8031258602105
 10
5956.52405989844
 20
2252.7371547332514
 10
5963.898017330444
 20
2214.3608373505886
 10
5972.777515530472
 20
2172.4669613486385
 10
5983.035466739642
 20
2128.1558124494154
 10
5994.442391977066
 20
2082.7013871556537
 10
6006.673100723186
 20
2037.4384381980653
 10
6019.301668068672
 20
1993.6547815238416
 10
6031.790322971843
 20
1952.4852293755034
 10
6043.49270974691
 20
1914.8037846811526
 10
6053.690559961871
 20
1881.096794214128
 10
6061.648520826005
 20
1851.2885654453514
 10
6066.617811417318
 20
1824.5713759858058
 10
6068.372973841353
 20
1787.3298399857129
 10
6000.098664708596
 20
1790.8708344439099
 10
5944.795386506016
 20
1794.0837452907965
 10
5889.423478423047
 20
1796.9336177720688
 10
5834.000356033969
 20
1798.9607456498059
 10
5778.536494954389
 20
1799.879123538677
 10
5723.032505299232
 20
1799.5447327449094
 10
5667.470677630723
 20
1797.9374343602535
 10
5611.791759710138
 20
1795.1671640596842
 10
5555.829563625566
 20
1791.554658244719
 10
5486.855718730231
 20
1787.2349087305306
  0
TEXT
  5
3E
330
17
100
AcDbEntity
  8
0
100
AcDbText
 10
5400.0
 20
1800.0
 30
0.0
 40
25.0
  1
L04 DRAFT
100
AcDbText
  0
LWPOLYLINE
  5
3F
330
17
100
AcDbEntity
  8
0
100
AcDbPolyline
 90
53
 70
1
 10
-1.5100914586552336
 20
3587.5186785701444
 10
-4.896242161416498
 20
3622.0892651472323
 10
-7.152446652482913
 20
3648.3145672934024
 10
-9.179215868615346
 20
3679.147859565271
 10
-10.781046476011184
 20
3715.0646523962982
 10
-11.769611634033897
 20
3755.7432464511267
 10
-12.000389404336811
 20
3800.330824220749
 10
-11.407149932091357
 20
3847.640248841913
 10
-10.012898227722188
 20
3896.291733690647
 10
-7.9263251885034895
 20
3944.819775510033
 10
-5.343506050067874
 20
3991.7642135776896
 10
-2.5694139481240015
 20
4035.7594339312564
 10
-0.05960692005303605
 20
4075.6320696115895
 10
1.5546526000664458
 20
4110.516415886694
 10
1.541318380889505
 20
4140.004641094007
 10
-0.7323953842988968
 20
4164.418414109411
 10
-8.442741412037643
 20
4196.80440221912
 10
53.27633816118772
 20
4217.758338409766
 10
103.03270329629709
 20
4236.920349279533
 10
151.45170895821659
 20
4257.608823380039
 10
198.55073797435057
 20
4279.460801122535
 10
244.27339383242983
 20
4302.148603820538
 10
288.5073478539542
 20
4325.388740796461
 10
331.08821849758647
 20
4348.937515838562
 10
371.7884625330004
 20
4372.597113738612
 10
410.2753608763961
 20
4396.24110371215
 10
457.76545834345666
 20
4427.703031181021
 10
473.82538601033275
 20
4394.337940370559
 10
480.37540646011604
 20
4363.890355024053
 10
484.83255711806385
 20
4324.055254848454
 10
487.97060531601875
 20
4274.299205204269
 10
489.90313917209477
 20
4215.556297505369
 10
490.5821751697734
 20
4149.577022751213
 10
489.97185829667467
 20
4078.5754546148037
 10
488.096994417273
 20
4005.03111458564
 10
485.044200255426
 20
3931.547673543407
 10
480.9590211233081
 20
3860.7317792400013
 10
476.0645494064048
 20
3795.0727560868904
 10
470.70578050781415
 20
3736.8032497474987
 10
465.3790083889572
 20
3687.7124606637167
 10
460.6562888067527
 20
3648.867345115005
 10
456.955774216046
 20
3620.080324436896
 10
452.7259885919849
 20
3586.9729358748014
 10
406.2304855385724
 20
3591.317125249362
 10
369.4739591732938
 20
3593.180079166507
 10
330.6282335316217
 20
3594.0484663520397
 10
289.7811415263133
 20
3594.213341589057
 10
247.02774929936274
 20
3593.9070695059295
 10
202.48358272401214
 20
3593.3003292156995
 10
156.29176068119497
 20
3592.4931353083994
 10
108.63456807771449
 20
3591.4970924049203
 10
59.769930052611855
 20
3590.1771033166488
 10
-1.5100914586552336
 20
3587.5186785701444
  0
TEXT
  5
40
330
17
100
AcDbEntity
  8
0
100
AcDbText
 10
0.0
 20
3600.0
 30
0.0
 40
25.0
  1
O05 DRAFT
100
AcDbText
  0
LWPOLYLINE
  5
41
330
17
100
AcDbEntity
  8
0
100
AcDbPolyline
 90
53
 70
1
 10
2050.3556505339134
 20
3588.415824446983
 10
2048.495868705765
 20
3622.3262958495507
 10
2043.200431422068
 20
3645.6682922285704
 10
2033.6079449451397
 20
3672.7575037583515
 10
2020.0567200394412
 20
3703.8832540856592
 10
2003.1105767278552
 20
3738.727121891691
 10
1983.4188442683155
 20
3776.6140703662786
 10
1961.7043861411357
 20
3816.620542483839
 10
1938.753758659151
 20
3857.654229083322
 10
1915.3691586561727
 20
3898.529134028328
 10
1892.306479168224
 20
3938.0479035897324
 10
1870.2379703052552
 20
3975.101665621258
 10
1849.7551748418302
 20
4008.7883444510126
 10
1831.3690490801043
 20
4038.534180472175
 10
1815.4084577073254
 20
4064.214564905347
 10
1801.7829026844972
 20
4086.3294860229003
 10
1783.403715073735
 20
4116.678592746505
 10
1837.041995239243
 20
4147.824689221406
 10
1879.5686587384848
 20
4171.162439604068
 10
1921.052064268518
 20
4193.015645200019
 10
1961.2983812744983
 20
4213.579231025629
 10
2000.2015674810284
 20
4232.970731224589
 10
2037.7188754251144
 20
4251.251519916914
 10
2073.8652257760073
 20
4268.436339998858
 10
2108.7228148395457
 20
4284.489209050859
 10
2142.4805415851106
 20
4299.29637727493
 10
2187.0595447214937
 20
4317.156503563882
 10
2197.720089861535
 20
4284.56299261603
 10
2207.2283946945463
 20
4257.975377441446
 10
2221.097865922523
 20
4222.760323030405
 10
2239.9195820434866
 20
4178.990630957649
 10
2263.7353720231413
 20
4127.812273097404
 10
2292.0839590844444
 20
4070.9078663196196
 10
2324.0959828283767
 20
4010.2822175374613
 10
2358.6542321743286
 20
3948.131605348035
 10
2394.5300856023705
 20
3886.7206048502503
 10
2430.4368544098907
 20
3828.227962660183
 10
2464.9877625986646
 20
3774.5561521029535
 10
2496.6421521704506
 20
3727.1517796518697
 10
2523.794206529086
 20
3686.871334413415
 10
2545.0246132669995
 20
3653.749956183828
 10
2559.327961561011
 20
3626.3643357796846
 10
2568.3271420798023
 20
3589.270189627193
 10
2510.0590405904177
 20
3587.998719464108
 10
2464.762772680282
 20
3588.441783527278
 10
2418.0388089678754
 20
3589.731691005948
 10
2370.072493995968
 20
3591.384447896978
 10
2321.0268911867347
 20
3592.9498026436468
 10
2271.03689372621
 20
3594.014637351625
 10
2220.1972477513664
 20
3594.2283858341034
 10
2168.5366676966587
 20
3593.3555606500704
 10
2115.9470339930917
 20
3591.389226725223
 10
2050.3556505339134
 20
3588.415824446983
  0
TEXT
  5
42
330
17
100
AcDbEntity
  8
0
100
AcDbText
 10
1800.0
 20
3600.0
 30
0.0
 40
25.0
  1
L05 DRAFT
100
AcDbText
  0
LWPOLYLINE
  5
43
330
17
100
AcDbEntity
  8
0
100
AcDbPolyline
 90
53
 70
1
 10
3616.132406043022
 20
3586.8298395980937
 10
3609.241169979372
 20
3619.241309329296
 10
3604.0014172855617
 20
3648.757331194805
 10
3598.4953925351633
 20
3688.709273337574
 10
3593.6046462024774
 20
3739.0864670889796
 10
3590.0741831561904
 20
3798.5802365478876
 10
3588.200042326551
 20
3865.2718389186643
 10
3587.9996843152444
 20
3936.928327368436
 10
3589.395657995894
 20
4011.109292565882
 10
3592.280591233796
 20
4085.253390776942
 10
3596.542482483566
 20
4156.7811599460765
 10
3602.0987218516684
 20
4223.197250805755
 10
3608.8682592996047
 20
4282.170218276198
 10
3616.4091591620527
 20
4331.614872716122
 10
3623.046551366871
 20
4369.979929608919
 10
3625.7931867121442
 20
4396.87366094607
 10
3621.073522773411
 20
4426.199650525921
 10
3667.539458305869
 20
4445.364393523061
 10
3702.4526140698094
 20
4461.774828384587
 10
3735.4571405931965
 20
4478.15709306268
 10
3766.783258739744
 20
4493.725199743493
 10
3796.5422530333526
 20
4507.952104871075
 10
3824.7942278354712
 20
4520.5165043797615
 10
3851.5910214439286
 20
4531.276650189338
 10
3876.996463886235
 20
4540.271178352106
 10
3901.0349490766994
 20
4547.747745801648
 10
3933.8076246955175
 20
4557.392078723669
 10
3947.427434518705
 20
4527.358596514886
 10
3957.861729807683
 20
4495.1958091113775
 10
3968.1469475583076
 20
4449.296602562108
 10
3976.656219823106
 20
4390.261231895772
 10
3982.553913045586
 20
4320.03092102619
 10
3985.705460961144
 20
4241.066921148718
 10
3986.244259780477
 20
4156.119812277074
 10
3984.336732674211
 20
4068.1592240620976
 10
3980.130892849541
 20
3980.2911764511
 10
3973.757249247024
 20
3895.648593068159
 10
3965.3292496721715
 20
3817.281630132518
 10
3955.003051331558
 20
3748.06100115581
 10
3943.256124161857
 20
3690.5314314347506
 10
3931.3652444329455
 20
3646.496017895894
 10
3921.321598979548
 20
3616.109548557107
 10
3910.3776054076607
 20
3585.5666503663174
 10
3878.3068624131784
 20
3594.1005203089017
 10
3856.3289461375143
 20
3597.4261797720765
 10
3832.929922566054
 20
3599.1858892045157
 10
3808.083282692602
 20
3599.761578269938
 10
3781.7211866357334
 20
3599.428566879973
 10
3753.7835043874866
 20
3598.39353235461
 10
3724.2516282968177
 20
3596.7984128278235
 10
3693.178973797505
 20
3594.6939248735853
 10
3660.7496825239596
 20
3591.970074485064
 10
3616.132406043022
 20
3586.8298395980937
  0
TEXT
  5
44
330
17
100
AcDbEntity
  8
0
100
AcDbText
 10
3600.0
 20
3600.0
 30
0.0
 40
25.0
  1
O06 DRAFT
100
AcDbText
  0
LWPOLYLINE
  5
45
330
17
100
AcDbEntity
  8
0
100
AcDbPolyline
 90
53
 70
1
 10
5739.529400937308
 20
3622.151150332015
 10
5742.895127027587
 20
3652.458248693255
 10
5738.400375984322
 20
3678.183624156977
 10
5727.374566143999
 20
3713.5789108401545
 10
5710.322350741681
 20
3757.850685743416
 10
5687.753772003111
 20
3809.6993565872754
 10
5660.5471413218465
 20
3867.454774240054
 10
5629.868958231758
 20
3929.1290310311133
 10
5596.963250584133
 20
3992.520976174432
 10
5563.113323075531
 20
4055.3533477498713
 10
5529.624794949286
 20
4115.387178788188
 10
5497.756778828906
 20
4170.5074617281225
 10
5468.546521715112
 20
4218.782389465548
 10
5442.593389884467
 20
4258.671610480166
 10
5420.537534664489
 20
4289.667500722204
 10
5403.354693972376
 20
4312.677836946814
 10
5382.915765411259
 20
4340.219344336181
 10
5421.276138633871
 20
4366.339745927261
 10
5448.873887790564
 20
4383.059844051386
 10
5475.3873068617595
 20
4397.640010526456
 10
5500.748118654932
 20
4410.424793194338
 10
5525.033650023846
 20
4421.653969744332
 10
5548.41755094905
 20
4431.4896992225695
 10
5571.15308587263
 20
4440.029888869269
 10
5593.575315830502
 20
4447.300228988417
 10
5616.136341505953
 20
4453.209500909353
 10
5652.1236179454645
 20
4459.600558067273
 10
5653.818905817558
 20
4425.434005058647
 10
5656.824724800379
 20
4395.99494542353
 10
5664.540072209052
 20
4354.812207223551
 10
5679.679637855267
 20
4302.354662621705
 10
5702.439083653914
 20
4240.310280171497
 10
5731.641230440526
 20
4170.990521393339
 10
5765.966351912485
 20
4097.083096661301
 10
5804.025549309998
 20
4021.4416094215744
 10
5844.320949041106
 20
3946.9596785373046
 10
5885.283720644997
 20
3876.4631475818946
 10
5925.367921464166
 20
3812.6142177611973
 10
5963.151940589394
 20
3757.753484799458
 10
5997.079256380046
 20
3713.3998615175074
 10
6025.038436924412
 20
3679.6615828012846
 10
6045.25394458476
 20
3655.54663753963
 10
6066.665619807805
 20
3628.554220406578
 10
6035.919726261228
 20
3608.0400251235865
 10
6012.379023678751
 20
3597.7651124361173
 10
5986.4065717796
 20
3591.1951541193116
 10
5958.342668047077
 20
3588.0741222932375
 10
5928.35790370479
 20
3587.9988010435513
 10
5896.505759334816
 20
3590.536502235704
 10
5862.772978042815
 20
3595.271980134931
 10
5827.108142098526
 20
3601.834896319338
 10
5789.411216753792
 20
3609.9578203422966
 10
5739.529400937308
 20
3622.151150332015
  0
TEXT
  5
46
330
17
100
AcDbEntity
  8
0
100
AcDbText
 10
5400.0
 20
3600.0
 30
0.0
 40
25.0
  1
L06 DRAFT
100
AcDbText
  0
LWPOLYLINE
  5
47
330
17
100
AcDbEntity
  8
0
100
AcDbPolyline
 90
53
 70
1
 10
47.97109267155956
 20
5386.152504529414
 10
37.030528062629024
 20
5416.6881354006155
 10
27.6557506152037
 20
5448.335665227415
 10
17.269806164300814
 20
5493.60445863339
 10
7.519991306586444
 20
5552.020743213998
 10
-0.5514050233546907
 20
5621.754688568235
 10
-6.560642926841699
 20
5700.39627657768
 10
-10.400522658436401
 20
5785.214770268038
 10
-12.00091476071694
 20
5873.249843665753
 10
-11.261599574612765
 20
5961.398780576877
 10
-8.035921681655823
 20
6046.51893898512
 10
-2.1382533592004234
 20
6125.521161870878
 10
6.524747995617603
 20
6195.457660374819
 10
17.599632497455243
 20
6253.6925393877245
 10
29.889995971169334
 20
6298.314569510322
 10
41.40181920977209
 20
6328.921419798652
 10
55.14499923692621
 20
6358.711623528737
 10
86.81255457238174
 20
6346.962572159224
 10
109.441257111622
 20
6339.418612809507
 10
133.9934973857331
 20
6330.92186256662
 10
160.48374546411588
 20
6321.008740693204
 10
188.973846216524
 20
6309.456044693072
 10
219.48130624430638
 20
6296.199401565946
 10
251.9679987985966
 20
6281.302974190073
 10
286.3421127605963
 20
6264.966423286193
 10
322.44472821269073
 20
6247.601144156403
 10
368.5344526068391
 20
6226.219903016831
 10
364.0880949555896
 20
6196.620581547234
 10
364.89837813822294
 20
6168.446959608672
 10
368.052068209766
 20
6128.980136197966
 10
372.2492990462101
 20
6078.847012406326
 10
376.309414259099
 20
6019.518181982056
 10
379.4775056608564
 20
5952.957347390324
 10
381.4000369605587
 20
5881.406017482206
 10
381.9136019014406
 20
5807.292542985341
 10
380.92117908031884
 20
5733.166647673935
 10
378.362652111598
 20
5661.609275631082
 10
374.2119818805904
 20
5595.130691188907
 10
368.5277950899841
 20
5536.069467799631
 10
361.67700781545057
 20
5486.427388336869
 10
354.6411273638803
 20
5447.446623051491
 10
348.6941739003055
 20
5418.857660141207
 10
341.8399091411791
 20
5386.26222876248
 10
297.6756274586553
 20
5393.661753219225
 10
266.4288308300649
 20
5397.159378192559
 10
236.36991447856192
 20
5399.234780233532
 10
207.52389076779244
 20
5400.215770482125
 10
179.8849381823313
 20
5400.303262043891
 10
153.4178101427876
 20
5399.6120867312675
 10
128.0699942130456
 20
5398.185008585787
 10
103.79832410423589
 20
5395.984687931714
 10
80.64505997645225
 20
5392.856746957769
 10
47.97109267155956
 20
5386.152504529414
  0
TEXT
  5
48
330
17
100
AcDbEntity
  8
0
100
AcDbText
 10
0.0
 20
5400.0
 30
0.0
 40
25.0
  1
O07 DRAFT
100
AcDbText
  0
LWPOLYLINE
  5
49
330
17
100
AcDbEntity
  8
0
100
AcDbPolyline
 90
53
 70
1
 10
1782.3684258937321
 20
5427.056332724694
 10
1803.7479531713939
 20
5454.348514096514
 10
1823.646682826365
 20
5478.203790360864
 10
1850.8175934213482
 20
5511.7628313317755
 10
1883.6787892284751
 20
5556.361820688366
 10
1920.365142219078
 20
5611.755699190192
 10
1959.3403105676193
 20
5676.228680134922
 10
1999.0541564319744
 20
5747.378982969953
 10
2037.8847277431205
 20
5822.512717574273
 10
2074.235567551032
 20
5898.776264324137
 10
2106.6267487658797
 20
5973.257635249744
 10
2133.757648252286
 20
6043.093457350231
 10
2154.466451546923
 20
6105.6134723819905
 10
2167.7393029910486
 20
6158.619384250617
 10
2173.91427525286
 20
6200.566818642122
 10
2175.838965900328
 20
6230.868711125223
 10
2176.811806383389
 20
6264.880410155034
 10
2213.07436523668
 20
6261.006018180716
 10
2236.6581386131274
 20
6255.731512141951
 10
2259.8306834705168
 20
6248.458644199336
 10
2282.956966659668
 20
6239.578462172516
 10
2306.386071675279
 20
6229.306664888248
 10
2330.4270284583336
 20
6217.759867207442
 10
2355.349990633777
 20
6204.986308604027
 10
2381.3918242603077
 20
6190.955522570016
 10
2408.764370061822
 20
6175.483982295127
 10
2448.3854554346844
 20
6151.430932351511
 10
2428.1657212291043
 20
6123.546238339096
 10
2412.3010071503554
 20
6100.364248311483
 10
2392.0094102856847
 20
6068.626029602807
 10
2367.797038972947
 20
6027.6010895990075
 10
2340.2771079554327
 20
5978.003922926146
 10
2310.1341076778344
 20
5921.518112838181
 10
2278.3471215865625
 20
5860.193026570867
 10
2246.075049554932
 20
5796.238603732325
 10
2214.5504342135737
 20
5731.944145077612
 10
2185.022804174285
 20
5669.586504336936
 10
2158.754691092562
 20
5611.316616395101
 10
2137.0710196840346
 20
5559.00249223199
 10
2121.1767376296934
 20
5514.117527903054
 10
2111.459283950533
 20
5477.942360503052
 10
2107.600067898241
 20
5451.490633936368
 10
2110.5267580847685
 20
5421.043718216461
 10
2060.579964730389
 20
5408.17312176282
 10
2022.2331055988877
 20
5400.1046787330415
 10
1986.0736537673292
 20
5394.053293773444
 10
1952.1312783885319
 20
5389.973098692421
 10
1920.357628717789
 20
5387.995278207987
 10
1890.669499781545
 20
5388.370917220229
 10
1862.9924573659355
 20
5391.437652310136
 10
1837.3184692704665
 20
5397.585650811019
 10
1813.7674497301616
 20
5407.2008175849705
 10
1782.3684258937321
 20
5427.056332724694
  0
TEXT
  5
4A
330
17
100
AcDbEntity
  8
0
100
AcDbText
 10
1800.0
 20
5400.0
 30
0.0
 40
25.0
  1
L07 DRAFT
100
AcDbText
  0
LWPOLYLINE
  5
4B
330
17
100
AcDbEntity
  8
0
100
AcDbPolyline
 90
53
 70
1
 10
3619.185304933585
 20
5387.196765569018
 10
3614.470018937645
 20
5420.101288751646
 10
3610.816524566668
 20
5449.373242193694
 10
3606.589641281267
 20
5488.794647575912
 10
3602.0939710763087
 20
5538.453241454485
 10
3597.755247321044
 20
5597.189321731735
 10
3593.949212568968
 20
5663.163020937645
 10
3590.948798661733
 20
5734.1302668464805
 10
3588.932604277564
 20
5807.606303270856
 10
3587.999814711866
 20
5880.99204274706
 10
3588.1716004150317
 20
5951.696669804121
 10
3589.393424335195
 20
6017.2719712553235
 10
3591.572067749622
 20
6075.564475528143
 10
3594.669286765973
 20
6124.905102293023
 10
3598.8811932545436
 20
6164.439982227649
 10
3605.111523795739
 20
6194.776489325972
 10
3621.0295877259364
 20
6228.578431929715
 10
3668.0187751206204
 20
6196.1469054581985
 10
3705.7826494977435
 20
6172.125390509915
 10
3745.9218556847645
 20
6148.391204462676
 10
3788.217503543498
 20
6125.071458305695
 10
3832.4735680123395
 20
6102.2889775443255
 10
3878.4986628951647
 20
6080.157152303007
 10
3926.1020298671788
 20
6058.79737993279
 10
3975.0948060340743
 20
6038.372222038363
 10
4025.292181850249
 20
6019.144825904935
 10
4086.905882517574
 20
5998.061691644753
 10
4079.9771998981973
 20
5965.716380923503
 10
4078.1321866432086
 20
5941.020338213126
 10
4078.133586244935
 20
5911.135558182795
 10
4079.3190250041444
 20
5875.8269269092125
 10
4081.132002108955
 20
5835.541762337727
 10
4083.107661341593
 20
5791.158956084717
 10
4084.862605285883
 20
5743.881575793408
 10
4086.100141460122
 20
5695.095626981045
 10
4086.6127693637372
 20
5646.284817031678
 10
4086.2843953155666
 20
5598.935612569121
 10
4085.1040247083174
 20
5554.443040918656
 10
4083.195547872775
 20
5513.997030318115
 10
4080.8343400527615
 20
5478.430031629532
 10
4078.3935635341863
 20
5448.011035537587
 10
4076.2026744415816
 20
5422.155101970969
 10
4073.4275983255975
 20
5387.3100020962
 10
4012.2537105286556
 20
5391.015713312537
 10
3964.0797345584606
 20
5392.763331573885
 10
3917.03169527828
 20
5393.723258229415
 10
3871.230981997635
 20
5394.163934009368
 10
3826.8095563950183
 20
5394.222953102286
 10
3783.9030142010943
 20
5393.952376881882
 10
3742.6527265735845
 20
5393.340024430835
 10
3703.216369089356
 20
5392.308844914143
 10
3665.803156625364
 20
5390.684528408981
 10
3619.185304933585
 20
5387.196765569018
  0
TEXT
  5
4C
330
17
100
AcDbEntity
  8
0
100
AcDbText
 10
3600.0
 20
5400.0
 30
0.0
 40
25.0
  1
O08 DRAFT
100
AcDbText
  0
LWPOLYLINE
  5
4D
330
17
100
AcDbEntity
  8
0
100
AcDbPolyline
 90
53
 70
1
 10
5384.575361709312
 20
5387.859175792148
 10
5394.004582228042
 20
5425.3755988466555
 10
5408.378649131906
 20
5452.410096542592
 10
5429.388633191486
 20
5485.136247043137
 10
5455.9621799252645
 20
5525.236833834196
 10
5486.751068438776
 20
5572.819431767413
 10
5520.352233350057
 20
5626.96244569406
 10
5555.4064197037815
 20
5686.049735098054
 10
5590.578562342473
 20
5748.054261853006
 10
5624.541797244389
 20
5810.761461334647
 10
5656.009689304421
 20
5871.930983648994
 10
5683.82816805179
 20
5929.413513788414
 10
5707.134557427931
 20
5981.234403142482
 10
5725.535837837419
 20
6025.680696223628
 10
5739.185810267692
 20
6061.512451655693
 10
5748.79092356102
 20
6088.5520274704895
 10
5759.915662571507
 20
6120.818625769352
 10
5804.763540254428
 20
6103.671092934727
 10
5839.1433042006265
 20
6088.816448993285
 10
5874.41709166434
 20
6072.331693284531
 10
5910.68497841841
 20
6054.485058121699
 10
5948.027471941966
 20
6035.491805371258
 10
5986.51230203078
 20
6015.520905391597
 10
6026.193529432323
 20
5994.681157362764
 10
6067.107158681445
 20
5972.989230806036
 10
6109.263807820337
 20
5950.291506852521
 10
6163.373428826508
 20
5919.982775859
 10
6144.325446602888
 20
5889.767414735545
 10
6130.838580545767
 20
5867.981204384027
 10
6115.381331787404
 20
5842.414944000954
 10
6097.68644346847
 20
5812.586486915898
 10
6077.911184019085
 20
5778.703222607028
 10
6056.475103888821
 20
5741.403993021675
 10
6033.961475073431
 20
5701.622290970499
 10
6011.073042576072
 20
5660.473656561448
 10
5988.610624793773
 20
5619.143094418808
 10
5967.446890616052
 20
5578.781647821946
 10
5948.4676766839375
 20
5540.425838225211
 10
5932.449100505364
 20
5504.957345322869
 10
5919.898731277233
 20
5473.084461528925
 10
5910.990892310148
 20
5445.237042302185
 10
5905.64567228167
 20
5421.2389291012305
 10
5902.499190549216
 20
5387.620739564568
 10
5836.695504538799
 20
5389.8693409235775
 10
5783.144175544471
 20
5392.034560654178
 10
5730.765507695037
 20
5393.704613636768
 10
5679.580557788868
 20
5394.529782835665
 10
5629.631224947688
 20
5394.418512697774
 10
5580.971087132632
 20
5393.452366471886
 10
5533.650076343787
 20
5391.8530657397305
 10
5487.695683817924
 20
5389.983053270552
 10
5443.082785259125
 20
5388.391454551448
 10
5384.575361709312
 20
5387.859175792148
  0
TEXT
  5
4E
330
17
100
AcDbEntity
  8
0
100
AcDbText
 10
5400.0
 20
5400.0
 30
0.0
 40
25.0
  1
L08 DRAFT
100
AcDbText
  0
LWPOLYLINE
  5
4F
330
17
100
AcDbEntity
  8
0
100
AcDbPolyline
 90
53
 70
1
 10
2.7355947136002685
 20
7187.660461393342
 10
-0.06959682717297086
 20
7222.276095716389
 10
-2.0367129977129497
 20
7248.401807405042
 10
-4.043082689907906
 20
7279.072327077492
 10
-6.036694476624566
 20
7314.7998543764625
 10
-7.9146737365935325
 20
7355.293090044701
 10
-9.547009284410983
 20
7399.718219361518
 10
-10.814985698948133
 20
7446.892623901393
 10
-11.64086329802404
 20
7495.430090594099
 10
-12.00008378222238
 20
7543.861103317447
 10
-11.911821558486437
 20
7590.7431908179215
 10
-11.404702455962484
 20
7634.770075211056
 10
-10.45776702409799
 20
7674.887252537205
 10
-8.922490201883928
 20
7710.428020359398
 10
-6.428716672224655
 20
7741.288659587622
 10
-2.26294929983726
 20
7768.094596286896
 10
8.00630717287375
 20
7803.477730303586
 10
71.5767947455065
 20
7780.148182339961
 10
123.94832827687088
 20
7763.119056820185
 10
177.3397261228093
 20
7747.903290411747
 10
231.64988199582913
 20
7734.342593090739
 10
286.7490276727619
 20
7722.2612124483485
 10
342.49670044203407
 20
7711.5118350939065
 10
398.7417227767345
 20
7701.989801581097
 10
455.31334962300076
 20
7693.653345459244
 10
512.0044292723162
 20
7686.5883801740365
 10
580.1967835356511
 20
7680.067274825624
 10
578.5893696503173
 20
7644.874856517098
 10
578.4844191725639
 20
7620.2933208109835
 10
579.0692958646343
 20
7593.929540797141
 10
580.0683280129036
 20
7565.455530320762
 10
581.2248667808848
 20
7534.877732349666
 10
582.3104383417464
 20
7502.478899130331
 10
583.1320826752769
 20
7468.749582439836
 10
583.5415752883536
 20
7434.319109804797
 10
583.4466012855772
 20
7399.887070150492
 10
582.822148556841
 20
7366.154353815113
 10
581.719142903499
 20
7333.7521392617755
 10
580.2647939992833
 20
7303.16728658887
 10
578.6463566535667
 20
7274.664207102131
 10
577.0715831380398
 20
7248.207060697583
 10
575.7057521850667
 20
7223.393916231252
 10
574.0259429103324
 20
7187.629380281242
 10
505.82638632608416
 20
7189.803956023812
 10
449.51677745096333
 20
7190.543899529248
 10
393.2007111701138
 20
7190.766781632251
 10
337.03942444083566
 20
7190.774154736504
 10
281.21245438772047
 20
7190.705934703935
 10
225.90681008763315
 20
7190.6104839171385
 10
171.32056478742788
 20
7190.46993435367
 10
117.67403329123711
 20
7190.191076836741
 10
65.24014862849653
 20
7189.551820206071
 10
2.7355947136002685
 20
7187.660461393342
  0
TEXT
  5
50
330
17
100
AcDbEntity
  8
0
100
AcDbText
 10
0.0
 20
7200.0
 30
0.0
 40
25.0
  1
O09 DRAFT
100
AcDbText
  0
LWPOLYLINE
  5
51
330
17
100
AcDbEntity
  8
0
100
AcDbPolyline
 90
53
 70
1
 10
1786.9791896414956
 20
7187.000818835995
 10
1789.8369179426218
 20
7224.664276517489
 10
1795.043286950899
 20
7250.928338830375
 10
1802.759862112263
 20
7280.355231898221
 10
1812.343688494811
 20
7313.8517995363645
 10
1823.1992954987882
 20
7351.514244079276
 10
1834.7562502378607
 20
7392.835709244546
 10
1846.485204102524
 20
7436.89911427564
 10
1857.9107307443664
 20
7482.524406511431
 10
1868.620968585134
 20
7528.389803894145
 10
1878.2839508160741
 20
7573.139179311831
 10
1886.6736872641748
 20
7615.482521371041
 10
1893.6973552968716
 20
7654.300226831971
 10
1899.4087483139108
 20
7688.7738873056815
 10
1904.0040437657888
 20
7718.582031224794
 10
1907.8126278215018
 20
7744.191971526746
 10
1913.0747842109738
 20
7779.215258615222
 10
1975.414395620956
 20
7768.812100273059
 10
2026.6328599098913
 20
7759.024411192586
 10
2078.4612451263215
 20
7748.252311333284
 10
2130.8292349260983
 20
7736.8288451018325
 10
2183.6881492987422
 20
7725.0031044036
 10
2236.9955255368786
 20
7712.936128107616
 10
2290.712028017125
 20
7700.703765607143
 10
2344.8071913260856
 20
7688.278108325262
 10
2399.2705693822245
 20
7675.444610043807
 10
2466.002324496576
 20
7658.52380488874
 10
2455.4263842010664
 20
7623.5698685392545
 10
2448.3012224361755
 20
7599.901276883299
 10
2440.9488882774167
 20
7574.822789352673
 10
2433.32686469446
 20
7547.9556444916225
 10
2425.463382221223
 20
7519.259147611701
 10
2417.461396858844
 20
7488.957040775748
 10
2409.4885541920894
 20
7457.460812454996
 10
2401.7619625042057
 20
7425.299815781932
 10
2394.5279578258705
 20
7393.058066552983
 10
2388.032272508526
 20
7361.316144856624
 10
2382.477177638478
 20
7330.597043238362
 10
2377.9729606064866
 20
7301.312858787549
 10
2374.507098353881
 20
7273.705833553895
 10
2371.956046861017
 20
7247.781150634855
 10
2370.1430208528345
 20
7223.254311678675
 10
2368.325639462646
 20
7187.409165577879
 10
2299.258175375452
 20
7190.902846773579
 10
2242.340942585594
 20
7194.342400766378
 10
2185.8439876366388
 20
7197.450485121732
 10
2129.7720922454514
 20
7199.703074610749
 10
2074.122945987781
 20
7200.795907944924
 10
2018.8915300292815
 20
7200.560936777707
 10
1964.0574979929504
 20
7198.940064034383
 10
1909.5579968424802
 20
7196.006972388479
 10
1855.221070353771
 20
7192.064604534771
 10
1786.9791896414956
 20
7187.000818835995
  0
TEXT
  5
52
330
17
100
AcDbEntity
  8
0
100
AcDbText
 10
1800.0
 20
7200.0
 30
0.0
 40
25.0
  1
L09 DRAFT
100
AcDbText
  0
LWPOLYLINE
  5
53
330
17
100
AcDbEntity
  8
0
100
AcDbPolyline
 90
53
 70
1
 10
3597.2209709359386
 20
7187.773825566349
 10
3594.606905478198
 20
7223.174046118502
 10
3592.8129290135385
 20
7248.264963937147
 10
3591.1730713610873
 20
7275.078614226514
 10
3589.793383183131
 20
7303.920767941965
 10
3588.758960275402
 20
7334.782227882516
 10
3588.1427788595433
 20
7367.378572882168
 10
3587.9997371285585
 20
7401.217325895179
 10
3588.3568389629127
 20
7435.671312853966
 10
3589.205422555713
 20
7470.051730620479
 10
3590.49903740077
 20
7503.680023856006
 10
3592.1598205057853
 20
7535.959462205712
 10
3594.096270379626
 20
7566.447310261065
 10
3596.234481626702
 20
7594.927033607107
 10
3598.5616972280736
 20
7621.475456271977
 10
3601.1783852326635
 20
7646.507097227067
 10
3605.898850177385
 20
7682.465688850237
 10
3674.1019189045824
 20
7673.066264103235
 10
3730.1634960988995
 20
7666.9931076013745
 10
3786.183467700571
 20
7662.160905805469
 10
3842.042338021237
 20
7658.205130261207
 10
3897.58953272633
 20
7654.883972420244
 10
3952.6591743972804
 20
7652.042132681746
 10
4007.065539266842
 20
7649.593515176313
 10
4060.587722656458
 20
7647.544405773748
 10
4112.935139045804
 20
7646.08286623231
 10
4175.391636568689
 20
7645.764644733149
 10
4177.056147057264
 20
7611.466402828499
 10
4178.325654569473
 20
7587.759880384001
 10
4179.572308792761
 20
7562.6900494068395
 10
4180.665781569103
 20
7536.004223308834
 10
4181.498218300302
 20
7507.69585818782
 10
4181.978443088552
 20
7477.980469223882
 10
4182.03607538022
 20
7447.246849813321
 10
4181.629745104006
 20
7416.000138802287
 10
4180.756051224167
 20
7384.802735251705
 10
4179.457033867679
 20
7354.214608791029
 10
4177.823934996464
 20
7324.732804398189
 10
4175.993749145261
 20
7296.729835390858
 10
4174.1338164807075
 20
7270.392159569856
 10
4172.410912983386
 20
7245.662946748147
 10
4170.9432954817785
 20
7222.197699726785
 10
4169.09370125518
 20
7187.587853921885
 10
4106.624465035195
 20
7189.813609063997
 10
4054.793306215093
 20
7190.41309620606
 10
4001.663672533228
 20
7190.3950165724045
 10
3947.3804025779855
 20
7190.141632463293
 10
3892.1196355695934
 20
7189.855552513423
 10
3836.0701978976613
 20
7189.634204912274
 10
3779.4416063473973
 20
7189.505620955779
 10
3722.4596118914187
 20
7189.416435899459
 10
3665.4503780673062
 20
7189.145480145805
 10
3597.2209709359386
 20
7187.773825566349
  0
TEXT
  5
54
330
17
100
AcDbEntity
  8
0
100
AcDbText
 10
3600.0
 20
7200.0
 30
0.0
 40
25.0
  1
O10 DRAFT
100
AcDbText
  0
LWPOLYLINE
  5
55
330
17
100
AcDbEntity
  8
0
100
AcDbPolyline
 90
53
 70
1
 10
5387.178778366657
 20
7188.756115344952
 10
5389.59926035781
 20
7225.732804416521
 10
5391.854066981255
 20
7250.560494879362
 10
5394.494440462752
 20
7276.651517835532
 10
5397.327519911237
 20
7304.447333046766
 10
5400.17882087532
 20
7334.027914477112
 10
5402.8893854232
 20
7365.2125245173
 10
5405.320030014199
 20
7397.608101449138
 10
5407.361757302789
 20
7430.682912944306
 10
5408.945889490696
 20
7463.832457747663
 10
5410.053229803112
 20
7496.4433187077575
 10
5410.720671931317
 20
7527.957128268645
 10
5411.041544920637
 20
7557.936653150674
 10
5411.154591360594
 20
7586.134577683715
 10
5411.218294813807
 20
7612.55906616252
 10
5411.368921752038
 20
7637.513472265295
 10
5411.793948102482
 20
7673.73950297209
 10
5480.58553879761
 20
7672.005002362625
 10
5537.067376105189
 20
7669.405859239157
 10
5593.033550390047
 20
7666.104054943366
 10
5648.3683578063365
 20
7662.429276267246
 10
5702.989706118942
 20
7658.573048287909
 10
5756.8317028371885
 20
7654.6334793714705
 10
5809.847312202083
 20
7650.634419161613
 10
5862.02064196653
 20
7646.5050350998035
 10
5913.389786671018
 20
7641.9963224524445
 10
5976.289260795494
 20
7635.10120929506
 10
5970.6549586420915
 20
7600.086648642632
 10
5966.980137837997
 20
7577.013142969089
 10
5963.389009855428
 20
7552.900046115233
 10
5959.966810439233
 20
7527.414481338309
 10
5956.805193042395
 20
7500.48941882232
 10
5954.004075574034
 20
7472.278811202585
 10
5951.66286719238
 20
7443.101624790023
 10
5949.867698973139
 20
7413.385231670415
 10
5948.676945302164
 20
7383.610876875017
 10
5948.1059181182045
 20
7354.260501654985
 10
5948.1128576903675
 20
7325.763881039158
 10
5948.591911638939
 20
7298.445794091829
 10
5949.381460474261
 20
7272.4748207679695
 10
5950.293150064217
 20
7247.821796220777
 10
5951.162005334816
 20
7224.242794958445
 10
5952.335567570165
 20
7189.128981381993
 10
5889.147945160512
 20
7187.999476781712
 10
5837.051646824015
 20
7188.2536386218935
 10
5784.266418100821
 20
7189.0848518833345
 10
5730.891264703564
 20
7190.046017153841
 10
5676.988143185107
 20
7190.838041467874
 10
5622.604454409091
 20
7191.260664427639
 10
5567.76975596722
 20
7191.18632486427
 10
5512.474312890508
 20
7190.5764598165715
 10
5456.612860756575
 20
7189.580765513124
 10
5387.178778366657
 20
7188.756115344952
  0
TEXT
  5
56
330
17
100
AcDbEntity
  8
0
100
AcDbText
 10
5400.0
 20
7200.0
 30
0.0
 40
25.0
  1
L10 DRAFT
100
AcDbText
  0
LWPOLYLINE
  5
57
330
17
100
AcDbEntity
  8
0
100
AcDbPolyline
 90
53
 70
1
 10
0.5809707251974439
 20
8987.604532588952
 10
-3.172925772208262
 20
9021.6066595632
 10
-5.725993054011657
 20
9045.427697465462
 10
-8.044362560408405
 20
9070.708421095083
 10
-9.953015038675652
 20
9097.675205031868
 10
-11.310768476274493
 20
9126.31312151274
 10
-12.000288807168117
 20
9156.383795857528
 10
-11.935018181382638
 20
9187.473217290619
 10
-11.071309585719538
 20
9219.049757578372
 10
-9.421003296658267
 20
9250.525218329592
 10
-7.062262234163478
 20
9281.31708949617
 10
-4.146057257707305
 20
9310.912511039669
 10
-0.8922202474586302
 20
9338.93448240706
 10
2.4355952504557723
 20
9365.20854261174
 10
5.586544269292497
 20
9389.823582961859
 10
8.412462246916835
 20
9413.174198910645
 10
12.311993973507938
 20
9447.637913054776
 10
73.31476581061328
 20
9441.745379773698
 10
121.35591585629017
 20
9438.557435539318
 10
168.38782506261816
 20
9436.270581887466
 10
214.2913364819781
 20
9434.45621375369
 10
258.91760309231177
 20
9432.895538083128
 10
302.1055239786053
 20
9431.507685561035
 10
343.6746111999324
 20
9430.323532342287
 10
383.40582702557157
 20
9429.506202971843
 10
420.99727431432933
 20
9429.423247167155
 10
467.51778280392136
 20
9431.287742146502
 10
471.60470093435015
 20
9399.575517313373
 10
474.3162701736546
 20
9377.59462355716
 10
476.8082768334259
 20
9353.764413593104
 10
478.90280626519694
 20
9327.82546133313
 10
480.446257819661
 20
9299.824613645782
 10
481.3046889284922
 20
9270.074910869605
 10
481.37708850969716
 20
9239.088675307594
 10
480.61086437240925
 20
9207.50705971092
 10
479.01464271511685
 20
9176.03208649315
 10
476.6675839931214
 20
9145.360291442754
 10
473.7239629915093
 20
9116.114673421233
 10
470.40819235847664
 20
9088.771984562738
 10
466.99160031391057
 20
9063.585017266792
 10
463.7427064122174
 20
9040.502726329625
 10
460.8480036169562
 20
9019.095304164797
 10
456.8688161814203
 20
8987.018239707286
 10
410.4129212462015
 20
8991.158718271288
 10
373.7092563316248
 20
8992.551051731898
 10
334.77981254774846
 20
8992.840069782462
 10
293.69629658362834
 20
8992.549124741392
 10
250.59021033581163
 20
8992.030963969552
 10
205.62446325576855
 20
8991.48757755487
 10
158.9951638335694
 20
8991.002337235272
 10
110.93025031430247
 20
8990.534238735294
 10
61.78521735570481
 20
8989.820714586353
 10
0.5809707251974439
 20
8987.604532588952
  0
TEXT
  5
58
330
17
100
AcDbEntity
  8
0
100
AcDbText
 10
0.0
 20
9000.0
 30
0.0
 40
25.0
  1
O11 DRAFT
100
AcDbText
  0
LWPOLYLINE
  5
59
330
17
100
AcDbEntity
  8
0
100
AcDbPolyline
 90
53
 70
1
 10
1786.597861917293
 20
8995.1880177738
 10
1790.7059554812674
 20
9030.643808090555
 10
1793.4065215737296
 20
9053.789178955756
 10
1795.9643827380003
 20
9077.905567589554
 10
1798.2735813292709
 20
9103.351034921856
 10
1800.2505769776187
 20
9130.202167307016
 10
1801.8186693777097
 20
9158.313455080768
 10
1802.9094725246275
 20
9187.376395798046
 10
1803.4720051819718
 20
9216.976049540051
 10
1803.4854338870593
 20
9246.644557215737
 10
1802.9737319278076
 20
9275.913193857921
 10
1802.018889740548
 20
9304.363777786584
 10
1800.7650740619554
 20
9331.679179161254
 10
1799.4040938545163
 20
9357.690959863854
 10
1798.1370783990421
 20
9382.417322034395
 10
1797.1134515967833
 20
9406.073821820333
 10
1795.9272406880264
 20
9441.254029104633
 10
1857.9622331873434
 20
9442.228972821764
 10
1906.508891127953
 20
9441.633880962083
 10
1953.353919074822
 20
9440.203687798987
 10
1998.4148072076866
 20
9438.314534497082
 10
2041.673765781512
 20
9436.168398460497
 10
2083.1532127807463
 20
9433.835586807332
 10
2122.9136511842644
 20
9431.270021388294
 10
2161.057872468177
 20
9428.293450200552
 10
2197.7391515924833
 20
9424.535895985706
 10
2245.4408392278397
 20
9417.428757579719
 10
2237.938462419572
 20
9384.683231750321
 10
2233.3212764337227
 20
9363.980556371444
 10
2228.89077976556
 20
9341.999009186908
 10
2224.806488063595
 20
9318.315348534032
 10
2221.256206064701
 20
9292.851086649327
 10
2218.4370326434105
 20
9265.79734321693
 10
2216.523394391075
 20
9237.542940861764
 10
2215.6381353996685
 20
9208.608748666362
 10
2215.8312932100453
 20
9179.58359690319
 10
2217.065090532088
 20
9151.059444615961
 10
2219.204957083539
 20
9123.566424051016
 10
2222.023134217313
 20
9097.509144075593
 10
2225.2259629503496
 20
9073.105232525335
 10
2228.509566331758
 20
9050.33023854421
 10
2231.635818498771
 20
9028.890078841408
 10
2236.2473795676
 20
8995.990646993823
 10
2188.469608174694
 20
8990.851594058957
 10
2150.948760100608
 20
8988.75627242596
 10
2111.9599036487257
 20
8987.999659263798
 10
2071.6061112633706
 20
8988.11776028013
 10
2029.9079887690043
 20
8988.718040331949
 10
1986.84366268479
 20
8989.51917293488
 10
1942.3545840376337
 20
8990.364600968413
 10
1896.3597052845314
 20
8991.24475943058
 10
1848.6999565909
 20
8992.391176875068
 10
1786.597861917293
 20
8995.1880177738
  0
TEXT
  5
5A
330
17
100
AcDbEntity
  8
0
100
AcDbText
 10
1800.0
 20
9000.0
 30
0.0
 40
25.0
  1
L11 DRAFT
100
AcDbText
  0
LWPOLYLINE
  5
5B
330
17
100
AcDbEntity
  8
0
100
AcDbPolyline
 90
53
 70
1
 10
3618.0627531231394
 20
8986.892155697798
 10
3609.7474979621184
 20
9017.305467941103
 10
3604.0258008073315
 20
9039.270622157572
 10
3598.662885961922
 20
9063.494054542445
 10
3594.049590444988
 20
9090.194807691336
 10
3590.5386360689117
 20
9119.266547210998
 10
3588.4423934235165
 20
9150.305818028102
 10
3587.996664852582
 20
9182.683584353135
 10
3589.327254060306
 20
9215.626843021417
 10
3592.4270104761513
 20
9248.298977273258
 10
3597.139592336325
 20
9279.878982232496
 10
3603.1470008481474
 20
9309.645474874915
 10
3609.9679127222166
 20
9337.071201376953
 10
3616.9915515591415
 20
9361.927349094356
 10
3623.592127945336
 20
9384.386422836582
 10
3629.363988149982
 20
9405.096579081192
 10
3637.2596437915413
 20
9436.2837991107
 10
3680.9890801614147
 20
9427.10215967671
 10
3711.973569686553
 20
9422.870208582279
 10
3742.0681881401597
 20
9420.315848380917
 10
3771.270781953498
 20
9418.791131070127
 10
3799.5270572542345
 20
9417.934230276289
 10
3826.776859655164
 20
9417.611017864914
 10
3852.952678558533
 20
9417.864278497995
 10
3877.9452400028545
 20
9418.901148600555
 10
3901.5002024481932
 20
9421.130322781459
 10
3933.729227005494
 20
9427.374842732532
 10
3945.2972419215025
 20
9399.469740728717
 10
3953.3593794072176
 20
9378.740861529159
 10
3961.0528091659403
 20
9355.284655411411
 10
3967.8197335641253
 20
9328.890058617988
 10
3973.1566993173237
 20
9299.724065026207
 10
3976.636052985602
 20
9268.282881120147
 10
3977.949320658224
 20
9235.303305675336
 10
3976.9372684635414
 20
9201.672369621818
 10
3973.6075158832646
 20
9168.343616570137
 10
3968.14708513042
 20
9136.255462654677
 10
3960.931128266422
 20
9106.242365670496
 10
3952.5180187601195
 20
9078.931839070287
 10
3943.6091209948936
 20
9054.62981888765
 10
3934.9428155815554
 20
9033.207200087067
 10
3927.082227283475
 20
9013.993089105805
 10
3916.09495459211
 20
8985.423264349267
 10
3884.3861802205593
 20
8994.557531206558
 10
3862.6624511779123
 20
8997.714354088936
 10
3839.2026935198346
 20
8998.931668076038
 10
3813.923939440609
 20
8998.921817405168
 10
3786.8232279000486
 20
8998.204626913901
 10
3757.943485388116
 20
8997.110187026612
 10
3727.3935103004883
 20
8995.795631314548
 10
3695.387164240196
 20
8994.22020039476
 10
3662.3380418489214
 20
8992.028125281675
 10
3618.0627531231394
 20
8986.892155697798
  0
TEXT
  5
5C
330
17
100
AcDbEntity
  8
0
100
AcDbText
 10
3600.0
 20
9000.0
 30
0.0
 40
25.0
  1
O12 DRAFT
100
AcDbText
  0
LWPOLYLINE
  5
5D
330
17
100
AcDbEntity
  8
0
100
AcDbPolyline
 90
53
 70
1
 10
5384.568377613287
 20
9010.049227694297
 10
5394.605365705079
 20
9042.432101850725
 10
5400.562668446081
 20
9062.46252417289
 10
5406.145589169587
 20
9083.7153178159
 10
5411.20560136518
 20
9106.687245087971
 10
5415.575477067379
 20
9131.504282396249
 10
5419.103717244279
 20
9158.002989099781
 10
5421.691255172861
 20
9185.786049830427
 10
5423.281193703853
 20
9214.288558771494
 10
5423.819104815435
 20
9242.865564343821
 10
5423.233333210346
 20
9270.8894692623
 10
5421.483486881654
 20
9297.844630095287
 10
5418.6806842283395
 20
9323.39694805695
 10
5415.166201391698
 20
9347.422283831485
 10
5411.430484013654
 20
9370.006472616971
 10
5407.919729137165
 20
9391.42600141087
 10
5402.967285474512
 20
9424.404588815636
 10
5449.125049659275
 20
9429.52700027993
 10
5481.5265837510715
 20
9431.074349295446
 10
5511.95795025791
 20
9430.899285389813
 10
5540.453520584437
 20
9429.383158901534
 10
5567.177514003142
 20
9426.723603814435
 10
5592.360569340794
 20
9422.966833372615
 10
5616.266054572054
 20
9418.030795156597
 10
5639.166771223679
 20
9411.701890023794
 10
5661.325863067506
 20
9403.574964241267
 10
5694.371425512226
 20
9387.13858300821
 10
5675.628136364619
 20
9359.810764459038
 10
5664.731471007584
 20
9343.441744896332
 10
5654.06464561136
 20
9325.740601955556
 10
5643.949622491866
 20
9306.022288457647
 10
5634.983147426833
 20
9283.919818706092
 10
5627.813963295603
 20
9259.44885103969
 10
5622.913656738085
 20
9233.067349586025
 10
5620.537030885929
 20
9205.563460668147
 10
5620.791237239107
 20
9177.867033292707
 10
5623.668637344019
 20
9150.891414687525
 10
5628.9995455981125
 20
9125.396327765939
 10
5636.357007801749
 20
9101.854394088676
 10
5645.049092080297
 20
9080.368952861476
 10
5654.291921481395
 20
9060.693764808413
 10
5663.456961038878
 20
9042.323263474706
 10
5678.00115784499
 20
9013.096067786986
 10
5644.2280409734885
 20
8999.250100600333
 10
5620.526876729969
 20
8992.969252169283
 10
5596.028158787717
 20
8989.360841711155
 10
5570.857597218836
 20
8987.994591155586
 10
5544.990746868299
 20
8988.424435277595
 10
5518.2911680334855
 20
8990.228066859629
 10
5490.527514917385
 20
8993.04882605721
 10
5461.376490112131
 20
8996.679455682026
 10
5430.40845961053
 20
9001.241915181732
 10
5384.568377613287
 20
9010.049227694297
  0
TEXT
  5
5E
330
17
100
AcDbEntity
  8
0
100
AcDbText
 10
5400.0
 20
9000.0
 30
0.0
 40
25.0
  1
L12 DRAFT
100
AcDbText
  0
LWPOLYLINE
  5
5F
330
17
100
AcDbEntity
  8
0
100
AcDbPolyline
 90
5
 70
1
 10
-12.0
 20
10788.0
 10
-12.0
 20
11620.120872898333
 10
372.0
 20
11620.120872898333
 10
372.0
 20
10788.0
 10
-12.0
 20
10788.0
  0
TEXT
  5
60
330
17
100
AcDbEntity
  8
0
100
AcDbText
 10
0.0
 20
10800.0
 30
0.0
 40
25.0
  1
HC_OUTER DRAFT
100
AcDbText
  0
LWPOLYLINE
  5
61
330
17
100
AcDbEntity
  8
0
100
AcDbPolyline
 90
5
 70
1
 10
1788.0
 20
10788.0
 10
1788.0
 20
11620.120872898333
 10
2172.0
 20
11620.120872898333
 10
2172.0
 20
10788.0
 10
1788.0
 20
10788.0
  0
TEXT
  5
62
330
17
100
AcDbEntity
  8
0
100
AcDbText
 10
1800.0
 20
10800.0
 30
0.0
 40
25.0
  1
HC_LINING DRAFT
100
AcDbText
  0
LWPOLYLINE
  5
63
330
17
100
AcDbEntity
  8
0
100
AcDbPolyline
 90
5
 70
1
 10
3600.0
 20
10800.0
 10
3600.0
 20
10850.0
 10
3960.0
 20
10850.0
 10
3960.0
 20
10800.0
 10
3600.0
 20
10800.0
  0
TEXT
  5
64
330
17
100
AcDbEntity
  8
0
100
AcDbText
 10
3600.0
 20
10800.0
 30
0.0
 40
25.0
  1
HC_HINGE DRAFT
100
AcDbText
  0
LWPOLYLINE
  5
65
330
17
100
AcDbEntity
  8
0
100
AcDbPolyline
 90
5
 70
1
 10
5400.0
 20
10800.0
 10
5400.0
 20
10836.0
 10
6208.120872898334
 20
10836.0
 10
6208.120872898334
 20
10800.0
 10
5400.0
 20
10800.0
  0
TEXT
  5
66
330
17
100
AcDbEntity
  8
0
100
AcDbText
 10
5400.0
 20
10800.0
 30
0.0
 40
25.0
  1
HC_RIB_SLEEVE DRAFT
100
AcDbText
  0
LWPOLYLINE
  5
67
330
17
100
AcDbEntity
  8
0
100
AcDbPolyline
 90
5
 70
1
 10
0.0
 20
12600.0
 10
0.0
 20
12625.0
 10
800.0
 20
12625.0
 10
800.0
 20
12600.0
 10
0.0
 20
12600.0
  0
TEXT
  5
68
330
17
100
AcDbEntity
  8
0
100
AcDbText
 10
0.0
 20
12600.0
 30
0.0
 40
25.0
  1
HC_LIMIT_STRAP DRAFT
100
AcDbText
  0
ENDSEC
  0
SECTION
  2
OBJECTS
  0
DICTIONARY
  5
A
330
0
100
AcDbDictionary
281
1
  3
ACAD_COLOR
350
B
  3
ACAD_GROUP
350
C
  3
ACAD_LAYOUT
350
D
  3
ACAD_MATERIAL
350
E
  3
ACAD_MLEADERSTYLE
350
F
  3
ACAD_MLINESTYLE
350
10
  3
ACAD_PLOTSETTINGS
350
11
  3
ACAD_PLOTSTYLENAME
350
12
  3
ACAD_SCALELIST
350
14
  3
ACAD_TABLESTYLE
350
15
  3
ACAD_VISUALSTYLE
350
16
  3
EZDXF_META
350
2D
  0
DICTIONARY
  5
B
330
A
100
AcDbDictionary
281
1
  0
DICTIONARY
  5
C
330
A
100
AcDbDictionary
281
1
  0
DICTIONARY
  5
D
330
A
100
AcDbDictionary
281
1
  3
Model
350
1A
  3
Layout1
350
1E
  0
DICTIONARY
  5
E
330
A
100
AcDbDictionary
281
1
  3
ByBlock
350
1F
  3
ByLayer
350
20
  3
Global
350
21
  0
DICTIONARY
  5
F
330
A
100
AcDbDictionary
281
1
  3
Standard
350
2C
  0
DICTIONARY
  5
10
330
A
100
AcDbDictionary
281
1
  3
Standard
350
22
  0
DICTIONARY
  5
11
330
A
100
AcDbDictionary
281
1
  0
ACDBDICTIONARYWDFLT
  5
12
330
A
100
AcDbDictionary
281
1
  3
Normal
350
13
100
AcDbDictionaryWithDefault
340
13
  0
ACDBPLACEHOLDER
  5
13
330
12
  0
DICTIONARY
  5
14
330
A
100
AcDbDictionary
281
1
  0
DICTIONARY
  5
15
330
A
100
AcDbDictionary
281
1
  0
DICTIONARY
  5
16
330
A
100
AcDbDictionary
281
1
  0
LAYOUT
  5
1A
330
D
100
AcDbPlotSettings
  1

  4
A3
  6

 40
7.5
 41
20.0
 42
7.5
 43
20.0
 44
420.0
 45
297.0
 46
0.0
 47
0.0
 48
0.0
 49
0.0
140
0.0
141
0.0
142
1.0
143
1.0
 70
1024
 72
1
 73
0
 74
5
  7

 75
16
 76
0
 77
2
 78
300
147
1.0
148
0.0
149
0.0
100
AcDbLayout
  1
Model
 70
1
 71
0
 10
0.0
 20
0.0
 11
420.0
 21
297.0
 12
0.0
 22
0.0
 32
0.0
 14
1e+20
 24
1e+20
 34
1e+20
 15
-1e+20
 25
-1e+20
 35
-1e+20
146
0.0
 13
0.0
 23
0.0
 33
0.0
 16
1.0
 26
0.0
 36
0.0
 17
0.0
 27
1.0
 37
0.0
 76
1
330
17
  0
LAYOUT
  5
1E
330
D
100
AcDbPlotSettings
  1

  4
A3
  6

 40
7.5
 41
20.0
 42
7.5
 43
20.0
 44
420.0
 45
297.0
 46
0.0
 47
0.0
 48
0.0
 49
0.0
140
0.0
141
0.0
142
1.0
143
1.0
 70
0
 72
1
 73
0
 74
5
  7

 75
16
 76
0
 77
2
 78
300
147
1.0
148
0.0
149
0.0
100
AcDbLayout
  1
Layout1
 70
1
 71
1
 10
0.0
 20
0.0
 11
420.0
 21
297.0
 12
0.0
 22
0.0
 32
0.0
 14
1e+20
 24
1e+20
 34
1e+20
 15
-1e+20
 25
-1e+20
 35
-1e+20
146
0.0
 13
0.0
 23
0.0
 33
0.0
 16
1.0
 26
0.0
 36
0.0
 17
0.0
 27
1.0
 37
0.0
 76
1
330
1B
  0
MATERIAL
  5
1F
102
{ACAD_REACTORS
330
E
102
}
330
E
100
AcDbMaterial
  1
ByBlock
  2

 70
0
 40
1.0
 71
1
 41
1.0
 91
-1023410177
 42
1.0
 72
1
  3

 73
1
 74
1
 75
1
 44
0.5
 73
0
 45
1.0
 46
1.0
 77
1
  4

 78
1
 79
1
170
1
 48
1.0
171
1
  6

172
1
173
1
174
1
140
1.0
141
1.0
175
1
  7

176
1
177
1
178
1
143
1.0
179
1
  8

270
1
271
1
272
1
145
1.0
146
1.0
273
1
  9

274
1
275
1
276
1
 42
1.0
 72
1
  3

 73
1
 74
1
 75
1
 94
63
  0
MATERIAL
  5
20
102
{ACAD_REACTORS
330
E
102
}
330
E
100
AcDbMaterial
  1
ByLayer
  2

 70
0
 40
1.0
 71
1
 41
1.0
 91
-1023410177
 42
1.0
 72
1
  3

 73
1
 74
1
 75
1
 44
0.5
 73
0
 45
1.0
 46
1.0
 77
1
  4

 78
1
 79
1
170
1
 48
1.0
171
1
  6

172
1
173
1
174
1
140
1.0
141
1.0
175
1
  7

176
1
177
1
178
1
143
1.0
179
1
  8

270
1
271
1
272
1
145
1.0
146
1.0
273
1
  9

274
1
275
1
276
1
 42
1.0
 72
1
  3

 73
1
 74
1
 75
1
 94
63
  0
MATERIAL
  5
21
102
{ACAD_REACTORS
330
E
102
}
330
E
100
AcDbMaterial
  1
Global
  2

 70
0
 40
1.0
 71
1
 41
1.0
 91
-1023410177
 42
1.0
 72
1
  3

 73
1
 74
1
 75
1
 44
0.5
 73
0
 45
1.0
 46
1.0
 77
1
  4

 78
1
 79
1
170
1
 48
1.0
171
1
  6

172
1
173
1
174
1
140
1.0
141
1.0
175
1
  7

176
1
177
1
178
1
143
1.0
179
1
  8

270
1
271
1
272
1
145
1.0
146
1.0
273
1
  9

274
1
275
1
276
1
 42
1.0
 72
1
  3

 73
1
 74
1
 75
1
 94
63
  0
MLINESTYLE
  5
22
102
{ACAD_REACTORS
330
10
102
}
330
10
100
AcDbMlineStyle
  2
Standard
 70
0
  3

 62
256
 51
90.0
 52
90.0
 71
2
 49
0.5
 62
256
  6
BYLAYER
 49
-0.5
 62
256
  6
BYLAYER
  0
MLEADERSTYLE
  5
2C
102
{ACAD_REACTORS
330
F
102
}
330
F
100
AcDbMLeaderStyle
179
2
170
2
171
1
172
0
 90
2
 40
0.0
 41
0.0
173
1
 91
-1056964608
 92
-2
290
1
 42
2.0
291
1
 43
8.0
  3
Standard
 44
4.0
300

342
29
174
1
175
1
176
0
178
1
 93
-1056964608
 45
4.0
292
0
297
0
 46
4.0
 94
-1056964608
 47
1.0
 49
1.0
140
1.0
294
1
141
0.0
177
0
142
1.0
295
0
296
0
143
3.75
271
0
272
9
273
9
  0
DICTIONARY
  5
2D
330
A
100
AcDbDictionary
280
1
281
1
  3
CREATED_BY_EZDXF
350
2E
  3
WRITTEN_BY_EZDXF
350
6B
  0
DICTIONARYVAR
  5
2E
330
2D
100
DictionaryVariables
280
0
  1
1.4.4 @ 2026-10-02T18:03:52.993649+00:00
  0
DICTIONARYVAR
  5
6B
330
2D
100
DictionaryVariables
280
0
  1
1.4.4 @ 2026-10-02T18:03:53.013493+00:00
  0
ENDSEC
  0
EOF
