ISO-10303-21;
HEADER;
FILE_DESCRIPTION(('Open CASCADE Model'),'2;1');
FILE_NAME('Open CASCADE Shape Model','2026-10-02T17:52:51',('Author'),(
    'Open CASCADE'),'Open CASCADE STEP processor 7.9','Open CASCADE 7.9'
  ,'Unknown');
FILE_SCHEMA(('AUTOMOTIVE_DESIGN { 1 0 10303 214 1 1 1 1 }'));
ENDSEC;
DATA;
#1 = APPLICATION_PROTOCOL_DEFINITION('international standard',
  'automotive_design',2000,#2);
#2 = APPLICATION_CONTEXT(
  'core data for automotive mechanical design processes');
#3 = SHAPE_DEFINITION_REPRESENTATION(#4,#10);
#4 = PRODUCT_DEFINITION_SHAPE('','',#5);
#5 = PRODUCT_DEFINITION('design','',#6,#9);
#6 = PRODUCT_DEFINITION_FORMATION('','',#7);
#7 = PRODUCT('Lezhandr_R02_harness_sleep','Lezhandr_R02_harness_sleep',
  '',(#8));
#8 = PRODUCT_CONTEXT('',#2,'mechanical');
#9 = PRODUCT_DEFINITION_CONTEXT('part definition',#2,'design');
#10 = SHAPE_REPRESENTATION('',(#11,#15,#19,#23,#27,#31,#35,#39,#43,#47,
    #51,#55,#59,#63,#67),#71);
#11 = AXIS2_PLACEMENT_3D('',#12,#13,#14);
#12 = CARTESIAN_POINT('',(0.,0.,0.));
#13 = DIRECTION('',(0.,0.,1.));
#14 = DIRECTION('',(1.,0.,-0.));
#15 = AXIS2_PLACEMENT_3D('',#16,#17,#18);
#16 = CARTESIAN_POINT('',(0.,0.,0.));
#17 = DIRECTION('',(0.,0.,1.));
#18 = DIRECTION('',(1.,0.,-0.));
#19 = AXIS2_PLACEMENT_3D('',#20,#21,#22);
#20 = CARTESIAN_POINT('',(0.,0.,0.));
#21 = DIRECTION('',(0.,0.,1.));
#22 = DIRECTION('',(1.,0.,-0.));
#23 = AXIS2_PLACEMENT_3D('',#24,#25,#26);
#24 = CARTESIAN_POINT('',(0.,0.,0.));
#25 = DIRECTION('',(0.,0.,1.));
#26 = DIRECTION('',(1.,0.,-0.));
#27 = AXIS2_PLACEMENT_3D('',#28,#29,#30);
#28 = CARTESIAN_POINT('',(0.,0.,0.));
#29 = DIRECTION('',(0.,0.,1.));
#30 = DIRECTION('',(1.,0.,-0.));
#31 = AXIS2_PLACEMENT_3D('',#32,#33,#34);
#32 = CARTESIAN_POINT('',(0.,0.,0.));
#33 = DIRECTION('',(0.,0.,1.));
#34 = DIRECTION('',(1.,0.,-0.));
#35 = AXIS2_PLACEMENT_3D('',#36,#37,#38);
#36 = CARTESIAN_POINT('',(0.,0.,0.));
#37 = DIRECTION('',(0.,0.,1.));
#38 = DIRECTION('',(1.,0.,-0.));
#39 = AXIS2_PLACEMENT_3D('',#40,#41,#42);
#40 = CARTESIAN_POINT('',(0.,0.,0.));
#41 = DIRECTION('',(0.,0.,1.));
#42 = DIRECTION('',(1.,0.,-0.));
#43 = AXIS2_PLACEMENT_3D('',#44,#45,#46);
#44 = CARTESIAN_POINT('',(0.,0.,0.));
#45 = DIRECTION('',(0.,0.,1.));
#46 = DIRECTION('',(1.,0.,-0.));
#47 = AXIS2_PLACEMENT_3D('',#48,#49,#50);
#48 = CARTESIAN_POINT('',(0.,0.,0.));
#49 = DIRECTION('',(0.,0.,1.));
#50 = DIRECTION('',(1.,0.,-0.));
#51 = AXIS2_PLACEMENT_3D('',#52,#53,#54);
#52 = CARTESIAN_POINT('',(0.,0.,0.));
#53 = DIRECTION('',(0.,0.,1.));
#54 = DIRECTION('',(1.,0.,-0.));
#55 = AXIS2_PLACEMENT_3D('',#56,#57,#58);
#56 = CARTESIAN_POINT('',(0.,0.,0.));
#57 = DIRECTION('',(0.,0.,1.));
#58 = DIRECTION('',(1.,0.,-0.));
#59 = AXIS2_PLACEMENT_3D('',#60,#61,#62);
#60 = CARTESIAN_POINT('',(0.,0.,0.));
#61 = DIRECTION('',(0.,0.,1.));
#62 = DIRECTION('',(1.,0.,-0.));
#63 = AXIS2_PLACEMENT_3D('',#64,#65,#66);
#64 = CARTESIAN_POINT('',(0.,0.,0.));
#65 = DIRECTION('',(0.,0.,1.));
#66 = DIRECTION('',(1.,0.,-0.));
#67 = AXIS2_PLACEMENT_3D('',#68,#69,#70);
#68 = CARTESIAN_POINT('',(0.,0.,0.));
#69 = DIRECTION('',(0.,0.,1.));
#70 = DIRECTION('',(1.,0.,-0.));
#71 = ( GEOMETRIC_REPRESENTATION_CONTEXT(3) 
GLOBAL_UNCERTAINTY_ASSIGNED_CONTEXT((#75)) GLOBAL_UNIT_ASSIGNED_CONTEXT(
(#72,#73,#74)) REPRESENTATION_CONTEXT('Context #1',
  '3D Context with UNIT and UNCERTAINTY') );
#72 = ( LENGTH_UNIT() NAMED_UNIT(*) SI_UNIT(.MILLI.,.METRE.) );
#73 = ( NAMED_UNIT(*) PLANE_ANGLE_UNIT() SI_UNIT($,.RADIAN.) );
#74 = ( NAMED_UNIT(*) SI_UNIT($,.STERADIAN.) SOLID_ANGLE_UNIT() );
#75 = UNCERTAINTY_MEASURE_WITH_UNIT(LENGTH_MEASURE(1.E-07),#72,
  'distance_accuracy_value','confusion accuracy');
#76 = PRODUCT_RELATED_PRODUCT_CATEGORY('part',$,(#7));
#77 = SHAPE_DEFINITION_REPRESENTATION(#78,#84);
#78 = PRODUCT_DEFINITION_SHAPE('','',#79);
#79 = PRODUCT_DEFINITION('design','',#80,#83);
#80 = PRODUCT_DEFINITION_FORMATION('','',#81);
#81 = PRODUCT('HP0','HP0','',(#82));
#82 = PRODUCT_CONTEXT('',#2,'mechanical');
#83 = PRODUCT_DEFINITION_CONTEXT('part definition',#2,'design');
#84 = GEOMETRICALLY_BOUNDED_WIREFRAME_SHAPE_REPRESENTATION('',(#11,#85),
  #149);
#85 = GEOMETRIC_CURVE_SET('',(#86,#93,#100,#107,#114,#121,#128,#135,#142
    ));
#86 = TRIMMED_CURVE('',#87,(#91,PARAMETER_VALUE(0.)),(#92,
    PARAMETER_VALUE(216.56407827707)),.T.,.PARAMETER.);
#87 = LINE('',#88,#89);
#88 = CARTESIAN_POINT('',(1.6E+03,-820.,50.));
#89 = VECTOR('',#90,1.);
#90 = DIRECTION('',(-0.554108515848,0.831162773771,4.617570965396E-02));
#91 = CARTESIAN_POINT('',(1.6E+03,-820.,50.));
#92 = CARTESIAN_POINT('',(1.48E+03,-640.,60.));
#93 = TRIMMED_CURVE('',#94,(#98,PARAMETER_VALUE(0.)),(#99,
    PARAMETER_VALUE(343.47716403119)),.T.,.PARAMETER.);
#94 = LINE('',#95,#96);
#95 = CARTESIAN_POINT('',(1.48E+03,-640.,60.));
#96 = VECTOR('',#97,1.);
#97 = DIRECTION('',(-0.815192476594,0.420049960876,0.398772186183));
#98 = CARTESIAN_POINT('',(1.48E+03,-640.,60.));
#99 = CARTESIAN_POINT('',(1.2E+03,-495.7224306869,196.96913960456));
#100 = TRIMMED_CURVE('',#101,(#105,PARAMETER_VALUE(0.)),(#106,
    PARAMETER_VALUE(100.2643445698)),.T.,.PARAMETER.);
#101 = LINE('',#102,#103);
#102 = CARTESIAN_POINT('',(1.2E+03,-495.7224306869,196.96913960456));
#103 = VECTOR('',#104,1.);
#104 = DIRECTION('',(-0.997363523684,0.,7.256722142116E-02));
#105 = CARTESIAN_POINT('',(1.2E+03,-495.7224306869,196.96913960456));
#106 = CARTESIAN_POINT('',(1.1E+03,-495.7224306869,204.24504449761));
#107 = TRIMMED_CURVE('',#108,(#112,PARAMETER_VALUE(0.)),(#113,
    PARAMETER_VALUE(150.3965168547)),.T.,.PARAMETER.);
#108 = LINE('',#109,#110);
#109 = CARTESIAN_POINT('',(1.1E+03,-495.7224306869,204.24504449761));
#110 = VECTOR('',#111,1.);
#111 = DIRECTION('',(-0.997363523684,0.,7.256722142116E-02));
#112 = CARTESIAN_POINT('',(1.1E+03,-495.7224306869,204.24504449761));
#113 = CARTESIAN_POINT('',(950.,-495.7224306869,215.15890183717));
#114 = TRIMMED_CURVE('',#115,(#119,PARAMETER_VALUE(0.)),(#120,
    PARAMETER_VALUE(151.36319179329)),.T.,.PARAMETER.);
#115 = LINE('',#116,#117);
#116 = CARTESIAN_POINT('',(950.,-495.7224306869,215.15890183717));
#117 = VECTOR('',#118,1.);
#118 = DIRECTION('',(-0.990993901641,0.,0.133907008447));
#119 = CARTESIAN_POINT('',(950.,-495.7224306869,215.15890183717));
#120 = CARTESIAN_POINT('',(800.,-495.7224306869,235.42749403923));
#121 = TRIMMED_CURVE('',#122,(#126,PARAMETER_VALUE(0.)),(#127,
    PARAMETER_VALUE(151.36319179329)),.T.,.PARAMETER.);
#122 = LINE('',#123,#124);
#123 = CARTESIAN_POINT('',(800.,-495.7224306869,235.42749403923));
#124 = VECTOR('',#125,1.);
#125 = DIRECTION('',(-0.990993901641,0.,0.133907008447));
#126 = CARTESIAN_POINT('',(800.,-495.7224306869,235.42749403923));
#127 = CARTESIAN_POINT('',(650.,-495.7224306869,255.69608624128));
#128 = TRIMMED_CURVE('',#129,(#133,PARAMETER_VALUE(0.)),(#134,
    PARAMETER_VALUE(150.8081108225)),.T.,.PARAMETER.);
#129 = LINE('',#130,#131);
#130 = CARTESIAN_POINT('',(650.,-495.7224306869,255.69608624128));
#131 = VECTOR('',#132,1.);
#132 = DIRECTION('',(-0.994641463128,0.,0.10338452412));
#133 = CARTESIAN_POINT('',(650.,-495.7224306869,255.69608624128));
#134 = CARTESIAN_POINT('',(500.,-495.7224306869,271.28731101209));
#135 = TRIMMED_CURVE('',#136,(#140,PARAMETER_VALUE(0.)),(#141,
    PARAMETER_VALUE(2.16287292886)),.T.,.PARAMETER.);
#136 = LINE('',#137,#138);
#137 = CARTESIAN_POINT('',(500.,-495.7224306869,271.28731101209));
#138 = VECTOR('',#139,1.);
#139 = DIRECTION('',(-0.994641463128,0.,0.10338452412));
#140 = CARTESIAN_POINT('',(500.,-495.7224306869,271.28731101209));
#141 = CARTESIAN_POINT('',(497.84871690548,-495.7224306869,
    271.51091860057));
#142 = TRIMMED_CURVE('',#143,(#147,PARAMETER_VALUE(0.)),(#148,
    PARAMETER_VALUE(154.55873168596)),.T.,.PARAMETER.);
#143 = LINE('',#144,#145);
#144 = CARTESIAN_POINT('',(497.84871690548,-495.7224306869,
    271.51091860057));
#145 = VECTOR('',#146,1.);
#146 = DIRECTION('',(0.,0.942828846338,-0.333277311729));
#147 = CARTESIAN_POINT('',(497.84871690548,-495.7224306869,
    271.51091860057));
#148 = CARTESIAN_POINT('',(497.84871690548,-350.,220.));
#149 = ( GEOMETRIC_REPRESENTATION_CONTEXT(3) 
GLOBAL_UNCERTAINTY_ASSIGNED_CONTEXT((#153)) GLOBAL_UNIT_ASSIGNED_CONTEXT
((#150,#151,#152)) REPRESENTATION_CONTEXT('Context #1',
  '3D Context with UNIT and UNCERTAINTY') );
#150 = ( LENGTH_UNIT() NAMED_UNIT(*) SI_UNIT(.MILLI.,.METRE.) );
#151 = ( NAMED_UNIT(*) PLANE_ANGLE_UNIT() SI_UNIT($,.RADIAN.) );
#152 = ( NAMED_UNIT(*) SI_UNIT($,.STERADIAN.) SOLID_ANGLE_UNIT() );
#153 = UNCERTAINTY_MEASURE_WITH_UNIT(LENGTH_MEASURE(1.E-07),#150,
  'distance_accuracy_value','confusion accuracy');
#154 = CONTEXT_DEPENDENT_SHAPE_REPRESENTATION(#155,#157);
#155 = ( REPRESENTATION_RELATIONSHIP('','',#84,#10) 
REPRESENTATION_RELATIONSHIP_WITH_TRANSFORMATION(#156) 
SHAPE_REPRESENTATION_RELATIONSHIP() );
#156 = ITEM_DEFINED_TRANSFORMATION('','',#11,#15);
#157 = PRODUCT_DEFINITION_SHAPE('Placement','Placement of an item',#158
  );
#158 = NEXT_ASSEMBLY_USAGE_OCCURRENCE('21','HP0','',#5,#79,$);
#159 = PRODUCT_RELATED_PRODUCT_CATEGORY('part',$,(#81));
#160 = SHAPE_DEFINITION_REPRESENTATION(#161,#167);
#161 = PRODUCT_DEFINITION_SHAPE('','',#162);
#162 = PRODUCT_DEFINITION('design','',#163,#166);
#163 = PRODUCT_DEFINITION_FORMATION('','',#164);
#164 = PRODUCT('NTC00','NTC00','',(#165));
#165 = PRODUCT_CONTEXT('',#2,'mechanical');
#166 = PRODUCT_DEFINITION_CONTEXT('part definition',#2,'design');
#167 = GEOMETRICALLY_BOUNDED_WIREFRAME_SHAPE_REPRESENTATION('',(#11,#168
    ),#232);
#168 = GEOMETRIC_CURVE_SET('',(#169,#176,#183,#190,#197,#204,#211,#218,
    #225));
#169 = TRIMMED_CURVE('',#170,(#174,PARAMETER_VALUE(0.)),(#175,
    PARAMETER_VALUE(240.10414407085)),.T.,.PARAMETER.);
#170 = LINE('',#171,#172);
#171 = CARTESIAN_POINT('',(1.6E+03,-795.,65.));
#172 = VECTOR('',#173,1.);
#173 = DIRECTION('',(-0.583080315176,0.812147581853,2.082429697059E-02)
  );
#174 = CARTESIAN_POINT('',(1.6E+03,-795.,65.));
#175 = CARTESIAN_POINT('',(1.46E+03,-600.,70.));
#176 = TRIMMED_CURVE('',#177,(#181,PARAMETER_VALUE(0.)),(#182,
    PARAMETER_VALUE(297.25256072318)),.T.,.PARAMETER.);
#177 = LINE('',#178,#179);
#178 = CARTESIAN_POINT('',(1.46E+03,-600.,70.));
#179 = VECTOR('',#180,1.);
#180 = DIRECTION('',(-0.874677073824,0.478866389221,7.50133174922E-02));
#181 = CARTESIAN_POINT('',(1.46E+03,-600.,70.));
#182 = CARTESIAN_POINT('',(1.2E+03,-457.6557395597,92.297900712899));
#183 = TRIMMED_CURVE('',#184,(#188,PARAMETER_VALUE(0.)),(#189,
    PARAMETER_VALUE(100.05810388205)),.T.,.PARAMETER.);
#184 = LINE('',#185,#186);
#185 = CARTESIAN_POINT('',(1.2E+03,-457.6557395597,92.297900712899));
#186 = VECTOR('',#187,1.);
#187 = DIRECTION('',(-0.999419298589,0.,3.407441278852E-02));
#188 = CARTESIAN_POINT('',(1.2E+03,-457.6557395597,92.297900712899));
#189 = CARTESIAN_POINT('',(1.1E+03,-457.6557395597,95.707321847412));
#190 = TRIMMED_CURVE('',#191,(#195,PARAMETER_VALUE(0.)),(#196,
    PARAMETER_VALUE(150.08715582308)),.T.,.PARAMETER.);
#191 = LINE('',#192,#193);
#192 = CARTESIAN_POINT('',(1.1E+03,-457.6557395597,95.707321847412));
#193 = VECTOR('',#194,1.);
#194 = DIRECTION('',(-0.999419298589,0.,3.407441278852E-02));
#195 = CARTESIAN_POINT('',(1.1E+03,-457.6557395597,95.707321847412));
#196 = CARTESIAN_POINT('',(950.,-457.6557395597,100.82145354918));
#197 = TRIMMED_CURVE('',#198,(#202,PARAMETER_VALUE(0.)),(#203,
    PARAMETER_VALUE(150.30038521395)),.T.,.PARAMETER.);
#198 = LINE('',#199,#200);
#199 = CARTESIAN_POINT('',(950.,-457.6557395597,100.82145354918));
#200 = VECTOR('',#201,1.);
#201 = DIRECTION('',(-0.998001434171,0.,6.319127623599E-02));
#202 = CARTESIAN_POINT('',(950.,-457.6557395597,100.82145354918));
#203 = CARTESIAN_POINT('',(800.,-457.6557395597,110.31912670961));
#204 = TRIMMED_CURVE('',#205,(#209,PARAMETER_VALUE(0.)),(#210,
    PARAMETER_VALUE(150.30038521395)),.T.,.PARAMETER.);
#205 = LINE('',#206,#207);
#206 = CARTESIAN_POINT('',(800.,-457.6557395597,110.31912670961));
#207 = VECTOR('',#208,1.);
#208 = DIRECTION('',(-0.998001434171,0.,6.319127623599E-02));
#209 = CARTESIAN_POINT('',(800.,-457.6557395597,110.31912670961));
#210 = CARTESIAN_POINT('',(650.,-457.6557395597,119.81679987004));
#211 = TRIMMED_CURVE('',#212,(#216,PARAMETER_VALUE(0.)),(#217,
    PARAMETER_VALUE(150.17781530683)),.T.,.PARAMETER.);
#212 = LINE('',#213,#214);
#213 = CARTESIAN_POINT('',(650.,-457.6557395597,119.81679987004));
#214 = VECTOR('',#215,1.);
#215 = DIRECTION('',(-0.998815968214,0.,4.864834673599E-02));
#216 = CARTESIAN_POINT('',(650.,-457.6557395597,119.81679987004));
#217 = CARTESIAN_POINT('',(500.,-457.6557395597,127.12270230114));
#218 = TRIMMED_CURVE('',#219,(#223,PARAMETER_VALUE(0.)),(#224,
    PARAMETER_VALUE(26.170883164418)),.T.,.PARAMETER.);
#219 = LINE('',#220,#221);
#220 = CARTESIAN_POINT('',(500.,-457.6557395597,127.12270230114));
#221 = VECTOR('',#222,1.);
#222 = DIRECTION('',(-0.998815968214,0.,4.864834673599E-02));
#223 = CARTESIAN_POINT('',(500.,-457.6557395597,127.12270230114));
#224 = CARTESIAN_POINT('',(473.8601039931,-457.6557395597,
    128.39587249971));
#225 = TRIMMED_CURVE('',#226,(#230,PARAMETER_VALUE(0.)),(#231,
    PARAMETER_VALUE(147.67699813957)),.T.,.PARAMETER.);
#226 = LINE('',#227,#228);
#227 = CARTESIAN_POINT('',(473.8601039931,-457.6557395597,
    128.39587249971));
#228 = VECTOR('',#229,1.);
#229 = DIRECTION('',(0.,0.898283017876,0.439417364012));
#230 = CARTESIAN_POINT('',(473.8601039931,-457.6557395597,
    128.39587249971));
#231 = CARTESIAN_POINT('',(473.8601039931,-325.,193.28770974737));
#232 = ( GEOMETRIC_REPRESENTATION_CONTEXT(3) 
GLOBAL_UNCERTAINTY_ASSIGNED_CONTEXT((#236)) GLOBAL_UNIT_ASSIGNED_CONTEXT
((#233,#234,#235)) REPRESENTATION_CONTEXT('Context #1',
  '3D Context with UNIT and UNCERTAINTY') );
#233 = ( LENGTH_UNIT() NAMED_UNIT(*) SI_UNIT(.MILLI.,.METRE.) );
#234 = ( NAMED_UNIT(*) PLANE_ANGLE_UNIT() SI_UNIT($,.RADIAN.) );
#235 = ( NAMED_UNIT(*) SI_UNIT($,.STERADIAN.) SOLID_ANGLE_UNIT() );
#236 = UNCERTAINTY_MEASURE_WITH_UNIT(LENGTH_MEASURE(1.E-07),#233,
  'distance_accuracy_value','confusion accuracy');
#237 = CONTEXT_DEPENDENT_SHAPE_REPRESENTATION(#238,#240);
#238 = ( REPRESENTATION_RELATIONSHIP('','',#167,#10) 
REPRESENTATION_RELATIONSHIP_WITH_TRANSFORMATION(#239) 
SHAPE_REPRESENTATION_RELATIONSHIP() );
#239 = ITEM_DEFINED_TRANSFORMATION('','',#11,#19);
#240 = PRODUCT_DEFINITION_SHAPE('Placement','Placement of an item',#241
  );
#241 = NEXT_ASSEMBLY_USAGE_OCCURRENCE('22','NTC00','',#5,#162,$);
#242 = PRODUCT_RELATED_PRODUCT_CATEGORY('part',$,(#164));
#243 = SHAPE_DEFINITION_REPRESENTATION(#244,#250);
#244 = PRODUCT_DEFINITION_SHAPE('','',#245);
#245 = PRODUCT_DEFINITION('design','',#246,#249);
#246 = PRODUCT_DEFINITION_FORMATION('','',#247);
#247 = PRODUCT('NTC01','NTC01','',(#248));
#248 = PRODUCT_CONTEXT('',#2,'mechanical');
#249 = PRODUCT_DEFINITION_CONTEXT('part definition',#2,'design');
#250 = GEOMETRICALLY_BOUNDED_WIREFRAME_SHAPE_REPRESENTATION('',(#11,#251
    ),#308);
#251 = GEOMETRIC_CURVE_SET('',(#252,#259,#266,#273,#280,#287,#294,#301)
  );
#252 = TRIMMED_CURVE('',#253,(#257,PARAMETER_VALUE(0.)),(#258,
    PARAMETER_VALUE(240.10414407085)),.T.,.PARAMETER.);
#253 = LINE('',#254,#255);
#254 = CARTESIAN_POINT('',(1.6E+03,-795.,65.));
#255 = VECTOR('',#256,1.);
#256 = DIRECTION('',(-0.583080315176,0.812147581853,2.082429697059E-02)
  );
#257 = CARTESIAN_POINT('',(1.6E+03,-795.,65.));
#258 = CARTESIAN_POINT('',(1.46E+03,-600.,70.));
#259 = TRIMMED_CURVE('',#260,(#264,PARAMETER_VALUE(0.)),(#265,
    PARAMETER_VALUE(297.25256072318)),.T.,.PARAMETER.);
#260 = LINE('',#261,#262);
#261 = CARTESIAN_POINT('',(1.46E+03,-600.,70.));
#262 = VECTOR('',#263,1.);
#263 = DIRECTION('',(-0.874677073824,0.478866389221,7.50133174922E-02));
#264 = CARTESIAN_POINT('',(1.46E+03,-600.,70.));
#265 = CARTESIAN_POINT('',(1.2E+03,-457.6557395597,92.297900712899));
#266 = TRIMMED_CURVE('',#267,(#271,PARAMETER_VALUE(0.)),(#272,
    PARAMETER_VALUE(100.05810388205)),.T.,.PARAMETER.);
#267 = LINE('',#268,#269);
#268 = CARTESIAN_POINT('',(1.2E+03,-457.6557395597,92.297900712899));
#269 = VECTOR('',#270,1.);
#270 = DIRECTION('',(-0.999419298589,0.,3.407441278852E-02));
#271 = CARTESIAN_POINT('',(1.2E+03,-457.6557395597,92.297900712899));
#272 = CARTESIAN_POINT('',(1.1E+03,-457.6557395597,95.707321847412));
#273 = TRIMMED_CURVE('',#274,(#278,PARAMETER_VALUE(0.)),(#279,
    PARAMETER_VALUE(150.08715582308)),.T.,.PARAMETER.);
#274 = LINE('',#275,#276);
#275 = CARTESIAN_POINT('',(1.1E+03,-457.6557395597,95.707321847412));
#276 = VECTOR('',#277,1.);
#277 = DIRECTION('',(-0.999419298589,0.,3.407441278852E-02));
#278 = CARTESIAN_POINT('',(1.1E+03,-457.6557395597,95.707321847412));
#279 = CARTESIAN_POINT('',(950.,-457.6557395597,100.82145354918));
#280 = TRIMMED_CURVE('',#281,(#285,PARAMETER_VALUE(0.)),(#286,
    PARAMETER_VALUE(150.30038521395)),.T.,.PARAMETER.);
#281 = LINE('',#282,#283);
#282 = CARTESIAN_POINT('',(950.,-457.6557395597,100.82145354918));
#283 = VECTOR('',#284,1.);
#284 = DIRECTION('',(-0.998001434171,0.,6.319127623599E-02));
#285 = CARTESIAN_POINT('',(950.,-457.6557395597,100.82145354918));
#286 = CARTESIAN_POINT('',(800.,-457.6557395597,110.31912670961));
#287 = TRIMMED_CURVE('',#288,(#292,PARAMETER_VALUE(0.)),(#293,
    PARAMETER_VALUE(150.30038521395)),.T.,.PARAMETER.);
#288 = LINE('',#289,#290);
#289 = CARTESIAN_POINT('',(800.,-457.6557395597,110.31912670961));
#290 = VECTOR('',#291,1.);
#291 = DIRECTION('',(-0.998001434171,0.,6.319127623599E-02));
#292 = CARTESIAN_POINT('',(800.,-457.6557395597,110.31912670961));
#293 = CARTESIAN_POINT('',(650.,-457.6557395597,119.81679987004));
#294 = TRIMMED_CURVE('',#295,(#299,PARAMETER_VALUE(0.)),(#300,
    PARAMETER_VALUE(119.08074851473)),.T.,.PARAMETER.);
#295 = LINE('',#296,#297);
#296 = CARTESIAN_POINT('',(650.,-457.6557395597,119.81679987004));
#297 = VECTOR('',#298,1.);
#298 = DIRECTION('',(-0.998815968214,0.,4.864834673599E-02));
#299 = CARTESIAN_POINT('',(650.,-457.6557395597,119.81679987004));
#300 = CARTESIAN_POINT('',(531.06024687656,-457.6557395597,
    125.60988141336));
#301 = TRIMMED_CURVE('',#302,(#306,PARAMETER_VALUE(0.)),(#307,
    PARAMETER_VALUE(171.07779975158)),.T.,.PARAMETER.);
#302 = LINE('',#303,#304);
#303 = CARTESIAN_POINT('',(531.06024687656,-457.6557395597,
    125.60988141336));
#304 = VECTOR('',#305,1.);
#305 = DIRECTION('',(0.,0.775411770273,0.631455926033));
#306 = CARTESIAN_POINT('',(531.06024687656,-457.6557395597,
    125.60988141336));
#307 = CARTESIAN_POINT('',(531.06024687656,-325.,233.63797187926));
#308 = ( GEOMETRIC_REPRESENTATION_CONTEXT(3) 
GLOBAL_UNCERTAINTY_ASSIGNED_CONTEXT((#312)) GLOBAL_UNIT_ASSIGNED_CONTEXT
((#309,#310,#311)) REPRESENTATION_CONTEXT('Context #1',
  '3D Context with UNIT and UNCERTAINTY') );
#309 = ( LENGTH_UNIT() NAMED_UNIT(*) SI_UNIT(.MILLI.,.METRE.) );
#310 = ( NAMED_UNIT(*) PLANE_ANGLE_UNIT() SI_UNIT($,.RADIAN.) );
#311 = ( NAMED_UNIT(*) SI_UNIT($,.STERADIAN.) SOLID_ANGLE_UNIT() );
#312 = UNCERTAINTY_MEASURE_WITH_UNIT(LENGTH_MEASURE(1.E-07),#309,
  'distance_accuracy_value','confusion accuracy');
#313 = CONTEXT_DEPENDENT_SHAPE_REPRESENTATION(#314,#316);
#314 = ( REPRESENTATION_RELATIONSHIP('','',#250,#10) 
REPRESENTATION_RELATIONSHIP_WITH_TRANSFORMATION(#315) 
SHAPE_REPRESENTATION_RELATIONSHIP() );
#315 = ITEM_DEFINED_TRANSFORMATION('','',#11,#23);
#316 = PRODUCT_DEFINITION_SHAPE('Placement','Placement of an item',#317
  );
#317 = NEXT_ASSEMBLY_USAGE_OCCURRENCE('23','NTC01','',#5,#245,$);
#318 = PRODUCT_RELATED_PRODUCT_CATEGORY('part',$,(#247));
#319 = SHAPE_DEFINITION_REPRESENTATION(#320,#326);
#320 = PRODUCT_DEFINITION_SHAPE('','',#321);
#321 = PRODUCT_DEFINITION('design','',#322,#325);
#322 = PRODUCT_DEFINITION_FORMATION('','',#323);
#323 = PRODUCT('TH0','TH0','',(#324));
#324 = PRODUCT_CONTEXT('',#2,'mechanical');
#325 = PRODUCT_DEFINITION_CONTEXT('part definition',#2,'design');
#326 = GEOMETRICALLY_BOUNDED_WIREFRAME_SHAPE_REPRESENTATION('',(#11,#327
    ),#384);
#327 = GEOMETRIC_CURVE_SET('',(#328,#335,#342,#349,#356,#363,#370,#377)
  );
#328 = TRIMMED_CURVE('',#329,(#333,PARAMETER_VALUE(0.)),(#334,
    PARAMETER_VALUE(220.45407685048)),.T.,.PARAMETER.);
#329 = LINE('',#330,#331);
#330 = CARTESIAN_POINT('',(1.6E+03,-790.,50.));
#331 = VECTOR('',#332,1.);
#332 = DIRECTION('',(-0.498970132789,0.86185750209,9.07218423253E-02));
#333 = CARTESIAN_POINT('',(1.6E+03,-790.,50.));
#334 = CARTESIAN_POINT('',(1.49E+03,-600.,70.));
#335 = TRIMMED_CURVE('',#336,(#340,PARAMETER_VALUE(0.)),(#341,
    PARAMETER_VALUE(323.81952513165)),.T.,.PARAMETER.);
#336 = LINE('',#337,#338);
#337 = CARTESIAN_POINT('',(1.49E+03,-600.,70.));
#338 = VECTOR('',#339,1.);
#339 = DIRECTION('',(-0.89556057462,0.439578991978,6.885903715606E-02));
#340 = CARTESIAN_POINT('',(1.49E+03,-600.,70.));
#341 = CARTESIAN_POINT('',(1.2E+03,-457.6557395597,92.297900712899));
#342 = TRIMMED_CURVE('',#343,(#347,PARAMETER_VALUE(0.)),(#348,
    PARAMETER_VALUE(100.05810388205)),.T.,.PARAMETER.);
#343 = LINE('',#344,#345);
#344 = CARTESIAN_POINT('',(1.2E+03,-457.6557395597,92.297900712899));
#345 = VECTOR('',#346,1.);
#346 = DIRECTION('',(-0.999419298589,0.,3.407441278852E-02));
#347 = CARTESIAN_POINT('',(1.2E+03,-457.6557395597,92.297900712899));
#348 = CARTESIAN_POINT('',(1.1E+03,-457.6557395597,95.707321847412));
#349 = TRIMMED_CURVE('',#350,(#354,PARAMETER_VALUE(0.)),(#355,
    PARAMETER_VALUE(150.08715582308)),.T.,.PARAMETER.);
#350 = LINE('',#351,#352);
#351 = CARTESIAN_POINT('',(1.1E+03,-457.6557395597,95.707321847412));
#352 = VECTOR('',#353,1.);
#353 = DIRECTION('',(-0.999419298589,0.,3.407441278852E-02));
#354 = CARTESIAN_POINT('',(1.1E+03,-457.6557395597,95.707321847412));
#355 = CARTESIAN_POINT('',(950.,-457.6557395597,100.82145354918));
#356 = TRIMMED_CURVE('',#357,(#361,PARAMETER_VALUE(0.)),(#362,
    PARAMETER_VALUE(150.30038521395)),.T.,.PARAMETER.);
#357 = LINE('',#358,#359);
#358 = CARTESIAN_POINT('',(950.,-457.6557395597,100.82145354918));
#359 = VECTOR('',#360,1.);
#360 = DIRECTION('',(-0.998001434171,0.,6.319127623599E-02));
#361 = CARTESIAN_POINT('',(950.,-457.6557395597,100.82145354918));
#362 = CARTESIAN_POINT('',(800.,-457.6557395597,110.31912670961));
#363 = TRIMMED_CURVE('',#364,(#368,PARAMETER_VALUE(0.)),(#369,
    PARAMETER_VALUE(150.30038521395)),.T.,.PARAMETER.);
#364 = LINE('',#365,#366);
#365 = CARTESIAN_POINT('',(800.,-457.6557395597,110.31912670961));
#366 = VECTOR('',#367,1.);
#367 = DIRECTION('',(-0.998001434171,0.,6.319127623599E-02));
#368 = CARTESIAN_POINT('',(800.,-457.6557395597,110.31912670961));
#369 = CARTESIAN_POINT('',(650.,-457.6557395597,119.81679987004));
#370 = TRIMMED_CURVE('',#371,(#375,PARAMETER_VALUE(0.)),(#376,
    PARAMETER_VALUE(149.44607041128)),.T.,.PARAMETER.);
#371 = LINE('',#372,#373);
#372 = CARTESIAN_POINT('',(650.,-457.6557395597,119.81679987004));
#373 = VECTOR('',#374,1.);
#374 = DIRECTION('',(-0.998815968214,0.,4.864834673599E-02));
#375 = CARTESIAN_POINT('',(650.,-457.6557395597,119.81679987004));
#376 = CARTESIAN_POINT('',(500.73087848632,-457.6557395597,
    127.08710412174));
#377 = TRIMMED_CURVE('',#378,(#382,PARAMETER_VALUE(0.)),(#383,
    PARAMETER_VALUE(172.31507131261)),.T.,.PARAMETER.);
#378 = LINE('',#379,#380);
#379 = CARTESIAN_POINT('',(500.73087848632,-457.6557395597,
    127.08710412174));
#380 = VECTOR('',#381,1.);
#381 = DIRECTION('',(0.,0.856893935249,0.515492758178));
#382 = CARTESIAN_POINT('',(500.73087848632,-457.6557395597,
    127.08710412174));
#383 = CARTESIAN_POINT('',(500.73087848632,-310.,215.91427550832));
#384 = ( GEOMETRIC_REPRESENTATION_CONTEXT(3) 
GLOBAL_UNCERTAINTY_ASSIGNED_CONTEXT((#388)) GLOBAL_UNIT_ASSIGNED_CONTEXT
((#385,#386,#387)) REPRESENTATION_CONTEXT('Context #1',
  '3D Context with UNIT and UNCERTAINTY') );
#385 = ( LENGTH_UNIT() NAMED_UNIT(*) SI_UNIT(.MILLI.,.METRE.) );
#386 = ( NAMED_UNIT(*) PLANE_ANGLE_UNIT() SI_UNIT($,.RADIAN.) );
#387 = ( NAMED_UNIT(*) SI_UNIT($,.STERADIAN.) SOLID_ANGLE_UNIT() );
#388 = UNCERTAINTY_MEASURE_WITH_UNIT(LENGTH_MEASURE(1.E-07),#385,
  'distance_accuracy_value','confusion accuracy');
#389 = CONTEXT_DEPENDENT_SHAPE_REPRESENTATION(#390,#392);
#390 = ( REPRESENTATION_RELATIONSHIP('','',#326,#10) 
REPRESENTATION_RELATIONSHIP_WITH_TRANSFORMATION(#391) 
SHAPE_REPRESENTATION_RELATIONSHIP() );
#391 = ITEM_DEFINED_TRANSFORMATION('','',#11,#27);
#392 = PRODUCT_DEFINITION_SHAPE('Placement','Placement of an item',#393
  );
#393 = NEXT_ASSEMBLY_USAGE_OCCURRENCE('24','TH0','',#5,#321,$);
#394 = PRODUCT_RELATED_PRODUCT_CATEGORY('part',$,(#323));
#395 = SHAPE_DEFINITION_REPRESENTATION(#396,#402);
#396 = PRODUCT_DEFINITION_SHAPE('','',#397);
#397 = PRODUCT_DEFINITION('design','',#398,#401);
#398 = PRODUCT_DEFINITION_FORMATION('','',#399);
#399 = PRODUCT('HP1','HP1','',(#400));
#400 = PRODUCT_CONTEXT('',#2,'mechanical');
#401 = PRODUCT_DEFINITION_CONTEXT('part definition',#2,'design');
#402 = GEOMETRICALLY_BOUNDED_WIREFRAME_SHAPE_REPRESENTATION('',(#11,#403
    ),#446);
#403 = GEOMETRIC_CURVE_SET('',(#404,#411,#418,#425,#432,#439));
#404 = TRIMMED_CURVE('',#405,(#409,PARAMETER_VALUE(0.)),(#410,
    PARAMETER_VALUE(216.56407827707)),.T.,.PARAMETER.);
#405 = LINE('',#406,#407);
#406 = CARTESIAN_POINT('',(1.6E+03,-820.,50.));
#407 = VECTOR('',#408,1.);
#408 = DIRECTION('',(-0.554108515848,0.831162773771,4.617570965396E-02)
  );
#409 = CARTESIAN_POINT('',(1.6E+03,-820.,50.));
#410 = CARTESIAN_POINT('',(1.48E+03,-640.,60.));
#411 = TRIMMED_CURVE('',#412,(#416,PARAMETER_VALUE(0.)),(#417,
    PARAMETER_VALUE(343.47716403119)),.T.,.PARAMETER.);
#412 = LINE('',#413,#414);
#413 = CARTESIAN_POINT('',(1.48E+03,-640.,60.));
#414 = VECTOR('',#415,1.);
#415 = DIRECTION('',(-0.815192476594,0.420049960876,0.398772186183));
#416 = CARTESIAN_POINT('',(1.48E+03,-640.,60.));
#417 = CARTESIAN_POINT('',(1.2E+03,-495.7224306869,196.96913960456));
#418 = TRIMMED_CURVE('',#419,(#423,PARAMETER_VALUE(0.)),(#424,
    PARAMETER_VALUE(50.132172284903)),.T.,.PARAMETER.);
#419 = LINE('',#420,#421);
#420 = CARTESIAN_POINT('',(1.2E+03,-495.7224306869,196.96913960456));
#421 = VECTOR('',#422,1.);
#422 = DIRECTION('',(0.997363523684,0.,-7.256722142116E-02));
#423 = CARTESIAN_POINT('',(1.2E+03,-495.7224306869,196.96913960456));
#424 = CARTESIAN_POINT('',(1.25E+03,-495.7224306869,193.33118715804));
#425 = TRIMMED_CURVE('',#426,(#430,PARAMETER_VALUE(0.)),(#431,
    PARAMETER_VALUE(150.61808442435)),.T.,.PARAMETER.);
#426 = LINE('',#427,#428);
#427 = CARTESIAN_POINT('',(1.25E+03,-495.7224306869,193.33118715804));
#428 = VECTOR('',#429,1.);
#429 = DIRECTION('',(0.995896346533,6.582508768207E-02,
    -6.210897514889E-02));
#430 = CARTESIAN_POINT('',(1.25E+03,-495.7224306869,193.33118715804));
#431 = CARTESIAN_POINT('',(1.4E+03,-485.8079820731,183.97645229555));
#432 = TRIMMED_CURVE('',#433,(#437,PARAMETER_VALUE(0.)),(#438,
    PARAMETER_VALUE(131.06185315564)),.T.,.PARAMETER.);
#433 = LINE('',#434,#435);
#434 = CARTESIAN_POINT('',(1.4E+03,-485.8079820731,183.97645229555));
#435 = VECTOR('',#436,1.);
#436 = DIRECTION('',(0.995896346533,6.582508768207E-02,
    -6.210897514889E-02));
#437 = CARTESIAN_POINT('',(1.4E+03,-485.8079820731,183.97645229555));
#438 = CARTESIAN_POINT('',(1.530524020728E+03,-477.1808240974,
    175.83633491494));
#439 = TRIMMED_CURVE('',#440,(#444,PARAMETER_VALUE(0.)),(#445,
    PARAMETER_VALUE(98.269071062006)),.T.,.PARAMETER.);
#440 = LINE('',#441,#442);
#441 = CARTESIAN_POINT('',(1.530524020728E+03,-477.1808240974,
    175.83633491494));
#442 = VECTOR('',#443,1.);
#443 = DIRECTION('',(0.,0.999101986376,4.237004624199E-02));
#444 = CARTESIAN_POINT('',(1.530524020728E+03,-477.1808240974,
    175.83633491494));
#445 = CARTESIAN_POINT('',(1.530524020728E+03,-379.,180.));
#446 = ( GEOMETRIC_REPRESENTATION_CONTEXT(3) 
GLOBAL_UNCERTAINTY_ASSIGNED_CONTEXT((#450)) GLOBAL_UNIT_ASSIGNED_CONTEXT
((#447,#448,#449)) REPRESENTATION_CONTEXT('Context #1',
  '3D Context with UNIT and UNCERTAINTY') );
#447 = ( LENGTH_UNIT() NAMED_UNIT(*) SI_UNIT(.MILLI.,.METRE.) );
#448 = ( NAMED_UNIT(*) PLANE_ANGLE_UNIT() SI_UNIT($,.RADIAN.) );
#449 = ( NAMED_UNIT(*) SI_UNIT($,.STERADIAN.) SOLID_ANGLE_UNIT() );
#450 = UNCERTAINTY_MEASURE_WITH_UNIT(LENGTH_MEASURE(1.E-07),#447,
  'distance_accuracy_value','confusion accuracy');
#451 = CONTEXT_DEPENDENT_SHAPE_REPRESENTATION(#452,#454);
#452 = ( REPRESENTATION_RELATIONSHIP('','',#402,#10) 
REPRESENTATION_RELATIONSHIP_WITH_TRANSFORMATION(#453) 
SHAPE_REPRESENTATION_RELATIONSHIP() );
#453 = ITEM_DEFINED_TRANSFORMATION('','',#11,#31);
#454 = PRODUCT_DEFINITION_SHAPE('Placement','Placement of an item',#455
  );
#455 = NEXT_ASSEMBLY_USAGE_OCCURRENCE('25','HP1','',#5,#397,$);
#456 = PRODUCT_RELATED_PRODUCT_CATEGORY('part',$,(#399));
#457 = SHAPE_DEFINITION_REPRESENTATION(#458,#464);
#458 = PRODUCT_DEFINITION_SHAPE('','',#459);
#459 = PRODUCT_DEFINITION('design','',#460,#463);
#460 = PRODUCT_DEFINITION_FORMATION('','',#461);
#461 = PRODUCT('NTC10','NTC10','',(#462));
#462 = PRODUCT_CONTEXT('',#2,'mechanical');
#463 = PRODUCT_DEFINITION_CONTEXT('part definition',#2,'design');
#464 = GEOMETRICALLY_BOUNDED_WIREFRAME_SHAPE_REPRESENTATION('',(#11,#465
    ),#508);
#465 = GEOMETRIC_CURVE_SET('',(#466,#473,#480,#487,#494,#501));
#466 = TRIMMED_CURVE('',#467,(#471,PARAMETER_VALUE(0.)),(#472,
    PARAMETER_VALUE(240.10414407085)),.T.,.PARAMETER.);
#467 = LINE('',#468,#469);
#468 = CARTESIAN_POINT('',(1.6E+03,-795.,65.));
#469 = VECTOR('',#470,1.);
#470 = DIRECTION('',(-0.583080315176,0.812147581853,2.082429697059E-02)
  );
#471 = CARTESIAN_POINT('',(1.6E+03,-795.,65.));
#472 = CARTESIAN_POINT('',(1.46E+03,-600.,70.));
#473 = TRIMMED_CURVE('',#474,(#478,PARAMETER_VALUE(0.)),(#479,
    PARAMETER_VALUE(297.25256072318)),.T.,.PARAMETER.);
#474 = LINE('',#475,#476);
#475 = CARTESIAN_POINT('',(1.46E+03,-600.,70.));
#476 = VECTOR('',#477,1.);
#477 = DIRECTION('',(-0.874677073824,0.478866389221,7.50133174922E-02));
#478 = CARTESIAN_POINT('',(1.46E+03,-600.,70.));
#479 = CARTESIAN_POINT('',(1.2E+03,-457.6557395597,92.297900712899));
#480 = TRIMMED_CURVE('',#481,(#485,PARAMETER_VALUE(0.)),(#486,
    PARAMETER_VALUE(50.029051941028)),.T.,.PARAMETER.);
#481 = LINE('',#482,#483);
#482 = CARTESIAN_POINT('',(1.2E+03,-457.6557395597,92.297900712899));
#483 = VECTOR('',#484,1.);
#484 = DIRECTION('',(0.999419298589,0.,-3.407441278852E-02));
#485 = CARTESIAN_POINT('',(1.2E+03,-457.6557395597,92.297900712899));
#486 = CARTESIAN_POINT('',(1.25E+03,-457.6557395597,90.593190145642));
#487 = TRIMMED_CURVE('',#488,(#492,PARAMETER_VALUE(0.)),(#493,
    PARAMETER_VALUE(150.3429244963)),.T.,.PARAMETER.);
#488 = LINE('',#489,#490);
#489 = CARTESIAN_POINT('',(1.25E+03,-457.6557395597,90.593190145642));
#490 = VECTOR('',#491,1.);
#491 = DIRECTION('',(0.997719051313,6.088158004017E-02,
    -2.915695217016E-02));
#492 = CARTESIAN_POINT('',(1.25E+03,-457.6557395597,90.593190145642));
#493 = CARTESIAN_POINT('',(1.4E+03,-448.5026247685,86.209648686982));
#494 = TRIMMED_CURVE('',#495,(#499,PARAMETER_VALUE(0.)),(#500,
    PARAMETER_VALUE(95.742404238822)),.T.,.PARAMETER.);
#495 = LINE('',#496,#497);
#496 = CARTESIAN_POINT('',(1.4E+03,-448.5026247685,86.209648686982));
#497 = VECTOR('',#498,1.);
#498 = DIRECTION('',(0.997719051313,6.088158004017E-02,
    -2.915695217016E-02));
#499 = CARTESIAN_POINT('',(1.4E+03,-448.5026247685,86.209648686982));
#500 = CARTESIAN_POINT('',(1.495524020728E+03,-442.6736759216,
    83.418091985935));
#501 = TRIMMED_CURVE('',#502,(#506,PARAMETER_VALUE(0.)),(#507,
    PARAMETER_VALUE(125.3386422013)),.T.,.PARAMETER.);
#502 = LINE('',#503,#504);
#503 = CARTESIAN_POINT('',(1.495524020728E+03,-442.6736759216,
    83.418091985935));
#504 = VECTOR('',#505,1.);
#505 = DIRECTION('',(0.,0.707472766293,0.706740606555));
#506 = CARTESIAN_POINT('',(1.495524020728E+03,-442.6736759216,
    83.418091985935));
#507 = CARTESIAN_POINT('',(1.495524020728E+03,-354.,172.));
#508 = ( GEOMETRIC_REPRESENTATION_CONTEXT(3) 
GLOBAL_UNCERTAINTY_ASSIGNED_CONTEXT((#512)) GLOBAL_UNIT_ASSIGNED_CONTEXT
((#509,#510,#511)) REPRESENTATION_CONTEXT('Context #1',
  '3D Context with UNIT and UNCERTAINTY') );
#509 = ( LENGTH_UNIT() NAMED_UNIT(*) SI_UNIT(.MILLI.,.METRE.) );
#510 = ( NAMED_UNIT(*) PLANE_ANGLE_UNIT() SI_UNIT($,.RADIAN.) );
#511 = ( NAMED_UNIT(*) SI_UNIT($,.STERADIAN.) SOLID_ANGLE_UNIT() );
#512 = UNCERTAINTY_MEASURE_WITH_UNIT(LENGTH_MEASURE(1.E-07),#509,
  'distance_accuracy_value','confusion accuracy');
#513 = CONTEXT_DEPENDENT_SHAPE_REPRESENTATION(#514,#516);
#514 = ( REPRESENTATION_RELATIONSHIP('','',#464,#10) 
REPRESENTATION_RELATIONSHIP_WITH_TRANSFORMATION(#515) 
SHAPE_REPRESENTATION_RELATIONSHIP() );
#515 = ITEM_DEFINED_TRANSFORMATION('','',#11,#35);
#516 = PRODUCT_DEFINITION_SHAPE('Placement','Placement of an item',#517
  );
#517 = NEXT_ASSEMBLY_USAGE_OCCURRENCE('26','NTC10','',#5,#459,$);
#518 = PRODUCT_RELATED_PRODUCT_CATEGORY('part',$,(#461));
#519 = SHAPE_DEFINITION_REPRESENTATION(#520,#526);
#520 = PRODUCT_DEFINITION_SHAPE('','',#521);
#521 = PRODUCT_DEFINITION('design','',#522,#525);
#522 = PRODUCT_DEFINITION_FORMATION('','',#523);
#523 = PRODUCT('NTC11','NTC11','',(#524));
#524 = PRODUCT_CONTEXT('',#2,'mechanical');
#525 = PRODUCT_DEFINITION_CONTEXT('part definition',#2,'design');
#526 = GEOMETRICALLY_BOUNDED_WIREFRAME_SHAPE_REPRESENTATION('',(#11,#527
    ),#577);
#527 = GEOMETRIC_CURVE_SET('',(#528,#535,#542,#549,#556,#563,#570));
#528 = TRIMMED_CURVE('',#529,(#533,PARAMETER_VALUE(0.)),(#534,
    PARAMETER_VALUE(240.10414407085)),.T.,.PARAMETER.);
#529 = LINE('',#530,#531);
#530 = CARTESIAN_POINT('',(1.6E+03,-795.,65.));
#531 = VECTOR('',#532,1.);
#532 = DIRECTION('',(-0.583080315176,0.812147581853,2.082429697059E-02)
  );
#533 = CARTESIAN_POINT('',(1.6E+03,-795.,65.));
#534 = CARTESIAN_POINT('',(1.46E+03,-600.,70.));
#535 = TRIMMED_CURVE('',#536,(#540,PARAMETER_VALUE(0.)),(#541,
    PARAMETER_VALUE(297.25256072318)),.T.,.PARAMETER.);
#536 = LINE('',#537,#538);
#537 = CARTESIAN_POINT('',(1.46E+03,-600.,70.));
#538 = VECTOR('',#539,1.);
#539 = DIRECTION('',(-0.874677073824,0.478866389221,7.50133174922E-02));
#540 = CARTESIAN_POINT('',(1.46E+03,-600.,70.));
#541 = CARTESIAN_POINT('',(1.2E+03,-457.6557395597,92.297900712899));
#542 = TRIMMED_CURVE('',#543,(#547,PARAMETER_VALUE(0.)),(#548,
    PARAMETER_VALUE(50.029051941028)),.T.,.PARAMETER.);
#543 = LINE('',#544,#545);
#544 = CARTESIAN_POINT('',(1.2E+03,-457.6557395597,92.297900712899));
#545 = VECTOR('',#546,1.);
#546 = DIRECTION('',(0.999419298589,0.,-3.407441278852E-02));
#547 = CARTESIAN_POINT('',(1.2E+03,-457.6557395597,92.297900712899));
#548 = CARTESIAN_POINT('',(1.25E+03,-457.6557395597,90.593190145642));
#549 = TRIMMED_CURVE('',#550,(#554,PARAMETER_VALUE(0.)),(#555,
    PARAMETER_VALUE(150.3429244963)),.T.,.PARAMETER.);
#550 = LINE('',#551,#552);
#551 = CARTESIAN_POINT('',(1.25E+03,-457.6557395597,90.593190145642));
#552 = VECTOR('',#553,1.);
#553 = DIRECTION('',(0.997719051313,6.088158004017E-02,
    -2.915695217016E-02));
#554 = CARTESIAN_POINT('',(1.25E+03,-457.6557395597,90.593190145642));
#555 = CARTESIAN_POINT('',(1.4E+03,-448.5026247685,86.209648686982));
#556 = TRIMMED_CURVE('',#557,(#561,PARAMETER_VALUE(0.)),(#562,
    PARAMETER_VALUE(150.3429244963)),.T.,.PARAMETER.);
#557 = LINE('',#558,#559);
#558 = CARTESIAN_POINT('',(1.4E+03,-448.5026247685,86.209648686982));
#559 = VECTOR('',#560,1.);
#560 = DIRECTION('',(0.997719051313,6.088158004017E-02,
    -2.915695217016E-02));
#561 = CARTESIAN_POINT('',(1.4E+03,-448.5026247685,86.209648686982));
#562 = CARTESIAN_POINT('',(1.55E+03,-439.3495099773,81.826107228322));
#563 = TRIMMED_CURVE('',#564,(#568,PARAMETER_VALUE(0.)),(#569,
    PARAMETER_VALUE(15.613569475488)),.T.,.PARAMETER.);
#564 = LINE('',#565,#566);
#565 = CARTESIAN_POINT('',(1.55E+03,-439.3495099773,81.826107228322));
#566 = VECTOR('',#567,1.);
#567 = DIRECTION('',(0.994264684441,0.10400707188,-2.490514551501E-02));
#568 = CARTESIAN_POINT('',(1.55E+03,-439.3495099773,81.826107228322));
#569 = CARTESIAN_POINT('',(1.565524020728E+03,-437.7255883345,
    81.437249008526));
#570 = TRIMMED_CURVE('',#571,(#575,PARAMETER_VALUE(0.)),(#576,
    PARAMETER_VALUE(123.33525858049)),.T.,.PARAMETER.);
#571 = LINE('',#572,#573);
#572 = CARTESIAN_POINT('',(1.565524020728E+03,-437.7255883345,
    81.437249008526));
#573 = VECTOR('',#574,1.);
#574 = DIRECTION('',(0.,0.678845524777,0.734281113396));
#575 = CARTESIAN_POINT('',(1.565524020728E+03,-437.7255883345,
    81.437249008526));
#576 = CARTESIAN_POINT('',(1.565524020728E+03,-354.,172.));
#577 = ( GEOMETRIC_REPRESENTATION_CONTEXT(3) 
GLOBAL_UNCERTAINTY_ASSIGNED_CONTEXT((#581)) GLOBAL_UNIT_ASSIGNED_CONTEXT
((#578,#579,#580)) REPRESENTATION_CONTEXT('Context #1',
  '3D Context with UNIT and UNCERTAINTY') );
#578 = ( LENGTH_UNIT() NAMED_UNIT(*) SI_UNIT(.MILLI.,.METRE.) );
#579 = ( NAMED_UNIT(*) PLANE_ANGLE_UNIT() SI_UNIT($,.RADIAN.) );
#580 = ( NAMED_UNIT(*) SI_UNIT($,.STERADIAN.) SOLID_ANGLE_UNIT() );
#581 = UNCERTAINTY_MEASURE_WITH_UNIT(LENGTH_MEASURE(1.E-07),#578,
  'distance_accuracy_value','confusion accuracy');
#582 = CONTEXT_DEPENDENT_SHAPE_REPRESENTATION(#583,#585);
#583 = ( REPRESENTATION_RELATIONSHIP('','',#526,#10) 
REPRESENTATION_RELATIONSHIP_WITH_TRANSFORMATION(#584) 
SHAPE_REPRESENTATION_RELATIONSHIP() );
#584 = ITEM_DEFINED_TRANSFORMATION('','',#11,#39);
#585 = PRODUCT_DEFINITION_SHAPE('Placement','Placement of an item',#586
  );
#586 = NEXT_ASSEMBLY_USAGE_OCCURRENCE('27','NTC11','',#5,#521,$);
#587 = PRODUCT_RELATED_PRODUCT_CATEGORY('part',$,(#523));
#588 = SHAPE_DEFINITION_REPRESENTATION(#589,#595);
#589 = PRODUCT_DEFINITION_SHAPE('','',#590);
#590 = PRODUCT_DEFINITION('design','',#591,#594);
#591 = PRODUCT_DEFINITION_FORMATION('','',#592);
#592 = PRODUCT('TH1','TH1','',(#593));
#593 = PRODUCT_CONTEXT('',#2,'mechanical');
#594 = PRODUCT_DEFINITION_CONTEXT('part definition',#2,'design');
#595 = GEOMETRICALLY_BOUNDED_WIREFRAME_SHAPE_REPRESENTATION('',(#11,#596
    ),#639);
#596 = GEOMETRIC_CURVE_SET('',(#597,#604,#611,#618,#625,#632));
#597 = TRIMMED_CURVE('',#598,(#602,PARAMETER_VALUE(0.)),(#603,
    PARAMETER_VALUE(220.45407685048)),.T.,.PARAMETER.);
#598 = LINE('',#599,#600);
#599 = CARTESIAN_POINT('',(1.6E+03,-790.,50.));
#600 = VECTOR('',#601,1.);
#601 = DIRECTION('',(-0.498970132789,0.86185750209,9.07218423253E-02));
#602 = CARTESIAN_POINT('',(1.6E+03,-790.,50.));
#603 = CARTESIAN_POINT('',(1.49E+03,-600.,70.));
#604 = TRIMMED_CURVE('',#605,(#609,PARAMETER_VALUE(0.)),(#610,
    PARAMETER_VALUE(323.81952513165)),.T.,.PARAMETER.);
#605 = LINE('',#606,#607);
#606 = CARTESIAN_POINT('',(1.49E+03,-600.,70.));
#607 = VECTOR('',#608,1.);
#608 = DIRECTION('',(-0.89556057462,0.439578991978,6.885903715606E-02));
#609 = CARTESIAN_POINT('',(1.49E+03,-600.,70.));
#610 = CARTESIAN_POINT('',(1.2E+03,-457.6557395597,92.297900712899));
#611 = TRIMMED_CURVE('',#612,(#616,PARAMETER_VALUE(0.)),(#617,
    PARAMETER_VALUE(50.029051941028)),.T.,.PARAMETER.);
#612 = LINE('',#613,#614);
#613 = CARTESIAN_POINT('',(1.2E+03,-457.6557395597,92.297900712899));
#614 = VECTOR('',#615,1.);
#615 = DIRECTION('',(0.999419298589,0.,-3.407441278852E-02));
#616 = CARTESIAN_POINT('',(1.2E+03,-457.6557395597,92.297900712899));
#617 = CARTESIAN_POINT('',(1.25E+03,-457.6557395597,90.593190145642));
#618 = TRIMMED_CURVE('',#619,(#623,PARAMETER_VALUE(0.)),(#624,
    PARAMETER_VALUE(150.3429244963)),.T.,.PARAMETER.);
#619 = LINE('',#620,#621);
#620 = CARTESIAN_POINT('',(1.25E+03,-457.6557395597,90.593190145642));
#621 = VECTOR('',#622,1.);
#622 = DIRECTION('',(0.997719051313,6.088158004017E-02,
    -2.915695217016E-02));
#623 = CARTESIAN_POINT('',(1.25E+03,-457.6557395597,90.593190145642));
#624 = CARTESIAN_POINT('',(1.4E+03,-448.5026247685,86.209648686982));
#625 = TRIMMED_CURVE('',#626,(#630,PARAMETER_VALUE(0.)),(#631,
    PARAMETER_VALUE(130.82241995462)),.T.,.PARAMETER.);
#626 = LINE('',#627,#628);
#627 = CARTESIAN_POINT('',(1.4E+03,-448.5026247685,86.209648686982));
#628 = VECTOR('',#629,1.);
#629 = DIRECTION('',(0.997719051313,6.088158004017E-02,
    -2.915695217016E-02));
#630 = CARTESIAN_POINT('',(1.4E+03,-448.5026247685,86.209648686982));
#631 = CARTESIAN_POINT('',(1.530524020728E+03,-440.537949137,
    82.395265645581));
#632 = TRIMMED_CURVE('',#633,(#637,PARAMETER_VALUE(0.)),(#638,
    PARAMETER_VALUE(137.42485924971)),.T.,.PARAMETER.);
#633 = LINE('',#634,#635);
#634 = CARTESIAN_POINT('',(1.530524020728E+03,-440.537949137,
    82.395265645581));
#635 = VECTOR('',#636,1.);
#636 = DIRECTION('',(0.,0.738861583642,0.673857225396));
#637 = CARTESIAN_POINT('',(1.530524020728E+03,-440.537949137,
    82.395265645581));
#638 = CARTESIAN_POINT('',(1.530524020728E+03,-339.,175.));
#639 = ( GEOMETRIC_REPRESENTATION_CONTEXT(3) 
GLOBAL_UNCERTAINTY_ASSIGNED_CONTEXT((#643)) GLOBAL_UNIT_ASSIGNED_CONTEXT
((#640,#641,#642)) REPRESENTATION_CONTEXT('Context #1',
  '3D Context with UNIT and UNCERTAINTY') );
#640 = ( LENGTH_UNIT() NAMED_UNIT(*) SI_UNIT(.MILLI.,.METRE.) );
#641 = ( NAMED_UNIT(*) PLANE_ANGLE_UNIT() SI_UNIT($,.RADIAN.) );
#642 = ( NAMED_UNIT(*) SI_UNIT($,.STERADIAN.) SOLID_ANGLE_UNIT() );
#643 = UNCERTAINTY_MEASURE_WITH_UNIT(LENGTH_MEASURE(1.E-07),#640,
  'distance_accuracy_value','confusion accuracy');
#644 = CONTEXT_DEPENDENT_SHAPE_REPRESENTATION(#645,#647);
#645 = ( REPRESENTATION_RELATIONSHIP('','',#595,#10) 
REPRESENTATION_RELATIONSHIP_WITH_TRANSFORMATION(#646) 
SHAPE_REPRESENTATION_RELATIONSHIP() );
#646 = ITEM_DEFINED_TRANSFORMATION('','',#11,#43);
#647 = PRODUCT_DEFINITION_SHAPE('Placement','Placement of an item',#648
  );
#648 = NEXT_ASSEMBLY_USAGE_OCCURRENCE('28','TH1','',#5,#590,$);
#649 = PRODUCT_RELATED_PRODUCT_CATEGORY('part',$,(#592));
#650 = SHAPE_DEFINITION_REPRESENTATION(#651,#657);
#651 = PRODUCT_DEFINITION_SHAPE('','',#652);
#652 = PRODUCT_DEFINITION('design','',#653,#656);
#653 = PRODUCT_DEFINITION_FORMATION('','',#654);
#654 = PRODUCT('HP2','HP2','',(#655));
#655 = PRODUCT_CONTEXT('',#2,'mechanical');
#656 = PRODUCT_DEFINITION_CONTEXT('part definition',#2,'design');
#657 = GEOMETRICALLY_BOUNDED_WIREFRAME_SHAPE_REPRESENTATION('',(#11,#658
    ),#722);
#658 = GEOMETRIC_CURVE_SET('',(#659,#666,#673,#680,#687,#694,#701,#708,
    #715));
#659 = TRIMMED_CURVE('',#660,(#664,PARAMETER_VALUE(0.)),(#665,
    PARAMETER_VALUE(216.56407827707)),.T.,.PARAMETER.);
#660 = LINE('',#661,#662);
#661 = CARTESIAN_POINT('',(1.6E+03,-820.,50.));
#662 = VECTOR('',#663,1.);
#663 = DIRECTION('',(-0.554108515848,0.831162773771,4.617570965396E-02)
  );
#664 = CARTESIAN_POINT('',(1.6E+03,-820.,50.));
#665 = CARTESIAN_POINT('',(1.48E+03,-640.,60.));
#666 = TRIMMED_CURVE('',#667,(#671,PARAMETER_VALUE(0.)),(#672,
    PARAMETER_VALUE(343.47716403119)),.T.,.PARAMETER.);
#667 = LINE('',#668,#669);
#668 = CARTESIAN_POINT('',(1.48E+03,-640.,60.));
#669 = VECTOR('',#670,1.);
#670 = DIRECTION('',(-0.815192476594,0.420049960876,0.398772186183));
#671 = CARTESIAN_POINT('',(1.48E+03,-640.,60.));
#672 = CARTESIAN_POINT('',(1.2E+03,-495.7224306869,196.96913960456));
#673 = TRIMMED_CURVE('',#674,(#678,PARAMETER_VALUE(0.)),(#679,
    PARAMETER_VALUE(50.132172284903)),.T.,.PARAMETER.);
#674 = LINE('',#675,#676);
#675 = CARTESIAN_POINT('',(1.2E+03,-495.7224306869,196.96913960456));
#676 = VECTOR('',#677,1.);
#677 = DIRECTION('',(0.997363523684,0.,-7.256722142116E-02));
#678 = CARTESIAN_POINT('',(1.2E+03,-495.7224306869,196.96913960456));
#679 = CARTESIAN_POINT('',(1.25E+03,-495.7224306869,193.33118715804));
#680 = TRIMMED_CURVE('',#681,(#685,PARAMETER_VALUE(0.)),(#686,
    PARAMETER_VALUE(150.61808442435)),.T.,.PARAMETER.);
#681 = LINE('',#682,#683);
#682 = CARTESIAN_POINT('',(1.25E+03,-495.7224306869,193.33118715804));
#683 = VECTOR('',#684,1.);
#684 = DIRECTION('',(0.995896346533,6.582508768207E-02,
    -6.210897514889E-02));
#685 = CARTESIAN_POINT('',(1.25E+03,-495.7224306869,193.33118715804));
#686 = CARTESIAN_POINT('',(1.4E+03,-485.8079820731,183.97645229555));
#687 = TRIMMED_CURVE('',#688,(#692,PARAMETER_VALUE(0.)),(#693,
    PARAMETER_VALUE(150.61808442435)),.T.,.PARAMETER.);
#688 = LINE('',#689,#690);
#689 = CARTESIAN_POINT('',(1.4E+03,-485.8079820731,183.97645229555));
#690 = VECTOR('',#691,1.);
#691 = DIRECTION('',(0.995896346533,6.582508768207E-02,
    -6.210897514889E-02));
#692 = CARTESIAN_POINT('',(1.4E+03,-485.8079820731,183.97645229555));
#693 = CARTESIAN_POINT('',(1.55E+03,-475.8935334594,174.62171743307));
#694 = TRIMMED_CURVE('',#695,(#699,PARAMETER_VALUE(0.)),(#700,
    PARAMETER_VALUE(176.36807032341)),.T.,.PARAMETER.);
#695 = LINE('',#696,#697);
#696 = CARTESIAN_POINT('',(1.55E+03,-475.8935334594,174.62171743307));
#697 = VECTOR('',#698,1.);
#698 = DIRECTION('',(0.992243095244,0.112429064916,-5.304097757225E-02)
  );
#699 = CARTESIAN_POINT('',(1.55E+03,-475.8935334594,174.62171743307));
#700 = CARTESIAN_POINT('',(1.725E+03,-456.0646362319,165.26698257058));
#701 = TRIMMED_CURVE('',#702,(#706,PARAMETER_VALUE(0.)),(#707,
    PARAMETER_VALUE(176.36807032341)),.T.,.PARAMETER.);
#702 = LINE('',#703,#704);
#703 = CARTESIAN_POINT('',(1.725E+03,-456.0646362319,165.26698257058));
#704 = VECTOR('',#705,1.);
#705 = DIRECTION('',(0.992243095244,0.112429064916,-5.304097757225E-02)
  );
#706 = CARTESIAN_POINT('',(1.725E+03,-456.0646362319,165.26698257058));
#707 = CARTESIAN_POINT('',(1.9E+03,-436.2357390044,155.91224770809));
#708 = TRIMMED_CURVE('',#709,(#713,PARAMETER_VALUE(0.)),(#714,
    PARAMETER_VALUE(121.37704577159)),.T.,.PARAMETER.);
#709 = LINE('',#710,#711);
#710 = CARTESIAN_POINT('',(1.9E+03,-436.2357390044,155.91224770809));
#711 = VECTOR('',#712,1.);
#712 = DIRECTION('',(0.913765626987,0.392577568663,-0.104475985373));
#713 = CARTESIAN_POINT('',(1.9E+03,-436.2357390044,155.91224770809));
#714 = CARTESIAN_POINT('',(2.010910172331E+03,-388.5858334839,
    143.23126124939));
#715 = TRIMMED_CURVE('',#716,(#720,PARAMETER_VALUE(0.)),(#721,
    PARAMETER_VALUE(228.96844661177)),.T.,.PARAMETER.);
#716 = LINE('',#717,#718);
#717 = CARTESIAN_POINT('',(2.010910172331E+03,-388.5858334839,
    143.23126124939));
#718 = VECTOR('',#719,1.);
#719 = DIRECTION('',(0.,0.998328970068,-5.778639565927E-02));
#720 = CARTESIAN_POINT('',(2.010910172331E+03,-388.5858334839,
    143.23126124939));
#721 = CARTESIAN_POINT('',(2.010910172331E+03,-160.,130.));
#722 = ( GEOMETRIC_REPRESENTATION_CONTEXT(3) 
GLOBAL_UNCERTAINTY_ASSIGNED_CONTEXT((#726)) GLOBAL_UNIT_ASSIGNED_CONTEXT
((#723,#724,#725)) REPRESENTATION_CONTEXT('Context #1',
  '3D Context with UNIT and UNCERTAINTY') );
#723 = ( LENGTH_UNIT() NAMED_UNIT(*) SI_UNIT(.MILLI.,.METRE.) );
#724 = ( NAMED_UNIT(*) PLANE_ANGLE_UNIT() SI_UNIT($,.RADIAN.) );
#725 = ( NAMED_UNIT(*) SI_UNIT($,.STERADIAN.) SOLID_ANGLE_UNIT() );
#726 = UNCERTAINTY_MEASURE_WITH_UNIT(LENGTH_MEASURE(1.E-07),#723,
  'distance_accuracy_value','confusion accuracy');
#727 = CONTEXT_DEPENDENT_SHAPE_REPRESENTATION(#728,#730);
#728 = ( REPRESENTATION_RELATIONSHIP('','',#657,#10) 
REPRESENTATION_RELATIONSHIP_WITH_TRANSFORMATION(#729) 
SHAPE_REPRESENTATION_RELATIONSHIP() );
#729 = ITEM_DEFINED_TRANSFORMATION('','',#11,#47);
#730 = PRODUCT_DEFINITION_SHAPE('Placement','Placement of an item',#731
  );
#731 = NEXT_ASSEMBLY_USAGE_OCCURRENCE('29','HP2','',#5,#652,$);
#732 = PRODUCT_RELATED_PRODUCT_CATEGORY('part',$,(#654));
#733 = SHAPE_DEFINITION_REPRESENTATION(#734,#740);
#734 = PRODUCT_DEFINITION_SHAPE('','',#735);
#735 = PRODUCT_DEFINITION('design','',#736,#739);
#736 = PRODUCT_DEFINITION_FORMATION('','',#737);
#737 = PRODUCT('NTC20','NTC20','',(#738));
#738 = PRODUCT_CONTEXT('',#2,'mechanical');
#739 = PRODUCT_DEFINITION_CONTEXT('part definition',#2,'design');
#740 = GEOMETRICALLY_BOUNDED_WIREFRAME_SHAPE_REPRESENTATION('',(#11,#741
    ),#805);
#741 = GEOMETRIC_CURVE_SET('',(#742,#749,#756,#763,#770,#777,#784,#791,
    #798));
#742 = TRIMMED_CURVE('',#743,(#747,PARAMETER_VALUE(0.)),(#748,
    PARAMETER_VALUE(240.10414407085)),.T.,.PARAMETER.);
#743 = LINE('',#744,#745);
#744 = CARTESIAN_POINT('',(1.6E+03,-795.,65.));
#745 = VECTOR('',#746,1.);
#746 = DIRECTION('',(-0.583080315176,0.812147581853,2.082429697059E-02)
  );
#747 = CARTESIAN_POINT('',(1.6E+03,-795.,65.));
#748 = CARTESIAN_POINT('',(1.46E+03,-600.,70.));
#749 = TRIMMED_CURVE('',#750,(#754,PARAMETER_VALUE(0.)),(#755,
    PARAMETER_VALUE(297.25256072318)),.T.,.PARAMETER.);
#750 = LINE('',#751,#752);
#751 = CARTESIAN_POINT('',(1.46E+03,-600.,70.));
#752 = VECTOR('',#753,1.);
#753 = DIRECTION('',(-0.874677073824,0.478866389221,7.50133174922E-02));
#754 = CARTESIAN_POINT('',(1.46E+03,-600.,70.));
#755 = CARTESIAN_POINT('',(1.2E+03,-457.6557395597,92.297900712899));
#756 = TRIMMED_CURVE('',#757,(#761,PARAMETER_VALUE(0.)),(#762,
    PARAMETER_VALUE(50.029051941028)),.T.,.PARAMETER.);
#757 = LINE('',#758,#759);
#758 = CARTESIAN_POINT('',(1.2E+03,-457.6557395597,92.297900712899));
#759 = VECTOR('',#760,1.);
#760 = DIRECTION('',(0.999419298589,0.,-3.407441278852E-02));
#761 = CARTESIAN_POINT('',(1.2E+03,-457.6557395597,92.297900712899));
#762 = CARTESIAN_POINT('',(1.25E+03,-457.6557395597,90.593190145642));
#763 = TRIMMED_CURVE('',#764,(#768,PARAMETER_VALUE(0.)),(#769,
    PARAMETER_VALUE(150.3429244963)),.T.,.PARAMETER.);
#764 = LINE('',#765,#766);
#765 = CARTESIAN_POINT('',(1.25E+03,-457.6557395597,90.593190145642));
#766 = VECTOR('',#767,1.);
#767 = DIRECTION('',(0.997719051313,6.088158004017E-02,
    -2.915695217016E-02));
#768 = CARTESIAN_POINT('',(1.25E+03,-457.6557395597,90.593190145642));
#769 = CARTESIAN_POINT('',(1.4E+03,-448.5026247685,86.209648686982));
#770 = TRIMMED_CURVE('',#771,(#775,PARAMETER_VALUE(0.)),(#776,
    PARAMETER_VALUE(150.3429244963)),.T.,.PARAMETER.);
#771 = LINE('',#772,#773);
#772 = CARTESIAN_POINT('',(1.4E+03,-448.5026247685,86.209648686982));
#773 = VECTOR('',#774,1.);
#774 = DIRECTION('',(0.997719051313,6.088158004017E-02,
    -2.915695217016E-02));
#775 = CARTESIAN_POINT('',(1.4E+03,-448.5026247685,86.209648686982));
#776 = CARTESIAN_POINT('',(1.55E+03,-439.3495099773,81.826107228322));
#777 = TRIMMED_CURVE('',#778,(#782,PARAMETER_VALUE(0.)),(#783,
    PARAMETER_VALUE(176.00946985103)),.T.,.PARAMETER.);
#778 = LINE('',#779,#780);
#779 = CARTESIAN_POINT('',(1.55E+03,-439.3495099773,81.826107228322));
#780 = VECTOR('',#781,1.);
#781 = DIRECTION('',(0.994264684441,0.10400707188,-2.490514551501E-02));
#782 = CARTESIAN_POINT('',(1.55E+03,-439.3495099773,81.826107228322));
#783 = CARTESIAN_POINT('',(1.725E+03,-421.0432803949,77.442565769662));
#784 = TRIMMED_CURVE('',#785,(#789,PARAMETER_VALUE(0.)),(#790,
    PARAMETER_VALUE(176.00946985103)),.T.,.PARAMETER.);
#785 = LINE('',#786,#787);
#786 = CARTESIAN_POINT('',(1.725E+03,-421.0432803949,77.442565769662));
#787 = VECTOR('',#788,1.);
#788 = DIRECTION('',(0.994264684441,0.10400707188,-2.490514551501E-02));
#789 = CARTESIAN_POINT('',(1.725E+03,-421.0432803949,77.442565769662));
#790 = CARTESIAN_POINT('',(1.9E+03,-402.7370508125,73.059024311002));
#791 = TRIMMED_CURVE('',#792,(#796,PARAMETER_VALUE(0.)),(#797,
    PARAMETER_VALUE(81.764444543064)),.T.,.PARAMETER.);
#792 = LINE('',#793,#794);
#793 = CARTESIAN_POINT('',(1.9E+03,-402.7370508125,73.059024311002));
#794 = VECTOR('',#795,1.);
#795 = DIRECTION('',(0.92840075849,0.36823621097,-4.974057262891E-02));
#796 = CARTESIAN_POINT('',(1.9E+03,-402.7370508125,73.059024311002));
#797 = CARTESIAN_POINT('',(1.975910172331E+03,-372.6284215619,
    68.992014018745));
#798 = TRIMMED_CURVE('',#799,(#803,PARAMETER_VALUE(0.)),(#804,
    PARAMETER_VALUE(243.4689165208)),.T.,.PARAMETER.);
#799 = LINE('',#800,#801);
#800 = CARTESIAN_POINT('',(1.975910172331E+03,-372.6284215619,
    68.992014018745));
#801 = VECTOR('',#802,1.);
#802 = DIRECTION('',(0.,0.976011332197,0.217719726767));
#803 = CARTESIAN_POINT('',(1.975910172331E+03,-372.6284215619,
    68.992014018745));
#804 = CARTESIAN_POINT('',(1.975910172331E+03,-135.,122.));
#805 = ( GEOMETRIC_REPRESENTATION_CONTEXT(3) 
GLOBAL_UNCERTAINTY_ASSIGNED_CONTEXT((#809)) GLOBAL_UNIT_ASSIGNED_CONTEXT
((#806,#807,#808)) REPRESENTATION_CONTEXT('Context #1',
  '3D Context with UNIT and UNCERTAINTY') );
#806 = ( LENGTH_UNIT() NAMED_UNIT(*) SI_UNIT(.MILLI.,.METRE.) );
#807 = ( NAMED_UNIT(*) PLANE_ANGLE_UNIT() SI_UNIT($,.RADIAN.) );
#808 = ( NAMED_UNIT(*) SI_UNIT($,.STERADIAN.) SOLID_ANGLE_UNIT() );
#809 = UNCERTAINTY_MEASURE_WITH_UNIT(LENGTH_MEASURE(1.E-07),#806,
  'distance_accuracy_value','confusion accuracy');
#810 = CONTEXT_DEPENDENT_SHAPE_REPRESENTATION(#811,#813);
#811 = ( REPRESENTATION_RELATIONSHIP('','',#740,#10) 
REPRESENTATION_RELATIONSHIP_WITH_TRANSFORMATION(#812) 
SHAPE_REPRESENTATION_RELATIONSHIP() );
#812 = ITEM_DEFINED_TRANSFORMATION('','',#11,#51);
#813 = PRODUCT_DEFINITION_SHAPE('Placement','Placement of an item',#814
  );
#814 = NEXT_ASSEMBLY_USAGE_OCCURRENCE('30','NTC20','',#5,#735,$);
#815 = PRODUCT_RELATED_PRODUCT_CATEGORY('part',$,(#737));
#816 = SHAPE_DEFINITION_REPRESENTATION(#817,#823);
#817 = PRODUCT_DEFINITION_SHAPE('','',#818);
#818 = PRODUCT_DEFINITION('design','',#819,#822);
#819 = PRODUCT_DEFINITION_FORMATION('','',#820);
#820 = PRODUCT('NTC21','NTC21','',(#821));
#821 = PRODUCT_CONTEXT('',#2,'mechanical');
#822 = PRODUCT_DEFINITION_CONTEXT('part definition',#2,'design');
#823 = GEOMETRICALLY_BOUNDED_WIREFRAME_SHAPE_REPRESENTATION('',(#11,#824
    ),#888);
#824 = GEOMETRIC_CURVE_SET('',(#825,#832,#839,#846,#853,#860,#867,#874,
    #881));
#825 = TRIMMED_CURVE('',#826,(#830,PARAMETER_VALUE(0.)),(#831,
    PARAMETER_VALUE(240.10414407085)),.T.,.PARAMETER.);
#826 = LINE('',#827,#828);
#827 = CARTESIAN_POINT('',(1.6E+03,-795.,65.));
#828 = VECTOR('',#829,1.);
#829 = DIRECTION('',(-0.583080315176,0.812147581853,2.082429697059E-02)
  );
#830 = CARTESIAN_POINT('',(1.6E+03,-795.,65.));
#831 = CARTESIAN_POINT('',(1.46E+03,-600.,70.));
#832 = TRIMMED_CURVE('',#833,(#837,PARAMETER_VALUE(0.)),(#838,
    PARAMETER_VALUE(297.25256072318)),.T.,.PARAMETER.);
#833 = LINE('',#834,#835);
#834 = CARTESIAN_POINT('',(1.46E+03,-600.,70.));
#835 = VECTOR('',#836,1.);
#836 = DIRECTION('',(-0.874677073824,0.478866389221,7.50133174922E-02));
#837 = CARTESIAN_POINT('',(1.46E+03,-600.,70.));
#838 = CARTESIAN_POINT('',(1.2E+03,-457.6557395597,92.297900712899));
#839 = TRIMMED_CURVE('',#840,(#844,PARAMETER_VALUE(0.)),(#845,
    PARAMETER_VALUE(50.029051941028)),.T.,.PARAMETER.);
#840 = LINE('',#841,#842);
#841 = CARTESIAN_POINT('',(1.2E+03,-457.6557395597,92.297900712899));
#842 = VECTOR('',#843,1.);
#843 = DIRECTION('',(0.999419298589,0.,-3.407441278852E-02));
#844 = CARTESIAN_POINT('',(1.2E+03,-457.6557395597,92.297900712899));
#845 = CARTESIAN_POINT('',(1.25E+03,-457.6557395597,90.593190145642));
#846 = TRIMMED_CURVE('',#847,(#851,PARAMETER_VALUE(0.)),(#852,
    PARAMETER_VALUE(150.3429244963)),.T.,.PARAMETER.);
#847 = LINE('',#848,#849);
#848 = CARTESIAN_POINT('',(1.25E+03,-457.6557395597,90.593190145642));
#849 = VECTOR('',#850,1.);
#850 = DIRECTION('',(0.997719051313,6.088158004017E-02,
    -2.915695217016E-02));
#851 = CARTESIAN_POINT('',(1.25E+03,-457.6557395597,90.593190145642));
#852 = CARTESIAN_POINT('',(1.4E+03,-448.5026247685,86.209648686982));
#853 = TRIMMED_CURVE('',#854,(#858,PARAMETER_VALUE(0.)),(#859,
    PARAMETER_VALUE(150.3429244963)),.T.,.PARAMETER.);
#854 = LINE('',#855,#856);
#855 = CARTESIAN_POINT('',(1.4E+03,-448.5026247685,86.209648686982));
#856 = VECTOR('',#857,1.);
#857 = DIRECTION('',(0.997719051313,6.088158004017E-02,
    -2.915695217016E-02));
#858 = CARTESIAN_POINT('',(1.4E+03,-448.5026247685,86.209648686982));
#859 = CARTESIAN_POINT('',(1.55E+03,-439.3495099773,81.826107228322));
#860 = TRIMMED_CURVE('',#861,(#865,PARAMETER_VALUE(0.)),(#866,
    PARAMETER_VALUE(176.00946985103)),.T.,.PARAMETER.);
#861 = LINE('',#862,#863);
#862 = CARTESIAN_POINT('',(1.55E+03,-439.3495099773,81.826107228322));
#863 = VECTOR('',#864,1.);
#864 = DIRECTION('',(0.994264684441,0.10400707188,-2.490514551501E-02));
#865 = CARTESIAN_POINT('',(1.55E+03,-439.3495099773,81.826107228322));
#866 = CARTESIAN_POINT('',(1.725E+03,-421.0432803949,77.442565769662));
#867 = TRIMMED_CURVE('',#868,(#872,PARAMETER_VALUE(0.)),(#873,
    PARAMETER_VALUE(176.00946985103)),.T.,.PARAMETER.);
#868 = LINE('',#869,#870);
#869 = CARTESIAN_POINT('',(1.725E+03,-421.0432803949,77.442565769662));
#870 = VECTOR('',#871,1.);
#871 = DIRECTION('',(0.994264684441,0.10400707188,-2.490514551501E-02));
#872 = CARTESIAN_POINT('',(1.725E+03,-421.0432803949,77.442565769662));
#873 = CARTESIAN_POINT('',(1.9E+03,-402.7370508125,73.059024311002));
#874 = TRIMMED_CURVE('',#875,(#879,PARAMETER_VALUE(0.)),(#880,
    PARAMETER_VALUE(157.16291805771)),.T.,.PARAMETER.);
#875 = LINE('',#876,#877);
#876 = CARTESIAN_POINT('',(1.9E+03,-402.7370508125,73.059024311002));
#877 = VECTOR('',#878,1.);
#878 = DIRECTION('',(0.92840075849,0.36823621097,-4.974057262891E-02));
#879 = CARTESIAN_POINT('',(1.9E+03,-402.7370508125,73.059024311002));
#880 = CARTESIAN_POINT('',(2.045910172331E+03,-344.8639733619,
    65.24165077078));
#881 = TRIMMED_CURVE('',#882,(#886,PARAMETER_VALUE(0.)),(#887,
    PARAMETER_VALUE(217.4037661185)),.T.,.PARAMETER.);
#882 = LINE('',#883,#884);
#883 = CARTESIAN_POINT('',(2.045910172331E+03,-344.8639733619,
    65.24165077078));
#884 = VECTOR('',#885,1.);
#885 = DIRECTION('',(0.,0.965318941382,0.261073440643));
#886 = CARTESIAN_POINT('',(2.045910172331E+03,-344.8639733619,
    65.24165077078));
#887 = CARTESIAN_POINT('',(2.045910172331E+03,-135.,122.));
#888 = ( GEOMETRIC_REPRESENTATION_CONTEXT(3) 
GLOBAL_UNCERTAINTY_ASSIGNED_CONTEXT((#892)) GLOBAL_UNIT_ASSIGNED_CONTEXT
((#889,#890,#891)) REPRESENTATION_CONTEXT('Context #1',
  '3D Context with UNIT and UNCERTAINTY') );
#889 = ( LENGTH_UNIT() NAMED_UNIT(*) SI_UNIT(.MILLI.,.METRE.) );
#890 = ( NAMED_UNIT(*) PLANE_ANGLE_UNIT() SI_UNIT($,.RADIAN.) );
#891 = ( NAMED_UNIT(*) SI_UNIT($,.STERADIAN.) SOLID_ANGLE_UNIT() );
#892 = UNCERTAINTY_MEASURE_WITH_UNIT(LENGTH_MEASURE(1.E-07),#889,
  'distance_accuracy_value','confusion accuracy');
#893 = CONTEXT_DEPENDENT_SHAPE_REPRESENTATION(#894,#896);
#894 = ( REPRESENTATION_RELATIONSHIP('','',#823,#10) 
REPRESENTATION_RELATIONSHIP_WITH_TRANSFORMATION(#895) 
SHAPE_REPRESENTATION_RELATIONSHIP() );
#895 = ITEM_DEFINED_TRANSFORMATION('','',#11,#55);
#896 = PRODUCT_DEFINITION_SHAPE('Placement','Placement of an item',#897
  );
#897 = NEXT_ASSEMBLY_USAGE_OCCURRENCE('31','NTC21','',#5,#818,$);
#898 = PRODUCT_RELATED_PRODUCT_CATEGORY('part',$,(#820));
#899 = SHAPE_DEFINITION_REPRESENTATION(#900,#906);
#900 = PRODUCT_DEFINITION_SHAPE('','',#901);
#901 = PRODUCT_DEFINITION('design','',#902,#905);
#902 = PRODUCT_DEFINITION_FORMATION('','',#903);
#903 = PRODUCT('TH2','TH2','',(#904));
#904 = PRODUCT_CONTEXT('',#2,'mechanical');
#905 = PRODUCT_DEFINITION_CONTEXT('part definition',#2,'design');
#906 = GEOMETRICALLY_BOUNDED_WIREFRAME_SHAPE_REPRESENTATION('',(#11,#907
    ),#971);
#907 = GEOMETRIC_CURVE_SET('',(#908,#915,#922,#929,#936,#943,#950,#957,
    #964));
#908 = TRIMMED_CURVE('',#909,(#913,PARAMETER_VALUE(0.)),(#914,
    PARAMETER_VALUE(220.45407685048)),.T.,.PARAMETER.);
#909 = LINE('',#910,#911);
#910 = CARTESIAN_POINT('',(1.6E+03,-790.,50.));
#911 = VECTOR('',#912,1.);
#912 = DIRECTION('',(-0.498970132789,0.86185750209,9.07218423253E-02));
#913 = CARTESIAN_POINT('',(1.6E+03,-790.,50.));
#914 = CARTESIAN_POINT('',(1.49E+03,-600.,70.));
#915 = TRIMMED_CURVE('',#916,(#920,PARAMETER_VALUE(0.)),(#921,
    PARAMETER_VALUE(323.81952513165)),.T.,.PARAMETER.);
#916 = LINE('',#917,#918);
#917 = CARTESIAN_POINT('',(1.49E+03,-600.,70.));
#918 = VECTOR('',#919,1.);
#919 = DIRECTION('',(-0.89556057462,0.439578991978,6.885903715606E-02));
#920 = CARTESIAN_POINT('',(1.49E+03,-600.,70.));
#921 = CARTESIAN_POINT('',(1.2E+03,-457.6557395597,92.297900712899));
#922 = TRIMMED_CURVE('',#923,(#927,PARAMETER_VALUE(0.)),(#928,
    PARAMETER_VALUE(50.029051941028)),.T.,.PARAMETER.);
#923 = LINE('',#924,#925);
#924 = CARTESIAN_POINT('',(1.2E+03,-457.6557395597,92.297900712899));
#925 = VECTOR('',#926,1.);
#926 = DIRECTION('',(0.999419298589,0.,-3.407441278852E-02));
#927 = CARTESIAN_POINT('',(1.2E+03,-457.6557395597,92.297900712899));
#928 = CARTESIAN_POINT('',(1.25E+03,-457.6557395597,90.593190145642));
#929 = TRIMMED_CURVE('',#930,(#934,PARAMETER_VALUE(0.)),(#935,
    PARAMETER_VALUE(150.3429244963)),.T.,.PARAMETER.);
#930 = LINE('',#931,#932);
#931 = CARTESIAN_POINT('',(1.25E+03,-457.6557395597,90.593190145642));
#932 = VECTOR('',#933,1.);
#933 = DIRECTION('',(0.997719051313,6.088158004017E-02,
    -2.915695217016E-02));
#934 = CARTESIAN_POINT('',(1.25E+03,-457.6557395597,90.593190145642));
#935 = CARTESIAN_POINT('',(1.4E+03,-448.5026247685,86.209648686982));
#936 = TRIMMED_CURVE('',#937,(#941,PARAMETER_VALUE(0.)),(#942,
    PARAMETER_VALUE(150.3429244963)),.T.,.PARAMETER.);
#937 = LINE('',#938,#939);
#938 = CARTESIAN_POINT('',(1.4E+03,-448.5026247685,86.209648686982));
#939 = VECTOR('',#940,1.);
#940 = DIRECTION('',(0.997719051313,6.088158004017E-02,
    -2.915695217016E-02));
#941 = CARTESIAN_POINT('',(1.4E+03,-448.5026247685,86.209648686982));
#942 = CARTESIAN_POINT('',(1.55E+03,-439.3495099773,81.826107228322));
#943 = TRIMMED_CURVE('',#944,(#948,PARAMETER_VALUE(0.)),(#949,
    PARAMETER_VALUE(176.00946985103)),.T.,.PARAMETER.);
#944 = LINE('',#945,#946);
#945 = CARTESIAN_POINT('',(1.55E+03,-439.3495099773,81.826107228322));
#946 = VECTOR('',#947,1.);
#947 = DIRECTION('',(0.994264684441,0.10400707188,-2.490514551501E-02));
#948 = CARTESIAN_POINT('',(1.55E+03,-439.3495099773,81.826107228322));
#949 = CARTESIAN_POINT('',(1.725E+03,-421.0432803949,77.442565769662));
#950 = TRIMMED_CURVE('',#951,(#955,PARAMETER_VALUE(0.)),(#956,
    PARAMETER_VALUE(176.00946985103)),.T.,.PARAMETER.);
#951 = LINE('',#952,#953);
#952 = CARTESIAN_POINT('',(1.725E+03,-421.0432803949,77.442565769662));
#953 = VECTOR('',#954,1.);
#954 = DIRECTION('',(0.994264684441,0.10400707188,-2.490514551501E-02));
#955 = CARTESIAN_POINT('',(1.725E+03,-421.0432803949,77.442565769662));
#956 = CARTESIAN_POINT('',(1.9E+03,-402.7370508125,73.059024311002));
#957 = TRIMMED_CURVE('',#958,(#962,PARAMETER_VALUE(0.)),(#963,
    PARAMETER_VALUE(119.46368130039)),.T.,.PARAMETER.);
#958 = LINE('',#959,#960);
#959 = CARTESIAN_POINT('',(1.9E+03,-402.7370508125,73.059024311002));
#960 = VECTOR('',#961,1.);
#961 = DIRECTION('',(0.92840075849,0.36823621097,-4.974057262891E-02));
#962 = CARTESIAN_POINT('',(1.9E+03,-402.7370508125,73.059024311002));
#963 = CARTESIAN_POINT('',(2.010910172331E+03,-358.7461974619,
    67.116832394762));
#964 = TRIMMED_CURVE('',#965,(#969,PARAMETER_VALUE(0.)),(#970,
    PARAMETER_VALUE(245.66279306107)),.T.,.PARAMETER.);
#965 = LINE('',#966,#967);
#966 = CARTESIAN_POINT('',(2.010910172331E+03,-358.7461974619,
    67.116832394762));
#967 = VECTOR('',#968,1.);
#968 = DIRECTION('',(0.,0.971845164207,0.2356204083));
#969 = CARTESIAN_POINT('',(2.010910172331E+03,-358.7461974619,
    67.116832394762));
#970 = CARTESIAN_POINT('',(2.010910172331E+03,-120.,125.));
#971 = ( GEOMETRIC_REPRESENTATION_CONTEXT(3) 
GLOBAL_UNCERTAINTY_ASSIGNED_CONTEXT((#975)) GLOBAL_UNIT_ASSIGNED_CONTEXT
((#972,#973,#974)) REPRESENTATION_CONTEXT('Context #1',
  '3D Context with UNIT and UNCERTAINTY') );
#972 = ( LENGTH_UNIT() NAMED_UNIT(*) SI_UNIT(.MILLI.,.METRE.) );
#973 = ( NAMED_UNIT(*) PLANE_ANGLE_UNIT() SI_UNIT($,.RADIAN.) );
#974 = ( NAMED_UNIT(*) SI_UNIT($,.STERADIAN.) SOLID_ANGLE_UNIT() );
#975 = UNCERTAINTY_MEASURE_WITH_UNIT(LENGTH_MEASURE(1.E-07),#972,
  'distance_accuracy_value','confusion accuracy');
#976 = CONTEXT_DEPENDENT_SHAPE_REPRESENTATION(#977,#979);
#977 = ( REPRESENTATION_RELATIONSHIP('','',#906,#10) 
REPRESENTATION_RELATIONSHIP_WITH_TRANSFORMATION(#978) 
SHAPE_REPRESENTATION_RELATIONSHIP() );
#978 = ITEM_DEFINED_TRANSFORMATION('','',#11,#59);
#979 = PRODUCT_DEFINITION_SHAPE('Placement','Placement of an item',#980
  );
#980 = NEXT_ASSEMBLY_USAGE_OCCURRENCE('32','TH2','',#5,#901,$);
#981 = PRODUCT_RELATED_PRODUCT_CATEGORY('part',$,(#903));
#982 = SHAPE_DEFINITION_REPRESENTATION(#983,#989);
#983 = PRODUCT_DEFINITION_SHAPE('','',#984);
#984 = PRODUCT_DEFINITION('design','',#985,#988);
#985 = PRODUCT_DEFINITION_FORMATION('','',#986);
#986 = PRODUCT('BAT_MAIN','BAT_MAIN','',(#987));
#987 = PRODUCT_CONTEXT('',#2,'mechanical');
#988 = PRODUCT_DEFINITION_CONTEXT('part definition',#2,'design');
#989 = GEOMETRICALLY_BOUNDED_WIREFRAME_SHAPE_REPRESENTATION('',(#11,#990
    ),#1005);
#990 = GEOMETRIC_CURVE_SET('',(#991,#998));
#991 = TRIMMED_CURVE('',#992,(#996,PARAMETER_VALUE(0.)),(#997,
    PARAMETER_VALUE(160.)),.T.,.PARAMETER.);
#992 = LINE('',#993,#994);
#993 = CARTESIAN_POINT('',(1.25E+03,-850.,90.));
#994 = VECTOR('',#995,1.);
#995 = DIRECTION('',(1.,0.,0.));
#996 = CARTESIAN_POINT('',(1.25E+03,-850.,90.));
#997 = CARTESIAN_POINT('',(1.41E+03,-850.,90.));
#998 = TRIMMED_CURVE('',#999,(#1003,PARAMETER_VALUE(0.)),(#1004,
    PARAMETER_VALUE(196.46882704388)),.T.,.PARAMETER.);
#999 = LINE('',#1000,#1001);
#1000 = CARTESIAN_POINT('',(1.41E+03,-850.,90.));
#1001 = VECTOR('',#1002,1.);
#1002 = DIRECTION('',(0.967074537263,0.152695979568,-0.203594639424));
#1003 = CARTESIAN_POINT('',(1.41E+03,-850.,90.));
#1004 = CARTESIAN_POINT('',(1.6E+03,-820.,50.));
#1005 = ( GEOMETRIC_REPRESENTATION_CONTEXT(3) 
GLOBAL_UNCERTAINTY_ASSIGNED_CONTEXT((#1009)) 
GLOBAL_UNIT_ASSIGNED_CONTEXT((#1006,#1007,#1008)) REPRESENTATION_CONTEXT
('Context #1','3D Context with UNIT and UNCERTAINTY') );
#1006 = ( LENGTH_UNIT() NAMED_UNIT(*) SI_UNIT(.MILLI.,.METRE.) );
#1007 = ( NAMED_UNIT(*) PLANE_ANGLE_UNIT() SI_UNIT($,.RADIAN.) );
#1008 = ( NAMED_UNIT(*) SI_UNIT($,.STERADIAN.) SOLID_ANGLE_UNIT() );
#1009 = UNCERTAINTY_MEASURE_WITH_UNIT(LENGTH_MEASURE(1.E-07),#1006,
  'distance_accuracy_value','confusion accuracy');
#1010 = CONTEXT_DEPENDENT_SHAPE_REPRESENTATION(#1011,#1013);
#1011 = ( REPRESENTATION_RELATIONSHIP('','',#989,#10) 
REPRESENTATION_RELATIONSHIP_WITH_TRANSFORMATION(#1012) 
SHAPE_REPRESENTATION_RELATIONSHIP() );
#1012 = ITEM_DEFINED_TRANSFORMATION('','',#11,#63);
#1013 = PRODUCT_DEFINITION_SHAPE('Placement','Placement of an item',
  #1014);
#1014 = NEXT_ASSEMBLY_USAGE_OCCURRENCE('33','BAT_MAIN','',#5,#984,$);
#1015 = PRODUCT_RELATED_PRODUCT_CATEGORY('part',$,(#986));
#1016 = SHAPE_DEFINITION_REPRESENTATION(#1017,#1023);
#1017 = PRODUCT_DEFINITION_SHAPE('','',#1018);
#1018 = PRODUCT_DEFINITION('design','',#1019,#1022);
#1019 = PRODUCT_DEFINITION_FORMATION('','',#1020);
#1020 = PRODUCT('ARM_PANEL','ARM_PANEL','',(#1021));
#1021 = PRODUCT_CONTEXT('',#2,'mechanical');
#1022 = PRODUCT_DEFINITION_CONTEXT('part definition',#2,'design');
#1023 = GEOMETRICALLY_BOUNDED_WIREFRAME_SHAPE_REPRESENTATION('',(#11,
    #1024),#1046);
#1024 = GEOMETRIC_CURVE_SET('',(#1025,#1032,#1039));
#1025 = TRIMMED_CURVE('',#1026,(#1030,PARAMETER_VALUE(0.)),(#1031,
    PARAMETER_VALUE(216.33307652783)),.T.,.PARAMETER.);
#1026 = LINE('',#1027,#1028);
#1027 = CARTESIAN_POINT('',(1.6E+03,-800.,50.));
#1028 = VECTOR('',#1029,1.);
#1029 = DIRECTION('',(-0.554700196225,0.832050294338,0.));
#1030 = CARTESIAN_POINT('',(1.6E+03,-800.,50.));
#1031 = CARTESIAN_POINT('',(1.48E+03,-620.,50.));
#1032 = TRIMMED_CURVE('',#1033,(#1037,PARAMETER_VALUE(0.)),(#1038,
    PARAMETER_VALUE(326.41196562414)),.T.,.PARAMETER.);
#1033 = LINE('',#1034,#1035);
#1034 = CARTESIAN_POINT('',(1.48E+03,-620.,50.));
#1035 = VECTOR('',#1036,1.);
#1036 = DIRECTION('',(-0.857811690404,0.497360015984,0.129584406111));
#1037 = CARTESIAN_POINT('',(1.48E+03,-620.,50.));
#1038 = CARTESIAN_POINT('',(1.2E+03,-457.6557395597,92.297900712899));
#1039 = TRIMMED_CURVE('',#1040,(#1044,PARAMETER_VALUE(0.)),(#1045,
    PARAMETER_VALUE(276.86154404483)),.T.,.PARAMETER.);
#1040 = LINE('',#1041,#1042);
#1041 = CARTESIAN_POINT('',(1.2E+03,-457.6557395597,92.297900712899));
#1042 = VECTOR('',#1043,1.);
#1043 = DIRECTION('',(-0.252833958004,-0.189062950656,0.948857307697));
#1044 = CARTESIAN_POINT('',(1.2E+03,-457.6557395597,92.297900712899));
#1045 = CARTESIAN_POINT('',(1.13E+03,-510.,355.));
#1046 = ( GEOMETRIC_REPRESENTATION_CONTEXT(3) 
GLOBAL_UNCERTAINTY_ASSIGNED_CONTEXT((#1050)) 
GLOBAL_UNIT_ASSIGNED_CONTEXT((#1047,#1048,#1049)) REPRESENTATION_CONTEXT
('Context #1','3D Context with UNIT and UNCERTAINTY') );
#1047 = ( LENGTH_UNIT() NAMED_UNIT(*) SI_UNIT(.MILLI.,.METRE.) );
#1048 = ( NAMED_UNIT(*) PLANE_ANGLE_UNIT() SI_UNIT($,.RADIAN.) );
#1049 = ( NAMED_UNIT(*) SI_UNIT($,.STERADIAN.) SOLID_ANGLE_UNIT() );
#1050 = UNCERTAINTY_MEASURE_WITH_UNIT(LENGTH_MEASURE(1.E-07),#1047,
  'distance_accuracy_value','confusion accuracy');
#1051 = CONTEXT_DEPENDENT_SHAPE_REPRESENTATION(#1052,#1054);
#1052 = ( REPRESENTATION_RELATIONSHIP('','',#1023,#10) 
REPRESENTATION_RELATIONSHIP_WITH_TRANSFORMATION(#1053) 
SHAPE_REPRESENTATION_RELATIONSHIP() );
#1053 = ITEM_DEFINED_TRANSFORMATION('','',#11,#67);
#1054 = PRODUCT_DEFINITION_SHAPE('Placement','Placement of an item',
  #1055);
#1055 = NEXT_ASSEMBLY_USAGE_OCCURRENCE('34','ARM_PANEL','',#5,#1018,$);
#1056 = PRODUCT_RELATED_PRODUCT_CATEGORY('part',$,(#1020));
#1057 = MECHANICAL_DESIGN_GEOMETRIC_PRESENTATION_REPRESENTATION('',(
    #1058),#722);
#1058 = STYLED_ITEM('color',(#1059),#658);
#1059 = PRESENTATION_STYLE_ASSIGNMENT((#1060));
#1060 = SURFACE_STYLE_USAGE(.BOTH.,#1061);
#1061 = SURFACE_SIDE_STYLE('',(#1062));
#1062 = SURFACE_STYLE_FILL_AREA(#1063);
#1063 = FILL_AREA_STYLE('',(#1064));
#1064 = FILL_AREA_STYLE_COLOUR('',#1065);
#1065 = COLOUR_RGB('',0.850000012718,0.250000000672,0.1599999992);
#1066 = MECHANICAL_DESIGN_GEOMETRIC_PRESENTATION_REPRESENTATION('',(
    #1067),#232);
#1067 = STYLED_ITEM('color',(#1068),#168);
#1068 = PRESENTATION_STYLE_ASSIGNMENT((#1069));
#1069 = SURFACE_STYLE_USAGE(.BOTH.,#1070);
#1070 = SURFACE_SIDE_STYLE('',(#1071));
#1071 = SURFACE_STYLE_FILL_AREA(#1072);
#1072 = FILL_AREA_STYLE('',(#1073));
#1073 = FILL_AREA_STYLE_COLOUR('',#1074);
#1074 = COLOUR_RGB('',0.1599999992,0.369999997777,0.729999995167);
#1075 = MECHANICAL_DESIGN_GEOMETRIC_PRESENTATION_REPRESENTATION('',(
    #1076),#805);
#1076 = STYLED_ITEM('color',(#1077),#741);
#1077 = PRESENTATION_STYLE_ASSIGNMENT((#1078));
#1078 = SURFACE_STYLE_USAGE(.BOTH.,#1079);
#1079 = SURFACE_SIDE_STYLE('',(#1080));
#1080 = SURFACE_STYLE_FILL_AREA(#1081);
#1081 = FILL_AREA_STYLE('',(#1082));
#1082 = FILL_AREA_STYLE_COLOUR('',#1074);
#1083 = MECHANICAL_DESIGN_GEOMETRIC_PRESENTATION_REPRESENTATION('',(
    #1084),#149);
#1084 = STYLED_ITEM('color',(#1085),#85);
#1085 = PRESENTATION_STYLE_ASSIGNMENT((#1086));
#1086 = SURFACE_STYLE_USAGE(.BOTH.,#1087);
#1087 = SURFACE_SIDE_STYLE('',(#1088));
#1088 = SURFACE_STYLE_FILL_AREA(#1089);
#1089 = FILL_AREA_STYLE('',(#1090));
#1090 = FILL_AREA_STYLE_COLOUR('',#1065);
#1091 = MECHANICAL_DESIGN_GEOMETRIC_PRESENTATION_REPRESENTATION('',(
    #1092),#971);
#1092 = STYLED_ITEM('color',(#1093),#907);
#1093 = PRESENTATION_STYLE_ASSIGNMENT((#1094));
#1094 = SURFACE_STYLE_USAGE(.BOTH.,#1095);
#1095 = SURFACE_SIDE_STYLE('',(#1096));
#1096 = SURFACE_STYLE_FILL_AREA(#1097);
#1097 = FILL_AREA_STYLE('',(#1098));
#1098 = FILL_AREA_STYLE_COLOUR('',#1099);
#1099 = COLOUR_RGB('',0.500000003429,0.24000000363,0.599999994755);
#1100 = MECHANICAL_DESIGN_GEOMETRIC_PRESENTATION_REPRESENTATION('',(
    #1101),#384);
#1101 = STYLED_ITEM('color',(#1102),#327);
#1102 = PRESENTATION_STYLE_ASSIGNMENT((#1103));
#1103 = SURFACE_STYLE_USAGE(.BOTH.,#1104);
#1104 = SURFACE_SIDE_STYLE('',(#1105));
#1105 = SURFACE_STYLE_FILL_AREA(#1106);
#1106 = FILL_AREA_STYLE('',(#1107));
#1107 = FILL_AREA_STYLE_COLOUR('',#1099);
#1108 = MECHANICAL_DESIGN_GEOMETRIC_PRESENTATION_REPRESENTATION('',(
    #1109),#639);
#1109 = STYLED_ITEM('color',(#1110),#596);
#1110 = PRESENTATION_STYLE_ASSIGNMENT((#1111));
#1111 = SURFACE_STYLE_USAGE(.BOTH.,#1112);
#1112 = SURFACE_SIDE_STYLE('',(#1113));
#1113 = SURFACE_STYLE_FILL_AREA(#1114);
#1114 = FILL_AREA_STYLE('',(#1115));
#1115 = FILL_AREA_STYLE_COLOUR('',#1099);
#1116 = MECHANICAL_DESIGN_GEOMETRIC_PRESENTATION_REPRESENTATION('',(
    #1117),#508);
#1117 = STYLED_ITEM('color',(#1118),#465);
#1118 = PRESENTATION_STYLE_ASSIGNMENT((#1119));
#1119 = SURFACE_STYLE_USAGE(.BOTH.,#1120);
#1120 = SURFACE_SIDE_STYLE('',(#1121));
#1121 = SURFACE_STYLE_FILL_AREA(#1122);
#1122 = FILL_AREA_STYLE('',(#1123));
#1123 = FILL_AREA_STYLE_COLOUR('',#1074);
#1124 = MECHANICAL_DESIGN_GEOMETRIC_PRESENTATION_REPRESENTATION('',(
    #1125),#577);
#1125 = STYLED_ITEM('color',(#1126),#527);
#1126 = PRESENTATION_STYLE_ASSIGNMENT((#1127));
#1127 = SURFACE_STYLE_USAGE(.BOTH.,#1128);
#1128 = SURFACE_SIDE_STYLE('',(#1129));
#1129 = SURFACE_STYLE_FILL_AREA(#1130);
#1130 = FILL_AREA_STYLE('',(#1131));
#1131 = FILL_AREA_STYLE_COLOUR('',#1074);
#1132 = MECHANICAL_DESIGN_GEOMETRIC_PRESENTATION_REPRESENTATION('',(
    #1133),#888);
#1133 = STYLED_ITEM('color',(#1134),#824);
#1134 = PRESENTATION_STYLE_ASSIGNMENT((#1135));
#1135 = SURFACE_STYLE_USAGE(.BOTH.,#1136);
#1136 = SURFACE_SIDE_STYLE('',(#1137));
#1137 = SURFACE_STYLE_FILL_AREA(#1138);
#1138 = FILL_AREA_STYLE('',(#1139));
#1139 = FILL_AREA_STYLE_COLOUR('',#1074);
#1140 = MECHANICAL_DESIGN_GEOMETRIC_PRESENTATION_REPRESENTATION('',(
    #1141),#446);
#1141 = STYLED_ITEM('color',(#1142),#403);
#1142 = PRESENTATION_STYLE_ASSIGNMENT((#1143));
#1143 = SURFACE_STYLE_USAGE(.BOTH.,#1144);
#1144 = SURFACE_SIDE_STYLE('',(#1145));
#1145 = SURFACE_STYLE_FILL_AREA(#1146);
#1146 = FILL_AREA_STYLE('',(#1147));
#1147 = FILL_AREA_STYLE_COLOUR('',#1065);
#1148 = MECHANICAL_DESIGN_GEOMETRIC_PRESENTATION_REPRESENTATION('',(
    #1149),#1005);
#1149 = STYLED_ITEM('color',(#1150),#990);
#1150 = PRESENTATION_STYLE_ASSIGNMENT((#1151));
#1151 = SURFACE_STYLE_USAGE(.BOTH.,#1152);
#1152 = SURFACE_SIDE_STYLE('',(#1153));
#1153 = SURFACE_STYLE_FILL_AREA(#1154);
#1154 = FILL_AREA_STYLE('',(#1155));
#1155 = FILL_AREA_STYLE_COLOUR('',#1065);
#1156 = MECHANICAL_DESIGN_GEOMETRIC_PRESENTATION_REPRESENTATION('',(
    #1157),#308);
#1157 = STYLED_ITEM('color',(#1158),#251);
#1158 = PRESENTATION_STYLE_ASSIGNMENT((#1159));
#1159 = SURFACE_STYLE_USAGE(.BOTH.,#1160);
#1160 = SURFACE_SIDE_STYLE('',(#1161));
#1161 = SURFACE_STYLE_FILL_AREA(#1162);
#1162 = FILL_AREA_STYLE('',(#1163));
#1163 = FILL_AREA_STYLE_COLOUR('',#1074);
#1164 = MECHANICAL_DESIGN_GEOMETRIC_PRESENTATION_REPRESENTATION('',(
    #1165),#1046);
#1165 = STYLED_ITEM('color',(#1166),#1024);
#1166 = PRESENTATION_STYLE_ASSIGNMENT((#1167));
#1167 = SURFACE_STYLE_USAGE(.BOTH.,#1168);
#1168 = SURFACE_SIDE_STYLE('',(#1169));
#1169 = SURFACE_STYLE_FILL_AREA(#1170);
#1170 = FILL_AREA_STYLE('',(#1171));
#1171 = FILL_AREA_STYLE_COLOUR('',#1172);
#1172 = COLOUR_RGB('',0.199999998682,0.649999988539,0.420000006308);
ENDSEC;
END-ISO-10303-21;
