ISO-10303-21;
HEADER;
FILE_DESCRIPTION(('Open CASCADE Model'),'2;1');
FILE_NAME('Open CASCADE Shape Model','2026-10-02T17:52:51',('Author'),(
    'Open CASCADE'),'Open CASCADE STEP processor 7.9','Open CASCADE 7.9'
  ,'Unknown');
FILE_SCHEMA(('AUTOMOTIVE_DESIGN { 1 0 10303 214 1 1 1 1 }'));
ENDSEC;
DATA;
#1 = APPLICATION_PROTOCOL_DEFINITION('international standard',
  'automotive_design',2000,#2);
#2 = APPLICATION_CONTEXT(
  'core data for automotive mechanical design processes');
#3 = SHAPE_DEFINITION_REPRESENTATION(#4,#10);
#4 = PRODUCT_DEFINITION_SHAPE('','',#5);
#5 = PRODUCT_DEFINITION('design','',#6,#9);
#6 = PRODUCT_DEFINITION_FORMATION('','',#7);
#7 = PRODUCT('Lezhandr_R02_harness','Lezhandr_R02_harness','',(#8));
#8 = PRODUCT_CONTEXT('',#2,'mechanical');
#9 = PRODUCT_DEFINITION_CONTEXT('part definition',#2,'design');
#10 = SHAPE_REPRESENTATION('',(#11,#15,#19,#23,#27,#31,#35,#39,#43,#47,
    #51,#55,#59,#63,#67,#71,#75,#79,#83,#87,#91),#95);
#11 = AXIS2_PLACEMENT_3D('',#12,#13,#14);
#12 = CARTESIAN_POINT('',(0.,0.,0.));
#13 = DIRECTION('',(0.,0.,1.));
#14 = DIRECTION('',(1.,0.,-0.));
#15 = AXIS2_PLACEMENT_3D('',#16,#17,#18);
#16 = CARTESIAN_POINT('',(0.,0.,0.));
#17 = DIRECTION('',(0.,0.,1.));
#18 = DIRECTION('',(1.,0.,-0.));
#19 = AXIS2_PLACEMENT_3D('',#20,#21,#22);
#20 = CARTESIAN_POINT('',(0.,0.,0.));
#21 = DIRECTION('',(0.,0.,1.));
#22 = DIRECTION('',(1.,0.,-0.));
#23 = AXIS2_PLACEMENT_3D('',#24,#25,#26);
#24 = CARTESIAN_POINT('',(0.,0.,0.));
#25 = DIRECTION('',(0.,0.,1.));
#26 = DIRECTION('',(1.,0.,-0.));
#27 = AXIS2_PLACEMENT_3D('',#28,#29,#30);
#28 = CARTESIAN_POINT('',(0.,0.,0.));
#29 = DIRECTION('',(0.,0.,1.));
#30 = DIRECTION('',(1.,0.,-0.));
#31 = AXIS2_PLACEMENT_3D('',#32,#33,#34);
#32 = CARTESIAN_POINT('',(0.,0.,0.));
#33 = DIRECTION('',(0.,0.,1.));
#34 = DIRECTION('',(1.,0.,-0.));
#35 = AXIS2_PLACEMENT_3D('',#36,#37,#38);
#36 = CARTESIAN_POINT('',(0.,0.,0.));
#37 = DIRECTION('',(0.,0.,1.));
#38 = DIRECTION('',(1.,0.,-0.));
#39 = AXIS2_PLACEMENT_3D('',#40,#41,#42);
#40 = CARTESIAN_POINT('',(0.,0.,0.));
#41 = DIRECTION('',(0.,0.,1.));
#42 = DIRECTION('',(1.,0.,-0.));
#43 = AXIS2_PLACEMENT_3D('',#44,#45,#46);
#44 = CARTESIAN_POINT('',(0.,0.,0.));
#45 = DIRECTION('',(0.,0.,1.));
#46 = DIRECTION('',(1.,0.,-0.));
#47 = AXIS2_PLACEMENT_3D('',#48,#49,#50);
#48 = CARTESIAN_POINT('',(0.,0.,0.));
#49 = DIRECTION('',(0.,0.,1.));
#50 = DIRECTION('',(1.,0.,-0.));
#51 = AXIS2_PLACEMENT_3D('',#52,#53,#54);
#52 = CARTESIAN_POINT('',(0.,0.,0.));
#53 = DIRECTION('',(0.,0.,1.));
#54 = DIRECTION('',(1.,0.,-0.));
#55 = AXIS2_PLACEMENT_3D('',#56,#57,#58);
#56 = CARTESIAN_POINT('',(0.,0.,0.));
#57 = DIRECTION('',(0.,0.,1.));
#58 = DIRECTION('',(1.,0.,-0.));
#59 = AXIS2_PLACEMENT_3D('',#60,#61,#62);
#60 = CARTESIAN_POINT('',(0.,0.,0.));
#61 = DIRECTION('',(0.,0.,1.));
#62 = DIRECTION('',(1.,0.,-0.));
#63 = AXIS2_PLACEMENT_3D('',#64,#65,#66);
#64 = CARTESIAN_POINT('',(0.,0.,0.));
#65 = DIRECTION('',(0.,0.,1.));
#66 = DIRECTION('',(1.,0.,-0.));
#67 = AXIS2_PLACEMENT_3D('',#68,#69,#70);
#68 = CARTESIAN_POINT('',(0.,0.,0.));
#69 = DIRECTION('',(0.,0.,1.));
#70 = DIRECTION('',(1.,0.,-0.));
#71 = AXIS2_PLACEMENT_3D('',#72,#73,#74);
#72 = CARTESIAN_POINT('',(0.,0.,0.));
#73 = DIRECTION('',(0.,0.,1.));
#74 = DIRECTION('',(1.,0.,-0.));
#75 = AXIS2_PLACEMENT_3D('',#76,#77,#78);
#76 = CARTESIAN_POINT('',(0.,0.,0.));
#77 = DIRECTION('',(0.,0.,1.));
#78 = DIRECTION('',(1.,0.,-0.));
#79 = AXIS2_PLACEMENT_3D('',#80,#81,#82);
#80 = CARTESIAN_POINT('',(0.,0.,0.));
#81 = DIRECTION('',(0.,0.,1.));
#82 = DIRECTION('',(1.,0.,-0.));
#83 = AXIS2_PLACEMENT_3D('',#84,#85,#86);
#84 = CARTESIAN_POINT('',(0.,0.,0.));
#85 = DIRECTION('',(0.,0.,1.));
#86 = DIRECTION('',(1.,0.,-0.));
#87 = AXIS2_PLACEMENT_3D('',#88,#89,#90);
#88 = CARTESIAN_POINT('',(0.,0.,0.));
#89 = DIRECTION('',(0.,0.,1.));
#90 = DIRECTION('',(1.,0.,-0.));
#91 = AXIS2_PLACEMENT_3D('',#92,#93,#94);
#92 = CARTESIAN_POINT('',(0.,0.,0.));
#93 = DIRECTION('',(0.,0.,1.));
#94 = DIRECTION('',(1.,0.,-0.));
#95 = ( GEOMETRIC_REPRESENTATION_CONTEXT(3) 
GLOBAL_UNCERTAINTY_ASSIGNED_CONTEXT((#99)) GLOBAL_UNIT_ASSIGNED_CONTEXT(
(#96,#97,#98)) REPRESENTATION_CONTEXT('Context #1',
  '3D Context with UNIT and UNCERTAINTY') );
#96 = ( LENGTH_UNIT() NAMED_UNIT(*) SI_UNIT(.MILLI.,.METRE.) );
#97 = ( NAMED_UNIT(*) PLANE_ANGLE_UNIT() SI_UNIT($,.RADIAN.) );
#98 = ( NAMED_UNIT(*) SI_UNIT($,.STERADIAN.) SOLID_ANGLE_UNIT() );
#99 = UNCERTAINTY_MEASURE_WITH_UNIT(LENGTH_MEASURE(1.E-07),#96,
  'distance_accuracy_value','confusion accuracy');
#100 = PRODUCT_RELATED_PRODUCT_CATEGORY('part',$,(#7));
#101 = SHAPE_DEFINITION_REPRESENTATION(#102,#108);
#102 = PRODUCT_DEFINITION_SHAPE('','',#103);
#103 = PRODUCT_DEFINITION('design','',#104,#107);
#104 = PRODUCT_DEFINITION_FORMATION('','',#105);
#105 = PRODUCT('HP0','HP0','',(#106));
#106 = PRODUCT_CONTEXT('',#2,'mechanical');
#107 = PRODUCT_DEFINITION_CONTEXT('part definition',#2,'design');
#108 = GEOMETRICALLY_BOUNDED_WIREFRAME_SHAPE_REPRESENTATION('',(#11,#109
    ),#159);
#109 = GEOMETRIC_CURVE_SET('',(#110,#117,#124,#131,#138,#145,#152));
#110 = TRIMMED_CURVE('',#111,(#115,PARAMETER_VALUE(0.)),(#116,
    PARAMETER_VALUE(216.56407827707)),.T.,.PARAMETER.);
#111 = LINE('',#112,#113);
#112 = CARTESIAN_POINT('',(1.6E+03,-820.,50.));
#113 = VECTOR('',#114,1.);
#114 = DIRECTION('',(-0.554108515848,0.831162773771,4.617570965396E-02)
  );
#115 = CARTESIAN_POINT('',(1.6E+03,-820.,50.));
#116 = CARTESIAN_POINT('',(1.48E+03,-640.,60.));
#117 = TRIMMED_CURVE('',#118,(#122,PARAMETER_VALUE(0.)),(#123,
    PARAMETER_VALUE(343.47716403119)),.T.,.PARAMETER.);
#118 = LINE('',#119,#120);
#119 = CARTESIAN_POINT('',(1.48E+03,-640.,60.));
#120 = VECTOR('',#121,1.);
#121 = DIRECTION('',(-0.815192476594,0.420049960876,0.398772186183));
#122 = CARTESIAN_POINT('',(1.48E+03,-640.,60.));
#123 = CARTESIAN_POINT('',(1.2E+03,-495.7224306869,196.96913960456));
#124 = TRIMMED_CURVE('',#125,(#129,PARAMETER_VALUE(0.)),(#130,
    PARAMETER_VALUE(100.2643445698)),.T.,.PARAMETER.);
#125 = LINE('',#126,#127);
#126 = CARTESIAN_POINT('',(1.2E+03,-495.7224306869,196.96913960456));
#127 = VECTOR('',#128,1.);
#128 = DIRECTION('',(-0.997363523684,0.,7.256722142116E-02));
#129 = CARTESIAN_POINT('',(1.2E+03,-495.7224306869,196.96913960456));
#130 = CARTESIAN_POINT('',(1.1E+03,-495.7224306869,204.24504449761));
#131 = TRIMMED_CURVE('',#132,(#136,PARAMETER_VALUE(0.)),(#137,
    PARAMETER_VALUE(150.3965168547)),.T.,.PARAMETER.);
#132 = LINE('',#133,#134);
#133 = CARTESIAN_POINT('',(1.1E+03,-495.7224306869,204.24504449761));
#134 = VECTOR('',#135,1.);
#135 = DIRECTION('',(-0.997363523684,0.,7.256722142116E-02));
#136 = CARTESIAN_POINT('',(1.1E+03,-495.7224306869,204.24504449761));
#137 = CARTESIAN_POINT('',(950.,-495.7224306869,215.15890183717));
#138 = TRIMMED_CURVE('',#139,(#143,PARAMETER_VALUE(0.)),(#144,
    PARAMETER_VALUE(151.36319179329)),.T.,.PARAMETER.);
#139 = LINE('',#140,#141);
#140 = CARTESIAN_POINT('',(950.,-495.7224306869,215.15890183717));
#141 = VECTOR('',#142,1.);
#142 = DIRECTION('',(-0.990993901641,0.,0.133907008447));
#143 = CARTESIAN_POINT('',(950.,-495.7224306869,215.15890183717));
#144 = CARTESIAN_POINT('',(800.,-495.7224306869,235.42749403923));
#145 = TRIMMED_CURVE('',#146,(#150,PARAMETER_VALUE(0.)),(#151,
    PARAMETER_VALUE(133.77788314695)),.T.,.PARAMETER.);
#146 = LINE('',#147,#148);
#147 = CARTESIAN_POINT('',(800.,-495.7224306869,235.42749403923));
#148 = VECTOR('',#149,1.);
#149 = DIRECTION('',(-0.990993901641,0.,0.133907008447));
#150 = CARTESIAN_POINT('',(800.,-495.7224306869,235.42749403923));
#151 = CARTESIAN_POINT('',(667.42693362698,-495.7224306869,
    253.34129016783));
#152 = TRIMMED_CURVE('',#153,(#157,PARAMETER_VALUE(0.)),(#158,
    PARAMETER_VALUE(334.63225472829)),.T.,.PARAMETER.);
#153 = LINE('',#154,#155);
#154 = CARTESIAN_POINT('',(667.42693362698,-495.7224306869,
    253.34129016783));
#155 = VECTOR('',#156,1.);
#156 = DIRECTION('',(0.,0.435470366732,0.900203065813));
#157 = CARTESIAN_POINT('',(667.42693362698,-495.7224306869,
    253.34129016783));
#158 = CARTESIAN_POINT('',(667.42693362698,-350.,554.57827179399));
#159 = ( GEOMETRIC_REPRESENTATION_CONTEXT(3) 
GLOBAL_UNCERTAINTY_ASSIGNED_CONTEXT((#163)) GLOBAL_UNIT_ASSIGNED_CONTEXT
((#160,#161,#162)) REPRESENTATION_CONTEXT('Context #1',
  '3D Context with UNIT and UNCERTAINTY') );
#160 = ( LENGTH_UNIT() NAMED_UNIT(*) SI_UNIT(.MILLI.,.METRE.) );
#161 = ( NAMED_UNIT(*) PLANE_ANGLE_UNIT() SI_UNIT($,.RADIAN.) );
#162 = ( NAMED_UNIT(*) SI_UNIT($,.STERADIAN.) SOLID_ANGLE_UNIT() );
#163 = UNCERTAINTY_MEASURE_WITH_UNIT(LENGTH_MEASURE(1.E-07),#160,
  'distance_accuracy_value','confusion accuracy');
#164 = CONTEXT_DEPENDENT_SHAPE_REPRESENTATION(#165,#167);
#165 = ( REPRESENTATION_RELATIONSHIP('','',#108,#10) 
REPRESENTATION_RELATIONSHIP_WITH_TRANSFORMATION(#166) 
SHAPE_REPRESENTATION_RELATIONSHIP() );
#166 = ITEM_DEFINED_TRANSFORMATION('','',#11,#15);
#167 = PRODUCT_DEFINITION_SHAPE('Placement','Placement of an item',#168
  );
#168 = NEXT_ASSEMBLY_USAGE_OCCURRENCE('1','HP0','',#5,#103,$);
#169 = PRODUCT_RELATED_PRODUCT_CATEGORY('part',$,(#105));
#170 = SHAPE_DEFINITION_REPRESENTATION(#171,#177);
#171 = PRODUCT_DEFINITION_SHAPE('','',#172);
#172 = PRODUCT_DEFINITION('design','',#173,#176);
#173 = PRODUCT_DEFINITION_FORMATION('','',#174);
#174 = PRODUCT('NTC00','NTC00','',(#175));
#175 = PRODUCT_CONTEXT('',#2,'mechanical');
#176 = PRODUCT_DEFINITION_CONTEXT('part definition',#2,'design');
#177 = GEOMETRICALLY_BOUNDED_WIREFRAME_SHAPE_REPRESENTATION('',(#11,#178
    ),#235);
#178 = GEOMETRIC_CURVE_SET('',(#179,#186,#193,#200,#207,#214,#221,#228)
  );
#179 = TRIMMED_CURVE('',#180,(#184,PARAMETER_VALUE(0.)),(#185,
    PARAMETER_VALUE(240.10414407085)),.T.,.PARAMETER.);
#180 = LINE('',#181,#182);
#181 = CARTESIAN_POINT('',(1.6E+03,-795.,65.));
#182 = VECTOR('',#183,1.);
#183 = DIRECTION('',(-0.583080315176,0.812147581853,2.082429697059E-02)
  );
#184 = CARTESIAN_POINT('',(1.6E+03,-795.,65.));
#185 = CARTESIAN_POINT('',(1.46E+03,-600.,70.));
#186 = TRIMMED_CURVE('',#187,(#191,PARAMETER_VALUE(0.)),(#192,
    PARAMETER_VALUE(297.25256072318)),.T.,.PARAMETER.);
#187 = LINE('',#188,#189);
#188 = CARTESIAN_POINT('',(1.46E+03,-600.,70.));
#189 = VECTOR('',#190,1.);
#190 = DIRECTION('',(-0.874677073824,0.478866389221,7.50133174922E-02));
#191 = CARTESIAN_POINT('',(1.46E+03,-600.,70.));
#192 = CARTESIAN_POINT('',(1.2E+03,-457.6557395597,92.297900712899));
#193 = TRIMMED_CURVE('',#194,(#198,PARAMETER_VALUE(0.)),(#199,
    PARAMETER_VALUE(100.05810388205)),.T.,.PARAMETER.);
#194 = LINE('',#195,#196);
#195 = CARTESIAN_POINT('',(1.2E+03,-457.6557395597,92.297900712899));
#196 = VECTOR('',#197,1.);
#197 = DIRECTION('',(-0.999419298589,0.,3.407441278852E-02));
#198 = CARTESIAN_POINT('',(1.2E+03,-457.6557395597,92.297900712899));
#199 = CARTESIAN_POINT('',(1.1E+03,-457.6557395597,95.707321847412));
#200 = TRIMMED_CURVE('',#201,(#205,PARAMETER_VALUE(0.)),(#206,
    PARAMETER_VALUE(150.08715582308)),.T.,.PARAMETER.);
#201 = LINE('',#202,#203);
#202 = CARTESIAN_POINT('',(1.1E+03,-457.6557395597,95.707321847412));
#203 = VECTOR('',#204,1.);
#204 = DIRECTION('',(-0.999419298589,0.,3.407441278852E-02));
#205 = CARTESIAN_POINT('',(1.1E+03,-457.6557395597,95.707321847412));
#206 = CARTESIAN_POINT('',(950.,-457.6557395597,100.82145354918));
#207 = TRIMMED_CURVE('',#208,(#212,PARAMETER_VALUE(0.)),(#213,
    PARAMETER_VALUE(150.30038521395)),.T.,.PARAMETER.);
#208 = LINE('',#209,#210);
#209 = CARTESIAN_POINT('',(950.,-457.6557395597,100.82145354918));
#210 = VECTOR('',#211,1.);
#211 = DIRECTION('',(-0.998001434171,0.,6.319127623599E-02));
#212 = CARTESIAN_POINT('',(950.,-457.6557395597,100.82145354918));
#213 = CARTESIAN_POINT('',(800.,-457.6557395597,110.31912670961));
#214 = TRIMMED_CURVE('',#215,(#219,PARAMETER_VALUE(0.)),(#220,
    PARAMETER_VALUE(150.30038521395)),.T.,.PARAMETER.);
#215 = LINE('',#216,#217);
#216 = CARTESIAN_POINT('',(800.,-457.6557395597,110.31912670961));
#217 = VECTOR('',#218,1.);
#218 = DIRECTION('',(-0.998001434171,0.,6.319127623599E-02));
#219 = CARTESIAN_POINT('',(800.,-457.6557395597,110.31912670961));
#220 = CARTESIAN_POINT('',(650.,-457.6557395597,119.81679987004));
#221 = TRIMMED_CURVE('',#222,(#226,PARAMETER_VALUE(0.)),(#227,
    PARAMETER_VALUE(17.593898107605)),.T.,.PARAMETER.);
#222 = LINE('',#223,#224);
#223 = CARTESIAN_POINT('',(650.,-457.6557395597,119.81679987004));
#224 = VECTOR('',#225,1.);
#225 = DIRECTION('',(-0.998815968214,0.,4.864834673599E-02));
#226 = CARTESIAN_POINT('',(650.,-457.6557395597,119.81679987004));
#227 = CARTESIAN_POINT('',(632.42693362698,-457.6557395597,
    120.67271392561));
#228 = TRIMMED_CURVE('',#229,(#233,PARAMETER_VALUE(0.)),(#234,
    PARAMETER_VALUE(446.08641479125)),.T.,.PARAMETER.);
#229 = LINE('',#230,#231);
#230 = CARTESIAN_POINT('',(632.42693362698,-457.6557395597,
    120.67271392561));
#231 = VECTOR('',#232,1.);
#232 = DIRECTION('',(0.,0.297376775354,0.954760207319));
#233 = CARTESIAN_POINT('',(632.42693362698,-457.6557395597,
    120.67271392561));
#234 = CARTESIAN_POINT('',(632.42693362698,-325.,546.57827179399));
#235 = ( GEOMETRIC_REPRESENTATION_CONTEXT(3) 
GLOBAL_UNCERTAINTY_ASSIGNED_CONTEXT((#239)) GLOBAL_UNIT_ASSIGNED_CONTEXT
((#236,#237,#238)) REPRESENTATION_CONTEXT('Context #1',
  '3D Context with UNIT and UNCERTAINTY') );
#236 = ( LENGTH_UNIT() NAMED_UNIT(*) SI_UNIT(.MILLI.,.METRE.) );
#237 = ( NAMED_UNIT(*) PLANE_ANGLE_UNIT() SI_UNIT($,.RADIAN.) );
#238 = ( NAMED_UNIT(*) SI_UNIT($,.STERADIAN.) SOLID_ANGLE_UNIT() );
#239 = UNCERTAINTY_MEASURE_WITH_UNIT(LENGTH_MEASURE(1.E-07),#236,
  'distance_accuracy_value','confusion accuracy');
#240 = CONTEXT_DEPENDENT_SHAPE_REPRESENTATION(#241,#243);
#241 = ( REPRESENTATION_RELATIONSHIP('','',#177,#10) 
REPRESENTATION_RELATIONSHIP_WITH_TRANSFORMATION(#242) 
SHAPE_REPRESENTATION_RELATIONSHIP() );
#242 = ITEM_DEFINED_TRANSFORMATION('','',#11,#19);
#243 = PRODUCT_DEFINITION_SHAPE('Placement','Placement of an item',#244
  );
#244 = NEXT_ASSEMBLY_USAGE_OCCURRENCE('2','NTC00','',#5,#172,$);
#245 = PRODUCT_RELATED_PRODUCT_CATEGORY('part',$,(#174));
#246 = SHAPE_DEFINITION_REPRESENTATION(#247,#253);
#247 = PRODUCT_DEFINITION_SHAPE('','',#248);
#248 = PRODUCT_DEFINITION('design','',#249,#252);
#249 = PRODUCT_DEFINITION_FORMATION('','',#250);
#250 = PRODUCT('NTC01','NTC01','',(#251));
#251 = PRODUCT_CONTEXT('',#2,'mechanical');
#252 = PRODUCT_DEFINITION_CONTEXT('part definition',#2,'design');
#253 = GEOMETRICALLY_BOUNDED_WIREFRAME_SHAPE_REPRESENTATION('',(#11,#254
    ),#304);
#254 = GEOMETRIC_CURVE_SET('',(#255,#262,#269,#276,#283,#290,#297));
#255 = TRIMMED_CURVE('',#256,(#260,PARAMETER_VALUE(0.)),(#261,
    PARAMETER_VALUE(240.10414407085)),.T.,.PARAMETER.);
#256 = LINE('',#257,#258);
#257 = CARTESIAN_POINT('',(1.6E+03,-795.,65.));
#258 = VECTOR('',#259,1.);
#259 = DIRECTION('',(-0.583080315176,0.812147581853,2.082429697059E-02)
  );
#260 = CARTESIAN_POINT('',(1.6E+03,-795.,65.));
#261 = CARTESIAN_POINT('',(1.46E+03,-600.,70.));
#262 = TRIMMED_CURVE('',#263,(#267,PARAMETER_VALUE(0.)),(#268,
    PARAMETER_VALUE(297.25256072318)),.T.,.PARAMETER.);
#263 = LINE('',#264,#265);
#264 = CARTESIAN_POINT('',(1.46E+03,-600.,70.));
#265 = VECTOR('',#266,1.);
#266 = DIRECTION('',(-0.874677073824,0.478866389221,7.50133174922E-02));
#267 = CARTESIAN_POINT('',(1.46E+03,-600.,70.));
#268 = CARTESIAN_POINT('',(1.2E+03,-457.6557395597,92.297900712899));
#269 = TRIMMED_CURVE('',#270,(#274,PARAMETER_VALUE(0.)),(#275,
    PARAMETER_VALUE(100.05810388205)),.T.,.PARAMETER.);
#270 = LINE('',#271,#272);
#271 = CARTESIAN_POINT('',(1.2E+03,-457.6557395597,92.297900712899));
#272 = VECTOR('',#273,1.);
#273 = DIRECTION('',(-0.999419298589,0.,3.407441278852E-02));
#274 = CARTESIAN_POINT('',(1.2E+03,-457.6557395597,92.297900712899));
#275 = CARTESIAN_POINT('',(1.1E+03,-457.6557395597,95.707321847412));
#276 = TRIMMED_CURVE('',#277,(#281,PARAMETER_VALUE(0.)),(#282,
    PARAMETER_VALUE(150.08715582308)),.T.,.PARAMETER.);
#277 = LINE('',#278,#279);
#278 = CARTESIAN_POINT('',(1.1E+03,-457.6557395597,95.707321847412));
#279 = VECTOR('',#280,1.);
#280 = DIRECTION('',(-0.999419298589,0.,3.407441278852E-02));
#281 = CARTESIAN_POINT('',(1.1E+03,-457.6557395597,95.707321847412));
#282 = CARTESIAN_POINT('',(950.,-457.6557395597,100.82145354918));
#283 = TRIMMED_CURVE('',#284,(#288,PARAMETER_VALUE(0.)),(#289,
    PARAMETER_VALUE(150.30038521395)),.T.,.PARAMETER.);
#284 = LINE('',#285,#286);
#285 = CARTESIAN_POINT('',(950.,-457.6557395597,100.82145354918));
#286 = VECTOR('',#287,1.);
#287 = DIRECTION('',(-0.998001434171,0.,6.319127623599E-02));
#288 = CARTESIAN_POINT('',(950.,-457.6557395597,100.82145354918));
#289 = CARTESIAN_POINT('',(800.,-457.6557395597,110.31912670961));
#290 = TRIMMED_CURVE('',#291,(#295,PARAMETER_VALUE(0.)),(#296,
    PARAMETER_VALUE(97.768463082467)),.T.,.PARAMETER.);
#291 = LINE('',#292,#293);
#292 = CARTESIAN_POINT('',(800.,-457.6557395597,110.31912670961));
#293 = VECTOR('',#294,1.);
#294 = DIRECTION('',(-0.998001434171,0.,6.319127623599E-02));
#295 = CARTESIAN_POINT('',(800.,-457.6557395597,110.31912670961));
#296 = CARTESIAN_POINT('',(702.42693362698,-457.6557395597,
    116.49724066742));
#297 = TRIMMED_CURVE('',#298,(#302,PARAMETER_VALUE(0.)),(#303,
    PARAMETER_VALUE(450.07470332494)),.T.,.PARAMETER.);
#298 = LINE('',#299,#300);
#299 = CARTESIAN_POINT('',(702.42693362698,-457.6557395597,
    116.49724066742));
#300 = VECTOR('',#301,1.);
#301 = DIRECTION('',(0.,0.294741603071,0.955576991885));
#302 = CARTESIAN_POINT('',(702.42693362698,-457.6557395597,
    116.49724066742));
#303 = CARTESIAN_POINT('',(702.42693362698,-325.,546.57827179399));
#304 = ( GEOMETRIC_REPRESENTATION_CONTEXT(3) 
GLOBAL_UNCERTAINTY_ASSIGNED_CONTEXT((#308)) GLOBAL_UNIT_ASSIGNED_CONTEXT
((#305,#306,#307)) REPRESENTATION_CONTEXT('Context #1',
  '3D Context with UNIT and UNCERTAINTY') );
#305 = ( LENGTH_UNIT() NAMED_UNIT(*) SI_UNIT(.MILLI.,.METRE.) );
#306 = ( NAMED_UNIT(*) PLANE_ANGLE_UNIT() SI_UNIT($,.RADIAN.) );
#307 = ( NAMED_UNIT(*) SI_UNIT($,.STERADIAN.) SOLID_ANGLE_UNIT() );
#308 = UNCERTAINTY_MEASURE_WITH_UNIT(LENGTH_MEASURE(1.E-07),#305,
  'distance_accuracy_value','confusion accuracy');
#309 = CONTEXT_DEPENDENT_SHAPE_REPRESENTATION(#310,#312);
#310 = ( REPRESENTATION_RELATIONSHIP('','',#253,#10) 
REPRESENTATION_RELATIONSHIP_WITH_TRANSFORMATION(#311) 
SHAPE_REPRESENTATION_RELATIONSHIP() );
#311 = ITEM_DEFINED_TRANSFORMATION('','',#11,#23);
#312 = PRODUCT_DEFINITION_SHAPE('Placement','Placement of an item',#313
  );
#313 = NEXT_ASSEMBLY_USAGE_OCCURRENCE('3','NTC01','',#5,#248,$);
#314 = PRODUCT_RELATED_PRODUCT_CATEGORY('part',$,(#250));
#315 = SHAPE_DEFINITION_REPRESENTATION(#316,#322);
#316 = PRODUCT_DEFINITION_SHAPE('','',#317);
#317 = PRODUCT_DEFINITION('design','',#318,#321);
#318 = PRODUCT_DEFINITION_FORMATION('','',#319);
#319 = PRODUCT('TH0','TH0','',(#320));
#320 = PRODUCT_CONTEXT('',#2,'mechanical');
#321 = PRODUCT_DEFINITION_CONTEXT('part definition',#2,'design');
#322 = GEOMETRICALLY_BOUNDED_WIREFRAME_SHAPE_REPRESENTATION('',(#11,#323
    ),#373);
#323 = GEOMETRIC_CURVE_SET('',(#324,#331,#338,#345,#352,#359,#366));
#324 = TRIMMED_CURVE('',#325,(#329,PARAMETER_VALUE(0.)),(#330,
    PARAMETER_VALUE(220.45407685048)),.T.,.PARAMETER.);
#325 = LINE('',#326,#327);
#326 = CARTESIAN_POINT('',(1.6E+03,-790.,50.));
#327 = VECTOR('',#328,1.);
#328 = DIRECTION('',(-0.498970132789,0.86185750209,9.07218423253E-02));
#329 = CARTESIAN_POINT('',(1.6E+03,-790.,50.));
#330 = CARTESIAN_POINT('',(1.49E+03,-600.,70.));
#331 = TRIMMED_CURVE('',#332,(#336,PARAMETER_VALUE(0.)),(#337,
    PARAMETER_VALUE(323.81952513165)),.T.,.PARAMETER.);
#332 = LINE('',#333,#334);
#333 = CARTESIAN_POINT('',(1.49E+03,-600.,70.));
#334 = VECTOR('',#335,1.);
#335 = DIRECTION('',(-0.89556057462,0.439578991978,6.885903715606E-02));
#336 = CARTESIAN_POINT('',(1.49E+03,-600.,70.));
#337 = CARTESIAN_POINT('',(1.2E+03,-457.6557395597,92.297900712899));
#338 = TRIMMED_CURVE('',#339,(#343,PARAMETER_VALUE(0.)),(#344,
    PARAMETER_VALUE(100.05810388205)),.T.,.PARAMETER.);
#339 = LINE('',#340,#341);
#340 = CARTESIAN_POINT('',(1.2E+03,-457.6557395597,92.297900712899));
#341 = VECTOR('',#342,1.);
#342 = DIRECTION('',(-0.999419298589,0.,3.407441278852E-02));
#343 = CARTESIAN_POINT('',(1.2E+03,-457.6557395597,92.297900712899));
#344 = CARTESIAN_POINT('',(1.1E+03,-457.6557395597,95.707321847412));
#345 = TRIMMED_CURVE('',#346,(#350,PARAMETER_VALUE(0.)),(#351,
    PARAMETER_VALUE(150.08715582308)),.T.,.PARAMETER.);
#346 = LINE('',#347,#348);
#347 = CARTESIAN_POINT('',(1.1E+03,-457.6557395597,95.707321847412));
#348 = VECTOR('',#349,1.);
#349 = DIRECTION('',(-0.999419298589,0.,3.407441278852E-02));
#350 = CARTESIAN_POINT('',(1.1E+03,-457.6557395597,95.707321847412));
#351 = CARTESIAN_POINT('',(950.,-457.6557395597,100.82145354918));
#352 = TRIMMED_CURVE('',#353,(#357,PARAMETER_VALUE(0.)),(#358,
    PARAMETER_VALUE(150.30038521395)),.T.,.PARAMETER.);
#353 = LINE('',#354,#355);
#354 = CARTESIAN_POINT('',(950.,-457.6557395597,100.82145354918));
#355 = VECTOR('',#356,1.);
#356 = DIRECTION('',(-0.998001434171,0.,6.319127623599E-02));
#357 = CARTESIAN_POINT('',(950.,-457.6557395597,100.82145354918));
#358 = CARTESIAN_POINT('',(800.,-457.6557395597,110.31912670961));
#359 = TRIMMED_CURVE('',#360,(#364,PARAMETER_VALUE(0.)),(#365,
    PARAMETER_VALUE(132.83855296572)),.T.,.PARAMETER.);
#360 = LINE('',#361,#362);
#361 = CARTESIAN_POINT('',(800.,-457.6557395597,110.31912670961));
#362 = VECTOR('',#363,1.);
#363 = DIRECTION('',(-0.998001434171,0.,6.319127623599E-02));
#364 = CARTESIAN_POINT('',(800.,-457.6557395597,110.31912670961));
#365 = CARTESIAN_POINT('',(667.42693362698,-457.6557395597,
    118.71336440485));
#366 = TRIMMED_CURVE('',#367,(#371,PARAMETER_VALUE(0.)),(#372,
    PARAMETER_VALUE(455.46326508773)),.T.,.PARAMETER.);
#367 = LINE('',#368,#369);
#368 = CARTESIAN_POINT('',(667.42693362698,-457.6557395597,
    118.71336440485));
#369 = VECTOR('',#370,1.);
#370 = DIRECTION('',(0.,0.324188032006,0.945992663769));
#371 = CARTESIAN_POINT('',(667.42693362698,-457.6557395597,
    118.71336440485));
#372 = CARTESIAN_POINT('',(667.42693362698,-310.,549.57827179399));
#373 = ( GEOMETRIC_REPRESENTATION_CONTEXT(3) 
GLOBAL_UNCERTAINTY_ASSIGNED_CONTEXT((#377)) GLOBAL_UNIT_ASSIGNED_CONTEXT
((#374,#375,#376)) REPRESENTATION_CONTEXT('Context #1',
  '3D Context with UNIT and UNCERTAINTY') );
#374 = ( LENGTH_UNIT() NAMED_UNIT(*) SI_UNIT(.MILLI.,.METRE.) );
#375 = ( NAMED_UNIT(*) PLANE_ANGLE_UNIT() SI_UNIT($,.RADIAN.) );
#376 = ( NAMED_UNIT(*) SI_UNIT($,.STERADIAN.) SOLID_ANGLE_UNIT() );
#377 = UNCERTAINTY_MEASURE_WITH_UNIT(LENGTH_MEASURE(1.E-07),#374,
  'distance_accuracy_value','confusion accuracy');
#378 = CONTEXT_DEPENDENT_SHAPE_REPRESENTATION(#379,#381);
#379 = ( REPRESENTATION_RELATIONSHIP('','',#322,#10) 
REPRESENTATION_RELATIONSHIP_WITH_TRANSFORMATION(#380) 
SHAPE_REPRESENTATION_RELATIONSHIP() );
#380 = ITEM_DEFINED_TRANSFORMATION('','',#11,#27);
#381 = PRODUCT_DEFINITION_SHAPE('Placement','Placement of an item',#382
  );
#382 = NEXT_ASSEMBLY_USAGE_OCCURRENCE('4','TH0','',#5,#317,$);
#383 = PRODUCT_RELATED_PRODUCT_CATEGORY('part',$,(#319));
#384 = SHAPE_DEFINITION_REPRESENTATION(#385,#391);
#385 = PRODUCT_DEFINITION_SHAPE('','',#386);
#386 = PRODUCT_DEFINITION('design','',#387,#390);
#387 = PRODUCT_DEFINITION_FORMATION('','',#388);
#388 = PRODUCT('HP1','HP1','',(#389));
#389 = PRODUCT_CONTEXT('',#2,'mechanical');
#390 = PRODUCT_DEFINITION_CONTEXT('part definition',#2,'design');
#391 = GEOMETRICALLY_BOUNDED_WIREFRAME_SHAPE_REPRESENTATION('',(#11,#392
    ),#435);
#392 = GEOMETRIC_CURVE_SET('',(#393,#400,#407,#414,#421,#428));
#393 = TRIMMED_CURVE('',#394,(#398,PARAMETER_VALUE(0.)),(#399,
    PARAMETER_VALUE(216.56407827707)),.T.,.PARAMETER.);
#394 = LINE('',#395,#396);
#395 = CARTESIAN_POINT('',(1.6E+03,-820.,50.));
#396 = VECTOR('',#397,1.);
#397 = DIRECTION('',(-0.554108515848,0.831162773771,4.617570965396E-02)
  );
#398 = CARTESIAN_POINT('',(1.6E+03,-820.,50.));
#399 = CARTESIAN_POINT('',(1.48E+03,-640.,60.));
#400 = TRIMMED_CURVE('',#401,(#405,PARAMETER_VALUE(0.)),(#406,
    PARAMETER_VALUE(343.47716403119)),.T.,.PARAMETER.);
#401 = LINE('',#402,#403);
#402 = CARTESIAN_POINT('',(1.48E+03,-640.,60.));
#403 = VECTOR('',#404,1.);
#404 = DIRECTION('',(-0.815192476594,0.420049960876,0.398772186183));
#405 = CARTESIAN_POINT('',(1.48E+03,-640.,60.));
#406 = CARTESIAN_POINT('',(1.2E+03,-495.7224306869,196.96913960456));
#407 = TRIMMED_CURVE('',#408,(#412,PARAMETER_VALUE(0.)),(#413,
    PARAMETER_VALUE(50.132172284903)),.T.,.PARAMETER.);
#408 = LINE('',#409,#410);
#409 = CARTESIAN_POINT('',(1.2E+03,-495.7224306869,196.96913960456));
#410 = VECTOR('',#411,1.);
#411 = DIRECTION('',(0.997363523684,0.,-7.256722142116E-02));
#412 = CARTESIAN_POINT('',(1.2E+03,-495.7224306869,196.96913960456));
#413 = CARTESIAN_POINT('',(1.25E+03,-495.7224306869,193.33118715804));
#414 = TRIMMED_CURVE('',#415,(#419,PARAMETER_VALUE(0.)),(#420,
    PARAMETER_VALUE(150.61808442435)),.T.,.PARAMETER.);
#415 = LINE('',#416,#417);
#416 = CARTESIAN_POINT('',(1.25E+03,-495.7224306869,193.33118715804));
#417 = VECTOR('',#418,1.);
#418 = DIRECTION('',(0.995896346533,6.582508768207E-02,
    -6.210897514889E-02));
#419 = CARTESIAN_POINT('',(1.25E+03,-495.7224306869,193.33118715804));
#420 = CARTESIAN_POINT('',(1.4E+03,-485.8079820731,183.97645229555));
#421 = TRIMMED_CURVE('',#422,(#426,PARAMETER_VALUE(0.)),(#427,
    PARAMETER_VALUE(131.06185315564)),.T.,.PARAMETER.);
#422 = LINE('',#423,#424);
#423 = CARTESIAN_POINT('',(1.4E+03,-485.8079820731,183.97645229555));
#424 = VECTOR('',#425,1.);
#425 = DIRECTION('',(0.995896346533,6.582508768207E-02,
    -6.210897514889E-02));
#426 = CARTESIAN_POINT('',(1.4E+03,-485.8079820731,183.97645229555));
#427 = CARTESIAN_POINT('',(1.530524020728E+03,-477.1808240974,
    175.83633491494));
#428 = TRIMMED_CURVE('',#429,(#433,PARAMETER_VALUE(0.)),(#434,
    PARAMETER_VALUE(98.269071062006)),.T.,.PARAMETER.);
#429 = LINE('',#430,#431);
#430 = CARTESIAN_POINT('',(1.530524020728E+03,-477.1808240974,
    175.83633491494));
#431 = VECTOR('',#432,1.);
#432 = DIRECTION('',(0.,0.999101986376,4.237004624199E-02));
#433 = CARTESIAN_POINT('',(1.530524020728E+03,-477.1808240974,
    175.83633491494));
#434 = CARTESIAN_POINT('',(1.530524020728E+03,-379.,180.));
#435 = ( GEOMETRIC_REPRESENTATION_CONTEXT(3) 
GLOBAL_UNCERTAINTY_ASSIGNED_CONTEXT((#439)) GLOBAL_UNIT_ASSIGNED_CONTEXT
((#436,#437,#438)) REPRESENTATION_CONTEXT('Context #1',
  '3D Context with UNIT and UNCERTAINTY') );
#436 = ( LENGTH_UNIT() NAMED_UNIT(*) SI_UNIT(.MILLI.,.METRE.) );
#437 = ( NAMED_UNIT(*) PLANE_ANGLE_UNIT() SI_UNIT($,.RADIAN.) );
#438 = ( NAMED_UNIT(*) SI_UNIT($,.STERADIAN.) SOLID_ANGLE_UNIT() );
#439 = UNCERTAINTY_MEASURE_WITH_UNIT(LENGTH_MEASURE(1.E-07),#436,
  'distance_accuracy_value','confusion accuracy');
#440 = CONTEXT_DEPENDENT_SHAPE_REPRESENTATION(#441,#443);
#441 = ( REPRESENTATION_RELATIONSHIP('','',#391,#10) 
REPRESENTATION_RELATIONSHIP_WITH_TRANSFORMATION(#442) 
SHAPE_REPRESENTATION_RELATIONSHIP() );
#442 = ITEM_DEFINED_TRANSFORMATION('','',#11,#31);
#443 = PRODUCT_DEFINITION_SHAPE('Placement','Placement of an item',#444
  );
#444 = NEXT_ASSEMBLY_USAGE_OCCURRENCE('5','HP1','',#5,#386,$);
#445 = PRODUCT_RELATED_PRODUCT_CATEGORY('part',$,(#388));
#446 = SHAPE_DEFINITION_REPRESENTATION(#447,#453);
#447 = PRODUCT_DEFINITION_SHAPE('','',#448);
#448 = PRODUCT_DEFINITION('design','',#449,#452);
#449 = PRODUCT_DEFINITION_FORMATION('','',#450);
#450 = PRODUCT('NTC10','NTC10','',(#451));
#451 = PRODUCT_CONTEXT('',#2,'mechanical');
#452 = PRODUCT_DEFINITION_CONTEXT('part definition',#2,'design');
#453 = GEOMETRICALLY_BOUNDED_WIREFRAME_SHAPE_REPRESENTATION('',(#11,#454
    ),#497);
#454 = GEOMETRIC_CURVE_SET('',(#455,#462,#469,#476,#483,#490));
#455 = TRIMMED_CURVE('',#456,(#460,PARAMETER_VALUE(0.)),(#461,
    PARAMETER_VALUE(240.10414407085)),.T.,.PARAMETER.);
#456 = LINE('',#457,#458);
#457 = CARTESIAN_POINT('',(1.6E+03,-795.,65.));
#458 = VECTOR('',#459,1.);
#459 = DIRECTION('',(-0.583080315176,0.812147581853,2.082429697059E-02)
  );
#460 = CARTESIAN_POINT('',(1.6E+03,-795.,65.));
#461 = CARTESIAN_POINT('',(1.46E+03,-600.,70.));
#462 = TRIMMED_CURVE('',#463,(#467,PARAMETER_VALUE(0.)),(#468,
    PARAMETER_VALUE(297.25256072318)),.T.,.PARAMETER.);
#463 = LINE('',#464,#465);
#464 = CARTESIAN_POINT('',(1.46E+03,-600.,70.));
#465 = VECTOR('',#466,1.);
#466 = DIRECTION('',(-0.874677073824,0.478866389221,7.50133174922E-02));
#467 = CARTESIAN_POINT('',(1.46E+03,-600.,70.));
#468 = CARTESIAN_POINT('',(1.2E+03,-457.6557395597,92.297900712899));
#469 = TRIMMED_CURVE('',#470,(#474,PARAMETER_VALUE(0.)),(#475,
    PARAMETER_VALUE(50.029051941028)),.T.,.PARAMETER.);
#470 = LINE('',#471,#472);
#471 = CARTESIAN_POINT('',(1.2E+03,-457.6557395597,92.297900712899));
#472 = VECTOR('',#473,1.);
#473 = DIRECTION('',(0.999419298589,0.,-3.407441278852E-02));
#474 = CARTESIAN_POINT('',(1.2E+03,-457.6557395597,92.297900712899));
#475 = CARTESIAN_POINT('',(1.25E+03,-457.6557395597,90.593190145642));
#476 = TRIMMED_CURVE('',#477,(#481,PARAMETER_VALUE(0.)),(#482,
    PARAMETER_VALUE(150.3429244963)),.T.,.PARAMETER.);
#477 = LINE('',#478,#479);
#478 = CARTESIAN_POINT('',(1.25E+03,-457.6557395597,90.593190145642));
#479 = VECTOR('',#480,1.);
#480 = DIRECTION('',(0.997719051313,6.088158004017E-02,
    -2.915695217016E-02));
#481 = CARTESIAN_POINT('',(1.25E+03,-457.6557395597,90.593190145642));
#482 = CARTESIAN_POINT('',(1.4E+03,-448.5026247685,86.209648686982));
#483 = TRIMMED_CURVE('',#484,(#488,PARAMETER_VALUE(0.)),(#489,
    PARAMETER_VALUE(95.742404238822)),.T.,.PARAMETER.);
#484 = LINE('',#485,#486);
#485 = CARTESIAN_POINT('',(1.4E+03,-448.5026247685,86.209648686982));
#486 = VECTOR('',#487,1.);
#487 = DIRECTION('',(0.997719051313,6.088158004017E-02,
    -2.915695217016E-02));
#488 = CARTESIAN_POINT('',(1.4E+03,-448.5026247685,86.209648686982));
#489 = CARTESIAN_POINT('',(1.495524020728E+03,-442.6736759216,
    83.418091985935));
#490 = TRIMMED_CURVE('',#491,(#495,PARAMETER_VALUE(0.)),(#496,
    PARAMETER_VALUE(125.3386422013)),.T.,.PARAMETER.);
#491 = LINE('',#492,#493);
#492 = CARTESIAN_POINT('',(1.495524020728E+03,-442.6736759216,
    83.418091985935));
#493 = VECTOR('',#494,1.);
#494 = DIRECTION('',(0.,0.707472766293,0.706740606555));
#495 = CARTESIAN_POINT('',(1.495524020728E+03,-442.6736759216,
    83.418091985935));
#496 = CARTESIAN_POINT('',(1.495524020728E+03,-354.,172.));
#497 = ( GEOMETRIC_REPRESENTATION_CONTEXT(3) 
GLOBAL_UNCERTAINTY_ASSIGNED_CONTEXT((#501)) GLOBAL_UNIT_ASSIGNED_CONTEXT
((#498,#499,#500)) REPRESENTATION_CONTEXT('Context #1',
  '3D Context with UNIT and UNCERTAINTY') );
#498 = ( LENGTH_UNIT() NAMED_UNIT(*) SI_UNIT(.MILLI.,.METRE.) );
#499 = ( NAMED_UNIT(*) PLANE_ANGLE_UNIT() SI_UNIT($,.RADIAN.) );
#500 = ( NAMED_UNIT(*) SI_UNIT($,.STERADIAN.) SOLID_ANGLE_UNIT() );
#501 = UNCERTAINTY_MEASURE_WITH_UNIT(LENGTH_MEASURE(1.E-07),#498,
  'distance_accuracy_value','confusion accuracy');
#502 = CONTEXT_DEPENDENT_SHAPE_REPRESENTATION(#503,#505);
#503 = ( REPRESENTATION_RELATIONSHIP('','',#453,#10) 
REPRESENTATION_RELATIONSHIP_WITH_TRANSFORMATION(#504) 
SHAPE_REPRESENTATION_RELATIONSHIP() );
#504 = ITEM_DEFINED_TRANSFORMATION('','',#11,#35);
#505 = PRODUCT_DEFINITION_SHAPE('Placement','Placement of an item',#506
  );
#506 = NEXT_ASSEMBLY_USAGE_OCCURRENCE('6','NTC10','',#5,#448,$);
#507 = PRODUCT_RELATED_PRODUCT_CATEGORY('part',$,(#450));
#508 = SHAPE_DEFINITION_REPRESENTATION(#509,#515);
#509 = PRODUCT_DEFINITION_SHAPE('','',#510);
#510 = PRODUCT_DEFINITION('design','',#511,#514);
#511 = PRODUCT_DEFINITION_FORMATION('','',#512);
#512 = PRODUCT('NTC11','NTC11','',(#513));
#513 = PRODUCT_CONTEXT('',#2,'mechanical');
#514 = PRODUCT_DEFINITION_CONTEXT('part definition',#2,'design');
#515 = GEOMETRICALLY_BOUNDED_WIREFRAME_SHAPE_REPRESENTATION('',(#11,#516
    ),#566);
#516 = GEOMETRIC_CURVE_SET('',(#517,#524,#531,#538,#545,#552,#559));
#517 = TRIMMED_CURVE('',#518,(#522,PARAMETER_VALUE(0.)),(#523,
    PARAMETER_VALUE(240.10414407085)),.T.,.PARAMETER.);
#518 = LINE('',#519,#520);
#519 = CARTESIAN_POINT('',(1.6E+03,-795.,65.));
#520 = VECTOR('',#521,1.);
#521 = DIRECTION('',(-0.583080315176,0.812147581853,2.082429697059E-02)
  );
#522 = CARTESIAN_POINT('',(1.6E+03,-795.,65.));
#523 = CARTESIAN_POINT('',(1.46E+03,-600.,70.));
#524 = TRIMMED_CURVE('',#525,(#529,PARAMETER_VALUE(0.)),(#530,
    PARAMETER_VALUE(297.25256072318)),.T.,.PARAMETER.);
#525 = LINE('',#526,#527);
#526 = CARTESIAN_POINT('',(1.46E+03,-600.,70.));
#527 = VECTOR('',#528,1.);
#528 = DIRECTION('',(-0.874677073824,0.478866389221,7.50133174922E-02));
#529 = CARTESIAN_POINT('',(1.46E+03,-600.,70.));
#530 = CARTESIAN_POINT('',(1.2E+03,-457.6557395597,92.297900712899));
#531 = TRIMMED_CURVE('',#532,(#536,PARAMETER_VALUE(0.)),(#537,
    PARAMETER_VALUE(50.029051941028)),.T.,.PARAMETER.);
#532 = LINE('',#533,#534);
#533 = CARTESIAN_POINT('',(1.2E+03,-457.6557395597,92.297900712899));
#534 = VECTOR('',#535,1.);
#535 = DIRECTION('',(0.999419298589,0.,-3.407441278852E-02));
#536 = CARTESIAN_POINT('',(1.2E+03,-457.6557395597,92.297900712899));
#537 = CARTESIAN_POINT('',(1.25E+03,-457.6557395597,90.593190145642));
#538 = TRIMMED_CURVE('',#539,(#543,PARAMETER_VALUE(0.)),(#544,
    PARAMETER_VALUE(150.3429244963)),.T.,.PARAMETER.);
#539 = LINE('',#540,#541);
#540 = CARTESIAN_POINT('',(1.25E+03,-457.6557395597,90.593190145642));
#541 = VECTOR('',#542,1.);
#542 = DIRECTION('',(0.997719051313,6.088158004017E-02,
    -2.915695217016E-02));
#543 = CARTESIAN_POINT('',(1.25E+03,-457.6557395597,90.593190145642));
#544 = CARTESIAN_POINT('',(1.4E+03,-448.5026247685,86.209648686982));
#545 = TRIMMED_CURVE('',#546,(#550,PARAMETER_VALUE(0.)),(#551,
    PARAMETER_VALUE(150.3429244963)),.T.,.PARAMETER.);
#546 = LINE('',#547,#548);
#547 = CARTESIAN_POINT('',(1.4E+03,-448.5026247685,86.209648686982));
#548 = VECTOR('',#549,1.);
#549 = DIRECTION('',(0.997719051313,6.088158004017E-02,
    -2.915695217016E-02));
#550 = CARTESIAN_POINT('',(1.4E+03,-448.5026247685,86.209648686982));
#551 = CARTESIAN_POINT('',(1.55E+03,-439.3495099773,81.826107228322));
#552 = TRIMMED_CURVE('',#553,(#557,PARAMETER_VALUE(0.)),(#558,
    PARAMETER_VALUE(15.613569475488)),.T.,.PARAMETER.);
#553 = LINE('',#554,#555);
#554 = CARTESIAN_POINT('',(1.55E+03,-439.3495099773,81.826107228322));
#555 = VECTOR('',#556,1.);
#556 = DIRECTION('',(0.994264684441,0.10400707188,-2.490514551501E-02));
#557 = CARTESIAN_POINT('',(1.55E+03,-439.3495099773,81.826107228322));
#558 = CARTESIAN_POINT('',(1.565524020728E+03,-437.7255883345,
    81.437249008526));
#559 = TRIMMED_CURVE('',#560,(#564,PARAMETER_VALUE(0.)),(#565,
    PARAMETER_VALUE(123.33525858049)),.T.,.PARAMETER.);
#560 = LINE('',#561,#562);
#561 = CARTESIAN_POINT('',(1.565524020728E+03,-437.7255883345,
    81.437249008526));
#562 = VECTOR('',#563,1.);
#563 = DIRECTION('',(0.,0.678845524777,0.734281113396));
#564 = CARTESIAN_POINT('',(1.565524020728E+03,-437.7255883345,
    81.437249008526));
#565 = CARTESIAN_POINT('',(1.565524020728E+03,-354.,172.));
#566 = ( GEOMETRIC_REPRESENTATION_CONTEXT(3) 
GLOBAL_UNCERTAINTY_ASSIGNED_CONTEXT((#570)) GLOBAL_UNIT_ASSIGNED_CONTEXT
((#567,#568,#569)) REPRESENTATION_CONTEXT('Context #1',
  '3D Context with UNIT and UNCERTAINTY') );
#567 = ( LENGTH_UNIT() NAMED_UNIT(*) SI_UNIT(.MILLI.,.METRE.) );
#568 = ( NAMED_UNIT(*) PLANE_ANGLE_UNIT() SI_UNIT($,.RADIAN.) );
#569 = ( NAMED_UNIT(*) SI_UNIT($,.STERADIAN.) SOLID_ANGLE_UNIT() );
#570 = UNCERTAINTY_MEASURE_WITH_UNIT(LENGTH_MEASURE(1.E-07),#567,
  'distance_accuracy_value','confusion accuracy');
#571 = CONTEXT_DEPENDENT_SHAPE_REPRESENTATION(#572,#574);
#572 = ( REPRESENTATION_RELATIONSHIP('','',#515,#10) 
REPRESENTATION_RELATIONSHIP_WITH_TRANSFORMATION(#573) 
SHAPE_REPRESENTATION_RELATIONSHIP() );
#573 = ITEM_DEFINED_TRANSFORMATION('','',#11,#39);
#574 = PRODUCT_DEFINITION_SHAPE('Placement','Placement of an item',#575
  );
#575 = NEXT_ASSEMBLY_USAGE_OCCURRENCE('7','NTC11','',#5,#510,$);
#576 = PRODUCT_RELATED_PRODUCT_CATEGORY('part',$,(#512));
#577 = SHAPE_DEFINITION_REPRESENTATION(#578,#584);
#578 = PRODUCT_DEFINITION_SHAPE('','',#579);
#579 = PRODUCT_DEFINITION('design','',#580,#583);
#580 = PRODUCT_DEFINITION_FORMATION('','',#581);
#581 = PRODUCT('TH1','TH1','',(#582));
#582 = PRODUCT_CONTEXT('',#2,'mechanical');
#583 = PRODUCT_DEFINITION_CONTEXT('part definition',#2,'design');
#584 = GEOMETRICALLY_BOUNDED_WIREFRAME_SHAPE_REPRESENTATION('',(#11,#585
    ),#628);
#585 = GEOMETRIC_CURVE_SET('',(#586,#593,#600,#607,#614,#621));
#586 = TRIMMED_CURVE('',#587,(#591,PARAMETER_VALUE(0.)),(#592,
    PARAMETER_VALUE(220.45407685048)),.T.,.PARAMETER.);
#587 = LINE('',#588,#589);
#588 = CARTESIAN_POINT('',(1.6E+03,-790.,50.));
#589 = VECTOR('',#590,1.);
#590 = DIRECTION('',(-0.498970132789,0.86185750209,9.07218423253E-02));
#591 = CARTESIAN_POINT('',(1.6E+03,-790.,50.));
#592 = CARTESIAN_POINT('',(1.49E+03,-600.,70.));
#593 = TRIMMED_CURVE('',#594,(#598,PARAMETER_VALUE(0.)),(#599,
    PARAMETER_VALUE(323.81952513165)),.T.,.PARAMETER.);
#594 = LINE('',#595,#596);
#595 = CARTESIAN_POINT('',(1.49E+03,-600.,70.));
#596 = VECTOR('',#597,1.);
#597 = DIRECTION('',(-0.89556057462,0.439578991978,6.885903715606E-02));
#598 = CARTESIAN_POINT('',(1.49E+03,-600.,70.));
#599 = CARTESIAN_POINT('',(1.2E+03,-457.6557395597,92.297900712899));
#600 = TRIMMED_CURVE('',#601,(#605,PARAMETER_VALUE(0.)),(#606,
    PARAMETER_VALUE(50.029051941028)),.T.,.PARAMETER.);
#601 = LINE('',#602,#603);
#602 = CARTESIAN_POINT('',(1.2E+03,-457.6557395597,92.297900712899));
#603 = VECTOR('',#604,1.);
#604 = DIRECTION('',(0.999419298589,0.,-3.407441278852E-02));
#605 = CARTESIAN_POINT('',(1.2E+03,-457.6557395597,92.297900712899));
#606 = CARTESIAN_POINT('',(1.25E+03,-457.6557395597,90.593190145642));
#607 = TRIMMED_CURVE('',#608,(#612,PARAMETER_VALUE(0.)),(#613,
    PARAMETER_VALUE(150.3429244963)),.T.,.PARAMETER.);
#608 = LINE('',#609,#610);
#609 = CARTESIAN_POINT('',(1.25E+03,-457.6557395597,90.593190145642));
#610 = VECTOR('',#611,1.);
#611 = DIRECTION('',(0.997719051313,6.088158004017E-02,
    -2.915695217016E-02));
#612 = CARTESIAN_POINT('',(1.25E+03,-457.6557395597,90.593190145642));
#613 = CARTESIAN_POINT('',(1.4E+03,-448.5026247685,86.209648686982));
#614 = TRIMMED_CURVE('',#615,(#619,PARAMETER_VALUE(0.)),(#620,
    PARAMETER_VALUE(130.82241995462)),.T.,.PARAMETER.);
#615 = LINE('',#616,#617);
#616 = CARTESIAN_POINT('',(1.4E+03,-448.5026247685,86.209648686982));
#617 = VECTOR('',#618,1.);
#618 = DIRECTION('',(0.997719051313,6.088158004017E-02,
    -2.915695217016E-02));
#619 = CARTESIAN_POINT('',(1.4E+03,-448.5026247685,86.209648686982));
#620 = CARTESIAN_POINT('',(1.530524020728E+03,-440.537949137,
    82.395265645581));
#621 = TRIMMED_CURVE('',#622,(#626,PARAMETER_VALUE(0.)),(#627,
    PARAMETER_VALUE(137.42485924971)),.T.,.PARAMETER.);
#622 = LINE('',#623,#624);
#623 = CARTESIAN_POINT('',(1.530524020728E+03,-440.537949137,
    82.395265645581));
#624 = VECTOR('',#625,1.);
#625 = DIRECTION('',(0.,0.738861583642,0.673857225396));
#626 = CARTESIAN_POINT('',(1.530524020728E+03,-440.537949137,
    82.395265645581));
#627 = CARTESIAN_POINT('',(1.530524020728E+03,-339.,175.));
#628 = ( GEOMETRIC_REPRESENTATION_CONTEXT(3) 
GLOBAL_UNCERTAINTY_ASSIGNED_CONTEXT((#632)) GLOBAL_UNIT_ASSIGNED_CONTEXT
((#629,#630,#631)) REPRESENTATION_CONTEXT('Context #1',
  '3D Context with UNIT and UNCERTAINTY') );
#629 = ( LENGTH_UNIT() NAMED_UNIT(*) SI_UNIT(.MILLI.,.METRE.) );
#630 = ( NAMED_UNIT(*) PLANE_ANGLE_UNIT() SI_UNIT($,.RADIAN.) );
#631 = ( NAMED_UNIT(*) SI_UNIT($,.STERADIAN.) SOLID_ANGLE_UNIT() );
#632 = UNCERTAINTY_MEASURE_WITH_UNIT(LENGTH_MEASURE(1.E-07),#629,
  'distance_accuracy_value','confusion accuracy');
#633 = CONTEXT_DEPENDENT_SHAPE_REPRESENTATION(#634,#636);
#634 = ( REPRESENTATION_RELATIONSHIP('','',#584,#10) 
REPRESENTATION_RELATIONSHIP_WITH_TRANSFORMATION(#635) 
SHAPE_REPRESENTATION_RELATIONSHIP() );
#635 = ITEM_DEFINED_TRANSFORMATION('','',#11,#43);
#636 = PRODUCT_DEFINITION_SHAPE('Placement','Placement of an item',#637
  );
#637 = NEXT_ASSEMBLY_USAGE_OCCURRENCE('8','TH1','',#5,#579,$);
#638 = PRODUCT_RELATED_PRODUCT_CATEGORY('part',$,(#581));
#639 = SHAPE_DEFINITION_REPRESENTATION(#640,#646);
#640 = PRODUCT_DEFINITION_SHAPE('','',#641);
#641 = PRODUCT_DEFINITION('design','',#642,#645);
#642 = PRODUCT_DEFINITION_FORMATION('','',#643);
#643 = PRODUCT('HP2','HP2','',(#644));
#644 = PRODUCT_CONTEXT('',#2,'mechanical');
#645 = PRODUCT_DEFINITION_CONTEXT('part definition',#2,'design');
#646 = GEOMETRICALLY_BOUNDED_WIREFRAME_SHAPE_REPRESENTATION('',(#11,#647
    ),#711);
#647 = GEOMETRIC_CURVE_SET('',(#648,#655,#662,#669,#676,#683,#690,#697,
    #704));
#648 = TRIMMED_CURVE('',#649,(#653,PARAMETER_VALUE(0.)),(#654,
    PARAMETER_VALUE(216.56407827707)),.T.,.PARAMETER.);
#649 = LINE('',#650,#651);
#650 = CARTESIAN_POINT('',(1.6E+03,-820.,50.));
#651 = VECTOR('',#652,1.);
#652 = DIRECTION('',(-0.554108515848,0.831162773771,4.617570965396E-02)
  );
#653 = CARTESIAN_POINT('',(1.6E+03,-820.,50.));
#654 = CARTESIAN_POINT('',(1.48E+03,-640.,60.));
#655 = TRIMMED_CURVE('',#656,(#660,PARAMETER_VALUE(0.)),(#661,
    PARAMETER_VALUE(343.47716403119)),.T.,.PARAMETER.);
#656 = LINE('',#657,#658);
#657 = CARTESIAN_POINT('',(1.48E+03,-640.,60.));
#658 = VECTOR('',#659,1.);
#659 = DIRECTION('',(-0.815192476594,0.420049960876,0.398772186183));
#660 = CARTESIAN_POINT('',(1.48E+03,-640.,60.));
#661 = CARTESIAN_POINT('',(1.2E+03,-495.7224306869,196.96913960456));
#662 = TRIMMED_CURVE('',#663,(#667,PARAMETER_VALUE(0.)),(#668,
    PARAMETER_VALUE(50.132172284903)),.T.,.PARAMETER.);
#663 = LINE('',#664,#665);
#664 = CARTESIAN_POINT('',(1.2E+03,-495.7224306869,196.96913960456));
#665 = VECTOR('',#666,1.);
#666 = DIRECTION('',(0.997363523684,0.,-7.256722142116E-02));
#667 = CARTESIAN_POINT('',(1.2E+03,-495.7224306869,196.96913960456));
#668 = CARTESIAN_POINT('',(1.25E+03,-495.7224306869,193.33118715804));
#669 = TRIMMED_CURVE('',#670,(#674,PARAMETER_VALUE(0.)),(#675,
    PARAMETER_VALUE(150.61808442435)),.T.,.PARAMETER.);
#670 = LINE('',#671,#672);
#671 = CARTESIAN_POINT('',(1.25E+03,-495.7224306869,193.33118715804));
#672 = VECTOR('',#673,1.);
#673 = DIRECTION('',(0.995896346533,6.582508768207E-02,
    -6.210897514889E-02));
#674 = CARTESIAN_POINT('',(1.25E+03,-495.7224306869,193.33118715804));
#675 = CARTESIAN_POINT('',(1.4E+03,-485.8079820731,183.97645229555));
#676 = TRIMMED_CURVE('',#677,(#681,PARAMETER_VALUE(0.)),(#682,
    PARAMETER_VALUE(150.61808442435)),.T.,.PARAMETER.);
#677 = LINE('',#678,#679);
#678 = CARTESIAN_POINT('',(1.4E+03,-485.8079820731,183.97645229555));
#679 = VECTOR('',#680,1.);
#680 = DIRECTION('',(0.995896346533,6.582508768207E-02,
    -6.210897514889E-02));
#681 = CARTESIAN_POINT('',(1.4E+03,-485.8079820731,183.97645229555));
#682 = CARTESIAN_POINT('',(1.55E+03,-475.8935334594,174.62171743307));
#683 = TRIMMED_CURVE('',#684,(#688,PARAMETER_VALUE(0.)),(#689,
    PARAMETER_VALUE(176.36807032341)),.T.,.PARAMETER.);
#684 = LINE('',#685,#686);
#685 = CARTESIAN_POINT('',(1.55E+03,-475.8935334594,174.62171743307));
#686 = VECTOR('',#687,1.);
#687 = DIRECTION('',(0.992243095244,0.112429064916,-5.304097757225E-02)
  );
#688 = CARTESIAN_POINT('',(1.55E+03,-475.8935334594,174.62171743307));
#689 = CARTESIAN_POINT('',(1.725E+03,-456.0646362319,165.26698257058));
#690 = TRIMMED_CURVE('',#691,(#695,PARAMETER_VALUE(0.)),(#696,
    PARAMETER_VALUE(176.36807032341)),.T.,.PARAMETER.);
#691 = LINE('',#692,#693);
#692 = CARTESIAN_POINT('',(1.725E+03,-456.0646362319,165.26698257058));
#693 = VECTOR('',#694,1.);
#694 = DIRECTION('',(0.992243095244,0.112429064916,-5.304097757225E-02)
  );
#695 = CARTESIAN_POINT('',(1.725E+03,-456.0646362319,165.26698257058));
#696 = CARTESIAN_POINT('',(1.9E+03,-436.2357390044,155.91224770809));
#697 = TRIMMED_CURVE('',#698,(#702,PARAMETER_VALUE(0.)),(#703,
    PARAMETER_VALUE(121.37704577159)),.T.,.PARAMETER.);
#698 = LINE('',#699,#700);
#699 = CARTESIAN_POINT('',(1.9E+03,-436.2357390044,155.91224770809));
#700 = VECTOR('',#701,1.);
#701 = DIRECTION('',(0.913765626987,0.392577568663,-0.104475985373));
#702 = CARTESIAN_POINT('',(1.9E+03,-436.2357390044,155.91224770809));
#703 = CARTESIAN_POINT('',(2.010910172331E+03,-388.5858334839,
    143.23126124939));
#704 = TRIMMED_CURVE('',#705,(#709,PARAMETER_VALUE(0.)),(#710,
    PARAMETER_VALUE(228.96844661177)),.T.,.PARAMETER.);
#705 = LINE('',#706,#707);
#706 = CARTESIAN_POINT('',(2.010910172331E+03,-388.5858334839,
    143.23126124939));
#707 = VECTOR('',#708,1.);
#708 = DIRECTION('',(0.,0.998328970068,-5.778639565927E-02));
#709 = CARTESIAN_POINT('',(2.010910172331E+03,-388.5858334839,
    143.23126124939));
#710 = CARTESIAN_POINT('',(2.010910172331E+03,-160.,130.));
#711 = ( GEOMETRIC_REPRESENTATION_CONTEXT(3) 
GLOBAL_UNCERTAINTY_ASSIGNED_CONTEXT((#715)) GLOBAL_UNIT_ASSIGNED_CONTEXT
((#712,#713,#714)) REPRESENTATION_CONTEXT('Context #1',
  '3D Context with UNIT and UNCERTAINTY') );
#712 = ( LENGTH_UNIT() NAMED_UNIT(*) SI_UNIT(.MILLI.,.METRE.) );
#713 = ( NAMED_UNIT(*) PLANE_ANGLE_UNIT() SI_UNIT($,.RADIAN.) );
#714 = ( NAMED_UNIT(*) SI_UNIT($,.STERADIAN.) SOLID_ANGLE_UNIT() );
#715 = UNCERTAINTY_MEASURE_WITH_UNIT(LENGTH_MEASURE(1.E-07),#712,
  'distance_accuracy_value','confusion accuracy');
#716 = CONTEXT_DEPENDENT_SHAPE_REPRESENTATION(#717,#719);
#717 = ( REPRESENTATION_RELATIONSHIP('','',#646,#10) 
REPRESENTATION_RELATIONSHIP_WITH_TRANSFORMATION(#718) 
SHAPE_REPRESENTATION_RELATIONSHIP() );
#718 = ITEM_DEFINED_TRANSFORMATION('','',#11,#47);
#719 = PRODUCT_DEFINITION_SHAPE('Placement','Placement of an item',#720
  );
#720 = NEXT_ASSEMBLY_USAGE_OCCURRENCE('9','HP2','',#5,#641,$);
#721 = PRODUCT_RELATED_PRODUCT_CATEGORY('part',$,(#643));
#722 = SHAPE_DEFINITION_REPRESENTATION(#723,#729);
#723 = PRODUCT_DEFINITION_SHAPE('','',#724);
#724 = PRODUCT_DEFINITION('design','',#725,#728);
#725 = PRODUCT_DEFINITION_FORMATION('','',#726);
#726 = PRODUCT('NTC20','NTC20','',(#727));
#727 = PRODUCT_CONTEXT('',#2,'mechanical');
#728 = PRODUCT_DEFINITION_CONTEXT('part definition',#2,'design');
#729 = GEOMETRICALLY_BOUNDED_WIREFRAME_SHAPE_REPRESENTATION('',(#11,#730
    ),#794);
#730 = GEOMETRIC_CURVE_SET('',(#731,#738,#745,#752,#759,#766,#773,#780,
    #787));
#731 = TRIMMED_CURVE('',#732,(#736,PARAMETER_VALUE(0.)),(#737,
    PARAMETER_VALUE(240.10414407085)),.T.,.PARAMETER.);
#732 = LINE('',#733,#734);
#733 = CARTESIAN_POINT('',(1.6E+03,-795.,65.));
#734 = VECTOR('',#735,1.);
#735 = DIRECTION('',(-0.583080315176,0.812147581853,2.082429697059E-02)
  );
#736 = CARTESIAN_POINT('',(1.6E+03,-795.,65.));
#737 = CARTESIAN_POINT('',(1.46E+03,-600.,70.));
#738 = TRIMMED_CURVE('',#739,(#743,PARAMETER_VALUE(0.)),(#744,
    PARAMETER_VALUE(297.25256072318)),.T.,.PARAMETER.);
#739 = LINE('',#740,#741);
#740 = CARTESIAN_POINT('',(1.46E+03,-600.,70.));
#741 = VECTOR('',#742,1.);
#742 = DIRECTION('',(-0.874677073824,0.478866389221,7.50133174922E-02));
#743 = CARTESIAN_POINT('',(1.46E+03,-600.,70.));
#744 = CARTESIAN_POINT('',(1.2E+03,-457.6557395597,92.297900712899));
#745 = TRIMMED_CURVE('',#746,(#750,PARAMETER_VALUE(0.)),(#751,
    PARAMETER_VALUE(50.029051941028)),.T.,.PARAMETER.);
#746 = LINE('',#747,#748);
#747 = CARTESIAN_POINT('',(1.2E+03,-457.6557395597,92.297900712899));
#748 = VECTOR('',#749,1.);
#749 = DIRECTION('',(0.999419298589,0.,-3.407441278852E-02));
#750 = CARTESIAN_POINT('',(1.2E+03,-457.6557395597,92.297900712899));
#751 = CARTESIAN_POINT('',(1.25E+03,-457.6557395597,90.593190145642));
#752 = TRIMMED_CURVE('',#753,(#757,PARAMETER_VALUE(0.)),(#758,
    PARAMETER_VALUE(150.3429244963)),.T.,.PARAMETER.);
#753 = LINE('',#754,#755);
#754 = CARTESIAN_POINT('',(1.25E+03,-457.6557395597,90.593190145642));
#755 = VECTOR('',#756,1.);
#756 = DIRECTION('',(0.997719051313,6.088158004017E-02,
    -2.915695217016E-02));
#757 = CARTESIAN_POINT('',(1.25E+03,-457.6557395597,90.593190145642));
#758 = CARTESIAN_POINT('',(1.4E+03,-448.5026247685,86.209648686982));
#759 = TRIMMED_CURVE('',#760,(#764,PARAMETER_VALUE(0.)),(#765,
    PARAMETER_VALUE(150.3429244963)),.T.,.PARAMETER.);
#760 = LINE('',#761,#762);
#761 = CARTESIAN_POINT('',(1.4E+03,-448.5026247685,86.209648686982));
#762 = VECTOR('',#763,1.);
#763 = DIRECTION('',(0.997719051313,6.088158004017E-02,
    -2.915695217016E-02));
#764 = CARTESIAN_POINT('',(1.4E+03,-448.5026247685,86.209648686982));
#765 = CARTESIAN_POINT('',(1.55E+03,-439.3495099773,81.826107228322));
#766 = TRIMMED_CURVE('',#767,(#771,PARAMETER_VALUE(0.)),(#772,
    PARAMETER_VALUE(176.00946985103)),.T.,.PARAMETER.);
#767 = LINE('',#768,#769);
#768 = CARTESIAN_POINT('',(1.55E+03,-439.3495099773,81.826107228322));
#769 = VECTOR('',#770,1.);
#770 = DIRECTION('',(0.994264684441,0.10400707188,-2.490514551501E-02));
#771 = CARTESIAN_POINT('',(1.55E+03,-439.3495099773,81.826107228322));
#772 = CARTESIAN_POINT('',(1.725E+03,-421.0432803949,77.442565769662));
#773 = TRIMMED_CURVE('',#774,(#778,PARAMETER_VALUE(0.)),(#779,
    PARAMETER_VALUE(176.00946985103)),.T.,.PARAMETER.);
#774 = LINE('',#775,#776);
#775 = CARTESIAN_POINT('',(1.725E+03,-421.0432803949,77.442565769662));
#776 = VECTOR('',#777,1.);
#777 = DIRECTION('',(0.994264684441,0.10400707188,-2.490514551501E-02));
#778 = CARTESIAN_POINT('',(1.725E+03,-421.0432803949,77.442565769662));
#779 = CARTESIAN_POINT('',(1.9E+03,-402.7370508125,73.059024311002));
#780 = TRIMMED_CURVE('',#781,(#785,PARAMETER_VALUE(0.)),(#786,
    PARAMETER_VALUE(81.764444543064)),.T.,.PARAMETER.);
#781 = LINE('',#782,#783);
#782 = CARTESIAN_POINT('',(1.9E+03,-402.7370508125,73.059024311002));
#783 = VECTOR('',#784,1.);
#784 = DIRECTION('',(0.92840075849,0.36823621097,-4.974057262891E-02));
#785 = CARTESIAN_POINT('',(1.9E+03,-402.7370508125,73.059024311002));
#786 = CARTESIAN_POINT('',(1.975910172331E+03,-372.6284215619,
    68.992014018745));
#787 = TRIMMED_CURVE('',#788,(#792,PARAMETER_VALUE(0.)),(#793,
    PARAMETER_VALUE(243.4689165208)),.T.,.PARAMETER.);
#788 = LINE('',#789,#790);
#789 = CARTESIAN_POINT('',(1.975910172331E+03,-372.6284215619,
    68.992014018745));
#790 = VECTOR('',#791,1.);
#791 = DIRECTION('',(0.,0.976011332197,0.217719726767));
#792 = CARTESIAN_POINT('',(1.975910172331E+03,-372.6284215619,
    68.992014018745));
#793 = CARTESIAN_POINT('',(1.975910172331E+03,-135.,122.));
#794 = ( GEOMETRIC_REPRESENTATION_CONTEXT(3) 
GLOBAL_UNCERTAINTY_ASSIGNED_CONTEXT((#798)) GLOBAL_UNIT_ASSIGNED_CONTEXT
((#795,#796,#797)) REPRESENTATION_CONTEXT('Context #1',
  '3D Context with UNIT and UNCERTAINTY') );
#795 = ( LENGTH_UNIT() NAMED_UNIT(*) SI_UNIT(.MILLI.,.METRE.) );
#796 = ( NAMED_UNIT(*) PLANE_ANGLE_UNIT() SI_UNIT($,.RADIAN.) );
#797 = ( NAMED_UNIT(*) SI_UNIT($,.STERADIAN.) SOLID_ANGLE_UNIT() );
#798 = UNCERTAINTY_MEASURE_WITH_UNIT(LENGTH_MEASURE(1.E-07),#795,
  'distance_accuracy_value','confusion accuracy');
#799 = CONTEXT_DEPENDENT_SHAPE_REPRESENTATION(#800,#802);
#800 = ( REPRESENTATION_RELATIONSHIP('','',#729,#10) 
REPRESENTATION_RELATIONSHIP_WITH_TRANSFORMATION(#801) 
SHAPE_REPRESENTATION_RELATIONSHIP() );
#801 = ITEM_DEFINED_TRANSFORMATION('','',#11,#51);
#802 = PRODUCT_DEFINITION_SHAPE('Placement','Placement of an item',#803
  );
#803 = NEXT_ASSEMBLY_USAGE_OCCURRENCE('10','NTC20','',#5,#724,$);
#804 = PRODUCT_RELATED_PRODUCT_CATEGORY('part',$,(#726));
#805 = SHAPE_DEFINITION_REPRESENTATION(#806,#812);
#806 = PRODUCT_DEFINITION_SHAPE('','',#807);
#807 = PRODUCT_DEFINITION('design','',#808,#811);
#808 = PRODUCT_DEFINITION_FORMATION('','',#809);
#809 = PRODUCT('NTC21','NTC21','',(#810));
#810 = PRODUCT_CONTEXT('',#2,'mechanical');
#811 = PRODUCT_DEFINITION_CONTEXT('part definition',#2,'design');
#812 = GEOMETRICALLY_BOUNDED_WIREFRAME_SHAPE_REPRESENTATION('',(#11,#813
    ),#877);
#813 = GEOMETRIC_CURVE_SET('',(#814,#821,#828,#835,#842,#849,#856,#863,
    #870));
#814 = TRIMMED_CURVE('',#815,(#819,PARAMETER_VALUE(0.)),(#820,
    PARAMETER_VALUE(240.10414407085)),.T.,.PARAMETER.);
#815 = LINE('',#816,#817);
#816 = CARTESIAN_POINT('',(1.6E+03,-795.,65.));
#817 = VECTOR('',#818,1.);
#818 = DIRECTION('',(-0.583080315176,0.812147581853,2.082429697059E-02)
  );
#819 = CARTESIAN_POINT('',(1.6E+03,-795.,65.));
#820 = CARTESIAN_POINT('',(1.46E+03,-600.,70.));
#821 = TRIMMED_CURVE('',#822,(#826,PARAMETER_VALUE(0.)),(#827,
    PARAMETER_VALUE(297.25256072318)),.T.,.PARAMETER.);
#822 = LINE('',#823,#824);
#823 = CARTESIAN_POINT('',(1.46E+03,-600.,70.));
#824 = VECTOR('',#825,1.);
#825 = DIRECTION('',(-0.874677073824,0.478866389221,7.50133174922E-02));
#826 = CARTESIAN_POINT('',(1.46E+03,-600.,70.));
#827 = CARTESIAN_POINT('',(1.2E+03,-457.6557395597,92.297900712899));
#828 = TRIMMED_CURVE('',#829,(#833,PARAMETER_VALUE(0.)),(#834,
    PARAMETER_VALUE(50.029051941028)),.T.,.PARAMETER.);
#829 = LINE('',#830,#831);
#830 = CARTESIAN_POINT('',(1.2E+03,-457.6557395597,92.297900712899));
#831 = VECTOR('',#832,1.);
#832 = DIRECTION('',(0.999419298589,0.,-3.407441278852E-02));
#833 = CARTESIAN_POINT('',(1.2E+03,-457.6557395597,92.297900712899));
#834 = CARTESIAN_POINT('',(1.25E+03,-457.6557395597,90.593190145642));
#835 = TRIMMED_CURVE('',#836,(#840,PARAMETER_VALUE(0.)),(#841,
    PARAMETER_VALUE(150.3429244963)),.T.,.PARAMETER.);
#836 = LINE('',#837,#838);
#837 = CARTESIAN_POINT('',(1.25E+03,-457.6557395597,90.593190145642));
#838 = VECTOR('',#839,1.);
#839 = DIRECTION('',(0.997719051313,6.088158004017E-02,
    -2.915695217016E-02));
#840 = CARTESIAN_POINT('',(1.25E+03,-457.6557395597,90.593190145642));
#841 = CARTESIAN_POINT('',(1.4E+03,-448.5026247685,86.209648686982));
#842 = TRIMMED_CURVE('',#843,(#847,PARAMETER_VALUE(0.)),(#848,
    PARAMETER_VALUE(150.3429244963)),.T.,.PARAMETER.);
#843 = LINE('',#844,#845);
#844 = CARTESIAN_POINT('',(1.4E+03,-448.5026247685,86.209648686982));
#845 = VECTOR('',#846,1.);
#846 = DIRECTION('',(0.997719051313,6.088158004017E-02,
    -2.915695217016E-02));
#847 = CARTESIAN_POINT('',(1.4E+03,-448.5026247685,86.209648686982));
#848 = CARTESIAN_POINT('',(1.55E+03,-439.3495099773,81.826107228322));
#849 = TRIMMED_CURVE('',#850,(#854,PARAMETER_VALUE(0.)),(#855,
    PARAMETER_VALUE(176.00946985103)),.T.,.PARAMETER.);
#850 = LINE('',#851,#852);
#851 = CARTESIAN_POINT('',(1.55E+03,-439.3495099773,81.826107228322));
#852 = VECTOR('',#853,1.);
#853 = DIRECTION('',(0.994264684441,0.10400707188,-2.490514551501E-02));
#854 = CARTESIAN_POINT('',(1.55E+03,-439.3495099773,81.826107228322));
#855 = CARTESIAN_POINT('',(1.725E+03,-421.0432803949,77.442565769662));
#856 = TRIMMED_CURVE('',#857,(#861,PARAMETER_VALUE(0.)),(#862,
    PARAMETER_VALUE(176.00946985103)),.T.,.PARAMETER.);
#857 = LINE('',#858,#859);
#858 = CARTESIAN_POINT('',(1.725E+03,-421.0432803949,77.442565769662));
#859 = VECTOR('',#860,1.);
#860 = DIRECTION('',(0.994264684441,0.10400707188,-2.490514551501E-02));
#861 = CARTESIAN_POINT('',(1.725E+03,-421.0432803949,77.442565769662));
#862 = CARTESIAN_POINT('',(1.9E+03,-402.7370508125,73.059024311002));
#863 = TRIMMED_CURVE('',#864,(#868,PARAMETER_VALUE(0.)),(#869,
    PARAMETER_VALUE(157.16291805771)),.T.,.PARAMETER.);
#864 = LINE('',#865,#866);
#865 = CARTESIAN_POINT('',(1.9E+03,-402.7370508125,73.059024311002));
#866 = VECTOR('',#867,1.);
#867 = DIRECTION('',(0.92840075849,0.36823621097,-4.974057262891E-02));
#868 = CARTESIAN_POINT('',(1.9E+03,-402.7370508125,73.059024311002));
#869 = CARTESIAN_POINT('',(2.045910172331E+03,-344.8639733619,
    65.24165077078));
#870 = TRIMMED_CURVE('',#871,(#875,PARAMETER_VALUE(0.)),(#876,
    PARAMETER_VALUE(217.4037661185)),.T.,.PARAMETER.);
#871 = LINE('',#872,#873);
#872 = CARTESIAN_POINT('',(2.045910172331E+03,-344.8639733619,
    65.24165077078));
#873 = VECTOR('',#874,1.);
#874 = DIRECTION('',(0.,0.965318941382,0.261073440643));
#875 = CARTESIAN_POINT('',(2.045910172331E+03,-344.8639733619,
    65.24165077078));
#876 = CARTESIAN_POINT('',(2.045910172331E+03,-135.,122.));
#877 = ( GEOMETRIC_REPRESENTATION_CONTEXT(3) 
GLOBAL_UNCERTAINTY_ASSIGNED_CONTEXT((#881)) GLOBAL_UNIT_ASSIGNED_CONTEXT
((#878,#879,#880)) REPRESENTATION_CONTEXT('Context #1',
  '3D Context with UNIT and UNCERTAINTY') );
#878 = ( LENGTH_UNIT() NAMED_UNIT(*) SI_UNIT(.MILLI.,.METRE.) );
#879 = ( NAMED_UNIT(*) PLANE_ANGLE_UNIT() SI_UNIT($,.RADIAN.) );
#880 = ( NAMED_UNIT(*) SI_UNIT($,.STERADIAN.) SOLID_ANGLE_UNIT() );
#881 = UNCERTAINTY_MEASURE_WITH_UNIT(LENGTH_MEASURE(1.E-07),#878,
  'distance_accuracy_value','confusion accuracy');
#882 = CONTEXT_DEPENDENT_SHAPE_REPRESENTATION(#883,#885);
#883 = ( REPRESENTATION_RELATIONSHIP('','',#812,#10) 
REPRESENTATION_RELATIONSHIP_WITH_TRANSFORMATION(#884) 
SHAPE_REPRESENTATION_RELATIONSHIP() );
#884 = ITEM_DEFINED_TRANSFORMATION('','',#11,#55);
#885 = PRODUCT_DEFINITION_SHAPE('Placement','Placement of an item',#886
  );
#886 = NEXT_ASSEMBLY_USAGE_OCCURRENCE('11','NTC21','',#5,#807,$);
#887 = PRODUCT_RELATED_PRODUCT_CATEGORY('part',$,(#809));
#888 = SHAPE_DEFINITION_REPRESENTATION(#889,#895);
#889 = PRODUCT_DEFINITION_SHAPE('','',#890);
#890 = PRODUCT_DEFINITION('design','',#891,#894);
#891 = PRODUCT_DEFINITION_FORMATION('','',#892);
#892 = PRODUCT('TH2','TH2','',(#893));
#893 = PRODUCT_CONTEXT('',#2,'mechanical');
#894 = PRODUCT_DEFINITION_CONTEXT('part definition',#2,'design');
#895 = GEOMETRICALLY_BOUNDED_WIREFRAME_SHAPE_REPRESENTATION('',(#11,#896
    ),#960);
#896 = GEOMETRIC_CURVE_SET('',(#897,#904,#911,#918,#925,#932,#939,#946,
    #953));
#897 = TRIMMED_CURVE('',#898,(#902,PARAMETER_VALUE(0.)),(#903,
    PARAMETER_VALUE(220.45407685048)),.T.,.PARAMETER.);
#898 = LINE('',#899,#900);
#899 = CARTESIAN_POINT('',(1.6E+03,-790.,50.));
#900 = VECTOR('',#901,1.);
#901 = DIRECTION('',(-0.498970132789,0.86185750209,9.07218423253E-02));
#902 = CARTESIAN_POINT('',(1.6E+03,-790.,50.));
#903 = CARTESIAN_POINT('',(1.49E+03,-600.,70.));
#904 = TRIMMED_CURVE('',#905,(#909,PARAMETER_VALUE(0.)),(#910,
    PARAMETER_VALUE(323.81952513165)),.T.,.PARAMETER.);
#905 = LINE('',#906,#907);
#906 = CARTESIAN_POINT('',(1.49E+03,-600.,70.));
#907 = VECTOR('',#908,1.);
#908 = DIRECTION('',(-0.89556057462,0.439578991978,6.885903715606E-02));
#909 = CARTESIAN_POINT('',(1.49E+03,-600.,70.));
#910 = CARTESIAN_POINT('',(1.2E+03,-457.6557395597,92.297900712899));
#911 = TRIMMED_CURVE('',#912,(#916,PARAMETER_VALUE(0.)),(#917,
    PARAMETER_VALUE(50.029051941028)),.T.,.PARAMETER.);
#912 = LINE('',#913,#914);
#913 = CARTESIAN_POINT('',(1.2E+03,-457.6557395597,92.297900712899));
#914 = VECTOR('',#915,1.);
#915 = DIRECTION('',(0.999419298589,0.,-3.407441278852E-02));
#916 = CARTESIAN_POINT('',(1.2E+03,-457.6557395597,92.297900712899));
#917 = CARTESIAN_POINT('',(1.25E+03,-457.6557395597,90.593190145642));
#918 = TRIMMED_CURVE('',#919,(#923,PARAMETER_VALUE(0.)),(#924,
    PARAMETER_VALUE(150.3429244963)),.T.,.PARAMETER.);
#919 = LINE('',#920,#921);
#920 = CARTESIAN_POINT('',(1.25E+03,-457.6557395597,90.593190145642));
#921 = VECTOR('',#922,1.);
#922 = DIRECTION('',(0.997719051313,6.088158004017E-02,
    -2.915695217016E-02));
#923 = CARTESIAN_POINT('',(1.25E+03,-457.6557395597,90.593190145642));
#924 = CARTESIAN_POINT('',(1.4E+03,-448.5026247685,86.209648686982));
#925 = TRIMMED_CURVE('',#926,(#930,PARAMETER_VALUE(0.)),(#931,
    PARAMETER_VALUE(150.3429244963)),.T.,.PARAMETER.);
#926 = LINE('',#927,#928);
#927 = CARTESIAN_POINT('',(1.4E+03,-448.5026247685,86.209648686982));
#928 = VECTOR('',#929,1.);
#929 = DIRECTION('',(0.997719051313,6.088158004017E-02,
    -2.915695217016E-02));
#930 = CARTESIAN_POINT('',(1.4E+03,-448.5026247685,86.209648686982));
#931 = CARTESIAN_POINT('',(1.55E+03,-439.3495099773,81.826107228322));
#932 = TRIMMED_CURVE('',#933,(#937,PARAMETER_VALUE(0.)),(#938,
    PARAMETER_VALUE(176.00946985103)),.T.,.PARAMETER.);
#933 = LINE('',#934,#935);
#934 = CARTESIAN_POINT('',(1.55E+03,-439.3495099773,81.826107228322));
#935 = VECTOR('',#936,1.);
#936 = DIRECTION('',(0.994264684441,0.10400707188,-2.490514551501E-02));
#937 = CARTESIAN_POINT('',(1.55E+03,-439.3495099773,81.826107228322));
#938 = CARTESIAN_POINT('',(1.725E+03,-421.0432803949,77.442565769662));
#939 = TRIMMED_CURVE('',#940,(#944,PARAMETER_VALUE(0.)),(#945,
    PARAMETER_VALUE(176.00946985103)),.T.,.PARAMETER.);
#940 = LINE('',#941,#942);
#941 = CARTESIAN_POINT('',(1.725E+03,-421.0432803949,77.442565769662));
#942 = VECTOR('',#943,1.);
#943 = DIRECTION('',(0.994264684441,0.10400707188,-2.490514551501E-02));
#944 = CARTESIAN_POINT('',(1.725E+03,-421.0432803949,77.442565769662));
#945 = CARTESIAN_POINT('',(1.9E+03,-402.7370508125,73.059024311002));
#946 = TRIMMED_CURVE('',#947,(#951,PARAMETER_VALUE(0.)),(#952,
    PARAMETER_VALUE(119.46368130039)),.T.,.PARAMETER.);
#947 = LINE('',#948,#949);
#948 = CARTESIAN_POINT('',(1.9E+03,-402.7370508125,73.059024311002));
#949 = VECTOR('',#950,1.);
#950 = DIRECTION('',(0.92840075849,0.36823621097,-4.974057262891E-02));
#951 = CARTESIAN_POINT('',(1.9E+03,-402.7370508125,73.059024311002));
#952 = CARTESIAN_POINT('',(2.010910172331E+03,-358.7461974619,
    67.116832394762));
#953 = TRIMMED_CURVE('',#954,(#958,PARAMETER_VALUE(0.)),(#959,
    PARAMETER_VALUE(245.66279306107)),.T.,.PARAMETER.);
#954 = LINE('',#955,#956);
#955 = CARTESIAN_POINT('',(2.010910172331E+03,-358.7461974619,
    67.116832394762));
#956 = VECTOR('',#957,1.);
#957 = DIRECTION('',(0.,0.971845164207,0.2356204083));
#958 = CARTESIAN_POINT('',(2.010910172331E+03,-358.7461974619,
    67.116832394762));
#959 = CARTESIAN_POINT('',(2.010910172331E+03,-120.,125.));
#960 = ( GEOMETRIC_REPRESENTATION_CONTEXT(3) 
GLOBAL_UNCERTAINTY_ASSIGNED_CONTEXT((#964)) GLOBAL_UNIT_ASSIGNED_CONTEXT
((#961,#962,#963)) REPRESENTATION_CONTEXT('Context #1',
  '3D Context with UNIT and UNCERTAINTY') );
#961 = ( LENGTH_UNIT() NAMED_UNIT(*) SI_UNIT(.MILLI.,.METRE.) );
#962 = ( NAMED_UNIT(*) PLANE_ANGLE_UNIT() SI_UNIT($,.RADIAN.) );
#963 = ( NAMED_UNIT(*) SI_UNIT($,.STERADIAN.) SOLID_ANGLE_UNIT() );
#964 = UNCERTAINTY_MEASURE_WITH_UNIT(LENGTH_MEASURE(1.E-07),#961,
  'distance_accuracy_value','confusion accuracy');
#965 = CONTEXT_DEPENDENT_SHAPE_REPRESENTATION(#966,#968);
#966 = ( REPRESENTATION_RELATIONSHIP('','',#895,#10) 
REPRESENTATION_RELATIONSHIP_WITH_TRANSFORMATION(#967) 
SHAPE_REPRESENTATION_RELATIONSHIP() );
#967 = ITEM_DEFINED_TRANSFORMATION('','',#11,#59);
#968 = PRODUCT_DEFINITION_SHAPE('Placement','Placement of an item',#969
  );
#969 = NEXT_ASSEMBLY_USAGE_OCCURRENCE('12','TH2','',#5,#890,$);
#970 = PRODUCT_RELATED_PRODUCT_CATEGORY('part',$,(#892));
#971 = SHAPE_DEFINITION_REPRESENTATION(#972,#978);
#972 = PRODUCT_DEFINITION_SHAPE('','',#973);
#973 = PRODUCT_DEFINITION('design','',#974,#977);
#974 = PRODUCT_DEFINITION_FORMATION('','',#975);
#975 = PRODUCT('HP3','HP3','',(#976));
#976 = PRODUCT_CONTEXT('',#2,'mechanical');
#977 = PRODUCT_DEFINITION_CONTEXT('part definition',#2,'design');
#978 = GEOMETRICALLY_BOUNDED_WIREFRAME_SHAPE_REPRESENTATION('',(#11,#979
    ),#1008);
#979 = GEOMETRIC_CURVE_SET('',(#980,#987,#994,#1001));
#980 = TRIMMED_CURVE('',#981,(#985,PARAMETER_VALUE(0.)),(#986,
    PARAMETER_VALUE(216.56407827707)),.T.,.PARAMETER.);
#981 = LINE('',#982,#983);
#982 = CARTESIAN_POINT('',(1.6E+03,-820.,50.));
#983 = VECTOR('',#984,1.);
#984 = DIRECTION('',(-0.554108515848,0.831162773771,4.617570965396E-02)
  );
#985 = CARTESIAN_POINT('',(1.6E+03,-820.,50.));
#986 = CARTESIAN_POINT('',(1.48E+03,-640.,60.));
#987 = TRIMMED_CURVE('',#988,(#992,PARAMETER_VALUE(0.)),(#993,
    PARAMETER_VALUE(343.47716403119)),.T.,.PARAMETER.);
#988 = LINE('',#989,#990);
#989 = CARTESIAN_POINT('',(1.48E+03,-640.,60.));
#990 = VECTOR('',#991,1.);
#991 = DIRECTION('',(-0.815192476594,0.420049960876,0.398772186183));
#992 = CARTESIAN_POINT('',(1.48E+03,-640.,60.));
#993 = CARTESIAN_POINT('',(1.2E+03,-495.7224306869,196.96913960456));
#994 = TRIMMED_CURVE('',#995,(#999,PARAMETER_VALUE(0.)),(#1000,
    PARAMETER_VALUE(18.370323788298)),.T.,.PARAMETER.);
#995 = LINE('',#996,#997);
#996 = CARTESIAN_POINT('',(1.2E+03,-495.7224306869,196.96913960456));
#997 = VECTOR('',#998,1.);
#998 = DIRECTION('',(-0.997363523684,0.,7.256722142116E-02));
#999 = CARTESIAN_POINT('',(1.2E+03,-495.7224306869,196.96913960456));
#1000 = CARTESIAN_POINT('',(1.181678109135E+03,-495.7224306869,
    198.30222295848));
#1001 = TRIMMED_CURVE('',#1002,(#1006,PARAMETER_VALUE(0.)),(#1007,
    PARAMETER_VALUE(292.19993228874)),.T.,.PARAMETER.);
#1002 = LINE('',#1003,#1004);
#1003 = CARTESIAN_POINT('',(1.181678109135E+03,-495.7224306869,
    198.30222295848));
#1004 = VECTOR('',#1005,1.);
#1005 = DIRECTION('',(0.,0.556887297722,0.830588067357));
#1006 = CARTESIAN_POINT('',(1.181678109135E+03,-495.7224306869,
    198.30222295848));
#1007 = CARTESIAN_POINT('',(1.181678109135E+03,-333.,441.));
#1008 = ( GEOMETRIC_REPRESENTATION_CONTEXT(3) 
GLOBAL_UNCERTAINTY_ASSIGNED_CONTEXT((#1012)) 
GLOBAL_UNIT_ASSIGNED_CONTEXT((#1009,#1010,#1011)) REPRESENTATION_CONTEXT
('Context #1','3D Context with UNIT and UNCERTAINTY') );
#1009 = ( LENGTH_UNIT() NAMED_UNIT(*) SI_UNIT(.MILLI.,.METRE.) );
#1010 = ( NAMED_UNIT(*) PLANE_ANGLE_UNIT() SI_UNIT($,.RADIAN.) );
#1011 = ( NAMED_UNIT(*) SI_UNIT($,.STERADIAN.) SOLID_ANGLE_UNIT() );
#1012 = UNCERTAINTY_MEASURE_WITH_UNIT(LENGTH_MEASURE(1.E-07),#1009,
  'distance_accuracy_value','confusion accuracy');
#1013 = CONTEXT_DEPENDENT_SHAPE_REPRESENTATION(#1014,#1016);
#1014 = ( REPRESENTATION_RELATIONSHIP('','',#978,#10) 
REPRESENTATION_RELATIONSHIP_WITH_TRANSFORMATION(#1015) 
SHAPE_REPRESENTATION_RELATIONSHIP() );
#1015 = ITEM_DEFINED_TRANSFORMATION('','',#11,#63);
#1016 = PRODUCT_DEFINITION_SHAPE('Placement','Placement of an item',
  #1017);
#1017 = NEXT_ASSEMBLY_USAGE_OCCURRENCE('13','HP3','',#5,#973,$);
#1018 = PRODUCT_RELATED_PRODUCT_CATEGORY('part',$,(#975));
#1019 = SHAPE_DEFINITION_REPRESENTATION(#1020,#1026);
#1020 = PRODUCT_DEFINITION_SHAPE('','',#1021);
#1021 = PRODUCT_DEFINITION('design','',#1022,#1025);
#1022 = PRODUCT_DEFINITION_FORMATION('','',#1023);
#1023 = PRODUCT('NTC30','NTC30','',(#1024));
#1024 = PRODUCT_CONTEXT('',#2,'mechanical');
#1025 = PRODUCT_DEFINITION_CONTEXT('part definition',#2,'design');
#1026 = GEOMETRICALLY_BOUNDED_WIREFRAME_SHAPE_REPRESENTATION('',(#11,
    #1027),#1056);
#1027 = GEOMETRIC_CURVE_SET('',(#1028,#1035,#1042,#1049));
#1028 = TRIMMED_CURVE('',#1029,(#1033,PARAMETER_VALUE(0.)),(#1034,
    PARAMETER_VALUE(240.10414407085)),.T.,.PARAMETER.);
#1029 = LINE('',#1030,#1031);
#1030 = CARTESIAN_POINT('',(1.6E+03,-795.,65.));
#1031 = VECTOR('',#1032,1.);
#1032 = DIRECTION('',(-0.583080315176,0.812147581853,2.082429697059E-02)
  );
#1033 = CARTESIAN_POINT('',(1.6E+03,-795.,65.));
#1034 = CARTESIAN_POINT('',(1.46E+03,-600.,70.));
#1035 = TRIMMED_CURVE('',#1036,(#1040,PARAMETER_VALUE(0.)),(#1041,
    PARAMETER_VALUE(297.25256072318)),.T.,.PARAMETER.);
#1036 = LINE('',#1037,#1038);
#1037 = CARTESIAN_POINT('',(1.46E+03,-600.,70.));
#1038 = VECTOR('',#1039,1.);
#1039 = DIRECTION('',(-0.874677073824,0.478866389221,7.50133174922E-02)
  );
#1040 = CARTESIAN_POINT('',(1.46E+03,-600.,70.));
#1041 = CARTESIAN_POINT('',(1.2E+03,-457.6557395597,92.297900712899));
#1042 = TRIMMED_CURVE('',#1043,(#1047,PARAMETER_VALUE(0.)),(#1048,
    PARAMETER_VALUE(53.35287295329)),.T.,.PARAMETER.);
#1043 = LINE('',#1044,#1045);
#1044 = CARTESIAN_POINT('',(1.2E+03,-457.6557395597,92.297900712899));
#1045 = VECTOR('',#1046,1.);
#1046 = DIRECTION('',(-0.999419298589,0.,3.407441278852E-02));
#1047 = CARTESIAN_POINT('',(1.2E+03,-457.6557395597,92.297900712899));
#1048 = CARTESIAN_POINT('',(1.146678109135E+03,-457.6557395597,
    94.115868529362));
#1049 = TRIMMED_CURVE('',#1050,(#1054,PARAMETER_VALUE(0.)),(#1055,
    PARAMETER_VALUE(370.45822294258)),.T.,.PARAMETER.);
#1050 = LINE('',#1051,#1052);
#1051 = CARTESIAN_POINT('',(1.146678109135E+03,-457.6557395597,
    94.115868529362));
#1052 = VECTOR('',#1053,1.);
#1053 = DIRECTION('',(0.,0.403974673233,0.914770169707));
#1054 = CARTESIAN_POINT('',(1.146678109135E+03,-457.6557395597,
    94.115868529362));
#1055 = CARTESIAN_POINT('',(1.146678109135E+03,-308.,433.));
#1056 = ( GEOMETRIC_REPRESENTATION_CONTEXT(3) 
GLOBAL_UNCERTAINTY_ASSIGNED_CONTEXT((#1060)) 
GLOBAL_UNIT_ASSIGNED_CONTEXT((#1057,#1058,#1059)) REPRESENTATION_CONTEXT
('Context #1','3D Context with UNIT and UNCERTAINTY') );
#1057 = ( LENGTH_UNIT() NAMED_UNIT(*) SI_UNIT(.MILLI.,.METRE.) );
#1058 = ( NAMED_UNIT(*) PLANE_ANGLE_UNIT() SI_UNIT($,.RADIAN.) );
#1059 = ( NAMED_UNIT(*) SI_UNIT($,.STERADIAN.) SOLID_ANGLE_UNIT() );
#1060 = UNCERTAINTY_MEASURE_WITH_UNIT(LENGTH_MEASURE(1.E-07),#1057,
  'distance_accuracy_value','confusion accuracy');
#1061 = CONTEXT_DEPENDENT_SHAPE_REPRESENTATION(#1062,#1064);
#1062 = ( REPRESENTATION_RELATIONSHIP('','',#1026,#10) 
REPRESENTATION_RELATIONSHIP_WITH_TRANSFORMATION(#1063) 
SHAPE_REPRESENTATION_RELATIONSHIP() );
#1063 = ITEM_DEFINED_TRANSFORMATION('','',#11,#67);
#1064 = PRODUCT_DEFINITION_SHAPE('Placement','Placement of an item',
  #1065);
#1065 = NEXT_ASSEMBLY_USAGE_OCCURRENCE('14','NTC30','',#5,#1021,$);
#1066 = PRODUCT_RELATED_PRODUCT_CATEGORY('part',$,(#1023));
#1067 = SHAPE_DEFINITION_REPRESENTATION(#1068,#1074);
#1068 = PRODUCT_DEFINITION_SHAPE('','',#1069);
#1069 = PRODUCT_DEFINITION('design','',#1070,#1073);
#1070 = PRODUCT_DEFINITION_FORMATION('','',#1071);
#1071 = PRODUCT('NTC31','NTC31','',(#1072));
#1072 = PRODUCT_CONTEXT('',#2,'mechanical');
#1073 = PRODUCT_DEFINITION_CONTEXT('part definition',#2,'design');
#1074 = GEOMETRICALLY_BOUNDED_WIREFRAME_SHAPE_REPRESENTATION('',(#11,
    #1075),#1104);
#1075 = GEOMETRIC_CURVE_SET('',(#1076,#1083,#1090,#1097));
#1076 = TRIMMED_CURVE('',#1077,(#1081,PARAMETER_VALUE(0.)),(#1082,
    PARAMETER_VALUE(240.10414407085)),.T.,.PARAMETER.);
#1077 = LINE('',#1078,#1079);
#1078 = CARTESIAN_POINT('',(1.6E+03,-795.,65.));
#1079 = VECTOR('',#1080,1.);
#1080 = DIRECTION('',(-0.583080315176,0.812147581853,2.082429697059E-02)
  );
#1081 = CARTESIAN_POINT('',(1.6E+03,-795.,65.));
#1082 = CARTESIAN_POINT('',(1.46E+03,-600.,70.));
#1083 = TRIMMED_CURVE('',#1084,(#1088,PARAMETER_VALUE(0.)),(#1089,
    PARAMETER_VALUE(297.25256072318)),.T.,.PARAMETER.);
#1084 = LINE('',#1085,#1086);
#1085 = CARTESIAN_POINT('',(1.46E+03,-600.,70.));
#1086 = VECTOR('',#1087,1.);
#1087 = DIRECTION('',(-0.874677073824,0.478866389221,7.50133174922E-02)
  );
#1088 = CARTESIAN_POINT('',(1.46E+03,-600.,70.));
#1089 = CARTESIAN_POINT('',(1.2E+03,-457.6557395597,92.297900712899));
#1090 = TRIMMED_CURVE('',#1091,(#1095,PARAMETER_VALUE(0.)),(#1096,
    PARAMETER_VALUE(16.68779976415)),.T.,.PARAMETER.);
#1091 = LINE('',#1092,#1093);
#1092 = CARTESIAN_POINT('',(1.2E+03,-457.6557395597,92.297900712899));
#1093 = VECTOR('',#1094,1.);
#1094 = DIRECTION('',(0.999419298589,0.,-3.407441278852E-02));
#1095 = CARTESIAN_POINT('',(1.2E+03,-457.6557395597,92.297900712899));
#1096 = CARTESIAN_POINT('',(1.216678109135E+03,-457.6557395597,
    91.729273735203));
#1097 = TRIMMED_CURVE('',#1098,(#1102,PARAMETER_VALUE(0.)),(#1103,
    PARAMETER_VALUE(372.64265588962)),.T.,.PARAMETER.);
#1098 = LINE('',#1099,#1100);
#1099 = CARTESIAN_POINT('',(1.216678109135E+03,-457.6557395597,
    91.729273735203));
#1100 = VECTOR('',#1101,1.);
#1101 = DIRECTION('',(0.,0.401606571858,0.915812295965));
#1102 = CARTESIAN_POINT('',(1.216678109135E+03,-457.6557395597,
    91.729273735203));
#1103 = CARTESIAN_POINT('',(1.216678109135E+03,-308.,433.));
#1104 = ( GEOMETRIC_REPRESENTATION_CONTEXT(3) 
GLOBAL_UNCERTAINTY_ASSIGNED_CONTEXT((#1108)) 
GLOBAL_UNIT_ASSIGNED_CONTEXT((#1105,#1106,#1107)) REPRESENTATION_CONTEXT
('Context #1','3D Context with UNIT and UNCERTAINTY') );
#1105 = ( LENGTH_UNIT() NAMED_UNIT(*) SI_UNIT(.MILLI.,.METRE.) );
#1106 = ( NAMED_UNIT(*) PLANE_ANGLE_UNIT() SI_UNIT($,.RADIAN.) );
#1107 = ( NAMED_UNIT(*) SI_UNIT($,.STERADIAN.) SOLID_ANGLE_UNIT() );
#1108 = UNCERTAINTY_MEASURE_WITH_UNIT(LENGTH_MEASURE(1.E-07),#1105,
  'distance_accuracy_value','confusion accuracy');
#1109 = CONTEXT_DEPENDENT_SHAPE_REPRESENTATION(#1110,#1112);
#1110 = ( REPRESENTATION_RELATIONSHIP('','',#1074,#10) 
REPRESENTATION_RELATIONSHIP_WITH_TRANSFORMATION(#1111) 
SHAPE_REPRESENTATION_RELATIONSHIP() );
#1111 = ITEM_DEFINED_TRANSFORMATION('','',#11,#71);
#1112 = PRODUCT_DEFINITION_SHAPE('Placement','Placement of an item',
  #1113);
#1113 = NEXT_ASSEMBLY_USAGE_OCCURRENCE('15','NTC31','',#5,#1069,$);
#1114 = PRODUCT_RELATED_PRODUCT_CATEGORY('part',$,(#1071));
#1115 = SHAPE_DEFINITION_REPRESENTATION(#1116,#1122);
#1116 = PRODUCT_DEFINITION_SHAPE('','',#1117);
#1117 = PRODUCT_DEFINITION('design','',#1118,#1121);
#1118 = PRODUCT_DEFINITION_FORMATION('','',#1119);
#1119 = PRODUCT('TH3','TH3','',(#1120));
#1120 = PRODUCT_CONTEXT('',#2,'mechanical');
#1121 = PRODUCT_DEFINITION_CONTEXT('part definition',#2,'design');
#1122 = GEOMETRICALLY_BOUNDED_WIREFRAME_SHAPE_REPRESENTATION('',(#11,
    #1123),#1152);
#1123 = GEOMETRIC_CURVE_SET('',(#1124,#1131,#1138,#1145));
#1124 = TRIMMED_CURVE('',#1125,(#1129,PARAMETER_VALUE(0.)),(#1130,
    PARAMETER_VALUE(220.45407685048)),.T.,.PARAMETER.);
#1125 = LINE('',#1126,#1127);
#1126 = CARTESIAN_POINT('',(1.6E+03,-790.,50.));
#1127 = VECTOR('',#1128,1.);
#1128 = DIRECTION('',(-0.498970132789,0.86185750209,9.07218423253E-02));
#1129 = CARTESIAN_POINT('',(1.6E+03,-790.,50.));
#1130 = CARTESIAN_POINT('',(1.49E+03,-600.,70.));
#1131 = TRIMMED_CURVE('',#1132,(#1136,PARAMETER_VALUE(0.)),(#1137,
    PARAMETER_VALUE(323.81952513165)),.T.,.PARAMETER.);
#1132 = LINE('',#1133,#1134);
#1133 = CARTESIAN_POINT('',(1.49E+03,-600.,70.));
#1134 = VECTOR('',#1135,1.);
#1135 = DIRECTION('',(-0.89556057462,0.439578991978,6.885903715606E-02)
  );
#1136 = CARTESIAN_POINT('',(1.49E+03,-600.,70.));
#1137 = CARTESIAN_POINT('',(1.2E+03,-457.6557395597,92.297900712899));
#1138 = TRIMMED_CURVE('',#1139,(#1143,PARAMETER_VALUE(0.)),(#1144,
    PARAMETER_VALUE(18.33253659457)),.T.,.PARAMETER.);
#1139 = LINE('',#1140,#1141);
#1140 = CARTESIAN_POINT('',(1.2E+03,-457.6557395597,92.297900712899));
#1141 = VECTOR('',#1142,1.);
#1142 = DIRECTION('',(-0.999419298589,0.,3.407441278852E-02));
#1143 = CARTESIAN_POINT('',(1.2E+03,-457.6557395597,92.297900712899));
#1144 = CARTESIAN_POINT('',(1.181678109135E+03,-457.6557395597,
    92.922571132283));
#1145 = TRIMMED_CURVE('',#1146,(#1150,PARAMETER_VALUE(0.)),(#1151,
    PARAMETER_VALUE(380.54386707506)),.T.,.PARAMETER.);
#1146 = LINE('',#1147,#1148);
#1147 = CARTESIAN_POINT('',(1.181678109135E+03,-457.6557395597,
    92.922571132283));
#1148 = VECTOR('',#1149,1.);
#1149 = DIRECTION('',(0.,0.432685305968,0.901545021615));
#1150 = CARTESIAN_POINT('',(1.181678109135E+03,-457.6557395597,
    92.922571132283));
#1151 = CARTESIAN_POINT('',(1.181678109135E+03,-293.,436.));
#1152 = ( GEOMETRIC_REPRESENTATION_CONTEXT(3) 
GLOBAL_UNCERTAINTY_ASSIGNED_CONTEXT((#1156)) 
GLOBAL_UNIT_ASSIGNED_CONTEXT((#1153,#1154,#1155)) REPRESENTATION_CONTEXT
('Context #1','3D Context with UNIT and UNCERTAINTY') );
#1153 = ( LENGTH_UNIT() NAMED_UNIT(*) SI_UNIT(.MILLI.,.METRE.) );
#1154 = ( NAMED_UNIT(*) PLANE_ANGLE_UNIT() SI_UNIT($,.RADIAN.) );
#1155 = ( NAMED_UNIT(*) SI_UNIT($,.STERADIAN.) SOLID_ANGLE_UNIT() );
#1156 = UNCERTAINTY_MEASURE_WITH_UNIT(LENGTH_MEASURE(1.E-07),#1153,
  'distance_accuracy_value','confusion accuracy');
#1157 = CONTEXT_DEPENDENT_SHAPE_REPRESENTATION(#1158,#1160);
#1158 = ( REPRESENTATION_RELATIONSHIP('','',#1122,#10) 
REPRESENTATION_RELATIONSHIP_WITH_TRANSFORMATION(#1159) 
SHAPE_REPRESENTATION_RELATIONSHIP() );
#1159 = ITEM_DEFINED_TRANSFORMATION('','',#11,#75);
#1160 = PRODUCT_DEFINITION_SHAPE('Placement','Placement of an item',
  #1161);
#1161 = NEXT_ASSEMBLY_USAGE_OCCURRENCE('16','TH3','',#5,#1117,$);
#1162 = PRODUCT_RELATED_PRODUCT_CATEGORY('part',$,(#1119));
#1163 = SHAPE_DEFINITION_REPRESENTATION(#1164,#1170);
#1164 = PRODUCT_DEFINITION_SHAPE('','',#1165);
#1165 = PRODUCT_DEFINITION('design','',#1166,#1169);
#1166 = PRODUCT_DEFINITION_FORMATION('','',#1167);
#1167 = PRODUCT('BAT_MAIN','BAT_MAIN','',(#1168));
#1168 = PRODUCT_CONTEXT('',#2,'mechanical');
#1169 = PRODUCT_DEFINITION_CONTEXT('part definition',#2,'design');
#1170 = GEOMETRICALLY_BOUNDED_WIREFRAME_SHAPE_REPRESENTATION('',(#11,
    #1171),#1186);
#1171 = GEOMETRIC_CURVE_SET('',(#1172,#1179));
#1172 = TRIMMED_CURVE('',#1173,(#1177,PARAMETER_VALUE(0.)),(#1178,
    PARAMETER_VALUE(160.)),.T.,.PARAMETER.);
#1173 = LINE('',#1174,#1175);
#1174 = CARTESIAN_POINT('',(1.25E+03,-850.,90.));
#1175 = VECTOR('',#1176,1.);
#1176 = DIRECTION('',(1.,0.,0.));
#1177 = CARTESIAN_POINT('',(1.25E+03,-850.,90.));
#1178 = CARTESIAN_POINT('',(1.41E+03,-850.,90.));
#1179 = TRIMMED_CURVE('',#1180,(#1184,PARAMETER_VALUE(0.)),(#1185,
    PARAMETER_VALUE(196.46882704388)),.T.,.PARAMETER.);
#1180 = LINE('',#1181,#1182);
#1181 = CARTESIAN_POINT('',(1.41E+03,-850.,90.));
#1182 = VECTOR('',#1183,1.);
#1183 = DIRECTION('',(0.967074537263,0.152695979568,-0.203594639424));
#1184 = CARTESIAN_POINT('',(1.41E+03,-850.,90.));
#1185 = CARTESIAN_POINT('',(1.6E+03,-820.,50.));
#1186 = ( GEOMETRIC_REPRESENTATION_CONTEXT(3) 
GLOBAL_UNCERTAINTY_ASSIGNED_CONTEXT((#1190)) 
GLOBAL_UNIT_ASSIGNED_CONTEXT((#1187,#1188,#1189)) REPRESENTATION_CONTEXT
('Context #1','3D Context with UNIT and UNCERTAINTY') );
#1187 = ( LENGTH_UNIT() NAMED_UNIT(*) SI_UNIT(.MILLI.,.METRE.) );
#1188 = ( NAMED_UNIT(*) PLANE_ANGLE_UNIT() SI_UNIT($,.RADIAN.) );
#1189 = ( NAMED_UNIT(*) SI_UNIT($,.STERADIAN.) SOLID_ANGLE_UNIT() );
#1190 = UNCERTAINTY_MEASURE_WITH_UNIT(LENGTH_MEASURE(1.E-07),#1187,
  'distance_accuracy_value','confusion accuracy');
#1191 = CONTEXT_DEPENDENT_SHAPE_REPRESENTATION(#1192,#1194);
#1192 = ( REPRESENTATION_RELATIONSHIP('','',#1170,#10) 
REPRESENTATION_RELATIONSHIP_WITH_TRANSFORMATION(#1193) 
SHAPE_REPRESENTATION_RELATIONSHIP() );
#1193 = ITEM_DEFINED_TRANSFORMATION('','',#11,#79);
#1194 = PRODUCT_DEFINITION_SHAPE('Placement','Placement of an item',
  #1195);
#1195 = NEXT_ASSEMBLY_USAGE_OCCURRENCE('17','BAT_MAIN','',#5,#1165,$);
#1196 = PRODUCT_RELATED_PRODUCT_CATEGORY('part',$,(#1167));
#1197 = SHAPE_DEFINITION_REPRESENTATION(#1198,#1204);
#1198 = PRODUCT_DEFINITION_SHAPE('','',#1199);
#1199 = PRODUCT_DEFINITION('design','',#1200,#1203);
#1200 = PRODUCT_DEFINITION_FORMATION('','',#1201);
#1201 = PRODUCT('USB_DATA','USB_DATA','',(#1202));
#1202 = PRODUCT_CONTEXT('',#2,'mechanical');
#1203 = PRODUCT_DEFINITION_CONTEXT('part definition',#2,'design');
#1204 = GEOMETRICALLY_BOUNDED_WIREFRAME_SHAPE_REPRESENTATION('',(#11,
    #1205),#1234);
#1205 = GEOMETRIC_CURVE_SET('',(#1206,#1213,#1220,#1227));
#1206 = TRIMMED_CURVE('',#1207,(#1211,PARAMETER_VALUE(0.)),(#1212,
    PARAMETER_VALUE(238.5896058088)),.T.,.PARAMETER.);
#1207 = LINE('',#1208,#1209);
#1208 = CARTESIAN_POINT('',(1.6E+03,-820.,45.));
#1209 = VECTOR('',#1210,1.);
#1210 = DIRECTION('',(-0.544868665,0.838259484616,2.09564871154E-02));
#1211 = CARTESIAN_POINT('',(1.6E+03,-820.,45.));
#1212 = CARTESIAN_POINT('',(1.47E+03,-620.,50.));
#1213 = TRIMMED_CURVE('',#1214,(#1218,PARAMETER_VALUE(0.)),(#1219,
    PARAMETER_VALUE(331.57931514266)),.T.,.PARAMETER.);
#1214 = LINE('',#1215,#1216);
#1215 = CARTESIAN_POINT('',(1.47E+03,-620.,50.));
#1216 = VECTOR('',#1217,1.);
#1217 = DIRECTION('',(-0.814284811113,0.374804952051,0.443239770675));
#1218 = CARTESIAN_POINT('',(1.47E+03,-620.,50.));
#1219 = CARTESIAN_POINT('',(1.2E+03,-495.7224306869,196.96913960456));
#1220 = TRIMMED_CURVE('',#1221,(#1225,PARAMETER_VALUE(0.)),(#1226,
    PARAMETER_VALUE(245.03491274606)),.T.,.PARAMETER.);
#1221 = LINE('',#1222,#1223);
#1222 = CARTESIAN_POINT('',(1.2E+03,-495.7224306869,196.96913960456));
#1223 = VECTOR('',#1224,1.);
#1224 = DIRECTION('',(8.162102198362E-02,0.553890174938,0.828579315984)
  );
#1225 = CARTESIAN_POINT('',(1.2E+03,-495.7224306869,196.96913960456));
#1226 = CARTESIAN_POINT('',(1.22E+03,-360.,400.));
#1227 = TRIMMED_CURVE('',#1228,(#1232,PARAMETER_VALUE(0.)),(#1233,
    PARAMETER_VALUE(189.29870575363)),.T.,.PARAMETER.);
#1228 = LINE('',#1229,#1230);
#1229 = CARTESIAN_POINT('',(1.22E+03,-360.,400.));
#1230 = VECTOR('',#1231,1.);
#1231 = DIRECTION('',(0.422612503775,0.871638289037,0.248284845968));
#1232 = CARTESIAN_POINT('',(1.22E+03,-360.,400.));
#1233 = CARTESIAN_POINT('',(1.3E+03,-195.,447.));
#1234 = ( GEOMETRIC_REPRESENTATION_CONTEXT(3) 
GLOBAL_UNCERTAINTY_ASSIGNED_CONTEXT((#1238)) 
GLOBAL_UNIT_ASSIGNED_CONTEXT((#1235,#1236,#1237)) REPRESENTATION_CONTEXT
('Context #1','3D Context with UNIT and UNCERTAINTY') );
#1235 = ( LENGTH_UNIT() NAMED_UNIT(*) SI_UNIT(.MILLI.,.METRE.) );
#1236 = ( NAMED_UNIT(*) PLANE_ANGLE_UNIT() SI_UNIT($,.RADIAN.) );
#1237 = ( NAMED_UNIT(*) SI_UNIT($,.STERADIAN.) SOLID_ANGLE_UNIT() );
#1238 = UNCERTAINTY_MEASURE_WITH_UNIT(LENGTH_MEASURE(1.E-07),#1235,
  'distance_accuracy_value','confusion accuracy');
#1239 = CONTEXT_DEPENDENT_SHAPE_REPRESENTATION(#1240,#1242);
#1240 = ( REPRESENTATION_RELATIONSHIP('','',#1204,#10) 
REPRESENTATION_RELATIONSHIP_WITH_TRANSFORMATION(#1241) 
SHAPE_REPRESENTATION_RELATIONSHIP() );
#1241 = ITEM_DEFINED_TRANSFORMATION('','',#11,#83);
#1242 = PRODUCT_DEFINITION_SHAPE('Placement','Placement of an item',
  #1243);
#1243 = NEXT_ASSEMBLY_USAGE_OCCURRENCE('18','USB_DATA','',#5,#1199,$);
#1244 = PRODUCT_RELATED_PRODUCT_CATEGORY('part',$,(#1201));
#1245 = SHAPE_DEFINITION_REPRESENTATION(#1246,#1252);
#1246 = PRODUCT_DEFINITION_SHAPE('','',#1247);
#1247 = PRODUCT_DEFINITION('design','',#1248,#1251);
#1248 = PRODUCT_DEFINITION_FORMATION('','',#1249);
#1249 = PRODUCT('USB_PD','USB_PD','',(#1250));
#1250 = PRODUCT_CONTEXT('',#2,'mechanical');
#1251 = PRODUCT_DEFINITION_CONTEXT('part definition',#2,'design');
#1252 = GEOMETRICALLY_BOUNDED_WIREFRAME_SHAPE_REPRESENTATION('',(#11,
    #1253),#1282);
#1253 = GEOMETRIC_CURVE_SET('',(#1254,#1261,#1268,#1275));
#1254 = TRIMMED_CURVE('',#1255,(#1259,PARAMETER_VALUE(0.)),(#1260,
    PARAMETER_VALUE(246.27220712049)),.T.,.PARAMETER.);
#1255 = LINE('',#1256,#1257);
#1256 = CARTESIAN_POINT('',(1.6E+03,-845.,45.));
#1257 = VECTOR('',#1258,1.);
#1258 = DIRECTION('',(-0.487265702464,0.873017716915,2.030273760268E-02)
  );
#1259 = CARTESIAN_POINT('',(1.6E+03,-845.,45.));
#1260 = CARTESIAN_POINT('',(1.48E+03,-630.,50.));
#1261 = TRIMMED_CURVE('',#1262,(#1266,PARAMETER_VALUE(0.)),(#1267,
    PARAMETER_VALUE(343.55551751753)),.T.,.PARAMETER.);
#1262 = LINE('',#1263,#1264);
#1263 = CARTESIAN_POINT('',(1.48E+03,-630.,50.));
#1264 = VECTOR('',#1265,1.);
#1265 = DIRECTION('',(-0.815006558542,0.390846784483,0.427788616718));
#1266 = CARTESIAN_POINT('',(1.48E+03,-630.,50.));
#1267 = CARTESIAN_POINT('',(1.2E+03,-495.7224306869,196.96913960456));
#1268 = TRIMMED_CURVE('',#1269,(#1273,PARAMETER_VALUE(0.)),(#1274,
    PARAMETER_VALUE(285.12701918342)),.T.,.PARAMETER.);
#1269 = LINE('',#1270,#1271);
#1270 = CARTESIAN_POINT('',(1.2E+03,-495.7224306869,196.96913960456));
#1271 = VECTOR('',#1272,1.);
#1272 = DIRECTION('',(0.491009236518,0.476006907643,0.729607670964));
#1273 = CARTESIAN_POINT('',(1.2E+03,-495.7224306869,196.96913960456));
#1274 = CARTESIAN_POINT('',(1.34E+03,-360.,405.));
#1275 = TRIMMED_CURVE('',#1276,(#1280,PARAMETER_VALUE(0.)),(#1281,
    PARAMETER_VALUE(170.55497647386)),.T.,.PARAMETER.);
#1276 = LINE('',#1277,#1278);
#1277 = CARTESIAN_POINT('',(1.34E+03,-360.,405.));
#1278 = VECTOR('',#1279,1.);
#1279 = DIRECTION('',(-5.863212089582E-02,0.967429994781,0.246254907762)
  );
#1280 = CARTESIAN_POINT('',(1.34E+03,-360.,405.));
#1281 = CARTESIAN_POINT('',(1.33E+03,-195.,447.));
#1282 = ( GEOMETRIC_REPRESENTATION_CONTEXT(3) 
GLOBAL_UNCERTAINTY_ASSIGNED_CONTEXT((#1286)) 
GLOBAL_UNIT_ASSIGNED_CONTEXT((#1283,#1284,#1285)) REPRESENTATION_CONTEXT
('Context #1','3D Context with UNIT and UNCERTAINTY') );
#1283 = ( LENGTH_UNIT() NAMED_UNIT(*) SI_UNIT(.MILLI.,.METRE.) );
#1284 = ( NAMED_UNIT(*) PLANE_ANGLE_UNIT() SI_UNIT($,.RADIAN.) );
#1285 = ( NAMED_UNIT(*) SI_UNIT($,.STERADIAN.) SOLID_ANGLE_UNIT() );
#1286 = UNCERTAINTY_MEASURE_WITH_UNIT(LENGTH_MEASURE(1.E-07),#1283,
  'distance_accuracy_value','confusion accuracy');
#1287 = CONTEXT_DEPENDENT_SHAPE_REPRESENTATION(#1288,#1290);
#1288 = ( REPRESENTATION_RELATIONSHIP('','',#1252,#10) 
REPRESENTATION_RELATIONSHIP_WITH_TRANSFORMATION(#1289) 
SHAPE_REPRESENTATION_RELATIONSHIP() );
#1289 = ITEM_DEFINED_TRANSFORMATION('','',#11,#87);
#1290 = PRODUCT_DEFINITION_SHAPE('Placement','Placement of an item',
  #1291);
#1291 = NEXT_ASSEMBLY_USAGE_OCCURRENCE('19','USB_PD','',#5,#1247,$);
#1292 = PRODUCT_RELATED_PRODUCT_CATEGORY('part',$,(#1249));
#1293 = SHAPE_DEFINITION_REPRESENTATION(#1294,#1300);
#1294 = PRODUCT_DEFINITION_SHAPE('','',#1295);
#1295 = PRODUCT_DEFINITION('design','',#1296,#1299);
#1296 = PRODUCT_DEFINITION_FORMATION('','',#1297);
#1297 = PRODUCT('ARM_PANEL','ARM_PANEL','',(#1298));
#1298 = PRODUCT_CONTEXT('',#2,'mechanical');
#1299 = PRODUCT_DEFINITION_CONTEXT('part definition',#2,'design');
#1300 = GEOMETRICALLY_BOUNDED_WIREFRAME_SHAPE_REPRESENTATION('',(#11,
    #1301),#1323);
#1301 = GEOMETRIC_CURVE_SET('',(#1302,#1309,#1316));
#1302 = TRIMMED_CURVE('',#1303,(#1307,PARAMETER_VALUE(0.)),(#1308,
    PARAMETER_VALUE(216.33307652783)),.T.,.PARAMETER.);
#1303 = LINE('',#1304,#1305);
#1304 = CARTESIAN_POINT('',(1.6E+03,-800.,50.));
#1305 = VECTOR('',#1306,1.);
#1306 = DIRECTION('',(-0.554700196225,0.832050294338,0.));
#1307 = CARTESIAN_POINT('',(1.6E+03,-800.,50.));
#1308 = CARTESIAN_POINT('',(1.48E+03,-620.,50.));
#1309 = TRIMMED_CURVE('',#1310,(#1314,PARAMETER_VALUE(0.)),(#1315,
    PARAMETER_VALUE(326.41196562414)),.T.,.PARAMETER.);
#1310 = LINE('',#1311,#1312);
#1311 = CARTESIAN_POINT('',(1.48E+03,-620.,50.));
#1312 = VECTOR('',#1313,1.);
#1313 = DIRECTION('',(-0.857811690404,0.497360015984,0.129584406111));
#1314 = CARTESIAN_POINT('',(1.48E+03,-620.,50.));
#1315 = CARTESIAN_POINT('',(1.2E+03,-457.6557395597,92.297900712899));
#1316 = TRIMMED_CURVE('',#1317,(#1321,PARAMETER_VALUE(0.)),(#1322,
    PARAMETER_VALUE(276.86154404483)),.T.,.PARAMETER.);
#1317 = LINE('',#1318,#1319);
#1318 = CARTESIAN_POINT('',(1.2E+03,-457.6557395597,92.297900712899));
#1319 = VECTOR('',#1320,1.);
#1320 = DIRECTION('',(-0.252833958004,-0.189062950656,0.948857307697));
#1321 = CARTESIAN_POINT('',(1.2E+03,-457.6557395597,92.297900712899));
#1322 = CARTESIAN_POINT('',(1.13E+03,-510.,355.));
#1323 = ( GEOMETRIC_REPRESENTATION_CONTEXT(3) 
GLOBAL_UNCERTAINTY_ASSIGNED_CONTEXT((#1327)) 
GLOBAL_UNIT_ASSIGNED_CONTEXT((#1324,#1325,#1326)) REPRESENTATION_CONTEXT
('Context #1','3D Context with UNIT and UNCERTAINTY') );
#1324 = ( LENGTH_UNIT() NAMED_UNIT(*) SI_UNIT(.MILLI.,.METRE.) );
#1325 = ( NAMED_UNIT(*) PLANE_ANGLE_UNIT() SI_UNIT($,.RADIAN.) );
#1326 = ( NAMED_UNIT(*) SI_UNIT($,.STERADIAN.) SOLID_ANGLE_UNIT() );
#1327 = UNCERTAINTY_MEASURE_WITH_UNIT(LENGTH_MEASURE(1.E-07),#1324,
  'distance_accuracy_value','confusion accuracy');
#1328 = CONTEXT_DEPENDENT_SHAPE_REPRESENTATION(#1329,#1331);
#1329 = ( REPRESENTATION_RELATIONSHIP('','',#1300,#10) 
REPRESENTATION_RELATIONSHIP_WITH_TRANSFORMATION(#1330) 
SHAPE_REPRESENTATION_RELATIONSHIP() );
#1330 = ITEM_DEFINED_TRANSFORMATION('','',#11,#91);
#1331 = PRODUCT_DEFINITION_SHAPE('Placement','Placement of an item',
  #1332);
#1332 = NEXT_ASSEMBLY_USAGE_OCCURRENCE('20','ARM_PANEL','',#5,#1295,$);
#1333 = PRODUCT_RELATED_PRODUCT_CATEGORY('part',$,(#1297));
#1334 = MECHANICAL_DESIGN_GEOMETRIC_PRESENTATION_REPRESENTATION('',(
    #1335),#235);
#1335 = STYLED_ITEM('color',(#1336),#178);
#1336 = PRESENTATION_STYLE_ASSIGNMENT((#1337));
#1337 = SURFACE_STYLE_USAGE(.BOTH.,#1338);
#1338 = SURFACE_SIDE_STYLE('',(#1339));
#1339 = SURFACE_STYLE_FILL_AREA(#1340);
#1340 = FILL_AREA_STYLE('',(#1341));
#1341 = FILL_AREA_STYLE_COLOUR('',#1342);
#1342 = COLOUR_RGB('',0.1599999992,0.369999997777,0.729999995167);
#1343 = MECHANICAL_DESIGN_GEOMETRIC_PRESENTATION_REPRESENTATION('',(
    #1344),#794);
#1344 = STYLED_ITEM('color',(#1345),#730);
#1345 = PRESENTATION_STYLE_ASSIGNMENT((#1346));
#1346 = SURFACE_STYLE_USAGE(.BOTH.,#1347);
#1347 = SURFACE_SIDE_STYLE('',(#1348));
#1348 = SURFACE_STYLE_FILL_AREA(#1349);
#1349 = FILL_AREA_STYLE('',(#1350));
#1350 = FILL_AREA_STYLE_COLOUR('',#1342);
#1351 = MECHANICAL_DESIGN_GEOMETRIC_PRESENTATION_REPRESENTATION('',(
    #1352),#1323);
#1352 = STYLED_ITEM('color',(#1353),#1301);
#1353 = PRESENTATION_STYLE_ASSIGNMENT((#1354));
#1354 = SURFACE_STYLE_USAGE(.BOTH.,#1355);
#1355 = SURFACE_SIDE_STYLE('',(#1356));
#1356 = SURFACE_STYLE_FILL_AREA(#1357);
#1357 = FILL_AREA_STYLE('',(#1358));
#1358 = FILL_AREA_STYLE_COLOUR('',#1359);
#1359 = COLOUR_RGB('',0.199999998682,0.649999988539,0.420000006308);
#1360 = MECHANICAL_DESIGN_GEOMETRIC_PRESENTATION_REPRESENTATION('',(
    #1361),#1056);
#1361 = STYLED_ITEM('color',(#1362),#1027);
#1362 = PRESENTATION_STYLE_ASSIGNMENT((#1363));
#1363 = SURFACE_STYLE_USAGE(.BOTH.,#1364);
#1364 = SURFACE_SIDE_STYLE('',(#1365));
#1365 = SURFACE_STYLE_FILL_AREA(#1366);
#1366 = FILL_AREA_STYLE('',(#1367));
#1367 = FILL_AREA_STYLE_COLOUR('',#1342);
#1368 = MECHANICAL_DESIGN_GEOMETRIC_PRESENTATION_REPRESENTATION('',(
    #1369),#497);
#1369 = STYLED_ITEM('color',(#1370),#454);
#1370 = PRESENTATION_STYLE_ASSIGNMENT((#1371));
#1371 = SURFACE_STYLE_USAGE(.BOTH.,#1372);
#1372 = SURFACE_SIDE_STYLE('',(#1373));
#1373 = SURFACE_STYLE_FILL_AREA(#1374);
#1374 = FILL_AREA_STYLE('',(#1375));
#1375 = FILL_AREA_STYLE_COLOUR('',#1342);
#1376 = MECHANICAL_DESIGN_GEOMETRIC_PRESENTATION_REPRESENTATION('',(
    #1377),#1008);
#1377 = STYLED_ITEM('color',(#1378),#979);
#1378 = PRESENTATION_STYLE_ASSIGNMENT((#1379));
#1379 = SURFACE_STYLE_USAGE(.BOTH.,#1380);
#1380 = SURFACE_SIDE_STYLE('',(#1381));
#1381 = SURFACE_STYLE_FILL_AREA(#1382);
#1382 = FILL_AREA_STYLE('',(#1383));
#1383 = FILL_AREA_STYLE_COLOUR('',#1384);
#1384 = COLOUR_RGB('',0.850000012718,0.250000000672,0.1599999992);
#1385 = MECHANICAL_DESIGN_GEOMETRIC_PRESENTATION_REPRESENTATION('',(
    #1386),#373);
#1386 = STYLED_ITEM('color',(#1387),#323);
#1387 = PRESENTATION_STYLE_ASSIGNMENT((#1388));
#1388 = SURFACE_STYLE_USAGE(.BOTH.,#1389);
#1389 = SURFACE_SIDE_STYLE('',(#1390));
#1390 = SURFACE_STYLE_FILL_AREA(#1391);
#1391 = FILL_AREA_STYLE('',(#1392));
#1392 = FILL_AREA_STYLE_COLOUR('',#1393);
#1393 = COLOUR_RGB('',0.500000003429,0.24000000363,0.599999994755);
#1394 = MECHANICAL_DESIGN_GEOMETRIC_PRESENTATION_REPRESENTATION('',(
    #1395),#159);
#1395 = STYLED_ITEM('color',(#1396),#109);
#1396 = PRESENTATION_STYLE_ASSIGNMENT((#1397));
#1397 = SURFACE_STYLE_USAGE(.BOTH.,#1398);
#1398 = SURFACE_SIDE_STYLE('',(#1399));
#1399 = SURFACE_STYLE_FILL_AREA(#1400);
#1400 = FILL_AREA_STYLE('',(#1401));
#1401 = FILL_AREA_STYLE_COLOUR('',#1384);
#1402 = MECHANICAL_DESIGN_GEOMETRIC_PRESENTATION_REPRESENTATION('',(
    #1403),#1186);
#1403 = STYLED_ITEM('color',(#1404),#1171);
#1404 = PRESENTATION_STYLE_ASSIGNMENT((#1405));
#1405 = SURFACE_STYLE_USAGE(.BOTH.,#1406);
#1406 = SURFACE_SIDE_STYLE('',(#1407));
#1407 = SURFACE_STYLE_FILL_AREA(#1408);
#1408 = FILL_AREA_STYLE('',(#1409));
#1409 = FILL_AREA_STYLE_COLOUR('',#1384);
#1410 = MECHANICAL_DESIGN_GEOMETRIC_PRESENTATION_REPRESENTATION('',(
    #1411),#960);
#1411 = STYLED_ITEM('color',(#1412),#896);
#1412 = PRESENTATION_STYLE_ASSIGNMENT((#1413));
#1413 = SURFACE_STYLE_USAGE(.BOTH.,#1414);
#1414 = SURFACE_SIDE_STYLE('',(#1415));
#1415 = SURFACE_STYLE_FILL_AREA(#1416);
#1416 = FILL_AREA_STYLE('',(#1417));
#1417 = FILL_AREA_STYLE_COLOUR('',#1393);
#1418 = MECHANICAL_DESIGN_GEOMETRIC_PRESENTATION_REPRESENTATION('',(
    #1419),#628);
#1419 = STYLED_ITEM('color',(#1420),#585);
#1420 = PRESENTATION_STYLE_ASSIGNMENT((#1421));
#1421 = SURFACE_STYLE_USAGE(.BOTH.,#1422);
#1422 = SURFACE_SIDE_STYLE('',(#1423));
#1423 = SURFACE_STYLE_FILL_AREA(#1424);
#1424 = FILL_AREA_STYLE('',(#1425));
#1425 = FILL_AREA_STYLE_COLOUR('',#1393);
#1426 = MECHANICAL_DESIGN_GEOMETRIC_PRESENTATION_REPRESENTATION('',(
    #1427),#566);
#1427 = STYLED_ITEM('color',(#1428),#516);
#1428 = PRESENTATION_STYLE_ASSIGNMENT((#1429));
#1429 = SURFACE_STYLE_USAGE(.BOTH.,#1430);
#1430 = SURFACE_SIDE_STYLE('',(#1431));
#1431 = SURFACE_STYLE_FILL_AREA(#1432);
#1432 = FILL_AREA_STYLE('',(#1433));
#1433 = FILL_AREA_STYLE_COLOUR('',#1342);
#1434 = MECHANICAL_DESIGN_GEOMETRIC_PRESENTATION_REPRESENTATION('',(
    #1435),#1234);
#1435 = STYLED_ITEM('color',(#1436),#1205);
#1436 = PRESENTATION_STYLE_ASSIGNMENT((#1437));
#1437 = SURFACE_STYLE_USAGE(.BOTH.,#1438);
#1438 = SURFACE_SIDE_STYLE('',(#1439));
#1439 = SURFACE_STYLE_FILL_AREA(#1440);
#1440 = FILL_AREA_STYLE('',(#1441));
#1441 = FILL_AREA_STYLE_COLOUR('',#1442);
#1442 = COLOUR_RGB('',0.149999997808,0.199999998682,0.24000000363);
#1443 = MECHANICAL_DESIGN_GEOMETRIC_PRESENTATION_REPRESENTATION('',(
    #1444),#1282);
#1444 = STYLED_ITEM('color',(#1445),#1253);
#1445 = PRESENTATION_STYLE_ASSIGNMENT((#1446));
#1446 = SURFACE_STYLE_USAGE(.BOTH.,#1447);
#1447 = SURFACE_SIDE_STYLE('',(#1448));
#1448 = SURFACE_STYLE_FILL_AREA(#1449);
#1449 = FILL_AREA_STYLE('',(#1450));
#1450 = FILL_AREA_STYLE_COLOUR('',#1442);
#1451 = MECHANICAL_DESIGN_GEOMETRIC_PRESENTATION_REPRESENTATION('',(
    #1452),#435);
#1452 = STYLED_ITEM('color',(#1453),#392);
#1453 = PRESENTATION_STYLE_ASSIGNMENT((#1454));
#1454 = SURFACE_STYLE_USAGE(.BOTH.,#1455);
#1455 = SURFACE_SIDE_STYLE('',(#1456));
#1456 = SURFACE_STYLE_FILL_AREA(#1457);
#1457 = FILL_AREA_STYLE('',(#1458));
#1458 = FILL_AREA_STYLE_COLOUR('',#1384);
#1459 = MECHANICAL_DESIGN_GEOMETRIC_PRESENTATION_REPRESENTATION('',(
    #1460),#1152);
#1460 = STYLED_ITEM('color',(#1461),#1123);
#1461 = PRESENTATION_STYLE_ASSIGNMENT((#1462));
#1462 = SURFACE_STYLE_USAGE(.BOTH.,#1463);
#1463 = SURFACE_SIDE_STYLE('',(#1464));
#1464 = SURFACE_STYLE_FILL_AREA(#1465);
#1465 = FILL_AREA_STYLE('',(#1466));
#1466 = FILL_AREA_STYLE_COLOUR('',#1393);
#1467 = MECHANICAL_DESIGN_GEOMETRIC_PRESENTATION_REPRESENTATION('',(
    #1468),#1104);
#1468 = STYLED_ITEM('color',(#1469),#1075);
#1469 = PRESENTATION_STYLE_ASSIGNMENT((#1470));
#1470 = SURFACE_STYLE_USAGE(.BOTH.,#1471);
#1471 = SURFACE_SIDE_STYLE('',(#1472));
#1472 = SURFACE_STYLE_FILL_AREA(#1473);
#1473 = FILL_AREA_STYLE('',(#1474));
#1474 = FILL_AREA_STYLE_COLOUR('',#1342);
#1475 = MECHANICAL_DESIGN_GEOMETRIC_PRESENTATION_REPRESENTATION('',(
    #1476),#877);
#1476 = STYLED_ITEM('color',(#1477),#813);
#1477 = PRESENTATION_STYLE_ASSIGNMENT((#1478));
#1478 = SURFACE_STYLE_USAGE(.BOTH.,#1479);
#1479 = SURFACE_SIDE_STYLE('',(#1480));
#1480 = SURFACE_STYLE_FILL_AREA(#1481);
#1481 = FILL_AREA_STYLE('',(#1482));
#1482 = FILL_AREA_STYLE_COLOUR('',#1342);
#1483 = MECHANICAL_DESIGN_GEOMETRIC_PRESENTATION_REPRESENTATION('',(
    #1484),#711);
#1484 = STYLED_ITEM('color',(#1485),#647);
#1485 = PRESENTATION_STYLE_ASSIGNMENT((#1486));
#1486 = SURFACE_STYLE_USAGE(.BOTH.,#1487);
#1487 = SURFACE_SIDE_STYLE('',(#1488));
#1488 = SURFACE_STYLE_FILL_AREA(#1489);
#1489 = FILL_AREA_STYLE('',(#1490));
#1490 = FILL_AREA_STYLE_COLOUR('',#1384);
#1491 = MECHANICAL_DESIGN_GEOMETRIC_PRESENTATION_REPRESENTATION('',(
    #1492),#304);
#1492 = STYLED_ITEM('color',(#1493),#254);
#1493 = PRESENTATION_STYLE_ASSIGNMENT((#1494));
#1494 = SURFACE_STYLE_USAGE(.BOTH.,#1495);
#1495 = SURFACE_SIDE_STYLE('',(#1496));
#1496 = SURFACE_STYLE_FILL_AREA(#1497);
#1497 = FILL_AREA_STYLE('',(#1498));
#1498 = FILL_AREA_STYLE_COLOUR('',#1342);
ENDSEC;
END-ISO-10303-21;
