  0
SECTION
  2
HEADER
  9
$ACADVER
  1
AC1024
  9
$ACADMAINTVER
 70
6
  9
$DWGCODEPAGE
  3
ANSI_1252
  9
$LASTSAVEDBY
  1
ezdxf
  9
$INSBASE
 10
0.0
 20
0.0
 30
0.0
  9
$EXTMIN
 10
1e+20
 20
1e+20
 30
1e+20
  9
$EXTMAX
 10
-1e+20
 20
-1e+20
 30
-1e+20
  9
$LIMMIN
 10
0.0
 20
0.0
  9
$LIMMAX
 10
420.0
 20
297.0
  9
$ORTHOMODE
 70
0
  9
$REGENMODE
 70
1
  9
$FILLMODE
 70
1
  9
$QTEXTMODE
 70
0
  9
$MIRRTEXT
 70
1
  9
$LTSCALE
 40
1.0
  9
$ATTMODE
 70
1
  9
$TEXTSIZE
 40
2.5
  9
$TRACEWID
 40
1.0
  9
$TEXTSTYLE
  7
Standard
  9
$CLAYER
  8
0
  9
$CELTYPE
  6
ByLayer
  9
$CECOLOR
 62
256
  9
$CELTSCALE
 40
1.0
  9
$DISPSILH
 70
0
  9
$DIMSCALE
 40
1.0
  9
$DIMASZ
 40
2.5
  9
$DIMEXO
 40
0.625
  9
$DIMDLI
 40
3.75
  9
$DIMRND
 40
0.0
  9
$DIMDLE
 40
0.0
  9
$DIMEXE
 40
1.25
  9
$DIMTP
 40
0.0
  9
$DIMTM
 40
0.0
  9
$DIMTXT
 40
2.5
  9
$DIMCEN
 40
2.5
  9
$DIMTSZ
 40
0.0
  9
$DIMTOL
 70
0
  9
$DIMLIM
 70
0
  9
$DIMTIH
 70
0
  9
$DIMTOH
 70
0
  9
$DIMSE1
 70
0
  9
$DIMSE2
 70
0
  9
$DIMTAD
 70
1
  9
$DIMZIN
 70
8
  9
$DIMBLK
  1

  9
$DIMASO
 70
1
  9
$DIMSHO
 70
1
  9
$DIMPOST
  1

  9
$DIMAPOST
  1

  9
$DIMALT
 70
0
  9
$DIMALTD
 70
3
  9
$DIMALTF
 40
0.03937007874
  9
$DIMLFAC
 40
1.0
  9
$DIMTOFL
 70
1
  9
$DIMTVP
 40
0.0
  9
$DIMTIX
 70
0
  9
$DIMSOXD
 70
0
  9
$DIMSAH
 70
0
  9
$DIMBLK1
  1

  9
$DIMBLK2
  1

  9
$DIMSTYLE
  2
ISO-25
  9
$DIMCLRD
 70
0
  9
$DIMCLRE
 70
0
  9
$DIMCLRT
 70
0
  9
$DIMTFAC
 40
1.0
  9
$DIMGAP
 40
0.625
  9
$DIMJUST
 70
0
  9
$DIMSD1
 70
0
  9
$DIMSD2
 70
0
  9
$DIMTOLJ
 70
0
  9
$DIMTZIN
 70
8
  9
$DIMALTZ
 70
0
  9
$DIMALTTZ
 70
0
  9
$DIMUPT
 70
0
  9
$DIMDEC
 70
2
  9
$DIMTDEC
 70
2
  9
$DIMALTU
 70
2
  9
$DIMALTTD
 70
3
  9
$DIMTXSTY
  7
Standard
  9
$DIMAUNIT
 70
0
  9
$DIMADEC
 70
0
  9
$DIMALTRND
 40
0.0
  9
$DIMAZIN
 70
0
  9
$DIMDSEP
 70
44
  9
$DIMATFIT
 70
3
  9
$DIMFRAC
 70
0
  9
$DIMLDRBLK
  1

  9
$DIMLUNIT
 70
2
  9
$DIMLWD
 70
-2
  9
$DIMLWE
 70
-2
  9
$DIMTMOVE
 70
0
  9
$DIMFXL
 40
1.0
  9
$DIMFXLON
 70
0
  9
$DIMJOGANG
 40
0.785398163397
  9
$DIMTFILL
 70
0
  9
$DIMTFILLCLR
 70
0
  9
$DIMARCSYM
 70
0
  9
$DIMLTYPE
  6

  9
$DIMLTEX1
  6

  9
$DIMLTEX2
  6

  9
$DIMTXTDIRECTION
 70
0
  9
$LUNITS
 70
2
  9
$LUPREC
 70
4
  9
$SKETCHINC
 40
1.0
  9
$FILLETRAD
 40
10.0
  9
$AUNITS
 70
0
  9
$AUPREC
 70
2
  9
$MENU
  1
.
  9
$ELEVATION
 40
0.0
  9
$PELEVATION
 40
0.0
  9
$THICKNESS
 40
0.0
  9
$LIMCHECK
 70
0
  9
$CHAMFERA
 40
0.0
  9
$CHAMFERB
 40
0.0
  9
$CHAMFERC
 40
0.0
  9
$CHAMFERD
 40
0.0
  9
$SKPOLY
 70
0
  9
$TDCREATE
 40
2461318.7380787036
  9
$TDUCREATE
 40
2458532.153996898
  9
$TDUPDATE
 40
2461318.7380787036
  9
$TDUUPDATE
 40
2458532.1544311
  9
$TDINDWG
 40
0.0
  9
$TDUSRTIMER
 40
0.0
  9
$USRTIMER
 70
1
  9
$ANGBASE
 50
0.0
  9
$ANGDIR
 70
0
  9
$PDMODE
 70
0
  9
$PDSIZE
 40
0.0
  9
$PLINEWID
 40
0.0
  9
$SPLFRAME
 70
0
  9
$SPLINETYPE
 70
6
  9
$SPLINESEGS
 70
8
  9
$HANDSEED
  5
3F
  9
$SURFTAB1
 70
6
  9
$SURFTAB2
 70
6
  9
$SURFTYPE
 70
6
  9
$SURFU
 70
6
  9
$SURFV
 70
6
  9
$UCSBASE
  2

  9
$UCSNAME
  2

  9
$UCSORG
 10
0.0
 20
0.0
 30
0.0
  9
$UCSXDIR
 10
1.0
 20
0.0
 30
0.0
  9
$UCSYDIR
 10
0.0
 20
1.0
 30
0.0
  9
$UCSORTHOREF
  2

  9
$UCSORTHOVIEW
 70
0
  9
$UCSORGTOP
 10
0.0
 20
0.0
 30
0.0
  9
$UCSORGBOTTOM
 10
0.0
 20
0.0
 30
0.0
  9
$UCSORGLEFT
 10
0.0
 20
0.0
 30
0.0
  9
$UCSORGRIGHT
 10
0.0
 20
0.0
 30
0.0
  9
$UCSORGFRONT
 10
0.0
 20
0.0
 30
0.0
  9
$UCSORGBACK
 10
0.0
 20
0.0
 30
0.0
  9
$PUCSBASE
  2

  9
$PUCSNAME
  2

  9
$PUCSORG
 10
0.0
 20
0.0
 30
0.0
  9
$PUCSXDIR
 10
1.0
 20
0.0
 30
0.0
  9
$PUCSYDIR
 10
0.0
 20
1.0
 30
0.0
  9
$PUCSORTHOREF
  2

  9
$PUCSORTHOVIEW
 70
0
  9
$PUCSORGTOP
 10
0.0
 20
0.0
 30
0.0
  9
$PUCSORGBOTTOM
 10
0.0
 20
0.0
 30
0.0
  9
$PUCSORGLEFT
 10
0.0
 20
0.0
 30
0.0
  9
$PUCSORGRIGHT
 10
0.0
 20
0.0
 30
0.0
  9
$PUCSORGFRONT
 10
0.0
 20
0.0
 30
0.0
  9
$PUCSORGBACK
 10
0.0
 20
0.0
 30
0.0
  9
$USERI1
 70
0
  9
$USERI2
 70
0
  9
$USERI3
 70
0
  9
$USERI4
 70
0
  9
$USERI5
 70
0
  9
$USERR1
 40
0.0
  9
$USERR2
 40
0.0
  9
$USERR3
 40
0.0
  9
$USERR4
 40
0.0
  9
$USERR5
 40
0.0
  9
$WORLDVIEW
 70
1
  9
$SHADEDGE
 70
3
  9
$SHADEDIF
 70
70
  9
$TILEMODE
 70
1
  9
$MAXACTVP
 70
64
  9
$PINSBASE
 10
0.0
 20
0.0
 30
0.0
  9
$PLIMCHECK
 70
0
  9
$PEXTMIN
 10
1e+20
 20
1e+20
 30
1e+20
  9
$PEXTMAX
 10
-1e+20
 20
-1e+20
 30
-1e+20
  9
$PLIMMIN
 10
0.0
 20
0.0
  9
$PLIMMAX
 10
420.0
 20
297.0
  9
$UNITMODE
 70
0
  9
$VISRETAIN
 70
1
  9
$PLINEGEN
 70
0
  9
$PSLTSCALE
 70
1
  9
$TREEDEPTH
 70
3020
  9
$CMLSTYLE
  2
Standard
  9
$CMLJUST
 70
0
  9
$CMLSCALE
 40
20.0
  9
$PROXYGRAPHICS
 70
1
  9
$MEASUREMENT
 70
1
  9
$CELWEIGHT
370
-1
  9
$ENDCAPS
280
0
  9
$JOINSTYLE
280
0
  9
$LWDISPLAY
290
0
  9
$INSUNITS
 70
4
  9
$HYPERLINKBASE
  1

  9
$STYLESHEET
  1

  9
$XEDIT
290
1
  9
$CEPSNTYPE
380
0
  9
$PSTYLEMODE
290
1
  9
$FINGERPRINTGUID
  2
{C793AD42-9DB8-4BAF-8101-AF06CD49B3DF}
  9
$VERSIONGUID
  2
{81D446A5-F520-4F56-BC98-7BDE50DBFF09}
  9
$EXTNAMES
290
1
  9
$PSVPSCALE
 40
0.0
  9
$OLESTARTUP
290
0
  9
$SORTENTS
280
127
  9
$INDEXCTL
280
0
  9
$HIDETEXT
280
1
  9
$XCLIPFRAME
280
1
  9
$HALOGAP
280
0
  9
$OBSCOLOR
 70
257
  9
$OBSLTYPE
280
0
  9
$INTERSECTIONDISPLAY
280
0
  9
$INTERSECTIONCOLOR
 70
257
  9
$DIMASSOC
280
2
  9
$PROJECTNAME
  1

  9
$CAMERADISPLAY
290
0
  9
$LENSLENGTH
 40
50.0
  9
$CAMERAHEIGHT
 40
0.0
  9
$STEPSPERSEC
 40
24.0
  9
$STEPSIZE
 40
100.0
  9
$3DDWFPREC
 40
2.0
  9
$PSOLWIDTH
 40
0.005
  9
$PSOLHEIGHT
 40
0.08
  9
$LOFTANG1
 40
1.570796326795
  9
$LOFTANG2
 40
1.570796326795
  9
$LOFTMAG1
 40
0.0
  9
$LOFTMAG2
 40
0.0
  9
$LOFTPARAM
 70
7
  9
$LOFTNORMALS
280
1
  9
$LATITUDE
 40
37.795
  9
$LONGITUDE
 40
-122.394
  9
$NORTHDIRECTION
 40
0.0
  9
$TIMEZONE
 70
-8000
  9
$LIGHTGLYPHDISPLAY
280
1
  9
$TILEMODELIGHTSYNCH
280
1
  9
$CMATERIAL
347
20
  9
$SOLIDHIST
280
0
  9
$SHOWHIST
280
1
  9
$DWFFRAME
280
2
  9
$DGNFRAME
280
2
  9
$REALWORLDSCALE
290
1
  9
$INTERFERECOLOR
 62
256
  9
$CSHADOW
280
0
  9
$SHADOWPLANELOCATION
 40
0.0
  0
ENDSEC
  0
SECTION
  2
CLASSES
  0
CLASS
  1
ACDBDICTIONARYWDFLT
  2
AcDbDictionaryWithDefault
  3
ObjectDBX Classes
 90
0
 91
0
280
0
281
0
  0
CLASS
  1
SUN
  2
AcDbSun
  3
SCENEOE
 90
1153
 91
0
280
0
281
0
  0
CLASS
  1
VISUALSTYLE
  2
AcDbVisualStyle
  3
ObjectDBX Classes
 90
4095
 91
0
280
0
281
0
  0
CLASS
  1
MATERIAL
  2
AcDbMaterial
  3
ObjectDBX Classes
 90
1153
 91
0
280
0
281
0
  0
CLASS
  1
SCALE
  2
AcDbScale
  3
ObjectDBX Classes
 90
1153
 91
0
280
0
281
0
  0
CLASS
  1
TABLESTYLE
  2
AcDbTableStyle
  3
ObjectDBX Classes
 90
4095
 91
0
280
0
281
0
  0
CLASS
  1
MLEADERSTYLE
  2
AcDbMLeaderStyle
  3
ACDB_MLEADERSTYLE_CLASS
 90
4095
 91
0
280
0
281
0
  0
CLASS
  1
DICTIONARYVAR
  2
AcDbDictionaryVar
  3
ObjectDBX Classes
 90
0
 91
0
280
0
281
0
  0
CLASS
  1
CELLSTYLEMAP
  2
AcDbCellStyleMap
  3
ObjectDBX Classes
 90
1152
 91
0
280
0
281
0
  0
CLASS
  1
MENTALRAYRENDERSETTINGS
  2
AcDbMentalRayRenderSettings
  3
SCENEOE
 90
1024
 91
0
280
0
281
0
  0
CLASS
  1
ACDBDETAILVIEWSTYLE
  2
AcDbDetailViewStyle
  3
ObjectDBX Classes
 90
1025
 91
0
280
0
281
0
  0
CLASS
  1
ACDBSECTIONVIEWSTYLE
  2
AcDbSectionViewStyle
  3
ObjectDBX Classes
 90
1025
 91
0
280
0
281
0
  0
CLASS
  1
RASTERVARIABLES
  2
AcDbRasterVariables
  3
ISM
 90
0
 91
0
280
0
281
0
  0
CLASS
  1
ACDBPLACEHOLDER
  2
AcDbPlaceHolder
  3
ObjectDBX Classes
 90
0
 91
0
280
0
281
0
  0
CLASS
  1
LAYOUT
  2
AcDbLayout
  3
ObjectDBX Classes
 90
0
 91
0
280
0
281
0
  0
ENDSEC
  0
SECTION
  2
TABLES
  0
TABLE
  2
VPORT
  5
8
330
0
100
AcDbSymbolTable
 70
1
  0
VPORT
  5
23
330
8
100
AcDbSymbolTableRecord
100
AcDbViewportTableRecord
  2
*Active
 70
0
 10
0.0
 20
0.0
 11
1.0
 21
1.0
 12
0.0
 22
0.0
 13
0.0
 23
0.0
 14
0.5
 24
0.5
 15
0.5
 25
0.5
 16
0.0
 26
0.0
 36
1.0
 17
0.0
 27
0.0
 37
0.0
 40
1000.0
 41
1.34
 42
50.0
 43
0.0
 44
0.0
 50
0.0
 51
0.0
 71
0
 72
1000
 73
1
 74
3
 75
0
 76
0
 77
0
 78
0
281
0
 65
0
146
0.0
  0
ENDTAB
  0
TABLE
  2
LTYPE
  5
2
330
0
100
AcDbSymbolTable
 70
3
  0
LTYPE
  5
24
330
2
100
AcDbSymbolTableRecord
100
AcDbLinetypeTableRecord
  2
ByBlock
 70
0
  3

 72
65
 73
0
 40
0.0
  0
LTYPE
  5
25
330
2
100
AcDbSymbolTableRecord
100
AcDbLinetypeTableRecord
  2
ByLayer
 70
0
  3

 72
65
 73
0
 40
0.0
  0
LTYPE
  5
26
330
2
100
AcDbSymbolTableRecord
100
AcDbLinetypeTableRecord
  2
Continuous
 70
0
  3

 72
65
 73
0
 40
0.0
  0
ENDTAB
  0
TABLE
  2
LAYER
  5
1
330
0
100
AcDbSymbolTable
 70
7
  0
LAYER
  5
27
330
1
100
AcDbSymbolTableRecord
100
AcDbLayerTableRecord
  2
0
 70
0
 62
7
  6
Continuous
370
-3
390
13
347
21
  0
LAYER
  5
28
330
1
100
AcDbSymbolTableRecord
100
AcDbLayerTableRecord
  2
Defpoints
 70
0
 62
7
  6
Continuous
290
0
370
-3
390
13
347
21
  0
LAYER
  5
2F
330
1
100
AcDbSymbolTableRecord
100
AcDbLayerTableRecord
  2
CUT
 70
0
 62
1
  6
Continuous
370
-3
390
13
347
21
  0
LAYER
  5
30
330
1
100
AcDbSymbolTableRecord
100
AcDbLayerTableRecord
  2
SEAM
 70
0
 62
5
  6
Continuous
370
-3
390
13
347
21
  0
LAYER
  5
31
330
1
100
AcDbSymbolTableRecord
100
AcDbLayerTableRecord
  2
GRAIN
 70
0
 62
3
  6
Continuous
370
-3
390
13
347
21
  0
LAYER
  5
32
330
1
100
AcDbSymbolTableRecord
100
AcDbLayerTableRecord
  2
NOTCH
 70
0
 62
2
  6
Continuous
370
-3
390
13
347
21
  0
LAYER
  5
33
330
1
100
AcDbSymbolTableRecord
100
AcDbLayerTableRecord
  2
ID
 70
0
 62
7
  6
Continuous
370
-3
390
13
347
21
  0
ENDTAB
  0
TABLE
  2
STYLE
  5
5
330
0
100
AcDbSymbolTable
 70
1
  0
STYLE
  5
29
330
5
100
AcDbSymbolTableRecord
100
AcDbTextStyleTableRecord
  2
Standard
 70
0
 40
0.0
 41
1.0
 50
0.0
 71
0
 42
2.5
  3
txt
  4

  0
ENDTAB
  0
TABLE
  2
VIEW
  5
7
330
0
100
AcDbSymbolTable
 70
0
  0
ENDTAB
  0
TABLE
  2
UCS
  5
6
330
0
100
AcDbSymbolTable
 70
0
  0
ENDTAB
  0
TABLE
  2
APPID
  5
3
330
0
100
AcDbSymbolTable
 70
3
  0
APPID
  5
2A
330
3
100
AcDbSymbolTableRecord
100
AcDbRegAppTableRecord
  2
ACAD
 70
0
  0
APPID
  5
3C
330
3
100
AcDbSymbolTableRecord
100
AcDbRegAppTableRecord
  2
HATCHBACKGROUNDCOLOR
 70
0
  0
APPID
  5
3D
330
3
100
AcDbSymbolTableRecord
100
AcDbRegAppTableRecord
  2
EZDXF
 70
0
  0
ENDTAB
  0
TABLE
  2
DIMSTYLE
  5
4
330
0
100
AcDbSymbolTable
 70
1
100
AcDbDimStyleTable
  0
DIMSTYLE
105
2B
330
4
100
AcDbSymbolTableRecord
100
AcDbDimStyleTableRecord
  2
Standard
 70
0
 40
1.0
 41
2.5
 42
0.625
 43
3.75
 44
1.25
 45
0.0
 46
0.0
 47
0.0
 48
0.0
 49
2.5
140
2.5
141
2.5
142
0.0
143
0.03937007874
144
1.0
145
0.0
146
1.0
147
0.625
148
0.0
 69
0
 70
0
 71
0
 72
0
 73
0
 74
0
 75
0
 76
0
 77
1
 78
8
 79
3
170
0
171
3
172
1
173
0
174
0
175
0
176
0
177
0
178
0
179
2
271
2
272
2
273
2
274
3
275
0
276
0
277
2
278
44
279
0
280
0
281
0
282
0
283
0
284
8
285
0
286
0
288
0
289
3
290
0
371
-2
372
-2
  0
ENDTAB
  0
TABLE
  2
BLOCK_RECORD
  5
9
330
0
100
AcDbSymbolTable
 70
2
  0
BLOCK_RECORD
  5
17
330
9
100
AcDbSymbolTableRecord
100
AcDbBlockTableRecord
  2
*Model_Space
340
1A
 70
0
280
1
281
0
  0
BLOCK_RECORD
  5
1B
330
9
100
AcDbSymbolTableRecord
100
AcDbBlockTableRecord
  2
*Paper_Space
340
1E
 70
0
280
1
281
0
  0
ENDTAB
  0
ENDSEC
  0
SECTION
  2
BLOCKS
  0
BLOCK
  5
18
330
17
100
AcDbEntity
  8
0
100
AcDbBlockBegin
  2
*Model_Space
 70
0
 10
0.0
 20
0.0
 30
0.0
  3
*Model_Space
  1

  0
ENDBLK
  5
19
330
17
100
AcDbEntity
  8
0
100
AcDbBlockEnd
  0
BLOCK
  5
1C
330
1B
100
AcDbEntity
  8
0
100
AcDbBlockBegin
  2
*Paper_Space
 70
0
 10
0.0
 20
0.0
 30
0.0
  3
*Paper_Space
  1

  0
ENDBLK
  5
1D
330
1B
100
AcDbEntity
  8
0
100
AcDbBlockEnd
  0
ENDSEC
  0
SECTION
  2
ENTITIES
  0
LWPOLYLINE
  5
34
330
17
100
AcDbEntity
  8
CUT
100
AcDbPolyline
 90
201
 70
1
 10
-12.000000069321898
 20
-11.999999987634071
 10
-11.999999713229295
 20
49.64157878637682
 10
-11.999999442823112
 20
97.81213040371772
 10
-11.999999204402632
 20
144.46616537929418
 10
-11.999998997251435
 20
189.2764188268227
 10
-11.999998826659011
 20
232.08814083001513
 10
-11.999998699602203
 20
273.3889515523356
 10
-11.999998605265166
 20
315.06165582215067
 10
-11.99999853253399
 20
356.07574322027233
 10
-11.99999848006138
 20
395.8378642100324
 10
-11.999998459171794
 20
433.2722469193101
 10
-11.999998463259903
 20
467.0418640855812
 10
-11.999998491180357
 20
497.52149890449436
 10
-11.999998528635047
 20
524.9822258567921
 10
-11.999998586266717
 20
551.7249680459738
 10
-11.999998684067899
 20
578.1061298892944
 10
-11.999998822031818
 20
603.789474680685
 10
-11.999998990928544
 20
628.5505984186458
 10
-11.999999186885583
 20
652.4913023284181
 10
-11.999999400853463
 20
675.7311230239997
 10
-11.999999613427795
 20
698.8659496203276
 10
-11.999999803622798
 20
722.5376396402255
 10
-11.999999963052439
 20
746.912310557738
 10
-12.000000099502763
 20
772.072813585874
 10
-12.000000209984593
 20
797.8778040250389
 10
-12.000000286209882
 20
823.9345329086036
 10
-12.000000324290209
 20
849.8456274482248
 10
-12.000000326611444
 20
875.4677161990387
 10
-12.000000302173033
 20
900.8962435809326
 10
-12.000000254764998
 20
926.4411906058139
 10
-12.000000189086709
 20
952.2303482262937
 10
-12.000000125465753
 20
978.2045784390505
 10
-12.000000077714015
 20
1004.8880500343838
 10
-12.000000048123413
 20
1031.0550720110487
 10
-12.000000028123486
 20
1056.1537493415567
 10
-12.000000012624602
 20
1091.6579336192399
 10
-11.99999999297261
 20
1133.598477653766
 10
-11.99999996453394
 20
1174.645754548821
 10
-11.999999931036083
 20
1207.7678718137608
 10
-11.999999891419607
 20
1231.5764500099788
 10
-11.999999852765825
 20
1254.7077631422571
 10
-11.999999821155853
 20
1277.8390762707209
 10
-11.999999802779886
 20
1300.9703899643084
 10
-11.999999793549199
 20
1324.1017081822597
 10
-11.999999789175911
 20
1347.2340793302233
 10
-11.999999789049701
 20
1370.380339046526
 10
-11.999999793791513
 20
1393.536347485813
 10
-11.999999803447459
 20
1416.7202626335747
 10
-11.999999817498441
 20
1439.9238620818219
 10
-11.999999838951585
 20
1463.1423510284646
 10
-11.999999862093071
 20
1486.376772127348
 10
-11.999999883055871
 20
1509.612568143014
 10
-11.999999898756993
 20
1532.8528616907722
 10
-11.999999915663297
 20
1556.0826045779245
 10
-11.999999941223638
 20
1579.300956878631
 10
-11.999999968889492
 20
1602.5191777639768
 10
-11.999999994907165
 20
1625.7402572902413
 10
-12.000000010472007
 20
1648.9644449030372
 10
-12.000000021140963
 20
1672.1951701905318
 10
-12.000000017260609
 20
1695.432020502268
 10
-12.000000004121297
 20
1718.67607364667
 10
-11.999999987890803
 20
1741.9278582813238
 10
-11.999999975758973
 20
1765.1884321719122
 10
-11.999999965677093
 20
1788.4587219816344
 10
-11.999999953904048
 20
1811.7396781337281
 10
-11.999999940854472
 20
1835.03290370169
 10
-11.999999921306625
 20
1858.3390243750441
 10
-11.999999896383521
 20
1881.6568015458388
 10
-11.999999867090754
 20
1904.987495722361
 10
-11.999999837016519
 20
1928.3317851004413
 10
-11.99999980725561
 20
1951.6892326251786
 10
-11.999999772452028
 20
1975.0650703907038
 10
-11.999999734221012
 20
1998.4645707730754
 10
-11.999999693830434
 20
2021.890153253059
 10
-11.999999650216322
 20
2045.348696485107
 10
-11.99999959596832
 20
2068.8443561752665
 10
-11.999999530347333
 20
2092.383490561989
 10
-11.99999944337216
 20
2115.9730795118435
 10
-11.999999332231345
 20
2139.6205167789385
 10
-11.999999191107792
 20
2163.3302281297306
 10
-11.999999025373645
 20
2187.1203291891366
 10
-11.999998846668095
 20
2211.0279896963934
 10
-11.999998662013502
 20
2235.076394311033
 10
-11.99999847209174
 20
2259.289110391698
 10
-11.999998272116231
 20
2283.7110367682208
 10
-11.999998066758032
 20
2308.361522009655
 10
-11.999997866176148
 20
2333.2768310010842
 10
-11.999997668268783
 20
2358.50479051859
 10
-11.999997484546347
 20
2384.048282512266
 10
-11.99999733464062
 20
2409.9820420200413
 10
-11.999997213262128
 20
2436.457132190556
 10
-11.99999713222656
 20
2463.537574730375
 10
-11.999997112462474
 20
2491.6755807617665
 10
-11.999997160006531
 20
2521.508254899053
 10
-11.999997287333219
 20
2553.3973082481543
 10
-11.999997484114052
 20
2587.293213851769
 10
-11.99999777436246
 20
2624.200660856558
 10
-11.999998217672179
 20
2668.825712604145
 10
-11.999998953075647
 20
2728.5649677671245
 10
-12.000000172441213
 20
2813.4193173999834
 10
73.99999982979486
 20
2813.4193176383837
 10
74.0000010496858
 20
2728.5649682529106
 10
74.00000177942975
 20
2668.8257130209936
 10
74.00000222565167
 20
2624.20066120626
 10
74.00000251589863
 20
2587.2932141357555
 10
74.00000271379844
 20
2553.3973084704976
 10
74.0000028376324
 20
2521.5082550537163
 10
74.00000289058883
 20
2491.675580867889
 10
74.00000286542934
 20
2463.537574743968
 10
74.00000278675137
 20
2436.4571321479025
 10
74.00000266783482
 20
2409.982041931852
 10
74.00000251208738
 20
2384.0482823779303
 10
74.0000023341183
 20
2358.5047903549166
 10
74.00000213521304
 20
2333.276830815188
 10
74.00000192964845
 20
2308.361521808378
 10
74.00000172847928
 20
2283.7110365632275
 10
74.00000152933177
 20
2259.289110185464
 10
74.00000133621745
 20
2235.076394104456
 10
74.00000115226587
 20
2211.027989492638
 10
74.000000974872
 20
2187.1203289915734
 10
74.0000008103618
 20
2163.3302279485006
 10
74.0000006684906
 20
2139.620516622781
 10
74.00000055481094
 20
2115.973079381297
 10
74.00000047022428
 20
2092.38349045669
 10
74.00000040247278
 20
2068.844356084336
 10
74.00000035006732
 20
2045.3486964078181
 10
74.00000030607302
 20
2021.8901531823349
 10
74.00000026670091
 20
1998.4645707065195
 10
74.0000002274536
 20
1975.065070326717
 10
74.0000001942832
 20
1951.6892325675396
 10
74.00000016296057
 20
1928.3317850444146
 10
74.00000013291894
 20
1904.987495668321
 10
74.00000010412532
 20
1881.6568014958043
 10
74.00000007829138
 20
1858.3390243304527
 10
74.00000005949674
 20
1835.0329036654407
 10
74.0000000454885
 20
1811.739678101954
 10
74.00000003468739
 20
1788.4587219538116
 10
74.0000000240776
 20
1765.188432144406
 10
74.00000001197603
 20
1741.9278582522516
 10
73.99999999645522
 20
1718.6760736188703
 10
73.9999999817048
 20
1695.4320204810106
 10
73.9999999793869
 20
1672.19517018916
 10
73.99999998812699
 20
1648.964444906874
 10
74.00000000686515
 20
1625.7402573061304
 10
74.00000003047933
 20
1602.5191777847149
 10
74.00000005857567
 20
1579.3009569017793
 10
74.0000000824206
 20
1556.082604595411
 10
74.00000010200361
 20
1532.8528617062086
 10
74.00000011743909
 20
1509.6125681596
 10
74.00000013720188
 20
1486.376772147752
 10
74.00000016239036
 20
1463.142351051104
 10
74.0000001811335
 20
1439.9238620976212
 10
74.0000001962581
 20
1416.7202626455658
 10
74.000000206458
 20
1393.536347492968
 10
74.00000021084145
 20
1370.3803390508106
 10
74.00000021100158
 20
1347.234079327685
 10
74.00000020672972
 20
1324.101708174906
 10
74.00000019669261
 20
1300.970389949327
 10
74.00000017774616
 20
1277.8390762444494
 10
74.00000014781507
 20
1254.7077631069549
 10
74.00000010755393
 20
1231.576449969873
 10
74.00000006977146
 20
1207.7678717840079
 10
74.00000003504456
 20
1174.6457545305013
 10
74.00000000761739
 20
1133.5984776443192
 10
73.99999998676405
 20
1091.6579336140446
 10
73.99999997121517
 20
1056.1537493344695
 10
73.99999995232074
 20
1031.0550719975033
 10
73.99999992146951
 20
1004.8880500093444
 10
73.99999987458196
 20
978.20457840094
 10
73.99999981120986
 20
952.2303481808979
 10
73.9999997452149
 20
926.4411905697082
 10
73.99999969710845
 20
900.8962435664042
 10
73.99999967345278
 20
875.4677162125477
 10
73.9999996757182
 20
849.8456274924746
 10
73.99999971332716
 20
823.9345329896817
 10
73.99999978986153
 20
797.8778041430526
 10
73.99999989929881
 20
772.0728137356145
 10
74.00000003737853
 20
746.9123107376106
 10
74.0000001974472
 20
722.5376398519935
 10
74.00000038547942
 20
698.8659498626705
 10
74.00000059809905
 20
675.7311232808781
 10
74.00000081250873
 20
652.4913025718822
 10
74.0000010107404
 20
628.5505986318703
 10
74.00000117910076
 20
603.7894748552729
 10
74.0000013130795
 20
578.1061300205038
 10
74.00000141226836
 20
551.7249681359149
 10
74.00000147368296
 20
524.9822259139295
 10
74.00000150910401
 20
497.52149893806137
 10
74.00000153336956
 20
467.0418640967478
 10
74.00000154452371
 20
433.27224691025924
 10
74.00000151889749
 20
395.8378641695021
 10
74.00000146518516
 20
356.07574315724804
 10
74.00000139341957
 20
315.0616557394839
 10
74.0000013000691
 20
273.38895144560325
 10
74.00000117171467
 20
232.0881406945635
 10
74.00000100279956
 20
189.27641866726339
 10
74.00000079701812
 20
144.46616520113298
 10
74.00000055652434
 20
97.81213020960408
 10
74.00000028663597
 20
49.64157858405638
 10
73.99999993217803
 20
-12.00000007625656
 10
-12.000000069321898
 20
-11.999999987634071
  0
LWPOLYLINE
  5
35
330
17
100
AcDbEntity
  8
SEAM
100
AcDbPolyline
 90
200
 70
1
 10
0.0
 20
0.0
 10
2.867707044579119e-07
 20
49.64157871705492
 10
5.571768884727972e-07
 20
97.81213033635552
 10
7.955973677264196e-07
 20
144.46616531796946
 10
1.0027485656451236e-06
 20
189.27641877134846
 10
1.1733409895530242e-06
 20
232.0881407821986
 10
1.3003977962592348e-06
 20
273.3889515154191
 10
1.394734834870979e-06
 20
315.06165579498554
 10
1.467466010757494e-06
 20
356.0757431989925
 10
1.519938619180884e-06
 20
395.83786419419647
 10
1.5408282056141896e-06
 20
433.2722469140664
 10
1.5367400965691534e-06
 20
467.0418640870339
 10
1.5088196428052875e-06
 20
497.5214989154868
 10
1.4713649540239106e-06
 20
524.9822258731593
 10
1.4137332833452805e-06
 20
551.7249680718343
 10
1.3159321011667146e-06
 20
578.1061299337812
 10
1.177968181891144e-06
 20
603.7894747451458
 10
1.0090714549518814e-06
 20
628.5505985004984
 10
8.13114416704261e-07
 20
652.4913024266393
 10
5.991465359878647e-07
 20
675.731123134483
 10
3.86572205838985e-07
 20
698.8659497305896
 10
1.9637720227239693e-07
 20
722.537639736642
 10
3.694756216658001e-08
 20
746.9123106362275
 10
-9.950276308100137e-08
 20
772.0728136509523
 10
-2.0998459288624984e-07
 20
797.8778040764159
 10
-2.8620988236066405e-07
 20
823.934532943708
 10
-3.242902084124886e-07
 20
849.8456274658606
 10
-3.2661144316483905e-07
 20
875.4677162001259
 10
-3.021730324699659e-07
 20
900.8962435693999
 10
-2.5476499868900366e-07
 20
926.4411905835434
 10
-1.8908670967933777e-07
 20
952.2303481957329
 10
-1.2546575383003858e-07
 20
978.2045784096579
 10
-7.771401479340255e-08
 20
1004.888050012909
 10
-4.812341318732698e-08
 20
1031.0550719974785
 10
-2.812348511639816e-08
 20
1056.1537493319945
 10
-1.2624602143688745e-08
 20
1091.6579336140014
 10
7.027389747554257e-09
 20
1133.5984776481432
 10
3.5466059618404074e-08
 20
1174.6457545405071
 10
6.896391665187367e-08
 20
1207.7678718016248
 10
1.0858039209860493e-07
 20
1231.5764499900113
 10
1.4723417491986987e-07
 20
1254.7077631222044
 10
1.788441472120488e-07
 20
1277.8390762543222
 10
1.9722011335507198e-07
 20
1300.9703899547753
 10
2.0645080095821268e-07
 20
1324.101708177471
 10
2.1082408913372468e-07
 20
1347.2340793279545
 10
2.1095029927072485e-07
 20
1370.3803390489177
 10
2.062084875242361e-07
 20
1393.5363474882702
 10
1.9655254217694598e-07
 20
1416.7202626385726
 10
1.8250155839116605e-07
 20
1439.9238620890885
 10
1.610484154408872e-07
 20
1463.1423510395523
 10
1.3790692913524154e-07
 20
1486.3767721392999
 10
1.1694412828334912e-07
 20
1509.6125681538401
 10
1.0124300759082054e-07
 20
1532.8528616988795
 10
8.433670214714204e-08
 20
1556.082604586658
 10
5.8776361199617167e-08
 20
1579.3009568918415
 10
3.11105075652451e-08
 20
1602.5191777782754
 10
5.092835050842003e-09
 20
1625.7402573036866
 10
-1.0472007945907039e-08
 20
1648.9644449110797
 10
-2.1140962166207172e-08
 20
1672.195170196043
 10
-1.7260609473071682e-08
 20
1695.4320205002641
 10
-4.121297574451134e-09
 20
1718.6760736398867
 10
1.2109197485878076e-08
 20
1741.9278582729473
 10
2.4241026292645728e-08
 20
1765.1884321656535
 10
3.432290701139176e-08
 20
1788.4587219764353
 10
4.6095951719489795e-08
 20
1811.7396781276598
 10
5.914552813805025e-08
 20
1835.0329036949672
 10
7.869337601202394e-08
 20
1858.3390243649792
 10
1.0361647850880762e-07
 20
1881.6568015330126
 10
1.3290924617419307e-07
 20
1904.9874957072946
 10
1.629834804940135e-07
 20
1928.3317850849817
 10
1.9274438897500814e-07
 20
1951.689232609889
 10
2.2754797199056056e-07
 20
1975.0650703728375
 10
2.657789884876052e-07
 20
1998.4645707534694
 10
3.0616956590475417e-07
 20
2021.8901532323684
 10
3.497836770709699e-07
 20
2045.3486964627966
 10
4.0403167994313826e-07
 20
2068.84435614756
 10
4.6965266743166775e-07
 20
2092.383490528536
 10
5.566278410846495e-07
 20
2115.9730794675993
 10
6.677686550654181e-07
 20
2139.6205167225394
 10
8.088922083368029e-07
 20
2163.330228058305
 10
9.746263543696236e-07
 20
2187.1203291055385
 10
1.153331905123747e-06
 20
2211.0279896066954
 10
1.337986497705353e-06
 20
2235.0763942188914
 10
1.5279082598936272e-06
 20
2259.2891102975714
 10
1.7278837680382795e-06
 20
2283.7110366699603
 10
1.9332419680155737e-06
 20
2308.3615219096855
 10
2.1338238516480548e-06
 20
2333.2768309044777
 10
2.331731217636979e-06
 20
2358.504790424453
 10
2.515453652650356e-06
 20
2384.048282425955
 10
2.665359379433414e-06
 20
2409.9820419506773
 10
2.786737871338896e-06
 20
2436.4571321355406
 10
2.8677734391587185e-06
 20
2463.5375746944665
 10
2.8875375255874914e-06
 20
2491.675580772462
 10
2.8399934689835157e-06
 20
2521.5082549181775
 10
2.712666780704913e-06
 20
2553.397308296068
 10
2.51588594721873e-06
 20
2587.2932139214345
 10
2.225637538685459e-06
 20
2624.2006609509285
 10
1.7823278211753476e-06
 20
2668.825712723354
 10
1.0469243538942659e-06
 20
2728.5649679148473
 10
0.0
 20
2801.4193174332486
 10
62.00000000231037
 20
2801.4193176051185
 10
62.0000010496858
 20
2728.564968080395
 10
62.00000177942976
 20
2668.8257128744076
 10
62.00000222565167
 20
2624.2006610862677
 10
62.00000251589863
 20
2587.2932140413855
 10
62.00000271379844
 20
2553.397308400436
 10
62.000002837632394
 20
2521.508255007117
 10
62.00000289058884
 20
2491.6755808465878
 10
62.00000286542933
 20
2463.5375747546977
 10
62.000002786751374
 20
2436.4571321827666
 10
62.00000266783481
 20
2409.982041985752
 10
62.00000251208738
 20
2384.0482824499973
 10
62.000002334118314
 20
2358.504790438524
 10
62.00000213521303
 20
2333.2768309098
 10
62.00000192964845
 20
2308.361521907384
 10
62.00000172847927
 20
2283.711036661158
 10
62.00000152933176
 20
2259.2891102833173
 10
62.00000133621745
 20
2235.076394200165
 10
62.00000115226586
 20
2211.0279895844287
 10
62.00000097487199
 20
2187.120329080613
 10
62.0000008103618
 20
2163.3302280314815
 10
62.00000066849059
 20
2139.620516694585
 10
62.00000055481094
 20
2115.9730794389843
 10
62.00000047022427
 20
2092.3834904997193
 10
62.00000040247278
 20
2068.844356118875
 10
62.00000035006732
 20
2045.3486964345834
 10
62.00000030607303
 20
2021.8901532048396
 10
62.000000266700916
 20
1998.4645707266882
 10
62.00000022745359
 20
1975.0650703468443
 10
62.0000001942832
 20
1951.6892325845677
 10
62.000000162960575
 20
1928.3317850605067
 10
62.00000013291894
 20
1904.9874956837637
 10
62.00000010412533
 20
1881.656801510614
 10
62.00000007829137
 20
1858.3390243437477
 10
62.00000005949674
 20
1835.0329036751177
 10
62.000000045488505
 20
1811.7396781091707
 10
62.00000003468738
 20
1788.458721959379
 10
62.000000024077586
 20
1765.1884321498774
 10
62.00000001197602
 20
1741.9278582584948
 10
61.999999996455216
 20
1718.6760736268805
 10
61.99999998170481
 20
1695.4320204886255
 10
61.99999997938689
 20
1672.1951701858425
 10
61.99999998812699
 20
1648.9644449023592
 10
62.00000000686514
 20
1625.7402572964484
 10
62.00000003047932
 20
1602.5191777725117
 10
62.00000005857566
 20
1579.300956887258
 10
62.000000082420605
 20
1556.0826045830872
 10
62.00000010200362
 20
1532.8528616960925
 10
62.000000117439086
 20
1509.6125681516298
 10
62.00000013720189
 20
1486.3767721375457
 10
62.000000162390364
 20
1463.1423510380948
 10
62.0000001811335
 20
1439.9238620879341
 10
62.00000019625809
 20
1416.7202626377439
 10
62.000000206458
 20
1393.5363474876885
 10
62.00000021084144
 20
1370.3803390485389
 10
62.000000211001584
 20
1347.234079327602
 10
62.00000020672972
 20
1324.101708177122
 10
62.0000001966926
 20
1300.970389954534
 10
62.000000177746166
 20
1277.8390762542783
 10
62.00000014781507
 20
1254.7077631224824
 10
62.00000010755393
 20
1231.5764499907596
 10
62.00000006977146
 20
1207.767871803051
 10
62.000000035044565
 20
1174.6457545430828
 10
62.000000007617395
 20
1133.5984776523374
 10
61.99999998676405
 20
1091.6579336200111
 10
61.99999997121517
 20
1056.1537493397248
 10
61.999999952320735
 20
1031.055072006537
 10
61.99999992146951
 20
1004.8880500234925
 10
61.99999987458195
 20
978.2045784220261
 10
61.99999981120986
 20
952.2303482101755
 10
61.99999974521489
 20
926.4411906004165
 10
61.99999969710844
 20
900.8962435890027
 10
61.99999967345277
 20
875.46771622265
 10
61.9999996757182
 20
849.8456274914136
 10
61.99999971332716
 20
823.9345329722642
 10
61.99999978986153
 20
797.8778041078059
 10
61.99999989929882
 20
772.0728136847233
 10
62.00000003737852
 20
746.9123106717551
 10
62.0000001974472
 20
722.5376397731894
 10
62.000000385479424
 20
698.8659497673505
 10
62.00000059809905
 20
675.7311231705927
 10
62.00000081250873
 20
652.4913024611707
 10
62.000001010740405
 20
628.5505985325091
 10
62.00000117910077
 20
603.7894747736804
 10
62.000001313079494
 20
578.1061299579051
 10
62.00000141226836
 20
551.7249680907968
 10
62.00000147368296
 20
524.9822258863716
 10
62.00000150910401
 20
497.5214989225828
 10
62.00000153336955
 20
467.0418640871943
 10
62.00000154452372
 20
433.2722469062956
 10
62.00000151889749
 20
395.8378641777169
 10
62.00000146518517
 20
356.07574317345814
 10
62.000001393419566
 20
315.06165576048124
 10
62.00000130006911
 20
273.3889514724843
 10
62.00000117171468
 20
232.08814073185704
 10
62.00000100279957
 20
189.2764187146098
 10
62.000000797018124
 20
144.4661652562404
 10
62.00000055652434
 20
97.81213027146208
 10
62.00000028663597
 20
49.641578651289585
 10
62.00000000118171
 20
-6.389063143325728e-08
  0
LINE
  5
36
330
17
100
AcDbEntity
  8
GRAIN
100
AcDbLine
 10
31.000001281988695
 20
1360.7096587810636
 30
0.0
 11
31.000001281988695
 21
1440.7096587810636
 31
0.0
  0
TEXT
  5
37
330
17
100
AcDbEntity
  8
ID
100
AcDbText
 10
-12.000000326611444
 20
2833.4193176383837
 30
0.0
 40
8.0
  1
F08_EDGE_LEFT
100
AcDbText
  0
CIRCLE
  5
38
330
17
100
AcDbEntity
  8
NOTCH
100
AcDbCircle
 10
1.3790692913524154e-07
 20
1486.3767721392999
 30
0.0
 40
1.5
  0
CIRCLE
  5
39
330
17
100
AcDbEntity
  8
NOTCH
100
AcDbCircle
 10
62.00000013720189
 20
1486.3767721375457
 30
0.0
 40
1.5
  0
CIRCLE
  5
3A
330
17
100
AcDbEntity
  8
NOTCH
100
AcDbCircle
 10
62.00000000118171
 20
-6.389063143325728e-08
 30
0.0
 40
1.5
  0
CIRCLE
  5
3B
330
17
100
AcDbEntity
  8
NOTCH
100
AcDbCircle
 10
62.00000000231037
 20
2801.4193176051185
 30
0.0
 40
1.5
  0
ENDSEC
  0
SECTION
  2
OBJECTS
  0
DICTIONARY
  5
A
330
0
100
AcDbDictionary
281
1
  3
ACAD_COLOR
350
B
  3
ACAD_GROUP
350
C
  3
ACAD_LAYOUT
350
D
  3
ACAD_MATERIAL
350
E
  3
ACAD_MLEADERSTYLE
350
F
  3
ACAD_MLINESTYLE
350
10
  3
ACAD_PLOTSETTINGS
350
11
  3
ACAD_PLOTSTYLENAME
350
12
  3
ACAD_SCALELIST
350
14
  3
ACAD_TABLESTYLE
350
15
  3
ACAD_VISUALSTYLE
350
16
  3
EZDXF_META
350
2D
  0
DICTIONARY
  5
B
330
A
100
AcDbDictionary
281
1
  0
DICTIONARY
  5
C
330
A
100
AcDbDictionary
281
1
  0
DICTIONARY
  5
D
330
A
100
AcDbDictionary
281
1
  3
Model
350
1A
  3
Layout1
350
1E
  0
DICTIONARY
  5
E
330
A
100
AcDbDictionary
281
1
  3
ByBlock
350
1F
  3
ByLayer
350
20
  3
Global
350
21
  0
DICTIONARY
  5
F
330
A
100
AcDbDictionary
281
1
  3
Standard
350
2C
  0
DICTIONARY
  5
10
330
A
100
AcDbDictionary
281
1
  3
Standard
350
22
  0
DICTIONARY
  5
11
330
A
100
AcDbDictionary
281
1
  0
ACDBDICTIONARYWDFLT
  5
12
330
A
100
AcDbDictionary
281
1
  3
Normal
350
13
100
AcDbDictionaryWithDefault
340
13
  0
ACDBPLACEHOLDER
  5
13
330
12
  0
DICTIONARY
  5
14
330
A
100
AcDbDictionary
281
1
  0
DICTIONARY
  5
15
330
A
100
AcDbDictionary
281
1
  0
DICTIONARY
  5
16
330
A
100
AcDbDictionary
281
1
  0
LAYOUT
  5
1A
330
D
100
AcDbPlotSettings
  1

  4
A3
  6

 40
7.5
 41
20.0
 42
7.5
 43
20.0
 44
420.0
 45
297.0
 46
0.0
 47
0.0
 48
0.0
 49
0.0
140
0.0
141
0.0
142
1.0
143
1.0
 70
1024
 72
1
 73
0
 74
5
  7

 75
16
 76
0
 77
2
 78
300
147
1.0
148
0.0
149
0.0
100
AcDbLayout
  1
Model
 70
1
 71
0
 10
0.0
 20
0.0
 11
420.0
 21
297.0
 12
0.0
 22
0.0
 32
0.0
 14
1e+20
 24
1e+20
 34
1e+20
 15
-1e+20
 25
-1e+20
 35
-1e+20
146
0.0
 13
0.0
 23
0.0
 33
0.0
 16
1.0
 26
0.0
 36
0.0
 17
0.0
 27
1.0
 37
0.0
 76
1
330
17
  0
LAYOUT
  5
1E
330
D
100
AcDbPlotSettings
  1

  4
A3
  6

 40
7.5
 41
20.0
 42
7.5
 43
20.0
 44
420.0
 45
297.0
 46
0.0
 47
0.0
 48
0.0
 49
0.0
140
0.0
141
0.0
142
1.0
143
1.0
 70
0
 72
1
 73
0
 74
5
  7

 75
16
 76
0
 77
2
 78
300
147
1.0
148
0.0
149
0.0
100
AcDbLayout
  1
Layout1
 70
1
 71
1
 10
0.0
 20
0.0
 11
420.0
 21
297.0
 12
0.0
 22
0.0
 32
0.0
 14
1e+20
 24
1e+20
 34
1e+20
 15
-1e+20
 25
-1e+20
 35
-1e+20
146
0.0
 13
0.0
 23
0.0
 33
0.0
 16
1.0
 26
0.0
 36
0.0
 17
0.0
 27
1.0
 37
0.0
 76
1
330
1B
  0
MATERIAL
  5
1F
102
{ACAD_REACTORS
330
E
102
}
330
E
100
AcDbMaterial
  1
ByBlock
  2

 70
0
 40
1.0
 71
1
 41
1.0
 91
-1023410177
 42
1.0
 72
1
  3

 73
1
 74
1
 75
1
 44
0.5
 73
0
 45
1.0
 46
1.0
 77
1
  4

 78
1
 79
1
170
1
 48
1.0
171
1
  6

172
1
173
1
174
1
140
1.0
141
1.0
175
1
  7

176
1
177
1
178
1
143
1.0
179
1
  8

270
1
271
1
272
1
145
1.0
146
1.0
273
1
  9

274
1
275
1
276
1
 42
1.0
 72
1
  3

 73
1
 74
1
 75
1
 94
63
  0
MATERIAL
  5
20
102
{ACAD_REACTORS
330
E
102
}
330
E
100
AcDbMaterial
  1
ByLayer
  2

 70
0
 40
1.0
 71
1
 41
1.0
 91
-1023410177
 42
1.0
 72
1
  3

 73
1
 74
1
 75
1
 44
0.5
 73
0
 45
1.0
 46
1.0
 77
1
  4

 78
1
 79
1
170
1
 48
1.0
171
1
  6

172
1
173
1
174
1
140
1.0
141
1.0
175
1
  7

176
1
177
1
178
1
143
1.0
179
1
  8

270
1
271
1
272
1
145
1.0
146
1.0
273
1
  9

274
1
275
1
276
1
 42
1.0
 72
1
  3

 73
1
 74
1
 75
1
 94
63
  0
MATERIAL
  5
21
102
{ACAD_REACTORS
330
E
102
}
330
E
100
AcDbMaterial
  1
Global
  2

 70
0
 40
1.0
 71
1
 41
1.0
 91
-1023410177
 42
1.0
 72
1
  3

 73
1
 74
1
 75
1
 44
0.5
 73
0
 45
1.0
 46
1.0
 77
1
  4

 78
1
 79
1
170
1
 48
1.0
171
1
  6

172
1
173
1
174
1
140
1.0
141
1.0
175
1
  7

176
1
177
1
178
1
143
1.0
179
1
  8

270
1
271
1
272
1
145
1.0
146
1.0
273
1
  9

274
1
275
1
276
1
 42
1.0
 72
1
  3

 73
1
 74
1
 75
1
 94
63
  0
MLINESTYLE
  5
22
102
{ACAD_REACTORS
330
10
102
}
330
10
100
AcDbMlineStyle
  2
Standard
 70
0
  3

 62
256
 51
90.0
 52
90.0
 71
2
 49
0.5
 62
256
  6
BYLAYER
 49
-0.5
 62
256
  6
BYLAYER
  0
MLEADERSTYLE
  5
2C
102
{ACAD_REACTORS
330
F
102
}
330
F
100
AcDbMLeaderStyle
179
2
170
2
171
1
172
0
 90
2
 40
0.0
 41
0.0
173
1
 91
-1056964608
 92
-2
290
1
 42
2.0
291
1
 43
8.0
  3
Standard
 44
4.0
300

342
29
174
1
175
1
176
0
178
1
 93
-1056964608
 45
4.0
292
0
297
0
 46
4.0
 94
-1056964608
 47
1.0
 49
1.0
140
1.0
294
1
141
0.0
177
0
142
1.0
295
0
296
0
143
3.75
271
0
272
9
273
9
  0
DICTIONARY
  5
2D
330
A
100
AcDbDictionary
280
1
281
1
  3
CREATED_BY_EZDXF
350
2E
  3
WRITTEN_BY_EZDXF
350
3E
  0
DICTIONARYVAR
  5
2E
330
2D
100
DictionaryVariables
280
0
  1
1.4.4 @ 2026-10-04T17:42:50.363720+00:00
  0
DICTIONARYVAR
  5
3E
330
2D
100
DictionaryVariables
280
0
  1
1.4.4 @ 2026-10-04T17:42:50.365857+00:00
  0
ENDSEC
  0
EOF
