  0
SECTION
  2
HEADER
  9
$ACADVER
  1
AC1024
  9
$ACADMAINTVER
 70
6
  9
$DWGCODEPAGE
  3
ANSI_1252
  9
$LASTSAVEDBY
  1
ezdxf
  9
$INSBASE
 10
0.0
 20
0.0
 30
0.0
  9
$EXTMIN
 10
1e+20
 20
1e+20
 30
1e+20
  9
$EXTMAX
 10
-1e+20
 20
-1e+20
 30
-1e+20
  9
$LIMMIN
 10
0.0
 20
0.0
  9
$LIMMAX
 10
420.0
 20
297.0
  9
$ORTHOMODE
 70
0
  9
$REGENMODE
 70
1
  9
$FILLMODE
 70
1
  9
$QTEXTMODE
 70
0
  9
$MIRRTEXT
 70
1
  9
$LTSCALE
 40
1.0
  9
$ATTMODE
 70
1
  9
$TEXTSIZE
 40
2.5
  9
$TRACEWID
 40
1.0
  9
$TEXTSTYLE
  7
Standard
  9
$CLAYER
  8
0
  9
$CELTYPE
  6
ByLayer
  9
$CECOLOR
 62
256
  9
$CELTSCALE
 40
1.0
  9
$DISPSILH
 70
0
  9
$DIMSCALE
 40
1.0
  9
$DIMASZ
 40
2.5
  9
$DIMEXO
 40
0.625
  9
$DIMDLI
 40
3.75
  9
$DIMRND
 40
0.0
  9
$DIMDLE
 40
0.0
  9
$DIMEXE
 40
1.25
  9
$DIMTP
 40
0.0
  9
$DIMTM
 40
0.0
  9
$DIMTXT
 40
2.5
  9
$DIMCEN
 40
2.5
  9
$DIMTSZ
 40
0.0
  9
$DIMTOL
 70
0
  9
$DIMLIM
 70
0
  9
$DIMTIH
 70
0
  9
$DIMTOH
 70
0
  9
$DIMSE1
 70
0
  9
$DIMSE2
 70
0
  9
$DIMTAD
 70
1
  9
$DIMZIN
 70
8
  9
$DIMBLK
  1

  9
$DIMASO
 70
1
  9
$DIMSHO
 70
1
  9
$DIMPOST
  1

  9
$DIMAPOST
  1

  9
$DIMALT
 70
0
  9
$DIMALTD
 70
3
  9
$DIMALTF
 40
0.03937007874
  9
$DIMLFAC
 40
1.0
  9
$DIMTOFL
 70
1
  9
$DIMTVP
 40
0.0
  9
$DIMTIX
 70
0
  9
$DIMSOXD
 70
0
  9
$DIMSAH
 70
0
  9
$DIMBLK1
  1

  9
$DIMBLK2
  1

  9
$DIMSTYLE
  2
ISO-25
  9
$DIMCLRD
 70
0
  9
$DIMCLRE
 70
0
  9
$DIMCLRT
 70
0
  9
$DIMTFAC
 40
1.0
  9
$DIMGAP
 40
0.625
  9
$DIMJUST
 70
0
  9
$DIMSD1
 70
0
  9
$DIMSD2
 70
0
  9
$DIMTOLJ
 70
0
  9
$DIMTZIN
 70
8
  9
$DIMALTZ
 70
0
  9
$DIMALTTZ
 70
0
  9
$DIMUPT
 70
0
  9
$DIMDEC
 70
2
  9
$DIMTDEC
 70
2
  9
$DIMALTU
 70
2
  9
$DIMALTTD
 70
3
  9
$DIMTXSTY
  7
Standard
  9
$DIMAUNIT
 70
0
  9
$DIMADEC
 70
0
  9
$DIMALTRND
 40
0.0
  9
$DIMAZIN
 70
0
  9
$DIMDSEP
 70
44
  9
$DIMATFIT
 70
3
  9
$DIMFRAC
 70
0
  9
$DIMLDRBLK
  1

  9
$DIMLUNIT
 70
2
  9
$DIMLWD
 70
-2
  9
$DIMLWE
 70
-2
  9
$DIMTMOVE
 70
0
  9
$DIMFXL
 40
1.0
  9
$DIMFXLON
 70
0
  9
$DIMJOGANG
 40
0.785398163397
  9
$DIMTFILL
 70
0
  9
$DIMTFILLCLR
 70
0
  9
$DIMARCSYM
 70
0
  9
$DIMLTYPE
  6

  9
$DIMLTEX1
  6

  9
$DIMLTEX2
  6

  9
$DIMTXTDIRECTION
 70
0
  9
$LUNITS
 70
2
  9
$LUPREC
 70
4
  9
$SKETCHINC
 40
1.0
  9
$FILLETRAD
 40
10.0
  9
$AUNITS
 70
0
  9
$AUPREC
 70
2
  9
$MENU
  1
.
  9
$ELEVATION
 40
0.0
  9
$PELEVATION
 40
0.0
  9
$THICKNESS
 40
0.0
  9
$LIMCHECK
 70
0
  9
$CHAMFERA
 40
0.0
  9
$CHAMFERB
 40
0.0
  9
$CHAMFERC
 40
0.0
  9
$CHAMFERD
 40
0.0
  9
$SKPOLY
 70
0
  9
$TDCREATE
 40
2461318.7380787036
  9
$TDUCREATE
 40
2458532.153996898
  9
$TDUPDATE
 40
2461318.7380787036
  9
$TDUUPDATE
 40
2458532.1544311
  9
$TDINDWG
 40
0.0
  9
$TDUSRTIMER
 40
0.0
  9
$USRTIMER
 70
1
  9
$ANGBASE
 50
0.0
  9
$ANGDIR
 70
0
  9
$PDMODE
 70
0
  9
$PDSIZE
 40
0.0
  9
$PLINEWID
 40
0.0
  9
$SPLFRAME
 70
0
  9
$SPLINETYPE
 70
6
  9
$SPLINESEGS
 70
8
  9
$HANDSEED
  5
3F
  9
$SURFTAB1
 70
6
  9
$SURFTAB2
 70
6
  9
$SURFTYPE
 70
6
  9
$SURFU
 70
6
  9
$SURFV
 70
6
  9
$UCSBASE
  2

  9
$UCSNAME
  2

  9
$UCSORG
 10
0.0
 20
0.0
 30
0.0
  9
$UCSXDIR
 10
1.0
 20
0.0
 30
0.0
  9
$UCSYDIR
 10
0.0
 20
1.0
 30
0.0
  9
$UCSORTHOREF
  2

  9
$UCSORTHOVIEW
 70
0
  9
$UCSORGTOP
 10
0.0
 20
0.0
 30
0.0
  9
$UCSORGBOTTOM
 10
0.0
 20
0.0
 30
0.0
  9
$UCSORGLEFT
 10
0.0
 20
0.0
 30
0.0
  9
$UCSORGRIGHT
 10
0.0
 20
0.0
 30
0.0
  9
$UCSORGFRONT
 10
0.0
 20
0.0
 30
0.0
  9
$UCSORGBACK
 10
0.0
 20
0.0
 30
0.0
  9
$PUCSBASE
  2

  9
$PUCSNAME
  2

  9
$PUCSORG
 10
0.0
 20
0.0
 30
0.0
  9
$PUCSXDIR
 10
1.0
 20
0.0
 30
0.0
  9
$PUCSYDIR
 10
0.0
 20
1.0
 30
0.0
  9
$PUCSORTHOREF
  2

  9
$PUCSORTHOVIEW
 70
0
  9
$PUCSORGTOP
 10
0.0
 20
0.0
 30
0.0
  9
$PUCSORGBOTTOM
 10
0.0
 20
0.0
 30
0.0
  9
$PUCSORGLEFT
 10
0.0
 20
0.0
 30
0.0
  9
$PUCSORGRIGHT
 10
0.0
 20
0.0
 30
0.0
  9
$PUCSORGFRONT
 10
0.0
 20
0.0
 30
0.0
  9
$PUCSORGBACK
 10
0.0
 20
0.0
 30
0.0
  9
$USERI1
 70
0
  9
$USERI2
 70
0
  9
$USERI3
 70
0
  9
$USERI4
 70
0
  9
$USERI5
 70
0
  9
$USERR1
 40
0.0
  9
$USERR2
 40
0.0
  9
$USERR3
 40
0.0
  9
$USERR4
 40
0.0
  9
$USERR5
 40
0.0
  9
$WORLDVIEW
 70
1
  9
$SHADEDGE
 70
3
  9
$SHADEDIF
 70
70
  9
$TILEMODE
 70
1
  9
$MAXACTVP
 70
64
  9
$PINSBASE
 10
0.0
 20
0.0
 30
0.0
  9
$PLIMCHECK
 70
0
  9
$PEXTMIN
 10
1e+20
 20
1e+20
 30
1e+20
  9
$PEXTMAX
 10
-1e+20
 20
-1e+20
 30
-1e+20
  9
$PLIMMIN
 10
0.0
 20
0.0
  9
$PLIMMAX
 10
420.0
 20
297.0
  9
$UNITMODE
 70
0
  9
$VISRETAIN
 70
1
  9
$PLINEGEN
 70
0
  9
$PSLTSCALE
 70
1
  9
$TREEDEPTH
 70
3020
  9
$CMLSTYLE
  2
Standard
  9
$CMLJUST
 70
0
  9
$CMLSCALE
 40
20.0
  9
$PROXYGRAPHICS
 70
1
  9
$MEASUREMENT
 70
1
  9
$CELWEIGHT
370
-1
  9
$ENDCAPS
280
0
  9
$JOINSTYLE
280
0
  9
$LWDISPLAY
290
0
  9
$INSUNITS
 70
4
  9
$HYPERLINKBASE
  1

  9
$STYLESHEET
  1

  9
$XEDIT
290
1
  9
$CEPSNTYPE
380
0
  9
$PSTYLEMODE
290
1
  9
$FINGERPRINTGUID
  2
{84E1BA5D-5BEC-4607-B153-8E93E6439D92}
  9
$VERSIONGUID
  2
{6ECEA791-2D52-49F9-B053-34DD9AC8098F}
  9
$EXTNAMES
290
1
  9
$PSVPSCALE
 40
0.0
  9
$OLESTARTUP
290
0
  9
$SORTENTS
280
127
  9
$INDEXCTL
280
0
  9
$HIDETEXT
280
1
  9
$XCLIPFRAME
280
1
  9
$HALOGAP
280
0
  9
$OBSCOLOR
 70
257
  9
$OBSLTYPE
280
0
  9
$INTERSECTIONDISPLAY
280
0
  9
$INTERSECTIONCOLOR
 70
257
  9
$DIMASSOC
280
2
  9
$PROJECTNAME
  1

  9
$CAMERADISPLAY
290
0
  9
$LENSLENGTH
 40
50.0
  9
$CAMERAHEIGHT
 40
0.0
  9
$STEPSPERSEC
 40
24.0
  9
$STEPSIZE
 40
100.0
  9
$3DDWFPREC
 40
2.0
  9
$PSOLWIDTH
 40
0.005
  9
$PSOLHEIGHT
 40
0.08
  9
$LOFTANG1
 40
1.570796326795
  9
$LOFTANG2
 40
1.570796326795
  9
$LOFTMAG1
 40
0.0
  9
$LOFTMAG2
 40
0.0
  9
$LOFTPARAM
 70
7
  9
$LOFTNORMALS
280
1
  9
$LATITUDE
 40
37.795
  9
$LONGITUDE
 40
-122.394
  9
$NORTHDIRECTION
 40
0.0
  9
$TIMEZONE
 70
-8000
  9
$LIGHTGLYPHDISPLAY
280
1
  9
$TILEMODELIGHTSYNCH
280
1
  9
$CMATERIAL
347
20
  9
$SOLIDHIST
280
0
  9
$SHOWHIST
280
1
  9
$DWFFRAME
280
2
  9
$DGNFRAME
280
2
  9
$REALWORLDSCALE
290
1
  9
$INTERFERECOLOR
 62
256
  9
$CSHADOW
280
0
  9
$SHADOWPLANELOCATION
 40
0.0
  0
ENDSEC
  0
SECTION
  2
CLASSES
  0
CLASS
  1
ACDBDICTIONARYWDFLT
  2
AcDbDictionaryWithDefault
  3
ObjectDBX Classes
 90
0
 91
0
280
0
281
0
  0
CLASS
  1
SUN
  2
AcDbSun
  3
SCENEOE
 90
1153
 91
0
280
0
281
0
  0
CLASS
  1
VISUALSTYLE
  2
AcDbVisualStyle
  3
ObjectDBX Classes
 90
4095
 91
0
280
0
281
0
  0
CLASS
  1
MATERIAL
  2
AcDbMaterial
  3
ObjectDBX Classes
 90
1153
 91
0
280
0
281
0
  0
CLASS
  1
SCALE
  2
AcDbScale
  3
ObjectDBX Classes
 90
1153
 91
0
280
0
281
0
  0
CLASS
  1
TABLESTYLE
  2
AcDbTableStyle
  3
ObjectDBX Classes
 90
4095
 91
0
280
0
281
0
  0
CLASS
  1
MLEADERSTYLE
  2
AcDbMLeaderStyle
  3
ACDB_MLEADERSTYLE_CLASS
 90
4095
 91
0
280
0
281
0
  0
CLASS
  1
DICTIONARYVAR
  2
AcDbDictionaryVar
  3
ObjectDBX Classes
 90
0
 91
0
280
0
281
0
  0
CLASS
  1
CELLSTYLEMAP
  2
AcDbCellStyleMap
  3
ObjectDBX Classes
 90
1152
 91
0
280
0
281
0
  0
CLASS
  1
MENTALRAYRENDERSETTINGS
  2
AcDbMentalRayRenderSettings
  3
SCENEOE
 90
1024
 91
0
280
0
281
0
  0
CLASS
  1
ACDBDETAILVIEWSTYLE
  2
AcDbDetailViewStyle
  3
ObjectDBX Classes
 90
1025
 91
0
280
0
281
0
  0
CLASS
  1
ACDBSECTIONVIEWSTYLE
  2
AcDbSectionViewStyle
  3
ObjectDBX Classes
 90
1025
 91
0
280
0
281
0
  0
CLASS
  1
RASTERVARIABLES
  2
AcDbRasterVariables
  3
ISM
 90
0
 91
0
280
0
281
0
  0
CLASS
  1
ACDBPLACEHOLDER
  2
AcDbPlaceHolder
  3
ObjectDBX Classes
 90
0
 91
0
280
0
281
0
  0
CLASS
  1
LAYOUT
  2
AcDbLayout
  3
ObjectDBX Classes
 90
0
 91
0
280
0
281
0
  0
ENDSEC
  0
SECTION
  2
TABLES
  0
TABLE
  2
VPORT
  5
8
330
0
100
AcDbSymbolTable
 70
1
  0
VPORT
  5
23
330
8
100
AcDbSymbolTableRecord
100
AcDbViewportTableRecord
  2
*Active
 70
0
 10
0.0
 20
0.0
 11
1.0
 21
1.0
 12
0.0
 22
0.0
 13
0.0
 23
0.0
 14
0.5
 24
0.5
 15
0.5
 25
0.5
 16
0.0
 26
0.0
 36
1.0
 17
0.0
 27
0.0
 37
0.0
 40
1000.0
 41
1.34
 42
50.0
 43
0.0
 44
0.0
 50
0.0
 51
0.0
 71
0
 72
1000
 73
1
 74
3
 75
0
 76
0
 77
0
 78
0
281
0
 65
0
146
0.0
  0
ENDTAB
  0
TABLE
  2
LTYPE
  5
2
330
0
100
AcDbSymbolTable
 70
3
  0
LTYPE
  5
24
330
2
100
AcDbSymbolTableRecord
100
AcDbLinetypeTableRecord
  2
ByBlock
 70
0
  3

 72
65
 73
0
 40
0.0
  0
LTYPE
  5
25
330
2
100
AcDbSymbolTableRecord
100
AcDbLinetypeTableRecord
  2
ByLayer
 70
0
  3

 72
65
 73
0
 40
0.0
  0
LTYPE
  5
26
330
2
100
AcDbSymbolTableRecord
100
AcDbLinetypeTableRecord
  2
Continuous
 70
0
  3

 72
65
 73
0
 40
0.0
  0
ENDTAB
  0
TABLE
  2
LAYER
  5
1
330
0
100
AcDbSymbolTable
 70
7
  0
LAYER
  5
27
330
1
100
AcDbSymbolTableRecord
100
AcDbLayerTableRecord
  2
0
 70
0
 62
7
  6
Continuous
370
-3
390
13
347
21
  0
LAYER
  5
28
330
1
100
AcDbSymbolTableRecord
100
AcDbLayerTableRecord
  2
Defpoints
 70
0
 62
7
  6
Continuous
290
0
370
-3
390
13
347
21
  0
LAYER
  5
2F
330
1
100
AcDbSymbolTableRecord
100
AcDbLayerTableRecord
  2
CUT
 70
0
 62
1
  6
Continuous
370
-3
390
13
347
21
  0
LAYER
  5
30
330
1
100
AcDbSymbolTableRecord
100
AcDbLayerTableRecord
  2
SEAM
 70
0
 62
5
  6
Continuous
370
-3
390
13
347
21
  0
LAYER
  5
31
330
1
100
AcDbSymbolTableRecord
100
AcDbLayerTableRecord
  2
GRAIN
 70
0
 62
3
  6
Continuous
370
-3
390
13
347
21
  0
LAYER
  5
32
330
1
100
AcDbSymbolTableRecord
100
AcDbLayerTableRecord
  2
NOTCH
 70
0
 62
2
  6
Continuous
370
-3
390
13
347
21
  0
LAYER
  5
33
330
1
100
AcDbSymbolTableRecord
100
AcDbLayerTableRecord
  2
ID
 70
0
 62
7
  6
Continuous
370
-3
390
13
347
21
  0
ENDTAB
  0
TABLE
  2
STYLE
  5
5
330
0
100
AcDbSymbolTable
 70
1
  0
STYLE
  5
29
330
5
100
AcDbSymbolTableRecord
100
AcDbTextStyleTableRecord
  2
Standard
 70
0
 40
0.0
 41
1.0
 50
0.0
 71
0
 42
2.5
  3
txt
  4

  0
ENDTAB
  0
TABLE
  2
VIEW
  5
7
330
0
100
AcDbSymbolTable
 70
0
  0
ENDTAB
  0
TABLE
  2
UCS
  5
6
330
0
100
AcDbSymbolTable
 70
0
  0
ENDTAB
  0
TABLE
  2
APPID
  5
3
330
0
100
AcDbSymbolTable
 70
3
  0
APPID
  5
2A
330
3
100
AcDbSymbolTableRecord
100
AcDbRegAppTableRecord
  2
ACAD
 70
0
  0
APPID
  5
3C
330
3
100
AcDbSymbolTableRecord
100
AcDbRegAppTableRecord
  2
HATCHBACKGROUNDCOLOR
 70
0
  0
APPID
  5
3D
330
3
100
AcDbSymbolTableRecord
100
AcDbRegAppTableRecord
  2
EZDXF
 70
0
  0
ENDTAB
  0
TABLE
  2
DIMSTYLE
  5
4
330
0
100
AcDbSymbolTable
 70
1
100
AcDbDimStyleTable
  0
DIMSTYLE
105
2B
330
4
100
AcDbSymbolTableRecord
100
AcDbDimStyleTableRecord
  2
Standard
 70
0
 40
1.0
 41
2.5
 42
0.625
 43
3.75
 44
1.25
 45
0.0
 46
0.0
 47
0.0
 48
0.0
 49
2.5
140
2.5
141
2.5
142
0.0
143
0.03937007874
144
1.0
145
0.0
146
1.0
147
0.625
148
0.0
 69
0
 70
0
 71
0
 72
0
 73
0
 74
0
 75
0
 76
0
 77
1
 78
8
 79
3
170
0
171
3
172
1
173
0
174
0
175
0
176
0
177
0
178
0
179
2
271
2
272
2
273
2
274
3
275
0
276
0
277
2
278
44
279
0
280
0
281
0
282
0
283
0
284
8
285
0
286
0
288
0
289
3
290
0
371
-2
372
-2
  0
ENDTAB
  0
TABLE
  2
BLOCK_RECORD
  5
9
330
0
100
AcDbSymbolTable
 70
2
  0
BLOCK_RECORD
  5
17
330
9
100
AcDbSymbolTableRecord
100
AcDbBlockTableRecord
  2
*Model_Space
340
1A
 70
0
280
1
281
0
  0
BLOCK_RECORD
  5
1B
330
9
100
AcDbSymbolTableRecord
100
AcDbBlockTableRecord
  2
*Paper_Space
340
1E
 70
0
280
1
281
0
  0
ENDTAB
  0
ENDSEC
  0
SECTION
  2
BLOCKS
  0
BLOCK
  5
18
330
17
100
AcDbEntity
  8
0
100
AcDbBlockBegin
  2
*Model_Space
 70
0
 10
0.0
 20
0.0
 30
0.0
  3
*Model_Space
  1

  0
ENDBLK
  5
19
330
17
100
AcDbEntity
  8
0
100
AcDbBlockEnd
  0
BLOCK
  5
1C
330
1B
100
AcDbEntity
  8
0
100
AcDbBlockBegin
  2
*Paper_Space
 70
0
 10
0.0
 20
0.0
 30
0.0
  3
*Paper_Space
  1

  0
ENDBLK
  5
1D
330
1B
100
AcDbEntity
  8
0
100
AcDbBlockEnd
  0
ENDSEC
  0
SECTION
  2
ENTITIES
  0
LWPOLYLINE
  5
34
330
17
100
AcDbEntity
  8
CUT
100
AcDbPolyline
 90
201
 70
1
 10
-2.9404682157118174
 20
-12.006448840444554
 10
-49.62763483675258
 20
12.450515292626354
 10
-92.11071877203634
 20
35.58718958741866
 10
-132.89377477430543
 20
58.753081351028534
 10
-171.59034985902304
 20
81.96113574632007
 10
-207.9287610073505
 20
105.18192369499506
 10
-242.28253988641023
 20
128.297602052123
 10
-277.02009919335006
 20
151.3688898264659
 10
-311.1002344044233
 20
174.5355600157069
 10
-343.8190735140268
 20
197.82898470214246
 10
-373.93417414296147
 20
221.3905315849461
 10
-399.44533976244935
 20
245.27053335987713
 10
-420.3129832889615
 20
269.48276213416483
 10
-435.75917106506455
 20
293.5086418364264
 10
-449.4346678491238
 20
316.9609031481148
 10
-462.39074130916987
 20
340.46474057368096
 10
-473.9609769378314
 20
364.31020607616205
 10
-483.2531771269185
 20
388.4803305722586
 10
-489.89512704778775
 20
413.15453635189033
 10
-492.3537842705161
 20
437.9448792630884
 10
-491.9726169937125
 20
462.9458762072296
 10
-486.6103639683516
 20
487.8718418476992
 10
-478.61747262899377
 20
512.1050156925376
 10
-468.44351100550745
 20
536.0227098060382
 10
-456.85943862189447
 20
559.577646327043
 10
-444.8917372059318
 20
582.7788919068041
 10
-433.35739320658354
 20
605.754287548868
 10
-422.4887206515253
 20
628.6974642636163
 10
-411.9932444204073
 20
651.8169157543323
 10
-401.1294711270508
 20
675.1331883231452
 10
-389.68733163127797
 20
698.4727377896264
 10
-377.74882603170687
 20
721.9716287308931
 10
-364.45469621357597
 20
745.2060528491772
 10
-355.0182883370564
 20
763.143419738303
 10
-361.48868331518526
 20
778.4150248414076
 10
-385.75320492579
 20
799.1611658100256
 10
-420.2318665627497
 20
821.8496520027791
 10
-455.1312851412806
 20
845.545084850976
 10
-482.10983304143855
 20
871.7538747602038
 10
-488.96538426454043
 20
899.6143323185424
 10
-489.0190363803404
 20
924.1870035459958
 10
-489.06954130814074
 20
947.3182615398464
 10
-489.1149239616027
 20
970.4521909112909
 10
-489.1501730762635
 20
993.6421889549623
 10
-488.97787470071717
 20
1016.9855886249602
 10
-488.18928497068623
 20
1040.3382891143112
 10
-487.16234572089974
 20
1063.6603244431049
 10
-485.6391892272201
 20
1086.9911788318227
 10
-483.8506827810778
 20
1110.2419324856573
 10
-481.8833299785416
 20
1133.468990972454
 10
-479.7431932326675
 20
1156.6502021809936
 10
-477.59085698336236
 20
1179.8057444901267
 10
-475.39492328598595
 20
1202.9253111343028
 10
-473.3147738129643
 20
1225.9998855811448
 10
-471.3595456581356
 20
1249.1024091101417
 10
-469.40235561319867
 20
1272.246073733974
 10
-467.4115432584106
 20
1295.3991942607718
 10
-465.38474511080744
 20
1318.5624123727061
 10
-463.2852237572052
 20
1341.7335071850837
 10
-461.1202530350953
 20
1364.9053498136557
 10
-458.8804536807643
 20
1388.080392883376
 10
-456.56295907411743
 20
1411.2582536334196
 10
-454.1600204028577
 20
1434.439654559427
 10
-451.66597965724986
 20
1457.62400249045
 10
-449.0753533586345
 20
1480.8124742851617
 10
-446.37788590755366
 20
1504.0040289636358
 10
-443.5730779823354
 20
1527.1925762141045
 10
-440.6744601466795
 20
1550.3795170127296
 10
-437.67470322445104
 20
1573.5687942994496
 10
-434.5723642872878
 20
1596.7570824907873
 10
-431.3726874141787
 20
1619.9523913461353
 10
-428.0404664394794
 20
1643.1639650835589
 10
-424.54600744054886
 20
1666.3854276633913
 10
-420.8804745572606
 20
1689.617679137641
 10
-417.0090135503487
 20
1712.8620127087484
 10
-412.9178786847303
 20
1736.1156854996539
 10
-408.5824974164454
 20
1759.3809203301157
 10
-403.9791525776187
 20
1782.6570443910362
 10
-399.08655918799894
 20
1805.9393743334654
 10
-393.8973444556645
 20
1829.2376162400226
 10
-388.3405481622068
 20
1852.5806563008377
 10
-382.2860833164155
 20
1875.9642699100284
 10
-375.6863481711554
 20
1899.366635761265
 10
-368.49444568059596
 20
1922.7974417419118
 10
-360.6097006094189
 20
1946.2467346510157
 10
-352.02865334790954
 20
1969.7018233670792
 10
-342.69306780084196
 20
1993.1748174511943
 10
-332.5375231866282
 20
2016.6439691690582
 10
-321.6038689444565
 20
2040.1176773473496
 10
-309.7392876966054
 20
2063.649351349603
 10
-296.684850578596
 20
2087.216387683621
 10
-282.34986245902206
 20
2110.8800276965835
 10
-265.9132855502168
 20
2134.7216001797146
 10
-246.54402967554057
 20
2158.6095467030214
 10
-224.0818417402088
 20
2182.3830879658453
 10
-198.76827615747413
 20
2206.1194630474633
 10
-169.09625997945392
 20
2230.0916974177326
 10
-129.54893797859805
 20
2254.1809361083515
 10
-73.29268116022193
 20
2277.9511873846905
 10
-1.9817941232069378
 20
2302.0011600380662
 10
131.92908263033902
 20
2302.293541865713
 10
203.34431096941444
 20
2278.555198285755
 10
259.70383114285323
 20
2255.030832985434
 10
299.3559687611414
 20
2231.114518879063
 10
329.13238377902445
 20
2207.27208457691
 10
354.54935980892986
 20
2183.646474870097
 10
377.1151476749104
 20
2159.97124796512
 10
396.58853255372657
 20
2136.168110701319
 10
413.12906392251125
 20
2112.3985406381566
 10
427.56724954553925
 20
2088.797724148694
 10
440.724474528157
 20
2065.2879185178813
 10
452.6917005651272
 20
2041.8082790292008
 10
463.727755347638
 20
2018.3825396477434
 10
473.9856880236536
 20
1994.9579588407857
 10
483.42368622949914
 20
1971.5259551141369
 10
492.10707515461604
 20
1948.108561673489
 10
500.0941432197559
 20
1924.6939233783373
 10
507.38829458139634
 20
1901.294746336256
 10
514.090160052106
 20
1877.9214232813242
 10
520.2466785350359
 20
1854.5644712078433
 10
525.9053560344475
 20
1831.2459190811799
 10
531.196259853323
 20
1807.970559529573
 10
536.1904756731172
 20
1784.7098165067227
 10
540.8954186000193
 20
1761.4540162181765
 10
545.3323529602769
 20
1738.2079349151504
 10
549.524992757088
 20
1714.9723489683386
 10
553.4979200075989
 20
1691.7451428824843
 10
557.2648683375189
 20
1668.5291195329962
 10
560.860697301551
 20
1645.3231379313206
 10
564.2942466058603
 20
1622.1263366180942
 10
567.5951820470376
 20
1598.945221239472
 10
570.7987498227175
 20
1575.7707014035695
 10
573.8997408811476
 20
1552.5947445273578
 10
576.8995836140048
 20
1529.4206824636794
 10
579.8056243464198
 20
1506.2446043152174
 10
582.6043387607381
 20
1483.065050033772
 10
585.2961995786648
 20
1459.8881120537449
 10
587.8914577567638
 20
1436.7148761290553
 10
590.3956018595893
 20
1413.5441893573914
 10
592.8142872529342
 20
1390.3766696117152
 10
595.1552658311317
 20
1367.2116282403447
 10
597.42140251361
 20
1344.049460518648
 10
599.622087187035
 20
1320.8877548025423
 10
601.7500149517203
 20
1297.7336081443752
 10
603.8419131721763
 20
1274.589401833018
 10
605.9001481128483
 20
1251.4545045124937
 10
607.9562415266371
 20
1228.3607393278085
 10
610.1371330204457
 20
1205.2954684642161
 10
612.4340041067329
 20
1182.1857114375002
 10
614.6867120689126
 20
1159.0472409803783
 10
616.9287791140418
 20
1135.8681440512694
 10
618.9975408794751
 20
1112.6498980421661
 10
620.887561467133
 20
1089.4071761075738
 10
622.5125844163373
 20
1066.0831954735409
 10
623.6413563418763
 20
1042.7658669370282
 10
624.5319149253191
 20
1019.4168327091144
 10
624.8061474138251
 20
996.0744079963948
 10
624.8721505956879
 20
972.8897782128882
 10
624.9277972324318
 20
949.753230331983
 10
624.9783082634336
 20
926.619312157538
 10
625.0319603819805
 20
902.0466409313962
 10
618.2981353282565
 20
874.1565122507313
 10
591.4342929866804
 20
847.8301625287726
 10
556.6386801770165
 20
823.9825571047194
 10
522.2594231549253
 20
801.1437261127251
 10
498.0857269530192
 20
780.2918248544712
 10
491.68208157696165
 20
764.9921104972842
 10
501.1967282189461
 20
747.0961214567616
 10
514.5921911659535
 20
723.9199715581256
 10
526.6331976927572
 20
700.4734376314274
 10
538.1771470404243
 20
677.1840761342349
 10
549.1426340561535
 20
653.9154657075006
 10
559.738968043061
 20
630.8420662045638
 10
570.7077250392331
 20
607.946569467604
 10
582.3422878270128
 20
585.0217609596649
 10
594.4111901395448
 20
561.8729970487564
 10
606.0980115719868
 20
538.3688703405768
 10
616.3763197750948
 20
514.4958318386115
 10
624.4749561233796
 20
490.29779233413024
 10
629.946004516525
 20
465.39548019045577
 10
630.4363422991449
 20
440.39638609576036
 10
628.0859627761084
 20
415.59554310421333
 10
621.5518232939642
 20
390.8925685701237
 10
612.3652575946204
 20
366.68209742311797
 10
600.899260457534
 20
342.7863344684662
 10
588.04594688356
 20
319.22614466848864
 10
574.4729916218733
 20
295.71438891939766
 10
559.1318671222596
 20
271.6212880111258
 10
538.3701523105979
 20
247.3181654412147
 10
512.9635089134165
 20
223.3269894106807
 10
482.95158377664114
 20
199.63416081226418
 10
450.3347741505416
 20
176.19808187135462
 10
416.35612789170966
 20
152.8828117230973
 10
381.7196472896018
 20
129.66005224664804
 10
347.46713729917207
 20
106.39457850129234
 10
311.23047295202696
 20
83.01532969395282
 10
272.6356115467684
 20
59.63851671118248
 10
231.95410500311507
 20
36.29475473139183
 10
189.57245915142448
 20
12.972786271429424
 10
142.99253613296884
 20
-11.687817795776624
 10
-2.9404682157118174
 20
-12.006448840444554
  0
LWPOLYLINE
  5
35
330
17
100
AcDbEntity
  8
SEAM
100
AcDbPolyline
 90
200
 70
1
 10
0.0
 20
0.0
 10
-43.97338613120308
 20
23.035356507066975
 10
-86.27712625995973
 20
46.07435853200413
 10
-126.84347385793352
 20
69.11715399214205
 10
-165.2722818460263
 20
92.16461656942042
 10
-201.347496456105
 20
115.21721799561504
 10
-235.61340346120625
 20
138.2737698740457
 10
-270.3273027274442
 20
161.32934360230487
 10
-304.2465580058751
 20
184.3866523610084
 10
-336.63842395741443
 20
207.44729603078443
 10
-366.1214149011041
 20
230.51429095550282
 10
-390.77530397383845
 20
253.59182977113875
 10
-410.6739477135267
 20
276.67975121810366
 10
-425.52421053959995
 20
299.77869533156303
 10
-438.99543655990857
 20
322.8806504419146
 10
-451.7308651015439
 20
345.9842120966543
 10
-462.94273015140664
 20
369.0911003092588
 10
-471.8281221999118
 20
392.20306815743476
 10
-478.05110440472237
 20
415.3208491274528
 10
-480.344731125078
 20
438.4472094766214
 10
-479.99205662245924
 20
461.5793477760772
 10
-475.0135318297544
 20
484.72158618524554
 10
-467.37855352086933
 20
507.8696247116453
 10
-457.5299273013345
 20
531.0224965303536
 10
-446.1419332125883
 20
554.1787294145211
 10
-434.1968228620707
 20
577.3361787096757
 10
-422.57143287563565
 20
600.4929299255858
 10
-411.60226426745214
 20
623.6482483434083
 10
-401.0909594544943
 20
646.8025670590082
 10
-390.30236338252723
 20
669.9574912143786
 10
-378.9501325362668
 20
693.1136460129717
 10
-367.1852947966916
 20
716.270701699565
 10
-353.9335756287196
 20
739.4310038522594
 10
-341.7507376326739
 20
762.5889721962956
 10
-351.54216163341044
 20
785.6989618092559
 10
-378.5275137974512
 20
808.7714100968132
 10
-413.5629547967288
 20
831.8262817661075
 10
-447.52239383103864
 20
854.8835027736502
 10
-471.27974009259447
 20
877.9629990932519
 10
-476.96856005818984
 20
901.0819463595794
 10
-477.0190649838066
 20
924.213204354569
 10
-477.0695699116094
 20
947.3444623495537
 10
-477.11494705167604
 20
970.4757315405811
 10
-477.1501057636498
 20
993.6070230425871
 10
-476.979369647081
 20
1016.7387640966206
 10
-476.1981964162167
 20
1039.8718379827792
 10
-475.17955487552103
 20
1063.005430358785
 10
-473.6692065566532
 20
1086.1400963303834
 10
-471.8895846416497
 20
1109.275350235652
 10
-469.92997448358966
 20
1132.4109971282207
 10
-467.79400877925
 20
1155.5470290766234
 10
-465.64348074273767
 20
1178.683092820463
 10
-463.4459703808956
 20
1201.8192591457828
 10
-461.3602904743151
 20
1224.95518129986
 10
-459.4022592927038
 20
1248.0908247448306
 10
-457.44574785532086
 20
1271.2264648716646
 10
-455.45643238754394
 20
1294.3621766229435
 10
-453.4320343636592
 20
1317.49796497368
 10
-451.3356978788305
 20
1340.6339103953692
 10
-449.1740677524485
 20
1363.7699983794548
 10
-446.93801758779097
 20
1386.9062488528684
 10
-444.62466660977384
 20
1410.0426681052259
 10
-442.22637142558034
 20
1433.1792728253777
 10
-439.73744533675415
 20
1456.316075429573
 10
-437.15256813743525
 20
1479.453087534034
 10
-434.4614176800208
 20
1502.590331676172
 10
-431.66278681925985
 20
1525.7278104917043
 10
-428.77032665464844
 20
1548.8654941746759
 10
-425.77721543487144
 20
1572.0033976198124
 10
-422.68158747804296
 20
1595.1415249005597
 10
-419.4897695457643
 20
1618.279862203133
 10
-416.168021564813
 20
1641.418483195682
 10
-412.6859762322668
 20
1664.5574541825351
 10
-409.0351027764012
 20
1687.696793789617
 10
-405.1810551580257
 20
1710.836577008539
 10
-401.1098740448671
 20
1733.976834317948
 10
-396.7976837668772
 20
1757.1176178483338
 10
-392.2209911587142
 20
1780.2589788947184
 10
-387.3578898312861
 20
1803.4009652876332
 10
-382.2033361353188
 20
1826.5435880395269
 10
-376.6940646911373
 20
1849.6869852842387
 10
-370.7015232520504
 20
1872.8314377036925
 10
-364.17419335428036
 20
1895.9770577834674
 10
-357.0694394660201
 20
1919.1239386143172
 10
-349.2858810756379
 20
1942.2723015510455
 10
-340.8165016470298
 20
1965.4221619135517
 10
-331.60879040505387
 20
1988.573634354295
 10
-321.58994524588513
 20
2011.726877829709
 10
-310.8047786708664
 20
2034.8817944960665
 10
-299.1291768011281
 20
2058.0386553442777
 10
-286.30055277481637
 20
2081.198033708164
 10
-272.26944639649736
 20
2104.36003757943
 10
-256.2984496634127
 20
2127.5262770192066
 10
-237.5093922871008
 20
2150.698669429774
 10
-215.60877465986496
 20
2173.877855640012
 10
-190.88284229524285
 20
2197.0632106596818
 10
-162.17403470531912
 20
2220.2572619134826
 10
-124.06263904722302
 20
2243.4718428355645
 10
-69.03405082877215
 20
2266.723360858845
 10
0.0
 20
2290.005458495941
 10
129.99969012905817
 20
2290.289300614781
 10
199.13475081825905
 20
2267.3088822610175
 10
254.2643488969839
 20
2244.2978842952293
 10
292.476754415284
 20
2221.249949227179
 10
321.2865718654383
 20
2198.1814844909177
 10
346.1135140903687
 20
2175.1043235206407
 10
368.1151415780217
 20
2152.0209937409504
 10
387.0052088148171
 20
2128.930870161613
 10
403.07721540838816
 20
2105.834593611365
 10
417.2093316470908
 20
2082.734081492625
 10
430.13896553365527
 20
2059.630943866546
 10
441.915577263447
 20
2036.52528872479
 10
452.80175369849474
 20
2013.417689401151
 10
462.9216087174308
 20
1990.3084168866194
 10
472.2303298194538
 20
1967.1973733373802
 10
480.80071910784346
 20
1944.084717709896
 10
488.6852873585601
 20
1920.9705646566963
 10
495.89105110693384
 20
1897.8549294975037
 10
502.5193908652948
 20
1874.7380335873843
 10
508.6129421648923
 20
1851.6199700167765
 10
514.2232234696229
 20
1828.500851271591
 10
519.4787870262045
 20
1805.3809580334337
 10
524.4428982139675
 20
1782.2604284364234
 10
529.1206006823402
 20
1759.1392734928195
 10
533.5338008205246
 20
1736.0175410332024
 10
537.7059917933683
 20
1712.8952823527022
 10
541.6610492717929
 20
1689.7725495815569
 10
545.4129325873092
 20
1666.6493731987707
 10
548.9959877797559
 20
1643.5258281955432
 10
552.4187456207582
 20
1620.4019331982092
 10
555.7115734131595
 20
1597.2777545107379
 10
558.9082112302789
 20
1574.1533658015564
 10
562.0023323107707
 20
1551.0287532567017
 10
564.995802335752
 20
1527.9039209497075
 10
567.8954430574071
 20
1504.7788837752655
 10
570.6876033754907
 20
1481.6536119274476
 10
573.3734904352023
 20
1458.5281080419088
 10
575.9634263847482
 20
1435.402394656188
 10
578.4627314290758
 20
1412.2764833863023
 10
580.8770922669277
 20
1389.1503866487817
 10
583.2141522920008
 20
1366.0241211321284
 10
585.4767922775279
 20
1342.897693126346
 10
587.6741386225029
 20
1319.7711225579858
 10
589.7995465062942
 20
1296.6443949188056
 10
591.8898718335455
 20
1273.5175906801098
 10
593.9473931318105
 20
1250.3907148169444
 10
596.0064341734469
 20
1227.2638422720056
 10
598.193123940756
 20
1204.1372484360384
 10
600.4916441638155
 20
1181.0108987714775
 10
602.7431820607741
 20
1157.884446525329
 10
604.9801576265953
 20
1134.7579624837467
 10
607.0407776460386
 20
1111.6310933864258
 10
608.9214094239934
 20
1088.5038313016635
 10
610.5327676065953
 20
1065.3759812833603
 10
611.6524190110214
 20
1042.2470576694047
 10
612.5346021023951
 20
1019.1176155656185
 10
612.8063480777948
 20
995.9868406296762
 10
612.8721992227493
 20
972.855616141714
 10
612.9278319390111
 20
949.7243693427712
 10
612.9783368669024
 20
926.5931113477848
 10
613.0288417951076
 20
903.4618533528003
 10
607.4410316876896
 20
880.3182846239363
 10
583.7846952959814
 20
857.1352649698732
 10
549.9262661327541
 20
833.9299699983576
 10
514.9918349906619
 20
810.7223256870502
 10
488.10749267545503
 20
787.5322579924962
 10
478.4170785278046
 20
764.379731618031
 10
490.70092638126243
 20
741.275183983976
 10
504.0536554076996
 20
718.172970145095
 10
515.9195030076573
 20
695.0675098414129
 10
527.3727437171918
 20
671.9611486503343
 10
538.2623496533255
 20
648.8535568156002
 10
548.8746643287717
 20
625.7453595409587
 10
559.9448427984697
 20
602.6381619688922
 10
571.671242647382
 20
579.5323971948002
 10
583.717362860633
 20
556.4273305004234
 10
595.2063668119661
 20
533.3210473947969
 10
605.1560028934573
 20
510.2114032237688
 10
612.8919910640936
 20
487.0969257600531
 10
617.9715257183655
 20
463.97664817965983
 10
618.4252100824863
 20
440.8462704891047
 10
616.2325932235037
 20
417.7101148481675
 10
610.1106208801913
 20
394.56537982858094
 10
601.3262386932859
 20
371.414831686794
 10
590.2153835051083
 20
348.25920390965183
 10
577.5809648250984
 20
325.10024957462696
 10
564.2107486655937
 20
301.9396886949943
 10
549.4614956998664
 20
278.776116817728
 10
529.6638618205427
 20
255.6015222754134
 10
505.11098260810917
 20
232.41654510100705
 10
475.72900152458016
 20
209.22102403658366
 10
443.4381454329525
 20
186.01915171650924
 10
409.6199000143682
 20
162.81394448523494
 10
375.0070106077245
 20
139.60700222371344
 10
340.8421134610297
 20
116.40103811184862
 10
304.86790870784483
 20
93.19112354814379
 10
266.5401105754444
 20
69.97607013534872
 10
226.07477283349854
 20
46.75634960542678
 10
183.87204256278957
 20
23.532835640394804
 10
139.9996662927952
 20
0.3056761568305115
  0
LINE
  5
36
330
17
100
AcDbEntity
  8
GRAIN
100
AcDbLine
 10
69.04127901431443
 20
1105.1435465126342
 30
0.0
 11
69.04127901431443
 21
1185.1435465126342
 31
0.0
  0
TEXT
  5
37
330
17
100
AcDbEntity
  8
ID
100
AcDbText
 10
-492.3537842705161
 20
2322.293541865713
 30
0.0
 40
8.0
  1
F08_BOTTOM
100
AcDbText
  0
CIRCLE
  5
38
330
17
100
AcDbEntity
  8
NOTCH
100
AcDbCircle
 10
-467.79400877925
 20
1155.5470290766234
 30
0.0
 40
1.5
  0
CIRCLE
  5
39
330
17
100
AcDbEntity
  8
NOTCH
100
AcDbCircle
 10
602.7431820607741
 20
1157.884446525329
 30
0.0
 40
1.5
  0
CIRCLE
  5
3A
330
17
100
AcDbEntity
  8
NOTCH
100
AcDbCircle
 10
139.9996662927952
 20
0.3056761568305115
 30
0.0
 40
1.5
  0
CIRCLE
  5
3B
330
17
100
AcDbEntity
  8
NOTCH
100
AcDbCircle
 10
129.99969012905817
 20
2290.289300614781
 30
0.0
 40
1.5
  0
ENDSEC
  0
SECTION
  2
OBJECTS
  0
DICTIONARY
  5
A
330
0
100
AcDbDictionary
281
1
  3
ACAD_COLOR
350
B
  3
ACAD_GROUP
350
C
  3
ACAD_LAYOUT
350
D
  3
ACAD_MATERIAL
350
E
  3
ACAD_MLEADERSTYLE
350
F
  3
ACAD_MLINESTYLE
350
10
  3
ACAD_PLOTSETTINGS
350
11
  3
ACAD_PLOTSTYLENAME
350
12
  3
ACAD_SCALELIST
350
14
  3
ACAD_TABLESTYLE
350
15
  3
ACAD_VISUALSTYLE
350
16
  3
EZDXF_META
350
2D
  0
DICTIONARY
  5
B
330
A
100
AcDbDictionary
281
1
  0
DICTIONARY
  5
C
330
A
100
AcDbDictionary
281
1
  0
DICTIONARY
  5
D
330
A
100
AcDbDictionary
281
1
  3
Model
350
1A
  3
Layout1
350
1E
  0
DICTIONARY
  5
E
330
A
100
AcDbDictionary
281
1
  3
ByBlock
350
1F
  3
ByLayer
350
20
  3
Global
350
21
  0
DICTIONARY
  5
F
330
A
100
AcDbDictionary
281
1
  3
Standard
350
2C
  0
DICTIONARY
  5
10
330
A
100
AcDbDictionary
281
1
  3
Standard
350
22
  0
DICTIONARY
  5
11
330
A
100
AcDbDictionary
281
1
  0
ACDBDICTIONARYWDFLT
  5
12
330
A
100
AcDbDictionary
281
1
  3
Normal
350
13
100
AcDbDictionaryWithDefault
340
13
  0
ACDBPLACEHOLDER
  5
13
330
12
  0
DICTIONARY
  5
14
330
A
100
AcDbDictionary
281
1
  0
DICTIONARY
  5
15
330
A
100
AcDbDictionary
281
1
  0
DICTIONARY
  5
16
330
A
100
AcDbDictionary
281
1
  0
LAYOUT
  5
1A
330
D
100
AcDbPlotSettings
  1

  4
A3
  6

 40
7.5
 41
20.0
 42
7.5
 43
20.0
 44
420.0
 45
297.0
 46
0.0
 47
0.0
 48
0.0
 49
0.0
140
0.0
141
0.0
142
1.0
143
1.0
 70
1024
 72
1
 73
0
 74
5
  7

 75
16
 76
0
 77
2
 78
300
147
1.0
148
0.0
149
0.0
100
AcDbLayout
  1
Model
 70
1
 71
0
 10
0.0
 20
0.0
 11
420.0
 21
297.0
 12
0.0
 22
0.0
 32
0.0
 14
1e+20
 24
1e+20
 34
1e+20
 15
-1e+20
 25
-1e+20
 35
-1e+20
146
0.0
 13
0.0
 23
0.0
 33
0.0
 16
1.0
 26
0.0
 36
0.0
 17
0.0
 27
1.0
 37
0.0
 76
1
330
17
  0
LAYOUT
  5
1E
330
D
100
AcDbPlotSettings
  1

  4
A3
  6

 40
7.5
 41
20.0
 42
7.5
 43
20.0
 44
420.0
 45
297.0
 46
0.0
 47
0.0
 48
0.0
 49
0.0
140
0.0
141
0.0
142
1.0
143
1.0
 70
0
 72
1
 73
0
 74
5
  7

 75
16
 76
0
 77
2
 78
300
147
1.0
148
0.0
149
0.0
100
AcDbLayout
  1
Layout1
 70
1
 71
1
 10
0.0
 20
0.0
 11
420.0
 21
297.0
 12
0.0
 22
0.0
 32
0.0
 14
1e+20
 24
1e+20
 34
1e+20
 15
-1e+20
 25
-1e+20
 35
-1e+20
146
0.0
 13
0.0
 23
0.0
 33
0.0
 16
1.0
 26
0.0
 36
0.0
 17
0.0
 27
1.0
 37
0.0
 76
1
330
1B
  0
MATERIAL
  5
1F
102
{ACAD_REACTORS
330
E
102
}
330
E
100
AcDbMaterial
  1
ByBlock
  2

 70
0
 40
1.0
 71
1
 41
1.0
 91
-1023410177
 42
1.0
 72
1
  3

 73
1
 74
1
 75
1
 44
0.5
 73
0
 45
1.0
 46
1.0
 77
1
  4

 78
1
 79
1
170
1
 48
1.0
171
1
  6

172
1
173
1
174
1
140
1.0
141
1.0
175
1
  7

176
1
177
1
178
1
143
1.0
179
1
  8

270
1
271
1
272
1
145
1.0
146
1.0
273
1
  9

274
1
275
1
276
1
 42
1.0
 72
1
  3

 73
1
 74
1
 75
1
 94
63
  0
MATERIAL
  5
20
102
{ACAD_REACTORS
330
E
102
}
330
E
100
AcDbMaterial
  1
ByLayer
  2

 70
0
 40
1.0
 71
1
 41
1.0
 91
-1023410177
 42
1.0
 72
1
  3

 73
1
 74
1
 75
1
 44
0.5
 73
0
 45
1.0
 46
1.0
 77
1
  4

 78
1
 79
1
170
1
 48
1.0
171
1
  6

172
1
173
1
174
1
140
1.0
141
1.0
175
1
  7

176
1
177
1
178
1
143
1.0
179
1
  8

270
1
271
1
272
1
145
1.0
146
1.0
273
1
  9

274
1
275
1
276
1
 42
1.0
 72
1
  3

 73
1
 74
1
 75
1
 94
63
  0
MATERIAL
  5
21
102
{ACAD_REACTORS
330
E
102
}
330
E
100
AcDbMaterial
  1
Global
  2

 70
0
 40
1.0
 71
1
 41
1.0
 91
-1023410177
 42
1.0
 72
1
  3

 73
1
 74
1
 75
1
 44
0.5
 73
0
 45
1.0
 46
1.0
 77
1
  4

 78
1
 79
1
170
1
 48
1.0
171
1
  6

172
1
173
1
174
1
140
1.0
141
1.0
175
1
  7

176
1
177
1
178
1
143
1.0
179
1
  8

270
1
271
1
272
1
145
1.0
146
1.0
273
1
  9

274
1
275
1
276
1
 42
1.0
 72
1
  3

 73
1
 74
1
 75
1
 94
63
  0
MLINESTYLE
  5
22
102
{ACAD_REACTORS
330
10
102
}
330
10
100
AcDbMlineStyle
  2
Standard
 70
0
  3

 62
256
 51
90.0
 52
90.0
 71
2
 49
0.5
 62
256
  6
BYLAYER
 49
-0.5
 62
256
  6
BYLAYER
  0
MLEADERSTYLE
  5
2C
102
{ACAD_REACTORS
330
F
102
}
330
F
100
AcDbMLeaderStyle
179
2
170
2
171
1
172
0
 90
2
 40
0.0
 41
0.0
173
1
 91
-1056964608
 92
-2
290
1
 42
2.0
291
1
 43
8.0
  3
Standard
 44
4.0
300

342
29
174
1
175
1
176
0
178
1
 93
-1056964608
 45
4.0
292
0
297
0
 46
4.0
 94
-1056964608
 47
1.0
 49
1.0
140
1.0
294
1
141
0.0
177
0
142
1.0
295
0
296
0
143
3.75
271
0
272
9
273
9
  0
DICTIONARY
  5
2D
330
A
100
AcDbDictionary
280
1
281
1
  3
CREATED_BY_EZDXF
350
2E
  3
WRITTEN_BY_EZDXF
350
3E
  0
DICTIONARYVAR
  5
2E
330
2D
100
DictionaryVariables
280
0
  1
1.4.4 @ 2026-10-04T17:42:50.250701+00:00
  0
DICTIONARYVAR
  5
3E
330
2D
100
DictionaryVariables
280
0
  1
1.4.4 @ 2026-10-04T17:42:50.252795+00:00
  0
ENDSEC
  0
EOF
