  0
SECTION
  2
HEADER
  9
$ACADVER
  1
AC1024
  9
$ACADMAINTVER
 70
6
  9
$DWGCODEPAGE
  3
ANSI_1252
  9
$LASTSAVEDBY
  1
ezdxf
  9
$INSBASE
 10
0.0
 20
0.0
 30
0.0
  9
$EXTMIN
 10
1e+20
 20
1e+20
 30
1e+20
  9
$EXTMAX
 10
-1e+20
 20
-1e+20
 30
-1e+20
  9
$LIMMIN
 10
0.0
 20
0.0
  9
$LIMMAX
 10
420.0
 20
297.0
  9
$ORTHOMODE
 70
0
  9
$REGENMODE
 70
1
  9
$FILLMODE
 70
1
  9
$QTEXTMODE
 70
0
  9
$MIRRTEXT
 70
1
  9
$LTSCALE
 40
1.0
  9
$ATTMODE
 70
1
  9
$TEXTSIZE
 40
2.5
  9
$TRACEWID
 40
1.0
  9
$TEXTSTYLE
  7
Standard
  9
$CLAYER
  8
0
  9
$CELTYPE
  6
ByLayer
  9
$CECOLOR
 62
256
  9
$CELTSCALE
 40
1.0
  9
$DISPSILH
 70
0
  9
$DIMSCALE
 40
1.0
  9
$DIMASZ
 40
2.5
  9
$DIMEXO
 40
0.625
  9
$DIMDLI
 40
3.75
  9
$DIMRND
 40
0.0
  9
$DIMDLE
 40
0.0
  9
$DIMEXE
 40
1.25
  9
$DIMTP
 40
0.0
  9
$DIMTM
 40
0.0
  9
$DIMTXT
 40
2.5
  9
$DIMCEN
 40
2.5
  9
$DIMTSZ
 40
0.0
  9
$DIMTOL
 70
0
  9
$DIMLIM
 70
0
  9
$DIMTIH
 70
0
  9
$DIMTOH
 70
0
  9
$DIMSE1
 70
0
  9
$DIMSE2
 70
0
  9
$DIMTAD
 70
1
  9
$DIMZIN
 70
8
  9
$DIMBLK
  1

  9
$DIMASO
 70
1
  9
$DIMSHO
 70
1
  9
$DIMPOST
  1

  9
$DIMAPOST
  1

  9
$DIMALT
 70
0
  9
$DIMALTD
 70
3
  9
$DIMALTF
 40
0.03937007874
  9
$DIMLFAC
 40
1.0
  9
$DIMTOFL
 70
1
  9
$DIMTVP
 40
0.0
  9
$DIMTIX
 70
0
  9
$DIMSOXD
 70
0
  9
$DIMSAH
 70
0
  9
$DIMBLK1
  1

  9
$DIMBLK2
  1

  9
$DIMSTYLE
  2
ISO-25
  9
$DIMCLRD
 70
0
  9
$DIMCLRE
 70
0
  9
$DIMCLRT
 70
0
  9
$DIMTFAC
 40
1.0
  9
$DIMGAP
 40
0.625
  9
$DIMJUST
 70
0
  9
$DIMSD1
 70
0
  9
$DIMSD2
 70
0
  9
$DIMTOLJ
 70
0
  9
$DIMTZIN
 70
8
  9
$DIMALTZ
 70
0
  9
$DIMALTTZ
 70
0
  9
$DIMUPT
 70
0
  9
$DIMDEC
 70
2
  9
$DIMTDEC
 70
2
  9
$DIMALTU
 70
2
  9
$DIMALTTD
 70
3
  9
$DIMTXSTY
  7
Standard
  9
$DIMAUNIT
 70
0
  9
$DIMADEC
 70
0
  9
$DIMALTRND
 40
0.0
  9
$DIMAZIN
 70
0
  9
$DIMDSEP
 70
44
  9
$DIMATFIT
 70
3
  9
$DIMFRAC
 70
0
  9
$DIMLDRBLK
  1

  9
$DIMLUNIT
 70
2
  9
$DIMLWD
 70
-2
  9
$DIMLWE
 70
-2
  9
$DIMTMOVE
 70
0
  9
$DIMFXL
 40
1.0
  9
$DIMFXLON
 70
0
  9
$DIMJOGANG
 40
0.785398163397
  9
$DIMTFILL
 70
0
  9
$DIMTFILLCLR
 70
0
  9
$DIMARCSYM
 70
0
  9
$DIMLTYPE
  6

  9
$DIMLTEX1
  6

  9
$DIMLTEX2
  6

  9
$DIMTXTDIRECTION
 70
0
  9
$LUNITS
 70
2
  9
$LUPREC
 70
4
  9
$SKETCHINC
 40
1.0
  9
$FILLETRAD
 40
10.0
  9
$AUNITS
 70
0
  9
$AUPREC
 70
2
  9
$MENU
  1
.
  9
$ELEVATION
 40
0.0
  9
$PELEVATION
 40
0.0
  9
$THICKNESS
 40
0.0
  9
$LIMCHECK
 70
0
  9
$CHAMFERA
 40
0.0
  9
$CHAMFERB
 40
0.0
  9
$CHAMFERC
 40
0.0
  9
$CHAMFERD
 40
0.0
  9
$SKPOLY
 70
0
  9
$TDCREATE
 40
2461318.7378703705
  9
$TDUCREATE
 40
2458532.153996898
  9
$TDUPDATE
 40
2461318.7378703705
  9
$TDUUPDATE
 40
2458532.1544311
  9
$TDINDWG
 40
0.0
  9
$TDUSRTIMER
 40
0.0
  9
$USRTIMER
 70
1
  9
$ANGBASE
 50
0.0
  9
$ANGDIR
 70
0
  9
$PDMODE
 70
0
  9
$PDSIZE
 40
0.0
  9
$PLINEWID
 40
0.0
  9
$SPLFRAME
 70
0
  9
$SPLINETYPE
 70
6
  9
$SPLINESEGS
 70
8
  9
$HANDSEED
  5
3F
  9
$SURFTAB1
 70
6
  9
$SURFTAB2
 70
6
  9
$SURFTYPE
 70
6
  9
$SURFU
 70
6
  9
$SURFV
 70
6
  9
$UCSBASE
  2

  9
$UCSNAME
  2

  9
$UCSORG
 10
0.0
 20
0.0
 30
0.0
  9
$UCSXDIR
 10
1.0
 20
0.0
 30
0.0
  9
$UCSYDIR
 10
0.0
 20
1.0
 30
0.0
  9
$UCSORTHOREF
  2

  9
$UCSORTHOVIEW
 70
0
  9
$UCSORGTOP
 10
0.0
 20
0.0
 30
0.0
  9
$UCSORGBOTTOM
 10
0.0
 20
0.0
 30
0.0
  9
$UCSORGLEFT
 10
0.0
 20
0.0
 30
0.0
  9
$UCSORGRIGHT
 10
0.0
 20
0.0
 30
0.0
  9
$UCSORGFRONT
 10
0.0
 20
0.0
 30
0.0
  9
$UCSORGBACK
 10
0.0
 20
0.0
 30
0.0
  9
$PUCSBASE
  2

  9
$PUCSNAME
  2

  9
$PUCSORG
 10
0.0
 20
0.0
 30
0.0
  9
$PUCSXDIR
 10
1.0
 20
0.0
 30
0.0
  9
$PUCSYDIR
 10
0.0
 20
1.0
 30
0.0
  9
$PUCSORTHOREF
  2

  9
$PUCSORTHOVIEW
 70
0
  9
$PUCSORGTOP
 10
0.0
 20
0.0
 30
0.0
  9
$PUCSORGBOTTOM
 10
0.0
 20
0.0
 30
0.0
  9
$PUCSORGLEFT
 10
0.0
 20
0.0
 30
0.0
  9
$PUCSORGRIGHT
 10
0.0
 20
0.0
 30
0.0
  9
$PUCSORGFRONT
 10
0.0
 20
0.0
 30
0.0
  9
$PUCSORGBACK
 10
0.0
 20
0.0
 30
0.0
  9
$USERI1
 70
0
  9
$USERI2
 70
0
  9
$USERI3
 70
0
  9
$USERI4
 70
0
  9
$USERI5
 70
0
  9
$USERR1
 40
0.0
  9
$USERR2
 40
0.0
  9
$USERR3
 40
0.0
  9
$USERR4
 40
0.0
  9
$USERR5
 40
0.0
  9
$WORLDVIEW
 70
1
  9
$SHADEDGE
 70
3
  9
$SHADEDIF
 70
70
  9
$TILEMODE
 70
1
  9
$MAXACTVP
 70
64
  9
$PINSBASE
 10
0.0
 20
0.0
 30
0.0
  9
$PLIMCHECK
 70
0
  9
$PEXTMIN
 10
1e+20
 20
1e+20
 30
1e+20
  9
$PEXTMAX
 10
-1e+20
 20
-1e+20
 30
-1e+20
  9
$PLIMMIN
 10
0.0
 20
0.0
  9
$PLIMMAX
 10
420.0
 20
297.0
  9
$UNITMODE
 70
0
  9
$VISRETAIN
 70
1
  9
$PLINEGEN
 70
0
  9
$PSLTSCALE
 70
1
  9
$TREEDEPTH
 70
3020
  9
$CMLSTYLE
  2
Standard
  9
$CMLJUST
 70
0
  9
$CMLSCALE
 40
20.0
  9
$PROXYGRAPHICS
 70
1
  9
$MEASUREMENT
 70
1
  9
$CELWEIGHT
370
-1
  9
$ENDCAPS
280
0
  9
$JOINSTYLE
280
0
  9
$LWDISPLAY
290
0
  9
$INSUNITS
 70
4
  9
$HYPERLINKBASE
  1

  9
$STYLESHEET
  1

  9
$XEDIT
290
1
  9
$CEPSNTYPE
380
0
  9
$PSTYLEMODE
290
1
  9
$FINGERPRINTGUID
  2
{EA661A16-D838-45E1-8256-BC58A997855C}
  9
$VERSIONGUID
  2
{5175F9C8-4D9F-46AC-AEB6-924873171ADE}
  9
$EXTNAMES
290
1
  9
$PSVPSCALE
 40
0.0
  9
$OLESTARTUP
290
0
  9
$SORTENTS
280
127
  9
$INDEXCTL
280
0
  9
$HIDETEXT
280
1
  9
$XCLIPFRAME
280
1
  9
$HALOGAP
280
0
  9
$OBSCOLOR
 70
257
  9
$OBSLTYPE
280
0
  9
$INTERSECTIONDISPLAY
280
0
  9
$INTERSECTIONCOLOR
 70
257
  9
$DIMASSOC
280
2
  9
$PROJECTNAME
  1

  9
$CAMERADISPLAY
290
0
  9
$LENSLENGTH
 40
50.0
  9
$CAMERAHEIGHT
 40
0.0
  9
$STEPSPERSEC
 40
24.0
  9
$STEPSIZE
 40
100.0
  9
$3DDWFPREC
 40
2.0
  9
$PSOLWIDTH
 40
0.005
  9
$PSOLHEIGHT
 40
0.08
  9
$LOFTANG1
 40
1.570796326795
  9
$LOFTANG2
 40
1.570796326795
  9
$LOFTMAG1
 40
0.0
  9
$LOFTMAG2
 40
0.0
  9
$LOFTPARAM
 70
7
  9
$LOFTNORMALS
280
1
  9
$LATITUDE
 40
37.795
  9
$LONGITUDE
 40
-122.394
  9
$NORTHDIRECTION
 40
0.0
  9
$TIMEZONE
 70
-8000
  9
$LIGHTGLYPHDISPLAY
280
1
  9
$TILEMODELIGHTSYNCH
280
1
  9
$CMATERIAL
347
20
  9
$SOLIDHIST
280
0
  9
$SHOWHIST
280
1
  9
$DWFFRAME
280
2
  9
$DGNFRAME
280
2
  9
$REALWORLDSCALE
290
1
  9
$INTERFERECOLOR
 62
256
  9
$CSHADOW
280
0
  9
$SHADOWPLANELOCATION
 40
0.0
  0
ENDSEC
  0
SECTION
  2
CLASSES
  0
CLASS
  1
ACDBDICTIONARYWDFLT
  2
AcDbDictionaryWithDefault
  3
ObjectDBX Classes
 90
0
 91
0
280
0
281
0
  0
CLASS
  1
SUN
  2
AcDbSun
  3
SCENEOE
 90
1153
 91
0
280
0
281
0
  0
CLASS
  1
VISUALSTYLE
  2
AcDbVisualStyle
  3
ObjectDBX Classes
 90
4095
 91
0
280
0
281
0
  0
CLASS
  1
MATERIAL
  2
AcDbMaterial
  3
ObjectDBX Classes
 90
1153
 91
0
280
0
281
0
  0
CLASS
  1
SCALE
  2
AcDbScale
  3
ObjectDBX Classes
 90
1153
 91
0
280
0
281
0
  0
CLASS
  1
TABLESTYLE
  2
AcDbTableStyle
  3
ObjectDBX Classes
 90
4095
 91
0
280
0
281
0
  0
CLASS
  1
MLEADERSTYLE
  2
AcDbMLeaderStyle
  3
ACDB_MLEADERSTYLE_CLASS
 90
4095
 91
0
280
0
281
0
  0
CLASS
  1
DICTIONARYVAR
  2
AcDbDictionaryVar
  3
ObjectDBX Classes
 90
0
 91
0
280
0
281
0
  0
CLASS
  1
CELLSTYLEMAP
  2
AcDbCellStyleMap
  3
ObjectDBX Classes
 90
1152
 91
0
280
0
281
0
  0
CLASS
  1
MENTALRAYRENDERSETTINGS
  2
AcDbMentalRayRenderSettings
  3
SCENEOE
 90
1024
 91
0
280
0
281
0
  0
CLASS
  1
ACDBDETAILVIEWSTYLE
  2
AcDbDetailViewStyle
  3
ObjectDBX Classes
 90
1025
 91
0
280
0
281
0
  0
CLASS
  1
ACDBSECTIONVIEWSTYLE
  2
AcDbSectionViewStyle
  3
ObjectDBX Classes
 90
1025
 91
0
280
0
281
0
  0
CLASS
  1
RASTERVARIABLES
  2
AcDbRasterVariables
  3
ISM
 90
0
 91
0
280
0
281
0
  0
CLASS
  1
ACDBPLACEHOLDER
  2
AcDbPlaceHolder
  3
ObjectDBX Classes
 90
0
 91
0
280
0
281
0
  0
CLASS
  1
LAYOUT
  2
AcDbLayout
  3
ObjectDBX Classes
 90
0
 91
0
280
0
281
0
  0
ENDSEC
  0
SECTION
  2
TABLES
  0
TABLE
  2
VPORT
  5
8
330
0
100
AcDbSymbolTable
 70
1
  0
VPORT
  5
23
330
8
100
AcDbSymbolTableRecord
100
AcDbViewportTableRecord
  2
*Active
 70
0
 10
0.0
 20
0.0
 11
1.0
 21
1.0
 12
0.0
 22
0.0
 13
0.0
 23
0.0
 14
0.5
 24
0.5
 15
0.5
 25
0.5
 16
0.0
 26
0.0
 36
1.0
 17
0.0
 27
0.0
 37
0.0
 40
1000.0
 41
1.34
 42
50.0
 43
0.0
 44
0.0
 50
0.0
 51
0.0
 71
0
 72
1000
 73
1
 74
3
 75
0
 76
0
 77
0
 78
0
281
0
 65
0
146
0.0
  0
ENDTAB
  0
TABLE
  2
LTYPE
  5
2
330
0
100
AcDbSymbolTable
 70
3
  0
LTYPE
  5
24
330
2
100
AcDbSymbolTableRecord
100
AcDbLinetypeTableRecord
  2
ByBlock
 70
0
  3

 72
65
 73
0
 40
0.0
  0
LTYPE
  5
25
330
2
100
AcDbSymbolTableRecord
100
AcDbLinetypeTableRecord
  2
ByLayer
 70
0
  3

 72
65
 73
0
 40
0.0
  0
LTYPE
  5
26
330
2
100
AcDbSymbolTableRecord
100
AcDbLinetypeTableRecord
  2
Continuous
 70
0
  3

 72
65
 73
0
 40
0.0
  0
ENDTAB
  0
TABLE
  2
LAYER
  5
1
330
0
100
AcDbSymbolTable
 70
7
  0
LAYER
  5
27
330
1
100
AcDbSymbolTableRecord
100
AcDbLayerTableRecord
  2
0
 70
0
 62
7
  6
Continuous
370
-3
390
13
347
21
  0
LAYER
  5
28
330
1
100
AcDbSymbolTableRecord
100
AcDbLayerTableRecord
  2
Defpoints
 70
0
 62
7
  6
Continuous
290
0
370
-3
390
13
347
21
  0
LAYER
  5
2F
330
1
100
AcDbSymbolTableRecord
100
AcDbLayerTableRecord
  2
CUT
 70
0
 62
1
  6
Continuous
370
-3
390
13
347
21
  0
LAYER
  5
30
330
1
100
AcDbSymbolTableRecord
100
AcDbLayerTableRecord
  2
SEAM
 70
0
 62
5
  6
Continuous
370
-3
390
13
347
21
  0
LAYER
  5
31
330
1
100
AcDbSymbolTableRecord
100
AcDbLayerTableRecord
  2
GRAIN
 70
0
 62
3
  6
Continuous
370
-3
390
13
347
21
  0
LAYER
  5
32
330
1
100
AcDbSymbolTableRecord
100
AcDbLayerTableRecord
  2
NOTCH
 70
0
 62
2
  6
Continuous
370
-3
390
13
347
21
  0
LAYER
  5
33
330
1
100
AcDbSymbolTableRecord
100
AcDbLayerTableRecord
  2
ID
 70
0
 62
7
  6
Continuous
370
-3
390
13
347
21
  0
ENDTAB
  0
TABLE
  2
STYLE
  5
5
330
0
100
AcDbSymbolTable
 70
1
  0
STYLE
  5
29
330
5
100
AcDbSymbolTableRecord
100
AcDbTextStyleTableRecord
  2
Standard
 70
0
 40
0.0
 41
1.0
 50
0.0
 71
0
 42
2.5
  3
txt
  4

  0
ENDTAB
  0
TABLE
  2
VIEW
  5
7
330
0
100
AcDbSymbolTable
 70
0
  0
ENDTAB
  0
TABLE
  2
UCS
  5
6
330
0
100
AcDbSymbolTable
 70
0
  0
ENDTAB
  0
TABLE
  2
APPID
  5
3
330
0
100
AcDbSymbolTable
 70
3
  0
APPID
  5
2A
330
3
100
AcDbSymbolTableRecord
100
AcDbRegAppTableRecord
  2
ACAD
 70
0
  0
APPID
  5
3C
330
3
100
AcDbSymbolTableRecord
100
AcDbRegAppTableRecord
  2
HATCHBACKGROUNDCOLOR
 70
0
  0
APPID
  5
3D
330
3
100
AcDbSymbolTableRecord
100
AcDbRegAppTableRecord
  2
EZDXF
 70
0
  0
ENDTAB
  0
TABLE
  2
DIMSTYLE
  5
4
330
0
100
AcDbSymbolTable
 70
1
100
AcDbDimStyleTable
  0
DIMSTYLE
105
2B
330
4
100
AcDbSymbolTableRecord
100
AcDbDimStyleTableRecord
  2
Standard
 70
0
 40
1.0
 41
2.5
 42
0.625
 43
3.75
 44
1.25
 45
0.0
 46
0.0
 47
0.0
 48
0.0
 49
2.5
140
2.5
141
2.5
142
0.0
143
0.03937007874
144
1.0
145
0.0
146
1.0
147
0.625
148
0.0
 69
0
 70
0
 71
0
 72
0
 73
0
 74
0
 75
0
 76
0
 77
1
 78
8
 79
3
170
0
171
3
172
1
173
0
174
0
175
0
176
0
177
0
178
0
179
2
271
2
272
2
273
2
274
3
275
0
276
0
277
2
278
44
279
0
280
0
281
0
282
0
283
0
284
8
285
0
286
0
288
0
289
3
290
0
371
-2
372
-2
  0
ENDTAB
  0
TABLE
  2
BLOCK_RECORD
  5
9
330
0
100
AcDbSymbolTable
 70
2
  0
BLOCK_RECORD
  5
17
330
9
100
AcDbSymbolTableRecord
100
AcDbBlockTableRecord
  2
*Model_Space
340
1A
 70
0
280
1
281
0
  0
BLOCK_RECORD
  5
1B
330
9
100
AcDbSymbolTableRecord
100
AcDbBlockTableRecord
  2
*Paper_Space
340
1E
 70
0
280
1
281
0
  0
ENDTAB
  0
ENDSEC
  0
SECTION
  2
BLOCKS
  0
BLOCK
  5
18
330
17
100
AcDbEntity
  8
0
100
AcDbBlockBegin
  2
*Model_Space
 70
0
 10
0.0
 20
0.0
 30
0.0
  3
*Model_Space
  1

  0
ENDBLK
  5
19
330
17
100
AcDbEntity
  8
0
100
AcDbBlockEnd
  0
BLOCK
  5
1C
330
1B
100
AcDbEntity
  8
0
100
AcDbBlockBegin
  2
*Paper_Space
 70
0
 10
0.0
 20
0.0
 30
0.0
  3
*Paper_Space
  1

  0
ENDBLK
  5
1D
330
1B
100
AcDbEntity
  8
0
100
AcDbBlockEnd
  0
ENDSEC
  0
SECTION
  2
ENTITIES
  0
LWPOLYLINE
  5
34
330
17
100
AcDbEntity
  8
CUT
100
AcDbPolyline
 90
109
 70
1
 10
-11.999177698100326
 20
-12.000635372766094
 10
-12.002382733999353
 20
34.771905791347166
 10
-12.004532500988773
 20
69.54471516792782
 10
-12.00667604558025
 20
104.57459198691657
 10
-12.008853404075158
 20
139.43953518912124
 10
-12.011011089297604
 20
174.2672644127937
 10
-12.013117652124247
 20
209.06319869972762
 10
-12.015158976696556
 20
243.8391980654523
 10
-12.017133366322216
 20
278.6119526696225
 10
-12.01905357639705
 20
313.3847026285686
 10
-12.02094229173179
 20
348.1574444073277
 10
-12.022821005471561
 20
382.93017773224915
 10
-12.02470409622463
 20
417.702905302862
 10
-12.026599999988264
 20
452.47563043057033
 10
-12.028514612401766
 20
487.24835378800634
 10
-12.030453573984467
 20
522.0210756506874
 10
-12.032422667182345
 20
556.7937971399261
 10
-12.034423042322649
 20
591.5665226492127
 10
-12.036438463038207
 20
626.3392558065236
 10
-12.038400734730299
 20
661.1120133030095
 10
-12.040152858364673
 20
695.8848294233351
 10
-12.041458575059007
 20
730.6577315116023
 10
-12.04207716810419
 20
765.4307189052295
 10
-12.033230080844268
 20
897.2799491947565
 10
-12.031849559370084
 20
950.9335589796214
 10
-12.03045606771552
 20
1004.5874042523886
 10
-12.029162374867749
 20
1058.2412335527126
 10
-12.027964754136976
 20
1111.8950675633919
 10
-12.026817993034637
 20
1165.5489103413672
 10
-12.025688018900846
 20
1219.2027587230755
 10
-12.024559482732652
 20
1272.8566088542389
 10
-12.02342727660349
 20
1326.5104598933153
 10
-12.022290703264922
 20
1380.1643109042723
 10
-12.021150695127618
 20
1433.8181614785678
 10
-12.02000927933585
 20
1487.4720113546705
 10
-12.018868170004698
 20
1541.1258604381912
 10
-12.017728418140134
 20
1594.7797090396039
 10
-12.01659195468766
 20
1648.4335570234448
 10
-12.01546032132942
 20
1702.0874049988022
 10
-12.014332119617244
 20
1755.741253505325
 10
-12.013201281274014
 20
1809.39510329359
 10
-12.012054584517967
 20
1863.0489573983398
 10
-12.010869285646182
 20
1916.7030883649359
 10
-12.009615971674414
 20
1970.358255681838
 10
-12.008255121901092
 20
2024.015073052182
 10
-12.006724846675146
 20
2077.6740026308416
 10
-12.004909207470428
 20
2131.344668056502
 10
-12.00261386620187
 20
2185.093791459347
 10
-11.999736501039
 20
2239.0616836448307
 10
-12.00005885244522
 20
2304.794815879475
 10
3.6962672920673394
 20
2304.79348010737
 10
7.3558663471044445
 20
2304.7931530000837
 10
10.943734683172147
 20
2304.7928987253326
 10
14.424942747400987
 20
2304.7931437117622
 10
23.024079094294837
 20
2304.795724029852
 10
77.01326018136544
 20
2246.3095240959174
 10
110.71356418396249
 20
2190.5827711953684
 10
134.29048924672108
 20
2135.454487038438
 10
150.85433021107988
 20
2080.8218987060777
 10
163.93886479225145
 20
2026.6014939183826
 10
174.80001651562947
 20
1972.5162149361925
 10
183.74200060632552
 20
1918.4841011821313
 10
191.0467037024441
 20
1864.5178176376792
 10
197.08128131107475
 20
1810.6382803181205
 10
202.30211816275613
 20
1756.8231584796047
 10
206.86053085637238
 20
1703.0379650308957
 10
210.88681019308865
 20
1649.2811185546382
 10
214.51087838231277
 20
1595.552699354468
 10
217.86222724887776
 20
1541.8406544869547
 10
220.96170437793972
 20
1488.1295148630934
 10
223.79798305511957
 20
1434.4209896893897
 10
226.40592163994083
 20
1380.7202455223885
 10
228.82066140351702
 20
1327.0272973731032
 10
231.07675444115569
 20
1273.3558289592847
 10
233.28283531988984
 20
1219.71514385945
 10
235.70485195758963
 20
1166.0716902180461
 10
238.0082352308813
 20
1112.3440590977
 10
239.77515545919616
 20
1058.523341664456
 10
240.58424388555804
 20
1004.6739498654514
 10
240.5963688686204
 20
950.9313203668547
 10
240.59670098682915
 20
894.94159427934
 10
187.91383569244258
 20
764.5864365697403
 10
195.79431296642215
 20
733.5638142370324
 10
204.28632308868904
 20
698.6625533033799
 10
212.3397078435575
 20
663.7377110578113
 10
219.85007951812895
 20
628.9435413474305
 10
227.69647099355592
 20
594.3287497764288
 10
236.18866648856033
 20
559.5530853711681
 10
244.14080166922372
 20
524.3773336353597
 10
250.27314885994568
 20
488.7782426221698
 10
253.25314120386307
 20
452.77844333936224
 10
252.00905972384214
 20
416.6902833661212
 10
247.08736455976046
 20
380.87041677138114
 10
239.50759700295927
 20
345.38804550493415
 10
230.24458078678026
 20
310.1964390900939
 10
219.90749876688733
 20
274.5907710599475
 10
204.5745957199334
 20
238.49604846024002
 10
184.0349990283971
 20
202.7490404316503
 10
160.538136994123
 20
167.5029928747607
 10
136.03971149689676
 20
132.55896717186963
 10
111.40060490831469
 20
97.4841270093621
 10
84.30017198878508
 20
62.056659074822136
 10
55.55732073328764
 20
27.617108700583923
 10
29.57962084035062
 20
-11.998547176800015
 10
18.75205668913807
 20
-11.999034030835633
 10
14.224553742027679
 20
-11.999259855808251
 10
9.560044120974062
 20
-11.999497580627535
 10
4.803470302546805
 20
-11.999745673275914
 10
-11.999177698100326
 20
-12.000635372766094
  0
LWPOLYLINE
  5
35
330
17
100
AcDbEntity
  8
SEAM
100
AcDbPolyline
 90
108
 70
1
 10
0.0
 20
0.0
 10
-0.0023827621724826385
 20
34.77272807787983
 10
-0.004532523921432399
 20
69.54545704645456
 10
-0.006676068509269376
 20
104.57533384510755
 10
-0.008853427476091667
 20
139.44028460384814
 10
-0.011011112326710532
 20
174.26800784979574
 10
-0.013117674115151306
 20
209.06392518557283
 10
-0.015158997370159213
 20
243.83990245626862
 10
-0.017133385665880067
 20
278.6126340270667
 10
-0.01905359469366163
 20
313.385365288862
 10
-0.020942309433139836
 20
348.1580961990118
 10
-0.022821023027519576
 20
382.9308268420814
 10
-0.02470411394042464
 20
417.70355736421214
 10
-0.026600018000501047
 20
452.47628792895205
 10
-0.028514630823313975
 20
487.24901872018773
 10
-0.03045359292997535
 20
522.0217499794123
 10
-0.03242268672826427
 20
556.7944820714258
 10
-0.03442306232802094
 20
591.567215567445
 10
-0.03643848319423869
 20
626.3399513241419
 10
-0.03840075383724497
 20
661.1126904785283
 10
-0.04015287359821535
 20
695.8854340761444
 10
-0.04145858351893499
 20
730.6581821092664
 10
-0.042077170002967054
 20
765.430932378071
 10
-0.03323009120332665
 20
897.2793922110344
 10
-0.03184956334236211
 20
950.9332502164691
 10
-0.0304560714729069
 20
1004.5871037497136
 10
-0.029162378097000504
 20
1058.240954953645
 10
-0.02796475699943609
 20
1111.894805396715
 10
-0.026817995735342055
 20
1165.5486557427093
 10
-0.02568802155964597
 20
1219.202506114262
 10
-0.02455948538713887
 20
1272.8563564504695
 10
-0.023427279275269906
 20
1326.5102066687418
 10
-0.022290705957351258
 20
1380.1640567029465
 10
-0.021150697836344795
 20
1433.8179065090271
 10
-0.0200092820512715
 20
1487.4717560702961
 10
-0.018868172715168115
 20
1541.125605386657
 10
-0.017728420840126803
 20
1594.7794544812643
 10
-0.016591957367691618
 20
1648.4333034075992
 10
-0.01546032399106505
 20
1702.0871522546877
 10
-0.014332122270158744
 20
1755.741001176351
 10
-0.013201283939342733
 20
1809.3948503749239
 10
-0.0120545872585729
 20
1863.0487009328667
 10
-0.010869288574381531
 20
1916.7028232672399
 10
-0.009615974948182433
 20
1970.3579753776562
 10
-0.008255125760507197
 20
2024.014768706931
 10
-0.006724851554994157
 20
2077.673660408148
 10
-0.004909214336943813
 20
2131.3442621052754
 10
-0.0026138771440343224
 20
2185.093279002601
 10
0.0002635005297599944
 20
2239.061393170937
 10
0.0
 20
2292.793794619737
 10
3.6952460807943575
 20
2292.793480150823
 10
7.354904809794729
 20
2292.793153038093
 10
10.943731703692544
 20
2292.792898695408
 10
14.427165393862174
 20
2292.793143838464
 10
17.771686407416848
 20
2292.7941474192567
 10
67.37276333317298
 20
2239.0615579706464
 10
100.01053276707556
 20
2185.0918100322297
 10
122.99795530065207
 20
2131.3419186408305
 10
139.2702615087368
 20
2077.6709006566984
 10
152.2193662209077
 20
2024.0116975129752
 10
162.9945250629191
 20
1970.3546372959445
 10
171.87415934660905
 20
1916.6992734701464
 10
179.13663123224634
 20
1863.0449891198118
 10
185.14594559109545
 20
1809.3910139352852
 10
190.35114724512025
 20
1755.7370559275425
 10
194.89843618265405
 20
1702.0831128532475
 10
198.91700734327122
 20
1648.4291820478904
 10
202.53605054585123
 20
1594.7752605047162
 10
205.8837724249856
 20
1541.1213453394105
 10
208.97994699673944
 20
1487.4674360512818
 10
211.81334116119012
 20
1433.8135327755515
 10
214.41900469901768
 20
1380.1596346950676
 10
216.83198805921143
 20
1326.5057410547467
 10
219.0873421803645
 20
1272.8518511415289
 10
221.2939611319211
 20
1219.1979627605813
 10
223.7164490647492
 20
1165.5440707522498
 10
226.01667087330213
 20
1111.8901824663049
 10
227.77811373649322
 20
1058.236306589279
 10
228.5842642233492
 20
1004.582451211733
 10
228.59636917402509
 20
950.9286130227147
 10
228.59668715876734
 20
897.2747792538653
 10
175.31587155001378
 20
765.440091015767
 10
184.14879986593408
 20
730.6680093626086
 10
192.6094159917745
 20
695.8957744245985
 10
200.62762979482477
 20
661.1234568604235
 10
208.13329195516545
 20
626.351105462704
 10
216.01539378127305
 20
591.5787756972841
 10
224.50676497641015
 20
556.8064868120018
 10
232.36769521640812
 20
522.0341741874558
 10
238.35763665729056
 20
487.2617674913265
 10
241.23604149613232
 20
452.48919612399595
 10
240.0373052895202
 20
417.7164061703933
 10
235.2594533742658
 20
382.9434239948977
 10
227.83119535522567
 20
348.1702984446234
 10
218.6783055062648
 20
313.39707883604484
 10
208.58288714050994
 20
278.6238116543809
 10
193.81124143505528
 20
243.85032796073244
 10
173.8290178521411
 20
209.07336921246988
 10
150.6315336496254
 20
174.27639801651065
 10
126.21389901528768
 20
139.44761065780034
 10
101.72135788852863
 20
104.58142188883075
 10
74.92388761713097
 20
69.55000664960856
 10
45.90145247118325
 20
34.775460161261925
 10
23.09843995376041
 20
0.0011614134535442326
 10
18.751487632045478
 20
0.000965955707841365
 10
14.223948682689878
 20
0.0007401289394859119
 10
9.559425388957305
 20
0.0005024034233796811
 10
4.8028396533618976
 20
0.00025431015342570036
  0
LINE
  5
36
330
17
100
AcDbEntity
  8
GRAIN
100
AcDbLine
 10
120.60553201787944
 20
1106.3975443285428
 30
0.0
 11
120.60553201787944
 21
1186.3975443285428
 31
0.0
  0
TEXT
  5
37
330
17
100
AcDbEntity
  8
ID
100
AcDbText
 10
-12.04207716810419
 20
2324.795724029852
 30
0.0
 40
8.0
  1
O08_SMOOTH_LOWER_I4
100
AcDbText
  0
CIRCLE
  5
38
330
17
100
AcDbEntity
  8
NOTCH
100
AcDbCircle
 10
-0.0304560714729069
 20
1004.5871037497136
 30
0.0
 40
1.5
  0
CIRCLE
  5
39
330
17
100
AcDbEntity
  8
NOTCH
100
AcDbCircle
 10
228.5842642233492
 20
1004.582451211733
 30
0.0
 40
1.5
  0
CIRCLE
  5
3A
330
17
100
AcDbEntity
  8
NOTCH
100
AcDbCircle
 10
14.223948682689878
 20
0.0007401289394859119
 30
0.0
 40
1.5
  0
CIRCLE
  5
3B
330
17
100
AcDbEntity
  8
NOTCH
100
AcDbCircle
 10
10.943731703692544
 20
2292.792898695408
 30
0.0
 40
1.5
  0
ENDSEC
  0
SECTION
  2
OBJECTS
  0
DICTIONARY
  5
A
330
0
100
AcDbDictionary
281
1
  3
ACAD_COLOR
350
B
  3
ACAD_GROUP
350
C
  3
ACAD_LAYOUT
350
D
  3
ACAD_MATERIAL
350
E
  3
ACAD_MLEADERSTYLE
350
F
  3
ACAD_MLINESTYLE
350
10
  3
ACAD_PLOTSETTINGS
350
11
  3
ACAD_PLOTSTYLENAME
350
12
  3
ACAD_SCALELIST
350
14
  3
ACAD_TABLESTYLE
350
15
  3
ACAD_VISUALSTYLE
350
16
  3
EZDXF_META
350
2D
  0
DICTIONARY
  5
B
330
A
100
AcDbDictionary
281
1
  0
DICTIONARY
  5
C
330
A
100
AcDbDictionary
281
1
  0
DICTIONARY
  5
D
330
A
100
AcDbDictionary
281
1
  3
Model
350
1A
  3
Layout1
350
1E
  0
DICTIONARY
  5
E
330
A
100
AcDbDictionary
281
1
  3
ByBlock
350
1F
  3
ByLayer
350
20
  3
Global
350
21
  0
DICTIONARY
  5
F
330
A
100
AcDbDictionary
281
1
  3
Standard
350
2C
  0
DICTIONARY
  5
10
330
A
100
AcDbDictionary
281
1
  3
Standard
350
22
  0
DICTIONARY
  5
11
330
A
100
AcDbDictionary
281
1
  0
ACDBDICTIONARYWDFLT
  5
12
330
A
100
AcDbDictionary
281
1
  3
Normal
350
13
100
AcDbDictionaryWithDefault
340
13
  0
ACDBPLACEHOLDER
  5
13
330
12
  0
DICTIONARY
  5
14
330
A
100
AcDbDictionary
281
1
  0
DICTIONARY
  5
15
330
A
100
AcDbDictionary
281
1
  0
DICTIONARY
  5
16
330
A
100
AcDbDictionary
281
1
  0
LAYOUT
  5
1A
330
D
100
AcDbPlotSettings
  1

  4
A3
  6

 40
7.5
 41
20.0
 42
7.5
 43
20.0
 44
420.0
 45
297.0
 46
0.0
 47
0.0
 48
0.0
 49
0.0
140
0.0
141
0.0
142
1.0
143
1.0
 70
1024
 72
1
 73
0
 74
5
  7

 75
16
 76
0
 77
2
 78
300
147
1.0
148
0.0
149
0.0
100
AcDbLayout
  1
Model
 70
1
 71
0
 10
0.0
 20
0.0
 11
420.0
 21
297.0
 12
0.0
 22
0.0
 32
0.0
 14
1e+20
 24
1e+20
 34
1e+20
 15
-1e+20
 25
-1e+20
 35
-1e+20
146
0.0
 13
0.0
 23
0.0
 33
0.0
 16
1.0
 26
0.0
 36
0.0
 17
0.0
 27
1.0
 37
0.0
 76
1
330
17
  0
LAYOUT
  5
1E
330
D
100
AcDbPlotSettings
  1

  4
A3
  6

 40
7.5
 41
20.0
 42
7.5
 43
20.0
 44
420.0
 45
297.0
 46
0.0
 47
0.0
 48
0.0
 49
0.0
140
0.0
141
0.0
142
1.0
143
1.0
 70
0
 72
1
 73
0
 74
5
  7

 75
16
 76
0
 77
2
 78
300
147
1.0
148
0.0
149
0.0
100
AcDbLayout
  1
Layout1
 70
1
 71
1
 10
0.0
 20
0.0
 11
420.0
 21
297.0
 12
0.0
 22
0.0
 32
0.0
 14
1e+20
 24
1e+20
 34
1e+20
 15
-1e+20
 25
-1e+20
 35
-1e+20
146
0.0
 13
0.0
 23
0.0
 33
0.0
 16
1.0
 26
0.0
 36
0.0
 17
0.0
 27
1.0
 37
0.0
 76
1
330
1B
  0
MATERIAL
  5
1F
102
{ACAD_REACTORS
330
E
102
}
330
E
100
AcDbMaterial
  1
ByBlock
  2

 70
0
 40
1.0
 71
1
 41
1.0
 91
-1023410177
 42
1.0
 72
1
  3

 73
1
 74
1
 75
1
 44
0.5
 73
0
 45
1.0
 46
1.0
 77
1
  4

 78
1
 79
1
170
1
 48
1.0
171
1
  6

172
1
173
1
174
1
140
1.0
141
1.0
175
1
  7

176
1
177
1
178
1
143
1.0
179
1
  8

270
1
271
1
272
1
145
1.0
146
1.0
273
1
  9

274
1
275
1
276
1
 42
1.0
 72
1
  3

 73
1
 74
1
 75
1
 94
63
  0
MATERIAL
  5
20
102
{ACAD_REACTORS
330
E
102
}
330
E
100
AcDbMaterial
  1
ByLayer
  2

 70
0
 40
1.0
 71
1
 41
1.0
 91
-1023410177
 42
1.0
 72
1
  3

 73
1
 74
1
 75
1
 44
0.5
 73
0
 45
1.0
 46
1.0
 77
1
  4

 78
1
 79
1
170
1
 48
1.0
171
1
  6

172
1
173
1
174
1
140
1.0
141
1.0
175
1
  7

176
1
177
1
178
1
143
1.0
179
1
  8

270
1
271
1
272
1
145
1.0
146
1.0
273
1
  9

274
1
275
1
276
1
 42
1.0
 72
1
  3

 73
1
 74
1
 75
1
 94
63
  0
MATERIAL
  5
21
102
{ACAD_REACTORS
330
E
102
}
330
E
100
AcDbMaterial
  1
Global
  2

 70
0
 40
1.0
 71
1
 41
1.0
 91
-1023410177
 42
1.0
 72
1
  3

 73
1
 74
1
 75
1
 44
0.5
 73
0
 45
1.0
 46
1.0
 77
1
  4

 78
1
 79
1
170
1
 48
1.0
171
1
  6

172
1
173
1
174
1
140
1.0
141
1.0
175
1
  7

176
1
177
1
178
1
143
1.0
179
1
  8

270
1
271
1
272
1
145
1.0
146
1.0
273
1
  9

274
1
275
1
276
1
 42
1.0
 72
1
  3

 73
1
 74
1
 75
1
 94
63
  0
MLINESTYLE
  5
22
102
{ACAD_REACTORS
330
10
102
}
330
10
100
AcDbMlineStyle
  2
Standard
 70
0
  3

 62
256
 51
90.0
 52
90.0
 71
2
 49
0.5
 62
256
  6
BYLAYER
 49
-0.5
 62
256
  6
BYLAYER
  0
MLEADERSTYLE
  5
2C
102
{ACAD_REACTORS
330
F
102
}
330
F
100
AcDbMLeaderStyle
179
2
170
2
171
1
172
0
 90
2
 40
0.0
 41
0.0
173
1
 91
-1056964608
 92
-2
290
1
 42
2.0
291
1
 43
8.0
  3
Standard
 44
4.0
300

342
29
174
1
175
1
176
0
178
1
 93
-1056964608
 45
4.0
292
0
297
0
 46
4.0
 94
-1056964608
 47
1.0
 49
1.0
140
1.0
294
1
141
0.0
177
0
142
1.0
295
0
296
0
143
3.75
271
0
272
9
273
9
  0
DICTIONARY
  5
2D
330
A
100
AcDbDictionary
280
1
281
1
  3
CREATED_BY_EZDXF
350
2E
  3
WRITTEN_BY_EZDXF
350
3E
  0
DICTIONARYVAR
  5
2E
330
2D
100
DictionaryVariables
280
0
  1
1.4.4 @ 2026-10-04T17:42:32.372879+00:00
  0
DICTIONARYVAR
  5
3E
330
2D
100
DictionaryVariables
280
0
  1
1.4.4 @ 2026-10-04T17:42:32.374428+00:00
  0
ENDSEC
  0
EOF
