  0
SECTION
  2
HEADER
  9
$ACADVER
  1
AC1024
  9
$ACADMAINTVER
 70
6
  9
$DWGCODEPAGE
  3
ANSI_1252
  9
$LASTSAVEDBY
  1
ezdxf
  9
$INSBASE
 10
0.0
 20
0.0
 30
0.0
  9
$EXTMIN
 10
1e+20
 20
1e+20
 30
1e+20
  9
$EXTMAX
 10
-1e+20
 20
-1e+20
 30
-1e+20
  9
$LIMMIN
 10
0.0
 20
0.0
  9
$LIMMAX
 10
420.0
 20
297.0
  9
$ORTHOMODE
 70
0
  9
$REGENMODE
 70
1
  9
$FILLMODE
 70
1
  9
$QTEXTMODE
 70
0
  9
$MIRRTEXT
 70
1
  9
$LTSCALE
 40
1.0
  9
$ATTMODE
 70
1
  9
$TEXTSIZE
 40
2.5
  9
$TRACEWID
 40
1.0
  9
$TEXTSTYLE
  7
Standard
  9
$CLAYER
  8
0
  9
$CELTYPE
  6
ByLayer
  9
$CECOLOR
 62
256
  9
$CELTSCALE
 40
1.0
  9
$DISPSILH
 70
0
  9
$DIMSCALE
 40
1.0
  9
$DIMASZ
 40
2.5
  9
$DIMEXO
 40
0.625
  9
$DIMDLI
 40
3.75
  9
$DIMRND
 40
0.0
  9
$DIMDLE
 40
0.0
  9
$DIMEXE
 40
1.25
  9
$DIMTP
 40
0.0
  9
$DIMTM
 40
0.0
  9
$DIMTXT
 40
2.5
  9
$DIMCEN
 40
2.5
  9
$DIMTSZ
 40
0.0
  9
$DIMTOL
 70
0
  9
$DIMLIM
 70
0
  9
$DIMTIH
 70
0
  9
$DIMTOH
 70
0
  9
$DIMSE1
 70
0
  9
$DIMSE2
 70
0
  9
$DIMTAD
 70
1
  9
$DIMZIN
 70
8
  9
$DIMBLK
  1

  9
$DIMASO
 70
1
  9
$DIMSHO
 70
1
  9
$DIMPOST
  1

  9
$DIMAPOST
  1

  9
$DIMALT
 70
0
  9
$DIMALTD
 70
3
  9
$DIMALTF
 40
0.03937007874
  9
$DIMLFAC
 40
1.0
  9
$DIMTOFL
 70
1
  9
$DIMTVP
 40
0.0
  9
$DIMTIX
 70
0
  9
$DIMSOXD
 70
0
  9
$DIMSAH
 70
0
  9
$DIMBLK1
  1

  9
$DIMBLK2
  1

  9
$DIMSTYLE
  2
ISO-25
  9
$DIMCLRD
 70
0
  9
$DIMCLRE
 70
0
  9
$DIMCLRT
 70
0
  9
$DIMTFAC
 40
1.0
  9
$DIMGAP
 40
0.625
  9
$DIMJUST
 70
0
  9
$DIMSD1
 70
0
  9
$DIMSD2
 70
0
  9
$DIMTOLJ
 70
0
  9
$DIMTZIN
 70
8
  9
$DIMALTZ
 70
0
  9
$DIMALTTZ
 70
0
  9
$DIMUPT
 70
0
  9
$DIMDEC
 70
2
  9
$DIMTDEC
 70
2
  9
$DIMALTU
 70
2
  9
$DIMALTTD
 70
3
  9
$DIMTXSTY
  7
Standard
  9
$DIMAUNIT
 70
0
  9
$DIMADEC
 70
0
  9
$DIMALTRND
 40
0.0
  9
$DIMAZIN
 70
0
  9
$DIMDSEP
 70
44
  9
$DIMATFIT
 70
3
  9
$DIMFRAC
 70
0
  9
$DIMLDRBLK
  1

  9
$DIMLUNIT
 70
2
  9
$DIMLWD
 70
-2
  9
$DIMLWE
 70
-2
  9
$DIMTMOVE
 70
0
  9
$DIMFXL
 40
1.0
  9
$DIMFXLON
 70
0
  9
$DIMJOGANG
 40
0.785398163397
  9
$DIMTFILL
 70
0
  9
$DIMTFILLCLR
 70
0
  9
$DIMARCSYM
 70
0
  9
$DIMLTYPE
  6

  9
$DIMLTEX1
  6

  9
$DIMLTEX2
  6

  9
$DIMTXTDIRECTION
 70
0
  9
$LUNITS
 70
2
  9
$LUPREC
 70
4
  9
$SKETCHINC
 40
1.0
  9
$FILLETRAD
 40
10.0
  9
$AUNITS
 70
0
  9
$AUPREC
 70
2
  9
$MENU
  1
.
  9
$ELEVATION
 40
0.0
  9
$PELEVATION
 40
0.0
  9
$THICKNESS
 40
0.0
  9
$LIMCHECK
 70
0
  9
$CHAMFERA
 40
0.0
  9
$CHAMFERB
 40
0.0
  9
$CHAMFERC
 40
0.0
  9
$CHAMFERD
 40
0.0
  9
$SKPOLY
 70
0
  9
$TDCREATE
 40
2461318.7378587965
  9
$TDUCREATE
 40
2458532.153996898
  9
$TDUPDATE
 40
2461318.7378587965
  9
$TDUUPDATE
 40
2458532.1544311
  9
$TDINDWG
 40
0.0
  9
$TDUSRTIMER
 40
0.0
  9
$USRTIMER
 70
1
  9
$ANGBASE
 50
0.0
  9
$ANGDIR
 70
0
  9
$PDMODE
 70
0
  9
$PDSIZE
 40
0.0
  9
$PLINEWID
 40
0.0
  9
$SPLFRAME
 70
0
  9
$SPLINETYPE
 70
6
  9
$SPLINESEGS
 70
8
  9
$HANDSEED
  5
3F
  9
$SURFTAB1
 70
6
  9
$SURFTAB2
 70
6
  9
$SURFTYPE
 70
6
  9
$SURFU
 70
6
  9
$SURFV
 70
6
  9
$UCSBASE
  2

  9
$UCSNAME
  2

  9
$UCSORG
 10
0.0
 20
0.0
 30
0.0
  9
$UCSXDIR
 10
1.0
 20
0.0
 30
0.0
  9
$UCSYDIR
 10
0.0
 20
1.0
 30
0.0
  9
$UCSORTHOREF
  2

  9
$UCSORTHOVIEW
 70
0
  9
$UCSORGTOP
 10
0.0
 20
0.0
 30
0.0
  9
$UCSORGBOTTOM
 10
0.0
 20
0.0
 30
0.0
  9
$UCSORGLEFT
 10
0.0
 20
0.0
 30
0.0
  9
$UCSORGRIGHT
 10
0.0
 20
0.0
 30
0.0
  9
$UCSORGFRONT
 10
0.0
 20
0.0
 30
0.0
  9
$UCSORGBACK
 10
0.0
 20
0.0
 30
0.0
  9
$PUCSBASE
  2

  9
$PUCSNAME
  2

  9
$PUCSORG
 10
0.0
 20
0.0
 30
0.0
  9
$PUCSXDIR
 10
1.0
 20
0.0
 30
0.0
  9
$PUCSYDIR
 10
0.0
 20
1.0
 30
0.0
  9
$PUCSORTHOREF
  2

  9
$PUCSORTHOVIEW
 70
0
  9
$PUCSORGTOP
 10
0.0
 20
0.0
 30
0.0
  9
$PUCSORGBOTTOM
 10
0.0
 20
0.0
 30
0.0
  9
$PUCSORGLEFT
 10
0.0
 20
0.0
 30
0.0
  9
$PUCSORGRIGHT
 10
0.0
 20
0.0
 30
0.0
  9
$PUCSORGFRONT
 10
0.0
 20
0.0
 30
0.0
  9
$PUCSORGBACK
 10
0.0
 20
0.0
 30
0.0
  9
$USERI1
 70
0
  9
$USERI2
 70
0
  9
$USERI3
 70
0
  9
$USERI4
 70
0
  9
$USERI5
 70
0
  9
$USERR1
 40
0.0
  9
$USERR2
 40
0.0
  9
$USERR3
 40
0.0
  9
$USERR4
 40
0.0
  9
$USERR5
 40
0.0
  9
$WORLDVIEW
 70
1
  9
$SHADEDGE
 70
3
  9
$SHADEDIF
 70
70
  9
$TILEMODE
 70
1
  9
$MAXACTVP
 70
64
  9
$PINSBASE
 10
0.0
 20
0.0
 30
0.0
  9
$PLIMCHECK
 70
0
  9
$PEXTMIN
 10
1e+20
 20
1e+20
 30
1e+20
  9
$PEXTMAX
 10
-1e+20
 20
-1e+20
 30
-1e+20
  9
$PLIMMIN
 10
0.0
 20
0.0
  9
$PLIMMAX
 10
420.0
 20
297.0
  9
$UNITMODE
 70
0
  9
$VISRETAIN
 70
1
  9
$PLINEGEN
 70
0
  9
$PSLTSCALE
 70
1
  9
$TREEDEPTH
 70
3020
  9
$CMLSTYLE
  2
Standard
  9
$CMLJUST
 70
0
  9
$CMLSCALE
 40
20.0
  9
$PROXYGRAPHICS
 70
1
  9
$MEASUREMENT
 70
1
  9
$CELWEIGHT
370
-1
  9
$ENDCAPS
280
0
  9
$JOINSTYLE
280
0
  9
$LWDISPLAY
290
0
  9
$INSUNITS
 70
4
  9
$HYPERLINKBASE
  1

  9
$STYLESHEET
  1

  9
$XEDIT
290
1
  9
$CEPSNTYPE
380
0
  9
$PSTYLEMODE
290
1
  9
$FINGERPRINTGUID
  2
{0A5064AD-BB88-4A07-AE7A-3D4D83735371}
  9
$VERSIONGUID
  2
{A31F9E2D-453D-4E6C-9A5C-C7D8B7B7D787}
  9
$EXTNAMES
290
1
  9
$PSVPSCALE
 40
0.0
  9
$OLESTARTUP
290
0
  9
$SORTENTS
280
127
  9
$INDEXCTL
280
0
  9
$HIDETEXT
280
1
  9
$XCLIPFRAME
280
1
  9
$HALOGAP
280
0
  9
$OBSCOLOR
 70
257
  9
$OBSLTYPE
280
0
  9
$INTERSECTIONDISPLAY
280
0
  9
$INTERSECTIONCOLOR
 70
257
  9
$DIMASSOC
280
2
  9
$PROJECTNAME
  1

  9
$CAMERADISPLAY
290
0
  9
$LENSLENGTH
 40
50.0
  9
$CAMERAHEIGHT
 40
0.0
  9
$STEPSPERSEC
 40
24.0
  9
$STEPSIZE
 40
100.0
  9
$3DDWFPREC
 40
2.0
  9
$PSOLWIDTH
 40
0.005
  9
$PSOLHEIGHT
 40
0.08
  9
$LOFTANG1
 40
1.570796326795
  9
$LOFTANG2
 40
1.570796326795
  9
$LOFTMAG1
 40
0.0
  9
$LOFTMAG2
 40
0.0
  9
$LOFTPARAM
 70
7
  9
$LOFTNORMALS
280
1
  9
$LATITUDE
 40
37.795
  9
$LONGITUDE
 40
-122.394
  9
$NORTHDIRECTION
 40
0.0
  9
$TIMEZONE
 70
-8000
  9
$LIGHTGLYPHDISPLAY
280
1
  9
$TILEMODELIGHTSYNCH
280
1
  9
$CMATERIAL
347
20
  9
$SOLIDHIST
280
0
  9
$SHOWHIST
280
1
  9
$DWFFRAME
280
2
  9
$DGNFRAME
280
2
  9
$REALWORLDSCALE
290
1
  9
$INTERFERECOLOR
 62
256
  9
$CSHADOW
280
0
  9
$SHADOWPLANELOCATION
 40
0.0
  0
ENDSEC
  0
SECTION
  2
CLASSES
  0
CLASS
  1
ACDBDICTIONARYWDFLT
  2
AcDbDictionaryWithDefault
  3
ObjectDBX Classes
 90
0
 91
0
280
0
281
0
  0
CLASS
  1
SUN
  2
AcDbSun
  3
SCENEOE
 90
1153
 91
0
280
0
281
0
  0
CLASS
  1
VISUALSTYLE
  2
AcDbVisualStyle
  3
ObjectDBX Classes
 90
4095
 91
0
280
0
281
0
  0
CLASS
  1
MATERIAL
  2
AcDbMaterial
  3
ObjectDBX Classes
 90
1153
 91
0
280
0
281
0
  0
CLASS
  1
SCALE
  2
AcDbScale
  3
ObjectDBX Classes
 90
1153
 91
0
280
0
281
0
  0
CLASS
  1
TABLESTYLE
  2
AcDbTableStyle
  3
ObjectDBX Classes
 90
4095
 91
0
280
0
281
0
  0
CLASS
  1
MLEADERSTYLE
  2
AcDbMLeaderStyle
  3
ACDB_MLEADERSTYLE_CLASS
 90
4095
 91
0
280
0
281
0
  0
CLASS
  1
DICTIONARYVAR
  2
AcDbDictionaryVar
  3
ObjectDBX Classes
 90
0
 91
0
280
0
281
0
  0
CLASS
  1
CELLSTYLEMAP
  2
AcDbCellStyleMap
  3
ObjectDBX Classes
 90
1152
 91
0
280
0
281
0
  0
CLASS
  1
MENTALRAYRENDERSETTINGS
  2
AcDbMentalRayRenderSettings
  3
SCENEOE
 90
1024
 91
0
280
0
281
0
  0
CLASS
  1
ACDBDETAILVIEWSTYLE
  2
AcDbDetailViewStyle
  3
ObjectDBX Classes
 90
1025
 91
0
280
0
281
0
  0
CLASS
  1
ACDBSECTIONVIEWSTYLE
  2
AcDbSectionViewStyle
  3
ObjectDBX Classes
 90
1025
 91
0
280
0
281
0
  0
CLASS
  1
RASTERVARIABLES
  2
AcDbRasterVariables
  3
ISM
 90
0
 91
0
280
0
281
0
  0
CLASS
  1
ACDBPLACEHOLDER
  2
AcDbPlaceHolder
  3
ObjectDBX Classes
 90
0
 91
0
280
0
281
0
  0
CLASS
  1
LAYOUT
  2
AcDbLayout
  3
ObjectDBX Classes
 90
0
 91
0
280
0
281
0
  0
ENDSEC
  0
SECTION
  2
TABLES
  0
TABLE
  2
VPORT
  5
8
330
0
100
AcDbSymbolTable
 70
1
  0
VPORT
  5
23
330
8
100
AcDbSymbolTableRecord
100
AcDbViewportTableRecord
  2
*Active
 70
0
 10
0.0
 20
0.0
 11
1.0
 21
1.0
 12
0.0
 22
0.0
 13
0.0
 23
0.0
 14
0.5
 24
0.5
 15
0.5
 25
0.5
 16
0.0
 26
0.0
 36
1.0
 17
0.0
 27
0.0
 37
0.0
 40
1000.0
 41
1.34
 42
50.0
 43
0.0
 44
0.0
 50
0.0
 51
0.0
 71
0
 72
1000
 73
1
 74
3
 75
0
 76
0
 77
0
 78
0
281
0
 65
0
146
0.0
  0
ENDTAB
  0
TABLE
  2
LTYPE
  5
2
330
0
100
AcDbSymbolTable
 70
3
  0
LTYPE
  5
24
330
2
100
AcDbSymbolTableRecord
100
AcDbLinetypeTableRecord
  2
ByBlock
 70
0
  3

 72
65
 73
0
 40
0.0
  0
LTYPE
  5
25
330
2
100
AcDbSymbolTableRecord
100
AcDbLinetypeTableRecord
  2
ByLayer
 70
0
  3

 72
65
 73
0
 40
0.0
  0
LTYPE
  5
26
330
2
100
AcDbSymbolTableRecord
100
AcDbLinetypeTableRecord
  2
Continuous
 70
0
  3

 72
65
 73
0
 40
0.0
  0
ENDTAB
  0
TABLE
  2
LAYER
  5
1
330
0
100
AcDbSymbolTable
 70
7
  0
LAYER
  5
27
330
1
100
AcDbSymbolTableRecord
100
AcDbLayerTableRecord
  2
0
 70
0
 62
7
  6
Continuous
370
-3
390
13
347
21
  0
LAYER
  5
28
330
1
100
AcDbSymbolTableRecord
100
AcDbLayerTableRecord
  2
Defpoints
 70
0
 62
7
  6
Continuous
290
0
370
-3
390
13
347
21
  0
LAYER
  5
2F
330
1
100
AcDbSymbolTableRecord
100
AcDbLayerTableRecord
  2
CUT
 70
0
 62
1
  6
Continuous
370
-3
390
13
347
21
  0
LAYER
  5
30
330
1
100
AcDbSymbolTableRecord
100
AcDbLayerTableRecord
  2
SEAM
 70
0
 62
5
  6
Continuous
370
-3
390
13
347
21
  0
LAYER
  5
31
330
1
100
AcDbSymbolTableRecord
100
AcDbLayerTableRecord
  2
GRAIN
 70
0
 62
3
  6
Continuous
370
-3
390
13
347
21
  0
LAYER
  5
32
330
1
100
AcDbSymbolTableRecord
100
AcDbLayerTableRecord
  2
NOTCH
 70
0
 62
2
  6
Continuous
370
-3
390
13
347
21
  0
LAYER
  5
33
330
1
100
AcDbSymbolTableRecord
100
AcDbLayerTableRecord
  2
ID
 70
0
 62
7
  6
Continuous
370
-3
390
13
347
21
  0
ENDTAB
  0
TABLE
  2
STYLE
  5
5
330
0
100
AcDbSymbolTable
 70
1
  0
STYLE
  5
29
330
5
100
AcDbSymbolTableRecord
100
AcDbTextStyleTableRecord
  2
Standard
 70
0
 40
0.0
 41
1.0
 50
0.0
 71
0
 42
2.5
  3
txt
  4

  0
ENDTAB
  0
TABLE
  2
VIEW
  5
7
330
0
100
AcDbSymbolTable
 70
0
  0
ENDTAB
  0
TABLE
  2
UCS
  5
6
330
0
100
AcDbSymbolTable
 70
0
  0
ENDTAB
  0
TABLE
  2
APPID
  5
3
330
0
100
AcDbSymbolTable
 70
3
  0
APPID
  5
2A
330
3
100
AcDbSymbolTableRecord
100
AcDbRegAppTableRecord
  2
ACAD
 70
0
  0
APPID
  5
3C
330
3
100
AcDbSymbolTableRecord
100
AcDbRegAppTableRecord
  2
HATCHBACKGROUNDCOLOR
 70
0
  0
APPID
  5
3D
330
3
100
AcDbSymbolTableRecord
100
AcDbRegAppTableRecord
  2
EZDXF
 70
0
  0
ENDTAB
  0
TABLE
  2
DIMSTYLE
  5
4
330
0
100
AcDbSymbolTable
 70
1
100
AcDbDimStyleTable
  0
DIMSTYLE
105
2B
330
4
100
AcDbSymbolTableRecord
100
AcDbDimStyleTableRecord
  2
Standard
 70
0
 40
1.0
 41
2.5
 42
0.625
 43
3.75
 44
1.25
 45
0.0
 46
0.0
 47
0.0
 48
0.0
 49
2.5
140
2.5
141
2.5
142
0.0
143
0.03937007874
144
1.0
145
0.0
146
1.0
147
0.625
148
0.0
 69
0
 70
0
 71
0
 72
0
 73
0
 74
0
 75
0
 76
0
 77
1
 78
8
 79
3
170
0
171
3
172
1
173
0
174
0
175
0
176
0
177
0
178
0
179
2
271
2
272
2
273
2
274
3
275
0
276
0
277
2
278
44
279
0
280
0
281
0
282
0
283
0
284
8
285
0
286
0
288
0
289
3
290
0
371
-2
372
-2
  0
ENDTAB
  0
TABLE
  2
BLOCK_RECORD
  5
9
330
0
100
AcDbSymbolTable
 70
2
  0
BLOCK_RECORD
  5
17
330
9
100
AcDbSymbolTableRecord
100
AcDbBlockTableRecord
  2
*Model_Space
340
1A
 70
0
280
1
281
0
  0
BLOCK_RECORD
  5
1B
330
9
100
AcDbSymbolTableRecord
100
AcDbBlockTableRecord
  2
*Paper_Space
340
1E
 70
0
280
1
281
0
  0
ENDTAB
  0
ENDSEC
  0
SECTION
  2
BLOCKS
  0
BLOCK
  5
18
330
17
100
AcDbEntity
  8
0
100
AcDbBlockBegin
  2
*Model_Space
 70
0
 10
0.0
 20
0.0
 30
0.0
  3
*Model_Space
  1

  0
ENDBLK
  5
19
330
17
100
AcDbEntity
  8
0
100
AcDbBlockEnd
  0
BLOCK
  5
1C
330
1B
100
AcDbEntity
  8
0
100
AcDbBlockBegin
  2
*Paper_Space
 70
0
 10
0.0
 20
0.0
 30
0.0
  3
*Paper_Space
  1

  0
ENDBLK
  5
1D
330
1B
100
AcDbEntity
  8
0
100
AcDbBlockEnd
  0
ENDSEC
  0
SECTION
  2
ENTITIES
  0
LWPOLYLINE
  5
34
330
17
100
AcDbEntity
  8
CUT
100
AcDbPolyline
 90
111
 70
1
 10
-5.180857046802119
 20
-12.007414122779336
 10
-45.00452797846842
 20
30.340463443402207
 10
-79.33426777697713
 20
65.15858580314384
 10
-111.30834606683412
 20
100.52966347401393
 10
-140.3781123271177
 20
135.55581932535182
 10
-169.2994704058233
 20
170.47124177247235
 10
-197.03524625246246
 20
205.68348554003438
 10
-221.30934050266407
 20
241.4336928320273
 10
-239.47886553967018
 20
277.6113309093121
 10
-251.73982969121414
 20
313.2979604961076
 10
-262.7191586371316
 20
348.53356706779414
 10
-271.7242208649075
 20
384.1120683312257
 10
-277.5983406099161
 20
420.0992875158645
 10
-279.1197090176076
 20
456.4178940571118
 10
-275.6324157059537
 20
492.6352834404365
 10
-268.4230584966924
 20
528.3765828008732
 10
-259.07935259872585
 20
563.6240927448068
 10
-249.11438174248363
 20
598.4126667147344
 10
-239.916451207323
 20
633.0160295573969
 10
-231.10787094563946
 20
667.8243060329289
 10
-221.65442374843087
 20
702.7829137905305
 10
-211.68512073798144
 20
737.7147297123139
 10
-202.77698880140431
 20
767.608623866184
 10
-276.95035490796005
 20
895.8238760031046
 10
-277.0172327032171
 20
952.6910847325124
 10
-277.0653248146612
 20
1006.4529323762373
 10
-276.17366988629146
 20
1060.3382807419655
 10
-274.1525873618332
 20
1114.1910805070438
 10
-271.49960551934504
 20
1167.93493410665
 10
-268.707448915647
 20
1221.5798355737154
 10
-266.17010702074043
 20
1275.2147800121113
 10
-263.5729823596699
 20
1328.8988335416923
 10
-260.7890188478926
 20
1382.6019863733516
 10
-257.77727716154527
 20
1436.314570079568
 10
-254.49632802803748
 20
1490.0366086086374
 10
-250.9051289280079
 20
1543.7620652791497
 10
-247.01705354276805
 20
1597.4889112660233
 10
-242.80733621506516
 20
1651.2353512610528
 10
-238.1231267413595
 20
1705.0156871500265
 10
-232.81116579553006
 20
1758.8299220728834
 10
-226.71767598447107
 20
1812.6799661311252
 10
-219.66331202462604
 20
1866.6060623789085
 10
-211.10924148399587
 20
1920.6341632041265
 10
-200.62238791364427
 20
1974.7390126787354
 10
-187.87016828262128
 20
2028.9045828414555
 10
-172.4903367623152
 20
2083.22161117722
 10
-152.9926615947849
 20
2137.9885698736216
 10
-125.2214993295579
 20
2193.253351901268
 10
-85.32618137142225
 20
2249.375391682065
 10
-4.237616050773386
 20
2314.5012882441315
 10
5.436686949972849
 20
2314.529523969385
 10
11.212126661762861
 20
2314.5420276280547
 10
17.229934182565636
 20
2314.5490995994
 10
23.421955451929346
 20
2314.554109882342
 10
29.732328499711073
 20
2314.5588286107936
 10
48.092035785536915
 20
2314.5729326569594
 10
48.217387748135344
 20
2241.2123859905087
 10
48.29235128417808
 20
2187.240372010922
 10
48.36294141733758
 20
2133.490383405278
 10
48.43064218915058
 20
2079.8191064685784
 10
48.49643830520155
 20
2026.159757759648
 10
48.561060296191044
 20
1972.5026866858682
 10
48.625018042798466
 20
1918.847386904451
 10
48.6886414621857
 20
1865.1932031336291
 10
48.75212657992542
 20
1811.5393439769866
 10
48.815579430840046
 20
1757.8855183315384
 10
48.87905091932461
 20
1704.2317088400637
 10
48.94256138379391
 20
1650.5779047433973
 10
49.00611287679781
 20
1596.9241016235037
 10
49.0696970940667
 20
1543.2702971793394
 10
49.13330277009372
 20
1489.616490887616
 10
49.1969208115197
 20
1435.9626830280822
 10
49.26054478678047
 20
1382.308873839296
 10
49.324169632579796
 20
1328.6550640210364
 10
49.387790872536506
 20
1275.0012532691019
 10
49.45140529727797
 20
1221.3474418480585
 10
49.51501222581446
 20
1167.6936304269295
 10
49.578614456050175
 20
1114.0398202359074
 10
49.642219383877865
 20
1060.3860131753268
 10
49.705839400390836
 20
1006.73220985921
 10
49.76949072897828
 20
953.0784107123895
 10
49.83318940726256
 20
899.4246120118917
 10
49.987603188275706
 20
769.4247224968001
 10
50.02897905588309
 20
734.6520406222004
 10
50.07039831747248
 20
699.8793512414336
 10
50.111848324015625
 20
665.1066569296914
 10
50.15331536628038
 20
630.3339580417363
 10
50.19478862469115
 20
595.5612557211498
 10
50.236261440267185
 20
560.788551822311
 10
50.2777305519561
 20
526.0158463923066
 10
50.31919589187993
 20
491.24314048289926
 10
50.36065924593839
 20
456.4704346255506
 10
50.40211841790707
 20
421.6977272593876
 10
50.44356121585526
 20
386.9250146625462
 10
50.48496137999197
 20
352.1522916500071
 10
50.526275380457015
 20
317.3795519702462
 10
50.567450932292026
 20
282.60679250573116
 10
50.60845297772957
 20
247.8340194117604
 10
50.64927928236486
 20
213.05799746135173
 10
50.689940579379424
 20
178.26203113214538
 10
50.730417481408615
 20
143.4342455006972
 10
50.77069959929854
 20
108.5692237103598
 10
50.81099519842114
 20
73.53929309857722
 10
50.85042248800543
 20
38.76636959258733
 10
50.90218076724628
 20
-11.938623740295359
 10
32.043189508940934
 20
-11.961325363260501
 10
25.248059562549376
 20
-11.969499343352453
 10
18.584265349917548
 20
-11.977409380514038
 10
12.115714070044056
 20
-11.984743443942866
 10
5.9073470500771705
 20
-11.991572437112877
 10
-5.180857046802119
 20
-12.007414122779336
  0
LWPOLYLINE
  5
35
330
17
100
AcDbEntity
  8
SEAM
100
AcDbPolyline
 90
110
 70
1
 10
0.0
 20
0.0
 10
-36.359912796757314
 20
38.66457057854384
 10
-70.60668387322808
 20
73.39854388463975
 10
-102.23629458254165
 20
108.38855694948606
 10
-131.14408578890388
 20
143.21954908908717
 10
-159.9639532584828
 20
178.0124552250993
 10
-187.3458416830436
 20
212.7754175216328
 10
-210.93922035176513
 20
247.52308593847897
 10
-228.39260974927586
 20
282.2748146467989
 10
-240.33467461425204
 20
317.03325942083603
 10
-251.1657552048702
 20
351.7930973232391
 10
-259.964226593823
 20
386.5553696440866
 10
-265.6390092592065
 20
421.3213697376115
 10
-267.0955504482952
 20
456.092399614525
 10
-263.7469712600288
 20
490.8691693049491
 10
-256.7312827744134
 20
525.6503314953632
 10
-247.5105004445384
 20
560.4341335983218
 10
-237.54664393502904
 20
595.2188172875548
 10
-228.30074972675703
 20
630.0026233698782
 10
-219.49849766521965
 20
664.7858931208604
 10
-210.09226805945838
 20
699.5698914239179
 10
-200.1649734216799
 20
734.3545126280989
 10
-189.79931081793498
 20
769.1395857407615
 10
-264.9541422747493
 20
899.0513879191927
 10
-265.0172410015503
 20
952.7051971358824
 10
-265.06523600820714
 20
1006.3590224420792
 10
-264.1773938305238
 20
1060.0139549906228
 10
-262.16368714288444
 20
1113.670221730204
 10
-259.5149917192784
 20
1167.3272414641667
 10
-256.7221954570628
 20
1220.9844325062868
 10
-254.18381536802286
 20
1274.6413225424637
 10
-251.58800150660295
 20
1328.2982810928684
 10
-248.80642125095335
 20
1381.955460488626
 10
-245.79777101273953
 20
1435.6129100950632
 10
-242.52074696918834
 20
1489.2706794674646
 10
-238.93404761282224
 20
1542.9288185717587
 10
-235.05091865497235
 20
1596.587313018028
 10
-230.84805959817854
 20
1650.2461918736292
 10
-226.17437958127564
 20
1703.905636985459
 10
-220.87762376634004
 20
1757.5658322807096
 10
-214.8055110732409
 20
1811.2269601710955
 10
-207.78566119598057
 20
1864.8892183535393
 10
-199.28918077416267
 20
1918.553576007486
 10
-188.88704757722329
 20
1972.2213274507217
 10
-176.25099900419244
 20
2025.8934563322673
 10
-161.0523372007939
 20
2079.570646667605
 10
-141.93682576193098
 20
2133.264146863783
 10
-114.91033773950736
 20
2187.04702261336
 10
-76.51176201116904
 20
2241.0635464774664
 10
0.0
 20
2302.5136051733743
 10
5.471710378522059
 20
2302.5295750795167
 10
11.238099159120155
 20
2302.5420557351968
 10
17.244024530988685
 20
2302.549107871816
 10
23.431663715462495
 20
2302.554113809442
 10
29.74142434654705
 20
2302.5588320574357
 10
36.11253852853311
 20
2302.563726388655
 10
36.21740526625375
 20
2241.1918814901524
 10
36.29236285878877
 20
2187.2237049619184
 10
36.362951765935556
 20
2133.4746237655518
 10
36.430651735864494
 20
2079.8039697237905
 10
36.496447326319974
 20
2026.145043590938
 10
36.561068998960586
 20
1972.4882344751968
 10
36.625026568140896
 20
1918.833082774082
 10
36.68864989898304
 20
1865.178973479212
 10
36.75213498018531
 20
1811.525145168344
 10
36.81558782504966
 20
1757.871324637
 10
36.87905932114953
 20
1704.2175087081464
 10
36.94256979621429
 20
1650.5636956604033
 10
37.00612129899302
 20
1596.9098842880414
 10
37.069705523423615
 20
1543.256073800671
 10
37.133311203939506
 20
1489.6022637224207
 10
37.19692924782135
 20
1435.9484537916749
 10
37.260553223936796
 20
1382.2946438821418
 10
37.324178069873106
 20
1328.6408339483658
 10
37.387799308873205
 20
1274.9870240031457
 10
37.45141373180713
 20
1221.3332141065407
 10
37.51502065835592
 20
1167.67940436198
 10
37.57862288772314
 20
1114.0255949035693
 10
37.6422278178934
 20
1060.3717858669215
 10
37.70584784055641
 20
1006.7179773641774
 10
37.76949917958215
 20
953.0641694185781
 10
37.833197868308844
 20
899.4103619223707
 10
37.987611668410366
 20
769.4104563369051
 10
38.028987559894624
 20
734.6377543959509
 10
38.07040683671562
 20
699.865052227805
 10
38.11185685306628
 20
665.0923496884653
 10
38.153323900176936
 20
630.3196467369189
 10
38.194797159822656
 20
595.5469433809019
 10
38.236269975215656
 20
560.774239635534
 10
38.277739085379395
 20
526.001535484362
 10
38.31920442375077
 20
491.2288308767788
 10
38.36066777699206
 20
456.4561257047258
 10
38.40212694723916
 20
421.68341978241244
 10
38.44356973844892
 20
386.9107128383564
 10
38.484969885054525
 20
352.13800454291913
 10
38.526283850146164
 20
317.36529460485633
 10
38.567459345300676
 20
282.59258292667914
 10
38.6084613199793
 20
247.8198697148099
 10
38.64928755171039
 20
213.04390972823506
 10
38.68994877261522
 20
178.24800837949928
 10
38.730425585673196
 20
143.42029909312078
 10
38.77070760861622
 20
108.5553592392117
 10
38.81100313781773
 20
73.52548927826516
 10
38.850430201696305
 20
38.75276339835198
 10
38.88994001095187
 20
0.0469251475714436
 10
32.028744447989425
 20
0.03866594257860456
 10
25.233624564122604
 20
0.03049197459525753
 10
18.570021158420214
 20
0.02258216544167548
 10
12.102108473231336
 20
0.01524884304362735
 10
5.892175089598539
 20
0.008418133797468077
  0
LINE
  5
36
330
17
100
AcDbEntity
  8
GRAIN
100
AcDbLine
 10
-114.10876412518066
 20
1111.2827592670901
 30
0.0
 11
-114.10876412518066
 21
1191.2827592670901
 31
0.0
  0
TEXT
  5
37
330
17
100
AcDbEntity
  8
ID
100
AcDbText
 10
-279.1197090176076
 20
2334.5729326569594
 30
0.0
 40
8.0
  1
O08_SMOOTH_LOWER_O3
100
AcDbText
  0
CIRCLE
  5
38
330
17
100
AcDbEntity
  8
NOTCH
100
AcDbCircle
 10
-265.06523600820714
 20
1006.3590224420792
 30
0.0
 40
1.5
  0
CIRCLE
  5
39
330
17
100
AcDbEntity
  8
NOTCH
100
AcDbCircle
 10
37.70584784055641
 20
1006.7179773641774
 30
0.0
 40
1.5
  0
CIRCLE
  5
3A
330
17
100
AcDbEntity
  8
NOTCH
100
AcDbCircle
 10
18.570021158420214
 20
0.02258216544167548
 30
0.0
 40
1.5
  0
CIRCLE
  5
3B
330
17
100
AcDbEntity
  8
NOTCH
100
AcDbCircle
 10
17.244024530988685
 20
2302.549107871816
 30
0.0
 40
1.5
  0
ENDSEC
  0
SECTION
  2
OBJECTS
  0
DICTIONARY
  5
A
330
0
100
AcDbDictionary
281
1
  3
ACAD_COLOR
350
B
  3
ACAD_GROUP
350
C
  3
ACAD_LAYOUT
350
D
  3
ACAD_MATERIAL
350
E
  3
ACAD_MLEADERSTYLE
350
F
  3
ACAD_MLINESTYLE
350
10
  3
ACAD_PLOTSETTINGS
350
11
  3
ACAD_PLOTSTYLENAME
350
12
  3
ACAD_SCALELIST
350
14
  3
ACAD_TABLESTYLE
350
15
  3
ACAD_VISUALSTYLE
350
16
  3
EZDXF_META
350
2D
  0
DICTIONARY
  5
B
330
A
100
AcDbDictionary
281
1
  0
DICTIONARY
  5
C
330
A
100
AcDbDictionary
281
1
  0
DICTIONARY
  5
D
330
A
100
AcDbDictionary
281
1
  3
Model
350
1A
  3
Layout1
350
1E
  0
DICTIONARY
  5
E
330
A
100
AcDbDictionary
281
1
  3
ByBlock
350
1F
  3
ByLayer
350
20
  3
Global
350
21
  0
DICTIONARY
  5
F
330
A
100
AcDbDictionary
281
1
  3
Standard
350
2C
  0
DICTIONARY
  5
10
330
A
100
AcDbDictionary
281
1
  3
Standard
350
22
  0
DICTIONARY
  5
11
330
A
100
AcDbDictionary
281
1
  0
ACDBDICTIONARYWDFLT
  5
12
330
A
100
AcDbDictionary
281
1
  3
Normal
350
13
100
AcDbDictionaryWithDefault
340
13
  0
ACDBPLACEHOLDER
  5
13
330
12
  0
DICTIONARY
  5
14
330
A
100
AcDbDictionary
281
1
  0
DICTIONARY
  5
15
330
A
100
AcDbDictionary
281
1
  0
DICTIONARY
  5
16
330
A
100
AcDbDictionary
281
1
  0
LAYOUT
  5
1A
330
D
100
AcDbPlotSettings
  1

  4
A3
  6

 40
7.5
 41
20.0
 42
7.5
 43
20.0
 44
420.0
 45
297.0
 46
0.0
 47
0.0
 48
0.0
 49
0.0
140
0.0
141
0.0
142
1.0
143
1.0
 70
1024
 72
1
 73
0
 74
5
  7

 75
16
 76
0
 77
2
 78
300
147
1.0
148
0.0
149
0.0
100
AcDbLayout
  1
Model
 70
1
 71
0
 10
0.0
 20
0.0
 11
420.0
 21
297.0
 12
0.0
 22
0.0
 32
0.0
 14
1e+20
 24
1e+20
 34
1e+20
 15
-1e+20
 25
-1e+20
 35
-1e+20
146
0.0
 13
0.0
 23
0.0
 33
0.0
 16
1.0
 26
0.0
 36
0.0
 17
0.0
 27
1.0
 37
0.0
 76
1
330
17
  0
LAYOUT
  5
1E
330
D
100
AcDbPlotSettings
  1

  4
A3
  6

 40
7.5
 41
20.0
 42
7.5
 43
20.0
 44
420.0
 45
297.0
 46
0.0
 47
0.0
 48
0.0
 49
0.0
140
0.0
141
0.0
142
1.0
143
1.0
 70
0
 72
1
 73
0
 74
5
  7

 75
16
 76
0
 77
2
 78
300
147
1.0
148
0.0
149
0.0
100
AcDbLayout
  1
Layout1
 70
1
 71
1
 10
0.0
 20
0.0
 11
420.0
 21
297.0
 12
0.0
 22
0.0
 32
0.0
 14
1e+20
 24
1e+20
 34
1e+20
 15
-1e+20
 25
-1e+20
 35
-1e+20
146
0.0
 13
0.0
 23
0.0
 33
0.0
 16
1.0
 26
0.0
 36
0.0
 17
0.0
 27
1.0
 37
0.0
 76
1
330
1B
  0
MATERIAL
  5
1F
102
{ACAD_REACTORS
330
E
102
}
330
E
100
AcDbMaterial
  1
ByBlock
  2

 70
0
 40
1.0
 71
1
 41
1.0
 91
-1023410177
 42
1.0
 72
1
  3

 73
1
 74
1
 75
1
 44
0.5
 73
0
 45
1.0
 46
1.0
 77
1
  4

 78
1
 79
1
170
1
 48
1.0
171
1
  6

172
1
173
1
174
1
140
1.0
141
1.0
175
1
  7

176
1
177
1
178
1
143
1.0
179
1
  8

270
1
271
1
272
1
145
1.0
146
1.0
273
1
  9

274
1
275
1
276
1
 42
1.0
 72
1
  3

 73
1
 74
1
 75
1
 94
63
  0
MATERIAL
  5
20
102
{ACAD_REACTORS
330
E
102
}
330
E
100
AcDbMaterial
  1
ByLayer
  2

 70
0
 40
1.0
 71
1
 41
1.0
 91
-1023410177
 42
1.0
 72
1
  3

 73
1
 74
1
 75
1
 44
0.5
 73
0
 45
1.0
 46
1.0
 77
1
  4

 78
1
 79
1
170
1
 48
1.0
171
1
  6

172
1
173
1
174
1
140
1.0
141
1.0
175
1
  7

176
1
177
1
178
1
143
1.0
179
1
  8

270
1
271
1
272
1
145
1.0
146
1.0
273
1
  9

274
1
275
1
276
1
 42
1.0
 72
1
  3

 73
1
 74
1
 75
1
 94
63
  0
MATERIAL
  5
21
102
{ACAD_REACTORS
330
E
102
}
330
E
100
AcDbMaterial
  1
Global
  2

 70
0
 40
1.0
 71
1
 41
1.0
 91
-1023410177
 42
1.0
 72
1
  3

 73
1
 74
1
 75
1
 44
0.5
 73
0
 45
1.0
 46
1.0
 77
1
  4

 78
1
 79
1
170
1
 48
1.0
171
1
  6

172
1
173
1
174
1
140
1.0
141
1.0
175
1
  7

176
1
177
1
178
1
143
1.0
179
1
  8

270
1
271
1
272
1
145
1.0
146
1.0
273
1
  9

274
1
275
1
276
1
 42
1.0
 72
1
  3

 73
1
 74
1
 75
1
 94
63
  0
MLINESTYLE
  5
22
102
{ACAD_REACTORS
330
10
102
}
330
10
100
AcDbMlineStyle
  2
Standard
 70
0
  3

 62
256
 51
90.0
 52
90.0
 71
2
 49
0.5
 62
256
  6
BYLAYER
 49
-0.5
 62
256
  6
BYLAYER
  0
MLEADERSTYLE
  5
2C
102
{ACAD_REACTORS
330
F
102
}
330
F
100
AcDbMLeaderStyle
179
2
170
2
171
1
172
0
 90
2
 40
0.0
 41
0.0
173
1
 91
-1056964608
 92
-2
290
1
 42
2.0
291
1
 43
8.0
  3
Standard
 44
4.0
300

342
29
174
1
175
1
176
0
178
1
 93
-1056964608
 45
4.0
292
0
297
0
 46
4.0
 94
-1056964608
 47
1.0
 49
1.0
140
1.0
294
1
141
0.0
177
0
142
1.0
295
0
296
0
143
3.75
271
0
272
9
273
9
  0
DICTIONARY
  5
2D
330
A
100
AcDbDictionary
280
1
281
1
  3
CREATED_BY_EZDXF
350
2E
  3
WRITTEN_BY_EZDXF
350
3E
  0
DICTIONARYVAR
  5
2E
330
2D
100
DictionaryVariables
280
0
  1
1.4.4 @ 2026-10-04T17:42:31.815459+00:00
  0
DICTIONARYVAR
  5
3E
330
2D
100
DictionaryVariables
280
0
  1
1.4.4 @ 2026-10-04T17:42:31.817117+00:00
  0
ENDSEC
  0
EOF
