<svg xmlns="http://www.w3.org/2000/svg" width="274.87184662273665mm" height="720.7585171950386mm" viewBox="0 0 274.87184662273665 720.7585171950386"><title>O08_SMOOTH_LOWER_O2_A_A</title><path d="M 83.730,655.057 L 72.583,582.582 L 60.476,519.294 L 50.609,458.459 L 43.741,401.139 L 36.429,344.102 L 30.245,288.177 L 28.000,235.661 L 32.428,189.348 L 42.656,149.586 L 53.897,111.408 L 67.480,74.891 L 91.363,28.000 L 130.050,63.184 L 155.075,87.271 L 181.182,113.147 L 209.377,141.458 L 246.872,179.345 L 220.725,215.799 L 202.718,245.883 L 185.828,277.625 L 169.814,309.675 L 157.555,344.967 L 149.105,384.926 L 142.959,428.202 L 137.667,472.923 L 132.433,517.598 L 129.153,564.144 L 127.583,612.960 L 121.137,692.759 L 98.891,669.559 L 95.372,665.971 L 92.183,662.714 L 89.591,660.132 L 83.730,655.057 Z" fill="#eee4d6" stroke="#6f5742" stroke-width=".7"/><path d="M 94.920,648.873 L 84.410,580.542 L 72.294,517.205 L 62.494,456.784 L 55.649,399.663 L 48.345,342.680 L 42.217,287.260 L 40.024,235.977 L 44.284,191.426 L 54.226,152.776 L 65.290,115.199 L 78.487,79.722 L 94.920,47.456 L 121.851,71.947 L 146.690,95.856 L 172.707,121.642 L 200.861,149.912 L 231.215,180.584 L 210.684,209.209 L 192.266,239.980 L 175.162,272.124 L 158.733,305.005 L 145.972,341.744 L 137.281,382.839 L 131.059,426.653 L 125.750,471.520 L 120.482,516.477 L 117.167,563.529 L 115.598,612.284 L 111.325,665.188 L 107.506,661.205 L 103.941,657.569 L 100.704,654.264 L 97.762,651.335 Z" fill="none" stroke="#5f6a62" stroke-width=".5" stroke-dasharray="3 2"/><text x="20" y="16" font-family="sans-serif" font-size="7">O08_SMOOTH_LOWER_O2_A_A / P0 / mm</text></svg>