  0
SECTION
  2
HEADER
  9
$ACADVER
  1
AC1024
  9
$ACADMAINTVER
 70
6
  9
$DWGCODEPAGE
  3
ANSI_1252
  9
$LASTSAVEDBY
  1
ezdxf
  9
$INSBASE
 10
0.0
 20
0.0
 30
0.0
  9
$EXTMIN
 10
1e+20
 20
1e+20
 30
1e+20
  9
$EXTMAX
 10
-1e+20
 20
-1e+20
 30
-1e+20
  9
$LIMMIN
 10
0.0
 20
0.0
  9
$LIMMAX
 10
420.0
 20
297.0
  9
$ORTHOMODE
 70
0
  9
$REGENMODE
 70
1
  9
$FILLMODE
 70
1
  9
$QTEXTMODE
 70
0
  9
$MIRRTEXT
 70
1
  9
$LTSCALE
 40
1.0
  9
$ATTMODE
 70
1
  9
$TEXTSIZE
 40
2.5
  9
$TRACEWID
 40
1.0
  9
$TEXTSTYLE
  7
Standard
  9
$CLAYER
  8
0
  9
$CELTYPE
  6
ByLayer
  9
$CECOLOR
 62
256
  9
$CELTSCALE
 40
1.0
  9
$DISPSILH
 70
0
  9
$DIMSCALE
 40
1.0
  9
$DIMASZ
 40
2.5
  9
$DIMEXO
 40
0.625
  9
$DIMDLI
 40
3.75
  9
$DIMRND
 40
0.0
  9
$DIMDLE
 40
0.0
  9
$DIMEXE
 40
1.25
  9
$DIMTP
 40
0.0
  9
$DIMTM
 40
0.0
  9
$DIMTXT
 40
2.5
  9
$DIMCEN
 40
2.5
  9
$DIMTSZ
 40
0.0
  9
$DIMTOL
 70
0
  9
$DIMLIM
 70
0
  9
$DIMTIH
 70
0
  9
$DIMTOH
 70
0
  9
$DIMSE1
 70
0
  9
$DIMSE2
 70
0
  9
$DIMTAD
 70
1
  9
$DIMZIN
 70
8
  9
$DIMBLK
  1

  9
$DIMASO
 70
1
  9
$DIMSHO
 70
1
  9
$DIMPOST
  1

  9
$DIMAPOST
  1

  9
$DIMALT
 70
0
  9
$DIMALTD
 70
3
  9
$DIMALTF
 40
0.03937007874
  9
$DIMLFAC
 40
1.0
  9
$DIMTOFL
 70
1
  9
$DIMTVP
 40
0.0
  9
$DIMTIX
 70
0
  9
$DIMSOXD
 70
0
  9
$DIMSAH
 70
0
  9
$DIMBLK1
  1

  9
$DIMBLK2
  1

  9
$DIMSTYLE
  2
ISO-25
  9
$DIMCLRD
 70
0
  9
$DIMCLRE
 70
0
  9
$DIMCLRT
 70
0
  9
$DIMTFAC
 40
1.0
  9
$DIMGAP
 40
0.625
  9
$DIMJUST
 70
0
  9
$DIMSD1
 70
0
  9
$DIMSD2
 70
0
  9
$DIMTOLJ
 70
0
  9
$DIMTZIN
 70
8
  9
$DIMALTZ
 70
0
  9
$DIMALTTZ
 70
0
  9
$DIMUPT
 70
0
  9
$DIMDEC
 70
2
  9
$DIMTDEC
 70
2
  9
$DIMALTU
 70
2
  9
$DIMALTTD
 70
3
  9
$DIMTXSTY
  7
Standard
  9
$DIMAUNIT
 70
0
  9
$DIMADEC
 70
0
  9
$DIMALTRND
 40
0.0
  9
$DIMAZIN
 70
0
  9
$DIMDSEP
 70
44
  9
$DIMATFIT
 70
3
  9
$DIMFRAC
 70
0
  9
$DIMLDRBLK
  1

  9
$DIMLUNIT
 70
2
  9
$DIMLWD
 70
-2
  9
$DIMLWE
 70
-2
  9
$DIMTMOVE
 70
0
  9
$DIMFXL
 40
1.0
  9
$DIMFXLON
 70
0
  9
$DIMJOGANG
 40
0.785398163397
  9
$DIMTFILL
 70
0
  9
$DIMTFILLCLR
 70
0
  9
$DIMARCSYM
 70
0
  9
$DIMLTYPE
  6

  9
$DIMLTEX1
  6

  9
$DIMLTEX2
  6

  9
$DIMTXTDIRECTION
 70
0
  9
$LUNITS
 70
2
  9
$LUPREC
 70
4
  9
$SKETCHINC
 40
1.0
  9
$FILLETRAD
 40
10.0
  9
$AUNITS
 70
0
  9
$AUPREC
 70
2
  9
$MENU
  1
.
  9
$ELEVATION
 40
0.0
  9
$PELEVATION
 40
0.0
  9
$THICKNESS
 40
0.0
  9
$LIMCHECK
 70
0
  9
$CHAMFERA
 40
0.0
  9
$CHAMFERB
 40
0.0
  9
$CHAMFERC
 40
0.0
  9
$CHAMFERD
 40
0.0
  9
$SKPOLY
 70
0
  9
$TDCREATE
 40
2461318.7378703705
  9
$TDUCREATE
 40
2458532.153996898
  9
$TDUPDATE
 40
2461318.7378703705
  9
$TDUUPDATE
 40
2458532.1544311
  9
$TDINDWG
 40
0.0
  9
$TDUSRTIMER
 40
0.0
  9
$USRTIMER
 70
1
  9
$ANGBASE
 50
0.0
  9
$ANGDIR
 70
0
  9
$PDMODE
 70
0
  9
$PDSIZE
 40
0.0
  9
$PLINEWID
 40
0.0
  9
$SPLFRAME
 70
0
  9
$SPLINETYPE
 70
6
  9
$SPLINESEGS
 70
8
  9
$HANDSEED
  5
3F
  9
$SURFTAB1
 70
6
  9
$SURFTAB2
 70
6
  9
$SURFTYPE
 70
6
  9
$SURFU
 70
6
  9
$SURFV
 70
6
  9
$UCSBASE
  2

  9
$UCSNAME
  2

  9
$UCSORG
 10
0.0
 20
0.0
 30
0.0
  9
$UCSXDIR
 10
1.0
 20
0.0
 30
0.0
  9
$UCSYDIR
 10
0.0
 20
1.0
 30
0.0
  9
$UCSORTHOREF
  2

  9
$UCSORTHOVIEW
 70
0
  9
$UCSORGTOP
 10
0.0
 20
0.0
 30
0.0
  9
$UCSORGBOTTOM
 10
0.0
 20
0.0
 30
0.0
  9
$UCSORGLEFT
 10
0.0
 20
0.0
 30
0.0
  9
$UCSORGRIGHT
 10
0.0
 20
0.0
 30
0.0
  9
$UCSORGFRONT
 10
0.0
 20
0.0
 30
0.0
  9
$UCSORGBACK
 10
0.0
 20
0.0
 30
0.0
  9
$PUCSBASE
  2

  9
$PUCSNAME
  2

  9
$PUCSORG
 10
0.0
 20
0.0
 30
0.0
  9
$PUCSXDIR
 10
1.0
 20
0.0
 30
0.0
  9
$PUCSYDIR
 10
0.0
 20
1.0
 30
0.0
  9
$PUCSORTHOREF
  2

  9
$PUCSORTHOVIEW
 70
0
  9
$PUCSORGTOP
 10
0.0
 20
0.0
 30
0.0
  9
$PUCSORGBOTTOM
 10
0.0
 20
0.0
 30
0.0
  9
$PUCSORGLEFT
 10
0.0
 20
0.0
 30
0.0
  9
$PUCSORGRIGHT
 10
0.0
 20
0.0
 30
0.0
  9
$PUCSORGFRONT
 10
0.0
 20
0.0
 30
0.0
  9
$PUCSORGBACK
 10
0.0
 20
0.0
 30
0.0
  9
$USERI1
 70
0
  9
$USERI2
 70
0
  9
$USERI3
 70
0
  9
$USERI4
 70
0
  9
$USERI5
 70
0
  9
$USERR1
 40
0.0
  9
$USERR2
 40
0.0
  9
$USERR3
 40
0.0
  9
$USERR4
 40
0.0
  9
$USERR5
 40
0.0
  9
$WORLDVIEW
 70
1
  9
$SHADEDGE
 70
3
  9
$SHADEDIF
 70
70
  9
$TILEMODE
 70
1
  9
$MAXACTVP
 70
64
  9
$PINSBASE
 10
0.0
 20
0.0
 30
0.0
  9
$PLIMCHECK
 70
0
  9
$PEXTMIN
 10
1e+20
 20
1e+20
 30
1e+20
  9
$PEXTMAX
 10
-1e+20
 20
-1e+20
 30
-1e+20
  9
$PLIMMIN
 10
0.0
 20
0.0
  9
$PLIMMAX
 10
420.0
 20
297.0
  9
$UNITMODE
 70
0
  9
$VISRETAIN
 70
1
  9
$PLINEGEN
 70
0
  9
$PSLTSCALE
 70
1
  9
$TREEDEPTH
 70
3020
  9
$CMLSTYLE
  2
Standard
  9
$CMLJUST
 70
0
  9
$CMLSCALE
 40
20.0
  9
$PROXYGRAPHICS
 70
1
  9
$MEASUREMENT
 70
1
  9
$CELWEIGHT
370
-1
  9
$ENDCAPS
280
0
  9
$JOINSTYLE
280
0
  9
$LWDISPLAY
290
0
  9
$INSUNITS
 70
4
  9
$HYPERLINKBASE
  1

  9
$STYLESHEET
  1

  9
$XEDIT
290
1
  9
$CEPSNTYPE
380
0
  9
$PSTYLEMODE
290
1
  9
$FINGERPRINTGUID
  2
{054CCA55-ED5A-4885-B9C0-41C38AEC92B6}
  9
$VERSIONGUID
  2
{9D65F275-1756-4485-9AE8-F98C0AF05E23}
  9
$EXTNAMES
290
1
  9
$PSVPSCALE
 40
0.0
  9
$OLESTARTUP
290
0
  9
$SORTENTS
280
127
  9
$INDEXCTL
280
0
  9
$HIDETEXT
280
1
  9
$XCLIPFRAME
280
1
  9
$HALOGAP
280
0
  9
$OBSCOLOR
 70
257
  9
$OBSLTYPE
280
0
  9
$INTERSECTIONDISPLAY
280
0
  9
$INTERSECTIONCOLOR
 70
257
  9
$DIMASSOC
280
2
  9
$PROJECTNAME
  1

  9
$CAMERADISPLAY
290
0
  9
$LENSLENGTH
 40
50.0
  9
$CAMERAHEIGHT
 40
0.0
  9
$STEPSPERSEC
 40
24.0
  9
$STEPSIZE
 40
100.0
  9
$3DDWFPREC
 40
2.0
  9
$PSOLWIDTH
 40
0.005
  9
$PSOLHEIGHT
 40
0.08
  9
$LOFTANG1
 40
1.570796326795
  9
$LOFTANG2
 40
1.570796326795
  9
$LOFTMAG1
 40
0.0
  9
$LOFTMAG2
 40
0.0
  9
$LOFTPARAM
 70
7
  9
$LOFTNORMALS
280
1
  9
$LATITUDE
 40
37.795
  9
$LONGITUDE
 40
-122.394
  9
$NORTHDIRECTION
 40
0.0
  9
$TIMEZONE
 70
-8000
  9
$LIGHTGLYPHDISPLAY
280
1
  9
$TILEMODELIGHTSYNCH
280
1
  9
$CMATERIAL
347
20
  9
$SOLIDHIST
280
0
  9
$SHOWHIST
280
1
  9
$DWFFRAME
280
2
  9
$DGNFRAME
280
2
  9
$REALWORLDSCALE
290
1
  9
$INTERFERECOLOR
 62
256
  9
$CSHADOW
280
0
  9
$SHADOWPLANELOCATION
 40
0.0
  0
ENDSEC
  0
SECTION
  2
CLASSES
  0
CLASS
  1
ACDBDICTIONARYWDFLT
  2
AcDbDictionaryWithDefault
  3
ObjectDBX Classes
 90
0
 91
0
280
0
281
0
  0
CLASS
  1
SUN
  2
AcDbSun
  3
SCENEOE
 90
1153
 91
0
280
0
281
0
  0
CLASS
  1
VISUALSTYLE
  2
AcDbVisualStyle
  3
ObjectDBX Classes
 90
4095
 91
0
280
0
281
0
  0
CLASS
  1
MATERIAL
  2
AcDbMaterial
  3
ObjectDBX Classes
 90
1153
 91
0
280
0
281
0
  0
CLASS
  1
SCALE
  2
AcDbScale
  3
ObjectDBX Classes
 90
1153
 91
0
280
0
281
0
  0
CLASS
  1
TABLESTYLE
  2
AcDbTableStyle
  3
ObjectDBX Classes
 90
4095
 91
0
280
0
281
0
  0
CLASS
  1
MLEADERSTYLE
  2
AcDbMLeaderStyle
  3
ACDB_MLEADERSTYLE_CLASS
 90
4095
 91
0
280
0
281
0
  0
CLASS
  1
DICTIONARYVAR
  2
AcDbDictionaryVar
  3
ObjectDBX Classes
 90
0
 91
0
280
0
281
0
  0
CLASS
  1
CELLSTYLEMAP
  2
AcDbCellStyleMap
  3
ObjectDBX Classes
 90
1152
 91
0
280
0
281
0
  0
CLASS
  1
MENTALRAYRENDERSETTINGS
  2
AcDbMentalRayRenderSettings
  3
SCENEOE
 90
1024
 91
0
280
0
281
0
  0
CLASS
  1
ACDBDETAILVIEWSTYLE
  2
AcDbDetailViewStyle
  3
ObjectDBX Classes
 90
1025
 91
0
280
0
281
0
  0
CLASS
  1
ACDBSECTIONVIEWSTYLE
  2
AcDbSectionViewStyle
  3
ObjectDBX Classes
 90
1025
 91
0
280
0
281
0
  0
CLASS
  1
RASTERVARIABLES
  2
AcDbRasterVariables
  3
ISM
 90
0
 91
0
280
0
281
0
  0
CLASS
  1
ACDBPLACEHOLDER
  2
AcDbPlaceHolder
  3
ObjectDBX Classes
 90
0
 91
0
280
0
281
0
  0
CLASS
  1
LAYOUT
  2
AcDbLayout
  3
ObjectDBX Classes
 90
0
 91
0
280
0
281
0
  0
ENDSEC
  0
SECTION
  2
TABLES
  0
TABLE
  2
VPORT
  5
8
330
0
100
AcDbSymbolTable
 70
1
  0
VPORT
  5
23
330
8
100
AcDbSymbolTableRecord
100
AcDbViewportTableRecord
  2
*Active
 70
0
 10
0.0
 20
0.0
 11
1.0
 21
1.0
 12
0.0
 22
0.0
 13
0.0
 23
0.0
 14
0.5
 24
0.5
 15
0.5
 25
0.5
 16
0.0
 26
0.0
 36
1.0
 17
0.0
 27
0.0
 37
0.0
 40
1000.0
 41
1.34
 42
50.0
 43
0.0
 44
0.0
 50
0.0
 51
0.0
 71
0
 72
1000
 73
1
 74
3
 75
0
 76
0
 77
0
 78
0
281
0
 65
0
146
0.0
  0
ENDTAB
  0
TABLE
  2
LTYPE
  5
2
330
0
100
AcDbSymbolTable
 70
3
  0
LTYPE
  5
24
330
2
100
AcDbSymbolTableRecord
100
AcDbLinetypeTableRecord
  2
ByBlock
 70
0
  3

 72
65
 73
0
 40
0.0
  0
LTYPE
  5
25
330
2
100
AcDbSymbolTableRecord
100
AcDbLinetypeTableRecord
  2
ByLayer
 70
0
  3

 72
65
 73
0
 40
0.0
  0
LTYPE
  5
26
330
2
100
AcDbSymbolTableRecord
100
AcDbLinetypeTableRecord
  2
Continuous
 70
0
  3

 72
65
 73
0
 40
0.0
  0
ENDTAB
  0
TABLE
  2
LAYER
  5
1
330
0
100
AcDbSymbolTable
 70
7
  0
LAYER
  5
27
330
1
100
AcDbSymbolTableRecord
100
AcDbLayerTableRecord
  2
0
 70
0
 62
7
  6
Continuous
370
-3
390
13
347
21
  0
LAYER
  5
28
330
1
100
AcDbSymbolTableRecord
100
AcDbLayerTableRecord
  2
Defpoints
 70
0
 62
7
  6
Continuous
290
0
370
-3
390
13
347
21
  0
LAYER
  5
2F
330
1
100
AcDbSymbolTableRecord
100
AcDbLayerTableRecord
  2
CUT
 70
0
 62
1
  6
Continuous
370
-3
390
13
347
21
  0
LAYER
  5
30
330
1
100
AcDbSymbolTableRecord
100
AcDbLayerTableRecord
  2
SEAM
 70
0
 62
5
  6
Continuous
370
-3
390
13
347
21
  0
LAYER
  5
31
330
1
100
AcDbSymbolTableRecord
100
AcDbLayerTableRecord
  2
GRAIN
 70
0
 62
3
  6
Continuous
370
-3
390
13
347
21
  0
LAYER
  5
32
330
1
100
AcDbSymbolTableRecord
100
AcDbLayerTableRecord
  2
NOTCH
 70
0
 62
2
  6
Continuous
370
-3
390
13
347
21
  0
LAYER
  5
33
330
1
100
AcDbSymbolTableRecord
100
AcDbLayerTableRecord
  2
ID
 70
0
 62
7
  6
Continuous
370
-3
390
13
347
21
  0
ENDTAB
  0
TABLE
  2
STYLE
  5
5
330
0
100
AcDbSymbolTable
 70
1
  0
STYLE
  5
29
330
5
100
AcDbSymbolTableRecord
100
AcDbTextStyleTableRecord
  2
Standard
 70
0
 40
0.0
 41
1.0
 50
0.0
 71
0
 42
2.5
  3
txt
  4

  0
ENDTAB
  0
TABLE
  2
VIEW
  5
7
330
0
100
AcDbSymbolTable
 70
0
  0
ENDTAB
  0
TABLE
  2
UCS
  5
6
330
0
100
AcDbSymbolTable
 70
0
  0
ENDTAB
  0
TABLE
  2
APPID
  5
3
330
0
100
AcDbSymbolTable
 70
3
  0
APPID
  5
2A
330
3
100
AcDbSymbolTableRecord
100
AcDbRegAppTableRecord
  2
ACAD
 70
0
  0
APPID
  5
3C
330
3
100
AcDbSymbolTableRecord
100
AcDbRegAppTableRecord
  2
HATCHBACKGROUNDCOLOR
 70
0
  0
APPID
  5
3D
330
3
100
AcDbSymbolTableRecord
100
AcDbRegAppTableRecord
  2
EZDXF
 70
0
  0
ENDTAB
  0
TABLE
  2
DIMSTYLE
  5
4
330
0
100
AcDbSymbolTable
 70
1
100
AcDbDimStyleTable
  0
DIMSTYLE
105
2B
330
4
100
AcDbSymbolTableRecord
100
AcDbDimStyleTableRecord
  2
Standard
 70
0
 40
1.0
 41
2.5
 42
0.625
 43
3.75
 44
1.25
 45
0.0
 46
0.0
 47
0.0
 48
0.0
 49
2.5
140
2.5
141
2.5
142
0.0
143
0.03937007874
144
1.0
145
0.0
146
1.0
147
0.625
148
0.0
 69
0
 70
0
 71
0
 72
0
 73
0
 74
0
 75
0
 76
0
 77
1
 78
8
 79
3
170
0
171
3
172
1
173
0
174
0
175
0
176
0
177
0
178
0
179
2
271
2
272
2
273
2
274
3
275
0
276
0
277
2
278
44
279
0
280
0
281
0
282
0
283
0
284
8
285
0
286
0
288
0
289
3
290
0
371
-2
372
-2
  0
ENDTAB
  0
TABLE
  2
BLOCK_RECORD
  5
9
330
0
100
AcDbSymbolTable
 70
2
  0
BLOCK_RECORD
  5
17
330
9
100
AcDbSymbolTableRecord
100
AcDbBlockTableRecord
  2
*Model_Space
340
1A
 70
0
280
1
281
0
  0
BLOCK_RECORD
  5
1B
330
9
100
AcDbSymbolTableRecord
100
AcDbBlockTableRecord
  2
*Paper_Space
340
1E
 70
0
280
1
281
0
  0
ENDTAB
  0
ENDSEC
  0
SECTION
  2
BLOCKS
  0
BLOCK
  5
18
330
17
100
AcDbEntity
  8
0
100
AcDbBlockBegin
  2
*Model_Space
 70
0
 10
0.0
 20
0.0
 30
0.0
  3
*Model_Space
  1

  0
ENDBLK
  5
19
330
17
100
AcDbEntity
  8
0
100
AcDbBlockEnd
  0
BLOCK
  5
1C
330
1B
100
AcDbEntity
  8
0
100
AcDbBlockBegin
  2
*Paper_Space
 70
0
 10
0.0
 20
0.0
 30
0.0
  3
*Paper_Space
  1

  0
ENDBLK
  5
1D
330
1B
100
AcDbEntity
  8
0
100
AcDbBlockEnd
  0
ENDSEC
  0
SECTION
  2
ENTITIES
  0
LWPOLYLINE
  5
34
330
17
100
AcDbEntity
  8
CUT
100
AcDbPolyline
 90
111
 70
1
 10
0.0
 20
0.0
 10
-31.663919672959587
 20
35.738360080054996
 10
-65.93518764076424
 20
70.44809697465327
 10
-97.58771380076546
 20
105.41736352741322
 10
-126.52014529498028
 20
140.227884935158
 10
-155.36439002269253
 20
175.000580219169
 10
-182.7705386133356
 20
209.74441742099282
 10
-206.3880598479611
 20
244.475680173954
 10
-223.86555170681007
 20
279.21529345856527
 10
-235.83175078459456
 20
313.965437547417
 10
-246.686975574762
 20
348.7177439683381
 10
-255.50959741393663
 20
383.4738961580747
 10
-261.2085415889232
 20
418.2359455484374
 10
-262.6892652167786
 20
453.00595624091017
 10
-259.3649072349354
 20
487.78505263697474
 10
-252.37348511694827
 20
522.5711051229035
 10
-243.1770181710769
 20
557.3613503599024
 10
-233.237522612512
 20
592.1530126549932
 10
-224.0159659339272
 20
626.9432933229712
 10
-215.23795626411547
 20
661.7327103274598
 10
-205.85585525827656
 20
696.5232561332816
 10
-195.95227661213403
 20
731.3146833496436
 10
-185.610741298134
 20
766.1070020468362
 10
-254.77423784452543
 20
896.4102733902407
 10
-254.87819129547296
 20
950.0640079531902
 10
-254.96930844907357
 20
1003.717775986999
 10
-254.12467497937794
 20
1057.3734075170826
 10
-252.15419410210544
 20
1111.0312810232997
 10
-249.54874745333734
 20
1164.6904202133599
 10
-246.7992199992176
 20
1218.3498479189932
 10
-244.30411810439364
 20
1272.0087699959254
 10
-241.75158805590095
 20
1325.6678072667535
 10
-239.01329396528914
 20
1379.3272154181818
 10
-236.04792886682267
 20
1432.9870769233235
 10
-232.81418723186343
 20
1486.6474744923366
 10
-229.2707649232746
 20
1540.3084911555702
 10
-225.43090286360928
 20
1593.9701013672816
 10
-221.27129729562392
 20
1647.6323524854201
 10
-216.64085555217196
 20
1701.295547584573
 10
-211.3873194115311
 20
1754.9599923114365
 10
-205.358404928654
 20
1808.6259904117553
 10
-198.38173635052286
 20
1862.2938774550637
 10
-189.9283972081989
 20
1915.9650424433396
 10
-179.56937716146695
 20
1969.6411221851304
 10
-166.97646333472804
 20
2023.3233701838642
 10
-151.82110656439866
 20
2077.0127734028415
 10
-132.7492609733861
 20
2130.721748929365
 10
-105.76656911719819
 20
2184.526518843539
 10
-67.41351782773611
 20
2238.575176813856
 10
0.0
 20
2294.014780293182
 10
4.3227437189548805
 20
2294.0250470606084
 10
8.878190013504291
 20
2294.0363379364976
 10
13.6228605294107
 20
2294.04605326581
 10
18.511085511544948
 20
2294.0549870165346
 10
23.4957876485126
 20
2294.063793289613
 10
28.528960687874477
 20
2294.072678788155
 10
28.654781461581535
 20
2238.7598979192
 10
28.770666970655437
 20
2184.791846662133
 10
28.8831307169457
 20
2131.0428832282178
 10
28.993329198707976
 20
2077.372336481077
 10
29.10210343487394
 20
2023.7135073009097
 10
29.2099887432897
 20
1970.056786222874
 10
29.317332809085055
 20
1916.4017157291626
 10
29.424368206237713
 20
1862.7476829181708
 10
29.531249125776803
 20
1809.0939280692
 10
29.638069783779116
 20
1755.440179179749
 10
29.74488395564712
 20
1701.7864338636782
 10
29.851716345458772
 20
1648.1326908799606
 10
29.958572317580238
 20
1594.4789493066323
 10
30.06544975912206
 20
1540.825208529517
 10
30.172341751541083
 20
1487.1714681641008
 10
30.279242954155226
 20
1433.5177280001299
 10
30.386148098337955
 20
1379.8639879569894
 10
30.493053311733043
 20
1326.210248034158
 10
30.599961194777705
 20
1272.556508285097
 10
30.70687758838605
 20
1218.9027687877194
 10
30.81381972564557
 20
1165.2490295934194
 10
30.92082368953333
 20
1111.5952905825613
 10
31.02793672318056
 20
1057.9415511745349
 10
31.135187475602265
 20
1004.2878099116506
 10
31.24252939809226
 20
950.634064279644
 10
31.34979702407082
 20
896.980311342053
 10
31.617934715580592
 20
766.5159503278544
 10
31.68551157277481
 20
731.7432568191323
 10
31.752173156675457
 20
696.9705634939011
 10
31.818174175699486
 20
662.197874263616
 10
31.883787048091733
 20
627.4251904828185
 10
31.949230377346183
 20
592.6525117624035
 10
32.014634427973334
 20
557.8798369406992
 10
32.08005846463529
 20
523.1071647632143
 10
32.14552119758749
 20
488.3344941641202
 10
32.21102122992834
 20
453.5618243065556
 10
32.27654785359303
 20
418.78915452490185
 10
32.342079698978665
 20
384.0164842479815
 10
32.40758212827713
 20
349.24381296994557
 10
32.47300518042403
 20
314.4711402932165
 10
32.53829101864929
 20
279.6984660894581
 10
32.60339856406509
 20
244.92579065755734
 10
32.668328156919664
 20
210.14986908904035
 10
32.73312480535028
 20
175.35400746695308
 10
32.797828091822886
 20
140.52634010861598
 10
32.862497208770925
 20
105.66144518130355
 10
32.927510272963936
 20
70.63162363870572
 10
32.99185394323325
 20
35.858947903343456
 10
33.05639446969317
 20
0.06245790907774613
 10
27.224384698811388
 20
0.051499795387456505
 10
21.44853993963009
 20
0.04065419201108144
 10
15.784484726412254
 20
0.030065663864440345
 10
10.28676697151379
 20
0.019913186346753826
 10
5.00833205845075
 20
0.010186727907241948
 10
0.0
 20
0.0
  0
LWPOLYLINE
  5
35
330
17
100
AcDbEntity
  8
SEAM
100
AcDbPolyline
 90
110
 70
1
 10
0.0
 20
0.0
 10
-31.663919672959587
 20
35.738360080054996
 10
-65.93518764076424
 20
70.44809697465327
 10
-97.58771380076546
 20
105.41736352741322
 10
-126.52014529498028
 20
140.227884935158
 10
-155.36439002269253
 20
175.000580219169
 10
-182.7705386133356
 20
209.74441742099282
 10
-206.3880598479611
 20
244.475680173954
 10
-223.86555170681007
 20
279.21529345856527
 10
-235.83175078459456
 20
313.965437547417
 10
-246.686975574762
 20
348.7177439683381
 10
-255.50959741393663
 20
383.4738961580747
 10
-261.2085415889232
 20
418.2359455484374
 10
-262.6892652167786
 20
453.00595624091017
 10
-259.3649072349354
 20
487.78505263697474
 10
-252.37348511694827
 20
522.5711051229035
 10
-243.1770181710769
 20
557.3613503599024
 10
-233.237522612512
 20
592.1530126549932
 10
-224.0159659339272
 20
626.9432933229712
 10
-215.23795626411547
 20
661.7327103274598
 10
-205.85585525827656
 20
696.5232561332816
 10
-195.95227661213403
 20
731.3146833496436
 10
-185.610741298134
 20
766.1070020468362
 10
-254.77423784452543
 20
896.4102733902407
 10
-254.87819129547296
 20
950.0640079531902
 10
-254.96930844907357
 20
1003.717775986999
 10
-254.12467497937794
 20
1057.3734075170826
 10
-252.15419410210544
 20
1111.0312810232997
 10
-249.54874745333734
 20
1164.6904202133599
 10
-246.7992199992176
 20
1218.3498479189932
 10
-244.30411810439364
 20
1272.0087699959254
 10
-241.75158805590095
 20
1325.6678072667535
 10
-239.01329396528914
 20
1379.3272154181818
 10
-236.04792886682267
 20
1432.9870769233235
 10
-232.81418723186343
 20
1486.6474744923366
 10
-229.2707649232746
 20
1540.3084911555702
 10
-225.43090286360928
 20
1593.9701013672816
 10
-221.27129729562392
 20
1647.6323524854201
 10
-216.64085555217196
 20
1701.295547584573
 10
-211.3873194115311
 20
1754.9599923114365
 10
-205.358404928654
 20
1808.6259904117553
 10
-198.38173635052286
 20
1862.2938774550637
 10
-189.9283972081989
 20
1915.9650424433396
 10
-179.56937716146695
 20
1969.6411221851304
 10
-166.97646333472804
 20
2023.3233701838642
 10
-151.82110656439866
 20
2077.0127734028415
 10
-132.7492609733861
 20
2130.721748929365
 10
-105.76656911719819
 20
2184.526518843539
 10
-67.41351782773611
 20
2238.575176813856
 10
0.0
 20
2294.014780293182
 10
4.3227437189548805
 20
2294.0250470606084
 10
8.878190013504291
 20
2294.0363379364976
 10
13.6228605294107
 20
2294.04605326581
 10
18.511085511544948
 20
2294.0549870165346
 10
23.4957876485126
 20
2294.063793289613
 10
28.528960687874477
 20
2294.072678788155
 10
28.654781461581535
 20
2238.7598979192
 10
28.770666970655437
 20
2184.791846662133
 10
28.8831307169457
 20
2131.0428832282178
 10
28.993329198707976
 20
2077.372336481077
 10
29.10210343487394
 20
2023.7135073009097
 10
29.2099887432897
 20
1970.056786222874
 10
29.317332809085055
 20
1916.4017157291626
 10
29.424368206237713
 20
1862.7476829181708
 10
29.531249125776803
 20
1809.0939280692
 10
29.638069783779116
 20
1755.440179179749
 10
29.74488395564712
 20
1701.7864338636782
 10
29.851716345458772
 20
1648.1326908799606
 10
29.958572317580238
 20
1594.4789493066323
 10
30.06544975912206
 20
1540.825208529517
 10
30.172341751541083
 20
1487.1714681641008
 10
30.279242954155226
 20
1433.5177280001299
 10
30.386148098337955
 20
1379.8639879569894
 10
30.493053311733043
 20
1326.210248034158
 10
30.599961194777705
 20
1272.556508285097
 10
30.70687758838605
 20
1218.9027687877194
 10
30.81381972564557
 20
1165.2490295934194
 10
30.92082368953333
 20
1111.5952905825613
 10
31.02793672318056
 20
1057.9415511745349
 10
31.135187475602265
 20
1004.2878099116506
 10
31.24252939809226
 20
950.634064279644
 10
31.34979702407082
 20
896.980311342053
 10
31.617934715580592
 20
766.5159503278544
 10
31.68551157277481
 20
731.7432568191323
 10
31.752173156675457
 20
696.9705634939011
 10
31.818174175699486
 20
662.197874263616
 10
31.883787048091733
 20
627.4251904828185
 10
31.949230377346183
 20
592.6525117624035
 10
32.014634427973334
 20
557.8798369406992
 10
32.08005846463529
 20
523.1071647632143
 10
32.14552119758749
 20
488.3344941641202
 10
32.21102122992834
 20
453.5618243065556
 10
32.27654785359303
 20
418.78915452490185
 10
32.342079698978665
 20
384.0164842479815
 10
32.40758212827713
 20
349.24381296994557
 10
32.47300518042403
 20
314.4711402932165
 10
32.53829101864929
 20
279.6984660894581
 10
32.60339856406509
 20
244.92579065755734
 10
32.668328156919664
 20
210.14986908904035
 10
32.73312480535028
 20
175.35400746695308
 10
32.797828091822886
 20
140.52634010861598
 10
32.862497208770925
 20
105.66144518130355
 10
32.927510272963936
 20
70.63162363870572
 10
32.99185394323325
 20
35.858947903343456
 10
33.05639446969317
 20
0.06245790907774613
 10
27.224384698811388
 20
0.051499795387456505
 10
21.44853993963009
 20
0.04065419201108144
 10
15.784484726412254
 20
0.030065663864440345
 10
10.28676697151379
 20
0.019913186346753826
 10
5.00833205845075
 20
0.010186727907241948
  0
LINE
  5
36
330
17
100
AcDbEntity
  8
GRAIN
100
AcDbLine
 10
-114.81643537354272
 20
1107.0363393940775
 30
0.0
 11
-114.81643537354272
 21
1187.0363393940775
 31
0.0
  0
TEXT
  5
37
330
17
100
AcDbEntity
  8
ID
100
AcDbText
 10
-262.6892652167786
 20
2314.072678788155
 30
0.0
 40
8.0
  1
O08_SMOOTH_LOWER_W3
100
AcDbText
  0
CIRCLE
  5
38
330
17
100
AcDbEntity
  8
NOTCH
100
AcDbCircle
 10
-254.96930844907357
 20
1003.717775986999
 30
0.0
 40
1.5
  0
CIRCLE
  5
39
330
17
100
AcDbEntity
  8
NOTCH
100
AcDbCircle
 10
31.135187475602265
 20
1004.2878099116506
 30
0.0
 40
1.5
  0
CIRCLE
  5
3A
330
17
100
AcDbEntity
  8
NOTCH
100
AcDbCircle
 10
15.784484726412254
 20
0.030065663864440345
 30
0.0
 40
1.5
  0
CIRCLE
  5
3B
330
17
100
AcDbEntity
  8
NOTCH
100
AcDbCircle
 10
13.6228605294107
 20
2294.04605326581
 30
0.0
 40
1.5
  0
ENDSEC
  0
SECTION
  2
OBJECTS
  0
DICTIONARY
  5
A
330
0
100
AcDbDictionary
281
1
  3
ACAD_COLOR
350
B
  3
ACAD_GROUP
350
C
  3
ACAD_LAYOUT
350
D
  3
ACAD_MATERIAL
350
E
  3
ACAD_MLEADERSTYLE
350
F
  3
ACAD_MLINESTYLE
350
10
  3
ACAD_PLOTSETTINGS
350
11
  3
ACAD_PLOTSTYLENAME
350
12
  3
ACAD_SCALELIST
350
14
  3
ACAD_TABLESTYLE
350
15
  3
ACAD_VISUALSTYLE
350
16
  3
EZDXF_META
350
2D
  0
DICTIONARY
  5
B
330
A
100
AcDbDictionary
281
1
  0
DICTIONARY
  5
C
330
A
100
AcDbDictionary
281
1
  0
DICTIONARY
  5
D
330
A
100
AcDbDictionary
281
1
  3
Model
350
1A
  3
Layout1
350
1E
  0
DICTIONARY
  5
E
330
A
100
AcDbDictionary
281
1
  3
ByBlock
350
1F
  3
ByLayer
350
20
  3
Global
350
21
  0
DICTIONARY
  5
F
330
A
100
AcDbDictionary
281
1
  3
Standard
350
2C
  0
DICTIONARY
  5
10
330
A
100
AcDbDictionary
281
1
  3
Standard
350
22
  0
DICTIONARY
  5
11
330
A
100
AcDbDictionary
281
1
  0
ACDBDICTIONARYWDFLT
  5
12
330
A
100
AcDbDictionary
281
1
  3
Normal
350
13
100
AcDbDictionaryWithDefault
340
13
  0
ACDBPLACEHOLDER
  5
13
330
12
  0
DICTIONARY
  5
14
330
A
100
AcDbDictionary
281
1
  0
DICTIONARY
  5
15
330
A
100
AcDbDictionary
281
1
  0
DICTIONARY
  5
16
330
A
100
AcDbDictionary
281
1
  0
LAYOUT
  5
1A
330
D
100
AcDbPlotSettings
  1

  4
A3
  6

 40
7.5
 41
20.0
 42
7.5
 43
20.0
 44
420.0
 45
297.0
 46
0.0
 47
0.0
 48
0.0
 49
0.0
140
0.0
141
0.0
142
1.0
143
1.0
 70
1024
 72
1
 73
0
 74
5
  7

 75
16
 76
0
 77
2
 78
300
147
1.0
148
0.0
149
0.0
100
AcDbLayout
  1
Model
 70
1
 71
0
 10
0.0
 20
0.0
 11
420.0
 21
297.0
 12
0.0
 22
0.0
 32
0.0
 14
1e+20
 24
1e+20
 34
1e+20
 15
-1e+20
 25
-1e+20
 35
-1e+20
146
0.0
 13
0.0
 23
0.0
 33
0.0
 16
1.0
 26
0.0
 36
0.0
 17
0.0
 27
1.0
 37
0.0
 76
1
330
17
  0
LAYOUT
  5
1E
330
D
100
AcDbPlotSettings
  1

  4
A3
  6

 40
7.5
 41
20.0
 42
7.5
 43
20.0
 44
420.0
 45
297.0
 46
0.0
 47
0.0
 48
0.0
 49
0.0
140
0.0
141
0.0
142
1.0
143
1.0
 70
0
 72
1
 73
0
 74
5
  7

 75
16
 76
0
 77
2
 78
300
147
1.0
148
0.0
149
0.0
100
AcDbLayout
  1
Layout1
 70
1
 71
1
 10
0.0
 20
0.0
 11
420.0
 21
297.0
 12
0.0
 22
0.0
 32
0.0
 14
1e+20
 24
1e+20
 34
1e+20
 15
-1e+20
 25
-1e+20
 35
-1e+20
146
0.0
 13
0.0
 23
0.0
 33
0.0
 16
1.0
 26
0.0
 36
0.0
 17
0.0
 27
1.0
 37
0.0
 76
1
330
1B
  0
MATERIAL
  5
1F
102
{ACAD_REACTORS
330
E
102
}
330
E
100
AcDbMaterial
  1
ByBlock
  2

 70
0
 40
1.0
 71
1
 41
1.0
 91
-1023410177
 42
1.0
 72
1
  3

 73
1
 74
1
 75
1
 44
0.5
 73
0
 45
1.0
 46
1.0
 77
1
  4

 78
1
 79
1
170
1
 48
1.0
171
1
  6

172
1
173
1
174
1
140
1.0
141
1.0
175
1
  7

176
1
177
1
178
1
143
1.0
179
1
  8

270
1
271
1
272
1
145
1.0
146
1.0
273
1
  9

274
1
275
1
276
1
 42
1.0
 72
1
  3

 73
1
 74
1
 75
1
 94
63
  0
MATERIAL
  5
20
102
{ACAD_REACTORS
330
E
102
}
330
E
100
AcDbMaterial
  1
ByLayer
  2

 70
0
 40
1.0
 71
1
 41
1.0
 91
-1023410177
 42
1.0
 72
1
  3

 73
1
 74
1
 75
1
 44
0.5
 73
0
 45
1.0
 46
1.0
 77
1
  4

 78
1
 79
1
170
1
 48
1.0
171
1
  6

172
1
173
1
174
1
140
1.0
141
1.0
175
1
  7

176
1
177
1
178
1
143
1.0
179
1
  8

270
1
271
1
272
1
145
1.0
146
1.0
273
1
  9

274
1
275
1
276
1
 42
1.0
 72
1
  3

 73
1
 74
1
 75
1
 94
63
  0
MATERIAL
  5
21
102
{ACAD_REACTORS
330
E
102
}
330
E
100
AcDbMaterial
  1
Global
  2

 70
0
 40
1.0
 71
1
 41
1.0
 91
-1023410177
 42
1.0
 72
1
  3

 73
1
 74
1
 75
1
 44
0.5
 73
0
 45
1.0
 46
1.0
 77
1
  4

 78
1
 79
1
170
1
 48
1.0
171
1
  6

172
1
173
1
174
1
140
1.0
141
1.0
175
1
  7

176
1
177
1
178
1
143
1.0
179
1
  8

270
1
271
1
272
1
145
1.0
146
1.0
273
1
  9

274
1
275
1
276
1
 42
1.0
 72
1
  3

 73
1
 74
1
 75
1
 94
63
  0
MLINESTYLE
  5
22
102
{ACAD_REACTORS
330
10
102
}
330
10
100
AcDbMlineStyle
  2
Standard
 70
0
  3

 62
256
 51
90.0
 52
90.0
 71
2
 49
0.5
 62
256
  6
BYLAYER
 49
-0.5
 62
256
  6
BYLAYER
  0
MLEADERSTYLE
  5
2C
102
{ACAD_REACTORS
330
F
102
}
330
F
100
AcDbMLeaderStyle
179
2
170
2
171
1
172
0
 90
2
 40
0.0
 41
0.0
173
1
 91
-1056964608
 92
-2
290
1
 42
2.0
291
1
 43
8.0
  3
Standard
 44
4.0
300

342
29
174
1
175
1
176
0
178
1
 93
-1056964608
 45
4.0
292
0
297
0
 46
4.0
 94
-1056964608
 47
1.0
 49
1.0
140
1.0
294
1
141
0.0
177
0
142
1.0
295
0
296
0
143
3.75
271
0
272
9
273
9
  0
DICTIONARY
  5
2D
330
A
100
AcDbDictionary
280
1
281
1
  3
CREATED_BY_EZDXF
350
2E
  3
WRITTEN_BY_EZDXF
350
3E
  0
DICTIONARYVAR
  5
2E
330
2D
100
DictionaryVariables
280
0
  1
1.4.4 @ 2026-10-04T17:42:32.126745+00:00
  0
DICTIONARYVAR
  5
3E
330
2D
100
DictionaryVariables
280
0
  1
1.4.4 @ 2026-10-04T17:42:32.128260+00:00
  0
ENDSEC
  0
EOF
