  0
SECTION
  2
HEADER
  9
$ACADVER
  1
AC1024
  9
$ACADMAINTVER
 70
6
  9
$DWGCODEPAGE
  3
ANSI_1252
  9
$LASTSAVEDBY
  1
ezdxf
  9
$INSBASE
 10
0.0
 20
0.0
 30
0.0
  9
$EXTMIN
 10
1e+20
 20
1e+20
 30
1e+20
  9
$EXTMAX
 10
-1e+20
 20
-1e+20
 30
-1e+20
  9
$LIMMIN
 10
0.0
 20
0.0
  9
$LIMMAX
 10
420.0
 20
297.0
  9
$ORTHOMODE
 70
0
  9
$REGENMODE
 70
1
  9
$FILLMODE
 70
1
  9
$QTEXTMODE
 70
0
  9
$MIRRTEXT
 70
1
  9
$LTSCALE
 40
1.0
  9
$ATTMODE
 70
1
  9
$TEXTSIZE
 40
2.5
  9
$TRACEWID
 40
1.0
  9
$TEXTSTYLE
  7
Standard
  9
$CLAYER
  8
0
  9
$CELTYPE
  6
ByLayer
  9
$CECOLOR
 62
256
  9
$CELTSCALE
 40
1.0
  9
$DISPSILH
 70
0
  9
$DIMSCALE
 40
1.0
  9
$DIMASZ
 40
2.5
  9
$DIMEXO
 40
0.625
  9
$DIMDLI
 40
3.75
  9
$DIMRND
 40
0.0
  9
$DIMDLE
 40
0.0
  9
$DIMEXE
 40
1.25
  9
$DIMTP
 40
0.0
  9
$DIMTM
 40
0.0
  9
$DIMTXT
 40
2.5
  9
$DIMCEN
 40
2.5
  9
$DIMTSZ
 40
0.0
  9
$DIMTOL
 70
0
  9
$DIMLIM
 70
0
  9
$DIMTIH
 70
0
  9
$DIMTOH
 70
0
  9
$DIMSE1
 70
0
  9
$DIMSE2
 70
0
  9
$DIMTAD
 70
1
  9
$DIMZIN
 70
8
  9
$DIMBLK
  1

  9
$DIMASO
 70
1
  9
$DIMSHO
 70
1
  9
$DIMPOST
  1

  9
$DIMAPOST
  1

  9
$DIMALT
 70
0
  9
$DIMALTD
 70
3
  9
$DIMALTF
 40
0.03937007874
  9
$DIMLFAC
 40
1.0
  9
$DIMTOFL
 70
1
  9
$DIMTVP
 40
0.0
  9
$DIMTIX
 70
0
  9
$DIMSOXD
 70
0
  9
$DIMSAH
 70
0
  9
$DIMBLK1
  1

  9
$DIMBLK2
  1

  9
$DIMSTYLE
  2
ISO-25
  9
$DIMCLRD
 70
0
  9
$DIMCLRE
 70
0
  9
$DIMCLRT
 70
0
  9
$DIMTFAC
 40
1.0
  9
$DIMGAP
 40
0.625
  9
$DIMJUST
 70
0
  9
$DIMSD1
 70
0
  9
$DIMSD2
 70
0
  9
$DIMTOLJ
 70
0
  9
$DIMTZIN
 70
8
  9
$DIMALTZ
 70
0
  9
$DIMALTTZ
 70
0
  9
$DIMUPT
 70
0
  9
$DIMDEC
 70
2
  9
$DIMTDEC
 70
2
  9
$DIMALTU
 70
2
  9
$DIMALTTD
 70
3
  9
$DIMTXSTY
  7
Standard
  9
$DIMAUNIT
 70
0
  9
$DIMADEC
 70
0
  9
$DIMALTRND
 40
0.0
  9
$DIMAZIN
 70
0
  9
$DIMDSEP
 70
44
  9
$DIMATFIT
 70
3
  9
$DIMFRAC
 70
0
  9
$DIMLDRBLK
  1

  9
$DIMLUNIT
 70
2
  9
$DIMLWD
 70
-2
  9
$DIMLWE
 70
-2
  9
$DIMTMOVE
 70
0
  9
$DIMFXL
 40
1.0
  9
$DIMFXLON
 70
0
  9
$DIMJOGANG
 40
0.785398163397
  9
$DIMTFILL
 70
0
  9
$DIMTFILLCLR
 70
0
  9
$DIMARCSYM
 70
0
  9
$DIMLTYPE
  6

  9
$DIMLTEX1
  6

  9
$DIMLTEX2
  6

  9
$DIMTXTDIRECTION
 70
0
  9
$LUNITS
 70
2
  9
$LUPREC
 70
4
  9
$SKETCHINC
 40
1.0
  9
$FILLETRAD
 40
10.0
  9
$AUNITS
 70
0
  9
$AUPREC
 70
2
  9
$MENU
  1
.
  9
$ELEVATION
 40
0.0
  9
$PELEVATION
 40
0.0
  9
$THICKNESS
 40
0.0
  9
$LIMCHECK
 70
0
  9
$CHAMFERA
 40
0.0
  9
$CHAMFERB
 40
0.0
  9
$CHAMFERC
 40
0.0
  9
$CHAMFERD
 40
0.0
  9
$SKPOLY
 70
0
  9
$TDCREATE
 40
2461318.7702546297
  9
$TDUCREATE
 40
2458532.153996898
  9
$TDUPDATE
 40
2461318.7702546297
  9
$TDUUPDATE
 40
2458532.1544311
  9
$TDINDWG
 40
0.0
  9
$TDUSRTIMER
 40
0.0
  9
$USRTIMER
 70
1
  9
$ANGBASE
 50
0.0
  9
$ANGDIR
 70
0
  9
$PDMODE
 70
0
  9
$PDSIZE
 40
0.0
  9
$PLINEWID
 40
0.0
  9
$SPLFRAME
 70
0
  9
$SPLINETYPE
 70
6
  9
$SPLINESEGS
 70
8
  9
$HANDSEED
  5
CA
  9
$SURFTAB1
 70
6
  9
$SURFTAB2
 70
6
  9
$SURFTYPE
 70
6
  9
$SURFU
 70
6
  9
$SURFV
 70
6
  9
$UCSBASE
  2

  9
$UCSNAME
  2

  9
$UCSORG
 10
0.0
 20
0.0
 30
0.0
  9
$UCSXDIR
 10
1.0
 20
0.0
 30
0.0
  9
$UCSYDIR
 10
0.0
 20
1.0
 30
0.0
  9
$UCSORTHOREF
  2

  9
$UCSORTHOVIEW
 70
0
  9
$UCSORGTOP
 10
0.0
 20
0.0
 30
0.0
  9
$UCSORGBOTTOM
 10
0.0
 20
0.0
 30
0.0
  9
$UCSORGLEFT
 10
0.0
 20
0.0
 30
0.0
  9
$UCSORGRIGHT
 10
0.0
 20
0.0
 30
0.0
  9
$UCSORGFRONT
 10
0.0
 20
0.0
 30
0.0
  9
$UCSORGBACK
 10
0.0
 20
0.0
 30
0.0
  9
$PUCSBASE
  2

  9
$PUCSNAME
  2

  9
$PUCSORG
 10
0.0
 20
0.0
 30
0.0
  9
$PUCSXDIR
 10
1.0
 20
0.0
 30
0.0
  9
$PUCSYDIR
 10
0.0
 20
1.0
 30
0.0
  9
$PUCSORTHOREF
  2

  9
$PUCSORTHOVIEW
 70
0
  9
$PUCSORGTOP
 10
0.0
 20
0.0
 30
0.0
  9
$PUCSORGBOTTOM
 10
0.0
 20
0.0
 30
0.0
  9
$PUCSORGLEFT
 10
0.0
 20
0.0
 30
0.0
  9
$PUCSORGRIGHT
 10
0.0
 20
0.0
 30
0.0
  9
$PUCSORGFRONT
 10
0.0
 20
0.0
 30
0.0
  9
$PUCSORGBACK
 10
0.0
 20
0.0
 30
0.0
  9
$USERI1
 70
0
  9
$USERI2
 70
0
  9
$USERI3
 70
0
  9
$USERI4
 70
0
  9
$USERI5
 70
0
  9
$USERR1
 40
0.0
  9
$USERR2
 40
0.0
  9
$USERR3
 40
0.0
  9
$USERR4
 40
0.0
  9
$USERR5
 40
0.0
  9
$WORLDVIEW
 70
1
  9
$SHADEDGE
 70
3
  9
$SHADEDIF
 70
70
  9
$TILEMODE
 70
1
  9
$MAXACTVP
 70
64
  9
$PINSBASE
 10
0.0
 20
0.0
 30
0.0
  9
$PLIMCHECK
 70
0
  9
$PEXTMIN
 10
1e+20
 20
1e+20
 30
1e+20
  9
$PEXTMAX
 10
-1e+20
 20
-1e+20
 30
-1e+20
  9
$PLIMMIN
 10
0.0
 20
0.0
  9
$PLIMMAX
 10
420.0
 20
297.0
  9
$UNITMODE
 70
0
  9
$VISRETAIN
 70
1
  9
$PLINEGEN
 70
0
  9
$PSLTSCALE
 70
1
  9
$TREEDEPTH
 70
3020
  9
$CMLSTYLE
  2
Standard
  9
$CMLJUST
 70
0
  9
$CMLSCALE
 40
20.0
  9
$PROXYGRAPHICS
 70
1
  9
$MEASUREMENT
 70
1
  9
$CELWEIGHT
370
-1
  9
$ENDCAPS
280
0
  9
$JOINSTYLE
280
0
  9
$LWDISPLAY
290
0
  9
$INSUNITS
 70
4
  9
$HYPERLINKBASE
  1

  9
$STYLESHEET
  1

  9
$XEDIT
290
1
  9
$CEPSNTYPE
380
0
  9
$PSTYLEMODE
290
1
  9
$FINGERPRINTGUID
  2
{CCB66D88-BB19-48D0-952B-76DC175ED310}
  9
$VERSIONGUID
  2
{A0BC80DB-D8EF-49E0-9A46-4FE7A87C6710}
  9
$EXTNAMES
290
1
  9
$PSVPSCALE
 40
0.0
  9
$OLESTARTUP
290
0
  9
$SORTENTS
280
127
  9
$INDEXCTL
280
0
  9
$HIDETEXT
280
1
  9
$XCLIPFRAME
280
1
  9
$HALOGAP
280
0
  9
$OBSCOLOR
 70
257
  9
$OBSLTYPE
280
0
  9
$INTERSECTIONDISPLAY
280
0
  9
$INTERSECTIONCOLOR
 70
257
  9
$DIMASSOC
280
2
  9
$PROJECTNAME
  1

  9
$CAMERADISPLAY
290
0
  9
$LENSLENGTH
 40
50.0
  9
$CAMERAHEIGHT
 40
0.0
  9
$STEPSPERSEC
 40
24.0
  9
$STEPSIZE
 40
100.0
  9
$3DDWFPREC
 40
2.0
  9
$PSOLWIDTH
 40
0.005
  9
$PSOLHEIGHT
 40
0.08
  9
$LOFTANG1
 40
1.570796326795
  9
$LOFTANG2
 40
1.570796326795
  9
$LOFTMAG1
 40
0.0
  9
$LOFTMAG2
 40
0.0
  9
$LOFTPARAM
 70
7
  9
$LOFTNORMALS
280
1
  9
$LATITUDE
 40
37.795
  9
$LONGITUDE
 40
-122.394
  9
$NORTHDIRECTION
 40
0.0
  9
$TIMEZONE
 70
-8000
  9
$LIGHTGLYPHDISPLAY
280
1
  9
$TILEMODELIGHTSYNCH
280
1
  9
$CMATERIAL
347
20
  9
$SOLIDHIST
280
0
  9
$SHOWHIST
280
1
  9
$DWFFRAME
280
2
  9
$DGNFRAME
280
2
  9
$REALWORLDSCALE
290
1
  9
$INTERFERECOLOR
 62
256
  9
$CSHADOW
280
0
  9
$SHADOWPLANELOCATION
 40
0.0
  0
ENDSEC
  0
SECTION
  2
CLASSES
  0
CLASS
  1
ACDBDICTIONARYWDFLT
  2
AcDbDictionaryWithDefault
  3
ObjectDBX Classes
 90
0
 91
0
280
0
281
0
  0
CLASS
  1
SUN
  2
AcDbSun
  3
SCENEOE
 90
1153
 91
0
280
0
281
0
  0
CLASS
  1
VISUALSTYLE
  2
AcDbVisualStyle
  3
ObjectDBX Classes
 90
4095
 91
0
280
0
281
0
  0
CLASS
  1
MATERIAL
  2
AcDbMaterial
  3
ObjectDBX Classes
 90
1153
 91
0
280
0
281
0
  0
CLASS
  1
SCALE
  2
AcDbScale
  3
ObjectDBX Classes
 90
1153
 91
0
280
0
281
0
  0
CLASS
  1
TABLESTYLE
  2
AcDbTableStyle
  3
ObjectDBX Classes
 90
4095
 91
0
280
0
281
0
  0
CLASS
  1
MLEADERSTYLE
  2
AcDbMLeaderStyle
  3
ACDB_MLEADERSTYLE_CLASS
 90
4095
 91
0
280
0
281
0
  0
CLASS
  1
DICTIONARYVAR
  2
AcDbDictionaryVar
  3
ObjectDBX Classes
 90
0
 91
0
280
0
281
0
  0
CLASS
  1
CELLSTYLEMAP
  2
AcDbCellStyleMap
  3
ObjectDBX Classes
 90
1152
 91
0
280
0
281
0
  0
CLASS
  1
MENTALRAYRENDERSETTINGS
  2
AcDbMentalRayRenderSettings
  3
SCENEOE
 90
1024
 91
0
280
0
281
0
  0
CLASS
  1
ACDBDETAILVIEWSTYLE
  2
AcDbDetailViewStyle
  3
ObjectDBX Classes
 90
1025
 91
0
280
0
281
0
  0
CLASS
  1
ACDBSECTIONVIEWSTYLE
  2
AcDbSectionViewStyle
  3
ObjectDBX Classes
 90
1025
 91
0
280
0
281
0
  0
CLASS
  1
RASTERVARIABLES
  2
AcDbRasterVariables
  3
ISM
 90
0
 91
0
280
0
281
0
  0
CLASS
  1
LAYOUT
  2
AcDbLayout
  3
ObjectDBX Classes
 90
0
 91
0
280
0
281
0
  0
CLASS
  1
ACDBPLACEHOLDER
  2
AcDbPlaceHolder
  3
ObjectDBX Classes
 90
0
 91
0
280
0
281
0
  0
ENDSEC
  0
SECTION
  2
TABLES
  0
TABLE
  2
VPORT
  5
8
330
0
100
AcDbSymbolTable
 70
1
  0
VPORT
  5
23
330
8
100
AcDbSymbolTableRecord
100
AcDbViewportTableRecord
  2
*Active
 70
0
 10
0.0
 20
0.0
 11
1.0
 21
1.0
 12
0.0
 22
0.0
 13
0.0
 23
0.0
 14
0.5
 24
0.5
 15
0.5
 25
0.5
 16
0.0
 26
0.0
 36
1.0
 17
0.0
 27
0.0
 37
0.0
 40
1000.0
 41
1.34
 42
50.0
 43
0.0
 44
0.0
 50
0.0
 51
0.0
 71
0
 72
1000
 73
1
 74
3
 75
0
 76
0
 77
0
 78
0
281
0
 65
0
146
0.0
  0
ENDTAB
  0
TABLE
  2
LTYPE
  5
2
330
0
100
AcDbSymbolTable
 70
3
  0
LTYPE
  5
24
330
2
100
AcDbSymbolTableRecord
100
AcDbLinetypeTableRecord
  2
ByBlock
 70
0
  3

 72
65
 73
0
 40
0.0
  0
LTYPE
  5
25
330
2
100
AcDbSymbolTableRecord
100
AcDbLinetypeTableRecord
  2
ByLayer
 70
0
  3

 72
65
 73
0
 40
0.0
  0
LTYPE
  5
26
330
2
100
AcDbSymbolTableRecord
100
AcDbLinetypeTableRecord
  2
Continuous
 70
0
  3

 72
65
 73
0
 40
0.0
  0
ENDTAB
  0
TABLE
  2
LAYER
  5
1
330
0
100
AcDbSymbolTable
 70
2
  0
LAYER
  5
27
330
1
100
AcDbSymbolTableRecord
100
AcDbLayerTableRecord
  2
0
 70
0
 62
7
  6
Continuous
370
-3
390
13
347
21
  0
LAYER
  5
28
330
1
100
AcDbSymbolTableRecord
100
AcDbLayerTableRecord
  2
Defpoints
 70
0
 62
7
  6
Continuous
290
0
370
-3
390
13
347
21
  0
ENDTAB
  0
TABLE
  2
STYLE
  5
5
330
0
100
AcDbSymbolTable
 70
1
  0
STYLE
  5
29
330
5
100
AcDbSymbolTableRecord
100
AcDbTextStyleTableRecord
  2
Standard
 70
0
 40
0.0
 41
1.0
 50
0.0
 71
0
 42
2.5
  3
txt
  4

  0
ENDTAB
  0
TABLE
  2
VIEW
  5
7
330
0
100
AcDbSymbolTable
 70
0
  0
ENDTAB
  0
TABLE
  2
UCS
  5
6
330
0
100
AcDbSymbolTable
 70
0
  0
ENDTAB
  0
TABLE
  2
APPID
  5
3
330
0
100
AcDbSymbolTable
 70
3
  0
APPID
  5
2A
330
3
100
AcDbSymbolTableRecord
100
AcDbRegAppTableRecord
  2
ACAD
 70
0
  0
APPID
  5
C7
330
3
100
AcDbSymbolTableRecord
100
AcDbRegAppTableRecord
  2
HATCHBACKGROUNDCOLOR
 70
0
  0
APPID
  5
C8
330
3
100
AcDbSymbolTableRecord
100
AcDbRegAppTableRecord
  2
EZDXF
 70
0
  0
ENDTAB
  0
TABLE
  2
DIMSTYLE
  5
4
330
0
100
AcDbSymbolTable
 70
1
100
AcDbDimStyleTable
  0
DIMSTYLE
105
2B
330
4
100
AcDbSymbolTableRecord
100
AcDbDimStyleTableRecord
  2
Standard
 70
0
 40
1.0
 41
2.5
 42
0.625
 43
3.75
 44
1.25
 45
0.0
 46
0.0
 47
0.0
 48
0.0
 49
2.5
140
2.5
141
2.5
142
0.0
143
0.03937007874
144
1.0
145
0.0
146
1.0
147
0.625
148
0.0
 69
0
 70
0
 71
0
 72
0
 73
0
 74
0
 75
0
 76
0
 77
1
 78
8
 79
3
170
0
171
3
172
1
173
0
174
0
175
0
176
0
177
0
178
0
179
2
271
2
272
2
273
2
274
3
275
0
276
0
277
2
278
44
279
0
280
0
281
0
282
0
283
0
284
8
285
0
286
0
288
0
289
3
290
0
371
-2
372
-2
  0
ENDTAB
  0
TABLE
  2
BLOCK_RECORD
  5
9
330
0
100
AcDbSymbolTable
 70
2
  0
BLOCK_RECORD
  5
17
330
9
100
AcDbSymbolTableRecord
100
AcDbBlockTableRecord
  2
*Model_Space
340
1A
 70
0
280
1
281
0
  0
BLOCK_RECORD
  5
1B
330
9
100
AcDbSymbolTableRecord
100
AcDbBlockTableRecord
  2
*Paper_Space
340
1E
 70
0
280
1
281
0
  0
ENDTAB
  0
ENDSEC
  0
SECTION
  2
BLOCKS
  0
BLOCK
  5
18
330
17
100
AcDbEntity
  8
0
100
AcDbBlockBegin
  2
*Model_Space
 70
0
 10
0.0
 20
0.0
 30
0.0
  3
*Model_Space
  1

  0
ENDBLK
  5
19
330
17
100
AcDbEntity
  8
0
100
AcDbBlockEnd
  0
BLOCK
  5
1C
330
1B
100
AcDbEntity
  8
0
100
AcDbBlockBegin
  2
*Paper_Space
 70
0
 10
0.0
 20
0.0
 30
0.0
  3
*Paper_Space
  1

  0
ENDBLK
  5
1D
330
1B
100
AcDbEntity
  8
0
100
AcDbBlockEnd
  0
ENDSEC
  0
SECTION
  2
ENTITIES
  0
LWPOLYLINE
  5
2F
330
17
100
AcDbEntity
  8
0
100
AcDbPolyline
 90
111
 70
1
 10
15.0
 20
48.05639332741209
 10
50.738592107616384
 20
79.72001570297259
 10
85.4479357179762
 20
113.99163829753076
 10
120.41881336699497
 20
145.64238214124404
 10
155.22947289229765
 20
174.5746346941883
 10
190.00185633494297
 20
203.41921796164652
 10
224.7450534558031
 20
230.82612889477392
 10
259.47593617216927
 20
254.4441618870991
 10
294.2155484599446
 20
271.9216160407457
 10
328.96571657986084
 20
283.88770931878497
 10
363.7180606360573
 20
294.74278540919744
 10
398.4742393748452
 20
303.5652770044079
 10
433.23630163617196
 20
309.2641111850001
 10
468.00631187258915
 20
310.744739382236
 10
502.7853943602926
 20
307.4202823525084
 10
537.5714144817807
 20
300.4287233717801
 10
572.36160378809
 20
291.2320671831438
 10
607.1531880667078
 20
281.29232652211886
 10
641.9433877040399
 20
272.0705081315717
 10
676.7327429315056
 20
263.2923236188625
 10
711.523262707705
 20
253.9102252860416
 10
746.3147904027458
 20
244.00713932296617
 10
781.1074290261557
 20
233.66686807112404
 10
911.4108148261139
 20
302.8299849387826
 10
965.0645640838387
 20
302.9363050503076
 10
1018.718341605567
 20
303.02694443432
 10
1072.3739705136647
 20
302.1818406659331
 10
1126.0318314533197
 20
300.210925177028
 10
1179.6909520997099
 20
297.60503975012927
 10
1233.3503589810832
 20
294.85506037895817
 10
1287.0092608709863
 20
292.3594820553081
 10
1340.668276290458
 20
289.80645812731615
 10
1394.3276594788629
 20
287.0676483597366
 10
1447.9874926372743
 20
284.1017508518568
 10
1501.6478583821342
 20
280.8674684772234
 10
1555.3088391046524
 20
277.32349676230035
 10
1608.9704083987415
 20
273.4830671964819
 10
1662.6326126257363
 20
269.3228742559803
 10
1716.295753564776
 20
264.6918408397983
 10
1769.9601362425612
 20
259.4377319977857
 10
1823.6260658974556
 20
253.4083032458814
 10
1877.2938880823679
 20
246.431274776217
 10
1930.9649915410748
 20
237.9777230190143
 10
1984.641021541434
 20
227.61865442189242
 10
2038.3232670168477
 20
215.02597475098196
 10
2092.0128412415856
 20
199.87152221127155
 10
2145.7223784805665
 20
180.8016109013678
 10
2199.528058686136
 20
153.82109157754672
 10
2253.577955540606
 20
115.47011022903436
 10
2309.0170740756425
 20
48.05639332741223
 10
2309.0302443099763
 20
43.7336589604903
 10
2309.037280310532
 20
39.17820707966045
 10
2309.044446189806
 20
34.4335354875838
 10
2309.051949070074
 20
29.545311111390753
 10
2309.060090242909
 20
24.560609927806176
 10
2309.070084734545
 20
19.527439719982734
 10
2253.757330408813
 20
19.401143949683462
 10
2199.7893407316396
 20
19.283591364389135
 10
2146.0404466941873
 20
19.169758943414287
 10
2092.3699647699077
 20
19.05868560180722
 10
2038.7111897012833
 20
18.949295710179147
 10
1985.0545103417974
 20
18.840940178375625
 10
1931.3994700644673
 20
18.73329672091812
 10
1877.7454579466828
 20
18.626172384214122
 10
1824.0917164617645
 20
18.519412895551312
 10
1770.43797567531
 20
18.4128645119089
 10
1716.7842348980312
 20
18.306423068632427
 10
1663.1304941912003
 20
18.200032420802142
 10
1609.4767535763108
 20
18.093660108527747
 10
1555.823013057717
 20
17.987286227207775
 10
1502.1692726219312
 20
17.880904007562986
 10
1448.5155322395403
 20
17.774518063445502
 10
1394.8617918851423
 20
17.66813388031046
 10
1341.2080515570487
 20
17.56174760564551
 10
1287.5543112724083
 20
17.455347166902335
 10
1233.9005710413533
 20
17.348924054152146
 10
1180.2468308519115
 20
17.24248106731139
 10
1126.5930906876704
 20
17.13602388316675
 10
1072.9393505589157
 20
17.029545931150242
 10
1019.2856105072245
 20
16.92302554758903
 10
965.6318706314282
 20
16.816411679028455
 10
911.9781312656181
 20
16.709533873315557
 10
781.5138617448497
 20
16.437161056946582
 10
746.7411989375692
 20
16.369976648390573
 10
711.9685345292366
 20
16.303565921354515
 10
677.1958690028049
 20
16.237747514559636
 10
642.4232029611019
 20
16.172240230675442
 10
607.6505367874536
 20
16.10684871969512
 10
572.8778706399451
 20
16.04148300825576
 10
538.1052045631369
 20
15.976109655188267
 10
503.33253856584076
 20
15.91071428426148
 10
468.5598726390889
 20
15.845292941490584
 10
433.7872067599243
 20
15.779850801589497
 10
399.01454089306355
 20
15.714401334788633
 10
364.24187500482515
 20
15.648958391210812
 10
329.46920906846026
 20
15.583532769103932
 10
294.69654305511915
 20
15.51813628318142
 10
259.92387692221973
 20
15.452780695552242
 10
225.14796485092654
 20
15.387550920887833
 10
190.3521118064725
 20
15.32258141649713
 10
155.52445147047413
 20
15.257935770537998
 10
120.6595623621512
 20
15.19350989872946
 10
85.62974788409598
 20
15.128353755823355
 10
50.85708006530645
 20
15.06391480332465
 10
15.060592843446654
 20
15.0
 10
15.049382831776908
 20
20.83200909001713
 10
15.038567926752288
 20
26.607853295268036
 10
15.0282307464803
 20
32.27190802395559
 10
15.01866064386714
 20
37.7696256861182
 10
15.010270384855712
 20
43.048061888684174
 10
15.0
 20
48.05639332741209
  0
TEXT
  5
30
330
17
100
AcDbEntity
  8
0
100
AcDbText
 10
1052.972907204756
 20
121.28701147885437
 30
0.0
 40
8.0
  1
O08_SMOOTH_LOWER_W3
100
AcDbText
  0
LWPOLYLINE
  5
31
330
17
100
AcDbEntity
  8
0
100
AcDbPolyline
 90
109
 70
1
 10
15.0
 20
580.9480844676705
 10
50.79654392765224
 20
580.9504135229826
 10
85.56927128024752
 20
580.9517627233209
 10
120.59914622119638
 20
580.9528291802886
 10
155.46409460187715
 20
580.9540322607822
 10
190.29181464466367
 20
580.9552752887113
 10
225.08772808399112
 20
580.956510760191
 10
259.8637011339828
 20
580.9577015634208
 10
294.6364285436368
 20
580.958812969189
 10
329.4091559445845
 20
580.9598438089848
 10
364.1818833410987
 20
580.9608259806477
 10
398.9546107313638
 20
580.9617913378994
 10
433.7273381176761
 20
580.9627585596584
 10
468.500065503771
 20
580.9637354504498
 10
503.272792893479
 20
580.9647244003467
 10
538.0455202911579
 20
580.9657252897086
 10
572.8182477020716
 20
580.9667360224253
 10
607.5909751323087
 20
580.9677538425993
 10
642.3637025892505
 20
580.9687747684841
 10
677.1364300813457
 20
580.9697981998933
 10
711.9091576190661
 20
580.970827745256
 10
746.6818852172838
 20
580.971846752891
 10
781.454612896568
 20
580.9727442994505
 10
911.9191692887938
 20
580.9685043825045
 10
965.5730159024084
 20
580.9679819935659
 10
1019.2268624009919
 20
580.9673952517618
 10
1072.8807088132673
 20
580.9668428573066
 10
1126.5345551743605
 20
580.9663293522041
 10
1180.1884015089856
 20
580.9658337026866
 10
1233.8422478301004
 20
580.9653432508743
 10
1287.496094143805
 20
580.9648557409781
 10
1341.149940452846
 20
580.9643683528301
 10
1394.8037867586756
 20
580.963877551778
 10
1448.4576330621485
 20
580.963383086631
 10
1502.111479363962
 20
580.962886451469
 10
1555.7653256648696
 20
580.9623884663448
 10
1609.4191719651924
 20
580.9618892953897
 10
1663.0730182658922
 20
580.9613889107154
 10
1716.726864567765
 20
580.9608886695949
 10
1770.3807108723302
 20
580.9603925069667
 10
1824.0345571826695
 20
580.9599062376805
 10
1877.6884043474624
 20
580.9594335992534
 10
1931.3425225678338
 20
580.9589587343214
 10
1984.9976696518304
 20
580.9584677991356
 10
2038.65445692841
 20
580.9579608659916
 10
2092.313341802057
 20
580.9574452507234
 10
2145.9839370286754
 20
580.9568175810374
 10
2199.732950435285
 20
580.9556759344941
 10
2253.701067699321
 20
580.9535231341703
 10
2309.013966433756
 20
580.9480844676706
 10
2309.0148168193155
 20
575.9149043897512
 10
2309.015118057403
 20
570.9301965146448
 10
2309.014494036379
 20
566.0419663958286
 10
2309.0120618611504
 20
561.2972899523833
 10
2309.012624357877
 20
556.7418326476228
 10
2253.700652703595
 20
499.4402230546786
 10
2199.7319057831187
 20
466.80078609676576
 10
2145.9826358218133
 20
443.81194292674365
 10
2092.3119622222034
 20
427.53854351235225
 10
2038.6529856852053
 20
414.5885354638604
 10
1984.996097426466
 20
403.8125478163706
 10
1931.3408673486206
 20
394.9321271196843
 10
1877.6866856248073
 20
387.6689122001777
 10
1824.0327883379714
 20
381.6589072933364
 10
1770.3788940373609
 20
376.45304227383804
 10
1716.7250048502008
 20
371.90510063221876
 10
1663.0711206840072
 20
367.8858806164883
 10
1609.417240595068
 20
364.26618799472624
 10
1555.7633633913877
 20
360.91781487968717
 10
1502.1094887242853
 20
357.82098906063754
 10
1448.4556164990777
 20
354.9869455990365
 10
1394.8017463412243
 20
352.3806345706024
 10
1341.1478779807512
 20
349.96700404005884
 10
1287.4940111245994
 20
347.7110024261136
 10
1233.8401447617134
 20
345.50373762634405
 10
1180.186276661079
 20
343.0806099175056
 10
1126.5324099807003
 20
340.77975698702255
 10
1072.8785484586356
 20
339.01769488971263
 10
1019.2246954170589
 20
338.2109437832828
 10
965.570849117393
 20
338.19829407312307
 10
911.9170028324975
 20
338.1984705036124
 10
781.4592011550291
 20
396.6575503845216
 10
746.6869371804087
 20
387.82544759044936
 10
711.9145167436009
 20
379.3656613369051
 10
677.142031692219
 20
371.34821024672806
 10
642.369519810639
 20
363.84330701243175
 10
607.597013412585
 20
355.96198549257247
 10
572.8245233367036
 20
347.4714320424853
 10
538.0520176932255
 20
339.6113454271043
 10
503.2794596786991
 20
333.62226769636817
 10
468.5068132649261
 20
330.74473938223593
 10
433.73405132564426
 20
331.94435706004856
 10
398.961189539911
 20
336.7231013747191
 10
364.18825557039474
 20
344.1522653821065
 10
329.41527583007587
 20
353.30607201927967
 10
294.64227429016705
 20
363.402407314643
 10
259.8691605195661
 20
378.17492195368743
 10
225.09268689431016
 20
398.15798527065516
 10
190.29627374696722
 20
421.3563016817226
 10
155.46808409332226
 20
445.77478685165863
 10
120.60252731158447
 20
470.2682309062995
 10
85.57208302772497
 20
497.06697666324794
 10
50.79810391079993
 20
526.0900951273517
 10
15.000153907162723
 20
552.8999773411774
 10
15.000328009530305
 20
558.1784202015609
 10
15.000315267429116
 20
563.6761461795365
 10
15.0002668185738
 20
569.340210320014
 10
15.000212754290743
 20
575.1160646286459
 10
15.0
 20
580.9480844676705
  0
TEXT
  5
32
330
17
100
AcDbEntity
  8
0
100
AcDbText
 10
1051.1179837700959
 20
491.3721588003429
 30
0.0
 40
8.0
  1
O08_SMOOTH_LOWER_W4
100
AcDbText
  0
LWPOLYLINE
  5
33
330
17
100
AcDbEntity
  8
0
100
AcDbPolyline
 90
61
 70
1
 10
15.0
 20
1043.1840174292067
 10
74.26600991997338
 20
1030.2751447621947
 10
132.48109723331137
 20
1021.8772852989038
 10
190.1463402500682
 20
1015.562458044558
 10
247.13829179080682
 20
1011.5628858834323
 10
303.31273682463967
 20
1010.3342243217692
 10
358.6268986706651
 20
1012.0219222079448
 10
413.71090891189215
 20
1014.5956971924788
 10
468.5626964416977
 20
1018.1432898822773
 10
523.0411255387992
 20
1023.2096939646814
 10
577.0105551378981
 20
1030.3426256907098
 10
630.3434185920114
 20
1040.0898136595306
 10
683.1980484306126
 20
1051.898169647115
 10
736.0057651941397
 20
1064.1879880286776
 10
788.8751189088906
 20
1076.7358954386302
 10
841.9241724787375
 20
1089.32793969
 10
895.2873811147217
 20
1101.7449539895206
 10
949.1155442112565
 20
1113.8080090882133
 10
1003.6311880676543
 20
1125.8714721891165
 10
1059.2528414951998
 20
1137.7546250702367
 10
1116.4890099759614
 20
1149.0570817167236
 10
1175.9223753461692
 20
1159.3825214252229
 10
1239.699498739232
 20
1165.8873232115373
 10
1314.060547521932
 20
1162.9485880233863
 10
1405.4309834242808
 20
1148.9494956954743
 10
1557.4623891427188
 20
1043.1840174292067
 10
1564.4701362648523
 20
1009.6409049735038
 10
1568.254134924625
 20
985.3808042716256
 10
1570.2919702352206
 20
968.6318035520632
 10
1571.7339290161028
 20
957.60011675381
 10
1574.0244234665379
 20
950.8394676808641
 10
1456.3960776654046
 20
927.5456813979805
 10
1376.9626904028946
 20
910.0007942624687
 10
1309.8296587150874
 20
895.0122976574557
 10
1249.771846969283
 20
880.8893657376365
 10
1192.5682322759017
 20
866.9646214365765
 10
1136.9472257842335
 20
853.1143849910276
 10
1082.512783339882
 20
839.2617924381157
 10
1028.9229669253318
 20
825.4171037294543
 10
975.8717047855763
 20
811.6015080084436
 10
923.121183357386
 20
797.7774775575501
 10
870.5950434846641
 20
783.9121202569113
 10
818.2261909757395
 20
770.0239940350252
 10
765.9554916293733
 20
756.1509442809495
 10
713.7296737253831
 20
742.3474708910942
 10
661.5097536533609
 20
728.7256801064746
 10
609.2856085386547
 20
715.3152044580681
 10
557.0557820745241
 20
702.0818492192186
 10
504.8242651053963
 20
688.9765337646201
 10
452.59736194880674
 20
675.9462260449936
 10
400.34928366882633
 20
663.0253572953359
 10
347.95651796208506
 20
650.541172246739
 10
295.52785782376884
 20
638.2635361737987
 10
243.17156659812716
 20
625.9615449059648
 10
190.95037039488975
 20
613.4109936986262
 10
138.71124240964332
 20
600.9727442994506
 10
127.64907262088686
 20
638.5657669232517
 10
112.24075541174882
 20
691.8789506744226
 10
89.8175408048942
 20
770.5096229872503
 10
58.094916210088435
 20
884.2987117823016
 10
15.0
 20
1043.1840174292067
  0
TEXT
  5
34
330
17
100
AcDbEntity
  8
0
100
AcDbText
 10
758.2774131562692
 20
913.5361918836563
 30
0.0
 40
8.0
  1
O08_SMOOTH_LOWER_W1_B
100
AcDbText
  0
LWPOLYLINE
  5
35
330
17
100
AcDbEntity
  8
0
100
AcDbPolyline
 90
77
 70
1
 10
2329.070084734545
 20
336.6886873386026
 10
2381.176685146492
 20
334.3708310130309
 10
2431.6919031472517
 20
333.28221356860513
 10
2480.082597543533
 20
334.3448291504437
 10
2526.6921519210314
 20
337.1331484496172
 10
2572.5813600668002
 20
340.9959074780705
 10
2617.480159479829
 20
346.81301533618745
 10
2661.1259115121456
 20
354.9297368839586
 10
2703.51404227582
 20
364.85646149308246
 10
2745.293509376905
 20
375.35176164020805
 10
2786.888614719366
 20
385.8344821774965
 10
2828.5017552612
 20
396.09448250343723
 10
2870.3121655708183
 20
405.94618919910505
 10
2912.545810324664
 20
414.8345128479752
 10
2955.0681181970053
 20
422.754014585179
 10
2997.703052983534
 20
429.75814041968454
 10
3040.3169386250515
 20
435.88588275147123
 10
3082.882109832647
 20
441.37528551291695
 10
3125.4773360375966
 20
446.52380730307544
 10
3168.18168392026
 20
451.19284517986307
 10
3211.067747432514
 20
455.27906088436106
 10
3254.2223798364003
 20
458.63121210833555
 10
3297.706805824486
 20
461.12904029675474
 10
3341.47945844194
 20
462.82753129222885
 10
3385.6925325481366
 20
463.28219637949496
 10
3430.5272238312914
 20
462.00576054742544
 10
3476.178555224492
 20
458.5168841199157
 10
3522.8564330958934
 20
452.32368717582045
 10
3572.2923648362284
 20
440.6160114620037
 10
3626.574608702057
 20
421.58605799797715
 10
3685.356922636226
 20
396.8073171260275
 10
3747.8977054920856
 20
367.94671924283784
 10
3813.229247177529
 20
336.68868733860273
 10
3812.2271274707527
 20
320.12041216856676
 10
3811.90682139874
 20
304.5206774571061
 10
3812.8724697363127
 20
290.38812184121093
 10
3814.782136490253
 20
277.23860636756183
 10
3817.3807992432394
 20
264.7168526862266
 10
3820.4646037534344
 20
252.59529345991498
 10
3767.848609342532
 20
261.8727166885085
 10
3716.458603413046
 20
269.5408391906151
 10
3666.84994787112
 20
275.05363452991696
 10
3619.4212011085388
 20
277.7253305526687
 10
3574.358636521247
 20
276.7410297573765
 10
3530.736880657649
 20
273.1534805624145
 10
3487.6675679685923
 20
268.4478863957467
 10
3445.000482256019
 20
262.7361532388802
 10
3402.6229851378293
 20
256.1447696759883
 10
3360.4305634186476
 20
248.8096485591098
 10
3318.3047288986218
 20
240.834045108103
 10
3276.201922305547
 20
232.0337819088637
 10
3234.158094542309
 20
222.56098639575487
 10
3192.2399787338063
 20
212.72746894946803
 10
3150.4983654458592
 20
202.87771724886787
 10
3108.916039814028
 20
193.33428568834302
 10
3067.334353722411
 20
184.0548313017661
 10
3025.767823520652
 20
174.78305464807607
 10
2984.2939624566206
 20
165.33726236408538
 10
2942.970792738258
 20
155.56524099773569
 10
2901.8164651447996
 20
145.38263847209006
 10
2860.670002194855
 20
135.12154020563202
 10
2819.4593348568214
 20
124.79381756838339
 10
2778.222473730345
 20
114.30450641859173
 10
2736.947484750601
 20
103.63933887387373
 10
2695.429612688766
 20
92.83351701144792
 10
2653.8660604178317
 20
81.60648912371647
 10
2612.5383197442975
 20
69.76001036191434
 10
2571.662673303499
 20
57.23108128154979
 10
2531.200154167661
 20
43.85940962953106
 10
2491.044774075147
 20
29.74784893429336
 10
2451.165425943002
 20
15.0
 10
2438.8736630999197
 20
56.77874525308232
 10
2426.351041418619
 20
98.9891325885886
 10
2412.915417725443
 20
143.0460758632008
 10
2396.125140635414
 20
192.40712461394466
 10
2370.943206557153
 20
253.52880007856612
 10
2329.070084734545
 20
336.6886873386026
  0
TEXT
  5
36
330
17
100
AcDbEntity
  8
0
100
AcDbText
 10
3075.606296219618
 20
282.9251856125153
 30
0.0
 40
8.0
  1
L08_CONTINUOUS_COVER_W1
100
AcDbText
  0
LWPOLYLINE
  5
37
330
17
100
AcDbEntity
  8
0
100
AcDbPolyline
 90
77
 70
1
 10
2393.8702868949545
 20
821.1484068456855
 10
2435.737449669001
 20
813.7312076127683
 10
2477.709799317976
 20
806.6650112076118
 10
2519.831238018816
 20
800.1979788365129
 10
2562.1889314230757
 20
794.3980587053155
 10
2604.848346460802
 20
789.0584204703798
 10
2647.624064473533
 20
784.1778760473272
 10
2690.2938780290074
 20
779.7301917159156
 10
2732.7206748017707
 20
775.5680493180495
 10
2775.105028606916
 20
771.819612708435
 10
2817.458118706612
 20
768.4768397689054
 10
2859.752763989285
 20
765.4006252155145
 10
2902.050335660613
 20
762.5263126836702
 10
2944.4451496576476
 20
760.125744847751
 10
2986.930876408899
 20
758.062537907417
 10
3029.4769869428474
 20
756.1749997924995
 10
3072.0407522504047
 20
754.3136543134401
 10
3114.6542590578197
 20
752.2515260213238
 10
3157.478365360409
 20
749.9114280786794
 10
3200.469078403459
 20
747.5390790312576
 10
3243.5165010577675
 20
745.4557835374153
 10
3286.5043358020935
 20
743.9933577497479
 10
3329.373787874162
 20
743.3571095149033
 10
3372.1989628825245
 20
743.4215152920951
 10
3415.0762514993903
 20
744.3321757831824
 10
3458.0808794525965
 20
746.2548681841131
 10
3501.29605070893
 20
749.3447420101068
 10
3544.8438286556084
 20
753.7391238986839
 10
3589.326898376654
 20
761.0093720840281
 10
3635.480935246535
 20
772.2536460536697
 10
3683.300584457425
 20
786.5611141044019
 10
3732.5564177548067
 20
803.1023291496517
 10
3782.8442254394604
 20
821.1484068456856
 10
3782.2022997566983
 20
808.6572057108548
 10
3781.798165766595
 20
795.8750227186622
 10
3781.9405501039937
 20
782.5883227034882
 10
3783.0948585486376
 20
768.4699266103544
 10
3785.9191066676085
 20
753.124643471289
 10
3789.951561077558
 20
737.023367903195
 10
3730.818611225386
 20
695.2077484960847
 10
3674.258316429298
 20
655.8990096210885
 10
3620.8875323128195
 20
620.9581119838695
 10
3571.007430807149
 20
592.3111030586598
 10
3524.5341201879264
 20
571.7878804416973
 10
3479.7357392145755
 20
557.2866974395544
 10
3435.4358332316033
 20
545.722157665252
 10
3391.527557433499
 20
536.565303146579
 10
3347.9126375474743
 20
529.3025827211882
 10
3304.5047964750847
 20
523.4124887414895
 10
3261.2373082307486
 20
518.4065244268525
 10
3218.1471167777486
 20
514.3087383583704
 10
3175.199122932602
 20
510.9359020732957
 10
3132.3355508152285
 20
508.0777082529775
 10
3089.5004013667703
 20
505.6270435616487
 10
3046.633829129311
 20
503.53373504411655
 10
3003.6045555294645
 20
502.1292799292383
 10
2960.4014510781103
 20
501.5947572779451
 10
2917.14939967425
 20
501.9481884812684
 10
2874.011101709033
 20
503.2796550113803
 10
2831.121374770033
 20
505.65547700131583
 10
2788.364088066937
 20
508.6129031498116
 10
2745.6037946351403
 20
512.020371569153
 10
2702.679576492193
 20
515.6535515124597
 10
2659.268327792909
 20
518.9349322224459
 10
2614.9078215224713
 20
520.6616107239142
 10
2569.6379695989463
 20
520.0503096074927
 10
2523.6852925993103
 20
517.0378256400534
 10
2477.232448974626
 20
512.3114188328435
 10
2429.3423533497903
 20
505.2894029925857
 10
2379.755976741456
 20
495.5864992971407
 10
2329.070084734545
 20
483.282196379495
 10
2356.792718136931
 20
572.1658724814972
 10
2370.2501629546136
 20
636.8873357038269
 10
2377.6136622497156
 20
688.5033518294472
 10
2383.047290724428
 20
734.2419814394889
 10
2388.3063626413586
 20
777.9557383781165
 10
2393.8702868949545
 20
821.1484068456855
  0
TEXT
  5
38
330
17
100
AcDbEntity
  8
0
100
AcDbText
 10
3055.6283713019657
 20
666.4322518934193
 30
0.0
 40
8.0
  1
L08_CONTINUOUS_COVER_W4
100
AcDbText
  0
LWPOLYLINE
  5
39
330
17
100
AcDbEntity
  8
0
100
AcDbPolyline
 90
61
 70
1
 10
2329.070084734545
 20
1010.7482135182862
 10
2380.953087015269
 20
1024.596274835385
 10
2433.132609312459
 20
1037.317893141894
 10
2485.7382023723335
 20
1048.504754587281
 10
2538.583496298605
 20
1058.8419129197935
 10
2591.4669568942836
 20
1069.0485038562115
 10
2644.2230477368125
 20
1079.705913373315
 10
2696.9953351604277
 20
1090.3122651729723
 10
2749.8377384058113
 20
1100.6817969179883
 10
2802.7653098514697
 20
1110.7669352836776
 10
2855.793747209355
 20
1120.521097557052
 10
2908.9394866869357
 20
1129.8995614985713
 10
2962.202211018148
 20
1138.9051263489814
 10
3015.6011410845094
 20
1147.4596399536865
 10
3069.202630731258
 20
1155.3454193306716
 10
3123.0749148310924
 20
1162.3410187689458
 10
3177.287305763968
 20
1168.2269650393646
 10
3231.9195289746153
 20
1172.7570681295913
 10
3287.212412824956
 20
1175.2323839056512
 10
3343.3804938133608
 20
1175.0535782144852
 10
3400.6045100658553
 20
1171.7640737289234
 10
3459.0769794202824
 20
1164.9073366860011
 10
3519.5300663358544
 20
1152.5889605962655
 10
3584.278264492573
 20
1129.369242454751
 10
3655.781781318761
 20
1090.577405576953
 10
3745.261006873622
 20
1010.7482135182863
 10
3745.6940423929072
 20
1006.0367188614456
 10
3745.775769326224
 20
1002.349209832
 10
3745.9631989318023
 20
998.8063930283125
 10
3746.395778341185
 20
995.067171865718
 10
3747.5915082303336
 20
991.1957273316705
 10
3669.5580065722884
 20
1030.2965736727876
 10
3605.619582913627
 20
1047.734576930869
 10
3545.9945070171625
 20
1055.9733963739857
 10
3489.0254075176044
 20
1057.6856939040551
 10
3433.2587535396897
 20
1056.155580895682
 10
3378.2407655131474
 20
1052.4938910146882
 10
3323.8564401730587
 20
1046.9446838583242
 10
3269.999769497473
 20
1039.766536500852
 10
3216.5437086637176
 20
1031.318090539296
 10
3163.341419246804
 20
1022.0492493873952
 10
3110.346955498322
 20
1012.0961264711915
 10
3057.5194080143037
 20
1001.5873880999958
 10
3004.817743660774
 20
990.656848173224
 10
2952.201138520959
 20
979.440449928319
 10
2899.6633348831074
 20
967.9582447852915
 10
2847.2077596082518
 20
956.1977590864307
 10
2794.8229982583125
 20
944.1972673179267
 10
2742.4979694930653
 20
931.9938873652566
 10
2690.221921463412
 20
919.6236334035714
 10
2637.960547158978
 20
907.2036947562337
 10
2585.628799864935
 20
895.0265380651787
 10
2533.3359343315374
 20
882.7160068719775
 10
2481.2134472080356
 20
869.8203197019009
 10
2429.3890269522767
 20
855.8965059546294
 10
2377.8019004846583
 20
841.1484068456855
 10
2366.5510290853517
 20
880.1623880944346
 10
2356.1937557971683
 20
916.2218658606928
 10
2346.764687053739
 20
949.2251417807124
 10
2338.055559296528
 20
979.8281232592699
 10
2329.070084734545
 20
1010.7482135182862
  0
TEXT
  5
3A
330
17
100
AcDbEntity
  8
0
100
AcDbText
 10
3011.4759837454503
 20
1033.1449812828243
 30
0.0
 40
8.0
  1
O08_SMOOTH_LOWER_W2_B
100
AcDbText
  0
LWPOLYLINE
  5
3B
330
17
100
AcDbEntity
  8
0
100
AcDbPolyline
 90
77
 70
1
 10
3840.4646037534344
 20
273.74596727043996
 10
3882.3586977167756
 20
281.0094919084081
 10
3924.3768645019454
 20
287.79812929683203
 10
3966.5494639878707
 20
293.9232745628333
 10
4008.9599902346004
 20
299.32455725466525
 10
4051.6683889552783
 20
304.2591982624733
 10
4094.4708052477513
 20
308.90284811567363
 10
4137.133253434925
 20
313.424499572211
 10
4179.519775504613
 20
317.98268175320595
 10
4221.839312132588
 20
322.40740591194435
 10
4264.115919039937
 20
326.6122055066114
 10
4306.335139354019
 20
330.59533887770334
 10
4348.569665235604
 20
334.2848695379453
 10
4390.919924149978
 20
337.3759088497617
 10
4433.374285985573
 20
340.0088549864365
 10
4475.896126711528
 20
342.38274649281163
 10
4518.437965717087
 20
344.6926983985454
 10
4561.032170318925
 20
347.12164281077406
 10
4603.847064294071
 20
349.62474936386764
 10
4646.838371535826
 20
351.98621849406055
 10
4689.8893351704
 20
353.99494989946794
 10
4732.877620450703
 20
355.4441940318807
 10
4775.744735813982
 20
356.222491574654
 10
4818.569327596291
 20
356.45503340515376
 10
4861.453193935761
 20
355.9415034862194
 10
4904.474630428087
 20
354.44240790450294
 10
4947.714333054208
 20
351.7183088427553
 10
4991.282541423225
 20
347.53228628954116
 10
5035.738689733762
 20
340.099892737171
 10
5081.70517028167
 20
328.11243068455536
 10
5129.1026021340895
 20
312.4633396502458
 10
5177.68784183038
 20
294.0455820340295
 10
5227.10893579107
 20
273.74596727044
 10
5227.983205408637
 20
261.4326695487229
 10
5229.0245049186715
 20
249.23391729864318
 10
5230.218204964819
 20
237.11654637863165
 10
5231.555134398907
 20
225.06041306755273
 10
5233.04571421773
 20
213.05241228346307
 10
5234.719652321237
 20
201.0836941725982
 10
5189.588687470554
 20
194.36401394754307
 10
5144.920540759081
 20
187.7556037926052
 10
5100.913224488854
 20
181.32084375214507
 10
5057.668291320672
 20
175.09725623727326
 10
5015.144529058427
 20
169.0918917314376
 10
4972.980216274596
 20
163.23447220017397
 10
4930.916572947125
 20
157.45267026772683
 10
4888.888835397152
 20
151.7112474362649
 10
4846.85866723521
 20
145.98271491095144
 10
4804.7868898463985
 20
140.2418326920363
 10
4762.603281650336
 20
134.46105187381727
 10
4720.2146528897365
 20
128.61624491452108
 10
4677.690954583504
 20
122.72468098116028
 10
4635.179429808851
 20
116.82474753842837
 10
4592.822447648703
 20
110.95760007618037
 10
4550.688908627978
 20
105.15171047914257
 10
4508.62007400122
 20
99.37884895240401
 10
4466.561494414413
 20
93.62086363906508
 10
4424.532566971602
 20
87.87951116031368
 10
4382.541248964637
 20
82.1602141062427
 10
4340.578461101498
 20
76.4697335358118
 10
4298.590500094524
 20
70.81256387106438
 10
4256.5209179413305
 20
65.18209384049547
 10
4214.375146344501
 20
59.57278165620403
 10
4172.128732311516
 20
53.980073091136546
 10
4129.592924118253
 20
48.39109835712384
 10
4086.8832265559527
 20
42.810665823631524
 10
4044.2195825330386
 20
37.244168853485775
 10
4001.7945018697274
 20
31.69113471697753
 10
3959.51137290486
 20
26.134505623431693
 10
3917.292576823937
 20
20.569966627803637
 10
3875.1362226408305
 20
15.0
 10
3869.4168753468107
 20
58.12297908570076
 10
3863.6514715085254
 20
101.24459091853683
 10
3857.8435143565275
 20
144.3689403644245
 10
3852.009993421146
 20
187.49718080679426
 10
3846.1930079063827
 20
230.6238061862055
 10
3840.4646037534344
 20
273.74596727043996
  0
TEXT
  5
3C
330
17
100
AcDbEntity
  8
0
100
AcDbText
 10
4528.7912767217895
 20
213.8461246637161
 30
0.0
 40
8.0
  1
L08_CONTINUOUS_COVER_W2
100
AcDbText
  0
LWPOLYLINE
  5
3D
330
17
100
AcDbEntity
  8
0
100
AcDbPolyline
 90
61
 70
1
 10
3869.923957901153
 20
620.5537816376715
 10
3922.918072794251
 20
612.1657351235683
 10
3976.0361951881946
 20
604.5596621089791
 10
4029.3026666508053
 20
597.8869153127359
 10
4082.652423256159
 20
591.735833833379
 10
4136.020582145769
 20
585.6984700300832
 10
4189.354476142558
 20
579.4449804010148
 10
4242.6958271859885
 20
573.237872574915
 10
4296.061749828973
 20
567.1845720586244
 10
4349.457718531675
 20
561.3192376278556
 10
4402.889205382016
 20
555.6759169000626
 10
4456.36169708377
 20
550.2886763334693
 10
4509.873479535571
 20
545.1466433006087
 10
4563.427782306571
 20
540.2702708280444
 10
4617.044853460483
 20
535.7864575522697
 10
4670.745088832494
 20
531.8228693555261
 10
4724.548902288361
 20
528.5072838603421
 10
4778.479348399369
 20
525.983324051439
 10
4832.607327157227
 20
524.6830591958914
 10
4886.991836489289
 20
524.9566856341813
 10
4941.679138533807
 20
527.0751053881905
 10
4996.715990015606
 20
531.3106502985204
 10
5052.304240825761
 20
538.7483510763888
 10
5109.110994254058
 20
552.5496172428677
 10
5167.90483960378
 20
575.3806549033059
 10
5233.496740145165
 20
620.5537816376716
 10
5233.167833237335
 20
616.2435572549148
 10
5232.59801943419
 20
612.2319272222138
 10
5231.753462324225
 20
608.5637361990763
 10
5230.630601810262
 20
605.1983448243385
 10
5230.642671228396
 20
601.5099522621821
 10
5158.559252410823
 20
512.278319373897
 10
5095.53325142564
 20
464.9388265479335
 10
5035.832560998457
 20
433.8777320981244
 10
4978.23343647858
 20
414.2276531656747
 10
4921.605855662209
 20
400.2911575729629
 10
4865.60092308606
 20
390.10629876839516
 10
4810.136738578111
 20
383.18197665277944
 10
4755.130247864971
 20
379.03590913517246
 10
4700.47523074411
 20
377.04525873247036
 10
4646.044328298432
 20
376.45503340515376
 10
4591.796746852018
 20
377.00582834586214
 10
4537.696267858872
 20
378.47117113788966
 10
4483.70671998778
 20
380.6257205244947
 10
4429.792290527857
 20
383.2462876472655
 10
4375.9464677091755
 20
386.28540021206067
 10
4322.171513168399
 20
389.75827693488645
 10
4268.457658391294
 20
393.60889210936523
 10
4214.795345410754
 20
397.78028634110586
 10
4161.1752081566965
 20
402.21531801905553
 10
4107.56738889076
 20
406.7261757397544
 10
4053.8973534972733
 20
410.8396772292472
 10
4000.2566868937142
 20
415.13410522021366
 10
3946.757667701332
 20
420.3278750010403
 10
3893.5103192898378
 20
427.1369315425928
 10
3840.4646037534344
 20
435.26756030796327
 10
3845.477473598737
 20
466.68828837489673
 10
3850.865222036661
 20
500.5865908395334
 10
3856.753363837559
 20
537.6390917202209
 10
3863.125986535536
 20
577.7397357581286
 10
3869.923957901153
 20
620.5537816376715
  0
TEXT
  5
3E
330
17
100
AcDbEntity
  8
0
100
AcDbText
 10
4519.322750647861
 20
499.7598210840352
 30
0.0
 40
8.0
  1
O08_SMOOTH_LOWER_W5_B
100
AcDbText
  0
LWPOLYLINE
  5
3F
330
17
100
AcDbEntity
  8
0
100
AcDbPolyline
 90
77
 70
1
 10
3840.4646037534344
 20
904.6072261269874
 10
3882.986998159633
 20
904.7767318974
 10
3925.5705564716104
 20
904.9534286155481
 10
3968.2168066002223
 20
905.1431748188364
 10
4011.0032301484625
 20
905.3546593112609
 10
4054.027794109568
 20
905.5953628149672
 10
4097.099749468643
 20
905.8494951547746
 10
4140.000465308659
 20
906.0919631165044
 10
4182.614943099177
 20
906.299739480649
 10
4225.1319722138105
 20
906.4785758646361
 10
4267.576385355673
 20
906.6312917376814
 10
4309.943565308854
 20
906.7516771164388
 10
4352.290358948654
 20
906.8331587511367
 10
4394.669358375931
 20
906.8811457654647
 10
4437.088626139732
 20
906.9035699469166
 10
4479.5395326029475
 20
906.9079296738101
 10
4522.002619311782
 20
906.9000067815283
 10
4564.5343016754605
 20
906.8731057040645
 10
4607.2956766971765
 20
906.8107736038578
 10
4650.214580868713
 20
906.7180900177548
 10
4693.144361699599
 20
906.6125010083429
 10
4735.933957863923
 20
906.5166018746243
 10
4778.5117693439215
 20
906.45102034861
 10
4820.973401482002
 20
906.4187366612855
 10
4863.392138559651
 20
906.4110086780636
 10
4905.8102037060835
 20
906.4137254915132
 10
4948.2693215219715
 20
906.4090696339024
 10
4990.838502061565
 20
906.3742180647847
 10
5033.784069631929
 20
906.2654654865369
 10
5077.473966484831
 20
906.0399921223303
 10
5121.9478642420245
 20
905.6865776027336
 10
5167.099705441616
 20
905.20774129818
 10
5212.724268479815
 20
904.6072261269875
 10
5212.735264162097
 20
892.5220179417267
 10
5212.842209620839
 20
880.4223257768623
 10
5213.066168010294
 20
868.2943577800763
 10
5213.427343976924
 20
856.1236918165374
 10
5213.974524437479
 20
843.8928139064162
 10
5214.811210035963
 20
831.5769093111488
 10
5168.557821441506
 20
804.8348531138034
 10
5122.926680034252
 20
779.9846646699781
 10
5078.120085702366
 20
757.989785185813
 10
5034.237310694672
 20
739.7986845723639
 10
4991.221507659987
 20
726.3365080923624
 10
4948.633922123898
 20
716.2364784038739
 10
4906.166088340222
 20
707.6587227265072
 10
4863.743562976152
 20
700.3496231046931
 10
4821.320617402978
 20
694.0579336328602
 10
4778.853518269355
 20
688.5310467358332
 10
4736.269926984305
 20
683.5477396311938
 10
4693.4768624101125
 20
679.206561981745
 10
4650.548175169481
 20
675.3925409863026
 10
4607.632932404677
 20
671.9127167030467
 10
4564.874834621404
 20
668.5774249087583
 10
4522.345697736979
 20
665.1954960456959
 10
4479.884004080397
 20
661.7101541184459
 10
4437.433401110453
 20
658.2914311073098
 10
4395.015019859998
 20
655.1314892066425
 10
4352.638150351596
 20
652.4298112425612
 10
4310.294945058013
 20
650.327371095123
 10
4267.926954840635
 20
648.5159398571908
 10
4225.471635979535
 20
646.9227902911755
 10
4182.943641117348
 20
645.5473889075083
 10
4140.3310492111395
 20
644.2974577474306
 10
4097.449737691603
 20
642.9843010636405
 10
4054.4126414211796
 20
641.7925638499992
 10
4011.4289831662527
 20
640.9182155194408
 10
3968.6774362929755
 20
640.5537816376716
 10
3926.064084666784
 20
640.939059035551
 10
3883.514268345655
 20
641.999919826476
 10
3841.023402414226
 20
643.5492533853898
 10
3840.875936632545
 20
687.0499884044452
 10
3840.828881471293
 20
730.5671232811644
 10
3840.796926370971
 20
774.0880834176287
 10
3840.7343084367535
 20
817.6017337642799
 10
3840.6230616693115
 20
861.1069145491356
 10
3840.4646037534344
 20
904.6072261269874
  0
TEXT
  5
40
330
17
100
AcDbEntity
  8
0
100
AcDbText
 10
4514.945389523315
 20
799.5603881189729
 30
0.0
 40
8.0
  1
L08_CONTINUOUS_COVER_W3
100
AcDbText
  0
LWPOLYLINE
  5
41
330
17
100
AcDbEntity
  8
0
100
AcDbPolyline
 90
61
 70
1
 10
3840.4646037534344
 20
1073.610390883316
 10
3900.650255218348
 20
1116.7515836675743
 10
3958.1225494434543
 20
1157.9478359925054
 10
4019.412497945316
 20
1186.8318838094965
 10
4084.3348058329802
 20
1203.579769392212
 10
4162.116820425719
 20
1202.160589445787
 10
4248.4957376790835
 20
1185.0887741532888
 10
4334.819047741567
 20
1158.774978132016
 10
4413.009916333699
 20
1130.042503033947
 10
4484.304112463769
 20
1100.6826014630346
 10
4558.549893555172
 20
1065.4674983193795
 10
4630.518199771405
 20
1030.5973536803945
 10
4694.924830367327
 20
1002.9165654467328
 10
4747.494285910852
 20
989.4238487671671
 10
4794.507396135114
 20
984.4348997903885
 10
4840.510063731352
 20
983.801484898097
 10
4885.215514779186
 20
987.6255402236067
 10
4927.709474969526
 20
995.5592084453447
 10
4966.893059501869
 20
1007.1202152582272
 10
5004.23516169565
 20
1020.66796823108
 10
5041.140598700313
 20
1035.623334040575
 10
5076.863676831076
 20
1052.951027943151
 10
5110.651204797988
 20
1073.610390883316
 10
5115.748881013062
 20
1066.4986964856196
 10
5120.846557221368
 20
1059.3870020830798
 10
5125.9442334292
 20
1052.2753076801855
 10
5131.041909637739
 20
1045.1636132777708
 10
5136.139585846344
 20
1038.0519188754818
 10
5141.237262054018
 20
1030.940224472442
 10
5146.334938257912
 20
1023.8285300667291
 10
5151.432614451769
 20
1016.7168356538294
 10
5117.645086485792
 20
996.0574727121001
 10
5081.9220083549035
 20
978.7297788097766
 10
5045.016571349923
 20
963.7744130010308
 10
5007.674469156051
 20
950.2266600283773
 10
4968.490884623501
 20
938.665653216104
 10
4925.996924432783
 20
930.7319849962977
 10
4881.291473384688
 20
926.90792967381
 10
4835.288805788511
 20
927.5413445699709
 10
4788.275695565593
 20
932.5302935592567
 10
4735.706240025204
 20
946.0230102510465
 10
4671.299609411338
 20
973.7037984430362
 10
4599.331303199539
 20
1008.5739430910749
 10
4525.085522117443
 20
1043.7890462542125
 10
4453.791325985423
 20
1073.148947820436
 10
4375.600457396355
 20
1101.8814229269026
 10
4289.277147341694
 20
1128.195218973846
 10
4202.898230097188
 20
1145.267034311329
 10
4125.116215504911
 20
1146.6862142864998
 10
4060.1939076285744
 20
1129.9383286595828
 10
3998.903959132327
 20
1101.0542808305584
 10
3941.431664924435
 20
1059.858028481612
 10
3881.246013462355
 20
1016.7168356933498
 10
3876.1483373140964
 20
1023.8285301389466
 10
3871.0506611133533
 20
1030.940224546916
 10
3865.95298491152
 20
1038.0519189541074
 10
3860.855308716184
 20
1045.1636133659586
 10
3855.757632521879
 20
1052.2753077785403
 10
3850.659956316605
 20
1059.3870021832772
 10
3845.5622800777433
 20
1066.498696563919
 10
3840.4646037534344
 20
1073.610390883316
  0
TEXT
  5
42
330
17
100
AcDbEntity
  8
0
100
AcDbText
 10
4543.796802780145
 20
1047.34245409018
 30
0.0
 40
8.0
  1
G08_BACK_-1_W1
100
AcDbText
  0
LWPOLYLINE
  5
43
330
17
100
AcDbEntity
  8
0
100
AcDbPolyline
 90
61
 70
1
 10
5254.719652321237
 20
161.70246120950603
 10
5314.90530378615
 20
204.84365399376424
 10
5372.377598011257
 20
246.03990631869527
 10
5433.667546513118
 20
274.9239541356864
 10
5498.589854400783
 20
291.67183971840205
 10
5576.371868993521
 20
290.2526597719771
 10
5662.7507862468865
 20
273.1808444794787
 10
5749.074096309369
 20
246.86704845820606
 10
5827.264964901501
 20
218.13457336013693
 10
5898.559161031571
 20
188.7746717892245
 10
5972.804942122974
 20
153.55956864556944
 10
6044.773248339208
 20
118.68942400658437
 10
6109.179878935129
 20
91.00863577292269
 10
6161.749334478655
 20
77.51591909335706
 10
6208.762444702917
 20
72.52697011657844
 10
6254.765112299155
 20
71.89355522428696
 10
6299.470563346989
 20
75.71761054979656
 10
6341.964523537328
 20
83.65127877153456
 10
6381.148108069672
 20
95.21228558441713
 10
6418.490210263453
 20
108.7600385572699
 10
6455.395647268116
 20
123.71540436676491
 10
6491.118725398878
 20
141.04309826934104
 10
6524.906253365791
 20
161.7024612095061
 10
6530.003929580864
 20
154.59076681180952
 10
6535.10160578917
 20
147.4790724092697
 10
6540.199281997003
 20
140.36737800637556
 10
6545.296958205541
 20
133.2556836039608
 10
6550.394634414146
 20
126.14398920167179
 10
6555.492310621821
 20
119.03229479863194
 10
6560.589986825714
 20
111.92060039291897
 10
6565.687663019571
 20
104.8089059800194
 10
6531.900135053595
 20
84.14954303829
 10
6496.1770569227065
 20
66.82184913596649
 10
6459.271619917726
 20
51.86648332722078
 10
6421.929517723853
 20
38.318730354567236
 10
6382.745933191304
 20
26.757723542293974
 10
6340.251973000586
 20
18.824055322487652
 10
6295.54652195249
 20
15.0
 10
6249.543854356314
 20
15.633414896160815
 10
6202.530744133396
 20
20.62236388544673
 10
6149.961288593006
 20
34.11508057723641
 10
6085.554657979141
 20
61.795868769226146
 10
6013.5863517673415
 20
96.66601341726482
 10
5939.340570685246
 20
131.8811165804024
 10
5868.046374553226
 20
161.24101814662583
 10
5789.855505964157
 20
189.97349325309244
 10
5703.532195909497
 20
216.28728930003606
 10
5617.153278664991
 20
233.35910463751893
 10
5539.3712640727135
 20
234.7782846126897
 10
5474.448956196377
 20
218.03039898577268
 10
5413.15900770013
 20
189.1463511567483
 10
5355.686713492238
 20
147.95009880780202
 10
5295.501062030158
 20
104.80890601953979
 10
5290.403385881899
 20
111.92060046513652
 10
5285.305709681156
 20
119.03229487310594
 10
5280.208033479323
 20
126.1439892802972
 10
5275.110357283987
 20
133.25568369214838
 10
5270.012681089682
 20
140.36737810473034
 10
5264.915004884408
 20
147.47907250946713
 10
5259.817328645546
 20
154.5907668901091
 10
5254.719652321237
 20
161.70246120950603
  0
TEXT
  5
44
330
17
100
AcDbEntity
  8
0
100
AcDbText
 10
5958.051851347949
 20
135.43452441636975
 30
0.0
 40
8.0
  1
G08_BACK_1_W1
100
AcDbText
  0
LWPOLYLINE
  5
45
330
17
100
AcDbEntity
  8
0
100
AcDbPolyline
 90
41
 70
1
 10
5366.886910165287
 20
676.2803458278216
 10
5489.572943659979
 20
686.8350307022764
 10
5607.4730142332655
 20
689.2096666420964
 10
5718.071312520398
 20
690.8137128821977
 10
5820.084107092068
 20
691.0844412167506
 10
5924.828188722008
 20
692.9676739113766
 10
6028.136888526585
 20
695.7930631482872
 10
6120.922782924048
 20
697.286285303654
 10
6194.552865939633
 20
695.1383255916508
 10
6251.807485343844
 20
689.263712577654
 10
6307.587109766596
 20
683.2036020219339
 10
6358.991341283574
 20
676.2803458278217
 10
6329.782321346742
 20
631.1170654551324
 10
6296.963915803841
 20
586.8860158145264
 10
6260.714554057185
 20
543.8357219803818
 10
6221.18922885082
 20
502.2622867045153
 10
6178.592670721953
 20
462.4496218243153
 10
6133.180926768311
 20
424.65280959736265
 10
6085.272611270988
 20
389.06352298972917
 10
6035.302521609021
 20
355.6970637008478
 10
5984.097706099192
 20
323.8690260055844
 10
5904.380264422263
 20
317.50556602876003
 10
5822.390264032136
 20
312.01007958439055
 10
5745.287833312338
 20
311.67183971840205
 10
5662.108202394746
 20
316.2070935218119
 10
5572.6212850935035
 20
327.8813873144949
 10
5487.107586269884
 20
348.86308275877377
 10
5416.087528493692
 20
380.6159715736605
 10
5364.420880701341
 20
423.3474377922479
 10
5321.323985810389
 20
475.6295995137304
 10
5287.045533021335
 20
537.4778170778216
 10
5254.719652321237
 20
595.7816738735762
 10
5270.4615790614025
 20
605.0179712088667
 10
5285.574317359627
 20
614.320735556405
 10
5299.952408572634
 20
623.6315169759414
 10
5313.527246616923
 20
632.860140969279
 10
5326.243883823631
 20
641.9243298374845
 10
5338.044588676355
 20
650.7712271121536
 10
5348.848511760237
 20
659.3976526893393
 10
5358.528527091306
 20
667.862792478595
 10
5366.886910165287
 20
676.2803458278216
  0
TEXT
  5
46
330
17
100
AcDbEntity
  8
0
100
AcDbText
 10
5742.91639989526
 20
551.2938439302309
 30
0.0
 40
8.0
  1
H08_CANOPY_W4_A
100
AcDbText
  0
LWPOLYLINE
  5
47
330
17
100
AcDbEntity
  8
0
100
AcDbPolyline
 90
41
 70
1
 10
5254.719652321237
 20
1182.5843058608807
 10
5305.940726646781
 20
1225.2539072671784
 10
5360.183336468557
 20
1270.618413775347
 10
5419.184407029964
 20
1303.9295168797678
 10
5482.732158397597
 20
1325.3093885259293
 10
5560.413497207769
 20
1329.516901481156
 10
5647.79692602446
 20
1318.7010455146687
 10
5735.731804791358
 20
1298.4099122267369
 10
5815.547716170108
 20
1274.5568981936458
 10
5888.2096767380945
 20
1248.7635636539003
 10
5963.719544023368
 20
1216.3439365843271
 10
6036.2167984537355
 20
1182.5843058608807
 10
6072.414546933077
 20
1134.3684179917566
 10
6105.928388745014
 20
1084.4960713778617
 10
6136.793415239307
 20
1033.415310218685
 10
6164.805331884928
 20
981.3938580155312
 10
6189.784719156037
 20
928.709925573386
 10
6211.605072725106
 20
875.6580519610108
 10
6230.201687509676
 20
822.5401185665751
 10
6245.578259664998
 20
769.653600982009
 10
6257.847658953178
 20
717.286285303654
 10
6207.39794047285
 20
729.3336545470715
 10
6153.02738574108
 20
743.1872394855711
 10
6097.240903710714
 20
757.346047985882
 10
6027.2170173909735
 20
780.2085784454156
 10
5940.381931199035
 20
812.9384281142371
 10
5844.308287571655
 20
851.0269063987939
 10
5746.852609062713
 20
889.4649705705305
 10
5651.6181212049
 20
926.0336660075045
 10
5548.962979738145
 20
967.2243423628228
 10
5439.905419511795
 20
1012.0872329955463
 10
5329.436827796521
 20
1066.4936499832372
 10
5324.103784630881
 20
1077.0897169809443
 10
5318.378962119347
 20
1088.604402056607
 10
5311.85614394843
 20
1100.794278566383
 10
5304.451778803947
 20
1113.54966217772
 10
5296.151144233177
 20
1126.7773578572062
 10
5286.97865968022
 20
1140.3901897109192
 10
5276.979255014925
 20
1154.2981676872398
 10
5266.204335067809
 20
1168.3991280029757
 10
5254.719652321237
 20
1182.5843058608807
  0
TEXT
  5
48
330
17
100
AcDbEntity
  8
0
100
AcDbText
 10
5724.671425958651
 20
1053.9494063807895
 30
0.0
 40
8.0
  1
H08_CANOPY_W1_A
100
AcDbText
  0
LWPOLYLINE
  5
49
330
17
100
AcDbEntity
  8
0
100
AcDbPolyline
 90
29
 70
1
 10
6627.894097545037
 20
258.32685442067134
 10
6787.262108623864
 20
259.60557791206986
 10
6942.5029938801335
 20
260.6816695890983
 10
7081.349382180474
 20
260.7044012102297
 10
7202.07670927342
 20
259.61351129041816
 10
7318.462508738725
 20
258.3268544206714
 10
7315.770689941632
 20
230.74517069245547
 10
7307.914676839975
 20
203.0520061574239
 10
7294.788586304041
 20
175.212102492613
 10
7276.292165200364
 20
147.33157437378324
 10
7252.413281763662
 20
119.61250120535357
 10
7223.240425797857
 20
92.29585419083853
 10
7188.948474052319
 20
65.62318274058461
 10
7149.786676010702
 20
39.80779011935863
 10
7106.075546337218
 20
14.999999999999972
 10
7008.604668406958
 20
53.39572659279281
 10
6914.241106503053
 20
92.15344217615836
 10
6811.751308475313
 20
133.75123283513423
 10
6702.536068615156
 20
178.22704269163827
 10
6585.687663019571
 20
217.08225153357654
 10
6595.338092458938
 20
222.0310970355977
 10
6603.76099681789
 20
227.07347269955403
 10
6610.913998275253
 20
232.17162737627763
 10
6616.768792753499
 20
237.25150725231262
 10
6621.309901738628
 20
242.20974766914702
 10
6624.555282563054
 20
246.90677054192986
 10
6626.593448069475
 20
251.18498493560168
 10
6627.6176103522
 20
254.9514423981627
 10
6627.894097545037
 20
258.32685442067134
  0
TEXT
  5
4A
330
17
100
AcDbEntity
  8
0
100
AcDbText
 10
6919.046598554602
 20
189.40193968876295
 30
0.0
 40
8.0
  1
H08_CANOPY_W3_A_A
100
AcDbText
  0
LWPOLYLINE
  5
4B
330
17
100
AcDbEntity
  8
0
100
AcDbPolyline
 90
29
 70
1
 10
6585.687663019571
 20
584.5296386259313
 10
6708.671944278034
 20
578.3541451610123
 10
6826.58176214595
 20
580.1795670063564
 10
6937.178730472906
 20
581.8663036749459
 10
7039.170134842916
 20
583.9654903093856
 10
7143.929364815548
 20
584.5296386259313
 10
7175.726418132753
 20
545.6061528001231
 10
7202.84359942939
 20
507.3342265933959
 10
7225.100543855629
 20
470.0247313969445
 10
7242.355537674987
 20
433.97587136205607
 10
7254.530843366626
 20
399.4749987104286
 10
7261.626059122894
 20
366.77791321548705
 10
7263.725894108737
 20
336.07050168425434
 10
7260.99525872723
 20
307.41440621810943
 10
7253.608062620844
 20
280.70440121022983
 10
7144.632174571097
 20
321.5890362328365
 10
7031.657052196126
 20
364.1670568305435
 10
6902.220538554451
 20
414.41165030049297
 10
6757.936926557027
 20
471.71048475159023
 10
6609.880053560486
 20
530.6933749600393
 10
6610.7322116013465
 20
533.9711301219711
 10
6611.159123131257
 20
537.850931367666
 10
6610.877155727103
 20
542.5814422476118
 10
6609.631690470864
 20
548.1530972118126
 10
6607.274357108314
 20
554.4498265803281
 10
6603.738493775486
 20
561.3477588801491
 10
6598.984136551175
 20
568.7337386294186
 10
6592.96836398718
 20
576.491402197569
 10
6585.687663019571
 20
584.5296386259313
  0
TEXT
  5
4C
330
17
100
AcDbEntity
  8
0
100
AcDbText
 10
6905.486612325017
 20
491.43063984595005
 30
0.0
 40
8.0
  1
H08_CANOPY_W2_A_A
100
AcDbText
  0
LWPOLYLINE
  5
4D
330
17
100
AcDbEntity
  8
0
100
AcDbPolyline
 90
29
 70
1
 10
6585.687663019571
 20
942.1583988427786
 10
6613.77982544088
 20
988.5957901299919
 10
6644.0661763011785
 20
1024.8981183952835
 10
6676.852716026616
 20
1057.1733295534675
 10
6711.8783500483705
 20
1085.2162484039222
 10
6748.1658628125015
 20
1108.7087053145713
 10
6784.546644415222
 20
1127.2949403035022
 10
6820.951640110674
 20
1143.1898948290145
 10
6858.012173532324
 20
1157.756638164985
 10
6895.85539214849
 20
1169.7681668524847
 10
6934.574035658819
 20
1178.0911180394205
 10
7149.5525143957575
 20
968.4282587943065
 10
7207.691124518851
 20
942.1583988427786
 10
7231.914385595099
 20
779.3239149429872
 10
7246.681102973679
 20
662.1224369695688
 10
7191.58343121277
 20
669.3959180211298
 10
7000.513415315937
 20
733.7042273662526
 10
6961.646711365667
 20
727.5778127384276
 10
6923.41508545813
 20
719.5046278374805
 10
6885.752356179769
 20
710.3267827126416
 10
6848.62118000133
 20
700.605270687598
 10
6811.314916855861
 20
689.7428397317672
 10
6773.728762463276
 20
676.8016144551481
 10
6736.996460493994
 20
661.970957897936
 10
6702.042728341227
 20
645.4161505096749
 10
6669.076455040695
 20
627.1845412542466
 10
6637.344158901239
 20
604.5296386259313
 10
6615.799495431613
 20
745.5450056727694
 10
6585.687663019571
 20
942.1583988427786
  0
TEXT
  5
4E
330
17
100
AcDbEntity
  8
0
100
AcDbText
 10
6843.232152657902
 20
868.5982118873394
 30
0.0
 40
8.0
  1
O08_SMOOTH_LOWER_W1_A_B_A
100
AcDbText
  0
LWPOLYLINE
  5
4F
330
17
100
AcDbEntity
  8
0
100
AcDbPolyline
 90
37
 70
1
 10
7352.699058477543
 20
506.1597829341198
 10
7406.361994969767
 20
505.66647263786257
 10
7460.042934107973
 20
505.7948189198197
 10
7513.790243626087
 20
506.41035447636887
 10
7567.599108413899
 20
507.04834719645936
 10
7621.425612074743
 20
507.4186685358807
 10
7675.223102598465
 20
507.33054030118205
 10
7729.026471280419
 20
507.20396297301636
 10
7782.850860675351
 20
507.10594045945993
 10
7836.7027232463515
 20
506.9917255817586
 10
7890.589706081699
 20
506.819212722675
 10
7944.520814949859
 20
506.55330298026854
 10
7998.497618106513
 20
506.15978293411985
 10
7996.290622642442
 20
479.90013753740703
 10
7994.205794770306
 20
451.08575062130757
 10
7992.389266163972
 20
413.20048871389207
 10
7990.869995227995
 20
358.9184266182311
 10
7989.537460598926
 20
281.0813402361459
 10
7988.1861864589355
 20
172.76736245271047
 10
7934.055483139001
 20
171.06761020235405
 10
7879.995016945167
 20
166.96308715569626
 10
7825.984892642285
 20
160.14622407938026
 10
7771.9940395014155
 20
151.28363567356337
 10
7718.00354825672
 20
140.9722606052543
 10
7664.007691740158
 20
129.77780485132638
 10
7609.993741634549
 20
117.73641610370737
 10
7555.890405385163
 20
102.57380415055184
 10
7501.751219128269
 20
84.32476450011251
 10
7447.582628526009
 20
63.566051474956396
 10
7393.286398241956
 20
40.950872362759526
 10
7338.462508738724
 20
15.0
 10
7340.97894116746
 20
179.60720855109992
 10
7344.033227137172
 20
297.69631017029917
 10
7347.072006790015
 20
379.40538407570375
 10
7349.658008815952
 20
434.84025746110444
 10
7351.572060204664
 20
473.9802732788652
 10
7352.699058477543
 20
506.1597829341198
  0
TEXT
  5
50
330
17
100
AcDbEntity
  8
0
100
AcDbText
 10
7661.022444620093
 20
334.04508558009564
 30
0.0
 40
8.0
  1
O08_SMOOTH_LOWER_W6_B_A
100
AcDbText
  0
LWPOLYLINE
  5
51
330
17
100
AcDbEntity
  8
0
100
AcDbPolyline
 90
31
 70
1
 10
7353.698696287664
 20
1157.703284582417
 10
7388.012572878832
 20
1145.4968899705439
 10
7423.12293759243
 20
1136.885927328395
 10
7459.8906878846055
 20
1129.6010035284503
 10
7498.106043357999
 20
1123.507843715711
 10
7536.8802875405145
 20
1118.579864359799
 10
7575.120053779977
 20
1114.7872481361858
 10
7613.051855637049
 20
1111.6578179987494
 10
7651.42287159707
 20
1108.9654113670442
 10
7690.1908107438585
 20
1106.980748533945
 10
7729.307224484343
 20
1106.0280665755918
 10
7908.138781932163
 20
1148.352817729551
 10
7961.692501175012
 20
1157.703284582417
 10
7962.841368758777
 20
1075.9460921884322
 10
7962.260371331764
 20
957.8193262724778
 10
7959.380986748296
 20
793.2185027224746
 10
7905.4396978167
 20
759.1518809608909
 10
7714.457453429864
 20
527.4186685358808
 10
7675.104562020073
 20
531.8632437518418
 10
7636.074441818288
 20
539.1457546142314
 10
7597.436094138157
 20
548.7764653533487
 10
7559.279478574494
 20
559.8238845712855
 10
7520.811760786498
 20
573.5804710040209
 10
7481.801300654269
 20
592.2047236647121
 10
7443.42554863774
 20
615.4534205450697
 10
7406.702382925593
 20
643.1672411515199
 10
7371.973829926838
 20
675.2460580437823
 10
7338.462508738724
 20
717.937905453741
 10
7344.075600489741
 20
916.7647601040061
 10
7349.109796490726
 20
1059.3277964338915
 10
7353.698696287664
 20
1157.703284582417
  0
TEXT
  5
52
330
17
100
AcDbEntity
  8
0
100
AcDbText
 10
7592.611974337605
 20
900.3483770439619
 30
0.0
 40
8.0
  1
O08_SMOOTH_LOWER_W6_A_B_B
100
AcDbText
  0
LWPOLYLINE
  5
53
330
17
100
AcDbEntity
  8
0
100
AcDbPolyline
 90
35
 70
1
 10
7352.61410197092
 20
1309.3602955670133
 10
7413.585614162987
 20
1317.6835487653814
 10
7476.85447677675
 20
1330.1263700782279
 10
7537.284872102105
 20
1339.8602909883227
 10
7594.393254530857
 20
1346.7928168087153
 10
7651.353653668827
 20
1354.225549364622
 10
7706.72541409585
 20
1360.6882225483826
 10
7757.972941597003
 20
1363.3935763518655
 10
7802.547883542057
 20
1359.508990855564
 10
7841.223536956079
 20
1349.6967758634441
 10
7878.8550954151315
 20
1338.8404492262712
 10
7914.405487657665
 20
1325.853747719138
 10
7946.639612921849
 20
1309.3602955670133
 10
7923.150798802466
 20
1283.1568393690793
 10
7899.960650651154
 20
1259.2691347403843
 10
7874.982286113285
 20
1234.2429153803118
 10
7847.675941928564
 20
1207.0867390045628
 10
7818.153374766858
 20
1177.703284582417
 10
7789.538442892628
 20
1198.2474644457986
 10
7758.707865630361
 20
1216.558817176907
 10
7726.487540846049
 20
1233.512060588433
 10
7693.517699617047
 20
1249.7526311812442
 10
7656.689116317901
 20
1262.241203947443
 10
7615.533083686741
 20
1270.621873369498
 10
7571.679356913301
 20
1276.5454358672716
 10
7526.78596796659
 20
1281.6169711706193
 10
7481.815321405036
 20
1286.7652021435617
 10
7434.7568706792235
 20
1289.9649017050192
 10
7385.998435643098
 20
1291.3436645659212
 10
7338.462508738724
 20
1295.8347532872428
 10
7341.822191381493
 20
1299.1073820368888
 10
7344.983198650508
 20
1302.063297836794
 10
7347.893974762346
 20
1304.7014087117668
 10
7350.493391008624
 20
1307.0610947474363
 10
7352.61410197092
 20
1309.3602955670133
  0
TEXT
  5
54
330
17
100
AcDbEntity
  8
0
100
AcDbText
 10
7627.3188018791725
 20
1292.6328086037024
 30
0.0
 40
8.0
  1
O08_SMOOTH_LOWER_W2_A_A
100
AcDbText
  0
LWPOLYLINE
  5
55
330
17
100
AcDbEntity
  8
0
100
AcDbPolyline
 90
57
 70
1
 10
8072.239859934137
 20
262.22762158020413
 10
8087.946533076031
 20
253.26299967141114
 10
8104.063652874482
 20
245.226721382908
 10
8120.5898151415895
 20
238.07677433162755
 10
8137.5344535822815
 20
231.80247305046345
 10
8155.07558204212
 20
226.105485208525
 10
8174.06410355786
 20
220.331851028848
 10
8194.66840948704
 20
214.65399234541445
 10
8216.60465241954
 20
209.4858630210542
 10
8239.440658051446
 20
205.2941958832542
 10
8262.728062372189
 20
202.5232044954354
 10
8286.670008816029
 20
201.26337663357353
 10
8312.681292658204
 20
201.0842946445224
 10
8340.296807713577
 20
202.6448248553124
 10
8369.16535234394
 20
206.83614253476262
 10
8399.47921943191
 20
214.82746423464937
 10
8432.248315096173
 20
228.78411020870826
 10
8471.090031958203
 20
255.63529874146366
 10
8519.787658878295
 20
302.15179235411733
 10
8539.531807697804
 20
292.04422135587305
 10
8559.208521028611
 20
282.03795756734655
 10
8578.801514407964
 20
272.09951625004675
 10
8598.309721001986
 20
262.2276215802042
 10
8577.550072413367
 20
221.8385192691976
 10
8557.348581144248
 20
181.1625832427872
 10
8537.709348447808
 20
140.18021416191186
 10
8518.65683984599
 20
98.858593770102
 10
8500.230220718757
 20
57.15205273663352
 10
8482.477169782063
 20
15.0
 10
8462.994933830094
 20
24.806948797634305
 10
8443.342387493685
 20
34.7630914925997
 10
8423.544332013633
 20
44.82552986359127
 10
8403.647172187677
 20
55.005635202911776
 10
8372.415199369592
 20
39.15904708171328
 10
8346.160699761036
 20
38.537899443572655
 10
8322.692467630393
 20
47.99996435373214
 10
8300.160991338045
 20
62.1357022533376
 10
8278.01575139083
 20
77.92845872715023
 10
8256.28579252282
 20
92.81067536472327
 10
8235.367624778546
 20
104.36623166638816
 10
8215.273923703639
 20
110.72669825437441
 10
8194.421270452895
 20
114.28892758780111
 10
8172.920605376874
 20
116.52692760748039
 10
8151.359594446375
 20
117.90376499936434
 10
8130.309960803777
 20
118.88098189294303
 10
8110.234430635292
 20
119.92511513171635
 10
8091.26969805068
 20
121.55686843494749
 10
8072.769270321023
 20
123.85709014887999
 10
8054.486719112362
 20
126.65011411553147
 10
8036.400580694568
 20
129.91619738251646
 10
8018.497618106513
 20
133.67835693008485
 10
8027.390201961913
 20
155.51335722047202
 10
8036.319188845373
 20
177.1249994846193
 10
8045.279927799635
 20
198.56648236689904
 10
8054.269139981135
 20
219.87472093844056
 10
8063.2681446657425
 20
241.08337847068535
 10
8072.239859934137
 20
262.22762158020413
  0
TEXT
  5
56
330
17
100
AcDbEntity
  8
0
100
AcDbText
 10
8276.097118476
 20
164.13088689359074
 30
0.0
 40
8.0
  1
S08_WRAP_1_W1
100
AcDbText
  0
LWPOLYLINE
  5
57
330
17
100
AcDbEntity
  8
0
100
AcDbPolyline
 90
17
 70
1
 10
8109.277804112729
 20
498.77742372464024
 10
8199.242551737745
 20
491.67292063440385
 10
8282.512459306781
 20
489.32889393668466
 10
8359.615223664023
 20
489.51499443112795
 10
8441.679081088867
 20
493.7655143056153
 10
8521.51946032991
 20
498.3350611640342
 10
8591.621140923768
 20
498.7774237246403
 10
8422.300954215376
 20
394.40190124475527
 10
8299.299218868655
 20
322.15179235411733
 10
8258.937509136005
 20
339.8630111471362
 10
8213.801294762063
 20
356.62092690681084
 10
8167.205480499266
 20
374.25628725420717
 10
8122.36495096036
 20
394.0896521430548
 10
8072.994091656315
 20
417.6050783168188
 10
8018.497618106513
 20
446.87630406914434
 10
8057.32979509168
 20
467.25753464274845
 10
8109.277804112729
 20
498.77742372464024
  0
TEXT
  5
58
330
17
100
AcDbEntity
  8
0
100
AcDbText
 10
8249.851555210165
 20
439.5336555132106
 30
0.0
 40
8.0
  1
O08_SMOOTH_LOWER_W1_A_A_B_A
100
AcDbText
  0
LWPOLYLINE
  5
59
330
17
100
AcDbEntity
  8
0
100
AcDbPolyline
 90
35
 70
1
 10
8018.497618106513
 20
703.7097960137361
 10
8062.710011379508
 20
696.9624043079264
 10
8107.023220915777
 20
687.5862933673269
 10
8150.507466687205
 20
680.2088842816374
 10
8192.77984640494
 20
674.862703923788
 10
8234.985222474099
 20
669.5738959981502
 10
8276.590989921273
 20
665.3414921171425
 10
8316.674665986815
 20
663.9178320794035
 10
8354.324607970813
 20
667.0612445421272
 10
8389.803134812564
 20
674.2982549463682
 10
8424.850095138418
 20
682.3397240276281
 10
8459.105346598823
 20
691.8753958134968
 10
8492.149808326447
 20
703.7097960137361
 10
8512.819482911518
 20
664.3391358410663
 10
8532.12407960134
 20
627.4297228937505
 10
8549.909061912187
 20
593.2714330025385
 10
8566.124659916613
 20
561.8503923684298
 10
8581.173441786756
 20
532.1530165552165
 10
8546.228744907305
 20
524.1174853802312
 10
8509.181557645106
 20
520.1273070768157
 10
8470.763722589418
 20
518.7774237246404
 10
8431.612091044599
 20
518.824540739007
 10
8388.67989444011
 20
526.0506522688202
 10
8341.509617333411
 20
541.2852070740754
 10
8291.718818914762
 20
561.43922291884
 10
8240.903760643754
 20
583.3995637747929
 10
8189.957472551072
 20
605.3659053109477
 10
8136.9269541580925
 20
630.9004660155621
 10
8082.220074964776
 20
659.8351295686318
 10
8028.408333808545
 20
684.669760177319
 10
8026.8216045034915
 20
687.8014329185067
 10
8025.014748057154
 20
691.2896296431211
 10
8023.015237902745
 20
695.1277753487547
 10
8020.843757195307
 20
699.2849660967382
 10
8018.497618106513
 20
703.7097960137361
  0
TEXT
  5
5A
330
17
100
AcDbEntity
  8
0
100
AcDbText
 10
8285.555907703363
 20
634.0713623469717
 30
0.0
 40
8.0
  1
O08_SMOOTH_LOWER_W5_A_A
100
AcDbText
  0
LWPOLYLINE
  5
5B
330
17
100
AcDbEntity
  8
0
100
AcDbPolyline
 90
57
 70
1
 10
8050.870413562066
 20
1015.747089413517
 10
8065.691107961063
 20
999.9641843731617
 10
8081.145756991759
 20
985.0678012636583
 10
8096.750524729362
 20
970.6860637340521
 10
8112.450462267057
 20
956.8199212522366
 10
8128.104742819391
 20
942.4592514119961
 10
8143.408184045976
 20
926.271561503277
 10
8158.36412372086
 20
909.5099036771483
 10
8173.447577965395
 20
893.893123737042
 10
8189.372012990812
 20
881.4358945692406
 10
8206.565485898504
 20
874.4080178455257
 10
8225.138233410436
 20
876.5276386852177
 10
8252.144402154256
 20
889.7156205971246
 10
8288.728253142986
 20
910.8109220664176
 10
8331.24520698642
 20
937.1546162421402
 10
8375.472091842501
 20
965.7193265909879
 10
8417.642000097101
 20
992.6126843023376
 10
8454.838012284541
 20
1012.8052837675318
 10
8484.35408236522
 20
1020.8215916092415
 10
8507.827939368637
 20
1019.7378565090398
 10
8530.914193636643
 20
1018.7365497552215
 10
8553.308515618173
 20
1017.409207135317
 10
8574.722760478218
 20
1015.747089413517
 10
8534.11207614161
 20
954.6436778620224
 10
8517.837521327916
 20
907.0804329962664
 10
8506.01979329763
 20
860.719633659149
 10
8496.71569011456
 20
814.8232692397808
 10
8489.030230907707
 20
769.1816780520903
 10
8482.401459269431
 20
723.7097960137361
 10
8460.63427952503
 20
725.0967519646904
 10
8438.652131694518
 20
726.5569455469396
 10
8416.490557413541
 20
727.9989463878962
 10
8394.17716915304
 20
729.2806544996233
 10
8375.193993669352
 20
758.7116587096391
 10
8352.702287523296
 20
772.2690456717005
 10
8327.59391759969
 20
775.4079604763028
 10
8301.042387475525
 20
773.828077043461
 10
8274.053713321546
 20
770.44768539777
 10
8247.87914445948
 20
767.5224909817126
 10
8223.985983238072
 20
767.0617566487707
 10
8203.242184332204
 20
770.7904729285183
 10
8183.104016609048
 20
777.2691138320729
 10
8162.920245872518
 20
785.0084969659074
 10
8142.971767745495
 20
793.3047062899943
 10
8123.605920359513
 20
801.6116059331098
 10
8105.126109065531
 20
809.5246330073563
 10
8087.516574128563
 20
816.7518987324065
 10
8070.16123679439
 20
823.5604445321868
 10
8052.887130419922
 20
830.1684283555181
 10
8035.66388199227
 20
836.5826215017602
 10
8018.497618106513
 20
842.9066653572213
 10
8021.319471736557
 20
866.581696089575
 10
8024.575223679711
 20
890.5911588877179
 10
8028.240563028572
 20
915.15495196878
 10
8032.424329619904
 20
940.7308203435676
 10
8037.4891083607545
 20
968.6567393859427
 10
8050.870413562066
 20
1015.747089413517
  0
TEXT
  5
5C
330
17
100
AcDbEntity
  8
0
100
AcDbText
 10
8256.52007396286
 20
874.4446176163447
 30
0.0
 40
8.0
  1
S08_WRAP_-1_W1
100
AcDbText
  0
LWPOLYLINE
  5
5D
330
17
100
AcDbEntity
  8
0
100
AcDbPolyline
 90
23
 70
1
 10
8147.700401193734
 20
1264.632755186815
 10
8254.413055311417
 20
1273.8464718775654
 10
8346.173840234947
 20
1279.8627108430887
 10
8415.299786540421
 20
1280.647680703505
 10
8465.999824807519
 20
1276.4767896602962
 10
8513.714921150613
 20
1271.1397618127291
 10
8557.199301601418
 20
1264.632755186815
 10
8543.407124587911
 20
1219.3665123365197
 10
8525.794271522678
 20
1174.2068110138775
 10
8504.391705430387
 20
1129.306457447499
 10
8479.277182333513
 20
1084.8296468105186
 10
8450.760020120293
 20
1040.8215916092415
 10
8399.477362805297
 20
1048.5934789612334
 10
8343.90134982759
 20
1056.2994384040321
 10
8286.963000856038
 20
1064.7025154919859
 10
8213.738390141176
 20
1072.7114319856878
 10
8121.351254349912
 20
1081.4318974126481
 10
8018.497618106513
 20
1091.519541362018
 10
8053.042729070048
 20
1128.0261196662552
 10
8083.593445059087
 20
1163.6174244856131
 10
8109.848847438608
 20
1198.2299603657118
 10
8131.459751348168
 20
1231.8487820243063
 10
8147.700401193734
 20
1264.632755186815
  0
TEXT
  5
5E
330
17
100
AcDbEntity
  8
0
100
AcDbText
 10
8309.291547175262
 20
1172.234056079773
 30
0.0
 40
8.0
  1
H08_CANOPY_W3_A_B_B
100
AcDbText
  0
LWPOLYLINE
  5
5F
330
17
100
AcDbEntity
  8
0
100
AcDbPolyline
 90
35
 70
1
 10
8620.87957822655
 20
211.14127815149797
 10
8655.630556040845
 20
209.42267324578225
 10
8690.44092756138
 20
211.8008910792638
 10
8725.305305547263
 20
217.23011959761192
 10
8760.217393281126
 20
224.44510015762776
 10
8795.154039844569
 20
232.232747796793
 10
8830.081061771938
 20
239.39833992892125
 10
8864.999990574155
 20
246.18939829577008
 10
8899.932618813898
 20
253.47734716659113
 10
8934.879123222625
 20
261.1862113043297
 10
8969.808340808655
 20
269.3751693175924
 10
9100.17451029811
 20
210.71335734126268
 10
9153.82651073437
 20
211.141278151498
 10
9153.465131064562
 20
167.792499016706
 10
9153.458769185483
 20
127.18879480592669
 10
9154.109094687314
 20
89.67712603525743
 10
9155.27049675375
 20
55.37303734579376
 10
9156.075626213486
 20
23.565136611781924
 10
9102.420326059048
 20
22.277720601002983
 10
8969.539789967897
 20
121.64611494772976
 10
8934.287036605197
 20
107.19056332115125
 10
8899.038051442189
 20
93.43206057192847
 10
8863.849632008993
 20
80.35648702355942
 10
8828.714593023717
 20
68.10802489639082
 10
8793.535485651033
 20
55.26105122786774
 10
8758.279635977926
 20
41.44420860962927
 10
8723.065320219412
 20
28.714017597079703
 10
8687.977297136273
 20
19.19196239182645
 10
8653.065653422274
 20
15.0
 10
8618.309721001986
 20
17.879135969797176
 10
8618.38434451819
 20
51.171748428556185
 10
8618.835165722627
 20
86.52746215340643
 10
8619.449720355824
 20
125.0335279566623
 10
8620.14575729894
 20
166.68069322584205
 10
8620.87957822655
 20
211.14127815149797
  0
TEXT
  5
60
330
17
100
AcDbEntity
  8
0
100
AcDbText
 10
8848.67103380766
 20
136.35447321211248
 30
0.0
 40
8.0
  1
O08_SMOOTH_LOWER_W5_A_B
100
AcDbText
  0
LWPOLYLINE
  5
61
330
17
100
AcDbEntity
  8
0
100
AcDbPolyline
 90
57
 70
1
 10
8618.309721001986
 20
576.7128138678647
 10
8636.583633712095
 20
575.856575769805
 10
8654.917145396232
 20
574.5693278605783
 10
8673.327909905536
 20
572.8099258876643
 10
8691.833807981782
 20
570.5542639745926
 10
8710.634407606049
 20
567.5774734778864
 10
8730.372762541212
 20
563.7675292007995
 10
8751.029406853546
 20
559.602546253766
 10
8772.266124866883
 20
555.6305531548209
 10
8793.64805727507
 20
552.4522475417679
 10
8814.729393359568
 20
550.6914227237284
 10
8835.774712566612
 20
551.8346661517652
 10
8858.91359669117
 20
557.8089877356963
 10
8883.670934184152
 20
566.7948296654048
 10
8909.059941267516
 20
576.5529300451461
 10
8934.408584840232
 20
584.6109716528324
 10
8959.496947071544
 20
587.9067205147293
 10
8984.752382370036
 20
580.7062424780157
 10
9010.969973552601
 20
557.4858301682306
 10
9032.766290269668
 20
562.4306949972237
 10
9054.443957279826
 20
567.257090519023
 10
9075.953968467256
 20
572.0180240132541
 10
9097.25402692696
 20
576.7128138678647
 10
9103.931437206835
 20
531.4648683901702
 10
9111.4403087207
 20
486.4916404493516
 10
9119.68235781225
 20
441.7418594811962
 10
9128.575072288693
 20
397.1753388062451
 10
9138.057696821235
 20
352.7600992461548
 10
9148.100513128426
 20
308.4725644363752
 10
9126.757426769149
 20
303.7294369229291
 10
9105.309584468127
 20
298.9704141313619
 10
9083.758729707552
 20
294.1892780483271
 10
9062.106502652798
 20
289.3751693175924
 10
9026.336682186404
 20
346.4345281501214
 10
8995.453605771292
 20
382.1542871335494
 10
8967.22792677283
 20
403.8778161601616
 10
8939.885368418889
 20
419.2132348861336
 10
8912.988212784814
 20
430.50489574399387
 10
8886.640757688656
 20
438.9228484155149
 10
8861.407212431326
 20
445.2383457546013
 10
8837.906745015975
 20
449.9849656922691
 10
8814.663611400429
 20
453.1052961493593
 10
8791.502600288646
 20
454.72349109791566
 10
8768.969560840107
 20
455.1336581878528
 10
8747.602496359761
 20
454.6619887165631
 10
8727.781953009251
 20
453.64007657182566
 10
8709.386369793212
 20
452.317288017728
 10
8691.428080574919
 20
450.3201870063469
 10
8673.657507975626
 20
447.41438636432014
 10
8656.058273526118
 20
443.59189725565193
 10
8638.601393475554
 20
438.8672499404331
 10
8635.043382328555
 20
461.5589447558496
 10
8631.591267172367
 20
484.3377482230984
 10
8628.220095880788
 20
507.2174988638442
 10
8624.911704765555
 20
530.2193709219154
 10
8621.629190085929
 20
553.3713349344204
 10
8618.309721001986
 20
576.7128138678647
  0
TEXT
  5
62
330
17
100
AcDbEntity
  8
0
100
AcDbText
 10
8860.000719914251
 20
485.96911058883313
 30
0.0
 40
8.0
  1
S08_WRAP_-1_W2
100
AcDbText
  0
LWPOLYLINE
  5
63
330
17
100
AcDbEntity
  8
0
100
AcDbPolyline
 90
57
 70
1
 10
8630.965502716193
 20
913.8572198974052
 10
8649.17532167483
 20
915.6098132390356
 10
8667.408838295109
 20
917.9151473724161
 10
8685.708965626765
 20
920.5908533489056
 10
8704.114089272422
 20
923.5592311079475
 10
8722.860050061807
 20
926.8633936765873
 10
8742.652673520202
 20
930.3813587504889
 10
8763.460096570432
 20
933.7131606174197
 10
8784.868637858595
 20
936.6207123740967
 10
8806.371223663917
 20
938.841130583184
 10
8827.498007463535
 20
939.9290175508921
 10
8848.512206479723
 20
938.311475095069
 10
8871.525772400571
 20
931.871234985305
 10
8896.090509928776
 20
922.3714975913032
 10
8921.27733618847
 20
912.1028403075187
 10
8946.481530455254
 20
903.603877924568
 10
8971.5237422534
 20
899.9744829255438
 10
8996.81463568434
 20
907.0490821318334
 10
9022.229760387574
 20
931.1448815174294
 10
9044.060720971222
 20
926.3555486513369
 10
9065.827120035152
 20
921.9468551776556
 10
9087.454952778866
 20
917.7537978713357
 10
9108.915353760205
 20
913.8572198974052
 10
9103.598283839632
 20
868.2135289442593
 10
9099.581034336303
 20
822.104274444978
 10
9097.227852338525
 20
775.3336669961365
 10
9097.256630484459
 20
727.4904172732213
 10
9101.221947286173
 20
677.3764712442186
 10
9124.819822424439
 20
607.9067205147294
 10
9103.5374138036
 20
610.8037917125778
 10
9081.560750369736
 20
615.3087799326614
 10
9059.019606598558
 20
620.3955525533491
 10
9036.116882540737
 20
625.6550015018368
 10
9009.852234282553
 20
641.3275115464187
 10
8979.110936770225
 20
670.4180124069937
 10
8945.471211174661
 20
707.4304331660123
 10
8910.399057942534
 20
746.6973859142495
 10
8875.98587365379
 20
782.9935280453924
 10
8845.767866745866
 20
812.4938393235602
 10
8822.721754563594
 20
831.7847578732104
 10
8805.242688323066
 20
838.4123531109892
 10
8786.769470306013
 20
836.4760346836126
 10
8768.009385417117
 20
828.9375816392346
 10
8749.46017502312
 20
817.6541891630018
 10
8731.093650431407
 20
804.7199229417135
 10
8712.821511651591
 20
791.9779355442781
 10
8694.647151506555
 20
780.979093837334
 10
8676.417532271813
 20
770.6621940803303
 10
8658.039548600982
 20
760.0511370454797
 10
8639.531326106315
 20
749.1792711924427
 10
8620.750903165415
 20
738.4064913734369
 10
8618.309721001986
 20
787.300671982268
 10
8620.349525480098
 20
815.6088052630239
 10
8622.854660126708
 20
841.4031267553769
 10
8625.559334569167
 20
866.0909348298903
 10
8628.323734919059
 20
890.1616439597992
 10
8630.965502716193
 20
913.8572198974052
  0
TEXT
  5
64
330
17
100
AcDbEntity
  8
0
100
AcDbText
 10
8853.477053137183
 20
828.0673002331246
 30
0.0
 40
8.0
  1
S08_WRAP_1_W2
100
AcDbText
  0
LWPOLYLINE
  5
65
330
17
100
AcDbEntity
  8
0
100
AcDbPolyline
 90
21
 70
1
 10
8618.309721001986
 20
1151.712961609608
 10
8721.6116573477
 20
1148.6639090974058
 10
8814.375246542999
 20
1146.1532910190067
 10
8888.036115443676
 20
1145.9179219601017
 10
8945.542876600804
 20
1148.2783513609447
 10
9001.626644414058
 20
1149.922067397409
 10
9053.464086624263
 20
1151.712961609608
 10
9076.558034322838
 20
1104.6319376419654
 10
9095.932796738613
 20
1057.3714631893029
 10
9111.699188263769
 20
1010.195972161203
 10
9124.138757999819
 20
963.3467186441121
 10
9079.162016030748
 20
961.0554390840778
 10
9030.032824931854
 20
959.9335101275809
 10
8978.20857003113
 20
959.9290175508921
 10
8908.702611374045
 20
966.3046969073926
 10
8817.638578947344
 20
979.9776463441613
 10
8712.710944629962
 20
998.5187508014446
 10
8695.989687649822
 20
1034.8183006041168
 10
8674.862155807245
 20
1072.7788113056151
 10
8648.988759732787
 20
1111.9023367866414
 10
8618.309721001986
 20
1151.712961609608
  0
TEXT
  5
66
330
17
100
AcDbEntity
  8
0
100
AcDbText
 10
8886.47147597321
 20
1065.4685250862954
 30
0.0
 40
8.0
  1
H08_CANOPY_W2_A_B_A
100
AcDbText
  0
LWPOLYLINE
  5
67
330
17
100
AcDbEntity
  8
0
100
AcDbPolyline
 90
19
 70
1
 10
9176.075626213484
 20
417.2311108268551
 10
9232.365787421968
 20
419.30087967370656
 10
9281.494973785735
 20
420.003064607112
 10
9325.135547593169
 20
420.3304186764154
 10
9368.540580072946
 20
418.5770922168337
 10
9410.392048363654
 20
416.860977195639
 10
9449.57164923759
 20
417.2311108268551
 10
9492.600458076884
 20
328.64576730967826
 10
9550.777591296861
 20
198.39608519395318
 10
9627.780363478052
 20
15.0
 10
9571.096277126437
 20
56.24747784272853
 10
9508.364070070047
 20
105.8462805770169
 10
9443.763323394525
 20
156.63309787780696
 10
9381.0765945277
 20
201.52478785442057
 10
9311.963786083617
 20
248.03098886910527
 10
9235.046008928204
 20
295.230994151332
 10
9211.95676725061
 20
351.4360610670435
 10
9192.96664569151
 20
390.9672587827836
 10
9176.075626213484
 20
417.2311108268551
  0
TEXT
  5
68
330
17
100
AcDbEntity
  8
0
100
AcDbText
 10
9365.633880254025
 20
299.7223454934811
 30
0.0
 40
8.0
  1
O08_SMOOTH_LOWER_W6_A_A_B_B
100
AcDbText
  0
LWPOLYLINE
  5
69
330
17
100
AcDbEntity
  8
0
100
AcDbPolyline
 90
21
 70
1
 10
9213.782939803757
 20
617.3689832077076
 10
9322.025945857014
 20
620.8546814240322
 10
9413.838520330166
 20
623.4068065376666
 10
9481.818958797347
 20
623.9244403011448
 10
9530.982651823877
 20
622.5125181083399
 10
9576.943081266383
 20
620.3258279069909
 10
9618.942067424134
 20
617.3689832077076
 10
9615.33141126236
 20
572.7987615366305
 10
9607.810809546307
 20
528.4350227597062
 10
9596.539968705325
 20
484.30826957673935
 10
9581.965246328211
 20
440.33041867641543
 10
9538.90347705989
 20
449.2133545225862
 10
9491.732406797893
 20
458.16313032498215
 10
9441.70622551237
 20
467.397463157558
 10
9373.34338501879
 20
477.6718849779827
 10
9282.243610132764
 20
490.2071481569624
 10
9176.075626213484
 20
504.3813927723927
 10
9192.432637913538
 20
533.5685737904462
 10
9204.493718328007
 20
561.8861755698558
 10
9211.811220765043
 20
589.7264908164921
 10
9213.782939803757
 20
617.3689832077076
  0
TEXT
  5
6A
330
17
100
AcDbEntity
  8
0
100
AcDbText
 10
9413.643183270973
 20
548.6294909780975
 30
0.0
 40
8.0
  1
H08_CANOPY_W3_A_B_A
100
AcDbText
  0
LWPOLYLINE
  5
6B
330
17
100
AcDbEntity
  8
0
100
AcDbPolyline
 90
23
 70
1
 10
9176.075626213484
 20
870.9504714664587
 10
9282.565992807213
 20
867.3006259552977
 10
9374.625891480766
 20
865.1697986257664
 10
9444.423619144973
 20
865.017361322096
 10
9496.202784435343
 20
867.1875186499298
 10
9545.306004060523
 20
869.1491954321524
 10
9590.305325405505
 20
870.9504714664587
 10
9600.68933987913
 20
824.7828637951413
 10
9606.93494371998
 20
778.8753004484541
 10
9609.21986753064
 20
733.389022901926
 10
9607.781291426001
 20
688.4153791104957
 10
9603.300114716314
 20
643.9244403011448
 10
9561.47445002756
 20
648.7469933817741
 10
9515.80537241286
 20
654.35669178781
 10
9467.104619818241
 20
661.2344918539126
 10
9400.277039096582
 20
673.714325888938
 10
9310.660554893591
 20
693.8413439035589
 10
9205.425292232636
 20
719.4221838017722
 10
9208.133232620556
 20
747.0023371958439
 10
9207.27784563799
 20
775.7755906483623
 10
9202.14720176224
 20
806.1241353914795
 10
9191.967468040113
 20
837.9960031296098
 10
9176.075626213484
 20
870.9504714664587
  0
TEXT
  5
6C
330
17
100
AcDbEntity
  8
0
100
AcDbText
 10
9407.990413198944
 20
775.4033486054279
 30
0.0
 40
8.0
  1
H08_CANOPY_W2_A_B_B
100
AcDbText
  0
LWPOLYLINE
  5
6D
330
17
100
AcDbEntity
  8
0
100
AcDbPolyline
 90
23
 70
1
 10
9189.006427673807
 20
1036.4721680683767
 10
9251.818167825717
 20
1014.1343515222675
 10
9318.589653030469
 20
990.8584529937648
 10
9385.362095007476
 20
979.3606762906949
 10
9452.40978667362
 20
979.5027016601873
 10
9527.521187288614
 20
999.7598566209208
 10
9607.552343046675
 20
1036.4721680683767
 10
9583.769200346824
 20
980.5573737440482
 10
9563.233768178901
 20
941.8065099120189
 10
9544.878640204734
 20
916.5441525060563
 10
9527.509705615954
 20
900.9728284424107
 10
9509.909494161748
 20
890.9504714664587
 10
9456.765680970071
 20
907.7884018710513
 10
9402.477583468115
 20
926.5642406125681
 10
9348.990306861584
 20
947.7431377455512
 10
9290.573003362542
 20
966.0190811074559
 10
9230.400953997123
 20
989.1947479217816
 10
9176.075626213484
 20
1018.1009984040537
 10
9178.662053492922
 20
1019.4520817978237
 10
9181.120275164418
 20
1021.397603413306
 10
9183.600279603592
 20
1024.5311623806836
 10
9186.197765068904
 20
1029.396621638622
 10
9189.006427673807
 20
1036.4721680683767
  0
TEXT
  5
6E
330
17
100
AcDbEntity
  8
0
100
AcDbText
 10
9360.236105431788
 20
980.6109546198632
 30
0.0
 40
8.0
  1
O08_SMOOTH_LOWER_W1_A_A_A
100
AcDbText
  0
LWPOLYLINE
  5
6F
330
17
100
AcDbEntity
  8
0
100
AcDbPolyline
 90
25
 70
1
 10
9176.075626213484
 20
1242.8987147817581
 10
9235.0206006672
 20
1249.0590209287936
 10
9296.902312022134
 20
1248.208834147418
 10
9355.6704021304
 20
1244.9546160881043
 10
9411.142095629966
 20
1245.9308645523606
 10
9466.490216485443
 20
1244.911195802896
 10
9520.167781547854
 20
1242.8987147817581
 10
9535.187942380153
 20
1228.5323257244795
 10
9547.606419015503
 20
1212.5323743566403
 10
9557.372561278768
 20
1191.3481692277664
 10
9564.294042890362
 20
1160.8983278095316
 10
9568.273478192927
 20
1117.223409035725
 10
9569.4506436882
 20
1056.4721680683767
 10
9509.427533168935
 20
1120.892587974337
 10
9447.416324238717
 20
1167.8679479348907
 10
9385.436112127807
 20
1193.4390058429003
 10
9319.297364637203
 20
1208.1510909160722
 10
9248.786247185084
 20
1213.4816780407527
 10
9182.314044926195
 20
1218.55668169954
 10
9182.404025534013
 20
1226.1687695704607
 10
9182.104668577049
 20
1231.6760401031222
 10
9181.362297782667
 20
1235.6026806624952
 10
9180.16327593697
 20
1238.4992746552903
 10
9178.447485750801
 20
1240.8595917328712
 10
9176.075626213484
 20
1242.8987147817581
  0
TEXT
  5
70
330
17
100
AcDbEntity
  8
0
100
AcDbText
 10
9359.075565128855
 20
1208.9585119688038
 30
0.0
 40
8.0
  1
O08_SMOOTH_LOWER_W6_A_A_A
100
AcDbText
  0
LWPOLYLINE
  5
71
330
17
100
AcDbEntity
  8
0
100
AcDbPolyline
 90
31
 70
1
 10
9647.780363478052
 20
383.9056516078563
 10
9690.334638327235
 20
376.3021338995251
 10
9731.084447402129
 20
373.3926652870974
 10
9770.806971076358
 20
373.07502338679427
 10
9810.61520848463
 20
374.0695823504685
 10
9850.183213426622
 20
377.3519094365383
 10
9889.24042526411
 20
383.9056516078563
 10
9898.762170562553
 20
350.6772913151053
 10
9909.370817478133
 20
317.7872570202807
 10
9921.07616627561
 20
285.2863086027648
 10
9933.81948561861
 20
253.20029747770803
 10
9947.543494100966
 20
221.5502616842166
 10
9962.201265405882
 20
190.35669654323144
 10
9977.770347645206
 20
159.64805102190246
 10
9994.289199676785
 20
129.48414230129808
 10
10011.962872947499
 20
100.0297201394356
 10
9978.476691474109
 20
80.64857230841818
 10
9945.00078381753
 20
62.80603193155724
 10
9911.2893906945
 20
47.09284416069585
 10
9877.13620780589
 20
33.91918622691355
 10
9841.94241646412
 20
23.40867525031223
 10
9805.810728348131
 20
15.0
 10
9783.632259040674
 20
53.24075283007227
 10
9762.522460382454
 20
92.26953701197283
 10
9742.471965720757
 20
132.02878598125167
 10
9723.535478262118
 20
172.48962682674312
 10
9705.773725245064
 20
213.61810097978343
 10
9689.249789384397
 20
255.37357640938433
 10
9674.02469040094
 20
297.70755657455857
 10
9660.163490890714
 20
340.56666997691417
 10
9647.780363478052
 20
383.9056516078563
  0
TEXT
  5
72
330
17
100
AcDbEntity
  8
0
100
AcDbText
 10
9828.891984792896
 20
221.09994231479072
 30
0.0
 40
8.0
  1
H08_CANOPY_W1_B_B
100
AcDbText
  0
LWPOLYLINE
  5
73
330
17
100
AcDbEntity
  8
0
100
AcDbPolyline
 90
19
 70
1
 10
9704.351026339104
 20
560.1212473692977
 10
9766.207744277406
 20
560.7649733765072
 10
9820.883471276233
 20
561.7855209425674
 10
9869.914293616464
 20
561.5972637657081
 10
9919.715058371732
 20
563.0390578792798
 10
9967.858122007463
 20
563.6430267829263
 10
10011.793972754476
 20
560.1212473692977
 10
9949.891290353025
 20
483.5253915969905
 10
9904.759320721934
 20
435.14158472059404
 10
9871.960625444517
 20
403.9056516078564
 10
9841.122417356515
 20
422.8811883662592
 10
9807.563833481234
 20
440.3827433473698
 10
9772.440494716668
 20
457.71326874618194
 10
9736.692015511553
 20
475.4371614716857
 10
9695.512480159421
 20
492.9378198244292
 10
9647.780363478052
 20
511.7867682919841
 10
9664.802655339297
 20
522.7621512909194
 10
9683.069729699919
 20
537.2694864665085
 10
9704.351026339104
 20
560.1212473692977
  0
TEXT
  5
74
330
17
100
AcDbEntity
  8
0
100
AcDbText
 10
9807.403681118112
 20
509.20720003082425
 30
0.0
 40
8.0
  1
O08_SMOOTH_LOWER_W1_A_A_B_B
100
AcDbText
  0
LWPOLYLINE
  5
75
330
17
100
AcDbEntity
  8
0
100
AcDbPolyline
 90
17
 70
1
 10
9758.421938660596
 20
725.693434406328
 10
9816.987217625503
 20
739.2341379553055
 10
9863.931791962515
 20
742.3781622320123
 10
9905.881534441856
 20
739.7825903728141
 10
9947.260123690554
 20
734.3953812995368
 10
9987.894536765412
 20
725.693434406328
 10
9959.857763748589
 20
690.5095138225903
 10
9932.10761180086
 20
655.0275618101409
 10
9905.124837678468
 20
618.9230052323726
 10
9860.379443468044
 20
622.247226541162
 10
9814.379496878695
 20
621.4363721479918
 10
9767.289343955452
 20
617.235214870949
 10
9714.140463595215
 20
606.2437703935091
 10
9647.780363478052
 20
583.6430267829263
 10
9684.585113781977
 20
631.3963234931323
 10
9721.824997411639
 20
678.5505617261139
 10
9758.421938660596
 20
725.693434406328
  0
TEXT
  5
76
330
17
100
AcDbEntity
  8
0
100
AcDbText
 10
9826.251089270823
 20
674.0048912882082
 30
0.0
 40
8.0
  1
H08_CANOPY_W4_B_A_B_B
100
AcDbText
  0
LWPOLYLINE
  5
77
330
17
100
AcDbEntity
  8
0
100
AcDbPolyline
 90
25
 70
1
 10
9658.966965687054
 20
1095.5160765459348
 10
9712.994603874125
 20
1094.7904284439005
 10
9767.11357655474
 20
1094.395272616572
 10
9821.363971206569
 20
1094.250748790004
 10
9875.798226340463
 20
1094.3725944771531
 10
9930.488346871582
 20
1094.7695629393563
 10
9985.646038229355
 20
1095.5160765459348
 10
9982.298912177303
 20
1072.3863978678896
 10
9979.363299619912
 20
1045.7759203677551
 10
9977.244950838784
 20
1009.4294233176572
 10
9976.203503684485
 20
956.5740704609798
 10
9976.32440725212
 20
880.4929218335142
 10
9977.646294164837
 20
774.5549370764077
 10
9921.868671177981
 20
772.0481723856007
 10
9866.775413429777
 20
769.2772838062253
 10
9812.03223718567
 20
767.0490319703753
 10
9757.538316603486
 20
765.2750160764522
 10
9703.221944004377
 20
763.7496873522475
 10
9649.0205563226
 20
762.3781622320124
 10
9647.780363478052
 20
870.6937272287562
 10
9648.228265914553
 20
948.5411085153806
 10
9649.911331806328
 20
1002.8183979419573
 10
9652.463927679612
 20
1040.661180394618
 10
9655.586950343977
 20
1069.3815563183348
 10
9658.966965687054
 20
1095.5160765459348
  0
TEXT
  5
78
330
17
100
AcDbEntity
  8
0
100
AcDbText
 10
9809.793921605391
 20
961.208553282038
 30
0.0
 40
8.0
  1
O08_SMOOTH_LOWER_W6_B_B_A
100
AcDbText
  0
LWPOLYLINE
  5
79
330
17
100
AcDbEntity
  8
0
100
AcDbPolyline
 90
31
 70
1
 10
10031.962872947499
 20
392.41044489188147
 10
10068.822372480134
 20
388.21862636896094
 10
10105.492682903568
 20
386.1320216839911
 10
10142.098242090524
 20
386.27089552073187
 10
10179.26309406242
 20
387.7369816263067
 10
10217.132401376903
 20
389.95762212578865
 10
10255.745361459649
 20
392.41044489188147
 10
10261.622916569717
 20
358.6089197957864
 10
10268.120874569058
 20
324.96270866962004
 10
10275.377870810966
 20
291.51195100039587
 10
10283.393066354884
 20
258.2718231870799
 10
10292.166688470938
 20
225.25687369475722
 10
10301.709489653185
 20
192.4840132453741
 10
10312.059447089872
 20
159.97908621059548
 10
10323.33825569606
 20
127.79997148541196
 10
10335.91723884428
 20
96.11445073956662
 10
10300.810885662842
 20
80.66129177753419
 10
10266.298983646848
 20
65.49793300652186
 10
10232.51081561066
 20
51.24107166127686
 10
10199.412306385588
 20
38.219582488582944
 10
10166.456948367872
 20
26.201586146323905
 10
10133.291239438704
 20
15.0
 10
10117.944187332
 20
55.32782920725748
 10
10103.767398798527
 20
96.11365947372121
 10
10090.61690907069
 20
137.30378271359098
 10
10078.47894501679
 20
178.8930942311548
 10
10067.344887572015
 20
220.876303996641
 10
10057.202061317588
 20
263.2444752307222
 10
10048.01341005715
 20
305.9805062490683
 10
10039.671179780149
 20
349.0520378384291
 10
10031.962872947499
 20
392.41044489188147
  0
TEXT
  5
7A
330
17
100
AcDbEntity
  8
0
100
AcDbText
 10
10180.258255044662
 20
226.90807851776887
 30
0.0
 40
8.0
  1
H08_CANOPY_W2_B_B
100
AcDbText
  0
LWPOLYLINE
  5
7B
330
17
100
AcDbEntity
  8
0
100
AcDbPolyline
 90
89
 70
1
 10
10031.962872947499
 20
944.7159803793556
 10
10057.13409356225
 20
944.7159803795026
 10
10082.30531417698
 20
944.7159803798779
 10
10107.476534791693
 20
944.7159803803996
 10
10132.647755406388
 20
944.7159803808984
 10
10157.81897602106
 20
944.7159803808621
 10
10182.990196635712
 20
944.7159803815265
 10
10208.16141725034
 20
944.7159803822262
 10
10233.332637864945
 20
944.7159803824924
 10
10258.50385847952
 20
944.7159803826812
 10
10283.675079094066
 20
944.7159803820168
 10
10308.846299708584
 20
944.7159803805614
 10
10334.017520323066
 20
944.7159803793556
 10
10334.2256676771
 20
928.064080300643
 10
10334.420386169526
 20
911.415536858001
 10
10334.601675800675
 20
894.7701268863934
 10
10334.769536570577
 20
878.1276270947285
 10
10334.923968479032
 20
861.4878140747562
 10
10335.064971525879
 20
844.8504643099915
 10
10335.192545711387
 20
828.2153541846607
 10
10335.30669103582
 20
811.5822599926594
 10
10335.407407499286
 20
794.9509579465346
 10
10335.494695101645
 20
778.3212241864808
 10
10335.568553842948
 20
761.6928347893543
 10
10335.628983723274
 20
745.0655657776944
 10
10335.675984742418
 20
728.4391931287608
 10
10335.709556900127
 20
711.8134927835791
 10
10335.72970019642
 20
695.1882406559972
 10
10335.736414631485
 20
678.5632126417349
 10
10335.72970020524
 20
661.9381846274517
 10
10335.709556917427
 20
645.3129324998084
 10
10335.675984768026
 20
628.6872321545295
 10
10335.628983757211
 20
612.0608595054621
 10
10335.568553885065
 20
595.4335904936358
 10
10335.49469515133
 20
578.8052010963152
 10
10335.407407555811
 20
562.1754673360425
 10
10335.306691098493
 20
545.5441652896767
 10
10335.192545779522
 20
528.9110710974137
 10
10335.064971598691
 20
512.2759609718025
 10
10334.923968555859
 20
495.6386112067413
 10
10334.769536651134
 20
478.99879818646076
 10
10334.60167588474
 20
462.3562983944779
 10
10334.420386256736
 20
445.7108884225447
 10
10334.225667767307
 20
429.0623449795687
 10
10334.017520416592
 20
412.41044490050865
 10
10308.846299802119
 20
412.41044489748924
 10
10283.675079187637
 20
412.41044489509375
 10
10258.503858573144
 20
412.41044489290164
 10
10233.332637958652
 20
412.4104448919619
 10
10208.161417344169
 20
412.4104448918815
 10
10182.990196729692
 20
412.41044489289266
 10
10157.818976115226
 20
412.41044489393767
 10
10132.647755500771
 20
412.410444894669
 10
10107.47653488632
 20
412.4104448953872
 10
10082.30531427187
 20
412.41044489494175
 10
10057.134093657414
 20
412.4104448942196
 10
10031.962873042949
 20
412.41044489290834
 10
10032.171020395264
 20
429.06234497193964
 10
10032.365738885823
 20
445.7108884148822
 10
10032.547028514547
 20
462.35629838677295
 10
10032.714889281342
 20
478.99879817871107
 10
10032.869321186181
 20
495.638611198947
 10
10033.01032422907
 20
512.2759609639676
 10
10033.13789840989
 20
528.9110710895495
 10
10033.252043728788
 20
545.5441652817947
 10
10033.352760185657
 20
562.1754673281705
 10
10033.44004778043
 20
578.8052010884762
 10
10033.513906513295
 20
595.4335904858574
 10
10033.574336384434
 20
612.0608594977753
 10
10033.621337394172
 20
628.6872321469642
 10
10033.654909542794
 20
645.312932492395
 10
10033.675052830074
 20
661.9381846202227
 10
10033.681767256221
 20
678.5632126347225
 10
10033.675052821358
 20
695.1882406492336
 10
10033.654909525401
 20
711.8134927770981
 10
10033.621337368357
 20
728.4391931225908
 10
10033.574336350159
 20
745.0655657718653
 10
10033.513906470942
 20
761.6928347838922
 10
10033.440047730455
 20
778.3212241814082
 10
10033.352760128242
 20
794.9509579418705
 10
10033.252043664359
 20
811.5822599884227
 10
10033.13789833907
 20
828.2153541808738
 10
10033.01032415252
 20
844.8504643066773
 10
10032.869321104772
 20
861.4878140719375
 10
10032.714889195733
 20
878.1276270924292
 10
10032.54702842554
 20
894.770126884635
 10
10032.365738794259
 20
911.4155368568066
 10
10032.171020301674
 20
928.0640803000338
 10
10031.962872947499
 20
944.7159803793556
  0
TEXT
  5
7C
330
17
100
AcDbEntity
  8
0
100
AcDbText
 10
10182.116494932885
 20
681.5536931744352
 30
0.0
 40
8.0
  1
K08_FLAP_INSULATION
100
AcDbText
  0
LWPOLYLINE
  5
7D
330
17
100
AcDbEntity
  8
0
100
AcDbPolyline
 90
13
 70
1
 10
10031.962872947499
 20
1109.5334203600162
 10
10101.929771030253
 20
1105.1661189998533
 10
10156.027238119666
 20
1109.5334203600162
 10
10199.015737690552
 20
1078.730240676851
 10
10241.268729339063
 20
1047.0857135303488
 10
10282.468921511163
 20
1014.3866901192833
 10
10322.624592396118
 20
980.8466450498804
 10
10278.97194011174
 20
970.0821377132677
 10
10222.175665706705
 20
964.7159803826812
 10
10176.388390822412
 20
1002.0568048373161
 10
10129.263391912653
 20
1038.6769103860008
 10
10081.1611172986
 20
1074.6838882287457
 10
10031.962872947499
 20
1109.5334203600162
  0
TEXT
  5
7E
330
17
100
AcDbEntity
  8
0
100
AcDbText
 10
10173.478557064147
 20
1046.5408762310983
 30
0.0
 40
8.0
  1
H08_CANOPY_W1_B_A_A_A
100
AcDbText
  0
LWPOLYLINE
  5
7F
330
17
100
AcDbEntity
  8
0
100
AcDbPolyline
 90
19
 70
1
 10
10031.962872947499
 20
1268.8848571293865
 10
10080.931846401778
 20
1261.193583791559
 10
10124.363686421662
 20
1258.1793065045993
 10
10163.495471843567
 20
1259.4399301399658
 10
10201.912663345282
 20
1260.8179567522939
 10
10239.069916618635
 20
1263.6065976928132
 10
10274.536211981618
 20
1268.8848571293865
 10
10287.957423741305
 20
1236.354475679114
 10
10302.33243987663
 20
1193.4031333340454
 10
10319.610114520718
 20
1129.533420360016
 10
10281.053412650064
 20
1136.5016062017246
 10
10240.506773373178
 20
1147.0118884934616
 10
10198.887668080088
 20
1159.4591133492515
 10
10156.94745217693
 20
1171.5272130877497
 10
10110.760943091216
 20
1188.290681940715
 10
10059.213001737542
 20
1211.000552669832
 10
10052.01123029236
 20
1233.1880737515335
 10
10043.346451871457
 20
1251.4948928268193
 10
10031.962872947499
 20
1268.8848571293865
  0
TEXT
  5
80
330
17
100
AcDbEntity
  8
0
100
AcDbText
 10
10168.466444943106
 20
1219.3503683138767
 30
0.0
 40
8.0
  1
O08_SMOOTH_LOWER_W6_A_A_B_A
100
AcDbText
  0
LWPOLYLINE
  5
81
330
17
100
AcDbEntity
  8
0
100
AcDbPolyline
 90
15
 70
1
 10
10094.628378144775
 20
1388.1442435723477
 10
10147.968103673693
 20
1397.6239298876847
 10
10191.02246032295
 20
1398.8654483222265
 10
10230.247332030527
 20
1396.5754679222368
 10
10269.5429107104
 20
1393.3193976861744
 10
10308.886381893955
 20
1388.1442435723477
 10
10285.352390708755
 20
1350.0238251357052
 10
10262.090312436909
 20
1311.6126006930192
 10
10220.557215887216
 20
1312.9823600509774
 10
10178.841351064852
 20
1311.9864869911717
 10
10136.868018069683
 20
1309.8060095432852
 10
10090.21332642779
 20
1303.7217558084028
 10
10031.962872947499
 20
1288.8848571293868
 10
10063.828073024744
 20
1338.6384102677819
 10
10094.628378144775
 20
1388.1442435723477
  0
TEXT
  5
82
330
17
100
AcDbEntity
  8
0
100
AcDbText
 10
10173.775833699237
 20
1351.8982186770065
 30
0.0
 40
8.0
  1
H08_CANOPY_W4_B_A_B_A
100
AcDbText
  0
LWPOLYLINE
  5
83
330
17
100
AcDbEntity
  8
0
100
AcDbPolyline
 90
19
 70
1
 10
10401.23245686209
 20
266.9783364976249
 10
10438.986334531517
 20
276.7163082413256
 10
10476.389002988843
 20
281.21204698829877
 10
10515.059679543976
 20
281.85284726030176
 10
10554.582087290562
 20
279.1702149940102
 10
10593.995993258568
 20
273.9987824772217
 10
10632.212042208625
 20
266.9783364976249
 10
10599.748829489925
 20
147.40420227281143
 10
10580.108447195615
 20
67.72610521684982
 10
10570.926734079932
 20
15.0
 10
10534.636812547715
 20
25.518680384780083
 10
10497.846000000472
 20
36.00159341504224
 10
10461.309460270473
 20
45.677724670370395
 10
10425.61611910087
 20
53.75201262073014
 10
10390.81308919572
 20
59.48737158937652
 10
10355.91723884428
 20
62.13763411927377
 10
10362.924547012628
 20
106.88537300817467
 10
10376.68270665636
 20
171.60483428145534
 10
10401.23245686209
 20
266.9783364976249
  0
TEXT
  5
84
330
17
100
AcDbEntity
  8
0
100
AcDbText
 10
10482.643159891591
 20
157.1095126859419
 30
0.0
 40
8.0
  1
O08_SMOOTH_LOWER_W1_A_B_B_A
100
AcDbText
  0
LWPOLYLINE
  5
85
330
17
100
AcDbEntity
  8
0
100
AcDbPolyline
 90
15
 70
1
 10
10355.91723884428
 20
400.0874596492134
 10
10412.441728262298
 20
392.3683639543967
 10
10457.40001579775
 20
391.932582415711
 10
10497.92442487838
 20
393.93449079280293
 10
10538.373524726747
 20
396.2566371329718
 10
10578.772467205805
 20
400.0874596492134
 10
10603.19770234402
 20
362.53181797514395
 10
10628.031210471256
 20
325.39769941676235
 10
10589.884741692205
 20
317.94624775735144
 10
10551.933410307114
 20
311.6049832012187
 10
10514.224729738402
 20
305.55117450938087
 10
10472.988043812444
 20
301.85284726030176
 10
10421.560312632791
 20
304.86911585958944
 10
10389.799291384452
 20
352.6375613471013
 10
10355.91723884428
 20
400.0874596492134
  0
TEXT
  5
86
330
17
100
AcDbEntity
  8
0
100
AcDbText
 10
10491.224405396148
 20
357.14306003802477
 30
0.0
 40
8.0
  1
H08_CANOPY_W1_B_A_B_A
100
AcDbText
  0
LWPOLYLINE
  5
87
330
17
100
AcDbEntity
  8
0
100
AcDbPolyline
 90
15
 70
1
 10
10411.32216902179
 20
579.2920621955952
 10
10579.730740850177
 20
603.2195372996359
 10
10627.829496057631
 20
579.2920621955952
 10
10614.60260747746
 20
549.9348850907868
 10
10600.891656669957
 20
521.2224507685473
 10
10585.919631178216
 20
490.33614820063843
 10
10569.491428611484
 20
456.6067259078301
 10
10551.74276337808
 20
420.0874596492133
 10
10503.398071200929
 20
443.3581863307943
 10
10355.91723884428
 20
439.90076430275315
 10
10369.194787337898
 20
467.7505190678241
 10
10381.58420227105
 20
493.5971575219535
 10
10393.017928616455
 20
518.076835865372
 10
10403.84884377064
 20
544.0065137628465
 10
10411.32216902179
 20
579.2920621955952
  0
TEXT
  5
88
330
17
100
AcDbEntity
  8
0
100
AcDbText
 10
10490.654248953857
 20
512.3982246903321
 30
0.0
 40
8.0
  1
O08_SMOOTH_LOWER_W2_A_B_B_B_B
100
AcDbText
  0
LWPOLYLINE
  5
89
330
17
100
AcDbEntity
  8
0
100
AcDbPolyline
 90
17
 70
1
 10
10355.91723884428
 20
769.7346119414842
 10
10407.23305393064
 20
765.1975630069476
 10
10448.614363089366
 20
766.5150269377104
 10
10486.754388779003
 20
768.5012766111674
 10
10525.227076723579
 20
769.1197823102057
 10
10564.089820489802
 20
769.7346119414842
 10
10583.478622243909
 20
729.6485829225225
 10
10602.584779057399
 20
689.6009223909025
 10
10621.827745234767
 20
649.8023003283765
 10
10585.356823528266
 20
643.9526309110106
 10
10549.47412018772
 20
637.7880250491057
 10
10514.232653363117
 20
630.6425051221646
 10
10477.009957474242
 20
624.3748343738265
 10
10432.021934890867
 20
623.2195372996359
 10
10408.336315149523
 20
671.5093224930702
 10
10383.302793982632
 20
720.5680927047209
 10
10355.91723884428
 20
769.7346119414842
  0
TEXT
  5
8A
330
17
100
AcDbEntity
  8
0
100
AcDbText
 10
10488.316407400787
 20
705.8614257815187
 30
0.0
 40
8.0
  1
H08_CANOPY_W1_B_A_B_B
100
AcDbText
  0
LWPOLYLINE
  5
8B
330
17
100
AcDbEntity
  8
0
100
AcDbPolyline
 90
9
 70
1
 10
10355.91723884428
 20
789.7346119414842
 10
10410.530076479597
 20
906.2571581612517
 10
10442.178891889727
 20
984.9853198115508
 10
10457.110780968535
 20
1037.3317739562676
 10
10612.47563757192
 20
968.0805481850655
 10
10607.532688418667
 20
927.2385194041215
 10
10590.8070844062
 20
870.5856372841095
 10
10557.518899701054
 20
789.7346119414842
 10
10355.91723884428
 20
789.7346119414842
  0
TEXT
  5
8C
330
17
100
AcDbEntity
  8
0
100
AcDbText
 10
10487.776504124919
 20
895.9647547363134
 30
0.0
 40
8.0
  1
O08_SMOOTH_LOWER_W1_A_B_B_B_B_B_A
100
AcDbText
  0
LWPOLYLINE
  5
8D
330
17
100
AcDbEntity
  8
0
100
AcDbPolyline
 90
23
 70
1
 10
10355.91723884428
 20
1236.907046760066
 10
10389.212753407055
 20
1247.6839794771763
 10
10424.217403045317
 20
1252.0219740040568
 10
10460.80542738012
 20
1251.29211391573
 10
10498.389901029152
 20
1247.296427340452
 10
10536.26275168224
 20
1241.9007910678047
 10
10573.714972066355
 20
1236.907046760066
 10
10577.510892472419
 20
1199.911922263558
 10
10583.489650131542
 20
1169.3124692243841
 10
10590.70343388413
 20
1138.8099248634358
 10
10598.759138603986
 20
1106.113797632771
 10
10607.525200598682
 20
1070.8553250717364
 10
10571.537945849232
 20
1071.4186866096657
 10
10535.374331941728
 20
1072.6216201801606
 10
10499.391962119822
 20
1073.0782720404616
 10
10463.94713241214
 20
1071.459761438951
 10
10429.362988383831
 20
1066.5018097301627
 10
10395.791236109177
 20
1057.3317739562676
 10
10385.715913926582
 20
1097.7479592267225
 10
10376.648885142893
 20
1135.1765114863667
 10
10368.755214146186
 20
1169.6428961822658
 10
10362.126756766353
 20
1202.269181940211
 10
10355.91723884428
 20
1236.907046760066
  0
TEXT
  5
8E
330
17
100
AcDbEntity
  8
0
100
AcDbText
 10
10475.6990595125
 20
1158.8334059970664
 30
0.0
 40
8.0
  1
O08_SMOOTH_LOWER_W2_A_B_A
100
AcDbText
  0
LWPOLYLINE
  5
8F
330
17
100
AcDbEntity
  8
0
100
AcDbPolyline
 90
15
 70
1
 10
10355.91723884428
 20
1437.0311707345547
 10
10403.036674693696
 20
1433.1735899669277
 10
10449.043664689267
 20
1433.2896758648371
 10
10493.756242191599
 20
1437.0311707345547
 10
10520.792299789797
 20
1400.9663110279146
 10
10548.469947547741
 20
1365.4276293053256
 10
10576.779229108997
 20
1330.4625547236628
 10
10605.840823326027
 20
1296.2285046028644
 10
10566.55836832467
 20
1286.0484441862825
 10
10526.83006790858
 20
1278.0996183054299
 10
10486.7139932167
 20
1272.0219740040568
 10
10453.174632441911
 20
1312.1784805816028
 10
10420.224091146987
 20
1353.1779800584025
 10
10387.870808364361
 20
1394.8908296936215
 10
10355.91723884428
 20
1437.0311707345547
  0
TEXT
  5
90
330
17
100
AcDbEntity
  8
0
100
AcDbText
 10
10476.728354695924
 20
1364.470606968306
 30
0.0
 40
8.0
  1
H08_CANOPY_W1_B_A_A_B
100
AcDbText
  0
LWPOLYLINE
  5
91
330
17
100
AcDbEntity
  8
0
100
AcDbPolyline
 90
31
 70
1
 10
10652.212042208625
 20
403.4919118060453
 10
10687.201257742148
 20
404.57739528745293
 10
10722.255694989024
 20
405.8645393850029
 10
10757.813655014066
 20
406.69661840995497
 10
10794.486475985283
 20
406.614458590942
 10
10832.167642412594
 20
405.54391791196593
 10
10870.46995673606
 20
403.4919118060453
 10
10870.750537733564
 20
369.4017326403724
 10
10871.624416040324
 20
335.31421390717355
 10
10873.254922465218
 20
301.24012618369443
 10
10875.679518635705
 20
267.192368475045
 10
10878.935250015644
 20
233.18708315338503
 10
10883.063494374328
 20
199.24453688982092
 10
10888.118222001147
 20
165.3911616373704
 10
10894.210412249015
 20
131.6693993724948
 10
10901.681588662193
 20
98.18428115847502
 10
10864.727855198882
 20
86.72239580783474
 10
10828.851577611433
 20
74.39811742863446
 10
10794.04840925208
 20
61.279169793612596
 10
10760.240387272826
 20
47.2431789109844
 10
10726.976336058884
 20
31.668123331005916
 10
10693.834497847129
 20
15.0
 10
10684.489534900164
 20
58.03560503512756
 10
10676.564682654503
 20
101.1861588668491
 10
10669.871964750946
 20
144.3836540965172
 10
10664.364754953338
 20
187.5995700628562
 10
10660.001226219762
 20
230.81428535522684
 10
10656.735217942261
 20
274.0151914881482
 10
10654.495954973208
 20
317.19529824966514
 10
10653.121491562404
 20
360.35249595082917
 10
10652.212042208625
 20
403.4919118060453
  0
TEXT
  5
92
330
17
100
AcDbEntity
  8
0
100
AcDbText
 10
10770.789065182951
 20
236.46744557414766
 30
0.0
 40
8.0
  1
H08_CANOPY_W3_B_B
100
AcDbText
  0
LWPOLYLINE
  5
93
330
17
100
AcDbEntity
  8
0
100
AcDbPolyline
 90
31
 70
1
 10
10670.803751022195
 20
827.8512078564991
 10
10707.46472244572
 20
833.5228177420948
 10
10743.997283791548
 20
837.3219912643392
 10
10780.586541465278
 20
838.4185502097563
 10
10817.753421829102
 20
837.0103137269601
 10
10855.51346747936
 20
833.3802361333287
 10
10893.806988972576
 20
827.8512078564991
 10
10888.72409074174
 20
793.8792547135967
 10
10884.54378249484
 20
759.7432786057334
 10
10881.370341749735
 20
725.4599245726777
 10
10879.255629767365
 20
691.0591326878264
 10
10878.25203222093
 20
656.5763779823615
 10
10878.41159810856
 20
622.0528936394205
 10
10879.786478814409
 20
587.5358335123342
 10
10882.442801936753
 20
553.0795937140426
 10
10886.541080205243
 20
518.7578219955988
 10
10847.889297626492
 20
510.12961071092354
 10
10810.143829681361
 20
497.81410644668813
 10
10773.088138846198
 20
483.23471640896713
 10
10736.545841914316
 20
467.65767101886297
 10
10699.923708872306
 20
449.55137796417046
 10
10663.231131140841
 20
426.696618409955
 10
10657.977289163899
 20
471.4628142041223
 10
10654.468506206258
 20
516.3708656824399
 10
10652.568654471192
 20
561.3193540125819
 10
10652.212042208625
 20
606.2240900179277
 10
10653.336143675886
 20
651.0098514476208
 10
10655.87519226989
 20
695.6104589672549
 10
10659.749253767406
 20
739.9703161487428
 10
10664.825196143749
 20
784.0507605908289
 10
10670.803751022195
 20
827.8512078564991
  0
TEXT
  5
94
330
17
100
AcDbEntity
  8
0
100
AcDbText
 10
10769.73845129213
 20
659.11142761615
 30
0.0
 40
8.0
  1
H08_CANOPY_W4_B_B
100
AcDbText
  0
LWPOLYLINE
  5
95
330
17
100
AcDbEntity
  8
0
100
AcDbPolyline
 90
19
 70
1
 10
10652.212042208625
 20
1051.5716233165115
 10
10697.201940800194
 20
1050.502764534887
 10
10734.839663075802
 20
1053.3682767593853
 10
10770.758419669559
 20
1055.0622552262275
 10
10807.15212111533
 20
1054.021474233889
 10
10844.008074468766
 20
1051.5716233165115
 10
10855.959812013518
 20
1009.1858471050358
 10
10867.305860853114
 20
966.8061962436675
 10
10878.27995307315
 20
924.4935740483245
 10
10889.341520254968
 20
882.3564221040473
 10
10854.084723695287
 20
878.489786789004
 10
10819.268055932675
 20
873.5915003088297
 10
10784.937419186743
 20
867.3137289392474
 10
10749.937330658493
 20
861.0878756656562
 10
10710.19696217025
 20
858.4185502097562
 10
10697.486450965795
 20
905.1954583059035
 10
10683.964674829456
 20
953.0630855670415
 10
10669.22031109793
 20
1001.966620640576
 10
10652.212042208625
 20
1051.5716233165115
  0
TEXT
  5
96
330
17
100
AcDbEntity
  8
0
100
AcDbText
 10
10769.387756751486
 20
965.7704361384743
 30
0.0
 40
8.0
  1
H08_CANOPY_W2_B_A_A
100
AcDbText
  0
LWPOLYLINE
  5
97
330
17
100
AcDbEntity
  8
0
100
AcDbPolyline
 90
45
 70
1
 10
10698.49507775684
 20
1077.591804859659
 10
10696.001198581982
 20
1096.2686261881158
 10
10693.544264927043
 20
1114.9503295721972
 10
10691.04526661867
 20
1133.6264366529201
 10
10688.483657170695
 20
1152.2940444920278
 10
10685.854644650606
 20
1170.952266628613
 10
10683.157004332346
 20
1189.6006798761941
 10
10680.389932172224
 20
1208.238909106651
 10
10677.552623042957
 20
1226.8665696023509
 10
10674.64433572303
 20
1245.4832767019689
 10
10671.664442880592
 20
1264.0886551134067
 10
10668.612437760208
 20
1282.6823413460677
 10
10665.48791015974
 20
1301.2639819770948
 10
10662.290472191185
 20
1319.8332220796672
 10
10659.019482254591
 20
1338.3896573403763
 10
10655.672199342496
 20
1356.932496674448
 10
10652.212042208625
 20
1375.4546249798154
 10
10679.98733241838
 20
1383.2766401421977
 10
10707.698855363762
 20
1391.3215769890044
 10
10735.360823989547
 20
1399.5353234267827
 10
10762.986701320058
 20
1407.869747579056
 10
10790.592253028844
 20
1416.271357810063
 10
10818.195284937645
 20
1424.681322451284
 10
10821.508012923205
 20
1402.9465614409319
 10
10824.783896204717
 20
1381.2062300747903
 10
10828.071899030878
 20
1359.4677463177422
 10
10831.398016210147
 20
1337.7350788089766
 10
10834.771990598101
 20
1316.0098038637752
 10
10838.196147009663
 20
1294.292392593207
 10
10841.670857691517
 20
1272.5830203538712
 10
10845.196277663033
 20
1250.881830253049
 10
10848.772557516677
 20
1229.188966089616
 10
10852.399816887224
 20
1207.5045678053025
 10
10856.078140222884
 20
1185.8287703985486
 10
10859.807602517005
 20
1164.1617079371213
 10
10863.588357272503
 20
1142.5035287341004
 10
10867.420958411689
 20
1120.8544529879096
 10
10871.308210295823
 20
1099.2151088382861
 10
10875.28382224647
 20
1077.591804859659
 10
10846.64924640551
 20
1076.1764930987156
 10
10817.78662503185
 20
1075.2515846590525
 10
10788.54473347516
 20
1075.0622552262275
 10
10758.905084203632
 20
1075.4720642836703
 10
10728.878984459623
 20
1076.3388972465086
 10
10698.49507775684
 20
1077.591804859659
  0
TEXT
  5
98
330
17
100
AcDbEntity
  8
0
100
AcDbText
 10
10759.96587904147
 20
1235.007523607126
 30
0.0
 40
8.0
  1
G08_FOREARM_GUSSET_-1_W1b
100
AcDbText
  0
LWPOLYLINE
  5
99
330
17
100
AcDbEntity
  8
0
100
AcDbPolyline
 90
17
 70
1
 10
10942.951154975695
 20
288.536088618206
 10
11021.772347787479
 20
287.82441113398176
 10
11136.480014107556
 20
288.536088618206
 10
11135.106158055938
 20
284.00859454303117
 10
11134.049615916485
 20
276.949097862666
 10
11133.547477311555
 20
265.8349107064313
 10
11133.759716567536
 20
248.96375312498287
 10
11134.83653583798
 20
224.4340086720831
 10
11137.077239024671
 20
190.24013575734068
 10
11015.22167591529
 20
50.77472051149678
 10
10929.989355520825
 20
15.0
 10
10923.843021415516
 20
109.17813954083098
 10
10921.681588662193
 20
176.82413256374747
 10
10922.994196839782
 20
223.50925161469695
 10
10927.288036206646
 20
254.53549735737738
 10
10934.173678188827
 20
274.711882194387
 10
10942.951154975695
 20
288.536088618206
  0
TEXT
  5
9A
330
17
100
AcDbEntity
  8
0
100
AcDbText
 10
11025.160174547627
 20
220.4939294963336
 30
0.0
 40
8.0
  1
O08_SMOOTH_LOWER_W6_B_B_B_B_B
100
AcDbText
  0
LWPOLYLINE
  5
9B
330
17
100
AcDbEntity
  8
0
100
AcDbPolyline
 90
17
 70
1
 10
10952.52876486207
 20
458.6317838834948
 10
10993.233390468678
 20
461.0156930759447
 10
11029.089256787394
 20
459.6654538618248
 10
11064.083207617146
 20
458.2188876183966
 10
11099.43275259452
 20
458.1773043110471
 10
11135.161994036973
 20
458.6317838834948
 10
11127.960235563716
 20
415.51662417844966
 10
11120.276615874704
 20
372.3227806754384
 10
11112.504909735604
 20
328.97569518095827
 10
11075.992420217352
 20
323.3913538746224
 10
11039.912408390512
 20
318.5128421405183
 10
11004.047179353187
 20
315.924802590499
 10
10966.348525160067
 20
314.0233560066946
 10
10921.681588662193
 20
308.536088618206
 10
10933.223949797406
 20
359.6900758652903
 10
10943.722133575822
 20
409.67730428041733
 10
10952.52876486207
 20
458.6317838834948
  0
TEXT
  5
9C
330
17
100
AcDbEntity
  8
0
100
AcDbText
 10
11027.748711621143
 20
392.91433023110534
 30
0.0
 40
8.0
  1
H08_CANOPY_W3_B_A_B_B
100
AcDbText
  0
LWPOLYLINE
  5
9D
330
17
100
AcDbEntity
  8
0
100
AcDbPolyline
 90
45
 70
1
 10
10960.786128242426
 20
481.0156930759447
 10
10958.74868704592
 20
499.74780396846626
 10
10956.743327582391
 20
518.483361281724
 10
10954.693773581277
 20
537.2141182959065
 10
10952.579473075211
 20
555.937661894196
 10
10950.395776056954
 20
574.653225882426
 10
10948.141865804744
 20
593.360453637893
 10
10945.8175125367
 20
612.0590516950843
 10
10943.422568792974
 20
630.7487340655762
 10
10940.956902916298
 20
649.4292147182895
 10
10938.420593268811
 20
668.100234307589
 10
10935.813828726401
 20
686.7615493796002
 10
10933.136819173098
 20
705.412921623214
 10
10930.389839133588
 20
724.0541241018998
 10
10927.572714249816
 20
742.6848655845965
 10
10924.68273790557
 20
761.304459490721
 10
10921.681588662193
 20
779.9064770164812
 10
10950.47299326979
 20
789.694320222129
 10
10978.989445793786
 20
799.1349918362268
 10
11007.263110624825
 20
808.0386742023529
 10
11035.33825024308
 20
816.2186559267682
 10
11063.277533329527
 20
823.5197410546496
 10
11091.1672385705
 20
830.1612219980367
 10
11093.579297869883
 20
808.3081677564687
 10
11095.954753860211
 20
786.4511174979281
 10
11098.342525886856
 20
764.5954269278066
 10
11100.768663401228
 20
742.7439789746791
 10
11103.243058402082
 20
720.8979571851347
 10
11105.768044847458
 20
699.0577360710714
 10
11108.34392901046
 20
677.2234675663781
 10
11110.970960544935
 20
655.395299275794
 10
11113.649422082799
 20
633.5733848629957
 10
11116.37962164026
 20
611.7578833374982
 10
11119.161878134202
 20
589.9489574219483
 10
11121.996500848294
 20
568.1467708963867
 10
11124.883932945053
 20
546.3515075003713
 10
11127.824975929865
 20
524.5634024378871
 10
11130.822918083675
 20
502.78303879054994
 10
11133.914098926904
 20
481.0156930759447
 10
11105.060728614071
 20
481.38298626981344
 10
11076.205875218218
 20
481.60175277373577
 10
11047.35028727948
 20
481.67403163271524
 10
11018.494727593372
 20
481.5859430397113
 10
10989.640006387384
 20
481.3452159074958
 10
10960.786128242426
 20
481.0156930759447
  0
TEXT
  5
9E
330
17
100
AcDbEntity
  8
0
100
AcDbText
 10
11025.636334318553
 20
639.7569103897339
 30
0.0
 40
8.0
  1
G08_FOREARM_GUSSET_1_W1b
100
AcDbText
  0
LWPOLYLINE
  5
9F
330
17
100
AcDbEntity
  8
0
100
AcDbPolyline
 90
9
 70
1
 10
10921.681588662193
 20
850.1612219980367
 10
10934.154556758403
 20
884.004176513409
 10
10943.733553544003
 20
937.5892060792144
 10
10949.678372941033
 20
1022.2321625259073
 10
11127.492787676787
 20
975.8178231377607
 10
11117.731791471993
 20
917.5596234129509
 10
11104.172294169155
 20
878.7183554860482
 10
11087.607688967342
 20
850.1612219980367
 10
10921.681588662193
 20
850.1612219980367
  0
TEXT
  5
A0
330
17
100
AcDbEntity
  8
0
100
AcDbText
 10
11011.99269142812
 20
907.3783347943779
 30
0.0
 40
8.0
  1
O08_SMOOTH_LOWER_W6_A_B_A_B_B_B_A
100
AcDbText
  0
LWPOLYLINE
  5
A1
330
17
100
AcDbEntity
  8
0
100
AcDbPolyline
 90
21
 70
1
 10
10921.681588662193
 20
1270.0886428910499
 10
10961.476975272828
 20
1271.7397651679275
 10
10996.892361990454
 20
1274.8237752178143
 10
11031.781538126335
 20
1275.6913156975988
 10
11066.888424317274
 20
1273.7648121651584
 10
11102.165784140794
 20
1270.0886428910499
 10
11106.420692337555
 20
1226.8633165787187
 10
11110.122542277017
 20
1183.6976476295051
 10
11113.435631255816
 20
1140.5866492779196
 10
11116.523878231616
 20
1097.5181450571988
 10
11119.770688332843
 20
1054.4914730003788
 10
11085.003033903668
 20
1051.2007253055608
 10
11050.329428389241
 20
1047.762279980313
 10
11015.685075600079
 20
1044.615732530584
 10
10980.758245706742
 20
1042.4129307705741
 10
10942.916602410485
 20
1042.2321625259074
 10
10939.865598709275
 20
1086.8444024025341
 10
10936.51075235801
 20
1131.7161807984112
 10
10932.648680047858
 20
1177.0959391915803
 10
10928.0231731279
 20
1223.1948342605501
 10
10921.681588662193
 20
1270.0886428910499
  0
TEXT
  5
A2
330
17
100
AcDbEntity
  8
0
100
AcDbText
 10
11018.122965898105
 20
1164.5960960110183
 30
0.0
 40
8.0
  1
H08_CANOPY_W2_B_A_B
100
AcDbText
  0
LWPOLYLINE
  5
A3
330
17
100
AcDbEntity
  8
0
100
AcDbPolyline
 90
15
 70
1
 10
10932.796307595614
 20
1390.8279544980796
 10
10971.866798945222
 20
1391.9916725066605
 10
11007.157465576447
 20
1390.6160972843695
 10
11041.97200917987
 20
1389.5284482248067
 10
11076.99729055471
 20
1389.8329864338662
 10
11112.246084925917
 20
1390.8279544980796
 10
11108.160221082668
 20
1347.5865863195588
 10
11104.037601674543
 20
1304.2172210140757
 10
11068.54787725723
 20
1300.0627812048451
 10
11033.32816702834
 20
1297.03661808742
 10
10998.311952462594
 20
1296.310171075909
 10
10962.436479532329
 20
1296.9535711681187
 10
10921.681588662193
 20
1295.6913156975988
 10
10927.981833527076
 20
1343.7528467734755
 10
10932.796307595614
 20
1390.8279544980796
  0
TEXT
  5
A4
330
17
100
AcDbEntity
  8
0
100
AcDbText
 10
11013.35453237336
 20
1347.7376119523296
 30
0.0
 40
8.0
  1
H08_CANOPY_W3_B_A_B_A
100
AcDbText
  0
LWPOLYLINE
  5
A5
330
17
100
AcDbEntity
  8
0
100
AcDbPolyline
 90
43
 70
1
 10
11187.584482085707
 20
15.0
 10
11186.437840633991
 20
31.703606863679294
 10
11185.395317387176
 20
48.41401312948184
 10
11184.278397159103
 20
65.1195864812288
 10
11183.043789476047
 20
81.81685175664954
 10
11181.6831573784
 20
98.50430011062554
 10
11180.19238252541
 20
115.1806088480456
 10
11178.56630940319
 20
131.8442548342349
 10
11176.799538619382
 20
148.493560344118
 10
11174.887126944335
 20
165.12675878366954
 10
11172.82485616057
 20
181.7420390284082
 10
11170.609361364655
 20
198.33758389837757
 10
11168.238168263426
 20
214.91160455315057
 10
11165.709556553282
 20
231.462350900092
 10
11163.021859722348
 20
247.98802593772137
 10
11160.16950736776
 20
264.486102590467
 10
11157.077239024671
 20
280.9409320364511
 10
11185.425045852422
 20
286.3305486420301
 10
11213.653972958153
 20
292.3115168593607
 10
11241.781527112107
 20
298.7525910424557
 10
11269.836836624507
 20
305.50171633697363
 10
11297.86454645878
 20
312.3648320954823
 10
11300.293925566546
 20
293.6795101939617
 10
11302.631926575497
 20
274.98256244856134
 10
11305.022552773711
 20
256.29230397580216
 10
11307.522315021288
 20
237.6163580797595
 10
11310.143020375237
 20
218.95702198793614
 10
11312.884572812793
 20
200.31507499977891
 10
11315.746374770439
 20
181.69122030209203
 10
11318.727997171483
 20
163.0861789765144
 10
11321.828607327332
 20
144.50059897297928
 10
11325.046846991412
 20
125.93502339200634
 10
11328.380854696521
 20
107.389880929789
 10
11331.828361834272
 20
88.86549110869244
 10
11335.386947498515
 20
70.36210348778295
 10
11339.054912788859
 20
51.880067996797344
 10
11342.83565655161
 20
33.420748639363936
 10
11346.800200384647
 20
15.0
 10
11316.062151892987
 20
15.19121721762742
 10
11285.04993543841
 20
15.201551442104961
 10
11253.532621346925
 20
15.117957037648658
 10
11221.017334981052
 20
15.076310323758534
 10
11187.584482085707
 20
15.0
  0
TEXT
  5
A6
330
17
100
AcDbEntity
  8
0
100
AcDbText
 10
11246.336335301412
 20
152.46266433920138
 30
0.0
 40
8.0
  1
G08_FOREARM_GUSSET_-1_W1a
100
AcDbText
  0
LWPOLYLINE
  5
A7
330
17
100
AcDbEntity
  8
0
100
AcDbPolyline
 90
19
 70
1
 10
11174.558095104938
 20
652.1115372854658
 10
11230.446244400386
 20
651.2581401299577
 10
11287.369684360177
 20
651.3785017492085
 10
11345.68248045586
 20
652.1115372854658
 10
11340.34905857765
 20
632.4981945697207
 10
11335.979091846584
 20
608.179045523927
 10
11333.006355971513
 20
573.337811615887
 10
11331.773217504428
 20
521.8436402206368
 10
11332.552847089104
 20
447.43610999809135
 10
11335.667925297603
 20
343.78252035886464
 10
11275.537330623963
 20
338.96868753488224
 10
11217.321866042734
 20
335.1453863579707
 10
11160.51352092013
 20
332.36483209548237
 10
11157.436827216881
 20
438.2665236237184
 10
11157.077239024671
 20
514.3469680689265
 10
11159.020794197564
 20
567.1768100947941
 10
11162.876073183603
 20
603.380230465923
 10
11168.266382250426
 20
629.6038222696596
 10
11174.558095104938
 20
652.1115372854658
  0
TEXT
  5
A8
330
17
100
AcDbEntity
  8
0
100
AcDbText
 10
11246.315427851217
 20
533.9632545544235
 30
0.0
 40
8.0
  1
O08_SMOOTH_LOWER_W6_B_B_B_A
100
AcDbText
  0
LWPOLYLINE
  5
A9
330
17
100
AcDbEntity
  8
0
100
AcDbPolyline
 90
19
 70
1
 10
11162.629597738096
 20
854.2244238586039
 10
11200.429793891888
 20
855.9982351293525
 10
11235.41692333326
 20
856.7907118446827
 10
11270.202566373611
 20
856.4885060197286
 10
11305.034367321461
 20
855.5758047589799
 10
11339.93136338762
 20
854.2244238586039
 10
11339.419405456925
 20
811.0782856846746
 10
11338.495272416076
 20
767.9090512740044
 10
11337.281195701547
 20
724.6881699315562
 10
11336.130597661733
 20
681.3797100683187
 10
11301.136102004353
 20
677.0379316178078
 10
11266.280789208566
 20
673.5777929005301
 10
11231.480046657043
 20
672.1115372854658
 10
11196.163560115692
 20
672.3933332683639
 10
11157.077239024671
 20
672.7582873317547
 10
11159.501681270616
 20
719.0251597901747
 10
11161.398929625533
 20
764.529268183804
 10
11162.65683769365
 20
809.5083883994013
 10
11162.629597738096
 20
854.2244238586039
  0
TEXT
  5
AA
330
17
100
AcDbEntity
  8
0
100
AcDbText
 10
11245.436624558968
 20
770.1854444770744
 30
0.0
 40
8.0
  1
H08_CANOPY_W3_B_A_A
100
AcDbText
  0
LWPOLYLINE
  5
AB
330
17
100
AcDbEntity
  8
0
100
AcDbPolyline
 90
13
 70
1
 10
11247.237175343063
 20
1080.0337172668803
 10
11292.157486515998
 20
1082.7538375403196
 10
11329.805820865797
 20
1080.0337172668803
 10
11313.498379271574
 20
1032.8605280991421
 10
11295.184541610035
 20
985.8110723100864
 10
11274.937459080218
 20
938.9686212735025
 10
11252.930876271752
 20
892.3786867908219
 10
11210.083003543405
 20
887.9882328798675
 10
11157.077239024671
 20
876.7907118446826
 10
11182.840837305546
 20
928.04316579103
 10
11206.57709004246
 20
979.071714699169
 10
11228.114930995262
 20
1029.7623165526527
 10
11247.237175343063
 20
1080.0337172668803
  0
TEXT
  5
AC
330
17
100
AcDbEntity
  8
0
100
AcDbText
 10
11249.05246270868
 20
990.3484645832243
 30
0.0
 40
8.0
  1
H08_CANOPY_W4_B_A_A_A
100
AcDbText
  0
LWPOLYLINE
  5
AD
330
17
100
AcDbEntity
  8
0
100
AcDbPolyline
 90
43
 70
1
 10
11183.03087560873
 20
1102.7538375403196
 10
11182.270607612118
 20
1119.4794842578472
 10
11181.591777998103
 20
1136.2086046027725
 10
11180.808815455259
 20
1152.933142821986
 10
11179.876744051355
 20
1169.6500066648907
 10
11178.789675127562
 20
1186.357485532984
 10
11177.54848137323
 20
1203.0542056932084
 10
11176.154184535018
 20
1219.7388268202478
 10
11174.608211344128
 20
1236.4100712939305
 10
11172.91284687648
 20
1253.0667845567516
 10
11171.071243886112
 20
1269.7079663421164
 10
11169.087285238522
 20
1286.3327839352578
 10
11166.965362511153
 20
1302.9405667600531
 10
11164.709969866826
 20
1319.5307656080415
 10
11162.32462252442
 20
1336.1027974148212
 10
11159.806888528437
 20
1352.6552566082362
 10
11157.077239024671
 20
1369.174120070205
 10
11189.751199244609
 20
1376.2566944525736
 10
11221.460821123443
 20
1383.4496312448252
 10
11252.206056772762
 20
1390.3835187130496
 10
11282.46907902815
 20
1397.159443865831
 10
11312.491395947842
 20
1403.7573075861212
 10
11312.829700459006
 20
1384.9177564704166
 10
11313.070860427155
 20
1366.076735366255
 10
11313.347544396614
 20
1347.2362325957045
 10
11313.718251992674
 20
1328.3973730902644
 10
11314.19694896382
 20
1309.5609707764913
 10
11314.785081640803
 20
1290.7276856017581
 10
11315.48457107157
 20
1271.8982212883
 10
11316.29833063754
 20
1253.0733588697872
 10
11317.2291918278
 20
1234.2539287597465
 10
11318.279591607245
 20
1215.4407935032448
 10
11319.451497962305
 20
1196.6348326988752
 10
11320.74644007233
 20
1177.836935397853
 10
11322.165710258667
 20
1159.0480028236111
 10
11323.711197724118
 20
1140.2690122421402
 10
11325.389790006455
 20
1121.501425968671
 10
11327.279008675006
 20
1102.7538375403196
 10
11298.435933666911
 20
1103.605135716621
 10
11269.583469970305
 20
1104.0297187782166
 10
11240.72787418126
 20
1104.0073942327688
 10
11211.876082846104
 20
1103.5341047809136
 10
11183.03087560873
 20
1102.7538375403196
  0
TEXT
  5
AE
330
17
100
AcDbEntity
  8
0
100
AcDbText
 10
11243.92212413198
 20
1241.503734800659
 30
0.0
 40
8.0
  1
G08_FOREARM_GUSSET_1_W1a
100
AcDbText
  0
LWPOLYLINE
  5
AF
330
17
100
AcDbEntity
  8
0
100
AcDbPolyline
 90
15
 70
1
 10
11421.881701789
 20
210.33523314887344
 10
11457.83236517086
 20
209.590483335624
 10
11494.237230400426
 20
210.09179193760522
 10
11531.1735401373
 20
210.33523314887344
 10
11518.782694704925
 20
167.9006337932039
 10
11506.461057078955
 20
125.27400168989692
 10
11494.335064330013
 20
82.42823793237336
 10
11482.676900404053
 20
39.30361517418007
 10
11443.760684367457
 20
31.54367030955865
 10
11405.28929276228
 20
22.90094797710225
 10
11366.800200384647
 20
15.0
 10
11380.264225325694
 20
64.73570731777818
 10
11394.067366616351
 20
113.86450757543359
 10
11408.02929597636
 20
162.38371780662857
 10
11421.881701789
 20
210.33523314887344
  0
TEXT
  5
B0
330
17
100
AcDbEntity
  8
0
100
AcDbText
 10
11448.498221415823
 20
125.068200953067
 30
0.0
 40
8.0
  1
H08_CANOPY_W4_B_A_A_B
100
AcDbText
  0
LWPOLYLINE
  5
B1
330
17
100
AcDbEntity
  8
0
100
AcDbPolyline
 90
17
 70
1
 10
11366.800200384647
 20
390.3142940178792
 10
11404.302984537328
 20
391.00408278478056
 10
11442.179161952583
 20
391.0322714307726
 10
11480.380325346538
 20
390.3142940178792
 10
11487.940678572997
 20
354.6053293332444
 10
11496.880181356406
 20
327.055263558934
 10
11506.939647898005
 20
300.7219079285274
 10
11518.004147154166
 20
272.8233464309061
 10
11529.99474886154
 20
242.80161369632273
 10
11494.007886339483
 20
239.13185214678717
 10
11458.213168027025
 20
234.991487113215
 10
11422.636831319955
 20
230.3352331488734
 10
11409.155118353678
 20
264.0731622235289
 10
11396.723376177386
 20
295.3682564081312
 10
11385.454134119005
 20
324.6162833187212
 10
11375.442019983446
 20
354.14300592350423
 10
11366.800200384647
 20
390.3142940178792
  0
TEXT
  5
B2
330
17
100
AcDbEntity
  8
0
100
AcDbText
 10
11443.638518280519
 20
317.273292794111
 30
0.0
 40
8.0
  1
O08_SMOOTH_LOWER_W2_A_B_B_A
100
AcDbText
  0
LWPOLYLINE
  5
B3
330
17
100
AcDbEntity
  8
0
100
AcDbPolyline
 90
17
 70
1
 10
11388.238446786838
 20
717.5118965063339
 10
11449.09368910331
 20
716.8742734949457
 10
11516.388320341304
 20
717.5118965063339
 10
11510.275751893296
 20
702.3201305126835
 10
11505.44193615803
 20
681.5563699020968
 10
11502.364851738506
 20
650.3858933689074
 10
11501.444954088953
 20
603.691353721792
 10
11503.050848394027
 20
536.0298845642036
 10
11507.626061082265
 20
441.7623921036127
 10
11436.268242683447
 20
420.6402126231044
 10
11372.88499207056
 20
411.03227143077265
 10
11368.026343826536
 20
514.6188584736012
 10
11366.800200384647
 20
589.0204028762334
 10
11368.6995967153
 20
640.4942916975127
 10
11373.233424873888
 20
675.1669173610123
 10
11379.999274622985
 20
698.9311658870777
 10
11388.238446786838
 20
717.5118965063339
  0
TEXT
  5
B4
330
17
100
AcDbEntity
  8
0
100
AcDbText
 10
11437.53384597357
 20
613.8270651492093
 30
0.0
 40
8.0
  1
O08_SMOOTH_LOWER_W6_B_B_B_B_A
100
AcDbText
  0
LWPOLYLINE
  5
B5
330
17
100
AcDbEntity
  8
0
100
AcDbPolyline
 90
13
 70
1
 10
11386.716215562701
 20
908.998815375207
 10
11424.158946539932
 20
908.6161485778357
 10
11462.0241848113
 20
908.9413877483402
 10
11499.475675934154
 20
908.998815375207
 10
11491.26328134971
 20
872.7276326082447
 10
11485.40713327683
 20
819.5294211187398
 10
11482.677884138699
 20
737.5118965063339
 10
11444.288831041114
 20
739.2282195762674
 10
11405.291800458108
 20
741.8661223686191
 10
11366.800200384647
 20
745.8581100076956
 10
11370.525274512123
 20
822.3670736129367
 10
11377.416530111032
 20
872.8832446164737
 10
11386.716215562701
 20
908.998815375207
  0
TEXT
  5
B6
330
17
100
AcDbEntity
  8
0
100
AcDbText
 10
11429.443244129465
 20
838.1942848359315
 30
0.0
 40
8.0
  1
O08_SMOOTH_LOWER_W6_A_B_A_A_B
100
AcDbText
  0
LWPOLYLINE
  5
B7
330
17
100
AcDbEntity
  8
0
100
AcDbPolyline
 90
13
 70
1
 10
11385.752124367147
 20
1103.506378228904
 10
11422.95881455419
 20
1103.100969656702
 10
11460.498205450147
 20
1103.1327294145874
 10
11498.335550678565
 20
1103.506378228904
 10
11490.852741277315
 20
1067.7810931283416
 10
11485.248307680222
 20
1013.5779228264871
 10
11482.086645665226
 20
928.998815375207
 10
11443.2692159774
 20
929.3204688715598
 10
11404.820020117106
 20
930.4371830065276
 10
11366.800200384647
 20
932.2010514977894
 10
11370.775087202323
 20
1014.1676874890858
 10
11377.320298230952
 20
1067.2855632288354
 10
11385.752124367147
 20
1103.506378228904
  0
TEXT
  5
B8
330
17
100
AcDbEntity
  8
0
100
AcDbText
 10
11428.805333534798
 20
1030.8094322447566
 30
0.0
 40
8.0
  1
O08_SMOOTH_LOWER_W6_A_B_A_B_A
100
AcDbText
  0
LWPOLYLINE
  5
B9
330
17
100
AcDbEntity
  8
0
100
AcDbPolyline
 90
13
 70
1
 10
11375.557035710772
 20
1390.5373420009612
 10
11413.929320853487
 20
1391.4324125024498
 10
11452.69370300959
 20
1391.6287380947365
 10
11491.753203524948
 20
1390.5373420009612
 10
11483.499214735004
 20
1262.56314191232
 10
11481.058744022928
 20
1177.9601283273084
 10
11483.103337021115
 20
1123.506378228904
 10
11445.01553500337
 20
1126.5332042342072
 10
11407.22759863494
 20
1129.1170574814623
 10
11369.7858483532
 20
1131.364424207074
 10
11366.800200384647
 20
1184.8006852983715
 10
11368.248543307887
 20
1266.8508418484416
 10
11375.557035710772
 20
1390.5373420009612
  0
TEXT
  5
BA
330
17
100
AcDbEntity
  8
0
100
AcDbText
 10
11424.171486174822
 20
1258.2591567798584
 30
0.0
 40
8.0
  1
O08_SMOOTH_LOWER_W1_A_B_B_B_A
100
AcDbText
  0
LWPOLYLINE
  5
BB
330
17
100
AcDbEntity
  8
0
100
AcDbPolyline
 90
13
 70
1
 10
11554.877510420556
 20
179.77580436275144
 10
11589.530217077896
 20
175.84514671727018
 10
11624.683064001245
 20
176.67097918977404
 10
11660.907501521591
 20
179.77580436275144
 10
11658.57896367844
 20
142.5546806195648
 10
11657.892743413504
 20
91.57500343460731
 10
11659.833616176895
 20
15.0
 10
11622.425025712815
 20
17.35235951318637
 10
11586.613150255336
 20
22.29213566116249
 10
11551.87140440106
 20
33.22185100627749
 10
11551.1735401373
 20
99.38400300561555
 10
11552.769560835748
 20
144.64894376424513
 10
11554.877510420556
 20
179.77580436275144
  0
TEXT
  5
BC
330
17
100
AcDbEntity
  8
0
100
AcDbText
 10
11602.002600619457
 20
112.14403969230445
 30
0.0
 40
8.0
  1
O08_SMOOTH_LOWER_W6_A_B_A_A_A
100
AcDbText
  0
LWPOLYLINE
  5
BD
330
17
100
AcDbEntity
  8
0
100
AcDbPolyline
 90
9
 70
1
 10
11551.1735401373
 20
199.77580436275144
 10
11573.742223552093
 20
284.2485577737814
 10
11588.682074449294
 20
341.39832362855304
 10
11598.682662616415
 20
381.30436700028747
 10
11651.30653168889
 20
370.5003557084342
 10
11641.826081090428
 20
332.477732644384
 10
11627.82999302894
 20
278.7767167185665
 10
11606.749226945205
 20
199.77580436275144
 10
11551.1735401373
 20
199.77580436275144
  0
TEXT
  5
BE
330
17
100
AcDbEntity
  8
0
100
AcDbText
 10
11599.018430405096
 20
287.55927406247343
 30
0.0
 40
8.0
  1
O08_SMOOTH_LOWER_W1_A_B_B_B_B_B_B
100
AcDbText
  0
LWPOLYLINE
  5
BF
330
17
100
AcDbEntity
  8
0
100
AcDbPolyline
 90
13
 70
1
 10
11551.1735401373
 20
401.30436700028747
 10
11559.867618203867
 20
436.7543360841894
 10
11569.859952879897
 20
463.94023342138917
 10
11580.993135632421
 20
489.83791797253264
 10
11593.209977139026
 20
517.2514425647303
 10
11606.433198840288
 20
546.7510251792912
 10
11642.41941405323
 20
542.0138209569752
 10
11629.800368275344
 20
513.8595799819753
 10
11618.14034478766
 20
487.67581806507985
 10
11607.511000473896
 20
462.83631664194155
 10
11597.967763665392
 20
436.40560531762287
 10
11589.671766314365
 20
401.30436700028747
 10
11551.1735401373
 20
401.30436700028747
  0
TEXT
  5
C0
330
17
100
AcDbEntity
  8
0
100
AcDbText
 10
11592.170893887695
 20
469.326092091276
 30
0.0
 40
8.0
  1
O08_SMOOTH_LOWER_W2_A_B_B_B_A
100
AcDbText
  0
LWPOLYLINE
  5
C1
330
17
100
AcDbEntity
  8
0
100
AcDbPolyline
 90
9
 70
1
 10
11555.053680061546
 20
566.7510251792912
 10
11554.542663822602
 20
599.7606431859815
 10
11553.409244804187
 20
640.8850814508843
 10
11551.1735401373
 20
699.9130113377461
 10
11605.166869658013
 20
693.5767491287079
 10
11607.225754648567
 20
638.1200039565872
 10
11608.257988010866
 20
598.9468843143317
 10
11608.724423080586
 20
566.7510251792912
 10
11555.053680061546
 20
566.7510251792912
  0
TEXT
  5
C2
330
17
100
AcDbEntity
  8
0
100
AcDbText
 10
11577.623093809469
 20
619.050605434679
 30
0.0
 40
8.0
  1
O08_SMOOTH_LOWER_W6_A_B_A_B_B_B_B
100
AcDbText
  0
LWPOLYLINE
  5
C3
330
17
100
AcDbEntity
  8
0
100
AcDbPolyline
 90
9
 70
1
 10
11570.441054213341
 20
719.9130113377461
 10
11562.080013217736
 20
755.4430028230665
 10
11555.501086687425
 20
809.5365235676325
 10
11551.1735401373
 20
894.0639975895979
 10
11590.301365253996
 20
893.9220960062662
 10
11594.342931737663
 20
809.1669386761183
 10
11600.576626186064
 20
755.0905702097469
 10
11608.542795608413
 20
719.9130113377461
 10
11570.441054213341
 20
719.9130113377461
  0
TEXT
  5
C4
330
17
100
AcDbEntity
  8
0
100
AcDbText
 10
11578.155607472809
 20
786.3291292095186
 30
0.0
 40
8.0
  1
O08_SMOOTH_LOWER_W6_A_B_A_B_B_A
100
AcDbText
  0
LWPOLYLINE
  5
C5
330
17
100
AcDbEntity
  8
0
100
AcDbPolyline
 90
9
 70
1
 10
11551.1735401373
 20
914.0639975895979
 10
11551.789034560745
 20
1042.302593713333
 10
11555.462401766272
 20
1126.8610226075057
 10
11561.626610846766
 20
1181.0033700561153
 10
11600.119309013802
 20
1181.6557553731013
 10
11594.30018865144
 20
1127.533205440609
 10
11590.914566848944
 20
1042.7493124024234
 10
11590.52015127697
 20
914.0639975895979
 10
11551.1735401373
 20
914.0639975895979
  0
TEXT
  5
C6
330
17
100
AcDbEntity
  8
0
100
AcDbText
 10
11571.897704804396
 20
1049.3663613735423
 30
0.0
 40
8.0
  1
O08_SMOOTH_LOWER_W1_A_B_B_B_B_A
100
AcDbText
  0
ENDSEC
  0
SECTION
  2
OBJECTS
  0
DICTIONARY
  5
A
330
0
100
AcDbDictionary
281
1
  3
ACAD_COLOR
350
B
  3
ACAD_GROUP
350
C
  3
ACAD_LAYOUT
350
D
  3
ACAD_MATERIAL
350
E
  3
ACAD_MLEADERSTYLE
350
F
  3
ACAD_MLINESTYLE
350
10
  3
ACAD_PLOTSETTINGS
350
11
  3
ACAD_PLOTSTYLENAME
350
12
  3
ACAD_SCALELIST
350
14
  3
ACAD_TABLESTYLE
350
15
  3
ACAD_VISUALSTYLE
350
16
  3
EZDXF_META
350
2D
  0
DICTIONARY
  5
B
330
A
100
AcDbDictionary
281
1
  0
DICTIONARY
  5
C
330
A
100
AcDbDictionary
281
1
  0
DICTIONARY
  5
D
330
A
100
AcDbDictionary
281
1
  3
Model
350
1A
  3
Layout1
350
1E
  0
DICTIONARY
  5
E
330
A
100
AcDbDictionary
281
1
  3
ByBlock
350
1F
  3
ByLayer
350
20
  3
Global
350
21
  0
DICTIONARY
  5
F
330
A
100
AcDbDictionary
281
1
  3
Standard
350
2C
  0
DICTIONARY
  5
10
330
A
100
AcDbDictionary
281
1
  3
Standard
350
22
  0
DICTIONARY
  5
11
330
A
100
AcDbDictionary
281
1
  0
ACDBDICTIONARYWDFLT
  5
12
330
A
100
AcDbDictionary
281
1
  3
Normal
350
13
100
AcDbDictionaryWithDefault
340
13
  0
ACDBPLACEHOLDER
  5
13
330
12
  0
DICTIONARY
  5
14
330
A
100
AcDbDictionary
281
1
  0
DICTIONARY
  5
15
330
A
100
AcDbDictionary
281
1
  0
DICTIONARY
  5
16
330
A
100
AcDbDictionary
281
1
  0
LAYOUT
  5
1A
330
D
100
AcDbPlotSettings
  1

  4
A3
  6

 40
7.5
 41
20.0
 42
7.5
 43
20.0
 44
420.0
 45
297.0
 46
0.0
 47
0.0
 48
0.0
 49
0.0
140
0.0
141
0.0
142
1.0
143
1.0
 70
1024
 72
1
 73
0
 74
5
  7

 75
16
 76
0
 77
2
 78
300
147
1.0
148
0.0
149
0.0
100
AcDbLayout
  1
Model
 70
1
 71
0
 10
0.0
 20
0.0
 11
420.0
 21
297.0
 12
0.0
 22
0.0
 32
0.0
 14
1e+20
 24
1e+20
 34
1e+20
 15
-1e+20
 25
-1e+20
 35
-1e+20
146
0.0
 13
0.0
 23
0.0
 33
0.0
 16
1.0
 26
0.0
 36
0.0
 17
0.0
 27
1.0
 37
0.0
 76
1
330
17
  0
LAYOUT
  5
1E
330
D
100
AcDbPlotSettings
  1

  4
A3
  6

 40
7.5
 41
20.0
 42
7.5
 43
20.0
 44
420.0
 45
297.0
 46
0.0
 47
0.0
 48
0.0
 49
0.0
140
0.0
141
0.0
142
1.0
143
1.0
 70
0
 72
1
 73
0
 74
5
  7

 75
16
 76
0
 77
2
 78
300
147
1.0
148
0.0
149
0.0
100
AcDbLayout
  1
Layout1
 70
1
 71
1
 10
0.0
 20
0.0
 11
420.0
 21
297.0
 12
0.0
 22
0.0
 32
0.0
 14
1e+20
 24
1e+20
 34
1e+20
 15
-1e+20
 25
-1e+20
 35
-1e+20
146
0.0
 13
0.0
 23
0.0
 33
0.0
 16
1.0
 26
0.0
 36
0.0
 17
0.0
 27
1.0
 37
0.0
 76
1
330
1B
  0
MATERIAL
  5
1F
102
{ACAD_REACTORS
330
E
102
}
330
E
100
AcDbMaterial
  1
ByBlock
  2

 70
0
 40
1.0
 71
1
 41
1.0
 91
-1023410177
 42
1.0
 72
1
  3

 73
1
 74
1
 75
1
 44
0.5
 73
0
 45
1.0
 46
1.0
 77
1
  4

 78
1
 79
1
170
1
 48
1.0
171
1
  6

172
1
173
1
174
1
140
1.0
141
1.0
175
1
  7

176
1
177
1
178
1
143
1.0
179
1
  8

270
1
271
1
272
1
145
1.0
146
1.0
273
1
  9

274
1
275
1
276
1
 42
1.0
 72
1
  3

 73
1
 74
1
 75
1
 94
63
  0
MATERIAL
  5
20
102
{ACAD_REACTORS
330
E
102
}
330
E
100
AcDbMaterial
  1
ByLayer
  2

 70
0
 40
1.0
 71
1
 41
1.0
 91
-1023410177
 42
1.0
 72
1
  3

 73
1
 74
1
 75
1
 44
0.5
 73
0
 45
1.0
 46
1.0
 77
1
  4

 78
1
 79
1
170
1
 48
1.0
171
1
  6

172
1
173
1
174
1
140
1.0
141
1.0
175
1
  7

176
1
177
1
178
1
143
1.0
179
1
  8

270
1
271
1
272
1
145
1.0
146
1.0
273
1
  9

274
1
275
1
276
1
 42
1.0
 72
1
  3

 73
1
 74
1
 75
1
 94
63
  0
MATERIAL
  5
21
102
{ACAD_REACTORS
330
E
102
}
330
E
100
AcDbMaterial
  1
Global
  2

 70
0
 40
1.0
 71
1
 41
1.0
 91
-1023410177
 42
1.0
 72
1
  3

 73
1
 74
1
 75
1
 44
0.5
 73
0
 45
1.0
 46
1.0
 77
1
  4

 78
1
 79
1
170
1
 48
1.0
171
1
  6

172
1
173
1
174
1
140
1.0
141
1.0
175
1
  7

176
1
177
1
178
1
143
1.0
179
1
  8

270
1
271
1
272
1
145
1.0
146
1.0
273
1
  9

274
1
275
1
276
1
 42
1.0
 72
1
  3

 73
1
 74
1
 75
1
 94
63
  0
MLINESTYLE
  5
22
102
{ACAD_REACTORS
330
10
102
}
330
10
100
AcDbMlineStyle
  2
Standard
 70
0
  3

 62
256
 51
90.0
 52
90.0
 71
2
 49
0.5
 62
256
  6
BYLAYER
 49
-0.5
 62
256
  6
BYLAYER
  0
MLEADERSTYLE
  5
2C
102
{ACAD_REACTORS
330
F
102
}
330
F
100
AcDbMLeaderStyle
179
2
170
2
171
1
172
0
 90
2
 40
0.0
 41
0.0
173
1
 91
-1056964608
 92
-2
290
1
 42
2.0
291
1
 43
8.0
  3
Standard
 44
4.0
300

342
29
174
1
175
1
176
0
178
1
 93
-1056964608
 45
4.0
292
0
297
0
 46
4.0
 94
-1056964608
 47
1.0
 49
1.0
140
1.0
294
1
141
0.0
177
0
142
1.0
295
0
296
0
143
3.75
271
0
272
9
273
9
  0
DICTIONARY
  5
2D
330
A
100
AcDbDictionary
280
1
281
1
  3
CREATED_BY_EZDXF
350
2E
  3
WRITTEN_BY_EZDXF
350
C9
  0
DICTIONARYVAR
  5
2E
330
2D
100
DictionaryVariables
280
0
  1
1.4.4 @ 2026-10-04T18:29:10.770495+00:00
  0
DICTIONARYVAR
  5
C9
330
2D
100
DictionaryVariables
280
0
  1
1.4.4 @ 2026-10-04T18:29:10.783836+00:00
  0
ENDSEC
  0
EOF
