  0
SECTION
  2
HEADER
  9
$ACADVER
  1
AC1024
  9
$ACADMAINTVER
 70
6
  9
$DWGCODEPAGE
  3
ANSI_1252
  9
$LASTSAVEDBY
  1
ezdxf
  9
$INSBASE
 10
0.0
 20
0.0
 30
0.0
  9
$EXTMIN
 10
1e+20
 20
1e+20
 30
1e+20
  9
$EXTMAX
 10
-1e+20
 20
-1e+20
 30
-1e+20
  9
$LIMMIN
 10
0.0
 20
0.0
  9
$LIMMAX
 10
420.0
 20
297.0
  9
$ORTHOMODE
 70
0
  9
$REGENMODE
 70
1
  9
$FILLMODE
 70
1
  9
$QTEXTMODE
 70
0
  9
$MIRRTEXT
 70
1
  9
$LTSCALE
 40
1.0
  9
$ATTMODE
 70
1
  9
$TEXTSIZE
 40
2.5
  9
$TRACEWID
 40
1.0
  9
$TEXTSTYLE
  7
Standard
  9
$CLAYER
  8
0
  9
$CELTYPE
  6
ByLayer
  9
$CECOLOR
 62
256
  9
$CELTSCALE
 40
1.0
  9
$DISPSILH
 70
0
  9
$DIMSCALE
 40
1.0
  9
$DIMASZ
 40
2.5
  9
$DIMEXO
 40
0.625
  9
$DIMDLI
 40
3.75
  9
$DIMRND
 40
0.0
  9
$DIMDLE
 40
0.0
  9
$DIMEXE
 40
1.25
  9
$DIMTP
 40
0.0
  9
$DIMTM
 40
0.0
  9
$DIMTXT
 40
2.5
  9
$DIMCEN
 40
2.5
  9
$DIMTSZ
 40
0.0
  9
$DIMTOL
 70
0
  9
$DIMLIM
 70
0
  9
$DIMTIH
 70
0
  9
$DIMTOH
 70
0
  9
$DIMSE1
 70
0
  9
$DIMSE2
 70
0
  9
$DIMTAD
 70
1
  9
$DIMZIN
 70
8
  9
$DIMBLK
  1

  9
$DIMASO
 70
1
  9
$DIMSHO
 70
1
  9
$DIMPOST
  1

  9
$DIMAPOST
  1

  9
$DIMALT
 70
0
  9
$DIMALTD
 70
3
  9
$DIMALTF
 40
0.03937007874
  9
$DIMLFAC
 40
1.0
  9
$DIMTOFL
 70
1
  9
$DIMTVP
 40
0.0
  9
$DIMTIX
 70
0
  9
$DIMSOXD
 70
0
  9
$DIMSAH
 70
0
  9
$DIMBLK1
  1

  9
$DIMBLK2
  1

  9
$DIMSTYLE
  2
ISO-25
  9
$DIMCLRD
 70
0
  9
$DIMCLRE
 70
0
  9
$DIMCLRT
 70
0
  9
$DIMTFAC
 40
1.0
  9
$DIMGAP
 40
0.625
  9
$DIMJUST
 70
0
  9
$DIMSD1
 70
0
  9
$DIMSD2
 70
0
  9
$DIMTOLJ
 70
0
  9
$DIMTZIN
 70
8
  9
$DIMALTZ
 70
0
  9
$DIMALTTZ
 70
0
  9
$DIMUPT
 70
0
  9
$DIMDEC
 70
2
  9
$DIMTDEC
 70
2
  9
$DIMALTU
 70
2
  9
$DIMALTTD
 70
3
  9
$DIMTXSTY
  7
Standard
  9
$DIMAUNIT
 70
0
  9
$DIMADEC
 70
0
  9
$DIMALTRND
 40
0.0
  9
$DIMAZIN
 70
0
  9
$DIMDSEP
 70
44
  9
$DIMATFIT
 70
3
  9
$DIMFRAC
 70
0
  9
$DIMLDRBLK
  1

  9
$DIMLUNIT
 70
2
  9
$DIMLWD
 70
-2
  9
$DIMLWE
 70
-2
  9
$DIMTMOVE
 70
0
  9
$DIMFXL
 40
1.0
  9
$DIMFXLON
 70
0
  9
$DIMJOGANG
 40
0.785398163397
  9
$DIMTFILL
 70
0
  9
$DIMTFILLCLR
 70
0
  9
$DIMARCSYM
 70
0
  9
$DIMLTYPE
  6

  9
$DIMLTEX1
  6

  9
$DIMLTEX2
  6

  9
$DIMTXTDIRECTION
 70
0
  9
$LUNITS
 70
2
  9
$LUPREC
 70
4
  9
$SKETCHINC
 40
1.0
  9
$FILLETRAD
 40
10.0
  9
$AUNITS
 70
0
  9
$AUPREC
 70
2
  9
$MENU
  1
.
  9
$ELEVATION
 40
0.0
  9
$PELEVATION
 40
0.0
  9
$THICKNESS
 40
0.0
  9
$LIMCHECK
 70
0
  9
$CHAMFERA
 40
0.0
  9
$CHAMFERB
 40
0.0
  9
$CHAMFERC
 40
0.0
  9
$CHAMFERD
 40
0.0
  9
$SKPOLY
 70
0
  9
$TDCREATE
 40
2461318.7702546297
  9
$TDUCREATE
 40
2458532.153996898
  9
$TDUPDATE
 40
2461318.7702546297
  9
$TDUUPDATE
 40
2458532.1544311
  9
$TDINDWG
 40
0.0
  9
$TDUSRTIMER
 40
0.0
  9
$USRTIMER
 70
1
  9
$ANGBASE
 50
0.0
  9
$ANGDIR
 70
0
  9
$PDMODE
 70
0
  9
$PDSIZE
 40
0.0
  9
$PLINEWID
 40
0.0
  9
$SPLFRAME
 70
0
  9
$SPLINETYPE
 70
6
  9
$SPLINESEGS
 70
8
  9
$HANDSEED
  5
EE
  9
$SURFTAB1
 70
6
  9
$SURFTAB2
 70
6
  9
$SURFTYPE
 70
6
  9
$SURFU
 70
6
  9
$SURFV
 70
6
  9
$UCSBASE
  2

  9
$UCSNAME
  2

  9
$UCSORG
 10
0.0
 20
0.0
 30
0.0
  9
$UCSXDIR
 10
1.0
 20
0.0
 30
0.0
  9
$UCSYDIR
 10
0.0
 20
1.0
 30
0.0
  9
$UCSORTHOREF
  2

  9
$UCSORTHOVIEW
 70
0
  9
$UCSORGTOP
 10
0.0
 20
0.0
 30
0.0
  9
$UCSORGBOTTOM
 10
0.0
 20
0.0
 30
0.0
  9
$UCSORGLEFT
 10
0.0
 20
0.0
 30
0.0
  9
$UCSORGRIGHT
 10
0.0
 20
0.0
 30
0.0
  9
$UCSORGFRONT
 10
0.0
 20
0.0
 30
0.0
  9
$UCSORGBACK
 10
0.0
 20
0.0
 30
0.0
  9
$PUCSBASE
  2

  9
$PUCSNAME
  2

  9
$PUCSORG
 10
0.0
 20
0.0
 30
0.0
  9
$PUCSXDIR
 10
1.0
 20
0.0
 30
0.0
  9
$PUCSYDIR
 10
0.0
 20
1.0
 30
0.0
  9
$PUCSORTHOREF
  2

  9
$PUCSORTHOVIEW
 70
0
  9
$PUCSORGTOP
 10
0.0
 20
0.0
 30
0.0
  9
$PUCSORGBOTTOM
 10
0.0
 20
0.0
 30
0.0
  9
$PUCSORGLEFT
 10
0.0
 20
0.0
 30
0.0
  9
$PUCSORGRIGHT
 10
0.0
 20
0.0
 30
0.0
  9
$PUCSORGFRONT
 10
0.0
 20
0.0
 30
0.0
  9
$PUCSORGBACK
 10
0.0
 20
0.0
 30
0.0
  9
$USERI1
 70
0
  9
$USERI2
 70
0
  9
$USERI3
 70
0
  9
$USERI4
 70
0
  9
$USERI5
 70
0
  9
$USERR1
 40
0.0
  9
$USERR2
 40
0.0
  9
$USERR3
 40
0.0
  9
$USERR4
 40
0.0
  9
$USERR5
 40
0.0
  9
$WORLDVIEW
 70
1
  9
$SHADEDGE
 70
3
  9
$SHADEDIF
 70
70
  9
$TILEMODE
 70
1
  9
$MAXACTVP
 70
64
  9
$PINSBASE
 10
0.0
 20
0.0
 30
0.0
  9
$PLIMCHECK
 70
0
  9
$PEXTMIN
 10
1e+20
 20
1e+20
 30
1e+20
  9
$PEXTMAX
 10
-1e+20
 20
-1e+20
 30
-1e+20
  9
$PLIMMIN
 10
0.0
 20
0.0
  9
$PLIMMAX
 10
420.0
 20
297.0
  9
$UNITMODE
 70
0
  9
$VISRETAIN
 70
1
  9
$PLINEGEN
 70
0
  9
$PSLTSCALE
 70
1
  9
$TREEDEPTH
 70
3020
  9
$CMLSTYLE
  2
Standard
  9
$CMLJUST
 70
0
  9
$CMLSCALE
 40
20.0
  9
$PROXYGRAPHICS
 70
1
  9
$MEASUREMENT
 70
1
  9
$CELWEIGHT
370
-1
  9
$ENDCAPS
280
0
  9
$JOINSTYLE
280
0
  9
$LWDISPLAY
290
0
  9
$INSUNITS
 70
4
  9
$HYPERLINKBASE
  1

  9
$STYLESHEET
  1

  9
$XEDIT
290
1
  9
$CEPSNTYPE
380
0
  9
$PSTYLEMODE
290
1
  9
$FINGERPRINTGUID
  2
{4753F47C-1E17-4369-B60A-BA18070A70BE}
  9
$VERSIONGUID
  2
{F6E86E39-E785-4488-A3B3-46AB5A8C7953}
  9
$EXTNAMES
290
1
  9
$PSVPSCALE
 40
0.0
  9
$OLESTARTUP
290
0
  9
$SORTENTS
280
127
  9
$INDEXCTL
280
0
  9
$HIDETEXT
280
1
  9
$XCLIPFRAME
280
1
  9
$HALOGAP
280
0
  9
$OBSCOLOR
 70
257
  9
$OBSLTYPE
280
0
  9
$INTERSECTIONDISPLAY
280
0
  9
$INTERSECTIONCOLOR
 70
257
  9
$DIMASSOC
280
2
  9
$PROJECTNAME
  1

  9
$CAMERADISPLAY
290
0
  9
$LENSLENGTH
 40
50.0
  9
$CAMERAHEIGHT
 40
0.0
  9
$STEPSPERSEC
 40
24.0
  9
$STEPSIZE
 40
100.0
  9
$3DDWFPREC
 40
2.0
  9
$PSOLWIDTH
 40
0.005
  9
$PSOLHEIGHT
 40
0.08
  9
$LOFTANG1
 40
1.570796326795
  9
$LOFTANG2
 40
1.570796326795
  9
$LOFTMAG1
 40
0.0
  9
$LOFTMAG2
 40
0.0
  9
$LOFTPARAM
 70
7
  9
$LOFTNORMALS
280
1
  9
$LATITUDE
 40
37.795
  9
$LONGITUDE
 40
-122.394
  9
$NORTHDIRECTION
 40
0.0
  9
$TIMEZONE
 70
-8000
  9
$LIGHTGLYPHDISPLAY
280
1
  9
$TILEMODELIGHTSYNCH
280
1
  9
$CMATERIAL
347
20
  9
$SOLIDHIST
280
0
  9
$SHOWHIST
280
1
  9
$DWFFRAME
280
2
  9
$DGNFRAME
280
2
  9
$REALWORLDSCALE
290
1
  9
$INTERFERECOLOR
 62
256
  9
$CSHADOW
280
0
  9
$SHADOWPLANELOCATION
 40
0.0
  0
ENDSEC
  0
SECTION
  2
CLASSES
  0
CLASS
  1
ACDBDICTIONARYWDFLT
  2
AcDbDictionaryWithDefault
  3
ObjectDBX Classes
 90
0
 91
0
280
0
281
0
  0
CLASS
  1
SUN
  2
AcDbSun
  3
SCENEOE
 90
1153
 91
0
280
0
281
0
  0
CLASS
  1
VISUALSTYLE
  2
AcDbVisualStyle
  3
ObjectDBX Classes
 90
4095
 91
0
280
0
281
0
  0
CLASS
  1
MATERIAL
  2
AcDbMaterial
  3
ObjectDBX Classes
 90
1153
 91
0
280
0
281
0
  0
CLASS
  1
SCALE
  2
AcDbScale
  3
ObjectDBX Classes
 90
1153
 91
0
280
0
281
0
  0
CLASS
  1
TABLESTYLE
  2
AcDbTableStyle
  3
ObjectDBX Classes
 90
4095
 91
0
280
0
281
0
  0
CLASS
  1
MLEADERSTYLE
  2
AcDbMLeaderStyle
  3
ACDB_MLEADERSTYLE_CLASS
 90
4095
 91
0
280
0
281
0
  0
CLASS
  1
DICTIONARYVAR
  2
AcDbDictionaryVar
  3
ObjectDBX Classes
 90
0
 91
0
280
0
281
0
  0
CLASS
  1
CELLSTYLEMAP
  2
AcDbCellStyleMap
  3
ObjectDBX Classes
 90
1152
 91
0
280
0
281
0
  0
CLASS
  1
MENTALRAYRENDERSETTINGS
  2
AcDbMentalRayRenderSettings
  3
SCENEOE
 90
1024
 91
0
280
0
281
0
  0
CLASS
  1
ACDBDETAILVIEWSTYLE
  2
AcDbDetailViewStyle
  3
ObjectDBX Classes
 90
1025
 91
0
280
0
281
0
  0
CLASS
  1
ACDBSECTIONVIEWSTYLE
  2
AcDbSectionViewStyle
  3
ObjectDBX Classes
 90
1025
 91
0
280
0
281
0
  0
CLASS
  1
RASTERVARIABLES
  2
AcDbRasterVariables
  3
ISM
 90
0
 91
0
280
0
281
0
  0
CLASS
  1
LAYOUT
  2
AcDbLayout
  3
ObjectDBX Classes
 90
0
 91
0
280
0
281
0
  0
CLASS
  1
ACDBPLACEHOLDER
  2
AcDbPlaceHolder
  3
ObjectDBX Classes
 90
0
 91
0
280
0
281
0
  0
ENDSEC
  0
SECTION
  2
TABLES
  0
TABLE
  2
VPORT
  5
8
330
0
100
AcDbSymbolTable
 70
1
  0
VPORT
  5
23
330
8
100
AcDbSymbolTableRecord
100
AcDbViewportTableRecord
  2
*Active
 70
0
 10
0.0
 20
0.0
 11
1.0
 21
1.0
 12
0.0
 22
0.0
 13
0.0
 23
0.0
 14
0.5
 24
0.5
 15
0.5
 25
0.5
 16
0.0
 26
0.0
 36
1.0
 17
0.0
 27
0.0
 37
0.0
 40
1000.0
 41
1.34
 42
50.0
 43
0.0
 44
0.0
 50
0.0
 51
0.0
 71
0
 72
1000
 73
1
 74
3
 75
0
 76
0
 77
0
 78
0
281
0
 65
0
146
0.0
  0
ENDTAB
  0
TABLE
  2
LTYPE
  5
2
330
0
100
AcDbSymbolTable
 70
3
  0
LTYPE
  5
24
330
2
100
AcDbSymbolTableRecord
100
AcDbLinetypeTableRecord
  2
ByBlock
 70
0
  3

 72
65
 73
0
 40
0.0
  0
LTYPE
  5
25
330
2
100
AcDbSymbolTableRecord
100
AcDbLinetypeTableRecord
  2
ByLayer
 70
0
  3

 72
65
 73
0
 40
0.0
  0
LTYPE
  5
26
330
2
100
AcDbSymbolTableRecord
100
AcDbLinetypeTableRecord
  2
Continuous
 70
0
  3

 72
65
 73
0
 40
0.0
  0
ENDTAB
  0
TABLE
  2
LAYER
  5
1
330
0
100
AcDbSymbolTable
 70
2
  0
LAYER
  5
27
330
1
100
AcDbSymbolTableRecord
100
AcDbLayerTableRecord
  2
0
 70
0
 62
7
  6
Continuous
370
-3
390
13
347
21
  0
LAYER
  5
28
330
1
100
AcDbSymbolTableRecord
100
AcDbLayerTableRecord
  2
Defpoints
 70
0
 62
7
  6
Continuous
290
0
370
-3
390
13
347
21
  0
ENDTAB
  0
TABLE
  2
STYLE
  5
5
330
0
100
AcDbSymbolTable
 70
1
  0
STYLE
  5
29
330
5
100
AcDbSymbolTableRecord
100
AcDbTextStyleTableRecord
  2
Standard
 70
0
 40
0.0
 41
1.0
 50
0.0
 71
0
 42
2.5
  3
txt
  4

  0
ENDTAB
  0
TABLE
  2
VIEW
  5
7
330
0
100
AcDbSymbolTable
 70
0
  0
ENDTAB
  0
TABLE
  2
UCS
  5
6
330
0
100
AcDbSymbolTable
 70
0
  0
ENDTAB
  0
TABLE
  2
APPID
  5
3
330
0
100
AcDbSymbolTable
 70
3
  0
APPID
  5
2A
330
3
100
AcDbSymbolTableRecord
100
AcDbRegAppTableRecord
  2
ACAD
 70
0
  0
APPID
  5
EB
330
3
100
AcDbSymbolTableRecord
100
AcDbRegAppTableRecord
  2
HATCHBACKGROUNDCOLOR
 70
0
  0
APPID
  5
EC
330
3
100
AcDbSymbolTableRecord
100
AcDbRegAppTableRecord
  2
EZDXF
 70
0
  0
ENDTAB
  0
TABLE
  2
DIMSTYLE
  5
4
330
0
100
AcDbSymbolTable
 70
1
100
AcDbDimStyleTable
  0
DIMSTYLE
105
2B
330
4
100
AcDbSymbolTableRecord
100
AcDbDimStyleTableRecord
  2
Standard
 70
0
 40
1.0
 41
2.5
 42
0.625
 43
3.75
 44
1.25
 45
0.0
 46
0.0
 47
0.0
 48
0.0
 49
2.5
140
2.5
141
2.5
142
0.0
143
0.03937007874
144
1.0
145
0.0
146
1.0
147
0.625
148
0.0
 69
0
 70
0
 71
0
 72
0
 73
0
 74
0
 75
0
 76
0
 77
1
 78
8
 79
3
170
0
171
3
172
1
173
0
174
0
175
0
176
0
177
0
178
0
179
2
271
2
272
2
273
2
274
3
275
0
276
0
277
2
278
44
279
0
280
0
281
0
282
0
283
0
284
8
285
0
286
0
288
0
289
3
290
0
371
-2
372
-2
  0
ENDTAB
  0
TABLE
  2
BLOCK_RECORD
  5
9
330
0
100
AcDbSymbolTable
 70
2
  0
BLOCK_RECORD
  5
17
330
9
100
AcDbSymbolTableRecord
100
AcDbBlockTableRecord
  2
*Model_Space
340
1A
 70
0
280
1
281
0
  0
BLOCK_RECORD
  5
1B
330
9
100
AcDbSymbolTableRecord
100
AcDbBlockTableRecord
  2
*Paper_Space
340
1E
 70
0
280
1
281
0
  0
ENDTAB
  0
ENDSEC
  0
SECTION
  2
BLOCKS
  0
BLOCK
  5
18
330
17
100
AcDbEntity
  8
0
100
AcDbBlockBegin
  2
*Model_Space
 70
0
 10
0.0
 20
0.0
 30
0.0
  3
*Model_Space
  1

  0
ENDBLK
  5
19
330
17
100
AcDbEntity
  8
0
100
AcDbBlockEnd
  0
BLOCK
  5
1C
330
1B
100
AcDbEntity
  8
0
100
AcDbBlockBegin
  2
*Paper_Space
 70
0
 10
0.0
 20
0.0
 30
0.0
  3
*Paper_Space
  1

  0
ENDBLK
  5
1D
330
1B
100
AcDbEntity
  8
0
100
AcDbBlockEnd
  0
ENDSEC
  0
SECTION
  2
ENTITIES
  0
LWPOLYLINE
  5
2F
330
17
100
AcDbEntity
  8
0
100
AcDbPolyline
 90
200
 70
1
 10
15.0
 20
101.00000000000007
 10
76.6415787143293
 20
101.00000000000061
 10
124.8121303323691
 20
101.00000000000105
 10
171.46616531389515
 20
101.00000000000146
 10
216.2764187681777
 20
101.00000000000186
 10
259.0881407807138
 20
101.00000000000226
 10
300.38895151616504
 20
101.00000000000266
 10
342.06165579854144
 20
101.00000000000307
 10
383.07574320565436
 20
101.00000000000348
 10
422.83786420400696
 20
101.0000000000039
 10
460.2722469268914
 20
101.00000000000426
 10
494.0418641026673
 20
101.00000000000459
 10
524.5214989334969
 20
101.00000000000487
 10
551.9822258932944
 20
101.00000000000512
 10
578.724968093961
 20
101.00000000000534
 10
605.1061299575682
 20
101.00000000000557
 10
630.7894747702383
 20
101.00000000000578
 10
655.5505985264637
 20
101.000000000006
 10
679.4913024530288
 20
101.00000000000622
 10
702.7311231608622
 20
101.00000000000638
 10
725.8659497565011
 20
101.00000000000658
 10
749.5376397616261
 20
101.00000000000679
 10
773.9123106598609
 20
101.00000000000696
 10
799.0728136728399
 20
101.00000000000718
 10
824.8778040962377
 20
101.00000000000742
 10
850.9345329612407
 20
101.00000000000763
 10
876.8456274810185
 20
101.00000000000786
 10
902.467716212933
 20
101.00000000000804
 10
927.8962435799493
 20
101.00000000000821
 10
953.4411905919445
 20
101.00000000000841
 10
979.230348202147
 20
101.00000000000858
 10
1005.2045784142483
 20
101.00000000000878
 10
1031.8880500158168
 20
101.00000000000898
 10
1058.055071998879
 20
101.00000000000917
 10
1083.1537493320382
 20
101.00000000000941
 10
1118.657933612224
 20
101.00000000000972
 10
1160.5984776442842
 20
101.0000000000101
 10
1201.6457545347112
 20
101.00000000001047
 10
1234.7678717943295
 20
101.00000000001076
 10
1258.5764499817142
 20
101.00000000001096
 10
1281.7077631130273
 20
101.00000000001108
 10
1304.8390762443405
 20
101.00000000001123
 10
1327.9703899440249
 20
101.00000000001135
 10
1351.1017081660011
 20
101.00000000001147
 10
1374.2340793158176
 20
101.00000000001158
 10
1397.3803390361186
 20
101.0000000000117
 10
1420.5363474747103
 20
101.00000000001182
 10
1443.720262624276
 20
101.00000000001185
 10
1466.9238620739745
 20
101.0000000000118
 10
1490.1423510237237
 20
101.00000000001175
 10
1513.3767721227762
 20
101.0000000000117
 10
1536.6125681365845
 20
101.00000000001165
 10
1559.8528616808535
 20
101.00000000001161
 10
1583.0826045677798
 20
101.00000000001148
 10
1606.3009568719685
 20
101.00000000001135
 10
1629.519177757374
 20
101.00000000001121
 10
1652.7402572815715
 20
101.00000000001107
 10
1675.9644448878087
 20
101.00000000001091
 10
1699.1951701716541
 20
101.0000000000107
 10
1722.432020474807
 20
101.00000000001047
 10
1745.6760736133601
 20
101.00000000001026
 10
1768.9278582452728
 20
101.00000000001005
 10
1792.1884321368943
 20
101.00000000000983
 10
1815.4587219464688
 20
101.0000000000096
 10
1838.739678096462
 20
101.0000000000094
 10
1862.0329036626574
 20
101.00000000000918
 10
1885.339024331578
 20
101.00000000000897
 10
1908.6568014987392
 20
101.00000000000874
 10
1931.987495672095
 20
101.00000000000853
 10
1955.331785048888
 20
101.00000000000831
 10
1978.689232572981
 20
101.00000000000801
 10
2002.0650703352107
 20
101.00000000000772
 10
2025.4645707151042
 20
101.0000000000074
 10
2048.8901531933034
 20
101.00000000000709
 10
2072.3486964230888
 20
101.00000000000679
 10
2095.8443561074228
 20
101.00000000000641
 10
2119.3834904881514
 20
101.00000000000611
 10
2142.973079427108
 20
101.00000000000581
 10
2166.6205166821446
 20
101.0000000000055
 10
2190.330228018246
 20
101.00000000000522
 10
2214.120329066211
 20
101.00000000000492
 10
2238.027989568562
 20
101.00000000000459
 10
2262.076394182419
 20
101.00000000000429
 10
2286.28911026324
 20
101.00000000000396
 10
2310.7110366382653
 20
101.00000000000365
 10
2335.361521881145
 20
101.00000000000314
 10
2360.276830879636
 20
101.00000000000264
 10
2385.5047904038493
 20
101.00000000000212
 10
2411.04828241017
 20
101.00000000000178
 10
2436.9820419402536
 20
101.00000000000142
 10
2463.45713213104
 20
101.0000000000011
 10
2490.5375746963377
 20
101.00000000000074
 10
2518.675580781159
 20
101.00000000000057
 10
2548.508254934173
 20
101.0000000000004
 10
2580.3973083196765
 20
101.00000000000023
 10
2614.2932139527798
 20
101.00000000000001
 10
2651.2006609899227
 20
101.00000000000007
 10
2695.8257127702427
 20
101.00000000000013
 10
2755.5649679690105
 20
101.00000000000024
 10
2840.419317490598
 20
101.00000000000037
 10
2840.419317490598
 20
15.00000000000037
 10
2755.5649679690105
 20
15.000000000000242
 10
2695.8257127702427
 20
15.000000000000142
 10
2651.2006609899227
 20
15.000000000000057
 10
2614.2932139527798
 20
15.0
 10
2580.397308319676
 20
15.000000000000213
 10
2548.5082549341723
 20
15.000000000000412
 10
2518.6755807811587
 20
15.000000000000568
 10
2490.5375746963373
 20
15.000000000000739
 10
2463.457132131039
 20
15.00000000000108
 10
2436.9820419402527
 20
15.000000000001421
 10
2411.048282410169
 20
15.000000000001776
 10
2385.504790403848
 20
15.000000000002117
 10
2360.2768308796335
 20
15.000000000002643
 10
2335.361521881143
 20
15.000000000003155
 10
2310.7110366382635
 20
15.000000000003652
 10
2286.2891102632393
 20
15.000000000003979
 10
2262.076394182418
 20
15.000000000004292
 10
2238.027989568561
 20
15.000000000004604
 10
2214.12032906621
 20
15.000000000004917
 10
2190.330228018245
 20
15.00000000000523
 10
2166.6205166821437
 20
15.000000000005514
 10
2142.973079427107
 20
15.000000000005812
 10
2119.3834904881505
 20
15.00000000000611
 10
2095.844356107422
 20
15.000000000006409
 10
2072.348696423087
 20
15.000000000006807
 10
2048.890153193302
 20
15.000000000007105
 10
2025.4645707151028
 20
15.00000000000739
 10
2002.0650703352094
 20
15.000000000007716
 10
1978.6892325729796
 20
15.000000000008015
 10
1955.3317850488868
 20
15.000000000008313
 10
1931.9874956720944
 20
15.000000000008527
 10
1908.6568014987383
 20
15.00000000000874
 10
1885.339024331577
 20
15.000000000008967
 10
1862.0329036626567
 20
15.00000000000918
 10
1838.7396780964614
 20
15.00000000000938
 10
1815.458721946468
 20
15.000000000009607
 10
1792.1884321368937
 20
15.000000000009834
 10
1768.927858245272
 20
15.000000000010047
 10
1745.6760736133594
 20
15.00000000001026
 10
1722.432020474806
 20
15.000000000010488
 10
1699.1951701716532
 20
15.0000000000107
 10
1675.964444887808
 20
15.000000000010914
 10
1652.740257281571
 20
15.000000000011056
 10
1629.5191777573737
 20
15.000000000011198
 10
1606.300956871968
 20
15.000000000011369
 10
1583.0826045677793
 20
15.000000000011482
 10
1559.852861680853
 20
15.000000000011596
 10
1536.6125681365843
 20
15.000000000011653
 10
1513.376772122776
 20
15.00000000001171
 10
1490.1423510237234
 20
15.000000000011752
 10
1466.9238620739743
 20
15.000000000011795
 10
1443.7202626242758
 20
15.000000000011852
 10
1420.5363474747103
 20
15.000000000011823
 10
1397.3803390361188
 20
15.000000000011696
 10
1374.2340793158178
 20
15.000000000011582
 10
1351.1017081660013
 20
15.000000000011468
 10
1327.970389944025
 20
15.00000000001134
 10
1304.8390762443407
 20
15.000000000011227
 10
1258.5764499817144
 20
15.00000000001097
 10
1234.76787179433
 20
15.000000000010743
 10
1201.6457545347116
 20
15.00000000001046
 10
1160.5984776442847
 20
15.000000000010118
 10
1118.6579336122245
 20
15.000000000009734
 10
1083.1537493320386
 20
15.000000000009408
 10
1058.0550719988794
 20
15.00000000000918
 10
1031.8880500158175
 20
15.000000000008995
 10
1005.204578414249
 20
15.000000000008782
 10
979.2303482021476
 20
15.000000000008583
 10
953.4411905919452
 20
15.000000000008413
 10
927.89624357995
 20
15.000000000008228
 10
902.4677162129337
 20
15.00000000000803
 10
876.8456274810192
 20
15.000000000007859
 10
850.9345329612415
 20
15.000000000007631
 10
824.8778040962385
 20
15.000000000007404
 10
799.0728136728407
 20
15.000000000007176
 10
773.9123106598616
 20
15.000000000006963
 10
749.5376397616268
 20
15.000000000006793
 10
725.8659497565019
 20
15.00000000000658
 10
702.731123160863
 20
15.000000000006366
 10
679.4913024530294
 20
15.000000000006224
 10
655.5505985264645
 20
15.000000000006011
 10
630.789474770239
 20
15.000000000005784
 10
605.106129957569
 20
15.00000000000557
 10
578.7249680939618
 20
15.000000000005343
 10
551.9822258932952
 20
15.000000000005116
 10
524.5214989334977
 20
15.00000000000486
 10
494.0418641026681
 20
15.000000000004604
 10
460.27224692689225
 20
15.000000000004263
 10
422.8378642040078
 20
15.000000000003894
 10
383.0757432056552
 20
15.000000000003482
 10
342.0616557985423
 20
15.00000000000307
 10
300.3889515161659
 20
15.000000000002643
 10
259.08814078071464
 20
15.000000000002274
 10
216.2764187681785
 20
15.000000000001876
 10
171.46616531389594
 20
15.000000000001464
 10
124.81213033236986
 20
15.000000000001052
 10
76.64157871433007
 20
15.000000000000597
 10
15.000000000000767
 20
15.000000000000071
 10
15.0
 20
101.00000000000007
  0
TEXT
  5
30
330
17
100
AcDbEntity
  8
0
100
AcDbText
 10
1458.619955466534
 20
58.43000000000659
 30
0.0
 40
8.0
  1
F08_EDGE_LEFT
100
AcDbText
  0
LWPOLYLINE
  5
31
330
17
100
AcDbEntity
  8
0
100
AcDbPolyline
 90
200
 70
1
 10
15.0
 20
207.0000000000119
 10
76.6415787143293
 20
207.00000000001245
 10
124.8121303323691
 20
207.0000000000129
 10
171.46616531389515
 20
207.0000000000133
 10
216.2764187681777
 20
207.00000000001373
 10
259.0881407807138
 20
207.00000000001413
 10
300.38895151616504
 20
207.00000000001452
 10
342.06165579854144
 20
207.00000000001492
 10
383.07574320565436
 20
207.00000000001535
 10
422.83786420400696
 20
207.00000000001575
 10
460.2722469268914
 20
207.00000000001612
 10
494.0418641026673
 20
207.00000000001646
 10
524.5214989334969
 20
207.0000000000167
 10
551.9822258932944
 20
207.00000000001697
 10
578.724968093961
 20
207.0000000000172
 10
605.1061299575682
 20
207.00000000001742
 10
630.7894747702383
 20
207.00000000001765
 10
655.5505985264637
 20
207.00000000001785
 10
679.4913024530288
 20
207.00000000001808
 10
702.7311231608622
 20
207.00000000001822
 10
725.8659497565011
 20
207.00000000001842
 10
749.5376397616261
 20
207.00000000001864
 10
773.9123106598609
 20
207.00000000001882
 10
799.0728136728399
 20
207.000000000019
 10
824.8778040962377
 20
207.00000000001927
 10
850.9345329612407
 20
207.0000000000195
 10
876.8456274810185
 20
207.00000000001972
 10
902.467716212933
 20
207.0000000000199
 10
927.8962435799493
 20
207.00000000002007
 10
953.4411905919445
 20
207.00000000002026
 10
979.230348202147
 20
207.00000000002044
 10
1005.2045784142483
 20
207.00000000002063
 10
1031.8880500158168
 20
207.00000000002083
 10
1058.055071998879
 20
207.00000000002103
 10
1083.1537493320382
 20
207.00000000002126
 10
1118.657933612224
 20
207.00000000002157
 10
1160.5984776442842
 20
207.00000000002197
 10
1201.6457545347112
 20
207.0000000000223
 10
1234.7678717943295
 20
207.00000000002262
 10
1258.5764499817142
 20
207.00000000002282
 10
1281.7077631130273
 20
207.00000000002294
 10
1304.8390762443405
 20
207.00000000002308
 10
1327.9703899440249
 20
207.00000000002322
 10
1351.1017081660011
 20
207.0000000000233
 10
1374.2340793158176
 20
207.00000000002342
 10
1397.3803390361186
 20
207.00000000002353
 10
1420.5363474747103
 20
207.00000000002368
 10
1443.720262624276
 20
207.0000000000237
 10
1466.9238620739745
 20
207.00000000002365
 10
1490.1423510237237
 20
207.0000000000236
 10
1513.3767721227762
 20
207.00000000002356
 10
1536.6125681365845
 20
207.0000000000235
 10
1559.8528616808535
 20
207.00000000002348
 10
1583.0826045677798
 20
207.00000000002333
 10
1606.3009568719685
 20
207.00000000002322
 10
1629.519177757374
 20
207.00000000002308
 10
1652.7402572815715
 20
207.00000000002294
 10
1675.9644448878087
 20
207.00000000002277
 10
1699.1951701716541
 20
207.00000000002257
 10
1722.432020474807
 20
207.00000000002234
 10
1745.6760736133601
 20
207.0000000000221
 10
1768.9278582452728
 20
207.0000000000219
 10
1792.1884321368943
 20
207.00000000002169
 10
1815.4587219464688
 20
207.00000000002146
 10
1838.739678096462
 20
207.00000000002123
 10
1862.0329036626574
 20
207.00000000002103
 10
1885.339024331578
 20
207.0000000000208
 10
1908.6568014987392
 20
207.0000000000206
 10
1931.987495672095
 20
207.00000000002038
 10
1955.331785048888
 20
207.00000000002018
 10
1978.689232572981
 20
207.00000000001987
 10
2002.0650703352107
 20
207.00000000001955
 10
2025.4645707151042
 20
207.00000000001927
 10
2048.8901531933034
 20
207.00000000001896
 10
2072.3486964230888
 20
207.00000000001864
 10
2095.8443561074228
 20
207.00000000001825
 10
2119.3834904881514
 20
207.00000000001796
 10
2142.973079427108
 20
207.00000000001768
 10
2166.6205166821446
 20
207.00000000001737
 10
2190.330228018246
 20
207.00000000001705
 10
2214.120329066211
 20
207.00000000001677
 10
2238.027989568562
 20
207.00000000001646
 10
2262.076394182419
 20
207.00000000001614
 10
2286.28911026324
 20
207.00000000001583
 10
2310.7110366382653
 20
207.0000000000155
 10
2335.361521881145
 20
207.000000000015
 10
2360.276830879636
 20
207.0000000000145
 10
2385.5047904038493
 20
207.00000000001398
 10
2411.04828241017
 20
207.0000000000136
 10
2436.9820419402536
 20
207.00000000001327
 10
2463.45713213104
 20
207.00000000001293
 10
2490.5375746963377
 20
207.0000000000126
 10
2518.675580781159
 20
207.00000000001242
 10
2548.508254934173
 20
207.00000000001225
 10
2580.3973083196765
 20
207.00000000001208
 10
2614.2932139527798
 20
207.00000000001185
 10
2651.2006609899227
 20
207.0000000000119
 10
2695.8257127702427
 20
207.000000000012
 10
2755.5649679690105
 20
207.00000000001208
 10
2840.419317490598
 20
207.00000000001222
 10
2840.419317490598
 20
121.00000000001222
 10
2755.5649679690105
 20
121.0000000000121
 10
2695.8257127702427
 20
121.000000000012
 10
2651.2006609899227
 20
121.00000000001191
 10
2614.2932139527798
 20
121.00000000001185
 10
2580.397308319676
 20
121.00000000001207
 10
2548.5082549341723
 20
121.00000000001226
 10
2518.6755807811587
 20
121.00000000001242
 10
2490.5375746963373
 20
121.00000000001259
 10
2463.457132131039
 20
121.00000000001293
 10
2436.9820419402527
 20
121.00000000001327
 10
2411.048282410169
 20
121.00000000001363
 10
2385.504790403848
 20
121.00000000001397
 10
2360.2768308796335
 20
121.0000000000145
 10
2335.361521881143
 20
121.000000000015
 10
2310.7110366382635
 20
121.0000000000155
 10
2286.2891102632393
 20
121.00000000001583
 10
2262.076394182418
 20
121.00000000001614
 10
2238.027989568561
 20
121.00000000001646
 10
2214.12032906621
 20
121.00000000001677
 10
2190.330228018245
 20
121.00000000001708
 10
2166.6205166821437
 20
121.00000000001737
 10
2142.973079427107
 20
121.00000000001766
 10
2119.3834904881505
 20
121.00000000001796
 10
2095.844356107422
 20
121.00000000001826
 10
2072.348696423087
 20
121.00000000001866
 10
2048.890153193302
 20
121.00000000001896
 10
2025.4645707151028
 20
121.00000000001924
 10
2002.0650703352094
 20
121.00000000001957
 10
1978.6892325729796
 20
121.00000000001987
 10
1955.3317850488868
 20
121.00000000002017
 10
1931.9874956720944
 20
121.00000000002038
 10
1908.6568014987383
 20
121.00000000002059
 10
1885.339024331577
 20
121.00000000002082
 10
1862.0329036626567
 20
121.00000000002103
 10
1838.7396780964614
 20
121.00000000002123
 10
1815.458721946468
 20
121.00000000002146
 10
1792.1884321368937
 20
121.00000000002169
 10
1768.927858245272
 20
121.0000000000219
 10
1745.6760736133594
 20
121.00000000002211
 10
1722.432020474806
 20
121.00000000002234
 10
1699.1951701716532
 20
121.00000000002255
 10
1675.964444887808
 20
121.00000000002277
 10
1652.740257281571
 20
121.00000000002291
 10
1629.5191777573737
 20
121.00000000002305
 10
1606.300956871968
 20
121.00000000002322
 10
1583.0826045677793
 20
121.00000000002333
 10
1559.852861680853
 20
121.00000000002345
 10
1536.6125681365843
 20
121.0000000000235
 10
1513.376772122776
 20
121.00000000002356
 10
1490.1423510237234
 20
121.0000000000236
 10
1466.9238620739743
 20
121.00000000002365
 10
1443.7202626242758
 20
121.0000000000237
 10
1420.5363474747103
 20
121.00000000002368
 10
1397.3803390361188
 20
121.00000000002355
 10
1374.2340793158178
 20
121.00000000002343
 10
1351.1017081660013
 20
121.00000000002332
 10
1327.970389944025
 20
121.00000000002319
 10
1304.8390762443407
 20
121.00000000002308
 10
1258.5764499817144
 20
121.00000000002282
 10
1234.76787179433
 20
121.0000000000226
 10
1201.6457545347116
 20
121.00000000002231
 10
1160.5984776442847
 20
121.00000000002197
 10
1118.6579336122245
 20
121.00000000002159
 10
1083.1537493320386
 20
121.00000000002126
 10
1058.0550719988794
 20
121.00000000002103
 10
1031.8880500158175
 20
121.00000000002085
 10
1005.204578414249
 20
121.00000000002063
 10
979.2303482021476
 20
121.00000000002044
 10
953.4411905919452
 20
121.00000000002026
 10
927.89624357995
 20
121.00000000002008
 10
902.4677162129337
 20
121.00000000001988
 10
876.8456274810192
 20
121.00000000001971
 10
850.9345329612415
 20
121.00000000001948
 10
824.8778040962385
 20
121.00000000001926
 10
799.0728136728407
 20
121.00000000001903
 10
773.9123106598616
 20
121.00000000001882
 10
749.5376397616268
 20
121.00000000001864
 10
725.8659497565019
 20
121.00000000001843
 10
702.731123160863
 20
121.00000000001822
 10
679.4913024530294
 20
121.00000000001808
 10
655.5505985264645
 20
121.00000000001786
 10
630.789474770239
 20
121.00000000001764
 10
605.106129957569
 20
121.00000000001742
 10
578.7249680939618
 20
121.0000000000172
 10
551.9822258932952
 20
121.00000000001697
 10
524.5214989334977
 20
121.00000000001671
 10
494.0418641026681
 20
121.00000000001646
 10
460.27224692689225
 20
121.00000000001612
 10
422.8378642040078
 20
121.00000000001575
 10
383.0757432056552
 20
121.00000000001533
 10
342.0616557985423
 20
121.00000000001492
 10
300.3889515161659
 20
121.0000000000145
 10
259.08814078071464
 20
121.00000000001413
 10
216.2764187681785
 20
121.00000000001373
 10
171.46616531389594
 20
121.00000000001332
 10
124.81213033236986
 20
121.0000000000129
 10
76.64157871433007
 20
121.00000000001245
 10
15.000000000000767
 20
121.00000000001192
 10
15.0
 20
207.0000000000119
  0
TEXT
  5
32
330
17
100
AcDbEntity
  8
0
100
AcDbText
 10
1458.619955466534
 20
164.4300000000184
 30
0.0
 40
8.0
  1
F08_EDGE_RIGHT
100
AcDbText
  0
LWPOLYLINE
  5
33
330
17
100
AcDbEntity
  8
0
100
AcDbPolyline
 90
111
 70
1
 10
15.000000000000002
 20
283.0821228585592
 10
57.34780474177211
 20
322.9066939867676
 10
92.16481099655323
 20
357.23808179068845
 10
127.5379897687332
 20
389.21014170320313
 10
162.56373812161556
 20
418.27977414081215
 10
197.47838847894872
 20
447.20161913269254
 10
232.68974055509605
 20
474.93844029467044
 10
268.43949300715724
 20
499.21341402204376
 10
304.6170947555827
 20
517.3832186252639
 10
340.3036848017149
 20
529.6443435621338
 10
375.53926783424413
 20
540.6237519232553
 10
411.11772709486786
 20
549.6289145446895
 10
447.1049052199709
 20
555.5031785655133
 10
483.42348992496704
 20
557.0247365548332
 10
519.6408950056668
 20
553.53766095787
 10
555.3822394445118
 20
546.3285122669613
 10
590.629806498369
 20
536.9849948072983
 10
625.4184389477299
 20
527.020186326577
 10
660.0218464503273
 20
517.8223816797749
 10
694.8301535048756
 20
509.01391780737845
 10
729.7887932944082
 20
499.56061425362435
 10
764.7205958791828
 20
489.5915081551917
 10
794.6150103093383
 20
480.68374463762495
 10
922.833959186429
 20
554.851129528543
 10
979.7008952393725
 20
554.9177862822726
 10
1033.4628370480843
 20
554.9653313831517
 10
1087.3481948342355
 20
554.0730251413737
 10
1141.200979395418
 20
552.0512654123676
 10
1194.944808438449
 20
549.3975886339551
 10
1248.5896840637236
 20
546.6047121082493
 10
1302.2246034648538
 20
544.0666118586814
 10
1355.9086279977114
 20
541.4687069049086
 10
1409.6117480126584
 20
538.6839408458526
 10
1463.3242936566467
 20
535.6713730222866
 10
1517.0462875952906
 20
532.3895783428727
 10
1570.7716934653843
 20
528.7975181869023
 10
1624.4984829399596
 20
524.9085607845248
 10
1678.2448580279195
 20
520.6979339112618
 10
1732.0251145621203
 20
516.0127910890315
 10
1785.8392479561028
 20
510.6998899721549
 10
1839.6891575214636
 20
504.60550193329607
 10
1893.6151006467903
 20
497.5503979851072
 10
1947.6430360851857
 20
488.99575647889037
 10
2001.7476998260715
 20
478.50854719386746
 10
2055.91306136555
 20
465.7563820212431
 10
2110.229989677921
 20
450.37756303932747
 10
2164.9974046575935
 20
430.88242980452685
 10
2220.2632949342783
 20
403.11484533281623
 10
2276.3893546596655
 20
363.22563508884537
 10
2341.5137624229883
 20
282.1466632290263
 10
2341.5545375903953
 20
272.45768230804475
 10
2341.5566151187427
 20
266.6681904437191
 10
2341.557717621643
 20
260.6603949391534
 10
2341.5590892795335
 20
254.47372241924066
 10
2341.561255584101
 20
248.1692513549783
 10
2341.5814979027286
 20
229.81132708783272
 10
2268.2183682302807
 20
229.67768732312175
 10
2214.2455921477685
 20
229.60056182045355
 10
2160.4956071044758
 20
229.52831291852615
 10
2106.8243176830815
 20
229.45945848667048
 10
2053.1649700819503
 20
229.3928602854096
 10
1999.5078971730388
 20
229.32770798750119
 10
1945.8525771788377
 20
229.26349430030507
 10
1892.1983570425548
 20
229.19990003820612
 10
1838.5444550446675
 20
229.13671360644545
 10
1784.8905923108168
 20
229.07376335044842
 10
1731.2367551786572
 20
229.01093547579504
 10
1677.5829318218728
 20
228.9481690689472
 10
1623.9291160715172
 20
228.88543072655352
 10
1570.275306816609
 20
228.82269792296557
 10
1516.6215015049754
 20
228.75995317429377
 10
1462.9676980637726
 20
228.6971850875981
 10
1409.3138948259962
 20
228.63438951313844
 10
1355.660090787125
 20
228.57156906502928
 10
1302.006285637605
 20
228.50872921385903
 10
1248.3524799210415
 20
228.4458747917887
 10
1194.6986745293148
 20
228.38300610260393
 10
1141.0448692005948
 20
228.3201202130687
 10
1087.3910623485115
 20
228.25721968169623
 10
1033.7372537655374
 20
228.1943159456182
 10
980.0834417541358
 20
228.13142598659687
 10
926.4296221442252
 20
228.06858344910296
 10
796.4296816899067
 20
227.91806271657154
 10
761.6571454893553
 20
227.87703352037835
 10
726.8845043806516
 20
227.8358066129394
 10
692.1118461249662
 20
227.7944212961047
 10
657.3391692012525
 20
227.75293867952132
 10
622.5664796755832
 20
227.71140628503093
 10
587.7937838686927
 20
227.66984972842357
 10
553.021085311983
 20
227.62827964255467
 10
518.2483848345429
 20
227.58670132713834
 10
483.4756828705516
 20
227.54512033296737
 10
448.7029785277464
 20
227.50354480503336
 10
413.9302703144074
 20
227.46198577820007
 10
379.1575584841787
 20
227.4204535192204
 10
344.38484458969117
 20
227.3789537714855
 10
309.61213002373825
 20
227.33748822822412
 10
274.83941422623707
 20
227.29606013907602
 10
240.06342175928907
 20
227.25475487463643
 10
205.2674274896357
 20
227.2137294908404
 10
170.43959277478868
 20
227.17306724761374
 10
135.5746664024898
 20
227.1326500158061
 10
100.54491356329586
 20
227.0914686256197
 10
65.77210535192728
 20
227.05089105962946
 10
15.068004439115773
 20
227.0000000000237
 10
15.043293803966922
 20
245.857503813101
 10
15.034897287091326
 20
252.65352005361842
 10
15.027142130892939
 20
259.3179826831118
 10
15.020787276580563
 20
265.78807051827914
 10
15.01722027221411
 20
271.99702232149593
 10
15.000000000000002
 20
283.0821228585592
  0
TEXT
  5
34
330
17
100
AcDbEntity
  8
0
100
AcDbText
 10
1067.726368972508
 20
350.6370715508708
 30
0.0
 40
8.0
  1
O08_SMOOTH_LOWER_O3
100
AcDbText
  0
LWPOLYLINE
  5
35
330
17
100
AcDbEntity
  8
0
100
AcDbPolyline
 90
109
 70
1
 10
15.001336268646963
 20
860.2089611110025
 10
65.70646903698034
 20
860.2130969684754
 10
100.47987964956877
 20
860.213953804269
 10
135.50990907527787
 20
860.2143272159474
 10
170.3748419041457
 20
860.2147768647355
 10
205.20255979443718
 20
860.2152390154185
 10
239.99847773361154
 20
860.2156878409746
 10
274.77446402536845
 20
860.2160981289635
 10
309.54721840450475
 20
860.2164302912525
 10
344.31997533957997
 20
860.2166769116687
 10
379.09272173826776
 20
860.216868491034
 10
413.8654564141519
 20
860.2170389641004
 10
448.6381831056802
 20
860.2172080664122
 10
483.4109074950194
 20
860.2173838802031
 10
518.1836311060353
 20
860.217570319039
 10
552.9563549587327
 20
860.217767874281
 10
587.7290797142311
 20
860.2179747639289
 10
622.5018058413108
 20
860.2181874107753
 10
657.2745329888465
 20
860.2184014455412
 10
692.0472609580213
 20
860.2186137734814
 10
726.8199895262525
 20
860.2188226795379
 10
761.592719051002
 20
860.2190254173994
 10
796.3654540167029
 20
860.2192062510542
 10
926.3655129211558
 20
860.2190577832251
 10
980.0193396566785
 20
860.2191551858881
 10
1033.6731829014648
 20
860.2192692428124
 10
1087.327028020238
 20
860.2193942237468
 10
1140.9808742165856
 20
860.2195198180823
 10
1194.6347222682864
 20
860.2196377392997
 10
1248.2885711962488
 20
860.2197440779921
 10
1301.942419828124
 20
860.2198401615701
 10
1355.5962671326643
 20
860.2199315234759
 10
1409.2501128270862
 20
860.2200241194566
 10
1462.9039583528677
 20
860.2201208638452
 10
1516.5578044209356
 20
860.2202203016393
 10
1570.2116511900438
 20
860.2203177995871
 10
1623.8654991136902
 20
860.2204082023434
 10
1677.519347501326
 20
860.2204894416878
 10
1731.173194674563
 20
860.2205651777734
 10
1784.8270388082392
 20
860.2206446279607
 10
1838.4808809615386
 20
860.2207398880576
 10
1892.1347252817586
 20
860.2208569061067
 10
1945.788843134824
 20
860.2209777329554
 10
1999.4439941806222
 20
860.2210810545249
 10
2053.1007862506667
 20
860.2211631952067
 10
2106.7596729774164
 20
860.2212373646992
 10
2160.4302860511957
 20
860.2212321466319
 10
2214.179386784429
 20
860.2208364147913
 10
2268.1476857056805
 20
860.2196232215856
 10
2341.5157790596536
 20
860.2080472237706
 10
2341.521157516362
 20
841.8423402931454
 10
2341.5220925819235
 20
835.5308468925466
 10
2341.5212299782524
 20
829.3397633125504
 10
2341.5153257240922
 20
823.3295404409041
 10
2341.5151851225996
 20
812.7995042248447
 10
2275.753238627936
 20
743.1412824874722
 10
2219.6708501318544
 20
709.2214289038953
 10
2164.543440449354
 20
685.6421074942375
 10
2109.911336569974
 20
669.0764132586223
 10
2055.691265333826
 20
655.9903443510262
 10
2001.6062608573811
 20
645.1277726870652
 10
1947.5743708329442
 20
636.184409117066
 10
1893.608261533899
 20
628.8783623718359
 10
1839.7288592106183
 20
622.8424949090249
 10
1785.9138515161728
 20
617.6204079199741
 10
1732.1287575097253
 20
613.0607663353385
 10
1678.3719994680926
 20
609.0332681761267
 10
1624.6436611880767
 20
605.4079809534942
 10
1570.9316921895477
 20
602.0554054229848
 10
1517.2206227170027
 20
598.9546920920625
 10
1463.512160708388
 20
596.1171712120514
 10
1409.81147312218
 20
593.5079896774477
 10
1356.1185759783452
 20
591.0920105941584
 10
1302.447154753084
 20
588.8346836072569
 10
1248.8065150410919
 20
586.6273722005351
 10
1195.1631115428236
 20
584.2041256948803
 10
1141.4355262379388
 20
581.899513594537
 10
1087.6148395162825
 20
580.1313721055637
 10
1033.7654481083187
 20
579.3210825931498
 10
980.0228019421047
 20
579.307836368597
 10
923.5864214646209
 20
579.3076094991186
 10
795.0483878517482
 20
642.2310708983866
 10
764.4887071238209
 20
634.4703042876405
 10
729.5871165520244
 20
625.9801912723859
 10
694.6619594435715
 20
617.9284376309471
 10
659.8674647416882
 20
610.4196333480742
 10
625.2523198473765
 20
602.5747900355466
 10
590.4762583088075
 20
594.0841718151694
 10
555.3001239293587
 20
586.1336680940831
 10
519.7007316149931
 20
580.003003937846
 10
483.7007811157904
 20
577.0247365548332
 10
447.6126745163731
 20
578.270562434074
 10
411.7930415553728
 20
583.1940020313458
 10
376.3110368519173
 20
590.7755082567476
 10
341.11988413460483
 20
600.0402549002164
 10
305.51473032246935
 20
610.3790807472947
 10
269.420754927445
 20
625.7137034576579
 10
233.6747179961306
 20
646.2549585965742
 10
198.42975013115864
 20
669.7534210078691
 10
163.48683644344143
 20
694.2534277145166
 10
128.4130058088931
 20
718.8942017472509
 10
92.98741233533644
 20
745.9969617180196
 10
58.12485858885313
 20
775.0947551520629
 10
15.000000000000002
 20
809.4275684225022
 10
15.001019972675712
 20
821.4228756732408
 10
15.001306671986812
 20
827.8904796126923
 10
15.001530086435983
 20
834.5540152913545
 10
15.001752913125484
 20
841.348804295856
 10
15.001336268646963
 20
860.2089611110025
  0
TEXT
  5
36
330
17
100
AcDbEntity
  8
0
100
AcDbText
 10
1065.7676034962678
 20
753.5841000161917
 30
0.0
 40
8.0
  1
O08_SMOOTH_LOWER_O4
100
AcDbText
  0
LWPOLYLINE
  5
37
330
17
100
AcDbEntity
  8
0
100
AcDbPolyline
 90
5
 70
1
 10
15.0
 20
880.2212373646992
 10
15.0
 20
1014.2212373646992
 10
1755.0584229967208
 20
1014.2212373646992
 10
1755.0584229967208
 20
880.2212373646992
 10
15.0
 20
880.2212373646992
  0
TEXT
  5
38
330
17
100
AcDbEntity
  8
0
100
AcDbText
 10
711.0233691986883
 20
933.8212373646991
 30
0.0
 40
8.0
  1
Z01_MAIN_RIGHT_STORM_LAP
100
AcDbText
  0
LWPOLYLINE
  5
39
330
17
100
AcDbEntity
  8
0
100
AcDbPolyline
 90
61
 70
1
 10
2860.419317490598
 20
514.9821689227198
 10
2938.5093116229064
 20
497.74510467831635
 10
2996.0762981767675
 20
489.3325002936742
 10
3053.2937945550434
 20
482.9701552883185
 10
3109.757989182523
 20
478.90841511092333
 10
3165.328143132166
 20
477.58833723138895
 10
3220.234953073492
 20
479.1541522528229
 10
3275.119268495991
 20
481.60910982850834
 10
3329.701160773971
 20
485.0338535989394
 10
3383.7885042288444
 20
489.96357908167283
 10
3437.245509643976
 20
496.9335493473863
 10
3490.0717360349445
 20
506.4968065793072
 10
3542.6635450473764
 20
518.1581702536695
 10
3595.410946334143
 20
530.3512875082952
 10
3648.2707537631104
 20
542.8195671667035
 10
3701.36030396726
 20
555.3497384838869
 10
3754.8104134506652
 20
567.721129117165
 10
3808.713940807751
 20
579.7406167352378
 10
3863.2993298382344
 20
591.7626333319114
 10
3919.0659793115037
 20
603.6217402007588
 10
3976.5409529384024
 20
614.9130773231963
 10
4036.5405086994306
 20
625.2647586976752
 10
4101.591781601832
 20
631.8108850537072
 10
4177.472777657726
 20
628.7090499968626
 10
4271.909050787387
 20
614.0924335195608
 10
4445.115749509949
 20
506.48872756415716
 10
4454.162151030903
 20
463.1015182672599
 10
4458.568897301514
 20
435.07154600547875
 10
4460.891490977503
 20
415.87994341124045
 10
4462.322050579185
 20
404.6657574132766
 10
4468.878023801727
 20
386.4432628195904
 10
4328.559257146109
 20
342.24938668582547
 10
4248.557258464416
 20
324.84466009335165
 10
4181.487701759783
 20
310.01375624439834
 10
4121.5396388582485
 20
295.96110369688853
 10
4064.4023544271413
 20
282.09203394050763
 10
4008.8288564410095
 20
268.30322722421005
 10
3954.432673125272
 20
254.51227178969498
 10
3900.862728061309
 20
240.72341553735032
 10
3847.8177797461253
 20
226.96164441987742
 10
3795.0698689324113
 20
213.19934711999417
 10
3742.5425702757966
 20
199.4015854635715
 10
3690.161796553933
 20
185.5843293137615
 10
3637.864753261642
 20
171.7850133921536
 10
3585.591400389446
 20
158.0570933472565
 10
3533.30806252392
 20
144.50964747215346
 10
3481.020839664544
 20
131.17441557958625
 10
3428.736292278527
 20
118.0203346910958
 10
3376.460439229605
 20
104.99945855741254
 10
3324.189673783377
 20
92.05706120891608
 10
3271.854502871658
 20
79.2188415577562
 10
3219.3639595511186
 20
66.82183529582096
 10
3166.8938133859347
 20
54.643679164993046
 10
3114.5515754701405
 20
42.44552113215906
 10
3062.3297271756965
 20
29.981884874717764
 10
2998.9800876982267
 20
15.0
 10
2984.0964179041894
 20
65.84125301926741
 10
2967.8019472809547
 20
122.49374924604734
 10
2944.122505567817
 20
206.06475423835315
 10
2910.711079884095
 20
327.0288735828646
 10
2860.419317490598
 20
514.9821689227198
  0
TEXT
  5
3A
330
17
100
AcDbEntity
  8
0
100
AcDbText
 10
3625.568746115081
 20
355.502556096661
 30
0.0
 40
8.0
  1
O08_SMOOTH_LOWER_O1_B
100
AcDbText
  0
LWPOLYLINE
  5
3B
330
17
100
AcDbEntity
  8
0
100
AcDbPolyline
 90
61
 70
1
 10
2860.419317490598
 20
854.3779041708276
 10
2924.2159017958347
 20
871.6565937494771
 10
2976.644129142031
 20
884.6506588293428
 10
3029.475159487174
 20
896.0994465464044
 10
3082.391031841443
 20
906.6637852634199
 10
3135.198609843481
 20
917.0678008441478
 10
3187.862611472757
 20
927.9171910365776
 10
3240.631905960169
 20
938.7344531848736
 10
3293.492607535975
 20
949.3202807393493
 10
3346.449910493612
 20
959.6253027387604
 10
3399.519251975136
 20
969.6033659716448
 10
3452.7116409406904
 20
979.2093911839208
 10
3506.030767617434
 20
988.4460439092408
 10
3559.521158805306
 20
997.2376673548767
 10
3613.2658838921493
 20
1005.3689354615506
 10
3667.333960353909
 20
1012.6167390072325
 10
3721.79768454453
 20
1018.7592813604172
 10
3776.788573963325
 20
1023.5511641809087
 10
3832.583537906275
 20
1026.2904704354385
 10
3889.3630983791973
 20
1026.3634763058215
 10
3947.2803624798353
 20
1023.3031214844316
 10
4006.6386339982755
 20
1016.6305673311152
 10
4068.48748371642
 20
1004.3578794835616
 10
4135.047434679955
 20
980.9476918525405
 10
4208.685255613832
 20
941.6224179601743
 10
4316.056077554997
 20
852.5436012512582
 10
4318.203710704712
 20
842.0618660063968
 10
4318.474929995199
 20
836.5614011595657
 10
4318.632037095462
 20
832.2510109801631
 10
4318.858677444755
 20
829.1178319939902
 10
4327.922845602445
 20
800.2952441081583
 10
4214.759472735249
 20
850.2001911198502
 10
4152.344114663827
 20
866.7187009553599
 10
4094.064094104126
 20
874.3917626539697
 10
4038.067238576412
 20
875.7478934447593
 10
3982.8807263708904
 20
873.9492086968623
 10
3928.3198714027544
 20
870.0644838662051
 10
3874.3518487611595
 20
864.3204861110316
 10
3820.8520716188586
 20
856.9599289130364
 10
3767.66755257407
 20
848.3280345388758
 10
3714.6737089928274
 20
838.8721501892387
 10
3661.8602490150893
 20
828.7315590423707
 10
3609.1859886056673
 20
818.032883966048
 10
3556.608509631678
 20
806.9083857304743
 10
3504.0993727691553
 20
795.4959092588102
 10
3451.6691017007083
 20
783.8187416966393
 10
3399.319083299647
 20
771.863842338034
 10
3347.032123378241
 20
759.6681105243441
 10
3294.7972774911786
 20
747.2685360222221
 10
3242.594630615641
 20
734.6987286757787
 10
3190.360454747007
 20
722.0686085127085
 10
3138.064231103549
 20
709.6840045477556
 10
3085.900919305757
 20
697.188986299726
 10
3034.010971804393
 20
684.1361009026532
 10
2982.4489428017496
 20
670.0672943926124
 10
2919.5133075660583
 20
651.8108850537072
 10
2904.0818151142485
 20
704.5471511010214
 10
2892.968421742597
 20
742.679195882375
 10
2882.8502737296017
 20
777.5832612115117
 10
2873.514875824524
 20
809.9196520648508
 10
2860.419317490598
 20
854.3779041708276
  0
TEXT
  5
3C
330
17
100
AcDbEntity
  8
0
100
AcDbText
 10
3560.643684587938
 20
865.6287732421184
 30
0.0
 40
8.0
  1
O08_SMOOTH_LOWER_O2_B
100
AcDbText
  0
LWPOLYLINE
  5
3D
330
17
100
AcDbEntity
  8
0
100
AcDbPolyline
 90
61
 70
1
 10
2896.149892931201
 20
1329.7461689251902
 10
2960.8665874558837
 20
1319.26926842878
 10
3013.7655609922685
 20
1311.5055970740716
 10
3066.8451391390167
 20
1304.6676614900298
 10
3120.1017594572804
 20
1298.3381936098908
 10
3173.4599593080225
 20
1292.112173690898
 10
3226.790622761845
 20
1285.6689497295524
 10
3280.087361095886
 20
1279.2770059979018
 10
3333.393311990589
 20
1273.0405590948317
 10
3386.7223119884366
 20
1266.9926536046514
 10
3440.079957975518
 20
1261.1671939257249
 10
3493.4768968231997
 20
1255.5975902056202
 10
3546.9129128360637
 20
1250.2728014356558
 10
3600.375853710245
 20
1245.2146997910713
 10
3653.874410541134
 20
1240.550831361833
 10
3707.429413529023
 20
1236.408087477371
 10
3761.060093348955
 20
1232.913340910927
 10
3814.7563966851853
 20
1230.2105474654793
 10
3868.5687250394053
 20
1228.7281940981852
 10
3922.5773227794693
 20
1228.8099719179324
 10
3976.8410663234713
 20
1230.7215151275598
 10
4031.3273387611926
 20
1234.7239959277586
 10
4085.9767517148684
 20
1241.8471772787843
 10
4141.433392791145
 20
1255.1368677153148
 10
4198.295652933573
 20
1277.0649875699992
 10
4291.469329158909
 20
1339.2694142776259
 10
4289.865141876738
 20
1309.3770251819053
 10
4289.0004837952065
 20
1303.103680178979
 10
4287.364814720932
 20
1296.8088732708122
 10
4286.030134744329
 20
1293.8793512511327
 10
4285.704135251009
 20
1287.7280508983247
 10
4200.83311537515
 20
1183.8004750035836
 10
4135.743609369536
 20
1135.1034923731336
 10
4074.2566076362255
 20
1103.3493778438115
 10
4015.2341741552627
 20
1083.4276367631437
 10
3957.688760460492
 20
1069.4749343408864
 10
3900.9555388112835
 20
1059.3645980227961
 10
3844.8435144829064
 20
1052.561656495679
 10
3789.297267602102
 20
1048.5728036711353
 10
3734.2493631813727
 20
1046.7626168383886
 10
3679.5372644481554
 20
1046.3634763058215
 10
3625.064481322606
 20
1047.1098304877344
 10
3570.791261651064
 20
1048.7723582886454
 10
3516.680903391141
 20
1051.1236304724043
 10
3462.6773274452175
 20
1053.9400715826414
 10
3408.7473379915004
 20
1057.1747459232436
 10
3354.8941623919336
 20
1060.8426197159965
 10
3301.1159201476244
 20
1064.8871946546992
 10
3247.4030322051844
 20
1069.25148768714
 10
3193.7606497386882
 20
1073.8770814199468
 10
3140.2049329416177
 20
1078.5720673219485
 10
3086.5739079806062
 20
1082.8713061011917
 10
3032.8273833300323
 20
1087.363092884084
 10
2979.0645515747947
 20
1092.7713975945617
 10
2925.5121441091687
 20
1099.8080769970932
 10
2860.419317490598
 20
1110.0159417978343
 10
2867.784409263462
 20
1155.1724384668835
 10
2873.6114087577753
 20
1191.0244025660902
 10
2879.9804144337936
 20
1230.2135636625628
 10
2886.8736041498164
 20
1272.6255713147161
 10
2896.149892931201
 20
1329.7461689251902
  0
TEXT
  5
3E
330
17
100
AcDbEntity
  8
0
100
AcDbText
 10
3555.3012949382014
 20
1188.9524023678161
 30
0.0
 40
8.0
  1
O08_SMOOTH_LOWER_O5_B
100
AcDbText
  0
LWPOLYLINE
  5
3F
330
17
100
AcDbEntity
  8
0
100
AcDbPolyline
 90
77
 70
1
 10
4488.878023801727
 20
297.3028393129551
 10
4542.328063808269
 20
306.26768366344925
 10
4584.619169620567
 20
312.844356606036
 10
4627.121041538023
 20
318.7506821851757
 10
4669.8721971077175
 20
323.91069658030534
 10
4712.913667755539
 20
328.57236538366834
 10
4756.019039224047
 20
332.93668053902115
 10
4798.9212217622735
 20
337.19393089155295
 10
4841.513623605924
 20
341.52545265062133
 10
4884.12549024441
 20
345.71532422292205
 10
4926.670450097615
 20
349.694060211648
 10
4969.035707671079
 20
353.50850297106484
 10
5011.382344525945
 20
357.1333267807156
 10
5053.868172365559
 20
360.18382393348423
 10
5096.407816039846
 20
362.7813643103734
 10
5138.962379473575
 20
365.12395888531523
 10
5181.488894310907
 20
367.4008721980026
 10
5224.047999057794
 20
369.81944543696466
 10
5266.8674857648475
 20
372.374640690809
 10
5309.935641043284
 20
374.81466975585664
 10
5353.132600740244
 20
376.8979785039482
 10
5396.319789575211
 20
378.3890544545185
 10
5439.384604445042
 20
379.15427482300356
 10
5482.417005881954
 20
379.3504392446421
 10
5525.567870904531
 20
378.79933759312553
 10
5568.923545651891
 20
377.27709687159603
 10
5612.571506901977
 20
374.55872156620285
 10
5656.815511964682
 20
370.4009997602132
 10
5702.37644981965
 20
363.0565729461176
 10
5749.652092253706
 20
351.2998273803049
 10
5798.3534357961125
 20
336.05383164566786
 10
5848.258154575884
 20
318.18432746742013
 10
5906.279815000733
 20
295.7211529591447
 10
5907.049888672771
 20
275.3440424197471
 10
5907.750658600831
 20
263.1864264681701
 10
5908.6806338993265
 20
251.18022968105203
 10
5909.831972645239
 20
239.29917782540622
 10
5911.22408277553
 20
227.545954960521
 10
5914.626360417113
 20
204.03642389222213
 10
5856.868879277776
 20
194.7956841750177
 10
5811.365022256351
 20
187.5855090863309
 10
5766.693627389837
 20
180.64331289428634
 10
5722.989988728799
 20
174.0413368019565
 10
5680.2189107802915
 20
167.80675573113444
 10
5637.921550297427
 20
161.83563912203846
 10
5595.768087526392
 20
156.009144705532
 10
5553.683282173729
 20
150.26729491796877
 10
5511.605569858322
 20
144.55979044805352
 10
5469.50682348829
 20
138.8445191157153
 10
5427.314843515701
 20
133.07583835428983
 10
5384.923738961363
 20
127.21295841379703
 10
5342.39526147277
 20
121.27756714350377
 10
5299.877856843642
 20
115.32586388886202
 10
5257.502391454016
 20
109.418923859612
 10
5215.352298952941
 20
103.6064096345867
 10
5173.280882289843
 20
97.85656422953
 10
5131.224703830188
 20
92.14044309507179
 10
5089.199748417078
 20
86.45889247923589
 10
5047.194724957742
 20
80.81954816051504
 10
5005.196609553138
 20
75.24123639666917
 10
4963.059027855526
 20
69.7458189665852
 10
4920.702803720404
 20
64.31963716863021
 10
4878.250645662235
 20
58.94555168969353
 10
4835.733732833599
 20
53.60454337847767
 10
4792.888080659511
 20
48.28198131968492
 10
4749.857064737045
 20
42.980071569239385
 10
4706.925767599557
 20
37.69786656808958
 10
4664.312609835766
 20
32.42321173424179
 10
4621.887214260096
 20
27.133308124002497
 10
4579.552985188626
 20
21.82462329283686
 10
4525.406293085869
 20
15.0
 10
4518.436969999111
 20
70.0446762032663
 10
4512.901017064746
 20
113.18055560360207
 10
4507.292863324377
 20
156.32579568642325
 10
4501.62882172547
 20
199.48919882973095
 10
4495.95530970296
 20
242.67169604825438
 10
4488.878023801727
 20
297.3028393129551
  0
TEXT
  5
40
330
17
100
AcDbEntity
  8
0
100
AcDbText
 10
5192.570758992517
 20
225.55045656912185
 30
0.0
 40
8.0
  1
L08_CONTINUOUS_COVER_O2
100
AcDbText
  0
LWPOLYLINE
  5
41
330
17
100
AcDbEntity
  8
0
100
AcDbPolyline
 90
77
 70
1
 10
4488.878023801727
 20
686.8611390904865
 10
4543.454829721493
 20
687.3189277155371
 10
4586.122353927605
 20
687.6875487064118
 10
4628.875807299811
 20
688.0793217127607
 10
4671.809913962725
 20
688.5091116630596
 10
4715.0540560303225
 20
688.9906614097954
 10
4758.391664308731
 20
689.5005016670315
 10
4801.56438273567
 20
689.9988499707916
 10
4844.399577769328
 20
690.4488662233944
 10
4887.1878722919455
 20
690.8685392041577
 10
4929.885587799334
 20
691.2522626907928
 10
4972.375435206104
 20
691.5646847968168
 10
5014.7457747195895
 20
691.773119338351
 10
5057.128503072791
 20
691.8974328431384
 10
5099.5419616255695
 20
691.9609371219112
 10
5141.982072100662
 20
691.9813375514113
 10
5184.45226028576
 20
691.9707639617242
 10
5227.001729918203
 20
691.9165441830136
 10
5269.790128421448
 20
691.7878702244807
 10
5312.732855497434
 20
691.5965660071769
 10
5355.687864640358
 20
691.3783937578783
 10
5398.488122171643
 20
691.1788755611669
 10
5441.07080002011
 20
691.0380080991429
 10
5483.547755879661
 20
690.9574904107346
 10
5525.9945413074165
 20
690.9178550560848
 10
5568.456895091727
 20
690.8906633024478
 10
5610.998428201736
 20
690.841545822734
 10
5653.700731167813
 20
690.7275381610519
 10
5696.917573440908
 20
690.4606192214601
 10
5741.121626388549
 20
689.9541966087925
 10
5786.341411775471
 20
689.1924372347753
 10
5832.432459602753
 20
688.189244280093
 10
5890.802174239454
 20
686.6494088532036
 10
5890.774073681388
 20
662.9272627717036
 10
5890.8925144131435
 20
650.9632374468895
 10
5891.184974232579
 20
638.9781755615877
 10
5891.688057865175
 20
626.9609032724852
 10
5892.480699831956
 20
614.9352213334151
 10
5894.561462012727
 20
594.679933626537
 10
5839.9554510556245
 20
564.7551861927717
 10
5792.950210493154
 20
540.3282491701609
 10
5746.818792280004
 20
518.5534350927137
 10
5701.626304769298
 20
500.37639529418027
 10
5657.505930153497
 20
486.81551743030866
 10
5614.233364779586
 20
476.6383745257358
 10
5571.342618163027
 20
468.024580372776
 10
5528.572535476954
 20
460.6846335749558
 10
5485.8701996254085
 20
454.37845330598407
 10
5443.1843992364875
 20
448.8644801796396
 10
5400.395186988696
 20
443.9299036706427
 10
5357.397299531446
 20
439.68898662030625
 10
5314.31909288138
 20
435.9987300260053
 10
5271.324858886425
 20
432.6344915174879
 10
5228.559418371589
 20
429.37960640319614
 10
5186.06432096712
 20
426.01553922199327
 10
5143.618718496159
 20
422.52604394286243
 10
5101.140150385381
 20
419.09739882911117
 10
5058.646230304326
 20
415.9083565481401
 10
5016.147266418063
 20
413.15216141755263
 10
4973.706256430884
 20
410.957785976084
 10
4931.213034277486
 20
408.9473938212078
 10
4888.5138592942785
 20
407.1052272456348
 10
4845.721310170457
 20
405.4920515998562
 10
4802.930124883299
 20
404.03281667768346
 10
4759.838316984047
 20
402.47539720026595
 10
4716.527963229704
 20
401.0298728759057
 10
4673.243126781205
 20
399.9172104919134
 10
4630.183710530243
 20
399.3504392446421
 10
4587.274975888688
 20
399.55546805869386
 10
4544.486719070093
 20
400.44616399082037
 10
4490.322605484432
 20
402.21021781278347
 10
4490.04514405869
 20
457.2961218838378
 10
4489.9174748117275
 20
500.85143718399047
 10
4489.783705311351
 20
544.3839139893425
 10
4489.590722598697
 20
587.889582842156
 10
4489.31847440407
 20
631.3772773700136
 10
4488.878023801727
 20
686.8611390904865
  0
TEXT
  5
42
330
17
100
AcDbEntity
  8
0
100
AcDbText
 10
5178.099803295268
 20
571.6326758072242
 30
0.0
 40
8.0
  1
L08_CONTINUOUS_COVER_O3
100
AcDbText
  0
LWPOLYLINE
  5
43
330
17
100
AcDbEntity
  8
0
100
AcDbPolyline
 90
61
 70
1
 10
4488.878023801727
 20
873.4529361229539
 10
4558.816855915217
 20
923.5852278880919
 10
4617.176757745456
 20
965.4177190714082
 10
4680.477617118768
 20
995.2494466823365
 10
4748.077451196535
 20
1012.6880486572384
 10
4828.557312319933
 20
1011.2196448675522
 10
4916.5736657191455
 20
993.8242088545815
 10
5003.798760651888
 20
967.23552319905
 10
5082.523454403796
 20
938.3068855773237
 10
5154.32111916223
 20
908.7396489051662
 10
5228.895155220117
 20
873.3688529755746
 10
5300.66381426872
 20
838.5954415512235
 10
5363.9665029739
 20
811.3891072894141
 10
5414.788067289328
 20
798.345012359562
 10
5460.38237224091
 20
793.5066245151913
 10
5505.237949742242
 20
792.8890040102012
 10
5548.7566924354915
 20
796.6115496026289
 10
5590.060734589758
 20
804.3230588430202
 10
5628.303042277982
 20
815.6063445607672
 10
5665.091679094878
 20
828.9532997272684
 10
5701.420926571656
 20
843.6751735132434
 10
5736.2592757478
 20
860.5737243152086
 10
5779.064344829273
 20
886.7468571557947
 10
5790.659761634326
 20
870.5702587897371
 10
5795.757437849282
 20
863.4585643779214
 10
5800.855114057587
 20
856.3468699743671
 10
5805.952790265444
 20
849.2351755729043
 10
5811.050466473947
 20
842.1234811707565
 10
5816.148142682576
 20
835.0117867663863
 10
5821.245818890168
 20
827.9000923555117
 10
5833.865411601939
 20
810.2946808761562
 10
5788.564887035266
 20
782.5957033298843
 10
5751.957079949396
 20
764.8388663267818
 10
5714.475453416532
 20
749.6500084945302
 10
5676.579885845803
 20
735.901457715539
 10
5636.455024468899
 20
724.0627298080766
 10
5592.77114624179
 20
715.9069026069205
 10
5546.878986838872
 20
711.9813375514113
 10
5499.729229146598
 20
712.6305468349865
 10
5451.297313650154
 20
717.770056957152
 10
5396.97996688711
 20
731.7113953976911
 10
5331.4693943828115
 20
759.8666375605546
 10
5259.30144099848
 20
794.8335154256331
 10
5185.383914883867
 20
829.8929258022551
 10
5114.593187381087
 20
859.0454922669113
 10
5036.936143949726
 20
887.5818048504154
 10
4951.514618762868
 20
913.6207112635566
 10
4866.773137663618
 20
930.3689058797977
 10
4791.688969609314
 20
931.7388620105767
 10
4729.444187925984
 20
915.6816927785383
 10
4670.165150299561
 20
887.745324743167
 10
4613.580463621575
 20
847.1853111992453
 10
4543.641631187775
 20
797.0530191974946
 10
4531.552856093132
 20
813.9178949162085
 10
4526.455179943986
 20
821.0295892521955
 10
4521.357503743223
 20
828.1412836578938
 10
4516.259827541498
 20
835.2529780786571
 10
4511.162151346183
 20
842.3646724926476
 10
4506.064475151685
 20
849.4763668823529
 10
4500.966798945849
 20
856.588061216919
 10
4488.878023801727
 20
873.4529361229539
  0
TEXT
  5
44
330
17
100
AcDbEntity
  8
0
100
AcDbText
 10
5208.696795893217
 20
844.4447744385162
 30
0.0
 40
8.0
  1
G08_BACK_-1_O1
100
AcDbText
  0
LWPOLYLINE
  5
45
330
17
100
AcDbEntity
  8
0
100
AcDbPolyline
 90
61
 70
1
 10
4488.878023801727
 20
1194.1596472287808
 10
4558.816855915217
 20
1244.291938993919
 10
4617.176757745456
 20
1286.1244301772351
 10
4680.477617118768
 20
1315.9561577881634
 10
4748.077451196535
 20
1333.3947597630654
 10
4828.557312319933
 20
1331.9263559733793
 10
4916.5736657191455
 20
1314.5309199604085
 10
5003.798760651888
 20
1287.942234304877
 10
5082.523454403796
 20
1259.0135966831508
 10
5154.32111916223
 20
1229.4463600109932
 10
5228.895155220117
 20
1194.0755640814016
 10
5300.66381426872
 20
1159.3021526570506
 10
5363.9665029739
 20
1132.0958183952412
 10
5414.788067289328
 20
1119.0517234653892
 10
5460.38237224091
 20
1114.2133356210184
 10
5505.237949742242
 20
1113.5957151160283
 10
5548.7566924354915
 20
1117.318260708456
 10
5590.060734589758
 20
1125.0297699488474
 10
5628.303042277982
 20
1136.3130556665942
 10
5665.091679094878
 20
1149.6600108330954
 10
5701.420926571656
 20
1164.3818846190704
 10
5736.2592757478
 20
1181.2804354210357
 10
5779.064344829273
 20
1207.4535682616217
 10
5790.659761634326
 20
1191.276969895564
 10
5795.757437849282
 20
1184.1652754837485
 10
5800.855114057587
 20
1177.0535810801941
 10
5805.952790265444
 20
1169.9418866787314
 10
5811.050466473947
 20
1162.8301922765836
 10
5816.148142682576
 20
1155.7184978722134
 10
5821.245818890168
 20
1148.6068034613388
 10
5833.865411601939
 20
1131.0013919819833
 10
5788.564887035266
 20
1103.3024144357114
 10
5751.957079949396
 20
1085.5455774326088
 10
5714.475453416532
 20
1070.3567196003573
 10
5676.579885845803
 20
1056.608168821366
 10
5636.455024468899
 20
1044.7694409139035
 10
5592.77114624179
 20
1036.6136137127476
 10
5546.878986838872
 20
1032.6880486572384
 10
5499.729229146598
 20
1033.3372579408135
 10
5451.297313650154
 20
1038.4767680629789
 10
5396.97996688711
 20
1052.4181065035182
 10
5331.4693943828115
 20
1080.5733486663817
 10
5259.30144099848
 20
1115.5402265314601
 10
5185.383914883867
 20
1150.5996369080822
 10
5114.593187381087
 20
1179.7522033727384
 10
5036.936143949726
 20
1208.2885159562425
 10
4951.514618762868
 20
1234.3274223693836
 10
4866.773137663618
 20
1251.0756169856247
 10
4791.688969609314
 20
1252.4455731164037
 10
4729.444187925984
 20
1236.3884038843653
 10
4670.165150299561
 20
1208.452035848994
 10
4613.580463621575
 20
1167.8920223050725
 10
4543.641631187775
 20
1117.7597303033215
 10
4531.552856093132
 20
1134.6246060220356
 10
4526.455179943986
 20
1141.7363003580224
 10
4521.357503743223
 20
1148.8479947637209
 10
4516.259827541498
 20
1155.9596891844842
 10
4511.162151346183
 20
1163.0713835984745
 10
4506.064475151685
 20
1170.1830779881798
 10
4500.966798945849
 20
1177.294772322746
 10
4488.878023801727
 20
1194.1596472287808
  0
TEXT
  5
46
330
17
100
AcDbEntity
  8
0
100
AcDbText
 10
5208.696795893217
 20
1165.1514855443436
 30
0.0
 40
8.0
  1
G08_BACK_1_O1
100
AcDbText
  0
LWPOLYLINE
  5
47
330
17
100
AcDbEntity
  8
0
100
AcDbPolyline
 90
5
 70
1
 10
5934.626360417113
 20
15.0
 10
5934.626360417113
 20
149.0
 10
7111.0374769490345
 20
149.0
 10
7111.0374769490345
 20
15.0
 10
5934.626360417113
 20
15.0
  0
TEXT
  5
48
330
17
100
AcDbEntity
  8
0
100
AcDbText
 10
6405.190807029881
 20
68.6
 30
0.0
 40
8.0
  1
Z02_HOOD_SERVICE_STORM_LAP
100
AcDbText
  0
LWPOLYLINE
  5
49
330
17
100
AcDbEntity
  8
0
100
AcDbPolyline
 90
41
 70
1
 10
6060.440897911455
 20
565.8571161332596
 10
6193.77589733818
 20
572.1622784969886
 10
6312.118864184642
 20
574.7917192590352
 10
6423.038427889234
 20
576.6227525580538
 10
6525.245515261171
 20
577.1400053891434
 10
6630.149586525376
 20
579.3835908903951
 10
6733.833208530143
 20
582.6601672046845
 10
6827.332004110434
 20
584.6612040268626
 10
6902.0287063131955
 20
583.020277300509
 10
6960.1274541951025
 20
577.6643497760705
 10
7016.531148293356
 20
572.2471227613478
 10
7087.62315873749
 20
563.7153316411673
 10
7046.946672549994
 20
500.7663759092814
 10
7012.798822284522
 20
454.71849454661424
 10
6975.158852559632
 20
410.0041756095751
 10
6934.186463244148
 20
366.90452061999247
 10
6890.096020972197
 20
325.696192675572
 10
6843.154913746705
 20
286.6288281563605
 10
6793.70459864007
 20
249.89602445831838
 10
6742.262131651434
 20
215.54890212943542
 10
6687.332928073654
 20
181.42556801590825
 10
6604.632797812183
 20
174.85637153519332
 10
6522.193648778133
 20
169.33763767495128
 10
6444.363141811651
 20
169.0
 10
6360.380055413548
 20
173.5785838291352
 10
6269.784364202887
 20
185.39642629507472
 10
6182.573373642461
 20
206.79874411826216
 10
6109.077411374425
 20
239.66861925711243
 10
6055.276402316954
 20
284.1811303889207
 10
6010.760222154757
 20
338.20816347759234
 10
5975.955011837497
 20
401.0452001626466
 10
5934.626360417113
 20
476.1612165251349
 10
5960.5760947385415
 20
491.40423631650077
 10
5975.729789317142
 20
500.7262163091452
 10
5990.148425027681
 20
510.05240459998254
 10
6003.778976613368
 20
519.304704703849
 10
6016.559936941923
 20
528.3975802555709
 10
6028.409892501322
 20
537.2589921710253
 10
6039.204475688625
 20
545.8429126851288
 10
6048.731466819853
 20
554.1110788624397
 10
6060.440897911455
 20
565.8571161332596
  0
TEXT
  5
4A
330
17
100
AcDbEntity
  8
0
100
AcDbText
 10
6443.685098008136
 20
426.1634715331585
 30
0.0
 40
8.0
  1
H08_CANOPY_O4_A
100
AcDbText
  0
LWPOLYLINE
  5
4B
330
17
100
AcDbEntity
  8
0
100
AcDbPolyline
 90
41
 70
1
 10
5934.626360417113
 20
1100.8523558322793
 10
6000.764270109384
 20
1155.5948699711428
 10
6056.134187944318
 20
1201.3399550867643
 10
6117.29699309526
 20
1235.375103504277
 10
6183.611060095973
 20
1257.2250678887722
 10
6264.013623322379
 20
1261.0739316824563
 10
6353.001771430362
 20
1249.4864423018416
 10
6441.782780910836
 20
1228.4056616493597
 10
6522.102842533173
 20
1203.8519683616776
 10
6595.252470372303
 20
1177.3725511717712
 10
6671.080123101723
 20
1144.2585614128366
 10
6746.255005086354
 20
1108.6948971855822
 10
6784.866332608254
 20
1056.5595474418285
 10
6819.100224626887
 20
1004.9168192885476
 10
6850.60314505322
 20
952.033695192107
 10
6879.185406695091
 20
898.1436198682566
 10
6904.663044477735
 20
843.5196902991787
 10
6926.90343420378
 20
788.4548142906269
 10
6945.8349092560165
 20
733.2507134922328
 10
6961.451184808668
 20
678.2100004696191
 10
6978.162993862077
 20
604.6612040268626
 10
6908.426716854143
 20
622.8968302514957
 10
6853.899572991946
 20
637.904817731999
 10
6797.6716433680285
 20
653.1780564277692
 10
6727.003111156815
 20
677.3119832304392
 10
6639.85104369812
 20
711.320764808067
 10
6543.748962887856
 20
750.5914669201693
 10
6446.436595040699
 20
790.062618950863
 10
6351.289743543719
 20
827.5510339407604
 10
6248.64563429361
 20
869.7286436601744
 10
6139.523775985207
 20
915.6773383884738
 10
6018.287280007195
 20
970.5991834302909
 10
6010.830699536189
 20
985.4949188649213
 10
6005.0091114084335
 20
997.3086302248328
 10
5998.529989383212
 20
1009.5533244312974
 10
5991.215220268255
 20
1022.3209102000376
 10
5983.027360753268
 20
1035.56099134797
 10
5973.979048450897
 20
1049.2014407261338
 10
5964.11113407009
 20
1063.1517362814598
 10
5953.479215788801
 20
1077.2951335614553
 10
5934.626360417113
 20
1100.8523558322793
  0
TEXT
  5
4C
330
17
100
AcDbEntity
  8
0
100
AcDbText
 10
6425.031326436941
 20
967.0937475519247
 30
0.0
 40
8.0
  1
H08_CANOPY_O1_A
100
AcDbText
  0
LWPOLYLINE
  5
4D
330
17
100
AcDbEntity
  8
0
100
AcDbPolyline
 90
45
 70
1
 10
7131.0374769490345
 20
283.98688813713073
 10
7185.81808630008
 20
296.58989601483717
 10
7227.8410446677335
 20
305.8622314341018
 10
7270.059003952518
 20
314.62729866259184
 10
7312.534831794114
 20
322.82275985103433
 10
7355.350463154276
 20
330.38789261920226
 10
7398.556771763155
 20
337.2825042588092
 10
7442.16508353008
 20
343.5207561534343
 10
7486.43158286843
 20
348.7302292642468
 10
7531.595243404992
 20
352.473077478622
 10
7577.908298370407
 20
354.3070893836339
 10
7625.793130596071
 20
353.76078068612657
 10
7677.363271618001
 20
348.9087027635418
 10
7734.789226093448
 20
338.63691490722107
 10
7797.384346663203
 20
324.00218633220885
 10
7864.214743635202
 20
306.30560995624285
 10
7943.245280269209
 20
284.25398413034213
 10
7941.870530157434
 20
253.88244172038827
 10
7942.491701099061
 20
237.0744913113109
 10
7944.3231377725015
 20
222.61756041514977
 10
7947.091391523479
 20
209.63368292841645
 10
7950.647395911453
 20
197.5879045131201
 10
7960.902546832128
 20
169.8041287867213
 10
7889.768610406289
 20
169.29332449051822
 10
7837.475555187648
 20
167.82514095479723
 10
7787.548303029484
 20
164.98580460896164
 10
7740.547057728286
 20
160.33606782533735
 10
7696.530065468543
 20
153.20231950372448
 10
7654.015962513228
 20
144.22279876640303
 10
7611.976700655468
 20
134.48753917689717
 10
7570.405627005646
 20
124.03125827403986
 10
7529.177332983434
 20
112.87467470315087
 10
7488.187900222281
 20
101.05749801623298
 10
7447.370228166021
 20
88.6051141233709
 10
7406.694485807808
 20
75.26631140431809
 10
7366.092386236955
 20
61.2072339351252
 10
7325.549620840093
 20
46.79977962635769
 10
7285.050286669007
 20
32.45715831675264
 10
7234.063700694586
 20
15.0
 10
7213.78121417665
 20
62.71477633861659
 10
7198.066088358304
 20
100.66771110042811
 10
7182.53814483093
 20
139.46200307478364
 10
7167.106343389614
 20
179.82400736726382
 10
7151.510704268196
 20
223.09018685658864
 10
7131.0374769490345
 20
283.98688813713073
  0
TEXT
  5
4E
330
17
100
AcDbEntity
  8
0
100
AcDbText
 10
7536.975741878077
 20
212.8545912957608
 30
0.0
 40
8.0
  1
L08_CONTINUOUS_COVER_O1_B
100
AcDbText
  0
LWPOLYLINE
  5
4F
330
17
100
AcDbEntity
  8
0
100
AcDbPolyline
 90
45
 70
1
 10
7176.866775025255
 20
660.1811917819005
 10
7230.356712499891
 20
653.5241788391241
 10
7272.9409050754075
 20
647.8911910899403
 10
7315.602578607276
 20
642.1439256269726
 10
7358.2388027268935
 20
636.6606479335105
 10
7400.777318633024
 20
631.846390017358
 10
7443.2553514456085
 20
627.9621959840099
 10
7485.762888125277
 20
624.8428476144851
 10
7528.3656633481105
 20
622.5735380607365
 10
7571.156029339528
 20
621.2454486726594
 10
7614.249788030053
 20
620.9268944655979
 10
7657.654336780985
 20
621.6500475738632
 10
7702.149066052869
 20
624.6076633932385
 10
7749.053488048796
 20
630.5454173259714
 10
7798.48237958092
 20
638.6359366472093
 10
7850.0202477599205
 20
648.1947391357643
 10
7918.933473290344
 20
661.7866010886146
 10
7916.120362129507
 20
632.947648396327
 10
7915.038917398676
 20
619.9045103009813
 10
7914.473147791321
 20
606.3382098383391
 10
7914.880590087299
 20
591.77848940441
 10
7917.05463003315
 20
575.4794254302747
 10
7924.893242906348
 20
546.21556904854
 10
7851.667135036015
 20
508.9438383633151
 10
7790.053770751605
 20
477.85504803079164
 10
7732.229151939449
 20
450.0293642903031
 10
7678.6332464211055
 20
427.11739161297845
 10
7629.451442903695
 20
410.7752303375056
 10
7582.8121825002345
 20
399.6721650831669
 10
7537.149143970217
 20
391.4428891713794
 10
7492.177197335669
 20
385.49821665342097
 10
7447.757894154157
 20
381.3409497844222
 10
7403.767451862316
 20
378.47133323435366
 10
7360.048452219297
 20
376.4165164261823
 10
7316.593891388567
 20
375.11366847553376
 10
7273.358419621575
 20
374.4476245864116
 10
7230.257921752359
 20
374.3070893836339
 10
7187.209761155546
 20
374.66196866390356
 10
7131.0374769490345
 20
375.8305060626666
 10
7138.426783461793
 20
439.62431440017673
 10
7144.885322638587
 20
485.19391787442066
 10
7151.8488992155835
 20
527.8521743296867
 10
7159.224452338316
 20
568.9756181890161
 10
7166.898061661916
 20
609.2985547331416
 10
7176.866775025255
 20
660.1811917819005
  0
TEXT
  5
50
330
17
100
AcDbEntity
  8
0
100
AcDbText
 10
7514.637367311526
 20
536.4651617586253
 30
0.0
 40
8.0
  1
L08_CONTINUOUS_COVER_O4_B
100
AcDbText
  0
LWPOLYLINE
  5
51
330
17
100
AcDbEntity
  8
0
100
AcDbPolyline
 90
29
 70
1
 10
7198.811541206063
 20
967.7045889806345
 10
7377.243025787198
 20
969.4222424204106
 10
7532.546216584888
 20
970.3102141366527
 10
7671.482049358163
 20
970.2327327119984
 10
7792.273643903896
 20
969.1225640757806
 10
7921.750511400015
 20
967.6600034916245
 10
7917.332304109928
 20
922.4114929284724
 10
7907.981460227506
 20
889.4588919751878
 10
7892.743053903511
 20
857.1535681129603
 10
7871.842667449151
 20
825.6719703832289
 10
7845.512125341216
 20
795.1379245276435
 10
7813.981946650498
 20
765.6533443397147
 10
7777.493656881239
 20
737.319135850121
 10
7736.323166684978
 20
710.2292599570145
 10
7686.127117994806
 20
681.7866010886146
 10
7582.83153786272
 20
722.105386920975
 10
7488.112776430038
 20
760.7771074334704
 10
7385.366734255368
 20
802.3015448049762
 10
7275.940288884589
 20
846.7266350450499
 10
7131.0374769490345
 20
902.8546840098777
 10
7164.751307981379
 20
920.0729108026317
 10
7173.061524878632
 20
924.999948598413
 10
7180.10266374331
 20
929.9385638155276
 10
7185.883907084792
 20
934.8267216967599
 10
7190.4259023578825
 20
939.5842068931981
 10
7193.776510120692
 20
944.1203570430216
 10
7196.0092209970635
 20
948.3367190271938
 10
7197.232143575315
 20
952.1655117738808
 10
7198.811541206063
 20
967.7045889806345
  0
TEXT
  5
52
330
17
100
AcDbEntity
  8
0
100
AcDbText
 10
7499.544414614136
 20
879.1651524767475
 30
0.0
 40
8.0
  1
H08_CANOPY_O3_A_A
100
AcDbText
  0
LWPOLYLINE
  5
53
330
17
100
AcDbEntity
  8
0
100
AcDbPolyline
 90
5
 70
1
 10
7131.0374769490345
 20
990.3102141366528
 10
7131.0374769490345
 20
1124.3102141366528
 10
7872.061943652156
 20
1124.3102141366528
 10
7872.061943652156
 20
990.3102141366528
 10
7131.0374769490345
 20
990.3102141366528
  0
TEXT
  5
54
330
17
100
AcDbEntity
  8
0
100
AcDbText
 10
7427.4472636302835
 20
1043.9102141366527
 30
0.0
 40
8.0
  1
Z03_FILL_SERVICE_STORM_LAP
100
AcDbText
  0
LWPOLYLINE
  5
55
330
17
100
AcDbEntity
  8
0
100
AcDbPolyline
 90
29
 70
1
 10
7980.902546832128
 20
368.31877929479106
 10
8136.784585095719
 20
366.5883645182891
 10
8254.87142972297
 20
367.2270910541365
 10
8365.680789686841
 20
367.75704802732844
 10
8467.983217529292
 20
368.73269977493857
 10
8578.868613002585
 20
367.9772521412723
 10
8615.004619322737
 20
322.987577504007
 10
8643.16509700863
 20
282.52253943966684
 10
8666.493358530233
 20
242.6451619861137
 10
8684.791773064442
 20
203.54696020703062
 10
8697.871969874139
 20
165.40674211020502
 10
8705.55031801358
 20
128.4044080795652
 10
8707.658199846102
 20
92.75245032422436
 10
8704.099142006067
 20
58.71789583434497
 10
8691.583675061524
 20
15.0
 10
8570.723682713182
 20
61.56246667362302
 10
8458.067342641609
 20
105.15584517365943
 10
8328.954539850625
 20
156.49714429717665
 10
8185.058024431009
 20
214.94772953557174
 10
8020.278018460197
 20
282.71033995268164
 10
8024.175163672049
 20
297.74312321932894
 10
8024.498698759046
 20
301.98438344620024
 10
8024.049196484084
 20
306.78547084316097
 10
8022.696600392215
 20
312.25450421133576
 10
8020.324086122434
 20
318.38008653979233
 10
8016.8584694914925
 20
325.09286163890425
 10
8012.256560814151
 20
332.2864011555916
 10
8006.467858426057
 20
339.84729492938976
 10
7980.902546832128
 20
368.31877929479106
  0
TEXT
  5
56
330
17
100
AcDbEntity
  8
0
100
AcDbText
 10
8330.917935299563
 20
256.6259103864525
 30
0.0
 40
8.0
  1
H08_CANOPY_O2_A_A
100
AcDbText
  0
LWPOLYLINE
  5
57
330
17
100
AcDbEntity
  8
0
100
AcDbPolyline
 90
29
 70
1
 10
7980.902546832128
 20
760.9841102952497
 10
8011.826588479119
 20
811.8637306771386
 10
8043.158617275807
 20
849.2453122803893
 10
8076.878467842285
 20
882.2877140792831
 10
8112.922871535641
 20
911.0090133626645
 10
8150.289595999228
 20
935.0757578987309
 10
8187.58604067958
 20
954.018923351779
 10
8224.566742110721
 20
970.06183294186
 10
8262.244647418216
 20
984.7692577649459
 10
8301.048157529345
 20
996.9849225453562
 10
8346.482556993642
 20
1006.6401451759916
 10
8571.975222987448
 20
794.9551276287741
 10
8634.218677020954
 20
766.6955566913873
 10
8660.642506909693
 20
587.1715815406689
 10
8677.830428102074
 20
447.1246971394749
 10
8606.140935231822
 20
456.7935877302005
 10
8408.36264663821
 20
525.8315881632825
 10
8372.75042964319
 20
520.3149642840199
 10
8334.987251569462
 20
512.4344304295855
 10
8297.583058445753
 20
503.4125879446518
 10
8260.68660536971
 20
493.8446447782823
 10
8223.790265353724
 20
483.1955418249952
 10
8186.743924221799
 20
470.5378167319634
 10
8150.594152781472
 20
456.0405608596319
 10
8116.262316279418
 20
439.87689539742036
 10
8084.190809842502
 20
422.2343411947378
 10
8037.051959370737
 20
388.73269977493857
 10
8012.305766652146
 20
553.6708323082927
 10
7980.902546832128
 20
760.9841102952497
  0
TEXT
  5
58
330
17
100
AcDbEntity
  8
0
100
AcDbText
 10
8252.238839170617
 20
677.4755960376189
 30
0.0
 40
8.0
  1
O08_SMOOTH_LOWER_O1_A_B_A
100
AcDbText
  0
LWPOLYLINE
  5
59
330
17
100
AcDbEntity
  8
0
100
AcDbPolyline
 90
37
 70
1
 10
8743.326295457071
 20
567.491399948829
 10
8808.610173828938
 20
566.8236031964218
 10
8862.160842543473
 20
566.9319050195234
 10
8915.848233166798
 20
567.548802901799
 10
8969.684121567503
 20
568.1951626388603
 10
9023.592932238778
 20
568.570908785644
 10
9077.44254569686
 20
568.4784048854202
 10
9131.25136999996
 20
568.3455979549573
 10
9185.072219170392
 20
568.2444890185031
 10
9238.926346417824
 20
568.1331889382915
 10
9292.833187267734
 20
567.9728726957517
 10
9346.786571570101
 20
567.7320929735116
 10
9413.734423594386
 20
567.2857413323578
 10
9410.309018513795
 20
526.3035354641197
 10
9408.113674836724
 20
495.37078254893845
 10
9406.209337150643
 20
454.36779824769775
 10
9404.60985093657
 20
395.23923795102655
 10
9403.170993530948
 20
310.21319770265717
 10
9401.508918218695
 20
180.29881482003725
 10
9336.169188479984
 20
178.260660791686
 10
9282.677408976357
 20
174.1830750415354
 10
9229.188680505204
 20
167.4068789081657
 10
9175.57492920228
 20
158.58251913552976
 10
9121.832930176759
 20
148.29934961232988
 10
9068.019053379754
 20
137.1278751535301
 10
9014.409544165972
 20
125.16608345108574
 10
8960.918494473322
 20
110.16882599337879
 10
8907.308182821771
 20
92.0926963566701
 10
8853.53115122227
 20
71.47757388127013
 10
8799.654152659203
 20
49.03466437630078
 10
8727.658199846102
 20
15.0
 10
8730.541333318899
 20
209.07223264332941
 10
8733.705731685932
 20
334.5697752914542
 10
8736.900048978578
 20
421.43699637308725
 10
8739.646015113309
 20
480.34446049663705
 10
8741.684055506303
 20
521.7917941629595
 10
8743.326295457071
 20
567.491399948829
  0
TEXT
  5
5A
330
17
100
AcDbEntity
  8
0
100
AcDbText
 10
9063.403687883143
 20
370.4068756389764
 30
0.0
 40
8.0
  1
O08_SMOOTH_LOWER_O6_B_A
100
AcDbText
  0
LWPOLYLINE
  5
5B
330
17
100
AcDbEntity
  8
0
100
AcDbPolyline
 90
35
 70
1
 10
8765.044003847388
 20
751.3515943361133
 10
8837.625069379628
 20
762.0775041092526
 10
8900.902164806195
 20
774.1530557124087
 10
8961.784836453033
 20
783.792138268168
 10
9019.102480167487
 20
790.5081839306717
 10
9076.10510897845
 20
797.7675690972569
 10
9131.952789758358
 20
804.1256075526113
 10
9184.425915741336
 20
806.745889323836
 10
9230.792084412384
 20
802.5774987781406
 10
9270.572738815812
 20
792.3744446321277
 10
9308.760843617032
 20
781.2336109735146
 10
9345.354559724703
 20
767.7373959923777
 10
9392.02440278895
 20
743.6670870296933
 10
9357.07684852043
 20
704.8815392310152
 10
9332.75757569398
 20
679.9888175336807
 10
9306.715960858677
 20
654.0794468993805
 10
9278.308971656981
 20
626.0365551024373
 10
9240.380646767639
 20
588.570908785644
 10
9204.026498058472
 20
614.8654826941886
 10
9173.968613284373
 20
632.8468576605597
 10
9142.215997285826
 20
649.6803820897649
 10
9110.143949598212
 20
665.6055597580594
 10
9074.814040170802
 20
677.7160481106483
 10
9034.817254257296
 20
686.0104570420648
 10
8991.508069676836
 20
692.037359728855
 10
8946.753936545676
 20
697.2942083849784
 10
8902.083322524315
 20
702.6238357873584
 10
8855.549863559256
 20
705.9227036059136
 10
8806.697193269729
 20
707.5166231505124
 10
8727.658199846102
 20
714.4542625951112
 10
8750.161198323622
 20
736.6750198140471
 10
8754.119739184121
 20
740.3692491481033
 10
8757.744131167605
 20
743.5827774693563
 10
8760.257038557304
 20
745.7629197836187
 10
8765.044003847388
 20
751.3515943361133
  0
TEXT
  5
5C
330
17
100
AcDbEntity
  8
0
100
AcDbText
 10
9048.492858604155
 20
722.1709768127881
 30
0.0
 40
8.0
  1
O08_SMOOTH_LOWER_O2_A_A
100
AcDbText
  0
LWPOLYLINE
  5
5D
330
17
100
AcDbEntity
  8
0
100
AcDbPolyline
 90
31
 70
1
 10
9456.277067526209
 20
693.4369306465419
 10
9505.06281899342
 20
675.4134876142643
 10
9539.21499399527
 20
666.5902002544339
 10
9575.405941322553
 20
658.9612705370538
 10
9613.135248279046
 20
652.4795658656326
 10
9651.495500853647
 20
647.1354771808453
 10
9689.424074175557
 20
642.911870009957
 10
9727.143085329053
 20
639.341980291371
 10
9765.292216986123
 20
636.2047976449313
 10
9803.760150347862
 20
633.7733869581579
 10
9840.984433904838
 20
632.4184058921023
 10
10027.077610830962
 20
679.5634017130079
 10
10095.132671493371
 20
690.6803955271785
 10
10095.441008942274
 20
589.6854368415339
 10
10093.262957529498
 20
464.09321454325357
 10
10087.606925856699
 20
282.8560418719417
 10
10029.242748752255
 20
247.04612893491526
 10
9824.353704372412
 20
15.0
 10
9778.34552065685
 20
20.85301520102928
 10
9738.64432999482
 20
28.76590516514966
 10
9699.560248340105
 20
39.004956176430824
 10
9660.968656496389
 20
50.680928169992626
 10
9621.747705620513
 20
65.24020666965328
 10
9581.879743578365
 20
84.86613723123583
 10
9542.761121150894
 20
109.21263895955667
 10
9505.419244315675
 20
138.1061384674639
 10
9469.95159581474
 20
171.67213958324947
 10
9433.734423594386
 20
218.97691436103003
 10
9442.394118529724
 20
428.51004576352045
 10
9449.385258724726
 20
575.7079651374531
 10
9456.277067526209
 20
693.4369306465419
  0
TEXT
  5
5E
330
17
100
AcDbEntity
  8
0
100
AcDbText
 10
9703.238135284982
 20
412.0201907696591
 30
0.0
 40
8.0
  1
O08_SMOOTH_LOWER_O6_A_B_B
100
AcDbText
  0
LWPOLYLINE
  5
5F
330
17
100
AcDbEntity
  8
0
100
AcDbPolyline
 90
17
 70
1
 10
9556.495483479002
 20
921.512758595448
 10
9650.022393221907
 20
914.1053738688714
 10
9732.803139692169
 20
911.7751877735392
 10
9809.42610963092
 20
911.9675308763716
 10
9891.161710489156
 20
916.2059513498294
 10
9971.27415500082
 20
920.796647579168
 10
10084.515892720943
 20
921.5155319718546
 10
9873.179408824004
 20
791.1787413082117
 10
9740.798979721152
 20
713.4369306465419
 10
9695.143097066219
 20
733.470021841837
 10
9650.29645475287
 20
750.1159111242963
 10
9603.35737854263
 20
767.8783704918574
 10
9558.061595201478
 20
787.9111030022091
 10
9508.276695956187
 20
811.6278900154981
 10
9433.734423594386
 20
851.687437929876
 10
9496.07949415564
 20
884.7642178580186
 10
9556.495483479002
 20
921.512758595448
  0
TEXT
  5
60
330
17
100
AcDbEntity
  8
0
100
AcDbText
 10
9694.771876207558
 20
848.9095508722867
 30
0.0
 40
8.0
  1
O08_SMOOTH_LOWER_O1_A_A_B_A
100
AcDbText
  0
LWPOLYLINE
  5
61
330
17
100
AcDbEntity
  8
0
100
AcDbPolyline
 90
35
 70
1
 10
9433.734423594386
 20
1160.7013445770642
 10
9506.957226461082
 20
1148.1826401365204
 10
9551.288211970523
 20
1139.0416104937494
 10
9594.31844909458
 20
1131.9110653937676
 10
9636.353478769037
 20
1126.7602782595247
 10
9678.434563472034
 20
1121.6458551213755
 10
9719.523728941285
 20
1117.6141140076086
 10
9758.50415345612
 20
1116.3675067711056
 10
9794.72705148436
 20
1119.519372355139
 10
9829.345357225266
 20
1126.703390398415
 10
9863.95554611561
 20
1134.76574553185
 10
9897.496878547609
 20
1144.220261887955
 10
9939.903260974252
 20
1159.5582478821748
 10
9966.340660006828
 20
1109.619222739693
 10
9986.476658974068
 20
1071.4298044923678
 10
10005.030552440752
 20
1036.0730309068927
 10
10021.960730920317
 20
1003.5189903794892
 10
10044.633116681765
 20
959.1172344165104
 10
9994.083085740804
 20
947.3271064832436
 10
9955.910011790458
 20
943.0912876640236
 10
9916.845467535586
 20
941.5934013645212
 10
9876.480572014587
 20
941.5155319718543
 10
9831.680794260912
 20
948.9067465372273
 10
9783.213246218378
 20
964.3781412481844
 10
9732.821114592813
 20
984.5725358545858
 10
9681.807797987416
 20
1006.407676640331
 10
9630.550682479918
 20
1028.2758346489293
 10
9577.019647131514
 20
1053.8434589093833
 10
9522.113387597823
 20
1082.487382329208
 10
9458.78437517998
 20
1113.271429762552
 10
9455.07816327511
 20
1120.5310485275436
 10
9452.97519514705
 20
1124.618377715405
 10
9450.64818199027
 20
1129.1213356619598
 10
9448.151339725608
 20
1133.927589282052
 10
9433.734423594386
 20
1160.7013445770642
  0
TEXT
  5
62
330
17
100
AcDbEntity
  8
0
100
AcDbText
 10
9726.596615296925
 20
1072.8948555694078
 30
0.0
 40
8.0
  1
O08_SMOOTH_LOWER_O5_A_A
100
AcDbText
  0
LWPOLYLINE
  5
63
330
17
100
AcDbEntity
  8
0
100
AcDbPolyline
 90
57
 70
1
 10
10178.708297790818
 20
296.82729326659455
 10
10205.985708015329
 20
281.5425169098909
 10
10221.577618883724
 20
273.9097777254082
 10
10237.567652465315
 20
267.11999270328
 10
10254.041501754087
 20
261.1378860512201
 10
10271.315485293435
 20
255.60527837601083
 10
10290.106713023879
 20
249.88639813456663
 10
10310.370120011334
 20
244.2440859186803
 10
10331.787411422463
 20
239.11470650178907
 10
10353.903745324036
 20
234.97297033803312
 10
10376.322173451994
 20
232.25100393190837
 10
10399.443008143548
 20
231.01644941007913
 10
10424.557162531088
 20
230.83607795363855
 10
10450.96961558902
 20
232.3464924785935
 10
10478.334832951876
 20
236.3690069248402
 10
10506.853312035453
 20
243.97019223234776
 10
10537.418220330615
 20
257.11653743032684
 10
10574.171150072076
 20
282.7685923715323
 10
10628.007917210782
 20
334.66694547139895
 10
10655.33689068701
 20
320.5120756299198
 10
10674.945374269757
 20
310.42126666626905
 10
10694.47953490974
 20
300.39531974046594
 10
10724.571624251103
 20
284.98955473152836
 10
10698.687233502202
 20
233.89189949155517
 10
10678.78799920233
 20
193.22996084986522
 10
10659.442886088056
 20
152.25473395633662
 10
10640.67767360269
 20
110.93755356723591
 10
10622.531847095295
 20
69.23526806832413
 10
10600.03996382146
 20
15.0
 10
10569.028500379743
 20
30.791816011018398
 10
10549.401773825652
 20
40.85437208735769
 10
10529.631506238966
 20
51.02716178140844
 10
10515.259619003327
 20
58.47289631538206
 10
10487.297508453634
 20
44.15450188354308
 10
10456.017031987105
 20
43.4246942738591
 10
10429.488636291402
 20
54.2949831240162
 10
10406.037295863707
 20
69.26652940513637
 10
10383.997545560334
 20
85.27055598084152
 10
10363.117225053444
 20
99.81809885474235
 10
10343.964609552775
 20
110.54362049141943
 10
10325.897465393515
 20
116.28885604661562
 10
10306.280671608969
 20
119.64799788602804
 10
10285.420200147963
 20
121.83838100442077
 10
10264.20753101189
 20
123.21123366889361
 10
10243.238613577945
 20
124.18393571986965
 10
10222.951176251148
 20
125.19531091315795
 10
10203.578918429752
 20
126.74935503591814
 10
10184.684135919322
 20
128.95020177622837
 10
10166.06014401354
 20
131.63739727123766
 10
10147.626225817896
 20
134.79832011394936
 10
10115.441008942274
 20
141.24807333209574
 10
10129.46290792358
 20
176.67210921137735
 10
10138.245685342488
 20
198.52217053277639
 10
10147.058248437967
 20
220.1794627821299
 10
10155.895783546646
 20
241.68087881867342
 10
10164.735292132496
 20
263.05313656890365
 10
10178.708297790818
 20
296.82729326659455
  0
TEXT
  5
64
330
17
100
AcDbEntity
  8
0
100
AcDbText
 10
10387.608354951384
 20
181.66970492963566
 30
0.0
 40
8.0
  1
S08_WRAP_1_O1
100
AcDbText
  0
LWPOLYLINE
  5
65
330
17
100
AcDbEntity
  8
0
100
AcDbPolyline
 90
57
 70
1
 10
10158.382325285216
 20
684.5371391208138
 10
10187.019610488489
 20
653.1037452483399
 10
10201.936695740473
 20
638.2788838066408
 10
10217.131377703588
 20
623.8499835657765
 10
10232.614038103062
 20
609.7764704513125
 10
10248.45937182716
 20
594.8469442313396
 10
10263.96381756889
 20
578.0426677207652
 10
10278.683780014702
 20
561.1645696574833
 10
10292.858046059242
 20
546.1509115559429
 10
10306.688150387905
 20
535.047674692136
 10
10319.395401243504
 20
529.6397263829383
 10
10332.76367010735
 20
531.0443859369416
 10
10357.4109119365
 20
543.194704048041
 10
10393.301960742372
 20
564.2275113936599
 10
10435.333039927584
 20
590.7568779536555
 10
10479.239227931766
 20
619.6689069350491
 10
10521.571382285701
 20
647.1733886559134
 10
10560.228473970225
 20
668.5177774860207
 10
10592.866194776861
 20
677.6030461361379
 10
10618.224116182113
 20
676.5683688205507
 10
10641.403628143336
 20
675.6568822474692
 10
10664.017793607303
 20
674.3961869410249
 10
10705.917562121376
 20
671.2375363849309
 10
10654.70617109757
 20
593.6765286876052
 10
10638.748897470425
 20
547.7090902201257
 10
10626.772886690089
 20
501.8997338377669
 10
10617.206714961792
 20
456.3419357292837
 10
10609.21282013524
 20
410.9158066140421
 10
10600.581874674193
 20
354.66694547139895
 10
10567.866315595758
 20
356.6630978555911
 10
10545.875654785174
 20
358.0552993479309
 10
10523.764382220266
 20
359.41956924896647
 10
10495.333903131574
 20
360.9573892789005
 10
10474.80048745538
 20
393.18558866886485
 10
10457.132579599422
 20
403.88525980080055
 10
10435.902118437627
 20
406.4822422310664
 10
10411.079427305722
 20
404.8918952584069
 10
10384.61707172688
 20
401.443406792912
 10
10357.989816148147
 20
398.35472549545494
 10
10332.454681652593
 20
397.817309513404
 10
10309.79901027561
 20
401.9544791382648
 10
10288.636773535043
 20
408.8474893158128
 10
10268.026350624166
 20
416.8245407837188
 10
10247.880917531444
 20
425.28062563029766
 10
10228.468792304404
 20
433.7074319634728
 10
10210.089531876993
 20
441.71906970230674
 10
10192.69164316569
 20
449.0622744952882
 10
10175.53917830015
 20
456.0222077366799
 10
10158.439646878758
 20
462.798842544996
 10
10141.365317586571
 20
469.3963551910226
 10
10115.441008942274
 20
479.3139872550277
 10
10119.877059956289
 20
512.5844191323648
 10
10123.515474078582
 20
536.8785220782238
 10
10127.581721462595
 20
561.734520638777
 10
10132.205216804854
 20
587.6531978400999
 10
10137.878137798923
 20
616.4478018442795
 10
10158.382325285216
 20
684.5371391208138
  0
TEXT
  5
66
330
17
100
AcDbEntity
  8
0
100
AcDbText
 10
10366.30306115176
 20
518.3440880322255
 30
0.0
 40
8.0
  1
S08_WRAP_-1_O1
100
AcDbText
  0
LWPOLYLINE
  5
67
330
17
100
AcDbEntity
  8
0
100
AcDbPolyline
 90
23
 70
1
 10
10269.532543838399
 20
959.7789345739575
 10
10383.403700444398
 20
969.150480881583
 10
10475.899522800952
 20
974.9593416558841
 10
10546.103764772752
 20
975.7273405136617
 10
10597.681008217301
 20
971.6637346542974
 10
10645.949458136114
 20
966.5275094303444
 10
10703.784787817105
 20
958.2446552439189
 10
10684.605081702348
 20
897.3140749684821
 10
10665.529317108456
 20
849.7395177792081
 10
10642.523527006217
 20
802.6630422340787
 10
10615.715949531856
 20
756.2743900218505
 10
10581.437423377307
 20
704.5371391208137
 10
10522.271194699772
 20
713.2286514914053
 10
10466.286427929203
 20
720.8372241634596
 10
10409.140787353703
 20
729.245617917428
 10
10335.849331093083
 20
737.4558280491979
 10
10243.151730576188
 20
746.6319825622311
 10
10115.441008942274
 20
759.9040854316477
 10
10168.176411094375
 20
814.5349152183857
 10
10199.631393216749
 20
850.4717446632842
 10
10226.765364494999
 20
885.5502587804045
 10
10249.175034466423
 20
919.6952034632077
 10
10269.532543838399
 20
959.7789345739575
  0
TEXT
  5
68
330
17
100
AcDbEntity
  8
0
100
AcDbText
 10
10435.547274454711
 20
853.2136785822909
 30
0.0
 40
8.0
  1
H08_CANOPY_O3_A_B_B
100
AcDbText
  0
LWPOLYLINE
  5
69
330
17
100
AcDbEntity
  8
0
100
AcDbPolyline
 90
57
 70
1
 10
10115.441008942274
 20
1310.4427685971389
 10
10148.306104534528
 20
1308.562565059615
 10
10166.90670036851
 20
1307.073992114583
 10
10185.598307207483
 20
1305.1139310976625
 10
10204.43658870586
 20
1302.6523232675265
 10
10223.597462642414
 20
1299.4870127581687
 10
10243.544821691257
 20
1295.5729315247388
 10
10264.153446753768
 20
1291.3969454789756
 10
10285.082681813916
 20
1287.4816978873525
 10
10305.852799798327
 20
1284.3950835374822
 10
10325.691511214565
 20
1282.7286136139242
 10
10344.618772133266
 20
1283.7648642009428
 10
10365.845737010603
 20
1289.3570112009106
 10
10389.707075840473
 20
1298.2116954457572
 10
10415.056019599862
 20
1308.1799803846388
 10
10441.51171491119
 20
1316.7956566771174
 10
10469.92745292646
 20
1320.667922148056
 10
10500.02895295246
 20
1312.0721024714287
 10
10523.431096776982
 20
1291.1620277852776
 10
10539.170709706057
 20
1294.8005325990796
 10
10560.860649781425
 20
1299.7218292582
 10
10582.36672264266
 20
1304.5697210307394
 10
10616.347504805042
 20
1312.1897765815315
 10
10624.551617895697
 20
1254.026328328717
 10
10631.744370693381
 20
1209.1324573039458
 10
10639.664291005234
 20
1164.4539988869994
 10
10648.231151096481
 20
1119.9548207851988
 10
10657.38536638108
 20
1075.6093052880767
 10
10669.671614933615
 20
1019.6788492138319
 10
10636.713592016955
 20
1012.2260830750026
 10
10615.28202216313
 20
1007.3846677921101
 10
10593.753879481852
 20
1002.5196255505871
 10
10563.775388911054
 20
995.7273405136618
 10
10524.429553186725
 20
1059.2886627734827
 10
10495.277334156493
 20
1093.3689951784254
 10
10468.996616629203
 20
1113.7773036717008
 10
10443.305587861543
 20
1128.3046943923055
 10
10417.832935473058
 20
1139.0748099255159
 10
10392.650484343898
 20
1147.1617851928966
 10
10368.295459243125
 20
1153.2719771085315
 10
10345.601794245458
 20
1157.8588567374325
 10
10323.218771169672
 20
1160.830020831179
 10
10300.782707499313
 20
1162.336450788657
 10
10278.789288247872
 20
1162.6744032437737
 10
10257.796192040656
 20
1162.1729596543576
 10
10238.206328467004
 20
1161.1758103595337
 10
10220.106972690115
 20
1159.9655827951378
 10
10202.650676092122
 20
1158.1521149677844
 10
10185.456968691857
 20
1155.4763769751667
 10
10168.415148581777
 20
1151.9215887874975
 10
10138.24151963184
 20
1144.0408095559155
 10
10132.951687807707
 20
1180.119488110152
 10
10129.710083886761
 20
1203.0633735306433
 10
10126.553854659309
 20
1226.107668432135
 10
10123.465841826745
 20
1249.2724151908942
 10
10120.411330494568
 20
1272.5770104457822
 10
10115.441008942274
 20
1310.4427685971389
  0
TEXT
  5
6A
330
17
100
AcDbEntity
  8
0
100
AcDbText
 10
10368.716583915915
 20
1206.6587787492108
 30
0.0
 40
8.0
  1
S08_WRAP_-1_O2
100
AcDbText
  0
LWPOLYLINE
  5
6B
330
17
100
AcDbEntity
  8
0
100
AcDbPolyline
 90
21
 70
1
 10
10744.571624251103
 20
236.59444982151655
 10
10873.733227030814
 20
233.26512077190696
 10
10966.76306186948
 20
230.99090706013553
 10
11040.41677790874
 20
230.82168948375886
 10
11098.112032955016
 20
233.071030945856
 10
11154.65885122597
 20
234.4782248498732
 10
11214.509351381412
 20
236.1508511479895
 10
11242.318559857238
 20
180.59846526314868
 10
11263.04650923745
 20
131.1728540873542
 10
11280.023522123058
 20
81.68335552415377
 10
11297.399714455156
 20
18.205570046242144
 10
11237.017844129887
 20
15.72790479794088
 10
11187.392542495056
 20
15.0
 10
11134.700553994342
 20
15.297928427565921
 10
11064.05992393532
 20
21.89500700343359
 10
10972.154591731787
 20
35.62747374276407
 10
10860.520188024635
 20
55.13805542384023
 10
10840.2068030794
 20
98.3508036571692
 10
10818.371056770278
 20
136.84891121740242
 10
10791.838268130976
 20
176.274258226749
 10
10744.571624251103
 20
236.59444982151655
  0
TEXT
  5
6C
330
17
100
AcDbEntity
  8
0
100
AcDbText
 10
11039.351744230391
 20
135.89463387239604
 30
0.0
 40
8.0
  1
H08_CANOPY_O2_A_B_A
100
AcDbText
  0
LWPOLYLINE
  5
6D
330
17
100
AcDbEntity
  8
0
100
AcDbPolyline
 90
57
 70
1
 10
10756.885909492741
 20
590.0192645241253
 10
10784.595734159338
 20
592.9593557570176
 10
10802.518423700389
 20
595.3923626573207
 10
10820.59653695267
 20
598.1962278331542
 10
10838.81586140399
 20
601.2892377631752
 10
10857.47608017113
 20
604.7050685583899
 10
10877.385203656557
 20
608.3155515539186
 10
10898.452777266766
 20
611.7264784931629
 10
10920.199368171821
 20
614.6988538856356
 10
10942.186524848215
 20
616.9831223979971
 10
10964.361411334185
 20
618.1477639162046
 10
10987.285778695232
 20
616.3876170562827
 10
11011.867749167122
 20
609.3971228516988
 10
11036.854362705306
 20
599.5514956799892
 10
11061.538114702562
 20
589.2891256876015
 10
11085.08821057462
 20
581.1832603195346
 10
11106.263513404701
 20
578.0243414913422
 10
11125.981432305085
 20
583.5579601771836
 10
11153.69139402993
 20
609.9663147069856
 10
11181.669374169991
 20
603.6951289454298
 10
11203.273999951181
 20
599.202610899105
 10
11224.762975053387
 20
594.915903290026
 10
11257.07413976692
 20
588.8583452073648
 10
11250.792558650546
 20
532.1572882558833
 10
11247.031533141075
 20
486.24649747541673
 10
11244.90478493747
 20
439.7700631712139
 10
11245.100114302808
 20
392.41748044506437
 10
11249.029641126159
 20
343.8587761479598
 10
11278.168644296291
 20
256.5944498215165
 10
11237.278359357919
 20
262.44478238920937
 10
11214.823495998482
 20
267.18427504493803
 10
11192.17114278616
 20
272.4421878901737
 10
11167.437928981477
 20
278.2971283084675
 10
11138.530806169798
 20
295.82796010339996
 10
11106.737650971327
 20
326.41194791478006
 10
11073.114193920777
 20
364.1411711408122
 10
11038.561261283034
 20
403.7094605867227
 10
11004.843062155369
 20
440.0807993528248
 10
10975.41826986588
 20
469.35800392646274
 10
10954.458208719296
 20
487.12090321566666
 10
10941.615850166383
 20
491.90289864183046
 10
10927.694224674997
 20
490.2796289848462
 10
10911.461358216733
 20
483.55910293647133
 10
10894.185531244697
 20
472.83749418945837
 10
10876.232570379982
 20
459.9669868531689
 10
10857.741313650406
 20
446.8284562211773
 10
10839.207876531906
 20
435.3608616179263
 10
10820.995029531387
 20
424.7884703911007
 10
10802.832891749282
 20
414.01619316024664
 10
10784.451742802263
 20
402.9121895819151
 10
10748.89640933505
 20
381.90085676785225
 10
10744.571624251103
 20
451.4387371426177
 10
10746.321461559372
 20
480.9203418808742
 10
10748.551099623077
 20
507.1884892943624
 10
10750.996497800972
 20
532.1990034314869
 10
10753.50921462061
 20
556.4735877864897
 10
10756.885909492741
 20
590.0192645241253
  0
TEXT
  5
6E
330
17
100
AcDbEntity
  8
0
100
AcDbText
 10
10989.883809438223
 20
493.80909214472126
 30
0.0
 40
8.0
  1
S08_WRAP_1_O2
100
AcDbText
  0
LWPOLYLINE
  5
6F
330
17
100
AcDbEntity
  8
0
100
AcDbPolyline
 90
19
 70
1
 10
10744.571624251103
 20
1099.668513719469
 10
10821.803346969697
 20
1102.4858510468275
 10
10871.105181878733
 20
1103.214442909525
 10
10915.076848507764
 20
1103.5498284334903
 10
10958.769835519779
 20
1101.7834332711702
 10
11000.327414304187
 20
1100.0756001646346
 10
11046.789193407732
 20
1100.5052764502332
 10
11094.668682804044
 20
1002.0821057860182
 10
11154.836653300947
 20
867.3051781852284
 10
11250.823371200666
 20
638.1477639162047
 10
11159.230616669789
 20
704.8707408531616
 10
11096.33061720512
 20
754.6135207551495
 10
11031.961417670369
 20
805.2338263381021
 10
10969.643021179865
 20
849.8777926776303
 10
10900.893451558944
 20
896.1545909377816
 10
10820.835506253183
 20
945.2469334249529
 10
10793.98179416432
 20
1010.7308785451205
 10
10773.599637165464
 20
1053.545878936426
 10
10744.571624251103
 20
1099.668513719469
  0
TEXT
  5
70
330
17
100
AcDbEntity
  8
0
100
AcDbText
 10
10955.253675698043
 20
965.1979300037156
 30
0.0
 40
8.0
  1
O08_SMOOTH_LOWER_O6_A_A_B_B
100
AcDbText
  0
LWPOLYLINE
  5
71
330
17
100
AcDbEntity
  8
0
100
AcDbPolyline
 90
23
 70
1
 10
10777.341503295662
 20
1313.7314816514472
 10
10858.232044356484
 20
1285.4864971835907
 10
10923.962428607481
 20
1262.321145285978
 10
10988.70826356409
 20
1251.4388662418432
 10
11053.104194723139
 20
1252.112517298669
 10
11125.529486188581
 20
1272.382873819558
 10
11232.285397449268
 20
1322.5974447981216
 10
11194.713097035226
 20
1231.431930250592
 10
11172.072330974315
 20
1187.1212462037713
 10
11151.252180857584
 20
1157.2122269861147
 10
11130.892476169103
 20
1138.042845275233
 10
11106.561348221176
 20
1123.5498284334903
 10
11048.051900845394
 20
1141.711791474618
 10
10993.278035093617
 20
1160.4317703683996
 10
10939.915137035223
 20
1181.4063738801626
 10
10881.445861321266
 20
1199.3376547915434
 10
10819.662663509751
 20
1223.0023356801785
 10
10744.571624251103
 20
1271.8408109711868
 10
10763.064161453327
 20
1282.970728741769
 10
10764.329020155365
 20
1284.1550836458994
 10
10766.382353036237
 20
1287.1000565988027
 10
10769.335445408784
 20
1293.0159052278675
 10
10777.341503295662
 20
1313.7314816514472
  0
TEXT
  5
72
330
17
100
AcDbEntity
  8
0
100
AcDbText
 10
10955.740541602081
 20
1236.3536041939253
 30
0.0
 40
8.0
  1
O08_SMOOTH_LOWER_O1_A_A_A
100
AcDbText
  0
LWPOLYLINE
  5
73
330
17
100
AcDbEntity
  8
0
100
AcDbPolyline
 90
21
 70
1
 10
11366.610121612759
 20
225.69752307625092
 10
11485.700870320063
 20
229.48833133619996
 10
11577.660234089777
 20
232.00588385414335
 10
11645.97215957567
 20
232.51999394386598
 10
11695.46386877307
 20
231.14049926853434
 10
11741.677432634393
 20
228.96851677885326
 10
11795.90041618031
 20
225.17266143465488
 10
11791.176018864877
 20
165.8287009666188
 10
11783.16199266987
 20
118.32804801562244
 10
11771.136841816944
 20
71.26767775262405
 10
11752.427612794661
 20
15.0
 10
11698.902519556217
 20
25.16696189950136
 10
11651.563825194433
 20
33.396806837413635
 10
11601.452471288912
 20
41.9634865757414
 10
11533.001711826118
 20
51.56428291529619
 10
11441.595946967913
 20
63.460504818461146
 10
11317.399714455156
 20
79.30740539353516
 10
11343.429376000266
 20
125.8034935556667
 10
11356.059681053372
 20
155.5618895880404
 10
11363.699196906406
 20
184.78085306296367
 10
11366.610121612759
 20
225.69752307625092
  0
TEXT
  5
74
330
17
100
AcDbEntity
  8
0
100
AcDbText
 10
11575.26676829495
 20
141.05338305477324
 30
0.0
 40
8.0
  1
H08_CANOPY_O3_A_B_A
100
AcDbText
  0
LWPOLYLINE
  5
75
330
17
100
AcDbEntity
  8
0
100
AcDbPolyline
 90
23
 70
1
 10
11317.399714455156
 20
515.5396941405459
 10
11444.223864597112
 20
511.77568980757746
 10
11536.483110120085
 20
509.87715342857524
 10
11606.216709455408
 20
509.750207921038
 10
11658.005881125122
 20
511.77561681468273
 10
11707.366981985251
 20
513.4746308739406
 10
11762.363271931037
 20
515.26487315721
 10
11776.086758635223
 20
457.2442264890253
 10
11783.272745634016
 20
408.36460076589066
 10
11786.212655344689
 20
359.7924822463399
 10
11785.126924459977
 20
311.7411570772837
 10
11779.648238715788
 20
252.51999394386598
 10
11725.646339860878
 20
258.26557724011434
 10
11679.77908415188
 20
263.438163918736
 10
11630.646198804183
 20
269.8754891693578
 10
11563.216189755705
 20
281.711057636467
 10
11473.066488412227
 20
300.91874057724317
 10
11357.27710074242
 20
327.76253700363407
 10
11360.96998096003
 20
368.5712821867927
 10
11359.74011805759
 20
399.1178879860881
 10
11354.017373977009
 20
430.78153153129625
 10
11343.175006993377
 20
463.5027357361187
 10
11317.399714455156
 20
515.5396941405459
  0
TEXT
  5
76
330
17
100
AcDbEntity
  8
0
100
AcDbText
 10
11569.884367505623
 20
402.4610879909726
 30
0.0
 40
8.0
  1
H08_CANOPY_O2_A_B_B
100
AcDbText
  0
LWPOLYLINE
  5
77
330
17
100
AcDbEntity
  8
0
100
AcDbPolyline
 90
25
 70
1
 10
11317.399714455156
 20
780.587586296809
 10
11407.996376206565
 20
797.1831218704262
 10
11471.424862690283
 20
795.5810153141598
 10
11529.97336755359
 20
790.9899793808803
 10
11585.23204097528
 20
790.7906353878197
 10
11640.893520360292
 20
788.4852044662882
 10
11699.207681678481
 20
784.8531592951421
 10
11718.506900933946
 20
765.2808878563451
 10
11732.44100757604
 20
745.7141719255989
 10
11743.003379560114
 20
719.753380697163
 10
11749.619879393065
 20
683.9951143239144
 10
11752.398379866798
 20
634.4451391293854
 10
11751.1838584878
 20
535.5396941405459
 10
11673.200794803177
 20
624.5297330138087
 10
11614.640820106562
 20
671.6858729612961
 10
11555.77822544765
 20
697.8538271163558
 10
11491.94824065757
 20
713.5690592123306
 10
11422.341563864735
 20
719.3306175173543
 10
11337.342628679075
 20
727.6129059968413
 10
11338.091369959875
 20
749.7318033506785
 10
11337.982782192305
 20
756.8733547112912
 10
11337.503010712331
 20
760.9181759656049
 10
11336.977258335177
 20
762.6770070699988
 10
11336.781189475289
 20
763.0185410305354
 10
11317.399714455156
 20
780.587586296809
  0
TEXT
  5
78
330
17
100
AcDbEntity
  8
0
100
AcDbText
 10
11527.970742737052
 20
733.6635029730953
 30
0.0
 40
8.0
  1
O08_SMOOTH_LOWER_O6_A_A_A
100
AcDbText
  0
LWPOLYLINE
  5
79
330
17
100
AcDbEntity
  8
0
100
AcDbPolyline
 90
5
 70
1
 10
11317.399714455156
 20
817.1831218704262
 10
11317.399714455156
 20
951.1831218704262
 10
11737.361849542627
 20
951.1831218704262
 10
11737.361849542627
 20
817.1831218704262
 10
11317.399714455156
 20
817.1831218704262
  0
TEXT
  5
7A
330
17
100
AcDbEntity
  8
0
100
AcDbText
 10
11485.384568490144
 20
870.7831218704263
 30
0.0
 40
8.0
  1
Z04_ELECTRIC_SERVICE_STORM_LAP
100
AcDbText
  0
LWPOLYLINE
  5
7B
330
17
100
AcDbEntity
  8
0
100
AcDbPolyline
 90
19
 70
1
 10
11398.935487942434
 20
1159.5585253854751
 10
11465.958370601244
 20
1160.1651568093473
 10
11520.706004196742
 20
1161.2009768032729
 10
11569.6743808386
 20
1161.055115505404
 10
11619.379705848958
 20
1162.514234804449
 10
11668.179805150634
 20
1163.1405883759583
 10
11735.298869965509
 20
1157.7507746432811
 10
11656.984082431598
 20
1060.5780947793542
 10
11609.848077657856
 20
1010.030185953631
 10
11568.96932470196
 20
971.1831218704261
 10
11530.638564310115
 20
994.7847465076011
 10
11497.572583861836
 20
1012.015357928904
 10
11462.553979874916
 20
1029.2896565321685
 10
11427.109519618682
 20
1046.876331677895
 10
11386.397253709474
 20
1064.2201503353353
 10
11317.399714455156
 20
1091.6750905793817
 10
11354.299502561198
 20
1115.85430981813
 10
11372.808629889958
 20
1130.9711362162318
 10
11398.935487942434
 20
1159.5585253854751
  0
TEXT
  5
7C
330
17
100
AcDbEntity
  8
0
100
AcDbText
 10
11503.244702397855
 20
1095.3906357848273
 30
0.0
 40
8.0
  1
O08_SMOOTH_LOWER_O1_A_A_B_B
100
AcDbText
  0
LWPOLYLINE
  5
7D
330
17
100
AcDbEntity
  8
0
100
AcDbPolyline
 90
31
 70
1
 10
11815.90041618031
 20
426.11407623081203
 10
11876.760226836212
 20
415.21919361794676
 10
11916.4972121078
 20
412.371380116545
 10
11955.640152214983
 20
412.05226474453264
 10
11994.901209654136
 20
413.0349025964345
 10
12033.620679098287
 20
416.25777819927976
 10
12082.755420910873
 20
424.52597434352305
 10
12095.617303967332
 20
379.6018228989417
 10
12106.604958442285
 20
345.53433536656394
 10
12118.73246680257
 20
311.8647531003142
 10
12131.943470087117
 20
278.6089977336695
 10
12146.179370361871
 20
245.79091614739855
 10
12161.39021404536
 20
213.43751143311727
 10
12177.545126190857
 20
181.59172087005552
 10
12194.657322260595
 20
150.35100274138637
 10
12219.315518781183
 20
109.20711305287642
 10
12175.06719280301
 20
83.64524325016623
 10
12141.07938302234
 20
65.61138912833826
 10
12106.677509613319
 20
49.64984087460431
 10
12071.701945770592
 20
36.18406648942499
 10
12035.695711661749
 20
25.4353585236924
 10
11990.529511039018
 20
15.0
 10
11962.979920966502
 20
62.48406705583267
 10
11940.91661638236
 20
103.26078556167397
 10
11919.972338859476
 20
144.78525564828567
 10
11900.197646574235
 20
187.03649892454897
 10
11881.653314719739
 20
229.98094302487462
 10
11864.403383148532
 20
273.5781250160392
 10
11848.511068122516
 20
317.780901493764
 10
11834.043413730717
 20
362.54434103439627
 10
11815.90041618031
 20
426.11407623081203
  0
TEXT
  5
7E
330
17
100
AcDbEntity
  8
0
100
AcDbText
 10
12016.690014210842
 20
242.53724630483396
 30
0.0
 40
8.0
  1
H08_CANOPY_O1_B_B
100
AcDbText
  0
LWPOLYLINE
  5
7F
330
17
100
AcDbEntity
  8
0
100
AcDbPolyline
 90
17
 70
1
 10
11956.390995821692
 20
625.5988082018192
 10
12020.260894028923
 20
640.3756511078169
 10
12069.103335053269
 20
643.6904260440878
 10
12112.343987312392
 20
641.0268211829211
 10
12154.683100732971
 20
635.4802070877848
 10
12214.78815216814
 20
622.4951212206247
 10
12173.53253364707
 20
571.0545119536727
 10
12144.792838536418
 20
534.5537356324297
 10
12112.841579073283
 20
492.1207653996124
 10
12062.099068885535
 20
496.0698286707301
 10
12017.077185676497
 20
495.42572506654665
 10
11971.088253365415
 20
491.4762135966677
 10
11919.311769047006
 20
480.94589987863344
 10
11815.90041618031
 20
446.11407623081203
 10
11878.04057438003
 20
526.2280372277855
 10
11916.23925884936
 20
574.2759384652032
 10
11956.390995821692
 20
625.5988082018192
  0
TEXT
  5
80
330
17
100
AcDbEntity
  8
0
100
AcDbText
 10
12029.110878739999
 20
561.3253279511158
 30
0.0
 40
8.0
  1
H08_CANOPY_O4_B_A_B_B
100
AcDbText
  0
LWPOLYLINE
  5
81
330
17
100
AcDbEntity
  8
0
100
AcDbPolyline
 90
29
 70
1
 10
11815.90041618031
 20
950.6002093208231
 10
11871.150261563494
 20
953.4105657836828
 10
11914.101685790924
 20
955.2450752787971
 10
11957.04727167747
 20
956.752304986792
 10
12000.198640977875
 20
957.7864282073479
 10
12043.65013648433
 20
957.8040603076076
 10
12087.19370248436
 20
956.7248393343292
 10
12130.661687765483
 20
954.5436712788872
 10
12184.722064778573
 20
950.3473892777089
 10
12185.266964506727
 20
888.5955582032418
 10
12186.644528692777
 20
843.0830269132564
 10
12188.541588985707
 20
800.2556894554134
 10
12190.722006682623
 20
758.7727283760483
 10
12193.08914942628
 20
717.9531332034742
 10
12196.450073958422
 20
664.606215970669
 10
12141.005000564128
 20
664.9401132177908
 10
12098.46398509483
 20
665.1319597679826
 10
12056.007651594267
 20
665.1576139631193
 10
12013.640211243659
 20
664.9080542217159
 10
11971.261093634621
 20
664.3643539251975
 10
11928.717079814118
 20
664.0413006180486
 10
11886.012526393626
 20
663.8898304718284
 10
11831.838633775966
 20
663.6904260440879
 10
11828.844601371222
 20
718.6735752775155
 10
11826.605788845827
 20
762.364278601134
 10
11824.429292757331
 20
806.1419186516387
 10
11822.199069770159
 20
850.0242832795566
 10
11819.687774795906
 20
894.0604425045924
 10
11815.90041618031
 20
950.6002093208231
  0
TEXT
  5
82
330
17
100
AcDbEntity
  8
0
100
AcDbText
 10
12000.34321744108
 20
812.5679053711417
 30
0.0
 40
8.0
  1
L08_CONTINUOUS_COVER_O1_A_B
100
AcDbText
  0
LWPOLYLINE
  5
83
330
17
100
AcDbEntity
  8
0
100
AcDbPolyline
 90
29
 70
1
 10
11831.365727193068
 20
1271.5844691571326
 10
11885.591480724988
 20
1271.1847593483392
 10
11928.242071861137
 20
1271.0875215146623
 10
11970.751829920582
 20
1270.9906033113925
 10
12013.1271493771
 20
1270.7498742151333
 10
12055.510984538945
 20
1270.7717560231138
 10
12097.991333353866
 20
1270.9901895146013
 10
12140.564353565975
 20
1271.2808782570244
 10
12195.964001813221
 20
1271.5657222472591
 10
12192.827810813984
 20
1218.2417120434038
 10
12190.435729733323
 20
1177.3850294449564
 10
12188.162301540231
 20
1135.9012536335226
 10
12186.201042486475
 20
1093.0987296980297
 10
12184.888759856056
 20
1047.6264952809142
 10
12184.683290050496
 20
985.8253732593848
 10
12130.564583032377
 20
981.6781696738947
 10
12087.136732400313
 20
979.4155190445497
 10
12043.633756984653
 20
978.1201276008198
 10
12000.205276707326
 20
977.8040603076076
 10
11957.030380093482
 20
978.4662905632607
 10
11914.01829419398
 20
979.7614634254426
 10
11871.018866237155
 20
981.6538539808819
 10
11815.90041618031
 20
984.6467834493293
 10
11819.24827026222
 20
1041.1057110892616
 10
11821.616294276617
 20
1085.2057238460413
 10
11823.920440703401
 20
1129.1207277429426
 10
11826.244336859374
 20
1172.8956624983803
 10
11828.563420731145
 20
1216.5409639708846
 10
11831.365727193068
 20
1271.5844691571326
  0
TEXT
  5
84
330
17
100
AcDbEntity
  8
0
100
AcDbText
 10
12000.578436644308
 20
1132.975306665493
 30
0.0
 40
8.0
  1
L08_CONTINUOUS_COVER_O4_A_B
100
AcDbText
  0
LWPOLYLINE
  5
85
330
17
100
AcDbEntity
  8
0
100
AcDbPolyline
 90
25
 70
1
 10
12252.707486768002
 20
402.6112130299553
 10
12317.394407487991
 20
401.6865274405856
 10
12371.44466001939
 20
401.2675321843681
 10
12425.634864652066
 20
401.11198522585005
 10
12480.00597350115
 20
401.2356841417356
 10
12534.622008214483
 20
401.65369338336916
 10
12603.80277231371
 20
402.6635351146404
 10
12598.200357020587
 20
363.9364993669924
 10
12595.103967987841
 20
335.49213061982147
 10
12592.879800212015
 20
296.28941293533677
 10
12591.790164729282
 20
238.75388120083227
 10
12591.913988762706
 20
155.58148707251533
 10
12593.441170271917
 20
27.945755195265008
 10
12526.092117256181
 20
24.957023072149752
 10
12470.97888982004
 20
22.17846392618833
 10
12416.129933884475
 20
19.930673100803745
 10
12361.557768664848
 20
18.14970651006422
 10
12307.193004645576
 20
16.633321084929662
 10
12240.816152588206
 20
15.0
 10
12239.31551878118
 20
145.71648941735302
 10
12239.759592849661
 20
231.08887722700342
 10
12241.557331039776
 20
290.75417519521545
 10
12244.31470671676
 20
332.43503495325257
 10
12247.693495079326
 20
363.8621001610972
 10
12252.707486768002
 20
402.6112130299553
  0
TEXT
  5
86
330
17
100
AcDbEntity
  8
0
100
AcDbText
 10
12413.48230480141
 20
244.54185658357125
 30
0.0
 40
8.0
  1
O08_SMOOTH_LOWER_O6_B_B_A
100
AcDbText
  0
LWPOLYLINE
  5
87
330
17
100
AcDbEntity
  8
0
100
AcDbPolyline
 90
13
 70
1
 10
12239.31551878118
 20
597.5877551006055
 10
12350.553095091062
 20
590.6253429571378
 10
12408.173770207517
 20
595.2898458755589
 10
12456.031874446291
 20
561.0037254951233
 10
12499.697723758962
 20
528.3045926233858
 10
12542.308884017433
 20
494.4923554559955
 10
12602.046292418243
 20
444.58914489524443
 10
12534.059847509843
 20
428.27261537192817
 10
12471.195036576504
 20
422.6635351146404
 10
12420.714694093145
 20
463.82987994472376
 10
12372.768721065459
 20
501.0836944788323
 10
12323.856050209428
 20
537.6871051536333
 10
12239.31551878118
 20
597.5877551006055
  0
TEXT
  5
88
330
17
100
AcDbEntity
  8
0
100
AcDbText
 10
12420.002848227405
 20
520.2321036590318
 30
0.0
 40
8.0
  1
H08_CANOPY_O1_B_A_A_A
100
AcDbText
  0
LWPOLYLINE
  5
89
330
17
100
AcDbEntity
  8
0
100
AcDbPolyline
 90
31
 70
1
 10
12239.31551878118
 20
1038.460043586196
 10
12291.854605149822
 20
1032.4009413468561
 10
12327.81799476857
 20
1030.3604562833007
 10
12363.855936078828
 20
1030.49758722854
 10
12400.70125101039
 20
1031.932747759254
 10
12438.41797826479
 20
1034.1481491469342
 10
12487.737191128443
 20
1037.3686845748216
 10
12495.758869788271
 20
991.4374739687255
 10
12502.564086845783
 20
956.4134669648664
 10
12510.157307526524
 20
921.6130497535994
 10
12518.541608989754
 20
887.0304515131216
 10
12527.717487676238
 20
852.6838811135088
 10
12537.694826639354
 20
818.5981952421187
 10
12548.505174177159
 20
784.8187555120921
 10
12560.244324500072
 20
751.4590541479017
 10
12577.634552667487
 20
707.6849551111249
 10
12531.934003277527
 20
687.5789543517889
 10
12497.356085742465
 20
672.3590748679694
 10
12463.3764598544
 20
657.968632806876
 10
12430.027194758119
 20
644.7805101902143
 10
12396.815961603637
 20
632.5997238424484
 10
12352.586682887464
 20
617.5877551006056
 10
12332.384193703707
 20
670.4620026426244
 10
12317.473283565116
 20
713.1621635270619
 10
12303.650936592183
 20
756.2603837096551
 10
12290.896481736887
 20
799.7647630788492
 10
12279.19948897621
 20
843.6658908930408
 10
12268.54632046108
 20
887.9476866292048
 10
12258.90197866439
 20
932.5785665438945
 10
12250.165563233933
 20
977.5022291489596
 10
12239.31551878118
 20
1038.460043586196
  0
TEXT
  5
8A
330
17
100
AcDbEntity
  8
0
100
AcDbText
 10
12404.553189284872
 20
852.8898798120113
 30
0.0
 40
8.0
  1
H08_CANOPY_O2_B_B
100
AcDbText
  0
LWPOLYLINE
  5
8B
330
17
100
AcDbEntity
  8
0
100
AcDbPolyline
 90
19
 70
1
 10
12239.31551878118
 20
1233.6943531345576
 10
12314.354906346185
 20
1222.0948532275013
 10
12356.677793636072
 20
1219.196622090505
 10
12395.191480525238
 20
1220.4380047882073
 10
12433.363574243409
 20
1221.7597880871333
 10
12469.857142725663
 20
1224.4422753496515
 10
12514.171355668024
 20
1230.9675018716287
 10
12531.76856506221
 20
1188.2633560561696
 10
12546.815933680453
 20
1143.1317878729897
 10
12569.451281256395
 20
1058.460043586196
 10
12511.822671768306
 20
1069.0142128426112
 10
12470.645931178382
 20
1079.750652644833
 10
12428.891683250917
 20
1092.311583570921
 10
12386.648142069553
 20
1104.553870135492
 10
12339.728137762604
 20
1121.6180439500142
 10
12282.78836057595
 20
1146.6397719165523
 10
12273.878350628473
 20
1175.3714162412116
 10
12265.48718528385
 20
1193.5237381029217
 10
12239.31551878118
 20
1233.6943531345576
  0
TEXT
  5
8C
330
17
100
AcDbEntity
  8
0
100
AcDbText
 10
12398.430185959161
 20
1167.3119067686132
 30
0.0
 40
8.0
  1
O08_SMOOTH_LOWER_O6_A_A_B_A
100
AcDbText
  0
LWPOLYLINE
  5
8D
330
17
100
AcDbEntity
  8
0
100
AcDbPolyline
 90
89
 70
1
 10
12623.80277231371
 20
571.3055354874032
 10
12661.124929372589
 20
571.3055354876211
 10
12686.29614998721
 20
571.3055354879964
 10
12711.467370601853
 20
571.3055354885181
 10
12736.638591216559
 20
571.3055354890168
 10
12761.809811831172
 20
571.3055354889806
 10
12786.981032445805
 20
571.305535489645
 10
12812.152253060416
 20
571.3055354903447
 10
12837.323473675227
 20
571.3055354906109
 10
12862.494694289839
 20
571.3055354907997
 10
12887.665914904794
 20
571.3055354901353
 10
12912.837135519689
 20
571.3055354886799
 10
12949.859294590979
 20
571.3055354869065
 10
12950.215566109939
 20
542.8036226849241
 10
12950.410401309844
 20
526.1454322978446
 10
12950.591799956004
 20
509.49036946702313
 10
12950.75976203033
 20
492.8382113036495
 10
12950.914287515758
 20
476.1887348029618
 10
12951.055376396538
 20
459.54171685323513
 10
12951.183028658617
 20
442.8969342447223
 10
12951.297244289228
 20
426.2541636779466
 10
12951.398023276737
 20
409.6131817727919
 10
12951.485365610548
 20
392.973765077453
 10
12951.559271281556
 20
376.3356900777659
 10
12951.619740281987
 20
359.6987332056857
 10
12951.666772605084
 20
343.06267084814533
 10
12951.700368245349
 20
326.4272793564045
 10
12951.72052719887
 20
309.7923350550841
 10
12951.727249463203
 20
293.15761425081195
 10
12951.72053503696
 20
276.52289324097757
 10
12951.700383919882
 20
259.8879483230799
 10
12951.66679611326
 20
243.2525558039365
 10
12951.619771619895
 20
226.616492008327
 10
12951.5593104438
 20
209.979533287785
 10
12951.485412589964
 20
193.3414560296037
 10
12951.39807806474
 20
176.7020366662427
 10
12951.297306875971
 20
160.0610516840942
 10
12951.183099032958
 20
143.41827763230458
 10
12951.055454545947
 20
126.77349113135165
 10
12950.914373426542
 20
110.12646888263316
 10
12950.759855687886
 20
93.4769876771839
 10
12950.591901344518
 20
76.82482440432443
 10
12950.41051041209
 20
60.16975606042172
 10
12950.21568290765
 20
43.51155975812503
 10
12949.85929468688
 20
15.000000010048666
 10
12912.837135613967
 20
15.000000005607717
 10
12887.665914999188
 20
15.000000003212222
 10
12862.494694384597
 20
15.000000001020112
 10
12837.32347376951
 20
15.000000000080377
 10
12812.152253154616
 20
15.0
 10
12786.98103253962
 20
15.00000000101113
 10
12761.809811925137
 20
15.00000000205614
 10
12736.638591310832
 20
15.000000002787488
 10
12711.467370696599
 20
15.000000003505647
 10
12686.296150082493
 20
15.000000003060222
 10
12661.124929468167
 20
15.000000002338084
 10
12623.802772410505
 20
15.000000000393811
 10
12624.162733290523
 20
43.79706390616502
 10
12624.357338917474
 20
60.43595744549117
 10
12624.538523384277
 20
77.07171179994049
 10
12624.706286708331
 20
93.70455066368982
 10
12624.860628905835
 20
110.33469784922721
 10
12625.001549991752
 20
126.96237727823632
 10
12625.129049979638
 20
143.58781297270917
 10
12625.24312888203
 20
160.2112290457943
 10
12625.343786709922
 20
176.8328496927104
 10
12625.43102347305
 20
193.45289918185506
 10
12625.504839180107
 20
210.07160184559194
 10
12625.56523383848
 20
226.68918207107498
 10
12625.612207454393
 20
243.30586429113487
 10
12625.645760032718
 20
259.9218729749829
 10
12625.665891576507
 20
276.53743261941446
 10
12625.672602087941
 20
293.1527677396926
 10
12625.665891567798
 20
309.7681028600023
 10
12625.645760015335
 20
326.383662504577
 10
12625.612207428592
 20
342.9996711885641
 10
12625.565233804224
 20
359.6163534088395
 10
12625.504839137777
 20
376.23393363472974
 10
12625.4310234231
 20
392.85263629883127
 10
12625.343786652536
 20
409.47268578835667
 10
12625.243128817634
 20
426.0943064358226
 10
12625.12904990885
 20
442.71772250957906
 10
12625.001549915232
 20
459.34315820483
 10
12624.860628824455
 20
475.970837634625
 10
12624.706286622748
 20
492.60098482095447
 10
12624.538523295294
 20
509.23382368555895
 10
12624.357338825928
 20
525.8695780407863
 10
12624.16273319695
 20
542.5084715806466
 10
12623.80277231371
 20
571.3055354874032
  0
TEXT
  5
8E
330
17
100
AcDbEntity
  8
0
100
AcDbText
 10
12785.964061160303
 20
296.279764993488
 30
0.0
 40
8.0
  1
K08_FLAP_OUTER
100
AcDbText
  0
LWPOLYLINE
  5
8F
330
17
100
AcDbEntity
  8
0
100
AcDbPolyline
 90
15
 70
1
 10
12707.87852929688
 20
722.4017905654335
 10
12767.613959478584
 20
733.0931035758764
 10
12812.29572963385
 20
734.4717241734224
 10
12852.345898232034
 20
732.1471591136152
 10
12892.180106286018
 20
728.7753101030032
 10
12950.276998867952
 20
720.9232114435642
 10
12915.828082281143
 20
665.852599875952
 10
12887.841865240687
 20
620.2878640559622
 10
12839.62202373249
 20
622.1016890518656
 10
12798.359677527285
 20
621.2640700388667
 10
12756.92251041071
 20
619.2157319501329
 10
12711.265656930558
 20
613.3476667845305
 10
12623.80277231371
 20
591.3055354907997
 10
12673.263706331189
 20
667.5426773902318
 10
12707.87852929688
 20
722.4017905654335
  0
TEXT
  5
90
330
17
100
AcDbEntity
  8
0
100
AcDbText
 10
12793.158403057332
 20
674.3421282785795
 30
0.0
 40
8.0
  1
H08_CANOPY_O4_B_A_B_A
100
AcDbText
  0
LWPOLYLINE
  5
91
330
17
100
AcDbEntity
  8
0
100
AcDbPolyline
 90
15
 70
1
 10
12623.80277231371
 20
882.6564190359732
 10
12707.615026404508
 20
871.1334548058234
 10
12751.658772682738
 20
870.6482227165181
 10
12791.889588387854
 20
872.621528699333
 10
12832.126711462879
 20
874.9811250006499
 10
12879.53836637822
 20
879.5995915034682
 10
12908.972724614727
 20
834.8252589670225
 10
12944.954541415267
 20
781.5240289095422
 10
12888.846997012653
 20
770.4785009706159
 10
12850.574807787327
 20
764.1014528034417
 10
12812.231536004369
 20
758.0714051149765
 10
12769.440960378859
 20
754.4717241734224
 10
12710.888010343258
 20
758.1949781036207
 10
12674.941548065939
 20
811.7080951224988
 10
12623.80277231371
 20
882.6564190359732
  0
TEXT
  5
92
330
17
100
AcDbEntity
  8
0
100
AcDbText
 10
12784.752342371066
 20
824.5114803308585
 30
0.0
 40
8.0
  1
H08_CANOPY_O1_B_A_B_A
100
AcDbText
  0
LWPOLYLINE
  5
93
330
17
100
AcDbEntity
  8
0
100
AcDbPolyline
 90
15
 70
1
 10
12693.208590379147
 20
1095.722827512903
 10
12880.958304690517
 20
1122.4806987528007
 10
12942.120538508967
 20
1090.3027767011442
 10
12922.524495529327
 20
1048.9220463572688
 10
12907.162303517833
 20
1018.6932706685061
 10
12890.353219543074
 20
986.3936142235266
 10
12871.849457404085
 20
951.2375257884819
 10
12846.31070515151
 20
902.6564190359732
 10
12790.75672339218
 20
931.3805456080845
 10
12623.80277231371
 20
928.4112282258161
 10
12647.43682429233
 20
975.0564790263556
 10
12661.03944258039
 20
1001.7626057148805
 10
12673.352778938284
 20
1026.8236526931087
 10
12684.456515706855
 20
1052.1842574640261
 10
12693.208590379147
 20
1095.722827512903
  0
TEXT
  5
94
330
17
100
AcDbEntity
  8
0
100
AcDbText
 10
12781.902750821822
 20
1015.183385019052
 30
0.0
 40
8.0
  1
O08_SMOOTH_LOWER_O2_A_B_B_B_B
100
AcDbText
  0
LWPOLYLINE
  5
95
330
17
100
AcDbEntity
  8
0
100
AcDbPolyline
 90
21
 70
1
 10
12971.727249463205
 20
359.48312037011846
 10
13043.764217435779
 20
355.6465380266708
 10
13093.823166407472
 20
354.4393955117491
 10
13141.694803776021
 20
355.51009067961195
 10
13197.48887846919
 20
358.99370128325614
 10
13215.500673101234
 20
300.5703640688538
 10
13228.369161579201
 20
255.70757201793577
 10
13240.730530031842
 20
212.8652722753727
 10
13253.26399543455
 20
170.65919723733884
 10
13266.06628604226
 20
128.56881877028746
 10
13282.630809309534
 20
74.85253768684612
 10
13229.976313906436
 20
59.26662923021735
 10
13189.437892879612
 20
46.497332583604475
 10
13149.161911208696
 20
33.075134936807615
 10
13097.187796862032
 20
15.0
 10
13081.112397784356
 20
68.7394845163397
 10
13068.827828909107
 20
110.87113275649054
 10
13056.165130678333
 20
154.47076126780794
 10
13040.913670658529
 20
202.63426405275618
 10
13018.195582868697
 20
261.68626582330296
 10
12971.727249463205
 20
359.48312037011846
  0
TEXT
  5
96
330
17
100
AcDbEntity
  8
0
100
AcDbText
 10
13135.131692679492
 20
201.8581301650232
 30
0.0
 40
8.0
  1
L08_CONTINUOUS_COVER_O1_A_A_A
100
AcDbText
  0
LWPOLYLINE
  5
97
330
17
100
AcDbEntity
  8
0
100
AcDbPolyline
 90
17
 70
1
 10
12971.727249463205
 20
555.5692306896419
 10
13045.487305248142
 20
548.8495392276755
 10
13086.235319458689
 20
550.0450363648558
 10
13124.576449402564
 20
552.0375972531666
 10
13163.32997523092
 20
552.7517700948133
 10
13209.8566070008
 20
553.691121513792
 10
13233.67762430431
 20
505.4286132087829
 10
13253.805948488343
 20
464.0440279844536
 10
13281.176989543608
 20
408.39109339057114
 10
13228.753530752256
 20
399.82081309524324
 10
13193.004479094008
 20
393.65623916339837
 10
13157.574309144258
 20
386.5913132307122
 10
13119.086297902599
 20
380.40998873483113
 10
13065.378851047772
 20
379.4831203701184
 10
13037.292547157813
 20
435.6683079522147
 10
13011.348019248868
 20
485.5909192074844
 10
12971.727249463205
 20
555.5692306896419
  0
TEXT
  5
98
330
17
100
AcDbEntity
  8
0
100
AcDbText
 10
13126.708161879491
 20
476.9175271865528
 30
0.0
 40
8.0
  1
H08_CANOPY_O1_B_A_B_B
100
AcDbText
  0
LWPOLYLINE
  5
99
330
17
100
AcDbEntity
  8
0
100
AcDbPolyline
 90
19
 70
1
 10
13022.414585292521
 20
859.3215164229771
 10
13067.792717164933
 20
871.0382834143662
 10
13106.599099875459
 20
875.7290720351037
 10
13146.399759935593
 20
876.3981094043203
 10
13186.806073778242
 20
873.6483762689597
 10
13226.897994702958
 20
868.3718776880819
 10
13278.228351790109
 20
858.9126693475737
 10
13241.628983559307
 20
723.8099616974799
 10
13221.695849241982
 20
642.5761980854697
 10
13210.128317272778
 20
575.5692306896419
 10
13160.98124689375
 20
589.831651531217
 10
13124.32825118867
 20
600.2872819356221
 10
13088.115738198934
 20
609.8859102852082
 10
13052.985808964635
 20
617.8292217222056
 10
13019.054381885773
 20
623.3999186505022
 10
12971.727249463205
 20
626.9396152464213
 10
12980.947509063373
 20
686.3464034112983
 10
12995.247374377963
 20
753.7534957657849
 10
13022.414585292521
 20
859.3215164229771
  0
TEXT
  5
9A
330
17
100
AcDbEntity
  8
0
100
AcDbText
 10
13111.81020410225
 20
736.4721215802741
 30
0.0
 40
8.0
  1
O08_SMOOTH_LOWER_O1_A_B_B_A
100
AcDbText
  0
LWPOLYLINE
  5
9B
330
17
100
AcDbEntity
  8
0
100
AcDbPolyline
 90
9
 70
1
 10
12971.727249463205
 20
896.3981094043203
 10
13036.495199471736
 20
1032.2708062541053
 10
13068.774403469548
 20
1111.9336070383674
 10
13087.25777665667
 20
1177.9087932651673
 10
13273.089252315865
 20
1104.6690188530692
 10
13267.212411413206
 20
1051.23643449734
 10
13249.010944544245
 20
989.6748622693877
 10
13209.992715312164
 20
896.3981094043203
 10
12971.727249463205
 20
896.3981094043203
  0
TEXT
  5
9C
330
17
100
AcDbEntity
  8
0
100
AcDbText
 10
13126.14302245665
 20
1017.4319833767111
 30
0.0
 40
8.0
  1
O08_SMOOTH_LOWER_O1_A_B_B_B_B_B_A
100
AcDbText
  0
LWPOLYLINE
  5
9D
330
17
100
AcDbEntity
  8
0
100
AcDbPolyline
 90
15
 70
1
 10
12971.727249463205
 20
1394.5524151506486
 10
13045.108283924928
 20
1388.5189258266748
 10
13090.119871991474
 20
1388.6363266486458
 10
13140.965843991193
 20
1392.9055106357605
 10
13172.879238736106
 20
1350.34086296264
 10
13201.405364729466
 20
1313.724495576613
 10
13230.56731002199
 20
1277.7144203107096
 10
13272.9748139041
 20
1227.7334136667826
 10
13214.723171495743
 20
1212.7845450934776
 10
13174.269137201278
 20
1204.8308160058073
 10
13127.069899415068
 20
1197.9087932651673
 10
13088.191994978866
 20
1244.4490819692107
 10
13054.174801020694
 20
1286.766133381491
 10
13020.813450794207
 20
1329.7729579171635
 10
12971.727249463205
 20
1394.5524151506486
  0
TEXT
  5
9E
330
17
100
AcDbEntity
  8
0
100
AcDbText
 10
13118.447845408771
 20
1307.0127409040963
 30
0.0
 40
8.0
  1
H08_CANOPY_O1_B_A_A_B
100
AcDbText
  0
LWPOLYLINE
  5
9F
330
17
100
AcDbEntity
  8
0
100
AcDbPolyline
 90
15
 70
1
 10
13302.630809309534
 20
247.3703923505796
 10
13462.65533992801
 20
228.09574900834642
 10
13522.179786064806
 20
248.38284640954188
 10
13540.982811747648
 20
193.67976536642294
 10
13554.928294727937
 20
153.0189785609054
 10
13567.7720281497
 20
115.39849707315211
 10
13579.303706022654
 20
80.85732078853727
 10
13593.376597792862
 20
37.53511125118814
 10
13527.431039244388
 20
15.0
 10
13355.210592258562
 20
76.7057939707039
 10
13348.015256307472
 20
111.3953102114671
 10
13340.007577702652
 20
137.7716233050624
 10
13330.549218716857
 20
166.0793913686502
 10
13320.152906948775
 20
196.64956593757256
 10
13302.630809309534
 20
247.3703923505796
  0
TEXT
  5
A0
330
17
100
AcDbEntity
  8
0
100
AcDbText
 10
13443.188451615428
 20
150.3540491968473
 30
0.0
 40
8.0
  1
O08_SMOOTH_LOWER_O5_A_B_B_B_B
100
AcDbText
  0
LWPOLYLINE
  5
A1
330
17
100
AcDbEntity
  8
0
100
AcDbPolyline
 90
23
 70
1
 10
13302.630809309534
 20
477.33110401062976
 10
13346.978861303482
 20
491.67549210451494
 10
13383.96746262944
 20
496.26979165904083
 10
13421.933855789055
 20
495.5194585887527
 10
13460.245828321673
 20
491.44788804320257
 10
13498.277826018704
 20
486.0258235347691
 10
13545.034449510687
 20
479.7819773841542
 10
13549.979839235484
 20
432.7698816263299
 10
13556.082016768763
 20
401.79293051762545
 10
13563.538882530624
 20
370.341794322312
 10
13571.916199659918
 20
336.3676107464121
 10
13584.80615892884
 20
284.5297769151139
 10
13533.116918599017
 20
285.33567556825597
 10
13496.971301029165
 20
286.53487341028875
 10
13461.46312673709
 20
286.9812998117558
 10
13426.950471859738
 20
285.39724750678755
 10
13393.684130118685
 20
280.61434146699173
 10
13348.998490350772
 20
268.3828464095419
 10
13335.571235738045
 20
322.1974776614858
 10
13326.133600157847
 20
361.0755394778855
 10
13317.879888158679
 20
396.98629223624033
 10
13310.92568565637
 20
431.0483596697902
 10
13302.630809309534
 20
477.33110401062976
  0
TEXT
  5
A2
330
17
100
AcDbEntity
  8
0
100
AcDbText
 10
13436.509471640054
 20
388.0755907253266
 30
0.0
 40
8.0
  1
O08_SMOOTH_LOWER_O2_A_B_A
100
AcDbText
  0
LWPOLYLINE
  5
A3
330
17
100
AcDbEntity
  8
0
100
AcDbPolyline
 90
31
 70
1
 10
13302.630809309534
 20
949.282349479194
 10
13349.460622297001
 20
950.6856122935023
 10
13384.555786848914
 20
951.9545293250659
 10
13420.342041103962
 20
952.7878927003422
 10
13457.32124794356
 20
952.7175260711115
 10
13495.308809779368
 20
951.662093172206
 10
13545.038640759738
 20
949.0300514735786
 10
13545.411148721034
 20
902.077302748075
 10
13546.322806155555
 20
866.5527523213734
 10
13548.02158722333
 20
831.0773863211559
 10
13550.546272231115
 20
795.6452685052237
 10
13553.935280606791
 20
760.274872623951
 10
13558.231115207695
 20
724.9909648358899
 10
13563.486935346948
 20
689.8327740760374
 10
13569.801064036756
 20
654.8906386164026
 10
13579.95620634297
 20
609.2115057581514
 10
13532.602782062979
 20
594.581998080622
 10
13497.095135130603
 20
582.3318058610338
 10
13462.663923608201
 20
569.2699533691682
 10
13429.294176190171
 20
555.357161216667
 10
13396.439307798126
 20
539.9324925632009
 10
13349.622438371654
 20
516.2697916590408
 10
13336.589632646595
 20
576.2785708101974
 10
13328.288546316177
 20
621.4274095750569
 10
13321.281159189622
 20
666.6144331803828
 10
13315.515860908323
 20
711.8272979495418
 10
13310.948603410574
 20
757.0434511279984
 10
13307.531025964987
 20
802.2434078411416
 10
13305.19155205268
 20
847.4021090779469
 10
13303.770900135296
 20
892.4705332394088
 10
13302.630809309534
 20
949.282349479194
  0
TEXT
  5
A4
330
17
100
AcDbEntity
  8
0
100
AcDbText
 10
13434.510846032572
 20
763.709880172641
 30
0.0
 40
8.0
  1
H08_CANOPY_O3_B_B
100
AcDbText
  0
LWPOLYLINE
  5
A5
330
17
100
AcDbEntity
  8
0
100
AcDbPolyline
 90
19
 70
1
 10
13302.630809309534
 20
1197.1183199853429
 10
13364.82608345924
 20
1195.2567801041253
 10
13402.165148781982
 20
1197.948007190238
 10
13438.760373072993
 20
1199.6957663647165
 10
13475.87846784147
 20
1198.7901186835438
 10
13521.424235598788
 20
1196.0763148140484
 10
13536.728575934367
 20
1144.0672225595845
 10
13549.030663630241
 20
1100.0791876744606
 10
13560.905651101035
 20
1056.2253240303205
 10
13576.505318751219
 20
999.1119135242038
 10
13527.56062146104
 20
993.4105611456728
 10
13493.133125858438
 20
988.3978429348116
 10
13458.950779702287
 20
982.0935884156022
 10
13423.17916824237
 20
975.8464124591846
 10
13373.009793599384
 20
972.7878927003422
 10
13356.66445363179
 20
1030.4754032410863
 10
13342.162117869706
 20
1079.7620182706269
 10
13326.474341197993
 20
1129.8295370447818
 10
13302.630809309534
 20
1197.1183199853429
  0
TEXT
  5
A6
330
17
100
AcDbEntity
  8
0
100
AcDbText
 10
13438.55897570281
 20
1096.5310805856861
 30
0.0
 40
8.0
  1
H08_CANOPY_O2_B_A_A
100
AcDbText
  0
LWPOLYLINE
  5
A7
330
17
100
AcDbEntity
  8
0
100
AcDbPolyline
 90
31
 70
1
 10
13634.275990368586
 20
461.3032585722783
 10
13680.085248532087
 20
468.3979173933879
 10
13717.364996436823
 20
472.23925703153265
 10
13754.7987206365
 20
473.35121865276983
 10
13792.723702846044
 20
471.9475587269025
 10
13831.131597170093
 20
468.2861595014343
 10
13881.655364448081
 20
460.9544314398959
 10
13874.507659231773
 20
413.57771155470573
 10
13870.128311645345
 20
378.1419511421831
 10
13866.796225348446
 20
342.58139190860277
 10
13864.563099993155
 20
306.91868726485
 10
13863.482440653634
 20
271.19052361837646
 10
13863.607363386429
 20
235.43942622706925
 10
13864.990717194181
 20
199.7162780701981
 10
13867.696463147568
 20
164.09437120580856
 10
13873.1786417784
 20
117.61260317977826
 10
13824.482562795742
 20
106.82800734929913
 10
13787.611393849693
 20
94.85023676303416
 10
13751.032591309635
 20
80.50078909471398
 10
13714.942640097535
 20
65.15403784276515
 10
13679.132244591452
 20
47.49092590497577
 10
13626.84337976066
 20
15.0
 10
13619.249075739539
 20
80.38028414283161
 10
13615.632234581395
 20
127.32874768020275
 10
13613.69797976786
 20
174.29716045820464
 10
13613.376597792862
 20
221.21100624449485
 10
13614.602287393378
 20
267.99531617463515
 10
13617.30611382651
 20
314.5819029214534
 10
13621.404966143296
 20
360.9065769206815
 10
13626.760871789285
 20
406.9012614139022
 10
13634.275990368586
 20
461.3032585722783
  0
TEXT
  5
A8
330
17
100
AcDbEntity
  8
0
100
AcDbText
 10
13743.914112020148
 20
275.1768469991369
 30
0.0
 40
8.0
  1
H08_CANOPY_O4_B_B
100
AcDbText
  0
LWPOLYLINE
  5
A9
330
17
100
AcDbEntity
  8
0
100
AcDbPolyline
 90
23
 70
1
 10
13646.237744278289
 20
725.4795552335164
 10
13691.937381147289
 20
716.9752131675706
 10
13725.528165450527
 20
714.7529112719117
 10
13759.990333764752
 20
715.455072608548
 10
13795.164878922194
 20
717.9125138149758
 10
13830.840386656893
 20
720.9625191550391
 10
13881.446151112648
 20
724.4001744017902
 10
13873.116389390632
 20
669.6880055082595
 10
13867.376613044498
 20
632.2889184739162
 10
13862.039553033504
 20
597.6724254971465
 10
13857.327117025705
 20
565.6911013787733
 10
13853.003584374223
 20
525.1806927739188
 10
13808.1232895802
 20
515.3119729229494
 10
13771.317256989103
 20
506.32092355669323
 10
13734.079471585883
 20
498.27343492768415
 10
13696.677920948048
 20
493.35121865276983
 10
13659.427041882913
 20
493.89815294482815
 10
13613.376597792862
 20
504.04819097841516
 10
13619.547733539217
 20
549.2324400194651
 10
13624.925205315629
 20
585.5520680988586
 10
13630.913967201896
 20
625.0172910509635
 10
13637.427373280003
 20
667.6834150660477
 10
13646.237744278289
 20
725.4795552335164
  0
TEXT
  5
AA
330
17
100
AcDbEntity
  8
0
100
AcDbText
 10
13742.872256547615
 20
616.9838159451112
 30
0.0
 40
8.0
  1
O08_SMOOTH_LOWER_O5_A_B_A
100
AcDbText
  0
LWPOLYLINE
  5
AB
330
17
100
AcDbEntity
  8
0
100
AcDbPolyline
 90
17
 70
1
 10
13635.97813993178
 20
1078.604894242122
 10
13721.789043976893
 20
1083.587240779783
 10
13866.044447667948
 20
1078.466263066817
 10
13861.056686696702
 20
1059.4590921648419
 10
13860.36203304043
 20
1052.8986093610326
 10
13860.458211482559
 20
1041.315187969391
 10
13861.823771853376
 20
1022.8188363344598
 10
13864.843145848416
 20
995.488988778647
 10
13870.768301724764
 20
951.830902292745
 10
13739.224812343287
 20
795.7764160152121
 10
13639.477541442
 20
745.4795552335164
 10
13623.052656521197
 20
865.9156912875869
 10
13615.435652951724
 20
941.0677094062818
 10
13613.376597792862
 20
993.8106297524123
 10
13616.064329949924
 20
1030.2997102258626
 10
13623.115829535882
 20
1055.6635705973051
 10
13635.97813993178
 20
1078.604894242122
  0
TEXT
  5
AC
330
17
100
AcDbEntity
  8
0
100
AcDbText
 10
13735.814667217148
 20
992.4169524558905
 30
0.0
 40
8.0
  1
O08_SMOOTH_LOWER_O6_B_B_B_B_B
100
AcDbText
  0
LWPOLYLINE
  5
AD
330
17
100
AcDbEntity
  8
0
100
AcDbPolyline
 90
45
 70
1
 10
13662.908677351825
 20
1106.5426200128572
 10
13659.079754228982
 20
1135.2176712208964
 10
13656.623035179464
 20
1153.8977428169999
 10
13654.128497405589
 20
1172.540514372984
 10
13651.57256926081
 20
1191.1667199834526
 10
13648.949660330973
 20
1209.7816246607752
 10
13646.258379647736
 20
1228.3860746337657
 10
13643.497910422067
 20
1246.9798283323905
 10
13640.66745064612
 20
1265.5625210708167
 10
13637.766256199393
 20
1284.1338248356346
 10
13634.793693090864
 20
1302.6934390266076
 10
13631.749247684014
 20
1321.2410693268841
 10
13628.632507131195
 20
1339.7764001986425
 10
13625.443099635131
 20
1358.299003033103
 10
13622.18052044107
 20
1376.8077238702367
 10
13618.844112817704
 20
1395.2903177046442
 10
13613.376597792862
 20
1424.557778945154
 10
13651.662599775953
 20
1435.3397972699727
 10
13679.29269082936
 20
1443.3610936106425
 10
13706.89448327491
 20
1451.556971765337
 10
13734.481312644119
 20
1459.8796155760174
 10
13762.071165509504
 20
1468.2764479433276
 10
13802.942604186159
 20
1480.7289696533403
 10
13808.347101023732
 20
1445.2701430735874
 10
13811.62400103051
 20
1423.5230642313377
 10
13814.9099299241
 20
1401.798292186806
 10
13818.23245599135
 20
1380.0890888073168
 10
13821.602275022748
 20
1358.3905705156344
 10
13825.022096762694
 20
1336.7006515190496
 10
13828.492384155983
 20
1315.0189151972845
 10
13832.013301081157
 20
1293.3454441953086
 10
13835.584999050438
 20
1271.68037265414
 10
13839.20760012972
 20
1250.0238224592092
 10
13842.88119037731
 20
1228.3759164172834
 10
13846.605841154658
 20
1206.73680743177
 10
13850.381682558787
 20
1185.1067745252737
 10
13854.209138635213
 20
1163.486761509427
 10
13858.089378834957
 20
1141.886449626337
 10
13864.538730027936
 20
1106.8085086597775
 10
13822.11221161795
 20
1104.71150709024
 10
13792.992239535846
 20
1103.778351795965
 10
13763.475182799919
 20
1103.587240779783
 10
13733.623533077172
 20
1103.99998103605
 10
13703.43317683766
 20
1104.8715559715677
 10
13662.908677351825
 20
1106.5426200128572
  0
TEXT
  5
AE
330
17
100
AcDbEntity
  8
0
100
AcDbText
 10
13734.313421165945
 20
1275.2833468791218
 30
0.0
 40
8.0
  1
G08_FOREARM_GUSSET_-1_O1b
100
AcDbText
  0
LWPOLYLINE
  5
AF
330
17
100
AcDbEntity
  8
0
100
AcDbPolyline
 90
17
 70
1
 10
13940.882934988083
 20
195.25114195663215
 10
13991.559880232464
 20
198.57678390896163
 10
14028.12420995807
 20
197.36023997615908
 10
14062.995420112413
 20
195.8937656843752
 10
14098.101577878793
 20
195.6944648167767
 10
14148.19855543572
 20
195.96026487423893
 10
14137.697489475644
 20
137.02321043178873
 10
14129.216516293101
 20
92.19822204184456
 10
14119.03197039188
 20
38.90602767653348
 10
14073.893310314777
 20
32.34491742061678
 10
14037.284682209642
 20
27.550154059605006
 10
14000.865194867185
 20
24.93469502219969
 10
13963.351839325162
 20
22.890115689350353
 10
13901.655364448081
 20
15.0
 10
13918.094658810263
 20
84.40189645079658
 10
13929.451005365132
 20
135.6959986639062
 10
13940.882934988083
 20
195.25114195663215
  0
TEXT
  5
B0
330
17
100
AcDbEntity
  8
0
100
AcDbText
 10
14024.781620299676
 20
116.7607670959069
 30
0.0
 40
8.0
  1
H08_CANOPY_O3_B_A_B_B
100
AcDbText
  0
LWPOLYLINE
  5
B1
330
17
100
AcDbEntity
  8
0
100
AcDbPolyline
 90
5
 70
1
 10
13901.655364448081
 20
386.5767839089616
 10
14145.655364448081
 20
386.5767839089616
 10
14145.655364448081
 20
218.5767839089616
 10
13901.655364448081
 20
218.5767839089616
 10
13901.655364448081
 20
386.5767839089616
  0
TEXT
  5
B2
330
17
100
AcDbEntity
  8
0
100
AcDbText
 10
13999.255364448083
 20
319.3767839089616
 30
0.0
 40
8.0
  1
G08_REAR_O
100
AcDbText
  0
LWPOLYLINE
  5
B3
330
17
100
AcDbEntity
  8
0
100
AcDbPolyline
 90
45
 70
1
 10
13943.469449884486
 20
406.63048171658687
 10
13940.253380582182
 20
436.19882798941114
 10
13938.24843416878
 20
454.9305262816661
 10
13936.202676360128
 20
473.6265901096348
 10
13934.093199509312
 20
492.30741701787224
 10
13931.914689634119
 20
510.9785241482479
 10
13929.666175818467
 20
529.6409620245987
 10
13927.34740512647
 20
548.2946502365114
 10
13924.958227613724
 20
566.9393340446104
 10
13922.49850337977
 20
585.5747993759203
 10
13919.968297116891
 20
604.2008889568827
 10
13917.367790994202
 20
622.8174012320404
 10
13914.69718975558
 20
641.4241251992181
 10
13911.956784381502
 20
660.0207115293366
 10
13909.146544567726
 20
678.6059193688802
 10
13906.265664670189
 20
697.1669065171836
 10
13901.655364448081
 20
725.7429214287771
 10
13940.091469047466
 20
738.8095491387494
 10
13968.736768473636
 20
748.2928768753407
 10
13997.217563420883
 20
757.2617867517379
 10
14025.577722778446
 20
765.5248119192257
 10
14053.805719498407
 20
772.9013436077555
 10
14095.039678813417
 20
782.7205422204646
 10
14098.943410139504
 20
747.3530649634394
 10
14101.319586470092
 20
725.4893867087094
 10
14103.705847202586
 20
703.6475292754841
 10
14106.129359849374
 20
681.8197226687548
 10
14108.60069926026
 20
660.000678174658
 10
14111.122483545701
 20
638.1881545879073
 10
14113.695082230834
 20
616.3817351639345
 10
14116.318744649843
 20
594.5815610631402
 10
14118.993750364525
 20
572.7878018717778
 10
14121.720404918457
 20
551.0006264917928
 10
14124.499025879195
 20
529.2201979755454
 10
14127.329916815848
 20
507.4467140026552
 10
14130.213501430417
 20
485.6804926360256
 10
14133.150473555068
 20
463.92254569409334
 10
14136.142775477674
 20
442.1831589170123
 10
14141.199236920644
 20
406.5767839089616
 10
14098.374313925104
 20
407.1219300244301
 10
14069.580803595552
 20
407.3402314485972
 10
14040.789020848171
 20
407.4123504852768
 10
14011.998545290018
 20
407.3244605773554
 10
13983.19402544913
 20
407.08415226154665
 10
13943.469449884486
 20
406.63048171658687
  0
TEXT
  5
B4
330
17
100
AcDbEntity
  8
0
100
AcDbText
 10
14018.459314616588
 20
577.1067924068519
 30
0.0
 40
8.0
  1
G08_FOREARM_GUSSET_1_O1b
100
AcDbText
  0
LWPOLYLINE
  5
B5
330
17
100
AcDbEntity
  8
0
100
AcDbPolyline
 90
9
 70
1
 10
13901.655364448081
 20
802.7205422204646
 10
13918.392722487679
 20
852.7376605198735
 10
13925.56723897714
 20
906.3254353668672
 10
13927.507417687562
 20
1007.4047360056959
 10
14140.605574711186
 20
958.137367049336
 10
14131.91163745234
 20
884.3401757017936
 10
14118.448746090742
 20
840.4881563127603
 10
14097.383361344353
 20
802.7205422204646
 10
13901.655364448081
 20
802.7205422204646
  0
TEXT
  5
B6
330
17
100
AcDbEntity
  8
0
100
AcDbText
 10
14007.014158627464
 20
873.066128624191
 30
0.0
 40
8.0
  1
O08_SMOOTH_LOWER_O6_A_B_A_B_B_B_A
100
AcDbText
  0
LWPOLYLINE
  5
B7
330
17
100
AcDbEntity
  8
0
100
AcDbPolyline
 90
5
 70
1
 10
13901.655364448081
 20
1027.404736005696
 10
13901.655364448081
 20
1201.404736005696
 10
14135.655364448081
 20
1201.404736005696
 10
14135.655364448081
 20
1027.404736005696
 10
13901.655364448081
 20
1027.404736005696
  0
TEXT
  5
B8
330
17
100
AcDbEntity
  8
0
100
AcDbText
 10
13995.255364448083
 20
1097.0047360056958
 30
0.0
 40
8.0
  1
J09_SERVICE_POCKET_A
100
AcDbText
  0
LWPOLYLINE
  5
B9
330
17
100
AcDbEntity
  8
0
100
AcDbPolyline
 90
5
 70
1
 10
13901.655364448081
 20
1221.404736005696
 10
13901.655364448081
 20
1395.404736005696
 10
14135.655364448081
 20
1395.404736005696
 10
14135.655364448081
 20
1221.404736005696
 10
13901.655364448081
 20
1221.404736005696
  0
TEXT
  5
BA
330
17
100
AcDbEntity
  8
0
100
AcDbText
 10
13995.255364448083
 20
1291.0047360056958
 30
0.0
 40
8.0
  1
J09_SERVICE_POCKET_B
100
AcDbText
  0
LWPOLYLINE
  5
BB
330
17
100
AcDbEntity
  8
0
100
AcDbPolyline
 90
21
 70
1
 10
14168.19855543572
 20
313.88426224341856
 10
14229.339869097295
 20
310.29962483154986
 10
14274.09913206739
 20
309.01213834623036
 10
14317.905060847765
 20
310.0730110034209
 10
14373.2824380916
 20
313.79860100273845
 10
14376.028951359052
 20
257.33490302577354
 10
14379.810389311831
 20
213.60235326505858
 10
14384.191143106458
 20
169.93863074192447
 10
14388.690257600061
 20
126.34909381657513
 10
14393.115378338154
 20
82.82041332442975
 10
14398.571697630989
 20
26.902955720553393
 10
14343.305793185584
 20
23.866870651958777
 10
14300.266869101502
 20
21.666535212281985
 10
14257.21608859102
 20
19.154952829291176
 10
14202.442698706007
 20
15.0
 10
14197.543333162663
 20
70.75310428394107
 10
14193.770818525925
 20
114.67731074843371
 10
14190.123722843611
 20
158.61870547515207
 10
14186.167230185267
 20
202.84974192603613
 10
14180.54998663824
 20
248.48335850319387
 10
14168.19855543572
 20
313.88426224341856
  0
TEXT
  5
BC
330
17
100
AcDbEntity
  8
0
100
AcDbText
 10
14281.08656996485
 20
172.52242043787524
 30
0.0
 40
8.0
  1
L08_CONTINUOUS_COVER_O1_A_A_B
100
AcDbText
  0
LWPOLYLINE
  5
BD
330
17
100
AcDbEntity
  8
0
100
AcDbPolyline
 90
21
 70
1
 10
14168.19855543572
 20
595.6240709184143
 10
14221.209939015032
 20
597.3677957175014
 10
14256.708530154232
 20
600.3320411258516
 10
14292.42576555515
 20
601.2754711775593
 10
14328.309896246721
 20
599.4753490211224
 10
14373.621077295344
 20
595.0715259746446
 10
14379.584212492793
 20
540.4262335626596
 10
14383.914135944908
 20
495.4687342626843
 10
14387.828330283186
 20
450.5976532421621
 10
14391.493089664214
 20
405.83374322632045
 10
14396.291588564052
 20
349.41026236764725
 10
14349.876953504749
 20
344.5701943043098
 10
14315.221376142461
 20
340.7803592840435
 10
14280.399062012677
 20
337.25768324674874
 10
14244.986774057328
 20
334.6533763439443
 10
14195.536172446182
 20
333.8842622434185
 10
14190.977682847975
 20
391.82389004782976
 10
14186.984158758725
 20
438.7006684671461
 10
14182.464537215616
 20
485.98189355154676
 10
14177.167328929389
 20
533.770431079044
 10
14168.19855543572
 20
595.6240709184143
  0
TEXT
  5
BE
330
17
100
AcDbEntity
  8
0
100
AcDbText
 10
14279.590367714387
 20
474.66331952776255
 30
0.0
 40
8.0
  1
H08_CANOPY_O2_B_A_B
100
AcDbText
  0
LWPOLYLINE
  5
BF
330
17
100
AcDbEntity
  8
0
100
AcDbPolyline
 90
15
 70
1
 10
14183.726323135636
 20
744.3224326834403
 10
14233.62316561587
 20
746.1321645558996
 10
14269.345649314815
 20
744.8621266932633
 10
14303.933995941907
 20
743.7521319265783
 10
14338.653853590899
 20
743.9222977160134
 10
14387.416566443637
 20
745.0042418470131
 10
14381.387131779617
 20
686.5685810169464
 10
14375.69399394405
 20
631.9378221381453
 10
14330.388660903915
 20
626.875572990597
 10
14294.588346795043
 20
623.8819989988979
 10
14258.960738968037
 20
623.0910056185268
 10
14223.13390115698
 20
623.4985111818961
 10
14168.19855543572
 20
621.2754711775594
 10
14177.131183458538
 20
685.2164949076029
 10
14183.726323135636
 20
744.3224326834403
  0
TEXT
  5
C0
330
17
100
AcDbEntity
  8
0
100
AcDbText
 10
14273.993892641356
 20
688.9775524090547
 30
0.0
 40
8.0
  1
H08_CANOPY_O3_B_A_B_A
100
AcDbText
  0
LWPOLYLINE
  5
C1
330
17
100
AcDbEntity
  8
0
100
AcDbPolyline
 90
43
 70
1
 10
14201.508227264729
 20
766.1993456306602
 10
14199.589926611541
 20
794.1440356723715
 10
14198.54673871352
 20
810.8650955055906
 10
14197.4344212997
 20
827.501825399039
 10
14196.206271672065
 20
844.1117496786011
 10
14194.853124933557
 20
860.7073939774843
 10
14193.370854028188
 20
877.2885746976307
 10
14191.754432836835
 20
893.8533097819067
 10
14189.99855148832
 20
910.3999978290844
 10
14188.09831578688
 20
926.9272957515936
 10
14186.049526519444
 20
943.4339582659675
 10
14183.848811405427
 20
959.918793386336
 10
14181.493672154604
 20
976.3806018184569
 10
14178.982389489998
 20
992.8179228276898
 10
14176.313561934752
 20
1009.2275775186038
 10
14173.486286101133
 20
1025.580610953086
 10
14168.19855543572
 20
1053.7181128132188
 10
14208.186951808922
 20
1061.3208923309808
 10
14236.197334038889
 20
1067.2555566292458
 10
14264.1652591206
 20
1073.6600765250232
 10
14292.132890507424
 20
1080.3881095320069
 10
14333.161930683664
 20
1090.4348473445154
 10
14337.324023723288
 20
1058.422532765485
 10
14339.663568269329
 20
1039.7132413845814
 10
14342.04760438151
 20
1021.0745051495412
 10
14344.537559506198
 20
1002.4718291401133
 10
14347.147450814364
 20
983.8894886992897
 10
14349.87771254971
 20
965.3243159756443
 10
14352.727767412847
 20
946.7769082804089
 10
14355.697202984724
 20
928.2479116143519
 10
14358.785243198168
 20
909.7376779647564
 10
14361.990599830515
 20
891.2464227962806
 10
14365.31148292362
 20
872.7742849042043
 10
14368.745681476841
 20
854.3214057132313
 10
14372.290766535938
 20
835.8882164671
 10
14375.944692500118
 20
817.4769219193648
 10
14379.706086398508
 20
799.1120774452238
 10
14386.804077518158
 20
766.1321645558996
 10
14341.149300066489
 20
766.4161767149043
 10
14310.190322385706
 20
766.4264931985847
 10
14278.682692661921
 20
766.3429244802941
 10
14246.16518728485
 20
766.301274924217
 10
14201.508227264729
 20
766.1993456306602
  0
TEXT
  5
C2
330
17
100
AcDbEntity
  8
0
100
AcDbText
 10
14270.927332174964
 20
915.5914372928659
 30
0.0
 40
8.0
  1
G08_FOREARM_GUSSET_-1_O1a
100
AcDbText
  0
LWPOLYLINE
  5
C3
330
17
100
AcDbEntity
  8
0
100
AcDbPolyline
 90
13
 70
1
 10
14277.964606892216
 20
1345.8530984092206
 10
14331.582015223365
 20
1349.113849169587
 10
14386.01038903719
 20
1345.1545004954503
 10
14362.913086227087
 20
1281.5817598839362
 10
14343.091748202369
 20
1232.9318689803106
 10
14321.295657395394
 20
1184.6050536678927
 10
14294.830859926362
 20
1130.7922591598265
 10
14245.68690995014
 20
1126.1392805384476
 10
14168.19855543572
 20
1110.4348473445154
 10
14206.987490810836
 20
1184.6630413152488
 10
14231.981083937664
 20
1236.258837016557
 10
14254.741886284915
 20
1287.5778404683515
 10
14277.964606892216
 20
1345.8530984092206
  0
TEXT
  5
C4
330
17
100
AcDbEntity
  8
0
100
AcDbText
 10
14284.865299708881
 20
1243.1507180660437
 30
0.0
 40
8.0
  1
H08_CANOPY_O4_B_A_A_A
100
AcDbText
  0
LWPOLYLINE
  5
C5
330
17
100
AcDbEntity
  8
0
100
AcDbPolyline
 90
19
 70
1
 10
14440.311763000886
 20
389.47467873310967
 10
14505.353330125557
 20
388.39574782620167
 10
14562.094772527558
 20
388.5209485098204
 10
14636.265988253546
 20
389.5403966176184
 10
14626.377749715413
 20
353.22474478308317
 10
14621.7916238284
 20
327.63706752128644
 10
14618.624616777699
 20
290.3228782851728
 10
14617.289290562236
 20
234.3675622651933
 10
14618.125001892566
 20
153.00456867757555
 10
14621.84826710257
 20
27.914552959127263
 10
14550.250569848666
 20
22.213724206253687
 10
14491.851757941877
 20
18.379585742862332
 10
14422.716440993036
 20
15.0
 10
14418.99849210204
 20
143.4208214831346
 10
14418.571697630989
 20
227.16630851456438
 10
14420.6685303017
 20
285.68017801484166
 10
14424.915461909375
 20
326.24918603011736
 10
14430.91471282012
 20
355.7875193500362
 10
14440.311763000886
 20
389.47467873310967
  0
TEXT
  5
C6
330
17
100
AcDbEntity
  8
0
100
AcDbText
 10
14520.383254228163
 20
248.72500780279518
 30
0.0
 40
8.0
  1
O08_SMOOTH_LOWER_O6_B_B_B_A
100
AcDbText
  0
LWPOLYLINE
  5
C7
330
17
100
AcDbEntity
  8
0
100
AcDbPolyline
 90
21
 70
1
 10
14429.735256321961
 20
776.1394710860845
 10
14484.741323630122
 20
774.9605664605559
 10
14527.203561625525
 20
774.523547734582
 10
14569.694909705082
 20
774.7910857611924
 10
14624.594910193879
 20
776.1767074416869
 10
14625.311141374235
 20
719.9603434903433
 10
14626.080551792864
 20
675.994547862435
 10
14627.25988415907
 20
632.0319225646259
 10
14629.043416036504
 20
587.5516029032545
 10
14631.301760026772
 20
540.9852634772117
 10
14633.164561673988
 20
479.74091676717984
 10
14578.857213327818
 20
465.74652185119857
 10
14532.897427098023
 20
452.1964905030593
 10
14485.64459447175
 20
435.83451714579917
 10
14418.571697630989
 20
409.5403966176184
 10
14431.730674090377
 20
516.9614260433084
 10
14434.383518902858
 20
580.181625854389
 10
14433.663022772505
 20
630.7571182412996
 10
14432.17821918371
 20
676.1844485488999
 10
14430.91296929878
 20
720.0742800937724
 10
14429.735256321961
 20
776.1394710860845
  0
TEXT
  5
C8
330
17
100
AcDbEntity
  8
0
100
AcDbText
 10
14524.60504141137
 20
627.4510605492658
 30
0.0
 40
8.0
  1
L08_CONTINUOUS_COVER_O4_A_A_A
100
AcDbText
  0
LWPOLYLINE
  5
C9
330
17
100
AcDbEntity
  8
0
100
AcDbPolyline
 90
21
 70
1
 10
14431.08224973406
 20
1096.9277296080802
 10
14485.995516536099
 20
1096.264668740388
 10
14529.166546066765
 20
1096.0830243751745
 10
14572.185836849185
 20
1096.2834651184164
 10
14627.576427472039
 20
1096.9337343705054
 10
14625.358594411518
 20
1040.7173400728532
 10
14623.702743281616
 20
997.0627672500442
 10
14622.222536063922
 20
953.3584007978743
 10
14621.289048251652
 20
909.6149086933377
 10
14621.478046499726
 20
865.7308715204688
 10
14623.28708401046
 20
809.1209686454558
 10
14567.565399722831
 20
808.5941530233423
 10
14523.564618329046
 20
807.5586723709112
 10
14479.069290142554
 20
804.3025836785712
 10
14418.571697630989
 20
796.1767074416869
 10
14425.890305063029
 20
862.2170730330236
 10
14427.317122185865
 20
908.1587589985871
 10
14427.788553425302
 20
952.7006277922463
 10
14428.413733471438
 20
996.8810535130194
 10
14429.403571204157
 20
1041.0221440081898
 10
14431.08224973406
 20
1096.9277296080802
  0
TEXT
  5
CA
330
17
100
AcDbEntity
  8
0
100
AcDbText
 10
14521.048150956492
 20
958.697018221917
 30
0.0
 40
8.0
  1
L08_CONTINUOUS_COVER_O4_A_A_B
100
AcDbText
  0
LWPOLYLINE
  5
CB
330
17
100
AcDbEntity
  8
0
100
AcDbPolyline
 90
19
 70
1
 10
14424.998412561356
 20
1330.408997882936
 10
14474.385212953497
 20
1332.6858869708822
 10
14509.698484701616
 20
1333.4980384174603
 10
14544.778356357392
 20
1333.205300326941
 10
14579.792239640787
 20
1332.2937976419246
 10
14626.435524822642
 20
1330.488896125714
 10
14625.780119036586
 20
1273.8832092204907
 10
14624.828182049114
 20
1228.8939916059003
 10
14623.568122047445
 20
1183.9212928541774
 10
14622.074883345675
 20
1128.620220923301
 10
14576.736943117228
 20
1122.8809926431402
 10
14541.428290508613
 20
1119.1944918945214
 10
14506.02583590217
 20
1117.4173670286993
 10
14470.428176258773
 20
1117.2620495657725
 10
14418.571697630989
 20
1116.9337343705056
 10
14421.740376745529
 20
1177.8810206559267
 10
14423.698291285033
 20
1225.3440497608635
 10
14424.995853879442
 20
1272.2259495900053
 10
14424.998412561356
 20
1330.408997882936
  0
TEXT
  5
CC
330
17
100
AcDbEntity
  8
0
100
AcDbText
 10
14519.2086008108
 20
1231.970962387479
 30
0.0
 40
8.0
  1
H08_CANOPY_O3_B_A_A
100
AcDbText
  0
LWPOLYLINE
  5
CD
330
17
100
AcDbEntity
  8
0
100
AcDbPolyline
 90
15
 70
1
 10
14722.412170036503
 20
243.85389936968022
 10
14767.397040329079
 20
243.07716702878685
 10
14803.754616047236
 20
243.57022204855255
 10
14856.981213917083
 20
243.75411054920173
 10
14839.170670229752
 20
184.34227854083178
 10
14826.093887202205
 20
140.28075453585512
 10
14813.239311760528
 20
96.0569040972994
 10
14798.867814553389
 20
44.37584634127313
 10
14752.739378079112
 20
35.406667397142456
 10
14714.216322470897
 20
26.8626687627592
 10
14656.265988253548
 20
15.0
 10
14675.76992673143
 20
85.08366316039869
 10
14690.380387605284
 20
135.70632601279496
 10
14705.151362836265
 20
185.69649586552703
 10
14722.412170036503
 20
243.85389936968022
  0
TEXT
  5
CE
330
17
100
AcDbEntity
  8
0
100
AcDbText
 10
14756.323484005921
 20
144.46139353865223
 30
0.0
 40
8.0
  1
H08_CANOPY_O4_B_A_A_B
100
AcDbText
  0
LWPOLYLINE
  5
CF
330
17
100
AcDbEntity
  8
0
100
AcDbPolyline
 90
17
 70
1
 10
14656.265988253548
 20
454.7112200766504
 10
14708.828693732381
 20
455.67980679526624
 10
14746.928492322413
 20
455.7088567986792
 10
14794.751845531802
 20
454.8075600307752
 10
14804.545453100294
 20
409.31203437285467
 10
14813.620844568746
 20
381.5726034144262
 10
14824.023028914015
 20
354.42183506502874
 10
14835.57969690603
 20
325.3248704433636
 10
14854.039354240096
 20
279.15608655153096
 10
14802.306810258278
 20
273.86394996163295
 10
14766.684611810639
 20
269.7293136040246
 10
14721.957984484201
 20
263.8538993696802
 10
14704.44002844231
 20
307.6428608062576
 10
14691.455691267805
 20
340.2846376450978
 10
14679.601254981655
 20
370.98200683237724
 10
14668.910439488138
 20
402.3403959502565
 10
14656.265988253548
 20
454.7112200766504
  0
TEXT
  5
D0
330
17
100
AcDbEntity
  8
0
100
AcDbText
 10
14748.83565920917
 20
367.8884210467384
 30
0.0
 40
8.0
  1
O08_SMOOTH_LOWER_O2_A_B_B_A
100
AcDbText
  0
LWPOLYLINE
  5
D1
330
17
100
AcDbEntity
  8
0
100
AcDbPolyline
 90
43
 70
1
 10
14684.467935561779
 20
475.7927436510164
 10
14683.171365662009
 20
504.3168564438021
 10
14682.4928661834
 20
521.0378409107176
 10
14681.71415260363
 20
537.6716187915339
 10
14680.788157783505
 20
554.2794980403012
 10
14679.708296806548
 20
570.8761958743576
 10
14678.475287768477
 20
587.4628140327472
 10
14677.090118558883
 20
604.0382109106313
 10
14675.554150647205
 20
620.601561886052
 10
14673.869569446713
 20
637.1523310923025
 10
14672.039411686688
 20
653.6900909351119
 10
14670.06744115709
 20
670.2144526668592
 10
14667.957946406032
 20
686.7249646868086
 10
14665.715387210483
 20
703.2207633567846
 10
14663.34357202312
 20
719.6987814743158
 10
14660.84461268547
 20
736.1278095322559
 10
14656.265988253548
 20
763.8360085996405
 10
14700.042468668256
 20
773.3252219257399
 10
14731.70321068126
 20
780.5070709230417
 10
14762.464803059269
 20
787.4446472787857
 10
14792.759968090952
 20
794.2277692357906
 10
14837.11609865388
 20
803.975707924081
 10
14837.718028211018
 20
770.4553666765025
 10
14837.959439341952
 20
751.5947230646989
 10
14838.235517485273
 20
732.7954733854563
 10
14838.604959245982
 20
714.0209419233324
 10
14839.081896708096
 20
695.2537751009265
 10
14839.667833784692
 20
676.4907978173239
 10
14840.364654178085
 20
657.7331809711409
 10
14841.175228847173
 20
638.981995407717
 10
14842.102362796744
 20
620.237919761244
 10
14843.148476976841
 20
601.5015415278675
 10
14844.315530782176
 20
582.7734511604482
 10
14845.605046709581
 20
564.054322495376
 10
14847.018290394379
 20
545.3451714399537
 10
14848.556981886311
 20
526.6487577318355
 10
14850.22578259576
 20
507.9906466363793
 10
14853.478860198178
 20
475.7088567986792
 10
14811.060329495931
 20
476.96083211053735
 10
14782.389529118387
 20
477.38274187639644
 10
14753.720640774129
 20
477.3605617798405
 10
14725.026450105363
 20
476.88985763480883
 10
14684.467935561779
 20
475.7927436510164
  0
TEXT
  5
D2
330
17
100
AcDbEntity
  8
0
100
AcDbText
 10
14756.315734530146
 20
626.33015393312
 30
0.0
 40
8.0
  1
G08_FOREARM_GUSSET_1_O1a
100
AcDbText
  0
LWPOLYLINE
  5
D3
330
17
100
AcDbEntity
  8
0
100
AcDbPolyline
 90
17
 70
1
 10
14683.953984185695
 20
1186.2631412197559
 10
14752.5746483385
 20
1185.4221984493822
 10
14837.796215566948
 20
1186.3666441435257
 10
14824.418175100185
 20
1153.5644903221382
 10
14819.352659410779
 20
1132.1882727211762
 10
14815.98855748157
 20
1098.90783358126
 10
14814.924263719027
 20
1047.9280646664788
 10
14816.656590287963
 20
973.40607363154
 10
14822.160975125278
 20
859.7430037719494
 10
14740.97356642673
 20
835.7239254986562
 10
14663.616053379903
 20
823.975707924081
 10
14657.637433335392
 20
951.1758093876012
 10
14656.265988253548
 20
1033.3548369557232
 10
14658.366425611712
 20
1090.735592226488
 10
14663.511286948738
 20
1130.2130739567135
 10
14671.37805105568
 20
1157.9337444944365
 10
14683.953984185695
 20
1186.2631412197559
  0
TEXT
  5
D4
330
17
100
AcDbEntity
  8
0
100
AcDbText
 10
14740.207579906668
 20
1060.77444436298
 30
0.0
 40
8.0
  1
O08_SMOOTH_LOWER_O6_B_B_B_B_A
100
AcDbText
  0
LWPOLYLINE
  5
D5
330
17
100
AcDbEntity
  8
0
100
AcDbPolyline
 90
17
 70
1
 10
14699.396395649741
 20
1406.5950475121954
 10
14744.566715734814
 20
1406.001749122671
 10
14780.098863094727
 20
1406.0284210594343
 10
14831.074536586608
 20
1406.6558103754703
 10
14819.57354792481
 20
1356.607866198688
 10
14812.00529941417
 20
1323.6518374049128
 10
14805.050764775426
 20
1293.1190816894
 10
14798.921864788197
 20
1264.6961456286706
 10
14792.724161282611
 20
1226.8300414285372
 10
14746.879314479464
 20
1218.9971816189882
 10
14709.532724804807
 20
1213.3130012939514
 10
14656.265988253548
 20
1206.3666441435257
 10
14664.867100273945
 20
1254.5592574064901
 10
14671.898805719307
 20
1286.6919834324676
 10
14679.712528182325
 20
1320.9311738874906
 10
14688.183945647983
 20
1357.809015887049
 10
14699.396395649741
 20
1406.5950475121954
  0
TEXT
  5
D6
330
17
100
AcDbEntity
  8
0
100
AcDbText
 10
14741.185232486014
 20
1315.0264297413019
 30
0.0
 40
8.0
  1
O08_SMOOTH_LOWER_O5_A_B_B_A
100
AcDbText
  0
LWPOLYLINE
  5
D7
330
17
100
AcDbEntity
  8
0
100
AcDbPolyline
 90
13
 70
1
 10
14900.937815735002
 20
215.8356506911612
 10
14947.653552670483
 20
215.35805461643866
 10
14985.448996367952
 20
215.68773549896807
 10
15038.023303490532
 20
215.76144135157995
 10
15026.249531039404
 20
164.3261565953025
 10
15020.258870789212
 20
110.8087719268822
 10
15016.985497281477
 20
15.0
 10
14966.34769023151
 20
17.249603976034678
 10
14926.998901463548
 20
19.89758589317637
 10
14876.981213917083
 20
25.067593363539487
 10
14881.439860000311
 20
115.60359855586292
 10
14888.760855639819
 20
168.80552628432034
 10
14900.937815735002
 20
215.8356506911612
  0
TEXT
  5
D8
330
17
100
AcDbEntity
  8
0
100
AcDbText
 10
14952.078761873949
 20
131.94133611110982
 30
0.0
 40
8.0
  1
O08_SMOOTH_LOWER_O6_A_B_A_A_B
100
AcDbText
  0
LWPOLYLINE
  5
D9
330
17
100
AcDbEntity
  8
0
100
AcDbPolyline
 90
13
 70
1
 10
14899.839050768955
 20
439.22009600166956
 10
14946.586562383281
 20
438.70328957805816
 10
14983.999622095695
 20
438.7361237648843
 10
15036.755745194841
 20
439.26370075271404
 10
15025.933111241826
 20
388.39774758977865
 10
15020.160346128858
 20
333.77432099444155
 10
15016.390975672712
 20
235.8356506911612
 10
14965.81070646993
 20
236.23394034555614
 10
14927.131741153924
 20
237.34264317160603
 10
14876.981213917083
 20
239.65690223278625
 10
14881.747420925536
 20
336.2336389099803
 10
14888.704871154436
 20
391.88955106454557
 10
14899.839050768955
 20
439.22009600166956
  0
TEXT
  5
DA
330
17
100
AcDbEntity
  8
0
100
AcDbText
 10
14951.529262913544
 20
353.42366931529625
 30
0.0
 40
8.0
  1
O08_SMOOTH_LOWER_O6_A_B_A_B_A
100
AcDbText
  0
LWPOLYLINE
  5
DB
330
17
100
AcDbEntity
  8
0
100
AcDbPolyline
 90
13
 70
1
 10
14886.461913692558
 20
757.8404088847466
 10
14935.99723196589
 20
758.9976671945982
 10
14975.0697195674
 20
759.1963565167407
 10
15026.759236096419
 20
757.7491535236737
 10
15017.613259797752
 20
614.4016340508609
 10
15015.25290041006
 20
528.2832499081136
 10
15018.023451945151
 20
459.263700752714
 10
14966.519503410052
 20
463.3530721945509
 10
14928.848144681164
 20
465.92182560221806
 10
14880.80959829514
 20
468.79204122828287
 10
14876.981213917083
 20
534.7911142126563
 10
14878.378625844794
 20
619.6834511165109
 10
14886.461913692558
 20
757.8404088847466
  0
TEXT
  5
DC
330
17
100
AcDbEntity
  8
0
100
AcDbText
 10
14945.628977947386
 20
611.2395449284933
 30
0.0
 40
8.0
  1
O08_SMOOTH_LOWER_O1_A_B_B_B_A
100
AcDbText
  0
LWPOLYLINE
  5
DD
330
17
100
AcDbEntity
  8
0
100
AcDbPolyline
 90
13
 70
1
 10
14881.645815267133
 20
974.9679076840704
 10
14928.044652042947
 20
969.6485782213648
 10
14961.99317384639
 20
970.4565649856024
 10
15011.729396145734
 20
974.7619607606908
 10
15008.44785862281
 20
922.7250353376452
 10
15007.71874702279
 20
870.7793638246753
 10
15009.99009885381
 20
779.1963565167408
 10
14959.066619404464
 20
782.3802042230622
 10
14921.80800844852
 20
787.5013883137037
 10
14877.79868450994
 20
801.3566078945448
 10
14876.981213917083
 20
878.6534192344117
 10
14878.651583579387
 20
925.8485001537705
 10
14881.645815267133
 20
974.9679076840704
  0
TEXT
  5
DE
330
17
100
AcDbEntity
  8
0
100
AcDbText
 10
14938.886282071397
 20
893.3264457564886
 30
0.0
 40
8.0
  1
O08_SMOOTH_LOWER_O6_A_B_A_A_A
100
AcDbText
  0
LWPOLYLINE
  5
DF
330
17
100
AcDbEntity
  8
0
100
AcDbPolyline
 90
9
 70
1
 10
14876.981213917083
 20
994.9679076840704
 10
14904.873682217782
 20
1099.3686440037964
 10
14920.650128823696
 20
1159.7201301720002
 10
14934.00722049377
 20
1213.020917513414
 10
15010.14835318248
 20
1197.386833521951
 10
14997.04729964298
 20
1144.8574948179041
 10
14982.166363836624
 20
1087.7700052460843
 10
14957.401439233441
 20
994.9679076840704
 10
14876.981213917083
 20
994.9679076840704
  0
TEXT
  5
E0
330
17
100
AcDbEntity
  8
0
100
AcDbText
 10
14940.02854614055
 20
1098.5586387030403
 30
0.0
 40
8.0
  1
O08_SMOOTH_LOWER_O1_A_B_B_B_B_B_B
100
AcDbText
  0
LWPOLYLINE
  5
E1
330
17
100
AcDbEntity
  8
0
100
AcDbPolyline
 90
13
 70
1
 10
14876.981213917083
 20
1233.020917513414
 10
14889.954141275975
 20
1285.106909133647
 10
14900.754644149414
 20
1314.2590273996818
 10
14912.567567743967
 20
1341.6575034545253
 10
14925.399551382347
 20
1370.4075520119625
 10
14942.914818559215
 20
1409.4320903784896
 10
15003.7322464968
 20
1401.3971836626563
 10
14983.895005375847
 20
1357.1956144193
 10
14971.6965148442
 20
1329.8460853288964
 10
14960.708343210636
 20
1304.2527523933177
 10
14951.045748670422
 20
1277.7365340361644
 10
14940.290860041392
 20
1233.020917513414
 10
14876.981213917083
 20
1233.020917513414
  0
TEXT
  5
E2
330
17
100
AcDbEntity
  8
0
100
AcDbText
 10
14933.609374583411
 20
1314.6426157506833
 30
0.0
 40
8.0
  1
O08_SMOOTH_LOWER_O2_A_B_B_B_A
100
AcDbText
  0
LWPOLYLINE
  5
E3
330
17
100
AcDbEntity
  8
0
100
AcDbPolyline
 90
13
 70
1
 10
15100.661013772993
 20
15.0
 10
15089.480823912396
 20
59.03068772168578
 10
15081.161322232158
 20
91.83000636235808
 10
15073.484448460677
 20
122.3638674705125
 10
15066.579524283494
 20
151.39158776585242
 10
15058.02330349053
 20
198.1073861443853
 10
15120.823078838132
 20
187.70765389783028
 10
15127.361225654127
 20
150.89665280606465
 10
15133.764888207766
 20
123.79149544401785
 10
15141.059299963388
 20
94.74729184060287
 10
15149.008308604762
 20
63.404609713837274
 10
15161.298985691226
 20
15.0
 10
15100.661013772993
 20
15.0
  0
TEXT
  5
E4
330
17
100
AcDbEntity
  8
0
100
AcDbText
 10
15107.951325914202
 20
99.09778762824206
 30
0.0
 40
8.0
  1
O08_SMOOTH_LOWER_O5_A_B_B_B_A
100
AcDbText
  0
LWPOLYLINE
  5
E5
330
17
100
AcDbEntity
  8
0
100
AcDbPolyline
 90
9
 70
1
 10
15081.377502928459
 20
218.1073861443853
 10
15070.270963766006
 20
264.59385627112226
 10
15063.247076137775
 20
321.2092888066735
 10
15058.02330349053
 20
420.9688014602758
 10
15121.22788830952
 20
420.7167150049173
 10
15126.015637303057
 20
322.8781785798065
 10
15132.434804838711
 20
268.42896908874474
 10
15144.029234747293
 20
218.1073861443853
 10
15081.377502928459
 20
218.1073861443853
  0
TEXT
  5
E6
330
17
100
AcDbEntity
  8
0
100
AcDbText
 10
15097.555990494422
 20
297.0131075160773
 30
0.0
 40
8.0
  1
O08_SMOOTH_LOWER_O6_A_B_A_B_B_A
100
AcDbText
  0
LWPOLYLINE
  5
E7
330
17
100
AcDbEntity
  8
0
100
AcDbPolyline
 90
9
 70
1
 10
15062.830100804198
 20
440.9688014602758
 10
15062.107981271925
 20
487.63433273221335
 10
15060.913667594577
 20
530.9990927842307
 10
15058.02330349053
 20
607.3713724265509
 10
15136.148061779742
 20
598.2006951796803
 10
15138.71798181442
 20
529.0058484344876
 10
15139.818437779015
 20
487.32354979804416
 10
15140.492301094537
 20
440.9688014602758
 10
15062.830100804198
 20
440.9688014602758
  0
TEXT
  5
E8
330
17
100
AcDbEntity
  8
0
100
AcDbText
 10
15095.764659603683
 20
507.0490328595594
 30
0.0
 40
8.0
  1
O08_SMOOTH_LOWER_O6_A_B_A_B_B_B_B
100
AcDbText
  0
LWPOLYLINE
  5
E9
330
17
100
AcDbEntity
  8
0
100
AcDbPolyline
 90
9
 70
1
 10
15058.02330349053
 20
627.3713724265509
 10
15058.821287335753
 20
771.0927360089421
 10
15062.750690477305
 20
858.4420535631754
 10
15070.501507794816
 20
924.876463786228
 10
15133.120661434845
 20
925.9267626514732
 10
15125.52976372698
 20
857.2364065140657
 10
15121.944367676944
 20
770.9633883533577
 10
15121.390532355428
 20
627.3713724265509
 10
15058.02330349053
 20
627.3713724265509
  0
TEXT
  5
EA
330
17
100
AcDbEntity
  8
0
100
AcDbText
 10
15090.011713087015
 20
776.7391031285438
 30
0.0
 40
8.0
  1
O08_SMOOTH_LOWER_O1_A_B_B_B_B_A
100
AcDbText
  0
ENDSEC
  0
SECTION
  2
OBJECTS
  0
DICTIONARY
  5
A
330
0
100
AcDbDictionary
281
1
  3
ACAD_COLOR
350
B
  3
ACAD_GROUP
350
C
  3
ACAD_LAYOUT
350
D
  3
ACAD_MATERIAL
350
E
  3
ACAD_MLEADERSTYLE
350
F
  3
ACAD_MLINESTYLE
350
10
  3
ACAD_PLOTSETTINGS
350
11
  3
ACAD_PLOTSTYLENAME
350
12
  3
ACAD_SCALELIST
350
14
  3
ACAD_TABLESTYLE
350
15
  3
ACAD_VISUALSTYLE
350
16
  3
EZDXF_META
350
2D
  0
DICTIONARY
  5
B
330
A
100
AcDbDictionary
281
1
  0
DICTIONARY
  5
C
330
A
100
AcDbDictionary
281
1
  0
DICTIONARY
  5
D
330
A
100
AcDbDictionary
281
1
  3
Model
350
1A
  3
Layout1
350
1E
  0
DICTIONARY
  5
E
330
A
100
AcDbDictionary
281
1
  3
ByBlock
350
1F
  3
ByLayer
350
20
  3
Global
350
21
  0
DICTIONARY
  5
F
330
A
100
AcDbDictionary
281
1
  3
Standard
350
2C
  0
DICTIONARY
  5
10
330
A
100
AcDbDictionary
281
1
  3
Standard
350
22
  0
DICTIONARY
  5
11
330
A
100
AcDbDictionary
281
1
  0
ACDBDICTIONARYWDFLT
  5
12
330
A
100
AcDbDictionary
281
1
  3
Normal
350
13
100
AcDbDictionaryWithDefault
340
13
  0
ACDBPLACEHOLDER
  5
13
330
12
  0
DICTIONARY
  5
14
330
A
100
AcDbDictionary
281
1
  0
DICTIONARY
  5
15
330
A
100
AcDbDictionary
281
1
  0
DICTIONARY
  5
16
330
A
100
AcDbDictionary
281
1
  0
LAYOUT
  5
1A
330
D
100
AcDbPlotSettings
  1

  4
A3
  6

 40
7.5
 41
20.0
 42
7.5
 43
20.0
 44
420.0
 45
297.0
 46
0.0
 47
0.0
 48
0.0
 49
0.0
140
0.0
141
0.0
142
1.0
143
1.0
 70
1024
 72
1
 73
0
 74
5
  7

 75
16
 76
0
 77
2
 78
300
147
1.0
148
0.0
149
0.0
100
AcDbLayout
  1
Model
 70
1
 71
0
 10
0.0
 20
0.0
 11
420.0
 21
297.0
 12
0.0
 22
0.0
 32
0.0
 14
1e+20
 24
1e+20
 34
1e+20
 15
-1e+20
 25
-1e+20
 35
-1e+20
146
0.0
 13
0.0
 23
0.0
 33
0.0
 16
1.0
 26
0.0
 36
0.0
 17
0.0
 27
1.0
 37
0.0
 76
1
330
17
  0
LAYOUT
  5
1E
330
D
100
AcDbPlotSettings
  1

  4
A3
  6

 40
7.5
 41
20.0
 42
7.5
 43
20.0
 44
420.0
 45
297.0
 46
0.0
 47
0.0
 48
0.0
 49
0.0
140
0.0
141
0.0
142
1.0
143
1.0
 70
0
 72
1
 73
0
 74
5
  7

 75
16
 76
0
 77
2
 78
300
147
1.0
148
0.0
149
0.0
100
AcDbLayout
  1
Layout1
 70
1
 71
1
 10
0.0
 20
0.0
 11
420.0
 21
297.0
 12
0.0
 22
0.0
 32
0.0
 14
1e+20
 24
1e+20
 34
1e+20
 15
-1e+20
 25
-1e+20
 35
-1e+20
146
0.0
 13
0.0
 23
0.0
 33
0.0
 16
1.0
 26
0.0
 36
0.0
 17
0.0
 27
1.0
 37
0.0
 76
1
330
1B
  0
MATERIAL
  5
1F
102
{ACAD_REACTORS
330
E
102
}
330
E
100
AcDbMaterial
  1
ByBlock
  2

 70
0
 40
1.0
 71
1
 41
1.0
 91
-1023410177
 42
1.0
 72
1
  3

 73
1
 74
1
 75
1
 44
0.5
 73
0
 45
1.0
 46
1.0
 77
1
  4

 78
1
 79
1
170
1
 48
1.0
171
1
  6

172
1
173
1
174
1
140
1.0
141
1.0
175
1
  7

176
1
177
1
178
1
143
1.0
179
1
  8

270
1
271
1
272
1
145
1.0
146
1.0
273
1
  9

274
1
275
1
276
1
 42
1.0
 72
1
  3

 73
1
 74
1
 75
1
 94
63
  0
MATERIAL
  5
20
102
{ACAD_REACTORS
330
E
102
}
330
E
100
AcDbMaterial
  1
ByLayer
  2

 70
0
 40
1.0
 71
1
 41
1.0
 91
-1023410177
 42
1.0
 72
1
  3

 73
1
 74
1
 75
1
 44
0.5
 73
0
 45
1.0
 46
1.0
 77
1
  4

 78
1
 79
1
170
1
 48
1.0
171
1
  6

172
1
173
1
174
1
140
1.0
141
1.0
175
1
  7

176
1
177
1
178
1
143
1.0
179
1
  8

270
1
271
1
272
1
145
1.0
146
1.0
273
1
  9

274
1
275
1
276
1
 42
1.0
 72
1
  3

 73
1
 74
1
 75
1
 94
63
  0
MATERIAL
  5
21
102
{ACAD_REACTORS
330
E
102
}
330
E
100
AcDbMaterial
  1
Global
  2

 70
0
 40
1.0
 71
1
 41
1.0
 91
-1023410177
 42
1.0
 72
1
  3

 73
1
 74
1
 75
1
 44
0.5
 73
0
 45
1.0
 46
1.0
 77
1
  4

 78
1
 79
1
170
1
 48
1.0
171
1
  6

172
1
173
1
174
1
140
1.0
141
1.0
175
1
  7

176
1
177
1
178
1
143
1.0
179
1
  8

270
1
271
1
272
1
145
1.0
146
1.0
273
1
  9

274
1
275
1
276
1
 42
1.0
 72
1
  3

 73
1
 74
1
 75
1
 94
63
  0
MLINESTYLE
  5
22
102
{ACAD_REACTORS
330
10
102
}
330
10
100
AcDbMlineStyle
  2
Standard
 70
0
  3

 62
256
 51
90.0
 52
90.0
 71
2
 49
0.5
 62
256
  6
BYLAYER
 49
-0.5
 62
256
  6
BYLAYER
  0
MLEADERSTYLE
  5
2C
102
{ACAD_REACTORS
330
F
102
}
330
F
100
AcDbMLeaderStyle
179
2
170
2
171
1
172
0
 90
2
 40
0.0
 41
0.0
173
1
 91
-1056964608
 92
-2
290
1
 42
2.0
291
1
 43
8.0
  3
Standard
 44
4.0
300

342
29
174
1
175
1
176
0
178
1
 93
-1056964608
 45
4.0
292
0
297
0
 46
4.0
 94
-1056964608
 47
1.0
 49
1.0
140
1.0
294
1
141
0.0
177
0
142
1.0
295
0
296
0
143
3.75
271
0
272
9
273
9
  0
DICTIONARY
  5
2D
330
A
100
AcDbDictionary
280
1
281
1
  3
CREATED_BY_EZDXF
350
2E
  3
WRITTEN_BY_EZDXF
350
ED
  0
DICTIONARYVAR
  5
2E
330
2D
100
DictionaryVariables
280
0
  1
1.4.4 @ 2026-10-04T18:29:10.876649+00:00
  0
DICTIONARYVAR
  5
ED
330
2D
100
DictionaryVariables
280
0
  1
1.4.4 @ 2026-10-04T18:29:10.892579+00:00
  0
ENDSEC
  0
EOF
