  0
SECTION
  2
HEADER
  9
$ACADVER
  1
AC1024
  9
$ACADMAINTVER
 70
6
  9
$DWGCODEPAGE
  3
ANSI_1252
  9
$LASTSAVEDBY
  1
ezdxf
  9
$INSBASE
 10
0.0
 20
0.0
 30
0.0
  9
$EXTMIN
 10
1e+20
 20
1e+20
 30
1e+20
  9
$EXTMAX
 10
-1e+20
 20
-1e+20
 30
-1e+20
  9
$LIMMIN
 10
0.0
 20
0.0
  9
$LIMMAX
 10
420.0
 20
297.0
  9
$ORTHOMODE
 70
0
  9
$REGENMODE
 70
1
  9
$FILLMODE
 70
1
  9
$QTEXTMODE
 70
0
  9
$MIRRTEXT
 70
1
  9
$LTSCALE
 40
1.0
  9
$ATTMODE
 70
1
  9
$TEXTSIZE
 40
2.5
  9
$TRACEWID
 40
1.0
  9
$TEXTSTYLE
  7
Standard
  9
$CLAYER
  8
0
  9
$CELTYPE
  6
ByLayer
  9
$CECOLOR
 62
256
  9
$CELTSCALE
 40
1.0
  9
$DISPSILH
 70
0
  9
$DIMSCALE
 40
1.0
  9
$DIMASZ
 40
2.5
  9
$DIMEXO
 40
0.625
  9
$DIMDLI
 40
3.75
  9
$DIMRND
 40
0.0
  9
$DIMDLE
 40
0.0
  9
$DIMEXE
 40
1.25
  9
$DIMTP
 40
0.0
  9
$DIMTM
 40
0.0
  9
$DIMTXT
 40
2.5
  9
$DIMCEN
 40
2.5
  9
$DIMTSZ
 40
0.0
  9
$DIMTOL
 70
0
  9
$DIMLIM
 70
0
  9
$DIMTIH
 70
0
  9
$DIMTOH
 70
0
  9
$DIMSE1
 70
0
  9
$DIMSE2
 70
0
  9
$DIMTAD
 70
1
  9
$DIMZIN
 70
8
  9
$DIMBLK
  1

  9
$DIMASO
 70
1
  9
$DIMSHO
 70
1
  9
$DIMPOST
  1

  9
$DIMAPOST
  1

  9
$DIMALT
 70
0
  9
$DIMALTD
 70
3
  9
$DIMALTF
 40
0.03937007874
  9
$DIMLFAC
 40
1.0
  9
$DIMTOFL
 70
1
  9
$DIMTVP
 40
0.0
  9
$DIMTIX
 70
0
  9
$DIMSOXD
 70
0
  9
$DIMSAH
 70
0
  9
$DIMBLK1
  1

  9
$DIMBLK2
  1

  9
$DIMSTYLE
  2
ISO-25
  9
$DIMCLRD
 70
0
  9
$DIMCLRE
 70
0
  9
$DIMCLRT
 70
0
  9
$DIMTFAC
 40
1.0
  9
$DIMGAP
 40
0.625
  9
$DIMJUST
 70
0
  9
$DIMSD1
 70
0
  9
$DIMSD2
 70
0
  9
$DIMTOLJ
 70
0
  9
$DIMTZIN
 70
8
  9
$DIMALTZ
 70
0
  9
$DIMALTTZ
 70
0
  9
$DIMUPT
 70
0
  9
$DIMDEC
 70
2
  9
$DIMTDEC
 70
2
  9
$DIMALTU
 70
2
  9
$DIMALTTD
 70
3
  9
$DIMTXSTY
  7
Standard
  9
$DIMAUNIT
 70
0
  9
$DIMADEC
 70
0
  9
$DIMALTRND
 40
0.0
  9
$DIMAZIN
 70
0
  9
$DIMDSEP
 70
44
  9
$DIMATFIT
 70
3
  9
$DIMFRAC
 70
0
  9
$DIMLDRBLK
  1

  9
$DIMLUNIT
 70
2
  9
$DIMLWD
 70
-2
  9
$DIMLWE
 70
-2
  9
$DIMTMOVE
 70
0
  9
$DIMFXL
 40
1.0
  9
$DIMFXLON
 70
0
  9
$DIMJOGANG
 40
0.785398163397
  9
$DIMTFILL
 70
0
  9
$DIMTFILLCLR
 70
0
  9
$DIMARCSYM
 70
0
  9
$DIMLTYPE
  6

  9
$DIMLTEX1
  6

  9
$DIMLTEX2
  6

  9
$DIMTXTDIRECTION
 70
0
  9
$LUNITS
 70
2
  9
$LUPREC
 70
4
  9
$SKETCHINC
 40
1.0
  9
$FILLETRAD
 40
10.0
  9
$AUNITS
 70
0
  9
$AUPREC
 70
2
  9
$MENU
  1
.
  9
$ELEVATION
 40
0.0
  9
$PELEVATION
 40
0.0
  9
$THICKNESS
 40
0.0
  9
$LIMCHECK
 70
0
  9
$CHAMFERA
 40
0.0
  9
$CHAMFERB
 40
0.0
  9
$CHAMFERC
 40
0.0
  9
$CHAMFERD
 40
0.0
  9
$SKPOLY
 70
0
  9
$TDCREATE
 40
2461318.7702546297
  9
$TDUCREATE
 40
2458532.153996898
  9
$TDUPDATE
 40
2461318.7702546297
  9
$TDUUPDATE
 40
2458532.1544311
  9
$TDINDWG
 40
0.0
  9
$TDUSRTIMER
 40
0.0
  9
$USRTIMER
 70
1
  9
$ANGBASE
 50
0.0
  9
$ANGDIR
 70
0
  9
$PDMODE
 70
0
  9
$PDSIZE
 40
0.0
  9
$PLINEWID
 40
0.0
  9
$SPLFRAME
 70
0
  9
$SPLINETYPE
 70
6
  9
$SPLINESEGS
 70
8
  9
$HANDSEED
  5
66
  9
$SURFTAB1
 70
6
  9
$SURFTAB2
 70
6
  9
$SURFTYPE
 70
6
  9
$SURFU
 70
6
  9
$SURFV
 70
6
  9
$UCSBASE
  2

  9
$UCSNAME
  2

  9
$UCSORG
 10
0.0
 20
0.0
 30
0.0
  9
$UCSXDIR
 10
1.0
 20
0.0
 30
0.0
  9
$UCSYDIR
 10
0.0
 20
1.0
 30
0.0
  9
$UCSORTHOREF
  2

  9
$UCSORTHOVIEW
 70
0
  9
$UCSORGTOP
 10
0.0
 20
0.0
 30
0.0
  9
$UCSORGBOTTOM
 10
0.0
 20
0.0
 30
0.0
  9
$UCSORGLEFT
 10
0.0
 20
0.0
 30
0.0
  9
$UCSORGRIGHT
 10
0.0
 20
0.0
 30
0.0
  9
$UCSORGFRONT
 10
0.0
 20
0.0
 30
0.0
  9
$UCSORGBACK
 10
0.0
 20
0.0
 30
0.0
  9
$PUCSBASE
  2

  9
$PUCSNAME
  2

  9
$PUCSORG
 10
0.0
 20
0.0
 30
0.0
  9
$PUCSXDIR
 10
1.0
 20
0.0
 30
0.0
  9
$PUCSYDIR
 10
0.0
 20
1.0
 30
0.0
  9
$PUCSORTHOREF
  2

  9
$PUCSORTHOVIEW
 70
0
  9
$PUCSORGTOP
 10
0.0
 20
0.0
 30
0.0
  9
$PUCSORGBOTTOM
 10
0.0
 20
0.0
 30
0.0
  9
$PUCSORGLEFT
 10
0.0
 20
0.0
 30
0.0
  9
$PUCSORGRIGHT
 10
0.0
 20
0.0
 30
0.0
  9
$PUCSORGFRONT
 10
0.0
 20
0.0
 30
0.0
  9
$PUCSORGBACK
 10
0.0
 20
0.0
 30
0.0
  9
$USERI1
 70
0
  9
$USERI2
 70
0
  9
$USERI3
 70
0
  9
$USERI4
 70
0
  9
$USERI5
 70
0
  9
$USERR1
 40
0.0
  9
$USERR2
 40
0.0
  9
$USERR3
 40
0.0
  9
$USERR4
 40
0.0
  9
$USERR5
 40
0.0
  9
$WORLDVIEW
 70
1
  9
$SHADEDGE
 70
3
  9
$SHADEDIF
 70
70
  9
$TILEMODE
 70
1
  9
$MAXACTVP
 70
64
  9
$PINSBASE
 10
0.0
 20
0.0
 30
0.0
  9
$PLIMCHECK
 70
0
  9
$PEXTMIN
 10
1e+20
 20
1e+20
 30
1e+20
  9
$PEXTMAX
 10
-1e+20
 20
-1e+20
 30
-1e+20
  9
$PLIMMIN
 10
0.0
 20
0.0
  9
$PLIMMAX
 10
420.0
 20
297.0
  9
$UNITMODE
 70
0
  9
$VISRETAIN
 70
1
  9
$PLINEGEN
 70
0
  9
$PSLTSCALE
 70
1
  9
$TREEDEPTH
 70
3020
  9
$CMLSTYLE
  2
Standard
  9
$CMLJUST
 70
0
  9
$CMLSCALE
 40
20.0
  9
$PROXYGRAPHICS
 70
1
  9
$MEASUREMENT
 70
1
  9
$CELWEIGHT
370
-1
  9
$ENDCAPS
280
0
  9
$JOINSTYLE
280
0
  9
$LWDISPLAY
290
0
  9
$INSUNITS
 70
4
  9
$HYPERLINKBASE
  1

  9
$STYLESHEET
  1

  9
$XEDIT
290
1
  9
$CEPSNTYPE
380
0
  9
$PSTYLEMODE
290
1
  9
$FINGERPRINTGUID
  2
{B8326185-1AF6-46EA-BB2F-62B5C3ECFEA7}
  9
$VERSIONGUID
  2
{2D0240D1-F6C1-4C3D-A0B5-DF799C500045}
  9
$EXTNAMES
290
1
  9
$PSVPSCALE
 40
0.0
  9
$OLESTARTUP
290
0
  9
$SORTENTS
280
127
  9
$INDEXCTL
280
0
  9
$HIDETEXT
280
1
  9
$XCLIPFRAME
280
1
  9
$HALOGAP
280
0
  9
$OBSCOLOR
 70
257
  9
$OBSLTYPE
280
0
  9
$INTERSECTIONDISPLAY
280
0
  9
$INTERSECTIONCOLOR
 70
257
  9
$DIMASSOC
280
2
  9
$PROJECTNAME
  1

  9
$CAMERADISPLAY
290
0
  9
$LENSLENGTH
 40
50.0
  9
$CAMERAHEIGHT
 40
0.0
  9
$STEPSPERSEC
 40
24.0
  9
$STEPSIZE
 40
100.0
  9
$3DDWFPREC
 40
2.0
  9
$PSOLWIDTH
 40
0.005
  9
$PSOLHEIGHT
 40
0.08
  9
$LOFTANG1
 40
1.570796326795
  9
$LOFTANG2
 40
1.570796326795
  9
$LOFTMAG1
 40
0.0
  9
$LOFTMAG2
 40
0.0
  9
$LOFTPARAM
 70
7
  9
$LOFTNORMALS
280
1
  9
$LATITUDE
 40
37.795
  9
$LONGITUDE
 40
-122.394
  9
$NORTHDIRECTION
 40
0.0
  9
$TIMEZONE
 70
-8000
  9
$LIGHTGLYPHDISPLAY
280
1
  9
$TILEMODELIGHTSYNCH
280
1
  9
$CMATERIAL
347
20
  9
$SOLIDHIST
280
0
  9
$SHOWHIST
280
1
  9
$DWFFRAME
280
2
  9
$DGNFRAME
280
2
  9
$REALWORLDSCALE
290
1
  9
$INTERFERECOLOR
 62
256
  9
$CSHADOW
280
0
  9
$SHADOWPLANELOCATION
 40
0.0
  0
ENDSEC
  0
SECTION
  2
CLASSES
  0
CLASS
  1
ACDBDICTIONARYWDFLT
  2
AcDbDictionaryWithDefault
  3
ObjectDBX Classes
 90
0
 91
0
280
0
281
0
  0
CLASS
  1
SUN
  2
AcDbSun
  3
SCENEOE
 90
1153
 91
0
280
0
281
0
  0
CLASS
  1
VISUALSTYLE
  2
AcDbVisualStyle
  3
ObjectDBX Classes
 90
4095
 91
0
280
0
281
0
  0
CLASS
  1
MATERIAL
  2
AcDbMaterial
  3
ObjectDBX Classes
 90
1153
 91
0
280
0
281
0
  0
CLASS
  1
SCALE
  2
AcDbScale
  3
ObjectDBX Classes
 90
1153
 91
0
280
0
281
0
  0
CLASS
  1
TABLESTYLE
  2
AcDbTableStyle
  3
ObjectDBX Classes
 90
4095
 91
0
280
0
281
0
  0
CLASS
  1
MLEADERSTYLE
  2
AcDbMLeaderStyle
  3
ACDB_MLEADERSTYLE_CLASS
 90
4095
 91
0
280
0
281
0
  0
CLASS
  1
DICTIONARYVAR
  2
AcDbDictionaryVar
  3
ObjectDBX Classes
 90
0
 91
0
280
0
281
0
  0
CLASS
  1
CELLSTYLEMAP
  2
AcDbCellStyleMap
  3
ObjectDBX Classes
 90
1152
 91
0
280
0
281
0
  0
CLASS
  1
MENTALRAYRENDERSETTINGS
  2
AcDbMentalRayRenderSettings
  3
SCENEOE
 90
1024
 91
0
280
0
281
0
  0
CLASS
  1
ACDBDETAILVIEWSTYLE
  2
AcDbDetailViewStyle
  3
ObjectDBX Classes
 90
1025
 91
0
280
0
281
0
  0
CLASS
  1
ACDBSECTIONVIEWSTYLE
  2
AcDbSectionViewStyle
  3
ObjectDBX Classes
 90
1025
 91
0
280
0
281
0
  0
CLASS
  1
RASTERVARIABLES
  2
AcDbRasterVariables
  3
ISM
 90
0
 91
0
280
0
281
0
  0
CLASS
  1
LAYOUT
  2
AcDbLayout
  3
ObjectDBX Classes
 90
0
 91
0
280
0
281
0
  0
CLASS
  1
ACDBPLACEHOLDER
  2
AcDbPlaceHolder
  3
ObjectDBX Classes
 90
0
 91
0
280
0
281
0
  0
ENDSEC
  0
SECTION
  2
TABLES
  0
TABLE
  2
VPORT
  5
8
330
0
100
AcDbSymbolTable
 70
1
  0
VPORT
  5
23
330
8
100
AcDbSymbolTableRecord
100
AcDbViewportTableRecord
  2
*Active
 70
0
 10
0.0
 20
0.0
 11
1.0
 21
1.0
 12
0.0
 22
0.0
 13
0.0
 23
0.0
 14
0.5
 24
0.5
 15
0.5
 25
0.5
 16
0.0
 26
0.0
 36
1.0
 17
0.0
 27
0.0
 37
0.0
 40
1000.0
 41
1.34
 42
50.0
 43
0.0
 44
0.0
 50
0.0
 51
0.0
 71
0
 72
1000
 73
1
 74
3
 75
0
 76
0
 77
0
 78
0
281
0
 65
0
146
0.0
  0
ENDTAB
  0
TABLE
  2
LTYPE
  5
2
330
0
100
AcDbSymbolTable
 70
3
  0
LTYPE
  5
24
330
2
100
AcDbSymbolTableRecord
100
AcDbLinetypeTableRecord
  2
ByBlock
 70
0
  3

 72
65
 73
0
 40
0.0
  0
LTYPE
  5
25
330
2
100
AcDbSymbolTableRecord
100
AcDbLinetypeTableRecord
  2
ByLayer
 70
0
  3

 72
65
 73
0
 40
0.0
  0
LTYPE
  5
26
330
2
100
AcDbSymbolTableRecord
100
AcDbLinetypeTableRecord
  2
Continuous
 70
0
  3

 72
65
 73
0
 40
0.0
  0
ENDTAB
  0
TABLE
  2
LAYER
  5
1
330
0
100
AcDbSymbolTable
 70
2
  0
LAYER
  5
27
330
1
100
AcDbSymbolTableRecord
100
AcDbLayerTableRecord
  2
0
 70
0
 62
7
  6
Continuous
370
-3
390
13
347
21
  0
LAYER
  5
28
330
1
100
AcDbSymbolTableRecord
100
AcDbLayerTableRecord
  2
Defpoints
 70
0
 62
7
  6
Continuous
290
0
370
-3
390
13
347
21
  0
ENDTAB
  0
TABLE
  2
STYLE
  5
5
330
0
100
AcDbSymbolTable
 70
1
  0
STYLE
  5
29
330
5
100
AcDbSymbolTableRecord
100
AcDbTextStyleTableRecord
  2
Standard
 70
0
 40
0.0
 41
1.0
 50
0.0
 71
0
 42
2.5
  3
txt
  4

  0
ENDTAB
  0
TABLE
  2
VIEW
  5
7
330
0
100
AcDbSymbolTable
 70
0
  0
ENDTAB
  0
TABLE
  2
UCS
  5
6
330
0
100
AcDbSymbolTable
 70
0
  0
ENDTAB
  0
TABLE
  2
APPID
  5
3
330
0
100
AcDbSymbolTable
 70
3
  0
APPID
  5
2A
330
3
100
AcDbSymbolTableRecord
100
AcDbRegAppTableRecord
  2
ACAD
 70
0
  0
APPID
  5
63
330
3
100
AcDbSymbolTableRecord
100
AcDbRegAppTableRecord
  2
HATCHBACKGROUNDCOLOR
 70
0
  0
APPID
  5
64
330
3
100
AcDbSymbolTableRecord
100
AcDbRegAppTableRecord
  2
EZDXF
 70
0
  0
ENDTAB
  0
TABLE
  2
DIMSTYLE
  5
4
330
0
100
AcDbSymbolTable
 70
1
100
AcDbDimStyleTable
  0
DIMSTYLE
105
2B
330
4
100
AcDbSymbolTableRecord
100
AcDbDimStyleTableRecord
  2
Standard
 70
0
 40
1.0
 41
2.5
 42
0.625
 43
3.75
 44
1.25
 45
0.0
 46
0.0
 47
0.0
 48
0.0
 49
2.5
140
2.5
141
2.5
142
0.0
143
0.03937007874
144
1.0
145
0.0
146
1.0
147
0.625
148
0.0
 69
0
 70
0
 71
0
 72
0
 73
0
 74
0
 75
0
 76
0
 77
1
 78
8
 79
3
170
0
171
3
172
1
173
0
174
0
175
0
176
0
177
0
178
0
179
2
271
2
272
2
273
2
274
3
275
0
276
0
277
2
278
44
279
0
280
0
281
0
282
0
283
0
284
8
285
0
286
0
288
0
289
3
290
0
371
-2
372
-2
  0
ENDTAB
  0
TABLE
  2
BLOCK_RECORD
  5
9
330
0
100
AcDbSymbolTable
 70
2
  0
BLOCK_RECORD
  5
17
330
9
100
AcDbSymbolTableRecord
100
AcDbBlockTableRecord
  2
*Model_Space
340
1A
 70
0
280
1
281
0
  0
BLOCK_RECORD
  5
1B
330
9
100
AcDbSymbolTableRecord
100
AcDbBlockTableRecord
  2
*Paper_Space
340
1E
 70
0
280
1
281
0
  0
ENDTAB
  0
ENDSEC
  0
SECTION
  2
BLOCKS
  0
BLOCK
  5
18
330
17
100
AcDbEntity
  8
0
100
AcDbBlockBegin
  2
*Model_Space
 70
0
 10
0.0
 20
0.0
 30
0.0
  3
*Model_Space
  1

  0
ENDBLK
  5
19
330
17
100
AcDbEntity
  8
0
100
AcDbBlockEnd
  0
BLOCK
  5
1C
330
1B
100
AcDbEntity
  8
0
100
AcDbBlockBegin
  2
*Paper_Space
 70
0
 10
0.0
 20
0.0
 30
0.0
  3
*Paper_Space
  1

  0
ENDBLK
  5
1D
330
1B
100
AcDbEntity
  8
0
100
AcDbBlockEnd
  0
ENDSEC
  0
SECTION
  2
ENTITIES
  0
LWPOLYLINE
  5
2F
330
17
100
AcDbEntity
  8
0
100
AcDbPolyline
 90
201
 70
1
 10
15.0
 20
648.3768105113006
 10
39.456964132942225
 20
695.0639771305706
 10
62.5936384254276
 20
737.547061066389
 10
85.75953018513707
 20
778.3301170705153
 10
108.9675845766518
 20
817.0266921576479
 10
132.1883725229266
 20
853.365103307907
 10
155.30405087874655
 20
887.7188821882951
 10
178.37533865283046
 20
922.456441495672
 10
201.54200884180855
 20
956.5365767069742
 10
224.83543352815767
 20
989.2554158168055
 10
248.39698041136404
 20
1019.3705164454755
 10
272.27698218633304
 20
1044.881682065004
 10
296.48921096094404
 20
1065.7493255909394
 10
320.515090662811
 20
1081.1955133675724
 10
343.96735197498356
 20
1094.8710101515435
 10
367.47118940120555
 20
1107.8270836107836
 10
391.3166549041248
 20
1119.3973192384422
 10
415.4867794005918
 20
1128.689519426846
 10
440.16098518039786
 20
1135.33146934626
 10
464.951328091729
 20
1137.7901265691514
 10
489.9523250358103
 20
1137.4089592903347
 10
514.8782906761212
 20
1132.0467062653095
 10
539.1114645208418
 20
1124.0538149248493
 10
563.0291586340938
 20
1113.879853300744
 10
586.5840951546616
 20
1102.2957809160746
 10
609.7853407340369
 20
1090.3280794992506
 10
632.7607363754677
 20
1078.793735498776
 10
655.7039130900249
 20
1067.9250629431244
 10
678.8233645804629
 20
1057.4295867104024
 10
702.1396371482492
 20
1046.5658134149162
 10
725.479186613732
 20
1035.1236739180908
 10
748.9780775546437
 20
1023.1851683182122
 10
772.212501669716
 20
1009.891038501233
 10
790.1498685643826
 20
1000.4546306342982
 10
805.4214736704315
 20
1006.9250256141024
 10
826.1676146369779
 20
1031.189547227213
 10
848.8561008337309
 20
1065.6682088651464
 10
872.5515336973808
 20
1100.567627436766
 10
898.7603236173709
 20
1127.5461753182326
 10
926.6207811674078
 20
1134.4017265543127
 10
951.1934523967726
 20
1134.455378674901
 10
974.3247103917647
 20
1134.5058836050214
 10
997.4586397637678
 20
1134.5512662597455
 10
1020.6486378075059
 20
1134.5865153765105
 10
1043.9920374780374
 20
1134.4142170011555
 10
1067.3447379679212
 20
1133.6256272712014
 10
1090.6667732970245
 20
1132.5986880195724
 10
1113.997627685664
 20
1131.0755315245253
 10
1137.248381339052
 20
1129.2870250765818
 10
1160.4754398255716
 20
1127.3196722739153
 10
1183.6566510342045
 20
1125.179535527283
 10
1206.8121933430002
 20
1123.0271992777743
 10
1229.9317599873186
 20
1120.8312655803124
 10
1253.006334433971
 20
1118.751116106624
 10
1276.1088579632842
 20
1116.795887952201
 10
1299.252522586787
 20
1114.8386979067614
 10
1322.405643113396
 20
1112.8478855523322
 10
1345.5688612255776
 20
1110.8210874051529
 10
1368.7399560377567
 20
1108.7215660511638
 10
1391.911798666471
 20
1106.5565953301245
 10
1415.086841736292
 20
1104.3167959751797
 10
1438.2647024863163
 20
1101.9993013691821
 10
1461.4461034124438
 20
1099.5963626976234
 10
1484.6304513434866
 20
1097.102321952007
 10
1507.8189231382132
 20
1094.5116956531751
 10
1531.0104778166992
 20
1091.8142282019376
 10
1554.1990250671208
 20
1089.0094202763794
 10
1577.38596586573
 20
1086.1108024406847
 10
1600.5752431523772
 20
1083.1110455181483
 10
1623.7635313437152
 20
1080.0087065811238
 10
1646.9588401989492
 20
1076.8090297078338
 10
1670.1704139364504
 20
1073.4768087335399
 10
1693.3918765162034
 20
1069.9823497344387
 10
1716.6241279905514
 20
1066.3168168517823
 10
1739.8684615616828
 20
1062.4453558446792
 10
1763.1221343526404
 20
1058.3542209795305
 10
1786.3873691832264
 20
1054.0188397111704
 10
1809.6634932441139
 20
1049.4154948723337
 10
1832.9458231866422
 20
1044.52290148277
 10
1856.244065093144
 20
1039.3336867500739
 10
1879.5871051539493
 20
1033.7768904566285
 10
1902.970718763076
 20
1027.7224256105333
 10
1926.3730846142446
 20
1021.1226904652574
 10
1949.8038905948677
 20
1013.9307879746598
 10
1973.2531835039217
 20
1006.0460429035286
 10
1996.7082722200507
 20
997.4649956422411
 10
2020.1812663041903
 20
988.1294100952709
 10
2043.650418022179
 20
977.9738654813345
 10
2067.124126200551
 20
967.0402112392327
 10
2090.655800202878
 20
955.1756299914789
 10
2114.2228365369597
 20
942.1211928734426
 10
2137.886476549888
 20
927.7862047537589
 10
2161.7280490329163
 20
911.3496278447883
 10
2185.6159955561384
 20
891.9803719700496
 10
2209.3895368188983
 20
869.5181840346602
 10
2233.1259119004903
 20
844.204618451915
 10
2257.0981462707314
 20
814.5326022738587
 10
2281.187384961279
 20
774.985280273019
 10
2304.9576362380694
 20
718.7290234547647
 10
2329.0076088907367
 20
647.4181364174275
 10
2329.2999907177095
 20
513.5072596639559
 10
2305.561647137916
 20
442.09203132479877
 10
2282.03728183709
 20
385.73251115157353
 10
2258.120967730865
 20
346.0803735332722
 10
2234.278533428741
 20
316.3039585153251
 10
2210.652923721844
 20
290.88698248543835
 10
2186.97769681673
 20
268.32119461955205
 10
2163.174559552793
 20
248.84780974091024
 10
2139.4049894895875
 20
232.30727837223344
 10
2115.8041730001078
 20
217.86909274926575
 10
2092.2943673693076
 20
204.7118677666806
 10
2068.814727880704
 20
192.74464172964582
 10
2045.3889884993282
 20
181.70858694701974
 10
2021.9644076924562
 20
171.45065427080158
 10
1998.5324039658497
 20
162.01265606485492
 10
1975.1150105252334
 20
153.32926713947
 10
1951.700372230015
 20
145.34219907444373
 10
1928.3011951879384
 20
138.04804771261803
 10
1904.9278721328744
 20
131.34618224221958
 10
1881.5709200594092
 20
125.18966375926345
 10
1858.2523679326366
 20
119.53098626016526
 10
1834.9770083810615
 20
114.24008244131755
 10
1811.7162653582081
 20
109.24586662169838
 10
1788.4604650697413
 20
104.54092369476257
 10
1765.2143837667156
 20
100.10398933440501
 10
1741.9787978200038
 20
95.911349537516
 10
1718.7515917341545
 20
91.9384222866197
 10
1695.5355683847135
 20
88.1714739567476
 10
1672.3295867830554
 20
84.57564499218597
 10
1649.13278546975
 20
81.14209568808724
 10
1625.9516700911656
 20
77.84116024659738
 10
1602.777150255138
 20
74.63759247108942
 10
1579.6011933788832
 20
71.53660141281921
 10
1556.4271313151821
 20
68.53675868005064
 10
1533.251053166622
 20
65.63071794794234
 10
1510.071498885205
 20
62.83200353390714
 10
1486.8945609051384
 20
60.14014271591566
 10
1463.721324980493
 20
57.5448845383014
 10
1440.5506382088997
 20
55.04074043508831
 10
1417.3831184632465
 20
52.62205504198164
 10
1394.2180770919529
 20
50.281076463364116
 10
1371.0559093702288
 20
48.01493978086046
 10
1347.8942036541912
 20
45.81425510694157
 10
1324.7400569959775
 20
43.68632734236098
 10
1301.5958506846182
 20
41.59442912147597
 10
1278.4609533650348
 20
39.53619418100345
 10
1255.3671881792422
 20
37.48010076733442
 10
1232.3019173154748
 20
35.29920927331614
 10
1209.1921602885982
 20
33.0023381879281
 10
1186.0536898317375
 20
30.74963022574866
 10
1162.8745929021634
 20
28.507563181080627
 10
1139.6563468928891
 20
26.438801416634874
 10
1116.4136249579087
 20
24.548780829850898
 10
1093.08964432352
 20
22.923757882789346
 10
1069.7723157873882
 20
21.794985958965412
 10
1046.4232815601902
 20
20.904427375916725
 10
1023.0808568478759
 20
20.630194886188292
 10
999.8962270643638
 20
20.564191703109373
 10
976.7596791842053
 20
20.508545063715587
 10
953.6257610095369
 20
20.458034030483986
 10
929.0530897801737
 20
20.40438190989562
 10
901.1629611028455
 20
27.13820697517349
 10
874.8366113788875
 20
54.00204931156543
 10
850.9890059576306
 20
88.79766212273626
 10
828.1501749603239
 20
123.17691913797728
 10
807.298273692892
 20
147.3506153313616
 10
791.998559328424
 20
153.75426070533535
 10
774.1025702820142
 20
144.23961406996926
 10
750.9264203869527
 20
130.84415112196382
 10
727.4798864594192
 20
118.80314459442548
 10
704.1905249608355
 20
107.25919524833273
 10
680.9219145334624
 20
96.29370823451632
 10
657.8485150304019
 20
85.69737424853372
 10
634.953018293034
 20
74.7286172530329
 10
612.028209784325
 20
63.09405446620417
 10
588.8794458724709
 20
51.025152155293654
 10
565.3753191637253
 20
39.33833072427319
 10
541.5022806614483
 20
29.060022522404893
 10
517.3042411566504
 20
20.961386174632366
 10
492.40192901288003
 20
15.490337783267705
 10
467.4028349182843
 20
15.0
 10
442.6019919267241
 20
17.350379524414052
 10
417.89901739276354
 20
23.884519006462142
 10
393.68854624588556
 20
33.07108470656124
 10
369.79278329151384
 20
44.537081844140516
 10
346.2325934918619
 20
57.39039541860802
 10
322.72083774291065
 20
70.96335068061023
 10
298.62773683519515
 20
86.30447518080484
 10
274.32461426508587
 20
107.06618999201407
 10
250.33343823462724
 20
132.47283338926002
 10
226.64060963577467
 20
162.48475852561114
 10
203.20453069454223
 20
195.10156815154085
 10
179.88926054602027
 20
229.08021441014375
 10
156.66650106907875
 20
263.7166950117348
 10
133.40102732271887
 20
297.9692050010671
 10
110.02177851291796
 20
334.20586934618115
 10
86.64496552644643
 20
372.8007307490839
 10
63.301203542838266
 20
413.482237290889
 10
39.979235080513625
 20
455.86388314208955
 10
15.318631013860667
 20
502.44380616267097
 10
15.0
 20
648.3768105113006
  0
TEXT
  5
30
330
17
100
AcDbEntity
  8
0
100
AcDbText
 10
1166.847364248376
 20
578.2879337479875
 30
0.0
 40
8.0
  1
F08_BOTTOM
100
AcDbText
  0
LWPOLYLINE
  5
31
330
17
100
AcDbEntity
  8
0
100
AcDbPolyline
 90
201
 70
1
 10
2349.2999907177095
 20
648.3768105113006
 10
2373.7569548506517
 20
695.0639771305706
 10
2396.8936291431373
 20
737.547061066389
 10
2420.0595209028465
 20
778.3301170705153
 10
2443.2675752943614
 20
817.0266921576479
 10
2466.4883632406363
 20
853.365103307907
 10
2489.604041596456
 20
887.7188821882951
 10
2512.67532937054
 20
922.456441495672
 10
2535.841999559518
 20
956.5365767069742
 10
2559.1354242458674
 20
989.2554158168055
 10
2582.6969711290735
 20
1019.3705164454755
 10
2606.5769729040426
 20
1044.881682065004
 10
2630.7892016786536
 20
1065.7493255909394
 10
2654.8150813805205
 20
1081.1955133675724
 10
2678.267342692693
 20
1094.8710101515435
 10
2701.7711801189153
 20
1107.8270836107836
 10
2725.6166456218343
 20
1119.3973192384422
 10
2749.7867701183013
 20
1128.689519426846
 10
2774.4609758981073
 20
1135.33146934626
 10
2799.2513188094385
 20
1137.7901265691514
 10
2824.2523157535197
 20
1137.4089592903347
 10
2849.1782813938307
 20
1132.0467062653095
 10
2873.4114552385513
 20
1124.0538149248493
 10
2897.3291493518036
 20
1113.879853300744
 10
2920.884085872371
 20
1102.2957809160746
 10
2944.0853314517467
 20
1090.3280794992506
 10
2967.0607270931773
 20
1078.793735498776
 10
2990.003903807735
 20
1067.9250629431244
 10
3013.1233552981726
 20
1057.4295867104024
 10
3036.4396278659588
 20
1046.5658134149162
 10
3059.7791773314416
 20
1035.1236739180908
 10
3083.2780682723533
 20
1023.1851683182122
 10
3106.5124923874255
 20
1009.891038501233
 10
3124.4498592820923
 20
1000.4546306342982
 10
3139.721464388141
 20
1006.9250256141024
 10
3160.4676053546873
 20
1031.189547227213
 10
3183.1560915514406
 20
1065.6682088651464
 10
3206.8515244150904
 20
1100.567627436766
 10
3233.0603143350804
 20
1127.5461753182326
 10
3260.9207718851176
 20
1134.4017265543127
 10
3285.493443114482
 20
1134.455378674901
 10
3308.6247011094742
 20
1134.5058836050214
 10
3331.7586304814777
 20
1134.5512662597455
 10
3354.9486285252156
 20
1134.5865153765105
 10
3378.2920281957468
 20
1134.4142170011555
 10
3401.644728685631
 20
1133.6256272712014
 10
3424.966764014734
 20
1132.5986880195724
 10
3448.2976184033732
 20
1131.0755315245253
 10
3471.5483720567618
 20
1129.2870250765818
 10
3494.775430543281
 20
1127.3196722739153
 10
3517.956641751914
 20
1125.179535527283
 10
3541.1121840607098
 20
1123.0271992777743
 10
3564.2317507050284
 20
1120.8312655803124
 10
3587.3063251516805
 20
1118.751116106624
 10
3610.4088486809937
 20
1116.795887952201
 10
3633.5525133044966
 20
1114.8386979067614
 10
3656.705633831106
 20
1112.8478855523322
 10
3679.868851943287
 20
1110.8210874051529
 10
3703.039946755466
 20
1108.7215660511638
 10
3726.2117893841805
 20
1106.5565953301245
 10
3749.3868324540017
 20
1104.3167959751797
 10
3772.564693204026
 20
1101.9993013691821
 10
3795.7460941301533
 20
1099.5963626976234
 10
3818.930442061196
 20
1097.102321952007
 10
3842.118913855923
 20
1094.5116956531751
 10
3865.3104685344088
 20
1091.8142282019376
 10
3888.4990157848306
 20
1089.0094202763794
 10
3911.6859565834393
 20
1086.1108024406847
 10
3934.875233870087
 20
1083.1110455181483
 10
3958.063522061425
 20
1080.0087065811238
 10
3981.2588309166586
 20
1076.8090297078338
 10
4004.47040465416
 20
1073.4768087335399
 10
4027.691867233913
 20
1069.9823497344387
 10
4050.9241187082607
 20
1066.3168168517823
 10
4074.168452279392
 20
1062.4453558446792
 10
4097.42212507035
 20
1058.3542209795305
 10
4120.687359900936
 20
1054.0188397111704
 10
4143.963483961823
 20
1049.4154948723337
 10
4167.245813904352
 20
1044.52290148277
 10
4190.544055810853
 20
1039.3336867500739
 10
4213.887095871659
 20
1033.7768904566285
 10
4237.270709480786
 20
1027.7224256105333
 10
4260.673075331954
 20
1021.1226904652574
 10
4284.103881312577
 20
1013.9307879746598
 10
4307.553174221632
 20
1006.0460429035286
 10
4331.00826293776
 20
997.4649956422411
 10
4354.4812570219
 20
988.1294100952709
 10
4377.950408739889
 20
977.9738654813345
 10
4401.424116918261
 20
967.0402112392327
 10
4424.955790920587
 20
955.1756299914789
 10
4448.522827254669
 20
942.1211928734426
 10
4472.186467267597
 20
927.7862047537589
 10
4496.028039750626
 20
911.3496278447883
 10
4519.915986273848
 20
891.9803719700496
 10
4543.689527536608
 20
869.5181840346602
 10
4567.4259026182
 20
844.204618451915
 10
4591.3981369884405
 20
814.5326022738587
 10
4615.487375678988
 20
774.985280273019
 10
4639.257626955779
 20
718.7290234547647
 10
4663.307599608446
 20
647.4181364174275
 10
4663.599981435419
 20
513.5072596639559
 10
4639.861637855625
 20
442.09203132479877
 10
4616.3372725548
 20
385.73251115157353
 10
4592.420958448574
 20
346.0803735332722
 10
4568.578524146451
 20
316.3039585153251
 10
4544.952914439554
 20
290.88698248543835
 10
4521.277687534439
 20
268.32119461955205
 10
4497.474550270503
 20
248.84780974091024
 10
4473.704980207297
 20
232.30727837223344
 10
4450.104163717817
 20
217.86909274926575
 10
4426.594358087017
 20
204.7118677666806
 10
4403.114718598414
 20
192.74464172964582
 10
4379.688979217038
 20
181.70858694701974
 10
4356.264398410166
 20
171.45065427080158
 10
4332.832394683559
 20
162.01265606485492
 10
4309.415001242943
 20
153.32926713947
 10
4286.000362947725
 20
145.34219907444373
 10
4262.601185905648
 20
138.04804771261803
 10
4239.227862850584
 20
131.34618224221958
 10
4215.870910777119
 20
125.18966375926345
 10
4192.552358650346
 20
119.53098626016526
 10
4169.276999098771
 20
114.24008244131755
 10
4146.016256075918
 20
109.24586662169838
 10
4122.760455787451
 20
104.54092369476257
 10
4099.514374484425
 20
100.10398933440501
 10
4076.2787885377134
 20
95.911349537516
 10
4053.0515824518643
 20
91.9384222866197
 10
4029.835559102423
 20
88.1714739567476
 10
4006.6295775007648
 20
84.57564499218597
 10
3983.4327761874592
 20
81.14209568808724
 10
3960.2516608088754
 20
77.84116024659738
 10
3937.0771409728477
 20
74.63759247108942
 10
3913.9011840965927
 20
71.53660141281921
 10
3890.7271220328917
 20
68.53675868005064
 10
3867.551043884331
 20
65.63071794794234
 10
3844.3714896029146
 20
62.83200353390714
 10
3821.194551622848
 20
60.14014271591566
 10
3798.0213156982027
 20
57.5448845383014
 10
3774.8506289266093
 20
55.04074043508831
 10
3751.6831091809563
 20
52.62205504198164
 10
3728.518067809662
 20
50.281076463364116
 10
3705.3559000879386
 20
48.01493978086046
 10
3682.1941943719007
 20
45.81425510694157
 10
3659.0400477136873
 20
43.68632734236098
 10
3635.8958414023277
 20
41.59442912147597
 10
3612.7609440827446
 20
39.53619418100345
 10
3589.6671788969516
 20
37.48010076733442
 10
3566.6019080331844
 20
35.29920927331614
 10
3543.4921510063077
 20
33.0023381879281
 10
3520.353680549447
 20
30.74963022574866
 10
3497.174583619873
 20
28.507563181080627
 10
3473.956337610599
 20
26.438801416634874
 10
3450.7136156756183
 20
24.548780829850898
 10
3427.3896350412297
 20
22.923757882789346
 10
3404.072306505098
 20
21.794985958965412
 10
3380.7232722779
 20
20.904427375916725
 10
3357.3808475655856
 20
20.630194886188292
 10
3334.1962177820733
 20
20.564191703109373
 10
3311.059669901915
 20
20.508545063715587
 10
3287.9257517272463
 20
20.458034030483986
 10
3263.353080497883
 20
20.40438190989562
 10
3235.462951820555
 20
27.13820697517349
 10
3209.136602096597
 20
54.00204931156543
 10
3185.28899667534
 20
88.79766212273626
 10
3162.4501656780335
 20
123.17691913797728
 10
3141.5982644106016
 20
147.3506153313616
 10
3126.2985500461336
 20
153.75426070533535
 10
3108.402560999724
 20
144.23961406996926
 10
3085.2264111046625
 20
130.84415112196382
 10
3061.7798771771286
 20
118.80314459442548
 10
3038.4905156785453
 20
107.25919524833273
 10
3015.221905251172
 20
96.29370823451632
 10
2992.1485057481113
 20
85.69737424853372
 10
2969.253009010744
 20
74.7286172530329
 10
2946.3282005020346
 20
63.09405446620417
 10
2923.1794365901806
 20
51.025152155293654
 10
2899.675309881435
 20
39.33833072427319
 10
2875.802271379158
 20
29.060022522404893
 10
2851.6042318743603
 20
20.961386174632366
 10
2826.7019197305895
 20
15.490337783267705
 10
2801.702825635994
 20
15.0
 10
2776.9019826444337
 20
17.350379524414052
 10
2752.199008110473
 20
23.884519006462142
 10
2727.988536963595
 20
33.07108470656124
 10
2704.0927740092234
 20
44.537081844140516
 10
2680.5325842095717
 20
57.39039541860802
 10
2657.02082846062
 20
70.96335068061023
 10
2632.927727552905
 20
86.30447518080484
 10
2608.6246049827955
 20
107.06618999201407
 10
2584.633428952337
 20
132.47283338926002
 10
2560.940600353484
 20
162.48475852561114
 10
2537.504521412252
 20
195.10156815154085
 10
2514.18925126373
 20
229.08021441014375
 10
2490.9664917867885
 20
263.7166950117348
 10
2467.7010180404286
 20
297.9692050010671
 10
2444.3217692306275
 20
334.20586934618115
 10
2420.944956244156
 20
372.8007307490839
 10
2397.601194260548
 20
413.482237290889
 10
2374.2792257982233
 20
455.86388314208955
 10
2349.6186217315703
 20
502.44380616267097
 10
2349.2999907177095
 20
648.3768105113006
  0
TEXT
  5
32
330
17
100
AcDbEntity
  8
0
100
AcDbText
 10
3501.147354966086
 20
578.2879337479875
 30
0.0
 40
8.0
  1
F08_TOP
100
AcDbText
  0
LWPOLYLINE
  5
33
330
17
100
AcDbEntity
  8
0
100
AcDbPolyline
 90
5
 70
1
 10
2349.2999907177095
 20
1157.7901265691514
 10
2349.2999907177095
 20
1221.7901265691514
 10
4049.3584137144303
 20
1221.7901265691514
 10
4049.3584137144303
 20
1157.7901265691514
 10
2349.2999907177095
 20
1157.7901265691514
  0
TEXT
  5
34
330
17
100
AcDbEntity
  8
0
100
AcDbText
 10
3029.3233599163977
 20
1183.3901265691516
 30
0.0
 40
8.0
  1
Z01_MAIN_RIGHT_FACING_A
100
AcDbText
  0
LWPOLYLINE
  5
35
330
17
100
AcDbEntity
  8
0
100
AcDbPolyline
 90
5
 70
1
 10
2349.2999907177095
 20
1241.7901265691514
 10
2349.2999907177095
 20
1305.7901265691514
 10
4049.3584137144303
 20
1305.7901265691514
 10
4049.3584137144303
 20
1241.7901265691514
 10
2349.2999907177095
 20
1241.7901265691514
  0
TEXT
  5
36
330
17
100
AcDbEntity
  8
0
100
AcDbText
 10
3029.3233599163977
 20
1267.3901265691516
 30
0.0
 40
8.0
  1
Z01_MAIN_RIGHT_FACING_B
100
AcDbText
  0
LWPOLYLINE
  5
37
330
17
100
AcDbEntity
  8
0
100
AcDbPolyline
 90
5
 70
1
 10
2349.2999907177095
 20
1325.7901265691514
 10
2349.2999907177095
 20
1419.7901265691514
 10
3623.2999907177095
 20
1419.7901265691514
 10
3623.2999907177095
 20
1325.7901265691514
 10
2349.2999907177095
 20
1325.7901265691514
  0
TEXT
  5
38
330
17
100
AcDbEntity
  8
0
100
AcDbText
 10
2858.8999907177094
 20
1363.3901265691516
 30
0.0
 40
8.0
  1
W02_USB_DATA_SLEEVE
100
AcDbText
  0
LWPOLYLINE
  5
39
330
17
100
AcDbEntity
  8
0
100
AcDbPolyline
 90
5
 70
1
 10
4683.599981435419
 20
15.0
 10
4683.599981435419
 20
109.0
 10
5907.599981435419
 20
109.0
 10
5907.599981435419
 20
15.0
 10
4683.599981435419
 20
15.0
  0
TEXT
  5
3A
330
17
100
AcDbEntity
  8
0
100
AcDbText
 10
5173.1999814354185
 20
52.6
 30
0.0
 40
8.0
  1
W01_POWER_TO_DESK_SLEEVE
100
AcDbText
  0
LWPOLYLINE
  5
3B
330
17
100
AcDbEntity
  8
0
100
AcDbPolyline
 90
5
 70
1
 10
4683.599981435419
 20
129.0
 10
4683.599981435419
 20
193.0
 10
5820.011097967341
 20
193.0
 10
5820.011097967341
 20
129.0
 10
4683.599981435419
 20
129.0
  0
TEXT
  5
3C
330
17
100
AcDbEntity
  8
0
100
AcDbText
 10
5138.164428048187
 20
154.6
 30
0.0
 40
8.0
  1
Z02_HOOD_SERVICE_FACING_A
100
AcDbText
  0
LWPOLYLINE
  5
3D
330
17
100
AcDbEntity
  8
0
100
AcDbPolyline
 90
5
 70
1
 10
4683.599981435419
 20
213.0
 10
4683.599981435419
 20
277.0
 10
5820.011097967341
 20
277.0
 10
5820.011097967341
 20
213.0
 10
4683.599981435419
 20
213.0
  0
TEXT
  5
3E
330
17
100
AcDbEntity
  8
0
100
AcDbText
 10
5138.164428048187
 20
238.6
 30
0.0
 40
8.0
  1
Z02_HOOD_SERVICE_FACING_B
100
AcDbText
  0
LWPOLYLINE
  5
3F
330
17
100
AcDbEntity
  8
0
100
AcDbPolyline
 90
5
 70
1
 10
4683.599981435419
 20
297.0
 10
4683.599981435419
 20
391.0
 10
5732.599981435419
 20
391.0
 10
5732.599981435419
 20
297.0
 10
4683.599981435419
 20
297.0
  0
TEXT
  5
40
330
17
100
AcDbEntity
  8
0
100
AcDbText
 10
5103.1999814354185
 20
334.6
 30
0.0
 40
8.0
  1
W03_BACK_HEATER_SLEEVE
100
AcDbText
  0
LWPOLYLINE
  5
41
330
17
100
AcDbEntity
  8
0
100
AcDbPolyline
 90
5
 70
1
 10
4683.599981435419
 20
411.0
 10
4683.599981435419
 20
505.0
 10
5532.599981435419
 20
505.0
 10
5532.599981435419
 20
411.0
 10
4683.599981435419
 20
411.0
  0
TEXT
  5
42
330
17
100
AcDbEntity
  8
0
100
AcDbText
 10
5023.1999814354185
 20
448.6
 30
0.0
 40
8.0
  1
W05_BACK_NTC_SLEEVE
100
AcDbText
  0
LWPOLYLINE
  5
43
330
17
100
AcDbEntity
  8
0
100
AcDbPolyline
 90
5
 70
1
 10
4683.599981435419
 20
525.0
 10
4683.599981435419
 20
619.0
 10
5457.599981435419
 20
619.0
 10
5457.599981435419
 20
525.0
 10
4683.599981435419
 20
525.0
  0
TEXT
  5
44
330
17
100
AcDbEntity
  8
0
100
AcDbText
 10
4993.1999814354185
 20
562.6
 30
0.0
 40
8.0
  1
W04_SEAT_HEATER_SLEEVE
100
AcDbText
  0
LWPOLYLINE
  5
45
330
17
100
AcDbEntity
  8
0
100
AcDbPolyline
 90
5
 70
1
 10
4683.599981435419
 20
639.0
 10
4683.599981435419
 20
733.0
 10
5457.599981435419
 20
733.0
 10
5457.599981435419
 20
639.0
 10
4683.599981435419
 20
639.0
  0
TEXT
  5
46
330
17
100
AcDbEntity
  8
0
100
AcDbText
 10
4993.1999814354185
 20
676.6
 30
0.0
 40
8.0
  1
W06_SEAT_NTC_SLEEVE
100
AcDbText
  0
LWPOLYLINE
  5
47
330
17
100
AcDbEntity
  8
0
100
AcDbPolyline
 90
5
 70
1
 10
4683.599981435419
 20
753.0
 10
4683.599981435419
 20
817.0
 10
5384.62444813854
 20
817.0
 10
5384.62444813854
 20
753.0
 10
4683.599981435419
 20
753.0
  0
TEXT
  5
48
330
17
100
AcDbEntity
  8
0
100
AcDbText
 10
4964.009768116667
 20
778.6
 30
0.0
 40
8.0
  1
Z03_FILL_SERVICE_FACING_A
100
AcDbText
  0
LWPOLYLINE
  5
49
330
17
100
AcDbEntity
  8
0
100
AcDbPolyline
 90
5
 70
1
 10
4683.599981435419
 20
837.0
 10
4683.599981435419
 20
901.0
 10
5384.62444813854
 20
901.0
 10
5384.62444813854
 20
837.0
 10
4683.599981435419
 20
837.0
  0
TEXT
  5
4A
330
17
100
AcDbEntity
  8
0
100
AcDbText
 10
4964.009768116667
 20
862.6
 30
0.0
 40
8.0
  1
Z03_FILL_SERVICE_FACING_B
100
AcDbText
  0
LWPOLYLINE
  5
4B
330
17
100
AcDbEntity
  8
0
100
AcDbPolyline
 90
5
 70
1
 10
4683.599981435419
 20
921.0
 10
4683.599981435419
 20
985.0
 10
5063.56211652289
 20
985.0
 10
5063.56211652289
 20
921.0
 10
4683.599981435419
 20
921.0
  0
TEXT
  5
4C
330
17
100
AcDbEntity
  8
0
100
AcDbText
 10
4835.584835470408
 20
946.6
 30
0.0
 40
8.0
  1
Z04_ELECTRIC_SERVICE_FACING_A
100
AcDbText
  0
LWPOLYLINE
  5
4D
330
17
100
AcDbEntity
  8
0
100
AcDbPolyline
 90
5
 70
1
 10
4683.599981435419
 20
1005.0
 10
4683.599981435419
 20
1069.0
 10
5063.56211652289
 20
1069.0
 10
5063.56211652289
 20
1005.0
 10
4683.599981435419
 20
1005.0
  0
TEXT
  5
4E
330
17
100
AcDbEntity
  8
0
100
AcDbText
 10
4835.584835470408
 20
1030.6
 30
0.0
 40
8.0
  1
Z04_ELECTRIC_SERVICE_FACING_B
100
AcDbText
  0
LWPOLYLINE
  5
4F
330
17
100
AcDbEntity
  8
0
100
AcDbPolyline
 90
5
 70
1
 10
4683.599981435419
 20
1089.0
 10
4683.599981435419
 20
1238.0
 10
4857.599981435419
 20
1238.0
 10
4857.599981435419
 20
1089.0
 10
4683.599981435419
 20
1089.0
  0
TEXT
  5
50
330
17
100
AcDbEntity
  8
0
100
AcDbText
 10
4753.1999814354185
 20
1148.6
 30
0.0
 40
8.0
  1
J09_BULKHEAD_REINFORCEMENT
100
AcDbText
  0
LWPOLYLINE
  5
51
330
17
100
AcDbEntity
  8
0
100
AcDbPolyline
 90
5
 70
1
 10
4683.599981435419
 20
1258.0
 10
4683.599981435419
 20
1407.0
 10
4857.599981435419
 20
1407.0
 10
4857.599981435419
 20
1258.0
 10
4683.599981435419
 20
1258.0
  0
TEXT
  5
52
330
17
100
AcDbEntity
  8
0
100
AcDbText
 10
4753.1999814354185
 20
1317.6
 30
0.0
 40
8.0
  1
J09_BULKHEAD_REINFORCEMENT
100
AcDbText
  0
LWPOLYLINE
  5
53
330
17
100
AcDbEntity
  8
0
100
AcDbPolyline
 90
5
 70
1
 10
5927.599981435419
 20
15.0
 10
5927.599981435419
 20
104.0
 10
6016.599981435419
 20
104.0
 10
6016.599981435419
 20
15.0
 10
5927.599981435419
 20
15.0
  0
TEXT
  5
54
330
17
100
AcDbEntity
  8
0
100
AcDbText
 10
5963.1999814354185
 20
50.6
 30
0.0
 40
8.0
  1
Z01_MAIN_RIGHT_END_START
100
AcDbText
  0
LWPOLYLINE
  5
55
330
17
100
AcDbEntity
  8
0
100
AcDbPolyline
 90
5
 70
1
 10
5927.599981435419
 20
124.0
 10
5927.599981435419
 20
213.0
 10
6016.599981435419
 20
213.0
 10
6016.599981435419
 20
124.0
 10
5927.599981435419
 20
124.0
  0
TEXT
  5
56
330
17
100
AcDbEntity
  8
0
100
AcDbText
 10
5963.1999814354185
 20
159.6
 30
0.0
 40
8.0
  1
Z01_MAIN_RIGHT_END_STOP
100
AcDbText
  0
LWPOLYLINE
  5
57
330
17
100
AcDbEntity
  8
0
100
AcDbPolyline
 90
5
 70
1
 10
5927.599981435419
 20
233.0
 10
5927.599981435419
 20
322.0
 10
6016.599981435419
 20
322.0
 10
6016.599981435419
 20
233.0
 10
5927.599981435419
 20
233.0
  0
TEXT
  5
58
330
17
100
AcDbEntity
  8
0
100
AcDbText
 10
5963.1999814354185
 20
268.6
 30
0.0
 40
8.0
  1
Z02_HOOD_SERVICE_END_START
100
AcDbText
  0
LWPOLYLINE
  5
59
330
17
100
AcDbEntity
  8
0
100
AcDbPolyline
 90
5
 70
1
 10
5927.599981435419
 20
342.0
 10
5927.599981435419
 20
431.0
 10
6016.599981435419
 20
431.0
 10
6016.599981435419
 20
342.0
 10
5927.599981435419
 20
342.0
  0
TEXT
  5
5A
330
17
100
AcDbEntity
  8
0
100
AcDbText
 10
5963.1999814354185
 20
377.6
 30
0.0
 40
8.0
  1
Z02_HOOD_SERVICE_END_STOP
100
AcDbText
  0
LWPOLYLINE
  5
5B
330
17
100
AcDbEntity
  8
0
100
AcDbPolyline
 90
5
 70
1
 10
5927.599981435419
 20
451.0
 10
5927.599981435419
 20
540.0
 10
6016.599981435419
 20
540.0
 10
6016.599981435419
 20
451.0
 10
5927.599981435419
 20
451.0
  0
TEXT
  5
5C
330
17
100
AcDbEntity
  8
0
100
AcDbText
 10
5963.1999814354185
 20
486.6
 30
0.0
 40
8.0
  1
Z03_FILL_SERVICE_END_START
100
AcDbText
  0
LWPOLYLINE
  5
5D
330
17
100
AcDbEntity
  8
0
100
AcDbPolyline
 90
5
 70
1
 10
5927.599981435419
 20
560.0
 10
5927.599981435419
 20
649.0
 10
6016.599981435419
 20
649.0
 10
6016.599981435419
 20
560.0
 10
5927.599981435419
 20
560.0
  0
TEXT
  5
5E
330
17
100
AcDbEntity
  8
0
100
AcDbText
 10
5963.1999814354185
 20
595.6
 30
0.0
 40
8.0
  1
Z03_FILL_SERVICE_END_STOP
100
AcDbText
  0
LWPOLYLINE
  5
5F
330
17
100
AcDbEntity
  8
0
100
AcDbPolyline
 90
5
 70
1
 10
5927.599981435419
 20
669.0
 10
5927.599981435419
 20
758.0
 10
6016.599981435419
 20
758.0
 10
6016.599981435419
 20
669.0
 10
5927.599981435419
 20
669.0
  0
TEXT
  5
60
330
17
100
AcDbEntity
  8
0
100
AcDbText
 10
5963.1999814354185
 20
704.6
 30
0.0
 40
8.0
  1
Z04_ELECTRIC_SERVICE_END_START
100
AcDbText
  0
LWPOLYLINE
  5
61
330
17
100
AcDbEntity
  8
0
100
AcDbPolyline
 90
5
 70
1
 10
5927.599981435419
 20
778.0
 10
5927.599981435419
 20
867.0
 10
6016.599981435419
 20
867.0
 10
6016.599981435419
 20
778.0
 10
5927.599981435419
 20
778.0
  0
TEXT
  5
62
330
17
100
AcDbEntity
  8
0
100
AcDbText
 10
5963.1999814354185
 20
813.6
 30
0.0
 40
8.0
  1
Z04_ELECTRIC_SERVICE_END_STOP
100
AcDbText
  0
ENDSEC
  0
SECTION
  2
OBJECTS
  0
DICTIONARY
  5
A
330
0
100
AcDbDictionary
281
1
  3
ACAD_COLOR
350
B
  3
ACAD_GROUP
350
C
  3
ACAD_LAYOUT
350
D
  3
ACAD_MATERIAL
350
E
  3
ACAD_MLEADERSTYLE
350
F
  3
ACAD_MLINESTYLE
350
10
  3
ACAD_PLOTSETTINGS
350
11
  3
ACAD_PLOTSTYLENAME
350
12
  3
ACAD_SCALELIST
350
14
  3
ACAD_TABLESTYLE
350
15
  3
ACAD_VISUALSTYLE
350
16
  3
EZDXF_META
350
2D
  0
DICTIONARY
  5
B
330
A
100
AcDbDictionary
281
1
  0
DICTIONARY
  5
C
330
A
100
AcDbDictionary
281
1
  0
DICTIONARY
  5
D
330
A
100
AcDbDictionary
281
1
  3
Model
350
1A
  3
Layout1
350
1E
  0
DICTIONARY
  5
E
330
A
100
AcDbDictionary
281
1
  3
ByBlock
350
1F
  3
ByLayer
350
20
  3
Global
350
21
  0
DICTIONARY
  5
F
330
A
100
AcDbDictionary
281
1
  3
Standard
350
2C
  0
DICTIONARY
  5
10
330
A
100
AcDbDictionary
281
1
  3
Standard
350
22
  0
DICTIONARY
  5
11
330
A
100
AcDbDictionary
281
1
  0
ACDBDICTIONARYWDFLT
  5
12
330
A
100
AcDbDictionary
281
1
  3
Normal
350
13
100
AcDbDictionaryWithDefault
340
13
  0
ACDBPLACEHOLDER
  5
13
330
12
  0
DICTIONARY
  5
14
330
A
100
AcDbDictionary
281
1
  0
DICTIONARY
  5
15
330
A
100
AcDbDictionary
281
1
  0
DICTIONARY
  5
16
330
A
100
AcDbDictionary
281
1
  0
LAYOUT
  5
1A
330
D
100
AcDbPlotSettings
  1

  4
A3
  6

 40
7.5
 41
20.0
 42
7.5
 43
20.0
 44
420.0
 45
297.0
 46
0.0
 47
0.0
 48
0.0
 49
0.0
140
0.0
141
0.0
142
1.0
143
1.0
 70
1024
 72
1
 73
0
 74
5
  7

 75
16
 76
0
 77
2
 78
300
147
1.0
148
0.0
149
0.0
100
AcDbLayout
  1
Model
 70
1
 71
0
 10
0.0
 20
0.0
 11
420.0
 21
297.0
 12
0.0
 22
0.0
 32
0.0
 14
1e+20
 24
1e+20
 34
1e+20
 15
-1e+20
 25
-1e+20
 35
-1e+20
146
0.0
 13
0.0
 23
0.0
 33
0.0
 16
1.0
 26
0.0
 36
0.0
 17
0.0
 27
1.0
 37
0.0
 76
1
330
17
  0
LAYOUT
  5
1E
330
D
100
AcDbPlotSettings
  1

  4
A3
  6

 40
7.5
 41
20.0
 42
7.5
 43
20.0
 44
420.0
 45
297.0
 46
0.0
 47
0.0
 48
0.0
 49
0.0
140
0.0
141
0.0
142
1.0
143
1.0
 70
0
 72
1
 73
0
 74
5
  7

 75
16
 76
0
 77
2
 78
300
147
1.0
148
0.0
149
0.0
100
AcDbLayout
  1
Layout1
 70
1
 71
1
 10
0.0
 20
0.0
 11
420.0
 21
297.0
 12
0.0
 22
0.0
 32
0.0
 14
1e+20
 24
1e+20
 34
1e+20
 15
-1e+20
 25
-1e+20
 35
-1e+20
146
0.0
 13
0.0
 23
0.0
 33
0.0
 16
1.0
 26
0.0
 36
0.0
 17
0.0
 27
1.0
 37
0.0
 76
1
330
1B
  0
MATERIAL
  5
1F
102
{ACAD_REACTORS
330
E
102
}
330
E
100
AcDbMaterial
  1
ByBlock
  2

 70
0
 40
1.0
 71
1
 41
1.0
 91
-1023410177
 42
1.0
 72
1
  3

 73
1
 74
1
 75
1
 44
0.5
 73
0
 45
1.0
 46
1.0
 77
1
  4

 78
1
 79
1
170
1
 48
1.0
171
1
  6

172
1
173
1
174
1
140
1.0
141
1.0
175
1
  7

176
1
177
1
178
1
143
1.0
179
1
  8

270
1
271
1
272
1
145
1.0
146
1.0
273
1
  9

274
1
275
1
276
1
 42
1.0
 72
1
  3

 73
1
 74
1
 75
1
 94
63
  0
MATERIAL
  5
20
102
{ACAD_REACTORS
330
E
102
}
330
E
100
AcDbMaterial
  1
ByLayer
  2

 70
0
 40
1.0
 71
1
 41
1.0
 91
-1023410177
 42
1.0
 72
1
  3

 73
1
 74
1
 75
1
 44
0.5
 73
0
 45
1.0
 46
1.0
 77
1
  4

 78
1
 79
1
170
1
 48
1.0
171
1
  6

172
1
173
1
174
1
140
1.0
141
1.0
175
1
  7

176
1
177
1
178
1
143
1.0
179
1
  8

270
1
271
1
272
1
145
1.0
146
1.0
273
1
  9

274
1
275
1
276
1
 42
1.0
 72
1
  3

 73
1
 74
1
 75
1
 94
63
  0
MATERIAL
  5
21
102
{ACAD_REACTORS
330
E
102
}
330
E
100
AcDbMaterial
  1
Global
  2

 70
0
 40
1.0
 71
1
 41
1.0
 91
-1023410177
 42
1.0
 72
1
  3

 73
1
 74
1
 75
1
 44
0.5
 73
0
 45
1.0
 46
1.0
 77
1
  4

 78
1
 79
1
170
1
 48
1.0
171
1
  6

172
1
173
1
174
1
140
1.0
141
1.0
175
1
  7

176
1
177
1
178
1
143
1.0
179
1
  8

270
1
271
1
272
1
145
1.0
146
1.0
273
1
  9

274
1
275
1
276
1
 42
1.0
 72
1
  3

 73
1
 74
1
 75
1
 94
63
  0
MLINESTYLE
  5
22
102
{ACAD_REACTORS
330
10
102
}
330
10
100
AcDbMlineStyle
  2
Standard
 70
0
  3

 62
256
 51
90.0
 52
90.0
 71
2
 49
0.5
 62
256
  6
BYLAYER
 49
-0.5
 62
256
  6
BYLAYER
  0
MLEADERSTYLE
  5
2C
102
{ACAD_REACTORS
330
F
102
}
330
F
100
AcDbMLeaderStyle
179
2
170
2
171
1
172
0
 90
2
 40
0.0
 41
0.0
173
1
 91
-1056964608
 92
-2
290
1
 42
2.0
291
1
 43
8.0
  3
Standard
 44
4.0
300

342
29
174
1
175
1
176
0
178
1
 93
-1056964608
 45
4.0
292
0
297
0
 46
4.0
 94
-1056964608
 47
1.0
 49
1.0
140
1.0
294
1
141
0.0
177
0
142
1.0
295
0
296
0
143
3.75
271
0
272
9
273
9
  0
DICTIONARY
  5
2D
330
A
100
AcDbDictionary
280
1
281
1
  3
CREATED_BY_EZDXF
350
2E
  3
WRITTEN_BY_EZDXF
350
65
  0
DICTIONARYVAR
  5
2E
330
2D
100
DictionaryVariables
280
0
  1
1.4.4 @ 2026-10-04T18:29:10.920395+00:00
  0
DICTIONARYVAR
  5
65
330
2D
100
DictionaryVariables
280
0
  1
1.4.4 @ 2026-10-04T18:29:10.924258+00:00
  0
ENDSEC
  0
EOF
