  0
SECTION
  2
HEADER
  9
$ACADVER
  1
AC1024
  9
$ACADMAINTVER
 70
6
  9
$DWGCODEPAGE
  3
ANSI_1252
  9
$LASTSAVEDBY
  1
ezdxf
  9
$INSBASE
 10
0.0
 20
0.0
 30
0.0
  9
$EXTMIN
 10
1e+20
 20
1e+20
 30
1e+20
  9
$EXTMAX
 10
-1e+20
 20
-1e+20
 30
-1e+20
  9
$LIMMIN
 10
0.0
 20
0.0
  9
$LIMMAX
 10
420.0
 20
297.0
  9
$ORTHOMODE
 70
0
  9
$REGENMODE
 70
1
  9
$FILLMODE
 70
1
  9
$QTEXTMODE
 70
0
  9
$MIRRTEXT
 70
1
  9
$LTSCALE
 40
1.0
  9
$ATTMODE
 70
1
  9
$TEXTSIZE
 40
2.5
  9
$TRACEWID
 40
1.0
  9
$TEXTSTYLE
  7
Standard
  9
$CLAYER
  8
0
  9
$CELTYPE
  6
ByLayer
  9
$CECOLOR
 62
256
  9
$CELTSCALE
 40
1.0
  9
$DISPSILH
 70
0
  9
$DIMSCALE
 40
1.0
  9
$DIMASZ
 40
2.5
  9
$DIMEXO
 40
0.625
  9
$DIMDLI
 40
3.75
  9
$DIMRND
 40
0.0
  9
$DIMDLE
 40
0.0
  9
$DIMEXE
 40
1.25
  9
$DIMTP
 40
0.0
  9
$DIMTM
 40
0.0
  9
$DIMTXT
 40
2.5
  9
$DIMCEN
 40
2.5
  9
$DIMTSZ
 40
0.0
  9
$DIMTOL
 70
0
  9
$DIMLIM
 70
0
  9
$DIMTIH
 70
0
  9
$DIMTOH
 70
0
  9
$DIMSE1
 70
0
  9
$DIMSE2
 70
0
  9
$DIMTAD
 70
1
  9
$DIMZIN
 70
8
  9
$DIMBLK
  1

  9
$DIMASO
 70
1
  9
$DIMSHO
 70
1
  9
$DIMPOST
  1

  9
$DIMAPOST
  1

  9
$DIMALT
 70
0
  9
$DIMALTD
 70
3
  9
$DIMALTF
 40
0.03937007874
  9
$DIMLFAC
 40
1.0
  9
$DIMTOFL
 70
1
  9
$DIMTVP
 40
0.0
  9
$DIMTIX
 70
0
  9
$DIMSOXD
 70
0
  9
$DIMSAH
 70
0
  9
$DIMBLK1
  1

  9
$DIMBLK2
  1

  9
$DIMSTYLE
  2
ISO-25
  9
$DIMCLRD
 70
0
  9
$DIMCLRE
 70
0
  9
$DIMCLRT
 70
0
  9
$DIMTFAC
 40
1.0
  9
$DIMGAP
 40
0.625
  9
$DIMJUST
 70
0
  9
$DIMSD1
 70
0
  9
$DIMSD2
 70
0
  9
$DIMTOLJ
 70
0
  9
$DIMTZIN
 70
8
  9
$DIMALTZ
 70
0
  9
$DIMALTTZ
 70
0
  9
$DIMUPT
 70
0
  9
$DIMDEC
 70
2
  9
$DIMTDEC
 70
2
  9
$DIMALTU
 70
2
  9
$DIMALTTD
 70
3
  9
$DIMTXSTY
  7
Standard
  9
$DIMAUNIT
 70
0
  9
$DIMADEC
 70
0
  9
$DIMALTRND
 40
0.0
  9
$DIMAZIN
 70
0
  9
$DIMDSEP
 70
44
  9
$DIMATFIT
 70
3
  9
$DIMFRAC
 70
0
  9
$DIMLDRBLK
  1

  9
$DIMLUNIT
 70
2
  9
$DIMLWD
 70
-2
  9
$DIMLWE
 70
-2
  9
$DIMTMOVE
 70
0
  9
$DIMFXL
 40
1.0
  9
$DIMFXLON
 70
0
  9
$DIMJOGANG
 40
0.785398163397
  9
$DIMTFILL
 70
0
  9
$DIMTFILLCLR
 70
0
  9
$DIMARCSYM
 70
0
  9
$DIMLTYPE
  6

  9
$DIMLTEX1
  6

  9
$DIMLTEX2
  6

  9
$DIMTXTDIRECTION
 70
0
  9
$LUNITS
 70
2
  9
$LUPREC
 70
4
  9
$SKETCHINC
 40
1.0
  9
$FILLETRAD
 40
10.0
  9
$AUNITS
 70
0
  9
$AUPREC
 70
2
  9
$MENU
  1
.
  9
$ELEVATION
 40
0.0
  9
$PELEVATION
 40
0.0
  9
$THICKNESS
 40
0.0
  9
$LIMCHECK
 70
0
  9
$CHAMFERA
 40
0.0
  9
$CHAMFERB
 40
0.0
  9
$CHAMFERC
 40
0.0
  9
$CHAMFERD
 40
0.0
  9
$SKPOLY
 70
0
  9
$TDCREATE
 40
2461316.745011574
  9
$TDUCREATE
 40
2458532.153996898
  9
$TDUPDATE
 40
2461316.745011574
  9
$TDUUPDATE
 40
2458532.1544311
  9
$TDINDWG
 40
0.0
  9
$TDUSRTIMER
 40
0.0
  9
$USRTIMER
 70
1
  9
$ANGBASE
 50
0.0
  9
$ANGDIR
 70
0
  9
$PDMODE
 70
0
  9
$PDSIZE
 40
0.0
  9
$PLINEWID
 40
0.0
  9
$SPLFRAME
 70
0
  9
$SPLINETYPE
 70
6
  9
$SPLINESEGS
 70
8
  9
$HANDSEED
  5
7B
  9
$SURFTAB1
 70
6
  9
$SURFTAB2
 70
6
  9
$SURFTYPE
 70
6
  9
$SURFU
 70
6
  9
$SURFV
 70
6
  9
$UCSBASE
  2

  9
$UCSNAME
  2

  9
$UCSORG
 10
0.0
 20
0.0
 30
0.0
  9
$UCSXDIR
 10
1.0
 20
0.0
 30
0.0
  9
$UCSYDIR
 10
0.0
 20
1.0
 30
0.0
  9
$UCSORTHOREF
  2

  9
$UCSORTHOVIEW
 70
0
  9
$UCSORGTOP
 10
0.0
 20
0.0
 30
0.0
  9
$UCSORGBOTTOM
 10
0.0
 20
0.0
 30
0.0
  9
$UCSORGLEFT
 10
0.0
 20
0.0
 30
0.0
  9
$UCSORGRIGHT
 10
0.0
 20
0.0
 30
0.0
  9
$UCSORGFRONT
 10
0.0
 20
0.0
 30
0.0
  9
$UCSORGBACK
 10
0.0
 20
0.0
 30
0.0
  9
$PUCSBASE
  2

  9
$PUCSNAME
  2

  9
$PUCSORG
 10
0.0
 20
0.0
 30
0.0
  9
$PUCSXDIR
 10
1.0
 20
0.0
 30
0.0
  9
$PUCSYDIR
 10
0.0
 20
1.0
 30
0.0
  9
$PUCSORTHOREF
  2

  9
$PUCSORTHOVIEW
 70
0
  9
$PUCSORGTOP
 10
0.0
 20
0.0
 30
0.0
  9
$PUCSORGBOTTOM
 10
0.0
 20
0.0
 30
0.0
  9
$PUCSORGLEFT
 10
0.0
 20
0.0
 30
0.0
  9
$PUCSORGRIGHT
 10
0.0
 20
0.0
 30
0.0
  9
$PUCSORGFRONT
 10
0.0
 20
0.0
 30
0.0
  9
$PUCSORGBACK
 10
0.0
 20
0.0
 30
0.0
  9
$USERI1
 70
0
  9
$USERI2
 70
0
  9
$USERI3
 70
0
  9
$USERI4
 70
0
  9
$USERI5
 70
0
  9
$USERR1
 40
0.0
  9
$USERR2
 40
0.0
  9
$USERR3
 40
0.0
  9
$USERR4
 40
0.0
  9
$USERR5
 40
0.0
  9
$WORLDVIEW
 70
1
  9
$SHADEDGE
 70
3
  9
$SHADEDIF
 70
70
  9
$TILEMODE
 70
1
  9
$MAXACTVP
 70
64
  9
$PINSBASE
 10
0.0
 20
0.0
 30
0.0
  9
$PLIMCHECK
 70
0
  9
$PEXTMIN
 10
1e+20
 20
1e+20
 30
1e+20
  9
$PEXTMAX
 10
-1e+20
 20
-1e+20
 30
-1e+20
  9
$PLIMMIN
 10
0.0
 20
0.0
  9
$PLIMMAX
 10
420.0
 20
297.0
  9
$UNITMODE
 70
0
  9
$VISRETAIN
 70
1
  9
$PLINEGEN
 70
0
  9
$PSLTSCALE
 70
1
  9
$TREEDEPTH
 70
3020
  9
$CMLSTYLE
  2
Standard
  9
$CMLJUST
 70
0
  9
$CMLSCALE
 40
20.0
  9
$PROXYGRAPHICS
 70
1
  9
$MEASUREMENT
 70
1
  9
$CELWEIGHT
370
-1
  9
$ENDCAPS
280
0
  9
$JOINSTYLE
280
0
  9
$LWDISPLAY
290
0
  9
$INSUNITS
 70
4
  9
$HYPERLINKBASE
  1

  9
$STYLESHEET
  1

  9
$XEDIT
290
1
  9
$CEPSNTYPE
380
0
  9
$PSTYLEMODE
290
1
  9
$FINGERPRINTGUID
  2
{E553FA2B-84B5-44FD-A3FF-3D38A118B849}
  9
$VERSIONGUID
  2
{60F0D518-8C86-4327-B993-329E18CF093F}
  9
$EXTNAMES
290
1
  9
$PSVPSCALE
 40
0.0
  9
$OLESTARTUP
290
0
  9
$SORTENTS
280
127
  9
$INDEXCTL
280
0
  9
$HIDETEXT
280
1
  9
$XCLIPFRAME
280
1
  9
$HALOGAP
280
0
  9
$OBSCOLOR
 70
257
  9
$OBSLTYPE
280
0
  9
$INTERSECTIONDISPLAY
280
0
  9
$INTERSECTIONCOLOR
 70
257
  9
$DIMASSOC
280
2
  9
$PROJECTNAME
  1

  9
$CAMERADISPLAY
290
0
  9
$LENSLENGTH
 40
50.0
  9
$CAMERAHEIGHT
 40
0.0
  9
$STEPSPERSEC
 40
24.0
  9
$STEPSIZE
 40
100.0
  9
$3DDWFPREC
 40
2.0
  9
$PSOLWIDTH
 40
0.005
  9
$PSOLHEIGHT
 40
0.08
  9
$LOFTANG1
 40
1.570796326795
  9
$LOFTANG2
 40
1.570796326795
  9
$LOFTMAG1
 40
0.0
  9
$LOFTMAG2
 40
0.0
  9
$LOFTPARAM
 70
7
  9
$LOFTNORMALS
280
1
  9
$LATITUDE
 40
37.795
  9
$LONGITUDE
 40
-122.394
  9
$NORTHDIRECTION
 40
0.0
  9
$TIMEZONE
 70
-8000
  9
$LIGHTGLYPHDISPLAY
280
1
  9
$TILEMODELIGHTSYNCH
280
1
  9
$CMATERIAL
347
20
  9
$SOLIDHIST
280
0
  9
$SHOWHIST
280
1
  9
$DWFFRAME
280
2
  9
$DGNFRAME
280
2
  9
$REALWORLDSCALE
290
1
  9
$INTERFERECOLOR
 62
256
  9
$CSHADOW
280
0
  9
$SHADOWPLANELOCATION
 40
0.0
  0
ENDSEC
  0
SECTION
  2
CLASSES
  0
CLASS
  1
ACDBDICTIONARYWDFLT
  2
AcDbDictionaryWithDefault
  3
ObjectDBX Classes
 90
0
 91
0
280
0
281
0
  0
CLASS
  1
SUN
  2
AcDbSun
  3
SCENEOE
 90
1153
 91
0
280
0
281
0
  0
CLASS
  1
VISUALSTYLE
  2
AcDbVisualStyle
  3
ObjectDBX Classes
 90
4095
 91
0
280
0
281
0
  0
CLASS
  1
MATERIAL
  2
AcDbMaterial
  3
ObjectDBX Classes
 90
1153
 91
0
280
0
281
0
  0
CLASS
  1
SCALE
  2
AcDbScale
  3
ObjectDBX Classes
 90
1153
 91
0
280
0
281
0
  0
CLASS
  1
TABLESTYLE
  2
AcDbTableStyle
  3
ObjectDBX Classes
 90
4095
 91
0
280
0
281
0
  0
CLASS
  1
MLEADERSTYLE
  2
AcDbMLeaderStyle
  3
ACDB_MLEADERSTYLE_CLASS
 90
4095
 91
0
280
0
281
0
  0
CLASS
  1
DICTIONARYVAR
  2
AcDbDictionaryVar
  3
ObjectDBX Classes
 90
0
 91
0
280
0
281
0
  0
CLASS
  1
CELLSTYLEMAP
  2
AcDbCellStyleMap
  3
ObjectDBX Classes
 90
1152
 91
0
280
0
281
0
  0
CLASS
  1
MENTALRAYRENDERSETTINGS
  2
AcDbMentalRayRenderSettings
  3
SCENEOE
 90
1024
 91
0
280
0
281
0
  0
CLASS
  1
ACDBDETAILVIEWSTYLE
  2
AcDbDetailViewStyle
  3
ObjectDBX Classes
 90
1025
 91
0
280
0
281
0
  0
CLASS
  1
ACDBSECTIONVIEWSTYLE
  2
AcDbSectionViewStyle
  3
ObjectDBX Classes
 90
1025
 91
0
280
0
281
0
  0
CLASS
  1
RASTERVARIABLES
  2
AcDbRasterVariables
  3
ISM
 90
0
 91
0
280
0
281
0
  0
CLASS
  1
LAYOUT
  2
AcDbLayout
  3
ObjectDBX Classes
 90
0
 91
0
280
0
281
0
  0
CLASS
  1
ACDBPLACEHOLDER
  2
AcDbPlaceHolder
  3
ObjectDBX Classes
 90
0
 91
0
280
0
281
0
  0
ENDSEC
  0
SECTION
  2
TABLES
  0
TABLE
  2
VPORT
  5
8
330
0
100
AcDbSymbolTable
 70
1
  0
VPORT
  5
23
330
8
100
AcDbSymbolTableRecord
100
AcDbViewportTableRecord
  2
*Active
 70
0
 10
0.0
 20
0.0
 11
1.0
 21
1.0
 12
0.0
 22
0.0
 13
0.0
 23
0.0
 14
0.5
 24
0.5
 15
0.5
 25
0.5
 16
0.0
 26
0.0
 36
1.0
 17
0.0
 27
0.0
 37
0.0
 40
1000.0
 41
1.34
 42
50.0
 43
0.0
 44
0.0
 50
0.0
 51
0.0
 71
0
 72
1000
 73
1
 74
3
 75
0
 76
0
 77
0
 78
0
281
0
 65
0
146
0.0
  0
ENDTAB
  0
TABLE
  2
LTYPE
  5
2
330
0
100
AcDbSymbolTable
 70
3
  0
LTYPE
  5
24
330
2
100
AcDbSymbolTableRecord
100
AcDbLinetypeTableRecord
  2
ByBlock
 70
0
  3

 72
65
 73
0
 40
0.0
  0
LTYPE
  5
25
330
2
100
AcDbSymbolTableRecord
100
AcDbLinetypeTableRecord
  2
ByLayer
 70
0
  3

 72
65
 73
0
 40
0.0
  0
LTYPE
  5
26
330
2
100
AcDbSymbolTableRecord
100
AcDbLinetypeTableRecord
  2
Continuous
 70
0
  3

 72
65
 73
0
 40
0.0
  0
ENDTAB
  0
TABLE
  2
LAYER
  5
1
330
0
100
AcDbSymbolTable
 70
26
  0
LAYER
  5
27
330
1
100
AcDbSymbolTableRecord
100
AcDbLayerTableRecord
  2
0
 70
0
 62
7
  6
Continuous
370
-3
390
13
347
21
  0
LAYER
  5
28
330
1
100
AcDbSymbolTableRecord
100
AcDbLayerTableRecord
  2
Defpoints
 70
0
 62
7
  6
Continuous
290
0
370
-3
390
13
347
21
  0
LAYER
  5
30
330
1
100
AcDbSymbolTableRecord
100
AcDbLayerTableRecord
  2
I05
 70
0
 62
7
  6
Continuous
370
-3
390
13
347
21
  0
LAYER
  5
33
330
1
100
AcDbSymbolTableRecord
100
AcDbLayerTableRecord
  2
I12
 70
0
 62
7
  6
Continuous
370
-3
390
13
347
21
  0
LAYER
  5
36
330
1
100
AcDbSymbolTableRecord
100
AcDbLayerTableRecord
  2
I04
 70
0
 62
7
  6
Continuous
370
-3
390
13
347
21
  0
LAYER
  5
39
330
1
100
AcDbSymbolTableRecord
100
AcDbLayerTableRecord
  2
I13
 70
0
 62
7
  6
Continuous
370
-3
390
13
347
21
  0
LAYER
  5
3C
330
1
100
AcDbSymbolTableRecord
100
AcDbLayerTableRecord
  2
I16
 70
0
 62
7
  6
Continuous
370
-3
390
13
347
21
  0
LAYER
  5
3F
330
1
100
AcDbSymbolTableRecord
100
AcDbLayerTableRecord
  2
I01
 70
0
 62
7
  6
Continuous
370
-3
390
13
347
21
  0
LAYER
  5
42
330
1
100
AcDbSymbolTableRecord
100
AcDbLayerTableRecord
  2
I03
 70
0
 62
7
  6
Continuous
370
-3
390
13
347
21
  0
LAYER
  5
45
330
1
100
AcDbSymbolTableRecord
100
AcDbLayerTableRecord
  2
I14
 70
0
 62
7
  6
Continuous
370
-3
390
13
347
21
  0
LAYER
  5
48
330
1
100
AcDbSymbolTableRecord
100
AcDbLayerTableRecord
  2
I02
 70
0
 62
7
  6
Continuous
370
-3
390
13
347
21
  0
LAYER
  5
4B
330
1
100
AcDbSymbolTableRecord
100
AcDbLayerTableRecord
  2
I15
 70
0
 62
7
  6
Continuous
370
-3
390
13
347
21
  0
LAYER
  5
4E
330
1
100
AcDbSymbolTableRecord
100
AcDbLayerTableRecord
  2
I08A
 70
0
 62
7
  6
Continuous
370
-3
390
13
347
21
  0
LAYER
  5
51
330
1
100
AcDbSymbolTableRecord
100
AcDbLayerTableRecord
  2
I09A
 70
0
 62
7
  6
Continuous
370
-3
390
13
347
21
  0
LAYER
  5
54
330
1
100
AcDbSymbolTableRecord
100
AcDbLayerTableRecord
  2
I07A
 70
0
 62
7
  6
Continuous
370
-3
390
13
347
21
  0
LAYER
  5
57
330
1
100
AcDbSymbolTableRecord
100
AcDbLayerTableRecord
  2
I10A
 70
0
 62
7
  6
Continuous
370
-3
390
13
347
21
  0
LAYER
  5
5A
330
1
100
AcDbSymbolTableRecord
100
AcDbLayerTableRecord
  2
I06A
 70
0
 62
7
  6
Continuous
370
-3
390
13
347
21
  0
LAYER
  5
5D
330
1
100
AcDbSymbolTableRecord
100
AcDbLayerTableRecord
  2
I11A
 70
0
 62
7
  6
Continuous
370
-3
390
13
347
21
  0
LAYER
  5
60
330
1
100
AcDbSymbolTableRecord
100
AcDbLayerTableRecord
  2
IHEAD
 70
0
 62
7
  6
Continuous
370
-3
390
13
347
21
  0
LAYER
  5
63
330
1
100
AcDbSymbolTableRecord
100
AcDbLayerTableRecord
  2
I09B
 70
0
 62
7
  6
Continuous
370
-3
390
13
347
21
  0
LAYER
  5
66
330
1
100
AcDbSymbolTableRecord
100
AcDbLayerTableRecord
  2
I08B
 70
0
 62
7
  6
Continuous
370
-3
390
13
347
21
  0
LAYER
  5
69
330
1
100
AcDbSymbolTableRecord
100
AcDbLayerTableRecord
  2
I10B
 70
0
 62
7
  6
Continuous
370
-3
390
13
347
21
  0
LAYER
  5
6C
330
1
100
AcDbSymbolTableRecord
100
AcDbLayerTableRecord
  2
I07B
 70
0
 62
7
  6
Continuous
370
-3
390
13
347
21
  0
LAYER
  5
6F
330
1
100
AcDbSymbolTableRecord
100
AcDbLayerTableRecord
  2
I11B
 70
0
 62
7
  6
Continuous
370
-3
390
13
347
21
  0
LAYER
  5
72
330
1
100
AcDbSymbolTableRecord
100
AcDbLayerTableRecord
  2
I06B
 70
0
 62
7
  6
Continuous
370
-3
390
13
347
21
  0
LAYER
  5
75
330
1
100
AcDbSymbolTableRecord
100
AcDbLayerTableRecord
  2
IFOOT
 70
0
 62
7
  6
Continuous
370
-3
390
13
347
21
  0
ENDTAB
  0
TABLE
  2
STYLE
  5
5
330
0
100
AcDbSymbolTable
 70
1
  0
STYLE
  5
29
330
5
100
AcDbSymbolTableRecord
100
AcDbTextStyleTableRecord
  2
Standard
 70
0
 40
0.0
 41
1.0
 50
0.0
 71
0
 42
2.5
  3
txt
  4

  0
ENDTAB
  0
TABLE
  2
VIEW
  5
7
330
0
100
AcDbSymbolTable
 70
0
  0
ENDTAB
  0
TABLE
  2
UCS
  5
6
330
0
100
AcDbSymbolTable
 70
0
  0
ENDTAB
  0
TABLE
  2
APPID
  5
3
330
0
100
AcDbSymbolTable
 70
3
  0
APPID
  5
2A
330
3
100
AcDbSymbolTableRecord
100
AcDbRegAppTableRecord
  2
ACAD
 70
0
  0
APPID
  5
78
330
3
100
AcDbSymbolTableRecord
100
AcDbRegAppTableRecord
  2
HATCHBACKGROUNDCOLOR
 70
0
  0
APPID
  5
79
330
3
100
AcDbSymbolTableRecord
100
AcDbRegAppTableRecord
  2
EZDXF
 70
0
  0
ENDTAB
  0
TABLE
  2
DIMSTYLE
  5
4
330
0
100
AcDbSymbolTable
 70
1
100
AcDbDimStyleTable
  0
DIMSTYLE
105
2B
330
4
100
AcDbSymbolTableRecord
100
AcDbDimStyleTableRecord
  2
Standard
 70
0
 40
1.0
 41
2.5
 42
0.625
 43
3.75
 44
1.25
 45
0.0
 46
0.0
 47
0.0
 48
0.0
 49
2.5
140
2.5
141
2.5
142
0.0
143
0.03937007874
144
1.0
145
0.0
146
1.0
147
0.625
148
0.0
 69
0
 70
0
 71
0
 72
0
 73
0
 74
0
 75
0
 76
0
 77
1
 78
8
 79
3
170
0
171
3
172
1
173
0
174
0
175
0
176
0
177
0
178
0
179
2
271
2
272
2
273
2
274
3
275
0
276
0
277
2
278
44
279
0
280
0
281
0
282
0
283
0
284
8
285
0
286
0
288
0
289
3
290
0
371
-2
372
-2
  0
ENDTAB
  0
TABLE
  2
BLOCK_RECORD
  5
9
330
0
100
AcDbSymbolTable
 70
2
  0
BLOCK_RECORD
  5
17
330
9
100
AcDbSymbolTableRecord
100
AcDbBlockTableRecord
  2
*Model_Space
340
1A
 70
0
280
1
281
0
  0
BLOCK_RECORD
  5
1B
330
9
100
AcDbSymbolTableRecord
100
AcDbBlockTableRecord
  2
*Paper_Space
340
1E
 70
0
280
1
281
0
  0
ENDTAB
  0
ENDSEC
  0
SECTION
  2
BLOCKS
  0
BLOCK
  5
18
330
17
100
AcDbEntity
  8
0
100
AcDbBlockBegin
  2
*Model_Space
 70
0
 10
0.0
 20
0.0
 30
0.0
  3
*Model_Space
  1

  0
ENDBLK
  5
19
330
17
100
AcDbEntity
  8
0
100
AcDbBlockEnd
  0
BLOCK
  5
1C
330
1B
100
AcDbEntity
  8
0
100
AcDbBlockBegin
  2
*Paper_Space
 70
0
 10
0.0
 20
0.0
 30
0.0
  3
*Paper_Space
  1

  0
ENDBLK
  5
1D
330
1B
100
AcDbEntity
  8
0
100
AcDbBlockEnd
  0
ENDSEC
  0
SECTION
  2
ENTITIES
  0
LWPOLYLINE
  5
2F
330
17
100
AcDbEntity
  8
0
100
AcDbPolyline
 90
4
 70
1
 10
0.0
 20
0.0
 10
1500.0
 20
0.0
 10
1500.0
 20
5694.494682963757
 10
0.0
 20
5694.494682963757
  0
LWPOLYLINE
  5
31
330
17
100
AcDbEntity
  8
I05
100
AcDbPolyline
 90
39
 70
1
 10
373.015292871972
 20
33.53354611258927
 10
335.16674081589497
 20
30.0
 10
224.6194279788245
 20
201.75209803517583
 10
126.007649369528
 20
354.9361556580054
 10
77.69401747029173
 20
478.02550906609184
 10
30.0
 20
599.5336483204144
 10
64.80772548896232
 20
748.1697538387288
 10
100.07954278305738
 20
899.0108933993728
 10
145.21073148130262
 20
1050.814477156539
 10
190.4271909076897
 20
1203.316770969578
 10
216.71475487938392
 20
1354.0506711413507
 10
242.91563065719438
 20
1504.5388537519466
 10
261.1974919856109
 20
1655.7053237318128
 10
279.46045921206263
 20
1806.8265123483236
 10
293.61449466284853
 20
1983.6698625352908
 10
307.76948842883894
 20
2160.5540629613065
 10
312.55964167334804
 20
2324.360550928836
 10
317.3073569069365
 20
2487.5988056988112
 10
331.2678893742077
 20
2603.0146730023976
 10
344.4276196502754
 20
2711.9439962220677
 10
370.7974381939099
 20
2712.6601370761864
 10
372.88741011018647
 20
2603.6446660819856
 10
375.1435679444653
 20
2486.4554624185416
 10
382.9424963325497
 20
2321.4731798113326
 10
390.73695283339254
 20
2156.994427721633
 10
381.88476130021166
 20
1980.5978543088863
 10
373.0235810199888
 20
1803.9807337929626
 10
359.044061410171
 20
1653.2687024462402
 10
345.0815627799574
 20
1502.6068998667702
 10
322.8179891930754
 20
1352.7623678551522
 10
300.6186833060342
 20
1203.0765354107407
 10
263.16920001239373
 20
1052.2240103945126
 10
225.67981449278997
 20
900.7803404036476
 10
196.40417125050905
 20
749.9233427686992
 10
166.86755246135525
 20
597.4739974986451
 10
199.59759623003998
 20
472.35199124566174
 10
232.03584284471404
 20
348.3501945021427
 10
300.0876665567155
 20
196.347741685419
 10
373.015292871972
 20
33.53354611258927
  0
TEXT
  5
32
330
17
100
AcDbEntity
  8
0
100
AcDbText
 10
281.8462465727432
 20
1428.3287855040603
 30
0.0
 40
14.0
  1
I05
100
AcDbText
  0
LWPOLYLINE
  5
34
330
17
100
AcDbEntity
  8
I12
100
AcDbPolyline
 90
39
 70
1
 10
477.65253260274403
 20
30.0
 10
439.80297712541835
 20
33.542749472680384
 10
512.7241420023125
 20
196.36421130912493
 10
580.7840664978146
 20
348.36125326333496
 10
613.2349997801049
 20
472.359604331012
 10
645.9784073938099
 20
597.4792768999986
 10
616.4135304887578
 20
749.9270532368472
 10
587.106966386073
 20
900.7767371232547
 10
549.5413145257122
 20
1052.2088101617503
 10
512.0075436705603
 20
1203.0327241711598
 10
489.80183091904036
 20
1352.7177579450004
 10
467.5296962566552
 20
1502.5580001720195
 10
453.59041886201663
 20
1653.2217964816812
 10
439.63325400085165
 20
1803.934925193968
 10
430.812279791122
 20
1980.5538424449394
 10
422.0
 20
2156.9526759963587
 10
429.81718212155357
 20
2321.4319633395794
 10
437.6321940838857
 20
2486.4120615145853
 10
439.91400382655485
 20
2603.6014401631505
 10
442.0208608237073
 20
2712.614310558311
 10
468.3902171519151
 20
2711.888757762398
 10
481.5335174435534
 20
2602.95536009743
 10
495.46879481092725
 20
2487.5371326146906
 10
500.2007304331136
 20
2324.2969908752016
 10
504.96836857327787
 20
2160.491468071883
 10
519.083304709196
 20
1983.604330537451
 10
533.1971091802405
 20
1806.757549171287
 10
551.4378454348998
 20
1655.6326997302174
 10
569.6964224233576
 20
1504.4632597800467
 10
595.9067475540774
 20
1353.973699873442
 10
622.2006278104453
 20
1203.241064478482
 10
667.5054370161747
 20
1050.7572869802611
 10
712.708766589092
 20
898.982511238601
 10
748.0118752946098
 20
748.1473677127843
 10
782.8454226024573
 20
599.521292947129
 10
735.1391302501777
 20
478.0192328497196
 10
686.8128271913024
 20
354.9347266232492
 10
588.1911858821159
 20
201.75514378098973
 10
477.65253260274403
 20
30.0
  0
TEXT
  5
35
330
17
100
AcDbEntity
  8
0
100
AcDbText
 10
530.7699621044935
 20
1428.2658500227308
 30
0.0
 40
14.0
  1
I12
100
AcDbText
  0
LWPOLYLINE
  5
37
330
17
100
AcDbEntity
  8
I04
100
AcDbPolyline
 90
39
 70
1
 10
790.0
 20
2643.286509662168
 10
825.62783486919
 20
2645.1907069478375
 10
938.2097107713792
 20
2497.9478078220764
 10
1038.3612176045772
 20
2366.973519258498
 10
1088.1088461607605
 20
2250.652226347448
 10
1137.2515979024754
 20
2135.746216771648
 10
1105.7148005461654
 20
1988.1509381540636
 10
1073.7142877792776
 20
1838.29682957673
 10
1032.4539407287168
 20
1688.286570392323
 10
991.0555623528938
 20
1537.5933793634404
 10
968.0300659263809
 20
1387.171355458571
 10
945.0685413803599
 20
1237.0400433550487
 10
928.5002504132322
 20
1086.2500575070596
 10
911.9420152258916
 20
935.4934879468103
 10
898.5700296562969
 20
758.8547521175137
 10
885.2078774959389
 20
582.3309333080888
 10
873.5746100103031
 20
417.66707581836226
 10
861.9913406156318
 20
253.5420772602497
 10
838.7882155880387
 20
139.29540622216382
 10
816.7504334562641
 20
30.75076231686853
 10
791.9190743244025
 20
30.0
 10
800.0440010805381
 20
136.5208837341488
 10
808.8623884039822
 20
252.18961594866914
 10
810.0874726563487
 20
417.79491393219223
 10
811.3002276464158
 20
582.9691732504093
 10
819.469192166392
 20
759.3344672498586
 10
827.6386008809438
 20
935.7312150107705
 10
839.299669860146
 20
1086.1805144052921
 10
850.9524220673782
 20
1236.597026876544
 10
868.5020030448287
 20
1386.3689758603934
 10
886.0114282328136
 20
1535.9477251015423
 10
917.0960749032694
 20
1685.665993570642
 10
948.2488654898124
 20
1835.9115529876308
 10
972.4294714615389
 20
1986.0961819948739
 10
996.8465702732963
 20
2137.854812408038
 10
963.1860306122228
 20
2256.5329256283962
 10
929.7863665177966
 20
2374.2895608118442
 10
861.688306797282
 20
2505.3516002234037
 10
790.0
 20
2643.286509662168
  0
TEXT
  5
38
330
17
100
AcDbEntity
  8
0
100
AcDbText
 10
908.1205561837212
 20
1311.704509607721
 30
0.0
 40
14.0
  1
I04
100
AcDbText
  0
LWPOLYLINE
  5
3A
330
17
100
AcDbEntity
  8
I13
100
AcDbPolyline
 90
39
 70
1
 10
1421.6238001528402
 20
2901.1842031655624
 10
1457.252971374267
 20
2899.2755579799828
 10
1385.5717183348302
 20
2761.3337927821717
 10
1317.4731835428775
 20
2630.2731096881375
 10
1284.0695652049337
 20
2512.5176835115867
 10
1250.404813346342
 20
2393.8403577359604
 10
1274.8321522922563
 20
2242.0819678386165
 10
1299.0244377154522
 20
2091.8996261324082
 10
1330.2071705927235
 20
1941.6572837168683
 10
1361.327060399988
 20
1791.9494052557307
 10
1378.83894604196
 20
1642.3708229320023
 10
1396.392515200792
 20
1492.6006607133334
 10
1408.0349048753844
 20
1342.1833971637675
 10
1419.6861354237844
 20
1191.7337961779554
 10
1427.837259230084
 20
1015.3363054671504
 10
1435.9880690257278
 20
838.9700485705371
 10
1437.1907823023707
 20
673.7949709931299
 10
1438.4085517260946
 20
508.1902772829517
 10
1447.2156308861795
 20
392.52038769130604
 10
1455.3329055443446
 20
286.0
 10
1430.5018743470418
 20
286.75468724338634
 10
1408.4715682111282
 20
395.30173551040843
 10
1385.2796709588006
 20
509.5503814643703
 10
1373.7035511582346
 20
673.6765467381124
 10
1362.0803236616855
 20
838.34036354099
 10
1348.7363579720757
 20
1014.8654342345126
 10
1335.3826702644392
 20
1191.5056573106049
 10
1318.834213044401
 20
1342.2637621925714
 10
1302.2763049509497
 20
1493.0549400680318
 10
1279.3104448029587
 20
1643.1869139000019
 10
1256.2825167321437
 20
1793.6084437434668
 10
1214.8473445546892
 20
1944.2946335270385
 10
1173.5585342719894
 20
2094.294025914322
 10
1141.546235607778
 20
2244.1460278713403
 10
1110.0
 20
2391.737848481036
 10
1159.1465648426956
 20
2506.641778654705
 10
1208.898155571033
 20
2622.9614671762865
 10
1309.0512321211825
 20
2753.935767502626
 10
1421.6238001528402
 20
2901.1842031655624
  0
TEXT
  5
3B
330
17
100
AcDbEntity
  8
0
100
AcDbText
 10
1339.222451572999
 20
1567.712881500017
 30
0.0
 40
14.0
  1
I13
100
AcDbText
  0
LWPOLYLINE
  5
3D
330
17
100
AcDbEntity
  8
I16
100
AcDbPolyline
 90
39
 70
1
 10
774.3338331810113
 20
3455.030784470371
 10
812.1470371669052
 20
3456.4585410067148
 10
775.5598860314356
 20
3364.251605020711
 10
739.3612314667827
 20
3272.9319681048064
 10
717.5283564685814
 20
3167.3866148870575
 10
695.6955616057269
 20
3061.835683606771
 10
691.298355288866
 20
2911.19632742503
 10
686.9699748011169
 20
2761.2537390273396
 10
682.7361988766629
 20
2611.307476215355
 10
678.6154008370047
 20
2461.362055008554
 10
674.5327278950915
 20
2311.4153780869497
 10
670.4887300342929
 20
2161.339784183415
 10
671.3267425237315
 20
2011.0158643346022
 10
672.1778103431774
 20
1860.727223480236
 10
677.3716451702969
 20
1685.038927811161
 10
682.5832068516013
 20
1508.8294145114764
 10
711.5447960358572
 20
1352.8278230362166
 10
740.5514868055595
 20
1196.7429124269183
 10
775.5435208498558
 20
1103.9150165764972
 10
806.2964269253264
 20
1022.4023162033209
 10
781.2766357822826
 20
1022.0
 10
732.7591099953413
 20
1110.8456218188085
 10
682.3766397624986
 20
1203.0715196880242
 10
641.3711630982867
 20
1358.345611385048
 10
600.300321290978
 20
1513.780911506094
 10
589.8970984953356
 20
1688.6830547739557
 10
579.4503797297782
 20
1864.2812834942931
 10
574.3083027488104
 20
2014.4360753092997
 10
569.1552762089559
 20
2164.551924650813
 10
569.2073554403303
 20
2314.5025163869686
 10
569.2200517246849
 20
2464.6865550211487
 10
565.5904179368346
 20
2615.045368240039
 10
561.8640069939719
 20
2765.2514533613435
 10
559.9449477404861
 20
2915.3712916505688
 10
558.0
 20
3064.0665723122156
 10
595.5706804426844
 20
3166.889212220908
 10
633.2271001047102
 20
3269.951069650947
 10
699.7984907858224
 20
3357.177470085801
 10
774.3338331810113
 20
3455.030784470371
  0
TEXT
  5
3E
330
17
100
AcDbEntity
  8
0
100
AcDbText
 10
620.8673932568927
 20
2237.9836513688815
 30
0.0
 40
14.0
  1
I16
100
AcDbText
  0
LWPOLYLINE
  5
40
330
17
100
AcDbEntity
  8
I01
100
AcDbPolyline
 90
39
 70
1
 10
30.0
 20
3656.412358999015
 10
67.79871129562989
 20
3654.950701525035
 10
142.4084373598629
 20
3557.140692123897
 10
208.983207028713
 20
3469.9276466479205
 10
246.62452343646967
 20
3366.8612301042735
 10
284.1804790344332
 20
3264.0321254108435
 10
282.2544655075926
 20
3115.3328800514178
 10
280.3585573195097
 20
2965.2139461312663
 10
276.69919854068115
 20
2814.999018894502
 10
273.1496317457735
 20
2664.6458220943787
 10
273.1603525159154
 20
2514.4617148899315
 10
273.21316497532564
 20
2364.5140724609228
 10
268.02910580909145
 20
2214.399432870793
 10
262.8569898408457
 20
2064.246648785528
 10
252.36099904061143
 20
1888.6515751298984
 10
241.90888938499987
 20
1713.7520127310402
 10
200.8106119329806
 20
1558.322009098988
 10
159.78568079468786
 20
1403.054563413722
 10
109.38235143997856
 20
1310.8379414483602
 10
60.85777860519026
 20
1222.0
 10
35.83560504859131
 20
1222.4143831737597
 10
66.59826464197087
 20
1303.9297636770684
 10
101.60962077704413
 20
1396.7483482472735
 10
130.63639288491743
 20
1552.8310068424025
 10
159.62462315441798
 20
1708.825721267908
 10
164.885407949806
 20
1885.033438554353
 10
170.12856015170715
 20
2060.720485770349
 10
171.0097382754056
 20
2211.0099281965295
 10
171.87883669436334
 20
2361.3338133589123
 10
167.83401474056052
 20
2511.4123359641035
 10
163.75319058994728
 20
2661.363211445823
 10
159.55255306731775
 20
2811.309734862242
 10
155.2517038822265
 20
2961.2507647750444
 10
150.9002751722387
 20
3111.1900089514634
 10
146.4839337698178
 20
3261.8251131799702
 10
124.66681615998365
 20
3367.3782732520517
 10
102.8489212920204
 20
3472.927601798268
 10
66.63883860665152
 20
3564.2515487191295
 10
30.0
 20
3656.412358999015
  0
TEXT
  5
41
330
17
100
AcDbEntity
  8
0
100
AcDbText
 10
221.50043264813317
 20
2437.963204212513
 30
0.0
 40
14.0
  1
I01
100
AcDbText
  0
LWPOLYLINE
  5
43
330
17
100
AcDbEntity
  8
I03
100
AcDbPolyline
 90
39
 70
1
 10
1046.0
 20
4946.010227639419
 10
1080.5497449525942
 20
4946.428331074529
 10
1186.7957893925106
 20
4821.358003885206
 10
1281.1366973200165
 20
4710.302144134241
 10
1329.683461496563
 20
4600.0988315168315
 10
1377.7640328505356
 20
4490.953798843819
 10
1355.4151738213077
 20
4343.015319204983
 10
1332.7475094554513
 20
4192.966316287668
 10
1302.831125955919
 20
4042.8432586326553
 10
1272.8045169646703
 20
3892.1666909575333
 10
1257.327514844802
 20
3741.6298904323094
 10
1241.8821305540637
 20
3591.4003071427605
 10
1229.003141062786
 20
3440.8572243282183
 10
1216.1249706157766
 20
3290.3235865856873
 10
1203.6549712167507
 20
3113.9948909971763
 10
1191.2103017377922
 20
2938.0243381577266
 10
1167.2682445323921
 20
2774.735820035012
 10
1143.3846703965555
 20
2611.8460211053202
 10
1107.1027447302913
 20
2502.691514527156
 10
1072.3971454415891
 20
2398.2793581591914
 10
1048.4698442699469
 20
2398.0
 10
1069.1891077359005
 20
2497.9624356603636
 10
1092.0211344283273
 20
2608.118176538456
 10
1106.5830355060775
 20
2772.092464044672
 10
1121.1205851155796
 20
2935.7927261308755
 10
1128.4325295963672
 20
3112.197947753946
 10
1135.7350374067107
 20
3288.37554671593
 10
1143.4449390265188
 20
3438.75692898528
 10
1151.1544957524293
 20
3589.131777093233
 10
1160.5689923073655
 20
3739.1875171191473
 10
1169.970871915639
 20
3889.04261499608
 10
1188.7110000989423
 20
4038.9925424776834
 10
1207.4969171071125
 20
4189.309359498829
 10
1221.6021923525498
 20
4339.57988792631
 10
1235.8365073623627
 20
4491.225410673977
 10
1203.6125464858856
 20
4604.106849599433
 10
1171.5563046331563
 20
4716.400761296695
 10
1109.7551756099172
 20
4829.418813453438
 10
1046.0
 20
4946.010227639419
  0
TEXT
  5
44
330
17
100
AcDbEntity
  8
0
100
AcDbText
 10
1202.7060890148227
 20
3665.2939121309537
 30
0.0
 40
14.0
  1
I03
100
AcDbText
  0
LWPOLYLINE
  5
46
330
17
100
AcDbEntity
  8
I14
100
AcDbPolyline
 90
39
 70
1
 10
999.2142747537846
 20
5010.42834959362
 10
1033.7640244955046
 20
5010.010235903999
 10
970.0088668259648
 20
4893.418802706281
 10
908.2077403001578
 20
4780.400752008787
 10
876.1514923975018
 20
4668.106842273976
 10
843.9275250583341
 20
4555.225404594301
 10
858.1618548071592
 20
4403.579881108861
 10
872.2671474371863
 20
4253.309354892282
 10
891.0531104908764
 20
4102.992538887227
 10
909.793295188304
 20
3953.0426232770983
 10
919.1951778953194
 20
3803.187525340509
 10
928.6096806280464
 20
3653.1317878764953
 10
936.3192193899841
 20
3502.756938912489
 10
944.0291040649098
 20
3352.3755565684614
 10
951.3315802584902
 20
3176.197956473891
 10
958.6434933116213
 20
2999.7927333231387
 10
973.1810263581388
 20
2836.09246843796
 10
987.7429152156644
 20
2672.1181809997643
 10
1010.5749241424767
 20
2561.9624358147307
 10
1031.2941758800312
 20
2462.0
 10
1007.3668754616104
 20
2462.279364748982
 10
972.6612874562397
 20
2566.6915265040548
 10
936.3793797079694
 20
2675.8460383946976
 10
912.4958174404089
 20
2838.735840227254
 10
888.5537770630314
 20
3002.024359479865
 10
876.1091389594857
 20
3177.9949143124904
 10
863.63917118445
 20
3354.323612315665
 10
850.7610175914743
 20
3504.857252295973
 10
837.8820460756036
 20
3655.4003367134464
 10
822.436655241964
 20
3805.6299215118174
 10
806.959650050972
 20
3956.1667214682248
 10
776.9329827444434
 20
4106.843282389471
 10
747.0165547601473
 20
4256.966326385016
 10
724.3488728954654
 20
4407.0153272416665
 10
702.0
 20
4554.95380261981
 10
750.080577205668
 20
4664.0988320531005
 10
798.6273474726465
 20
4774.302142237228
 10
892.9682557240037
 20
4885.358004964996
 10
999.2142747537846
 20
5010.42834959362
  0
TEXT
  5
47
330
17
100
AcDbEntity
  8
0
100
AcDbText
 10
877.0580846049232
 20
3729.2939310269776
 30
0.0
 40
14.0
  1
I14
100
AcDbText
  0
LWPOLYLINE
  5
49
330
17
100
AcDbEntity
  8
I02
100
AcDbPolyline
 90
39
 70
1
 10
302.0
 20
5226.481999633303
 10
337.3096078240805
 20
5225.816274682886
 10
430.20072365757795
 20
5117.610594605
 10
512.7171497398665
 20
5021.506703955263
 10
557.2995319806867
 20
4915.894323695107
 10
601.6174808513845
 20
4810.909328447616
 10
590.5744198869961
 20
4662.441483280287
 10
579.4127768403853
 20
4512.164803779151
 10
563.785254935167
 20
4361.726446502104
 10
548.1625351076702
 20
4210.935983075965
 10
541.4388906663008
 20
4060.4542928349856
 10
534.7449089254252
 20
3910.2591431433857
 10
526.0761109454643
 20
3759.9427879730642
 10
517.4119578542474
 20
3609.6088334575397
 10
505.74089724616863
 20
3433.6620473803086
 10
494.1096765208156
 20
3258.300560687605
 10
458.2239777414468
 20
3098.7512918640973
 10
422.4046592560079
 20
2939.4443943974647
 10
375.23290885166455
 20
2838.7871942605866
 10
329.88447481605965
 20
2742.0
 10
305.9484732431595
 20
2742.266725232611
 10
335.6816215474757
 20
2832.63872073462
 10
369.02181057034596
 20
2933.9906496340254
 10
394.8698324223597
 20
3094.1188265837086
 10
420.6867934342133
 20
3254.1103825188884
 10
427.1974117499034
 20
3430.4927583007257
 10
433.69069179089274
 20
3606.4300610914843
 10
437.4480227360052
 20
3756.7739304571483
 10
441.20068946922726
 20
3907.1367264273213
 10
442.4438759368296
 20
4057.2862434214862
 10
443.67031798950734
 20
4207.258931495039
 10
449.0069172411467
 20
4357.356880730384
 10
454.31448544894533
 20
4507.620103106065
 10
457.4949153097567
 20
4657.821553702308
 10
460.68338443771415
 20
4809.080730742611
 10
432.32220900115306
 20
4917.488655845777
 10
404.0252674244087
 20
5025.649203972778
 10
353.4020432522765
 20
5125.328114278791
 10
302.0
 20
5226.481999633303
  0
TEXT
  5
4A
330
17
100
AcDbEntity
  8
0
100
AcDbText
 10
489.9282555329878
 20
3983.772693282436
 30
0.0
 40
14.0
  1
I02
100
AcDbText
  0
LWPOLYLINE
  5
4C
330
17
100
AcDbEntity
  8
I15
100
AcDbPolyline
 90
39
 70
1
 10
358.2949721784051
 20
5673.837579594716
 10
393.60896573880103
 20
5674.494682963757
 10
342.220716047762
 20
5573.326029872366
 10
291.6002850614889
 20
5473.648054465429
 10
263.29926954311236
 20
5365.488781972952
 10
234.93377958110065
 20
5257.081653149063
 10
238.12954412318598
 20
5105.821429403306
 10
241.3188035435477
 20
4955.620511489754
 10
246.6508420365547
 20
4805.355566753518
 10
252.01765139214996
 20
4655.261342809659
 10
253.2447473507484
 20
4505.288553949687
 10
254.49010604193074
 20
4355.140210168556
 10
258.2321719536678
 20
4204.777190045758
 10
261.97940048537606
 20
4054.4334796904486
 10
268.4548032653578
 20
3878.4956098398297
 10
274.9476129067204
 20
3702.112448138724
 10
300.7553350603667
 20
3542.118652363743
 10
326.5964983746975
 20
3381.9899887798983
 10
359.92819319951604
 20
3280.634751724059
 10
389.65620407465076
 20
3190.262822212065
 10
365.72081152540306
 20
3190.0
 10
320.37695868828314
 20
3286.7904604396185
 10
273.2140244327669
 20
3387.4512593938293
 10
237.4013342830761
 20
3546.760274683028
 10
201.52514961906323
 20
3706.310926959104
 10
189.91164756469288
 20
3881.6734584938467
 10
178.2584555855122
 20
4057.6215209304037
 10
169.60436859932346
 20
4207.956467064679
 10
160.94616339479853
 20
4358.273472592692
 10
154.24995184728425
 20
4508.469678877842
 10
147.5256601202045
 20
4658.951234052529
 10
131.87225081769208
 20
4809.741174278828
 10
116.2206084248539
 20
4960.174424738085
 10
105.05010320102787
 20
5110.450792197265
 10
94.0
 20
5258.916896475581
 10
138.3219175667286
 20
5363.899852569562
 10
182.9084087482251
 20
5469.510725591455
 10
265.424373409115
 20
5565.617850132981
 10
358.2949721784051
 20
5673.837579594716
  0
TEXT
  5
4D
330
17
100
AcDbEntity
  8
0
100
AcDbText
 10
205.76170128900435
 20
4431.781013271189
 30
0.0
 40
14.0
  1
I15
100
AcDbText
  0
LWPOLYLINE
  5
4F
330
17
100
AcDbEntity
  8
I08A
100
AcDbPolyline
 90
15
 70
1
 10
939.2886589188846
 20
953.0499081641352
 10
1064.4912285909168
 20
957.8561257608443
 10
1061.7448849704663
 20
802.864025235165
 10
1058.8545915669804
 20
639.330463243734
 10
1059.262322393704
 20
485.22038487627896
 10
1059.672288570771
 20
331.17835821475205
 10
1060.59017630953
 20
178.19713707388678
 10
1061.461563069994
 20
33.07244176115091
 10
942.3467079035071
 20
30.0
 10
938.7708151708831
 20
174.80189511478568
 10
934.998679981818
 20
327.52429476916814
 10
934.500555193159
 20
481.27583713063274
 10
934.0
 20
635.0334400225032
 10
936.7102207564365
 20
797.7873974088628
 10
939.2886589188846
 20
953.0499081641352
  0
TEXT
  5
50
330
17
100
AcDbEntity
  8
0
100
AcDbText
 10
996.6539991079505
 20
560.126912449391
 30
0.0
 40
14.0
  1
I08A
100
AcDbText
  0
LWPOLYLINE
  5
52
330
17
100
AcDbEntity
  8
I09A
100
AcDbPolyline
 90
15
 70
1
 10
1216.4984549625096
 20
30.0
 10
1091.296030502673
 20
34.80898518765547
 10
1088.7139923689815
 20
190.07214236532766
 10
1086.0
 20
352.8255554056526
 10
1086.5015638901739
 20
506.5831614601666
 10
1087.0006936206494
 20
660.3345288301482
 10
1090.7755948833967
 20
813.0568490346521
 10
1094.3540828856726
 20
957.8586102619552
 10
1213.4688683580105
 20
954.783497037209
 10
1212.5948780406386
 20
809.658748401364
 10
1211.6742188506933
 20
656.6775328661412
 10
1211.2632418491462
 20
502.63533739284946
 10
1210.8544970928644
 20
348.5252686119482
 10
1213.7485688297124
 20
184.99129389911124
 10
1216.4984549625096
 20
30.0
  0
TEXT
  5
53
330
17
100
AcDbEntity
  8
0
100
AcDbText
 10
1148.6544576183328
 20
427.73044639925104
 30
0.0
 40
14.0
  1
I09A
100
AcDbText
  0
LWPOLYLINE
  5
55
330
17
100
AcDbEntity
  8
I07A
100
AcDbPolyline
 90
15
 70
1
 10
340.0726703191333
 20
1083.305594113553
 10
464.37932327137355
 20
1096.5944967286555
 10
456.0444494027862
 20
943.3649093255414
 10
447.24430379731507
 20
780.5064377432146
 10
448.1790839882842
 20
626.4299520253905
 10
449.1323872412496
 20
472.48578017342675
 10
454.2496696337114
 20
319.6072389531429
 10
459.1116550724104
 20
174.51057387310732
 10
345.44941971536014
 20
166.0
 10
337.6862674345349
 20
310.15230034866977
 10
329.48777602231297
 20
462.2916716871996
 10
327.7530937728641
 20
615.4182697241886
 10
326.0
 20
768.4884701251697
 10
333.21268116624924
 20
929.2187007023197
 10
340.0726703191333
 20
1083.305594113553
  0
TEXT
  5
56
330
17
100
AcDbEntity
  8
0
100
AcDbText
 10
387.2808197525054
 20
697.4592110752801
 30
0.0
 40
14.0
  1
I07A
100
AcDbText
  0
LWPOLYLINE
  5
58
330
17
100
AcDbEntity
  8
I10A
100
AcDbPolyline
 90
15
 70
1
 10
726.0
 20
2312.6097237170416
 10
850.3035563379201
 20
2299.300045042318
 10
857.1917631322276
 20
2145.2090832780696
 10
864.4347492990739
 20
1984.4840148695116
 10
862.6736782606946
 20
1831.4138662856271
 10
860.9312592162835
 20
1678.288725157309
 10
852.7108720474235
 20
1526.1506229374436
 10
844.9272354417154
 20
1382.0
 10
731.2665428061842
 20
1390.5309083781165
 10
736.1492041891962
 20
1535.6274327711453
 10
741.2885038184144
 20
1688.5053219215922
 10
742.2496695676396
 20
1842.450809381647
 10
743.1925372177694
 20
1996.5271971205473
 10
734.3618662345106
 20
2159.38777945566
 10
726.0
 20
2312.6097237170416
  0
TEXT
  5
59
330
17
100
AcDbEntity
  8
0
100
AcDbText
 10
803.1509790668274
 20
1913.4674121255794
 30
0.0
 40
14.0
  1
I10A
100
AcDbText
  0
LWPOLYLINE
  5
5B
330
17
100
AcDbEntity
  8
I06A
100
AcDbPolyline
 90
15
 70
1
 10
1297.2840400103833
 20
3819.0037982399535
 10
1420.4570808874905
 20
3837.7577930279604
 10
1407.2012111103616
 20
3687.4044752921795
 10
1393.1350599155128
 20
3526.5265962571784
 10
1394.215030282713
 20
3372.845573031941
 10
1395.3338309902076
 20
3219.3626410127104
 10
1403.3723315043612
 20
3066.8620453628655
 10
1411.0168167560803
 20
2922.048256372992
 10
1306.9602463890833
 20
2910.0
 10
1296.0171095785188
 20
3053.323717225208
 10
1284.4465149185114
 20
3204.7203271397607
 10
1281.2413870331375
 20
3357.011519587129
 10
1278.0
 20
3509.1854883499077
 10
1287.8856777091544
 20
3667.148134473424
 10
1297.2840400103833
 20
3819.0037982399535
  0
TEXT
  5
5C
330
17
100
AcDbEntity
  8
0
100
AcDbText
 10
1336.5940163626915
 20
3441.0155306909246
 30
0.0
 40
14.0
  1
I06A
100
AcDbText
  0
LWPOLYLINE
  5
5E
330
17
100
AcDbEntity
  8
I11A
100
AcDbPolyline
 90
15
 70
1
 10
974.0
 20
4037.7799071573877
 10
1097.1646804656048
 20
4018.9878336924367
 10
1106.6178264005039
 20
3867.125268635382
 10
1116.5662451136625
 20
3709.1741183185222
 10
1113.3088542270743
 20
3557.000412398289
 10
1110.0890815698572
 20
3404.712351749966
 10
1098.4741080562735
 20
3253.3193115091003
 10
1087.4896623892243
 20
3110.0
 10
983.4375991905032
 20
3122.0865627116086
 10
991.1240023513832
 20
3266.8993112394387
 10
999.2072473582922
 20
3419.3977107414757
 10
1000.3410301895058
 20
3572.8833449642784
 10
1001.4372912382502
 20
3726.5641546300003
 10
987.3073533937659
 20
3887.443934402875
 10
974.0
 20
4037.7799071573877
  0
TEXT
  5
5F
330
17
100
AcDbEntity
  8
0
100
AcDbText
 10
1057.967339314307
 20
3641.0287316414006
 30
0.0
 40
14.0
  1
I11A
100
AcDbText
  0
LWPOLYLINE
  5
61
330
17
100
AcDbEntity
  8
IHEAD
100
AcDbPolyline
 90
18
 70
1
 10
1257.9385830213096
 20
1338.9427336024758
 10
1257.9385830213096
 20
1025.4325966055765
 10
1218.465331826022
 20
997.2058396515097
 10
1171.1854211413845
 20
982.0
 10
1122.178752581187
 20
982.6147651643998
 10
1075.1858350795324
 20
999.0074888493009
 10
1033.8708610064457
 20
1030.0085528456923
 10
1001.5891961933983
 20
1073.2817068413788
 10
981.048428090103
 20
1125.4141077203205
 10
974.0
 20
1182.187665104026
 10
981.048428090103
 20
1238.9612224877317
 10
1001.5891961933983
 20
1291.0936233666735
 10
1033.870861006446
 20
1334.36677736236
 10
1075.1858350795324
 20
1365.3678413587513
 10
1122.1787525811872
 20
1381.7605650436524
 10
1171.1854211413843
 20
1382.3753302080522
 10
1218.4653318260218
 20
1367.1694905565425
 10
1257.9385830213096
 20
1338.9427336024758
  0
TEXT
  5
62
330
17
100
AcDbEntity
  8
0
100
AcDbText
 10
1117.7313985331805
 20
1210.5744437958788
 30
0.0
 40
14.0
  1
IHEAD
100
AcDbText
  0
LWPOLYLINE
  5
64
330
17
100
AcDbEntity
  8
I09B
100
AcDbPolyline
 90
15
 70
1
 10
1364.7409620722206
 20
31.486163415321194
 10
1246.0
 20
30.0
 10
1246.37574090433
 20
199.40008422488336
 10
1246.7688024709569
 20
376.6591712515096
 10
1257.5062980425857
 20
536.383952202651
 10
1268.2510129585555
 20
696.2377579543665
 10
1279.559578024331
 20
809.2663232079349
 10
1290.1582067014463
 20
915.2101078128611
 10
1320.7013723400237
 20
915.1639859648723
 10
1329.8185427771111
 20
809.7472362120949
 10
1339.5540171494777
 20
697.1883790090728
 10
1347.0185460687696
 20
537.7555114395535
 10
1354.4882580784065
 20
378.2337801580779
 10
1359.7337952773707
 20
200.82742982283463
 10
1364.7409620722206
 20
31.486163415321194
  0
TEXT
  5
65
330
17
100
AcDbEntity
  8
0
100
AcDbText
 10
1301.4879954743346
 20
457.3088661803645
 30
0.0
 40
14.0
  1
I09B
100
AcDbText
  0
LWPOLYLINE
  5
67
330
17
100
AcDbEntity
  8
I08B
100
AcDbPolyline
 90
15
 70
1
 10
148.7409568332092
 20
1990.0
 10
29.999999999999986
 20
1991.4865827234728
 10
35.00767184666641
 20
2160.8278436961377
 10
40.25372899503421
 20
2338.2341932637855
 10
47.72314692816707
 20
2497.7560301699586
 10
55.18694770469479
 20
2657.1888529070475
 10
64.92269357537592
 20
2769.7477417892537
 10
74.03957427258719
 20
2875.164361987175
 10
104.5827391178534
 20
2875.21010152304
 10
115.18165625315126
 20
2769.266192436793
 10
126.48994669924197
 20
2656.2376545991497
 10
137.23539124718957
 20
2496.3838189366998
 10
147.97317841538742
 20
2336.6591494414865
 10
148.36572088155754
 20
2159.4000758577095
 10
148.7409568332092
 20
1990.0
  0
TEXT
  5
68
330
17
100
AcDbEntity
  8
0
100
AcDbText
 10
93.25382705116823
 20
2417.3090061002426
 30
0.0
 40
14.0
  1
I08B
100
AcDbText
  0
LWPOLYLINE
  5
6A
330
17
100
AcDbEntity
  8
I10B
100
AcDbPolyline
 90
15
 70
1
 10
574.0
 20
4212.604431556318
 10
687.5178979671512
 20
4216.168925670006
 10
691.0048026426506
 20
4046.8738749193753
 10
694.6507194458878
 20
3869.9025133681425
 10
681.5041240783188
 20
3708.9968432627147
 10
668.3428557016617
 20
3547.7694418526653
 10
656.505101773417
 20
3433.305786984922
 10
645.4160095416198
 20
3326.0
 10
615.7573529611184
 20
3326.2720802896547
 10
608.0598841081343
 20
3432.344346832734
 10
599.8381121761254
 20
3545.577263202507
 10
595.9241999954734
 20
3705.682571165222
 10
591.9947224046144
 20
3866.0889459825476
 10
582.7831857571279
 20
4043.4787801469383
 10
574.0
 20
4212.604431556318
  0
TEXT
  5
6B
330
17
100
AcDbEntity
  8
0
100
AcDbText
 10
640.9202483551032
 20
3787.542894622631
 30
0.0
 40
14.0
  1
I10B
100
AcDbText
  0
LWPOLYLINE
  5
6D
330
17
100
AcDbEntity
  8
I07B
100
AcDbPolyline
 90
15
 70
1
 10
301.1408169091232
 20
4352.168570850917
 10
414.658616061566
 20
4348.600920285433
 10
405.8714809792633
 20
4179.475396418875
 10
396.65587781676834
 20
4002.085657047516
 10
392.72887270794666
 20
3841.6784930341387
 10
388.8207785839705
 20
3681.5736724144012
 10
380.596848924565
 20
3568.340505183966
 10
372.9014313721381
 20
3462.2692611893576
 10
343.24276501516175
 20
3462.0
 10
332.1516607790726
 20
3569.3067355694748
 10
320.3161275405877
 20
3683.77021835033
 10
307.1490109499706
 20
3844.9977721957257
 10
294.0
 20
4005.9025165862554
 10
297.64996490026454
 20
4182.873678639504
 10
301.1408169091232
 20
4352.168570850917
  0
TEXT
  5
6E
330
17
100
AcDbEntity
  8
0
100
AcDbText
 10
347.7317332874883
 20
3923.541714621621
 30
0.0
 40
14.0
  1
I07B
100
AcDbText
  0
LWPOLYLINE
  5
70
330
17
100
AcDbEntity
  8
I11B
100
AcDbPolyline
 90
15
 70
1
 10
144.45735327318656
 20
3689.3422776306475
 10
40.17282637135777
 20
3686.0
 10
35.198428759173666
 20
3855.152964621276
 10
30.0
 20
4031.856894064275
 10
44.2053649790939
 20
4194.44464188264
 10
58.42657389645889
 20
4357.489485424227
 10
68.81651954573718
 20
4473.639421317186
 10
78.52018760413313
 20
4582.296809498375
 10
106.64512438871799
 20
4581.487491699909
 10
114.08861472757016
 20
4473.837426452347
 10
122.02391216302394
 20
4359.207931734534
 10
122.84941542564646
 20
4197.615190702641
 10
123.69467686937007
 20
4035.5485124680076
 10
134.3279125961433
 20
3858.230438040368
 10
144.45735327318656
 20
3689.3422776306475
  0
TEXT
  5
71
330
17
100
AcDbEntity
  8
0
100
AcDbText
 10
80.27213292291803
 20
4114.996577175324
 30
0.0
 40
14.0
  1
I11B
100
AcDbText
  0
LWPOLYLINE
  5
73
330
17
100
AcDbEntity
  8
I06B
100
AcDbPolyline
 90
15
 70
1
 10
1352.1889440800142
 20
5430.295829408682
 10
1456.4732827523278
 20
5426.9476224315395
 10
1446.335868083108
 20
5258.059771053921
 10
1435.6944339524357
 20
5080.741946603765
 10
1434.8547487502797
 20
4918.673736551013
 10
1434.0413714561719
 20
4757.082244807807
 10
1426.101595100671
 20
4642.452322903264
 10
1418.6615065844344
 20
4534.804211406098
 10
1390.5363865282923
 20
4534.0
 10
1380.8294894444357
 20
4642.659323722777
 10
1370.444172293376
 20
4758.808952251544
 10
1356.2107628413266
 20
4921.854042003949
 10
1342.0
 20
5084.439817536623
 10
1347.206576030662
 20
5261.143266635502
 10
1352.1889440800142
 20
5430.295829408682
  0
TEXT
  5
74
330
17
100
AcDbEntity
  8
0
100
AcDbText
 10
1392.2749085604767
 20
5001.297994303857
 30
0.0
 40
14.0
  1
I06B
100
AcDbText
  0
LWPOLYLINE
  5
76
330
17
100
AcDbEntity
  8
IFOOT
100
AcDbPolyline
 90
18
 70
1
 10
1123.9378158800744
 20
4323.053552258765
 10
1123.9378158800744
 20
4086.17767314033
 10
1094.710360769158
 20
4065.407352821399
 10
1059.0195011144003
 20
4054.0
 10
1022.0413024299025
 20
4054.460992572408
 10
986.5646420769394
 20
4066.7595888905726
 10
955.3375665963378
 20
4090.045569673603
 10
930.9055916091645
 20
4122.592895238539
 10
915.3431539596668
 20
4161.844984486131
 10
910.0
 20
4204.6156126995475
 10
915.3431539596668
 20
4247.386240912964
 10
930.9055916091645
 20
4286.638330160556
 10
955.3375665963378
 20
4319.185655725492
 10
986.5646420769393
 20
4342.471636508522
 10
1022.0413024299028
 20
4354.770232826687
 10
1059.0195011144003
 20
4355.231225399095
 10
1094.710360769158
 20
4343.823872577696
 10
1123.9378158800744
 20
4323.053552258765
  0
TEXT
  5
77
330
17
100
AcDbEntity
  8
0
100
AcDbText
 10
1018.3046964299539
 20
4226.000926806256
 30
0.0
 40
14.0
  1
IFOOT
100
AcDbText
  0
ENDSEC
  0
SECTION
  2
OBJECTS
  0
DICTIONARY
  5
A
330
0
100
AcDbDictionary
281
1
  3
ACAD_COLOR
350
B
  3
ACAD_GROUP
350
C
  3
ACAD_LAYOUT
350
D
  3
ACAD_MATERIAL
350
E
  3
ACAD_MLEADERSTYLE
350
F
  3
ACAD_MLINESTYLE
350
10
  3
ACAD_PLOTSETTINGS
350
11
  3
ACAD_PLOTSTYLENAME
350
12
  3
ACAD_SCALELIST
350
14
  3
ACAD_TABLESTYLE
350
15
  3
ACAD_VISUALSTYLE
350
16
  3
EZDXF_META
350
2D
  0
DICTIONARY
  5
B
330
A
100
AcDbDictionary
281
1
  0
DICTIONARY
  5
C
330
A
100
AcDbDictionary
281
1
  0
DICTIONARY
  5
D
330
A
100
AcDbDictionary
281
1
  3
Model
350
1A
  3
Layout1
350
1E
  0
DICTIONARY
  5
E
330
A
100
AcDbDictionary
281
1
  3
ByBlock
350
1F
  3
ByLayer
350
20
  3
Global
350
21
  0
DICTIONARY
  5
F
330
A
100
AcDbDictionary
281
1
  3
Standard
350
2C
  0
DICTIONARY
  5
10
330
A
100
AcDbDictionary
281
1
  3
Standard
350
22
  0
DICTIONARY
  5
11
330
A
100
AcDbDictionary
281
1
  0
ACDBDICTIONARYWDFLT
  5
12
330
A
100
AcDbDictionary
281
1
  3
Normal
350
13
100
AcDbDictionaryWithDefault
340
13
  0
ACDBPLACEHOLDER
  5
13
330
12
  0
DICTIONARY
  5
14
330
A
100
AcDbDictionary
281
1
  0
DICTIONARY
  5
15
330
A
100
AcDbDictionary
281
1
  0
DICTIONARY
  5
16
330
A
100
AcDbDictionary
281
1
  0
LAYOUT
  5
1A
330
D
100
AcDbPlotSettings
  1

  4
A3
  6

 40
7.5
 41
20.0
 42
7.5
 43
20.0
 44
420.0
 45
297.0
 46
0.0
 47
0.0
 48
0.0
 49
0.0
140
0.0
141
0.0
142
1.0
143
1.0
 70
1024
 72
1
 73
0
 74
5
  7

 75
16
 76
0
 77
2
 78
300
147
1.0
148
0.0
149
0.0
100
AcDbLayout
  1
Model
 70
1
 71
0
 10
0.0
 20
0.0
 11
420.0
 21
297.0
 12
0.0
 22
0.0
 32
0.0
 14
1e+20
 24
1e+20
 34
1e+20
 15
-1e+20
 25
-1e+20
 35
-1e+20
146
0.0
 13
0.0
 23
0.0
 33
0.0
 16
1.0
 26
0.0
 36
0.0
 17
0.0
 27
1.0
 37
0.0
 76
1
330
17
  0
LAYOUT
  5
1E
330
D
100
AcDbPlotSettings
  1

  4
A3
  6

 40
7.5
 41
20.0
 42
7.5
 43
20.0
 44
420.0
 45
297.0
 46
0.0
 47
0.0
 48
0.0
 49
0.0
140
0.0
141
0.0
142
1.0
143
1.0
 70
0
 72
1
 73
0
 74
5
  7

 75
16
 76
0
 77
2
 78
300
147
1.0
148
0.0
149
0.0
100
AcDbLayout
  1
Layout1
 70
1
 71
1
 10
0.0
 20
0.0
 11
420.0
 21
297.0
 12
0.0
 22
0.0
 32
0.0
 14
1e+20
 24
1e+20
 34
1e+20
 15
-1e+20
 25
-1e+20
 35
-1e+20
146
0.0
 13
0.0
 23
0.0
 33
0.0
 16
1.0
 26
0.0
 36
0.0
 17
0.0
 27
1.0
 37
0.0
 76
1
330
1B
  0
MATERIAL
  5
1F
102
{ACAD_REACTORS
330
E
102
}
330
E
100
AcDbMaterial
  1
ByBlock
  2

 70
0
 40
1.0
 71
1
 41
1.0
 91
-1023410177
 42
1.0
 72
1
  3

 73
1
 74
1
 75
1
 44
0.5
 73
0
 45
1.0
 46
1.0
 77
1
  4

 78
1
 79
1
170
1
 48
1.0
171
1
  6

172
1
173
1
174
1
140
1.0
141
1.0
175
1
  7

176
1
177
1
178
1
143
1.0
179
1
  8

270
1
271
1
272
1
145
1.0
146
1.0
273
1
  9

274
1
275
1
276
1
 42
1.0
 72
1
  3

 73
1
 74
1
 75
1
 94
63
  0
MATERIAL
  5
20
102
{ACAD_REACTORS
330
E
102
}
330
E
100
AcDbMaterial
  1
ByLayer
  2

 70
0
 40
1.0
 71
1
 41
1.0
 91
-1023410177
 42
1.0
 72
1
  3

 73
1
 74
1
 75
1
 44
0.5
 73
0
 45
1.0
 46
1.0
 77
1
  4

 78
1
 79
1
170
1
 48
1.0
171
1
  6

172
1
173
1
174
1
140
1.0
141
1.0
175
1
  7

176
1
177
1
178
1
143
1.0
179
1
  8

270
1
271
1
272
1
145
1.0
146
1.0
273
1
  9

274
1
275
1
276
1
 42
1.0
 72
1
  3

 73
1
 74
1
 75
1
 94
63
  0
MATERIAL
  5
21
102
{ACAD_REACTORS
330
E
102
}
330
E
100
AcDbMaterial
  1
Global
  2

 70
0
 40
1.0
 71
1
 41
1.0
 91
-1023410177
 42
1.0
 72
1
  3

 73
1
 74
1
 75
1
 44
0.5
 73
0
 45
1.0
 46
1.0
 77
1
  4

 78
1
 79
1
170
1
 48
1.0
171
1
  6

172
1
173
1
174
1
140
1.0
141
1.0
175
1
  7

176
1
177
1
178
1
143
1.0
179
1
  8

270
1
271
1
272
1
145
1.0
146
1.0
273
1
  9

274
1
275
1
276
1
 42
1.0
 72
1
  3

 73
1
 74
1
 75
1
 94
63
  0
MLINESTYLE
  5
22
102
{ACAD_REACTORS
330
10
102
}
330
10
100
AcDbMlineStyle
  2
Standard
 70
0
  3

 62
256
 51
90.0
 52
90.0
 71
2
 49
0.5
 62
256
  6
BYLAYER
 49
-0.5
 62
256
  6
BYLAYER
  0
MLEADERSTYLE
  5
2C
102
{ACAD_REACTORS
330
F
102
}
330
F
100
AcDbMLeaderStyle
179
2
170
2
171
1
172
0
 90
2
 40
0.0
 41
0.0
173
1
 91
-1056964608
 92
-2
290
1
 42
2.0
291
1
 43
8.0
  3
Standard
 44
4.0
300

342
29
174
1
175
1
176
0
178
1
 93
-1056964608
 45
4.0
292
0
297
0
 46
4.0
 94
-1056964608
 47
1.0
 49
1.0
140
1.0
294
1
141
0.0
177
0
142
1.0
295
0
296
0
143
3.75
271
0
272
9
273
9
  0
DICTIONARY
  5
2D
330
A
100
AcDbDictionary
280
1
281
1
  3
CREATED_BY_EZDXF
350
2E
  3
WRITTEN_BY_EZDXF
350
7A
  0
DICTIONARYVAR
  5
2E
330
2D
100
DictionaryVariables
280
0
  1
1.4.4 @ 2026-10-02T17:52:49.618175+00:00
  0
DICTIONARYVAR
  5
7A
330
2D
100
DictionaryVariables
280
0
  1
1.4.4 @ 2026-10-02T17:52:49.626620+00:00
  0
ENDSEC
  0
EOF
