  0
SECTION
  2
HEADER
  9
$ACADVER
  1
AC1024
  9
$ACADMAINTVER
 70
6
  9
$DWGCODEPAGE
  3
ANSI_1252
  9
$LASTSAVEDBY
  1
ezdxf
  9
$INSBASE
 10
0.0
 20
0.0
 30
0.0
  9
$EXTMIN
 10
1e+20
 20
1e+20
 30
1e+20
  9
$EXTMAX
 10
-1e+20
 20
-1e+20
 30
-1e+20
  9
$LIMMIN
 10
0.0
 20
0.0
  9
$LIMMAX
 10
420.0
 20
297.0
  9
$ORTHOMODE
 70
0
  9
$REGENMODE
 70
1
  9
$FILLMODE
 70
1
  9
$QTEXTMODE
 70
0
  9
$MIRRTEXT
 70
1
  9
$LTSCALE
 40
1.0
  9
$ATTMODE
 70
1
  9
$TEXTSIZE
 40
2.5
  9
$TRACEWID
 40
1.0
  9
$TEXTSTYLE
  7
Standard
  9
$CLAYER
  8
0
  9
$CELTYPE
  6
ByLayer
  9
$CECOLOR
 62
256
  9
$CELTSCALE
 40
1.0
  9
$DISPSILH
 70
0
  9
$DIMSCALE
 40
1.0
  9
$DIMASZ
 40
2.5
  9
$DIMEXO
 40
0.625
  9
$DIMDLI
 40
3.75
  9
$DIMRND
 40
0.0
  9
$DIMDLE
 40
0.0
  9
$DIMEXE
 40
1.25
  9
$DIMTP
 40
0.0
  9
$DIMTM
 40
0.0
  9
$DIMTXT
 40
2.5
  9
$DIMCEN
 40
2.5
  9
$DIMTSZ
 40
0.0
  9
$DIMTOL
 70
0
  9
$DIMLIM
 70
0
  9
$DIMTIH
 70
0
  9
$DIMTOH
 70
0
  9
$DIMSE1
 70
0
  9
$DIMSE2
 70
0
  9
$DIMTAD
 70
1
  9
$DIMZIN
 70
8
  9
$DIMBLK
  1

  9
$DIMASO
 70
1
  9
$DIMSHO
 70
1
  9
$DIMPOST
  1

  9
$DIMAPOST
  1

  9
$DIMALT
 70
0
  9
$DIMALTD
 70
3
  9
$DIMALTF
 40
0.03937007874
  9
$DIMLFAC
 40
1.0
  9
$DIMTOFL
 70
1
  9
$DIMTVP
 40
0.0
  9
$DIMTIX
 70
0
  9
$DIMSOXD
 70
0
  9
$DIMSAH
 70
0
  9
$DIMBLK1
  1

  9
$DIMBLK2
  1

  9
$DIMSTYLE
  2
ISO-25
  9
$DIMCLRD
 70
0
  9
$DIMCLRE
 70
0
  9
$DIMCLRT
 70
0
  9
$DIMTFAC
 40
1.0
  9
$DIMGAP
 40
0.625
  9
$DIMJUST
 70
0
  9
$DIMSD1
 70
0
  9
$DIMSD2
 70
0
  9
$DIMTOLJ
 70
0
  9
$DIMTZIN
 70
8
  9
$DIMALTZ
 70
0
  9
$DIMALTTZ
 70
0
  9
$DIMUPT
 70
0
  9
$DIMDEC
 70
2
  9
$DIMTDEC
 70
2
  9
$DIMALTU
 70
2
  9
$DIMALTTD
 70
3
  9
$DIMTXSTY
  7
Standard
  9
$DIMAUNIT
 70
0
  9
$DIMADEC
 70
0
  9
$DIMALTRND
 40
0.0
  9
$DIMAZIN
 70
0
  9
$DIMDSEP
 70
44
  9
$DIMATFIT
 70
3
  9
$DIMFRAC
 70
0
  9
$DIMLDRBLK
  1

  9
$DIMLUNIT
 70
2
  9
$DIMLWD
 70
-2
  9
$DIMLWE
 70
-2
  9
$DIMTMOVE
 70
0
  9
$DIMFXL
 40
1.0
  9
$DIMFXLON
 70
0
  9
$DIMJOGANG
 40
0.785398163397
  9
$DIMTFILL
 70
0
  9
$DIMTFILLCLR
 70
0
  9
$DIMARCSYM
 70
0
  9
$DIMLTYPE
  6

  9
$DIMLTEX1
  6

  9
$DIMLTEX2
  6

  9
$DIMTXTDIRECTION
 70
0
  9
$LUNITS
 70
2
  9
$LUPREC
 70
4
  9
$SKETCHINC
 40
1.0
  9
$FILLETRAD
 40
10.0
  9
$AUNITS
 70
0
  9
$AUPREC
 70
2
  9
$MENU
  1
.
  9
$ELEVATION
 40
0.0
  9
$PELEVATION
 40
0.0
  9
$THICKNESS
 40
0.0
  9
$LIMCHECK
 70
0
  9
$CHAMFERA
 40
0.0
  9
$CHAMFERB
 40
0.0
  9
$CHAMFERC
 40
0.0
  9
$CHAMFERD
 40
0.0
  9
$SKPOLY
 70
0
  9
$TDCREATE
 40
2461316.745011574
  9
$TDUCREATE
 40
2458532.153996898
  9
$TDUPDATE
 40
2461316.745011574
  9
$TDUUPDATE
 40
2458532.1544311
  9
$TDINDWG
 40
0.0
  9
$TDUSRTIMER
 40
0.0
  9
$USRTIMER
 70
1
  9
$ANGBASE
 50
0.0
  9
$ANGDIR
 70
0
  9
$PDMODE
 70
0
  9
$PDSIZE
 40
0.0
  9
$PLINEWID
 40
0.0
  9
$SPLFRAME
 70
0
  9
$SPLINETYPE
 70
6
  9
$SPLINESEGS
 70
8
  9
$HANDSEED
  5
81
  9
$SURFTAB1
 70
6
  9
$SURFTAB2
 70
6
  9
$SURFTYPE
 70
6
  9
$SURFU
 70
6
  9
$SURFV
 70
6
  9
$UCSBASE
  2

  9
$UCSNAME
  2

  9
$UCSORG
 10
0.0
 20
0.0
 30
0.0
  9
$UCSXDIR
 10
1.0
 20
0.0
 30
0.0
  9
$UCSYDIR
 10
0.0
 20
1.0
 30
0.0
  9
$UCSORTHOREF
  2

  9
$UCSORTHOVIEW
 70
0
  9
$UCSORGTOP
 10
0.0
 20
0.0
 30
0.0
  9
$UCSORGBOTTOM
 10
0.0
 20
0.0
 30
0.0
  9
$UCSORGLEFT
 10
0.0
 20
0.0
 30
0.0
  9
$UCSORGRIGHT
 10
0.0
 20
0.0
 30
0.0
  9
$UCSORGFRONT
 10
0.0
 20
0.0
 30
0.0
  9
$UCSORGBACK
 10
0.0
 20
0.0
 30
0.0
  9
$PUCSBASE
  2

  9
$PUCSNAME
  2

  9
$PUCSORG
 10
0.0
 20
0.0
 30
0.0
  9
$PUCSXDIR
 10
1.0
 20
0.0
 30
0.0
  9
$PUCSYDIR
 10
0.0
 20
1.0
 30
0.0
  9
$PUCSORTHOREF
  2

  9
$PUCSORTHOVIEW
 70
0
  9
$PUCSORGTOP
 10
0.0
 20
0.0
 30
0.0
  9
$PUCSORGBOTTOM
 10
0.0
 20
0.0
 30
0.0
  9
$PUCSORGLEFT
 10
0.0
 20
0.0
 30
0.0
  9
$PUCSORGRIGHT
 10
0.0
 20
0.0
 30
0.0
  9
$PUCSORGFRONT
 10
0.0
 20
0.0
 30
0.0
  9
$PUCSORGBACK
 10
0.0
 20
0.0
 30
0.0
  9
$USERI1
 70
0
  9
$USERI2
 70
0
  9
$USERI3
 70
0
  9
$USERI4
 70
0
  9
$USERI5
 70
0
  9
$USERR1
 40
0.0
  9
$USERR2
 40
0.0
  9
$USERR3
 40
0.0
  9
$USERR4
 40
0.0
  9
$USERR5
 40
0.0
  9
$WORLDVIEW
 70
1
  9
$SHADEDGE
 70
3
  9
$SHADEDIF
 70
70
  9
$TILEMODE
 70
1
  9
$MAXACTVP
 70
64
  9
$PINSBASE
 10
0.0
 20
0.0
 30
0.0
  9
$PLIMCHECK
 70
0
  9
$PEXTMIN
 10
1e+20
 20
1e+20
 30
1e+20
  9
$PEXTMAX
 10
-1e+20
 20
-1e+20
 30
-1e+20
  9
$PLIMMIN
 10
0.0
 20
0.0
  9
$PLIMMAX
 10
420.0
 20
297.0
  9
$UNITMODE
 70
0
  9
$VISRETAIN
 70
1
  9
$PLINEGEN
 70
0
  9
$PSLTSCALE
 70
1
  9
$TREEDEPTH
 70
3020
  9
$CMLSTYLE
  2
Standard
  9
$CMLJUST
 70
0
  9
$CMLSCALE
 40
20.0
  9
$PROXYGRAPHICS
 70
1
  9
$MEASUREMENT
 70
1
  9
$CELWEIGHT
370
-1
  9
$ENDCAPS
280
0
  9
$JOINSTYLE
280
0
  9
$LWDISPLAY
290
0
  9
$INSUNITS
 70
4
  9
$HYPERLINKBASE
  1

  9
$STYLESHEET
  1

  9
$XEDIT
290
1
  9
$CEPSNTYPE
380
0
  9
$PSTYLEMODE
290
1
  9
$FINGERPRINTGUID
  2
{4461D6A0-E9BE-4619-8170-93CA934234DE}
  9
$VERSIONGUID
  2
{826EEB2A-1B40-48DA-A7A9-BF6C36D6A15F}
  9
$EXTNAMES
290
1
  9
$PSVPSCALE
 40
0.0
  9
$OLESTARTUP
290
0
  9
$SORTENTS
280
127
  9
$INDEXCTL
280
0
  9
$HIDETEXT
280
1
  9
$XCLIPFRAME
280
1
  9
$HALOGAP
280
0
  9
$OBSCOLOR
 70
257
  9
$OBSLTYPE
280
0
  9
$INTERSECTIONDISPLAY
280
0
  9
$INTERSECTIONCOLOR
 70
257
  9
$DIMASSOC
280
2
  9
$PROJECTNAME
  1

  9
$CAMERADISPLAY
290
0
  9
$LENSLENGTH
 40
50.0
  9
$CAMERAHEIGHT
 40
0.0
  9
$STEPSPERSEC
 40
24.0
  9
$STEPSIZE
 40
100.0
  9
$3DDWFPREC
 40
2.0
  9
$PSOLWIDTH
 40
0.005
  9
$PSOLHEIGHT
 40
0.08
  9
$LOFTANG1
 40
1.570796326795
  9
$LOFTANG2
 40
1.570796326795
  9
$LOFTMAG1
 40
0.0
  9
$LOFTMAG2
 40
0.0
  9
$LOFTPARAM
 70
7
  9
$LOFTNORMALS
280
1
  9
$LATITUDE
 40
37.795
  9
$LONGITUDE
 40
-122.394
  9
$NORTHDIRECTION
 40
0.0
  9
$TIMEZONE
 70
-8000
  9
$LIGHTGLYPHDISPLAY
280
1
  9
$TILEMODELIGHTSYNCH
280
1
  9
$CMATERIAL
347
20
  9
$SOLIDHIST
280
0
  9
$SHOWHIST
280
1
  9
$DWFFRAME
280
2
  9
$DGNFRAME
280
2
  9
$REALWORLDSCALE
290
1
  9
$INTERFERECOLOR
 62
256
  9
$CSHADOW
280
0
  9
$SHADOWPLANELOCATION
 40
0.0
  0
ENDSEC
  0
SECTION
  2
CLASSES
  0
CLASS
  1
ACDBDICTIONARYWDFLT
  2
AcDbDictionaryWithDefault
  3
ObjectDBX Classes
 90
0
 91
0
280
0
281
0
  0
CLASS
  1
SUN
  2
AcDbSun
  3
SCENEOE
 90
1153
 91
0
280
0
281
0
  0
CLASS
  1
VISUALSTYLE
  2
AcDbVisualStyle
  3
ObjectDBX Classes
 90
4095
 91
0
280
0
281
0
  0
CLASS
  1
MATERIAL
  2
AcDbMaterial
  3
ObjectDBX Classes
 90
1153
 91
0
280
0
281
0
  0
CLASS
  1
SCALE
  2
AcDbScale
  3
ObjectDBX Classes
 90
1153
 91
0
280
0
281
0
  0
CLASS
  1
TABLESTYLE
  2
AcDbTableStyle
  3
ObjectDBX Classes
 90
4095
 91
0
280
0
281
0
  0
CLASS
  1
MLEADERSTYLE
  2
AcDbMLeaderStyle
  3
ACDB_MLEADERSTYLE_CLASS
 90
4095
 91
0
280
0
281
0
  0
CLASS
  1
DICTIONARYVAR
  2
AcDbDictionaryVar
  3
ObjectDBX Classes
 90
0
 91
0
280
0
281
0
  0
CLASS
  1
CELLSTYLEMAP
  2
AcDbCellStyleMap
  3
ObjectDBX Classes
 90
1152
 91
0
280
0
281
0
  0
CLASS
  1
MENTALRAYRENDERSETTINGS
  2
AcDbMentalRayRenderSettings
  3
SCENEOE
 90
1024
 91
0
280
0
281
0
  0
CLASS
  1
ACDBDETAILVIEWSTYLE
  2
AcDbDetailViewStyle
  3
ObjectDBX Classes
 90
1025
 91
0
280
0
281
0
  0
CLASS
  1
ACDBSECTIONVIEWSTYLE
  2
AcDbSectionViewStyle
  3
ObjectDBX Classes
 90
1025
 91
0
280
0
281
0
  0
CLASS
  1
RASTERVARIABLES
  2
AcDbRasterVariables
  3
ISM
 90
0
 91
0
280
0
281
0
  0
CLASS
  1
LAYOUT
  2
AcDbLayout
  3
ObjectDBX Classes
 90
0
 91
0
280
0
281
0
  0
CLASS
  1
ACDBPLACEHOLDER
  2
AcDbPlaceHolder
  3
ObjectDBX Classes
 90
0
 91
0
280
0
281
0
  0
ENDSEC
  0
SECTION
  2
TABLES
  0
TABLE
  2
VPORT
  5
8
330
0
100
AcDbSymbolTable
 70
1
  0
VPORT
  5
23
330
8
100
AcDbSymbolTableRecord
100
AcDbViewportTableRecord
  2
*Active
 70
0
 10
0.0
 20
0.0
 11
1.0
 21
1.0
 12
0.0
 22
0.0
 13
0.0
 23
0.0
 14
0.5
 24
0.5
 15
0.5
 25
0.5
 16
0.0
 26
0.0
 36
1.0
 17
0.0
 27
0.0
 37
0.0
 40
1000.0
 41
1.34
 42
50.0
 43
0.0
 44
0.0
 50
0.0
 51
0.0
 71
0
 72
1000
 73
1
 74
3
 75
0
 76
0
 77
0
 78
0
281
0
 65
0
146
0.0
  0
ENDTAB
  0
TABLE
  2
LTYPE
  5
2
330
0
100
AcDbSymbolTable
 70
3
  0
LTYPE
  5
24
330
2
100
AcDbSymbolTableRecord
100
AcDbLinetypeTableRecord
  2
ByBlock
 70
0
  3

 72
65
 73
0
 40
0.0
  0
LTYPE
  5
25
330
2
100
AcDbSymbolTableRecord
100
AcDbLinetypeTableRecord
  2
ByLayer
 70
0
  3

 72
65
 73
0
 40
0.0
  0
LTYPE
  5
26
330
2
100
AcDbSymbolTableRecord
100
AcDbLinetypeTableRecord
  2
Continuous
 70
0
  3

 72
65
 73
0
 40
0.0
  0
ENDTAB
  0
TABLE
  2
LAYER
  5
1
330
0
100
AcDbSymbolTable
 70
28
  0
LAYER
  5
27
330
1
100
AcDbSymbolTableRecord
100
AcDbLayerTableRecord
  2
0
 70
0
 62
7
  6
Continuous
370
-3
390
13
347
21
  0
LAYER
  5
28
330
1
100
AcDbSymbolTableRecord
100
AcDbLayerTableRecord
  2
Defpoints
 70
0
 62
7
  6
Continuous
290
0
370
-3
390
13
347
21
  0
LAYER
  5
30
330
1
100
AcDbSymbolTableRecord
100
AcDbLayerTableRecord
  2
LF
 70
0
 62
7
  6
Continuous
370
-3
390
13
347
21
  0
LAYER
  5
33
330
1
100
AcDbSymbolTableRecord
100
AcDbLayerTableRecord
  2
L05
 70
0
 62
7
  6
Continuous
370
-3
390
13
347
21
  0
LAYER
  5
36
330
1
100
AcDbSymbolTableRecord
100
AcDbLayerTableRecord
  2
L12
 70
0
 62
7
  6
Continuous
370
-3
390
13
347
21
  0
LAYER
  5
39
330
1
100
AcDbSymbolTableRecord
100
AcDbLayerTableRecord
  2
L04
 70
0
 62
7
  6
Continuous
370
-3
390
13
347
21
  0
LAYER
  5
3C
330
1
100
AcDbSymbolTableRecord
100
AcDbLayerTableRecord
  2
L13
 70
0
 62
7
  6
Continuous
370
-3
390
13
347
21
  0
LAYER
  5
3F
330
1
100
AcDbSymbolTableRecord
100
AcDbLayerTableRecord
  2
H02
 70
0
 62
7
  6
Continuous
370
-3
390
13
347
21
  0
LAYER
  5
42
330
1
100
AcDbSymbolTableRecord
100
AcDbLayerTableRecord
  2
L16
 70
0
 62
7
  6
Continuous
370
-3
390
13
347
21
  0
LAYER
  5
45
330
1
100
AcDbSymbolTableRecord
100
AcDbLayerTableRecord
  2
L01
 70
0
 62
7
  6
Continuous
370
-3
390
13
347
21
  0
LAYER
  5
48
330
1
100
AcDbSymbolTableRecord
100
AcDbLayerTableRecord
  2
L03
 70
0
 62
7
  6
Continuous
370
-3
390
13
347
21
  0
LAYER
  5
4B
330
1
100
AcDbSymbolTableRecord
100
AcDbLayerTableRecord
  2
L14
 70
0
 62
7
  6
Continuous
370
-3
390
13
347
21
  0
LAYER
  5
4E
330
1
100
AcDbSymbolTableRecord
100
AcDbLayerTableRecord
  2
L15
 70
0
 62
7
  6
Continuous
370
-3
390
13
347
21
  0
LAYER
  5
51
330
1
100
AcDbSymbolTableRecord
100
AcDbLayerTableRecord
  2
L02
 70
0
 62
7
  6
Continuous
370
-3
390
13
347
21
  0
LAYER
  5
54
330
1
100
AcDbSymbolTableRecord
100
AcDbLayerTableRecord
  2
L08A
 70
0
 62
7
  6
Continuous
370
-3
390
13
347
21
  0
LAYER
  5
57
330
1
100
AcDbSymbolTableRecord
100
AcDbLayerTableRecord
  2
L09A
 70
0
 62
7
  6
Continuous
370
-3
390
13
347
21
  0
LAYER
  5
5A
330
1
100
AcDbSymbolTableRecord
100
AcDbLayerTableRecord
  2
L07A
 70
0
 62
7
  6
Continuous
370
-3
390
13
347
21
  0
LAYER
  5
5D
330
1
100
AcDbSymbolTableRecord
100
AcDbLayerTableRecord
  2
L10A
 70
0
 62
7
  6
Continuous
370
-3
390
13
347
21
  0
LAYER
  5
60
330
1
100
AcDbSymbolTableRecord
100
AcDbLayerTableRecord
  2
L06A
 70
0
 62
7
  6
Continuous
370
-3
390
13
347
21
  0
LAYER
  5
63
330
1
100
AcDbSymbolTableRecord
100
AcDbLayerTableRecord
  2
L11A
 70
0
 62
7
  6
Continuous
370
-3
390
13
347
21
  0
LAYER
  5
66
330
1
100
AcDbSymbolTableRecord
100
AcDbLayerTableRecord
  2
L09B
 70
0
 62
7
  6
Continuous
370
-3
390
13
347
21
  0
LAYER
  5
69
330
1
100
AcDbSymbolTableRecord
100
AcDbLayerTableRecord
  2
L08B
 70
0
 62
7
  6
Continuous
370
-3
390
13
347
21
  0
LAYER
  5
6C
330
1
100
AcDbSymbolTableRecord
100
AcDbLayerTableRecord
  2
L10B
 70
0
 62
7
  6
Continuous
370
-3
390
13
347
21
  0
LAYER
  5
6F
330
1
100
AcDbSymbolTableRecord
100
AcDbLayerTableRecord
  2
L07B
 70
0
 62
7
  6
Continuous
370
-3
390
13
347
21
  0
LAYER
  5
72
330
1
100
AcDbSymbolTableRecord
100
AcDbLayerTableRecord
  2
L11B
 70
0
 62
7
  6
Continuous
370
-3
390
13
347
21
  0
LAYER
  5
75
330
1
100
AcDbSymbolTableRecord
100
AcDbLayerTableRecord
  2
L06B
 70
0
 62
7
  6
Continuous
370
-3
390
13
347
21
  0
LAYER
  5
78
330
1
100
AcDbSymbolTableRecord
100
AcDbLayerTableRecord
  2
LHEAD
 70
0
 62
7
  6
Continuous
370
-3
390
13
347
21
  0
LAYER
  5
7B
330
1
100
AcDbSymbolTableRecord
100
AcDbLayerTableRecord
  2
LFOOT
 70
0
 62
7
  6
Continuous
370
-3
390
13
347
21
  0
ENDTAB
  0
TABLE
  2
STYLE
  5
5
330
0
100
AcDbSymbolTable
 70
1
  0
STYLE
  5
29
330
5
100
AcDbSymbolTableRecord
100
AcDbTextStyleTableRecord
  2
Standard
 70
0
 40
0.0
 41
1.0
 50
0.0
 71
0
 42
2.5
  3
txt
  4

  0
ENDTAB
  0
TABLE
  2
VIEW
  5
7
330
0
100
AcDbSymbolTable
 70
0
  0
ENDTAB
  0
TABLE
  2
UCS
  5
6
330
0
100
AcDbSymbolTable
 70
0
  0
ENDTAB
  0
TABLE
  2
APPID
  5
3
330
0
100
AcDbSymbolTable
 70
3
  0
APPID
  5
2A
330
3
100
AcDbSymbolTableRecord
100
AcDbRegAppTableRecord
  2
ACAD
 70
0
  0
APPID
  5
7E
330
3
100
AcDbSymbolTableRecord
100
AcDbRegAppTableRecord
  2
HATCHBACKGROUNDCOLOR
 70
0
  0
APPID
  5
7F
330
3
100
AcDbSymbolTableRecord
100
AcDbRegAppTableRecord
  2
EZDXF
 70
0
  0
ENDTAB
  0
TABLE
  2
DIMSTYLE
  5
4
330
0
100
AcDbSymbolTable
 70
1
100
AcDbDimStyleTable
  0
DIMSTYLE
105
2B
330
4
100
AcDbSymbolTableRecord
100
AcDbDimStyleTableRecord
  2
Standard
 70
0
 40
1.0
 41
2.5
 42
0.625
 43
3.75
 44
1.25
 45
0.0
 46
0.0
 47
0.0
 48
0.0
 49
2.5
140
2.5
141
2.5
142
0.0
143
0.03937007874
144
1.0
145
0.0
146
1.0
147
0.625
148
0.0
 69
0
 70
0
 71
0
 72
0
 73
0
 74
0
 75
0
 76
0
 77
1
 78
8
 79
3
170
0
171
3
172
1
173
0
174
0
175
0
176
0
177
0
178
0
179
2
271
2
272
2
273
2
274
3
275
0
276
0
277
2
278
44
279
0
280
0
281
0
282
0
283
0
284
8
285
0
286
0
288
0
289
3
290
0
371
-2
372
-2
  0
ENDTAB
  0
TABLE
  2
BLOCK_RECORD
  5
9
330
0
100
AcDbSymbolTable
 70
2
  0
BLOCK_RECORD
  5
17
330
9
100
AcDbSymbolTableRecord
100
AcDbBlockTableRecord
  2
*Model_Space
340
1A
 70
0
280
1
281
0
  0
BLOCK_RECORD
  5
1B
330
9
100
AcDbSymbolTableRecord
100
AcDbBlockTableRecord
  2
*Paper_Space
340
1E
 70
0
280
1
281
0
  0
ENDTAB
  0
ENDSEC
  0
SECTION
  2
BLOCKS
  0
BLOCK
  5
18
330
17
100
AcDbEntity
  8
0
100
AcDbBlockBegin
  2
*Model_Space
 70
0
 10
0.0
 20
0.0
 30
0.0
  3
*Model_Space
  1

  0
ENDBLK
  5
19
330
17
100
AcDbEntity
  8
0
100
AcDbBlockEnd
  0
BLOCK
  5
1C
330
1B
100
AcDbEntity
  8
0
100
AcDbBlockBegin
  2
*Paper_Space
 70
0
 10
0.0
 20
0.0
 30
0.0
  3
*Paper_Space
  1

  0
ENDBLK
  5
1D
330
1B
100
AcDbEntity
  8
0
100
AcDbBlockEnd
  0
ENDSEC
  0
SECTION
  2
ENTITIES
  0
LWPOLYLINE
  5
2F
330
17
100
AcDbEntity
  8
0
100
AcDbPolyline
 90
4
 70
1
 10
0.0
 20
0.0
 10
1500.0
 20
0.0
 10
1500.0
 20
8603.234861739105
 10
0.0
 20
8603.234861739105
  0
LWPOLYLINE
  5
31
330
17
100
AcDbEntity
  8
LF
100
AcDbPolyline
 90
32
 70
1
 10
563.3907201875817
 20
30.0
 10
259.0761229791126
 20
30.000000000000252
 10
177.91494160693094
 20
113.64347192689398
 10
108.2785718300687
 20
185.4096493290151
 10
69.09610394621063
 20
287.707807708248
 10
30.0
 20
389.78048586000034
 10
30.0
 20
842.0000000000002
 10
30.000000000000114
 20
992.0000000000002
 10
30.000000000000114
 20
1292.3062182447718
 10
45.34761666497252
 20
1592.8295782697583
 10
76.1309686029847
 20
1944.4466833569293
 10
176.7353760064417
 20
2247.515283580222
 10
235.25489912066575
 20
2328.999883091216
 10
296.29914964170075
 20
2413.9999999999995
 10
526.1676935249936
 20
2414.0000000000005
 10
587.211944046029
 20
2328.9998830912164
 10
645.7314671602531
 20
2247.5152835802223
 10
696.1001960971639
 20
2095.7805776371956
 10
746.33587456371
 20
1944.446683356929
 10
761.7793402779571
 20
1768.0465720925315
 10
777.1192265017226
 20
1592.8295782697596
 10
784.7907806367604
 20
1442.612037943978
 10
792.466843166695
 20
1292.3062182447716
 10
792.4668431666948
 20
1142.0
 10
792.4668431666948
 20
992.0
 10
792.4668431666948
 20
842.0
 10
792.4668431666947
 20
542.0
 10
792.4668431666947
 20
389.78048585999994
 10
753.3707392204838
 20
287.7078077082479
 10
714.1882713366256
 20
185.40964932901497
 10
644.5519015597636
 20
113.64347192689371
 10
563.3907201875817
 20
30.0
  0
TEXT
  5
32
330
17
100
AcDbEntity
  8
0
100
AcDbText
 10
411.2334215833475
 20
1217.1531091223858
 30
0.0
 40
14.0
  1
LF
100
AcDbText
  0
LWPOLYLINE
  5
34
330
17
100
AcDbEntity
  8
L05
100
AcDbPolyline
 90
39
 70
1
 10
1208.2091638889033
 20
37.70313393361561
 10
1136.4854166984378
 20
30.0
 10
1019.7767924569662
 20
212.39885340004415
 10
920.5071852158453
 20
367.51477541388294
 10
871.7166724258569
 20
492.54534538750164
 10
822.0
 20
619.946171521072
 10
858.3721515756282
 20
774.6040311093959
 10
893.9187749031215
 20
925.9863968305951
 10
939.3275307850068
 20
1078.3136578184403
 10
984.3190851675529
 20
1229.6755395290768
 10
1010.6233735249032
 20
1379.2322715742098
 10
1036.9472131481307
 20
1529.1674130788072
 10
1055.3444044149855
 20
1679.7929525871127
 10
1073.735330011314
 20
1830.490081365194
 10
1088.0373586223807
 20
2006.9150396681114
 10
1102.3295184784572
 20
2183.2558800962142
 10
1106.6124762148465
 20
2346.543648035889
 10
1110.8948530822736
 20
2510.6722036037145
 10
1123.9226702121557
 20
2627.0787195415
 10
1138.0517786338423
 20
2753.4488106662193
 10
1195.9942183000985
 20
2754.510824873569
 10
1199.6341533427355
 20
2625.5817527902705
 10
1202.9415292092972
 20
2508.6627812370566
 10
1211.2545997218547
 20
2343.9523021767072
 10
1219.6217296597079
 20
2178.49967335966
 10
1210.5273180981242
 20
2001.1129580881086
 10
1201.4538363756703
 20
1824.0809796907677
 10
1187.2347114979373
 20
1672.9655129475868
 10
1173.0221291602675
 20
1521.7721998932532
 10
1150.430381863584
 20
1371.4214497441938
 10
1127.8459030856498
 20
1220.82662040827
 10
1090.0262167525043
 20
1069.0892554488707
 10
1052.525210445793
 20
918.1775764262443
 10
1023.1960394205612
 20
767.8542909451866
 10
994.3769114294325
 20
619.8945936881189
 10
1025.7194397737842
 20
499.10503175328216
 10
1057.498857245865
 20
376.63713610826676
 10
1124.4747531816665
 20
225.96489778632125
 10
1208.2091638889033
 20
37.70313393361561
  0
TEXT
  5
35
330
17
100
AcDbEntity
  8
0
100
AcDbText
 10
1092.7245974858952
 20
1450.5022357337316
 30
0.0
 40
14.0
  1
L05
100
AcDbText
  0
LWPOLYLINE
  5
37
330
17
100
AcDbEntity
  8
L12
100
AcDbPolyline
 90
39
 70
1
 10
848.5070938450326
 20
3786.473751702476
 10
920.2253577782916
 20
3778.7508667731663
 10
836.5088962420955
 20
3590.487121095198
 10
769.5247437188128
 20
3439.8173333532295
 10
737.732763511797
 20
3317.3523708627727
 10
706.3781080710369
 20
3196.5678830212864
 10
735.2254794774196
 20
3048.615777785967
 10
764.5876327360617
 20
2898.3009613945474
 10
802.1673633533255
 20
2747.4112801745214
 10
840.0806071370419
 20
2595.6943153473176
 10
862.6730797545138
 20
2445.0973844974114
 10
885.2754372431303
 20
2294.746965216223
 10
899.4642163295257
 20
2143.55008841918
 10
913.6605879477395
 20
1992.4319987906774
 10
922.6918791445994
 20
1815.3973469437856
 10
931.7442765038617
 20
1638.0089048722034
 10
923.3493223250587
 20
1472.5583192597833
 10
915.0145811706107
 20
1307.8484353293907
 10
911.6777787324415
 20
1190.9298837688002
 10
908.0119203438471
 20
1062.0
 10
850.0696812421256
 20
1063.0826719337788
 10
835.9659205524076
 20
1189.4542281416934
 10
822.9673933617935
 20
1305.8636020170643
 10
818.7064719361824
 20
1469.992214914907
 10
814.4509226870902
 20
1633.2813365650331
 10
800.2004760912367
 20
1809.6259776479196
 10
785.9405628008867
 20
1986.05382884973
 10
767.5724553789574
 20
2136.753256287665
 10
749.1992817929422
 20
2287.380398850474
 10
722.865372380816
 20
2437.312506244542
 10
696.5542805186624
 20
2586.86475317405
 10
651.4717425813095
 20
2738.1965938094872
 10
605.9829224355236
 20
2890.5023817557553
 10
570.4024244579717
 20
3041.878816802111
 10
534.0
 20
3196.531734722961
 10
583.7306658382792
 20
3323.9291815849906
 10
632.5338150660255
 20
3448.954487064745
 10
731.8110880731411
 20
3604.064234394915
 10
848.5070938450326
 20
3786.473751702476
  0
TEXT
  5
38
330
17
100
AcDbEntity
  8
0
100
AcDbText
 10
804.9724064053554
 20
2366.0297357303825
 30
0.0
 40
14.0
  1
L12
100
AcDbText
  0
LWPOLYLINE
  5
3A
330
17
100
AcDbEntity
  8
L04
100
AcDbPolyline
 90
39
 70
1
 10
1431.0213391191448
 20
34.37891463160091
 10
1360.0937000252554
 20
30.0
 10
1241.3732917448885
 20
185.93831066030634
 10
1139.9793780013308
 20
319.1052246722907
 10
1089.441989041482
 20
437.80438592218525
 10
1038.0
 20
558.6270856685959
 10
1071.037539451097
 20
712.3873990900714
 10
1103.3295900602839
 20
862.7715391276824
 10
1144.9044434276946
 20
1013.2922273365338
 10
1186.1517419307922
 20
1162.8196782161247
 10
1209.1924018820102
 20
1312.0618067340044
 10
1232.279469617999
 20
1461.742319320469
 10
1248.9337889539484
 20
1612.0939220323226
 10
1265.5865309497326
 20
1762.4973513017455
 10
1279.029654558854
 20
1938.789232692677
 10
1292.4829990934136
 20
2115.235403429931
 10
1303.645475981575
 20
2279.860247978434
 10
1314.8518150181053
 20
2445.291375096058
 10
1337.5310395643014
 20
2560.9443787842806
 10
1361.9100746400761
 20
2685.297922563012
 10
1418.7110349411191
 20
2686.7457989039226
 10
1409.7791916170447
 20
2558.130804712201
 10
1401.7914928034756
 20
2443.0674642440817
 10
1401.0521330914776
 20
2278.124003787579
 10
1400.317948831246
 20
2112.53679557268
 10
1392.027578054194
 20
1935.7663905993259
 10
1383.7416649923164
 20
1759.0617732826965
 10
1371.913127202832
 20
1608.3121468131462
 10
1360.087265089382
 20
1457.5122922805276
 10
1342.285672727176
 20
1307.3731020635266
 10
1324.4689185602879
 20
1156.9440349703975
 10
1293.0318196440494
 20
1006.4029588494632
 10
1261.7998347553728
 20
856.6332328879977
 10
1237.5165440195037
 20
706.9206419376994
 10
1213.6321048668938
 20
559.5604776757951
 10
1245.8997881448474
 20
445.08857473044344
 10
1278.5576451334846
 20
329.23443610195164
 10
1345.4524226561134
 20
199.83995492879944
 10
1431.0213391191448
 20
34.37891463160091
  0
TEXT
  5
3B
330
17
100
AcDbEntity
  8
0
100
AcDbText
 10
1285.9370717617871
 20
1384.7870495072661
 30
0.0
 40
14.0
  1
L04
100
AcDbText
  0
LWPOLYLINE
  5
3D
330
17
100
AcDbEntity
  8
L13
100
AcDbPolyline
 90
39
 70
1
 10
100.9240090207735
 20
2198.0
 10
30.0
 20
2202.3895608141447
 10
115.55302943096126
 20
2367.8540363283623
 10
182.44847372306407
 20
2497.248964718011
 10
215.11017097635906
 20
2613.102216107269
 10
247.38153186171158
 20
2727.5723996845636
 10
223.4866542915926
 20
2874.9301188730215
 10
199.19076996866107
 20
3024.639822252254
 10
167.92747561955397
 20
3174.401942199571
 10
136.45098818335282
 20
3324.935959226973
 10
118.6310934109759
 20
3475.3660304495656
 10
100.82451217541012
 20
3625.5051820442036
 10
89.00941123219025
 20
3776.306482006323
 10
77.19098167372465
 20
3927.0571346194224
 10
68.92457071070561
 20
4103.76291949502
 10
60.65356168044286
 20
4280.5340252133465
 10
59.931981901361155
 20
4446.120991898897
 10
59.202518069672294
 20
4611.064732518384
 10
51.2280843758661
 20
4726.129191356873
 10
42.30813612819355
 20
4854.745802771868
 10
99.10909331081575
 20
4853.288680343017
 10
123.47651605671427
 20
4728.933426037178
 10
146.1423685701688
 20
4613.278002616148
 10
157.33880582818384
 20
4447.846442821334
 10
168.4887956262851
 20
4283.22045303553
 10
181.92283855531954
 20
4106.772604319788
 10
195.34647397721812
 20
3930.479492342861
 10
211.98908117204456
 20
3780.0751751716134
 10
228.63255365420298
 20
3629.722974781746
 10
251.72443199674626
 20
3480.043759666017
 10
274.76782835174004
 20
3330.8034351043684
 10
316.05361328241406
 20
3181.2877957684846
 10
357.6603619840429
 20
3030.77483375538
 10
389.9653548651473
 20
2880.3926228497257
 10
423.01406022678066
 20
2726.6339162438217
 10
371.56773073929475
 20
2605.812315544398
 10
321.0265312612436
 20
2487.1149787872914
 10
219.63260999370294
 20
2353.9489296848587
 10
100.9240090207735
 20
2198.0
  0
TEXT
  5
3E
330
17
100
AcDbEntity
  8
0
100
AcDbText
 10
174.97712835255456
 20
3552.7744708551104
 30
0.0
 40
14.0
  1
L13
100
AcDbText
  0
LWPOLYLINE
  5
40
330
17
100
AcDbEntity
  8
H02
100
AcDbPolyline
 90
43
 70
1
 10
1274.0
 20
2782.0
 10
870.0
 20
2782.0
 10
870.0
 20
2858.2112225105084
 10
870.0000000000002
 20
2884.448403166362
 10
870.0000000000002
 20
2913.837428502942
 10
870.0000000000002
 20
2946.3837742004775
 10
870.0000000000002
 20
2981.9043693052895
 10
870.0000000000002
 20
3060.4837691241664
 10
870.0000000000002
 20
3102.6232997454654
 10
870.0000000000002
 20
3145.9472431272907
 10
870.0000000000002
 20
3189.8717406576343
 10
870.0000000000002
 20
3233.7962381879775
 10
870.0000000000002
 20
3277.120181569803
 10
870.0000000000001
 20
3319.2597121911017
 10
870.0
 20
3359.66500449416
 10
870.0
 20
3397.8391120099786
 10
870.0
 20
3433.3597071147906
 10
870.0
 20
3597.743481315268
 10
1274.0
 20
3597.743481315268
 10
1274.0
 20
3565.9541960434262
 10
1274.0
 20
3544.8825747315327
 10
1274.0
 20
3521.53225880476
 10
1274.0
 20
3495.295078148906
 10
1274.0
 20
3465.906052812326
 10
1274.0
 20
3433.3597071147906
 10
1274.0
 20
3397.8391120099786
 10
1274.0
 20
3359.66500449416
 10
1274.0000000000002
 20
3319.2597121911017
 10
1274.0000000000002
 20
3277.120181569803
 10
1274.0000000000002
 20
3233.7962381879775
 10
1274.0000000000002
 20
3189.8717406576343
 10
1274.0000000000002
 20
3145.9472431272907
 10
1274.0000000000002
 20
3102.6232997454654
 10
1274.0000000000002
 20
3060.4837691241664
 10
1274.0000000000002
 20
3020.0784768211083
 10
1274.0000000000002
 20
2981.9043693052895
 10
1274.0000000000002
 20
2946.3837742004775
 10
1274.0
 20
2913.837428502942
 10
1274.0
 20
2884.448403166362
 10
1274.0
 20
2858.211222510508
 10
1274.0
 20
2834.8609065837354
 10
1274.0
 20
2813.789285271842
 10
1274.0
 20
2782.0
  0
TEXT
  5
41
330
17
100
AcDbEntity
  8
0
100
AcDbText
 10
1072.0000000000002
 20
3211.8339894228056
 30
0.0
 40
14.0
  1
H02
100
AcDbText
  0
LWPOLYLINE
  5
43
330
17
100
AcDbEntity
  8
L16
100
AcDbPolyline
 90
39
 70
1
 10
576.9218699419002
 20
4957.386974456607
 10
649.1180771878201
 20
4960.713568623363
 10
600.8405455405361
 20
4839.90645747571
 10
565.0707655245503
 20
4750.294625485436
 10
543.4201346657348
 20
4646.49179121497
 10
521.7721598733419
 20
4542.695078648043
 10
517.2487750677653
 20
4393.8199568627315
 10
512.7444673961731
 20
4243.893652153009
 10
508.34039888580133
 20
4093.967146909354
 10
504.05660618066395
 20
3944.0347851793313
 10
499.8136481960375
 20
3794.0982614175446
 10
495.62157071712926
 20
3644.3565849269726
 10
496.3688723388442
 20
3494.361399753757
 10
497.1313058342863
 20
3344.3141112380963
 10
502.2833744285344
 20
3168.866129869958
 10
507.4150892673917
 20
2994.215094425881
 10
536.4985339879316
 20
2839.825860861744
 10
565.5797376064477
 20
2685.5848928157525
 10
600.5619209916829
 20
2594.6807796725293
 10
642.1643006603923
 20
2486.641720392407
 10
582.3434707735014
 20
2486.0
 10
527.376119878642
 20
2584.9708113398774
 10
475.1488575761472
 20
2678.983338376227
 10
433.068118594005
 20
2836.510831811876
 10
391.0379595425039
 20
2993.7748449584124
 10
380.56091663490304
 20
3170.690423035771
 10
370.143907582214
 20
3346.545581575786
 10
365.10406337701846
 20
3496.957590768043
 10
360.0485302587452
 20
3647.426324119242
 10
360.2921617616129
 20
3797.7228514469543
 10
360.49287168301026
 20
3947.6633723826626
 10
357.0705312213996
 20
4097.775688774265
 10
353.5366299179749
 20
4248.102130419953
 10
351.80431458211564
 20
4398.3399372845
 10
350.0
 20
4550.71239402619
 10
389.0063848165145
 20
4656.924828916838
 10
427.88016397438855
 20
4762.781552834453
 10
496.4963949120971
 20
4852.256723109346
 10
576.9218699419002
 20
4957.386974456607
  0
TEXT
  5
44
330
17
100
AcDbEntity
  8
0
100
AcDbText
 10
428.963993504064
 20
3720.7622927683933
 30
0.0
 40
14.0
  1
L16
100
AcDbText
  0
LWPOLYLINE
  5
46
330
17
100
AcDbEntity
  8
L01
100
AcDbPolyline
 90
39
 70
1
 10
534.0
 20
5928.688371626051
 10
606.218718186063
 20
5925.274005953701
 10
686.7319911614168
 20
5820.224417816351
 10
755.3633439276913
 20
5730.752896940114
 10
794.2220769808998
 20
5624.888835007069
 10
833.2117841090484
 20
5518.672144968431
 10
831.4280546853288
 20
5366.301395160801
 10
829.7203800559375
 20
5216.065352417126
 10
826.2580831742632
 20
5065.7396748670235
 10
822.9210608245353
 20
4915.622507485714
 10
823.1199461190249
 20
4765.678619154874
 10
823.3647891591385
 20
4615.380862573608
 10
818.2765103324264
 20
4464.911925280667
 10
813.2051069176248
 20
4314.500491832347
 10
802.7356435283582
 20
4138.647927622393
 10
792.2062064341383
 20
3961.7359770815674
 10
750.1427541460602
 20
3804.481654058484
 10
708.0351001401265
 20
3646.9609601944435
 10
655.7820002218712
 20
3552.9627369009036
 10
600.7962639195722
 20
3454.0
 10
540.9789051309624
 20
3454.6703327097994
 10
582.5983193629363
 20
3562.697454457322
 10
617.6053964317109
 20
3653.591948166997
 10
646.7126992347623
 20
3807.8276133234804
 10
675.8291165788397
 20
3962.21140853033
 10
681.0126016082779
 20
4136.861431210215
 10
686.2169577942404
 20
4312.307349526088
 10
687.0108610424904
 20
4462.353990269766
 10
687.7907596770145
 20
4612.347701895683
 10
683.5975008533504
 20
4762.088113091213
 10
679.3564580642084
 20
4912.021322271265
 10
674.9873865416703
 20
5061.9482909133085
 10
670.5118260456288
 20
5211.875112442664
 10
665.982873493228
 20
5361.802723615811
 10
661.4393269521465
 20
5510.679137479293
 10
639.806713241976
 20
5614.48079905588
 10
618.1717485120619
 20
5718.2852327932
 10
582.3935558373786
 20
5807.887279143481
 10
534.0
 20
5928.688371626051
  0
TEXT
  5
47
330
17
100
AcDbEntity
  8
0
100
AcDbText
 10
754.4484764384122
 20
4688.734487832411
 30
0.0
 40
14.0
  1
L01
100
AcDbText
  0
LWPOLYLINE
  5
49
330
17
100
AcDbEntity
  8
L03
100
AcDbPolyline
 90
39
 70
1
 10
1457.6802984529377
 20
3510.880265025896
 10
1386.6629090747115
 20
3510.0
 10
1274.341371450777
 20
3642.2464143609855
 10
1178.1248688254805
 20
3755.5308719283557
 10
1128.4120255337386
 20
3868.4033921013897
 10
1078.0
 20
3982.863396847487
 10
1101.2247431821422
 20
4136.539245426103
 10
1123.9710363083723
 20
4287.049436695026
 10
1153.9875866058146
 20
4437.62948366825
 10
1183.8385578444413
 20
4587.379309712495
 10
1199.227823624796
 20
4736.976962137713
 10
1214.6644460713012
 20
4887.035309628325
 10
1227.5342739242408
 20
5037.407317433973
 10
1240.405302580317
 20
5187.793505064577
 10
1252.8676765530333
 20
5363.974849733591
 10
1265.367993542387
 20
5540.692636361336
 10
1289.3968815259166
 20
5704.725729391912
 10
1313.513358735043
 20
5869.3568833793515
 10
1350.3175462395106
 20
5980.189013863328
 10
1389.4857076262613
 20
6098.140052478286
 10
1446.330824498399
 20
6098.794845317274
 10
1420.602037708124
 20
5974.483581450053
 10
1398.036455934913
 20
5865.455637670209
 10
1383.5987599140733
 20
5702.633279064579
 10
1369.1246331726338
 20
5539.399905284594
 10
1361.8293940919891
 20
5363.465062104997
 10
1354.5200317585975
 20
5187.189558145145
 10
1346.7996510896292
 20
5036.710480502949
 10
1339.0787784116512
 20
4886.221590071392
 10
1329.6483307484957
 20
4736.052156128838
 10
1320.1990229438074
 20
4585.58189226749
 10
1301.3736200500787
 20
4435.020898977618
 10
1282.6170936174049
 20
4285.010219443284
 10
1268.5318154037845
 20
4135.046583996701
 10
1254.6402722357943
 20
3987.1453373059503
 10
1285.82421607607
 20
3877.8771304605125
 10
1317.25968187948
 20
3767.7275964812316
 10
1377.979738267523
 20
3656.6627678549153
 10
1457.6802984529377
 20
3510.880265025896
  0
TEXT
  5
4A
330
17
100
AcDbEntity
  8
0
100
AcDbText
 10
1270.6484368758709
 20
4811.599276104553
 30
0.0
 40
14.0
  1
L03
100
AcDbText
  0
LWPOLYLINE
  5
4C
330
17
100
AcDbEntity
  8
L14
100
AcDbPolyline
 90
39
 70
1
 10
1034.6628868492198
 20
6874.794882922475
 10
1105.680266151159
 20
6873.914590532293
 10
1025.9797488332624
 20
6728.13207928613
 10
965.2596939453401
 20
6617.0672475938
 10
933.8242222264487
 20
6506.917714903158
 10
902.6402726825909
 20
6397.649510618276
 10
916.5318312141887
 20
6249.74826635539
 10
930.6171282876876
 20
6099.784634162238
 10
949.3737035688312
 20
5949.773962451754
 10
968.1991692679167
 20
5799.212975223105
 10
977.6484811014125
 20
5648.742709446917
 10
987.0789364719753
 20
5498.5732750519965
 10
994.7997903159528
 20
5348.0843830393405
 10
1002.5201534676451
 20
5197.605303699937
 10
1009.8294817950348
 20
5021.329798059378
 10
1017.1246872303336
 20
4845.394953688501
 10
1031.5987927543242
 20
4682.161578692863
 10
1046.0364722063068
 20
4519.339218084957
 10
1068.602032549032
 20
4410.311269922633
 10
1094.3308006459606
 20
4286.0
 10
1037.4856831346035
 20
4286.654809161253
 10
998.3175404679234
 20
4404.605852070374
 10
961.5133745603953
 20
4515.437990316177
 10
937.3969141368992
 20
4680.069146845512
 10
913.3680474073348
 20
4844.102243037981
 10
900.8677641902227
 20
5020.820032259189
 10
888.4054242356513
 20
5197.001379063428
 10
875.5344131426525
 20
5347.387568014838
 10
862.6646042456239
 20
5497.759576208553
 10
847.2279742450163
 20
5647.817922047297
 10
831.838704822352
 20
5797.415571855087
 10
801.9876716967964
 20
5947.165383682516
 10
771.9710718081877
 20
6097.7454225714655
 10
749.2247594362693
 20
6248.2556121407015
 10
726.0
 20
6401.931459585442
 10
776.4120321465655
 20
6516.391462450111
 10
826.124881235703
 20
6629.263979645979
 10
922.3413802292696
 20
6742.548437980684
 10
1034.6628868492198
 20
6874.794882922475
  0
TEXT
  5
4D
330
17
100
AcDbEntity
  8
0
100
AcDbText
 10
918.6485914197123
 20
5573.195598549646
 30
0.0
 40
14.0
  1
L14
100
AcDbText
  0
LWPOLYLINE
  5
4F
330
17
100
AcDbEntity
  8
L15
100
AcDbPolyline
 90
39
 70
1
 10
245.57344185968788
 20
4599.751738395084
 10
174.0
 20
4598.0
 10
240.788091408171
 20
4728.871858283248
 10
290.6182822738538
 20
4826.538285484672
 10
318.5291632600888
 20
4932.576510987668
 10
346.34206976742126
 20
5038.244116418456
 10
343.37885798650245
 20
5186.716974160077
 10
340.36718848153447
 20
5336.778431385576
 10
335.2141374466265
 20
5486.9031774108935
 10
330.0084946846798
 20
5637.276757972224
 10
328.94153493782323
 20
5787.524416658869
 10
327.8580422654029
 20
5937.504680310705
 10
324.21298205159155
 20
6087.700880723958
 10
320.5607426001951
 20
6237.925495418312
 10
314.125789967998
 20
6413.7435366419695
 10
307.71443333535825
 20
6588.879165588485
 10
281.69667068738215
 20
6747.571785736574
 10
255.70291781502442
 20
6906.05413560655
 10
222.29171337780917
 20
7005.695892655036
 10
183.30421750521617
 20
7121.942977079389
 10
241.41163617244462
 20
7122.383808440245
 10
292.81997840792866
 20
7014.310562590629
 10
341.51826194430123
 20
6911.943738542164
 10
378.24272246324267
 20
6750.5877324777175
 10
414.8912479051999
 20
6589.6013670713455
 10
426.5675331044945
 20
6412.668592887476
 10
438.18610834971116
 20
6236.6290679318945
 10
446.7430520311826
 20
6086.199904225459
 10
455.30737207930315
 20
5935.744793090156
 10
461.8348349634043
 20
5785.4097692395235
 10
468.36016770441483
 20
5635.508216818882
 10
483.7679034651934
 20
5485.286945426604
 10
499.26698192661684
 20
5334.543223882966
 10
510.2802324820891
 20
5183.961207594803
 10
521.507324577427
 20
5030.665540136836
 10
475.14799992768866
 20
4921.300049288373
 10
429.18778492064365
 20
4812.874635183753
 10
344.4536951360474
 20
4714.555222861466
 10
245.57344185968788
 20
4599.751738395084
  0
TEXT
  5
50
330
17
100
AcDbEntity
  8
0
100
AcDbText
 10
393.4656703183359
 20
5861.634604874513
 30
0.0
 40
14.0
  1
L15
100
AcDbText
  0
LWPOLYLINE
  5
52
330
17
100
AcDbEntity
  8
L02
100
AcDbPolyline
 90
39
 70
1
 10
1022.0
 20
7746.376664494477
 10
1093.5814516524074
 20
7744.601131195326
 10
1192.4861246940923
 20
7629.822377507271
 10
1277.2239243539598
 20
7531.5040356048485
 10
1323.1801478614898
 20
7423.076486482177
 10
1369.5349433988154
 20
7313.709697234903
 10
1358.31583208022
 20
7160.414096807159
 10
1347.3122086313592
 20
7009.832114184449
 10
1331.8395019089469
 20
6859.0866201397275
 10
1316.4645386141096
 20
6708.860975323204
 10
1309.9400672438956
 20
6558.9581770146315
 10
1303.4152620935279
 20
6408.622555145446
 10
1294.839738557956
 20
6258.167553373934
 10
1286.2722279557179
 20
6107.738782368832
 10
1274.6344494695259
 20
5931.700297596895
 10
1262.939046660695
 20
5754.7689975463245
 10
1226.2786677440504
 20
5593.785638794476
 10
1189.5447520356831
 20
5432.431585103529
 10
1140.8355733045425
 20
5330.069816659754
 10
1089.4186519773816
 20
5222.0
 10
1031.312126980782
 20
5222.450553314231
 10
1070.3080783919436
 20
5338.69331850375
 10
1103.7297904082388
 20
5438.331432924713
 10
1129.7327264977255
 20
5596.812080622241
 10
1155.7622712738726
 20
5755.503073399578
 10
1162.1925732322325
 20
5930.6382191006005
 10
1168.6466818889417
 20
6106.4553303056455
 10
1172.3094591009267
 20
6256.679480015458
 10
1175.9656624499564
 20
6406.874881212496
 10
1177.046474661118
 20
6556.8546817708575
 10
1178.1125062281105
 20
6707.101139575288
 10
1183.285174954666
 20
6857.474847216951
 10
1188.4120688790442
 20
7007.601422016349
 10
1191.414207646556
 20
7157.663806417269
 10
1194.3697443859185
 20
7306.137445825128
 10
1166.5608583535309
 20
7411.806679210916
 10
1138.654138360657
 20
7517.845589915496
 10
1088.8221196147751
 20
7615.5093377318535
 10
1022.0
 20
7746.376664494477
  0
TEXT
  5
53
330
17
100
AcDbEntity
  8
0
100
AcDbText
 10
1241.5721914550236
 20
6482.738618458152
 30
0.0
 40
14.0
  1
L02
100
AcDbText
  0
LWPOLYLINE
  5
55
330
17
100
AcDbEntity
  8
L08A
100
AcDbPolyline
 90
15
 70
1
 10
83.5269860095214
 20
5840.81512490765
 10
243.67844690830646
 20
5846.929894572614
 10
240.60097611950997
 20
5670.79235410928
 10
237.75489799694012
 20
5507.459499617248
 10
238.14872492042673
 20
5353.550779639576
 10
238.54531538652205
 20
5199.541749954734
 10
239.4383055890082
 20
5046.593379786908
 10
240.40091485812573
 20
4881.854306041347
 10
86.76369371038768
 20
4878.0
 10
82.72147016485609
 20
5042.811935311478
 10
78.96979931105022
 20
5195.749009620568
 10
78.48613545428395
 20
5349.714509384661
 10
78.0
 20
5503.6691364635435
 10
80.67528708555727
 20
5666.6201286359565
 10
83.5269860095214
 20
5840.81512490765
  0
TEXT
  5
56
330
17
100
AcDbEntity
  8
0
100
AcDbText
 10
158.0968359172039
 20
5428.60995805156
 30
0.0
 40
14.0
  1
L08A
100
AcDbText
  0
LWPOLYLINE
  5
58
330
17
100
AcDbEntity
  8
L09A
100
AcDbPolyline
 90
15
 70
1
 10
195.68644975117468
 20
5878.0
 10
35.53506952461774
 20
5884.11845578085
 10
32.679209914948615
 20
6058.312848973355
 10
30.0
 20
6221.263961488673
 10
30.48719160333593
 20
6375.218770586064
 10
30.971908003304833
 20
6529.184338149712
 10
34.72644148014791
 20
6682.12141227496
 10
38.77171660114888
 20
6846.933329584785
 10
192.40884889923
 20
6843.0754373161835
 10
191.443190678212
 20
6678.3364371133475
 10
190.54733938976244
 20
6525.388153607565
 10
190.14969340832096
 20
6371.379197640946
 10
189.75480864061336
 20
6217.470664788791
 10
192.60478360563425
 20
6054.138062107177
 10
195.68644975117468
 20
5878.0
  0
TEXT
  5
59
330
17
100
AcDbEntity
  8
0
100
AcDbText
 10
110.09731894635486
 20
6296.321579564809
 30
0.0
 40
14.0
  1
L09A
100
AcDbText
  0
LWPOLYLINE
  5
5B
330
17
100
AcDbEntity
  8
L07A
100
AcDbPolyline
 90
15
 70
1
 10
484.6740981345859
 20
6914.831889494425
 10
644.2008398065767
 20
6931.811026825125
 10
634.7067456097142
 20
6755.124593844954
 10
626.0481838588887
 20
6592.856978467969
 10
626.9467479001246
 20
6439.37743640543
 10
627.8665824469948
 20
6285.705579091604
 10
632.9185457547242
 20
6133.097258406154
 10
638.3638085625348
 20
5968.800196908281
 10
490.3530167930237
 20
5958.0
 10
481.5628114616521
 20
6122.531185122769
 10
473.40619285561587
 20
6275.097621097716
 10
471.7135072024691
 20
6428.647367510649
 10
470.0
 20
6582.275239208631
 10
477.14744114513786
 20
6743.561858726978
 10
484.6740981345859
 20
6914.831889494425
  0
TEXT
  5
5C
330
17
100
AcDbEntity
  8
0
100
AcDbText
 10
548.6626779668245
 20
6510.8263378070305
 30
0.0
 40
14.0
  1
L07A
100
AcDbText
  0
LWPOLYLINE
  5
5E
330
17
100
AcDbEntity
  8
L10A
100
AcDbPolyline
 90
15
 70
1
 10
662.0
 20
7627.834313222686
 10
821.5251029914641
 20
7610.827074525298
 10
829.0839119231691
 20
7439.56231452619
 10
836.2632421674815
 20
7278.2756485900445
 10
834.5413244190933
 20
7124.6463674603865
 10
832.8404861817464
 20
6971.096142609429
 10
824.66105277656
 20
6818.530360283678
 10
815.8465525340615
 20
6654.0
 10
667.8377564646046
 20
6664.827900202185
 10
673.3072491712026
 20
6829.123710642737
 10
678.3819926051274
 20
6981.730710470712
 10
679.3100395462911
 20
7135.401952128302
 10
680.2170415024857
 20
7288.8799600365655
 10
671.5271203879158
 20
7451.144453435473
 10
662.0
 20
7627.834313222686
  0
TEXT
  5
5F
330
17
100
AcDbEntity
  8
0
100
AcDbText
 10
757.5973828171186
 20
7206.838800359174
 30
0.0
 40
14.0
  1
L10A
100
AcDbText
  0
LWPOLYLINE
  5
61
330
17
100
AcDbEntity
  8
L06A
100
AcDbPolyline
 90
15
 70
1
 10
354.14301832064257
 20
7874.603895013591
 10
512.9493982877639
 20
7898.713379925025
 10
497.59425300251985
 20
7723.016521917046
 10
483.73817375979735
 20
7563.0651908716145
 10
484.77140262708326
 20
7410.324320302601
 10
485.84896086865734
 20
7257.296249123118
 10
493.8175546848908
 20
7105.247211055175
 10
502.40539005558696
 20
6941.646583297988
 10
364.3416685998609
 20
6926.0
 10
351.88750993157777
 20
7090.039844897621
 10
340.3389037434736
 20
7241.991937608273
 10
337.19170331237547
 20
7394.833491631243
 10
334.0
 20
7547.83952388558
 10
343.847692806309
 20
7706.628714147022
 10
354.14301832064257
 20
7874.603895013591
  0
TEXT
  5
62
330
17
100
AcDbEntity
  8
0
100
AcDbText
 10
409.87028415332736
 20
7479.08192209409
 30
0.0
 40
14.0
  1
L06A
100
AcDbText
  0
LWPOLYLINE
  5
64
330
17
100
AcDbEntity
  8
L11A
100
AcDbPolyline
 90
15
 70
1
 10
289.0745387620593
 20
7142.0
 10
130.2721740331084
 20
7166.162207404738
 10
119.91463352816598
 20
7334.1263140845995
 10
110.0
 20
7492.914254095679
 10
113.20875290663065
 20
7645.923068414697
 10
116.37151334212231
 20
7798.765478669134
 10
127.96686576326601
 20
7950.715218519281
 10
140.4706603515111
 20
8114.752347201417
 10
278.5283817439521
 20
8099.052009747652
 10
269.89114662562173
 20
7935.454938979316
 10
261.8759091590587
 20
7783.409552656212
 10
260.78265325812254
 20
7630.382765131553
 10
259.7323525318876
 20
7477.645106922523
 10
273.654112352913
 20
7317.702364349063
 10
289.0745387620593
 20
7142.0
  0
TEXT
  5
65
330
17
100
AcDbEntity
  8
0
100
AcDbText
 10
185.8757151987252
 20
7561.648509613617
 30
0.0
 40
14.0
  1
L11A
100
AcDbText
  0
LWPOLYLINE
  5
67
330
17
100
AcDbEntity
  8
L09B
100
AcDbPolyline
 90
15
 70
1
 10
918.0
 20
2649.4282975928368
 10
1072.277438191798
 20
2651.53884539949
 10
1071.9888826446324
 20
2461.836023499804
 10
1071.7184026943303
 20
2283.9240202032283
 10
1060.9582280925465
 20
2123.5467186690657
 10
1050.2118868556097
 20
1963.357735641424
 10
1038.7239907852065
 20
1850.0110842730544
 10
1026.1656214748948
 20
1726.0938382704774
 10
964.2841894835724
 20
1726.0
 10
953.7429283722411
 20
1849.7267124798677
 10
944.1188985840722
 20
1962.6829738331567
 10
936.6137169424285
 20
2122.5007138470714
 10
929.1137324914874
 20
2282.1901819011337
 10
923.7399473562195
 20
2459.7617640413555
 10
918.0
 20
2649.4282975928368
  0
TEXT
  5
68
330
17
100
AcDbEntity
  8
0
100
AcDbText
 10
999.5596563249323
 20
2202.8684502850997
 30
0.0
 40
14.0
  1
L09B
100
AcDbText
  0
LWPOLYLINE
  5
6A
330
17
100
AcDbEntity
  8
L08B
100
AcDbPolyline
 90
15
 70
1
 10
982.0
 20
6459.539337307639
 10
1136.277432533984
 20
6457.428376716349
 10
1130.537108943593
 20
6267.761863375243
 10
1125.162984162639
 20
6090.190313214931
 10
1117.6632611459183
 20
5930.500867940804
 10
1110.15870475927
 20
5770.6830728685245
 10
1100.5343742636417
 20
5657.726819281308
 10
1089.9932233226348
 20
5534.0
 10
1028.1117899487717
 20
5534.094442184651
 10
1015.5533145582724
 20
5658.011582077457
 10
1004.0657211605898
 20
5771.358246157395
 10
993.3187552084642
 20
5931.547161543009
 10
982.5583180651576
 20
6091.924480526263
 10
982.2881790104464
 20
6269.8365060104325
 10
982.0
 20
6459.539337307639
  0
TEXT
  5
6B
330
17
100
AcDbEntity
  8
0
100
AcDbText
 10
1054.717202565145
 20
6010.86873737897
 30
0.0
 40
14.0
  1
L08B
100
AcDbText
  0
LWPOLYLINE
  5
6D
330
17
100
AcDbEntity
  8
L10B
100
AcDbPolyline
 90
15
 70
1
 10
846.0
 20
7739.62089767427
 10
994.9237310341091
 20
7744.8092222616315
 10
999.2253802815176
 20
7555.293864182783
 10
1003.2667210902913
 20
7377.297784077555
 10
990.0810350576361
 20
7215.359725685433
 10
976.9431499869747
 20
7053.890076153311
 10
964.6549451021663
 20
6939.233567609973
 10
951.2399389007055
 20
6814.0
 10
890.1851402314212
 20
6814.040462941946
 10
881.5982522819162
 20
6938.662204633046
 10
873.7596724369608
 20
7052.37961175025
 10
869.7774745753912
 20
7212.939109226994
 10
865.7994905558814
 20
7373.059653318406
 10
856.2348664035055
 20
7550.146015547368
 10
846.0
 20
7739.62089767427
  0
TEXT
  5
6E
330
17
100
AcDbEntity
  8
0
100
AcDbText
 10
932.1298744011916
 20
7294.2096895019195
 30
0.0
 40
14.0
  1
L10B
100
AcDbText
  0
LWPOLYLINE
  5
70
330
17
100
AcDbEntity
  8
L07B
100
AcDbPolyline
 90
15
 70
1
 10
1302.3486599677328
 20
8360.80814206207
 10
1451.2722797276706
 20
8355.616637612795
 10
1441.0344432927395
 20
8166.141988725367
 10
1431.4671515060447
 20
7989.055945729239
 10
1427.491327194996
 20
7828.935627499361
 10
1423.51417313513
 20
7668.3757971396
 10
1415.6731762485545
 20
7554.658405255364
 10
1407.0870214555193
 20
7430.035859208261
 10
1346.03218417644
 20
7430.0
 10
1332.6165286796545
 20
7555.232775339084
 10
1320.330780589356
 20
7669.889393608638
 10
1307.187869102809
 20
7831.358425591024
 10
1294.0
 20
7993.296585683451
 10
1298.044035010432
 20
8171.292779308892
 10
1302.3486599677328
 20
8360.80814206207
  0
TEXT
  5
71
330
17
100
AcDbEntity
  8
0
100
AcDbText
 10
1365.1379635860726
 20
7910.2071856601315
 30
0.0
 40
14.0
  1
L07B
100
AcDbText
  0
LWPOLYLINE
  5
73
330
17
100
AcDbEntity
  8
L11B
100
AcDbPolyline
 90
15
 70
1
 10
518.0
 20
8354.01712974832
 10
657.4700191074419
 20
8359.237286181615
 10
663.6775360771148
 20
8170.036539335308
 10
669.5158978333283
 20
7992.165600453148
 10
655.2334910591928
 20
7828.395553691025
 10
641.029766542351
 20
7665.293498071485
 10
629.9907108464259
 20
7549.148784807923
 10
617.9191419956333
 20
7422.0
 10
558.3324792605297
 20
7422.998377092645
 10
550.3068686509698
 20
7548.974903237516
 10
542.9568621082494
 20
7664.250001538854
 10
542.0758714706677
 20
7826.446740698661
 10
541.1843240420183
 20
7987.947430568817
 10
529.9934718315459
 20
8164.664698752241
 10
518.0
 20
8354.01712974832
  0
TEXT
  5
74
330
17
100
AcDbEntity
  8
0
100
AcDbText
 10
601.9077397633466
 20
7908.171492129921
 30
0.0
 40
14.0
  1
L11B
100
AcDbText
  0
LWPOLYLINE
  5
76
330
17
100
AcDbEntity
  8
L06B
100
AcDbPolyline
 90
15
 70
1
 10
706.057531594669
 20
8583.234861739105
 10
845.5273135287356
 20
8578.008456982754
 10
833.5277242362728
 20
8388.656575223822
 10
822.3314153272142
 20
8211.940026693022
 10
821.4446836966317
 20
8050.439892563696
 10
820.5743921602609
 20
7888.242650964794
 10
813.219266164373
 20
7772.96753136941
 10
805.1946000318871
 20
7646.989512866038
 10
745.6077782218163
 20
7646.0
 10
733.5354697109883
 20
7773.14728409368
 10
722.5016227627464
 20
7889.29214005494
 10
708.2872830153541
 20
8052.392825032481
 10
694.0
 20
8216.163027898887
 10
699.8438882521243
 20
8394.03415772617
 10
706.057531594669
 20
8583.234861739105
  0
TEXT
  5
77
330
17
100
AcDbEntity
  8
0
100
AcDbText
 10
761.610629665751
 20
8132.166425862752
 30
0.0
 40
14.0
  1
L06B
100
AcDbText
  0
LWPOLYLINE
  5
79
330
17
100
AcDbEntity
  8
LHEAD
100
AcDbPolyline
 90
18
 70
1
 10
1262.0853695487208
 20
8121.49742274365
 10
1262.0853695487208
 20
7815.26833306182
 10
1217.1294865735924
 20
7781.86853205651
 10
1169.6393156464583
 20
7766.0
 10
1120.1580457277767
 20
7766.644902660705
 10
1072.9944960859493
 20
7783.73814522014
 10
1032.0891723879636
 20
7815.627681985893
 10
1000.5893251291582
 20
7859.49795490019
 10
980.7644673911302
 20
7911.773718808426
 10
974.0
 20
7968.382877902735
 10
980.7644673911302
 20
8024.992036997045
 10
1000.5893251291582
 20
8077.26780090528
 10
1032.0891723879636
 20
8121.138073819577
 10
1072.9944960859493
 20
8153.027610585331
 10
1120.1580457277767
 20
8170.120853144765
 10
1169.6393156464583
 20
8170.765755805471
 10
1217.1294865735924
 20
8154.897223748961
 10
1262.0853695487208
 20
8121.49742274365
  0
TEXT
  5
7A
330
17
100
AcDbEntity
  8
0
100
AcDbText
 10
1119.733801622143
 20
7996.687457449891
 30
0.0
 40
14.0
  1
LHEAD
100
AcDbText
  0
LWPOLYLINE
  5
7C
330
17
100
AcDbEntity
  8
LFOOT
100
AcDbPolyline
 90
18
 70
1
 10
1040.0842837672449
 20
4073.6001631838
 10
1040.0842837672449
 20
3844.021748383361
 10
1005.3841678620064
 20
3818.075319929663
 10
969.4774001179776
 20
3806.0
 10
932.0152977993513
 20
3806.4913995901666
 10
896.3628745371601
 20
3819.495979815642
 10
865.5468688755764
 20
3843.674740389742
 10
841.9009667706996
 20
3876.818905829372
 10
827.0579318141915
 20
3916.210388822208
 10
822.0
 20
3958.8109557835805
 10
827.0579318141915
 20
4001.411522744953
 10
841.9009667706996
 20
4040.803005737789
 10
865.5468688755763
 20
4073.9471711774186
 10
896.3628745371601
 20
4098.12593175152
 10
932.0152977993514
 20
4111.130511976994
 10
969.4774001179774
 20
4111.621911567161
 10
1005.3841678620064
 20
4099.546591637498
 10
1040.0842837672449
 20
4073.6001631838
  0
TEXT
  5
7D
330
17
100
AcDbEntity
  8
0
100
AcDbText
 10
932.3066248371704
 20
3980.1112392642667
 30
0.0
 40
14.0
  1
LFOOT
100
AcDbText
  0
ENDSEC
  0
SECTION
  2
OBJECTS
  0
DICTIONARY
  5
A
330
0
100
AcDbDictionary
281
1
  3
ACAD_COLOR
350
B
  3
ACAD_GROUP
350
C
  3
ACAD_LAYOUT
350
D
  3
ACAD_MATERIAL
350
E
  3
ACAD_MLEADERSTYLE
350
F
  3
ACAD_MLINESTYLE
350
10
  3
ACAD_PLOTSETTINGS
350
11
  3
ACAD_PLOTSTYLENAME
350
12
  3
ACAD_SCALELIST
350
14
  3
ACAD_TABLESTYLE
350
15
  3
ACAD_VISUALSTYLE
350
16
  3
EZDXF_META
350
2D
  0
DICTIONARY
  5
B
330
A
100
AcDbDictionary
281
1
  0
DICTIONARY
  5
C
330
A
100
AcDbDictionary
281
1
  0
DICTIONARY
  5
D
330
A
100
AcDbDictionary
281
1
  3
Model
350
1A
  3
Layout1
350
1E
  0
DICTIONARY
  5
E
330
A
100
AcDbDictionary
281
1
  3
ByBlock
350
1F
  3
ByLayer
350
20
  3
Global
350
21
  0
DICTIONARY
  5
F
330
A
100
AcDbDictionary
281
1
  3
Standard
350
2C
  0
DICTIONARY
  5
10
330
A
100
AcDbDictionary
281
1
  3
Standard
350
22
  0
DICTIONARY
  5
11
330
A
100
AcDbDictionary
281
1
  0
ACDBDICTIONARYWDFLT
  5
12
330
A
100
AcDbDictionary
281
1
  3
Normal
350
13
100
AcDbDictionaryWithDefault
340
13
  0
ACDBPLACEHOLDER
  5
13
330
12
  0
DICTIONARY
  5
14
330
A
100
AcDbDictionary
281
1
  0
DICTIONARY
  5
15
330
A
100
AcDbDictionary
281
1
  0
DICTIONARY
  5
16
330
A
100
AcDbDictionary
281
1
  0
LAYOUT
  5
1A
330
D
100
AcDbPlotSettings
  1

  4
A3
  6

 40
7.5
 41
20.0
 42
7.5
 43
20.0
 44
420.0
 45
297.0
 46
0.0
 47
0.0
 48
0.0
 49
0.0
140
0.0
141
0.0
142
1.0
143
1.0
 70
1024
 72
1
 73
0
 74
5
  7

 75
16
 76
0
 77
2
 78
300
147
1.0
148
0.0
149
0.0
100
AcDbLayout
  1
Model
 70
1
 71
0
 10
0.0
 20
0.0
 11
420.0
 21
297.0
 12
0.0
 22
0.0
 32
0.0
 14
1e+20
 24
1e+20
 34
1e+20
 15
-1e+20
 25
-1e+20
 35
-1e+20
146
0.0
 13
0.0
 23
0.0
 33
0.0
 16
1.0
 26
0.0
 36
0.0
 17
0.0
 27
1.0
 37
0.0
 76
1
330
17
  0
LAYOUT
  5
1E
330
D
100
AcDbPlotSettings
  1

  4
A3
  6

 40
7.5
 41
20.0
 42
7.5
 43
20.0
 44
420.0
 45
297.0
 46
0.0
 47
0.0
 48
0.0
 49
0.0
140
0.0
141
0.0
142
1.0
143
1.0
 70
0
 72
1
 73
0
 74
5
  7

 75
16
 76
0
 77
2
 78
300
147
1.0
148
0.0
149
0.0
100
AcDbLayout
  1
Layout1
 70
1
 71
1
 10
0.0
 20
0.0
 11
420.0
 21
297.0
 12
0.0
 22
0.0
 32
0.0
 14
1e+20
 24
1e+20
 34
1e+20
 15
-1e+20
 25
-1e+20
 35
-1e+20
146
0.0
 13
0.0
 23
0.0
 33
0.0
 16
1.0
 26
0.0
 36
0.0
 17
0.0
 27
1.0
 37
0.0
 76
1
330
1B
  0
MATERIAL
  5
1F
102
{ACAD_REACTORS
330
E
102
}
330
E
100
AcDbMaterial
  1
ByBlock
  2

 70
0
 40
1.0
 71
1
 41
1.0
 91
-1023410177
 42
1.0
 72
1
  3

 73
1
 74
1
 75
1
 44
0.5
 73
0
 45
1.0
 46
1.0
 77
1
  4

 78
1
 79
1
170
1
 48
1.0
171
1
  6

172
1
173
1
174
1
140
1.0
141
1.0
175
1
  7

176
1
177
1
178
1
143
1.0
179
1
  8

270
1
271
1
272
1
145
1.0
146
1.0
273
1
  9

274
1
275
1
276
1
 42
1.0
 72
1
  3

 73
1
 74
1
 75
1
 94
63
  0
MATERIAL
  5
20
102
{ACAD_REACTORS
330
E
102
}
330
E
100
AcDbMaterial
  1
ByLayer
  2

 70
0
 40
1.0
 71
1
 41
1.0
 91
-1023410177
 42
1.0
 72
1
  3

 73
1
 74
1
 75
1
 44
0.5
 73
0
 45
1.0
 46
1.0
 77
1
  4

 78
1
 79
1
170
1
 48
1.0
171
1
  6

172
1
173
1
174
1
140
1.0
141
1.0
175
1
  7

176
1
177
1
178
1
143
1.0
179
1
  8

270
1
271
1
272
1
145
1.0
146
1.0
273
1
  9

274
1
275
1
276
1
 42
1.0
 72
1
  3

 73
1
 74
1
 75
1
 94
63
  0
MATERIAL
  5
21
102
{ACAD_REACTORS
330
E
102
}
330
E
100
AcDbMaterial
  1
Global
  2

 70
0
 40
1.0
 71
1
 41
1.0
 91
-1023410177
 42
1.0
 72
1
  3

 73
1
 74
1
 75
1
 44
0.5
 73
0
 45
1.0
 46
1.0
 77
1
  4

 78
1
 79
1
170
1
 48
1.0
171
1
  6

172
1
173
1
174
1
140
1.0
141
1.0
175
1
  7

176
1
177
1
178
1
143
1.0
179
1
  8

270
1
271
1
272
1
145
1.0
146
1.0
273
1
  9

274
1
275
1
276
1
 42
1.0
 72
1
  3

 73
1
 74
1
 75
1
 94
63
  0
MLINESTYLE
  5
22
102
{ACAD_REACTORS
330
10
102
}
330
10
100
AcDbMlineStyle
  2
Standard
 70
0
  3

 62
256
 51
90.0
 52
90.0
 71
2
 49
0.5
 62
256
  6
BYLAYER
 49
-0.5
 62
256
  6
BYLAYER
  0
MLEADERSTYLE
  5
2C
102
{ACAD_REACTORS
330
F
102
}
330
F
100
AcDbMLeaderStyle
179
2
170
2
171
1
172
0
 90
2
 40
0.0
 41
0.0
173
1
 91
-1056964608
 92
-2
290
1
 42
2.0
291
1
 43
8.0
  3
Standard
 44
4.0
300

342
29
174
1
175
1
176
0
178
1
 93
-1056964608
 45
4.0
292
0
297
0
 46
4.0
 94
-1056964608
 47
1.0
 49
1.0
140
1.0
294
1
141
0.0
177
0
142
1.0
295
0
296
0
143
3.75
271
0
272
9
273
9
  0
DICTIONARY
  5
2D
330
A
100
AcDbDictionary
280
1
281
1
  3
CREATED_BY_EZDXF
350
2E
  3
WRITTEN_BY_EZDXF
350
80
  0
DICTIONARYVAR
  5
2E
330
2D
100
DictionaryVariables
280
0
  1
1.4.4 @ 2026-10-02T17:52:49.375229+00:00
  0
DICTIONARYVAR
  5
80
330
2D
100
DictionaryVariables
280
0
  1
1.4.4 @ 2026-10-02T17:52:49.384404+00:00
  0
ENDSEC
  0
EOF
