  0
SECTION
  2
HEADER
  9
$ACADVER
  1
AC1024
  9
$ACADMAINTVER
 70
6
  9
$DWGCODEPAGE
  3
ANSI_1252
  9
$LASTSAVEDBY
  1
ezdxf
  9
$INSBASE
 10
0.0
 20
0.0
 30
0.0
  9
$EXTMIN
 10
1e+20
 20
1e+20
 30
1e+20
  9
$EXTMAX
 10
-1e+20
 20
-1e+20
 30
-1e+20
  9
$LIMMIN
 10
0.0
 20
0.0
  9
$LIMMAX
 10
420.0
 20
297.0
  9
$ORTHOMODE
 70
0
  9
$REGENMODE
 70
1
  9
$FILLMODE
 70
1
  9
$QTEXTMODE
 70
0
  9
$MIRRTEXT
 70
1
  9
$LTSCALE
 40
1.0
  9
$ATTMODE
 70
1
  9
$TEXTSIZE
 40
2.5
  9
$TRACEWID
 40
1.0
  9
$TEXTSTYLE
  7
Standard
  9
$CLAYER
  8
0
  9
$CELTYPE
  6
ByLayer
  9
$CECOLOR
 62
256
  9
$CELTSCALE
 40
1.0
  9
$DISPSILH
 70
0
  9
$DIMSCALE
 40
1.0
  9
$DIMASZ
 40
2.5
  9
$DIMEXO
 40
0.625
  9
$DIMDLI
 40
3.75
  9
$DIMRND
 40
0.0
  9
$DIMDLE
 40
0.0
  9
$DIMEXE
 40
1.25
  9
$DIMTP
 40
0.0
  9
$DIMTM
 40
0.0
  9
$DIMTXT
 40
2.5
  9
$DIMCEN
 40
2.5
  9
$DIMTSZ
 40
0.0
  9
$DIMTOL
 70
0
  9
$DIMLIM
 70
0
  9
$DIMTIH
 70
0
  9
$DIMTOH
 70
0
  9
$DIMSE1
 70
0
  9
$DIMSE2
 70
0
  9
$DIMTAD
 70
1
  9
$DIMZIN
 70
8
  9
$DIMBLK
  1

  9
$DIMASO
 70
1
  9
$DIMSHO
 70
1
  9
$DIMPOST
  1

  9
$DIMAPOST
  1

  9
$DIMALT
 70
0
  9
$DIMALTD
 70
3
  9
$DIMALTF
 40
0.03937007874
  9
$DIMLFAC
 40
1.0
  9
$DIMTOFL
 70
1
  9
$DIMTVP
 40
0.0
  9
$DIMTIX
 70
0
  9
$DIMSOXD
 70
0
  9
$DIMSAH
 70
0
  9
$DIMBLK1
  1

  9
$DIMBLK2
  1

  9
$DIMSTYLE
  2
ISO-25
  9
$DIMCLRD
 70
0
  9
$DIMCLRE
 70
0
  9
$DIMCLRT
 70
0
  9
$DIMTFAC
 40
1.0
  9
$DIMGAP
 40
0.625
  9
$DIMJUST
 70
0
  9
$DIMSD1
 70
0
  9
$DIMSD2
 70
0
  9
$DIMTOLJ
 70
0
  9
$DIMTZIN
 70
8
  9
$DIMALTZ
 70
0
  9
$DIMALTTZ
 70
0
  9
$DIMUPT
 70
0
  9
$DIMDEC
 70
2
  9
$DIMTDEC
 70
2
  9
$DIMALTU
 70
2
  9
$DIMALTTD
 70
3
  9
$DIMTXSTY
  7
Standard
  9
$DIMAUNIT
 70
0
  9
$DIMADEC
 70
0
  9
$DIMALTRND
 40
0.0
  9
$DIMAZIN
 70
0
  9
$DIMDSEP
 70
44
  9
$DIMATFIT
 70
3
  9
$DIMFRAC
 70
0
  9
$DIMLDRBLK
  1

  9
$DIMLUNIT
 70
2
  9
$DIMLWD
 70
-2
  9
$DIMLWE
 70
-2
  9
$DIMTMOVE
 70
0
  9
$DIMFXL
 40
1.0
  9
$DIMFXLON
 70
0
  9
$DIMJOGANG
 40
0.785398163397
  9
$DIMTFILL
 70
0
  9
$DIMTFILLCLR
 70
0
  9
$DIMARCSYM
 70
0
  9
$DIMLTYPE
  6

  9
$DIMLTEX1
  6

  9
$DIMLTEX2
  6

  9
$DIMTXTDIRECTION
 70
0
  9
$LUNITS
 70
2
  9
$LUPREC
 70
4
  9
$SKETCHINC
 40
1.0
  9
$FILLETRAD
 40
10.0
  9
$AUNITS
 70
0
  9
$AUPREC
 70
2
  9
$MENU
  1
.
  9
$ELEVATION
 40
0.0
  9
$PELEVATION
 40
0.0
  9
$THICKNESS
 40
0.0
  9
$LIMCHECK
 70
0
  9
$CHAMFERA
 40
0.0
  9
$CHAMFERB
 40
0.0
  9
$CHAMFERC
 40
0.0
  9
$CHAMFERD
 40
0.0
  9
$SKPOLY
 70
0
  9
$TDCREATE
 40
2461316.745011574
  9
$TDUCREATE
 40
2458532.153996898
  9
$TDUPDATE
 40
2461316.745011574
  9
$TDUUPDATE
 40
2458532.1544311
  9
$TDINDWG
 40
0.0
  9
$TDUSRTIMER
 40
0.0
  9
$USRTIMER
 70
1
  9
$ANGBASE
 50
0.0
  9
$ANGDIR
 70
0
  9
$PDMODE
 70
0
  9
$PDSIZE
 40
0.0
  9
$PLINEWID
 40
0.0
  9
$SPLFRAME
 70
0
  9
$SPLINETYPE
 70
6
  9
$SPLINESEGS
 70
8
  9
$HANDSEED
  5
7E
  9
$SURFTAB1
 70
6
  9
$SURFTAB2
 70
6
  9
$SURFTYPE
 70
6
  9
$SURFU
 70
6
  9
$SURFV
 70
6
  9
$UCSBASE
  2

  9
$UCSNAME
  2

  9
$UCSORG
 10
0.0
 20
0.0
 30
0.0
  9
$UCSXDIR
 10
1.0
 20
0.0
 30
0.0
  9
$UCSYDIR
 10
0.0
 20
1.0
 30
0.0
  9
$UCSORTHOREF
  2

  9
$UCSORTHOVIEW
 70
0
  9
$UCSORGTOP
 10
0.0
 20
0.0
 30
0.0
  9
$UCSORGBOTTOM
 10
0.0
 20
0.0
 30
0.0
  9
$UCSORGLEFT
 10
0.0
 20
0.0
 30
0.0
  9
$UCSORGRIGHT
 10
0.0
 20
0.0
 30
0.0
  9
$UCSORGFRONT
 10
0.0
 20
0.0
 30
0.0
  9
$UCSORGBACK
 10
0.0
 20
0.0
 30
0.0
  9
$PUCSBASE
  2

  9
$PUCSNAME
  2

  9
$PUCSORG
 10
0.0
 20
0.0
 30
0.0
  9
$PUCSXDIR
 10
1.0
 20
0.0
 30
0.0
  9
$PUCSYDIR
 10
0.0
 20
1.0
 30
0.0
  9
$PUCSORTHOREF
  2

  9
$PUCSORTHOVIEW
 70
0
  9
$PUCSORGTOP
 10
0.0
 20
0.0
 30
0.0
  9
$PUCSORGBOTTOM
 10
0.0
 20
0.0
 30
0.0
  9
$PUCSORGLEFT
 10
0.0
 20
0.0
 30
0.0
  9
$PUCSORGRIGHT
 10
0.0
 20
0.0
 30
0.0
  9
$PUCSORGFRONT
 10
0.0
 20
0.0
 30
0.0
  9
$PUCSORGBACK
 10
0.0
 20
0.0
 30
0.0
  9
$USERI1
 70
0
  9
$USERI2
 70
0
  9
$USERI3
 70
0
  9
$USERI4
 70
0
  9
$USERI5
 70
0
  9
$USERR1
 40
0.0
  9
$USERR2
 40
0.0
  9
$USERR3
 40
0.0
  9
$USERR4
 40
0.0
  9
$USERR5
 40
0.0
  9
$WORLDVIEW
 70
1
  9
$SHADEDGE
 70
3
  9
$SHADEDIF
 70
70
  9
$TILEMODE
 70
1
  9
$MAXACTVP
 70
64
  9
$PINSBASE
 10
0.0
 20
0.0
 30
0.0
  9
$PLIMCHECK
 70
0
  9
$PEXTMIN
 10
1e+20
 20
1e+20
 30
1e+20
  9
$PEXTMAX
 10
-1e+20
 20
-1e+20
 30
-1e+20
  9
$PLIMMIN
 10
0.0
 20
0.0
  9
$PLIMMAX
 10
420.0
 20
297.0
  9
$UNITMODE
 70
0
  9
$VISRETAIN
 70
1
  9
$PLINEGEN
 70
0
  9
$PSLTSCALE
 70
1
  9
$TREEDEPTH
 70
3020
  9
$CMLSTYLE
  2
Standard
  9
$CMLJUST
 70
0
  9
$CMLSCALE
 40
20.0
  9
$PROXYGRAPHICS
 70
1
  9
$MEASUREMENT
 70
1
  9
$CELWEIGHT
370
-1
  9
$ENDCAPS
280
0
  9
$JOINSTYLE
280
0
  9
$LWDISPLAY
290
0
  9
$INSUNITS
 70
4
  9
$HYPERLINKBASE
  1

  9
$STYLESHEET
  1

  9
$XEDIT
290
1
  9
$CEPSNTYPE
380
0
  9
$PSTYLEMODE
290
1
  9
$FINGERPRINTGUID
  2
{FF72212D-86FC-41C9-B3D7-3C23506E7C25}
  9
$VERSIONGUID
  2
{C5FAC8E8-F02B-47A9-9FB6-0C6F4BCD3595}
  9
$EXTNAMES
290
1
  9
$PSVPSCALE
 40
0.0
  9
$OLESTARTUP
290
0
  9
$SORTENTS
280
127
  9
$INDEXCTL
280
0
  9
$HIDETEXT
280
1
  9
$XCLIPFRAME
280
1
  9
$HALOGAP
280
0
  9
$OBSCOLOR
 70
257
  9
$OBSLTYPE
280
0
  9
$INTERSECTIONDISPLAY
280
0
  9
$INTERSECTIONCOLOR
 70
257
  9
$DIMASSOC
280
2
  9
$PROJECTNAME
  1

  9
$CAMERADISPLAY
290
0
  9
$LENSLENGTH
 40
50.0
  9
$CAMERAHEIGHT
 40
0.0
  9
$STEPSPERSEC
 40
24.0
  9
$STEPSIZE
 40
100.0
  9
$3DDWFPREC
 40
2.0
  9
$PSOLWIDTH
 40
0.005
  9
$PSOLHEIGHT
 40
0.08
  9
$LOFTANG1
 40
1.570796326795
  9
$LOFTANG2
 40
1.570796326795
  9
$LOFTMAG1
 40
0.0
  9
$LOFTMAG2
 40
0.0
  9
$LOFTPARAM
 70
7
  9
$LOFTNORMALS
280
1
  9
$LATITUDE
 40
37.795
  9
$LONGITUDE
 40
-122.394
  9
$NORTHDIRECTION
 40
0.0
  9
$TIMEZONE
 70
-8000
  9
$LIGHTGLYPHDISPLAY
280
1
  9
$TILEMODELIGHTSYNCH
280
1
  9
$CMATERIAL
347
20
  9
$SOLIDHIST
280
0
  9
$SHOWHIST
280
1
  9
$DWFFRAME
280
2
  9
$DGNFRAME
280
2
  9
$REALWORLDSCALE
290
1
  9
$INTERFERECOLOR
 62
256
  9
$CSHADOW
280
0
  9
$SHADOWPLANELOCATION
 40
0.0
  0
ENDSEC
  0
SECTION
  2
CLASSES
  0
CLASS
  1
ACDBDICTIONARYWDFLT
  2
AcDbDictionaryWithDefault
  3
ObjectDBX Classes
 90
0
 91
0
280
0
281
0
  0
CLASS
  1
SUN
  2
AcDbSun
  3
SCENEOE
 90
1153
 91
0
280
0
281
0
  0
CLASS
  1
VISUALSTYLE
  2
AcDbVisualStyle
  3
ObjectDBX Classes
 90
4095
 91
0
280
0
281
0
  0
CLASS
  1
MATERIAL
  2
AcDbMaterial
  3
ObjectDBX Classes
 90
1153
 91
0
280
0
281
0
  0
CLASS
  1
SCALE
  2
AcDbScale
  3
ObjectDBX Classes
 90
1153
 91
0
280
0
281
0
  0
CLASS
  1
TABLESTYLE
  2
AcDbTableStyle
  3
ObjectDBX Classes
 90
4095
 91
0
280
0
281
0
  0
CLASS
  1
MLEADERSTYLE
  2
AcDbMLeaderStyle
  3
ACDB_MLEADERSTYLE_CLASS
 90
4095
 91
0
280
0
281
0
  0
CLASS
  1
DICTIONARYVAR
  2
AcDbDictionaryVar
  3
ObjectDBX Classes
 90
0
 91
0
280
0
281
0
  0
CLASS
  1
CELLSTYLEMAP
  2
AcDbCellStyleMap
  3
ObjectDBX Classes
 90
1152
 91
0
280
0
281
0
  0
CLASS
  1
MENTALRAYRENDERSETTINGS
  2
AcDbMentalRayRenderSettings
  3
SCENEOE
 90
1024
 91
0
280
0
281
0
  0
CLASS
  1
ACDBDETAILVIEWSTYLE
  2
AcDbDetailViewStyle
  3
ObjectDBX Classes
 90
1025
 91
0
280
0
281
0
  0
CLASS
  1
ACDBSECTIONVIEWSTYLE
  2
AcDbSectionViewStyle
  3
ObjectDBX Classes
 90
1025
 91
0
280
0
281
0
  0
CLASS
  1
RASTERVARIABLES
  2
AcDbRasterVariables
  3
ISM
 90
0
 91
0
280
0
281
0
  0
CLASS
  1
LAYOUT
  2
AcDbLayout
  3
ObjectDBX Classes
 90
0
 91
0
280
0
281
0
  0
CLASS
  1
ACDBPLACEHOLDER
  2
AcDbPlaceHolder
  3
ObjectDBX Classes
 90
0
 91
0
280
0
281
0
  0
ENDSEC
  0
SECTION
  2
TABLES
  0
TABLE
  2
VPORT
  5
8
330
0
100
AcDbSymbolTable
 70
1
  0
VPORT
  5
23
330
8
100
AcDbSymbolTableRecord
100
AcDbViewportTableRecord
  2
*Active
 70
0
 10
0.0
 20
0.0
 11
1.0
 21
1.0
 12
0.0
 22
0.0
 13
0.0
 23
0.0
 14
0.5
 24
0.5
 15
0.5
 25
0.5
 16
0.0
 26
0.0
 36
1.0
 17
0.0
 27
0.0
 37
0.0
 40
1000.0
 41
1.34
 42
50.0
 43
0.0
 44
0.0
 50
0.0
 51
0.0
 71
0
 72
1000
 73
1
 74
3
 75
0
 76
0
 77
0
 78
0
281
0
 65
0
146
0.0
  0
ENDTAB
  0
TABLE
  2
LTYPE
  5
2
330
0
100
AcDbSymbolTable
 70
3
  0
LTYPE
  5
24
330
2
100
AcDbSymbolTableRecord
100
AcDbLinetypeTableRecord
  2
ByBlock
 70
0
  3

 72
65
 73
0
 40
0.0
  0
LTYPE
  5
25
330
2
100
AcDbSymbolTableRecord
100
AcDbLinetypeTableRecord
  2
ByLayer
 70
0
  3

 72
65
 73
0
 40
0.0
  0
LTYPE
  5
26
330
2
100
AcDbSymbolTableRecord
100
AcDbLinetypeTableRecord
  2
Continuous
 70
0
  3

 72
65
 73
0
 40
0.0
  0
ENDTAB
  0
TABLE
  2
LAYER
  5
1
330
0
100
AcDbSymbolTable
 70
27
  0
LAYER
  5
27
330
1
100
AcDbSymbolTableRecord
100
AcDbLayerTableRecord
  2
0
 70
0
 62
7
  6
Continuous
370
-3
390
13
347
21
  0
LAYER
  5
28
330
1
100
AcDbSymbolTableRecord
100
AcDbLayerTableRecord
  2
Defpoints
 70
0
 62
7
  6
Continuous
290
0
370
-3
390
13
347
21
  0
LAYER
  5
30
330
1
100
AcDbSymbolTableRecord
100
AcDbLayerTableRecord
  2
O05
 70
0
 62
7
  6
Continuous
370
-3
390
13
347
21
  0
LAYER
  5
33
330
1
100
AcDbSymbolTableRecord
100
AcDbLayerTableRecord
  2
O12
 70
0
 62
7
  6
Continuous
370
-3
390
13
347
21
  0
LAYER
  5
36
330
1
100
AcDbSymbolTableRecord
100
AcDbLayerTableRecord
  2
O04
 70
0
 62
7
  6
Continuous
370
-3
390
13
347
21
  0
LAYER
  5
39
330
1
100
AcDbSymbolTableRecord
100
AcDbLayerTableRecord
  2
O13
 70
0
 62
7
  6
Continuous
370
-3
390
13
347
21
  0
LAYER
  5
3C
330
1
100
AcDbSymbolTableRecord
100
AcDbLayerTableRecord
  2
O16
 70
0
 62
7
  6
Continuous
370
-3
390
13
347
21
  0
LAYER
  5
3F
330
1
100
AcDbSymbolTableRecord
100
AcDbLayerTableRecord
  2
O01
 70
0
 62
7
  6
Continuous
370
-3
390
13
347
21
  0
LAYER
  5
42
330
1
100
AcDbSymbolTableRecord
100
AcDbLayerTableRecord
  2
H01
 70
0
 62
7
  6
Continuous
370
-3
390
13
347
21
  0
LAYER
  5
45
330
1
100
AcDbSymbolTableRecord
100
AcDbLayerTableRecord
  2
O03
 70
0
 62
7
  6
Continuous
370
-3
390
13
347
21
  0
LAYER
  5
48
330
1
100
AcDbSymbolTableRecord
100
AcDbLayerTableRecord
  2
O14
 70
0
 62
7
  6
Continuous
370
-3
390
13
347
21
  0
LAYER
  5
4B
330
1
100
AcDbSymbolTableRecord
100
AcDbLayerTableRecord
  2
O02
 70
0
 62
7
  6
Continuous
370
-3
390
13
347
21
  0
LAYER
  5
4E
330
1
100
AcDbSymbolTableRecord
100
AcDbLayerTableRecord
  2
O15
 70
0
 62
7
  6
Continuous
370
-3
390
13
347
21
  0
LAYER
  5
51
330
1
100
AcDbSymbolTableRecord
100
AcDbLayerTableRecord
  2
O08A
 70
0
 62
7
  6
Continuous
370
-3
390
13
347
21
  0
LAYER
  5
54
330
1
100
AcDbSymbolTableRecord
100
AcDbLayerTableRecord
  2
O09A
 70
0
 62
7
  6
Continuous
370
-3
390
13
347
21
  0
LAYER
  5
57
330
1
100
AcDbSymbolTableRecord
100
AcDbLayerTableRecord
  2
O07A
 70
0
 62
7
  6
Continuous
370
-3
390
13
347
21
  0
LAYER
  5
5A
330
1
100
AcDbSymbolTableRecord
100
AcDbLayerTableRecord
  2
O10A
 70
0
 62
7
  6
Continuous
370
-3
390
13
347
21
  0
LAYER
  5
5D
330
1
100
AcDbSymbolTableRecord
100
AcDbLayerTableRecord
  2
O06A
 70
0
 62
7
  6
Continuous
370
-3
390
13
347
21
  0
LAYER
  5
60
330
1
100
AcDbSymbolTableRecord
100
AcDbLayerTableRecord
  2
O11A
 70
0
 62
7
  6
Continuous
370
-3
390
13
347
21
  0
LAYER
  5
63
330
1
100
AcDbSymbolTableRecord
100
AcDbLayerTableRecord
  2
OHEAD
 70
0
 62
7
  6
Continuous
370
-3
390
13
347
21
  0
LAYER
  5
66
330
1
100
AcDbSymbolTableRecord
100
AcDbLayerTableRecord
  2
O09B
 70
0
 62
7
  6
Continuous
370
-3
390
13
347
21
  0
LAYER
  5
69
330
1
100
AcDbSymbolTableRecord
100
AcDbLayerTableRecord
  2
O08B
 70
0
 62
7
  6
Continuous
370
-3
390
13
347
21
  0
LAYER
  5
6C
330
1
100
AcDbSymbolTableRecord
100
AcDbLayerTableRecord
  2
O10B
 70
0
 62
7
  6
Continuous
370
-3
390
13
347
21
  0
LAYER
  5
6F
330
1
100
AcDbSymbolTableRecord
100
AcDbLayerTableRecord
  2
O07B
 70
0
 62
7
  6
Continuous
370
-3
390
13
347
21
  0
LAYER
  5
72
330
1
100
AcDbSymbolTableRecord
100
AcDbLayerTableRecord
  2
O11B
 70
0
 62
7
  6
Continuous
370
-3
390
13
347
21
  0
LAYER
  5
75
330
1
100
AcDbSymbolTableRecord
100
AcDbLayerTableRecord
  2
O06B
 70
0
 62
7
  6
Continuous
370
-3
390
13
347
21
  0
LAYER
  5
78
330
1
100
AcDbSymbolTableRecord
100
AcDbLayerTableRecord
  2
OFOOT
 70
0
 62
7
  6
Continuous
370
-3
390
13
347
21
  0
ENDTAB
  0
TABLE
  2
STYLE
  5
5
330
0
100
AcDbSymbolTable
 70
1
  0
STYLE
  5
29
330
5
100
AcDbSymbolTableRecord
100
AcDbTextStyleTableRecord
  2
Standard
 70
0
 40
0.0
 41
1.0
 50
0.0
 71
0
 42
2.5
  3
txt
  4

  0
ENDTAB
  0
TABLE
  2
VIEW
  5
7
330
0
100
AcDbSymbolTable
 70
0
  0
ENDTAB
  0
TABLE
  2
UCS
  5
6
330
0
100
AcDbSymbolTable
 70
0
  0
ENDTAB
  0
TABLE
  2
APPID
  5
3
330
0
100
AcDbSymbolTable
 70
3
  0
APPID
  5
2A
330
3
100
AcDbSymbolTableRecord
100
AcDbRegAppTableRecord
  2
ACAD
 70
0
  0
APPID
  5
7B
330
3
100
AcDbSymbolTableRecord
100
AcDbRegAppTableRecord
  2
HATCHBACKGROUNDCOLOR
 70
0
  0
APPID
  5
7C
330
3
100
AcDbSymbolTableRecord
100
AcDbRegAppTableRecord
  2
EZDXF
 70
0
  0
ENDTAB
  0
TABLE
  2
DIMSTYLE
  5
4
330
0
100
AcDbSymbolTable
 70
1
100
AcDbDimStyleTable
  0
DIMSTYLE
105
2B
330
4
100
AcDbSymbolTableRecord
100
AcDbDimStyleTableRecord
  2
Standard
 70
0
 40
1.0
 41
2.5
 42
0.625
 43
3.75
 44
1.25
 45
0.0
 46
0.0
 47
0.0
 48
0.0
 49
2.5
140
2.5
141
2.5
142
0.0
143
0.03937007874
144
1.0
145
0.0
146
1.0
147
0.625
148
0.0
 69
0
 70
0
 71
0
 72
0
 73
0
 74
0
 75
0
 76
0
 77
1
 78
8
 79
3
170
0
171
3
172
1
173
0
174
0
175
0
176
0
177
0
178
0
179
2
271
2
272
2
273
2
274
3
275
0
276
0
277
2
278
44
279
0
280
0
281
0
282
0
283
0
284
8
285
0
286
0
288
0
289
3
290
0
371
-2
372
-2
  0
ENDTAB
  0
TABLE
  2
BLOCK_RECORD
  5
9
330
0
100
AcDbSymbolTable
 70
2
  0
BLOCK_RECORD
  5
17
330
9
100
AcDbSymbolTableRecord
100
AcDbBlockTableRecord
  2
*Model_Space
340
1A
 70
0
280
1
281
0
  0
BLOCK_RECORD
  5
1B
330
9
100
AcDbSymbolTableRecord
100
AcDbBlockTableRecord
  2
*Paper_Space
340
1E
 70
0
280
1
281
0
  0
ENDTAB
  0
ENDSEC
  0
SECTION
  2
BLOCKS
  0
BLOCK
  5
18
330
17
100
AcDbEntity
  8
0
100
AcDbBlockBegin
  2
*Model_Space
 70
0
 10
0.0
 20
0.0
 30
0.0
  3
*Model_Space
  1

  0
ENDBLK
  5
19
330
17
100
AcDbEntity
  8
0
100
AcDbBlockEnd
  0
BLOCK
  5
1C
330
1B
100
AcDbEntity
  8
0
100
AcDbBlockBegin
  2
*Paper_Space
 70
0
 10
0.0
 20
0.0
 30
0.0
  3
*Paper_Space
  1

  0
ENDBLK
  5
1D
330
1B
100
AcDbEntity
  8
0
100
AcDbBlockEnd
  0
ENDSEC
  0
SECTION
  2
ENTITIES
  0
LWPOLYLINE
  5
2F
330
17
100
AcDbEntity
  8
0
100
AcDbPolyline
 90
4
 70
1
 10
0.0
 20
0.0
 10
1500.0
 20
0.0
 10
1500.0
 20
7923.458922757775
 10
0.0
 20
7923.458922757775
  0
LWPOLYLINE
  5
31
330
17
100
AcDbEntity
  8
O05
100
AcDbPolyline
 90
39
 70
1
 10
423.5805186059651
 20
37.25970660853025
 10
345.8202815155649
 20
30.0
 10
228.69643356056264
 20
211.96974765374625
 10
129.0099808790157
 20
366.8232096553531
 10
79.97081746169653
 20
491.76101042614226
 10
30.0
 20
619.0696618847926
 10
66.22751078154022
 20
773.7685389562666
 10
101.63387385156466
 20
925.1850681543381
 10
146.93107585434097
 20
1077.5470477585734
 10
191.81735908977146
 20
1228.935750920728
 10
217.90545230071282
 20
1378.5258762521964
 10
244.01678275609083
 20
1528.4997435037021
 10
262.23602111443677
 20
1679.1484052689977
 10
280.45044845019737
 20
1829.8679392208744
 10
294.5722333218743
 20
2006.3083442128643
 10
308.6868335665775
 20
2182.687777499212
 10
313.46212286801347
 20
2345.985967190874
 10
318.2363712078651
 20
2510.136496127879
 10
332.3063663846681
 20
2626.4573234334334
 10
347.53492863488367
 20
2752.511349217029
 10
411.30133525216877
 20
2754.2430914671104
 10
413.7777138500385
 20
2625.0721775008333
 10
416.02847499841295
 20
2508.163288146055
 10
423.8141102371887
 20
2343.462214050778
 10
431.65471988924315
 20
2178.009537388471
 10
422.7536330668481
 20
2000.6386333432333
 10
413.8712260180801
 20
1823.5984302785128
 10
399.85268000212324
 20
1672.4656587996883
 10
385.83937862651493
 20
1521.2556711567952
 10
363.49537127123097
 20
1370.8697832250375
 10
341.15521039346413
 20
1220.2341915112147
 10
303.47624627594746
 20
1068.4572883115627
 10
266.1103682476666
 20
917.5125442832887
 10
236.93269326156212
 20
767.1603776907277
 10
208.26156172639315
 20
619.1781302341178
 10
239.84052298697776
 20
498.45653828399554
 10
271.86002163104115
 20
376.0554908459257
 10
339.2347248901151
 20
225.56547285455255
 10
423.5805186059651
 20
37.25970660853025
  0
TEXT
  5
32
330
17
100
AcDbEntity
  8
0
100
AcDbText
 10
302.7833187637432
 20
1449.8907737044958
 30
0.0
 40
14.0
  1
O05
100
AcDbText
  0
LWPOLYLINE
  5
34
330
17
100
AcDbEntity
  8
O12
100
AcDbPolyline
 90
39
 70
1
 10
547.9155483223078
 20
30.0
 10
470.15981696891555
 20
37.27800030346807
 10
554.4944288024294
 20
225.58388928453468
 10
621.8781852091604
 20
376.0708568429989
 10
653.9103089114273
 20
498.468893463331
 10
685.5014367345942
 20
619.1854546701504
 10
656.8039569346196
 20
767.1606030726622
 10
627.5955774840045
 20
917.50490107776
 10
590.1559137168274
 20
1068.4291087186275
 10
552.3896874937798
 20
1220.1871102875796
 10
530.0426509158413
 20
1370.824786783682
 10
507.6894377720268
 20
1521.210500716981
 10
493.69931279810703
 20
1672.4238874951798
 10
479.7030535212244
 20
1823.5591679672689
 10
470.86091454046
 20
2000.601859165972
 10
462.0
 20
2177.974233419302
 10
469.86335631452766
 20
2343.4250578061283
 10
477.6651379511922
 20
2508.125855010381
 10
479.9414833975432
 20
2625.034593590474
 10
482.43796083842227
 20
2754.20718198865
 10
546.2040520816112
 20
2752.452658093183
 10
561.4131046501443
 20
2626.3980342031814
 10
575.4576889993591
 20
2510.0744771914347
 10
580.2160137566609
 20
2345.9239732625847
 10
584.9689273445713
 20
2182.6243535729423
 10
599.0436483199264
 20
2006.2411888848264
 10
613.1252393327135
 20
1829.7980440024476
 10
631.317326145477
 20
1679.076255900142
 10
649.5131921800464
 20
1528.4260228840083
 10
675.63322801646
 20
1378.4548675834803
 10
701.7270929500505
 20
1228.8688425947316
 10
746.698224611773
 20
1077.5081276904593
 10
792.0704637394027
 20
925.1662209425367
 10
827.5083648086253
 20
773.7551654558671
 10
863.7641331397693
 20
619.0608276369637
 10
813.7793260830226
 20
491.75567078108816
 10
764.7274463477197
 20
366.823159611249
 10
665.0323626194562
 20
211.97630133903604
 10
547.9155483223078
 20
30.0
  0
TEXT
  5
35
330
17
100
AcDbEntity
  8
0
100
AcDbText
 10
590.7502715109124
 20
1449.8326841502308
 30
0.0
 40
14.0
  1
O12
100
AcDbText
  0
LWPOLYLINE
  5
37
330
17
100
AcDbEntity
  8
O04
100
AcDbPolyline
 90
39
 70
1
 10
862.0
 20
2682.2648535947123
 10
939.16178835653
 20
2686.388911890294
 10
1058.1560326320698
 20
2530.7594434048074
 10
1159.825823889413
 20
2397.7996008682794
 10
1210.5564019372287
 20
2279.179948034236
 10
1262.1951513228355
 20
2158.4377750568096
 10
1229.3323666971228
 20
2004.6367473557839
 10
1197.2107872420925
 20
1854.2156997183747
 10
1155.7976456011756
 20
1703.6499266144758
 10
1114.7079539732013
 20
1554.0803784162208
 10
1091.8587646229414
 20
1404.8101419234001
 10
1068.9613600899274
 20
1255.098071219357
 10
1052.439371735867
 20
1104.729491021616
 10
1035.9181104011075
 20
954.3095546300267
 10
1022.571676692027
 20
778.008348956196
 10
1009.2133169547701
 20
601.5346308341686
 10
997.5836589417122
 20
436.92186416060304
 10
985.908831943664
 20
271.49957284254424
 10
962.446953285129
 20
155.97886052929744
 10
937.2556933454646
 20
31.90211254592805
 10
874.3435856438508
 20
30.0
 10
884.1605923035617
 20
158.70469552514624
 10
892.9267229282691
 20
273.6879887959144
 10
894.1467179118811
 20
438.60532439071994
 10
895.3623300665583
 20
604.1687225309643
 10
903.5493117211026
 20
780.9230006181922
 10
911.7330958081631
 20
957.6301464809696
 10
923.4181383533414
 20
1108.3887490217485
 10
935.1012531170045
 20
1259.1971886332017
 10
952.6964213755938
 20
1409.3581889500883
 10
970.308359754442
 20
1559.8126833802096
 10
1001.5716390182704
 20
1710.391329001504
 10
1032.6331105690736
 20
1860.1964694591684
 10
1056.7422286268677
 20
2009.9370900317447
 10
1080.4556181647908
 20
2157.3219839732083
 10
1048.0037064839253
 20
2271.7387962841385
 10
1015.1593855133326
 20
2387.537467535673
 10
948.0003786740332
 20
2516.7921987913783
 10
862.0
 20
2682.2648535947123
  0
TEXT
  5
38
330
17
100
AcDbEntity
  8
0
100
AcDbText
 10
1012.1779528162413
 20
1332.003665278301
 30
0.0
 40
14.0
  1
O04
100
AcDbText
  0
LWPOLYLINE
  5
3A
330
17
100
AcDbEntity
  8
O13
100
AcDbPolyline
 90
39
 70
1
 10
817.0339753293583
 20
3646.3871761540954
 10
894.1929032004848
 20
3642.253792997623
 10
808.204091024078
 20
3476.7788879894533
 10
741.0439061100966
 20
3347.5241288607995
 10
708.1956286000121
 20
3231.726406643158
 10
675.7399305543544
 20
3117.311321499529
 10
699.462938344688
 20
2969.9286908132754
 10
723.5836414555395
 20
2820.190722141883
 10
754.6741763215962
 20
2670.392599519612
 10
785.9737349917841
 20
2519.820391381846
 10
803.5882821950875
 20
2369.3649200204463
 10
821.1876614280013
 20
2219.2038981330475
 10
832.8604335997288
 20
2068.394098921336
 10
844.5356691254285
 20
1917.6345273069794
 10
852.7011513580803
 20
1740.9263076135
 10
860.8699207042309
 20
1564.1714440903215
 10
862.0754594603617
 20
1398.6083253745924
 10
863.2881764514025
 20
1233.6907129382926
 10
872.0430559413956
 20
1118.7064000387977
 10
881.850992450285
 20
990.0
 10
818.9388735331388
 20
991.9120822338755
 10
793.7564950730971
 20
1115.9899245486677
 10
770.3059413694994
 20
1231.5127719620168
 10
758.6383830975712
 20
1396.93535157543
 10
747.0186843592436
 20
1561.549177203522
 10
733.6784771891819
 20
1738.0245270778278
 10
720.3503311990683
 20
1914.3268888245425
 10
703.8388987171588
 20
2064.7476946822353
 10
687.327330576353
 20
2215.116859341857
 10
664.4258774047537
 20
2364.827793493363
 10
641.5744495747265
 20
2514.0963999754467
 10
600.4493136687246
 20
2663.6550901262976
 10
559.0065680800109
 20
2814.213718834777
 10
526.8730806090005
 20
2964.633015029843
 10
494.0
 20
3118.432595951486
 10
545.6431857743025
 20
3239.1735883512965
 10
596.3777061711704
 20
3357.7913757116958
 10
698.0481611103941
 20
3490.7500141334494
 10
817.0339753293583
 20
3646.3871761540954
  0
TEXT
  5
3B
330
17
100
AcDbEntity
  8
0
100
AcDbText
 10
744.1089297896384
 20
2292.0158458132055
 30
0.0
 40
14.0
  1
O13
100
AcDbText
  0
LWPOLYLINE
  5
3D
330
17
100
AcDbEntity
  8
O16
100
AcDbPolyline
 90
39
 70
1
 10
1227.9089823942386
 20
288.94169885457904
 10
1150.0
 20
286.0
 10
1197.9018837276064
 20
406.7223226651702
 10
1233.4591394653048
 20
496.42387988446114
 10
1254.9398162768796
 20
600.2666226092485
 10
1276.4176468626113
 20
704.1014744660399
 10
1280.7635921055896
 20
852.9847162417343
 10
1285.0916633001445
 20
1002.9165349776232
 10
1289.3250371833692
 20
1152.8484785331684
 10
1293.4456136058498
 20
1302.7858262359066
 10
1297.5281383044305
 20
1452.7270469445102
 10
1301.5633316755539
 20
1602.475900067632
 10
1300.7271388220588
 20
1752.473416496021
 10
1299.8774269814828
 20
1902.5226073127546
 10
1294.6906577911225
 20
2077.9718985467525
 10
1289.524713350787
 20
2252.6390350464053
 10
1260.8452327166226
 20
2407.1210496319095
 10
1232.1625121296092
 20
2561.4626777204066
 10
1197.7969116674406
 20
2652.6287530439854
 10
1157.0089696698951
 20
2760.740008829868
 10
1222.5383012638822
 20
2761.793715143495
 10
1276.8466231920002
 20
2662.3439479756407
 10
1328.393572346281
 20
2567.9864532715915
 10
1370.0189843001162
 20
2410.364872675764
 10
1411.5994584644045
 20
2253.000835405133
 10
1422.1211699001506
 20
2076.106625100536
 10
1432.5828450475522
 20
1900.2569955127276
 10
1437.7335047157783
 20
1749.85157819285
 10
1442.8984066441
 20
1599.3897799197268
 10
1442.8462080212394
 20
1449.0962239589903
 10
1442.8335323460237
 20
1299.155970330919
 10
1446.4570933452608
 20
1149.0486505064114
 10
1450.1863861234128
 20
998.7264028889682
 10
1452.1069285273327
 20
848.4905165165289
 10
1454.09991217514
 20
696.1227913093151
 10
1415.2681991330953
 20
589.8489841804136
 10
1376.5688760521405
 20
483.93280431505985
 10
1308.1617975786642
 20
394.3011659494173
 10
1227.9089823942386
 20
288.94169885457904
  0
TEXT
  5
3E
330
17
100
AcDbEntity
  8
0
100
AcDbText
 10
1371.1885464561296
 20
1526.0584134321184
 30
0.0
 40
14.0
  1
O16
100
AcDbText
  0
LWPOLYLINE
  5
40
330
17
100
AcDbEntity
  8
O01
100
AcDbPolyline
 90
39
 70
1
 10
30.0
 20
4457.782508613476
 10
107.92603970293098
 20
4454.769147193332
 10
188.2470201850489
 20
4349.47193815973
 10
256.6659793761247
 20
4259.843001716827
 10
295.35061375020405
 20
4153.919856067414
 10
334.1661688636994
 20
4047.641937773261
 10
332.1926600636439
 20
3895.275819049554
 10
330.2952953628815
 20
3745.041557745904
 10
326.63333473143797
 20
3594.7199187047418
 10
323.08946244431087
 20
3444.607930902361
 10
323.1001657177318
 20
3294.664518164107
 10
323.1531004191344
 20
3144.3698004657736
 10
317.95704693207796
 20
2993.907842605536
 10
312.7762492055145
 20
2843.5030165726102
 10
302.26519021787067
 20
2667.655856248215
 10
291.69409399340736
 20
2490.7652413719898
 10
250.0865671827481
 20
2333.409302814725
 10
208.4409606441521
 20
2175.7927810595957
 10
156.8736670250555
 20
2081.4466009733546
 10
102.55449040490963
 20
1982.0
 10
37.02954076079409
 20
1983.0851350116554
 10
77.8254157143671
 20
2091.1866874111342
 10
112.21071806191522
 20
2182.3455411728924
 10
140.9129852549716
 20
2336.683272653439
 10
169.61935849602213
 20
2491.161226440122
 10
174.83412444523944
 20
2665.827562307291
 10
180.0701233177964
 20
2841.274916441369
 10
180.94988920798366
 20
2991.323490662316
 10
181.81709258343452
 20
3141.3195990202676
 10
177.78118780790433
 20
3291.0672700913647
 10
173.70071350534423
 20
3441.005384234012
 10
169.50047427184052
 20
3590.937754161006
 10
165.19987603482656
 20
3740.8700511205934
 10
160.84862686404657
 20
3890.8031209600754
 10
156.48360985798553
 20
4039.687623255748
 10
135.02067208100615
 20
4143.527229724004
 10
113.5551968486565
 20
4247.371643285039
 10
77.99146610849446
 20
4337.065461586893
 10
30.0
 20
4457.782508613476
  0
TEXT
  5
41
330
17
100
AcDbEntity
  8
0
100
AcDbText
 10
251.44265159878844
 20
3217.718535278569
 30
0.0
 40
14.0
  1
O01
100
AcDbText
  0
LWPOLYLINE
  5
43
330
17
100
AcDbEntity
  8
H01
100
AcDbPolyline
 90
49
 70
1
 10
1314.0
 20
2790.0
 10
910.0
 20
2790.0
 10
910.0
 20
2842.962389039006
 10
910.0
 20
2866.5341284661727
 10
910.0
 20
2893.1435269189838
 10
910.0
 20
2923.055929853078
 10
910.0000000000001
 20
2956.267064345766
 10
910.0000000000002
 20
2992.578943033759
 10
910.0000000000001
 20
3031.65297710821
 10
910.0
 20
3073.047081786564
 10
910.0
 20
3116.2432053223715
 10
910.0000000000002
 20
3160.6694546385224
 10
910.0000000000002
 20
3205.719272028856
 10
910.0000000000001
 20
3250.7690894191887
 10
910.0000000000001
 20
3295.1953387353396
 10
910.0
 20
3338.3914622711472
 10
910.0
 20
3379.785566949501
 10
910.0
 20
3418.8596010239517
 10
910.0
 20
3455.1714797119457
 10
910.0000000000001
 20
3488.3826142046337
 10
910.0000000000002
 20
3518.2950171387274
 10
910.0000000000001
 20
3544.904415591539
 10
910.0
 20
3568.476155018705
 10
910.0
 20
3621.438544057711
 10
1314.0
 20
3621.4385440577116
 10
1314.0
 20
3589.6383940269516
 10
1314.0
 20
3568.476155018705
 10
1314.0000000000002
 20
3544.904415591539
 10
1314.0
 20
3518.2950171387274
 10
1314.0
 20
3488.3826142046337
 10
1314.0
 20
3455.1714797119457
 10
1314.0
 20
3418.8596010239517
 10
1314.0
 20
3379.785566949501
 10
1314.0
 20
3338.3914622711472
 10
1314.0
 20
3295.1953387353396
 10
1314.0
 20
3250.7690894191887
 10
1314.0
 20
3205.719272028856
 10
1314.0
 20
3160.6694546385224
 10
1314.0
 20
3116.243205322371
 10
1314.0
 20
3073.047081786564
 10
1314.0000000000002
 20
3031.6529771082105
 10
1314.0
 20
2992.578943033759
 10
1314.0
 20
2956.267064345766
 10
1314.0
 20
2923.055929853078
 10
1314.0
 20
2893.1435269189838
 10
1314.0
 20
2866.5341284661727
 10
1314.0
 20
2842.962389039006
 10
1314.0
 20
2821.8001500307596
 10
1314.0
 20
2790.0
  0
TEXT
  5
44
330
17
100
AcDbEntity
  8
0
100
AcDbText
 10
1112.0
 20
3228.244180724022
 30
0.0
 40
14.0
  1
H01
100
AcDbText
  0
LWPOLYLINE
  5
46
330
17
100
AcDbEntity
  8
O03
100
AcDbPolyline
 90
39
 70
1
 10
334.0
 20
5537.895095528214
 10
411.2172256670521
 20
5538.8295391064585
 10
523.5488652848707
 20
5406.595393404605
 10
619.7756488307425
 20
5293.319525994375
 10
669.4967100069534
 20
5180.450506989428
 10
719.9170618411272
 20
5065.994068695231
 10
696.701248544476
 20
4912.316777241831
 10
673.9637131967551
 20
4761.805262131267
 10
643.9559135657229
 20
4611.223470245233
 10
614.1136391865068
 20
4461.471912339043
 10
598.7331007032577
 20
4311.873363751196
 10
583.3052153471357
 20
4161.81398390922
 10
570.4408102350895
 20
4011.44137855426
 10
557.575203975284
 20
3861.0546042821925
 10
545.1156027368567
 20
3684.872941106133
 10
532.6180115911959
 20
3508.1540634547987
 10
508.56712167910905
 20
3344.1232895081303
 10
484.42855944559375
 20
3179.4944309333396
 10
447.5922304386111
 20
3068.6719968130146
 10
408.39144564983224
 20
2950.7360281220685
 10
345.3499128788073
 20
2950.0
 10
371.1158114044767
 20
3074.310498673662
 10
393.7125455490504
 20
3183.3310435710814
 10
408.1718951377041
 20
3346.150550031368
 10
422.66773130232235
 20
3509.381097341462
 10
429.96014640089106
 20
3685.3151604365157
 10
437.2667120663083
 20
3861.5906577071887
 10
444.98163051121696
 20
4012.069892988218
 10
452.6970415708374
 20
4162.558929832789
 10
462.11869751840374
 20
4312.72878195731
 10
471.5592072649862
 20
4463.199599605022
 10
490.3758411368675
 20
4613.761690586356
 10
509.12363490448354
 20
4763.773461855827
 10
523.2001803156404
 20
4913.73791703739
 10
537.0831038648538
 20
5061.639884742546
 10
505.8912715597704
 20
5170.905748328223
 10
474.4478588966253
 20
5281.052902235946
 10
413.71784559731816
 20
5392.112164728706
 10
334.0
 20
5537.895095528214
  0
TEXT
  5
47
330
17
100
AcDbEntity
  8
0
100
AcDbText
 10
524.2192438719072
 20
4237.216146791992
 30
0.0
 40
14.0
  1
O03
100
AcDbText
  0
LWPOLYLINE
  5
49
330
17
100
AcDbEntity
  8
O14
100
AcDbPolyline
 90
39
 70
1
 10
1378.6998235913763
 20
6090.82956723881
 10
1455.917041613932
 20
6089.895100964206
 10
1376.199228120616
 20
5944.11216408011
 10
1315.469215304644
 20
5833.05289941721
 10
1284.0257965530839
 20
5722.905746894439
 10
1252.8339583825898
 20
5613.639885881805
 10
1266.7168960156914
 20
5465.737920560172
 10
1280.7934587133307
 20
5315.773468252962
 10
1299.5412976594646
 20
5165.761704187185
 10
1318.3579890749058
 20
5015.199618734819
 10
1327.798502043484
 20
4864.728799265613
 10
1337.2201643630626
 20
4714.558946684161
 10
1344.9355574775661
 20
4564.069908349035
 10
1352.6504590439108
 20
4413.590671484675
 10
1359.956993093405
 20
4237.315172636664
 10
1367.2493768250044
 20
4061.3811085789885
 10
1381.7451962650325
 20
3898.1505608328675
 10
1396.2045338897606
 20
3735.3310525231514
 10
1418.8012501926837
 20
3626.3105046133173
 10
1444.5671353245684
 20
3502.0
 10
1381.5256017422114
 20
3502.736045516907
 10
1342.3248306908874
 20
3620.672017306263
 10
1305.4885196868559
 20
3731.494457388363
 10
1281.3499696927422
 20
3896.123317230052
 10
1257.2990963789357
 20
4060.154094400338
 10
1244.801536702341
 20
4236.872974615714
 10
1232.3419670928745
 20
4413.054639761265
 10
1219.4763777431795
 20
4563.441415421235
 10
1206.6119906964118
 20
4713.814021088861
 10
1191.1840990910362
 20
4863.873399653884
 10
1175.8035577599617
 20
5013.471945690737
 10
1145.9612266637932
 20
5163.223490660441
 10
1115.9533811979607
 20
5313.805274937741
 10
1093.2158282065545
 20
5464.316788583141
 10
1070.0
 20
5617.994078958506
 10
1120.4203585930295
 20
5732.450515268189
 10
1170.141425774486
 20
5845.319531253192
 10
1266.3682071071914
 20
5958.595398705593
 10
1378.6998235913763
 20
6090.82956723881
  0
TEXT
  5
4A
330
17
100
AcDbEntity
  8
0
100
AcDbText
 10
1265.6979591934587
 20
4789.216173169023
 30
0.0
 40
14.0
  1
O14
100
AcDbText
  0
LWPOLYLINE
  5
4C
330
17
100
AcDbEntity
  8
O02
100
AcDbPolyline
 90
39
 70
1
 10
598.0
 20
6027.248313526035
 10
675.5615404750806
 20
6025.785973503898
 10
774.2895335049427
 20
5910.781114997043
 10
858.8416476359893
 20
5812.306332260442
 10
904.6395003282171
 20
5703.814592014076
 10
950.8348638897396
 20
5594.382180371731
 10
939.4338343539853
 20
5441.101646427116
 10
928.2504817326865
 20
5290.532676374861
 10
912.5930029899556
 20
5139.80594242661
 10
897.0308434881838
 20
4989.600007154475
 10
890.3334271164911
 20
4839.705327696677
 10
883.6336570163676
 20
4689.3803026159085
 10
874.957365617451
 20
4538.934012179008
 10
866.2882387890264
 20
4388.513757066614
 10
854.6114471258402
 20
4212.480572611601
 10
842.8774362242123
 20
4035.569339890118
 10
806.6511285227239
 20
3874.5057101092416
 10
770.3538253512885
 20
3713.0729693663443
 10
722.2577575309272
 20
3610.4434192682306
 10
671.4479444885069
 20
3502.0
 10
607.3285856338654
 20
3502.7144990717547
 10
645.597638225836
 20
3619.0308276407195
 10
678.4437265160233
 20
3718.88072359443
 10
704.0396932138924
 20
3877.447421894438
 10
729.6602663593064
 20
4036.221932945674
 10
736.1254205023745
 20
4211.372616373591
 10
742.614309079352
 20
4387.190931175436
 10
746.3686540668175
 20
4537.415321811722
 10
750.1171557958467
 20
4687.611233344721
 10
751.3589500631979
 20
4837.592598233025
 10
752.5876247468386
 20
4987.8382985261605
 10
757.9338314207719
 20
5138.206461415726
 10
763.2363604750494
 20
5288.327019690545
 10
766.4137696855178
 20
5438.385813008521
 10
769.5434826497867
 20
5586.857630783641
 10
741.8878079322219
 20
5692.568845756841
 10
714.1346719355253
 20
5798.650783746665
 10
664.4858179940393
 20
5896.4111252441835
 10
598.0
 20
6027.248313526035
  0
TEXT
  5
4D
330
17
100
AcDbEntity
  8
0
100
AcDbText
 10
818.840918991528
 20
4763.486450424467
 30
0.0
 40
14.0
  1
O02
100
AcDbText
  0
LWPOLYLINE
  5
4F
330
17
100
AcDbEntity
  8
O15
100
AcDbPolyline
 90
39
 70
1
 10
361.2604968997301
 20
6625.807408484936
 10
438.8160611701587
 20
6627.250519768366
 10
372.3559711399823
 20
6496.409756969711
 10
322.70836461105966
 20
6398.64739489213
 10
294.9510942114969
 20
6292.566177741475
 10
267.2914252073918
 20
6186.856552948465
 10
270.4282615959198
 20
6038.3854830795135
 10
273.61448472578917
 20
5888.327561880527
 10
278.94133844132404
 20
5738.208723732411
 10
284.31793798505873
 20
5587.840696380663
 10
285.54727604467587
 20
5437.5938770448465
 10
286.7912533566616
 20
5287.612081102483
 10
290.52917920938114
 20
5137.415415861288
 10
294.27344468948303
 20
4987.190587012326
 10
300.74447894232065
 20
4811.371410834187
 10
307.1919344936218
 20
4636.220334816013
 10
332.8031658290735
 20
4477.444674775597
 10
358.3924633784574
 20
4318.876735368636
 10
391.23005005789645
 20
4219.02398552774
 10
429.49369701128
 20
4102.704073648425
 10
365.3732445343371
 20
4102.0
 10
314.5693599743939
 20
4210.445380622119
 10
266.48209761218544
 20
4313.078991641232
 10
230.19168345387013
 20
4474.513112390499
 10
193.9747394162209
 20
4635.5792095457355
 10
182.25857801958435
 20
4812.491885221334
 10
170.59968326193047
 20
4988.5260522054405
 10
161.94066268989656
 20
5138.946702477713
 10
153.27500367967437
 20
5289.393115166418
 10
146.57307336076911
 20
5439.717594581278
 10
139.8750577517248
 20
5589.611121861516
 10
124.28269789222512
 20
5739.812972349442
 10
108.60069591939742
 20
5890.538019042332
 10
97.4084388342829
 20
6041.1070139224
 10
86.0
 20
6194.387615814506
 10
132.199849175143
 20
6303.818728089647
 10
178.00169949338036
 20
6412.308390988587
 10
262.5510718545843
 20
6510.7838443508645
 10
361.2604968997301
 20
6625.807408484936
  0
TEXT
  5
50
330
17
100
AcDbEntity
  8
0
100
AcDbText
 10
218.06662902667446
 20
5363.493496105632
 30
0.0
 40
14.0
  1
O15
100
AcDbText
  0
LWPOLYLINE
  5
52
330
17
100
AcDbEntity
  8
O08A
100
AcDbPolyline
 90
15
 70
1
 10
363.60627922392274
 20
1192.81868400246
 10
528.8634128930743
 20
1199.1624974393803
 10
525.7422992810019
 20
1023.0199529774391
 10
522.8556012180504
 20
859.6898163003574
 10
523.2627938940677
 20
705.7831424603971
 10
523.6726709692144
 20
551.7745952445948
 10
524.5903580291114
 20
398.8268205528751
 10
525.5794779009154
 20
234.09431997309423
 10
366.84763902053186
 20
230.0
 10
362.7774543857348
 20
394.81770921718
 10
359.00002212991234
 20
547.7545711603593
 10
358.50120294739304
 20
701.7204459157709
 10
358.0
 20
855.677022146936
 10
360.7135246883898
 20
1018.6293864941158
 10
363.60627922392274
 20
1192.81868400246
  0
TEXT
  5
53
330
17
100
AcDbEntity
  8
0
100
AcDbText
 10
440.6542471794852
 20
780.7300823036666
 30
0.0
 40
14.0
  1
O08A
100
AcDbText
  0
LWPOLYLINE
  5
55
330
17
100
AcDbEntity
  8
O09A
100
AcDbPolyline
 90
15
 70
1
 10
1088.8711351464742
 20
3646.0
 10
923.6140834980506
 20
3652.347470641735
 10
920.7173118958228
 20
3826.536186196347
 10
918.0
 20
3989.488665501287
 10
918.5022135122335
 20
4143.445417034404
 10
919.0020398217974
 20
4297.4113578524475
 10
922.7822439998963
 20
4450.348219701393
 10
926.85538591438
 20
4615.165908784288
 10
1085.5871340623944
 20
4611.068028777357
 10
1084.5950596502053
 20
4446.335597738295
 10
1083.6746022222674
 20
4293.387907961047
 10
1083.2637151834872
 20
4139.37943265487
 10
1082.8555103681801
 20
3985.4729391846095
 10
1085.745970448652
 20
3822.1430462106296
 10
1088.8711351464742
 20
3646.0
  0
TEXT
  5
56
330
17
100
AcDbEntity
  8
0
100
AcDbText
 10
1000.6547066309549
 20
4064.4340490780783
 30
0.0
 40
14.0
  1
O09A
100
AcDbText
  0
LWPOLYLINE
  5
58
330
17
100
AcDbEntity
  8
O07A
100
AcDbPolyline
 90
15
 70
1
 10
412.8620200614327
 20
6522.834410941927
 10
577.6316719393378
 20
6540.448977867569
 10
568.0203361860686
 20
6363.752732150576
 10
559.2527172971052
 20
6201.496210987429
 10
560.1838425113024
 20
6048.02215170899
 10
561.1354524547297
 20
5894.35142394076
 10
566.2435953144811
 20
5741.745925625468
 10
571.7483011735583
 20
5577.468497716848
 10
418.581769031317
 20
5566.0
 10
409.7203698504377
 20
5730.545410265065
 10
401.49901245453634
 20
5883.109105568469
 10
399.75953409817663
 20
6036.659078576261
 10
398.0
 20
6190.291611638222
 10
405.23770394165706
 20
6351.5794484194985
 10
412.8620200614327
 20
6522.834410941927
  0
TEXT
  5
59
330
17
100
AcDbEntity
  8
0
100
AcDbText
 10
479.2834830557457
 20
6119.156881673606
 30
0.0
 40
14.0
  1
O07A
100
AcDbText
  0
LWPOLYLINE
  5
5B
330
17
100
AcDbEntity
  8
O10A
100
AcDbPolyline
 90
15
 70
1
 10
918.0
 20
6692.472081790376
 10
1082.7679882602326
 20
6674.829714635066
 10
1090.4232363404872
 20
6503.579828552012
 10
1097.6915845550602
 20
6342.291965080484
 10
1095.924027685142
 20
6188.658081456743
 10
1094.1767691880784
 20
6035.1076454645045
 10
1085.9334205330483
 20
5882.544585626781
 10
1077.0485802607209
 20
5718.0
 10
923.8840751345423
 20
5729.495903550411
 10
929.4121552533115
 20
5893.772134916253
 10
934.5422547137277
 20
6046.376348179374
 10
935.5017013166791
 20
6200.046478062434
 10
936.440874011254
 20
6353.519063767516
 10
927.6431208111476
 20
6515.77256543918
 10
918.0
 20
6692.472081790376
  0
TEXT
  5
5C
330
17
100
AcDbEntity
  8
0
100
AcDbText
 10
1016.4051267434463
 20
6271.169221571459
 30
0.0
 40
14.0
  1
O10A
100
AcDbText
  0
LWPOLYLINE
  5
5E
330
17
100
AcDbEntity
  8
O06A
100
AcDbPolyline
 90
15
 70
1
 10
746.3324498875755
 20
6922.606032600124
 10
910.6290506532714
 20
6947.621389633659
 10
895.1381412194487
 20
6771.917396163847
 10
881.1545136351855
 20
6611.983359069503
 10
882.2278306902797
 20
6459.249070947648
 10
883.3433120129309
 20
6306.221509500538
 10
891.3578680799197
 20
6154.1751700702225
 10
899.9926788753107
 20
5990.601086620978
 10
756.6149082946017
 20
5974.0
 10
744.0885508903013
 20
6138.059368080062
 10
732.4758881504521
 20
6290.00642201766
 10
729.259210396546
 20
6442.846417159299
 10
726.0
 20
6595.857142507713
 10
735.9374477404334
 20
6754.646988214023
 10
746.3324498875755
 20
6922.606032600124
  0
TEXT
  5
5F
330
17
100
AcDbEntity
  8
0
100
AcDbText
 10
804.6013734884572
 20
6527.553106727681
 30
0.0
 40
14.0
  1
O06A
100
AcDbText
  0
LWPOLYLINE
  5
61
330
17
100
AcDbEntity
  8
O11A
100
AcDbPolyline
 90
15
 70
1
 10
1118.0
 20
6979.659988602553
 10
1282.292529411279
 20
6954.59275933871
 10
1292.7469879776172
 20
6786.644304189698
 10
1302.7481544016196
 20
6627.855677903583
 10
1299.4727896720112
 20
6474.842311021589
 10
1296.2413303702372
 20
6322.001498168524
 10
1284.5840259338183
 20
6170.056704324522
 10
1272.0102008435867
 20
6006.0
 10
1128.6384568965082
 20
6022.653889610815
 10
1137.3204995189305
 20
6186.224603405339
 10
1145.3795970496842
 20
6338.26743692335
 10
1146.5099872840212
 20
6491.2937642907145
 10
1147.599474617606
 20
6644.02499170921
 10
1133.5533253899862
 20
6803.950797384529
 10
1118.0
 20
6979.659988602553
  0
TEXT
  5
62
330
17
100
AcDbEntity
  8
0
100
AcDbText
 10
1224.1418049894446
 20
6559.5747210971485
 30
0.0
 40
14.0
  1
O11A
100
AcDbText
  0
LWPOLYLINE
  5
64
330
17
100
AcDbEntity
  8
OHEAD
100
AcDbPolyline
 90
18
 70
1
 10
30.000000000000007
 20
6587.186324675422
 10
30.0
 20
6921.267784455
 10
80.37865967357095
 20
6957.2928429241465
 10
133.7386287422611
 20
6974.454109130423
 10
189.26976460882753
 20
6973.757497651346
 10
242.27240611133516
 20
6955.268378377365
 10
288.3757936218472
 20
6920.674285104174
 10
323.9776841080921
 20
6872.950411553323
 10
346.42588569667834
 20
6815.976950855924
 10
354.09212546803565
 20
6754.227054565211
 10
346.4258856966783
 20
6692.477158274499
 10
323.97768410809215
 20
6635.5036975771
 10
288.37579362184715
 20
6587.779824026249
 10
242.27240611133521
 20
6553.185730753058
 10
189.26976460882756
 20
6534.696611479077
 10
133.7386287422612
 20
6534.0
 10
80.37865967357101
 20
6551.161266206276
 10
30.000000000000007
 20
6587.186324675422
  0
TEXT
  5
65
330
17
100
AcDbEntity
  8
0
100
AcDbText
 10
190.12950279117848
 20
6785.102002710568
 30
0.0
 40
14.0
  1
OHEAD
100
AcDbText
  0
LWPOLYLINE
  5
67
330
17
100
AcDbEntity
  8
O09B
100
AcDbPolyline
 90
15
 70
1
 10
566.0
 20
7401.495123582759
 10
725.3784690164482
 20
7403.489906559994
 10
724.9577084253071
 20
7213.79302033836
 10
724.5632071005257
 20
7035.884645165341
 10
713.7821695866078
 20
6875.512159440289
 10
703.0155908335017
 20
6715.333075856459
 10
691.6745790833855
 20
6601.980207553939
 10
679.2715845323035
 20
6478.0
 10
612.284809938019
 20
6478.101153687593
 10
601.5893450197165
 20
6601.766841038351
 10
591.8198380764804
 20
6714.719173396074
 10
584.3368410865831
 20
6874.546495527039
 10
576.859070419954
 20
7034.240325935437
 10
571.6084403607033
 20
7211.818919021452
 10
566.0
 20
7401.495123582759
  0
TEXT
  5
68
330
17
100
AcDbEntity
  8
0
100
AcDbText
 10
649.8463827506089
 20
6954.876242687863
 30
0.0
 40
14.0
  1
O09B
100
AcDbText
  0
LWPOLYLINE
  5
6A
330
17
100
AcDbEntity
  8
O08B
100
AcDbPolyline
 90
15
 70
1
 10
1294.0
 20
7539.489744269047
 10
1453.378461956619
 20
7537.494398481399
 10
1447.7694564176159
 20
7347.818217641108
 10
1442.5183071973966
 20
7170.239669057444
 10
1435.0408373175635
 20
7010.545869451204
 10
1427.5585653854555
 20
6850.718487887913
 10
1417.7887897519233
 20
6737.766167182615
 10
1407.0936373499944
 20
6614.100315214422
 10
1340.1068594424717
 20
6614.0
 10
1327.703558559186
 20
6737.980041016273
 10
1316.3628179310274
 20
6851.332924664557
 10
1305.5955150648522
 20
7011.511934033915
 10
1294.814175596015
 20
7171.884444347388
 10
1294.4201951763016
 20
7349.792849749168
 10
1294.0
 20
7539.489744269047
  0
TEXT
  5
6B
330
17
100
AcDbEntity
  8
0
100
AcDbText
 10
1369.5311607640788
 20
7090.87580154568
 30
0.0
 40
14.0
  1
O08B
100
AcDbText
  0
LWPOLYLINE
  5
6D
330
17
100
AcDbEntity
  8
O10B
100
AcDbPolyline
 90
15
 70
1
 10
350.0
 20
7580.120058762144
 10
504.12916691772296
 20
7584.959758210991
 10
508.032385598193
 20
7395.451966597448
 10
511.6993544003586
 20
7217.458749333428
 10
498.46960827583456
 20
7055.535368971758
 10
485.29079864322836
 20
6894.0930846922765
 10
473.4309333990949
 20
6779.415627503627
 10
460.4703513114593
 20
6654.0
 10
394.1756188028831
 20
6654.608169489221
 10
385.14420524509495
 20
6779.06239272787
 10
376.8876536202265
 20
6892.774306336378
 10
372.96201610857815
 20
7053.359259555008
 10
369.03925404532436
 20
7213.49149782028
 10
359.8419254181053
 20
7390.607723091825
 10
350.0
 20
7580.120058762144
  0
TEXT
  5
6E
330
17
100
AcDbEntity
  8
0
100
AcDbText
 10
437.9481963368049
 20
7134.513433396019
 30
0.0
 40
14.0
  1
O10B
100
AcDbText
  0
LWPOLYLINE
  5
70
330
17
100
AcDbEntity
  8
O07B
100
AcDbPolyline
 90
15
 70
1
 10
1096.1290317734629
 20
4638.0
 10
942.0
 20
4642.843985097224
 10
951.8463433130379
 20
4832.356033719475
 10
961.0477140639252
 20
5009.471815571051
 10
964.9679814095932
 20
5169.603759981627
 10
968.8878038767714
 20
5330.189061425253
 10
977.1465005193996
 20
5443.900925943869
 10
986.1756814800088
 20
5568.356350255734
 10
1052.4704954183699
 20
5568.9582188709455
 10
1065.4331863425523
 20
5443.543831042733
 10
1077.2908565989774
 20
5328.866257344233
 10
1090.47545424231
 20
5167.424652910584
 10
1103.707719510102
 20
5005.501123549884
 10
1100.0366720292168
 20
4827.507757481569
 10
1096.1290317734629
 20
4638.0
  0
TEXT
  5
71
330
17
100
AcDbEntity
  8
0
100
AcDbText
 10
1029.9552598954454
 20
5088.448234240817
 30
0.0
 40
14.0
  1
O07B
100
AcDbText
  0
LWPOLYLINE
  5
73
330
17
100
AcDbEntity
  8
O11B
100
AcDbPolyline
 90
15
 70
1
 10
926.0
 20
7642.81881645905
 10
1070.8817888100027
 20
7647.462220195097
 10
1076.4456351964614
 20
7458.265218983117
 10
1081.6783765040175
 20
7280.394944398297
 10
1067.37162301969
 20
7116.646753704675
 10
1053.1485676897373
 20
6953.580741213723
 10
1042.7568330689294
 20
6837.410807245724
 10
1031.3783874679443
 20
6710.0
 10
966.3060998645185
 20
6711.872507694782
 10
957.611813502832
 20
6837.611973286193
 10
949.6323307618079
 20
6952.879747702112
 10
948.8035643045981
 20
7115.111269956989
 10
947.9611587153406
 20
7276.630379329608
 10
937.3606707169481
 20
7453.402358080026
 10
926.0
 20
7642.81881645905
  0
TEXT
  5
74
330
17
100
AcDbEntity
  8
0
100
AcDbText
 10
1011.3694506124925
 20
7196.638566517142
 30
0.0
 40
14.0
  1
O11B
100
AcDbText
  0
LWPOLYLINE
  5
76
330
17
100
AcDbEntity
  8
O06B
100
AcDbPolyline
 90
15
 70
1
 10
752.8137342855186
 20
7903.458922757775
 10
897.695255896496
 20
7898.807281603476
 10
886.3256608503812
 20
7709.391484683611
 10
875.7170434689351
 20
7532.620484515488
 10
874.8802067220336
 20
7371.1020734860695
 10
874.063605287193
 20
7208.870050326076
 10
866.0796510866405
 20
7093.602315406963
 10
857.3890310940538
 20
6967.860689094339
 10
792.316459667384
 20
6966.0
 10
780.9346339657609
 20
7093.408529832337
 10
770.5474894346852
 20
7209.578595821697
 10
756.3123838603074
 20
7372.643115342272
 10
742.0
 20
7536.391540084274
 10
747.2409638704434
 20
7714.262061321755
 10
752.8137342855186
 20
7903.458922757775
  0
TEXT
  5
77
330
17
100
AcDbEntity
  8
0
100
AcDbText
 10
812.3118065770242
 20
7452.63179992888
 30
0.0
 40
14.0
  1
O06B
100
AcDbText
  0
LWPOLYLINE
  5
79
330
17
100
AcDbEntity
  8
OFOOT
100
AcDbPolyline
 90
18
 70
1
 10
300.09327617988845
 20
7297.415393408968
 10
300.0932761798884
 20
7039.893657591438
 10
259.9165808886115
 20
7011.342323669647
 10
218.17166346408538
 20
6998.0
 10
174.70742181557074
 20
6998.541851503808
 10
133.24519873285672
 20
7012.915446399005
 10
97.22766134498377
 20
7039.773667047529
 10
69.45692658461812
 20
7076.768758352985
 10
51.96841185549221
 20
7120.878862207931
 10
46.0
 20
7168.654525500203
 10
51.968411855492235
 20
7216.430188792475
 10
69.45692658461812
 20
7260.54029264742
 10
97.2276613449838
 20
7297.535383952877
 10
133.24519873285684
 20
7324.3936046014005
 10
174.70742181557074
 20
7338.767199496598
 10
218.17166346408538
 20
7339.309051000406
 10
259.9165808886116
 20
7325.966727330759
 10
300.09327617988845
 20
7297.415393408968
  0
TEXT
  5
7A
330
17
100
AcDbEntity
  8
0
100
AcDbText
 10
174.5387410538173
 20
7192.542357146339
 30
0.0
 40
14.0
  1
OFOOT
100
AcDbText
  0
ENDSEC
  0
SECTION
  2
OBJECTS
  0
DICTIONARY
  5
A
330
0
100
AcDbDictionary
281
1
  3
ACAD_COLOR
350
B
  3
ACAD_GROUP
350
C
  3
ACAD_LAYOUT
350
D
  3
ACAD_MATERIAL
350
E
  3
ACAD_MLEADERSTYLE
350
F
  3
ACAD_MLINESTYLE
350
10
  3
ACAD_PLOTSETTINGS
350
11
  3
ACAD_PLOTSTYLENAME
350
12
  3
ACAD_SCALELIST
350
14
  3
ACAD_TABLESTYLE
350
15
  3
ACAD_VISUALSTYLE
350
16
  3
EZDXF_META
350
2D
  0
DICTIONARY
  5
B
330
A
100
AcDbDictionary
281
1
  0
DICTIONARY
  5
C
330
A
100
AcDbDictionary
281
1
  0
DICTIONARY
  5
D
330
A
100
AcDbDictionary
281
1
  3
Model
350
1A
  3
Layout1
350
1E
  0
DICTIONARY
  5
E
330
A
100
AcDbDictionary
281
1
  3
ByBlock
350
1F
  3
ByLayer
350
20
  3
Global
350
21
  0
DICTIONARY
  5
F
330
A
100
AcDbDictionary
281
1
  3
Standard
350
2C
  0
DICTIONARY
  5
10
330
A
100
AcDbDictionary
281
1
  3
Standard
350
22
  0
DICTIONARY
  5
11
330
A
100
AcDbDictionary
281
1
  0
ACDBDICTIONARYWDFLT
  5
12
330
A
100
AcDbDictionary
281
1
  3
Normal
350
13
100
AcDbDictionaryWithDefault
340
13
  0
ACDBPLACEHOLDER
  5
13
330
12
  0
DICTIONARY
  5
14
330
A
100
AcDbDictionary
281
1
  0
DICTIONARY
  5
15
330
A
100
AcDbDictionary
281
1
  0
DICTIONARY
  5
16
330
A
100
AcDbDictionary
281
1
  0
LAYOUT
  5
1A
330
D
100
AcDbPlotSettings
  1

  4
A3
  6

 40
7.5
 41
20.0
 42
7.5
 43
20.0
 44
420.0
 45
297.0
 46
0.0
 47
0.0
 48
0.0
 49
0.0
140
0.0
141
0.0
142
1.0
143
1.0
 70
1024
 72
1
 73
0
 74
5
  7

 75
16
 76
0
 77
2
 78
300
147
1.0
148
0.0
149
0.0
100
AcDbLayout
  1
Model
 70
1
 71
0
 10
0.0
 20
0.0
 11
420.0
 21
297.0
 12
0.0
 22
0.0
 32
0.0
 14
1e+20
 24
1e+20
 34
1e+20
 15
-1e+20
 25
-1e+20
 35
-1e+20
146
0.0
 13
0.0
 23
0.0
 33
0.0
 16
1.0
 26
0.0
 36
0.0
 17
0.0
 27
1.0
 37
0.0
 76
1
330
17
  0
LAYOUT
  5
1E
330
D
100
AcDbPlotSettings
  1

  4
A3
  6

 40
7.5
 41
20.0
 42
7.5
 43
20.0
 44
420.0
 45
297.0
 46
0.0
 47
0.0
 48
0.0
 49
0.0
140
0.0
141
0.0
142
1.0
143
1.0
 70
0
 72
1
 73
0
 74
5
  7

 75
16
 76
0
 77
2
 78
300
147
1.0
148
0.0
149
0.0
100
AcDbLayout
  1
Layout1
 70
1
 71
1
 10
0.0
 20
0.0
 11
420.0
 21
297.0
 12
0.0
 22
0.0
 32
0.0
 14
1e+20
 24
1e+20
 34
1e+20
 15
-1e+20
 25
-1e+20
 35
-1e+20
146
0.0
 13
0.0
 23
0.0
 33
0.0
 16
1.0
 26
0.0
 36
0.0
 17
0.0
 27
1.0
 37
0.0
 76
1
330
1B
  0
MATERIAL
  5
1F
102
{ACAD_REACTORS
330
E
102
}
330
E
100
AcDbMaterial
  1
ByBlock
  2

 70
0
 40
1.0
 71
1
 41
1.0
 91
-1023410177
 42
1.0
 72
1
  3

 73
1
 74
1
 75
1
 44
0.5
 73
0
 45
1.0
 46
1.0
 77
1
  4

 78
1
 79
1
170
1
 48
1.0
171
1
  6

172
1
173
1
174
1
140
1.0
141
1.0
175
1
  7

176
1
177
1
178
1
143
1.0
179
1
  8

270
1
271
1
272
1
145
1.0
146
1.0
273
1
  9

274
1
275
1
276
1
 42
1.0
 72
1
  3

 73
1
 74
1
 75
1
 94
63
  0
MATERIAL
  5
20
102
{ACAD_REACTORS
330
E
102
}
330
E
100
AcDbMaterial
  1
ByLayer
  2

 70
0
 40
1.0
 71
1
 41
1.0
 91
-1023410177
 42
1.0
 72
1
  3

 73
1
 74
1
 75
1
 44
0.5
 73
0
 45
1.0
 46
1.0
 77
1
  4

 78
1
 79
1
170
1
 48
1.0
171
1
  6

172
1
173
1
174
1
140
1.0
141
1.0
175
1
  7

176
1
177
1
178
1
143
1.0
179
1
  8

270
1
271
1
272
1
145
1.0
146
1.0
273
1
  9

274
1
275
1
276
1
 42
1.0
 72
1
  3

 73
1
 74
1
 75
1
 94
63
  0
MATERIAL
  5
21
102
{ACAD_REACTORS
330
E
102
}
330
E
100
AcDbMaterial
  1
Global
  2

 70
0
 40
1.0
 71
1
 41
1.0
 91
-1023410177
 42
1.0
 72
1
  3

 73
1
 74
1
 75
1
 44
0.5
 73
0
 45
1.0
 46
1.0
 77
1
  4

 78
1
 79
1
170
1
 48
1.0
171
1
  6

172
1
173
1
174
1
140
1.0
141
1.0
175
1
  7

176
1
177
1
178
1
143
1.0
179
1
  8

270
1
271
1
272
1
145
1.0
146
1.0
273
1
  9

274
1
275
1
276
1
 42
1.0
 72
1
  3

 73
1
 74
1
 75
1
 94
63
  0
MLINESTYLE
  5
22
102
{ACAD_REACTORS
330
10
102
}
330
10
100
AcDbMlineStyle
  2
Standard
 70
0
  3

 62
256
 51
90.0
 52
90.0
 71
2
 49
0.5
 62
256
  6
BYLAYER
 49
-0.5
 62
256
  6
BYLAYER
  0
MLEADERSTYLE
  5
2C
102
{ACAD_REACTORS
330
F
102
}
330
F
100
AcDbMLeaderStyle
179
2
170
2
171
1
172
0
 90
2
 40
0.0
 41
0.0
173
1
 91
-1056964608
 92
-2
290
1
 42
2.0
291
1
 43
8.0
  3
Standard
 44
4.0
300

342
29
174
1
175
1
176
0
178
1
 93
-1056964608
 45
4.0
292
0
297
0
 46
4.0
 94
-1056964608
 47
1.0
 49
1.0
140
1.0
294
1
141
0.0
177
0
142
1.0
295
0
296
0
143
3.75
271
0
272
9
273
9
  0
DICTIONARY
  5
2D
330
A
100
AcDbDictionary
280
1
281
1
  3
CREATED_BY_EZDXF
350
2E
  3
WRITTEN_BY_EZDXF
350
7D
  0
DICTIONARYVAR
  5
2E
330
2D
100
DictionaryVariables
280
0
  1
1.4.4 @ 2026-10-02T17:52:49.209214+00:00
  0
DICTIONARYVAR
  5
7D
330
2D
100
DictionaryVariables
280
0
  1
1.4.4 @ 2026-10-02T17:52:49.218370+00:00
  0
ENDSEC
  0
EOF
