  0
SECTION
  2
HEADER
  9
$ACADVER
  1
AC1024
  9
$ACADMAINTVER
 70
6
  9
$DWGCODEPAGE
  3
ANSI_1252
  9
$LASTSAVEDBY
  1
ezdxf
  9
$INSBASE
 10
0.0
 20
0.0
 30
0.0
  9
$EXTMIN
 10
1e+20
 20
1e+20
 30
1e+20
  9
$EXTMAX
 10
-1e+20
 20
-1e+20
 30
-1e+20
  9
$LIMMIN
 10
0.0
 20
0.0
  9
$LIMMAX
 10
420.0
 20
297.0
  9
$ORTHOMODE
 70
0
  9
$REGENMODE
 70
1
  9
$FILLMODE
 70
1
  9
$QTEXTMODE
 70
0
  9
$MIRRTEXT
 70
1
  9
$LTSCALE
 40
1.0
  9
$ATTMODE
 70
1
  9
$TEXTSIZE
 40
2.5
  9
$TRACEWID
 40
1.0
  9
$TEXTSTYLE
  7
Standard
  9
$CLAYER
  8
0
  9
$CELTYPE
  6
ByLayer
  9
$CECOLOR
 62
256
  9
$CELTSCALE
 40
1.0
  9
$DISPSILH
 70
0
  9
$DIMSCALE
 40
1.0
  9
$DIMASZ
 40
2.5
  9
$DIMEXO
 40
0.625
  9
$DIMDLI
 40
3.75
  9
$DIMRND
 40
0.0
  9
$DIMDLE
 40
0.0
  9
$DIMEXE
 40
1.25
  9
$DIMTP
 40
0.0
  9
$DIMTM
 40
0.0
  9
$DIMTXT
 40
2.5
  9
$DIMCEN
 40
2.5
  9
$DIMTSZ
 40
0.0
  9
$DIMTOL
 70
0
  9
$DIMLIM
 70
0
  9
$DIMTIH
 70
0
  9
$DIMTOH
 70
0
  9
$DIMSE1
 70
0
  9
$DIMSE2
 70
0
  9
$DIMTAD
 70
1
  9
$DIMZIN
 70
8
  9
$DIMBLK
  1

  9
$DIMASO
 70
1
  9
$DIMSHO
 70
1
  9
$DIMPOST
  1

  9
$DIMAPOST
  1

  9
$DIMALT
 70
0
  9
$DIMALTD
 70
3
  9
$DIMALTF
 40
0.03937007874
  9
$DIMLFAC
 40
1.0
  9
$DIMTOFL
 70
1
  9
$DIMTVP
 40
0.0
  9
$DIMTIX
 70
0
  9
$DIMSOXD
 70
0
  9
$DIMSAH
 70
0
  9
$DIMBLK1
  1

  9
$DIMBLK2
  1

  9
$DIMSTYLE
  2
ISO-25
  9
$DIMCLRD
 70
0
  9
$DIMCLRE
 70
0
  9
$DIMCLRT
 70
0
  9
$DIMTFAC
 40
1.0
  9
$DIMGAP
 40
0.625
  9
$DIMJUST
 70
0
  9
$DIMSD1
 70
0
  9
$DIMSD2
 70
0
  9
$DIMTOLJ
 70
0
  9
$DIMTZIN
 70
8
  9
$DIMALTZ
 70
0
  9
$DIMALTTZ
 70
0
  9
$DIMUPT
 70
0
  9
$DIMDEC
 70
2
  9
$DIMTDEC
 70
2
  9
$DIMALTU
 70
2
  9
$DIMALTTD
 70
3
  9
$DIMTXSTY
  7
Standard
  9
$DIMAUNIT
 70
0
  9
$DIMADEC
 70
0
  9
$DIMALTRND
 40
0.0
  9
$DIMAZIN
 70
0
  9
$DIMDSEP
 70
44
  9
$DIMATFIT
 70
3
  9
$DIMFRAC
 70
0
  9
$DIMLDRBLK
  1

  9
$DIMLUNIT
 70
2
  9
$DIMLWD
 70
-2
  9
$DIMLWE
 70
-2
  9
$DIMTMOVE
 70
0
  9
$DIMFXL
 40
1.0
  9
$DIMFXLON
 70
0
  9
$DIMJOGANG
 40
0.785398163397
  9
$DIMTFILL
 70
0
  9
$DIMTFILLCLR
 70
0
  9
$DIMARCSYM
 70
0
  9
$DIMLTYPE
  6

  9
$DIMLTEX1
  6

  9
$DIMLTEX2
  6

  9
$DIMTXTDIRECTION
 70
0
  9
$LUNITS
 70
2
  9
$LUPREC
 70
4
  9
$SKETCHINC
 40
1.0
  9
$FILLETRAD
 40
10.0
  9
$AUNITS
 70
0
  9
$AUPREC
 70
2
  9
$MENU
  1
.
  9
$ELEVATION
 40
0.0
  9
$PELEVATION
 40
0.0
  9
$THICKNESS
 40
0.0
  9
$LIMCHECK
 70
0
  9
$CHAMFERA
 40
0.0
  9
$CHAMFERB
 40
0.0
  9
$CHAMFERC
 40
0.0
  9
$CHAMFERD
 40
0.0
  9
$SKPOLY
 70
0
  9
$TDCREATE
 40
2461316.481076389
  9
$TDUCREATE
 40
2458532.153996898
  9
$TDUPDATE
 40
2461316.481076389
  9
$TDUUPDATE
 40
2458532.1544311
  9
$TDINDWG
 40
0.0
  9
$TDUSRTIMER
 40
0.0
  9
$USRTIMER
 70
1
  9
$ANGBASE
 50
0.0
  9
$ANGDIR
 70
0
  9
$PDMODE
 70
0
  9
$PDSIZE
 40
0.0
  9
$PLINEWID
 40
0.0
  9
$SPLFRAME
 70
0
  9
$SPLINETYPE
 70
6
  9
$SPLINESEGS
 70
8
  9
$HANDSEED
  5
45
  9
$SURFTAB1
 70
6
  9
$SURFTAB2
 70
6
  9
$SURFTYPE
 70
6
  9
$SURFU
 70
6
  9
$SURFV
 70
6
  9
$UCSBASE
  2

  9
$UCSNAME
  2

  9
$UCSORG
 10
0.0
 20
0.0
 30
0.0
  9
$UCSXDIR
 10
1.0
 20
0.0
 30
0.0
  9
$UCSYDIR
 10
0.0
 20
1.0
 30
0.0
  9
$UCSORTHOREF
  2

  9
$UCSORTHOVIEW
 70
0
  9
$UCSORGTOP
 10
0.0
 20
0.0
 30
0.0
  9
$UCSORGBOTTOM
 10
0.0
 20
0.0
 30
0.0
  9
$UCSORGLEFT
 10
0.0
 20
0.0
 30
0.0
  9
$UCSORGRIGHT
 10
0.0
 20
0.0
 30
0.0
  9
$UCSORGFRONT
 10
0.0
 20
0.0
 30
0.0
  9
$UCSORGBACK
 10
0.0
 20
0.0
 30
0.0
  9
$PUCSBASE
  2

  9
$PUCSNAME
  2

  9
$PUCSORG
 10
0.0
 20
0.0
 30
0.0
  9
$PUCSXDIR
 10
1.0
 20
0.0
 30
0.0
  9
$PUCSYDIR
 10
0.0
 20
1.0
 30
0.0
  9
$PUCSORTHOREF
  2

  9
$PUCSORTHOVIEW
 70
0
  9
$PUCSORGTOP
 10
0.0
 20
0.0
 30
0.0
  9
$PUCSORGBOTTOM
 10
0.0
 20
0.0
 30
0.0
  9
$PUCSORGLEFT
 10
0.0
 20
0.0
 30
0.0
  9
$PUCSORGRIGHT
 10
0.0
 20
0.0
 30
0.0
  9
$PUCSORGFRONT
 10
0.0
 20
0.0
 30
0.0
  9
$PUCSORGBACK
 10
0.0
 20
0.0
 30
0.0
  9
$USERI1
 70
0
  9
$USERI2
 70
0
  9
$USERI3
 70
0
  9
$USERI4
 70
0
  9
$USERI5
 70
0
  9
$USERR1
 40
0.0
  9
$USERR2
 40
0.0
  9
$USERR3
 40
0.0
  9
$USERR4
 40
0.0
  9
$USERR5
 40
0.0
  9
$WORLDVIEW
 70
1
  9
$SHADEDGE
 70
3
  9
$SHADEDIF
 70
70
  9
$TILEMODE
 70
1
  9
$MAXACTVP
 70
64
  9
$PINSBASE
 10
0.0
 20
0.0
 30
0.0
  9
$PLIMCHECK
 70
0
  9
$PEXTMIN
 10
1e+20
 20
1e+20
 30
1e+20
  9
$PEXTMAX
 10
-1e+20
 20
-1e+20
 30
-1e+20
  9
$PLIMMIN
 10
0.0
 20
0.0
  9
$PLIMMAX
 10
420.0
 20
297.0
  9
$UNITMODE
 70
0
  9
$VISRETAIN
 70
1
  9
$PLINEGEN
 70
0
  9
$PSLTSCALE
 70
1
  9
$TREEDEPTH
 70
3020
  9
$CMLSTYLE
  2
Standard
  9
$CMLJUST
 70
0
  9
$CMLSCALE
 40
20.0
  9
$PROXYGRAPHICS
 70
1
  9
$MEASUREMENT
 70
1
  9
$CELWEIGHT
370
-1
  9
$ENDCAPS
280
0
  9
$JOINSTYLE
280
0
  9
$LWDISPLAY
290
0
  9
$INSUNITS
 70
4
  9
$HYPERLINKBASE
  1

  9
$STYLESHEET
  1

  9
$XEDIT
290
1
  9
$CEPSNTYPE
380
0
  9
$PSTYLEMODE
290
1
  9
$FINGERPRINTGUID
  2
{968E9026-B48F-4D82-B90A-6E66E93F743B}
  9
$VERSIONGUID
  2
{3543AF2B-8B12-45BF-B919-F6C6F4216C10}
  9
$EXTNAMES
290
1
  9
$PSVPSCALE
 40
0.0
  9
$OLESTARTUP
290
0
  9
$SORTENTS
280
127
  9
$INDEXCTL
280
0
  9
$HIDETEXT
280
1
  9
$XCLIPFRAME
280
1
  9
$HALOGAP
280
0
  9
$OBSCOLOR
 70
257
  9
$OBSLTYPE
280
0
  9
$INTERSECTIONDISPLAY
280
0
  9
$INTERSECTIONCOLOR
 70
257
  9
$DIMASSOC
280
2
  9
$PROJECTNAME
  1

  9
$CAMERADISPLAY
290
0
  9
$LENSLENGTH
 40
50.0
  9
$CAMERAHEIGHT
 40
0.0
  9
$STEPSPERSEC
 40
24.0
  9
$STEPSIZE
 40
100.0
  9
$3DDWFPREC
 40
2.0
  9
$PSOLWIDTH
 40
0.005
  9
$PSOLHEIGHT
 40
0.08
  9
$LOFTANG1
 40
1.570796326795
  9
$LOFTANG2
 40
1.570796326795
  9
$LOFTMAG1
 40
0.0
  9
$LOFTMAG2
 40
0.0
  9
$LOFTPARAM
 70
7
  9
$LOFTNORMALS
280
1
  9
$LATITUDE
 40
37.795
  9
$LONGITUDE
 40
-122.394
  9
$NORTHDIRECTION
 40
0.0
  9
$TIMEZONE
 70
-8000
  9
$LIGHTGLYPHDISPLAY
280
1
  9
$TILEMODELIGHTSYNCH
280
1
  9
$CMATERIAL
347
20
  9
$SOLIDHIST
280
0
  9
$SHOWHIST
280
1
  9
$DWFFRAME
280
2
  9
$DGNFRAME
280
2
  9
$REALWORLDSCALE
290
1
  9
$INTERFERECOLOR
 62
256
  9
$CSHADOW
280
0
  9
$SHADOWPLANELOCATION
 40
0.0
  0
ENDSEC
  0
SECTION
  2
CLASSES
  0
CLASS
  1
ACDBDICTIONARYWDFLT
  2
AcDbDictionaryWithDefault
  3
ObjectDBX Classes
 90
0
 91
0
280
0
281
0
  0
CLASS
  1
SUN
  2
AcDbSun
  3
SCENEOE
 90
1153
 91
0
280
0
281
0
  0
CLASS
  1
VISUALSTYLE
  2
AcDbVisualStyle
  3
ObjectDBX Classes
 90
4095
 91
0
280
0
281
0
  0
CLASS
  1
MATERIAL
  2
AcDbMaterial
  3
ObjectDBX Classes
 90
1153
 91
0
280
0
281
0
  0
CLASS
  1
SCALE
  2
AcDbScale
  3
ObjectDBX Classes
 90
1153
 91
0
280
0
281
0
  0
CLASS
  1
TABLESTYLE
  2
AcDbTableStyle
  3
ObjectDBX Classes
 90
4095
 91
0
280
0
281
0
  0
CLASS
  1
MLEADERSTYLE
  2
AcDbMLeaderStyle
  3
ACDB_MLEADERSTYLE_CLASS
 90
4095
 91
0
280
0
281
0
  0
CLASS
  1
DICTIONARYVAR
  2
AcDbDictionaryVar
  3
ObjectDBX Classes
 90
0
 91
0
280
0
281
0
  0
CLASS
  1
CELLSTYLEMAP
  2
AcDbCellStyleMap
  3
ObjectDBX Classes
 90
1152
 91
0
280
0
281
0
  0
CLASS
  1
MENTALRAYRENDERSETTINGS
  2
AcDbMentalRayRenderSettings
  3
SCENEOE
 90
1024
 91
0
280
0
281
0
  0
CLASS
  1
ACDBDETAILVIEWSTYLE
  2
AcDbDetailViewStyle
  3
ObjectDBX Classes
 90
1025
 91
0
280
0
281
0
  0
CLASS
  1
ACDBSECTIONVIEWSTYLE
  2
AcDbSectionViewStyle
  3
ObjectDBX Classes
 90
1025
 91
0
280
0
281
0
  0
CLASS
  1
RASTERVARIABLES
  2
AcDbRasterVariables
  3
ISM
 90
0
 91
0
280
0
281
0
  0
CLASS
  1
ACDBPLACEHOLDER
  2
AcDbPlaceHolder
  3
ObjectDBX Classes
 90
0
 91
0
280
0
281
0
  0
CLASS
  1
LAYOUT
  2
AcDbLayout
  3
ObjectDBX Classes
 90
0
 91
0
280
0
281
0
  0
ENDSEC
  0
SECTION
  2
TABLES
  0
TABLE
  2
VPORT
  5
8
330
0
100
AcDbSymbolTable
 70
1
  0
VPORT
  5
23
330
8
100
AcDbSymbolTableRecord
100
AcDbViewportTableRecord
  2
*Active
 70
0
 10
0.0
 20
0.0
 11
1.0
 21
1.0
 12
0.0
 22
0.0
 13
0.0
 23
0.0
 14
0.5
 24
0.5
 15
0.5
 25
0.5
 16
0.0
 26
0.0
 36
1.0
 17
0.0
 27
0.0
 37
0.0
 40
1000.0
 41
1.34
 42
50.0
 43
0.0
 44
0.0
 50
0.0
 51
0.0
 71
0
 72
1000
 73
1
 74
3
 75
0
 76
0
 77
0
 78
0
281
0
 65
0
146
0.0
  0
ENDTAB
  0
TABLE
  2
LTYPE
  5
2
330
0
100
AcDbSymbolTable
 70
3
  0
LTYPE
  5
24
330
2
100
AcDbSymbolTableRecord
100
AcDbLinetypeTableRecord
  2
ByBlock
 70
0
  3

 72
65
 73
0
 40
0.0
  0
LTYPE
  5
25
330
2
100
AcDbSymbolTableRecord
100
AcDbLinetypeTableRecord
  2
ByLayer
 70
0
  3

 72
65
 73
0
 40
0.0
  0
LTYPE
  5
26
330
2
100
AcDbSymbolTableRecord
100
AcDbLinetypeTableRecord
  2
Continuous
 70
0
  3

 72
65
 73
0
 40
0.0
  0
ENDTAB
  0
TABLE
  2
LAYER
  5
1
330
0
100
AcDbSymbolTable
 70
6
  0
LAYER
  5
27
330
1
100
AcDbSymbolTableRecord
100
AcDbLayerTableRecord
  2
0
 70
0
 62
7
  6
Continuous
370
-3
390
13
347
21
  0
LAYER
  5
28
330
1
100
AcDbSymbolTableRecord
100
AcDbLayerTableRecord
  2
Defpoints
 70
0
 62
7
  6
Continuous
290
0
370
-3
390
13
347
21
  0
LAYER
  5
2F
330
1
100
AcDbSymbolTableRecord
100
AcDbLayerTableRecord
  2
SEAM
 70
0
 62
5
  6
Continuous
370
-3
390
13
347
21
  0
LAYER
  5
30
330
1
100
AcDbSymbolTableRecord
100
AcDbLayerTableRecord
  2
CUT_DRAFT
 70
0
 62
1
  6
Continuous
370
-3
390
13
347
21
  0
LAYER
  5
31
330
1
100
AcDbSymbolTableRecord
100
AcDbLayerTableRecord
  2
GRID_REFERENCE
 70
0
 62
8
  6
Continuous
370
-3
390
13
347
21
  0
LAYER
  5
32
330
1
100
AcDbSymbolTableRecord
100
AcDbLayerTableRecord
  2
TEXT
 70
0
 62
7
  6
Continuous
370
-3
390
13
347
21
  0
ENDTAB
  0
TABLE
  2
STYLE
  5
5
330
0
100
AcDbSymbolTable
 70
1
  0
STYLE
  5
29
330
5
100
AcDbSymbolTableRecord
100
AcDbTextStyleTableRecord
  2
Standard
 70
0
 40
0.0
 41
1.0
 50
0.0
 71
0
 42
2.5
  3
txt
  4

  0
ENDTAB
  0
TABLE
  2
VIEW
  5
7
330
0
100
AcDbSymbolTable
 70
0
  0
ENDTAB
  0
TABLE
  2
UCS
  5
6
330
0
100
AcDbSymbolTable
 70
0
  0
ENDTAB
  0
TABLE
  2
APPID
  5
3
330
0
100
AcDbSymbolTable
 70
3
  0
APPID
  5
2A
330
3
100
AcDbSymbolTableRecord
100
AcDbRegAppTableRecord
  2
ACAD
 70
0
  0
APPID
  5
42
330
3
100
AcDbSymbolTableRecord
100
AcDbRegAppTableRecord
  2
HATCHBACKGROUNDCOLOR
 70
0
  0
APPID
  5
43
330
3
100
AcDbSymbolTableRecord
100
AcDbRegAppTableRecord
  2
EZDXF
 70
0
  0
ENDTAB
  0
TABLE
  2
DIMSTYLE
  5
4
330
0
100
AcDbSymbolTable
 70
1
100
AcDbDimStyleTable
  0
DIMSTYLE
105
2B
330
4
100
AcDbSymbolTableRecord
100
AcDbDimStyleTableRecord
  2
Standard
 70
0
 40
1.0
 41
2.5
 42
0.625
 43
3.75
 44
1.25
 45
0.0
 46
0.0
 47
0.0
 48
0.0
 49
2.5
140
2.5
141
2.5
142
0.0
143
0.03937007874
144
1.0
145
0.0
146
1.0
147
0.625
148
0.0
 69
0
 70
0
 71
0
 72
0
 73
0
 74
0
 75
0
 76
0
 77
1
 78
8
 79
3
170
0
171
3
172
1
173
0
174
0
175
0
176
0
177
0
178
0
179
2
271
2
272
2
273
2
274
3
275
0
276
0
277
2
278
44
279
0
280
0
281
0
282
0
283
0
284
8
285
0
286
0
288
0
289
3
290
0
371
-2
372
-2
  0
ENDTAB
  0
TABLE
  2
BLOCK_RECORD
  5
9
330
0
100
AcDbSymbolTable
 70
2
  0
BLOCK_RECORD
  5
17
330
9
100
AcDbSymbolTableRecord
100
AcDbBlockTableRecord
  2
*Model_Space
340
1A
 70
0
280
1
281
0
  0
BLOCK_RECORD
  5
1B
330
9
100
AcDbSymbolTableRecord
100
AcDbBlockTableRecord
  2
*Paper_Space
340
1E
 70
0
280
1
281
0
  0
ENDTAB
  0
ENDSEC
  0
SECTION
  2
BLOCKS
  0
BLOCK
  5
18
330
17
100
AcDbEntity
  8
0
100
AcDbBlockBegin
  2
*Model_Space
 70
0
 10
0.0
 20
0.0
 30
0.0
  3
*Model_Space
  1

  0
ENDBLK
  5
19
330
17
100
AcDbEntity
  8
0
100
AcDbBlockEnd
  0
BLOCK
  5
1C
330
1B
100
AcDbEntity
  8
0
100
AcDbBlockBegin
  2
*Paper_Space
 70
0
 10
0.0
 20
0.0
 30
0.0
  3
*Paper_Space
  1

  0
ENDBLK
  5
1D
330
1B
100
AcDbEntity
  8
0
100
AcDbBlockEnd
  0
ENDSEC
  0
SECTION
  2
ENTITIES
  0
LWPOLYLINE
  5
33
330
17
100
AcDbEntity
  8
SEAM
100
AcDbPolyline
 90
88
 70
1
 10
86.2972039189142
 20
-549.0161885435016
 10
102.83772687623515
 20
-549.1676328856145
 10
119.18027465801767
 20
-549.470973125019
 10
135.33426292571238
 20
-549.8925507421607
 10
151.30287135893352
 20
-550.4260922057806
 10
167.09192441618774
 20
-551.0597130806619
 10
182.71133752610513
 20
-551.7686924711239
 10
198.17425863069846
 20
-552.5122084798635
 10
213.49499385405733
 20
-553.2328179502298
 10
228.68711035564283
 20
-553.855973464949
 10
243.77096740075237
 20
-554.279818597578
 10
236.87614408055956
 20
-541.084193620644
 10
229.96762202267607
 20
-527.1100960718915
 10
223.01798596323152
 20
-511.2040289869276
 10
216.08369538909628
 20
-492.5970637653635
 10
209.285519062194
 20
-470.8654520110918
 10
202.7594809575062
 20
-445.8275639230254
 10
196.61766950938997
 20
-417.46661149546054
 10
190.932764547412
 20
-385.88173184581393
 10
185.74613150566336
 20
-351.2544640246898
 10
181.08491914169204
 20
-313.82433286140724
 10
176.97407934676048
 20
-273.87195458423224
 10
173.4398413952103
 20
-231.70825875106874
 10
170.5082520455404
 20
-187.66768923795973
 10
168.20270813890147
 20
-142.10342947400713
 10
166.54218870966716
 20
-95.38345338614181
 10
165.54041465910558
 20
-47.88682060149128
 10
165.20559305697617
 20
0.0
 10
165.54041468288764
 20
47.88682034933316
 10
166.54218889880633
 20
95.38345302995035
 10
168.20270853076053
 20
142.10342904279628
 10
170.5082526672675
 20
187.6676887474655
 10
173.4398422529506
 20
231.70825821168359
 10
176.9740804312822
 20
273.8719540037565
 10
181.08492043518908
 20
313.8243322450082
 10
185.74613298658096
 20
351.2544633755298
 10
190.93276619319792
 20
385.88173116473035
 10
196.6176713066029
 20
417.46661078164857
 10
202.75948288833322
 20
445.8275631761719
 10
209.28552111098435
 20
470.86545123076445
 10
216.08369753771092
 20
492.5970629518696
 10
223.0179881995106
 20
511.2040281389744
 10
229.9676243263574
 20
527.1100951907626
 10
236.87614645567035
 20
541.0841927048386
 10
243.77096983800317
 20
554.2798176531356
 10
228.68711278831367
 20
553.8559725915377
 10
213.49499627749518
 20
553.2328171387177
 10
198.17426106101868
 20
552.5122077465593
 10
182.71133994692798
 20
551.7686918119468
 10
167.09192683376946
 20
551.0597124876914
 10
151.3028737760057
 20
550.4260916932236
 10
135.3342653341566
 20
549.8925502994857
 10
119.18027706786584
 20
549.4709727512765
 10
102.83772928376102
 20
549.1676325962603
 10
86.29720632578855
 20
549.016188325623
 10
77.44361112881302
 20
536.7978826430609
 10
69.18124926805662
 20
523.3846973942602
 10
61.4071205020975
 20
507.7186626445372
 10
54.02444825943474
 20
489.18594441506764
 10
46.98249619989905
 20
467.48211838969104
 10
40.26646647928973
 20
442.49777258763214
 10
33.892176706835066
 20
414.2486398898161
 10
27.902677194604617
 20
382.83894096055474
 10
22.35829824974345
 20
348.441716159072
 10
17.32306747017082
 20
311.28499907702286
 10
12.854654720216484
 20
271.63979136473944
 10
9.000572254047238
 20
229.8099301208469
 10
5.798548302285614
 20
186.1244037608878
 10
3.2781054983458495
 20
140.9317294586283
 10
1.4618013100372076
 20
94.5955601184639
 10
0.3657660916879773
 20
47.49081258621285
 10
0.0
 20
0.0
 10
0.3657659705353552
 20
-47.49081253832186
 10
1.4618011396475448
 20
-94.59556002180835
 10
3.2781050523123376
 20
-140.93172932816972
 10
5.798547649940633
 20
-186.1244036182327
 10
9.00057139480773
 20
-229.80992997504597
 10
12.854653642105985
 20
-271.63979122771
 10
17.323066191823667
 20
-311.2849989590229
 10
22.358296797096546
 20
-348.4417160638879
 10
27.902675577017774
 20
-382.8389408916286
 10
33.89217493577623
 20
-414.24863985072056
 10
40.266464572620514
 20
-442.49777258073914
 10
46.98249417558187
 20
-467.48211841576295
 10
54.024446135158065
 20
-489.1859444765108
 10
61.40711829119772
 20
-507.71866273967817
 10
69.18124697953633
 20
-523.3846975285911
 10
77.44360877570297
 20
-536.7978828161954
  0
LWPOLYLINE
  5
34
330
17
100
AcDbEntity
  8
CUT_DRAFT
100
AcDbPolyline
 90
89
 70
1
 10
80.13282974408556
 20
-560.9602507681664
 10
67.46247290224571
 20
-543.4746654140213
 10
58.676101632801284
 20
-529.210798888905
 10
50.440268001880625
 20
-512.6143594228025
 10
42.731268923402446
 20
-493.26246284758025
 10
35.473549389468914
 20
-470.8936248795823
 10
28.61449105247454
 20
-445.3771969117086
 10
22.14222982295679
 20
-416.69388050274216
 10
16.08291287338059
 20
-384.91804918795884
 10
10.487225442445347
 20
-350.2025064251361
 10
5.413660393262352
 20
-312.7629061319125
 10
0.9164747384896174
 20
-272.862414065438
 10
-2.959115916958161
 20
-230.79911365114452
 10
-6.177002011674947
 20
-186.89717568790567
 10
-8.708800495012907
 20
-141.50088523747664
 10
-10.53273052691026
 20
-94.97016415514517
 10
-11.633159000677376
 20
-47.67660383770931
 10
-12.000355903573888
 20
1.525937421534272e-08
 10
-11.633158879122615
 20
47.67660390698018
 10
-10.532730355455664
 20
94.97016429337924
 10
-8.708800045938244
 20
141.50088543054613
 10
-6.177001355768057
 20
186.89717588589696
 10
-2.959115052843876
 20
230.7991138562257
 10
0.9164758228751567
 20
272.8624142636395
 10
5.413661678822238
 20
312.7629063078418
 10
10.487226903432019
 20
350.2025065766003
 10
16.082914501025396
 20
384.91804931411207
 10
22.142231605885193
 20
416.69388059883585
 10
28.61449297288216
 20
445.37719697414985
 10
35.473551429776435
 20
470.89362490741325
 10
42.731271066641355
 20
493.262462838676
 10
50.44027023628515
 20
512.6143593805025
 10
58.6761039497822
 20
529.2107988057847
 10
67.46247528679227
 20
543.4746652878175
 10
80.13283220486178
 20
560.9602505769466
 10
102.67144311572747
 20
561.1666130661645
 10
118.91239292575214
 20
561.4680674231023
 10
134.97736975893494
 20
561.887322001831
 10
150.86192061013568
 20
562.41805487257
 10
166.57926932157883
 20
563.0487981439389
 10
182.15110379085547
 20
563.7556178304062
 10
197.60419326247904
 20
564.4986610223341
 10
212.96719042894546
 20
565.2212582014795
 10
228.27266327890212
 20
565.8490633435508
 10
263.8781145307487
 20
566.8495497993259
 10
247.57391155174452
 20
535.6458284475757
 10
240.85040813189786
 20
522.0459744315468
 10
234.14684818519032
 20
506.7031173305678
 10
227.4404543221687
 20
488.70767363973897
 10
220.82459442473302
 20
467.5588699801181
 10
214.4346491871808
 20
443.0431181450308
 10
208.39049629358064
 20
415.1331228285804
 10
202.77424276306303
 20
383.9296659333704
 10
197.63577473498395
 20
349.62396099022163
 10
193.0087795795321
 20
312.46859991209726
 10
188.92266905546307
 20
272.75656221712126
 10
185.40650622552758
 20
230.80850652983298
 10
182.4880955835893
 20
186.96592118668482
 10
180.19193316706887
 20
141.58707156338153
 10
178.53769386507943
 20
95.04379738510619
 10
177.53953000296588
 20
47.71834064993001
 10
177.20588637645807
 20
-3.199935662229956e-09
 10
177.53952997939925
 20
-47.718340926445855
 10
178.53769367724732
 20
-95.04379778878143
 10
180.19193277762767
 20
-141.58707205147257
 10
182.48809496553397
 20
-186.9659217401134
 10
185.40650537265932
 20
-230.8085071340252
 10
188.9226679769116
 20
-272.7565628614585
 10
193.00877829303548
 20
-312.46860058993565
 10
197.63577326209833
 20
-349.62396169781624
 10
202.77424112665992
 20
-383.92966667138904
 10
208.39049450753717
 20
-415.1331235986987
 10
214.43464726955114
 20
-443.043118947219
 10
220.82459239142895
 20
-467.55887081442586
 10
227.440452191741
 20
-488.70767450639903
 10
234.14684596937877
 20
-506.7031182289433
 10
240.85040585196126
 20
-522.0459753639617
 10
247.573909202995
 20
-535.6458294151615
 10
263.87811203714807
 20
-566.8495508386327
 10
228.27266079342232
 20
-565.8490642151131
 10
212.96718795057276
 20
-565.2212590105906
 10
197.6041907729015
 20
-564.4986617528193
 10
182.1511013157741
 20
-563.755618487052
 10
166.57926684809522
 20
-563.0487987345057
 10
150.86191813625967
 20
-562.4180553830523
 10
134.97736729858948
 20
-561.8873224429644
 10
118.91239045936247
 20
-561.4680677955619
 10
102.6714406512946
 20
-561.1666133547537
 10
80.13282974408556
 20
-560.9602507681664
  0
LWPOLYLINE
  5
35
330
17
100
AcDbEntity
  8
GRID_REFERENCE
100
AcDbPolyline
 90
35
 70
0
 10
86.2972039189142
 20
-549.0161885435016
 10
77.44360877570297
 20
-536.7978828161954
 10
69.18124697953633
 20
-523.3846975285911
 10
61.40711829119772
 20
-507.71866273967817
 10
54.024446135158065
 20
-489.1859444765108
 10
46.98249417558187
 20
-467.48211841576295
 10
40.266464572620514
 20
-442.49777258073914
 10
33.89217493577623
 20
-414.24863985072056
 10
27.902675577017774
 20
-382.8389408916286
 10
22.358296797096546
 20
-348.4417160638879
 10
17.323066191823667
 20
-311.2849989590229
 10
12.854653642105985
 20
-271.63979122771
 10
9.00057139480773
 20
-229.80992997504597
 10
5.798547649940633
 20
-186.1244036182327
 10
3.2781050523123376
 20
-140.93172932816972
 10
1.4618011396475448
 20
-94.59556002180835
 10
0.3657659705353552
 20
-47.49081253832186
 10
0.0
 20
0.0
 10
0.3657660916879773
 20
47.49081258621285
 10
1.4618013100372076
 20
94.5955601184639
 10
3.2781054983458495
 20
140.9317294586283
 10
5.798548302285614
 20
186.1244037608878
 10
9.000572254047238
 20
229.8099301208469
 10
12.854654720216484
 20
271.63979136473944
 10
17.32306747017082
 20
311.28499907702286
 10
22.35829824974345
 20
348.441716159072
 10
27.902677194604617
 20
382.83894096055474
 10
33.892176706835066
 20
414.2486398898161
 10
40.26646647928973
 20
442.49777258763214
 10
46.98249619989905
 20
467.48211838969104
 10
54.02444825943474
 20
489.18594441506764
 10
61.4071205020975
 20
507.7186626445372
 10
69.18124926805662
 20
523.3846973942602
 10
77.44361112881302
 20
536.7978826430609
 10
86.29720632578855
 20
549.016188325623
  0
LWPOLYLINE
  5
36
330
17
100
AcDbEntity
  8
GRID_REFERENCE
100
AcDbPolyline
 90
35
 70
0
 10
102.83772687623515
 20
-549.1676328856145
 10
94.03508631592877
 20
-536.330029791114
 10
86.12676027933608
 20
-522.4029057170573
 10
78.85614640713982
 20
-506.3833120025973
 10
72.02026420935853
 20
-487.63238540321794
 10
65.51496993412046
 20
-465.80521664868485
 10
59.30499916194729
 20
-440.76568152869567
 10
53.40127936820986
 20
-412.51668855748727
 10
47.84694471646586
 20
-381.15634150614204
 10
42.70212394946954
 20
-346.85240650958184
 10
38.028960670704095
 20
-309.8263915883139
 10
33.88211883330524
 20
-270.3421301261924
 10
30.30588961942313
 20
-228.69683123501073
 10
27.335114295653135
 20
-185.21396127372188
 10
24.996953832259717
 20
-140.23755697390604
 10
23.31214643163862
 20
-94.12749015902659
 10
22.29551734352371
 20
-47.25527640668436
 10
21.955991823849512
 20
-8.742901681180302e-09
 10
22.295517439768357
 20
47.25527641309497
 10
23.312146620979657
 20
94.12749018515565
 10
24.996954252137076
 20
140.23755700984412
 10
27.335114931701412
 20
185.21396132169298
 10
30.305890469325554
 20
228.69683128129682
 10
33.88211989926115
 20
270.34213016206814
 10
38.02896193828711
 20
309.8263916087839
 10
42.70212539531676
 20
346.85240650932235
 10
47.846946327558264
 20
381.1563414804109
 10
53.401281131267424
 20
412.51668850402604
 10
59.30500106011501
 20
440.76568144572025
 10
65.51497195112157
 20
465.80521653639494
 10
72.02026632702777
 20
487.63238525669993
 10
78.85614861540387
 20
506.3833118280602
 10
86.12676255654911
 20
522.4029055007325
 10
94.0350886509617
 20
536.3300295434366
 10
102.83772928376102
 20
549.1676325962603
  0
LWPOLYLINE
  5
37
330
17
100
AcDbEntity
  8
GRID_REFERENCE
100
AcDbPolyline
 90
35
 70
0
 10
119.18027465801767
 20
-549.470973125019
 10
110.48287523225926
 20
-536.1705009489096
 10
102.76159103627802
 20
-521.9656303402503
 10
95.74863490904256
 20
-505.7688718247562
 10
89.19107797501792
 20
-486.90666425435467
 10
82.95701510769864
 20
-465.0101042796968
 10
77.00152160950196
 20
-439.93053102465075
 10
71.33506628674232
 20
-411.6667119586148
 10
66.00220353518029
 20
-380.31621439890864
 10
61.062788009204674
 20
-346.0463721616599
 10
56.57691005663176
 20
-309.0768425971207
 10
52.596664292910354
 20
-269.66830084939767
 10
49.16417098168813
 20
-228.1142889352823
 10
46.312710266060506
 20
-184.7347807407701
 10
44.06836269715577
 20
-139.87077349318267
 10
42.45109586646473
 20
-93.87953777952701
 10
41.475165240433356
 20
-47.13026714385137
 10
41.1490931893357
 20
-2.059728683680719e-08
 10
41.47516532750699
 20
47.130267109462835
 10
42.45109606651942
 20
93.87953774813737
 10
44.068363105922415
 20
139.8707734622944
 10
46.312710891302075
 20
184.73478071040344
 10
49.164171824649706
 20
228.11428889979135
 10
52.5966653518212
 20
269.6683008020107
 10
56.57691131751936
 20
309.0768425329701
 10
61.06278945189099
 20
346.04637207658925
 10
66.00220514364432
 20
380.3162142891318
 10
71.33506804630329
 20
411.6667118220487
 10
77.00152350428903
 20
439.93053085941534
 10
82.95701712100791
 20
465.01010408619493
 10
89.19108009090588
 20
486.90666402787696
 10
95.74863711328118
 20
505.7688715705906
 10
102.7615933149156
 20
521.9656300411484
 10
110.48287759730356
 20
536.1705006284757
 10
119.18027706786584
 20
549.4709727512765
  0
LWPOLYLINE
  5
38
330
17
100
AcDbEntity
  8
GRID_REFERENCE
100
AcDbPolyline
 90
35
 70
0
 10
135.33426292571238
 20
-549.8925507421607
 10
126.78351877154833
 20
-536.1941219282616
 10
119.23458540972092
 20
-521.73029957741
 10
112.39394547105267
 20
-505.39954712151575
 10
106.00695861852384
 20
-486.46481501888985
 10
99.93374482657553
 20
-464.5252900894916
 10
94.12930364734834
 20
-439.41899824499274
 10
88.60766383116369
 20
-411.14163707379436
 10
83.41529613645835
 20
-379.79170946367094
 10
78.6104448509127
 20
-345.537718684404
 10
74.24955521192459
 20
-308.59919872281677
 10
70.38120144401431
 20
-269.23536577679886
 10
67.04514546846923
 20
-227.73755253886065
 10
64.27340761469442
 20
-184.42335379075584
 10
62.09146218130756
 20
-139.63154594260016
 10
60.518954533728476
 20
-93.71742289026894
 10
59.569926647908574
 20
-47.04842980733501
 10
59.25275900356663
 20
-3.043937853487188e-08
 10
59.56992673311629
 20
47.04842973027365
 10
60.51895473975333
 20
93.71742280278804
 10
62.091462583519245
 20
139.63154584938562
 10
64.27340823251828
 20
184.4233536918609
 10
67.0451463062091
 20
227.73755243019525
 10
70.38120249811115
 20
269.235365653491
 10
74.24955646928737
 20
308.59919858082327
 10
78.61044629163054
 20
345.537718520271
 10
83.41529774349468
 20
379.79170927470966
 10
88.60766558907083
 20
411.14163685814725
 10
94.12930554061768
 20
439.4189980011735
 10
99.93374683874201
 20
464.5252898170896
 10
106.00696073399654
 20
486.4648147154444
 10
112.39394767390309
 20
505.3995467879775
 10
119.23458769452537
 20
521.7302992144445
 10
126.78352111017735
 20
536.1941215213195
 10
135.3342653341566
 20
549.8925502994857
  0
LWPOLYLINE
  5
39
330
17
100
AcDbEntity
  8
GRID_REFERENCE
100
AcDbPolyline
 90
35
 70
0
 10
151.30287135893352
 20
-550.4260922057806
 10
142.93291159923666
 20
-536.4186945271674
 10
135.54330148598737
 20
-521.7487539229805
 10
128.82383154777665
 20
-505.3066205790491
 10
122.52445280704987
 20
-486.32020352937354
 10
116.52024728978893
 20
-464.3531238382915
 10
110.77910644273103
 20
-439.2278371925069
 10
105.324299627949
 20
-410.9363680957554
 10
100.20486072236233
 20
-379.57825001836676
 10
95.47590225329579
 20
-345.3236134191045
 10
91.1886214806706
 20
-308.39266914765943
 10
87.38718733079251
 20
-269.04424619207566
 10
84.10880305103859
 20
-227.56862641459648
 10
81.38442642848375
 20
-184.28210336104948
 10
79.23926202051113
 20
-139.52215690914878
 10
77.692962287215
 20
-93.64289374098924
 10
76.7596136538629
 20
-47.010689753728
 10
76.44762666221463
 20
-5.151577417117097e-08
 10
76.75961374065646
 20
47.01068961512532
 10
77.69296249516334
 20
93.64289359591304
 10
79.2392624172783
 20
139.52215675641165
 10
81.38442704054584
 20
184.2821031988454
 10
84.10880388519284
 20
227.56862623880315
 10
87.38718838235991
 20
269.0442459983855
 10
91.18862273626085
 20
308.3926689327897
 10
95.47590369360792
 20
345.3236131806104
 10
100.20486232922157
 20
379.57824975410284
 10
105.32430138572514
 20
410.9363678040612
 10
110.7791083357925
 20
439.22783687284004
 10
116.52024930066742
 20
464.3531234882668
 10
122.52445492118329
 20
486.3202031513471
 10
128.82383375120799
 20
505.3066201679355
 10
135.54330376082106
 20
521.7487534803097
 10
142.93291394726091
 20
536.4186940478663
 10
151.3028737760057
 20
550.4260916932236
  0
LWPOLYLINE
  5
3A
330
17
100
AcDbEntity
  8
GRID_REFERENCE
100
AcDbPolyline
 90
35
 70
0
 10
167.09192441618774
 20
-551.0597130806619
 10
158.93232422629922
 20
-536.8524409944349
 10
151.68489855415098
 20
-522.0519140433904
 10
145.03999057544908
 20
-505.5366971061153
 10
138.7609013975668
 20
-486.5144787699407
 10
132.74801602653926
 20
-464.5283287123633
 10
126.9945622029154
 20
-439.3870332942228
 10
121.5387464413215
 20
-411.0782369963877
 10
116.43275336155789
 20
-379.70164265963325
 10
111.72732755291322
 20
-345.4286665886085
 10
107.46735625407119
 20
-308.4804952090225
 10
103.69218477558827
 20
-269.1163569631216
 10
100.43648951583629
 20
-227.6265119051519
 10
97.73038743894396
 20
-184.32702317394558
 10
95.5990732694898
 20
-139.55507382799442
 10
94.06243488149225
 20
-93.6644847039705
 10
93.13477584033049
 20
-47.021381182313476
 10
92.82464628304287
 20
-1.1799568923144712e-07
 10
93.13477592026395
 20
47.02138098097051
 10
94.06243508618256
 20
93.66448450223368
 10
95.59907366068084
 20
139.55507361928565
 10
97.73038804663037
 20
184.32702295288783
 10
100.4364903479551
 20
227.62651166690594
 10
103.69218582679008
 20
269.11635670342315
 10
107.4673575097947
 20
308.48049492528963
 10
111.72732899437696
 20
345.4286662790325
 10
116.43275496994315
 20
379.7016423229878
 10
121.53874820079609
 20
411.07823663136406
 10
126.99456409746489
 20
439.387032900539
 10
132.74801803985272
 20
464.5283282875553
 10
138.76090351775392
 20
486.5144783198495
 10
145.03999278102538
 20
505.5366966158335
 10
151.68490084249603
 20
522.0519135307792
 10
158.93232658672048
 20
536.8524404415975
 10
167.09192683376946
 20
551.0597124876914
  0
LWPOLYLINE
  5
3B
330
17
100
AcDbEntity
  8
GRID_REFERENCE
100
AcDbPolyline
 90
35
 70
0
 10
182.71133752610513
 20
-551.7686924711239
 10
174.78492535698084
 20
-537.4849165841736
 10
167.65894873420177
 20
-522.6425554588083
 10
161.04172129807947
 20
-506.1048140963754
 10
154.72361617543112
 20
-487.06908389045066
 10
148.6388395307643
 20
-465.07185989856407
 10
142.81210221820479
 20
-439.91608955583956
 10
137.29950350114584
 20
-411.58575526265287
 10
132.15644847903374
 20
-380.1796753564753
 10
127.42877442764478
 20
-345.8698819044563
 10
123.15492009435795
 20
-308.87865495652557
 10
119.36963702254288
 20
-269.46632159743046
 10
116.10539662527222
 20
-227.92411490654857
 10
113.39173782819803
 20
-184.56893846706856
 10
111.2540276804174
 20
-139.73871838193
 10
109.71251145447357
 20
-93.78795709565962
 10
108.78179207566265
 20
-47.083427970213215
 10
108.47060814072658
 20
-1.3115081087803126e-07
 10
108.78179214163
 20
47.083427713393924
 10
109.71251165189624
 20
93.78795684538005
 10
111.25402806623445
 20
139.7387181226167
 10
113.39173843271624
 20
184.56893819139867
 10
116.10539745699259
 20
227.92411460933627
 10
119.36963807564197
 20
269.46632127493416
 10
123.15492135280151
 20
308.87865460683935
 10
127.42877587246994
 20
345.86988152641567
 10
132.15645009097727
 20
380.17967494962414
 10
137.29950526400157
 20
411.5857548262346
 10
142.8121041160704
 20
439.9160890897366
 10
148.63884154765884
 20
465.0718594017393
 10
154.72361829184604
 20
487.06908336325046
 10
161.04172349995383
 20
506.10481353352156
 10
167.65895102294166
 20
522.6425548767767
 10
174.78492769883064
 20
537.4849159514191
 10
182.71133994692798
 20
551.7686918119468
  0
LWPOLYLINE
  5
3C
330
17
100
AcDbEntity
  8
GRID_REFERENCE
100
AcDbPolyline
 90
35
 70
0
 10
198.17425863069846
 20
-552.5122084798635
 10
190.49569958231115
 20
-538.2822930842784
 10
183.46638360382462
 20
-523.4923983913217
 10
176.8301018725458
 20
-506.989781926296
 10
170.42096772332977
 20
-487.9706477204915
 10
164.21538663874065
 20
-465.9762531773607
 10
158.2703336321128
 20
-440.81087720955804
 10
152.65834764333053
 20
-412.4568397112813
 10
147.4374221017007
 20
-381.0116012525778
 10
142.6489201206425
 20
-346.64739420117434
 10
138.32575803152545
 20
-309.58784626971357
 10
134.49895942868707
 20
-270.09516574784857
 10
131.1993439802257
 20
-228.46259527532092
 10
128.45612777715678
 20
-185.0089815272065
 10
126.29492600244166
 20
-140.07406041747296
 10
124.7363416188812
 20
-94.01401485827427
 10
123.79526086016476
 20
-47.19719906678366
 10
123.48059651054352
 20
-1.494572082078319e-07
 10
123.79526091160587
 20
47.19719878479893
 10
124.73634180779719
 20
94.01401457028908
 10
126.29492638376838
 20
140.0740601152242
 10
128.45612838070988
 20
185.00898120135184
 10
131.19934481405176
 20
228.46259492140004
 10
134.49896048581326
 20
270.0951653639812
 10
138.32575929527556
 20
309.5878458552153
 10
142.64892157104174
 20
346.64739375592
 10
147.43742371913754
 20
381.0116007768387
 10
152.65834941184693
 20
412.4568392048433
 10
158.27033553548654
 20
440.81087667205634
 10
164.2153886610499
 20
465.976252608872
 10
170.42096984860342
 20
487.9706471176292
 10
176.83010409983254
 20
506.9897813016526
 10
183.46638589306198
 20
523.4923977175463
 10
190.49570194276208
 20
538.2822923899897
 10
198.17426106101868
 20
552.5122077465593
  0
LWPOLYLINE
  5
3D
330
17
100
AcDbEntity
  8
GRID_REFERENCE
100
AcDbPolyline
 90
35
 70
0
 10
213.49499385405733
 20
-553.2328179502298
 10
206.07058449334716
 20
-539.1862378687454
 10
199.10882545206098
 20
-524.5417315923215
 10
192.4089797373117
 20
-508.13588511784553
 10
185.86659145978487
 20
-489.17318173627126
 10
179.50548319855136
 20
-467.2065488448771
 10
173.41090732547926
 20
-442.04522804463085
 10
167.66780007156856
 20
-413.671298221017
 10
162.3361662403036
 20
-382.18126654155594
 10
157.45442233141503
 20
-347.7479046517322
 10
153.0517986562104
 20
-310.5969330625779
 10
149.15688728582484
 20
-270.9935317341435
 10
145.7994751714305
 20
-229.23419169921573
 10
143.0085993762743
 20
-185.64092435267247
 10
140.81003855632895
 20
-140.55640200292675
 10
139.2246090822389
 20
-94.33950867771804
 10
138.26735625826223
 20
-47.36111383717962
 10
137.94728723231714
 20
-1.3936325767904456e-07
 10
138.2673562952612
 20
47.36111353859365
 10
139.2246092639679
 20
94.33950836947166
 10
140.8100389359538
 20
140.5564016633541
 10
143.0085999818053
 20
185.64092397805024
 10
145.7994760099759
 20
229.2341912885797
 10
149.15688834928343
 20
270.9935312882759
 10
153.05179992749655
 20
310.5969325827102
 10
157.45442378961226
 20
347.74790413912694
 10
162.3361678652248
 20
382.18126599713054
 10
167.66780184741185
 20
413.6712976450842
 10
173.41090923585824
 20
442.0452274366909
 10
179.50548522700655
 20
467.2065482054452
 10
185.8665935912271
 20
489.1731810638193
 10
192.40898194942255
 20
508.13588441514
 10
199.10882773473253
 20
524.5417308452637
 10
206.07058687368647
 20
539.1862371128813
 10
213.49499627749518
 20
553.2328171387177
  0
LWPOLYLINE
  5
3E
330
17
100
AcDbEntity
  8
GRID_REFERENCE
100
AcDbPolyline
 90
35
 70
0
 10
228.68711035564283
 20
-553.855973464949
 10
221.5139925294674
 20
-540.1190224031033
 10
214.58815307950636
 20
-525.708887892504
 10
207.78803189117835
 20
-509.4693014181576
 10
201.08206852902939
 20
-490.61992627787436
 10
194.53990995923118
 20
-468.7248195778474
 10
188.26937676963178
 20
-443.59669006214835
 10
182.36541943956917
 20
-415.2174113042999
 10
176.89130214624387
 20
-383.6835299225961
 10
171.88513861757733
 20
-349.16981517375797
 10
167.3747611671869
 20
-311.9058845967983
 10
163.3875772835483
 20
-272.16185730913134
 10
159.9526694239078
 20
-230.23932199263913
 10
157.09870575199443
 20
-186.46502432842462
 10
154.85126259919326
 20
-141.1858575153266
 10
153.23102010316785
 20
-94.76447014691345
 10
152.2529211743616
 20
-47.575173718712136
 10
151.9259092742329
 20
-1.479703483947994e-07
 10
152.25292119511772
 20
47.57517345720561
 10
153.23102028383877
 20
94.76446982242126
 10
154.85126298192532
 20
141.18585713663694
 10
157.09870636321963
 20
186.46502390086098
 10
159.95267027011693
 20
230.23932152128066
 10
163.38757835576317
 20
272.161856798076
 10
167.3747624479619
 20
311.9058840496405
 10
171.88514008564914
 20
349.16981459281936
 10
176.89130378010046
 20
383.6835293093901
 10
182.36542122429805
 20
415.2174106591406
 10
188.26937868872653
 20
443.59668938423533
 10
194.5399119968385
 20
468.72481886746976
 10
201.08207066950322
 20
490.6199255337347
 10
207.78803411846496
 20
509.4693006379256
 10
214.58815539832744
 20
525.7088870937372
 10
221.5139948848151
 20
540.1190215510173
 10
228.68711278831367
 20
553.8559725915377
  0
LWPOLYLINE
  5
3F
330
17
100
AcDbEntity
  8
GRID_REFERENCE
100
AcDbPolyline
 90
35
 70
0
 10
243.77096740075237
 20
-554.279818597578
 10
236.87614408055956
 20
-541.084193620644
 10
229.96762202267607
 20
-527.1100960718915
 10
223.01798596323152
 20
-511.2040289869276
 10
216.08369538909628
 20
-492.5970637653635
 10
209.285519062194
 20
-470.8654520110918
 10
202.7594809575062
 20
-445.8275639230254
 10
196.61766950938997
 20
-417.46661149546054
 10
190.932764547412
 20
-385.88173184581393
 10
185.74613150566336
 20
-351.2544640246898
 10
181.08491914169204
 20
-313.82433286140724
 10
176.97407934676048
 20
-273.87195458423224
 10
173.4398413952103
 20
-231.70825875106874
 10
170.5082520455404
 20
-187.66768923795973
 10
168.20270813890147
 20
-142.10342947400713
 10
166.54218870966716
 20
-95.38345338614181
 10
165.54041465910558
 20
-47.88682060149128
 10
165.20559305697617
 20
0.0
 10
165.54041468288764
 20
47.88682034933316
 10
166.54218889880633
 20
95.38345302995035
 10
168.20270853076053
 20
142.10342904279628
 10
170.5082526672675
 20
187.6676887474655
 10
173.4398422529506
 20
231.70825821168359
 10
176.9740804312822
 20
273.8719540037565
 10
181.08492043518908
 20
313.8243322450082
 10
185.74613298658096
 20
351.2544633755298
 10
190.93276619319792
 20
385.88173116473035
 10
196.6176713066029
 20
417.46661078164857
 10
202.75948288833322
 20
445.8275631761719
 10
209.28552111098435
 20
470.86545123076445
 10
216.08369753771092
 20
492.5970629518696
 10
223.0179881995106
 20
511.2040281389744
 10
229.9676243263574
 20
527.1100951907626
 10
236.87614645567035
 20
541.0841927048386
 10
243.77096983800317
 20
554.2798176531356
  0
TEXT
  5
40
330
17
100
AcDbEntity
  8
TEXT
100
AcDbText
 10
0.0
 20
589.2798176531356
 30
0.0
 40
10.0
  1
Q02_SHOULDER_BODY_INNER_DRAFT
100
AcDbText
  0
TEXT
  5
41
330
17
100
AcDbEntity
  8
TEXT
100
AcDbText
 10
0.0
 20
574.2798176531356
 30
0.0
 40
7.0
  1
MM. PROTOTYPE ONLY. NOT PRODUCTION CUTTING.
100
AcDbText
  0
ENDSEC
  0
SECTION
  2
OBJECTS
  0
DICTIONARY
  5
A
330
0
100
AcDbDictionary
281
1
  3
ACAD_COLOR
350
B
  3
ACAD_GROUP
350
C
  3
ACAD_LAYOUT
350
D
  3
ACAD_MATERIAL
350
E
  3
ACAD_MLEADERSTYLE
350
F
  3
ACAD_MLINESTYLE
350
10
  3
ACAD_PLOTSETTINGS
350
11
  3
ACAD_PLOTSTYLENAME
350
12
  3
ACAD_SCALELIST
350
14
  3
ACAD_TABLESTYLE
350
15
  3
ACAD_VISUALSTYLE
350
16
  3
EZDXF_META
350
2D
  0
DICTIONARY
  5
B
330
A
100
AcDbDictionary
281
1
  0
DICTIONARY
  5
C
330
A
100
AcDbDictionary
281
1
  0
DICTIONARY
  5
D
330
A
100
AcDbDictionary
281
1
  3
Model
350
1A
  3
Layout1
350
1E
  0
DICTIONARY
  5
E
330
A
100
AcDbDictionary
281
1
  3
ByBlock
350
1F
  3
ByLayer
350
20
  3
Global
350
21
  0
DICTIONARY
  5
F
330
A
100
AcDbDictionary
281
1
  3
Standard
350
2C
  0
DICTIONARY
  5
10
330
A
100
AcDbDictionary
281
1
  3
Standard
350
22
  0
DICTIONARY
  5
11
330
A
100
AcDbDictionary
281
1
  0
ACDBDICTIONARYWDFLT
  5
12
330
A
100
AcDbDictionary
281
1
  3
Normal
350
13
100
AcDbDictionaryWithDefault
340
13
  0
ACDBPLACEHOLDER
  5
13
330
12
  0
DICTIONARY
  5
14
330
A
100
AcDbDictionary
281
1
  0
DICTIONARY
  5
15
330
A
100
AcDbDictionary
281
1
  0
DICTIONARY
  5
16
330
A
100
AcDbDictionary
281
1
  0
LAYOUT
  5
1A
330
D
100
AcDbPlotSettings
  1

  4
A3
  6

 40
7.5
 41
20.0
 42
7.5
 43
20.0
 44
420.0
 45
297.0
 46
0.0
 47
0.0
 48
0.0
 49
0.0
140
0.0
141
0.0
142
1.0
143
1.0
 70
1024
 72
1
 73
0
 74
5
  7

 75
16
 76
0
 77
2
 78
300
147
1.0
148
0.0
149
0.0
100
AcDbLayout
  1
Model
 70
1
 71
0
 10
0.0
 20
0.0
 11
420.0
 21
297.0
 12
0.0
 22
0.0
 32
0.0
 14
1e+20
 24
1e+20
 34
1e+20
 15
-1e+20
 25
-1e+20
 35
-1e+20
146
0.0
 13
0.0
 23
0.0
 33
0.0
 16
1.0
 26
0.0
 36
0.0
 17
0.0
 27
1.0
 37
0.0
 76
1
330
17
  0
LAYOUT
  5
1E
330
D
100
AcDbPlotSettings
  1

  4
A3
  6

 40
7.5
 41
20.0
 42
7.5
 43
20.0
 44
420.0
 45
297.0
 46
0.0
 47
0.0
 48
0.0
 49
0.0
140
0.0
141
0.0
142
1.0
143
1.0
 70
0
 72
1
 73
0
 74
5
  7

 75
16
 76
0
 77
2
 78
300
147
1.0
148
0.0
149
0.0
100
AcDbLayout
  1
Layout1
 70
1
 71
1
 10
0.0
 20
0.0
 11
420.0
 21
297.0
 12
0.0
 22
0.0
 32
0.0
 14
1e+20
 24
1e+20
 34
1e+20
 15
-1e+20
 25
-1e+20
 35
-1e+20
146
0.0
 13
0.0
 23
0.0
 33
0.0
 16
1.0
 26
0.0
 36
0.0
 17
0.0
 27
1.0
 37
0.0
 76
1
330
1B
  0
MATERIAL
  5
1F
102
{ACAD_REACTORS
330
E
102
}
330
E
100
AcDbMaterial
  1
ByBlock
  2

 70
0
 40
1.0
 71
1
 41
1.0
 91
-1023410177
 42
1.0
 72
1
  3

 73
1
 74
1
 75
1
 44
0.5
 73
0
 45
1.0
 46
1.0
 77
1
  4

 78
1
 79
1
170
1
 48
1.0
171
1
  6

172
1
173
1
174
1
140
1.0
141
1.0
175
1
  7

176
1
177
1
178
1
143
1.0
179
1
  8

270
1
271
1
272
1
145
1.0
146
1.0
273
1
  9

274
1
275
1
276
1
 42
1.0
 72
1
  3

 73
1
 74
1
 75
1
 94
63
  0
MATERIAL
  5
20
102
{ACAD_REACTORS
330
E
102
}
330
E
100
AcDbMaterial
  1
ByLayer
  2

 70
0
 40
1.0
 71
1
 41
1.0
 91
-1023410177
 42
1.0
 72
1
  3

 73
1
 74
1
 75
1
 44
0.5
 73
0
 45
1.0
 46
1.0
 77
1
  4

 78
1
 79
1
170
1
 48
1.0
171
1
  6

172
1
173
1
174
1
140
1.0
141
1.0
175
1
  7

176
1
177
1
178
1
143
1.0
179
1
  8

270
1
271
1
272
1
145
1.0
146
1.0
273
1
  9

274
1
275
1
276
1
 42
1.0
 72
1
  3

 73
1
 74
1
 75
1
 94
63
  0
MATERIAL
  5
21
102
{ACAD_REACTORS
330
E
102
}
330
E
100
AcDbMaterial
  1
Global
  2

 70
0
 40
1.0
 71
1
 41
1.0
 91
-1023410177
 42
1.0
 72
1
  3

 73
1
 74
1
 75
1
 44
0.5
 73
0
 45
1.0
 46
1.0
 77
1
  4

 78
1
 79
1
170
1
 48
1.0
171
1
  6

172
1
173
1
174
1
140
1.0
141
1.0
175
1
  7

176
1
177
1
178
1
143
1.0
179
1
  8

270
1
271
1
272
1
145
1.0
146
1.0
273
1
  9

274
1
275
1
276
1
 42
1.0
 72
1
  3

 73
1
 74
1
 75
1
 94
63
  0
MLINESTYLE
  5
22
102
{ACAD_REACTORS
330
10
102
}
330
10
100
AcDbMlineStyle
  2
Standard
 70
0
  3

 62
256
 51
90.0
 52
90.0
 71
2
 49
0.5
 62
256
  6
BYLAYER
 49
-0.5
 62
256
  6
BYLAYER
  0
MLEADERSTYLE
  5
2C
102
{ACAD_REACTORS
330
F
102
}
330
F
100
AcDbMLeaderStyle
179
2
170
2
171
1
172
0
 90
2
 40
0.0
 41
0.0
173
1
 91
-1056964608
 92
-2
290
1
 42
2.0
291
1
 43
8.0
  3
Standard
 44
4.0
300

342
29
174
1
175
1
176
0
178
1
 93
-1056964608
 45
4.0
292
0
297
0
 46
4.0
 94
-1056964608
 47
1.0
 49
1.0
140
1.0
294
1
141
0.0
177
0
142
1.0
295
0
296
0
143
3.75
271
0
272
9
273
9
  0
DICTIONARY
  5
2D
330
A
100
AcDbDictionary
280
1
281
1
  3
CREATED_BY_EZDXF
350
2E
  3
WRITTEN_BY_EZDXF
350
44
  0
DICTIONARYVAR
  5
2E
330
2D
100
DictionaryVariables
280
0
  1
1.4.4 @ 2026-10-02T11:32:45.519680+00:00
  0
DICTIONARYVAR
  5
44
330
2D
100
DictionaryVariables
280
0
  1
1.4.4 @ 2026-10-02T11:32:45.523423+00:00
  0
ENDSEC
  0
EOF
