  0
SECTION
  2
HEADER
  9
$ACADVER
  1
AC1024
  9
$ACADMAINTVER
 70
6
  9
$DWGCODEPAGE
  3
ANSI_1252
  9
$LASTSAVEDBY
  1
ezdxf
  9
$INSBASE
 10
0.0
 20
0.0
 30
0.0
  9
$EXTMIN
 10
1e+20
 20
1e+20
 30
1e+20
  9
$EXTMAX
 10
-1e+20
 20
-1e+20
 30
-1e+20
  9
$LIMMIN
 10
0.0
 20
0.0
  9
$LIMMAX
 10
420.0
 20
297.0
  9
$ORTHOMODE
 70
0
  9
$REGENMODE
 70
1
  9
$FILLMODE
 70
1
  9
$QTEXTMODE
 70
0
  9
$MIRRTEXT
 70
1
  9
$LTSCALE
 40
1.0
  9
$ATTMODE
 70
1
  9
$TEXTSIZE
 40
2.5
  9
$TRACEWID
 40
1.0
  9
$TEXTSTYLE
  7
Standard
  9
$CLAYER
  8
0
  9
$CELTYPE
  6
ByLayer
  9
$CECOLOR
 62
256
  9
$CELTSCALE
 40
1.0
  9
$DISPSILH
 70
0
  9
$DIMSCALE
 40
1.0
  9
$DIMASZ
 40
2.5
  9
$DIMEXO
 40
0.625
  9
$DIMDLI
 40
3.75
  9
$DIMRND
 40
0.0
  9
$DIMDLE
 40
0.0
  9
$DIMEXE
 40
1.25
  9
$DIMTP
 40
0.0
  9
$DIMTM
 40
0.0
  9
$DIMTXT
 40
2.5
  9
$DIMCEN
 40
2.5
  9
$DIMTSZ
 40
0.0
  9
$DIMTOL
 70
0
  9
$DIMLIM
 70
0
  9
$DIMTIH
 70
0
  9
$DIMTOH
 70
0
  9
$DIMSE1
 70
0
  9
$DIMSE2
 70
0
  9
$DIMTAD
 70
1
  9
$DIMZIN
 70
8
  9
$DIMBLK
  1

  9
$DIMASO
 70
1
  9
$DIMSHO
 70
1
  9
$DIMPOST
  1

  9
$DIMAPOST
  1

  9
$DIMALT
 70
0
  9
$DIMALTD
 70
3
  9
$DIMALTF
 40
0.03937007874
  9
$DIMLFAC
 40
1.0
  9
$DIMTOFL
 70
1
  9
$DIMTVP
 40
0.0
  9
$DIMTIX
 70
0
  9
$DIMSOXD
 70
0
  9
$DIMSAH
 70
0
  9
$DIMBLK1
  1

  9
$DIMBLK2
  1

  9
$DIMSTYLE
  2
ISO-25
  9
$DIMCLRD
 70
0
  9
$DIMCLRE
 70
0
  9
$DIMCLRT
 70
0
  9
$DIMTFAC
 40
1.0
  9
$DIMGAP
 40
0.625
  9
$DIMJUST
 70
0
  9
$DIMSD1
 70
0
  9
$DIMSD2
 70
0
  9
$DIMTOLJ
 70
0
  9
$DIMTZIN
 70
8
  9
$DIMALTZ
 70
0
  9
$DIMALTTZ
 70
0
  9
$DIMUPT
 70
0
  9
$DIMDEC
 70
2
  9
$DIMTDEC
 70
2
  9
$DIMALTU
 70
2
  9
$DIMALTTD
 70
3
  9
$DIMTXSTY
  7
Standard
  9
$DIMAUNIT
 70
0
  9
$DIMADEC
 70
0
  9
$DIMALTRND
 40
0.0
  9
$DIMAZIN
 70
0
  9
$DIMDSEP
 70
44
  9
$DIMATFIT
 70
3
  9
$DIMFRAC
 70
0
  9
$DIMLDRBLK
  1

  9
$DIMLUNIT
 70
2
  9
$DIMLWD
 70
-2
  9
$DIMLWE
 70
-2
  9
$DIMTMOVE
 70
0
  9
$DIMFXL
 40
1.0
  9
$DIMFXLON
 70
0
  9
$DIMJOGANG
 40
0.785398163397
  9
$DIMTFILL
 70
0
  9
$DIMTFILLCLR
 70
0
  9
$DIMARCSYM
 70
0
  9
$DIMLTYPE
  6

  9
$DIMLTEX1
  6

  9
$DIMLTEX2
  6

  9
$DIMTXTDIRECTION
 70
0
  9
$LUNITS
 70
2
  9
$LUPREC
 70
4
  9
$SKETCHINC
 40
1.0
  9
$FILLETRAD
 40
10.0
  9
$AUNITS
 70
0
  9
$AUPREC
 70
2
  9
$MENU
  1
.
  9
$ELEVATION
 40
0.0
  9
$PELEVATION
 40
0.0
  9
$THICKNESS
 40
0.0
  9
$LIMCHECK
 70
0
  9
$CHAMFERA
 40
0.0
  9
$CHAMFERB
 40
0.0
  9
$CHAMFERC
 40
0.0
  9
$CHAMFERD
 40
0.0
  9
$SKPOLY
 70
0
  9
$TDCREATE
 40
2461316.481076389
  9
$TDUCREATE
 40
2458532.153996898
  9
$TDUPDATE
 40
2461316.481076389
  9
$TDUUPDATE
 40
2458532.1544311
  9
$TDINDWG
 40
0.0
  9
$TDUSRTIMER
 40
0.0
  9
$USRTIMER
 70
1
  9
$ANGBASE
 50
0.0
  9
$ANGDIR
 70
0
  9
$PDMODE
 70
0
  9
$PDSIZE
 40
0.0
  9
$PLINEWID
 40
0.0
  9
$SPLFRAME
 70
0
  9
$SPLINETYPE
 70
6
  9
$SPLINESEGS
 70
8
  9
$HANDSEED
  5
45
  9
$SURFTAB1
 70
6
  9
$SURFTAB2
 70
6
  9
$SURFTYPE
 70
6
  9
$SURFU
 70
6
  9
$SURFV
 70
6
  9
$UCSBASE
  2

  9
$UCSNAME
  2

  9
$UCSORG
 10
0.0
 20
0.0
 30
0.0
  9
$UCSXDIR
 10
1.0
 20
0.0
 30
0.0
  9
$UCSYDIR
 10
0.0
 20
1.0
 30
0.0
  9
$UCSORTHOREF
  2

  9
$UCSORTHOVIEW
 70
0
  9
$UCSORGTOP
 10
0.0
 20
0.0
 30
0.0
  9
$UCSORGBOTTOM
 10
0.0
 20
0.0
 30
0.0
  9
$UCSORGLEFT
 10
0.0
 20
0.0
 30
0.0
  9
$UCSORGRIGHT
 10
0.0
 20
0.0
 30
0.0
  9
$UCSORGFRONT
 10
0.0
 20
0.0
 30
0.0
  9
$UCSORGBACK
 10
0.0
 20
0.0
 30
0.0
  9
$PUCSBASE
  2

  9
$PUCSNAME
  2

  9
$PUCSORG
 10
0.0
 20
0.0
 30
0.0
  9
$PUCSXDIR
 10
1.0
 20
0.0
 30
0.0
  9
$PUCSYDIR
 10
0.0
 20
1.0
 30
0.0
  9
$PUCSORTHOREF
  2

  9
$PUCSORTHOVIEW
 70
0
  9
$PUCSORGTOP
 10
0.0
 20
0.0
 30
0.0
  9
$PUCSORGBOTTOM
 10
0.0
 20
0.0
 30
0.0
  9
$PUCSORGLEFT
 10
0.0
 20
0.0
 30
0.0
  9
$PUCSORGRIGHT
 10
0.0
 20
0.0
 30
0.0
  9
$PUCSORGFRONT
 10
0.0
 20
0.0
 30
0.0
  9
$PUCSORGBACK
 10
0.0
 20
0.0
 30
0.0
  9
$USERI1
 70
0
  9
$USERI2
 70
0
  9
$USERI3
 70
0
  9
$USERI4
 70
0
  9
$USERI5
 70
0
  9
$USERR1
 40
0.0
  9
$USERR2
 40
0.0
  9
$USERR3
 40
0.0
  9
$USERR4
 40
0.0
  9
$USERR5
 40
0.0
  9
$WORLDVIEW
 70
1
  9
$SHADEDGE
 70
3
  9
$SHADEDIF
 70
70
  9
$TILEMODE
 70
1
  9
$MAXACTVP
 70
64
  9
$PINSBASE
 10
0.0
 20
0.0
 30
0.0
  9
$PLIMCHECK
 70
0
  9
$PEXTMIN
 10
1e+20
 20
1e+20
 30
1e+20
  9
$PEXTMAX
 10
-1e+20
 20
-1e+20
 30
-1e+20
  9
$PLIMMIN
 10
0.0
 20
0.0
  9
$PLIMMAX
 10
420.0
 20
297.0
  9
$UNITMODE
 70
0
  9
$VISRETAIN
 70
1
  9
$PLINEGEN
 70
0
  9
$PSLTSCALE
 70
1
  9
$TREEDEPTH
 70
3020
  9
$CMLSTYLE
  2
Standard
  9
$CMLJUST
 70
0
  9
$CMLSCALE
 40
20.0
  9
$PROXYGRAPHICS
 70
1
  9
$MEASUREMENT
 70
1
  9
$CELWEIGHT
370
-1
  9
$ENDCAPS
280
0
  9
$JOINSTYLE
280
0
  9
$LWDISPLAY
290
0
  9
$INSUNITS
 70
4
  9
$HYPERLINKBASE
  1

  9
$STYLESHEET
  1

  9
$XEDIT
290
1
  9
$CEPSNTYPE
380
0
  9
$PSTYLEMODE
290
1
  9
$FINGERPRINTGUID
  2
{C13F15D2-6A49-429A-91B1-B86E9F2C43B2}
  9
$VERSIONGUID
  2
{759DEB2D-A2B1-4F16-86BF-64799B740078}
  9
$EXTNAMES
290
1
  9
$PSVPSCALE
 40
0.0
  9
$OLESTARTUP
290
0
  9
$SORTENTS
280
127
  9
$INDEXCTL
280
0
  9
$HIDETEXT
280
1
  9
$XCLIPFRAME
280
1
  9
$HALOGAP
280
0
  9
$OBSCOLOR
 70
257
  9
$OBSLTYPE
280
0
  9
$INTERSECTIONDISPLAY
280
0
  9
$INTERSECTIONCOLOR
 70
257
  9
$DIMASSOC
280
2
  9
$PROJECTNAME
  1

  9
$CAMERADISPLAY
290
0
  9
$LENSLENGTH
 40
50.0
  9
$CAMERAHEIGHT
 40
0.0
  9
$STEPSPERSEC
 40
24.0
  9
$STEPSIZE
 40
100.0
  9
$3DDWFPREC
 40
2.0
  9
$PSOLWIDTH
 40
0.005
  9
$PSOLHEIGHT
 40
0.08
  9
$LOFTANG1
 40
1.570796326795
  9
$LOFTANG2
 40
1.570796326795
  9
$LOFTMAG1
 40
0.0
  9
$LOFTMAG2
 40
0.0
  9
$LOFTPARAM
 70
7
  9
$LOFTNORMALS
280
1
  9
$LATITUDE
 40
37.795
  9
$LONGITUDE
 40
-122.394
  9
$NORTHDIRECTION
 40
0.0
  9
$TIMEZONE
 70
-8000
  9
$LIGHTGLYPHDISPLAY
280
1
  9
$TILEMODELIGHTSYNCH
280
1
  9
$CMATERIAL
347
20
  9
$SOLIDHIST
280
0
  9
$SHOWHIST
280
1
  9
$DWFFRAME
280
2
  9
$DGNFRAME
280
2
  9
$REALWORLDSCALE
290
1
  9
$INTERFERECOLOR
 62
256
  9
$CSHADOW
280
0
  9
$SHADOWPLANELOCATION
 40
0.0
  0
ENDSEC
  0
SECTION
  2
CLASSES
  0
CLASS
  1
ACDBDICTIONARYWDFLT
  2
AcDbDictionaryWithDefault
  3
ObjectDBX Classes
 90
0
 91
0
280
0
281
0
  0
CLASS
  1
SUN
  2
AcDbSun
  3
SCENEOE
 90
1153
 91
0
280
0
281
0
  0
CLASS
  1
VISUALSTYLE
  2
AcDbVisualStyle
  3
ObjectDBX Classes
 90
4095
 91
0
280
0
281
0
  0
CLASS
  1
MATERIAL
  2
AcDbMaterial
  3
ObjectDBX Classes
 90
1153
 91
0
280
0
281
0
  0
CLASS
  1
SCALE
  2
AcDbScale
  3
ObjectDBX Classes
 90
1153
 91
0
280
0
281
0
  0
CLASS
  1
TABLESTYLE
  2
AcDbTableStyle
  3
ObjectDBX Classes
 90
4095
 91
0
280
0
281
0
  0
CLASS
  1
MLEADERSTYLE
  2
AcDbMLeaderStyle
  3
ACDB_MLEADERSTYLE_CLASS
 90
4095
 91
0
280
0
281
0
  0
CLASS
  1
DICTIONARYVAR
  2
AcDbDictionaryVar
  3
ObjectDBX Classes
 90
0
 91
0
280
0
281
0
  0
CLASS
  1
CELLSTYLEMAP
  2
AcDbCellStyleMap
  3
ObjectDBX Classes
 90
1152
 91
0
280
0
281
0
  0
CLASS
  1
MENTALRAYRENDERSETTINGS
  2
AcDbMentalRayRenderSettings
  3
SCENEOE
 90
1024
 91
0
280
0
281
0
  0
CLASS
  1
ACDBDETAILVIEWSTYLE
  2
AcDbDetailViewStyle
  3
ObjectDBX Classes
 90
1025
 91
0
280
0
281
0
  0
CLASS
  1
ACDBSECTIONVIEWSTYLE
  2
AcDbSectionViewStyle
  3
ObjectDBX Classes
 90
1025
 91
0
280
0
281
0
  0
CLASS
  1
RASTERVARIABLES
  2
AcDbRasterVariables
  3
ISM
 90
0
 91
0
280
0
281
0
  0
CLASS
  1
ACDBPLACEHOLDER
  2
AcDbPlaceHolder
  3
ObjectDBX Classes
 90
0
 91
0
280
0
281
0
  0
CLASS
  1
LAYOUT
  2
AcDbLayout
  3
ObjectDBX Classes
 90
0
 91
0
280
0
281
0
  0
ENDSEC
  0
SECTION
  2
TABLES
  0
TABLE
  2
VPORT
  5
8
330
0
100
AcDbSymbolTable
 70
1
  0
VPORT
  5
23
330
8
100
AcDbSymbolTableRecord
100
AcDbViewportTableRecord
  2
*Active
 70
0
 10
0.0
 20
0.0
 11
1.0
 21
1.0
 12
0.0
 22
0.0
 13
0.0
 23
0.0
 14
0.5
 24
0.5
 15
0.5
 25
0.5
 16
0.0
 26
0.0
 36
1.0
 17
0.0
 27
0.0
 37
0.0
 40
1000.0
 41
1.34
 42
50.0
 43
0.0
 44
0.0
 50
0.0
 51
0.0
 71
0
 72
1000
 73
1
 74
3
 75
0
 76
0
 77
0
 78
0
281
0
 65
0
146
0.0
  0
ENDTAB
  0
TABLE
  2
LTYPE
  5
2
330
0
100
AcDbSymbolTable
 70
3
  0
LTYPE
  5
24
330
2
100
AcDbSymbolTableRecord
100
AcDbLinetypeTableRecord
  2
ByBlock
 70
0
  3

 72
65
 73
0
 40
0.0
  0
LTYPE
  5
25
330
2
100
AcDbSymbolTableRecord
100
AcDbLinetypeTableRecord
  2
ByLayer
 70
0
  3

 72
65
 73
0
 40
0.0
  0
LTYPE
  5
26
330
2
100
AcDbSymbolTableRecord
100
AcDbLinetypeTableRecord
  2
Continuous
 70
0
  3

 72
65
 73
0
 40
0.0
  0
ENDTAB
  0
TABLE
  2
LAYER
  5
1
330
0
100
AcDbSymbolTable
 70
6
  0
LAYER
  5
27
330
1
100
AcDbSymbolTableRecord
100
AcDbLayerTableRecord
  2
0
 70
0
 62
7
  6
Continuous
370
-3
390
13
347
21
  0
LAYER
  5
28
330
1
100
AcDbSymbolTableRecord
100
AcDbLayerTableRecord
  2
Defpoints
 70
0
 62
7
  6
Continuous
290
0
370
-3
390
13
347
21
  0
LAYER
  5
2F
330
1
100
AcDbSymbolTableRecord
100
AcDbLayerTableRecord
  2
SEAM
 70
0
 62
5
  6
Continuous
370
-3
390
13
347
21
  0
LAYER
  5
30
330
1
100
AcDbSymbolTableRecord
100
AcDbLayerTableRecord
  2
CUT_DRAFT
 70
0
 62
1
  6
Continuous
370
-3
390
13
347
21
  0
LAYER
  5
31
330
1
100
AcDbSymbolTableRecord
100
AcDbLayerTableRecord
  2
GRID_REFERENCE
 70
0
 62
8
  6
Continuous
370
-3
390
13
347
21
  0
LAYER
  5
32
330
1
100
AcDbSymbolTableRecord
100
AcDbLayerTableRecord
  2
TEXT
 70
0
 62
7
  6
Continuous
370
-3
390
13
347
21
  0
ENDTAB
  0
TABLE
  2
STYLE
  5
5
330
0
100
AcDbSymbolTable
 70
1
  0
STYLE
  5
29
330
5
100
AcDbSymbolTableRecord
100
AcDbTextStyleTableRecord
  2
Standard
 70
0
 40
0.0
 41
1.0
 50
0.0
 71
0
 42
2.5
  3
txt
  4

  0
ENDTAB
  0
TABLE
  2
VIEW
  5
7
330
0
100
AcDbSymbolTable
 70
0
  0
ENDTAB
  0
TABLE
  2
UCS
  5
6
330
0
100
AcDbSymbolTable
 70
0
  0
ENDTAB
  0
TABLE
  2
APPID
  5
3
330
0
100
AcDbSymbolTable
 70
3
  0
APPID
  5
2A
330
3
100
AcDbSymbolTableRecord
100
AcDbRegAppTableRecord
  2
ACAD
 70
0
  0
APPID
  5
42
330
3
100
AcDbSymbolTableRecord
100
AcDbRegAppTableRecord
  2
HATCHBACKGROUNDCOLOR
 70
0
  0
APPID
  5
43
330
3
100
AcDbSymbolTableRecord
100
AcDbRegAppTableRecord
  2
EZDXF
 70
0
  0
ENDTAB
  0
TABLE
  2
DIMSTYLE
  5
4
330
0
100
AcDbSymbolTable
 70
1
100
AcDbDimStyleTable
  0
DIMSTYLE
105
2B
330
4
100
AcDbSymbolTableRecord
100
AcDbDimStyleTableRecord
  2
Standard
 70
0
 40
1.0
 41
2.5
 42
0.625
 43
3.75
 44
1.25
 45
0.0
 46
0.0
 47
0.0
 48
0.0
 49
2.5
140
2.5
141
2.5
142
0.0
143
0.03937007874
144
1.0
145
0.0
146
1.0
147
0.625
148
0.0
 69
0
 70
0
 71
0
 72
0
 73
0
 74
0
 75
0
 76
0
 77
1
 78
8
 79
3
170
0
171
3
172
1
173
0
174
0
175
0
176
0
177
0
178
0
179
2
271
2
272
2
273
2
274
3
275
0
276
0
277
2
278
44
279
0
280
0
281
0
282
0
283
0
284
8
285
0
286
0
288
0
289
3
290
0
371
-2
372
-2
  0
ENDTAB
  0
TABLE
  2
BLOCK_RECORD
  5
9
330
0
100
AcDbSymbolTable
 70
2
  0
BLOCK_RECORD
  5
17
330
9
100
AcDbSymbolTableRecord
100
AcDbBlockTableRecord
  2
*Model_Space
340
1A
 70
0
280
1
281
0
  0
BLOCK_RECORD
  5
1B
330
9
100
AcDbSymbolTableRecord
100
AcDbBlockTableRecord
  2
*Paper_Space
340
1E
 70
0
280
1
281
0
  0
ENDTAB
  0
ENDSEC
  0
SECTION
  2
BLOCKS
  0
BLOCK
  5
18
330
17
100
AcDbEntity
  8
0
100
AcDbBlockBegin
  2
*Model_Space
 70
0
 10
0.0
 20
0.0
 30
0.0
  3
*Model_Space
  1

  0
ENDBLK
  5
19
330
17
100
AcDbEntity
  8
0
100
AcDbBlockEnd
  0
BLOCK
  5
1C
330
1B
100
AcDbEntity
  8
0
100
AcDbBlockBegin
  2
*Paper_Space
 70
0
 10
0.0
 20
0.0
 30
0.0
  3
*Paper_Space
  1

  0
ENDBLK
  5
1D
330
1B
100
AcDbEntity
  8
0
100
AcDbBlockEnd
  0
ENDSEC
  0
SECTION
  2
ENTITIES
  0
LWPOLYLINE
  5
33
330
17
100
AcDbEntity
  8
SEAM
100
AcDbPolyline
 90
88
 70
1
 10
94.11260028655742
 20
-565.8377718318176
 10
110.72544632216243
 20
-567.1554014360335
 10
127.2618721548831
 20
-568.2881048982088
 10
143.68851006990732
 20
-569.2122973669407
 10
159.9749831731906
 20
-569.9180380637342
 10
176.0950326589023
 20
-570.3988768366096
 10
192.02724145984186
 20
-570.6471674210387
 10
207.755692871327
 20
-570.6495076312221
 10
223.2695746917009
 20
-570.381808728939
 10
238.56047132862273
 20
-569.8053646395426
 10
253.61741333603993
 20
-568.8662402245023
 10
245.41785633836543
 20
-555.9913941195452
 10
237.10620019032294
 20
-541.8528008755469
 10
228.8306062040683
 20
-525.3626419315093
 10
220.7452515490687
 20
-505.8718845460324
 10
212.96731024861776
 20
-483.07644302252345
 10
205.57537109403233
 20
-456.892556542706
 10
198.62431311035186
 20
-427.3724431428444
 10
192.160021600313
 20
-394.6549104712329
 10
186.22729879558034
 20
-358.9374786791675
 10
180.87125277218385
 20
-320.46084536474496
 10
176.13541008223623
 20
-279.4999525514519
 10
172.05940543973864
 20
-236.35818567362833
 10
168.67748178916682
 20
-191.36283567549975
 10
166.01783397394766
 20
-144.86097832970987
 10
164.10242074843765
 20
-97.21546740134406
 10
162.94692183044333
 20
-48.80096562386323
 10
162.56072251085556
 20
0.0
 10
162.94692151603073
 20
48.80096618440696
 10
164.1024199272862
 20
97.21546815722603
 10
166.0178327382755
 20
144.86097914802065
 10
168.6774802770983
 20
191.36283648285888
 10
172.0594038010588
 20
236.35818642717942
 10
176.13540844703212
 20
279.499953227545
 10
180.87125124436653
 20
320.4608459518959
 10
186.2272974474165
 20
358.9374791743707
 10
192.16002047325557
 20
394.6549108767563
 10
198.62431221816578
 20
427.3724434636066
 10
205.57537043151325
 20
456.89255678433295
 10
212.9673097969349
 20
483.0764431896979
 10
220.74525128249886
 20
505.8718846422807
 10
228.83060609503377
 20
525.3626419583915
 10
237.10620021473
 20
541.8528008340223
 10
245.41785647437814
 20
555.9913940097978
 10
253.61741357594212
 20
568.8662400475355
 10
238.56047157499805
 20
569.8053645827245
 10
223.269574938534
 20
570.3818087960587
 10
207.75569311266707
 20
570.6495078183178
 10
192.0272416942552
 20
570.6471677289768
 10
176.09503288472027
 20
570.3988772623998
 10
159.97498338867945
 20
569.9180386037086
 10
143.68851027911342
 20
569.2122980211743
 10
127.26187235576107
 20
568.2881056640286
 10
110.72544651232568
 20
567.15540230956
 10
94.1126004708137
 20
565.8377728157407
 10
85.69183102146496
 20
552.7929297381455
 10
77.27157754261108
 20
538.4224709107244
 10
68.95428516969766
 20
521.7164599005932
 10
60.80743135878758
 20
502.09639487010764
 10
52.895273260417675
 20
479.2827464446161
 10
45.288966208967025
 20
453.18448125800325
 10
38.06533261122004
 20
423.8336271075092
 10
31.300550567348836
 20
391.3482220449537
 10
25.06429912953389
 20
355.90961052058105
 10
19.417487809162132
 20
317.7472818018493
 10
14.412889083731034
 20
277.1284600860953
 10
10.096458941265364
 20
234.35082802095368
 10
6.507988961522744
 20
189.73706375781904
 10
3.6809907724690683
 20
143.6302435863446
 10
1.642219428081889
 20
96.38959755691126
 10
0.4111963834775551
 20
48.38640313749294
 10
0.0
 20
0.0
 10
0.4111969933505966
 20
-48.38640288922886
 10
1.6422203420650145
 20
-96.38959716709678
 10
3.6809920767504583
 20
-143.63024305766953
 10
6.507990460974864
 20
-189.73706308414344
 10
10.096460521596637
 20
-234.35082720946764
 10
14.412890648668226
 20
-277.1284591494872
 10
19.417489278599675
 20
-317.747280758165
 10
25.06430042094187
 20
-355.90960939647385
 10
31.300551643344328
 20
-391.3482208690059
 10
38.065333460915795
 20
-423.8336259060014
 10
45.28896684099418
 20
-453.18448005315577
 10
52.895273696385985
 20
-479.28274525419727
 10
60.807431623367435
 20
-502.0963937063194
 10
68.95428528969653
 20
-521.7164587736518
 10
77.27157754463695
 20
-538.422469827193
 10
85.69183092672573
 20
-552.7929287042793
  0
LWPOLYLINE
  5
34
330
17
100
AcDbEntity
  8
CUT_DRAFT
100
AcDbPolyline
 90
89
 70
1
 10
87.24876594945296
 20
-577.3310593584702
 10
75.46932996607619
 20
-559.0832143020536
 10
66.71141058790246
 20
-544.1364764116479
 10
58.0290927917193
 20
-526.6972795399453
 10
49.58739098853568
 20
-506.3671317993502
 10
41.45896693723496
 20
-482.92990892191256
 10
33.69730677209703
 20
-456.29860555205994
 10
26.361404161206014
 20
-426.4915823767427
 10
19.514504206193358
 20
-393.6118348424428
 10
13.2175161904946
 20
-357.8280756933735
 10
7.525385923855272
 20
-319.35947095136083
 10
2.4867867890202393
 20
-278.46469106003
 10
-1.8551421896821187
 20
-235.43435481162538
 10
-5.46253072541566
 20
-190.58538616404275
 10
-8.303163810177447
 20
-144.25619152027159
 10
-10.351145181716412
 20
-96.80214793245973
 10
-11.587495719135813
 20
-48.59122235962717
 10
-12.000433307243927
 20
-7.588410984656464e-08
 10
-11.587496331280992
 20
48.591222493587814
 10
-10.3511460986451
 20
96.80214823364108
 10
-8.303165118674455
 20
144.25619197236455
 10
-5.462532227741163
 20
190.58538679907906
 10
-1.8551437712163914
 20
235.43435561126694
 10
2.4867852253325387
 20
278.46469200893677
 10
7.525384459296972
 20
319.35947203226544
 10
13.217514908476936
 20
357.82807687617714
 10
19.514503143887147
 20
393.6118360900995
 10
26.361403329385443
 20
426.49158365717915
 10
33.69730616191627
 20
456.298606838278
 10
41.45896652705279
 20
482.9299101931856
 10
49.587390753908615
 20
506.3671330417712
 10
58.029092705752554
 20
526.6972807414086
 10
66.7114106236658
 20
544.1364775649428
 10
75.4693301020365
 20
559.083215402926
 10
87.24876620960649
 20
577.3310603878867
 10
109.841003302612
 20
579.1229386639341
 10
126.51478271028272
 20
580.2650503902256
 10
143.09169380603637
 20
581.1976973878196
 10
159.5363175412993
 20
581.9102911001848
 10
175.82263324377283
 20
582.3960892485914
 10
191.9328496403127
 20
582.6471538180791
 10
207.8583254929195
 20
582.6495232208449
 10
223.59915718966238
 20
582.3779080762886
 10
239.16009633307982
 20
581.7912836593869
 10
274.6655353507661
 20
579.5767550444747
 10
255.65435239789556
 20
549.7256240038987
 10
247.65281342506285
 20
536.1145577154352
 10
239.7493681817611
 20
520.3659521359631
 10
231.9775096994474
 20
501.63091686712227
 10
224.42841692629267
 20
479.50618082353554
 10
217.1955515368569
 20
453.8857696729526
 10
210.35463712307055
 20
424.83342073353685
 10
203.96787426392711
 20
392.5082828507922
 10
198.09095084962527
 20
357.1267877504391
 10
192.7758478897544
 20
318.94428159315737
 10
188.07040626769694
 20
278.24633241074883
 10
184.01702598133176
 20
235.34402923493678
 10
180.6517722388692
 20
190.57046510176184
 10
178.0040617193832
 20
144.2773172151121
 10
176.09666759147953
 20
96.83126936401074
 10
174.94578849302292
 20
48.61031307367383
 10
174.56109827061567
 20
3.9200282680794364e-08
 10
174.94578880599886
 20
-48.61031241059396
 10
176.0966684088354
 20
-96.83126849241486
 10
178.00406295063652
 20
-144.2773163090124
 10
180.65177374735111
 20
-190.57046424280526
 10
184.01702761859428
 20
-235.34402846668735
 10
188.07040790467207
 20
-278.24633175306946
 10
192.77584942329898
 20
-318.94428105210517
 10
198.09095220793412
 20
-357.12678732250225
 10
203.9678754057431
 20
-392.508282526947
 10
210.35463803470992
 20
-424.83342050294056
 10
217.19555222365713
 20
-453.8857695252858
 10
224.42841740729452
 20
-479.50618075049243
 10
231.97751000076374
 20
-501.6309168628626
 10
239.74936833148095
 20
-520.3659521979718
 10
247.6528134468799
 20
-536.1145578418538
 10
255.6543523122508
 20
-549.7256241959602
 10
274.66553502240646
 20
-579.5767553894982
 10
239.1600959903924
 20
-581.7912837210322
 10
223.5991568479419
 20
-582.3779080117531
 10
207.85832515913233
 20
-582.6495230345378
 10
191.9328493153738
 20
-582.647153509416
 10
175.82263293098376
 20
-582.3960888208134
 10
159.5363172411692
 20
-581.9102905571112
 10
143.0916935140174
 20
-581.1976967294538
 10
126.51478242959402
 20
-580.2650496194174
 10
109.84100303371109
 20
-579.122937784592
 10
87.24876594945296
 20
-577.3310593584702
  0
LWPOLYLINE
  5
35
330
17
100
AcDbEntity
  8
GRID_REFERENCE
100
AcDbPolyline
 90
35
 70
0
 10
94.11260028655742
 20
-565.8377718318176
 10
85.69183092672573
 20
-552.7929287042793
 10
77.27157754463695
 20
-538.422469827193
 10
68.95428528969653
 20
-521.7164587736518
 10
60.807431623367435
 20
-502.0963937063194
 10
52.895273696385985
 20
-479.28274525419727
 10
45.28896684099418
 20
-453.18448005315577
 10
38.065333460915795
 20
-423.8336259060014
 10
31.300551643344328
 20
-391.3482208690059
 10
25.06430042094187
 20
-355.90960939647385
 10
19.417489278599675
 20
-317.747280758165
 10
14.412890648668226
 20
-277.1284591494872
 10
10.096460521596637
 20
-234.35082720946764
 10
6.507990460974864
 20
-189.73706308414344
 10
3.6809920767504583
 20
-143.63024305766953
 10
1.6422203420650145
 20
-96.38959716709678
 10
0.4111969933505966
 20
-48.38640288922886
 10
0.0
 20
0.0
 10
0.4111963834775551
 20
48.38640313749294
 10
1.642219428081889
 20
96.38959755691126
 10
3.6809907724690683
 20
143.6302435863446
 10
6.507988961522744
 20
189.73706375781904
 10
10.096458941265364
 20
234.35082802095368
 10
14.412889083731034
 20
277.1284600860953
 10
19.417487809162132
 20
317.7472818018493
 10
25.06429912953389
 20
355.90961052058105
 10
31.300550567348836
 20
391.3482220449537
 10
38.06533261122004
 20
423.8336271075092
 10
45.288966208967025
 20
453.18448125800325
 10
52.895273260417675
 20
479.2827464446161
 10
60.80743135878758
 20
502.09639487010764
 10
68.95428516969766
 20
521.7164599005932
 10
77.27157754261108
 20
538.4224709107244
 10
85.69183102146496
 20
552.7929297381455
 10
94.1126004708137
 20
565.8377728157407
  0
LWPOLYLINE
  5
36
330
17
100
AcDbEntity
  8
GRID_REFERENCE
100
AcDbPolyline
 90
35
 70
0
 10
110.72544632216243
 20
-567.1554014360335
 10
101.99977336477946
 20
-553.6952240339574
 10
93.27699665926768
 20
-538.976870781786
 10
84.66620056677645
 20
-522.0012628158888
 10
76.24254229708121
 20
-502.1805395538762
 10
68.0751487844338
 20
-479.22271644983124
 10
60.23789690873607
 20
-453.0255731306214
 10
52.80860631142125
 20
-423.61172527419046
 10
45.8631646266916
 20
-391.0912550167293
 10
39.47025573837141
 20
-355.63903349323795
 10
33.6895453801202
 20
-317.47966287758084
 10
28.572516087971525
 20
-276.8768655943399
 10
24.163836223256535
 20
-234.1257711473303
 10
20.502035952428724
 20
-189.54702618972615
 10
17.61944265217229
 20
-143.48191402124277
 10
15.541778679456948
 20
-96.28796570206664
 10
14.28775762292302
 20
-48.33479921074213
 10
13.868810367803002
 20
1.9828859385272582e-07
 10
14.28775702952983
 20
48.33479960930638
 10
15.54177774482762
 20
96.28796619761371
 10
17.61944134581032
 20
143.48191462797294
 10
20.50203443857221
 20
189.54702690634943
 10
24.163834621193427
 20
234.1257719737338
 10
28.57251450129647
 20
276.8768665206775
 10
33.68954389278696
 20
317.47966388609115
 10
39.47025442718668
 20
355.63903456063787
 10
45.86316353152202
 20
391.0912561204814
 10
52.808605443908654
 20
423.6117263924283
 10
60.23789626127809
 20
453.02557424542346
 10
68.07514833608272
 20
479.2227175447495
 10
76.24254202427709
 20
502.1805406205746
 10
84.66620043757318
 20
522.001263839337
 10
93.27699665182523
 20
538.9768717619821
 10
101.99977347106129
 20
553.6952249647967
 10
110.72544651232568
 20
567.15540230956
  0
LWPOLYLINE
  5
37
330
17
100
AcDbEntity
  8
GRID_REFERENCE
100
AcDbPolyline
 90
35
 70
0
 10
127.2618721548831
 20
-568.2881048982088
 10
118.34023398292562
 20
-554.5798992337683
 10
109.43425044188724
 20
-539.6315610906906
 10
100.64243870221813
 20
-522.4669746526396
 10
92.04344180060963
 20
-502.49682511622996
 10
83.71012124455929
 20
-479.42393712478344
 10
75.71908927704008
 20
-453.1407988811185
 10
68.14951182303723
 20
-423.66496148745443
 10
61.077448736814276
 20
-391.10175404168587
 10
54.57132050620385
 20
-355.621738471056
 10
48.69062472101622
 20
-317.4458867359703
 10
43.486860984637886
 20
-276.8351040489906
 10
39.00478463736551
 20
-234.08244021398755
 10
35.28298501015979
 20
-189.50699828990247
 10
32.35379363866038
 20
-143.4488510308031
 10
30.242896806359735
 20
-96.264506035258
 10
28.96894658166081
 20
-48.32264430611876
 10
28.5432560233268
 20
2.655805878046336e-07
 10
28.968946020503232
 20
48.32264486203863
 10
30.242895866497637
 20
96.26450663032259
 10
32.35379233452098
 20
143.4488517009572
 10
35.28298348742655
 20
189.5069990429107
 10
39.004783019660536
 20
234.08244105076764
 10
43.48685938005353
 20
276.83510496187137
 10
48.69062321809976
 20
317.44588770992715
 10
54.57131917916882
 20
355.621739486222
 10
61.077447626009665
 20
391.1017550785118
 10
68.14951094090289
 20
423.6649625277783
 10
75.71908861672895
 20
453.14079990974625
 10
83.71012078664903
 20
479.4239381277495
 10
92.04344152040686
 20
502.4968260857219
 10
100.64243857320385
 20
522.4669755753249
 10
109.43425044964151
 20
539.6315619735572
 10
118.34023407962208
 20
554.5799000504397
 10
127.26187235576107
 20
568.2881056640286
  0
LWPOLYLINE
  5
38
330
17
100
AcDbEntity
  8
GRID_REFERENCE
100
AcDbPolyline
 90
35
 70
0
 10
143.68851006990732
 20
-569.2122973669407
 10
134.6261539511588
 20
-555.3235290279151
 10
125.58572509746396
 20
-540.2112495549452
 10
116.66245891588514
 20
-522.9056071780511
 10
107.93493184584372
 20
-502.8204499994707
 10
99.47965462601934
 20
-479.6558874555951
 10
91.37585148330177
 20
-453.30144531407615
 10
83.70348011858074
 20
-423.7718429582331
 10
76.53814387152673
 20
-391.1694638883328
 10
69.94765982413415
 20
-355.6618749478761
 10
63.99140468802673
 20
-317.46727687535565
 10
58.721194134233265
 20
-276.8442752245043
 10
54.18224110147636
 20
-234.08416413196488
 10
50.41352830273801
 20
-189.5047549466852
 10
47.44765587273447
 20
-143.44515618167344
 10
45.31046970587178
 20
-96.26111498080836
 10
44.02069964438119
 20
-48.320674849162586
 10
43.58965991926928
 20
3.2945633498796004e-07
 10
44.02069911560449
 20
48.32067549340145
 10
45.310468774120025
 20
96.26111565009377
 10
47.447654576268576
 20
143.4451568986552
 10
50.41352677667045
 20
189.50475572328378
 10
54.182239473135404
 20
234.08416497101135
 10
58.72119251584558
 20
276.84427611978896
 10
63.99140317214809
 20
317.46727781373676
 10
69.9476584839631
 20
355.661875912018
 10
76.53814274746154
 20
391.16946486115296
 10
83.70347922404977
 20
423.77184392396833
 10
91.37585081204978
 20
453.30144625938453
 10
99.47965415982056
 20
479.6558883690723
 10
107.93493155981109
 20
502.8204508728212
 10
116.66245878530631
 20
522.90560800505
 10
125.58572508662809
 20
540.2112503245086
 10
134.62615406145287
 20
555.3235297454434
 10
143.68851027911342
 20
569.2122980211743
  0
LWPOLYLINE
  5
39
330
17
100
AcDbEntity
  8
GRID_REFERENCE
100
AcDbPolyline
 90
35
 70
0
 10
159.9749831731906
 20
-569.9180380637342
 10
150.83290410922302
 20
-555.9101012069393
 10
141.70908936924235
 20
-540.6953769268456
 10
132.70017492350016
 20
-523.3022271637009
 10
123.88884610144734
 20
-503.14156786723385
 10
115.3551881790904
 20
-479.91316478006036
 10
107.18068513767972
 20
-453.5059267146896
 10
99.44508327104576
 20
-423.9338207167862
 10
92.22249752712925
 20
-391.29799300074916
 10
85.57954425686637
 20
-355.76431772263953
 10
79.5753377015497
 20
-317.5491867953171
 10
74.26213597505128
 20
-276.9096081804344
 10
69.68581900238726
 20
-234.13564202018182
 10
65.88595193699119
 20
-189.54422090532108
 10
62.895541147983565
 20
-143.4738457943323
 10
60.74068311707893
 20
-96.2798364897339
 10
59.44024389012599
 20
-48.3299179385912
 10
59.00559147214323
 20
3.499733855946594e-07
 10
59.44024339325854
 20
48.329918642903046
 10
60.74068220125244
 20
96.27983720183664
 10
62.895539863706944
 20
143.47384653817883
 10
65.88595041209125
 20
189.5442216918827
 10
69.68581736717863
 20
234.13564285246656
 10
74.2621343465236
 20
276.90960905276773
 10
79.57533617520902
 20
317.5491876955076
 10
85.57954290581829
 20
355.7643186350011
 10
92.22249639207712
 20
391.29799390978144
 10
99.4450823662083
 20
423.93382160857607
 10
107.18068445772168
 20
453.50592757716515
 10
115.35518770665612
 20
479.9131656041621
 10
123.88884581164895
 20
503.14156864341237
 10
132.70017479126622
 20
523.3022278891799
 10
141.70908937519278
 20
540.695377592521
 10
150.83290422762093
 20
555.9101018158133
 10
159.97498338867945
 20
569.9180386037086
  0
LWPOLYLINE
  5
3A
330
17
100
AcDbEntity
  8
GRID_REFERENCE
100
AcDbPolyline
 90
35
 70
0
 10
176.0950326589023
 20
-570.3988768366096
 10
166.9391868394616
 20
-556.3367895638921
 10
157.78849844477347
 20
-541.0821973525365
 10
148.74333154619237
 20
-523.6571588127556
 10
139.8950140683091
 20
-503.46570510248193
 10
131.3297068449373
 20
-480.20587830102636
 10
123.13059671535669
 20
-453.76786429876967
 10
115.37579717442709
 20
-424.166878892376
 10
108.13666975575892
 20
-391.504527432889
 10
101.47791992178702
 20
-355.9463852693861
 10
95.45813671195964
 20
-317.70816699160855
 10
90.12998111907197
 20
-277.0461865015893
 10
85.54002752425183
 20
-234.24998474705257
 10
81.72844573508834
 20
-189.63618896056596
 10
78.72864744934354
 20
-143.54317001054852
 10
76.56696258408674
 20
-96.32623670238279
 10
75.26237413466552
 20
-48.353175682395836
 10
74.82630016636615
 20
3.769715880683961e-07
 10
75.2623736709175
 20
48.35317641121379
 10
76.56696169045028
 20
96.32623743370797
 10
78.7286461799012
 20
143.54317076266884
 10
81.72844421411014
 20
189.63618974430472
 10
85.5400258850134
 20
234.24998556407996
 10
90.1299794830056
 20
277.046187345521
 10
95.45813517720599
 20
317.70816785022026
 10
101.47791856178452
 20
355.94638612769535
 10
108.13666861186516
 20
391.50452827648576
 10
115.37579626156196
 20
424.16687970861943
 10
123.13059602901876
 20
453.76786507674376
 10
131.329706367966
 20
480.20587903324736
 10
139.8950137761912
 20
503.4657057800805
 10
148.7433314160658
 20
523.6571594367392
 10
157.78849844535512
 20
541.0821979091114
 10
166.9391869573929
 20
556.3367900588952
 10
176.09503288472027
 20
570.3988772623998
  0
LWPOLYLINE
  5
3B
330
17
100
AcDbEntity
  8
GRID_REFERENCE
100
AcDbPolyline
 90
35
 70
0
 10
192.02724145984186
 20
-570.6471674210387
 10
182.92512012725044
 20
-556.6033105181702
 10
173.80712530864935
 20
-541.3757598105716
 10
164.7792759856706
 20
-523.9769791843539
 10
155.94496327225704
 20
-503.8023179702064
 10
147.39890082303967
 20
-480.54713290691336
 10
139.22571427710898
 20
-454.10335605075386
 10
131.5003077548802
 20
-424.489011582329
 10
124.29003988482276
 20
-391.8077964381657
 10
117.65702809166424
 20
-356.22650561656684
 10
111.65898700890118
 20
-317.96151721218325
 10
106.34874988928449
 20
-277.2695720053394
 10
101.77338766536471
 20
-234.44059269596332
 10
97.97348921983021
 20
-189.79161742005724
 10
94.98270150674205
 20
-143.6614664928672
 10
92.82744321630575
 20
-96.40592413564394
 10
91.52670602108446
 20
-48.39326586932096
 10
91.09189607120553
 20
3.7100715337703864e-07
 10
91.52670559398281
 20
48.39326660085949
 10
92.82744234908911
 20
96.40592486474563
 10
94.98270025373374
 20
143.66146723902622
 10
97.97348770392863
 20
189.79161819120566
 10
101.77338602350028
 20
234.44059349157408
 10
106.34874824704634
 20
277.26957281673214
 10
111.65898546735872
 20
317.9615180258584
 10
117.65702672474868
 20
356.2265064176873
 10
124.29003873446109
 20
391.8077972129263
 10
131.5003068366994
 20
424.489012319235
 10
139.22571358726816
 20
454.103356740314
 10
147.39890034432986
 20
480.54713354255586
 10
155.94496298155482
 20
503.8023185459985
 10
164.77927585539382
 20
523.9769796972461
 10
173.80712531606625
 20
541.3757602560743
 10
182.9251202566797
 20
556.6033108971266
 10
192.0272416942552
 20
570.6471677289768
  0
LWPOLYLINE
  5
3C
330
17
100
AcDbEntity
  8
GRID_REFERENCE
100
AcDbPolyline
 90
35
 70
0
 10
207.755692871327
 20
-570.6495076312221
 10
198.77249758888027
 20
-556.706595876311
 10
189.7469749870823
 20
-541.5803616887534
 10
180.7930896535622
 20
-524.2705714773294
 10
172.02859690482225
 20
-504.1634598957576
 10
163.5575431074646
 20
-480.9518172110262
 10
155.4651273174333
 20
-454.52965824403424
 10
147.82176167686836
 20
-424.9187909638925
 10
140.68994280245687
 20
-392.22655003108724
 10
134.12870356625484
 20
-356.62265561226104
 10
128.19445671871947
 20
-318.3257501765005
 10
122.93974633696247
 20
-277.59435662633604
 10
118.41167261019157
 20
-234.71985598492697
 10
114.65081637555866
 20
-190.02053135977428
 10
111.69069898900665
 20
-143.83630462173443
 10
109.55754395822999
 20
-96.523964307321
 10
108.27014884150465
 20
-48.45272612201914
 10
107.83978784864628
 20
3.5701592618589636e-07
 10
108.27014845345042
 20
48.452726828243456
 10
109.55754311913637
 20
96.52396501958809
 10
111.69069775123086
 20
143.83630535197804
 10
114.6508148636657
 20
190.02053211454552
 10
118.41167096619841
 20
234.7198567574697
 10
122.9397446899752
 20
277.59435740334084
 10
128.19445517241388
 20
318.3257509424453
 10
134.12870219489636
 20
356.6226563519873
 10
140.68994164897214
 20
392.2265507317409
 10
147.82176075694971
 20
424.91879161530926
 10
155.46512662737837
 20
454.52965883877033
 10
163.55754263004494
 20
480.95181774379535
 10
172.02859661638348
 20
504.1634603637693
 10
180.79308952673526
 20
524.2705718753397
 10
189.74697500335523
 20
541.5803620215992
 10
198.7724977224855
 20
556.7065961328699
 10
207.75569311266707
 20
570.6495078183178
  0
LWPOLYLINE
  5
3D
330
17
100
AcDbEntity
  8
GRID_REFERENCE
100
AcDbPolyline
 90
35
 70
0
 10
223.2695746917009
 20
-570.381808728939
 10
214.46590784841945
 20
-556.6366994877525
 10
205.59159651372093
 20
-541.6980609815811
 10
196.77136523423184
 20
-524.5488460686026
 10
188.13800906842192
 20
-504.565955377522
 10
179.8031372777155
 20
-481.4404457600819
 10
171.85075051617468
 20
-455.0691926436618
 10
164.34607434897325
 20
-425.47898717679544
 10
157.3465760119323
 20
-392.7826411525599
 10
150.90792276073103
 20
-357.1549161803806
 10
145.08464373306467
 20
-318.8186870465047
 10
139.92822137615067
 20
-278.03587038121475
 10
135.48499345146283
 20
-235.1005317352799
 10
131.79483315301513
 20
-190.33310486444702
 10
128.89057042164674
 20
-144.0752913203819
 10
126.7978057305685
 20
-96.68541633224199
 10
125.53484515839928
 20
-48.53408222229192
 10
125.1126554294421
 20
3.2795608476987837e-07
 10
125.53484481352567
 20
48.53408289189413
 10
126.79780491786599
 20
96.68541701172876
 10
128.8905691936745
 20
144.07529203769465
 10
131.79483164211587
 20
190.3331056094006
 10
135.48499180514798
 20
235.10053248928145
 10
139.92821972639854
 20
278.0358711246556
 10
145.08464218513217
 20
318.8186877615971
 10
150.90792138909976
 20
357.1549168525364
 10
157.34657485967293
 20
392.78264177083685
 10
164.34607343183293
 20
425.4789877336836
 10
171.85074983002042
 20
455.0691931345624
 10
179.80313680501098
 20
481.44044618181823
 10
188.1380087847971
 20
504.5659557297765
 10
196.77136511344403
 20
524.5488463481325
 10
205.59159653031622
 20
541.6980611927778
 10
214.4659079782997
 20
556.6366996220631
 10
223.269574938534
 20
570.3818087960587
  0
LWPOLYLINE
  5
3E
330
17
100
AcDbEntity
  8
GRID_REFERENCE
100
AcDbPolyline
 90
35
 70
0
 10
238.56047132862273
 20
-569.8053646395426
 10
229.9961145600631
 20
-556.3767387084285
 10
221.3358162296174
 20
-541.73355335842
 10
212.71709770656147
 20
-524.8347413326566
 10
204.28535741405003
 20
-505.04529542217705
 10
196.15599342161275
 20
-482.0549576666376
 10
188.41034723643327
 20
-455.7653767354169
 10
181.1087750260143
 20
-426.21119580799626
 10
174.30402847665522
 20
-393.5140095449363
 10
168.04797012162362
 20
-357.8567748448717
 10
162.39218961347066
 20
-319.46918819179405
 10
157.3858164474758
 20
-278.6184602425437
 10
153.07319387733344
 20
-235.60264445254091
 10
149.49245512607249
 20
-190.74520781162437
 10
146.6749367103248
 20
-144.39025724526016
 10
144.645027097336
 20
-96.89813957020982
 10
143.42013916710115
 20
-48.6412567239071
 10
143.0106965062665
 20
2.9670163788427335e-07
 10
143.42013887150964
 20
48.64125728275059
 10
144.6450262946829
 20
96.89814023774792
 10
146.67493548217826
 20
144.3902579786985
 10
149.49245361312717
 20
190.74520856859158
 10
153.0731922305556
 20
235.60264519929822
 10
157.3858147995421
 20
278.61846095407725
 10
162.39218806980955
 20
319.4691888504831
 10
168.04796875608653
 20
357.85677543912954
 10
174.30402733194558
 20
393.5140100682022
 10
181.10877411721307
 20
426.21119625736526
 10
188.41034655883863
 20
455.76537711050804
 10
196.15599295708702
 20
482.0549579676223
 10
204.28535713745944
 20
505.04529565083664
 10
212.7170975916544
 20
524.8347414887427
 10
221.3358162498514
 20
541.7335534412875
 10
229.9961147050289
 20
556.3767387240275
 10
238.56047157499805
 20
569.8053645827245
  0
LWPOLYLINE
  5
3F
330
17
100
AcDbEntity
  8
GRID_REFERENCE
100
AcDbPolyline
 90
35
 70
0
 10
253.61741333603993
 20
-568.8662402245023
 10
245.41785633836543
 20
-555.9913941195452
 10
237.10620019032294
 20
-541.8528008755469
 10
228.8306062040683
 20
-525.3626419315093
 10
220.7452515490687
 20
-505.8718845460324
 10
212.96731024861776
 20
-483.07644302252345
 10
205.57537109403233
 20
-456.892556542706
 10
198.62431311035186
 20
-427.3724431428444
 10
192.160021600313
 20
-394.6549104712329
 10
186.22729879558034
 20
-358.9374786791675
 10
180.87125277218385
 20
-320.46084536474496
 10
176.13541008223623
 20
-279.4999525514519
 10
172.05940543973864
 20
-236.35818567362833
 10
168.67748178916682
 20
-191.36283567549975
 10
166.01783397394766
 20
-144.86097832970987
 10
164.10242074843765
 20
-97.21546740134406
 10
162.94692183044333
 20
-48.80096562386323
 10
162.56072251085556
 20
0.0
 10
162.94692151603073
 20
48.80096618440696
 10
164.1024199272862
 20
97.21546815722603
 10
166.0178327382755
 20
144.86097914802065
 10
168.6774802770983
 20
191.36283648285888
 10
172.0594038010588
 20
236.35818642717942
 10
176.13540844703212
 20
279.499953227545
 10
180.87125124436653
 20
320.4608459518959
 10
186.2272974474165
 20
358.9374791743707
 10
192.16002047325557
 20
394.6549108767563
 10
198.62431221816578
 20
427.3724434636066
 10
205.57537043151325
 20
456.89255678433295
 10
212.9673097969349
 20
483.0764431896979
 10
220.74525128249886
 20
505.8718846422807
 10
228.83060609503377
 20
525.3626419583915
 10
237.10620021473
 20
541.8528008340223
 10
245.41785647437814
 20
555.9913940097978
 10
253.61741357594212
 20
568.8662400475355
  0
TEXT
  5
40
330
17
100
AcDbEntity
  8
TEXT
100
AcDbText
 10
0.0
 20
605.6495078183178
 30
0.0
 40
10.0
  1
Q02_SHOULDER_BODY_OUTER_DRAFT
100
AcDbText
  0
TEXT
  5
41
330
17
100
AcDbEntity
  8
TEXT
100
AcDbText
 10
0.0
 20
590.6495078183178
 30
0.0
 40
7.0
  1
MM. PROTOTYPE ONLY. NOT PRODUCTION CUTTING.
100
AcDbText
  0
ENDSEC
  0
SECTION
  2
OBJECTS
  0
DICTIONARY
  5
A
330
0
100
AcDbDictionary
281
1
  3
ACAD_COLOR
350
B
  3
ACAD_GROUP
350
C
  3
ACAD_LAYOUT
350
D
  3
ACAD_MATERIAL
350
E
  3
ACAD_MLEADERSTYLE
350
F
  3
ACAD_MLINESTYLE
350
10
  3
ACAD_PLOTSETTINGS
350
11
  3
ACAD_PLOTSTYLENAME
350
12
  3
ACAD_SCALELIST
350
14
  3
ACAD_TABLESTYLE
350
15
  3
ACAD_VISUALSTYLE
350
16
  3
EZDXF_META
350
2D
  0
DICTIONARY
  5
B
330
A
100
AcDbDictionary
281
1
  0
DICTIONARY
  5
C
330
A
100
AcDbDictionary
281
1
  0
DICTIONARY
  5
D
330
A
100
AcDbDictionary
281
1
  3
Model
350
1A
  3
Layout1
350
1E
  0
DICTIONARY
  5
E
330
A
100
AcDbDictionary
281
1
  3
ByBlock
350
1F
  3
ByLayer
350
20
  3
Global
350
21
  0
DICTIONARY
  5
F
330
A
100
AcDbDictionary
281
1
  3
Standard
350
2C
  0
DICTIONARY
  5
10
330
A
100
AcDbDictionary
281
1
  3
Standard
350
22
  0
DICTIONARY
  5
11
330
A
100
AcDbDictionary
281
1
  0
ACDBDICTIONARYWDFLT
  5
12
330
A
100
AcDbDictionary
281
1
  3
Normal
350
13
100
AcDbDictionaryWithDefault
340
13
  0
ACDBPLACEHOLDER
  5
13
330
12
  0
DICTIONARY
  5
14
330
A
100
AcDbDictionary
281
1
  0
DICTIONARY
  5
15
330
A
100
AcDbDictionary
281
1
  0
DICTIONARY
  5
16
330
A
100
AcDbDictionary
281
1
  0
LAYOUT
  5
1A
330
D
100
AcDbPlotSettings
  1

  4
A3
  6

 40
7.5
 41
20.0
 42
7.5
 43
20.0
 44
420.0
 45
297.0
 46
0.0
 47
0.0
 48
0.0
 49
0.0
140
0.0
141
0.0
142
1.0
143
1.0
 70
1024
 72
1
 73
0
 74
5
  7

 75
16
 76
0
 77
2
 78
300
147
1.0
148
0.0
149
0.0
100
AcDbLayout
  1
Model
 70
1
 71
0
 10
0.0
 20
0.0
 11
420.0
 21
297.0
 12
0.0
 22
0.0
 32
0.0
 14
1e+20
 24
1e+20
 34
1e+20
 15
-1e+20
 25
-1e+20
 35
-1e+20
146
0.0
 13
0.0
 23
0.0
 33
0.0
 16
1.0
 26
0.0
 36
0.0
 17
0.0
 27
1.0
 37
0.0
 76
1
330
17
  0
LAYOUT
  5
1E
330
D
100
AcDbPlotSettings
  1

  4
A3
  6

 40
7.5
 41
20.0
 42
7.5
 43
20.0
 44
420.0
 45
297.0
 46
0.0
 47
0.0
 48
0.0
 49
0.0
140
0.0
141
0.0
142
1.0
143
1.0
 70
0
 72
1
 73
0
 74
5
  7

 75
16
 76
0
 77
2
 78
300
147
1.0
148
0.0
149
0.0
100
AcDbLayout
  1
Layout1
 70
1
 71
1
 10
0.0
 20
0.0
 11
420.0
 21
297.0
 12
0.0
 22
0.0
 32
0.0
 14
1e+20
 24
1e+20
 34
1e+20
 15
-1e+20
 25
-1e+20
 35
-1e+20
146
0.0
 13
0.0
 23
0.0
 33
0.0
 16
1.0
 26
0.0
 36
0.0
 17
0.0
 27
1.0
 37
0.0
 76
1
330
1B
  0
MATERIAL
  5
1F
102
{ACAD_REACTORS
330
E
102
}
330
E
100
AcDbMaterial
  1
ByBlock
  2

 70
0
 40
1.0
 71
1
 41
1.0
 91
-1023410177
 42
1.0
 72
1
  3

 73
1
 74
1
 75
1
 44
0.5
 73
0
 45
1.0
 46
1.0
 77
1
  4

 78
1
 79
1
170
1
 48
1.0
171
1
  6

172
1
173
1
174
1
140
1.0
141
1.0
175
1
  7

176
1
177
1
178
1
143
1.0
179
1
  8

270
1
271
1
272
1
145
1.0
146
1.0
273
1
  9

274
1
275
1
276
1
 42
1.0
 72
1
  3

 73
1
 74
1
 75
1
 94
63
  0
MATERIAL
  5
20
102
{ACAD_REACTORS
330
E
102
}
330
E
100
AcDbMaterial
  1
ByLayer
  2

 70
0
 40
1.0
 71
1
 41
1.0
 91
-1023410177
 42
1.0
 72
1
  3

 73
1
 74
1
 75
1
 44
0.5
 73
0
 45
1.0
 46
1.0
 77
1
  4

 78
1
 79
1
170
1
 48
1.0
171
1
  6

172
1
173
1
174
1
140
1.0
141
1.0
175
1
  7

176
1
177
1
178
1
143
1.0
179
1
  8

270
1
271
1
272
1
145
1.0
146
1.0
273
1
  9

274
1
275
1
276
1
 42
1.0
 72
1
  3

 73
1
 74
1
 75
1
 94
63
  0
MATERIAL
  5
21
102
{ACAD_REACTORS
330
E
102
}
330
E
100
AcDbMaterial
  1
Global
  2

 70
0
 40
1.0
 71
1
 41
1.0
 91
-1023410177
 42
1.0
 72
1
  3

 73
1
 74
1
 75
1
 44
0.5
 73
0
 45
1.0
 46
1.0
 77
1
  4

 78
1
 79
1
170
1
 48
1.0
171
1
  6

172
1
173
1
174
1
140
1.0
141
1.0
175
1
  7

176
1
177
1
178
1
143
1.0
179
1
  8

270
1
271
1
272
1
145
1.0
146
1.0
273
1
  9

274
1
275
1
276
1
 42
1.0
 72
1
  3

 73
1
 74
1
 75
1
 94
63
  0
MLINESTYLE
  5
22
102
{ACAD_REACTORS
330
10
102
}
330
10
100
AcDbMlineStyle
  2
Standard
 70
0
  3

 62
256
 51
90.0
 52
90.0
 71
2
 49
0.5
 62
256
  6
BYLAYER
 49
-0.5
 62
256
  6
BYLAYER
  0
MLEADERSTYLE
  5
2C
102
{ACAD_REACTORS
330
F
102
}
330
F
100
AcDbMLeaderStyle
179
2
170
2
171
1
172
0
 90
2
 40
0.0
 41
0.0
173
1
 91
-1056964608
 92
-2
290
1
 42
2.0
291
1
 43
8.0
  3
Standard
 44
4.0
300

342
29
174
1
175
1
176
0
178
1
 93
-1056964608
 45
4.0
292
0
297
0
 46
4.0
 94
-1056964608
 47
1.0
 49
1.0
140
1.0
294
1
141
0.0
177
0
142
1.0
295
0
296
0
143
3.75
271
0
272
9
273
9
  0
DICTIONARY
  5
2D
330
A
100
AcDbDictionary
280
1
281
1
  3
CREATED_BY_EZDXF
350
2E
  3
WRITTEN_BY_EZDXF
350
44
  0
DICTIONARYVAR
  5
2E
330
2D
100
DictionaryVariables
280
0
  1
1.4.4 @ 2026-10-02T11:32:45.445631+00:00
  0
DICTIONARYVAR
  5
44
330
2D
100
DictionaryVariables
280
0
  1
1.4.4 @ 2026-10-02T11:32:45.449229+00:00
  0
ENDSEC
  0
EOF
