  0
SECTION
  2
HEADER
  9
$ACADVER
  1
AC1024
  9
$ACADMAINTVER
 70
6
  9
$DWGCODEPAGE
  3
ANSI_1252
  9
$LASTSAVEDBY
  1
ezdxf
  9
$INSBASE
 10
0.0
 20
0.0
 30
0.0
  9
$EXTMIN
 10
1e+20
 20
1e+20
 30
1e+20
  9
$EXTMAX
 10
-1e+20
 20
-1e+20
 30
-1e+20
  9
$LIMMIN
 10
0.0
 20
0.0
  9
$LIMMAX
 10
420.0
 20
297.0
  9
$ORTHOMODE
 70
0
  9
$REGENMODE
 70
1
  9
$FILLMODE
 70
1
  9
$QTEXTMODE
 70
0
  9
$MIRRTEXT
 70
1
  9
$LTSCALE
 40
1.0
  9
$ATTMODE
 70
1
  9
$TEXTSIZE
 40
2.5
  9
$TRACEWID
 40
1.0
  9
$TEXTSTYLE
  7
Standard
  9
$CLAYER
  8
0
  9
$CELTYPE
  6
ByLayer
  9
$CECOLOR
 62
256
  9
$CELTSCALE
 40
1.0
  9
$DISPSILH
 70
0
  9
$DIMSCALE
 40
1.0
  9
$DIMASZ
 40
2.5
  9
$DIMEXO
 40
0.625
  9
$DIMDLI
 40
3.75
  9
$DIMRND
 40
0.0
  9
$DIMDLE
 40
0.0
  9
$DIMEXE
 40
1.25
  9
$DIMTP
 40
0.0
  9
$DIMTM
 40
0.0
  9
$DIMTXT
 40
2.5
  9
$DIMCEN
 40
2.5
  9
$DIMTSZ
 40
0.0
  9
$DIMTOL
 70
0
  9
$DIMLIM
 70
0
  9
$DIMTIH
 70
0
  9
$DIMTOH
 70
0
  9
$DIMSE1
 70
0
  9
$DIMSE2
 70
0
  9
$DIMTAD
 70
1
  9
$DIMZIN
 70
8
  9
$DIMBLK
  1

  9
$DIMASO
 70
1
  9
$DIMSHO
 70
1
  9
$DIMPOST
  1

  9
$DIMAPOST
  1

  9
$DIMALT
 70
0
  9
$DIMALTD
 70
3
  9
$DIMALTF
 40
0.03937007874
  9
$DIMLFAC
 40
1.0
  9
$DIMTOFL
 70
1
  9
$DIMTVP
 40
0.0
  9
$DIMTIX
 70
0
  9
$DIMSOXD
 70
0
  9
$DIMSAH
 70
0
  9
$DIMBLK1
  1

  9
$DIMBLK2
  1

  9
$DIMSTYLE
  2
ISO-25
  9
$DIMCLRD
 70
0
  9
$DIMCLRE
 70
0
  9
$DIMCLRT
 70
0
  9
$DIMTFAC
 40
1.0
  9
$DIMGAP
 40
0.625
  9
$DIMJUST
 70
0
  9
$DIMSD1
 70
0
  9
$DIMSD2
 70
0
  9
$DIMTOLJ
 70
0
  9
$DIMTZIN
 70
8
  9
$DIMALTZ
 70
0
  9
$DIMALTTZ
 70
0
  9
$DIMUPT
 70
0
  9
$DIMDEC
 70
2
  9
$DIMTDEC
 70
2
  9
$DIMALTU
 70
2
  9
$DIMALTTD
 70
3
  9
$DIMTXSTY
  7
Standard
  9
$DIMAUNIT
 70
0
  9
$DIMADEC
 70
0
  9
$DIMALTRND
 40
0.0
  9
$DIMAZIN
 70
0
  9
$DIMDSEP
 70
44
  9
$DIMATFIT
 70
3
  9
$DIMFRAC
 70
0
  9
$DIMLDRBLK
  1

  9
$DIMLUNIT
 70
2
  9
$DIMLWD
 70
-2
  9
$DIMLWE
 70
-2
  9
$DIMTMOVE
 70
0
  9
$DIMFXL
 40
1.0
  9
$DIMFXLON
 70
0
  9
$DIMJOGANG
 40
0.785398163397
  9
$DIMTFILL
 70
0
  9
$DIMTFILLCLR
 70
0
  9
$DIMARCSYM
 70
0
  9
$DIMLTYPE
  6

  9
$DIMLTEX1
  6

  9
$DIMLTEX2
  6

  9
$DIMTXTDIRECTION
 70
0
  9
$LUNITS
 70
2
  9
$LUPREC
 70
4
  9
$SKETCHINC
 40
1.0
  9
$FILLETRAD
 40
10.0
  9
$AUNITS
 70
0
  9
$AUPREC
 70
2
  9
$MENU
  1
.
  9
$ELEVATION
 40
0.0
  9
$PELEVATION
 40
0.0
  9
$THICKNESS
 40
0.0
  9
$LIMCHECK
 70
0
  9
$CHAMFERA
 40
0.0
  9
$CHAMFERB
 40
0.0
  9
$CHAMFERC
 40
0.0
  9
$CHAMFERD
 40
0.0
  9
$SKPOLY
 70
0
  9
$TDCREATE
 40
2461316.481076389
  9
$TDUCREATE
 40
2458532.153996898
  9
$TDUPDATE
 40
2461316.481076389
  9
$TDUUPDATE
 40
2458532.1544311
  9
$TDINDWG
 40
0.0
  9
$TDUSRTIMER
 40
0.0
  9
$USRTIMER
 70
1
  9
$ANGBASE
 50
0.0
  9
$ANGDIR
 70
0
  9
$PDMODE
 70
0
  9
$PDSIZE
 40
0.0
  9
$PLINEWID
 40
0.0
  9
$SPLFRAME
 70
0
  9
$SPLINETYPE
 70
6
  9
$SPLINESEGS
 70
8
  9
$HANDSEED
  5
45
  9
$SURFTAB1
 70
6
  9
$SURFTAB2
 70
6
  9
$SURFTYPE
 70
6
  9
$SURFU
 70
6
  9
$SURFV
 70
6
  9
$UCSBASE
  2

  9
$UCSNAME
  2

  9
$UCSORG
 10
0.0
 20
0.0
 30
0.0
  9
$UCSXDIR
 10
1.0
 20
0.0
 30
0.0
  9
$UCSYDIR
 10
0.0
 20
1.0
 30
0.0
  9
$UCSORTHOREF
  2

  9
$UCSORTHOVIEW
 70
0
  9
$UCSORGTOP
 10
0.0
 20
0.0
 30
0.0
  9
$UCSORGBOTTOM
 10
0.0
 20
0.0
 30
0.0
  9
$UCSORGLEFT
 10
0.0
 20
0.0
 30
0.0
  9
$UCSORGRIGHT
 10
0.0
 20
0.0
 30
0.0
  9
$UCSORGFRONT
 10
0.0
 20
0.0
 30
0.0
  9
$UCSORGBACK
 10
0.0
 20
0.0
 30
0.0
  9
$PUCSBASE
  2

  9
$PUCSNAME
  2

  9
$PUCSORG
 10
0.0
 20
0.0
 30
0.0
  9
$PUCSXDIR
 10
1.0
 20
0.0
 30
0.0
  9
$PUCSYDIR
 10
0.0
 20
1.0
 30
0.0
  9
$PUCSORTHOREF
  2

  9
$PUCSORTHOVIEW
 70
0
  9
$PUCSORGTOP
 10
0.0
 20
0.0
 30
0.0
  9
$PUCSORGBOTTOM
 10
0.0
 20
0.0
 30
0.0
  9
$PUCSORGLEFT
 10
0.0
 20
0.0
 30
0.0
  9
$PUCSORGRIGHT
 10
0.0
 20
0.0
 30
0.0
  9
$PUCSORGFRONT
 10
0.0
 20
0.0
 30
0.0
  9
$PUCSORGBACK
 10
0.0
 20
0.0
 30
0.0
  9
$USERI1
 70
0
  9
$USERI2
 70
0
  9
$USERI3
 70
0
  9
$USERI4
 70
0
  9
$USERI5
 70
0
  9
$USERR1
 40
0.0
  9
$USERR2
 40
0.0
  9
$USERR3
 40
0.0
  9
$USERR4
 40
0.0
  9
$USERR5
 40
0.0
  9
$WORLDVIEW
 70
1
  9
$SHADEDGE
 70
3
  9
$SHADEDIF
 70
70
  9
$TILEMODE
 70
1
  9
$MAXACTVP
 70
64
  9
$PINSBASE
 10
0.0
 20
0.0
 30
0.0
  9
$PLIMCHECK
 70
0
  9
$PEXTMIN
 10
1e+20
 20
1e+20
 30
1e+20
  9
$PEXTMAX
 10
-1e+20
 20
-1e+20
 30
-1e+20
  9
$PLIMMIN
 10
0.0
 20
0.0
  9
$PLIMMAX
 10
420.0
 20
297.0
  9
$UNITMODE
 70
0
  9
$VISRETAIN
 70
1
  9
$PLINEGEN
 70
0
  9
$PSLTSCALE
 70
1
  9
$TREEDEPTH
 70
3020
  9
$CMLSTYLE
  2
Standard
  9
$CMLJUST
 70
0
  9
$CMLSCALE
 40
20.0
  9
$PROXYGRAPHICS
 70
1
  9
$MEASUREMENT
 70
1
  9
$CELWEIGHT
370
-1
  9
$ENDCAPS
280
0
  9
$JOINSTYLE
280
0
  9
$LWDISPLAY
290
0
  9
$INSUNITS
 70
4
  9
$HYPERLINKBASE
  1

  9
$STYLESHEET
  1

  9
$XEDIT
290
1
  9
$CEPSNTYPE
380
0
  9
$PSTYLEMODE
290
1
  9
$FINGERPRINTGUID
  2
{A2587DEB-CF2E-40CF-AFAC-F5B6F4E29D8B}
  9
$VERSIONGUID
  2
{37AB7D35-66EC-4D7D-BAE5-65CA48A5E255}
  9
$EXTNAMES
290
1
  9
$PSVPSCALE
 40
0.0
  9
$OLESTARTUP
290
0
  9
$SORTENTS
280
127
  9
$INDEXCTL
280
0
  9
$HIDETEXT
280
1
  9
$XCLIPFRAME
280
1
  9
$HALOGAP
280
0
  9
$OBSCOLOR
 70
257
  9
$OBSLTYPE
280
0
  9
$INTERSECTIONDISPLAY
280
0
  9
$INTERSECTIONCOLOR
 70
257
  9
$DIMASSOC
280
2
  9
$PROJECTNAME
  1

  9
$CAMERADISPLAY
290
0
  9
$LENSLENGTH
 40
50.0
  9
$CAMERAHEIGHT
 40
0.0
  9
$STEPSPERSEC
 40
24.0
  9
$STEPSIZE
 40
100.0
  9
$3DDWFPREC
 40
2.0
  9
$PSOLWIDTH
 40
0.005
  9
$PSOLHEIGHT
 40
0.08
  9
$LOFTANG1
 40
1.570796326795
  9
$LOFTANG2
 40
1.570796326795
  9
$LOFTMAG1
 40
0.0
  9
$LOFTMAG2
 40
0.0
  9
$LOFTPARAM
 70
7
  9
$LOFTNORMALS
280
1
  9
$LATITUDE
 40
37.795
  9
$LONGITUDE
 40
-122.394
  9
$NORTHDIRECTION
 40
0.0
  9
$TIMEZONE
 70
-8000
  9
$LIGHTGLYPHDISPLAY
280
1
  9
$TILEMODELIGHTSYNCH
280
1
  9
$CMATERIAL
347
20
  9
$SOLIDHIST
280
0
  9
$SHOWHIST
280
1
  9
$DWFFRAME
280
2
  9
$DGNFRAME
280
2
  9
$REALWORLDSCALE
290
1
  9
$INTERFERECOLOR
 62
256
  9
$CSHADOW
280
0
  9
$SHADOWPLANELOCATION
 40
0.0
  0
ENDSEC
  0
SECTION
  2
CLASSES
  0
CLASS
  1
ACDBDICTIONARYWDFLT
  2
AcDbDictionaryWithDefault
  3
ObjectDBX Classes
 90
0
 91
0
280
0
281
0
  0
CLASS
  1
SUN
  2
AcDbSun
  3
SCENEOE
 90
1153
 91
0
280
0
281
0
  0
CLASS
  1
VISUALSTYLE
  2
AcDbVisualStyle
  3
ObjectDBX Classes
 90
4095
 91
0
280
0
281
0
  0
CLASS
  1
MATERIAL
  2
AcDbMaterial
  3
ObjectDBX Classes
 90
1153
 91
0
280
0
281
0
  0
CLASS
  1
SCALE
  2
AcDbScale
  3
ObjectDBX Classes
 90
1153
 91
0
280
0
281
0
  0
CLASS
  1
TABLESTYLE
  2
AcDbTableStyle
  3
ObjectDBX Classes
 90
4095
 91
0
280
0
281
0
  0
CLASS
  1
MLEADERSTYLE
  2
AcDbMLeaderStyle
  3
ACDB_MLEADERSTYLE_CLASS
 90
4095
 91
0
280
0
281
0
  0
CLASS
  1
DICTIONARYVAR
  2
AcDbDictionaryVar
  3
ObjectDBX Classes
 90
0
 91
0
280
0
281
0
  0
CLASS
  1
CELLSTYLEMAP
  2
AcDbCellStyleMap
  3
ObjectDBX Classes
 90
1152
 91
0
280
0
281
0
  0
CLASS
  1
MENTALRAYRENDERSETTINGS
  2
AcDbMentalRayRenderSettings
  3
SCENEOE
 90
1024
 91
0
280
0
281
0
  0
CLASS
  1
ACDBDETAILVIEWSTYLE
  2
AcDbDetailViewStyle
  3
ObjectDBX Classes
 90
1025
 91
0
280
0
281
0
  0
CLASS
  1
ACDBSECTIONVIEWSTYLE
  2
AcDbSectionViewStyle
  3
ObjectDBX Classes
 90
1025
 91
0
280
0
281
0
  0
CLASS
  1
RASTERVARIABLES
  2
AcDbRasterVariables
  3
ISM
 90
0
 91
0
280
0
281
0
  0
CLASS
  1
ACDBPLACEHOLDER
  2
AcDbPlaceHolder
  3
ObjectDBX Classes
 90
0
 91
0
280
0
281
0
  0
CLASS
  1
LAYOUT
  2
AcDbLayout
  3
ObjectDBX Classes
 90
0
 91
0
280
0
281
0
  0
ENDSEC
  0
SECTION
  2
TABLES
  0
TABLE
  2
VPORT
  5
8
330
0
100
AcDbSymbolTable
 70
1
  0
VPORT
  5
23
330
8
100
AcDbSymbolTableRecord
100
AcDbViewportTableRecord
  2
*Active
 70
0
 10
0.0
 20
0.0
 11
1.0
 21
1.0
 12
0.0
 22
0.0
 13
0.0
 23
0.0
 14
0.5
 24
0.5
 15
0.5
 25
0.5
 16
0.0
 26
0.0
 36
1.0
 17
0.0
 27
0.0
 37
0.0
 40
1000.0
 41
1.34
 42
50.0
 43
0.0
 44
0.0
 50
0.0
 51
0.0
 71
0
 72
1000
 73
1
 74
3
 75
0
 76
0
 77
0
 78
0
281
0
 65
0
146
0.0
  0
ENDTAB
  0
TABLE
  2
LTYPE
  5
2
330
0
100
AcDbSymbolTable
 70
3
  0
LTYPE
  5
24
330
2
100
AcDbSymbolTableRecord
100
AcDbLinetypeTableRecord
  2
ByBlock
 70
0
  3

 72
65
 73
0
 40
0.0
  0
LTYPE
  5
25
330
2
100
AcDbSymbolTableRecord
100
AcDbLinetypeTableRecord
  2
ByLayer
 70
0
  3

 72
65
 73
0
 40
0.0
  0
LTYPE
  5
26
330
2
100
AcDbSymbolTableRecord
100
AcDbLinetypeTableRecord
  2
Continuous
 70
0
  3

 72
65
 73
0
 40
0.0
  0
ENDTAB
  0
TABLE
  2
LAYER
  5
1
330
0
100
AcDbSymbolTable
 70
6
  0
LAYER
  5
27
330
1
100
AcDbSymbolTableRecord
100
AcDbLayerTableRecord
  2
0
 70
0
 62
7
  6
Continuous
370
-3
390
13
347
21
  0
LAYER
  5
28
330
1
100
AcDbSymbolTableRecord
100
AcDbLayerTableRecord
  2
Defpoints
 70
0
 62
7
  6
Continuous
290
0
370
-3
390
13
347
21
  0
LAYER
  5
2F
330
1
100
AcDbSymbolTableRecord
100
AcDbLayerTableRecord
  2
SEAM
 70
0
 62
5
  6
Continuous
370
-3
390
13
347
21
  0
LAYER
  5
30
330
1
100
AcDbSymbolTableRecord
100
AcDbLayerTableRecord
  2
CUT_DRAFT
 70
0
 62
1
  6
Continuous
370
-3
390
13
347
21
  0
LAYER
  5
31
330
1
100
AcDbSymbolTableRecord
100
AcDbLayerTableRecord
  2
GRID_REFERENCE
 70
0
 62
8
  6
Continuous
370
-3
390
13
347
21
  0
LAYER
  5
32
330
1
100
AcDbSymbolTableRecord
100
AcDbLayerTableRecord
  2
TEXT
 70
0
 62
7
  6
Continuous
370
-3
390
13
347
21
  0
ENDTAB
  0
TABLE
  2
STYLE
  5
5
330
0
100
AcDbSymbolTable
 70
1
  0
STYLE
  5
29
330
5
100
AcDbSymbolTableRecord
100
AcDbTextStyleTableRecord
  2
Standard
 70
0
 40
0.0
 41
1.0
 50
0.0
 71
0
 42
2.5
  3
txt
  4

  0
ENDTAB
  0
TABLE
  2
VIEW
  5
7
330
0
100
AcDbSymbolTable
 70
0
  0
ENDTAB
  0
TABLE
  2
UCS
  5
6
330
0
100
AcDbSymbolTable
 70
0
  0
ENDTAB
  0
TABLE
  2
APPID
  5
3
330
0
100
AcDbSymbolTable
 70
3
  0
APPID
  5
2A
330
3
100
AcDbSymbolTableRecord
100
AcDbRegAppTableRecord
  2
ACAD
 70
0
  0
APPID
  5
42
330
3
100
AcDbSymbolTableRecord
100
AcDbRegAppTableRecord
  2
HATCHBACKGROUNDCOLOR
 70
0
  0
APPID
  5
43
330
3
100
AcDbSymbolTableRecord
100
AcDbRegAppTableRecord
  2
EZDXF
 70
0
  0
ENDTAB
  0
TABLE
  2
DIMSTYLE
  5
4
330
0
100
AcDbSymbolTable
 70
1
100
AcDbDimStyleTable
  0
DIMSTYLE
105
2B
330
4
100
AcDbSymbolTableRecord
100
AcDbDimStyleTableRecord
  2
Standard
 70
0
 40
1.0
 41
2.5
 42
0.625
 43
3.75
 44
1.25
 45
0.0
 46
0.0
 47
0.0
 48
0.0
 49
2.5
140
2.5
141
2.5
142
0.0
143
0.03937007874
144
1.0
145
0.0
146
1.0
147
0.625
148
0.0
 69
0
 70
0
 71
0
 72
0
 73
0
 74
0
 75
0
 76
0
 77
1
 78
8
 79
3
170
0
171
3
172
1
173
0
174
0
175
0
176
0
177
0
178
0
179
2
271
2
272
2
273
2
274
3
275
0
276
0
277
2
278
44
279
0
280
0
281
0
282
0
283
0
284
8
285
0
286
0
288
0
289
3
290
0
371
-2
372
-2
  0
ENDTAB
  0
TABLE
  2
BLOCK_RECORD
  5
9
330
0
100
AcDbSymbolTable
 70
2
  0
BLOCK_RECORD
  5
17
330
9
100
AcDbSymbolTableRecord
100
AcDbBlockTableRecord
  2
*Model_Space
340
1A
 70
0
280
1
281
0
  0
BLOCK_RECORD
  5
1B
330
9
100
AcDbSymbolTableRecord
100
AcDbBlockTableRecord
  2
*Paper_Space
340
1E
 70
0
280
1
281
0
  0
ENDTAB
  0
ENDSEC
  0
SECTION
  2
BLOCKS
  0
BLOCK
  5
18
330
17
100
AcDbEntity
  8
0
100
AcDbBlockBegin
  2
*Model_Space
 70
0
 10
0.0
 20
0.0
 30
0.0
  3
*Model_Space
  1

  0
ENDBLK
  5
19
330
17
100
AcDbEntity
  8
0
100
AcDbBlockEnd
  0
BLOCK
  5
1C
330
1B
100
AcDbEntity
  8
0
100
AcDbBlockBegin
  2
*Paper_Space
 70
0
 10
0.0
 20
0.0
 30
0.0
  3
*Paper_Space
  1

  0
ENDBLK
  5
1D
330
1B
100
AcDbEntity
  8
0
100
AcDbBlockEnd
  0
ENDSEC
  0
SECTION
  2
ENTITIES
  0
LWPOLYLINE
  5
33
330
17
100
AcDbEntity
  8
SEAM
100
AcDbPolyline
 90
88
 70
1
 10
-5.384246760673238
 20
-572.1728142165352
 10
19.074164066817165
 20
-578.1064840572942
 10
43.59270139056088
 20
-583.6345768595995
 10
68.14951273291591
 20
-588.7164648244285
 10
92.7310793963253
 20
-593.3397066364855
 10
117.33121130250863
 20
-597.493473735827
 10
141.94839111579174
 20
-601.1633656313493
 10
166.58285401074787
 20
-604.3302739324837
 10
191.23266201141317
 20
-606.9728220891055
 10
215.88955510776296
 20
-609.0767473719255
 10
240.54050146947614
 20
-610.6564172385828
 10
236.75981286269715
 20
-588.2549241614935
 10
233.79904174090382
 20
-565.0753936996244
 10
231.60930993593973
 20
-540.6123938293598
 10
230.13603522252555
 20
-514.4726297604648
 10
229.31442630415387
 20
-486.3747441336255
 10
229.0686993142219
 20
-456.1391173456897
 10
229.31348836090848
 20
-423.6750200433352
 10
229.95546078217578
 20
-388.96884560532715
 10
230.8949712676376
 20
-352.07393073970326
 10
232.0286726294043
 20
-313.10150686439323
 10
233.25352830716625
 20
-272.2123574948764
 10
234.47165454966205
 20
-229.60897139320406
 10
235.5948973848386
 20
-185.52816536827842
 10
236.5483159272766
 20
-140.2342301298509
 10
237.2723712705611
 20
-94.01263493235648
 10
237.72408145037622
 20
-47.16425292724192
 10
237.87753547323797
 20
0.0
 10
237.72408195910435
 20
47.1642528053073
 10
237.2723722281041
 20
94.01263486305558
 10
236.54831710716283
 20
140.23423019179324
 10
235.59489852182637
 20
185.52816557395315
 10
234.47165541998731
 20
229.6089717007826
 10
233.25352877953506
 20
272.2123578265673
 10
232.02867268236264
 20
313.10150712944034
 10
230.89497097184886
 20
352.073930855517
 10
229.95546026416034
 20
388.9688455113491
 10
229.31348776606964
 20
423.675019706426
 10
229.06869877442088
 20
456.13911675804115
 10
229.31442592361063
 20
486.37474330691106
 10
230.13603507470486
 20
514.472628718789
 10
231.60931006643094
 20
540.6123926023722
 10
233.79904217450647
 20
565.0753923175351
 10
236.75981361084152
 20
588.2549226524313
 10
240.54050254074625
 20
610.6564156282031
 10
215.88955612194883
 20
609.0767461177187
 10
191.2326629487398
 20
606.9728211670981
 10
166.58285486262548
 20
604.3302733185632
 10
141.94839188153898
 20
601.1633653031106
 10
117.33121198610003
 20
597.4934736738694
 10
92.73108000438219
 20
593.3397068255784
 10
68.14951327302155
 20
588.7164652535902
 10
43.59270186939467
 20
583.6345775220443
 10
19.07416448852277
 20
578.1064849503496
 10
-5.384246394649274
 20
572.1728153399465
 10
-6.840151679195038
 20
559.8592267700532
 10
-7.913685165706653
 20
546.0044658406191
 10
-8.47843308320027
 20
529.5842890382286
 10
-8.552511682164715
 20
510.0553180058808
 10
-8.210043870966365
 20
487.179515400821
 10
-7.547615716464147
 20
460.8974130924657
 10
-6.668253252812642
 20
431.25936642721143
 10
-5.670199617209309
 20
398.39078172505504
 10
-4.638243668754632
 20
362.4743089648078
 10
-3.638754414444863
 20
323.7398017677042
 10
-2.719127201465326
 20
282.45738054359526
 10
-1.9106433358046118
 20
238.93145132583967
 10
-1.2327754255037193
 20
193.49496175497939
 10
-0.6972283537121265
 20
146.5038523536837
 10
-0.3109101567543172
 20
98.33183131259354
 10
-0.07779597929159018
 20
49.365532970852975
 10
0.0
 20
0.0
 10
-0.07779647491952363
 20
-49.36553277597717
 10
-0.3109111111201041
 20
-98.3318311373345
 10
-0.6972295239829515
 20
-146.50385229377605
 10
-1.2327765325249882
 20
-193.494961833133
 10
-1.91064415320903
 20
-238.93145150806365
 10
-2.7191275873696874
 20
-282.4573807557642
 10
-3.6387543828063897
 20
-323.7398019209151
 10
-4.638243303412717
 20
-362.4743089798528
 10
-5.670199077842279
 20
-398.3907815470882
 10
-6.668252690996404
 20
-431.2593660347832
 10
-7.547615227561945
 20
-460.897412491499
 10
-8.21004352058367
 20
-487.1795146167107
 10
-8.552511496503108
 20
-510.05531707684366
 10
-8.4784330604105
 20
-529.5842880068996
 10
-7.913685289719042
 20
-546.0044647476329
 10
-6.840151931166559
 20
-559.8592256494336
  0
LWPOLYLINE
  5
34
330
17
100
AcDbEntity
  8
CUT_DRAFT
100
AcDbPolyline
 90
89
 70
1
 10
-16.321578767232964
 20
-581.8674780217027
 10
-18.78558026069126
 20
-561.0277274431064
 10
-19.89773469254681
 20
-546.6745323453657
 10
-20.47765053888051
 20
-529.813340171216
 10
-20.552852208634413
 20
-509.9882561119397
 10
-20.207780234733505
 20
-486.9385146337985
 10
-19.54313084401117
 20
-460.56828958688703
 10
-18.662724324933414
 20
-430.89515425205167
 10
-17.664967807329088
 20
-398.03635391828465
 10
-16.63379743837059
 20
-362.14721681905536
 10
-15.635307003031135
 20
-323.45140537126514
 10
-14.716645685860875
 20
-282.2123249184758
 10
-13.908981802163206
 20
-238.73051741026885
 10
-13.231756494074594
 20
-193.33708102291203
 10
-12.696681180506026
 20
-146.3873599514468
 10
-12.310682045206175
 20
-98.25515114928935
 10
-12.077751460043018
 20
-49.327513157607235
 10
-12.00001490117081
 20
6.027760357697385e-08
 10
-12.077750964790603
 20
49.32751346895696
 10
-12.310681091418521
 20
98.25515140751905
 10
-12.696680010473962
 20
146.38736002985178
 10
-13.231755386491797
 20
193.33708089804503
 10
-13.908980983156725
 20
238.73051713007908
 10
-14.716645297507613
 20
282.2123245863289
 10
-15.635307031971767
 20
323.4514051065174
 10
-16.633797801519368
 20
362.14721672481454
 10
-17.6649683457591
 20
398.0363540652368
 10
-18.662974864678887
 20
430.90348238172913
 10
-19.543131334284997
 20
460.5682902364903
 10
-20.20778058670776
 20
486.9385154943126
 10
-20.552852394877327
 20
509.9882571346625
 10
-20.477650559753616
 20
529.813341305264
 10
-19.897734562590617
 20
546.6745335451782
 10
-18.785579998134004
 20
561.0277286720434
 10
-16.321578312586098
 20
581.8674792474573
 10
16.339734433589808
 20
589.79119268099
 10
41.05693351559028
 20
595.3640766795643
 10
65.82439885433566
 20
600.4895580043859
 10
90.62290807894567
 20
605.1536015954026
 10
115.44737503072281
 20
609.3452477185787
 10
140.29849057286788
 20
613.0500141171995
 10
165.17810205927145
 20
616.2484374438263
 10
190.08285628106623
 20
618.9183164326274
 10
214.99563970340682
 20
621.0440760027187
 10
254.89483169383453
 20
623.6008758922428
 10
248.63257579051057
 20
586.4955005937962
 10
245.7310478588208
 20
563.779780668653
 10
243.57916217262553
 20
539.7395892980642
 10
242.12616071308813
 20
513.9595310685336
 10
241.3130004759346
 20
486.1505867126852
 10
241.06906645211612
 20
456.13559621994364
 10
241.3126510251108
 20
423.8312300606925
 10
241.95263514025572
 20
389.2325513815254
 10
242.89052890349777
 20
352.40113470061647
 10
244.0234476879772
 20
313.4556250427399
 10
245.2483931049671
 20
272.5634939925734
 10
246.46728638498325
 20
229.93329502133025
 10
247.59168158713615
 20
185.8072756094243
 10
248.54633917690904
 20
140.4544790012038
 10
249.2714660998599
 20
94.16446291646683
 10
249.72389373929417
 20
47.24162408639308
 10
249.87759898867625
 20
-6.46691665219449e-08
 10
249.72389322975533
 20
-47.24162433053086
 10
249.27146514113485
 20
-94.16446307242596
 10
248.54633799649278
 20
-140.45447896309176
 10
247.5916804510388
 20
-185.80727536255952
 10
246.46728551710845
 20
-229.9332946219684
 10
245.24839263603795
 20
-272.5634935432471
 10
244.02344763844138
 20
-313.4556246616556
 10
242.89052920174439
 20
-352.401134493543
 10
241.95263565931296
 20
-389.2325514244737
 10
241.31265161987392
 20
-423.8312303933703
 10
241.06906699175576
 20
-456.1355968494003
 10
241.31300085782732
 20
-486.15058762237385
 10
242.12616086571035
 20
-513.9595322271855
 10
243.57916205236796
 20
-539.7395906679066
 10
245.73104744250764
 20
-563.7797822112152
 10
248.6325750676218
 20
-586.495502273883
 10
254.89483043081873
 20
-623.6008777110676
 10
214.99563852062158
 20
-621.0440772442748
 10
190.08285518628855
 20
-618.9183173394197
 10
165.1781010609569
 20
-616.2484380404313
 10
140.2984896709109
 20
-613.050014426484
 10
115.44737421975503
 20
-609.3452477602523
 10
90.62290735062524
 20
-605.153601384821
 10
65.82439819921287
 20
-600.4895575524907
 10
41.05693292500488
 20
-595.3640759929518
 10
16.339733901659386
 20
-589.7911917621383
 10
-16.321578767232964
 20
-581.8674780217027
  0
LWPOLYLINE
  5
35
330
17
100
AcDbEntity
  8
GRID_REFERENCE
100
AcDbPolyline
 90
35
 70
0
 10
-5.384246760673238
 20
-572.1728142165352
 10
-6.840151931166559
 20
-559.8592256494336
 10
-7.913685289719042
 20
-546.0044647476329
 10
-8.4784330604105
 20
-529.5842880068996
 10
-8.552511496503108
 20
-510.05531707684366
 10
-8.21004352058367
 20
-487.1795146167107
 10
-7.547615227561945
 20
-460.897412491499
 10
-6.668252690996404
 20
-431.2593660347832
 10
-5.670199077842279
 20
-398.3907815470882
 10
-4.638243303412717
 20
-362.4743089798528
 10
-3.6387543828063897
 20
-323.7398019209151
 10
-2.7191275873696874
 20
-282.4573807557642
 10
-1.91064415320903
 20
-238.93145150806365
 10
-1.2327765325249882
 20
-193.494961833133
 10
-0.6972295239829515
 20
-146.50385229377605
 10
-0.3109111111201041
 20
-98.3318311373345
 10
-0.07779647491952363
 20
-49.36553277597717
 10
0.0
 20
0.0
 10
-0.07779597929159018
 20
49.365532970852975
 10
-0.3109101567543172
 20
98.33183131259354
 10
-0.6972283537121265
 20
146.5038523536837
 10
-1.2327754255037193
 20
193.49496175497939
 10
-1.9106433358046118
 20
238.93145132583967
 10
-2.719127201465326
 20
282.45738054359526
 10
-3.638754414444863
 20
323.7398017677042
 10
-4.638243668754632
 20
362.4743089648078
 10
-5.670199617209309
 20
398.39078172505504
 10
-6.668253252812642
 20
431.25936642721143
 10
-7.547615716464147
 20
460.8974130924657
 10
-8.210043870966365
 20
487.179515400821
 10
-8.552511682164715
 20
510.0553180058808
 10
-8.47843308320027
 20
529.5842890382286
 10
-7.913685165706653
 20
546.0044658406191
 10
-6.840151679195038
 20
559.8592267700532
 10
-5.384246394649274
 20
572.1728153399465
  0
LWPOLYLINE
  5
36
330
17
100
AcDbEntity
  8
GRID_REFERENCE
100
AcDbPolyline
 90
35
 70
0
 10
19.074164066817165
 20
-578.1064840572942
 10
17.412174885663173
 20
-564.5310239556795
 10
16.141040550968285
 20
-549.5736570749765
 10
15.39068383775445
 20
-532.2617115768202
 10
15.162490485336406
 20
-512.0294105037527
 10
15.393400915891167
 20
-488.5993115705193
 10
15.989933364743928
 20
-461.8776295015981
 10
16.846810883488796
 20
-431.8905523698
 10
17.860501682297933
 20
-398.74799340442144
 10
18.939268171034605
 20
-362.62274515893984
 10
20.008786149531428
 20
-323.7376183052196
 10
21.01307005624448
 20
-282.35648043539965
 10
21.91200742551058
 20
-238.77719959977526
 10
22.677551621711455
 20
-193.32560722206534
 10
23.290212052683597
 20
-146.3500917029285
 10
23.736556118890878
 20
-98.2166276913599
 10
24.007711147431287
 20
-49.304120427548966
 10
24.098590646514133
 20
6.108044566542961e-08
 10
24.007711636831743
 20
49.30412051821374
 10
23.736557071479506
 20
98.21662777445361
 10
23.29021322656558
 20
146.350091746515
 10
22.67755273106108
 20
193.325607213306
 10
21.9120082345049
 20
238.77719955357355
 10
21.01307042678649
 20
282.35648038549624
 10
20.008786083644146
 20
323.73761829700373
 10
18.93926776375526
 20
362.6227452375041
 10
17.86050108902312
 20
398.7479936045164
 10
16.846810257577495
 20
431.89055271468567
 10
15.989932817660655
 20
461.8776299959187
 10
15.39340052066553
 20
488.59931220150963
 10
15.162490273136413
 20
512.0294112475616
 10
15.390683810035554
 20
532.2617124026419
 10
16.141040691577285
 20
549.5736579502975
 10
17.4121751745745
 20
564.5310248513208
 10
19.07416448852277
 20
578.1064849503496
  0
LWPOLYLINE
  5
37
330
17
100
AcDbEntity
  8
GRID_REFERENCE
100
AcDbPolyline
 90
35
 70
0
 10
43.59270139056088
 20
-583.6345768595995
 10
41.706627128547204
 20
-568.9907621589012
 10
40.26507745919201
 20
-553.058503730497
 10
39.36145987103567
 20
-534.9247922563856
 10
38.99743441583505
 20
-514.024138435949
 10
39.11454269058717
 20
-490.05737491330564
 10
39.622761773796434
 20
-462.90646782265594
 10
40.41838671968987
 20
-432.5776091921456
 10
41.39750932359643
 20
-399.1662114249729
 10
42.4662085816987
 20
-362.8349126655012
 10
43.54634861744723
 20
-323.79896541500506
 10
44.57681191535627
 20
-282.3157858051421
 10
45.51154922630474
 20
-238.67695108083257
 10
46.316407063902034
 20
-193.20173505855757
 10
46.96621232754967
 20
-146.231628751006
 10
47.44273251440887
 20
-98.12546384430676
 10
47.733492414215256
 20
-49.254884516487806
 10
47.83118885449474
 20
4.888896546807521e-08
 10
47.733492922390916
 20
49.25488460212496
 10
47.442733458336356
 20
98.12546390691831
 10
46.96621348265717
 20
146.23162879728312
 10
46.3164081512001
 20
193.20173508875322
 10
45.511550011157375
 20
238.67695110242136
 10
44.57681226496215
 20
282.31578583407054
 10
43.546348529257955
 20
323.7989654733733
 10
42.466208150767336
 20
362.8349127780741
 10
41.39750870083356
 20
399.16621161475575
 10
40.4183860572996
 20
432.5776094766345
 10
39.62276119241056
 20
462.9064682090717
 10
39.114542268129476
 20
490.05737539689926
 10
38.997434189298765
 20
514.0241390020017
 10
39.36145984550182
 20
534.9247928830466
 10
40.26507762077898
 20
553.058504392512
 10
41.706627457080565
 20
568.9907628313118
 10
43.59270186939467
 20
583.6345775220443
  0
LWPOLYLINE
  5
38
330
17
100
AcDbEntity
  8
GRID_REFERENCE
100
AcDbPolyline
 90
35
 70
0
 10
68.14951273291591
 20
-588.7164648244285
 10
66.03080340687204
 20
-573.0669491088387
 10
64.41171521839077
 20
-556.2084884953092
 10
63.3610122470508
 20
-537.2793778629708
 10
62.869006114161415
 20
-515.7236767199796
 10
62.8759733832195
 20
-491.22968480065884
 10
63.29312337578922
 20
-463.6607121991324
 10
64.0187307225557
 20
-433.00522748612815
 10
64.95042329011972
 20
-399.34426060625685
 10
65.99431522373634
 20
-362.82946901503374
 10
67.0702275376869
 20
-323.66752811960964
 10
68.11301797657973
 20
-282.10853708308616
 10
69.07128184794453
 20
-238.43718313099222
 10
69.90505161389154
 20
-192.96583477046684
 10
70.58365912576762
 20
-146.02891245239064
 10
71.08423802488468
 20
-97.97801957888224
 10
71.39085700214787
 20
-49.177470893216224
 10
71.4940922077866
 20
4.455707458917403e-08
 10
71.39085752062273
 20
49.17747097222423
 10
71.08423896321187
 20
97.97801964587359
 10
70.58366026111779
 20
146.02891250949918
 10
69.90505267669293
 20
192.9658348223623
 10
69.07128260921054
 20
238.43718318224074
 10
68.11301830823716
 20
282.1085371406333
 10
67.07022743520777
 20
323.66752819404286
 10
65.99431477990532
 20
362.829469119863
 10
64.95042265107924
 20
399.3442607559723
 10
64.01873003967549
 20
433.0052276933746
 10
63.29312277326402
 20
463.660712470884
 10
62.875972944220926
 20
491.2296851361573
 10
62.86900588059957
 20
515.7236771103429
 10
63.361012228626855
 20
537.2793782927442
 10
64.41171540441478
 20
556.2084889445168
 10
66.030803778728
 20
573.0669495571012
 10
68.14951327302155
 20
588.7164652535902
  0
LWPOLYLINE
  5
39
330
17
100
AcDbEntity
  8
GRID_REFERENCE
100
AcDbPolyline
 90
35
 70
0
 10
92.7310793963253
 20
-593.3397066364855
 10
90.37732097415206
 20
-576.7227612353706
 10
88.57628090129835
 20
-558.9679007082996
 10
87.3776257635527
 20
-539.2624988915178
 10
86.76034631402655
 20
-517.0628209872855
 10
86.65926533693666
 20
-492.0501456102807
 10
86.98446115951629
 20
-464.0734304850097
 10
87.6357082337691
 20
-433.105879878232
 10
88.51313492701601
 20
-399.21501447198096
 10
89.52437467946027
 20
-362.54131441449266
 10
90.58843065282738
 20
-323.28212640548435
 10
91.6368196830816
 20
-281.6793055625217
 10
92.6130153813384
 20
-238.00977537845768
 10
93.4712300685403
 20
-192.5782852177852
 10
94.17522491871443
 20
-145.7116491171112
 10
94.69743997521547
 20
-97.75385241800188
 10
95.01846247433892
 20
-49.06159303018522
 10
95.12674307766714
 20
4.239398312840567e-08
 10
95.01846299751898
 20
49.061593112866134
 10
94.69744091019899
 20
97.75385249215508
 10
94.17522604178176
 20
145.71164918479377
 10
93.47123111535511
 20
192.57828528067395
 10
92.61301612784811
 20
238.00977543773013
 10
91.63682000470227
 20
281.6793056202379
 10
90.58843054341021
 20
323.28212646584905
 10
89.52437422933733
 20
362.5413144845515
 10
88.51313427884105
 20
399.21501456044706
 10
87.63570753809456
 20
433.10587999383665
 10
86.98446054302416
 20
464.0734306337468
 10
86.65926488723628
 20
492.0501457931054
 10
86.76034607836033
 20
517.0628211991368
 10
87.37762575650724
 20
539.2624991215077
 10
88.57628111589456
 20
558.9679009412432
 10
90.37732139396786
 20
576.722761454239
 10
92.73108000438219
 20
593.3397068255784
  0
LWPOLYLINE
  5
3A
330
17
100
AcDbEntity
  8
GRID_REFERENCE
100
AcDbPolyline
 90
35
 70
0
 10
117.33121130250863
 20
-597.493473735827
 10
114.7400861250171
 20
-579.9313459157742
 10
112.75396271005218
 20
-561.2962361185853
 10
111.40503457282948
 20
-540.8245931812047
 10
110.66152044653865
 20
-517.9876902218328
 10
110.45179887952786
 20
-492.46287167223545
 10
110.68364243300391
 20
-464.0877409251885
 10
111.25811808940895
 20
-432.8224649535878
 10
112.07835695880334
 20
-398.72222723239304
 10
113.05419421350811
 20
-361.9164423609029
 10
114.10427286487945
 20
-322.592461766056
 10
115.15689550583579
 20
-280.9828450063614
 10
116.15030566069314
 20
-237.3556407200277
 10
117.03269165804399
 20
-192.00699774640165
 10
117.76204471728869
 20
-145.2553403647733
 10
118.3059621609527
 20
-97.43644277577496
 10
118.64145680442891
 20
-48.898938772154594
 10
118.75480672514713
 20
4.91712200819831e-08
 10
118.64145733203088
 20
48.89893885843769
 10
118.30596309711221
 20
97.43644285704049
 10
117.76204583841455
 20
145.25534044064958
 10
117.03269270204747
 20
192.00699781462149
 10
116.15030640579911
 20
237.35564077793185
 10
115.15689582800806
 20
280.98284505171074
 10
114.10427275646546
 20
322.5924617986563
 10
113.0541937626086
 20
361.9164423829709
 10
112.07835630610683
 20
398.72222724829743
 10
111.25811738513181
 20
432.8224649685905
 10
110.68364180622902
 20
464.087740943757
 10
110.45179842258567
 20
492.4628716961891
 10
110.66152021200995
 20
517.9876902488196
 10
111.40503458058289
 20
540.8245932042024
 10
112.75396295748892
 20
561.296236126615
 10
114.74008659849704
 20
579.9313458953375
 10
117.33121198610003
 20
597.4934736738694
  0
LWPOLYLINE
  5
3B
330
17
100
AcDbEntity
  8
GRID_REFERENCE
100
AcDbPolyline
 90
35
 70
0
 10
141.94839111579174
 20
-601.1633656313493
 10
139.1155882746222
 20
-582.6631738175946
 10
136.9404438951515
 20
-563.1514008991486
 10
135.43761630922808
 20
-541.9140631452201
 10
134.56431230623215
 20
-518.4402325569336
 10
134.2426981946942
 20
-492.40610221659705
 10
134.37885661729462
 20
-463.64034606310867
 10
134.87578826362582
 20
-432.0920446076269
 10
135.6398918920622
 20
-397.8050668183587
 10
136.5829915584483
 20
-360.897691021445
 10
137.62287021804605
 20
-321.54635473664325
 10
138.6840504872306
 20
-279.97298915846636
 10
139.69904469122832
 20
-236.4353952477601
 10
140.60962347345807
 20
-191.219923600401
 10
141.36771902212027
 20
-144.6356580364077
 10
141.9358842358479
 20
-97.00944110250938
 10
142.28742595121844
 20
-48.68129583098328
 10
142.40637638165637
 20
3.953298739313179e-08
 10
142.2874264821858
 20
48.68129591499502
 10
141.93588517757806
 20
97.00944118872594
 10
141.36772015232316
 20
144.63565811959532
 10
140.60962452896595
 20
191.21992367428552
 10
139.69904544930748
 20
236.43539530535702
 10
138.6840508219737
 20
279.9729891929838
 10
137.62287011961024
 20
321.54635474265984
 10
136.5829911128268
 20
360.8976909959643
 10
135.6398912390731
 20
397.80506676100475
 10
134.87578755409416
 20
432.0920445199979
 10
134.37885598332022
 20
463.6403459477841
 10
134.24269773302058
 20
492.4061020757526
 10
134.56431207498102
 20
518.440232390696
 10
135.43761633389857
 20
541.9140629504894
 10
136.94044417821584
 20
563.1514006693883
 10
139.11558880610912
 20
582.6631735434246
 10
141.94839188153898
 20
601.1633653031106
  0
LWPOLYLINE
  5
3C
330
17
100
AcDbEntity
  8
GRID_REFERENCE
100
AcDbPolyline
 90
35
 70
0
 10
166.58285401074787
 20
-604.3302739324837
 10
163.50254287604034
 20
-584.8830676361365
 10
161.13332179685284
 20
-564.4851945457337
 10
159.47091907047732
 20
-542.4723775065987
 10
158.46138236943372
 20
-518.3539887261329
 10
158.02230751014076
 20
-491.8083139366952
 10
158.06036225074035
 20
-462.65794112430655
 10
158.48179366614553
 20
-430.84264223373714
 10
159.1960350879104
 20
-396.3953746067352
 10
160.11562334630165
 20
-359.4224587768467
 10
161.1559639086537
 20
-320.0878576771388
 10
162.2365404754256
 20
-278.601094154632
 10
163.28325680129666
 20
-235.20808202974516
 10
164.2308968374257
 20
-190.18403531465214
 10
165.0249626904965
 20
-143.82767612160092
 10
165.62271032370927
 20
-96.4561526610185
 10
165.993568163225
 20
-48.40029263941156
 10
166.11921957127296
 20
2.9033951173335394e-08
 10
165.99356869234606
 20
48.400292715210455
 10
165.62271127429517
 20
96.45615274694035
 10
165.02496383891886
 20
143.8276762118891
 10
164.23089791704837
 20
190.1840354000141
 10
163.28325758531292
 20
235.20808209871595
 10
162.23654083473733
 20
278.60109419398026
 10
161.15596383041853
 20
320.0878576733303
 10
160.11562291419196
 20
359.4224587189037
 10
159.19603444105456
 20
396.3953744873872
 10
158.48179295712868
 20
430.84264204978376
 10
158.0603616146405
 20
462.65794087597766
 10
158.02230704792115
 20
491.80831362647666
 10
158.4613821446934
 20
518.353988356992
 10
159.47091911434825
 20
542.4723770801452
 10
161.13332211726575
 20
564.4851940609698
 10
163.50254346764885
 20
584.8830670893946
 10
166.58285486262548
 20
604.3302733185632
  0
LWPOLYLINE
  5
3D
330
17
100
AcDbEntity
  8
GRID_REFERENCE
100
AcDbPolyline
 90
35
 70
0
 10
191.23266201141317
 20
-606.9728220891055
 10
187.90138894304656
 20
-586.5525752471824
 10
185.33315239831947
 20
-565.2449753671956
 10
183.502643896622
 20
-542.4347587409165
 10
182.34695567925485
 20
-517.6546713268971
 10
181.78352012115948
 20
-490.5897889098666
 10
181.7231427508041
 20
-461.06014229584224
 10
182.07628561763735
 20
-428.9973378748477
 10
182.7540276807197
 20
-394.4224430988832
 10
183.66715765370884
 20
-357.4276464225469
 10
184.72633072029697
 20
-318.1619479663835
 10
185.84423440863964
 20
-276.8202119597029
 10
186.93903733207804
 20
-233.63467975560948
 10
187.93784636156508
 20
-188.86811539335676
 10
188.7792866315816
 20
-142.80793653797093
 10
189.4149986725723
 20
-95.76089829755104
 10
189.81030000468752
 20
-48.04807335375481
 10
189.94437811922876
 20
2.4917395550307033e-08
 10
189.81030052918044
 20
48.048073405486335
 10
189.41499963226244
 20
95.76089837365521
 10
188.77928780331814
 20
142.80793663346964
 10
187.9378474725776
 20
188.86811550126356
 10
186.93903815083826
 20
233.63467985970726
 10
185.84423480258405
 20
276.8202120356848
 10
184.72633067330318
 20
318.1619479871474
 10
183.6671572467166
 20
357.42764636364393
 10
182.7540270518353
 20
394.42244294227305
 10
182.07628492040376
 20
428.9973376103824
 10
181.72314212252465
 20
461.06014192088514
 10
181.78351966649896
 20
490.5897884278298
 10
182.34695546644232
 20
517.6546707446349
 10
183.50264396255693
 20
542.4347580663368
 10
185.33315275674016
 20
565.2449746067015
 10
187.90138959421347
 20
586.5525744050984
 10
191.2326629487398
 20
606.9728211670981
  0
LWPOLYLINE
  5
3E
330
17
100
AcDbEntity
  8
GRID_REFERENCE
100
AcDbPolyline
 90
35
 70
0
 10
215.88955510776296
 20
-609.0767473719255
 10
212.31432219370677
 20
-587.642852036534
 10
209.54379295375585
 20
-565.3869639410366
 10
207.53338127488496
 20
-541.7434469897717
 10
206.2194642336287
 20
-516.2754151043471
 10
205.52659205977386
 20
-488.6814258673533
 10
205.3728278727932
 20
-458.7817232894449
 10
205.6720009290019
 20
-426.49853443239584
 10
206.33390084337518
 20
-391.83760758867817
 10
207.26432230168973
 20
-354.87314208696085
 10
208.3665670483054
 20
-315.735917692868
 10
209.54478436168424
 20
-274.6037975258717
 10
210.70834901514587
 20
-231.69382804114045
 10
211.77603864906138
 20
-187.2553727505757
 10
212.6791437602387
 20
-141.563915448209
 10
213.3633245605038
 20
-94.915323666462
 10
213.7894991691346
 20
-47.62045170021132
 10
213.93416930178165
 20
-1.2954080904140288e-08
 10
213.78949968067778
 20
47.62045171133942
 10
213.36332552681023
 20
94.91532370393459
 10
212.6791449499485
 20
141.56391553866692
 10
211.77603978675305
 20
187.25537289684155
 10
210.70834986845927
 20
231.69382821861876
 10
209.54478479639764
 20
274.60379769083744
 10
208.36656704508985
 20
315.7359177944191
 10
207.2643219375818
 20
354.8731420784003
 10
206.33390025323249
 20
391.83760743508174
 10
205.67200026475672
 20
426.49853411381304
 10
205.37282727158885
 20
458.7817228001383
 10
205.5265916280226
 20
488.6814252131902
 10
206.21946404317785
 20
516.2754142985057
 10
207.53338136744256
 20
541.7434460488068
 10
209.54379334893443
 20
565.3869628815312
 10
212.31432289783953
 20
587.6428508735828
 10
215.88955612194883
 20
609.0767461177187
  0
LWPOLYLINE
  5
3F
330
17
100
AcDbEntity
  8
GRID_REFERENCE
100
AcDbPolyline
 90
35
 70
0
 10
240.54050146947614
 20
-610.6564172385828
 10
236.75981286269715
 20
-588.2549241614935
 10
233.79904174090382
 20
-565.0753936996244
 10
231.60930993593973
 20
-540.6123938293598
 10
230.13603522252555
 20
-514.4726297604648
 10
229.31442630415387
 20
-486.3747441336255
 10
229.0686993142219
 20
-456.1391173456897
 10
229.31348836090848
 20
-423.6750200433352
 10
229.95546078217578
 20
-388.96884560532715
 10
230.8949712676376
 20
-352.07393073970326
 10
232.0286726294043
 20
-313.10150686439323
 10
233.25352830716625
 20
-272.2123574948764
 10
234.47165454966205
 20
-229.60897139320406
 10
235.5948973848386
 20
-185.52816536827842
 10
236.5483159272766
 20
-140.2342301298509
 10
237.2723712705611
 20
-94.01263493235648
 10
237.72408145037622
 20
-47.16425292724192
 10
237.87753547323797
 20
0.0
 10
237.72408195910435
 20
47.1642528053073
 10
237.2723722281041
 20
94.01263486305558
 10
236.54831710716283
 20
140.23423019179324
 10
235.59489852182637
 20
185.52816557395315
 10
234.47165541998731
 20
229.6089717007826
 10
233.25352877953506
 20
272.2123578265673
 10
232.02867268236264
 20
313.10150712944034
 10
230.89497097184886
 20
352.073930855517
 10
229.95546026416034
 20
388.9688455113491
 10
229.31348776606964
 20
423.675019706426
 10
229.06869877442088
 20
456.13911675804115
 10
229.31442592361063
 20
486.37474330691106
 10
230.13603507470486
 20
514.472628718789
 10
231.60931006643094
 20
540.6123926023722
 10
233.79904217450647
 20
565.0753923175351
 10
236.75981361084152
 20
588.2549226524313
 10
240.54050254074625
 20
610.6564156282031
  0
TEXT
  5
40
330
17
100
AcDbEntity
  8
TEXT
100
AcDbText
 10
-8.552511682164715
 20
645.6564156282031
 30
0.0
 40
10.0
  1
Q04_KEYBOARD_CLOSED_OUTER_DRAFT
100
AcDbText
  0
TEXT
  5
41
330
17
100
AcDbEntity
  8
TEXT
100
AcDbText
 10
-8.552511682164715
 20
630.6564156282031
 30
0.0
 40
7.0
  1
MM. PROTOTYPE ONLY. NOT PRODUCTION CUTTING.
100
AcDbText
  0
ENDSEC
  0
SECTION
  2
OBJECTS
  0
DICTIONARY
  5
A
330
0
100
AcDbDictionary
281
1
  3
ACAD_COLOR
350
B
  3
ACAD_GROUP
350
C
  3
ACAD_LAYOUT
350
D
  3
ACAD_MATERIAL
350
E
  3
ACAD_MLEADERSTYLE
350
F
  3
ACAD_MLINESTYLE
350
10
  3
ACAD_PLOTSETTINGS
350
11
  3
ACAD_PLOTSTYLENAME
350
12
  3
ACAD_SCALELIST
350
14
  3
ACAD_TABLESTYLE
350
15
  3
ACAD_VISUALSTYLE
350
16
  3
EZDXF_META
350
2D
  0
DICTIONARY
  5
B
330
A
100
AcDbDictionary
281
1
  0
DICTIONARY
  5
C
330
A
100
AcDbDictionary
281
1
  0
DICTIONARY
  5
D
330
A
100
AcDbDictionary
281
1
  3
Model
350
1A
  3
Layout1
350
1E
  0
DICTIONARY
  5
E
330
A
100
AcDbDictionary
281
1
  3
ByBlock
350
1F
  3
ByLayer
350
20
  3
Global
350
21
  0
DICTIONARY
  5
F
330
A
100
AcDbDictionary
281
1
  3
Standard
350
2C
  0
DICTIONARY
  5
10
330
A
100
AcDbDictionary
281
1
  3
Standard
350
22
  0
DICTIONARY
  5
11
330
A
100
AcDbDictionary
281
1
  0
ACDBDICTIONARYWDFLT
  5
12
330
A
100
AcDbDictionary
281
1
  3
Normal
350
13
100
AcDbDictionaryWithDefault
340
13
  0
ACDBPLACEHOLDER
  5
13
330
12
  0
DICTIONARY
  5
14
330
A
100
AcDbDictionary
281
1
  0
DICTIONARY
  5
15
330
A
100
AcDbDictionary
281
1
  0
DICTIONARY
  5
16
330
A
100
AcDbDictionary
281
1
  0
LAYOUT
  5
1A
330
D
100
AcDbPlotSettings
  1

  4
A3
  6

 40
7.5
 41
20.0
 42
7.5
 43
20.0
 44
420.0
 45
297.0
 46
0.0
 47
0.0
 48
0.0
 49
0.0
140
0.0
141
0.0
142
1.0
143
1.0
 70
1024
 72
1
 73
0
 74
5
  7

 75
16
 76
0
 77
2
 78
300
147
1.0
148
0.0
149
0.0
100
AcDbLayout
  1
Model
 70
1
 71
0
 10
0.0
 20
0.0
 11
420.0
 21
297.0
 12
0.0
 22
0.0
 32
0.0
 14
1e+20
 24
1e+20
 34
1e+20
 15
-1e+20
 25
-1e+20
 35
-1e+20
146
0.0
 13
0.0
 23
0.0
 33
0.0
 16
1.0
 26
0.0
 36
0.0
 17
0.0
 27
1.0
 37
0.0
 76
1
330
17
  0
LAYOUT
  5
1E
330
D
100
AcDbPlotSettings
  1

  4
A3
  6

 40
7.5
 41
20.0
 42
7.5
 43
20.0
 44
420.0
 45
297.0
 46
0.0
 47
0.0
 48
0.0
 49
0.0
140
0.0
141
0.0
142
1.0
143
1.0
 70
0
 72
1
 73
0
 74
5
  7

 75
16
 76
0
 77
2
 78
300
147
1.0
148
0.0
149
0.0
100
AcDbLayout
  1
Layout1
 70
1
 71
1
 10
0.0
 20
0.0
 11
420.0
 21
297.0
 12
0.0
 22
0.0
 32
0.0
 14
1e+20
 24
1e+20
 34
1e+20
 15
-1e+20
 25
-1e+20
 35
-1e+20
146
0.0
 13
0.0
 23
0.0
 33
0.0
 16
1.0
 26
0.0
 36
0.0
 17
0.0
 27
1.0
 37
0.0
 76
1
330
1B
  0
MATERIAL
  5
1F
102
{ACAD_REACTORS
330
E
102
}
330
E
100
AcDbMaterial
  1
ByBlock
  2

 70
0
 40
1.0
 71
1
 41
1.0
 91
-1023410177
 42
1.0
 72
1
  3

 73
1
 74
1
 75
1
 44
0.5
 73
0
 45
1.0
 46
1.0
 77
1
  4

 78
1
 79
1
170
1
 48
1.0
171
1
  6

172
1
173
1
174
1
140
1.0
141
1.0
175
1
  7

176
1
177
1
178
1
143
1.0
179
1
  8

270
1
271
1
272
1
145
1.0
146
1.0
273
1
  9

274
1
275
1
276
1
 42
1.0
 72
1
  3

 73
1
 74
1
 75
1
 94
63
  0
MATERIAL
  5
20
102
{ACAD_REACTORS
330
E
102
}
330
E
100
AcDbMaterial
  1
ByLayer
  2

 70
0
 40
1.0
 71
1
 41
1.0
 91
-1023410177
 42
1.0
 72
1
  3

 73
1
 74
1
 75
1
 44
0.5
 73
0
 45
1.0
 46
1.0
 77
1
  4

 78
1
 79
1
170
1
 48
1.0
171
1
  6

172
1
173
1
174
1
140
1.0
141
1.0
175
1
  7

176
1
177
1
178
1
143
1.0
179
1
  8

270
1
271
1
272
1
145
1.0
146
1.0
273
1
  9

274
1
275
1
276
1
 42
1.0
 72
1
  3

 73
1
 74
1
 75
1
 94
63
  0
MATERIAL
  5
21
102
{ACAD_REACTORS
330
E
102
}
330
E
100
AcDbMaterial
  1
Global
  2

 70
0
 40
1.0
 71
1
 41
1.0
 91
-1023410177
 42
1.0
 72
1
  3

 73
1
 74
1
 75
1
 44
0.5
 73
0
 45
1.0
 46
1.0
 77
1
  4

 78
1
 79
1
170
1
 48
1.0
171
1
  6

172
1
173
1
174
1
140
1.0
141
1.0
175
1
  7

176
1
177
1
178
1
143
1.0
179
1
  8

270
1
271
1
272
1
145
1.0
146
1.0
273
1
  9

274
1
275
1
276
1
 42
1.0
 72
1
  3

 73
1
 74
1
 75
1
 94
63
  0
MLINESTYLE
  5
22
102
{ACAD_REACTORS
330
10
102
}
330
10
100
AcDbMlineStyle
  2
Standard
 70
0
  3

 62
256
 51
90.0
 52
90.0
 71
2
 49
0.5
 62
256
  6
BYLAYER
 49
-0.5
 62
256
  6
BYLAYER
  0
MLEADERSTYLE
  5
2C
102
{ACAD_REACTORS
330
F
102
}
330
F
100
AcDbMLeaderStyle
179
2
170
2
171
1
172
0
 90
2
 40
0.0
 41
0.0
173
1
 91
-1056964608
 92
-2
290
1
 42
2.0
291
1
 43
8.0
  3
Standard
 44
4.0
300

342
29
174
1
175
1
176
0
178
1
 93
-1056964608
 45
4.0
292
0
297
0
 46
4.0
 94
-1056964608
 47
1.0
 49
1.0
140
1.0
294
1
141
0.0
177
0
142
1.0
295
0
296
0
143
3.75
271
0
272
9
273
9
  0
DICTIONARY
  5
2D
330
A
100
AcDbDictionary
280
1
281
1
  3
CREATED_BY_EZDXF
350
2E
  3
WRITTEN_BY_EZDXF
350
44
  0
DICTIONARYVAR
  5
2E
330
2D
100
DictionaryVariables
280
0
  1
1.4.4 @ 2026-10-02T11:32:45.580128+00:00
  0
DICTIONARYVAR
  5
44
330
2D
100
DictionaryVariables
280
0
  1
1.4.4 @ 2026-10-02T11:32:45.583625+00:00
  0
ENDSEC
  0
EOF
