  0
SECTION
  2
HEADER
  9
$ACADVER
  1
AC1024
  9
$ACADMAINTVER
 70
6
  9
$DWGCODEPAGE
  3
ANSI_1252
  9
$LASTSAVEDBY
  1
ezdxf
  9
$INSBASE
 10
0.0
 20
0.0
 30
0.0
  9
$EXTMIN
 10
1e+20
 20
1e+20
 30
1e+20
  9
$EXTMAX
 10
-1e+20
 20
-1e+20
 30
-1e+20
  9
$LIMMIN
 10
0.0
 20
0.0
  9
$LIMMAX
 10
420.0
 20
297.0
  9
$ORTHOMODE
 70
0
  9
$REGENMODE
 70
1
  9
$FILLMODE
 70
1
  9
$QTEXTMODE
 70
0
  9
$MIRRTEXT
 70
1
  9
$LTSCALE
 40
1.0
  9
$ATTMODE
 70
1
  9
$TEXTSIZE
 40
2.5
  9
$TRACEWID
 40
1.0
  9
$TEXTSTYLE
  7
Standard
  9
$CLAYER
  8
0
  9
$CELTYPE
  6
ByLayer
  9
$CECOLOR
 62
256
  9
$CELTSCALE
 40
1.0
  9
$DISPSILH
 70
0
  9
$DIMSCALE
 40
1.0
  9
$DIMASZ
 40
2.5
  9
$DIMEXO
 40
0.625
  9
$DIMDLI
 40
3.75
  9
$DIMRND
 40
0.0
  9
$DIMDLE
 40
0.0
  9
$DIMEXE
 40
1.25
  9
$DIMTP
 40
0.0
  9
$DIMTM
 40
0.0
  9
$DIMTXT
 40
2.5
  9
$DIMCEN
 40
2.5
  9
$DIMTSZ
 40
0.0
  9
$DIMTOL
 70
0
  9
$DIMLIM
 70
0
  9
$DIMTIH
 70
0
  9
$DIMTOH
 70
0
  9
$DIMSE1
 70
0
  9
$DIMSE2
 70
0
  9
$DIMTAD
 70
1
  9
$DIMZIN
 70
8
  9
$DIMBLK
  1

  9
$DIMASO
 70
1
  9
$DIMSHO
 70
1
  9
$DIMPOST
  1

  9
$DIMAPOST
  1

  9
$DIMALT
 70
0
  9
$DIMALTD
 70
3
  9
$DIMALTF
 40
0.03937007874
  9
$DIMLFAC
 40
1.0
  9
$DIMTOFL
 70
1
  9
$DIMTVP
 40
0.0
  9
$DIMTIX
 70
0
  9
$DIMSOXD
 70
0
  9
$DIMSAH
 70
0
  9
$DIMBLK1
  1

  9
$DIMBLK2
  1

  9
$DIMSTYLE
  2
ISO-25
  9
$DIMCLRD
 70
0
  9
$DIMCLRE
 70
0
  9
$DIMCLRT
 70
0
  9
$DIMTFAC
 40
1.0
  9
$DIMGAP
 40
0.625
  9
$DIMJUST
 70
0
  9
$DIMSD1
 70
0
  9
$DIMSD2
 70
0
  9
$DIMTOLJ
 70
0
  9
$DIMTZIN
 70
8
  9
$DIMALTZ
 70
0
  9
$DIMALTTZ
 70
0
  9
$DIMUPT
 70
0
  9
$DIMDEC
 70
2
  9
$DIMTDEC
 70
2
  9
$DIMALTU
 70
2
  9
$DIMALTTD
 70
3
  9
$DIMTXSTY
  7
Standard
  9
$DIMAUNIT
 70
0
  9
$DIMADEC
 70
0
  9
$DIMALTRND
 40
0.0
  9
$DIMAZIN
 70
0
  9
$DIMDSEP
 70
44
  9
$DIMATFIT
 70
3
  9
$DIMFRAC
 70
0
  9
$DIMLDRBLK
  1

  9
$DIMLUNIT
 70
2
  9
$DIMLWD
 70
-2
  9
$DIMLWE
 70
-2
  9
$DIMTMOVE
 70
0
  9
$DIMFXL
 40
1.0
  9
$DIMFXLON
 70
0
  9
$DIMJOGANG
 40
0.785398163397
  9
$DIMTFILL
 70
0
  9
$DIMTFILLCLR
 70
0
  9
$DIMARCSYM
 70
0
  9
$DIMLTYPE
  6

  9
$DIMLTEX1
  6

  9
$DIMLTEX2
  6

  9
$DIMTXTDIRECTION
 70
0
  9
$LUNITS
 70
2
  9
$LUPREC
 70
4
  9
$SKETCHINC
 40
1.0
  9
$FILLETRAD
 40
10.0
  9
$AUNITS
 70
0
  9
$AUPREC
 70
2
  9
$MENU
  1
.
  9
$ELEVATION
 40
0.0
  9
$PELEVATION
 40
0.0
  9
$THICKNESS
 40
0.0
  9
$LIMCHECK
 70
0
  9
$CHAMFERA
 40
0.0
  9
$CHAMFERB
 40
0.0
  9
$CHAMFERC
 40
0.0
  9
$CHAMFERD
 40
0.0
  9
$SKPOLY
 70
0
  9
$TDCREATE
 40
2461316.481076389
  9
$TDUCREATE
 40
2458532.153996898
  9
$TDUPDATE
 40
2461316.481076389
  9
$TDUUPDATE
 40
2458532.1544311
  9
$TDINDWG
 40
0.0
  9
$TDUSRTIMER
 40
0.0
  9
$USRTIMER
 70
1
  9
$ANGBASE
 50
0.0
  9
$ANGDIR
 70
0
  9
$PDMODE
 70
0
  9
$PDSIZE
 40
0.0
  9
$PLINEWID
 40
0.0
  9
$SPLFRAME
 70
0
  9
$SPLINETYPE
 70
6
  9
$SPLINESEGS
 70
8
  9
$HANDSEED
  5
45
  9
$SURFTAB1
 70
6
  9
$SURFTAB2
 70
6
  9
$SURFTYPE
 70
6
  9
$SURFU
 70
6
  9
$SURFV
 70
6
  9
$UCSBASE
  2

  9
$UCSNAME
  2

  9
$UCSORG
 10
0.0
 20
0.0
 30
0.0
  9
$UCSXDIR
 10
1.0
 20
0.0
 30
0.0
  9
$UCSYDIR
 10
0.0
 20
1.0
 30
0.0
  9
$UCSORTHOREF
  2

  9
$UCSORTHOVIEW
 70
0
  9
$UCSORGTOP
 10
0.0
 20
0.0
 30
0.0
  9
$UCSORGBOTTOM
 10
0.0
 20
0.0
 30
0.0
  9
$UCSORGLEFT
 10
0.0
 20
0.0
 30
0.0
  9
$UCSORGRIGHT
 10
0.0
 20
0.0
 30
0.0
  9
$UCSORGFRONT
 10
0.0
 20
0.0
 30
0.0
  9
$UCSORGBACK
 10
0.0
 20
0.0
 30
0.0
  9
$PUCSBASE
  2

  9
$PUCSNAME
  2

  9
$PUCSORG
 10
0.0
 20
0.0
 30
0.0
  9
$PUCSXDIR
 10
1.0
 20
0.0
 30
0.0
  9
$PUCSYDIR
 10
0.0
 20
1.0
 30
0.0
  9
$PUCSORTHOREF
  2

  9
$PUCSORTHOVIEW
 70
0
  9
$PUCSORGTOP
 10
0.0
 20
0.0
 30
0.0
  9
$PUCSORGBOTTOM
 10
0.0
 20
0.0
 30
0.0
  9
$PUCSORGLEFT
 10
0.0
 20
0.0
 30
0.0
  9
$PUCSORGRIGHT
 10
0.0
 20
0.0
 30
0.0
  9
$PUCSORGFRONT
 10
0.0
 20
0.0
 30
0.0
  9
$PUCSORGBACK
 10
0.0
 20
0.0
 30
0.0
  9
$USERI1
 70
0
  9
$USERI2
 70
0
  9
$USERI3
 70
0
  9
$USERI4
 70
0
  9
$USERI5
 70
0
  9
$USERR1
 40
0.0
  9
$USERR2
 40
0.0
  9
$USERR3
 40
0.0
  9
$USERR4
 40
0.0
  9
$USERR5
 40
0.0
  9
$WORLDVIEW
 70
1
  9
$SHADEDGE
 70
3
  9
$SHADEDIF
 70
70
  9
$TILEMODE
 70
1
  9
$MAXACTVP
 70
64
  9
$PINSBASE
 10
0.0
 20
0.0
 30
0.0
  9
$PLIMCHECK
 70
0
  9
$PEXTMIN
 10
1e+20
 20
1e+20
 30
1e+20
  9
$PEXTMAX
 10
-1e+20
 20
-1e+20
 30
-1e+20
  9
$PLIMMIN
 10
0.0
 20
0.0
  9
$PLIMMAX
 10
420.0
 20
297.0
  9
$UNITMODE
 70
0
  9
$VISRETAIN
 70
1
  9
$PLINEGEN
 70
0
  9
$PSLTSCALE
 70
1
  9
$TREEDEPTH
 70
3020
  9
$CMLSTYLE
  2
Standard
  9
$CMLJUST
 70
0
  9
$CMLSCALE
 40
20.0
  9
$PROXYGRAPHICS
 70
1
  9
$MEASUREMENT
 70
1
  9
$CELWEIGHT
370
-1
  9
$ENDCAPS
280
0
  9
$JOINSTYLE
280
0
  9
$LWDISPLAY
290
0
  9
$INSUNITS
 70
4
  9
$HYPERLINKBASE
  1

  9
$STYLESHEET
  1

  9
$XEDIT
290
1
  9
$CEPSNTYPE
380
0
  9
$PSTYLEMODE
290
1
  9
$FINGERPRINTGUID
  2
{A23927A1-E47A-4FCD-A0C5-BF3B4A020FAE}
  9
$VERSIONGUID
  2
{0E2E3C28-19C1-404C-842A-BD7F3CD38560}
  9
$EXTNAMES
290
1
  9
$PSVPSCALE
 40
0.0
  9
$OLESTARTUP
290
0
  9
$SORTENTS
280
127
  9
$INDEXCTL
280
0
  9
$HIDETEXT
280
1
  9
$XCLIPFRAME
280
1
  9
$HALOGAP
280
0
  9
$OBSCOLOR
 70
257
  9
$OBSLTYPE
280
0
  9
$INTERSECTIONDISPLAY
280
0
  9
$INTERSECTIONCOLOR
 70
257
  9
$DIMASSOC
280
2
  9
$PROJECTNAME
  1

  9
$CAMERADISPLAY
290
0
  9
$LENSLENGTH
 40
50.0
  9
$CAMERAHEIGHT
 40
0.0
  9
$STEPSPERSEC
 40
24.0
  9
$STEPSIZE
 40
100.0
  9
$3DDWFPREC
 40
2.0
  9
$PSOLWIDTH
 40
0.005
  9
$PSOLHEIGHT
 40
0.08
  9
$LOFTANG1
 40
1.570796326795
  9
$LOFTANG2
 40
1.570796326795
  9
$LOFTMAG1
 40
0.0
  9
$LOFTMAG2
 40
0.0
  9
$LOFTPARAM
 70
7
  9
$LOFTNORMALS
280
1
  9
$LATITUDE
 40
37.795
  9
$LONGITUDE
 40
-122.394
  9
$NORTHDIRECTION
 40
0.0
  9
$TIMEZONE
 70
-8000
  9
$LIGHTGLYPHDISPLAY
280
1
  9
$TILEMODELIGHTSYNCH
280
1
  9
$CMATERIAL
347
20
  9
$SOLIDHIST
280
0
  9
$SHOWHIST
280
1
  9
$DWFFRAME
280
2
  9
$DGNFRAME
280
2
  9
$REALWORLDSCALE
290
1
  9
$INTERFERECOLOR
 62
256
  9
$CSHADOW
280
0
  9
$SHADOWPLANELOCATION
 40
0.0
  0
ENDSEC
  0
SECTION
  2
CLASSES
  0
CLASS
  1
ACDBDICTIONARYWDFLT
  2
AcDbDictionaryWithDefault
  3
ObjectDBX Classes
 90
0
 91
0
280
0
281
0
  0
CLASS
  1
SUN
  2
AcDbSun
  3
SCENEOE
 90
1153
 91
0
280
0
281
0
  0
CLASS
  1
VISUALSTYLE
  2
AcDbVisualStyle
  3
ObjectDBX Classes
 90
4095
 91
0
280
0
281
0
  0
CLASS
  1
MATERIAL
  2
AcDbMaterial
  3
ObjectDBX Classes
 90
1153
 91
0
280
0
281
0
  0
CLASS
  1
SCALE
  2
AcDbScale
  3
ObjectDBX Classes
 90
1153
 91
0
280
0
281
0
  0
CLASS
  1
TABLESTYLE
  2
AcDbTableStyle
  3
ObjectDBX Classes
 90
4095
 91
0
280
0
281
0
  0
CLASS
  1
MLEADERSTYLE
  2
AcDbMLeaderStyle
  3
ACDB_MLEADERSTYLE_CLASS
 90
4095
 91
0
280
0
281
0
  0
CLASS
  1
DICTIONARYVAR
  2
AcDbDictionaryVar
  3
ObjectDBX Classes
 90
0
 91
0
280
0
281
0
  0
CLASS
  1
CELLSTYLEMAP
  2
AcDbCellStyleMap
  3
ObjectDBX Classes
 90
1152
 91
0
280
0
281
0
  0
CLASS
  1
MENTALRAYRENDERSETTINGS
  2
AcDbMentalRayRenderSettings
  3
SCENEOE
 90
1024
 91
0
280
0
281
0
  0
CLASS
  1
ACDBDETAILVIEWSTYLE
  2
AcDbDetailViewStyle
  3
ObjectDBX Classes
 90
1025
 91
0
280
0
281
0
  0
CLASS
  1
ACDBSECTIONVIEWSTYLE
  2
AcDbSectionViewStyle
  3
ObjectDBX Classes
 90
1025
 91
0
280
0
281
0
  0
CLASS
  1
RASTERVARIABLES
  2
AcDbRasterVariables
  3
ISM
 90
0
 91
0
280
0
281
0
  0
CLASS
  1
ACDBPLACEHOLDER
  2
AcDbPlaceHolder
  3
ObjectDBX Classes
 90
0
 91
0
280
0
281
0
  0
CLASS
  1
LAYOUT
  2
AcDbLayout
  3
ObjectDBX Classes
 90
0
 91
0
280
0
281
0
  0
ENDSEC
  0
SECTION
  2
TABLES
  0
TABLE
  2
VPORT
  5
8
330
0
100
AcDbSymbolTable
 70
1
  0
VPORT
  5
23
330
8
100
AcDbSymbolTableRecord
100
AcDbViewportTableRecord
  2
*Active
 70
0
 10
0.0
 20
0.0
 11
1.0
 21
1.0
 12
0.0
 22
0.0
 13
0.0
 23
0.0
 14
0.5
 24
0.5
 15
0.5
 25
0.5
 16
0.0
 26
0.0
 36
1.0
 17
0.0
 27
0.0
 37
0.0
 40
1000.0
 41
1.34
 42
50.0
 43
0.0
 44
0.0
 50
0.0
 51
0.0
 71
0
 72
1000
 73
1
 74
3
 75
0
 76
0
 77
0
 78
0
281
0
 65
0
146
0.0
  0
ENDTAB
  0
TABLE
  2
LTYPE
  5
2
330
0
100
AcDbSymbolTable
 70
3
  0
LTYPE
  5
24
330
2
100
AcDbSymbolTableRecord
100
AcDbLinetypeTableRecord
  2
ByBlock
 70
0
  3

 72
65
 73
0
 40
0.0
  0
LTYPE
  5
25
330
2
100
AcDbSymbolTableRecord
100
AcDbLinetypeTableRecord
  2
ByLayer
 70
0
  3

 72
65
 73
0
 40
0.0
  0
LTYPE
  5
26
330
2
100
AcDbSymbolTableRecord
100
AcDbLinetypeTableRecord
  2
Continuous
 70
0
  3

 72
65
 73
0
 40
0.0
  0
ENDTAB
  0
TABLE
  2
LAYER
  5
1
330
0
100
AcDbSymbolTable
 70
6
  0
LAYER
  5
27
330
1
100
AcDbSymbolTableRecord
100
AcDbLayerTableRecord
  2
0
 70
0
 62
7
  6
Continuous
370
-3
390
13
347
21
  0
LAYER
  5
28
330
1
100
AcDbSymbolTableRecord
100
AcDbLayerTableRecord
  2
Defpoints
 70
0
 62
7
  6
Continuous
290
0
370
-3
390
13
347
21
  0
LAYER
  5
2F
330
1
100
AcDbSymbolTableRecord
100
AcDbLayerTableRecord
  2
SEAM
 70
0
 62
5
  6
Continuous
370
-3
390
13
347
21
  0
LAYER
  5
30
330
1
100
AcDbSymbolTableRecord
100
AcDbLayerTableRecord
  2
CUT_DRAFT
 70
0
 62
1
  6
Continuous
370
-3
390
13
347
21
  0
LAYER
  5
31
330
1
100
AcDbSymbolTableRecord
100
AcDbLayerTableRecord
  2
GRID_REFERENCE
 70
0
 62
8
  6
Continuous
370
-3
390
13
347
21
  0
LAYER
  5
32
330
1
100
AcDbSymbolTableRecord
100
AcDbLayerTableRecord
  2
TEXT
 70
0
 62
7
  6
Continuous
370
-3
390
13
347
21
  0
ENDTAB
  0
TABLE
  2
STYLE
  5
5
330
0
100
AcDbSymbolTable
 70
1
  0
STYLE
  5
29
330
5
100
AcDbSymbolTableRecord
100
AcDbTextStyleTableRecord
  2
Standard
 70
0
 40
0.0
 41
1.0
 50
0.0
 71
0
 42
2.5
  3
txt
  4

  0
ENDTAB
  0
TABLE
  2
VIEW
  5
7
330
0
100
AcDbSymbolTable
 70
0
  0
ENDTAB
  0
TABLE
  2
UCS
  5
6
330
0
100
AcDbSymbolTable
 70
0
  0
ENDTAB
  0
TABLE
  2
APPID
  5
3
330
0
100
AcDbSymbolTable
 70
3
  0
APPID
  5
2A
330
3
100
AcDbSymbolTableRecord
100
AcDbRegAppTableRecord
  2
ACAD
 70
0
  0
APPID
  5
42
330
3
100
AcDbSymbolTableRecord
100
AcDbRegAppTableRecord
  2
HATCHBACKGROUNDCOLOR
 70
0
  0
APPID
  5
43
330
3
100
AcDbSymbolTableRecord
100
AcDbRegAppTableRecord
  2
EZDXF
 70
0
  0
ENDTAB
  0
TABLE
  2
DIMSTYLE
  5
4
330
0
100
AcDbSymbolTable
 70
1
100
AcDbDimStyleTable
  0
DIMSTYLE
105
2B
330
4
100
AcDbSymbolTableRecord
100
AcDbDimStyleTableRecord
  2
Standard
 70
0
 40
1.0
 41
2.5
 42
0.625
 43
3.75
 44
1.25
 45
0.0
 46
0.0
 47
0.0
 48
0.0
 49
2.5
140
2.5
141
2.5
142
0.0
143
0.03937007874
144
1.0
145
0.0
146
1.0
147
0.625
148
0.0
 69
0
 70
0
 71
0
 72
0
 73
0
 74
0
 75
0
 76
0
 77
1
 78
8
 79
3
170
0
171
3
172
1
173
0
174
0
175
0
176
0
177
0
178
0
179
2
271
2
272
2
273
2
274
3
275
0
276
0
277
2
278
44
279
0
280
0
281
0
282
0
283
0
284
8
285
0
286
0
288
0
289
3
290
0
371
-2
372
-2
  0
ENDTAB
  0
TABLE
  2
BLOCK_RECORD
  5
9
330
0
100
AcDbSymbolTable
 70
2
  0
BLOCK_RECORD
  5
17
330
9
100
AcDbSymbolTableRecord
100
AcDbBlockTableRecord
  2
*Model_Space
340
1A
 70
0
280
1
281
0
  0
BLOCK_RECORD
  5
1B
330
9
100
AcDbSymbolTableRecord
100
AcDbBlockTableRecord
  2
*Paper_Space
340
1E
 70
0
280
1
281
0
  0
ENDTAB
  0
ENDSEC
  0
SECTION
  2
BLOCKS
  0
BLOCK
  5
18
330
17
100
AcDbEntity
  8
0
100
AcDbBlockBegin
  2
*Model_Space
 70
0
 10
0.0
 20
0.0
 30
0.0
  3
*Model_Space
  1

  0
ENDBLK
  5
19
330
17
100
AcDbEntity
  8
0
100
AcDbBlockEnd
  0
BLOCK
  5
1C
330
1B
100
AcDbEntity
  8
0
100
AcDbBlockBegin
  2
*Paper_Space
 70
0
 10
0.0
 20
0.0
 30
0.0
  3
*Paper_Space
  1

  0
ENDBLK
  5
1D
330
1B
100
AcDbEntity
  8
0
100
AcDbBlockEnd
  0
ENDSEC
  0
SECTION
  2
ENTITIES
  0
LWPOLYLINE
  5
33
330
17
100
AcDbEntity
  8
SEAM
100
AcDbPolyline
 90
88
 70
1
 10
-7.021986226770126
 20
-554.3623824699106
 10
17.761854950019814
 20
-558.135542874338
 10
42.39058068841426
 20
-561.805343086515
 10
66.88006786481846
 20
-565.3359427968882
 10
91.23453289697444
 20
-568.7656016861522
 10
115.47781403584736
 20
-572.1276260812926
 10
139.6539339180619
 20
-575.4280802970344
 10
163.82268040327534
 20
-578.6347414233347
 10
188.04943118536568
 20
-581.6714798535993
 10
212.38599776219843
 20
-584.423379132331
 10
236.82520682792142
 20
-586.7776497830137
 10
233.93790782274854
 20
-564.5264225465718
 10
231.77138409426396
 20
-541.9802018377488
 10
230.34707507665658
 20
-518.5914001450788
 10
229.68406261623542
 20
-493.86811722572145
 10
229.76580235486236
 20
-467.4181162474418
 10
230.53407505240096
 20
-438.9607233679244
 10
231.89382781905206
 20
-408.323545662602
 10
233.7208499794248
 20
-375.4332047240567
 10
235.87062887871363
 20
-340.30388558072747
 10
238.1890858067969
 20
-303.0252899404521
 10
240.5242913327297
 20
-263.7505775269838
 10
242.73678841166392
 20
-222.68460928834824
 10
244.70653707199176
 20
-180.07294847693956
 10
246.33618806684999
 20
-136.19211297706042
 10
247.55163097721896
 20
-91.34131709571864
 10
248.3011640831625
 20
-45.8355993793796
 10
248.5543542983982
 20
0.0
 10
248.30116395410454
 20
45.835599674941555
 10
247.55163062332534
 20
91.34131751376246
 10
246.33618750201975
 20
136.192113452756
 10
244.70653631531772
 20
180.07294898429424
 10
242.73678747416523
 20
222.6846098179604
 10
240.52429021734918
 20
263.7505780785016
 10
238.18908450056222
 20
303.0252905124724
 10
235.87062737208984
 20
340.30388617066455
 10
233.72084827275665
 20
375.43320532802045
 10
231.8938259122026
 20
408.3235462742793
 10
230.53407295842928
 20
438.9607239840715
 10
229.76580008238585
 20
467.4181168669086
 10
229.6840601768968
 20
493.86811784857053
 10
230.34707248225448
 20
518.5914007727896
 10
231.7713813550328
 20
541.980202473138
 10
233.93790494707682
 20
564.5264231929946
 10
236.8252038201331
 20
586.7776504452605
 10
212.3859947689401
 20
584.423379651379
 10
188.04942820935173
 20
581.6714802306587
 10
163.82267744561085
 20
578.6347416605788
 10
139.65393097837446
 20
575.4280803942233
 10
115.47781111423483
 20
572.1276260372159
 10
91.23452999108072
 20
568.7656015010695
 10
66.88006497587189
 20
565.3359424655071
 10
42.39057781814216
 20
561.8053426035524
 10
17.761852099184445
 20
558.135542233604
 10
-7.02198905463797
 20
554.3623816680517
 10
-9.125867438787372
 20
542.6070366808901
 10
-10.519383755882997
 20
529.6752278312152
 10
-11.229736361980283
 20
514.3505229579994
 10
-11.306845976977028
 20
495.99149997684674
 10
-10.833930564828188
 20
474.3280855955596
 10
-9.931264316834563
 20
449.28376983464204
 10
-8.74081464965334
 20
420.88895469083093
 10
-7.4034115868547286
 20
389.2463184746273
 10
-6.038047688713164
 20
354.5184402484866
 10
-4.731223206723084
 20
316.9224043981703
 10
-3.53829122493184
 20
276.7242959714283
 10
-2.4921895873348245
 20
234.2317043842388
 10
-1.6130447446611433
 20
189.78514588811154
 10
-0.9147529741453538
 20
143.74989728685546
 10
-0.4080077028734635
 20
96.50909444691686
 10
-0.10105009433200206
 20
48.45815901433341
 10
0.0
 20
0.0
 10
-0.10104956522389857
 20
-48.458159239025
 10
-0.40800656270646796
 20
-96.5090947389452
 10
-0.9147514738612373
 20
-143.74989756673077
 10
-1.6130435115396815
 20
-189.7851461668813
 10
-2.4921885568967346
 20
-234.23170473244662
 10
-3.53829017570737
 20
-276.72429642121637
 10
-4.731221938576802
 20
-316.92240494794777
 10
-6.038046135348879
 20
-354.5184408739885
 10
-7.403409837338023
 20
-389.24631915591686
 10
-8.740812709862112
 20
-420.88895542024795
 10
-9.93126219175698
 20
-449.2837706006876
 10
-10.833928282431726
 20
-474.328086388921
 10
-11.306843558324587
 20
-495.99150079007416
 10
-11.229733804124049
 20
-514.3505237794147
 10
-10.519381083565692
 20
-529.6752286517905
 10
-9.125864684549292
 20
-542.6070374943507
  0
LWPOLYLINE
  5
34
330
17
100
AcDbEntity
  8
CUT_DRAFT
100
AcDbPolyline
 90
89
 70
1
 10
-17.320861533079395
 20
-564.9327237950838
 10
-21.011936587111066
 20
-544.3089751035233
 10
-22.489550794778147
 20
-530.5967400052574
 10
-23.228566358147965
 20
-514.6536809066266
 10
-23.307393635652236
 20
-495.88573364895126
 10
-22.82921039524527
 20
-473.98100308793363
 10
-21.922206001614878
 20
-448.81632182864877
 10
-20.730108637331966
 20
-420.38221765418467
 10
-19.393451905343504
 20
-388.75723489879687
 10
-18.029854900837492
 20
-354.0742923765242
 10
-16.725037536598897
 20
-316.5359910319313
 10
-15.533909095267967
 20
-276.3986488601329
 10
-14.489267949479974
 20
-233.96538150726664
 10
-13.611243728231335
 20
-189.57548796488427
 10
-12.913775327728546
 20
-143.5945380536658
 10
-12.407595436931706
 20
-96.40640870070942
 10
-12.100969639214712
 20
-48.407319090291026
 10
-12.000026090843951
 20
-6.557135320956567e-08
 10
-12.100970167744729
 20
48.407318723677456
 10
-12.407596575987695
 20
96.40640828661829
 10
-12.91377682769271
 20
143.5945377628914
 10
-13.611244962453313
 20
189.57548774808492
 10
-14.489268980527218
 20
233.96538118321234
 10
-15.533910143588956
 20
276.39864837426234
 10
-16.7250388022346
 20
316.53599040321984
 10
-18.029856451210577
 20
354.0742916709785
 10
-19.393453651985432
 20
388.7572341469524
 10
-20.730282350718163
 20
420.38629750633703
 10
-21.922208123686445
 20
448.8163209853778
 10
-22.829212675451995
 20
473.9810022188856
 10
-23.307396053470832
 20
495.88573275239895
 10
-23.228568918299082
 20
514.6536799950051
 10
-22.48955347365026
 20
530.5967391022459
 10
-21.01193935205483
 20
544.3089742154148
 10
-17.32086442731116
 20
564.9327229267101
 10
15.974529726938462
 20
570.0017058764317
 10
40.65014504636611
 20
573.6784930257659
 10
65.18722393617566
 20
577.2159540915354
 10
89.57366379479996
 20
580.6501159076172
 10
113.8420500996217
 20
584.0156219954696
 10
138.05319778657105
 20
587.3208582501123
 10
162.2872654834543
 20
590.5361862074467
 10
186.62897267851199
 20
593.5873341645824
 10
211.13641807025763
 20
596.3585560052536
 10
250.66309626299048
 20
600.1662284979834
 10
245.8638046460275
 20
563.1800579925734
 10
243.7364349008555
 20
541.0412970746087
 10
242.33728872460046
 20
518.0656960012286
 10
241.68455734703682
 20
493.72578195949075
 10
241.76529959760728
 20
467.5986095083797
 10
242.52689071556435
 20
439.38871386375126
 10
243.87906128830562
 20
408.92237803703637
 10
245.7005040139632
 20
376.13248254676245
 10
247.84785662649156
 20
341.04281436072023
 10
250.16695866581637
 20
303.7538491465816
 10
252.50511594893686
 20
264.4294957246041
 10
254.72187266464366
 20
223.28446801977427
 10
256.6962493864513
 20
180.5726920461797
 10
258.3301536185456
 20
136.57733680214912
 10
259.5489534092414
 20
91.60267715351911
 10
260.3006180984558
 20
45.967560138459405
 10
260.5545373763994
 20
1.667870499790856e-08
 10
260.3006182279507
 20
-45.967559796851866
 10
259.54895376439157
 20
-91.60267667813264
 10
258.3301541851198
 20
-136.5773362724592
 10
256.6962501452653
 20
-180.57269148756808
 10
254.72187360469027
 20
-223.28446743921825
 10
252.5051170673982
 20
-264.4294951185657
 10
250.1669599757394
 20
-303.75384851385405
 10
247.84785813717062
 20
-341.0428137050674
 10
245.70050572473022
 20
-376.1324818726967
 10
243.87906319879235
 20
-408.92237735258476
 10
242.52689281218898
 20
-439.388713173523
 10
241.76530187122154
 20
-467.5986088134781
 10
241.68455978547692
 20
-493.7257812611527
 10
242.3372913157184
 20
-518.0656952988079
 10
243.73643763432898
 20
-541.041296366042
 10
245.86380751362825
 20
-563.1800572747596
 10
250.66309935030662
 20
-600.1662277547156
 10
211.1364211333492
 20
-596.358555493518
 10
186.62897572373484
 20
-593.5873337957755
 10
162.28726850995642
 20
-590.536185979083
 10
138.05320079537543
 20
-587.3208581622258
 10
113.84205309041232
 20
-584.0156220490653
 10
89.57366677066915
 20
-580.6501161024778
 10
65.1872268973226
 20
-577.2159544332029
 10
40.65014799119497
 20
-573.6784935196544
 10
15.974532654139159
 20
-570.0017065286669
 10
-17.320861533079395
 20
-564.9327237950838
  0
LWPOLYLINE
  5
35
330
17
100
AcDbEntity
  8
GRID_REFERENCE
100
AcDbPolyline
 90
35
 70
0
 10
-7.021986226770126
 20
-554.3623824699106
 10
-9.125864684549292
 20
-542.6070374943507
 10
-10.519381083565692
 20
-529.6752286517905
 10
-11.229733804124049
 20
-514.3505237794147
 10
-11.306843558324587
 20
-495.99150079007416
 10
-10.833928282431726
 20
-474.328086388921
 10
-9.93126219175698
 20
-449.2837706006876
 10
-8.740812709862112
 20
-420.88895542024795
 10
-7.403409837338023
 20
-389.24631915591686
 10
-6.038046135348879
 20
-354.5184408739885
 10
-4.731221938576802
 20
-316.92240494794777
 10
-3.53829017570737
 20
-276.72429642121637
 10
-2.4921885568967346
 20
-234.23170473244662
 10
-1.6130435115396815
 20
-189.7851461668813
 10
-0.9147514738612373
 20
-143.74989756673077
 10
-0.40800656270646796
 20
-96.5090947389452
 10
-0.10104956522389857
 20
-48.458159239025
 10
0.0
 20
0.0
 10
-0.10105009433200206
 20
48.45815901433341
 10
-0.4080077028734635
 20
96.50909444691686
 10
-0.9147529741453538
 20
143.74989728685546
 10
-1.6130447446611433
 20
189.78514588811154
 10
-2.4921895873348245
 20
234.2317043842388
 10
-3.53829122493184
 20
276.7242959714283
 10
-4.731223206723084
 20
316.9224043981703
 10
-6.038047688713164
 20
354.5184402484866
 10
-7.4034115868547286
 20
389.2463184746273
 10
-8.74081464965334
 20
420.88895469083093
 10
-9.931264316834563
 20
449.28376983464204
 10
-10.833930564828188
 20
474.3280855955596
 10
-11.306845976977028
 20
495.99149997684674
 10
-11.229736361980283
 20
514.3505229579994
 10
-10.519383755882997
 20
529.6752278312152
 10
-9.125867438787372
 20
542.6070366808901
 10
-7.02198905463797
 20
554.3623816680517
  0
LWPOLYLINE
  5
36
330
17
100
AcDbEntity
  8
GRID_REFERENCE
100
AcDbPolyline
 90
35
 70
0
 10
17.761854950019814
 20
-558.135542874338
 10
15.630925480788942
 20
-545.1641877777735
 10
14.333342755859146
 20
-531.3888769683639
 10
13.749860069556227
 20
-515.5195760722991
 10
13.78257766020927
 20
-496.78878013943273
 10
14.332663453264876
 20
-474.83844827561467
 10
15.276005590523873
 20
-449.54895422300626
 10
16.472644581133807
 20
-420.936337919696
 10
17.788474971679307
 20
-389.10519809271096
 10
19.11392174303429
 20
-354.22705141852555
 10
20.37192154320196
 20
-316.5275539337546
 10
21.51467282704157
 20
-276.27662060136674
 10
22.514306571054963
 20
-233.78004125949735
 10
23.353627613447838
 20
-189.37231012073582
 10
24.02022987378246
 20
-143.41045961857338
 10
24.50409299327757
 20
-96.26868237847229
 10
24.797283654365927
 20
-48.33353893081023
 10
24.894720408603845
 20
-1.788405154698217e-08
 10
24.797283190016604
 20
48.33353888944723
 10
24.504092001888946
 20
96.26868225815613
 10
24.02022858950721
 20
143.41045939293465
 10
23.353626440945398
 20
189.37230981076212
 10
22.514305519341523
 20
233.78004091432325
 10
21.514671735272827
 20
276.27662022553244
 10
20.371920269919475
 20
316.527553516776
 10
19.11392021787239
 20
354.22705094297
 10
17.78847323717211
 20
389.1051975605529
 10
16.472642647108298
 20
420.93633734591884
 10
15.276003466925117
 20
449.54895361623875
 10
14.332661168663972
 20
474.8384476443315
 10
13.782575226764308
 20
496.78877949434224
 10
13.749857503373125
 20
515.5195754214924
 10
14.333340078538662
 20
531.3888763128897
 10
15.630922712688323
 20
545.1641871264948
 10
17.761852099184445
 20
558.135542233604
  0
LWPOLYLINE
  5
37
330
17
100
AcDbEntity
  8
GRID_REFERENCE
100
AcDbPolyline
 90
35
 70
0
 10
42.39058068841426
 20
-561.805343086515
 10
40.23634120104538
 20
-547.7112209452305
 10
38.9381063033775
 20
-533.0758870658517
 10
38.36056950205167
 20
-516.6068311803423
 10
38.38238131585347
 20
-497.4610241310014
 10
38.8960139620976
 20
-475.2033347245896
 10
39.778404577117065
 20
-449.66694422954896
 10
40.89585640088457
 20
-420.848365962603
 10
42.123415564828825
 20
-388.8489341449544
 10
43.3608090188182
 20
-353.84357821825046
 10
44.537866821595124
 20
-316.0619785514178
 10
45.61040990272016
 20
-275.77555531066923
 10
46.55166740906918
 20
-233.28814987292103
 10
47.34424670191781
 20
-188.9293105948684
 10
47.975166574820264
 20
-143.04914744718624
 10
48.43390020707686
 20
-96.01393920514043
 10
48.71228909194967
 20
-48.2020760457194
 10
48.80527770657095
 20
3.0783107944239305e-08
 10
48.71228867225659
 20
48.202076073265346
 10
48.43389936789249
 20
96.01393917086578
 10
47.975165485196165
 20
143.04914730553713
 10
47.34424561029802
 20
188.9293103625436
 10
46.5516663474051
 20
233.28814959447652
 10
45.61040877254072
 20
275.7755550115878
 10
44.53786552544483
 20
316.06197823072966
 10
43.36080750324256
 20
353.84357786306714
 10
42.123413836907005
 20
388.8489337496182
 10
40.89585446841151
 20
420.84836553338437
 10
39.77840245499374
 20
449.66694377216993
 10
38.89601167030953
 20
475.20333424748725
 10
38.38237887470191
 20
497.4610236419909
 10
38.3605669290542
 20
516.6068306849863
 10
38.938103619622545
 20
533.0758865670192
 10
40.236338421480454
 20
547.7112204520905
 10
42.39057781814216
 20
561.8053426035524
  0
LWPOLYLINE
  5
38
330
17
100
AcDbEntity
  8
GRID_REFERENCE
100
AcDbPolyline
 90
35
 70
0
 10
66.88006786481846
 20
-565.3359427968882
 10
64.71852798215988
 20
-550.1470958391772
 10
63.41824269191972
 20
-534.6029144469458
 10
62.823113231871
 20
-517.4537285106854
 10
62.79936646275926
 20
-497.8207497313154
 10
63.23445953023538
 20
-475.21055554602106
 10
64.01210001991556
 20
-449.41027307556766
 10
65.0117584920232
 20
-420.39091947489726
 10
66.12267105847928
 20
-388.24392024212017
 10
67.25567665507036
 20
-353.1420345555039
 10
68.34643443167906
 20
-315.31463969931247
 10
69.35157728555834
 20
-275.0316851013428
 10
70.2421013387756
 20
-232.59339578153882
 10
70.99744987683633
 20
-188.32369408956583
 10
71.60185495877086
 20
-142.56563108487057
 10
72.04284349857562
 20
-95.67761134598388
 10
72.31110965365593
 20
-48.02973299199906
 10
72.40099800361075
 20
6.315949292117501e-08
 10
72.31110927698087
 20
48.02973311274769
 10
72.0428427841292
 20
95.67761138570465
 10
71.6018540170274
 20
142.56563102885596
 10
70.99744886460515
 20
188.32369395079408
 10
70.24210028631889
 20
232.5933955951054
 10
69.35157613507063
 20
275.0316848924711
 10
68.34643311677404
 20
315.31463947471605
 10
67.25567513787173
 20
353.1420343104077
 10
66.12266933161385
 20
388.24391997149723
 10
65.01175656041848
 20
420.3909191799946
 10
64.01209789817018
 20
449.41027276020384
 10
63.23445723595668
 20
475.2105552149717
 10
62.79936401610708
 20
497.82074938969885
 10
62.82311065371618
 20
517.4537281645435
 10
63.41823999982397
 20
534.6029140989866
 10
64.71852518843826
 20
550.1470954971409
 10
66.88006497587189
 20
565.3359424655071
  0
LWPOLYLINE
  5
39
330
17
100
AcDbEntity
  8
GRID_REFERENCE
100
AcDbPolyline
 90
35
 70
0
 10
91.23453289697444
 20
-568.7656016861522
 10
89.08176886861128
 20
-552.5145404136401
 10
87.77081706331386
 20
-536.0356504350374
 10
87.13982272242696
 20
-518.1396506033753
 10
87.04628651995114
 20
-497.94439625530936
 10
87.37577575358242
 20
-474.9207544921458
 10
88.0218069553006
 20
-448.81933880827074
 10
88.88189904965594
 20
-419.5859024180602
 10
89.86371190657565
 20
-387.29782740912367
 10
90.89063100540928
 20
-352.12047404762734
 10
91.90280887621951
 20
-314.2780955008995
 10
92.85480682546509
 20
-274.0353470699259
 10
93.7121317168569
 20
-231.68617218974114
 10
94.44814490507639
 20
-187.54723734273801
 10
95.04200580553312
 20
-141.95365807239497
 10
95.47766380193163
 20
-95.25552619060281
 10
95.7435951327515
 20
-47.81447437005116
 10
95.83292707671082
 20
1.5790847728763343e-07
 10
95.74359481982842
 20
47.81447456150909
 10
95.4776631942337
 20
95.25552630031055
 10
95.04200497904478
 20
141.95365809786935
 10
94.44814396372804
 20
187.54723729770978
 10
93.71213068425021
 20
231.6861721010277
 10
92.85480566950412
 20
274.03534695875294
 10
91.90280755074681
 20
314.27809537646056
 10
90.89062948357288
 20
352.1204739103187
 10
89.8637101791339
 20
387.297827256817
 10
88.88189711793896
 20
419.5859022505054
 10
88.02180483343975
 20
448.81933862727004
 10
87.37577345846945
 20
474.920754300483
 10
87.04628407064541
 20
497.9443960559316
 10
87.13982013962382
 20
518.1396504006914
 10
87.7708143633616
 20
536.0356502327139
 10
89.08176606345137
 20
552.5145402174435
 10
91.23452999108072
 20
568.7656015010695
  0
LWPOLYLINE
  5
3A
330
17
100
AcDbEntity
  8
GRID_REFERENCE
100
AcDbPolyline
 90
35
 70
0
 10
115.47781403584736
 20
-572.1276260812926
 10
113.33703646233455
 20
-554.8465326707785
 10
111.99903506887513
 20
-537.4126070582478
 10
111.30863739629814
 20
-518.710635076817
 10
111.12281753038852
 20
-497.879229318826
 10
111.32915964218238
 20
-474.3751841201351
 10
111.83373591439069
 20
-447.9252487350184
 10
112.55434291447926
 20
-418.45407328763037
 10
113.41809231618487
 20
-386.0231927976962
 10
114.35988489876198
 20
-350.7858608675697
 10
115.32164805590031
 20
-312.95597632576784
 10
116.2524883730284
 20
-272.78843138335077
 10
117.10914980714288
 20
-230.56761312437203
 10
117.85609768807099
 20
-186.6008082662486
 10
118.46516347876675
 20
-141.21397231548497
 10
118.91502300909512
 20
-94.74827364011813
 10
119.19075896478226
 20
-47.55663332084744
 10
119.28360249192285
 20
1.2064337128347622e-07
 10
119.19075871409633
 20
47.556633551666756
 10
118.915022488089
 20
94.74827380812675
 10
118.46516274494056
 20
141.21397241681524
 10
117.85609680752421
 20
186.60080831141542
 10
117.10914879933863
 20
230.56761313345535
 10
116.2524872209953
 20
272.7884313739717
 10
115.32164672783627
 20
312.95597630568517
 10
114.35988337410024
 20
350.7858608388262
 10
113.41809058663321
 20
386.02319276098285
 10
112.55434098249624
 20
418.45407324339556
 10
111.83373379241596
 20
447.9252486835922
 10
111.32915734631516
 20
474.37518406272017
 10
111.12281507954653
 20
497.87922925746267
 10
111.30863480901371
 20
518.7106350141228
 10
111.99903236130474
 20
537.4126069974592
 10
113.33703364499388
 20
554.8465326163729
 10
115.47781111423483
 20
572.1276260372159
  0
LWPOLYLINE
  5
3B
330
17
100
AcDbEntity
  8
GRID_REFERENCE
100
AcDbPolyline
 90
35
 70
0
 10
139.6539339180619
 20
-575.4280802970344
 10
137.50602570767865
 20
-557.1429308509536
 10
136.11269030588346
 20
-538.7316523513673
 10
135.33386808395625
 20
-519.1661436077324
 10
135.0347966412253
 20
-497.6267945560144
 10
135.1114970742717
 20
-473.5760114464285
 10
135.48570751797132
 20
-446.72962488670817
 10
136.09503960472898
 20
-416.99631778556034
 10
136.88268068207822
 20
-384.42066545146224
 10
137.7902764396441
 20
-349.139195530789
 10
138.7567510727229
 20
-311.3499425624661
 10
139.72167349800486
 20
-271.29323627573535
 10
140.6297293963744
 20
-229.24040739939875
 10
141.4338288842204
 20
-185.48713672592052
 10
142.09631991427023
 20
-140.34898849845015
 10
142.58890564329425
 20
-94.15764780327316
 10
142.89203937611003
 20
-47.25716733293557
 10
142.9943178550204
 20
1.1634843394522367e-07
 10
142.89203915285563
 20
47.257167584372795
 10
142.58890518984418
 20
94.15764801862548
 10
142.09631925216274
 20
140.3489886683445
 10
141.43382805467022
 20
185.4871368574667
 10
140.62972841376782
 20
229.24040750552118
 10
139.72167235435924
 20
271.2932363687698
 10
138.75674974712433
 20
311.34994264977274
 10
137.7902749154728
 20
349.1391956145647
 10
136.8826789524958
 20
384.4206655324747
 10
136.0950376731459
 20
416.99631786383884
 10
135.48570539693847
 20
446.7296249625983
 10
135.11149477903072
 20
473.5760115204161
 10
135.03479418907818
 20
497.626794629181
 10
135.333865492825
 20
519.1661436820422
 10
136.1126875901168
 20
538.7316524293446
 10
137.5060228777704
 20
557.1429309364776
 10
139.65393097837446
 20
575.4280803942233
  0
LWPOLYLINE
  5
3C
330
17
100
AcDbEntity
  8
GRID_REFERENCE
100
AcDbPolyline
 90
35
 70
0
 10
163.82268040327534
 20
-578.6347414233347
 10
161.62071433108702
 20
-559.3590193141622
 10
160.12866283801227
 20
-539.9424392170775
 10
159.2271037883113
 20
-519.456283023691
 10
158.7986150105098
 20
-497.1418997476845
 10
158.7557363742392
 20
-472.48568381912276
 10
159.03827919210775
 20
-445.2041724862161
 10
159.59932025343923
 20
-415.1937839846758
 10
160.38971146873726
 20
-382.4798312994979
 10
161.34915107679444
 20
-347.1768045513268
 10
162.40674658814908
 20
-309.46111874843604
 10
163.48781844461956
 20
-269.5538211834535
 10
164.52173690007945
 20
-227.70996313388395
 10
165.44740244718813
 20
-184.21175373513586
 10
166.21567593898413
 20
-139.36348937596443
 10
166.78964154638956
 20
-93.48711376942397
 10
167.1438745350662
 20
-46.91788759428295
 10
167.26356542526497
 20
1.7190326626460358e-07
 10
167.143874348301
 20
46.9178878794991
 10
166.78964114597773
 20
93.48711402747428
 10
166.21567532994555
 20
139.36348960837415
 10
165.4474016564867
 20
184.21175394976657
 10
164.5217359401094
 20
227.70996333758032
 10
163.48781731170936
 20
269.5538213826592
 10
162.4067452679429
 20
309.4611189474781
 10
161.34914955582957
 20
347.1768047516263
 10
160.38970974272985
 20
382.47983150142215
 10
159.59931832547096
 20
415.1937841877342
 10
159.03827707423167
 20
445.2041726901271
 10
158.75573408103222
 20
472.4856840242111
 10
158.79861255766966
 20
497.1418999544056
 10
159.2271011931592
 20
519.4562832338007
 10
160.12866011459724
 20
539.9424394326829
 10
161.62071148864737
 20
559.3590195386914
 10
163.82267744561085
 20
578.6347416605788
  0
LWPOLYLINE
  5
3D
330
17
100
AcDbEntity
  8
GRID_REFERENCE
100
AcDbPolyline
 90
35
 70
0
 10
188.04943118536568
 20
-581.6714798535993
 10
185.71919159347138
 20
-561.401182479797
 10
184.06961553361475
 20
-540.9450145958212
 10
183.0072520896465
 20
-519.4845419742425
 10
182.44412992010012
 20
-496.34027121646875
 10
182.31763277620476
 20
-471.03896564292245
 10
182.58402585226466
 20
-443.3058734011494
 10
183.20145287638073
 20
-413.02475447116035
 10
184.11489036591422
 20
-380.19638379261636
 10
185.25036133130786
 20
-344.90665831749277
 10
186.51906577251415
 20
-307.3047552977652
 10
187.82708785776452
 20
-267.5885833441887
 10
189.0853514447734
 20
-225.99476256491076
 10
190.2164922665797
 20
-182.79114726482615
 10
191.15802288813555
 20
-138.27066114415155
 10
191.86282428233423
 20
-92.74579193529748
 10
192.2983533225525
 20
-46.54344181101124
 10
192.44560757218014
 20
1.4743230720518076e-07
 10
192.29835317706412
 20
46.5434421212718
 10
191.86282392444022
 20
92.74579223031175
 10
191.1580223145457
 20
138.270661440748
 10
190.21649150099526
 20
182.791147564983
 10
189.08535050123754
 20
225.9947628694164
 10
187.8270867351215
 20
267.5885836540742
 10
186.51906445936444
 20
307.3047556138245
 10
185.25035981644893
 20
344.90665863959333
 10
184.1148886458047
 20
380.19638411998073
 10
183.20145095494314
 20
413.0247548028526
 10
182.5840237405182
 20
443.3058737361596
 10
182.317630487541
 20
471.0389659813005
 10
182.4441274695499
 20
496.34027155830285
 10
183.00724949229718
 20
519.4845423209002
 10
184.06961280235763
 20
540.945014949188
 10
185.71918873771244
 20
561.4011828431023
 10
188.04942820935173
 20
581.6714802306587
  0
LWPOLYLINE
  5
3E
330
17
100
AcDbEntity
  8
GRID_REFERENCE
100
AcDbPolyline
 90
35
 70
0
 10
212.38599776219843
 20
-584.423379132331
 10
209.83481830871784
 20
-563.1355415115058
 10
207.95704432372435
 20
-541.6008397754479
 10
206.70067005161363
 20
-519.127169723601
 10
206.02385547714258
 20
-495.13063965762944
 10
205.89285097134697
 20
-469.18728053755325
 10
206.26966795461627
 20
-441.0294489510135
 10
207.09956254321614
 20
-410.5201098517491
 10
208.30433486373153
 20
-377.6263710792985
 10
209.78345079763344
 20
-342.39869277918024
 10
211.42191463287963
 20
-304.95517291824683
 10
213.10153716384767
 20
-265.46916099604533
 10
214.71157563262292
 20
-224.1589627609225
 10
216.15602189183676
 20
-181.278962185378
 10
217.35704930649425
 20
-137.11183079217543
 10
218.25563751750397
 20
-91.96166983120446
 10
218.81079668656255
 20
-46.147939402580256
 10
218.99848683516566
 20
1.507729586524037e-07
 10
218.81079657703145
 20
46.14793968828967
 10
218.2556371794465
 20
91.96167016736565
 10
217.35704874779216
 20
137.11183116457363
 10
216.1560211374144
 20
181.27896258000808
 10
214.71157469728251
 20
224.15896317262735
 10
213.1015360483524
 20
265.4691614220688
 10
211.4219133259944
 20
304.95517335716585
 10
209.78344928988895
 20
342.3986932300435
 10
208.30433315159488
 20
377.62637153888943
 10
207.09956063043924
 20
410.52011031814936
 10
206.2696658518374
 20
441.02944942236434
 10
205.89284869046685
 20
469.18728101302673
 10
206.02385303158323
 20
495.13064013733157
 10
206.7006674550439
 20
519.1271702089173
 10
207.95704158757056
 20
541.6008402685594
 10
209.8348154419163
 20
563.1355420156993
 10
212.3859947689401
 20
584.423379651379
  0
LWPOLYLINE
  5
3F
330
17
100
AcDbEntity
  8
GRID_REFERENCE
100
AcDbPolyline
 90
35
 70
0
 10
236.82520682792142
 20
-586.7776497830137
 10
233.93790782274854
 20
-564.5264225465718
 10
231.77138409426396
 20
-541.9802018377488
 10
230.34707507665658
 20
-518.5914001450788
 10
229.68406261623542
 20
-493.86811722572145
 10
229.76580235486236
 20
-467.4181162474418
 10
230.53407505240096
 20
-438.9607233679244
 10
231.89382781905206
 20
-408.323545662602
 10
233.7208499794248
 20
-375.4332047240567
 10
235.87062887871363
 20
-340.30388558072747
 10
238.1890858067969
 20
-303.0252899404521
 10
240.5242913327297
 20
-263.7505775269838
 10
242.73678841166392
 20
-222.68460928834824
 10
244.70653707199176
 20
-180.07294847693956
 10
246.33618806684999
 20
-136.19211297706042
 10
247.55163097721896
 20
-91.34131709571864
 10
248.3011640831625
 20
-45.8355993793796
 10
248.5543542983982
 20
0.0
 10
248.30116395410454
 20
45.835599674941555
 10
247.55163062332534
 20
91.34131751376246
 10
246.33618750201975
 20
136.192113452756
 10
244.70653631531772
 20
180.07294898429424
 10
242.73678747416523
 20
222.6846098179604
 10
240.52429021734918
 20
263.7505780785016
 10
238.18908450056222
 20
303.0252905124724
 10
235.87062737208984
 20
340.30388617066455
 10
233.72084827275665
 20
375.43320532802045
 10
231.8938259122026
 20
408.3235462742793
 10
230.53407295842928
 20
438.9607239840715
 10
229.76580008238585
 20
467.4181168669086
 10
229.6840601768968
 20
493.86811784857053
 10
230.34707248225448
 20
518.5914007727896
 10
231.7713813550328
 20
541.980202473138
 10
233.93790494707682
 20
564.5264231929946
 10
236.8252038201331
 20
586.7776504452605
  0
TEXT
  5
40
330
17
100
AcDbEntity
  8
TEXT
100
AcDbText
 10
-11.306845976977028
 20
621.7776504452605
 30
0.0
 40
10.0
  1
Q04_KEYBOARD_CLOSED_INNER_DRAFT
100
AcDbText
  0
TEXT
  5
41
330
17
100
AcDbEntity
  8
TEXT
100
AcDbText
 10
-11.306845976977028
 20
606.7776504452605
 30
0.0
 40
7.0
  1
MM. PROTOTYPE ONLY. NOT PRODUCTION CUTTING.
100
AcDbText
  0
ENDSEC
  0
SECTION
  2
OBJECTS
  0
DICTIONARY
  5
A
330
0
100
AcDbDictionary
281
1
  3
ACAD_COLOR
350
B
  3
ACAD_GROUP
350
C
  3
ACAD_LAYOUT
350
D
  3
ACAD_MATERIAL
350
E
  3
ACAD_MLEADERSTYLE
350
F
  3
ACAD_MLINESTYLE
350
10
  3
ACAD_PLOTSETTINGS
350
11
  3
ACAD_PLOTSTYLENAME
350
12
  3
ACAD_SCALELIST
350
14
  3
ACAD_TABLESTYLE
350
15
  3
ACAD_VISUALSTYLE
350
16
  3
EZDXF_META
350
2D
  0
DICTIONARY
  5
B
330
A
100
AcDbDictionary
281
1
  0
DICTIONARY
  5
C
330
A
100
AcDbDictionary
281
1
  0
DICTIONARY
  5
D
330
A
100
AcDbDictionary
281
1
  3
Model
350
1A
  3
Layout1
350
1E
  0
DICTIONARY
  5
E
330
A
100
AcDbDictionary
281
1
  3
ByBlock
350
1F
  3
ByLayer
350
20
  3
Global
350
21
  0
DICTIONARY
  5
F
330
A
100
AcDbDictionary
281
1
  3
Standard
350
2C
  0
DICTIONARY
  5
10
330
A
100
AcDbDictionary
281
1
  3
Standard
350
22
  0
DICTIONARY
  5
11
330
A
100
AcDbDictionary
281
1
  0
ACDBDICTIONARYWDFLT
  5
12
330
A
100
AcDbDictionary
281
1
  3
Normal
350
13
100
AcDbDictionaryWithDefault
340
13
  0
ACDBPLACEHOLDER
  5
13
330
12
  0
DICTIONARY
  5
14
330
A
100
AcDbDictionary
281
1
  0
DICTIONARY
  5
15
330
A
100
AcDbDictionary
281
1
  0
DICTIONARY
  5
16
330
A
100
AcDbDictionary
281
1
  0
LAYOUT
  5
1A
330
D
100
AcDbPlotSettings
  1

  4
A3
  6

 40
7.5
 41
20.0
 42
7.5
 43
20.0
 44
420.0
 45
297.0
 46
0.0
 47
0.0
 48
0.0
 49
0.0
140
0.0
141
0.0
142
1.0
143
1.0
 70
1024
 72
1
 73
0
 74
5
  7

 75
16
 76
0
 77
2
 78
300
147
1.0
148
0.0
149
0.0
100
AcDbLayout
  1
Model
 70
1
 71
0
 10
0.0
 20
0.0
 11
420.0
 21
297.0
 12
0.0
 22
0.0
 32
0.0
 14
1e+20
 24
1e+20
 34
1e+20
 15
-1e+20
 25
-1e+20
 35
-1e+20
146
0.0
 13
0.0
 23
0.0
 33
0.0
 16
1.0
 26
0.0
 36
0.0
 17
0.0
 27
1.0
 37
0.0
 76
1
330
17
  0
LAYOUT
  5
1E
330
D
100
AcDbPlotSettings
  1

  4
A3
  6

 40
7.5
 41
20.0
 42
7.5
 43
20.0
 44
420.0
 45
297.0
 46
0.0
 47
0.0
 48
0.0
 49
0.0
140
0.0
141
0.0
142
1.0
143
1.0
 70
0
 72
1
 73
0
 74
5
  7

 75
16
 76
0
 77
2
 78
300
147
1.0
148
0.0
149
0.0
100
AcDbLayout
  1
Layout1
 70
1
 71
1
 10
0.0
 20
0.0
 11
420.0
 21
297.0
 12
0.0
 22
0.0
 32
0.0
 14
1e+20
 24
1e+20
 34
1e+20
 15
-1e+20
 25
-1e+20
 35
-1e+20
146
0.0
 13
0.0
 23
0.0
 33
0.0
 16
1.0
 26
0.0
 36
0.0
 17
0.0
 27
1.0
 37
0.0
 76
1
330
1B
  0
MATERIAL
  5
1F
102
{ACAD_REACTORS
330
E
102
}
330
E
100
AcDbMaterial
  1
ByBlock
  2

 70
0
 40
1.0
 71
1
 41
1.0
 91
-1023410177
 42
1.0
 72
1
  3

 73
1
 74
1
 75
1
 44
0.5
 73
0
 45
1.0
 46
1.0
 77
1
  4

 78
1
 79
1
170
1
 48
1.0
171
1
  6

172
1
173
1
174
1
140
1.0
141
1.0
175
1
  7

176
1
177
1
178
1
143
1.0
179
1
  8

270
1
271
1
272
1
145
1.0
146
1.0
273
1
  9

274
1
275
1
276
1
 42
1.0
 72
1
  3

 73
1
 74
1
 75
1
 94
63
  0
MATERIAL
  5
20
102
{ACAD_REACTORS
330
E
102
}
330
E
100
AcDbMaterial
  1
ByLayer
  2

 70
0
 40
1.0
 71
1
 41
1.0
 91
-1023410177
 42
1.0
 72
1
  3

 73
1
 74
1
 75
1
 44
0.5
 73
0
 45
1.0
 46
1.0
 77
1
  4

 78
1
 79
1
170
1
 48
1.0
171
1
  6

172
1
173
1
174
1
140
1.0
141
1.0
175
1
  7

176
1
177
1
178
1
143
1.0
179
1
  8

270
1
271
1
272
1
145
1.0
146
1.0
273
1
  9

274
1
275
1
276
1
 42
1.0
 72
1
  3

 73
1
 74
1
 75
1
 94
63
  0
MATERIAL
  5
21
102
{ACAD_REACTORS
330
E
102
}
330
E
100
AcDbMaterial
  1
Global
  2

 70
0
 40
1.0
 71
1
 41
1.0
 91
-1023410177
 42
1.0
 72
1
  3

 73
1
 74
1
 75
1
 44
0.5
 73
0
 45
1.0
 46
1.0
 77
1
  4

 78
1
 79
1
170
1
 48
1.0
171
1
  6

172
1
173
1
174
1
140
1.0
141
1.0
175
1
  7

176
1
177
1
178
1
143
1.0
179
1
  8

270
1
271
1
272
1
145
1.0
146
1.0
273
1
  9

274
1
275
1
276
1
 42
1.0
 72
1
  3

 73
1
 74
1
 75
1
 94
63
  0
MLINESTYLE
  5
22
102
{ACAD_REACTORS
330
10
102
}
330
10
100
AcDbMlineStyle
  2
Standard
 70
0
  3

 62
256
 51
90.0
 52
90.0
 71
2
 49
0.5
 62
256
  6
BYLAYER
 49
-0.5
 62
256
  6
BYLAYER
  0
MLEADERSTYLE
  5
2C
102
{ACAD_REACTORS
330
F
102
}
330
F
100
AcDbMLeaderStyle
179
2
170
2
171
1
172
0
 90
2
 40
0.0
 41
0.0
173
1
 91
-1056964608
 92
-2
290
1
 42
2.0
291
1
 43
8.0
  3
Standard
 44
4.0
300

342
29
174
1
175
1
176
0
178
1
 93
-1056964608
 45
4.0
292
0
297
0
 46
4.0
 94
-1056964608
 47
1.0
 49
1.0
140
1.0
294
1
141
0.0
177
0
142
1.0
295
0
296
0
143
3.75
271
0
272
9
273
9
  0
DICTIONARY
  5
2D
330
A
100
AcDbDictionary
280
1
281
1
  3
CREATED_BY_EZDXF
350
2E
  3
WRITTEN_BY_EZDXF
350
44
  0
DICTIONARYVAR
  5
2E
330
2D
100
DictionaryVariables
280
0
  1
1.4.4 @ 2026-10-02T11:32:45.648621+00:00
  0
DICTIONARYVAR
  5
44
330
2D
100
DictionaryVariables
280
0
  1
1.4.4 @ 2026-10-02T11:32:45.652323+00:00
  0
ENDSEC
  0
EOF
