  0
SECTION
  2
HEADER
  9
$ACADVER
  1
AC1024
  9
$ACADMAINTVER
 70
6
  9
$DWGCODEPAGE
  3
ANSI_1252
  9
$LASTSAVEDBY
  1
ezdxf
  9
$INSBASE
 10
0.0
 20
0.0
 30
0.0
  9
$EXTMIN
 10
1e+20
 20
1e+20
 30
1e+20
  9
$EXTMAX
 10
-1e+20
 20
-1e+20
 30
-1e+20
  9
$LIMMIN
 10
0.0
 20
0.0
  9
$LIMMAX
 10
420.0
 20
297.0
  9
$ORTHOMODE
 70
0
  9
$REGENMODE
 70
1
  9
$FILLMODE
 70
1
  9
$QTEXTMODE
 70
0
  9
$MIRRTEXT
 70
1
  9
$LTSCALE
 40
1.0
  9
$ATTMODE
 70
1
  9
$TEXTSIZE
 40
2.5
  9
$TRACEWID
 40
1.0
  9
$TEXTSTYLE
  7
Standard
  9
$CLAYER
  8
0
  9
$CELTYPE
  6
ByLayer
  9
$CECOLOR
 62
256
  9
$CELTSCALE
 40
1.0
  9
$DISPSILH
 70
0
  9
$DIMSCALE
 40
1.0
  9
$DIMASZ
 40
2.5
  9
$DIMEXO
 40
0.625
  9
$DIMDLI
 40
3.75
  9
$DIMRND
 40
0.0
  9
$DIMDLE
 40
0.0
  9
$DIMEXE
 40
1.25
  9
$DIMTP
 40
0.0
  9
$DIMTM
 40
0.0
  9
$DIMTXT
 40
2.5
  9
$DIMCEN
 40
2.5
  9
$DIMTSZ
 40
0.0
  9
$DIMTOL
 70
0
  9
$DIMLIM
 70
0
  9
$DIMTIH
 70
0
  9
$DIMTOH
 70
0
  9
$DIMSE1
 70
0
  9
$DIMSE2
 70
0
  9
$DIMTAD
 70
1
  9
$DIMZIN
 70
8
  9
$DIMBLK
  1

  9
$DIMASO
 70
1
  9
$DIMSHO
 70
1
  9
$DIMPOST
  1

  9
$DIMAPOST
  1

  9
$DIMALT
 70
0
  9
$DIMALTD
 70
3
  9
$DIMALTF
 40
0.03937007874
  9
$DIMLFAC
 40
1.0
  9
$DIMTOFL
 70
1
  9
$DIMTVP
 40
0.0
  9
$DIMTIX
 70
0
  9
$DIMSOXD
 70
0
  9
$DIMSAH
 70
0
  9
$DIMBLK1
  1

  9
$DIMBLK2
  1

  9
$DIMSTYLE
  2
ISO-25
  9
$DIMCLRD
 70
0
  9
$DIMCLRE
 70
0
  9
$DIMCLRT
 70
0
  9
$DIMTFAC
 40
1.0
  9
$DIMGAP
 40
0.625
  9
$DIMJUST
 70
0
  9
$DIMSD1
 70
0
  9
$DIMSD2
 70
0
  9
$DIMTOLJ
 70
0
  9
$DIMTZIN
 70
8
  9
$DIMALTZ
 70
0
  9
$DIMALTTZ
 70
0
  9
$DIMUPT
 70
0
  9
$DIMDEC
 70
2
  9
$DIMTDEC
 70
2
  9
$DIMALTU
 70
2
  9
$DIMALTTD
 70
3
  9
$DIMTXSTY
  7
Standard
  9
$DIMAUNIT
 70
0
  9
$DIMADEC
 70
0
  9
$DIMALTRND
 40
0.0
  9
$DIMAZIN
 70
0
  9
$DIMDSEP
 70
44
  9
$DIMATFIT
 70
3
  9
$DIMFRAC
 70
0
  9
$DIMLDRBLK
  1

  9
$DIMLUNIT
 70
2
  9
$DIMLWD
 70
-2
  9
$DIMLWE
 70
-2
  9
$DIMTMOVE
 70
0
  9
$DIMFXL
 40
1.0
  9
$DIMFXLON
 70
0
  9
$DIMJOGANG
 40
0.785398163397
  9
$DIMTFILL
 70
0
  9
$DIMTFILLCLR
 70
0
  9
$DIMARCSYM
 70
0
  9
$DIMLTYPE
  6

  9
$DIMLTEX1
  6

  9
$DIMLTEX2
  6

  9
$DIMTXTDIRECTION
 70
0
  9
$LUNITS
 70
2
  9
$LUPREC
 70
4
  9
$SKETCHINC
 40
1.0
  9
$FILLETRAD
 40
10.0
  9
$AUNITS
 70
0
  9
$AUPREC
 70
2
  9
$MENU
  1
.
  9
$ELEVATION
 40
0.0
  9
$PELEVATION
 40
0.0
  9
$THICKNESS
 40
0.0
  9
$LIMCHECK
 70
0
  9
$CHAMFERA
 40
0.0
  9
$CHAMFERB
 40
0.0
  9
$CHAMFERC
 40
0.0
  9
$CHAMFERD
 40
0.0
  9
$SKPOLY
 70
0
  9
$TDCREATE
 40
2461316.481076389
  9
$TDUCREATE
 40
2458532.153996898
  9
$TDUPDATE
 40
2461316.481076389
  9
$TDUUPDATE
 40
2458532.1544311
  9
$TDINDWG
 40
0.0
  9
$TDUSRTIMER
 40
0.0
  9
$USRTIMER
 70
1
  9
$ANGBASE
 50
0.0
  9
$ANGDIR
 70
0
  9
$PDMODE
 70
0
  9
$PDSIZE
 40
0.0
  9
$PLINEWID
 40
0.0
  9
$SPLFRAME
 70
0
  9
$SPLINETYPE
 70
6
  9
$SPLINESEGS
 70
8
  9
$HANDSEED
  5
45
  9
$SURFTAB1
 70
6
  9
$SURFTAB2
 70
6
  9
$SURFTYPE
 70
6
  9
$SURFU
 70
6
  9
$SURFV
 70
6
  9
$UCSBASE
  2

  9
$UCSNAME
  2

  9
$UCSORG
 10
0.0
 20
0.0
 30
0.0
  9
$UCSXDIR
 10
1.0
 20
0.0
 30
0.0
  9
$UCSYDIR
 10
0.0
 20
1.0
 30
0.0
  9
$UCSORTHOREF
  2

  9
$UCSORTHOVIEW
 70
0
  9
$UCSORGTOP
 10
0.0
 20
0.0
 30
0.0
  9
$UCSORGBOTTOM
 10
0.0
 20
0.0
 30
0.0
  9
$UCSORGLEFT
 10
0.0
 20
0.0
 30
0.0
  9
$UCSORGRIGHT
 10
0.0
 20
0.0
 30
0.0
  9
$UCSORGFRONT
 10
0.0
 20
0.0
 30
0.0
  9
$UCSORGBACK
 10
0.0
 20
0.0
 30
0.0
  9
$PUCSBASE
  2

  9
$PUCSNAME
  2

  9
$PUCSORG
 10
0.0
 20
0.0
 30
0.0
  9
$PUCSXDIR
 10
1.0
 20
0.0
 30
0.0
  9
$PUCSYDIR
 10
0.0
 20
1.0
 30
0.0
  9
$PUCSORTHOREF
  2

  9
$PUCSORTHOVIEW
 70
0
  9
$PUCSORGTOP
 10
0.0
 20
0.0
 30
0.0
  9
$PUCSORGBOTTOM
 10
0.0
 20
0.0
 30
0.0
  9
$PUCSORGLEFT
 10
0.0
 20
0.0
 30
0.0
  9
$PUCSORGRIGHT
 10
0.0
 20
0.0
 30
0.0
  9
$PUCSORGFRONT
 10
0.0
 20
0.0
 30
0.0
  9
$PUCSORGBACK
 10
0.0
 20
0.0
 30
0.0
  9
$USERI1
 70
0
  9
$USERI2
 70
0
  9
$USERI3
 70
0
  9
$USERI4
 70
0
  9
$USERI5
 70
0
  9
$USERR1
 40
0.0
  9
$USERR2
 40
0.0
  9
$USERR3
 40
0.0
  9
$USERR4
 40
0.0
  9
$USERR5
 40
0.0
  9
$WORLDVIEW
 70
1
  9
$SHADEDGE
 70
3
  9
$SHADEDIF
 70
70
  9
$TILEMODE
 70
1
  9
$MAXACTVP
 70
64
  9
$PINSBASE
 10
0.0
 20
0.0
 30
0.0
  9
$PLIMCHECK
 70
0
  9
$PEXTMIN
 10
1e+20
 20
1e+20
 30
1e+20
  9
$PEXTMAX
 10
-1e+20
 20
-1e+20
 30
-1e+20
  9
$PLIMMIN
 10
0.0
 20
0.0
  9
$PLIMMAX
 10
420.0
 20
297.0
  9
$UNITMODE
 70
0
  9
$VISRETAIN
 70
1
  9
$PLINEGEN
 70
0
  9
$PSLTSCALE
 70
1
  9
$TREEDEPTH
 70
3020
  9
$CMLSTYLE
  2
Standard
  9
$CMLJUST
 70
0
  9
$CMLSCALE
 40
20.0
  9
$PROXYGRAPHICS
 70
1
  9
$MEASUREMENT
 70
1
  9
$CELWEIGHT
370
-1
  9
$ENDCAPS
280
0
  9
$JOINSTYLE
280
0
  9
$LWDISPLAY
290
0
  9
$INSUNITS
 70
4
  9
$HYPERLINKBASE
  1

  9
$STYLESHEET
  1

  9
$XEDIT
290
1
  9
$CEPSNTYPE
380
0
  9
$PSTYLEMODE
290
1
  9
$FINGERPRINTGUID
  2
{FC8F1485-0701-4948-BA3E-8D80576CBDFA}
  9
$VERSIONGUID
  2
{10FB363A-D438-47AF-A434-EB7552909399}
  9
$EXTNAMES
290
1
  9
$PSVPSCALE
 40
0.0
  9
$OLESTARTUP
290
0
  9
$SORTENTS
280
127
  9
$INDEXCTL
280
0
  9
$HIDETEXT
280
1
  9
$XCLIPFRAME
280
1
  9
$HALOGAP
280
0
  9
$OBSCOLOR
 70
257
  9
$OBSLTYPE
280
0
  9
$INTERSECTIONDISPLAY
280
0
  9
$INTERSECTIONCOLOR
 70
257
  9
$DIMASSOC
280
2
  9
$PROJECTNAME
  1

  9
$CAMERADISPLAY
290
0
  9
$LENSLENGTH
 40
50.0
  9
$CAMERAHEIGHT
 40
0.0
  9
$STEPSPERSEC
 40
24.0
  9
$STEPSIZE
 40
100.0
  9
$3DDWFPREC
 40
2.0
  9
$PSOLWIDTH
 40
0.005
  9
$PSOLHEIGHT
 40
0.08
  9
$LOFTANG1
 40
1.570796326795
  9
$LOFTANG2
 40
1.570796326795
  9
$LOFTMAG1
 40
0.0
  9
$LOFTMAG2
 40
0.0
  9
$LOFTPARAM
 70
7
  9
$LOFTNORMALS
280
1
  9
$LATITUDE
 40
37.795
  9
$LONGITUDE
 40
-122.394
  9
$NORTHDIRECTION
 40
0.0
  9
$TIMEZONE
 70
-8000
  9
$LIGHTGLYPHDISPLAY
280
1
  9
$TILEMODELIGHTSYNCH
280
1
  9
$CMATERIAL
347
20
  9
$SOLIDHIST
280
0
  9
$SHOWHIST
280
1
  9
$DWFFRAME
280
2
  9
$DGNFRAME
280
2
  9
$REALWORLDSCALE
290
1
  9
$INTERFERECOLOR
 62
256
  9
$CSHADOW
280
0
  9
$SHADOWPLANELOCATION
 40
0.0
  0
ENDSEC
  0
SECTION
  2
CLASSES
  0
CLASS
  1
ACDBDICTIONARYWDFLT
  2
AcDbDictionaryWithDefault
  3
ObjectDBX Classes
 90
0
 91
0
280
0
281
0
  0
CLASS
  1
SUN
  2
AcDbSun
  3
SCENEOE
 90
1153
 91
0
280
0
281
0
  0
CLASS
  1
VISUALSTYLE
  2
AcDbVisualStyle
  3
ObjectDBX Classes
 90
4095
 91
0
280
0
281
0
  0
CLASS
  1
MATERIAL
  2
AcDbMaterial
  3
ObjectDBX Classes
 90
1153
 91
0
280
0
281
0
  0
CLASS
  1
SCALE
  2
AcDbScale
  3
ObjectDBX Classes
 90
1153
 91
0
280
0
281
0
  0
CLASS
  1
TABLESTYLE
  2
AcDbTableStyle
  3
ObjectDBX Classes
 90
4095
 91
0
280
0
281
0
  0
CLASS
  1
MLEADERSTYLE
  2
AcDbMLeaderStyle
  3
ACDB_MLEADERSTYLE_CLASS
 90
4095
 91
0
280
0
281
0
  0
CLASS
  1
DICTIONARYVAR
  2
AcDbDictionaryVar
  3
ObjectDBX Classes
 90
0
 91
0
280
0
281
0
  0
CLASS
  1
CELLSTYLEMAP
  2
AcDbCellStyleMap
  3
ObjectDBX Classes
 90
1152
 91
0
280
0
281
0
  0
CLASS
  1
MENTALRAYRENDERSETTINGS
  2
AcDbMentalRayRenderSettings
  3
SCENEOE
 90
1024
 91
0
280
0
281
0
  0
CLASS
  1
ACDBDETAILVIEWSTYLE
  2
AcDbDetailViewStyle
  3
ObjectDBX Classes
 90
1025
 91
0
280
0
281
0
  0
CLASS
  1
ACDBSECTIONVIEWSTYLE
  2
AcDbSectionViewStyle
  3
ObjectDBX Classes
 90
1025
 91
0
280
0
281
0
  0
CLASS
  1
RASTERVARIABLES
  2
AcDbRasterVariables
  3
ISM
 90
0
 91
0
280
0
281
0
  0
CLASS
  1
ACDBPLACEHOLDER
  2
AcDbPlaceHolder
  3
ObjectDBX Classes
 90
0
 91
0
280
0
281
0
  0
CLASS
  1
LAYOUT
  2
AcDbLayout
  3
ObjectDBX Classes
 90
0
 91
0
280
0
281
0
  0
ENDSEC
  0
SECTION
  2
TABLES
  0
TABLE
  2
VPORT
  5
8
330
0
100
AcDbSymbolTable
 70
1
  0
VPORT
  5
23
330
8
100
AcDbSymbolTableRecord
100
AcDbViewportTableRecord
  2
*Active
 70
0
 10
0.0
 20
0.0
 11
1.0
 21
1.0
 12
0.0
 22
0.0
 13
0.0
 23
0.0
 14
0.5
 24
0.5
 15
0.5
 25
0.5
 16
0.0
 26
0.0
 36
1.0
 17
0.0
 27
0.0
 37
0.0
 40
1000.0
 41
1.34
 42
50.0
 43
0.0
 44
0.0
 50
0.0
 51
0.0
 71
0
 72
1000
 73
1
 74
3
 75
0
 76
0
 77
0
 78
0
281
0
 65
0
146
0.0
  0
ENDTAB
  0
TABLE
  2
LTYPE
  5
2
330
0
100
AcDbSymbolTable
 70
3
  0
LTYPE
  5
24
330
2
100
AcDbSymbolTableRecord
100
AcDbLinetypeTableRecord
  2
ByBlock
 70
0
  3

 72
65
 73
0
 40
0.0
  0
LTYPE
  5
25
330
2
100
AcDbSymbolTableRecord
100
AcDbLinetypeTableRecord
  2
ByLayer
 70
0
  3

 72
65
 73
0
 40
0.0
  0
LTYPE
  5
26
330
2
100
AcDbSymbolTableRecord
100
AcDbLinetypeTableRecord
  2
Continuous
 70
0
  3

 72
65
 73
0
 40
0.0
  0
ENDTAB
  0
TABLE
  2
LAYER
  5
1
330
0
100
AcDbSymbolTable
 70
6
  0
LAYER
  5
27
330
1
100
AcDbSymbolTableRecord
100
AcDbLayerTableRecord
  2
0
 70
0
 62
7
  6
Continuous
370
-3
390
13
347
21
  0
LAYER
  5
28
330
1
100
AcDbSymbolTableRecord
100
AcDbLayerTableRecord
  2
Defpoints
 70
0
 62
7
  6
Continuous
290
0
370
-3
390
13
347
21
  0
LAYER
  5
2F
330
1
100
AcDbSymbolTableRecord
100
AcDbLayerTableRecord
  2
SEAM
 70
0
 62
5
  6
Continuous
370
-3
390
13
347
21
  0
LAYER
  5
30
330
1
100
AcDbSymbolTableRecord
100
AcDbLayerTableRecord
  2
CUT_DRAFT
 70
0
 62
1
  6
Continuous
370
-3
390
13
347
21
  0
LAYER
  5
31
330
1
100
AcDbSymbolTableRecord
100
AcDbLayerTableRecord
  2
GRID_REFERENCE
 70
0
 62
8
  6
Continuous
370
-3
390
13
347
21
  0
LAYER
  5
32
330
1
100
AcDbSymbolTableRecord
100
AcDbLayerTableRecord
  2
TEXT
 70
0
 62
7
  6
Continuous
370
-3
390
13
347
21
  0
ENDTAB
  0
TABLE
  2
STYLE
  5
5
330
0
100
AcDbSymbolTable
 70
1
  0
STYLE
  5
29
330
5
100
AcDbSymbolTableRecord
100
AcDbTextStyleTableRecord
  2
Standard
 70
0
 40
0.0
 41
1.0
 50
0.0
 71
0
 42
2.5
  3
txt
  4

  0
ENDTAB
  0
TABLE
  2
VIEW
  5
7
330
0
100
AcDbSymbolTable
 70
0
  0
ENDTAB
  0
TABLE
  2
UCS
  5
6
330
0
100
AcDbSymbolTable
 70
0
  0
ENDTAB
  0
TABLE
  2
APPID
  5
3
330
0
100
AcDbSymbolTable
 70
3
  0
APPID
  5
2A
330
3
100
AcDbSymbolTableRecord
100
AcDbRegAppTableRecord
  2
ACAD
 70
0
  0
APPID
  5
42
330
3
100
AcDbSymbolTableRecord
100
AcDbRegAppTableRecord
  2
HATCHBACKGROUNDCOLOR
 70
0
  0
APPID
  5
43
330
3
100
AcDbSymbolTableRecord
100
AcDbRegAppTableRecord
  2
EZDXF
 70
0
  0
ENDTAB
  0
TABLE
  2
DIMSTYLE
  5
4
330
0
100
AcDbSymbolTable
 70
1
100
AcDbDimStyleTable
  0
DIMSTYLE
105
2B
330
4
100
AcDbSymbolTableRecord
100
AcDbDimStyleTableRecord
  2
Standard
 70
0
 40
1.0
 41
2.5
 42
0.625
 43
3.75
 44
1.25
 45
0.0
 46
0.0
 47
0.0
 48
0.0
 49
2.5
140
2.5
141
2.5
142
0.0
143
0.03937007874
144
1.0
145
0.0
146
1.0
147
0.625
148
0.0
 69
0
 70
0
 71
0
 72
0
 73
0
 74
0
 75
0
 76
0
 77
1
 78
8
 79
3
170
0
171
3
172
1
173
0
174
0
175
0
176
0
177
0
178
0
179
2
271
2
272
2
273
2
274
3
275
0
276
0
277
2
278
44
279
0
280
0
281
0
282
0
283
0
284
8
285
0
286
0
288
0
289
3
290
0
371
-2
372
-2
  0
ENDTAB
  0
TABLE
  2
BLOCK_RECORD
  5
9
330
0
100
AcDbSymbolTable
 70
2
  0
BLOCK_RECORD
  5
17
330
9
100
AcDbSymbolTableRecord
100
AcDbBlockTableRecord
  2
*Model_Space
340
1A
 70
0
280
1
281
0
  0
BLOCK_RECORD
  5
1B
330
9
100
AcDbSymbolTableRecord
100
AcDbBlockTableRecord
  2
*Paper_Space
340
1E
 70
0
280
1
281
0
  0
ENDTAB
  0
ENDSEC
  0
SECTION
  2
BLOCKS
  0
BLOCK
  5
18
330
17
100
AcDbEntity
  8
0
100
AcDbBlockBegin
  2
*Model_Space
 70
0
 10
0.0
 20
0.0
 30
0.0
  3
*Model_Space
  1

  0
ENDBLK
  5
19
330
17
100
AcDbEntity
  8
0
100
AcDbBlockEnd
  0
BLOCK
  5
1C
330
1B
100
AcDbEntity
  8
0
100
AcDbBlockBegin
  2
*Paper_Space
 70
0
 10
0.0
 20
0.0
 30
0.0
  3
*Paper_Space
  1

  0
ENDBLK
  5
1D
330
1B
100
AcDbEntity
  8
0
100
AcDbBlockEnd
  0
ENDSEC
  0
SECTION
  2
ENTITIES
  0
LWPOLYLINE
  5
33
330
17
100
AcDbEntity
  8
SEAM
100
AcDbPolyline
 90
88
 70
1
 10
11.028738306246458
 20
-488.7071825576601
 10
33.71301080933916
 20
-483.7145003394619
 10
56.39632805865013
 20
-479.24635354518097
 10
79.11479557597852
 20
-475.1072741426085
 10
101.87028499729553
 20
-471.20240992561827
 10
124.66405739329579
 20
-467.4529959426275
 10
147.49715667377347
 20
-463.7861581708857
 10
170.3716447028336
 20
-460.13880524793
 10
193.29244636556157
 20
-456.46794945364
 10
216.27049719128772
 20
-452.7815555008135
 10
239.3551368770917
 20
-449.2923392315678
 10
238.7690819765228
 20
-442.912474533801
 10
238.41303686695727
 20
-435.05890322103426
 10
238.11832473174374
 20
-424.4755177803687
 10
237.83567828808222
 20
-410.753190635831
 10
237.55204877525574
 20
-393.8135023685915
 10
237.26910779039332
 20
-373.70382024387374
 10
236.99553736256976
 20
-350.536859160296
 10
236.74226604684523
 20
-324.47040134042777
 10
236.51844988009879
 20
-295.69851684125706
 10
236.32889735912727
 20
-264.44662186149986
 10
236.17381478925324
 20
-230.9676604056584
 10
236.05036421324112
 20
-195.5383288363813
 10
235.95466931229885
 20
-158.4551604857606
 10
235.88325583182248
 20
-120.03066876440141
 10
235.83364993756967
 20
-80.58972684737637
 10
235.8043717178853
 20
-40.46623370011713
 10
235.7946853287238
 20
0.0
 10
235.8043717647956
 20
40.466233598130835
 10
235.83365006982874
 20
80.58972669877889
 10
235.88325604824527
 20
120.03066859047462
 10
235.95466960850902
 20
158.45516029771306
 10
236.0503645824388
 20
195.53832864032185
 10
236.17381522528757
 20
230.96766020538476
 10
236.32889785595538
 20
264.44662165960887
 10
236.51845043100337
 20
295.69851663909117
 10
236.74226664602625
 20
324.47040113865995
 10
236.99553800459742
 20
350.53685895929465
 10
237.26910847002617
 20
373.70382004386096
 10
237.55204948661654
 20
393.813502169335
 10
237.83567902593296
 20
410.75319043724585
 10
238.1183254907463
 20
424.475517581165
 10
238.41303764349618
 20
435.0589030245404
 10
238.7690827648183
 20
442.9124743309025
 10
239.3551376747428
 20
449.2923390343318
 10
216.2704979920326
 20
452.78155533171264
 10
193.2924471760138
 20
456.4679493322557
 10
170.3716455135425
 20
460.1388051516773
 10
147.49715749410274
 20
463.78615810672886
 10
124.66405821814038
 20
467.4529959155616
 10
101.87028582790566
 20
471.2024099334864
 10
79.11479641136219
 20
475.10727418374364
 10
56.39632890016897
 20
479.2463536194201
 10
33.713011655228755
 20
483.71450044533645
 10
11.02873916002669
 20
488.70718269259794
 10
9.579910547364967
 20
480.6293399067452
 10
8.533202162185724
 20
471.1767688754848
 10
7.628594252857408
 20
459.07917010695854
 10
6.796038773250083
 20
443.8061320947846
 10
6.009247630148615
 20
425.1993257878086
 10
5.254175890442123
 20
403.2661775992191
 10
4.52346991048529
 20
378.1032814301941
 10
3.8148943149399464
 20
349.86589418596105
 10
3.1314329171690516
 20
318.75339499674317
 10
2.481538924301229
 20
285.0012950732358
 10
1.8781815214061761
 20
248.87597400609582
 10
1.3366453631681523
 20
210.67025064406252
 10
0.8720286872087241
 20
170.69906240953952
 10
0.4974077194107572
 20
129.29519380969296
 10
0.222934528207009
 20
86.8052199194249
 10
0.055686644669017425
 20
43.58575159246633
 10
0.0
 20
0.0
 10
0.05568644878247117
 20
-43.585751518266655
 10
0.22293424035441142
 20
-86.80521981964776
 10
0.49740738505449816
 20
-129.29519369361742
 10
0.8720282644763118
 20
-170.69906228398884
 10
1.3366449256705681
 20
-210.6702505140294
 10
1.8781810627156699
 20
-248.8759738658778
 10
2.4815384278997525
 20
-285.0012949209389
 10
3.131432306514873
 20
-318.75339483915747
 10
3.814893638752041
 20
-349.86589403140454
 10
4.523469194271375
 20
-378.1032812798597
 10
5.254175150780619
 20
-403.2661774517026
 10
6.009246858842137
 20
-425.1993256415855
 10
6.796037970105826
 20
-443.8061319509244
 10
7.628593435394744
 20
-459.0791699647416
 10
8.533201332321882
 20
-471.17676873725935
 10
9.57990970505161
 20
-480.6293397661956
  0
LWPOLYLINE
  5
34
330
17
100
AcDbEntity
  8
CUT_DRAFT
100
AcDbPolyline
 90
89
 70
1
 10
1.4203619232658613
 20
-503.1091450132157
 10
-2.302804751348943
 20
-482.3508889578375
 10
-3.417440040551033
 20
-472.28488631847375
 10
-4.347026731952114
 20
-459.8532384685674
 10
-5.190156266189469
 20
-444.38622159839355
 10
-5.982028540540277
 20
-425.6592509709343
 10
-6.739831192322777
 20
-403.64677496000996
 10
-7.472161061979864
 20
-378.4279570352824
 10
-8.181800296217208
 20
-350.1481812121235
 10
-8.86603061791238
 20
-319.0006761127936
 10
-9.51653249155679
 20
-285.2170001024566
 10
-10.120398783501095
 20
-249.06120764907095
 10
-10.662366649559953
 20
-210.82502553716176
 10
-11.127340756308637
 20
-170.8230860992302
 10
-11.502241947105922
 20
-129.38823692023723
 10
-11.776915778472485
 20
-86.86719563082067
 10
-11.94428388686545
 20
-43.616635564438724
 10
-12.00000979405569
 20
2.6952515053653883e-08
 10
-11.94428369085831
 20
43.61663567834442
 10
-11.776915490512152
 20
86.8671957499024
 10
-11.502241612607744
 20
129.38823705565753
 10
-11.127340333407549
 20
170.82308623978145
 10
-10.662366211992651
 20
210.8250256727082
 10
-10.120398324667141
 20
249.06120779882016
 10
-9.516531994696667
 20
285.21700028126236
 10
-8.866030006569263
 20
319.00067630330227
 10
-8.18179961952494
 20
350.14818138784074
 10
-7.472160345377957
 20
378.4279571997393
 10
-6.739830452217074
 20
403.6467751217838
 10
-5.982027768514272
 20
425.65925113608307
 10
-5.190155462247203
 20
444.38622175815766
 10
-4.347025913727626
 20
459.8532386226675
 10
-3.417439209427332
 20
472.2848864705531
 10
-2.3028039066953494
 20
482.3508891148524
 10
1.4203627981486113
 20
503.1091451600572
 10
36.16260466699797
 20
495.4625708982925
 10
58.63147435776052
 20
491.0366658286492
 10
81.20506238300801
 20
486.92398199824993
 10
103.85895286600993
 20
483.0365522244036
 10
126.5893037646759
 20
479.29757059237147
 10
149.3932960929029
 20
475.6354071580144
 10
172.26930957031146
 20
471.9878081108991
 10
195.19331342406963
 20
468.3164390042351
 10
218.1176767909297
 20
464.6386581402922
 10
252.3402108429336
 20
459.465962131467
 10
250.74418680188253
 20
442.0914511890739
 10
250.40547073585543
 20
434.62012068108544
 10
250.11488557349543
 20
424.1849392720863
 10
249.83361031810384
 20
410.5291835755781
 10
249.5506362642596
 20
393.6286439788159
 10
249.2681117173138
 20
373.5485619172278
 10
248.9948496414586
 20
350.4077164048881
 10
248.74181317084336
 20
324.3654330389997
 10
248.51816734908178
 20
295.61545282921975
 10
248.32872928358623
 20
264.38243725829733
 10
248.17371838246711
 20
230.9189606509928
 10
248.0503106325038
 20
195.50193899558778
 10
247.95464083224027
 20
158.4285258079755
 10
247.8832420230232
 20
120.01197098930875
 10
247.8336445632119
 20
80.5778021081472
 10
247.80437071677554
 20
40.46041914525226
 10
247.79468567251251
 20
-6.972171796197089e-09
 10
247.80437066987335
 20
-40.460419266930536
 10
247.83364443097824
 20
-80.57780228232
 10
247.88324180663992
 20
-120.01197118852274
 10
247.9546405360842
 20
-158.42852602030217
 10
248.0503102633765
 20
-195.50193921477614
 10
248.1737179465232
 20
-230.91896087348198
 10
248.32872878687235
 20
-264.382437481471
 10
248.518166798319
 20
-295.61545305183313
 10
248.74181257183685
 20
-324.3654332606944
 10
248.99484899964202
 20
-350.4077166254922
 10
249.26811103792957
 20
-373.54856213643325
 10
249.55063555318893
 20
-393.6286441968958
 10
249.83360958060106
 20
-410.5291837927863
 10
250.1148848149541
 20
-424.184939490428
 10
250.4054699600202
 20
-434.62012089664364
 10
250.74418601480102
 20
-442.09145140935897
 10
252.34021003114304
 20
-459.465962344707
 10
218.11767597060322
 20
-464.6386583124194
 10
195.19011040964287
 20
-468.3169524148938
 10
172.26118345020095
 20
-471.98910665009686
 10
149.39329525449085
 20
-475.6354072250643
 10
126.58930292118876
 20
-479.2975706224685
 10
103.8589520177222
 20
-483.03655221950766
 10
81.20506153041738
 20
-486.92398196015847
 10
58.63147349951745
 20
-491.036665757584
 10
36.16260380540057
 20
-495.46257079569887
 10
1.4203619232658613
 20
-503.1091450132157
  0
LWPOLYLINE
  5
35
330
17
100
AcDbEntity
  8
GRID_REFERENCE
100
AcDbPolyline
 90
35
 70
0
 10
11.028738306246458
 20
-488.7071825576601
 10
9.57990970505161
 20
-480.6293397661956
 10
8.533201332321882
 20
-471.17676873725935
 10
7.628593435394744
 20
-459.0791699647416
 10
6.796037970105826
 20
-443.8061319509244
 10
6.009246858842137
 20
-425.1993256415855
 10
5.254175150780619
 20
-403.2661774517026
 10
4.523469194271375
 20
-378.1032812798597
 10
3.814893638752041
 20
-349.86589403140454
 10
3.131432306514873
 20
-318.75339483915747
 10
2.4815384278997525
 20
-285.0012949209389
 10
1.8781810627156699
 20
-248.8759738658778
 10
1.3366449256705681
 20
-210.6702505140294
 10
0.8720282644763118
 20
-170.69906228398884
 10
0.49740738505449816
 20
-129.29519369361742
 10
0.22293424035441142
 20
-86.80521981964776
 10
0.05568644878247117
 20
-43.585751518266655
 10
0.0
 20
0.0
 10
0.055686644669017425
 20
43.58575159246633
 10
0.222934528207009
 20
86.8052199194249
 10
0.4974077194107572
 20
129.29519380969296
 10
0.8720286872087241
 20
170.69906240953952
 10
1.3366453631681523
 20
210.67025064406252
 10
1.8781815214061761
 20
248.87597400609582
 10
2.481538924301229
 20
285.0012950732358
 10
3.1314329171690516
 20
318.75339499674317
 10
3.8148943149399464
 20
349.86589418596105
 10
4.52346991048529
 20
378.1032814301941
 10
5.254175890442123
 20
403.2661775992191
 10
6.009247630148615
 20
425.1993257878086
 10
6.796038773250083
 20
443.8061320947846
 10
7.628594252857408
 20
459.07917010695854
 10
8.533202162185724
 20
471.1767688754848
 10
9.579910547364967
 20
480.6293399067452
 10
11.02873916002669
 20
488.70718269259794
  0
LWPOLYLINE
  5
36
330
17
100
AcDbEntity
  8
GRID_REFERENCE
100
AcDbPolyline
 90
35
 70
0
 10
33.71301080933916
 20
-483.7145003394619
 10
32.467753059720366
 20
-475.40007258031284
 10
31.63179956897142
 20
-466.0404861270253
 10
30.92787417682547
 20
-454.1663846733608
 10
30.286345825245064
 20
-439.14090525181535
 10
29.688773508195915
 20
-420.7831605599448
 10
29.12349263684849
 20
-399.10677050531143
 10
28.581376712408552
 20
-374.2165933240812
 10
28.057450539910743
 20
-346.2729065829645
 10
27.552022854362026
 20
-315.47780157853697
 10
27.070782735660348
 20
-282.0680286018082
 10
26.623574360684348
 20
-246.3097847958473
 10
26.222196952232256
 20
-208.4942418160647
 10
25.878160130434
 20
-168.93345087898163
 10
25.601184342420623
 20
-127.9565080659012
 10
25.398590455571778
 20
-85.90591827190556
 10
25.27532749285858
 20
-43.13411917625196
 10
25.234149134481385
 20
5.53102827947278e-09
 10
25.275327637406573
 20
43.13411920526393
 10
25.39859070441784
 20
85.90591833372517
 10
25.601184658915514
 20
127.95650814581768
 10
25.878160519733598
 20
168.9334509726842
 10
26.22219737736542
 20
208.49424192363233
 10
26.623574819508395
 20
246.3097849081753
 10
27.07078324561702
 20
282.0680287109745
 10
27.552023446087993
 20
315.477801685409
 10
28.057451197284095
 20
346.27290669536
 10
28.581377415181908
 20
374.2165934398093
 10
29.12349337170878
 20
399.10677062058596
 10
29.688774273084718
 20
420.7831606722065
 10
30.286346616692974
 20
439.1409053630382
 10
30.927874987569417
 20
454.1663847847162
 10
31.631800393124653
 20
466.0404862362095
 10
32.46775389485653
 20
475.40007268904185
 10
33.713011655228755
 20
483.71450044533645
  0
LWPOLYLINE
  5
37
330
17
100
AcDbEntity
  8
GRID_REFERENCE
100
AcDbPolyline
 90
35
 70
0
 10
56.39632805865013
 20
-479.24635354518097
 10
55.334591048279734
 20
-470.81698720339546
 10
54.632493840693826
 20
-461.5540256141391
 10
54.0429050832524
 20
-449.89193614989915
 10
53.50205830221481
 20
-435.1179258126559
 10
52.9992151744358
 20
-417.0158422579929
 10
52.52739279412606
 20
-395.5916971904373
 10
52.07796841461863
 20
-370.95509362266955
 10
51.644715058448035
 20
-343.27316646254627
 10
51.2267261460201
 20
-312.75310801683963
 10
50.828618411226785
 20
-279.6345823197843
 10
50.45888025044518
 20
-244.18486092712342
 10
50.127530843478645
 20
-206.69467581819973
 10
49.84408639299659
 20
-167.4744480079154
 10
49.61636507607893
 20
-126.85080966162718
 10
49.45009924515075
 20
-85.16330419396178
 10
49.34904379600924
 20
-42.7611426123607
 10
49.315222045936906
 20
2.810160123400343e-09
 10
49.34904391508847
 20
42.761142624112786
 10
49.45009946191183
 20
85.16330422423226
 10
49.61636536992985
 20
126.85080971048102
 10
49.844086755963545
 20
167.47444807153465
 10
50.127531256248105
 20
206.69467589282297
 10
50.45888071045926
 20
244.18486100488755
 10
50.82861892765045
 20
279.6345823944689
 10
51.22672672909701
 20
312.75310808928106
 10
51.64471570070737
 20
343.27316653749705
 10
52.077969104271155
 20
370.955093701263
 10
52.52739352093805
 20
395.5916972703333
 10
52.99921593136823
 20
417.0158423373616
 10
53.50205908390915
 20
435.11792589148513
 10
54.042905884865085
 20
449.89193622781653
 10
54.63249465833637
 20
461.5540256921503
 10
55.33459187862801
 20
470.81698727788546
 10
56.39632890016897
 20
479.2463536194201
  0
LWPOLYLINE
  5
38
330
17
100
AcDbEntity
  8
GRID_REFERENCE
100
AcDbPolyline
 90
35
 70
0
 10
79.11479557597852
 20
-475.1072741426085
 10
78.20302058428103
 20
-466.6404803052295
 10
77.61669417510439
 20
-457.4695974222889
 10
77.11866417302453
 20
-445.98376889004146
 10
76.65297781409444
 20
-431.42778857469125
 10
76.2139556093544
 20
-413.5610688011228
 10
75.80063104716282
 20
-392.377497597785
 10
75.4082606796261
 20
-367.98366781307703
 10
75.0318898645881
 20
-340.54920067425866
 10
74.67053774431656
 20
-310.28532213156956
 10
74.32810641879128
 20
-277.4349234308008
 10
74.01177170766876
 20
-242.26693120829742
 10
73.72974695031849
 20
-205.072199402939
 10
73.48958465686972
 20
-166.160066023587
 10
73.29732541732649
 20
-125.85525122088377
 10
73.1573069509492
 20
-84.49488273242811
 10
73.07232399162889
 20
-42.42550208286461
 10
73.04386967693758
 20
-1.0499921360723401e-08
 10
73.0723240936736
 20
42.42550207465522
 10
73.15730714449478
 20
84.49488273920501
 10
73.29732568981483
 20
125.85525124154287
 10
73.48958499986205
 20
166.16006605646223
 10
73.72974735239575
 20
205.07219944393404
 10
74.01177216571895
 20
242.26693125167031
 10
74.3281069359332
 20
277.43492347246746
 10
74.67053832176374
 20
310.28532217170556
 10
75.03189049690326
 20
340.54920071525265
 10
75.40826135909268
 20
367.98366785609215
 10
75.80063176543946
 20
392.37749764243824
 10
76.21395635988637
 20
413.56106884643566
 10
76.65297859082163
 20
431.42778861966025
 10
77.11866497071745
 20
445.983768934848
 10
77.61669498777448
 20
457.4695974651577
 10
78.20302140813142
 20
466.6404803493972
 10
79.11479641136219
 20
475.10727418374364
  0
LWPOLYLINE
  5
39
330
17
100
AcDbEntity
  8
GRID_REFERENCE
100
AcDbPolyline
 90
35
 70
0
 10
101.87028499729553
 20
-471.20240992561827
 10
101.0820343304924
 20
-462.79011721005367
 10
100.59060126910433
 20
-453.74026663371285
 10
100.16712103829767
 20
-442.4184846134562
 10
99.75970614914075
 20
-428.05241962200176
 10
99.36463517181636
 20
-410.39248880353273
 10
98.98490590167211
 20
-389.4262138266135
 10
98.62122848993162
 20
-365.2562097216932
 10
98.27309973127846
 20
-338.0515997075042
 10
97.94183944703688
 20
-308.02553177430184
 10
97.63160573923858
 20
-275.42319686089377
 10
97.34836745092845
 20
-240.51487722213787
 10
97.098382855621
 20
-203.59152729993443
 10
96.88714715217681
 20
-164.96154904857417
 10
96.7189581985749
 20
-124.94802866482978
 10
96.59688926512648
 20
-83.88604344643217
 10
96.52293624268135
 20
-42.119862988574766
 10
96.49818213753213
 20
-1.6874962319456426e-08
 10
96.52293633083048
 20
42.11986296408859
 10
96.59688944097854
 20
83.88604343085332
 10
96.7189584537075
 20
124.94802865954688
 10
96.88714748006583
 20
164.96154905175504
 10
97.09838324896896
 20
203.59152730879242
 10
97.34836790559842
 20
240.51487723252424
 10
97.63160625433768
 20
275.4231968700551
 10
97.94184001941274
 20
308.0255317822214
 10
98.27310035659067
 20
338.05159971541065
 10
98.62122916127329
 20
365.2562097305231
 10
98.98490661163565
 20
389.4262138365069
 10
99.36463591360224
 20
410.3924888143583
 10
99.75970691602707
 20
428.05241963284027
 10
100.16712182527823
 20
442.41848462482767
 10
100.59060207274808
 20
453.7402666437167
 10
101.08203514840352
 20
462.79011722008073
 10
101.87028582790566
 20
471.2024099334864
  0
LWPOLYLINE
  5
3A
330
17
100
AcDbEntity
  8
GRID_REFERENCE
100
AcDbPolyline
 90
35
 70
0
 10
124.66405739329579
 20
-467.4529959426275
 10
123.97534535504869
 20
-459.1943943572663
 10
123.55942753237565
 20
-450.30857650642105
 10
123.19390617105016
 20
-439.15214256439094
 10
122.82976302826994
 20
-424.956040952539
 10
122.46287011479178
 20
-407.4755449856938
 10
122.09808481010607
 20
-386.69952297140827
 10
121.74151866663858
 20
-362.7298479086237
 10
121.39907070721326
 20
-335.73516756433224
 10
121.07642711687241
 20
-305.92912734939057
 10
120.7790598530184
 20
-273.55768345466186
 10
120.51197309630447
 20
-238.89137665382262
 10
120.27944135084962
 20
-202.2206627577783
 10
120.0849082357211
 20
-163.852805301104
 10
119.93103200458329
 20
-124.10932194957518
 10
119.81978044139717
 20
-83.32346385722364
 10
119.75251185826038
 20
-41.83753285102475
 10
119.73000770837373
 20
-1.5112721238900248e-08
 10
119.75251193940142
 20
41.837532808060125
 10
119.81978060334689
 20
83.32346381961176
 10
119.93103224573667
 20
124.10932191897452
 10
120.08490855181418
 20
163.85280527581943
 10
120.27944173626683
 20
202.22066273537996
 10
120.51197354669704
 20
238.8913766317998
 10
120.77906036480559
 20
273.5576834315409
 10
121.0764276852463
 20
305.92912732493824
 10
121.39907132710707
 20
335.7351675392087
 10
121.74151933165153
 20
362.7298478837172
 10
122.09808551403403
 20
386.6995229470029
 10
122.4628708517286
 20
407.47554496195045
 10
122.82976379257222
 20
424.95604092816797
 10
123.19390695767962
 20
439.1521425416568
 10
123.55942833395373
 20
450.3085764792666
 10
123.97534616781114
 20
459.1943943360869
 10
124.66405821814038
 20
467.4529959155616
  0
LWPOLYLINE
  5
3B
330
17
100
AcDbEntity
  8
GRID_REFERENCE
100
AcDbPolyline
 90
35
 70
0
 10
147.49715667377347
 20
-463.7861581708857
 10
146.88532661350888
 20
-455.7789968723805
 10
146.52714807929937
 20
-447.1018006131174
 10
146.20414041232468
 20
-436.1147308649888
 10
145.869201673238
 20
-422.0718557631059
 10
145.51688088795387
 20
-404.74563945840566
 10
145.15326408265443
 20
-384.1335547879292
 10
144.78973409571626
 20
-360.3411130744332
 10
144.4389529030541
 20
-333.53803327161535
 10
144.11144259122966
 20
-303.93766291215934
 10
143.8143189244177
 20
-271.7849715333614
 10
143.55182817517422
 20
-237.34919514675795
 10
143.3264441937967
 20
-200.91932293982345
 10
143.13976504495994
 20
-162.80104379577642
 10
142.99303125491738
 20
-123.31421942199069
 10
142.88731258650725
 20
-82.79038688927204
 10
142.8234928852953
 20
-41.570087706389685
 10
142.80215358783866
 20
-3.855873269673809e-08
 10
142.8234929590961
 20
41.570087643110774
 10
142.88731273670777
 20
82.7903868300376
 10
142.99303148435567
 20
123.31421936648964
 10
143.1397653517096
 20
162.80104374251977
 10
143.32644457301157
 20
200.9193228868835
 10
143.55182862155485
 20
237.34919509267783
 10
143.81431943284505
 20
271.7849714774854
 10
144.11144315592225
 20
303.93766285463136
 10
144.4389535183938
 20
333.5380332131204
 10
144.78973475542074
 20
360.34111301565883
 10
145.15326478041575
 20
384.13355472920176
 10
145.51688161755732
 20
404.7456394003332
 10
145.86920242857687
 20
422.07185570377254
 10
146.2041411884568
 20
436.1147308105641
 10
146.5271488732438
 20
447.1018005472101
 10
146.88532742174556
 20
455.77899682152065
 10
147.49715749410274
 20
463.78615810672886
  0
LWPOLYLINE
  5
3C
330
17
100
AcDbEntity
  8
GRID_REFERENCE
100
AcDbPolyline
 90
35
 70
0
 10
170.3716447028336
 20
-460.13880524793
 10
169.81481856341318
 20
-452.4687907055924
 10
169.49753549314718
 20
-444.03369660675247
 10
169.2024348680737
 20
-433.21266848453234
 10
168.8833686365328
 20
-419.3032581453994
 10
168.534382045216
 20
-402.1065515552192
 10
168.16382991652992
 20
-381.6351011130299
 10
167.78829694778656
 20
-358.00177042462445
 10
167.42572563541123
 20
-331.37821539071507
 10
167.08997193201526
 20
-301.97623812281535
 10
166.7891682608193
 20
-270.03788940979103
 10
166.52690303678062
 20
-235.82948188905974
 10
166.30422793133715
 20
-199.63752468225948
 10
166.1212863920179
 20
-161.76563567387936
 10
165.97821554842275
 20
-122.53186152244966
 10
165.87541093465538
 20
-82.26604783546199
 10
165.81342158026808
 20
-41.30708588138369
 10
165.79270168973477
 20
-4.139452355318452e-08
 10
165.81342164365813
 20
41.30708579880347
 10
165.8754110739904
 20
82.26604775546846
 10
165.97821576864715
 20
122.53186144273597
 10
166.12128669188562
 20
161.76563559233108
 10
166.30422830580764
 20
199.63752459798772
 10
166.52690347974735
 20
235.82948180201439
 10
166.78916876611203
 20
270.03788932023747
 10
167.0899724933473
 20
301.9762380313745
 10
167.425726246708
 20
331.3782152980744
 10
167.78829760305723
 20
358.00177033151436
 10
168.16383061003762
 20
381.635101019706
 10
168.53438277131812
 20
402.1065514621156
 10
168.88336939057822
 20
419.3032580512379
 10
169.20243564136965
 20
433.21266839326574
 10
169.49753628294715
 20
444.03369650876
 10
169.8148193630858
 20
452.46879061733
 10
170.3716455135425
 20
460.1388051516773
  0
LWPOLYLINE
  5
3D
330
17
100
AcDbEntity
  8
GRID_REFERENCE
100
AcDbPolyline
 90
35
 70
0
 10
193.29244636556157
 20
-456.46794945364
 10
192.7689753474512
 20
-449.19746078959446
 10
192.47478119522498
 20
-441.0127469476364
 10
192.1909442411108
 20
-430.3357988042962
 10
191.8750795093548
 20
-416.5304479491698
 10
191.52281336568103
 20
-399.43740592397785
 10
191.14626021401276
 20
-379.0891816575334
 10
190.76522390084318
 20
-355.60646449144235
 10
190.3992520296658
 20
-329.1607886926327
 10
190.06281204531686
 20
-299.959964150349
 10
189.76403927379462
 20
-268.2412373920109
 10
189.50594834838603
 20
-234.2667475434095
 10
189.28862588833684
 20
-198.3197770565032
 10
189.11120250007372
 20
-160.70149359305415
 10
188.97301301661838
 20
-121.72798401116157
 10
188.87394226924792
 20
-81.72737591123868
 10
188.81426789719762
 20
-41.03692038638505
 10
188.79432901505305
 20
-4.6838566886783304e-08
 10
188.81426795117548
 20
41.03692028941795
 10
188.87394239893908
 20
81.72737581331775
 10
188.97301323087748
 20
121.7279839065429
 10
189.11120279604614
 20
160.7014934812388
 10
189.28862625980545
 20
198.31977693893123
 10
189.50594878858257
 20
234.26674742161185
 10
189.76403977621385
 20
268.2412372672535
 10
190.06281260331963
 20
299.9599640236733
 10
190.39925263709372
 20
329.1607885649342
 10
190.76522455177866
 20
355.6064643633377
 10
191.1462609026322
 20
379.08918152933
 10
191.52281408597787
 20
399.4374057957111
 10
191.8750802558814
 20
416.5304478223926
 10
192.19094500969132
 20
430.33579867097615
 10
192.47478198136204
 20
441.0127468324747
 10
192.76897614905477
 20
449.19746064236534
 10
193.2924471760138
 20
456.4679493322557
  0
LWPOLYLINE
  5
3E
330
17
100
AcDbEntity
  8
GRID_REFERENCE
100
AcDbPolyline
 90
35
 70
0
 10
216.27049719128772
 20
-452.7815555008135
 10
215.76090492995635
 20
-445.93688692287117
 10
215.45731091582147
 20
-437.9635130909092
 10
215.16417427257554
 20
-427.37438595699956
 10
214.84378460427956
 20
-413.62913508270276
 10
214.4945242376672
 20
-396.6165064222857
 10
214.12869187999465
 20
-376.3859544294259
 10
213.7635045271204
 20
-353.05898671387024
 10
213.41572473993497
 20
-326.8016094151506
 10
213.0982437350333
 20
-297.8149116144609
 10
212.81849701037387
 20
-266.33015126493797
 10
212.57894909605614
 20
-232.6047254992706
 10
212.3789855556671
 20
-196.9184055833422
 10
212.21695143189055
 20
-159.56979799068878
 10
212.09146231168256
 20
-120.87300134250273
 10
212.00184295450939
 20
-81.15439776307527
 10
211.94798521223808
 20
-40.74952464339654
 10
211.93000859809504
 20
-5.3214068149778954e-08
 10
211.9479852531525
 20
40.749524546860385
 10
212.00184308044075
 20
81.15439764668572
 10
212.09146252466326
 20
120.87300120837521
 10
212.21695172689329
 20
159.56979784435697
 10
212.37898592550664
 20
196.91840542914275
 10
212.5789495341003
 20
232.60472534021042
 10
212.81849751007005
 20
266.3301511030064
 10
213.09824428954423
 20
297.81491145103774
 10
213.41572534330473
 20
326.8016092511942
 10
213.76350517373385
 20
353.0589865499245
 10
214.12869256438762
 20
376.38595426567394
 10
214.49452495419683
 20
396.6165062586416
 10
214.84378534701335
 20
413.62913491915674
 10
215.16417503665787
 20
427.3743857953874
 10
215.45731169308726
 20
437.9635129220613
 10
215.7609057176507
 20
445.93688676926575
 10
216.2704979920326
 20
452.78155533171264
  0
LWPOLYLINE
  5
3F
330
17
100
AcDbEntity
  8
GRID_REFERENCE
100
AcDbPolyline
 90
35
 70
0
 10
239.3551368770917
 20
-449.2923392315678
 10
238.7690819765228
 20
-442.912474533801
 10
238.41303686695727
 20
-435.05890322103426
 10
238.11832473174374
 20
-424.4755177803687
 10
237.83567828808222
 20
-410.753190635831
 10
237.55204877525574
 20
-393.8135023685915
 10
237.26910779039332
 20
-373.70382024387374
 10
236.99553736256976
 20
-350.536859160296
 10
236.74226604684523
 20
-324.47040134042777
 10
236.51844988009879
 20
-295.69851684125706
 10
236.32889735912727
 20
-264.44662186149986
 10
236.17381478925324
 20
-230.9676604056584
 10
236.05036421324112
 20
-195.5383288363813
 10
235.95466931229885
 20
-158.4551604857606
 10
235.88325583182248
 20
-120.03066876440141
 10
235.83364993756967
 20
-80.58972684737637
 10
235.8043717178853
 20
-40.46623370011713
 10
235.7946853287238
 20
0.0
 10
235.8043717647956
 20
40.466233598130835
 10
235.83365006982874
 20
80.58972669877889
 10
235.88325604824527
 20
120.03066859047462
 10
235.95466960850902
 20
158.45516029771306
 10
236.0503645824388
 20
195.53832864032185
 10
236.17381522528757
 20
230.96766020538476
 10
236.32889785595538
 20
264.44662165960887
 10
236.51845043100337
 20
295.69851663909117
 10
236.74226664602625
 20
324.47040113865995
 10
236.99553800459742
 20
350.53685895929465
 10
237.26910847002617
 20
373.70382004386096
 10
237.55204948661654
 20
393.813502169335
 10
237.83567902593296
 20
410.75319043724585
 10
238.1183254907463
 20
424.475517581165
 10
238.41303764349618
 20
435.0589030245404
 10
238.7690827648183
 20
442.9124743309025
 10
239.3551376747428
 20
449.2923390343318
  0
TEXT
  5
40
330
17
100
AcDbEntity
  8
TEXT
100
AcDbText
 10
0.0
 20
523.7071826925979
 30
0.0
 40
10.0
  1
Q06_LEG_CONTINUATION_INNER_DRAFT
100
AcDbText
  0
TEXT
  5
41
330
17
100
AcDbEntity
  8
TEXT
100
AcDbText
 10
0.0
 20
508.70718269259794
 30
0.0
 40
7.0
  1
MM. PROTOTYPE ONLY. NOT PRODUCTION CUTTING.
100
AcDbText
  0
ENDSEC
  0
SECTION
  2
OBJECTS
  0
DICTIONARY
  5
A
330
0
100
AcDbDictionary
281
1
  3
ACAD_COLOR
350
B
  3
ACAD_GROUP
350
C
  3
ACAD_LAYOUT
350
D
  3
ACAD_MATERIAL
350
E
  3
ACAD_MLEADERSTYLE
350
F
  3
ACAD_MLINESTYLE
350
10
  3
ACAD_PLOTSETTINGS
350
11
  3
ACAD_PLOTSTYLENAME
350
12
  3
ACAD_SCALELIST
350
14
  3
ACAD_TABLESTYLE
350
15
  3
ACAD_VISUALSTYLE
350
16
  3
EZDXF_META
350
2D
  0
DICTIONARY
  5
B
330
A
100
AcDbDictionary
281
1
  0
DICTIONARY
  5
C
330
A
100
AcDbDictionary
281
1
  0
DICTIONARY
  5
D
330
A
100
AcDbDictionary
281
1
  3
Model
350
1A
  3
Layout1
350
1E
  0
DICTIONARY
  5
E
330
A
100
AcDbDictionary
281
1
  3
ByBlock
350
1F
  3
ByLayer
350
20
  3
Global
350
21
  0
DICTIONARY
  5
F
330
A
100
AcDbDictionary
281
1
  3
Standard
350
2C
  0
DICTIONARY
  5
10
330
A
100
AcDbDictionary
281
1
  3
Standard
350
22
  0
DICTIONARY
  5
11
330
A
100
AcDbDictionary
281
1
  0
ACDBDICTIONARYWDFLT
  5
12
330
A
100
AcDbDictionary
281
1
  3
Normal
350
13
100
AcDbDictionaryWithDefault
340
13
  0
ACDBPLACEHOLDER
  5
13
330
12
  0
DICTIONARY
  5
14
330
A
100
AcDbDictionary
281
1
  0
DICTIONARY
  5
15
330
A
100
AcDbDictionary
281
1
  0
DICTIONARY
  5
16
330
A
100
AcDbDictionary
281
1
  0
LAYOUT
  5
1A
330
D
100
AcDbPlotSettings
  1

  4
A3
  6

 40
7.5
 41
20.0
 42
7.5
 43
20.0
 44
420.0
 45
297.0
 46
0.0
 47
0.0
 48
0.0
 49
0.0
140
0.0
141
0.0
142
1.0
143
1.0
 70
1024
 72
1
 73
0
 74
5
  7

 75
16
 76
0
 77
2
 78
300
147
1.0
148
0.0
149
0.0
100
AcDbLayout
  1
Model
 70
1
 71
0
 10
0.0
 20
0.0
 11
420.0
 21
297.0
 12
0.0
 22
0.0
 32
0.0
 14
1e+20
 24
1e+20
 34
1e+20
 15
-1e+20
 25
-1e+20
 35
-1e+20
146
0.0
 13
0.0
 23
0.0
 33
0.0
 16
1.0
 26
0.0
 36
0.0
 17
0.0
 27
1.0
 37
0.0
 76
1
330
17
  0
LAYOUT
  5
1E
330
D
100
AcDbPlotSettings
  1

  4
A3
  6

 40
7.5
 41
20.0
 42
7.5
 43
20.0
 44
420.0
 45
297.0
 46
0.0
 47
0.0
 48
0.0
 49
0.0
140
0.0
141
0.0
142
1.0
143
1.0
 70
0
 72
1
 73
0
 74
5
  7

 75
16
 76
0
 77
2
 78
300
147
1.0
148
0.0
149
0.0
100
AcDbLayout
  1
Layout1
 70
1
 71
1
 10
0.0
 20
0.0
 11
420.0
 21
297.0
 12
0.0
 22
0.0
 32
0.0
 14
1e+20
 24
1e+20
 34
1e+20
 15
-1e+20
 25
-1e+20
 35
-1e+20
146
0.0
 13
0.0
 23
0.0
 33
0.0
 16
1.0
 26
0.0
 36
0.0
 17
0.0
 27
1.0
 37
0.0
 76
1
330
1B
  0
MATERIAL
  5
1F
102
{ACAD_REACTORS
330
E
102
}
330
E
100
AcDbMaterial
  1
ByBlock
  2

 70
0
 40
1.0
 71
1
 41
1.0
 91
-1023410177
 42
1.0
 72
1
  3

 73
1
 74
1
 75
1
 44
0.5
 73
0
 45
1.0
 46
1.0
 77
1
  4

 78
1
 79
1
170
1
 48
1.0
171
1
  6

172
1
173
1
174
1
140
1.0
141
1.0
175
1
  7

176
1
177
1
178
1
143
1.0
179
1
  8

270
1
271
1
272
1
145
1.0
146
1.0
273
1
  9

274
1
275
1
276
1
 42
1.0
 72
1
  3

 73
1
 74
1
 75
1
 94
63
  0
MATERIAL
  5
20
102
{ACAD_REACTORS
330
E
102
}
330
E
100
AcDbMaterial
  1
ByLayer
  2

 70
0
 40
1.0
 71
1
 41
1.0
 91
-1023410177
 42
1.0
 72
1
  3

 73
1
 74
1
 75
1
 44
0.5
 73
0
 45
1.0
 46
1.0
 77
1
  4

 78
1
 79
1
170
1
 48
1.0
171
1
  6

172
1
173
1
174
1
140
1.0
141
1.0
175
1
  7

176
1
177
1
178
1
143
1.0
179
1
  8

270
1
271
1
272
1
145
1.0
146
1.0
273
1
  9

274
1
275
1
276
1
 42
1.0
 72
1
  3

 73
1
 74
1
 75
1
 94
63
  0
MATERIAL
  5
21
102
{ACAD_REACTORS
330
E
102
}
330
E
100
AcDbMaterial
  1
Global
  2

 70
0
 40
1.0
 71
1
 41
1.0
 91
-1023410177
 42
1.0
 72
1
  3

 73
1
 74
1
 75
1
 44
0.5
 73
0
 45
1.0
 46
1.0
 77
1
  4

 78
1
 79
1
170
1
 48
1.0
171
1
  6

172
1
173
1
174
1
140
1.0
141
1.0
175
1
  7

176
1
177
1
178
1
143
1.0
179
1
  8

270
1
271
1
272
1
145
1.0
146
1.0
273
1
  9

274
1
275
1
276
1
 42
1.0
 72
1
  3

 73
1
 74
1
 75
1
 94
63
  0
MLINESTYLE
  5
22
102
{ACAD_REACTORS
330
10
102
}
330
10
100
AcDbMlineStyle
  2
Standard
 70
0
  3

 62
256
 51
90.0
 52
90.0
 71
2
 49
0.5
 62
256
  6
BYLAYER
 49
-0.5
 62
256
  6
BYLAYER
  0
MLEADERSTYLE
  5
2C
102
{ACAD_REACTORS
330
F
102
}
330
F
100
AcDbMLeaderStyle
179
2
170
2
171
1
172
0
 90
2
 40
0.0
 41
0.0
173
1
 91
-1056964608
 92
-2
290
1
 42
2.0
291
1
 43
8.0
  3
Standard
 44
4.0
300

342
29
174
1
175
1
176
0
178
1
 93
-1056964608
 45
4.0
292
0
297
0
 46
4.0
 94
-1056964608
 47
1.0
 49
1.0
140
1.0
294
1
141
0.0
177
0
142
1.0
295
0
296
0
143
3.75
271
0
272
9
273
9
  0
DICTIONARY
  5
2D
330
A
100
AcDbDictionary
280
1
281
1
  3
CREATED_BY_EZDXF
350
2E
  3
WRITTEN_BY_EZDXF
350
44
  0
DICTIONARYVAR
  5
2E
330
2D
100
DictionaryVariables
280
0
  1
1.4.4 @ 2026-10-02T11:32:45.773094+00:00
  0
DICTIONARYVAR
  5
44
330
2D
100
DictionaryVariables
280
0
  1
1.4.4 @ 2026-10-02T11:32:45.776747+00:00
  0
ENDSEC
  0
EOF
