  0
SECTION
  2
HEADER
  9
$ACADVER
  1
AC1024
  9
$ACADMAINTVER
 70
6
  9
$DWGCODEPAGE
  3
ANSI_1252
  9
$LASTSAVEDBY
  1
ezdxf
  9
$INSBASE
 10
0.0
 20
0.0
 30
0.0
  9
$EXTMIN
 10
1e+20
 20
1e+20
 30
1e+20
  9
$EXTMAX
 10
-1e+20
 20
-1e+20
 30
-1e+20
  9
$LIMMIN
 10
0.0
 20
0.0
  9
$LIMMAX
 10
420.0
 20
297.0
  9
$ORTHOMODE
 70
0
  9
$REGENMODE
 70
1
  9
$FILLMODE
 70
1
  9
$QTEXTMODE
 70
0
  9
$MIRRTEXT
 70
1
  9
$LTSCALE
 40
1.0
  9
$ATTMODE
 70
1
  9
$TEXTSIZE
 40
2.5
  9
$TRACEWID
 40
1.0
  9
$TEXTSTYLE
  7
Standard
  9
$CLAYER
  8
0
  9
$CELTYPE
  6
ByLayer
  9
$CECOLOR
 62
256
  9
$CELTSCALE
 40
1.0
  9
$DISPSILH
 70
0
  9
$DIMSCALE
 40
1.0
  9
$DIMASZ
 40
2.5
  9
$DIMEXO
 40
0.625
  9
$DIMDLI
 40
3.75
  9
$DIMRND
 40
0.0
  9
$DIMDLE
 40
0.0
  9
$DIMEXE
 40
1.25
  9
$DIMTP
 40
0.0
  9
$DIMTM
 40
0.0
  9
$DIMTXT
 40
2.5
  9
$DIMCEN
 40
2.5
  9
$DIMTSZ
 40
0.0
  9
$DIMTOL
 70
0
  9
$DIMLIM
 70
0
  9
$DIMTIH
 70
0
  9
$DIMTOH
 70
0
  9
$DIMSE1
 70
0
  9
$DIMSE2
 70
0
  9
$DIMTAD
 70
1
  9
$DIMZIN
 70
8
  9
$DIMBLK
  1

  9
$DIMASO
 70
1
  9
$DIMSHO
 70
1
  9
$DIMPOST
  1

  9
$DIMAPOST
  1

  9
$DIMALT
 70
0
  9
$DIMALTD
 70
3
  9
$DIMALTF
 40
0.03937007874
  9
$DIMLFAC
 40
1.0
  9
$DIMTOFL
 70
1
  9
$DIMTVP
 40
0.0
  9
$DIMTIX
 70
0
  9
$DIMSOXD
 70
0
  9
$DIMSAH
 70
0
  9
$DIMBLK1
  1

  9
$DIMBLK2
  1

  9
$DIMSTYLE
  2
ISO-25
  9
$DIMCLRD
 70
0
  9
$DIMCLRE
 70
0
  9
$DIMCLRT
 70
0
  9
$DIMTFAC
 40
1.0
  9
$DIMGAP
 40
0.625
  9
$DIMJUST
 70
0
  9
$DIMSD1
 70
0
  9
$DIMSD2
 70
0
  9
$DIMTOLJ
 70
0
  9
$DIMTZIN
 70
8
  9
$DIMALTZ
 70
0
  9
$DIMALTTZ
 70
0
  9
$DIMUPT
 70
0
  9
$DIMDEC
 70
2
  9
$DIMTDEC
 70
2
  9
$DIMALTU
 70
2
  9
$DIMALTTD
 70
3
  9
$DIMTXSTY
  7
Standard
  9
$DIMAUNIT
 70
0
  9
$DIMADEC
 70
0
  9
$DIMALTRND
 40
0.0
  9
$DIMAZIN
 70
0
  9
$DIMDSEP
 70
44
  9
$DIMATFIT
 70
3
  9
$DIMFRAC
 70
0
  9
$DIMLDRBLK
  1

  9
$DIMLUNIT
 70
2
  9
$DIMLWD
 70
-2
  9
$DIMLWE
 70
-2
  9
$DIMTMOVE
 70
0
  9
$DIMFXL
 40
1.0
  9
$DIMFXLON
 70
0
  9
$DIMJOGANG
 40
0.785398163397
  9
$DIMTFILL
 70
0
  9
$DIMTFILLCLR
 70
0
  9
$DIMARCSYM
 70
0
  9
$DIMLTYPE
  6

  9
$DIMLTEX1
  6

  9
$DIMLTEX2
  6

  9
$DIMTXTDIRECTION
 70
0
  9
$LUNITS
 70
2
  9
$LUPREC
 70
4
  9
$SKETCHINC
 40
1.0
  9
$FILLETRAD
 40
10.0
  9
$AUNITS
 70
0
  9
$AUPREC
 70
2
  9
$MENU
  1
.
  9
$ELEVATION
 40
0.0
  9
$PELEVATION
 40
0.0
  9
$THICKNESS
 40
0.0
  9
$LIMCHECK
 70
0
  9
$CHAMFERA
 40
0.0
  9
$CHAMFERB
 40
0.0
  9
$CHAMFERC
 40
0.0
  9
$CHAMFERD
 40
0.0
  9
$SKPOLY
 70
0
  9
$TDCREATE
 40
2461316.481076389
  9
$TDUCREATE
 40
2458532.153996898
  9
$TDUPDATE
 40
2461316.481076389
  9
$TDUUPDATE
 40
2458532.1544311
  9
$TDINDWG
 40
0.0
  9
$TDUSRTIMER
 40
0.0
  9
$USRTIMER
 70
1
  9
$ANGBASE
 50
0.0
  9
$ANGDIR
 70
0
  9
$PDMODE
 70
0
  9
$PDSIZE
 40
0.0
  9
$PLINEWID
 40
0.0
  9
$SPLFRAME
 70
0
  9
$SPLINETYPE
 70
6
  9
$SPLINESEGS
 70
8
  9
$HANDSEED
  5
45
  9
$SURFTAB1
 70
6
  9
$SURFTAB2
 70
6
  9
$SURFTYPE
 70
6
  9
$SURFU
 70
6
  9
$SURFV
 70
6
  9
$UCSBASE
  2

  9
$UCSNAME
  2

  9
$UCSORG
 10
0.0
 20
0.0
 30
0.0
  9
$UCSXDIR
 10
1.0
 20
0.0
 30
0.0
  9
$UCSYDIR
 10
0.0
 20
1.0
 30
0.0
  9
$UCSORTHOREF
  2

  9
$UCSORTHOVIEW
 70
0
  9
$UCSORGTOP
 10
0.0
 20
0.0
 30
0.0
  9
$UCSORGBOTTOM
 10
0.0
 20
0.0
 30
0.0
  9
$UCSORGLEFT
 10
0.0
 20
0.0
 30
0.0
  9
$UCSORGRIGHT
 10
0.0
 20
0.0
 30
0.0
  9
$UCSORGFRONT
 10
0.0
 20
0.0
 30
0.0
  9
$UCSORGBACK
 10
0.0
 20
0.0
 30
0.0
  9
$PUCSBASE
  2

  9
$PUCSNAME
  2

  9
$PUCSORG
 10
0.0
 20
0.0
 30
0.0
  9
$PUCSXDIR
 10
1.0
 20
0.0
 30
0.0
  9
$PUCSYDIR
 10
0.0
 20
1.0
 30
0.0
  9
$PUCSORTHOREF
  2

  9
$PUCSORTHOVIEW
 70
0
  9
$PUCSORGTOP
 10
0.0
 20
0.0
 30
0.0
  9
$PUCSORGBOTTOM
 10
0.0
 20
0.0
 30
0.0
  9
$PUCSORGLEFT
 10
0.0
 20
0.0
 30
0.0
  9
$PUCSORGRIGHT
 10
0.0
 20
0.0
 30
0.0
  9
$PUCSORGFRONT
 10
0.0
 20
0.0
 30
0.0
  9
$PUCSORGBACK
 10
0.0
 20
0.0
 30
0.0
  9
$USERI1
 70
0
  9
$USERI2
 70
0
  9
$USERI3
 70
0
  9
$USERI4
 70
0
  9
$USERI5
 70
0
  9
$USERR1
 40
0.0
  9
$USERR2
 40
0.0
  9
$USERR3
 40
0.0
  9
$USERR4
 40
0.0
  9
$USERR5
 40
0.0
  9
$WORLDVIEW
 70
1
  9
$SHADEDGE
 70
3
  9
$SHADEDIF
 70
70
  9
$TILEMODE
 70
1
  9
$MAXACTVP
 70
64
  9
$PINSBASE
 10
0.0
 20
0.0
 30
0.0
  9
$PLIMCHECK
 70
0
  9
$PEXTMIN
 10
1e+20
 20
1e+20
 30
1e+20
  9
$PEXTMAX
 10
-1e+20
 20
-1e+20
 30
-1e+20
  9
$PLIMMIN
 10
0.0
 20
0.0
  9
$PLIMMAX
 10
420.0
 20
297.0
  9
$UNITMODE
 70
0
  9
$VISRETAIN
 70
1
  9
$PLINEGEN
 70
0
  9
$PSLTSCALE
 70
1
  9
$TREEDEPTH
 70
3020
  9
$CMLSTYLE
  2
Standard
  9
$CMLJUST
 70
0
  9
$CMLSCALE
 40
20.0
  9
$PROXYGRAPHICS
 70
1
  9
$MEASUREMENT
 70
1
  9
$CELWEIGHT
370
-1
  9
$ENDCAPS
280
0
  9
$JOINSTYLE
280
0
  9
$LWDISPLAY
290
0
  9
$INSUNITS
 70
4
  9
$HYPERLINKBASE
  1

  9
$STYLESHEET
  1

  9
$XEDIT
290
1
  9
$CEPSNTYPE
380
0
  9
$PSTYLEMODE
290
1
  9
$FINGERPRINTGUID
  2
{0D9EA718-1D39-4CD4-99DB-9892829C7FBE}
  9
$VERSIONGUID
  2
{27B4AAB3-EBCC-4D0E-9DF2-ECF3B6237611}
  9
$EXTNAMES
290
1
  9
$PSVPSCALE
 40
0.0
  9
$OLESTARTUP
290
0
  9
$SORTENTS
280
127
  9
$INDEXCTL
280
0
  9
$HIDETEXT
280
1
  9
$XCLIPFRAME
280
1
  9
$HALOGAP
280
0
  9
$OBSCOLOR
 70
257
  9
$OBSLTYPE
280
0
  9
$INTERSECTIONDISPLAY
280
0
  9
$INTERSECTIONCOLOR
 70
257
  9
$DIMASSOC
280
2
  9
$PROJECTNAME
  1

  9
$CAMERADISPLAY
290
0
  9
$LENSLENGTH
 40
50.0
  9
$CAMERAHEIGHT
 40
0.0
  9
$STEPSPERSEC
 40
24.0
  9
$STEPSIZE
 40
100.0
  9
$3DDWFPREC
 40
2.0
  9
$PSOLWIDTH
 40
0.005
  9
$PSOLHEIGHT
 40
0.08
  9
$LOFTANG1
 40
1.570796326795
  9
$LOFTANG2
 40
1.570796326795
  9
$LOFTMAG1
 40
0.0
  9
$LOFTMAG2
 40
0.0
  9
$LOFTPARAM
 70
7
  9
$LOFTNORMALS
280
1
  9
$LATITUDE
 40
37.795
  9
$LONGITUDE
 40
-122.394
  9
$NORTHDIRECTION
 40
0.0
  9
$TIMEZONE
 70
-8000
  9
$LIGHTGLYPHDISPLAY
280
1
  9
$TILEMODELIGHTSYNCH
280
1
  9
$CMATERIAL
347
20
  9
$SOLIDHIST
280
0
  9
$SHOWHIST
280
1
  9
$DWFFRAME
280
2
  9
$DGNFRAME
280
2
  9
$REALWORLDSCALE
290
1
  9
$INTERFERECOLOR
 62
256
  9
$CSHADOW
280
0
  9
$SHADOWPLANELOCATION
 40
0.0
  0
ENDSEC
  0
SECTION
  2
CLASSES
  0
CLASS
  1
ACDBDICTIONARYWDFLT
  2
AcDbDictionaryWithDefault
  3
ObjectDBX Classes
 90
0
 91
0
280
0
281
0
  0
CLASS
  1
SUN
  2
AcDbSun
  3
SCENEOE
 90
1153
 91
0
280
0
281
0
  0
CLASS
  1
VISUALSTYLE
  2
AcDbVisualStyle
  3
ObjectDBX Classes
 90
4095
 91
0
280
0
281
0
  0
CLASS
  1
MATERIAL
  2
AcDbMaterial
  3
ObjectDBX Classes
 90
1153
 91
0
280
0
281
0
  0
CLASS
  1
SCALE
  2
AcDbScale
  3
ObjectDBX Classes
 90
1153
 91
0
280
0
281
0
  0
CLASS
  1
TABLESTYLE
  2
AcDbTableStyle
  3
ObjectDBX Classes
 90
4095
 91
0
280
0
281
0
  0
CLASS
  1
MLEADERSTYLE
  2
AcDbMLeaderStyle
  3
ACDB_MLEADERSTYLE_CLASS
 90
4095
 91
0
280
0
281
0
  0
CLASS
  1
DICTIONARYVAR
  2
AcDbDictionaryVar
  3
ObjectDBX Classes
 90
0
 91
0
280
0
281
0
  0
CLASS
  1
CELLSTYLEMAP
  2
AcDbCellStyleMap
  3
ObjectDBX Classes
 90
1152
 91
0
280
0
281
0
  0
CLASS
  1
MENTALRAYRENDERSETTINGS
  2
AcDbMentalRayRenderSettings
  3
SCENEOE
 90
1024
 91
0
280
0
281
0
  0
CLASS
  1
ACDBDETAILVIEWSTYLE
  2
AcDbDetailViewStyle
  3
ObjectDBX Classes
 90
1025
 91
0
280
0
281
0
  0
CLASS
  1
ACDBSECTIONVIEWSTYLE
  2
AcDbSectionViewStyle
  3
ObjectDBX Classes
 90
1025
 91
0
280
0
281
0
  0
CLASS
  1
RASTERVARIABLES
  2
AcDbRasterVariables
  3
ISM
 90
0
 91
0
280
0
281
0
  0
CLASS
  1
ACDBPLACEHOLDER
  2
AcDbPlaceHolder
  3
ObjectDBX Classes
 90
0
 91
0
280
0
281
0
  0
CLASS
  1
LAYOUT
  2
AcDbLayout
  3
ObjectDBX Classes
 90
0
 91
0
280
0
281
0
  0
ENDSEC
  0
SECTION
  2
TABLES
  0
TABLE
  2
VPORT
  5
8
330
0
100
AcDbSymbolTable
 70
1
  0
VPORT
  5
23
330
8
100
AcDbSymbolTableRecord
100
AcDbViewportTableRecord
  2
*Active
 70
0
 10
0.0
 20
0.0
 11
1.0
 21
1.0
 12
0.0
 22
0.0
 13
0.0
 23
0.0
 14
0.5
 24
0.5
 15
0.5
 25
0.5
 16
0.0
 26
0.0
 36
1.0
 17
0.0
 27
0.0
 37
0.0
 40
1000.0
 41
1.34
 42
50.0
 43
0.0
 44
0.0
 50
0.0
 51
0.0
 71
0
 72
1000
 73
1
 74
3
 75
0
 76
0
 77
0
 78
0
281
0
 65
0
146
0.0
  0
ENDTAB
  0
TABLE
  2
LTYPE
  5
2
330
0
100
AcDbSymbolTable
 70
3
  0
LTYPE
  5
24
330
2
100
AcDbSymbolTableRecord
100
AcDbLinetypeTableRecord
  2
ByBlock
 70
0
  3

 72
65
 73
0
 40
0.0
  0
LTYPE
  5
25
330
2
100
AcDbSymbolTableRecord
100
AcDbLinetypeTableRecord
  2
ByLayer
 70
0
  3

 72
65
 73
0
 40
0.0
  0
LTYPE
  5
26
330
2
100
AcDbSymbolTableRecord
100
AcDbLinetypeTableRecord
  2
Continuous
 70
0
  3

 72
65
 73
0
 40
0.0
  0
ENDTAB
  0
TABLE
  2
LAYER
  5
1
330
0
100
AcDbSymbolTable
 70
6
  0
LAYER
  5
27
330
1
100
AcDbSymbolTableRecord
100
AcDbLayerTableRecord
  2
0
 70
0
 62
7
  6
Continuous
370
-3
390
13
347
21
  0
LAYER
  5
28
330
1
100
AcDbSymbolTableRecord
100
AcDbLayerTableRecord
  2
Defpoints
 70
0
 62
7
  6
Continuous
290
0
370
-3
390
13
347
21
  0
LAYER
  5
2F
330
1
100
AcDbSymbolTableRecord
100
AcDbLayerTableRecord
  2
SEAM
 70
0
 62
5
  6
Continuous
370
-3
390
13
347
21
  0
LAYER
  5
30
330
1
100
AcDbSymbolTableRecord
100
AcDbLayerTableRecord
  2
CUT_DRAFT
 70
0
 62
1
  6
Continuous
370
-3
390
13
347
21
  0
LAYER
  5
31
330
1
100
AcDbSymbolTableRecord
100
AcDbLayerTableRecord
  2
GRID_REFERENCE
 70
0
 62
8
  6
Continuous
370
-3
390
13
347
21
  0
LAYER
  5
32
330
1
100
AcDbSymbolTableRecord
100
AcDbLayerTableRecord
  2
TEXT
 70
0
 62
7
  6
Continuous
370
-3
390
13
347
21
  0
ENDTAB
  0
TABLE
  2
STYLE
  5
5
330
0
100
AcDbSymbolTable
 70
1
  0
STYLE
  5
29
330
5
100
AcDbSymbolTableRecord
100
AcDbTextStyleTableRecord
  2
Standard
 70
0
 40
0.0
 41
1.0
 50
0.0
 71
0
 42
2.5
  3
txt
  4

  0
ENDTAB
  0
TABLE
  2
VIEW
  5
7
330
0
100
AcDbSymbolTable
 70
0
  0
ENDTAB
  0
TABLE
  2
UCS
  5
6
330
0
100
AcDbSymbolTable
 70
0
  0
ENDTAB
  0
TABLE
  2
APPID
  5
3
330
0
100
AcDbSymbolTable
 70
3
  0
APPID
  5
2A
330
3
100
AcDbSymbolTableRecord
100
AcDbRegAppTableRecord
  2
ACAD
 70
0
  0
APPID
  5
42
330
3
100
AcDbSymbolTableRecord
100
AcDbRegAppTableRecord
  2
HATCHBACKGROUNDCOLOR
 70
0
  0
APPID
  5
43
330
3
100
AcDbSymbolTableRecord
100
AcDbRegAppTableRecord
  2
EZDXF
 70
0
  0
ENDTAB
  0
TABLE
  2
DIMSTYLE
  5
4
330
0
100
AcDbSymbolTable
 70
1
100
AcDbDimStyleTable
  0
DIMSTYLE
105
2B
330
4
100
AcDbSymbolTableRecord
100
AcDbDimStyleTableRecord
  2
Standard
 70
0
 40
1.0
 41
2.5
 42
0.625
 43
3.75
 44
1.25
 45
0.0
 46
0.0
 47
0.0
 48
0.0
 49
2.5
140
2.5
141
2.5
142
0.0
143
0.03937007874
144
1.0
145
0.0
146
1.0
147
0.625
148
0.0
 69
0
 70
0
 71
0
 72
0
 73
0
 74
0
 75
0
 76
0
 77
1
 78
8
 79
3
170
0
171
3
172
1
173
0
174
0
175
0
176
0
177
0
178
0
179
2
271
2
272
2
273
2
274
3
275
0
276
0
277
2
278
44
279
0
280
0
281
0
282
0
283
0
284
8
285
0
286
0
288
0
289
3
290
0
371
-2
372
-2
  0
ENDTAB
  0
TABLE
  2
BLOCK_RECORD
  5
9
330
0
100
AcDbSymbolTable
 70
2
  0
BLOCK_RECORD
  5
17
330
9
100
AcDbSymbolTableRecord
100
AcDbBlockTableRecord
  2
*Model_Space
340
1A
 70
0
280
1
281
0
  0
BLOCK_RECORD
  5
1B
330
9
100
AcDbSymbolTableRecord
100
AcDbBlockTableRecord
  2
*Paper_Space
340
1E
 70
0
280
1
281
0
  0
ENDTAB
  0
ENDSEC
  0
SECTION
  2
BLOCKS
  0
BLOCK
  5
18
330
17
100
AcDbEntity
  8
0
100
AcDbBlockBegin
  2
*Model_Space
 70
0
 10
0.0
 20
0.0
 30
0.0
  3
*Model_Space
  1

  0
ENDBLK
  5
19
330
17
100
AcDbEntity
  8
0
100
AcDbBlockEnd
  0
BLOCK
  5
1C
330
1B
100
AcDbEntity
  8
0
100
AcDbBlockBegin
  2
*Paper_Space
 70
0
 10
0.0
 20
0.0
 30
0.0
  3
*Paper_Space
  1

  0
ENDBLK
  5
1D
330
1B
100
AcDbEntity
  8
0
100
AcDbBlockEnd
  0
ENDSEC
  0
SECTION
  2
ENTITIES
  0
LWPOLYLINE
  5
33
330
17
100
AcDbEntity
  8
SEAM
100
AcDbPolyline
 90
88
 70
1
 10
11.233862906771899
 20
-501.8340606600363
 10
34.23753332165239
 20
-498.66338501863885
 10
57.23937659619047
 20
-495.3899737018935
 10
80.24721338540198
 20
-491.9746515712029
 10
103.26042612076142
 20
-488.3685985105404
 10
126.27329647100414
 20
-484.5258494712611
 10
149.2778055995258
 20
-480.4071047977371
 10
172.26572701378328
 20
-475.98098734564854
 10
195.2298658432501
 20
-471.2251255213185
 10
218.16395896318565
 20
-466.1304643636368
 10
241.05652768630472
 20
-460.7200849857918
 10
239.6781324347489
 20
-453.8913829022233
 10
238.70003467769317
 20
-445.1980353961232
 10
237.90640918637828
 20
-433.74695100314926
 10
237.22160911275944
 20
-419.18868788717293
 10
236.61363141718275
 20
-401.4359869689019
 10
236.06513226313794
 20
-380.53163362062753
 10
235.56465300008819
 20
-356.59201739193907
 10
235.1045650519671
 20
-329.7816982952184
 10
234.68116559326123
 20
-300.30084228645734
 10
234.29473578688913
 20
-268.37807231656916
 10
233.94861406404607
 20
-234.26584159783775
 10
233.64754843240954
 20
-198.23712390615088
 10
233.39613888343322
 20
-160.58271895532891
 10
233.19792404259073
 20
-121.60868827077078
 10
233.05518359950145
 20
-81.63364759900774
 10
232.9691664169664
 20
-40.985836018276274
 10
232.94044134491998
 20
0.0
 10
232.96916635088147
 20
40.98583611263242
 10
233.055183435528
 20
81.63364773563255
 10
233.1979237836839
 20
121.60868842901573
 10
233.3961385368373
 20
160.58271912481857
 10
233.6475480049495
 20
198.23712408134125
 10
233.94861356332126
 20
234.26584177611977
 10
234.2947352188975
 20
268.37807249697596
 10
234.68116496430383
 20
300.300842468403
 10
235.10456436733642
 20
329.78169847823693
 10
235.56465226531546
 20
356.592017575622
 10
236.06513148394168
 20
380.5316338048594
 10
236.61363059978632
 20
401.4359871522797
 10
237.2216082628851
 20
419.18868807573034
 10
237.9064083106585
 20
433.7469511747463
 10
238.7000337836773
 20
445.1980356151442
 10
239.67813151564962
 20
453.8913830420685
 10
241.05652676910645
 20
460.7200851994083
 10
218.16395803031816
 20
466.1304645247671
 10
195.2298649020764
 20
471.22512563521747
 10
172.2657260648953
 20
475.98098741885786
 10
149.27780464343647
 20
480.4071048319252
 10
126.27329550796664
 20
484.5258494664247
 10
103.26042515102652
 20
488.36859846605927
 10
80.24721240945513
 20
491.97465148639674
 10
57.23937561371028
 20
495.389973575871
 10
34.237532332637485
 20
498.66338484992593
 10
11.23386191155449
 20
501.8340604469875
 10
10.01923530823844
 20
493.1963320960145
 10
9.057423081248867
 20
482.84526063916894
 10
8.177575725714238
 20
469.78967251481384
 10
7.300585606917024
 20
453.5756580321822
 10
6.406296471639534
 20
434.04578376701363
 10
5.506320791530619
 20
411.20435846159944
 10
4.625446408363074
 20
385.15214105223237
 10
3.789702188949149
 20
356.0528197871941
 10
3.019648367342199
 20
324.11440027574423
 10
2.3282209230522004
 20
289.5781500022828
 10
1.7219863129130422
 20
252.7118037633784
 10
1.2038819782249235
 20
213.80526922235154
 10
0.7756533070863781
 20
173.16758405799908
 10
0.43913827597674965
 20
131.12422685533724
 10
0.19647605257612394
 20
88.0142866016411
 10
0.049697588746096116
 20
44.18733829153112
 10
0.0
 20
0.0
 10
0.049697823833049146
 20
-44.187338406457286
 10
0.19647638690141483
 20
-88.01428675291987
 10
0.43913872137546056
 20
-131.12422701914178
 10
0.7756536855455073
 20
-173.167584236489
 10
1.2038824833805981
 20
-213.8052694163139
 10
1.7219868439262176
 20
-252.71180396197053
 10
2.328221486674228
 20
-289.57815020835505
 10
3.019648962110095
 20
-324.1144004923241
 10
3.789702866066362
 20
-356.0528200125843
 10
4.625447174605246
 20
-385.15214127921223
 10
5.506321615371267
 20
-411.2043586860001
 10
6.4062973306742546
 20
-434.0457839890542
 10
7.300586504720578
 20
-453.5756582526284
 10
8.17757665774664
 20
-469.7896727336345
 10
9.057424038084825
 20
-482.8452608563601
 10
10.019236286887827
 20
-493.19633231139835
  0
LWPOLYLINE
  5
34
330
17
100
AcDbEntity
  8
CUT_DRAFT
100
AcDbPolyline
 90
89
 70
1
 10
1.0171995055677485
 20
-515.3557108753827
 10
-1.9031698150928449
 20
-494.5877180975114
 10
-2.905185283661273
 20
-483.8039775835872
 10
-3.800613029145327
 20
-470.5172006948419
 10
-4.68458077937992
 20
-454.17418264202666
 10
-5.582892169707972
 20
-434.5564694774316
 10
-6.48569308707092
 20
-411.6433404153523
 10
-7.368730557823685
 20
-385.52715052297043
 10
-8.206144518237753
 20
-356.36969456631465
 10
-8.977455885687684
 20
-324.37912103919115
 10
-9.669803705913251
 20
-289.79690026788415
 10
-10.276699492311193
 20
-252.8903485482418
 10
-10.795275644137844
 20
-213.94838530294163
 10
-11.223840283616905
 20
-173.2788297139642
 10
-11.560590965017967
 20
-131.20602256184102
 10
-11.80341050573077
 20
-88.06815397465837
 10
-11.950279576064107
 20
-44.21418085602231
 10
-12.000007589761319
 20
-3.190297889775507e-08
 10
-11.95027981127317
 20
44.21418069562357
 10
-11.803410840184185
 20
88.06815379436038
 10
-11.56059141048646
 20
131.20602239215773
 10
-11.223840662124717
 20
173.2788295263629
 10
-10.79527614958416
 20
213.9483850863239
 10
-10.276700023460135
 20
252.8903483403884
 10
-9.669804269729426
 20
289.7969000511549
 10
-8.97745648089374
 20
324.3791208018228
 10
-8.206145196240046
 20
356.36969430716266
 10
-7.368731325067008
 20
385.52715026438364
 10
-6.485693911746755
 20
411.64334016844253
 10
-5.582893029634873
 20
434.55646923424695
 10
-4.684581678405861
 20
454.1741823970402
 10
-3.800613962644767
 20
470.51720045200574
 10
-2.905186242401466
 20
483.8039773424395
 10
-1.9031707965676607
 20
494.5877178581453
 10
1.0171984843971569
 20
515.3557106426215
 10
35.9021433329577
 20
510.54739782508096
 10
58.965735530182954
 20
507.2651990118787
 10
82.0570740480786
 20
503.83748178596886
 10
105.17752194520804
 20
500.21462556388246
 10
128.31900861645386
 20
496.3503998772693
 10
151.46973781085822
 20
492.2054758933368
 10
174.617028252917
 20
487.7486734094339
 10
197.74791585570804
 20
482.95827803899294
 10
220.84523345898967
 20
477.827357662453
 10
255.1167696287392
 20
469.727698211527
 10
251.5444012392315
 20
452.02984292142406
 10
250.6535410782017
 20
444.1118643437405
 10
249.88689815869358
 20
433.0501064927389
 10
249.2119547225796
 20
418.70138652426067
 10
248.60824276698935
 20
401.07324252818097
 10
248.06184162256181
 20
380.2488468954561
 10
247.56250027366002
 20
356.36365882928413
 10
247.10308587488964
 20
329.59258599065805
 10
246.68012198856326
 20
300.1420545519331
 10
246.29399833432922
 20
268.2445706207245
 10
245.94810487214008
 20
234.1548296382141
 10
245.64721326242878
 20
198.14692849653142
 10
245.39593480147838
 20
160.51214490414992
 10
245.19781482456656
 20
121.55674961308057
 10
245.05513809840613
 20
81.59952652971695
 10
244.96915745222526
 20
40.96893408932832
 10
244.9404442920877
 20
9.675793652487807e-09
 10
244.96915751827956
 20
-40.9689339708255
 10
245.05513826229773
 20
-81.59952636435922
 10
245.19781508335265
 20
-121.55674942706557
 10
245.39593514791855
 20
-160.5121447082598
 10
245.64721368969964
 20
-198.14692829624855
 10
245.9481053726422
 20
-234.15482943589615
 10
246.29399890206142
 20
-268.24457041703135
 10
246.68012261721887
 20
-300.14205434719617
 10
247.10308655916472
 20
-329.59258578508707
 10
247.56250100800725
 20
-356.3636586232545
 10
248.06184240123713
 20
-380.248846689145
 10
248.60824358372187
 20
-401.0732423228405
 10
249.21195557158342
 20
-418.7013863143968
 10
249.88689903317223
 20
-433.050106299621
 10
250.65354197019607
 20
-444.111864102527
 10
251.54440215491687
 20
-452.02984275983334
 10
255.11677056125933
 20
-469.7276979665532
 10
220.84523441738335
 20
-477.8273574954832
 10
197.7479168192063
 20
-482.95827792031497
 10
174.61702922216708
 20
-487.748673332159
 10
151.46973878695624
 20
-492.20547585543136
 10
128.3190095997022
 20
-496.3503998786082
 10
105.17752293552381
 20
-500.21462560503204
 10
82.05707504505925
 20
-503.8374818675649
 10
58.96573653435418
 20
-507.26519913474664
 10
35.902144344467544
 20
-510.5473979906421
 10
1.0171995055677485
 20
-515.3557108753827
  0
LWPOLYLINE
  5
35
330
17
100
AcDbEntity
  8
GRID_REFERENCE
100
AcDbPolyline
 90
35
 70
0
 10
11.233862906771899
 20
-501.8340606600363
 10
10.019236286887827
 20
-493.19633231139835
 10
9.057424038084825
 20
-482.8452608563601
 10
8.17757665774664
 20
-469.7896727336345
 10
7.300586504720578
 20
-453.5756582526284
 10
6.4062973306742546
 20
-434.0457839890542
 10
5.506321615371267
 20
-411.2043586860001
 10
4.625447174605246
 20
-385.15214127921223
 10
3.789702866066362
 20
-356.0528200125843
 10
3.019648962110095
 20
-324.1144004923241
 10
2.328221486674228
 20
-289.57815020835505
 10
1.7219868439262176
 20
-252.71180396197053
 10
1.2038824833805981
 20
-213.8052694163139
 10
0.7756536855455073
 20
-173.167584236489
 10
0.43913872137546056
 20
-131.12422701914178
 10
0.19647638690141483
 20
-88.01428675291987
 10
0.049697823833049146
 20
-44.187338406457286
 10
0.0
 20
0.0
 10
0.049697588746096116
 20
44.18733829153112
 10
0.19647605257612394
 20
88.0142866016411
 10
0.43913827597674965
 20
131.12422685533724
 10
0.7756533070863781
 20
173.16758405799908
 10
1.2038819782249235
 20
213.80526922235154
 10
1.7219863129130422
 20
252.7118037633784
 10
2.3282209230522004
 20
289.5781500022828
 10
3.019648367342199
 20
324.11440027574423
 10
3.789702188949149
 20
356.0528197871941
 10
4.625446408363074
 20
385.15214105223237
 10
5.506320791530619
 20
411.20435846159944
 10
6.406296471639534
 20
434.04578376701363
 10
7.300585606917024
 20
453.5756580321822
 10
8.177575725714238
 20
469.78967251481384
 10
9.057423081248867
 20
482.84526063916894
 10
10.01923530823844
 20
493.1963320960145
 10
11.23386191155449
 20
501.8340604469875
  0
LWPOLYLINE
  5
36
330
17
100
AcDbEntity
  8
GRID_REFERENCE
100
AcDbPolyline
 90
35
 70
0
 10
34.23753332165239
 20
-498.66338501863885
 10
32.962253963625784
 20
-489.71554236580937
 10
31.941171548731973
 20
-479.1363277444427
 10
31.01935678405078
 20
-465.95948416889837
 10
30.121335481236322
 20
-449.7292077828563
 10
29.22557931195601
 20
-430.275872376079
 10
28.340804514028378
 20
-407.5869743961168
 10
27.48824296189588
 20
-381.7464137456698
 10
26.68969600688863
 20
-352.9033804103678
 10
25.961318462793137
 20
-321.25432349352417
 10
25.312210651841056
 20
-287.0318854565488
 10
24.746091425402636
 20
-250.49782426656023
 10
24.26400635441105
 20
-211.9381062504978
 10
23.866495670137613
 20
-171.65906115889268
 10
23.554605885778113
 20
-129.98396986493148
 10
23.329922648460325
 20
-87.24976083865083
 10
23.194100223510393
 20
-43.803675366978155
 10
23.148405747277348
 20
-3.493639348159256e-08
 10
23.194100050614107
 20
43.803675290974475
 10
23.32992235158095
 20
87.24976072680678
 10
23.55460549613839
 20
129.98396972406957
 10
23.866495271919725
 20
171.65906100355156
 10
24.26400587444544
 20
211.93810609177638
 10
24.746090898615904
 20
250.49782409395237
 10
25.312210084399936
 20
287.03188527810346
 10
25.961317850860745
 20
321.25432331478254
 10
26.689695325967254
 20
352.90338023537464
 10
27.488242206520148
 20
381.7464135697823
 10
28.340803700271458
 20
407.58697421674935
 10
29.22557845539285
 20
430.27587219663707
 10
30.12133458776378
 20
449.7292076061325
 10
31.019355858579953
 20
465.9594839942088
 10
31.94117059773984
 20
479.13632757146496
 10
32.96225299216344
 20
489.71554219484165
 10
34.237532332637485
 20
498.66338484992593
  0
LWPOLYLINE
  5
37
330
17
100
AcDbEntity
  8
GRID_REFERENCE
100
AcDbPolyline
 90
35
 70
0
 10
57.23937659619047
 20
-495.3899737018935
 10
55.932603545984236
 20
-486.36442573994924
 10
54.87358989423623
 20
-475.7397466461823
 10
53.92262537034723
 20
-462.5602153376465
 10
53.009987238544845
 20
-446.3737309636625
 10
52.11312254812093
 20
-427.01394465548395
 10
51.236844325377085
 20
-404.4679217362014
 10
50.398361095319316
 20
-378.81415915659187
 10
49.61615614631596
 20
-350.1937672449124
 10
48.90389662491469
 20
-318.79505697037894
 10
48.26914957297917
 20
-284.8438673213695
 10
47.71501803684473
 20
-248.59685214281043
 10
47.242553663428765
 20
-210.3363667884019
 10
46.8525566039589
 20
-170.36616522905564
 10
46.54633554288202
 20
-129.00750767865858
 10
46.32564718796526
 20
-86.59549676709196
 10
46.19226095291383
 20
-43.47556427993979
 10
46.14752666394367
 20
-3.0094868498651734e-08
 10
46.19226080782118
 20
43.475564212114335
 10
46.32564692666603
 20
86.59549668091474
 10
46.54633519124043
 20
129.0075075696454
 10
46.85255620588539
 20
170.36616510566733
 10
47.24255319677905
 20
210.33636665770797
 10
47.71501751579916
 20
248.5968520043829
 10
48.269149001902065
 20
284.84386717905124
 10
48.90389600051771
 20
318.7950568301333
 10
49.61615545900495
 20
350.19376710918306
 10
50.39836034434249
 20
378.8141590225948
 10
51.23684351909384
 20
404.46792160114455
 10
52.11312169621446
 20
427.01394451999755
 10
53.0099863491724
 20
446.37373082951694
 10
53.92262445015699
 20
462.5602152053237
 10
54.873588948854014
 20
475.739746515799
 10
55.932602580158864
 20
486.3644256114769
 10
57.23937561371028
 20
495.389973575871
  0
LWPOLYLINE
  5
38
330
17
100
AcDbEntity
  8
GRID_REFERENCE
100
AcDbPolyline
 90
35
 70
0
 10
80.24721338540198
 20
-491.9746515712029
 10
78.9090259074972
 20
-482.97621600823305
 10
77.81870494726265
 20
-472.3924664934879
 10
76.84417224495411
 20
-459.2767401123759
 10
75.92209109358035
 20
-443.18049153931884
 10
75.03048108711852
 20
-423.94047946229307
 10
74.16993578969269
 20
-401.54620946682155
 10
73.35177178235033
 20
-376.07592385646495
 10
72.58950968134113
 20
-347.6673817403765
 10
71.89383333247815
 20
-316.50388723274915
 10
71.27128418125953
 20
-282.8062706885555
 10
70.7253288115623
 20
-246.82706219364917
 10
70.25802390585034
 20
-208.84551534619277
 10
69.87121231685892
 20
-169.1630575386971
 10
69.56697785316321
 20
-128.09906571631632
 10
69.34753911254228
 20
-85.98693820701538
 10
69.21489262259458
 20
-43.17040490281596
 10
69.17046297502038
 20
-2.061456134387308e-08
 10
69.21489249685432
 20
43.17040485220826
 10
69.34753887676855
 20
85.98693814417845
 10
69.56697752817053
 20
128.09906563802184
 10
69.87121192745768
 20
169.16305744807661
 10
70.2580234486241
 20
208.84551524832884
 10
70.72532829433494
 20
246.82706209062937
 10
71.27128360740925
 20
282.80627058420197
 10
71.89383270068947
 20
316.50388713085937
 10
72.58950898944805
 20
347.66738164252763
 10
73.35177103225283
 20
376.07592376139036
 10
74.16993498732472
 20
401.54620937287376
 10
75.03048023957592
 20
423.9404793689731
 10
75.92209020849909
 20
443.18049144705185
 10
76.8441713292728
 20
459.27674002162706
 10
77.81870400718462
 20
472.3924664043961
 10
78.90902494798783
 20
482.97621592113325
 10
80.24721240945513
 20
491.97465148639674
  0
LWPOLYLINE
  5
39
330
17
100
AcDbEntity
  8
GRID_REFERENCE
100
AcDbPolyline
 90
35
 70
0
 10
103.26042612076142
 20
-488.3685985105404
 10
101.88731032314779
 20
-479.48402774252133
 10
100.77034591739495
 20
-469.0122933711351
 10
99.77904498602531
 20
-456.0148433957867
 10
98.8542051394503
 20
-440.0494497777861
 10
97.97475249529352
 20
-420.95727765723643
 10
97.13759003761922
 20
-398.73087666051015
 10
96.34749728045037
 20
-373.44983824913294
 10
95.61171342744785
 20
-345.25115451182785
 10
94.93709652380969
 20
-314.3157406525154
 10
94.32917373006877
 20
-280.8614711091301
 10
93.79230798449875
 20
-245.13813592274278
 10
93.33018994010864
 20
-207.4227135838814
 10
92.94620160288358
 20
-168.01473919206862
 10
92.64351260322225
 20
-127.2319062055001
 10
92.42495636163923
 20
-85.40599049586523
 10
92.29280647355014
 20
-42.879076154770964
 10
92.2485644858675
 20
-1.8709105002456987e-08
 10
92.29280635950643
 20
42.8790761265439
 10
92.42495614489924
 20
85.40599046000419
 10
92.64351229812517
 20
127.23190615792691
 10
92.94620122411955
 20
168.0147391348262
 10
93.33018949047583
 20
207.42271352066038
 10
93.79230747024884
 20
245.1381358564801
 10
94.32917315443179
 20
280.86147104297356
 10
94.93709588796376
 20
314.31574058901384
 10
95.6117127329016
 20
345.251154451983
 10
96.34749653026809
 20
373.44983819235557
 10
97.13758923746141
 20
398.7308766058698
 10
97.97475165150513
 20
420.9572776040922
 10
98.85420425906564
 20
440.0494497259974
 10
99.77904407557591
 20
456.0148433453506
 10
100.77034498274202
 20
469.0122933224694
 10
101.8873093692282
 20
479.4840276956209
 10
103.26042515102652
 20
488.36859846605927
  0
LWPOLYLINE
  5
3A
330
17
100
AcDbEntity
  8
GRID_REFERENCE
100
AcDbPolyline
 90
35
 70
0
 10
126.27329647100414
 20
-484.5258494712611
 10
124.86307560182371
 20
-475.83124229010025
 10
123.7251354359868
 20
-465.53402355603674
 10
122.72590815513746
 20
-452.70310974915895
 10
121.80778284120811
 20
-436.90554662787355
 10
120.94953052512335
 20
-417.98896018845807
 10
120.14414670438367
 20
-395.94953683262804
 10
119.38975871181128
 20
-370.8685906268473
 10
118.68706304984792
 20
-342.88355056658355
 10
118.0389330906919
 20
-312.1749094488422
 10
117.44997185171776
 20
-278.9596210029009
 10
116.92566059463299
 20
-243.48630312051264
 10
116.47152996955116
 20
-206.03062604195614
 10
116.0926300894964
 20
-166.89071656209913
 10
115.79326911046137
 20
-126.38276491100189
 10
115.57689421374292
 20
-84.8369488106265
 10
115.44602754293115
 20
-42.59366584479422
 10
115.40222329898894
 20
2.8012301485837207e-09
 10
115.4460274369928
 20
42.59366584650166
 10
115.57689401287118
 20
84.8369488036228
 10
115.79326882120911
 20
126.3827648943863
 10
116.09262972080545
 20
166.89071653846167
 10
116.47152952640633
 20
206.030626014485
 10
116.9256600830937
 20
243.48630309182602
 10
117.44997127540117
 20
278.95962097532924
 10
118.03893245285673
 20
312.1749094241028
 10
118.68706235383944
 20
342.8835505452406
 10
119.38975796192256
 20
370.8685906085413
 10
120.14414590605244
 20
395.9495368168349
 10
120.94952968457179
 20
417.9889601744738
 10
121.80778196494994
 20
436.9055466156135
 10
122.72590724954385
 20
452.70310973821944
 10
123.72513450700752
 20
465.53402354689626
 10
124.86307465436582
 20
475.8312422826193
 10
126.27329550796664
 20
484.5258494664247
  0
LWPOLYLINE
  5
3B
330
17
100
AcDbEntity
  8
GRID_REFERENCE
100
AcDbPolyline
 90
35
 70
0
 10
149.2778055995258
 20
-480.4071047977371
 10
147.831918806124
 20
-471.9687088974144
 10
146.68156044238063
 20
-461.9003766179444
 10
145.68613969921142
 20
-449.2786928673799
 10
144.78703564292942
 20
-433.6827738793898
 10
143.96097939994328
 20
-414.968370421429
 10
143.19605205442934
 20
-393.1356627287791
 10
142.48386642040234
 20
-368.2678267617686
 10
141.81947912251897
 20
-340.50363597643263
 10
141.2026708601309
 20
-310.02488492295566
 10
140.63753206087395
 20
-277.0494842759346
 10
140.13063040885976
 20
-241.82632660930986
 10
139.68910072467054
 20
-204.6306278906735
 10
139.31940132569827
 20
-165.75948295336454
 10
139.02676598728092
 20
-125.52765732360469
 10
138.81509938224175
 20
-84.26365447978567
 10
138.6870661891995
 20
-42.3060450404579
 10
138.6442162886659
 20
2.7111632230596144e-08
 10
138.6870660963715
 20
42.306045072957325
 10
138.8150991961587
 20
84.26365450140558
 10
139.0267657110449
 20
125.52765733803601
 10
139.31940096562664
 20
165.7594829637344
 10
139.68910028681807
 20
204.63062789966477
 10
140.13062989958613
 20
241.82632661892174
 10
140.6375314847383
 20
277.04948428746576
 10
141.2026702215465
 20
310.0248849373954
 10
141.81947842627807
 20
340.50363599410065
 10
142.48386567149558
 20
368.26782678230944
 10
143.19605125828429
 20
393.1356627517902
 10
143.9609785626579
 20
414.968370446135
 10
144.78703477091153
 20
433.6827739061299
 10
145.68613879854942
 20
449.27869289508897
 10
146.6815595189561
 20
461.9003766481688
 10
147.8319178646811
 20
471.9687089285827
 10
149.27780464343647
 20
480.4071048319252
  0
LWPOLYLINE
  5
3C
330
17
100
AcDbEntity
  8
GRID_REFERENCE
100
AcDbPolyline
 90
35
 70
0
 10
172.26572701378328
 20
-475.98098734564854
 10
170.79051341101558
 20
-467.8547391302779
 10
169.64057106910724
 20
-458.0610530120136
 10
168.6643182671943
 20
-445.68548960852274
 10
167.79893229066278
 20
-430.32151479428285
 10
167.01650633716832
 20
-411.8335428150913
 10
166.29919788364796
 20
-390.2256750056872
 10
165.63317222389426
 20
-365.58353983753665
 10
165.01003131772924
 20
-338.0487937794421
 10
164.4281367638759
 20
-307.80641028545756
 10
163.8915579249904
 20
-275.0768182283377
 10
163.4075991577517
 20
-240.1101804103495
 10
162.9843676361169
 20
-203.1817413448361
 10
162.62914982445037
 20
-164.58768498663696
 10
162.34768064267726
 20
-124.6412565481146
 10
162.14404678078054
 20
-83.66908151603569
 10
162.02089298026104
 20
-42.00766004733379
 10
161.97968481567253
 20
2.816649036744852e-08
 10
162.02089290045313
 20
42.00766010212785
 10
162.14404660816137
 20
83.66908156465301
 10
162.3476803770708
 20
124.6412565934565
 10
162.62914947126364
 20
164.58768503186593
 10
162.98436720242972
 20
203.18174139148547
 10
163.40759865049137
 20
240.1101804592177
 10
163.89155734980994
 20
275.0768182800267
 10
164.42813612599963
 20
307.8064103400205
 10
165.01003062249276
 20
338.048793836855
 10
165.63317147671506
 20
365.5835398973956
 10
166.2991970903487
 20
390.22567506788766
 10
167.01650550369962
 20
411.83354287855576
 10
167.79893142345864
 20
430.3215148601596
 10
168.66431737202706
 20
445.68548967406883
 10
169.64057015200322
 20
458.0610530817036
 10
170.7905124763718
 20
467.8547391986883
 10
172.2657260648953
 20
475.98098741885786
  0
LWPOLYLINE
  5
3D
330
17
100
AcDbEntity
  8
GRID_REFERENCE
100
AcDbPolyline
 90
35
 70
0
 10
195.2298658432501
 20
-471.2251255213185
 10
193.73834722344358
 20
-463.4571280794705
 10
192.60792324343922
 20
-453.97599890404285
 10
191.67036253418246
 20
-441.87819612165765
 10
190.8538862250926
 20
-426.7719450988827
 10
190.1238243136055
 20
-408.5295618778608
 10
189.45714666055363
 20
-387.15961960278315
 10
188.8376799533676
 20
-362.75255882513255
 10
188.25664770235676
 20
-335.45563099454927
 10
187.71249936205894
 20
-305.45881497803333
 10
187.20930015618464
 20
-272.98589981951415
 10
186.75435023469
 20
-238.28856047775156
 10
186.35583162398686
 20
-201.6420061795508
 10
186.02110138972319
 20
-163.34128159903545
 10
185.7558604005152
 20
-123.69779665155008
 10
185.56404481396692
 20
-83.0359540964487
 10
185.4480964604795
 20
-41.68984607836288
 10
185.40931226787143
 20
3.3990007188661436e-08
 10
185.44809639006274
 20
41.6898461496024
 10
185.56404465170434
 20
83.03595416833521
 10
185.755860141822
 20
123.69779672834613
 10
186.02110104089988
 20
163.34128168093662
 10
186.35583119312534
 20
201.6420062657606
 10
186.75434972933925
 20
238.28856056758804
 10
187.20929958254615
 20
272.9858999124609
 10
187.71249872600652
 20
305.4588150737279
 10
188.25664700940587
 20
335.4556310926179
 10
188.83767920909315
 20
362.7525589251042
 10
189.4571458709675
 20
387.15961970472864
 10
190.12382348438643
 20
408.52956198038385
 10
190.85388536328816
 20
426.7719452045951
 10
191.67036164382398
 20
441.8781962242907
 10
192.6079223331811
 20
453.9759990156237
 10
193.73834629571277
 20
463.45712818242663
 10
195.2298649020764
 20
471.22512563521747
  0
LWPOLYLINE
  5
3E
330
17
100
AcDbEntity
  8
GRID_REFERENCE
100
AcDbPolyline
 90
35
 70
0
 10
218.16395896318565
 20
-466.1304643636368
 10
216.68238275931608
 20
-458.76350498415906
 10
215.6021008430966
 20
-449.6309652967064
 10
214.7245899496947
 20
-437.8387236374667
 10
213.96756704316553
 20
-423.0073690268347
 10
213.29158951833014
 20
-405.01809003654563
 10
212.67356284031322
 20
-383.8888999636739
 10
212.09955203229384
 20
-359.720411273008
 10
211.56242323808115
 20
-332.668403302848
 10
211.0607611035987
 20
-302.9285363001926
 10
210.59780255475314
 20
-270.7276000687837
 10
210.17979516586973
 20
-236.31816063286144
 10
209.81401055023326
 20
-199.97475808790995
 10
209.50708828446557
 20
-161.99069889750857
 10
209.26414760314012
 20
-122.67501302922398
 10
209.0886440174553
 20
-82.34940749189825
 10
208.98264504083002
 20
-41.34516764628496
 10
208.94720551246246
 20
4.0868146386378704e-08
 10
208.98264498124652
 20
41.34516772392806
 10
209.08864385879207
 20
82.34940758895613
 10
209.2641473463934
 20
122.67501314178924
 10
209.50708793743644
 20
161.99069901995566
 10
209.81401012117703
 20
199.97475821655803
 10
210.17979466257233
 20
236.3181607657294
 10
210.59780198359474
 20
270.7276002045361
 10
211.060760470564
 20
302.9285364382001
 10
211.56242254879513
 20
332.6684034426436
 10
212.099551292246
 20
359.72041141406686
 10
212.67356205549632
 20
383.88890010618314
 10
213.2915886945781
 20
405.0180901787821
 10
213.96756618780336
 20
423.00736917362843
 10
214.72458906528908
 20
437.83872377467105
 10
215.60209994255877
 20
449.6309654585
 10
216.68238183734488
 20
458.76350511106415
 10
218.16395803031816
 20
466.1304645247671
  0
LWPOLYLINE
  5
3F
330
17
100
AcDbEntity
  8
GRID_REFERENCE
100
AcDbPolyline
 90
35
 70
0
 10
241.05652768630472
 20
-460.7200849857918
 10
239.6781324347489
 20
-453.8913829022233
 10
238.70003467769317
 20
-445.1980353961232
 10
237.90640918637828
 20
-433.74695100314926
 10
237.22160911275944
 20
-419.18868788717293
 10
236.61363141718275
 20
-401.4359869689019
 10
236.06513226313794
 20
-380.53163362062753
 10
235.56465300008819
 20
-356.59201739193907
 10
235.1045650519671
 20
-329.7816982952184
 10
234.68116559326123
 20
-300.30084228645734
 10
234.29473578688913
 20
-268.37807231656916
 10
233.94861406404607
 20
-234.26584159783775
 10
233.64754843240954
 20
-198.23712390615088
 10
233.39613888343322
 20
-160.58271895532891
 10
233.19792404259073
 20
-121.60868827077078
 10
233.05518359950145
 20
-81.63364759900774
 10
232.9691664169664
 20
-40.985836018276274
 10
232.94044134491998
 20
0.0
 10
232.96916635088147
 20
40.98583611263242
 10
233.055183435528
 20
81.63364773563255
 10
233.1979237836839
 20
121.60868842901573
 10
233.3961385368373
 20
160.58271912481857
 10
233.6475480049495
 20
198.23712408134125
 10
233.94861356332126
 20
234.26584177611977
 10
234.2947352188975
 20
268.37807249697596
 10
234.68116496430383
 20
300.300842468403
 10
235.10456436733642
 20
329.78169847823693
 10
235.56465226531546
 20
356.592017575622
 10
236.06513148394168
 20
380.5316338048594
 10
236.61363059978632
 20
401.4359871522797
 10
237.2216082628851
 20
419.18868807573034
 10
237.9064083106585
 20
433.7469511747463
 10
238.7000337836773
 20
445.1980356151442
 10
239.67813151564962
 20
453.8913830420685
 10
241.05652676910645
 20
460.7200851994083
  0
TEXT
  5
40
330
17
100
AcDbEntity
  8
TEXT
100
AcDbText
 10
0.0
 20
536.8340604469875
 30
0.0
 40
10.0
  1
Q06_LEG_CONTINUATION_OUTER_DRAFT
100
AcDbText
  0
TEXT
  5
41
330
17
100
AcDbEntity
  8
TEXT
100
AcDbText
 10
0.0
 20
521.8340604469875
 30
0.0
 40
7.0
  1
MM. PROTOTYPE ONLY. NOT PRODUCTION CUTTING.
100
AcDbText
  0
ENDSEC
  0
SECTION
  2
OBJECTS
  0
DICTIONARY
  5
A
330
0
100
AcDbDictionary
281
1
  3
ACAD_COLOR
350
B
  3
ACAD_GROUP
350
C
  3
ACAD_LAYOUT
350
D
  3
ACAD_MATERIAL
350
E
  3
ACAD_MLEADERSTYLE
350
F
  3
ACAD_MLINESTYLE
350
10
  3
ACAD_PLOTSETTINGS
350
11
  3
ACAD_PLOTSTYLENAME
350
12
  3
ACAD_SCALELIST
350
14
  3
ACAD_TABLESTYLE
350
15
  3
ACAD_VISUALSTYLE
350
16
  3
EZDXF_META
350
2D
  0
DICTIONARY
  5
B
330
A
100
AcDbDictionary
281
1
  0
DICTIONARY
  5
C
330
A
100
AcDbDictionary
281
1
  0
DICTIONARY
  5
D
330
A
100
AcDbDictionary
281
1
  3
Model
350
1A
  3
Layout1
350
1E
  0
DICTIONARY
  5
E
330
A
100
AcDbDictionary
281
1
  3
ByBlock
350
1F
  3
ByLayer
350
20
  3
Global
350
21
  0
DICTIONARY
  5
F
330
A
100
AcDbDictionary
281
1
  3
Standard
350
2C
  0
DICTIONARY
  5
10
330
A
100
AcDbDictionary
281
1
  3
Standard
350
22
  0
DICTIONARY
  5
11
330
A
100
AcDbDictionary
281
1
  0
ACDBDICTIONARYWDFLT
  5
12
330
A
100
AcDbDictionary
281
1
  3
Normal
350
13
100
AcDbDictionaryWithDefault
340
13
  0
ACDBPLACEHOLDER
  5
13
330
12
  0
DICTIONARY
  5
14
330
A
100
AcDbDictionary
281
1
  0
DICTIONARY
  5
15
330
A
100
AcDbDictionary
281
1
  0
DICTIONARY
  5
16
330
A
100
AcDbDictionary
281
1
  0
LAYOUT
  5
1A
330
D
100
AcDbPlotSettings
  1

  4
A3
  6

 40
7.5
 41
20.0
 42
7.5
 43
20.0
 44
420.0
 45
297.0
 46
0.0
 47
0.0
 48
0.0
 49
0.0
140
0.0
141
0.0
142
1.0
143
1.0
 70
1024
 72
1
 73
0
 74
5
  7

 75
16
 76
0
 77
2
 78
300
147
1.0
148
0.0
149
0.0
100
AcDbLayout
  1
Model
 70
1
 71
0
 10
0.0
 20
0.0
 11
420.0
 21
297.0
 12
0.0
 22
0.0
 32
0.0
 14
1e+20
 24
1e+20
 34
1e+20
 15
-1e+20
 25
-1e+20
 35
-1e+20
146
0.0
 13
0.0
 23
0.0
 33
0.0
 16
1.0
 26
0.0
 36
0.0
 17
0.0
 27
1.0
 37
0.0
 76
1
330
17
  0
LAYOUT
  5
1E
330
D
100
AcDbPlotSettings
  1

  4
A3
  6

 40
7.5
 41
20.0
 42
7.5
 43
20.0
 44
420.0
 45
297.0
 46
0.0
 47
0.0
 48
0.0
 49
0.0
140
0.0
141
0.0
142
1.0
143
1.0
 70
0
 72
1
 73
0
 74
5
  7

 75
16
 76
0
 77
2
 78
300
147
1.0
148
0.0
149
0.0
100
AcDbLayout
  1
Layout1
 70
1
 71
1
 10
0.0
 20
0.0
 11
420.0
 21
297.0
 12
0.0
 22
0.0
 32
0.0
 14
1e+20
 24
1e+20
 34
1e+20
 15
-1e+20
 25
-1e+20
 35
-1e+20
146
0.0
 13
0.0
 23
0.0
 33
0.0
 16
1.0
 26
0.0
 36
0.0
 17
0.0
 27
1.0
 37
0.0
 76
1
330
1B
  0
MATERIAL
  5
1F
102
{ACAD_REACTORS
330
E
102
}
330
E
100
AcDbMaterial
  1
ByBlock
  2

 70
0
 40
1.0
 71
1
 41
1.0
 91
-1023410177
 42
1.0
 72
1
  3

 73
1
 74
1
 75
1
 44
0.5
 73
0
 45
1.0
 46
1.0
 77
1
  4

 78
1
 79
1
170
1
 48
1.0
171
1
  6

172
1
173
1
174
1
140
1.0
141
1.0
175
1
  7

176
1
177
1
178
1
143
1.0
179
1
  8

270
1
271
1
272
1
145
1.0
146
1.0
273
1
  9

274
1
275
1
276
1
 42
1.0
 72
1
  3

 73
1
 74
1
 75
1
 94
63
  0
MATERIAL
  5
20
102
{ACAD_REACTORS
330
E
102
}
330
E
100
AcDbMaterial
  1
ByLayer
  2

 70
0
 40
1.0
 71
1
 41
1.0
 91
-1023410177
 42
1.0
 72
1
  3

 73
1
 74
1
 75
1
 44
0.5
 73
0
 45
1.0
 46
1.0
 77
1
  4

 78
1
 79
1
170
1
 48
1.0
171
1
  6

172
1
173
1
174
1
140
1.0
141
1.0
175
1
  7

176
1
177
1
178
1
143
1.0
179
1
  8

270
1
271
1
272
1
145
1.0
146
1.0
273
1
  9

274
1
275
1
276
1
 42
1.0
 72
1
  3

 73
1
 74
1
 75
1
 94
63
  0
MATERIAL
  5
21
102
{ACAD_REACTORS
330
E
102
}
330
E
100
AcDbMaterial
  1
Global
  2

 70
0
 40
1.0
 71
1
 41
1.0
 91
-1023410177
 42
1.0
 72
1
  3

 73
1
 74
1
 75
1
 44
0.5
 73
0
 45
1.0
 46
1.0
 77
1
  4

 78
1
 79
1
170
1
 48
1.0
171
1
  6

172
1
173
1
174
1
140
1.0
141
1.0
175
1
  7

176
1
177
1
178
1
143
1.0
179
1
  8

270
1
271
1
272
1
145
1.0
146
1.0
273
1
  9

274
1
275
1
276
1
 42
1.0
 72
1
  3

 73
1
 74
1
 75
1
 94
63
  0
MLINESTYLE
  5
22
102
{ACAD_REACTORS
330
10
102
}
330
10
100
AcDbMlineStyle
  2
Standard
 70
0
  3

 62
256
 51
90.0
 52
90.0
 71
2
 49
0.5
 62
256
  6
BYLAYER
 49
-0.5
 62
256
  6
BYLAYER
  0
MLEADERSTYLE
  5
2C
102
{ACAD_REACTORS
330
F
102
}
330
F
100
AcDbMLeaderStyle
179
2
170
2
171
1
172
0
 90
2
 40
0.0
 41
0.0
173
1
 91
-1056964608
 92
-2
290
1
 42
2.0
291
1
 43
8.0
  3
Standard
 44
4.0
300

342
29
174
1
175
1
176
0
178
1
 93
-1056964608
 45
4.0
292
0
297
0
 46
4.0
 94
-1056964608
 47
1.0
 49
1.0
140
1.0
294
1
141
0.0
177
0
142
1.0
295
0
296
0
143
3.75
271
0
272
9
273
9
  0
DICTIONARY
  5
2D
330
A
100
AcDbDictionary
280
1
281
1
  3
CREATED_BY_EZDXF
350
2E
  3
WRITTEN_BY_EZDXF
350
44
  0
DICTIONARYVAR
  5
2E
330
2D
100
DictionaryVariables
280
0
  1
1.4.4 @ 2026-10-02T11:32:45.710180+00:00
  0
DICTIONARYVAR
  5
44
330
2D
100
DictionaryVariables
280
0
  1
1.4.4 @ 2026-10-02T11:32:45.713643+00:00
  0
ENDSEC
  0
EOF
