  0
SECTION
  2
HEADER
  9
$ACADVER
  1
AC1024
  9
$ACADMAINTVER
 70
6
  9
$DWGCODEPAGE
  3
ANSI_1252
  9
$LASTSAVEDBY
  1
ezdxf
  9
$INSBASE
 10
0.0
 20
0.0
 30
0.0
  9
$EXTMIN
 10
1e+20
 20
1e+20
 30
1e+20
  9
$EXTMAX
 10
-1e+20
 20
-1e+20
 30
-1e+20
  9
$LIMMIN
 10
0.0
 20
0.0
  9
$LIMMAX
 10
420.0
 20
297.0
  9
$ORTHOMODE
 70
0
  9
$REGENMODE
 70
1
  9
$FILLMODE
 70
1
  9
$QTEXTMODE
 70
0
  9
$MIRRTEXT
 70
1
  9
$LTSCALE
 40
1.0
  9
$ATTMODE
 70
1
  9
$TEXTSIZE
 40
2.5
  9
$TRACEWID
 40
1.0
  9
$TEXTSTYLE
  7
Standard
  9
$CLAYER
  8
0
  9
$CELTYPE
  6
ByLayer
  9
$CECOLOR
 62
256
  9
$CELTSCALE
 40
1.0
  9
$DISPSILH
 70
0
  9
$DIMSCALE
 40
1.0
  9
$DIMASZ
 40
2.5
  9
$DIMEXO
 40
0.625
  9
$DIMDLI
 40
3.75
  9
$DIMRND
 40
0.0
  9
$DIMDLE
 40
0.0
  9
$DIMEXE
 40
1.25
  9
$DIMTP
 40
0.0
  9
$DIMTM
 40
0.0
  9
$DIMTXT
 40
2.5
  9
$DIMCEN
 40
2.5
  9
$DIMTSZ
 40
0.0
  9
$DIMTOL
 70
0
  9
$DIMLIM
 70
0
  9
$DIMTIH
 70
0
  9
$DIMTOH
 70
0
  9
$DIMSE1
 70
0
  9
$DIMSE2
 70
0
  9
$DIMTAD
 70
1
  9
$DIMZIN
 70
8
  9
$DIMBLK
  1

  9
$DIMASO
 70
1
  9
$DIMSHO
 70
1
  9
$DIMPOST
  1

  9
$DIMAPOST
  1

  9
$DIMALT
 70
0
  9
$DIMALTD
 70
3
  9
$DIMALTF
 40
0.03937007874
  9
$DIMLFAC
 40
1.0
  9
$DIMTOFL
 70
1
  9
$DIMTVP
 40
0.0
  9
$DIMTIX
 70
0
  9
$DIMSOXD
 70
0
  9
$DIMSAH
 70
0
  9
$DIMBLK1
  1

  9
$DIMBLK2
  1

  9
$DIMSTYLE
  2
ISO-25
  9
$DIMCLRD
 70
0
  9
$DIMCLRE
 70
0
  9
$DIMCLRT
 70
0
  9
$DIMTFAC
 40
1.0
  9
$DIMGAP
 40
0.625
  9
$DIMJUST
 70
0
  9
$DIMSD1
 70
0
  9
$DIMSD2
 70
0
  9
$DIMTOLJ
 70
0
  9
$DIMTZIN
 70
8
  9
$DIMALTZ
 70
0
  9
$DIMALTTZ
 70
0
  9
$DIMUPT
 70
0
  9
$DIMDEC
 70
2
  9
$DIMTDEC
 70
2
  9
$DIMALTU
 70
2
  9
$DIMALTTD
 70
3
  9
$DIMTXSTY
  7
Standard
  9
$DIMAUNIT
 70
0
  9
$DIMADEC
 70
0
  9
$DIMALTRND
 40
0.0
  9
$DIMAZIN
 70
0
  9
$DIMDSEP
 70
44
  9
$DIMATFIT
 70
3
  9
$DIMFRAC
 70
0
  9
$DIMLDRBLK
  1

  9
$DIMLUNIT
 70
2
  9
$DIMLWD
 70
-2
  9
$DIMLWE
 70
-2
  9
$DIMTMOVE
 70
0
  9
$DIMFXL
 40
1.0
  9
$DIMFXLON
 70
0
  9
$DIMJOGANG
 40
0.785398163397
  9
$DIMTFILL
 70
0
  9
$DIMTFILLCLR
 70
0
  9
$DIMARCSYM
 70
0
  9
$DIMLTYPE
  6

  9
$DIMLTEX1
  6

  9
$DIMLTEX2
  6

  9
$DIMTXTDIRECTION
 70
0
  9
$LUNITS
 70
2
  9
$LUPREC
 70
4
  9
$SKETCHINC
 40
1.0
  9
$FILLETRAD
 40
10.0
  9
$AUNITS
 70
0
  9
$AUPREC
 70
2
  9
$MENU
  1
.
  9
$ELEVATION
 40
0.0
  9
$PELEVATION
 40
0.0
  9
$THICKNESS
 40
0.0
  9
$LIMCHECK
 70
0
  9
$CHAMFERA
 40
0.0
  9
$CHAMFERB
 40
0.0
  9
$CHAMFERC
 40
0.0
  9
$CHAMFERD
 40
0.0
  9
$SKPOLY
 70
0
  9
$TDCREATE
 40
2461316.753298611
  9
$TDUCREATE
 40
2458532.153996898
  9
$TDUPDATE
 40
2461316.753298611
  9
$TDUUPDATE
 40
2458532.1544311
  9
$TDINDWG
 40
0.0
  9
$TDUSRTIMER
 40
0.0
  9
$USRTIMER
 70
1
  9
$ANGBASE
 50
0.0
  9
$ANGDIR
 70
0
  9
$PDMODE
 70
0
  9
$PDSIZE
 40
0.0
  9
$PLINEWID
 40
0.0
  9
$SPLFRAME
 70
0
  9
$SPLINETYPE
 70
6
  9
$SPLINESEGS
 70
8
  9
$HANDSEED
  5
3D
  9
$SURFTAB1
 70
6
  9
$SURFTAB2
 70
6
  9
$SURFTYPE
 70
6
  9
$SURFU
 70
6
  9
$SURFV
 70
6
  9
$UCSBASE
  2

  9
$UCSNAME
  2

  9
$UCSORG
 10
0.0
 20
0.0
 30
0.0
  9
$UCSXDIR
 10
1.0
 20
0.0
 30
0.0
  9
$UCSYDIR
 10
0.0
 20
1.0
 30
0.0
  9
$UCSORTHOREF
  2

  9
$UCSORTHOVIEW
 70
0
  9
$UCSORGTOP
 10
0.0
 20
0.0
 30
0.0
  9
$UCSORGBOTTOM
 10
0.0
 20
0.0
 30
0.0
  9
$UCSORGLEFT
 10
0.0
 20
0.0
 30
0.0
  9
$UCSORGRIGHT
 10
0.0
 20
0.0
 30
0.0
  9
$UCSORGFRONT
 10
0.0
 20
0.0
 30
0.0
  9
$UCSORGBACK
 10
0.0
 20
0.0
 30
0.0
  9
$PUCSBASE
  2

  9
$PUCSNAME
  2

  9
$PUCSORG
 10
0.0
 20
0.0
 30
0.0
  9
$PUCSXDIR
 10
1.0
 20
0.0
 30
0.0
  9
$PUCSYDIR
 10
0.0
 20
1.0
 30
0.0
  9
$PUCSORTHOREF
  2

  9
$PUCSORTHOVIEW
 70
0
  9
$PUCSORGTOP
 10
0.0
 20
0.0
 30
0.0
  9
$PUCSORGBOTTOM
 10
0.0
 20
0.0
 30
0.0
  9
$PUCSORGLEFT
 10
0.0
 20
0.0
 30
0.0
  9
$PUCSORGRIGHT
 10
0.0
 20
0.0
 30
0.0
  9
$PUCSORGFRONT
 10
0.0
 20
0.0
 30
0.0
  9
$PUCSORGBACK
 10
0.0
 20
0.0
 30
0.0
  9
$USERI1
 70
0
  9
$USERI2
 70
0
  9
$USERI3
 70
0
  9
$USERI4
 70
0
  9
$USERI5
 70
0
  9
$USERR1
 40
0.0
  9
$USERR2
 40
0.0
  9
$USERR3
 40
0.0
  9
$USERR4
 40
0.0
  9
$USERR5
 40
0.0
  9
$WORLDVIEW
 70
1
  9
$SHADEDGE
 70
3
  9
$SHADEDIF
 70
70
  9
$TILEMODE
 70
1
  9
$MAXACTVP
 70
64
  9
$PINSBASE
 10
0.0
 20
0.0
 30
0.0
  9
$PLIMCHECK
 70
0
  9
$PEXTMIN
 10
1e+20
 20
1e+20
 30
1e+20
  9
$PEXTMAX
 10
-1e+20
 20
-1e+20
 30
-1e+20
  9
$PLIMMIN
 10
0.0
 20
0.0
  9
$PLIMMAX
 10
420.0
 20
297.0
  9
$UNITMODE
 70
0
  9
$VISRETAIN
 70
1
  9
$PLINEGEN
 70
0
  9
$PSLTSCALE
 70
1
  9
$TREEDEPTH
 70
3020
  9
$CMLSTYLE
  2
Standard
  9
$CMLJUST
 70
0
  9
$CMLSCALE
 40
20.0
  9
$PROXYGRAPHICS
 70
1
  9
$MEASUREMENT
 70
1
  9
$CELWEIGHT
370
-1
  9
$ENDCAPS
280
0
  9
$JOINSTYLE
280
0
  9
$LWDISPLAY
290
0
  9
$INSUNITS
 70
4
  9
$HYPERLINKBASE
  1

  9
$STYLESHEET
  1

  9
$XEDIT
290
1
  9
$CEPSNTYPE
380
0
  9
$PSTYLEMODE
290
1
  9
$FINGERPRINTGUID
  2
{145B1B1D-F4B6-43F7-9DD9-D1EC880AD633}
  9
$VERSIONGUID
  2
{962256F7-B735-4F6D-9E50-B12D846271EB}
  9
$EXTNAMES
290
1
  9
$PSVPSCALE
 40
0.0
  9
$OLESTARTUP
290
0
  9
$SORTENTS
280
127
  9
$INDEXCTL
280
0
  9
$HIDETEXT
280
1
  9
$XCLIPFRAME
280
1
  9
$HALOGAP
280
0
  9
$OBSCOLOR
 70
257
  9
$OBSLTYPE
280
0
  9
$INTERSECTIONDISPLAY
280
0
  9
$INTERSECTIONCOLOR
 70
257
  9
$DIMASSOC
280
2
  9
$PROJECTNAME
  1

  9
$CAMERADISPLAY
290
0
  9
$LENSLENGTH
 40
50.0
  9
$CAMERAHEIGHT
 40
0.0
  9
$STEPSPERSEC
 40
24.0
  9
$STEPSIZE
 40
100.0
  9
$3DDWFPREC
 40
2.0
  9
$PSOLWIDTH
 40
0.005
  9
$PSOLHEIGHT
 40
0.08
  9
$LOFTANG1
 40
1.570796326795
  9
$LOFTANG2
 40
1.570796326795
  9
$LOFTMAG1
 40
0.0
  9
$LOFTMAG2
 40
0.0
  9
$LOFTPARAM
 70
7
  9
$LOFTNORMALS
280
1
  9
$LATITUDE
 40
37.795
  9
$LONGITUDE
 40
-122.394
  9
$NORTHDIRECTION
 40
0.0
  9
$TIMEZONE
 70
-8000
  9
$LIGHTGLYPHDISPLAY
280
1
  9
$TILEMODELIGHTSYNCH
280
1
  9
$CMATERIAL
347
20
  9
$SOLIDHIST
280
0
  9
$SHOWHIST
280
1
  9
$DWFFRAME
280
2
  9
$DGNFRAME
280
2
  9
$REALWORLDSCALE
290
1
  9
$INTERFERECOLOR
 62
256
  9
$CSHADOW
280
0
  9
$SHADOWPLANELOCATION
 40
0.0
  0
ENDSEC
  0
SECTION
  2
CLASSES
  0
CLASS
  1
ACDBDICTIONARYWDFLT
  2
AcDbDictionaryWithDefault
  3
ObjectDBX Classes
 90
0
 91
0
280
0
281
0
  0
CLASS
  1
SUN
  2
AcDbSun
  3
SCENEOE
 90
1153
 91
0
280
0
281
0
  0
CLASS
  1
VISUALSTYLE
  2
AcDbVisualStyle
  3
ObjectDBX Classes
 90
4095
 91
0
280
0
281
0
  0
CLASS
  1
MATERIAL
  2
AcDbMaterial
  3
ObjectDBX Classes
 90
1153
 91
0
280
0
281
0
  0
CLASS
  1
SCALE
  2
AcDbScale
  3
ObjectDBX Classes
 90
1153
 91
0
280
0
281
0
  0
CLASS
  1
TABLESTYLE
  2
AcDbTableStyle
  3
ObjectDBX Classes
 90
4095
 91
0
280
0
281
0
  0
CLASS
  1
MLEADERSTYLE
  2
AcDbMLeaderStyle
  3
ACDB_MLEADERSTYLE_CLASS
 90
4095
 91
0
280
0
281
0
  0
CLASS
  1
DICTIONARYVAR
  2
AcDbDictionaryVar
  3
ObjectDBX Classes
 90
0
 91
0
280
0
281
0
  0
CLASS
  1
CELLSTYLEMAP
  2
AcDbCellStyleMap
  3
ObjectDBX Classes
 90
1152
 91
0
280
0
281
0
  0
CLASS
  1
MENTALRAYRENDERSETTINGS
  2
AcDbMentalRayRenderSettings
  3
SCENEOE
 90
1024
 91
0
280
0
281
0
  0
CLASS
  1
ACDBDETAILVIEWSTYLE
  2
AcDbDetailViewStyle
  3
ObjectDBX Classes
 90
1025
 91
0
280
0
281
0
  0
CLASS
  1
ACDBSECTIONVIEWSTYLE
  2
AcDbSectionViewStyle
  3
ObjectDBX Classes
 90
1025
 91
0
280
0
281
0
  0
CLASS
  1
RASTERVARIABLES
  2
AcDbRasterVariables
  3
ISM
 90
0
 91
0
280
0
281
0
  0
CLASS
  1
LAYOUT
  2
AcDbLayout
  3
ObjectDBX Classes
 90
0
 91
0
280
0
281
0
  0
CLASS
  1
ACDBPLACEHOLDER
  2
AcDbPlaceHolder
  3
ObjectDBX Classes
 90
0
 91
0
280
0
281
0
  0
ENDSEC
  0
SECTION
  2
TABLES
  0
TABLE
  2
VPORT
  5
8
330
0
100
AcDbSymbolTable
 70
1
  0
VPORT
  5
23
330
8
100
AcDbSymbolTableRecord
100
AcDbViewportTableRecord
  2
*Active
 70
0
 10
0.0
 20
0.0
 11
1.0
 21
1.0
 12
0.0
 22
0.0
 13
0.0
 23
0.0
 14
0.5
 24
0.5
 15
0.5
 25
0.5
 16
0.0
 26
0.0
 36
1.0
 17
0.0
 27
0.0
 37
0.0
 40
1000.0
 41
1.34
 42
50.0
 43
0.0
 44
0.0
 50
0.0
 51
0.0
 71
0
 72
1000
 73
1
 74
3
 75
0
 76
0
 77
0
 78
0
281
0
 65
0
146
0.0
  0
ENDTAB
  0
TABLE
  2
LTYPE
  5
2
330
0
100
AcDbSymbolTable
 70
3
  0
LTYPE
  5
24
330
2
100
AcDbSymbolTableRecord
100
AcDbLinetypeTableRecord
  2
ByBlock
 70
0
  3

 72
65
 73
0
 40
0.0
  0
LTYPE
  5
25
330
2
100
AcDbSymbolTableRecord
100
AcDbLinetypeTableRecord
  2
ByLayer
 70
0
  3

 72
65
 73
0
 40
0.0
  0
LTYPE
  5
26
330
2
100
AcDbSymbolTableRecord
100
AcDbLinetypeTableRecord
  2
Continuous
 70
0
  3

 72
65
 73
0
 40
0.0
  0
ENDTAB
  0
TABLE
  2
LAYER
  5
1
330
0
100
AcDbSymbolTable
 70
7
  0
LAYER
  5
27
330
1
100
AcDbSymbolTableRecord
100
AcDbLayerTableRecord
  2
0
 70
0
 62
7
  6
Continuous
370
-3
390
13
347
21
  0
LAYER
  5
28
330
1
100
AcDbSymbolTableRecord
100
AcDbLayerTableRecord
  2
Defpoints
 70
0
 62
7
  6
Continuous
290
0
370
-3
390
13
347
21
  0
LAYER
  5
2F
330
1
100
AcDbSymbolTableRecord
100
AcDbLayerTableRecord
  2
CUT
 70
0
 62
1
  6
Continuous
370
-3
390
13
347
21
  0
LAYER
  5
30
330
1
100
AcDbSymbolTableRecord
100
AcDbLayerTableRecord
  2
SEAM
 70
0
 62
5
  6
Continuous
370
-3
390
13
347
21
  0
LAYER
  5
31
330
1
100
AcDbSymbolTableRecord
100
AcDbLayerTableRecord
  2
GRAIN
 70
0
 62
3
  6
Continuous
370
-3
390
13
347
21
  0
LAYER
  5
32
330
1
100
AcDbSymbolTableRecord
100
AcDbLayerTableRecord
  2
NOTCH
 70
0
 62
2
  6
Continuous
370
-3
390
13
347
21
  0
LAYER
  5
33
330
1
100
AcDbSymbolTableRecord
100
AcDbLayerTableRecord
  2
TEXT
 70
0
 62
7
  6
Continuous
370
-3
390
13
347
21
  0
ENDTAB
  0
TABLE
  2
STYLE
  5
5
330
0
100
AcDbSymbolTable
 70
1
  0
STYLE
  5
29
330
5
100
AcDbSymbolTableRecord
100
AcDbTextStyleTableRecord
  2
Standard
 70
0
 40
0.0
 41
1.0
 50
0.0
 71
0
 42
2.5
  3
txt
  4

  0
ENDTAB
  0
TABLE
  2
VIEW
  5
7
330
0
100
AcDbSymbolTable
 70
0
  0
ENDTAB
  0
TABLE
  2
UCS
  5
6
330
0
100
AcDbSymbolTable
 70
0
  0
ENDTAB
  0
TABLE
  2
APPID
  5
3
330
0
100
AcDbSymbolTable
 70
3
  0
APPID
  5
2A
330
3
100
AcDbSymbolTableRecord
100
AcDbRegAppTableRecord
  2
ACAD
 70
0
  0
APPID
  5
3A
330
3
100
AcDbSymbolTableRecord
100
AcDbRegAppTableRecord
  2
HATCHBACKGROUNDCOLOR
 70
0
  0
APPID
  5
3B
330
3
100
AcDbSymbolTableRecord
100
AcDbRegAppTableRecord
  2
EZDXF
 70
0
  0
ENDTAB
  0
TABLE
  2
DIMSTYLE
  5
4
330
0
100
AcDbSymbolTable
 70
1
100
AcDbDimStyleTable
  0
DIMSTYLE
105
2B
330
4
100
AcDbSymbolTableRecord
100
AcDbDimStyleTableRecord
  2
Standard
 70
0
 40
1.0
 41
2.5
 42
0.625
 43
3.75
 44
1.25
 45
0.0
 46
0.0
 47
0.0
 48
0.0
 49
2.5
140
2.5
141
2.5
142
0.0
143
0.03937007874
144
1.0
145
0.0
146
1.0
147
0.625
148
0.0
 69
0
 70
0
 71
0
 72
0
 73
0
 74
0
 75
0
 76
0
 77
1
 78
8
 79
3
170
0
171
3
172
1
173
0
174
0
175
0
176
0
177
0
178
0
179
2
271
2
272
2
273
2
274
3
275
0
276
0
277
2
278
44
279
0
280
0
281
0
282
0
283
0
284
8
285
0
286
0
288
0
289
3
290
0
371
-2
372
-2
  0
ENDTAB
  0
TABLE
  2
BLOCK_RECORD
  5
9
330
0
100
AcDbSymbolTable
 70
2
  0
BLOCK_RECORD
  5
17
330
9
100
AcDbSymbolTableRecord
100
AcDbBlockTableRecord
  2
*Model_Space
340
1A
 70
0
280
1
281
0
  0
BLOCK_RECORD
  5
1B
330
9
100
AcDbSymbolTableRecord
100
AcDbBlockTableRecord
  2
*Paper_Space
340
1E
 70
0
280
1
281
0
  0
ENDTAB
  0
ENDSEC
  0
SECTION
  2
BLOCKS
  0
BLOCK
  5
18
330
17
100
AcDbEntity
  8
0
100
AcDbBlockBegin
  2
*Model_Space
 70
0
 10
0.0
 20
0.0
 30
0.0
  3
*Model_Space
  1

  0
ENDBLK
  5
19
330
17
100
AcDbEntity
  8
0
100
AcDbBlockEnd
  0
BLOCK
  5
1C
330
1B
100
AcDbEntity
  8
0
100
AcDbBlockBegin
  2
*Paper_Space
 70
0
 10
0.0
 20
0.0
 30
0.0
  3
*Paper_Space
  1

  0
ENDBLK
  5
1D
330
1B
100
AcDbEntity
  8
0
100
AcDbBlockEnd
  0
ENDSEC
  0
SECTION
  2
ENTITIES
  0
LWPOLYLINE
  5
34
330
17
100
AcDbEntity
  8
CUT
100
AcDbPolyline
 90
182
 70
1
 10
-12.0
 20
-12.06397857167812
 10
-12.0
 20
312.76853985397923
 10
4.707030402578928
 20
312.85737798975083
 10
9.417423415720187
 20
312.9315020900395
 10
14.131939128426902
 20
313.0532823177455
 10
18.85067522317026
 20
313.2212735319315
 10
23.573714858757217
 20
313.4340272852477
 10
28.301127537677214
 20
313.6900915146548
 10
33.032969969193275
 20
313.988010286129
 10
37.769286922847606
 20
314.32632358948445
 10
42.510112067316406
 20
314.7035671791951
 10
47.25546879084446
 20
315.1182724569976
 10
52.00537100011741
 20
315.56896639202733
 10
56.75982389469415
 20
316.0541714742324
 10
61.51882471570637
 20
316.5724056970098
 10
66.15713543839398
 20
317.10772955502665
 10
70.04016074001457
 20
317.6629380168904
 10
73.40447505141736
 20
318.6157538297949
 10
77.06431645843371
 20
320.1689489838264
 10
81.0844562943003
 20
322.3684358844287
 10
85.39986703366682
 20
325.18158756085114
 10
89.95012853437268
 20
328.5467976651957
 10
94.68612876271034
 20
332.3885652451083
 10
99.5694672934549
 20
336.6261897914806
 10
104.5701255719578
 20
341.17802669685676
 10
109.66438174084098
 20
345.9633539502466
 10
114.83343991441689
 20
350.9031089284245
 10
120.06277121630055
 20
355.9201420796817
 10
125.34208194610727
 20
360.93928418410354
 10
130.66586563147408
 20
365.8873321913822
 10
136.03456740686357
 20
370.6929292715855
 10
141.34177689324127
 20
375.1890200316004
 10
146.73478474630167
 20
379.6439230397422
 10
152.04835403637838
 20
384.10840389527925
 10
157.38220633256046
 20
388.6561121444532
 10
162.73452622434965
 20
393.27679199526943
 10
168.10355337060477
 20
397.96020820371785
 10
173.48758254492324
 20
402.6961493451372
 10
178.8849649925086
 20
407.4744301283955
 10
184.29411107167
 20
412.2848929930568
 10
189.7134941545632
 20
417.11740916539895
 10
195.1438191546025
 20
421.9638081739564
 10
200.57721198727265
 20
426.8082337526772
 10
206.01886104735578
 20
431.64643261545854
 10
211.46539228119013
 20
436.46646535531613
 10
216.91345362795713
 20
441.25637838137334
 10
222.313219899696
 20
445.96841581921535
 10
227.66642658301748
 20
450.6991024426707
 10
233.03237549279424
 20
455.5249405963635
 10
238.42817042751804
 20
460.441388642597
 10
243.84957298937977
 20
465.4248929171911
 10
249.29268083945823
 20
470.4520553342394
 10
254.7539424584845
 20
475.4996383985278
 10
260.23018661458275
 20
480.54456698672897
 10
265.71866653761117
 20
485.5639275334453
 10
271.2171193245055
 20
490.53496432897487
 10
276.7238415955865
 20
495.435071652695
 10
282.2377828250192
 20
500.24177927997545
 10
287.758657951865
 20
504.93272732556113
 10
293.2870806233126
 20
509.4856242113571
 10
298.82471733094917
 20
513.8781785276252
 10
304.37446008215295
 20
518.0879914592228
 10
309.92949700264666
 20
522.0843962945313
 10
315.42349203997554
 20
525.8146580435988
 10
320.8429889315036
 20
529.3607833941201
 10
326.2367244862001
 20
532.7779828698804
 10
331.6135687960572
 20
536.080156362659
 10
336.9736690333905
 20
539.2755767285585
 10
342.3171481345154
 20
542.3725657668795
 10
347.6441200550648
 20
545.3794878871066
 10
352.9547037814039
 20
548.304742888054
 10
358.24903604319854
 20
551.156758205161
 10
363.5272827517628
 20
553.9439809793306
 10
368.7896492543519
 20
556.6748702818566
 10
374.0363895416169
 20
559.3578897985035
 10
379.2678145738252
 20
562.0015012366631
 10
384.48429990049203
 20
564.6141586761674
 10
389.6862927387809
 20
567.2043040396464
 10
394.88460337805714
 20
569.7854705876603
 10
400.1049480691452
 20
572.3660980428033
 10
405.3433335230194
 20
574.9207673410768
 10
410.5809057914219
 20
577.4388607113522
 10
415.81699061204375
 20
579.9196116042369
 10
421.0516193888977
 20
582.3625961547775
 10
426.28482493943676
 20
584.7673897102874
 10
431.51664147868644
 20
587.1335668035069
 10
436.7471046007489
 20
589.4607011258603
 10
441.9762512579259
 20
591.7483655010856
 10
447.2041197367201
 20
593.9961318590855
 10
452.4307496314874
 20
596.2035712105273
 10
457.6561818148196
 20
598.3702536219876
 10
479.36501671579435
 20
607.202483291829
 10
479.36501671579435
 20
280.4600109260788
 10
466.7747795331619
 20
275.3376786175033
 10
461.6959148205163
 20
273.2317692004458
 10
456.6129774115366
 20
271.0850176065112
 10
451.5259656563845
 20
268.89781379058473
 10
446.43487966398783
 20
266.6705486516294
 10
441.3397212365584
 20
264.40361400787197
 10
436.2404938071298
 20
262.09740257134456
 10
431.13720237967846
 20
259.7523079217834
 10
426.02985347222926
 20
257.3687244802432
 10
420.9184550623407
 20
254.9470474823302
 10
415.80301653536793
 20
252.48767295139893
 10
410.68284439564115
 20
249.99065422637148
 10
405.5392017702747
 20
247.44794370361137
 10
400.37171360511013
 20
244.882081731377
 10
395.2067707698374
 20
242.3103840852464
 10
390.05388345707365
 20
239.7295794764808
 10
384.9121759871691
 20
237.13130527864294
 10
379.7806661467075
 20
234.50721102239743
 10
374.6582602688127
 20
231.84895386599126
 10
369.5437489464708
 20
229.14819294603478
 10
364.4358035712084
 20
226.39658278467022
 10
359.33297390015184
 20
223.5857659736658
 10
354.23368684759544
 20
220.70736539930368
 10
349.1362466715774
 20
217.75297631124644
 10
344.0388366810901
 20
214.71415856983683
 10
338.93952252693333
 20
211.5824294252273
 10
333.83625706242617
 20
208.34925718436824
 10
328.7355690021916
 20
205.0117371898879
 10
323.6807009076285
 20
201.57962977595437
 10
318.63695023241405
 20
197.95105450723676
 10
313.53610720057753
 20
194.08175895244412
 10
308.3743133676605
 20
189.98733005117683
 10
303.15818683543483
 20
185.69162263952376
 10
297.89379146380764
 20
181.21859895897668
 10
292.58671275356215
 20
176.59222108266783
 10
287.2421194645342
 20
171.83638277656598
 10
281.86480815094046
 20
166.97486746727654
 10
276.45923032165683
 20
162.03132308540341
 10
271.029502959358
 20
157.02924757244523
 10
265.5778122980153
 20
151.99051155141817
 10
260.1123489115606
 20
146.94270193880084
 10
254.63136247000196
 20
141.90442650198852
 10
249.13902257212067
 20
136.90001026918895
 10
243.63739834575188
 20
131.95215322744244
 10
238.1496462748083
 20
127.10256739027753
 10
232.7269069790946
 20
122.37048283491556
 10
227.34157288659833
 20
117.63571935163996
 10
221.945021313307
 20
112.8599172587394
 10
216.5366031813859
 20
108.05126418935043
 10
211.11784941855583
 20
103.2198908390559
 10
205.68832768989404
 20
98.37420829006145
 10
200.25511351195945
 20
93.52935879685123
 10
194.81382787295183
 20
88.69031357244877
 10
189.36758323194283
 20
83.86877528759014
 10
183.91749595034443
 20
79.07472760590845
 10
178.46457023588877
 20
74.31812646032476
 10
173.0096851454511
 20
69.60890165024384
 10
167.5535800488623
 20
64.95695915572115
 10
162.09683847345445
 20
60.37218440882601
 10
156.74146359332184
 20
55.948368179874834
 10
151.79761379189014
 20
51.760103618588474
 10
146.84012445433294
 20
47.32258831555681
 10
141.78032048250176
 20
42.61988917530903
 10
136.63882604363044
 20
37.73177166555705
 10
131.4318175113055
 20
32.736155033628755
 10
126.17129417828748
 20
27.708992357275985
 10
120.86475595307861
 20
22.72425638240375
 10
115.51428877209752
 20
17.85400678344798
 10
110.11498708611113
 20
13.168643847056014
 10
104.65260294459894
 20
8.737645263414459
 10
99.10039674919862
 20
4.631432821059832
 10
93.41564443449224
 20
0.9256278652817146
 10
87.53777655527908
 20
-2.290253654176318
 10
81.39373204304613
 20
-4.897716410420056
 10
75.03098537015475
 20
-6.6997257003632935
 10
69.23205719029039
 20
-7.528876618812625
 10
64.19374948783872
 20
-8.110365544071504
 10
59.277225690687
 20
-8.645753324954732
 10
54.357233530959334
 20
-9.147852147520018
 10
49.43374607483195
 20
-9.615016699105894
 10
44.50673394292806
 20
-10.045597170488971
 10
39.57616558650831
 20
-10.437939273268166
 10
34.642007589966816
 20
-10.790384286433888
 10
29.70422499787954
 20
-11.101269136242854
 10
24.762781664264125
 20
-11.368926513611953
 10
19.817640621052714
 20
-11.591685033293553
 10
14.868764462036093
 20
-11.767869439057472
 10
9.91611573776857
 20
-11.895800858983383
 10
4.9596573560901955
 20
-11.973797114738504
  0
LWPOLYLINE
  5
35
330
17
100
AcDbEntity
  8
SEAM
100
AcDbPolyline
 90
182
 70
1
 10
0.0
 20
0.0
 10
4.833343879334853
 20
0.02570087259292748
 10
9.666769576744109
 20
0.10176105061480928
 10
14.500351795231643
 20
0.22661687443082348
 10
19.334157922110702
 20
0.398704684405725
 10
24.168248261512133
 20
0.6164608209046918
 10
29.002676267775882
 20
0.8783216242925846
 10
33.8374887795804
 20
1.1827234349343698
 10
38.672726254679006
 20
1.528102593195014
 10
43.50842300512047
 20
1.9128954394396955
 10
48.34460743284176
 20
2.335538314032957
 10
53.18130226553458
 20
2.7944675573400826
 10
58.01852479269428
 20
3.288119509726039
 10
62.856287101769446
 20
3.814930511555581
 10
67.69459631434297
 20
4.373336903193886
 10
72.5355730550846
 20
5.065516593350292
 10
77.39910354723165
 20
6.442929144774184
 10
82.30104650685655
 20
8.523258099911892
 10
87.25005036439612
 20
11.230942309941891
 10
92.250131891433
 20
14.490420626042447
 10
97.30136573948579
 20
18.22613189939182
 10
102.40055792441034
 20
22.362514981168594
 10
107.54187803277627
 20
26.824008722551138
 10
112.71744076251883
 20
31.53505197471761
 10
117.91783795956302
 20
36.42008358884691
 10
123.1326287128648
 20
41.40354241611688
 10
128.35079862996554
 20
46.40986730770619
 10
133.5612012143047
 20
51.36349711479324
 10
138.75299504290336
 20
56.188870688556165
 10
143.91609059937693
 20
60.810426880173864
 10
149.04162024328141
 20
65.1526045408243
 10
154.4158116098794
 20
69.591964159372
 10
159.80096704261942
 20
74.11659196058618
 10
165.19594573900466
 20
78.71641733243432
 10
170.59954823011861
 20
83.38136966288337
 10
176.0105246604753
 20
88.10137833990058
 10
181.42758288843652
 20
92.86637275145353
 10
186.84939643273063
 20
97.66628228550927
 10
192.27461229180813
 20
102.49103633003494
 10
197.70185866366523
 20
107.33056427299826
 10
203.1297525944163
 20
112.17479550236615
 10
208.55690758433497
 20
117.01365940610565
 10
213.98194118033007
 20
121.83708537218456
 10
219.4034825838998
 20
126.63500278856974
 10
224.82018030352287
 20
131.3973410432286
 10
230.2314330872533
 20
136.1194020398342
 10
235.65191246438397
 20
140.9095382701427
 10
241.0856990324573
 20
145.79638586786285
 10
246.52976644876162
 20
150.756818007381
 10
251.98096095047046
 20
155.76770786308296
 10
257.43604209156496
 20
160.80592860935462
 10
262.8917227089307
 20
165.84835342058201
 10
268.3447084681177
 20
170.87185547115104
 10
273.7917373442758
 20
175.85330793544767
 10
279.2296193945206
 20
180.7695839878579
 10
284.6552771745737
 20
185.59755680276768
 10
290.06578714441343
 20
190.31409955456286
 10
295.45842239365027
 20
194.8960854176295
 10
300.8306969954862
 20
199.32038756635347
 10
306.1804122657625
 20
203.5638791751208
 10
311.50570515728464
 20
207.60343341831742
 10
316.8050989551369
 20
211.41592347032912
 10
322.0795305210857
 20
214.99710805183153
 10
327.33962299696424
 20
218.43893072433053
 10
332.5881235065663
 20
221.76411658264036
 10
337.8262027385749
 20
224.98106790133542
 10
343.05495785248485
 20
228.09818695498976
 10
348.2754174910539
 20
231.1238760181775
 10
353.488546977608
 20
234.06653736547284
 10
358.6952536763084
 20
236.93457327145015
 10
363.8963924948321
 20
239.73638601068333
 10
369.0927715102862
 20
242.48037785774687
 10
374.2851577005316
 20
245.17495108721477
 10
379.4742827643953
 20
247.82850797366117
 10
384.66084901545264
 20
250.44945079166035
 10
389.8455353351502
 20
253.04618181578644
 10
395.02900317197617
 20
255.62710332061374
 10
400.2119025741532
 20
258.2006175807163
 10
405.39389623239543
 20
260.76228656967527
 10
410.5731750291936
 20
263.2881305813246
 10
415.74968042687703
 20
265.77686453192587
 10
420.9234220421324
 20
268.2280784773249
 10
426.0944108842908
 20
270.64136247336853
 10
431.2626593732848
 20
273.0163065759034
 10
436.4281813576224
 20
275.3525008407762
 10
441.5909921323712
 20
277.6495353238329
 10
446.7511084571513
 20
279.9070000809203
 10
451.90854857412825
 20
282.12448516788504
 10
457.0633322260021
 20
284.30158064057343
 10
462.21548067399027
 20
286.437876554832
 10
467.36501671579435
 20
288.5329629665076
 10
467.36501671579435
 20
589.365142096334
 10
462.21548067399027
 20
587.2700556846585
 10
457.0633322260021
 20
585.1337597703998
 10
451.90854857412825
 20
582.9566642977115
 10
446.7511084571513
 20
580.7391792107467
 10
441.5909921323712
 20
578.4817144536594
 10
436.4281813576224
 20
576.1846799706027
 10
431.2626593732848
 20
573.8484857057299
 10
426.0944108842908
 20
571.4735416031949
 10
420.9234220421324
 20
569.0602576071514
 10
415.74968042687703
 20
566.6090436617524
 10
410.5731750291936
 20
564.1203097111511
 10
405.39389623239543
 20
561.5944656995017
 10
400.2119025741532
 20
559.0327967105427
 10
395.02900317197617
 20
556.4592824504402
 10
389.8455353351502
 20
553.8783609456129
 10
384.66084901545264
 20
551.2816299214868
 10
379.4742827643953
 20
548.6606871034876
 10
374.2851577005316
 20
546.0071302170412
 10
369.0927715102862
 20
543.3125569875733
 10
363.8963924948321
 20
540.5685651405098
 10
358.6952536763084
 20
537.7667524012766
 10
353.488546977608
 20
534.8987164952993
 10
348.2754174910539
 20
531.956055148004
 10
343.05495785248485
 20
528.9303660848162
 10
337.8262027385749
 20
525.8132470311618
 10
332.5881235065663
 20
522.5962957124668
 10
327.33962299696424
 20
519.271109854157
 10
322.0795305210857
 20
515.829287181658
 10
316.8050989551369
 20
512.2481026001556
 10
311.50570515728464
 20
508.43561254814387
 10
306.1804122657625
 20
504.39605830494725
 10
300.8306969954862
 20
500.1525666961799
 10
295.45842239365027
 20
495.728264547456
 10
290.06578714441343
 20
491.1462786843893
 10
284.6552771745737
 20
486.4297359325941
 10
279.2296193945206
 20
481.60176311768436
 10
273.7917373442758
 20
476.6854870652741
 10
268.3447084681177
 20
471.7040346009775
 10
262.8917227089307
 20
466.68053255040843
 10
257.43604209156496
 20
461.63810773918107
 10
251.98096095047046
 20
456.59988699290943
 10
246.52976644876162
 20
451.58899713720746
 10
241.0856990324573
 20
446.6285649976893
 10
235.65191246438397
 20
441.74171739996916
 10
230.2314330872533
 20
436.95158116966064
 10
224.82018030352287
 20
432.22952017305505
 10
219.4034825838998
 20
427.4671819183962
 10
213.98194118033007
 20
422.669264502011
 10
208.55690758433497
 20
417.8458385359321
 10
203.1297525944163
 20
413.0069746321926
 10
197.70185866366523
 20
408.16274340282473
 10
192.27461229180813
 20
403.3232154598614
 10
186.84939643273063
 20
398.4984614153357
 10
181.42758288843652
 20
393.69855188127997
 10
176.0105246604753
 20
388.933557469727
 10
170.59954823011861
 20
384.21354879270984
 10
165.19594573900466
 20
379.5485964622608
 10
159.80096704261942
 20
374.9487710904126
 10
154.4158116098794
 20
370.42414328919847
 10
149.04162024328141
 20
365.98478367065076
 10
143.91609059937693
 20
361.6426060100003
 10
138.75299504290336
 20
357.0210498183826
 10
133.5612012143047
 20
352.1956762446197
 10
128.35079862996554
 20
347.2420464375326
 10
123.1326287128648
 20
342.2357215459433
 10
117.91783795956302
 20
337.25226271867336
 10
112.71744076251883
 20
332.36723110454403
 10
107.54187803277627
 20
327.65618785237757
 10
102.40055792441034
 20
323.19469411099504
 10
97.30136573948579
 20
319.05831102921826
 10
92.250131891433
 20
315.3225997558689
 10
87.25005036439612
 20
312.06312143976834
 10
82.30104650685655
 20
309.35543722973836
 10
77.39910354723165
 20
307.27510827460065
 10
72.5355730550846
 20
305.89769572317675
 10
67.69459631434297
 20
305.20551603302033
 10
62.856287101769446
 20
304.64710964138203
 10
58.01852479269428
 20
304.12029863955246
 10
53.18130226553458
 20
303.6266466871665
 10
48.34460743284176
 20
303.1677174438594
 10
43.50842300512047
 20
302.74507456926614
 10
38.672726254679006
 20
302.36028172302144
 10
33.8374887795804
 20
302.0149025647608
 10
29.002676267775882
 20
301.71050075411904
 10
24.168248261512133
 20
301.44863995073115
 10
19.334157922110702
 20
301.2308838142322
 10
14.500351795231643
 20
301.05879600425726
 10
9.666769576744109
 20
300.93394018044125
 10
4.833343879334853
 20
300.8578800024194
 10
0.0
 20
300.83217912982644
  0
TEXT
  5
36
330
17
100
AcDbEntity
  8
TEXT
100
AcDbText
 10
-12.0
 20
619.202483291829
 30
0.0
 40
8.0
  1
Q02_SIDE_R_OUTER
100
AcDbText
  0
LINE
  5
37
330
17
100
AcDbEntity
  8
GRAIN
100
AcDbLine
 10
233.68250835789718
 20
22.93602142832188
 30
0.0
 11
233.68250835789718
 21
572.202483291829
 31
0.0
  0
CIRCLE
  5
38
330
17
100
AcDbEntity
  8
NOTCH
100
AcDbCircle
 10
0.0
 20
0.0
 30
0.0
 40
2.0
  0
CIRCLE
  5
39
330
17
100
AcDbEntity
  8
NOTCH
100
AcDbCircle
 10
467.36501671579435
 20
589.365142096334
 30
0.0
 40
2.0
  0
ENDSEC
  0
SECTION
  2
OBJECTS
  0
DICTIONARY
  5
A
330
0
100
AcDbDictionary
281
1
  3
ACAD_COLOR
350
B
  3
ACAD_GROUP
350
C
  3
ACAD_LAYOUT
350
D
  3
ACAD_MATERIAL
350
E
  3
ACAD_MLEADERSTYLE
350
F
  3
ACAD_MLINESTYLE
350
10
  3
ACAD_PLOTSETTINGS
350
11
  3
ACAD_PLOTSTYLENAME
350
12
  3
ACAD_SCALELIST
350
14
  3
ACAD_TABLESTYLE
350
15
  3
ACAD_VISUALSTYLE
350
16
  3
EZDXF_META
350
2D
  0
DICTIONARY
  5
B
330
A
100
AcDbDictionary
281
1
  0
DICTIONARY
  5
C
330
A
100
AcDbDictionary
281
1
  0
DICTIONARY
  5
D
330
A
100
AcDbDictionary
281
1
  3
Model
350
1A
  3
Layout1
350
1E
  0
DICTIONARY
  5
E
330
A
100
AcDbDictionary
281
1
  3
ByBlock
350
1F
  3
ByLayer
350
20
  3
Global
350
21
  0
DICTIONARY
  5
F
330
A
100
AcDbDictionary
281
1
  3
Standard
350
2C
  0
DICTIONARY
  5
10
330
A
100
AcDbDictionary
281
1
  3
Standard
350
22
  0
DICTIONARY
  5
11
330
A
100
AcDbDictionary
281
1
  0
ACDBDICTIONARYWDFLT
  5
12
330
A
100
AcDbDictionary
281
1
  3
Normal
350
13
100
AcDbDictionaryWithDefault
340
13
  0
ACDBPLACEHOLDER
  5
13
330
12
  0
DICTIONARY
  5
14
330
A
100
AcDbDictionary
281
1
  0
DICTIONARY
  5
15
330
A
100
AcDbDictionary
281
1
  0
DICTIONARY
  5
16
330
A
100
AcDbDictionary
281
1
  0
LAYOUT
  5
1A
330
D
100
AcDbPlotSettings
  1

  4
A3
  6

 40
7.5
 41
20.0
 42
7.5
 43
20.0
 44
420.0
 45
297.0
 46
0.0
 47
0.0
 48
0.0
 49
0.0
140
0.0
141
0.0
142
1.0
143
1.0
 70
1024
 72
1
 73
0
 74
5
  7

 75
16
 76
0
 77
2
 78
300
147
1.0
148
0.0
149
0.0
100
AcDbLayout
  1
Model
 70
1
 71
0
 10
0.0
 20
0.0
 11
420.0
 21
297.0
 12
0.0
 22
0.0
 32
0.0
 14
1e+20
 24
1e+20
 34
1e+20
 15
-1e+20
 25
-1e+20
 35
-1e+20
146
0.0
 13
0.0
 23
0.0
 33
0.0
 16
1.0
 26
0.0
 36
0.0
 17
0.0
 27
1.0
 37
0.0
 76
1
330
17
  0
LAYOUT
  5
1E
330
D
100
AcDbPlotSettings
  1

  4
A3
  6

 40
7.5
 41
20.0
 42
7.5
 43
20.0
 44
420.0
 45
297.0
 46
0.0
 47
0.0
 48
0.0
 49
0.0
140
0.0
141
0.0
142
1.0
143
1.0
 70
0
 72
1
 73
0
 74
5
  7

 75
16
 76
0
 77
2
 78
300
147
1.0
148
0.0
149
0.0
100
AcDbLayout
  1
Layout1
 70
1
 71
1
 10
0.0
 20
0.0
 11
420.0
 21
297.0
 12
0.0
 22
0.0
 32
0.0
 14
1e+20
 24
1e+20
 34
1e+20
 15
-1e+20
 25
-1e+20
 35
-1e+20
146
0.0
 13
0.0
 23
0.0
 33
0.0
 16
1.0
 26
0.0
 36
0.0
 17
0.0
 27
1.0
 37
0.0
 76
1
330
1B
  0
MATERIAL
  5
1F
102
{ACAD_REACTORS
330
E
102
}
330
E
100
AcDbMaterial
  1
ByBlock
  2

 70
0
 40
1.0
 71
1
 41
1.0
 91
-1023410177
 42
1.0
 72
1
  3

 73
1
 74
1
 75
1
 44
0.5
 73
0
 45
1.0
 46
1.0
 77
1
  4

 78
1
 79
1
170
1
 48
1.0
171
1
  6

172
1
173
1
174
1
140
1.0
141
1.0
175
1
  7

176
1
177
1
178
1
143
1.0
179
1
  8

270
1
271
1
272
1
145
1.0
146
1.0
273
1
  9

274
1
275
1
276
1
 42
1.0
 72
1
  3

 73
1
 74
1
 75
1
 94
63
  0
MATERIAL
  5
20
102
{ACAD_REACTORS
330
E
102
}
330
E
100
AcDbMaterial
  1
ByLayer
  2

 70
0
 40
1.0
 71
1
 41
1.0
 91
-1023410177
 42
1.0
 72
1
  3

 73
1
 74
1
 75
1
 44
0.5
 73
0
 45
1.0
 46
1.0
 77
1
  4

 78
1
 79
1
170
1
 48
1.0
171
1
  6

172
1
173
1
174
1
140
1.0
141
1.0
175
1
  7

176
1
177
1
178
1
143
1.0
179
1
  8

270
1
271
1
272
1
145
1.0
146
1.0
273
1
  9

274
1
275
1
276
1
 42
1.0
 72
1
  3

 73
1
 74
1
 75
1
 94
63
  0
MATERIAL
  5
21
102
{ACAD_REACTORS
330
E
102
}
330
E
100
AcDbMaterial
  1
Global
  2

 70
0
 40
1.0
 71
1
 41
1.0
 91
-1023410177
 42
1.0
 72
1
  3

 73
1
 74
1
 75
1
 44
0.5
 73
0
 45
1.0
 46
1.0
 77
1
  4

 78
1
 79
1
170
1
 48
1.0
171
1
  6

172
1
173
1
174
1
140
1.0
141
1.0
175
1
  7

176
1
177
1
178
1
143
1.0
179
1
  8

270
1
271
1
272
1
145
1.0
146
1.0
273
1
  9

274
1
275
1
276
1
 42
1.0
 72
1
  3

 73
1
 74
1
 75
1
 94
63
  0
MLINESTYLE
  5
22
102
{ACAD_REACTORS
330
10
102
}
330
10
100
AcDbMlineStyle
  2
Standard
 70
0
  3

 62
256
 51
90.0
 52
90.0
 71
2
 49
0.5
 62
256
  6
BYLAYER
 49
-0.5
 62
256
  6
BYLAYER
  0
MLEADERSTYLE
  5
2C
102
{ACAD_REACTORS
330
F
102
}
330
F
100
AcDbMLeaderStyle
179
2
170
2
171
1
172
0
 90
2
 40
0.0
 41
0.0
173
1
 91
-1056964608
 92
-2
290
1
 42
2.0
291
1
 43
8.0
  3
Standard
 44
4.0
300

342
29
174
1
175
1
176
0
178
1
 93
-1056964608
 45
4.0
292
0
297
0
 46
4.0
 94
-1056964608
 47
1.0
 49
1.0
140
1.0
294
1
141
0.0
177
0
142
1.0
295
0
296
0
143
3.75
271
0
272
9
273
9
  0
DICTIONARY
  5
2D
330
A
100
AcDbDictionary
280
1
281
1
  3
CREATED_BY_EZDXF
350
2E
  3
WRITTEN_BY_EZDXF
350
3C
  0
DICTIONARYVAR
  5
2E
330
2D
100
DictionaryVariables
280
0
  1
1.4.4 @ 2026-10-02T18:04:45.421532+00:00
  0
DICTIONARYVAR
  5
3C
330
2D
100
DictionaryVariables
280
0
  1
1.4.4 @ 2026-10-02T18:04:45.424580+00:00
  0
ENDSEC
  0
EOF
