  0
SECTION
  2
HEADER
  9
$ACADVER
  1
AC1024
  9
$ACADMAINTVER
 70
6
  9
$DWGCODEPAGE
  3
ANSI_1252
  9
$LASTSAVEDBY
  1
ezdxf
  9
$INSBASE
 10
0.0
 20
0.0
 30
0.0
  9
$EXTMIN
 10
1e+20
 20
1e+20
 30
1e+20
  9
$EXTMAX
 10
-1e+20
 20
-1e+20
 30
-1e+20
  9
$LIMMIN
 10
0.0
 20
0.0
  9
$LIMMAX
 10
420.0
 20
297.0
  9
$ORTHOMODE
 70
0
  9
$REGENMODE
 70
1
  9
$FILLMODE
 70
1
  9
$QTEXTMODE
 70
0
  9
$MIRRTEXT
 70
1
  9
$LTSCALE
 40
1.0
  9
$ATTMODE
 70
1
  9
$TEXTSIZE
 40
2.5
  9
$TRACEWID
 40
1.0
  9
$TEXTSTYLE
  7
Standard
  9
$CLAYER
  8
0
  9
$CELTYPE
  6
ByLayer
  9
$CECOLOR
 62
256
  9
$CELTSCALE
 40
1.0
  9
$DISPSILH
 70
0
  9
$DIMSCALE
 40
1.0
  9
$DIMASZ
 40
2.5
  9
$DIMEXO
 40
0.625
  9
$DIMDLI
 40
3.75
  9
$DIMRND
 40
0.0
  9
$DIMDLE
 40
0.0
  9
$DIMEXE
 40
1.25
  9
$DIMTP
 40
0.0
  9
$DIMTM
 40
0.0
  9
$DIMTXT
 40
2.5
  9
$DIMCEN
 40
2.5
  9
$DIMTSZ
 40
0.0
  9
$DIMTOL
 70
0
  9
$DIMLIM
 70
0
  9
$DIMTIH
 70
0
  9
$DIMTOH
 70
0
  9
$DIMSE1
 70
0
  9
$DIMSE2
 70
0
  9
$DIMTAD
 70
1
  9
$DIMZIN
 70
8
  9
$DIMBLK
  1

  9
$DIMASO
 70
1
  9
$DIMSHO
 70
1
  9
$DIMPOST
  1

  9
$DIMAPOST
  1

  9
$DIMALT
 70
0
  9
$DIMALTD
 70
3
  9
$DIMALTF
 40
0.03937007874
  9
$DIMLFAC
 40
1.0
  9
$DIMTOFL
 70
1
  9
$DIMTVP
 40
0.0
  9
$DIMTIX
 70
0
  9
$DIMSOXD
 70
0
  9
$DIMSAH
 70
0
  9
$DIMBLK1
  1

  9
$DIMBLK2
  1

  9
$DIMSTYLE
  2
ISO-25
  9
$DIMCLRD
 70
0
  9
$DIMCLRE
 70
0
  9
$DIMCLRT
 70
0
  9
$DIMTFAC
 40
1.0
  9
$DIMGAP
 40
0.625
  9
$DIMJUST
 70
0
  9
$DIMSD1
 70
0
  9
$DIMSD2
 70
0
  9
$DIMTOLJ
 70
0
  9
$DIMTZIN
 70
8
  9
$DIMALTZ
 70
0
  9
$DIMALTTZ
 70
0
  9
$DIMUPT
 70
0
  9
$DIMDEC
 70
2
  9
$DIMTDEC
 70
2
  9
$DIMALTU
 70
2
  9
$DIMALTTD
 70
3
  9
$DIMTXSTY
  7
Standard
  9
$DIMAUNIT
 70
0
  9
$DIMADEC
 70
0
  9
$DIMALTRND
 40
0.0
  9
$DIMAZIN
 70
0
  9
$DIMDSEP
 70
44
  9
$DIMATFIT
 70
3
  9
$DIMFRAC
 70
0
  9
$DIMLDRBLK
  1

  9
$DIMLUNIT
 70
2
  9
$DIMLWD
 70
-2
  9
$DIMLWE
 70
-2
  9
$DIMTMOVE
 70
0
  9
$DIMFXL
 40
1.0
  9
$DIMFXLON
 70
0
  9
$DIMJOGANG
 40
0.785398163397
  9
$DIMTFILL
 70
0
  9
$DIMTFILLCLR
 70
0
  9
$DIMARCSYM
 70
0
  9
$DIMLTYPE
  6

  9
$DIMLTEX1
  6

  9
$DIMLTEX2
  6

  9
$DIMTXTDIRECTION
 70
0
  9
$LUNITS
 70
2
  9
$LUPREC
 70
4
  9
$SKETCHINC
 40
1.0
  9
$FILLETRAD
 40
10.0
  9
$AUNITS
 70
0
  9
$AUPREC
 70
2
  9
$MENU
  1
.
  9
$ELEVATION
 40
0.0
  9
$PELEVATION
 40
0.0
  9
$THICKNESS
 40
0.0
  9
$LIMCHECK
 70
0
  9
$CHAMFERA
 40
0.0
  9
$CHAMFERB
 40
0.0
  9
$CHAMFERC
 40
0.0
  9
$CHAMFERD
 40
0.0
  9
$SKPOLY
 70
0
  9
$TDCREATE
 40
2461316.753298611
  9
$TDUCREATE
 40
2458532.153996898
  9
$TDUPDATE
 40
2461316.753298611
  9
$TDUUPDATE
 40
2458532.1544311
  9
$TDINDWG
 40
0.0
  9
$TDUSRTIMER
 40
0.0
  9
$USRTIMER
 70
1
  9
$ANGBASE
 50
0.0
  9
$ANGDIR
 70
0
  9
$PDMODE
 70
0
  9
$PDSIZE
 40
0.0
  9
$PLINEWID
 40
0.0
  9
$SPLFRAME
 70
0
  9
$SPLINETYPE
 70
6
  9
$SPLINESEGS
 70
8
  9
$HANDSEED
  5
3D
  9
$SURFTAB1
 70
6
  9
$SURFTAB2
 70
6
  9
$SURFTYPE
 70
6
  9
$SURFU
 70
6
  9
$SURFV
 70
6
  9
$UCSBASE
  2

  9
$UCSNAME
  2

  9
$UCSORG
 10
0.0
 20
0.0
 30
0.0
  9
$UCSXDIR
 10
1.0
 20
0.0
 30
0.0
  9
$UCSYDIR
 10
0.0
 20
1.0
 30
0.0
  9
$UCSORTHOREF
  2

  9
$UCSORTHOVIEW
 70
0
  9
$UCSORGTOP
 10
0.0
 20
0.0
 30
0.0
  9
$UCSORGBOTTOM
 10
0.0
 20
0.0
 30
0.0
  9
$UCSORGLEFT
 10
0.0
 20
0.0
 30
0.0
  9
$UCSORGRIGHT
 10
0.0
 20
0.0
 30
0.0
  9
$UCSORGFRONT
 10
0.0
 20
0.0
 30
0.0
  9
$UCSORGBACK
 10
0.0
 20
0.0
 30
0.0
  9
$PUCSBASE
  2

  9
$PUCSNAME
  2

  9
$PUCSORG
 10
0.0
 20
0.0
 30
0.0
  9
$PUCSXDIR
 10
1.0
 20
0.0
 30
0.0
  9
$PUCSYDIR
 10
0.0
 20
1.0
 30
0.0
  9
$PUCSORTHOREF
  2

  9
$PUCSORTHOVIEW
 70
0
  9
$PUCSORGTOP
 10
0.0
 20
0.0
 30
0.0
  9
$PUCSORGBOTTOM
 10
0.0
 20
0.0
 30
0.0
  9
$PUCSORGLEFT
 10
0.0
 20
0.0
 30
0.0
  9
$PUCSORGRIGHT
 10
0.0
 20
0.0
 30
0.0
  9
$PUCSORGFRONT
 10
0.0
 20
0.0
 30
0.0
  9
$PUCSORGBACK
 10
0.0
 20
0.0
 30
0.0
  9
$USERI1
 70
0
  9
$USERI2
 70
0
  9
$USERI3
 70
0
  9
$USERI4
 70
0
  9
$USERI5
 70
0
  9
$USERR1
 40
0.0
  9
$USERR2
 40
0.0
  9
$USERR3
 40
0.0
  9
$USERR4
 40
0.0
  9
$USERR5
 40
0.0
  9
$WORLDVIEW
 70
1
  9
$SHADEDGE
 70
3
  9
$SHADEDIF
 70
70
  9
$TILEMODE
 70
1
  9
$MAXACTVP
 70
64
  9
$PINSBASE
 10
0.0
 20
0.0
 30
0.0
  9
$PLIMCHECK
 70
0
  9
$PEXTMIN
 10
1e+20
 20
1e+20
 30
1e+20
  9
$PEXTMAX
 10
-1e+20
 20
-1e+20
 30
-1e+20
  9
$PLIMMIN
 10
0.0
 20
0.0
  9
$PLIMMAX
 10
420.0
 20
297.0
  9
$UNITMODE
 70
0
  9
$VISRETAIN
 70
1
  9
$PLINEGEN
 70
0
  9
$PSLTSCALE
 70
1
  9
$TREEDEPTH
 70
3020
  9
$CMLSTYLE
  2
Standard
  9
$CMLJUST
 70
0
  9
$CMLSCALE
 40
20.0
  9
$PROXYGRAPHICS
 70
1
  9
$MEASUREMENT
 70
1
  9
$CELWEIGHT
370
-1
  9
$ENDCAPS
280
0
  9
$JOINSTYLE
280
0
  9
$LWDISPLAY
290
0
  9
$INSUNITS
 70
4
  9
$HYPERLINKBASE
  1

  9
$STYLESHEET
  1

  9
$XEDIT
290
1
  9
$CEPSNTYPE
380
0
  9
$PSTYLEMODE
290
1
  9
$FINGERPRINTGUID
  2
{1D5E5658-26E3-4BF9-A58D-FADBFCBF8DE9}
  9
$VERSIONGUID
  2
{93ABC248-5035-470C-ACF0-FB2655F54D61}
  9
$EXTNAMES
290
1
  9
$PSVPSCALE
 40
0.0
  9
$OLESTARTUP
290
0
  9
$SORTENTS
280
127
  9
$INDEXCTL
280
0
  9
$HIDETEXT
280
1
  9
$XCLIPFRAME
280
1
  9
$HALOGAP
280
0
  9
$OBSCOLOR
 70
257
  9
$OBSLTYPE
280
0
  9
$INTERSECTIONDISPLAY
280
0
  9
$INTERSECTIONCOLOR
 70
257
  9
$DIMASSOC
280
2
  9
$PROJECTNAME
  1

  9
$CAMERADISPLAY
290
0
  9
$LENSLENGTH
 40
50.0
  9
$CAMERAHEIGHT
 40
0.0
  9
$STEPSPERSEC
 40
24.0
  9
$STEPSIZE
 40
100.0
  9
$3DDWFPREC
 40
2.0
  9
$PSOLWIDTH
 40
0.005
  9
$PSOLHEIGHT
 40
0.08
  9
$LOFTANG1
 40
1.570796326795
  9
$LOFTANG2
 40
1.570796326795
  9
$LOFTMAG1
 40
0.0
  9
$LOFTMAG2
 40
0.0
  9
$LOFTPARAM
 70
7
  9
$LOFTNORMALS
280
1
  9
$LATITUDE
 40
37.795
  9
$LONGITUDE
 40
-122.394
  9
$NORTHDIRECTION
 40
0.0
  9
$TIMEZONE
 70
-8000
  9
$LIGHTGLYPHDISPLAY
280
1
  9
$TILEMODELIGHTSYNCH
280
1
  9
$CMATERIAL
347
20
  9
$SOLIDHIST
280
0
  9
$SHOWHIST
280
1
  9
$DWFFRAME
280
2
  9
$DGNFRAME
280
2
  9
$REALWORLDSCALE
290
1
  9
$INTERFERECOLOR
 62
256
  9
$CSHADOW
280
0
  9
$SHADOWPLANELOCATION
 40
0.0
  0
ENDSEC
  0
SECTION
  2
CLASSES
  0
CLASS
  1
ACDBDICTIONARYWDFLT
  2
AcDbDictionaryWithDefault
  3
ObjectDBX Classes
 90
0
 91
0
280
0
281
0
  0
CLASS
  1
SUN
  2
AcDbSun
  3
SCENEOE
 90
1153
 91
0
280
0
281
0
  0
CLASS
  1
VISUALSTYLE
  2
AcDbVisualStyle
  3
ObjectDBX Classes
 90
4095
 91
0
280
0
281
0
  0
CLASS
  1
MATERIAL
  2
AcDbMaterial
  3
ObjectDBX Classes
 90
1153
 91
0
280
0
281
0
  0
CLASS
  1
SCALE
  2
AcDbScale
  3
ObjectDBX Classes
 90
1153
 91
0
280
0
281
0
  0
CLASS
  1
TABLESTYLE
  2
AcDbTableStyle
  3
ObjectDBX Classes
 90
4095
 91
0
280
0
281
0
  0
CLASS
  1
MLEADERSTYLE
  2
AcDbMLeaderStyle
  3
ACDB_MLEADERSTYLE_CLASS
 90
4095
 91
0
280
0
281
0
  0
CLASS
  1
DICTIONARYVAR
  2
AcDbDictionaryVar
  3
ObjectDBX Classes
 90
0
 91
0
280
0
281
0
  0
CLASS
  1
CELLSTYLEMAP
  2
AcDbCellStyleMap
  3
ObjectDBX Classes
 90
1152
 91
0
280
0
281
0
  0
CLASS
  1
MENTALRAYRENDERSETTINGS
  2
AcDbMentalRayRenderSettings
  3
SCENEOE
 90
1024
 91
0
280
0
281
0
  0
CLASS
  1
ACDBDETAILVIEWSTYLE
  2
AcDbDetailViewStyle
  3
ObjectDBX Classes
 90
1025
 91
0
280
0
281
0
  0
CLASS
  1
ACDBSECTIONVIEWSTYLE
  2
AcDbSectionViewStyle
  3
ObjectDBX Classes
 90
1025
 91
0
280
0
281
0
  0
CLASS
  1
RASTERVARIABLES
  2
AcDbRasterVariables
  3
ISM
 90
0
 91
0
280
0
281
0
  0
CLASS
  1
LAYOUT
  2
AcDbLayout
  3
ObjectDBX Classes
 90
0
 91
0
280
0
281
0
  0
CLASS
  1
ACDBPLACEHOLDER
  2
AcDbPlaceHolder
  3
ObjectDBX Classes
 90
0
 91
0
280
0
281
0
  0
ENDSEC
  0
SECTION
  2
TABLES
  0
TABLE
  2
VPORT
  5
8
330
0
100
AcDbSymbolTable
 70
1
  0
VPORT
  5
23
330
8
100
AcDbSymbolTableRecord
100
AcDbViewportTableRecord
  2
*Active
 70
0
 10
0.0
 20
0.0
 11
1.0
 21
1.0
 12
0.0
 22
0.0
 13
0.0
 23
0.0
 14
0.5
 24
0.5
 15
0.5
 25
0.5
 16
0.0
 26
0.0
 36
1.0
 17
0.0
 27
0.0
 37
0.0
 40
1000.0
 41
1.34
 42
50.0
 43
0.0
 44
0.0
 50
0.0
 51
0.0
 71
0
 72
1000
 73
1
 74
3
 75
0
 76
0
 77
0
 78
0
281
0
 65
0
146
0.0
  0
ENDTAB
  0
TABLE
  2
LTYPE
  5
2
330
0
100
AcDbSymbolTable
 70
3
  0
LTYPE
  5
24
330
2
100
AcDbSymbolTableRecord
100
AcDbLinetypeTableRecord
  2
ByBlock
 70
0
  3

 72
65
 73
0
 40
0.0
  0
LTYPE
  5
25
330
2
100
AcDbSymbolTableRecord
100
AcDbLinetypeTableRecord
  2
ByLayer
 70
0
  3

 72
65
 73
0
 40
0.0
  0
LTYPE
  5
26
330
2
100
AcDbSymbolTableRecord
100
AcDbLinetypeTableRecord
  2
Continuous
 70
0
  3

 72
65
 73
0
 40
0.0
  0
ENDTAB
  0
TABLE
  2
LAYER
  5
1
330
0
100
AcDbSymbolTable
 70
7
  0
LAYER
  5
27
330
1
100
AcDbSymbolTableRecord
100
AcDbLayerTableRecord
  2
0
 70
0
 62
7
  6
Continuous
370
-3
390
13
347
21
  0
LAYER
  5
28
330
1
100
AcDbSymbolTableRecord
100
AcDbLayerTableRecord
  2
Defpoints
 70
0
 62
7
  6
Continuous
290
0
370
-3
390
13
347
21
  0
LAYER
  5
2F
330
1
100
AcDbSymbolTableRecord
100
AcDbLayerTableRecord
  2
CUT
 70
0
 62
1
  6
Continuous
370
-3
390
13
347
21
  0
LAYER
  5
30
330
1
100
AcDbSymbolTableRecord
100
AcDbLayerTableRecord
  2
SEAM
 70
0
 62
5
  6
Continuous
370
-3
390
13
347
21
  0
LAYER
  5
31
330
1
100
AcDbSymbolTableRecord
100
AcDbLayerTableRecord
  2
GRAIN
 70
0
 62
3
  6
Continuous
370
-3
390
13
347
21
  0
LAYER
  5
32
330
1
100
AcDbSymbolTableRecord
100
AcDbLayerTableRecord
  2
NOTCH
 70
0
 62
2
  6
Continuous
370
-3
390
13
347
21
  0
LAYER
  5
33
330
1
100
AcDbSymbolTableRecord
100
AcDbLayerTableRecord
  2
TEXT
 70
0
 62
7
  6
Continuous
370
-3
390
13
347
21
  0
ENDTAB
  0
TABLE
  2
STYLE
  5
5
330
0
100
AcDbSymbolTable
 70
1
  0
STYLE
  5
29
330
5
100
AcDbSymbolTableRecord
100
AcDbTextStyleTableRecord
  2
Standard
 70
0
 40
0.0
 41
1.0
 50
0.0
 71
0
 42
2.5
  3
txt
  4

  0
ENDTAB
  0
TABLE
  2
VIEW
  5
7
330
0
100
AcDbSymbolTable
 70
0
  0
ENDTAB
  0
TABLE
  2
UCS
  5
6
330
0
100
AcDbSymbolTable
 70
0
  0
ENDTAB
  0
TABLE
  2
APPID
  5
3
330
0
100
AcDbSymbolTable
 70
3
  0
APPID
  5
2A
330
3
100
AcDbSymbolTableRecord
100
AcDbRegAppTableRecord
  2
ACAD
 70
0
  0
APPID
  5
3A
330
3
100
AcDbSymbolTableRecord
100
AcDbRegAppTableRecord
  2
HATCHBACKGROUNDCOLOR
 70
0
  0
APPID
  5
3B
330
3
100
AcDbSymbolTableRecord
100
AcDbRegAppTableRecord
  2
EZDXF
 70
0
  0
ENDTAB
  0
TABLE
  2
DIMSTYLE
  5
4
330
0
100
AcDbSymbolTable
 70
1
100
AcDbDimStyleTable
  0
DIMSTYLE
105
2B
330
4
100
AcDbSymbolTableRecord
100
AcDbDimStyleTableRecord
  2
Standard
 70
0
 40
1.0
 41
2.5
 42
0.625
 43
3.75
 44
1.25
 45
0.0
 46
0.0
 47
0.0
 48
0.0
 49
2.5
140
2.5
141
2.5
142
0.0
143
0.03937007874
144
1.0
145
0.0
146
1.0
147
0.625
148
0.0
 69
0
 70
0
 71
0
 72
0
 73
0
 74
0
 75
0
 76
0
 77
1
 78
8
 79
3
170
0
171
3
172
1
173
0
174
0
175
0
176
0
177
0
178
0
179
2
271
2
272
2
273
2
274
3
275
0
276
0
277
2
278
44
279
0
280
0
281
0
282
0
283
0
284
8
285
0
286
0
288
0
289
3
290
0
371
-2
372
-2
  0
ENDTAB
  0
TABLE
  2
BLOCK_RECORD
  5
9
330
0
100
AcDbSymbolTable
 70
2
  0
BLOCK_RECORD
  5
17
330
9
100
AcDbSymbolTableRecord
100
AcDbBlockTableRecord
  2
*Model_Space
340
1A
 70
0
280
1
281
0
  0
BLOCK_RECORD
  5
1B
330
9
100
AcDbSymbolTableRecord
100
AcDbBlockTableRecord
  2
*Paper_Space
340
1E
 70
0
280
1
281
0
  0
ENDTAB
  0
ENDSEC
  0
SECTION
  2
BLOCKS
  0
BLOCK
  5
18
330
17
100
AcDbEntity
  8
0
100
AcDbBlockBegin
  2
*Model_Space
 70
0
 10
0.0
 20
0.0
 30
0.0
  3
*Model_Space
  1

  0
ENDBLK
  5
19
330
17
100
AcDbEntity
  8
0
100
AcDbBlockEnd
  0
BLOCK
  5
1C
330
1B
100
AcDbEntity
  8
0
100
AcDbBlockBegin
  2
*Paper_Space
 70
0
 10
0.0
 20
0.0
 30
0.0
  3
*Paper_Space
  1

  0
ENDBLK
  5
1D
330
1B
100
AcDbEntity
  8
0
100
AcDbBlockEnd
  0
ENDSEC
  0
SECTION
  2
ENTITIES
  0
LWPOLYLINE
  5
34
330
17
100
AcDbEntity
  8
CUT
100
AcDbPolyline
 90
178
 70
1
 10
8.0
 20
8.076522746500594
 10
8.0
 20
292.90672095291427
 10
9.833000350760056
 20
292.93556557404247
 10
14.745960239766202
 20
293.062471795265
 10
19.656479721408335
 20
293.2372906690995
 10
24.564603863344587
 20
293.45838172771994
 10
29.470375421177156
 20
293.724106913762
 10
34.37383465317179
 20
294.03283075051536
 10
39.27501914256663
 20
294.3829204787128
 10
44.17396363032315
 20
294.77274616264685
 10
49.070699860837465
 20
295.2006807684337
 10
53.96525644248469
 20
295.6651002172598
 10
58.85765872468595
 20
296.1643834164316
 10
63.74792869248987
 20
296.69691227096484
 10
68.71957023163952
 20
297.27070701834907
 10
74.19918126513156
 20
298.0542008607011
 10
80.06218921110798
 20
299.71467790447116
 10
85.79219987247126
 20
302.1464293936794
 10
91.36044641112737
 20
305.1929118099952
 10
96.81697512994343
 20
308.74994121921384
 10
102.20219054289414
 20
312.7326532718997
 10
107.5435106988776
 20
317.06544668825336
 10
112.85681852565742
 20
321.6761865596424
 10
118.14898422289235
 20
326.4933673763351
 10
123.42014210537656
 20
331.4448685642901
 10
128.6654212451632
 20
336.4574632909556
 10
133.87615023907657
 20
341.4566493427676
 10
139.04061405976788
 20
346.3666042849621
 10
144.14441465052323
 20
351.11019490304983
 10
149.1704393943858
 20
355.6090571689434
 10
154.17484914330763
 20
359.84862609668386
 10
159.53649618559766
 20
364.2776234555024
 10
164.96937571344458
 20
368.84234922049967
 10
170.40510534330332
 20
373.4769193408014
 10
175.84289623396668
 20
378.1713866576719
 10
181.28183885372349
 20
382.9157903137341
 10
186.72091645077055
 20
387.7001535720346
 10
192.15901739289015
 20
392.5144822733061
 10
197.5949464385519
 20
397.34876377105104
 10
203.02869818126348
 20
402.19409357612574
 10
208.45515047721847
 20
407.0370381900237
 10
213.87670464901703
 20
411.8709083914121
 10
219.29066126897956
 20
416.68448575971263
 10
224.69554278570192
 20
421.46765962711237
 10
230.09133142057178
 20
426.2116147008473
 10
235.5102418789545
 20
430.94035806995436
 10
240.97556971862952
 20
435.77012737150255
 10
246.4545813922336
 20
440.69764793190734
 10
251.9308304629206
 20
445.68740280027794
 10
257.40188625785186
 20
450.7165497100436
 10
262.86600993643583
 20
455.76312270059003
 10
268.316909542561
 20
460.8011286516617
 10
273.7543897038105
 20
465.8103463438124
 10
279.1737845487224
 20
470.7665267531632
 10
284.5712861078628
 20
475.6462956434896
 10
289.94290089389955
 20
480.4261787858611
 10
295.2844566906738
 20
485.0826116206631
 10
300.5915986881739
 20
489.5919560287193
 10
305.8597745769356
 20
493.9305283527287
 10
311.0842088889732
 20
498.07464482316334
 10
316.25986854070345
 20
502.0006932740895
 10
321.3888335901311
 20
505.6905734705723
 10
326.5168895084902
 20
509.1723732736959
 10
331.6707123739368
 20
512.5446608275141
 10
336.82238952014256
 20
515.8085042741903
 10
341.96795870025466
 20
518.9686408101645
 10
347.10915039854774
 20
522.0335589889881
 10
352.2475970620777
 20
525.0117147354193
 10
357.38483159263956
 20
527.9115355674292
 10
362.5222869395733
 20
530.7414254100889
 10
367.6612967959176
 20
533.5097697640737
 10
372.8030973493172
 20
536.2249409930765
 10
377.948829997986
 20
538.8953035071648
 10
383.0995449129126
 20
541.5292186401429
 10
388.25620530986885
 20
544.1350490447015
 10
393.4196922916213
 20
546.7211624585927
 10
398.59081012735015
 20
549.2959347242582
 10
403.7634353716023
 20
551.8643474591566
 10
408.919861674555
 20
554.4133774706305
 10
414.0597360333125
 20
556.9200046245353
 10
419.19553018385665
 20
559.3891656286904
 10
424.32770966218084
 20
561.820688275756
 10
429.4562718812131
 20
564.2141719021369
 10
434.58121566251924
 20
566.5692163693593
 10
439.70254127692334
 20
568.8854220820045
 10
444.82025048677474
 20
571.1623900055205
 10
449.9343465899783
 20
573.3997216838584
 10
455.04483446573767
 20
575.5970192567974
 10
459.36501671579435
 20
577.421625264145
 10
459.36501671579435
 20
293.9149309934602
 10
459.1759481012088
 20
293.8380085130509
 10
453.97494382965726
 20
291.681454933991
 10
448.77226268252736
 20
289.4841302088029
 10
443.56787032432305
 20
287.246457607808
 10
438.3617337779666
 20
284.9688597719714
 10
433.1538214383215
 20
282.6517587293744
 10
427.9441030840612
 20
280.2955759122789
 10
422.73254988736187
 20
277.90073217442347
 10
417.51913442207587
 20
275.4676478087165
 10
412.30383066990123
 20
272.99674256498963
 10
407.0866140250787
 20
270.4884356679423
 10
401.8679307902274
 20
267.9433747985424
 10
396.6603697767432
 20
265.36906683212175
 10
391.46719621656047
 20
262.790451046775
 10
386.27137837868884
 20
260.2033803028115
 10
381.06549272103655
 20
257.5960316684457
 10
375.8490206158778
 20
254.95997643700585
 10
370.621485403081
 20
252.286777797093
 10
365.38244567127066
 20
249.56799385225173
 10
360.13148819373885
 20
246.79518138711526
 10
354.86822041304345
 20
243.95990026263766
 10
349.5922623625779
 20
241.05371829334374
 10
344.3032379200248
 20
238.06821643075926
 10
339.00076530642576
 20
234.99499405082014
 10
333.6844467768945
 20
231.82567412233232
 10
328.35385749298894
 20
228.5519080209161
 10
323.0085336199908
 20
225.16537975097282
 10
317.642171533682
 20
221.65402195979414
 10
312.2213643201419
 20
217.9734525999119
 10
306.75154177386514
 20
214.0383526923713
 10
301.2766156425535
 20
209.88529265690602
 10
295.8016194140359
 20
205.5424259098039
 10
290.3252460991266
 20
201.03239393636616
 10
284.8471175981518
 20
196.37776661828798
 10
279.36765345524947
 20
191.60111394950206
 10
273.88795268117644
 20
186.72505146205086
 10
268.409690139832
 20
181.7722682475611
 10
262.93502723242494
 20
176.76554372831612
 10
257.46653587530034
 20
171.72775731932873
 10
252.00713459010382
 20
166.68189367267448
 10
246.56003564308352
 20
161.65104514594373
 10
241.12870243459912
 20
156.6584123443073
 10
235.7168166726832
 20
151.72730293364677
 10
230.328255210137
 20
146.88112829860802
 10
224.9526242955492
 20
142.13062513953798
 10
219.54902918646965
 20
137.41524651543256
 10
214.1114223820977
 20
132.63452507985352
 10
208.67322109167787
 20
127.82186411448055
 10
203.2371105196358
 20
122.98858955061044
 10
197.80291307681804
 20
118.14344532906512
 10
192.3762823242555
 20
113.30034144804026
 10
186.95427814505118
 20
108.46548801883353
 10
181.53977547258523
 20
103.65026142755144
 10
176.134249326095
 20
98.86477106069226
 10
170.73921046723052
 20
94.11914549589646
 10
165.35620022627094
 20
89.42353179792165
 10
159.98678613470733
 20
84.78809445389491
 10
154.6325583717916
 20
80.22301383049685
 10
149.29512703416145
 20
75.7384839930683
 10
143.908391343255
 20
71.28876211479106
 10
138.66174180436786
 20
66.84397572123055
 10
133.36157543528392
 20
62.09972560388929
 10
128.08178836883988
 20
57.19256907444927
 10
122.82544702085532
 20
52.195264402472034
 10
117.59983618056796
 20
47.181800671106046
 10
112.41553381374658
 20
42.227477743227396
 10
107.2858973021455
 20
37.40891570292671
 10
102.22693753989543
 20
32.80401001528657
 10
97.25760514994309
 20
28.491762403910272
 10
92.40054093607702
 20
24.551789656710064
 10
87.68328865292256
 20
21.0630791626975
 10
83.1396543176654
 20
18.101151939715358
 10
78.80989314124153
 20
15.732265935970695
 10
74.73601788335534
 20
14.003359514903682
 10
70.87196484503782
 20
12.909011455826015
 10
66.66962239704469
 20
12.308145917864893
 10
61.96464551105665
 20
11.765127881973642
 10
57.17939086069906
 20
11.244034732846545
 10
52.39734808858483
 20
10.756014027246824
 10
47.6185150048482
 20
10.302574989458849
 10
42.84288237991527
 20
9.885223846058794
 10
38.07043336679297
 20
9.505463837503813
 10
33.301142905989394
 20
9.164795249179871
 10
28.53497711437337
 20
8.864715464649539
 10
23.771892659677523
 20
8.60671904391579
 10
19.0118361228161
 20
8.392297829538581
 10
14.254743350695463
 20
8.222941083423024
 10
9.500538802727801
 20
8.100135657013604
  0
LWPOLYLINE
  5
35
330
17
100
AcDbEntity
  8
SEAM
100
AcDbPolyline
 90
182
 70
1
 10
0.0
 20
0.0
 10
4.833343879334853
 20
0.02570087259292748
 10
9.666769576744109
 20
0.10176105061480928
 10
14.500351795231643
 20
0.22661687443082348
 10
19.334157922110702
 20
0.398704684405725
 10
24.168248261512133
 20
0.6164608209046918
 10
29.002676267775882
 20
0.8783216242925846
 10
33.8374887795804
 20
1.1827234349343698
 10
38.672726254679006
 20
1.528102593195014
 10
43.50842300512047
 20
1.9128954394396955
 10
48.34460743284176
 20
2.335538314032957
 10
53.18130226553458
 20
2.7944675573400826
 10
58.01852479269428
 20
3.288119509726039
 10
62.856287101769446
 20
3.814930511555581
 10
67.69459631434297
 20
4.373336903193886
 10
72.5355730550846
 20
5.065516593350292
 10
77.39910354723165
 20
6.442929144774184
 10
82.30104650685655
 20
8.523258099911892
 10
87.25005036439612
 20
11.230942309941891
 10
92.250131891433
 20
14.490420626042447
 10
97.30136573948579
 20
18.22613189939182
 10
102.40055792441034
 20
22.362514981168594
 10
107.54187803277627
 20
26.824008722551138
 10
112.71744076251883
 20
31.53505197471761
 10
117.91783795956302
 20
36.42008358884691
 10
123.1326287128648
 20
41.40354241611688
 10
128.35079862996554
 20
46.40986730770619
 10
133.5612012143047
 20
51.36349711479324
 10
138.75299504290336
 20
56.188870688556165
 10
143.91609059937693
 20
60.810426880173864
 10
149.04162024328141
 20
65.1526045408243
 10
154.4158116098794
 20
69.591964159372
 10
159.80096704261942
 20
74.11659196058618
 10
165.19594573900466
 20
78.71641733243432
 10
170.59954823011861
 20
83.38136966288337
 10
176.0105246604753
 20
88.10137833990058
 10
181.42758288843652
 20
92.86637275145353
 10
186.84939643273063
 20
97.66628228550927
 10
192.27461229180813
 20
102.49103633003494
 10
197.70185866366523
 20
107.33056427299826
 10
203.1297525944163
 20
112.17479550236615
 10
208.55690758433497
 20
117.01365940610565
 10
213.98194118033007
 20
121.83708537218456
 10
219.4034825838998
 20
126.63500278856974
 10
224.82018030352287
 20
131.3973410432286
 10
230.2314330872533
 20
136.1194020398342
 10
235.65191246438397
 20
140.9095382701427
 10
241.0856990324573
 20
145.79638586786285
 10
246.52976644876162
 20
150.756818007381
 10
251.98096095047046
 20
155.76770786308296
 10
257.43604209156496
 20
160.80592860935462
 10
262.8917227089307
 20
165.84835342058201
 10
268.3447084681177
 20
170.87185547115104
 10
273.7917373442758
 20
175.85330793544767
 10
279.2296193945206
 20
180.7695839878579
 10
284.6552771745737
 20
185.59755680276768
 10
290.06578714441343
 20
190.31409955456286
 10
295.45842239365027
 20
194.8960854176295
 10
300.8306969954862
 20
199.32038756635347
 10
306.1804122657625
 20
203.5638791751208
 10
311.50570515728464
 20
207.60343341831742
 10
316.8050989551369
 20
211.41592347032912
 10
322.0795305210857
 20
214.99710805183153
 10
327.33962299696424
 20
218.43893072433053
 10
332.5881235065663
 20
221.76411658264036
 10
337.8262027385749
 20
224.98106790133542
 10
343.05495785248485
 20
228.09818695498976
 10
348.2754174910539
 20
231.1238760181775
 10
353.488546977608
 20
234.06653736547284
 10
358.6952536763084
 20
236.93457327145015
 10
363.8963924948321
 20
239.73638601068333
 10
369.0927715102862
 20
242.48037785774687
 10
374.2851577005316
 20
245.17495108721477
 10
379.4742827643953
 20
247.82850797366117
 10
384.66084901545264
 20
250.44945079166035
 10
389.8455353351502
 20
253.04618181578644
 10
395.02900317197617
 20
255.62710332061374
 10
400.2119025741532
 20
258.2006175807163
 10
405.39389623239543
 20
260.76228656967527
 10
410.5731750291936
 20
263.2881305813246
 10
415.74968042687703
 20
265.77686453192587
 10
420.9234220421324
 20
268.2280784773249
 10
426.0944108842908
 20
270.64136247336853
 10
431.2626593732848
 20
273.0163065759034
 10
436.4281813576224
 20
275.3525008407762
 10
441.5909921323712
 20
277.6495353238329
 10
446.7511084571513
 20
279.9070000809203
 10
451.90854857412825
 20
282.12448516788504
 10
457.0633322260021
 20
284.30158064057343
 10
462.21548067399027
 20
286.437876554832
 10
467.36501671579435
 20
288.5329629665076
 10
467.36501671579435
 20
589.365142096334
 10
462.21548067399027
 20
587.2700556846585
 10
457.0633322260021
 20
585.1337597703998
 10
451.90854857412825
 20
582.9566642977115
 10
446.7511084571513
 20
580.7391792107467
 10
441.5909921323712
 20
578.4817144536594
 10
436.4281813576224
 20
576.1846799706027
 10
431.2626593732848
 20
573.8484857057299
 10
426.0944108842908
 20
571.4735416031949
 10
420.9234220421324
 20
569.0602576071514
 10
415.74968042687703
 20
566.6090436617524
 10
410.5731750291936
 20
564.1203097111511
 10
405.39389623239543
 20
561.5944656995017
 10
400.2119025741532
 20
559.0327967105427
 10
395.02900317197617
 20
556.4592824504402
 10
389.8455353351502
 20
553.8783609456129
 10
384.66084901545264
 20
551.2816299214868
 10
379.4742827643953
 20
548.6606871034876
 10
374.2851577005316
 20
546.0071302170412
 10
369.0927715102862
 20
543.3125569875733
 10
363.8963924948321
 20
540.5685651405098
 10
358.6952536763084
 20
537.7667524012766
 10
353.488546977608
 20
534.8987164952993
 10
348.2754174910539
 20
531.956055148004
 10
343.05495785248485
 20
528.9303660848162
 10
337.8262027385749
 20
525.8132470311618
 10
332.5881235065663
 20
522.5962957124668
 10
327.33962299696424
 20
519.271109854157
 10
322.0795305210857
 20
515.829287181658
 10
316.8050989551369
 20
512.2481026001556
 10
311.50570515728464
 20
508.43561254814387
 10
306.1804122657625
 20
504.39605830494725
 10
300.8306969954862
 20
500.1525666961799
 10
295.45842239365027
 20
495.728264547456
 10
290.06578714441343
 20
491.1462786843893
 10
284.6552771745737
 20
486.4297359325941
 10
279.2296193945206
 20
481.60176311768436
 10
273.7917373442758
 20
476.6854870652741
 10
268.3447084681177
 20
471.7040346009775
 10
262.8917227089307
 20
466.68053255040843
 10
257.43604209156496
 20
461.63810773918107
 10
251.98096095047046
 20
456.59988699290943
 10
246.52976644876162
 20
451.58899713720746
 10
241.0856990324573
 20
446.6285649976893
 10
235.65191246438397
 20
441.74171739996916
 10
230.2314330872533
 20
436.95158116966064
 10
224.82018030352287
 20
432.22952017305505
 10
219.4034825838998
 20
427.4671819183962
 10
213.98194118033007
 20
422.669264502011
 10
208.55690758433497
 20
417.8458385359321
 10
203.1297525944163
 20
413.0069746321926
 10
197.70185866366523
 20
408.16274340282473
 10
192.27461229180813
 20
403.3232154598614
 10
186.84939643273063
 20
398.4984614153357
 10
181.42758288843652
 20
393.69855188127997
 10
176.0105246604753
 20
388.933557469727
 10
170.59954823011861
 20
384.21354879270984
 10
165.19594573900466
 20
379.5485964622608
 10
159.80096704261942
 20
374.9487710904126
 10
154.4158116098794
 20
370.42414328919847
 10
149.04162024328141
 20
365.98478367065076
 10
143.91609059937693
 20
361.6426060100003
 10
138.75299504290336
 20
357.0210498183826
 10
133.5612012143047
 20
352.1956762446197
 10
128.35079862996554
 20
347.2420464375326
 10
123.1326287128648
 20
342.2357215459433
 10
117.91783795956302
 20
337.25226271867336
 10
112.71744076251883
 20
332.36723110454403
 10
107.54187803277627
 20
327.65618785237757
 10
102.40055792441034
 20
323.19469411099504
 10
97.30136573948579
 20
319.05831102921826
 10
92.250131891433
 20
315.3225997558689
 10
87.25005036439612
 20
312.06312143976834
 10
82.30104650685655
 20
309.35543722973836
 10
77.39910354723165
 20
307.27510827460065
 10
72.5355730550846
 20
305.89769572317675
 10
67.69459631434297
 20
305.20551603302033
 10
62.856287101769446
 20
304.64710964138203
 10
58.01852479269428
 20
304.12029863955246
 10
53.18130226553458
 20
303.6266466871665
 10
48.34460743284176
 20
303.1677174438594
 10
43.50842300512047
 20
302.74507456926614
 10
38.672726254679006
 20
302.36028172302144
 10
33.8374887795804
 20
302.0149025647608
 10
29.002676267775882
 20
301.71050075411904
 10
24.168248261512133
 20
301.44863995073115
 10
19.334157922110702
 20
301.2308838142322
 10
14.500351795231643
 20
301.05879600425726
 10
9.666769576744109
 20
300.93394018044125
 10
4.833343879334853
 20
300.8578800024194
 10
0.0
 20
300.83217912982644
  0
TEXT
  5
36
330
17
100
AcDbEntity
  8
TEXT
100
AcDbText
 10
8.0
 20
589.421625264145
 30
0.0
 40
8.0
  1
Q02_SIDE_R_BATTING
100
AcDbText
  0
LINE
  5
37
330
17
100
AcDbEntity
  8
GRAIN
100
AcDbLine
 10
233.68250835789718
 20
43.07652274650059
 30
0.0
 11
233.68250835789718
 21
542.421625264145
 31
0.0
  0
CIRCLE
  5
38
330
17
100
AcDbEntity
  8
NOTCH
100
AcDbCircle
 10
0.0
 20
0.0
 30
0.0
 40
2.0
  0
CIRCLE
  5
39
330
17
100
AcDbEntity
  8
NOTCH
100
AcDbCircle
 10
467.36501671579435
 20
589.365142096334
 30
0.0
 40
2.0
  0
ENDSEC
  0
SECTION
  2
OBJECTS
  0
DICTIONARY
  5
A
330
0
100
AcDbDictionary
281
1
  3
ACAD_COLOR
350
B
  3
ACAD_GROUP
350
C
  3
ACAD_LAYOUT
350
D
  3
ACAD_MATERIAL
350
E
  3
ACAD_MLEADERSTYLE
350
F
  3
ACAD_MLINESTYLE
350
10
  3
ACAD_PLOTSETTINGS
350
11
  3
ACAD_PLOTSTYLENAME
350
12
  3
ACAD_SCALELIST
350
14
  3
ACAD_TABLESTYLE
350
15
  3
ACAD_VISUALSTYLE
350
16
  3
EZDXF_META
350
2D
  0
DICTIONARY
  5
B
330
A
100
AcDbDictionary
281
1
  0
DICTIONARY
  5
C
330
A
100
AcDbDictionary
281
1
  0
DICTIONARY
  5
D
330
A
100
AcDbDictionary
281
1
  3
Model
350
1A
  3
Layout1
350
1E
  0
DICTIONARY
  5
E
330
A
100
AcDbDictionary
281
1
  3
ByBlock
350
1F
  3
ByLayer
350
20
  3
Global
350
21
  0
DICTIONARY
  5
F
330
A
100
AcDbDictionary
281
1
  3
Standard
350
2C
  0
DICTIONARY
  5
10
330
A
100
AcDbDictionary
281
1
  3
Standard
350
22
  0
DICTIONARY
  5
11
330
A
100
AcDbDictionary
281
1
  0
ACDBDICTIONARYWDFLT
  5
12
330
A
100
AcDbDictionary
281
1
  3
Normal
350
13
100
AcDbDictionaryWithDefault
340
13
  0
ACDBPLACEHOLDER
  5
13
330
12
  0
DICTIONARY
  5
14
330
A
100
AcDbDictionary
281
1
  0
DICTIONARY
  5
15
330
A
100
AcDbDictionary
281
1
  0
DICTIONARY
  5
16
330
A
100
AcDbDictionary
281
1
  0
LAYOUT
  5
1A
330
D
100
AcDbPlotSettings
  1

  4
A3
  6

 40
7.5
 41
20.0
 42
7.5
 43
20.0
 44
420.0
 45
297.0
 46
0.0
 47
0.0
 48
0.0
 49
0.0
140
0.0
141
0.0
142
1.0
143
1.0
 70
1024
 72
1
 73
0
 74
5
  7

 75
16
 76
0
 77
2
 78
300
147
1.0
148
0.0
149
0.0
100
AcDbLayout
  1
Model
 70
1
 71
0
 10
0.0
 20
0.0
 11
420.0
 21
297.0
 12
0.0
 22
0.0
 32
0.0
 14
1e+20
 24
1e+20
 34
1e+20
 15
-1e+20
 25
-1e+20
 35
-1e+20
146
0.0
 13
0.0
 23
0.0
 33
0.0
 16
1.0
 26
0.0
 36
0.0
 17
0.0
 27
1.0
 37
0.0
 76
1
330
17
  0
LAYOUT
  5
1E
330
D
100
AcDbPlotSettings
  1

  4
A3
  6

 40
7.5
 41
20.0
 42
7.5
 43
20.0
 44
420.0
 45
297.0
 46
0.0
 47
0.0
 48
0.0
 49
0.0
140
0.0
141
0.0
142
1.0
143
1.0
 70
0
 72
1
 73
0
 74
5
  7

 75
16
 76
0
 77
2
 78
300
147
1.0
148
0.0
149
0.0
100
AcDbLayout
  1
Layout1
 70
1
 71
1
 10
0.0
 20
0.0
 11
420.0
 21
297.0
 12
0.0
 22
0.0
 32
0.0
 14
1e+20
 24
1e+20
 34
1e+20
 15
-1e+20
 25
-1e+20
 35
-1e+20
146
0.0
 13
0.0
 23
0.0
 33
0.0
 16
1.0
 26
0.0
 36
0.0
 17
0.0
 27
1.0
 37
0.0
 76
1
330
1B
  0
MATERIAL
  5
1F
102
{ACAD_REACTORS
330
E
102
}
330
E
100
AcDbMaterial
  1
ByBlock
  2

 70
0
 40
1.0
 71
1
 41
1.0
 91
-1023410177
 42
1.0
 72
1
  3

 73
1
 74
1
 75
1
 44
0.5
 73
0
 45
1.0
 46
1.0
 77
1
  4

 78
1
 79
1
170
1
 48
1.0
171
1
  6

172
1
173
1
174
1
140
1.0
141
1.0
175
1
  7

176
1
177
1
178
1
143
1.0
179
1
  8

270
1
271
1
272
1
145
1.0
146
1.0
273
1
  9

274
1
275
1
276
1
 42
1.0
 72
1
  3

 73
1
 74
1
 75
1
 94
63
  0
MATERIAL
  5
20
102
{ACAD_REACTORS
330
E
102
}
330
E
100
AcDbMaterial
  1
ByLayer
  2

 70
0
 40
1.0
 71
1
 41
1.0
 91
-1023410177
 42
1.0
 72
1
  3

 73
1
 74
1
 75
1
 44
0.5
 73
0
 45
1.0
 46
1.0
 77
1
  4

 78
1
 79
1
170
1
 48
1.0
171
1
  6

172
1
173
1
174
1
140
1.0
141
1.0
175
1
  7

176
1
177
1
178
1
143
1.0
179
1
  8

270
1
271
1
272
1
145
1.0
146
1.0
273
1
  9

274
1
275
1
276
1
 42
1.0
 72
1
  3

 73
1
 74
1
 75
1
 94
63
  0
MATERIAL
  5
21
102
{ACAD_REACTORS
330
E
102
}
330
E
100
AcDbMaterial
  1
Global
  2

 70
0
 40
1.0
 71
1
 41
1.0
 91
-1023410177
 42
1.0
 72
1
  3

 73
1
 74
1
 75
1
 44
0.5
 73
0
 45
1.0
 46
1.0
 77
1
  4

 78
1
 79
1
170
1
 48
1.0
171
1
  6

172
1
173
1
174
1
140
1.0
141
1.0
175
1
  7

176
1
177
1
178
1
143
1.0
179
1
  8

270
1
271
1
272
1
145
1.0
146
1.0
273
1
  9

274
1
275
1
276
1
 42
1.0
 72
1
  3

 73
1
 74
1
 75
1
 94
63
  0
MLINESTYLE
  5
22
102
{ACAD_REACTORS
330
10
102
}
330
10
100
AcDbMlineStyle
  2
Standard
 70
0
  3

 62
256
 51
90.0
 52
90.0
 71
2
 49
0.5
 62
256
  6
BYLAYER
 49
-0.5
 62
256
  6
BYLAYER
  0
MLEADERSTYLE
  5
2C
102
{ACAD_REACTORS
330
F
102
}
330
F
100
AcDbMLeaderStyle
179
2
170
2
171
1
172
0
 90
2
 40
0.0
 41
0.0
173
1
 91
-1056964608
 92
-2
290
1
 42
2.0
291
1
 43
8.0
  3
Standard
 44
4.0
300

342
29
174
1
175
1
176
0
178
1
 93
-1056964608
 45
4.0
292
0
297
0
 46
4.0
 94
-1056964608
 47
1.0
 49
1.0
140
1.0
294
1
141
0.0
177
0
142
1.0
295
0
296
0
143
3.75
271
0
272
9
273
9
  0
DICTIONARY
  5
2D
330
A
100
AcDbDictionary
280
1
281
1
  3
CREATED_BY_EZDXF
350
2E
  3
WRITTEN_BY_EZDXF
350
3C
  0
DICTIONARYVAR
  5
2E
330
2D
100
DictionaryVariables
280
0
  1
1.4.4 @ 2026-10-02T18:04:45.452314+00:00
  0
DICTIONARYVAR
  5
3C
330
2D
100
DictionaryVariables
280
0
  1
1.4.4 @ 2026-10-02T18:04:45.455328+00:00
  0
ENDSEC
  0
EOF
