<svg xmlns="http://www.w3.org/2000/svg" xmlns:inkscape="http://www.inkscape.org/namespaces/inkscape" width="2628.795mm" height="419.680mm" viewBox="0 0 2628.795 419.680"><title>L03 / lining / QTY 1</title>
<g id="CUT"><polygon points="20.880,399.680 20.000,328.663 152.246,216.341 265.531,120.125 378.403,70.412 492.863,20.000 646.539,43.225 797.049,65.971 947.629,95.988 1097.379,125.839 1246.977,141.228 1397.035,156.664 1547.407,169.534 1697.794,182.405 1873.975,194.868 2050.693,207.368 2214.726,231.397 2379.357,255.513 2490.189,292.318 2608.140,331.486 2608.795,388.331 2484.484,362.602 2375.456,340.036 2212.633,325.599 2049.400,311.125 1873.465,303.829 1697.190,296.520 1546.710,288.800 1396.222,281.079 1246.052,271.648 1095.582,262.199 945.021,243.374 795.010,224.617 645.047,210.532 497.145,196.640 387.877,227.824 277.728,259.260 166.663,319.980" fill="none" stroke="#151e25" stroke-width=".5"/></g>
<g id="SEW"><polygon points="32.632,379.579 160.906,309.451 273.146,248.088 384.584,216.285 496.021,184.482 646.169,198.584 796.316,212.687 946.510,231.466 1096.703,250.246 1246.804,259.672 1396.905,269.098 1547.325,276.815 1697.746,284.533 1873.962,291.840 2050.179,299.147 2213.693,313.646 2377.207,328.145 2486.916,350.851 2596.624,373.557 2596.239,340.178 2486.407,303.706 2376.575,267.234 2212.986,243.270 2049.398,219.306 1873.128,206.838 1696.858,194.369 1546.384,181.491 1395.910,168.612 1245.749,153.165 1095.588,137.718 945.284,107.756 794.979,77.794 644.746,55.090 494.513,32.386 383.240,81.394 271.967,130.402 160.015,225.488 32.069,334.156" fill="none" stroke="#36566b" stroke-width=".45" stroke-dasharray="4 2"/></g>
<circle cx="32.632" cy="379.579" r="1.5" stroke="#a13737" fill="none" stroke-width=".4"/>
<circle cx="160.906" cy="309.451" r="1.5" stroke="#a13737" fill="none" stroke-width=".4"/>
<circle cx="273.146" cy="248.088" r="1.5" stroke="#a13737" fill="none" stroke-width=".4"/>
<circle cx="384.584" cy="216.285" r="1.5" stroke="#a13737" fill="none" stroke-width=".4"/>
<circle cx="496.021" cy="184.482" r="1.5" stroke="#a13737" fill="none" stroke-width=".4"/>
<circle cx="646.169" cy="198.584" r="1.5" stroke="#a13737" fill="none" stroke-width=".4"/>
<circle cx="796.316" cy="212.687" r="1.5" stroke="#a13737" fill="none" stroke-width=".4"/>
<circle cx="946.510" cy="231.466" r="1.5" stroke="#a13737" fill="none" stroke-width=".4"/>
<circle cx="1096.703" cy="250.246" r="1.5" stroke="#a13737" fill="none" stroke-width=".4"/>
<circle cx="1246.804" cy="259.672" r="1.5" stroke="#a13737" fill="none" stroke-width=".4"/>
<circle cx="1396.905" cy="269.098" r="1.5" stroke="#a13737" fill="none" stroke-width=".4"/>
<circle cx="1547.325" cy="276.815" r="1.5" stroke="#a13737" fill="none" stroke-width=".4"/>
<circle cx="1697.746" cy="284.533" r="1.5" stroke="#a13737" fill="none" stroke-width=".4"/>
<circle cx="1873.962" cy="291.840" r="1.5" stroke="#a13737" fill="none" stroke-width=".4"/>
<circle cx="2050.179" cy="299.147" r="1.5" stroke="#a13737" fill="none" stroke-width=".4"/>
<circle cx="2213.693" cy="313.646" r="1.5" stroke="#a13737" fill="none" stroke-width=".4"/>
<circle cx="2377.207" cy="328.145" r="1.5" stroke="#a13737" fill="none" stroke-width=".4"/>
<circle cx="2486.916" cy="350.851" r="1.5" stroke="#a13737" fill="none" stroke-width=".4"/>
<circle cx="2596.624" cy="373.557" r="1.5" stroke="#a13737" fill="none" stroke-width=".4"/>
<circle cx="2596.239" cy="340.178" r="1.5" stroke="#a13737" fill="none" stroke-width=".4"/>
<circle cx="2486.407" cy="303.706" r="1.5" stroke="#a13737" fill="none" stroke-width=".4"/>
<circle cx="2376.575" cy="267.234" r="1.5" stroke="#a13737" fill="none" stroke-width=".4"/>
<circle cx="2212.986" cy="243.270" r="1.5" stroke="#a13737" fill="none" stroke-width=".4"/>
<circle cx="2049.398" cy="219.306" r="1.5" stroke="#a13737" fill="none" stroke-width=".4"/>
<circle cx="1873.128" cy="206.838" r="1.5" stroke="#a13737" fill="none" stroke-width=".4"/>
<circle cx="1696.858" cy="194.369" r="1.5" stroke="#a13737" fill="none" stroke-width=".4"/>
<circle cx="1546.384" cy="181.491" r="1.5" stroke="#a13737" fill="none" stroke-width=".4"/>
<circle cx="1395.910" cy="168.612" r="1.5" stroke="#a13737" fill="none" stroke-width=".4"/>
<circle cx="1245.749" cy="153.165" r="1.5" stroke="#a13737" fill="none" stroke-width=".4"/>
<circle cx="1095.588" cy="137.718" r="1.5" stroke="#a13737" fill="none" stroke-width=".4"/>
<circle cx="945.284" cy="107.756" r="1.5" stroke="#a13737" fill="none" stroke-width=".4"/>
<circle cx="794.979" cy="77.794" r="1.5" stroke="#a13737" fill="none" stroke-width=".4"/>
<circle cx="644.746" cy="55.090" r="1.5" stroke="#a13737" fill="none" stroke-width=".4"/>
<circle cx="494.513" cy="32.386" r="1.5" stroke="#a13737" fill="none" stroke-width=".4"/>
<circle cx="383.240" cy="81.394" r="1.5" stroke="#a13737" fill="none" stroke-width=".4"/>
<circle cx="271.967" cy="130.402" r="1.5" stroke="#a13737" fill="none" stroke-width=".4"/>
<circle cx="160.015" cy="225.488" r="1.5" stroke="#a13737" fill="none" stroke-width=".4"/>
<circle cx="32.069" cy="334.156" r="1.5" stroke="#a13737" fill="none" stroke-width=".4"/>
<text x="20" y="15" font-family="sans-serif" font-size="8">L03 / lining / QTY 1; SA 12 mm; 1:1</text>
<path d="M 657.199,209.840 H 1971.596" stroke="#29694d" stroke-width=".6"/><text x="920.078" y="204.840" font-family="sans-serif" font-size="7">GRAIN</text>
</svg>