  0
SECTION
  2
HEADER
  9
$ACADVER
  1
AC1024
  9
$ACADMAINTVER
 70
6
  9
$DWGCODEPAGE
  3
ANSI_1252
  9
$LASTSAVEDBY
  1
ezdxf
  9
$INSBASE
 10
0.0
 20
0.0
 30
0.0
  9
$EXTMIN
 10
1e+20
 20
1e+20
 30
1e+20
  9
$EXTMAX
 10
-1e+20
 20
-1e+20
 30
-1e+20
  9
$LIMMIN
 10
0.0
 20
0.0
  9
$LIMMAX
 10
420.0
 20
297.0
  9
$ORTHOMODE
 70
0
  9
$REGENMODE
 70
1
  9
$FILLMODE
 70
1
  9
$QTEXTMODE
 70
0
  9
$MIRRTEXT
 70
1
  9
$LTSCALE
 40
1.0
  9
$ATTMODE
 70
1
  9
$TEXTSIZE
 40
2.5
  9
$TRACEWID
 40
1.0
  9
$TEXTSTYLE
  7
Standard
  9
$CLAYER
  8
0
  9
$CELTYPE
  6
ByLayer
  9
$CECOLOR
 62
256
  9
$CELTSCALE
 40
1.0
  9
$DISPSILH
 70
0
  9
$DIMSCALE
 40
1.0
  9
$DIMASZ
 40
2.5
  9
$DIMEXO
 40
0.625
  9
$DIMDLI
 40
3.75
  9
$DIMRND
 40
0.0
  9
$DIMDLE
 40
0.0
  9
$DIMEXE
 40
1.25
  9
$DIMTP
 40
0.0
  9
$DIMTM
 40
0.0
  9
$DIMTXT
 40
2.5
  9
$DIMCEN
 40
2.5
  9
$DIMTSZ
 40
0.0
  9
$DIMTOL
 70
0
  9
$DIMLIM
 70
0
  9
$DIMTIH
 70
0
  9
$DIMTOH
 70
0
  9
$DIMSE1
 70
0
  9
$DIMSE2
 70
0
  9
$DIMTAD
 70
1
  9
$DIMZIN
 70
8
  9
$DIMBLK
  1

  9
$DIMASO
 70
1
  9
$DIMSHO
 70
1
  9
$DIMPOST
  1

  9
$DIMAPOST
  1

  9
$DIMALT
 70
0
  9
$DIMALTD
 70
3
  9
$DIMALTF
 40
0.03937007874
  9
$DIMLFAC
 40
1.0
  9
$DIMTOFL
 70
1
  9
$DIMTVP
 40
0.0
  9
$DIMTIX
 70
0
  9
$DIMSOXD
 70
0
  9
$DIMSAH
 70
0
  9
$DIMBLK1
  1

  9
$DIMBLK2
  1

  9
$DIMSTYLE
  2
ISO-25
  9
$DIMCLRD
 70
0
  9
$DIMCLRE
 70
0
  9
$DIMCLRT
 70
0
  9
$DIMTFAC
 40
1.0
  9
$DIMGAP
 40
0.625
  9
$DIMJUST
 70
0
  9
$DIMSD1
 70
0
  9
$DIMSD2
 70
0
  9
$DIMTOLJ
 70
0
  9
$DIMTZIN
 70
8
  9
$DIMALTZ
 70
0
  9
$DIMALTTZ
 70
0
  9
$DIMUPT
 70
0
  9
$DIMDEC
 70
2
  9
$DIMTDEC
 70
2
  9
$DIMALTU
 70
2
  9
$DIMALTTD
 70
3
  9
$DIMTXSTY
  7
Standard
  9
$DIMAUNIT
 70
0
  9
$DIMADEC
 70
0
  9
$DIMALTRND
 40
0.0
  9
$DIMAZIN
 70
0
  9
$DIMDSEP
 70
44
  9
$DIMATFIT
 70
3
  9
$DIMFRAC
 70
0
  9
$DIMLDRBLK
  1

  9
$DIMLUNIT
 70
2
  9
$DIMLWD
 70
-2
  9
$DIMLWE
 70
-2
  9
$DIMTMOVE
 70
0
  9
$DIMFXL
 40
1.0
  9
$DIMFXLON
 70
0
  9
$DIMJOGANG
 40
0.785398163397
  9
$DIMTFILL
 70
0
  9
$DIMTFILLCLR
 70
0
  9
$DIMARCSYM
 70
0
  9
$DIMLTYPE
  6

  9
$DIMLTEX1
  6

  9
$DIMLTEX2
  6

  9
$DIMTXTDIRECTION
 70
0
  9
$LUNITS
 70
2
  9
$LUPREC
 70
4
  9
$SKETCHINC
 40
1.0
  9
$FILLETRAD
 40
10.0
  9
$AUNITS
 70
0
  9
$AUPREC
 70
2
  9
$MENU
  1
.
  9
$ELEVATION
 40
0.0
  9
$PELEVATION
 40
0.0
  9
$THICKNESS
 40
0.0
  9
$LIMCHECK
 70
0
  9
$CHAMFERA
 40
0.0
  9
$CHAMFERB
 40
0.0
  9
$CHAMFERC
 40
0.0
  9
$CHAMFERD
 40
0.0
  9
$SKPOLY
 70
0
  9
$TDCREATE
 40
2461318.770162037
  9
$TDUCREATE
 40
2458532.153996898
  9
$TDUPDATE
 40
2461318.770162037
  9
$TDUUPDATE
 40
2458532.1544311
  9
$TDINDWG
 40
0.0
  9
$TDUSRTIMER
 40
0.0
  9
$USRTIMER
 70
1
  9
$ANGBASE
 50
0.0
  9
$ANGDIR
 70
0
  9
$PDMODE
 70
0
  9
$PDSIZE
 40
0.0
  9
$PLINEWID
 40
0.0
  9
$SPLFRAME
 70
0
  9
$SPLINETYPE
 70
6
  9
$SPLINESEGS
 70
8
  9
$HANDSEED
  5
BD
  9
$SURFTAB1
 70
6
  9
$SURFTAB2
 70
6
  9
$SURFTYPE
 70
6
  9
$SURFU
 70
6
  9
$SURFV
 70
6
  9
$UCSBASE
  2

  9
$UCSNAME
  2

  9
$UCSORG
 10
0.0
 20
0.0
 30
0.0
  9
$UCSXDIR
 10
1.0
 20
0.0
 30
0.0
  9
$UCSYDIR
 10
0.0
 20
1.0
 30
0.0
  9
$UCSORTHOREF
  2

  9
$UCSORTHOVIEW
 70
0
  9
$UCSORGTOP
 10
0.0
 20
0.0
 30
0.0
  9
$UCSORGBOTTOM
 10
0.0
 20
0.0
 30
0.0
  9
$UCSORGLEFT
 10
0.0
 20
0.0
 30
0.0
  9
$UCSORGRIGHT
 10
0.0
 20
0.0
 30
0.0
  9
$UCSORGFRONT
 10
0.0
 20
0.0
 30
0.0
  9
$UCSORGBACK
 10
0.0
 20
0.0
 30
0.0
  9
$PUCSBASE
  2

  9
$PUCSNAME
  2

  9
$PUCSORG
 10
0.0
 20
0.0
 30
0.0
  9
$PUCSXDIR
 10
1.0
 20
0.0
 30
0.0
  9
$PUCSYDIR
 10
0.0
 20
1.0
 30
0.0
  9
$PUCSORTHOREF
  2

  9
$PUCSORTHOVIEW
 70
0
  9
$PUCSORGTOP
 10
0.0
 20
0.0
 30
0.0
  9
$PUCSORGBOTTOM
 10
0.0
 20
0.0
 30
0.0
  9
$PUCSORGLEFT
 10
0.0
 20
0.0
 30
0.0
  9
$PUCSORGRIGHT
 10
0.0
 20
0.0
 30
0.0
  9
$PUCSORGFRONT
 10
0.0
 20
0.0
 30
0.0
  9
$PUCSORGBACK
 10
0.0
 20
0.0
 30
0.0
  9
$USERI1
 70
0
  9
$USERI2
 70
0
  9
$USERI3
 70
0
  9
$USERI4
 70
0
  9
$USERI5
 70
0
  9
$USERR1
 40
0.0
  9
$USERR2
 40
0.0
  9
$USERR3
 40
0.0
  9
$USERR4
 40
0.0
  9
$USERR5
 40
0.0
  9
$WORLDVIEW
 70
1
  9
$SHADEDGE
 70
3
  9
$SHADEDIF
 70
70
  9
$TILEMODE
 70
1
  9
$MAXACTVP
 70
64
  9
$PINSBASE
 10
0.0
 20
0.0
 30
0.0
  9
$PLIMCHECK
 70
0
  9
$PEXTMIN
 10
1e+20
 20
1e+20
 30
1e+20
  9
$PEXTMAX
 10
-1e+20
 20
-1e+20
 30
-1e+20
  9
$PLIMMIN
 10
0.0
 20
0.0
  9
$PLIMMAX
 10
420.0
 20
297.0
  9
$UNITMODE
 70
0
  9
$VISRETAIN
 70
1
  9
$PLINEGEN
 70
0
  9
$PSLTSCALE
 70
1
  9
$TREEDEPTH
 70
3020
  9
$CMLSTYLE
  2
Standard
  9
$CMLJUST
 70
0
  9
$CMLSCALE
 40
20.0
  9
$PROXYGRAPHICS
 70
1
  9
$MEASUREMENT
 70
1
  9
$CELWEIGHT
370
-1
  9
$ENDCAPS
280
0
  9
$JOINSTYLE
280
0
  9
$LWDISPLAY
290
0
  9
$INSUNITS
 70
4
  9
$HYPERLINKBASE
  1

  9
$STYLESHEET
  1

  9
$XEDIT
290
1
  9
$CEPSNTYPE
380
0
  9
$PSTYLEMODE
290
1
  9
$FINGERPRINTGUID
  2
{70204A2F-66AA-4084-B042-D77760CB7720}
  9
$VERSIONGUID
  2
{CD37E143-B50A-474F-860F-B67027B14523}
  9
$EXTNAMES
290
1
  9
$PSVPSCALE
 40
0.0
  9
$OLESTARTUP
290
0
  9
$SORTENTS
280
127
  9
$INDEXCTL
280
0
  9
$HIDETEXT
280
1
  9
$XCLIPFRAME
280
1
  9
$HALOGAP
280
0
  9
$OBSCOLOR
 70
257
  9
$OBSLTYPE
280
0
  9
$INTERSECTIONDISPLAY
280
0
  9
$INTERSECTIONCOLOR
 70
257
  9
$DIMASSOC
280
2
  9
$PROJECTNAME
  1

  9
$CAMERADISPLAY
290
0
  9
$LENSLENGTH
 40
50.0
  9
$CAMERAHEIGHT
 40
0.0
  9
$STEPSPERSEC
 40
24.0
  9
$STEPSIZE
 40
100.0
  9
$3DDWFPREC
 40
2.0
  9
$PSOLWIDTH
 40
0.005
  9
$PSOLHEIGHT
 40
0.08
  9
$LOFTANG1
 40
1.570796326795
  9
$LOFTANG2
 40
1.570796326795
  9
$LOFTMAG1
 40
0.0
  9
$LOFTMAG2
 40
0.0
  9
$LOFTPARAM
 70
7
  9
$LOFTNORMALS
280
1
  9
$LATITUDE
 40
37.795
  9
$LONGITUDE
 40
-122.394
  9
$NORTHDIRECTION
 40
0.0
  9
$TIMEZONE
 70
-8000
  9
$LIGHTGLYPHDISPLAY
280
1
  9
$TILEMODELIGHTSYNCH
280
1
  9
$CMATERIAL
347
20
  9
$SOLIDHIST
280
0
  9
$SHOWHIST
280
1
  9
$DWFFRAME
280
2
  9
$DGNFRAME
280
2
  9
$REALWORLDSCALE
290
1
  9
$INTERFERECOLOR
 62
256
  9
$CSHADOW
280
0
  9
$SHADOWPLANELOCATION
 40
0.0
  0
ENDSEC
  0
SECTION
  2
CLASSES
  0
CLASS
  1
ACDBDICTIONARYWDFLT
  2
AcDbDictionaryWithDefault
  3
ObjectDBX Classes
 90
0
 91
0
280
0
281
0
  0
CLASS
  1
SUN
  2
AcDbSun
  3
SCENEOE
 90
1153
 91
0
280
0
281
0
  0
CLASS
  1
VISUALSTYLE
  2
AcDbVisualStyle
  3
ObjectDBX Classes
 90
4095
 91
0
280
0
281
0
  0
CLASS
  1
MATERIAL
  2
AcDbMaterial
  3
ObjectDBX Classes
 90
1153
 91
0
280
0
281
0
  0
CLASS
  1
SCALE
  2
AcDbScale
  3
ObjectDBX Classes
 90
1153
 91
0
280
0
281
0
  0
CLASS
  1
TABLESTYLE
  2
AcDbTableStyle
  3
ObjectDBX Classes
 90
4095
 91
0
280
0
281
0
  0
CLASS
  1
MLEADERSTYLE
  2
AcDbMLeaderStyle
  3
ACDB_MLEADERSTYLE_CLASS
 90
4095
 91
0
280
0
281
0
  0
CLASS
  1
DICTIONARYVAR
  2
AcDbDictionaryVar
  3
ObjectDBX Classes
 90
0
 91
0
280
0
281
0
  0
CLASS
  1
CELLSTYLEMAP
  2
AcDbCellStyleMap
  3
ObjectDBX Classes
 90
1152
 91
0
280
0
281
0
  0
CLASS
  1
MENTALRAYRENDERSETTINGS
  2
AcDbMentalRayRenderSettings
  3
SCENEOE
 90
1024
 91
0
280
0
281
0
  0
CLASS
  1
ACDBDETAILVIEWSTYLE
  2
AcDbDetailViewStyle
  3
ObjectDBX Classes
 90
1025
 91
0
280
0
281
0
  0
CLASS
  1
ACDBSECTIONVIEWSTYLE
  2
AcDbSectionViewStyle
  3
ObjectDBX Classes
 90
1025
 91
0
280
0
281
0
  0
CLASS
  1
RASTERVARIABLES
  2
AcDbRasterVariables
  3
ISM
 90
0
 91
0
280
0
281
0
  0
CLASS
  1
LAYOUT
  2
AcDbLayout
  3
ObjectDBX Classes
 90
0
 91
0
280
0
281
0
  0
CLASS
  1
ACDBPLACEHOLDER
  2
AcDbPlaceHolder
  3
ObjectDBX Classes
 90
0
 91
0
280
0
281
0
  0
ENDSEC
  0
SECTION
  2
TABLES
  0
TABLE
  2
VPORT
  5
8
330
0
100
AcDbSymbolTable
 70
1
  0
VPORT
  5
23
330
8
100
AcDbSymbolTableRecord
100
AcDbViewportTableRecord
  2
*Active
 70
0
 10
0.0
 20
0.0
 11
1.0
 21
1.0
 12
0.0
 22
0.0
 13
0.0
 23
0.0
 14
0.5
 24
0.5
 15
0.5
 25
0.5
 16
0.0
 26
0.0
 36
1.0
 17
0.0
 27
0.0
 37
0.0
 40
1000.0
 41
1.34
 42
50.0
 43
0.0
 44
0.0
 50
0.0
 51
0.0
 71
0
 72
1000
 73
1
 74
3
 75
0
 76
0
 77
0
 78
0
281
0
 65
0
146
0.0
  0
ENDTAB
  0
TABLE
  2
LTYPE
  5
2
330
0
100
AcDbSymbolTable
 70
3
  0
LTYPE
  5
24
330
2
100
AcDbSymbolTableRecord
100
AcDbLinetypeTableRecord
  2
ByBlock
 70
0
  3

 72
65
 73
0
 40
0.0
  0
LTYPE
  5
25
330
2
100
AcDbSymbolTableRecord
100
AcDbLinetypeTableRecord
  2
ByLayer
 70
0
  3

 72
65
 73
0
 40
0.0
  0
LTYPE
  5
26
330
2
100
AcDbSymbolTableRecord
100
AcDbLinetypeTableRecord
  2
Continuous
 70
0
  3

 72
65
 73
0
 40
0.0
  0
ENDTAB
  0
TABLE
  2
LAYER
  5
1
330
0
100
AcDbSymbolTable
 70
8
  0
LAYER
  5
27
330
1
100
AcDbSymbolTableRecord
100
AcDbLayerTableRecord
  2
0
 70
0
 62
7
  6
Continuous
370
-3
390
13
347
21
  0
LAYER
  5
28
330
1
100
AcDbSymbolTableRecord
100
AcDbLayerTableRecord
  2
Defpoints
 70
0
 62
7
  6
Continuous
290
0
370
-3
390
13
347
21
  0
LAYER
  5
2F
330
1
100
AcDbSymbolTableRecord
100
AcDbLayerTableRecord
  2
CUT
 70
0
 62
1
  6
Continuous
370
-3
390
13
347
21
  0
LAYER
  5
30
330
1
100
AcDbSymbolTableRecord
100
AcDbLayerTableRecord
  2
SEW
 70
0
 62
5
  6
Continuous
370
-3
390
13
347
21
  0
LAYER
  5
31
330
1
100
AcDbSymbolTableRecord
100
AcDbLayerTableRecord
  2
GRAIN
 70
0
 62
3
  6
Continuous
370
-3
390
13
347
21
  0
LAYER
  5
32
330
1
100
AcDbSymbolTableRecord
100
AcDbLayerTableRecord
  2
NOTCH
 70
0
 62
2
  6
Continuous
370
-3
390
13
347
21
  0
LAYER
  5
33
330
1
100
AcDbSymbolTableRecord
100
AcDbLayerTableRecord
  2
LABEL
 70
0
 62
7
  6
Continuous
370
-3
390
13
347
21
  0
LAYER
  5
34
330
1
100
AcDbSymbolTableRecord
100
AcDbLayerTableRecord
  2
ATTACHMENT
 70
0
 62
4
  6
Continuous
370
-3
390
13
347
21
  0
ENDTAB
  0
TABLE
  2
STYLE
  5
5
330
0
100
AcDbSymbolTable
 70
1
  0
STYLE
  5
29
330
5
100
AcDbSymbolTableRecord
100
AcDbTextStyleTableRecord
  2
Standard
 70
0
 40
0.0
 41
1.0
 50
0.0
 71
0
 42
2.5
  3
txt
  4

  0
ENDTAB
  0
TABLE
  2
VIEW
  5
7
330
0
100
AcDbSymbolTable
 70
0
  0
ENDTAB
  0
TABLE
  2
UCS
  5
6
330
0
100
AcDbSymbolTable
 70
0
  0
ENDTAB
  0
TABLE
  2
APPID
  5
3
330
0
100
AcDbSymbolTable
 70
3
  0
APPID
  5
2A
330
3
100
AcDbSymbolTableRecord
100
AcDbRegAppTableRecord
  2
ACAD
 70
0
  0
APPID
  5
BA
330
3
100
AcDbSymbolTableRecord
100
AcDbRegAppTableRecord
  2
HATCHBACKGROUNDCOLOR
 70
0
  0
APPID
  5
BB
330
3
100
AcDbSymbolTableRecord
100
AcDbRegAppTableRecord
  2
EZDXF
 70
0
  0
ENDTAB
  0
TABLE
  2
DIMSTYLE
  5
4
330
0
100
AcDbSymbolTable
 70
1
100
AcDbDimStyleTable
  0
DIMSTYLE
105
2B
330
4
100
AcDbSymbolTableRecord
100
AcDbDimStyleTableRecord
  2
Standard
 70
0
 40
1.0
 41
2.5
 42
0.625
 43
3.75
 44
1.25
 45
0.0
 46
0.0
 47
0.0
 48
0.0
 49
2.5
140
2.5
141
2.5
142
0.0
143
0.03937007874
144
1.0
145
0.0
146
1.0
147
0.625
148
0.0
 69
0
 70
0
 71
0
 72
0
 73
0
 74
0
 75
0
 76
0
 77
1
 78
8
 79
3
170
0
171
3
172
1
173
0
174
0
175
0
176
0
177
0
178
0
179
2
271
2
272
2
273
2
274
3
275
0
276
0
277
2
278
44
279
0
280
0
281
0
282
0
283
0
284
8
285
0
286
0
288
0
289
3
290
0
371
-2
372
-2
  0
ENDTAB
  0
TABLE
  2
BLOCK_RECORD
  5
9
330
0
100
AcDbSymbolTable
 70
2
  0
BLOCK_RECORD
  5
17
330
9
100
AcDbSymbolTableRecord
100
AcDbBlockTableRecord
  2
*Model_Space
340
1A
 70
0
280
1
281
0
  0
BLOCK_RECORD
  5
1B
330
9
100
AcDbSymbolTableRecord
100
AcDbBlockTableRecord
  2
*Paper_Space
340
1E
 70
0
280
1
281
0
  0
ENDTAB
  0
ENDSEC
  0
SECTION
  2
BLOCKS
  0
BLOCK
  5
18
330
17
100
AcDbEntity
  8
0
100
AcDbBlockBegin
  2
*Model_Space
 70
0
 10
0.0
 20
0.0
 30
0.0
  3
*Model_Space
  1

  0
ENDBLK
  5
19
330
17
100
AcDbEntity
  8
0
100
AcDbBlockEnd
  0
BLOCK
  5
1C
330
1B
100
AcDbEntity
  8
0
100
AcDbBlockBegin
  2
*Paper_Space
 70
0
 10
0.0
 20
0.0
 30
0.0
  3
*Paper_Space
  1

  0
ENDBLK
  5
1D
330
1B
100
AcDbEntity
  8
0
100
AcDbBlockEnd
  0
ENDSEC
  0
SECTION
  2
ENTITIES
  0
LWPOLYLINE
  5
35
330
17
100
AcDbEntity
  8
CUT
100
AcDbPolyline
 90
200
 70
1
 10
-12.000000000000107
 20
11.999999999999897
 10
49.64157871432919
 20
12.000000000000439
 10
97.81213033236898
 20
12.000000000000876
 10
144.46616531389503
 20
12.000000000001291
 10
189.2764187681776
 20
12.000000000001696
 10
232.0881407807137
 20
12.000000000002094
 10
273.3889515161649
 20
12.000000000002489
 10
315.0616557985413
 20
12.0000000000029
 10
356.07574320565425
 20
12.000000000003313
 10
395.83786420400685
 20
12.00000000000372
 10
433.2722469268913
 20
12.000000000004095
 10
467.0418641026672
 20
12.000000000004421
 10
497.52149893349684
 20
12.0000000000047
 10
524.9822258932943
 20
12.000000000004947
 10
551.7249680939609
 20
12.000000000005171
 10
578.1061299575681
 20
12.0000000000054
 10
603.7894747702381
 20
12.000000000005619
 10
628.5505985264635
 20
12.000000000005832
 10
652.4913024530287
 20
12.000000000006057
 10
675.7311231608621
 20
12.000000000006205
 10
698.865949756501
 20
12.000000000006404
 10
722.537639761626
 20
12.000000000006622
 10
746.9123106598607
 20
12.000000000006793
 10
772.0728136728397
 20
12.000000000007002
 10
797.8778040962376
 20
12.000000000007244
 10
823.9345329612406
 20
12.000000000007462
 10
849.8456274810184
 20
12.000000000007692
 10
875.4677162129329
 20
12.000000000007866
 10
900.8962435799492
 20
12.000000000008047
 10
926.4411905919444
 20
12.000000000008239
 10
952.2303482021468
 20
12.000000000008415
 10
978.2045784142482
 20
12.000000000008619
 10
1004.8880500158167
 20
12.000000000008816
 10
1031.055071998879
 20
12.000000000009
 10
1056.1537493320382
 20
12.000000000009237
 10
1091.657933612224
 20
12.000000000009555
 10
1133.5984776442842
 20
12.000000000009937
 10
1174.6457545347112
 20
12.0000000000103
 10
1207.7678717943295
 20
12.000000000010589
 10
1231.5764499817142
 20
12.000000000010791
 10
1254.7077631130273
 20
12.000000000010921
 10
1277.8390762443405
 20
12.000000000011049
 10
1300.9703899440249
 20
12.000000000011186
 10
1324.1017081660011
 20
12.000000000011294
 10
1347.2340793158176
 20
12.000000000011408
 10
1370.3803390361186
 20
12.000000000011523
 10
1393.5363474747103
 20
12.000000000011646
 10
1416.720262624276
 20
12.000000000011683
 10
1439.9238620739745
 20
12.000000000011624
 10
1463.1423510237237
 20
12.000000000011577
 10
1486.3767721227762
 20
12.000000000011529
 10
1509.6125681365845
 20
12.000000000011484
 10
1532.8528616808535
 20
12.000000000011443
 10
1556.0826045677798
 20
12.00000000001131
 10
1579.3009568719685
 20
12.00000000001119
 10
1602.519177757374
 20
12.000000000011045
 10
1625.7402572815715
 20
12.000000000010902
 10
1648.9644448878087
 20
12.000000000010749
 10
1672.1951701716541
 20
12.00000000001053
 10
1695.432020474807
 20
12.000000000010305
 10
1718.6760736133601
 20
12.000000000010095
 10
1741.9278582452728
 20
12.00000000000988
 10
1765.1884321368943
 20
12.000000000009662
 10
1788.4587219464688
 20
12.00000000000944
 10
1811.739678096462
 20
12.000000000009221
 10
1835.0329036626574
 20
12.00000000000901
 10
1858.339024331578
 20
12.000000000008797
 10
1881.6568014987392
 20
12.000000000008571
 10
1904.987495672095
 20
12.000000000008356
 10
1928.331785048888
 20
12.000000000008143
 10
1951.689232572981
 20
12.000000000007839
 10
1975.0650703352107
 20
12.00000000000754
 10
1998.4645707151042
 20
12.000000000007239
 10
2021.8901531933034
 20
12.000000000006924
 10
2045.3486964230885
 20
12.00000000000663
 10
2068.8443561074228
 20
12.000000000006237
 10
2092.3834904881514
 20
12.000000000005937
 10
2115.973079427108
 20
12.000000000005643
 10
2139.6205166821446
 20
12.000000000005334
 10
2163.330228018246
 20
12.000000000005043
 10
2187.120329066211
 20
12.00000000000474
 10
2211.027989568562
 20
12.000000000004423
 10
2235.076394182419
 20
12.000000000004118
 10
2259.28911026324
 20
12.000000000003798
 10
2283.7110366382653
 20
12.000000000003478
 10
2308.361521881145
 20
12.000000000002975
 10
2333.276830879636
 20
12.000000000002474
 10
2358.5047904038493
 20
12.000000000001949
 10
2384.04828241017
 20
12.000000000001604
 10
2409.9820419402536
 20
12.000000000001258
 10
2436.45713213104
 20
12.00000000000092
 10
2463.5375746963377
 20
12.000000000000563
 10
2491.675580781159
 20
12.000000000000405
 10
2521.508254934173
 20
12.000000000000227
 10
2553.3973083196765
 20
12.000000000000052
 10
2587.2932139527798
 20
11.999999999999842
 10
2624.2006609899227
 20
11.999999999999899
 10
2668.8257127702427
 20
11.999999999999963
 10
2728.5649679690105
 20
12.000000000000066
 10
2813.419317490598
 20
12.000000000000203
 10
2813.419317490598
 20
-73.9999999999998
 10
2728.5649679690105
 20
-73.99999999999993
 10
2668.8257127702427
 20
-74.00000000000003
 10
2624.2006609899227
 20
-74.00000000000011
 10
2587.2932139527798
 20
-74.00000000000017
 10
2553.397308319676
 20
-73.99999999999996
 10
2521.5082549341723
 20
-73.99999999999976
 10
2491.6755807811587
 20
-73.9999999999996
 10
2463.5375746963373
 20
-73.99999999999943
 10
2436.457132131039
 20
-73.99999999999909
 10
2409.9820419402527
 20
-73.99999999999875
 10
2384.048282410169
 20
-73.9999999999984
 10
2358.504790403848
 20
-73.99999999999805
 10
2333.2768308796335
 20
-73.99999999999753
 10
2308.361521881143
 20
-73.99999999999702
 10
2283.7110366382635
 20
-73.99999999999652
 10
2259.2891102632393
 20
-73.99999999999619
 10
2235.076394182418
 20
-73.99999999999588
 10
2211.027989568561
 20
-73.99999999999557
 10
2187.12032906621
 20
-73.99999999999525
 10
2163.330228018245
 20
-73.99999999999494
 10
2139.6205166821437
 20
-73.99999999999466
 10
2115.973079427107
 20
-73.99999999999436
 10
2092.3834904881505
 20
-73.99999999999406
 10
2068.844356107422
 20
-73.99999999999376
 10
2045.348696423087
 20
-73.99999999999336
 10
2021.890153193302
 20
-73.99999999999307
 10
1998.4645707151028
 20
-73.99999999999278
 10
1975.0650703352094
 20
-73.99999999999245
 10
1951.6892325729796
 20
-73.99999999999216
 10
1928.3317850488868
 20
-73.99999999999186
 10
1904.9874956720944
 20
-73.99999999999164
 10
1881.6568014987383
 20
-73.99999999999143
 10
1858.339024331577
 20
-73.9999999999912
 10
1835.0329036626567
 20
-73.99999999999099
 10
1811.7396780964614
 20
-73.99999999999079
 10
1788.458721946468
 20
-73.99999999999056
 10
1765.1884321368937
 20
-73.99999999999034
 10
1741.927858245272
 20
-73.99999999999012
 10
1718.6760736133594
 20
-73.99999999998991
 10
1695.432020474806
 20
-73.99999999998968
 10
1672.1951701716532
 20
-73.99999999998947
 10
1648.964444887808
 20
-73.99999999998926
 10
1625.740257281571
 20
-73.99999999998911
 10
1602.5191777573737
 20
-73.99999999998897
 10
1579.300956871968
 20
-73.9999999999888
 10
1556.0826045677793
 20
-73.99999999998869
 10
1532.852861680853
 20
-73.99999999998857
 10
1509.6125681365843
 20
-73.99999999998852
 10
1486.376772122776
 20
-73.99999999998846
 10
1463.1423510237234
 20
-73.99999999998842
 10
1439.9238620739743
 20
-73.99999999998838
 10
1416.7202626242758
 20
-73.99999999998832
 10
1393.5363474747103
 20
-73.99999999998835
 10
1370.3803390361188
 20
-73.99999999998847
 10
1347.2340793158178
 20
-73.99999999998859
 10
1324.1017081660013
 20
-73.9999999999887
 10
1300.970389944025
 20
-73.99999999998883
 10
1277.8390762443407
 20
-73.99999999998894
 10
1231.5764499817144
 20
-73.9999999999892
 10
1207.76787179433
 20
-73.99999999998943
 10
1174.6457545347116
 20
-73.99999999998971
 10
1133.5984776442847
 20
-73.99999999999005
 10
1091.6579336122245
 20
-73.99999999999044
 10
1056.1537493320386
 20
-73.99999999999076
 10
1031.0550719988794
 20
-73.99999999999099
 10
1004.8880500158174
 20
-73.99999999999118
 10
978.2045784142489
 20
-73.99999999999139
 10
952.2303482021475
 20
-73.99999999999159
 10
926.4411905919451
 20
-73.99999999999176
 10
900.8962435799499
 20
-73.99999999999194
 10
875.4677162129336
 20
-73.99999999999214
 10
849.845627481019
 20
-73.99999999999231
 10
823.9345329612414
 20
-73.99999999999254
 10
797.8778040962384
 20
-73.99999999999277
 10
772.0728136728405
 20
-73.999999999993
 10
746.9123106598615
 20
-73.99999999999321
 10
722.5376397616267
 20
-73.99999999999338
 10
698.8659497565018
 20
-73.99999999999359
 10
675.7311231608629
 20
-73.9999999999938
 10
652.4913024530293
 20
-73.99999999999395
 10
628.5505985264643
 20
-73.99999999999416
 10
603.7894747702389
 20
-73.99999999999439
 10
578.1061299575689
 20
-73.9999999999946
 10
551.7249680939617
 20
-73.99999999999483
 10
524.9822258932951
 20
-73.99999999999505
 10
497.52149893349764
 20
-73.99999999999531
 10
467.041864102668
 20
-73.99999999999557
 10
433.27224692689214
 20
-73.99999999999591
 10
395.8378642040077
 20
-73.99999999999628
 10
356.0757432056551
 20
-73.99999999999669
 10
315.0616557985422
 20
-73.9999999999971
 10
273.3889515161658
 20
-73.99999999999753
 10
232.08814078071453
 20
-73.9999999999979
 10
189.2764187681784
 20
-73.9999999999983
 10
144.46616531389583
 20
-73.9999999999987
 10
97.81213033236976
 20
-73.99999999999912
 10
49.64157871432996
 20
-73.99999999999957
 10
-11.99999999999934
 20
-74.0000000000001
 10
-12.000000000000107
 20
11.999999999999897
  0
LWPOLYLINE
  5
36
330
17
100
AcDbEntity
  8
SEW
100
AcDbPolyline
 90
200
 70
1
 10
0.0
 20
0.0
 10
49.6415787143293
 20
4.3661082467126277e-13
 10
97.8121303323691
 20
8.747354990775286e-13
 10
144.46616531389515
 20
1.2919633054331621e-12
 10
189.2764187681777
 20
1.6963694604459767e-12
 10
232.08814078071381
 20
2.093904667763197e-12
 10
273.38895151616504
 20
2.48952603330287e-12
 10
315.06165579854144
 20
2.900412474655847e-12
 10
356.07574320565436
 20
3.3121396898208078e-12
 10
395.83786420400696
 20
3.7188573438484055e-12
 10
433.2722469268914
 20
4.095289222554502e-12
 10
467.0418641026673
 20
4.420917808420443e-12
 10
497.52149893349696
 20
4.700832321444729e-12
 10
524.9822258932944
 20
4.946414056763103e-12
 10
551.724968093961
 20
5.170905573123851e-12
 10
578.1061299575682
 20
5.399498105242555e-12
 10
603.7894747702383
 20
5.618182730589098e-12
 10
628.5505985264637
 20
5.8322872351229834e-12
 10
652.4913024530288
 20
6.057391298282261e-12
 10
675.7311231608622
 20
6.204274913660836e-12
 10
698.8659497565011
 20
6.403835415793587e-12
 10
722.5376397616261
 20
6.622866365658896e-12
 10
746.9123106598609
 20
6.792487306546529e-12
 10
772.0728136728399
 20
7.002828831686363e-12
 10
797.8778040962377
 20
7.2446052398164444e-12
 10
823.9345329612407
 20
7.46296172757178e-12
 10
849.8456274810185
 20
7.691017757006991e-12
 10
875.467716212933
 20
7.865839720334368e-12
 10
900.8962435799493
 20
8.04662022134175e-12
 10
926.4411905919445
 20
8.239230343305266e-12
 10
952.230348202147
 20
8.415240059076333e-12
 10
978.2045784142483
 20
8.618236743626137e-12
 10
1004.8880500158168
 20
8.815273726988068e-12
 10
1031.055071998879
 20
9.00130445050158e-12
 10
1056.1537493320382
 20
9.236764288985387e-12
 10
1091.657933612224
 20
9.554278796134315e-12
 10
1133.5984776442842
 20
9.936688409673788e-12
 10
1174.6457545347112
 20
1.0300107568356138e-11
 10
1207.7678717943295
 20
1.058898457605627e-11
 10
1231.5764499817142
 20
1.0790903132469948e-11
 10
1254.7077631130273
 20
1.0920271617137615e-11
 10
1277.8390762443405
 20
1.1049640101805284e-11
 10
1300.9703899440249
 20
1.1186343224163223e-11
 10
1324.1017081660011
 20
1.1293707831612546e-11
 10
1347.2340793158176
 20
1.1408412628684141e-11
 10
1370.3803390361186
 20
1.1523190697675808e-11
 10
1393.5363474747103
 20
1.1645354832664393e-11
 10
1416.720262624276
 20
1.1682643420892574e-11
 10
1439.9238620739745
 20
1.1623866754205913e-11
 10
1463.1423510237237
 20
1.1576061383036587e-11
 10
1486.3767721227762
 20
1.1528223208599461e-11
 10
1509.6125681365845
 20
1.1484049520647393e-11
 10
1532.8528616808535
 20
1.1443533889916052e-11
 10
1556.0826045677798
 20
1.1310514508586893e-11
 10
1579.3009568719685
 20
1.1188562304652133e-11
 10
1602.519177757374
 20
1.1044606949179401e-11
 10
1625.7402572815715
 20
1.0900635224418153e-11
 10
1648.9644448878087
 20
1.0749311067301558e-11
 10
1672.1951701716541
 20
1.0531091618728923e-11
 10
1695.4320204748067
 20
1.0305479999665776e-11
 10
1718.6760736133601
 20
1.0094469989646146e-11
 10
1741.9278582452728
 20
9.879720035955094e-12
 10
1765.1884321368943
 20
9.66122020239017e-12
 10
1788.4587219464686
 20
9.438961784322113e-12
 10
1811.739678096462
 20
9.220270488582492e-12
 10
1835.0329036626574
 20
9.008798573912275e-12
 10
1858.339024331578
 20
8.79720552818947e-12
 10
1881.656801498739
 20
8.570833716948818e-12
 10
1904.987495672095
 20
8.35534252094137e-12
 10
1928.331785048888
 20
8.143390934782022e-12
 10
1951.6892325729807
 20
7.838321939490605e-12
 10
1975.0650703352105
 20
7.540347386058797e-12
 10
1998.464570715104
 20
7.238396460492967e-12
 10
2021.8901531933031
 20
6.925102927536831e-12
 10
2045.3486964230883
 20
6.629715484640349e-12
 10
2068.8443561074228
 20
6.236675275554851e-12
 10
2092.3834904881514
 20
5.936567923353463e-12
 10
2115.973079427108
 20
5.643136224532979e-12
 10
2139.6205166821446
 20
5.334279705978474e-12
 10
2163.330228018246
 20
5.042946419383927e-12
 10
2187.120329066211
 20
4.739561219765923e-12
 10
2211.027989568562
 20
4.423638637297558e-12
 10
2235.076394182419
 20
4.116879763854736e-12
 10
2259.28911026324
 20
3.796972884783071e-12
 10
2283.7110366382653
 20
3.4780008509328445e-12
 10
2308.3615218811447
 20
2.9752413311836276e-12
 10
2333.2768308796353
 20
2.474415227331552e-12
 10
2358.504790403849
 20
1.9488758660026055e-12
 10
2384.04828241017
 20
1.6042532375377369e-12
 10
2409.9820419402536
 20
1.2582006861810591e-12
 10
2436.45713213104
 20
9.197471453273966e-13
 10
2463.5375746963377
 20
5.623852131516895e-13
 10
2491.675580781159
 20
4.0492719306018874e-13
 10
2521.508254934173
 20
2.2676312308179527e-13
 10
2553.3973083196765
 20
5.149297505335296e-14
 10
2587.2932139527798
 20
-1.5727282044551203e-13
 10
2624.2006609899227
 20
-1.0157887002261886e-13
 10
2668.8257127702427
 20
-3.7139381587908975e-14
 10
2728.5649679690105
 20
6.627878661375015e-14
 10
2801.419317490598
 20
1.8345639973114914e-13
 10
2801.419317490598
 20
-61.999999999999815
 10
2728.5649679690105
 20
-61.99999999999993
 10
2668.8257127702427
 20
-62.000000000000036
 10
2624.2006609899227
 20
-62.00000000000011
 10
2587.2932139527798
 20
-62.00000000000017
 10
2553.397308319676
 20
-61.99999999999996
 10
2521.5082549341723
 20
-61.99999999999976
 10
2491.6755807811587
 20
-61.999999999999595
 10
2463.5375746963373
 20
-61.99999999999944
 10
2436.457132131039
 20
-61.99999999999908
 10
2409.9820419402527
 20
-61.99999999999874
 10
2384.048282410169
 20
-61.999999999998394
 10
2358.504790403848
 20
-61.99999999999805
 10
2333.276830879634
 20
-61.99999999999752
 10
2308.3615218811433
 20
-61.99999999999702
 10
2283.711036638264
 20
-61.99999999999652
 10
2259.2891102632393
 20
-61.9999999999962
 10
2235.076394182418
 20
-61.999999999995886
 10
2211.027989568561
 20
-61.999999999995566
 10
2187.12032906621
 20
-61.99999999999526
 10
2163.330228018245
 20
-61.99999999999495
 10
2139.6205166821437
 20
-61.99999999999466
 10
2115.973079427107
 20
-61.99999999999436
 10
2092.3834904881505
 20
-61.99999999999405
 10
2068.844356107422
 20
-61.99999999999376
 10
2045.3486964230872
 20
-61.99999999999336
 10
2021.8901531933022
 20
-61.999999999993065
 10
1998.464570715103
 20
-61.999999999992774
 10
1975.0650703352096
 20
-61.999999999992454
 10
1951.6892325729798
 20
-61.99999999999216
 10
1928.331785048887
 20
-61.99999999999186
 10
1904.9874956720944
 20
-61.99999999999164
 10
1881.6568014987383
 20
-61.99999999999143
 10
1858.3390243315773
 20
-61.9999999999912
 10
1835.0329036626567
 20
-61.99999999999098
 10
1811.7396780964614
 20
-61.999999999990784
 10
1788.458721946468
 20
-61.999999999990564
 10
1765.1884321368937
 20
-61.999999999990344
 10
1741.927858245272
 20
-61.99999999999012
 10
1718.6760736133594
 20
-61.9999999999899
 10
1695.432020474806
 20
-61.99999999998969
 10
1672.1951701716534
 20
-61.99999999998947
 10
1648.964444887808
 20
-61.99999999998926
 10
1625.740257281571
 20
-61.99999999998911
 10
1602.5191777573737
 20
-61.999999999988965
 10
1579.300956871968
 20
-61.99999999998881
 10
1556.0826045677793
 20
-61.99999999998869
 10
1532.852861680853
 20
-61.99999999998857
 10
1509.6125681365843
 20
-61.99999999998852
 10
1486.376772122776
 20
-61.99999999998847
 10
1463.1423510237234
 20
-61.99999999998842
 10
1439.9238620739743
 20
-61.999999999988376
 10
1416.7202626242758
 20
-61.999999999988326
 10
1393.5363474747103
 20
-61.999999999988354
 10
1370.3803390361188
 20
-61.999999999988475
 10
1347.2340793158178
 20
-61.99999999998859
 10
1324.1017081660013
 20
-61.9999999999887
 10
1300.970389944025
 20
-61.99999999998882
 10
1277.8390762443407
 20
-61.999999999988944
 10
1254.7077631130276
 20
-61.99999999998907
 10
1231.5764499817144
 20
-61.9999999999892
 10
1207.76787179433
 20
-61.99999999998942
 10
1174.6457545347116
 20
-61.99999999998971
 10
1133.5984776442847
 20
-61.99999999999006
 10
1091.6579336122245
 20
-61.999999999990436
 10
1056.1537493320386
 20
-61.99999999999076
 10
1031.0550719988794
 20
-61.99999999999099
 10
1004.8880500158173
 20
-61.999999999991175
 10
978.2045784142488
 20
-61.99999999999138
 10
952.2303482021474
 20
-61.99999999999158
 10
926.441190591945
 20
-61.99999999999176
 10
900.8962435799498
 20
-61.99999999999194
 10
875.4677162129335
 20
-61.99999999999214
 10
849.8456274810189
 20
-61.99999999999231
 10
823.9345329612413
 20
-61.99999999999254
 10
797.8778040962383
 20
-61.99999999999277
 10
772.0728136728404
 20
-61.999999999992994
 10
746.9123106598614
 20
-61.999999999993214
 10
722.5376397616266
 20
-61.999999999993385
 10
698.8659497565017
 20
-61.99999999999359
 10
675.7311231608628
 20
-61.999999999993804
 10
652.4913024530292
 20
-61.99999999999395
 10
628.5505985264642
 20
-61.99999999999416
 10
603.7894747702388
 20
-61.99999999999439
 10
578.1061299575688
 20
-61.9999999999946
 10
551.7249680939616
 20
-61.999999999994834
 10
524.982225893295
 20
-61.99999999999506
 10
497.5214989334975
 20
-61.99999999999531
 10
467.0418641026679
 20
-61.99999999999557
 10
433.272246926892
 20
-61.999999999995914
 10
395.8378642040076
 20
-61.99999999999628
 10
356.075743205655
 20
-61.99999999999669
 10
315.06165579854206
 20
-61.999999999997094
 10
273.38895151616566
 20
-61.99999999999752
 10
232.0881407807144
 20
-61.9999999999979
 10
189.27641876817827
 20
-61.999999999998295
 10
144.46616531389571
 20
-61.99999999999871
 10
97.81213033236965
 20
-61.999999999999126
 10
49.64157871432985
 20
-61.99999999999957
 10
5.544670252914344e-13
 20
-62.0
  0
LINE
  5
37
330
17
100
AcDbEntity
  8
GRAIN
100
AcDbLine
 10
1360.7096587452993
 20
-30.99999999999424
 30
0.0
 11
1440.7096587452993
 21
-30.99999999999424
 31
0.0
  0
LINE
  5
38
330
17
100
AcDbEntity
  8
GRAIN
100
AcDbLine
 10
1440.7096587452993
 20
-30.99999999999424
 30
0.0
 11
1435.7096587452993
 21
-27.99999999999424
 31
0.0
  0
TEXT
  5
39
330
17
100
AcDbEntity
  8
LABEL
100
AcDbText
 10
1400.7096587452993
 20
-30.99999999999424
 30
0.0
 40
6.0
  1
F08_EDGE_RIGHT
100
AcDbText
  0
CIRCLE
  5
3A
330
17
100
AcDbEntity
  8
NOTCH
100
AcDbCircle
 10
1289.4047330941826
 20
1.1117991662984253e-11
 30
0.0
 40
1.0
  0
TEXT
  5
3B
330
17
100
AcDbEntity
  8
LABEL
100
AcDbText
 10
1291.4047330941826
 20
2.0000000000111178
 30
0.0
 40
3.0
  1
J0770
100
AcDbText
  0
CIRCLE
  5
3C
330
17
100
AcDbEntity
  8
NOTCH
100
AcDbCircle
 10
1335.6678937409092
 20
1.1351060230148343e-11
 30
0.0
 40
1.0
  0
TEXT
  5
3D
330
17
100
AcDbEntity
  8
LABEL
100
AcDbText
 10
1337.6678937409092
 20
2.000000000011351
 30
0.0
 40
3.0
  1
J0770
100
AcDbText
  0
CIRCLE
  5
3E
330
17
100
AcDbEntity
  8
NOTCH
100
AcDbCircle
 10
1428.3220623491252
 20
1.1653255087549243e-11
 30
0.0
 40
1.0
  0
TEXT
  5
3F
330
17
100
AcDbEntity
  8
LABEL
100
AcDbText
 10
1430.3220623491252
 20
2.0000000000116533
 30
0.0
 40
3.0
  1
J0770
100
AcDbText
  0
CIRCLE
  5
40
330
17
100
AcDbEntity
  8
NOTCH
100
AcDbCircle
 10
1521.2327149087191
 20
1.1463791705281722e-11
 30
0.0
 40
1.0
  0
TEXT
  5
41
330
17
100
AcDbEntity
  8
LABEL
100
AcDbText
 10
1523.2327149087191
 20
2.0000000000114637
 30
0.0
 40
3.0
  1
J0770
100
AcDbText
  0
CIRCLE
  5
42
330
17
100
AcDbEntity
  8
NOTCH
100
AcDbCircle
 10
1567.6917807198743
 20
1.1249538406619513e-11
 30
0.0
 40
1.0
  0
TEXT
  5
43
330
17
100
AcDbEntity
  8
LABEL
100
AcDbText
 10
1569.6917807198743
 20
2.0000000000112497
 30
0.0
 40
3.0
  1
J0770
100
AcDbText
  0
CIRCLE
  5
44
330
17
100
AcDbEntity
  8
NOTCH
100
AcDbCircle
 10
1660.5798075297314
 20
1.0640201343015241e-11
 30
0.0
 40
1.0
  0
TEXT
  5
45
330
17
100
AcDbEntity
  8
LABEL
100
AcDbText
 10
1662.5798075297314
 20
2.0000000000106404
 30
0.0
 40
3.0
  1
J0770
100
AcDbText
  0
CIRCLE
  5
46
330
17
100
AcDbEntity
  8
NOTCH
100
AcDbCircle
 10
1753.5581451910834
 20
9.770470119172632e-12
 30
0.0
 40
1.0
  0
TEXT
  5
47
330
17
100
AcDbEntity
  8
LABEL
100
AcDbText
 10
1755.5581451910834
 20
2.0000000000097704
 30
0.0
 40
3.0
  1
J0770
100
AcDbText
  0
CIRCLE
  5
48
330
17
100
AcDbEntity
  8
NOTCH
100
AcDbCircle
 10
1800.0992000214653
 20
9.329616136452302e-12
 30
0.0
 40
1.0
  0
TEXT
  5
49
330
17
100
AcDbEntity
  8
LABEL
100
AcDbText
 10
1802.0992000214653
 20
2.0000000000093294
 30
0.0
 40
3.0
  1
J0770
100
AcDbText
  0
CIRCLE
  5
4A
330
17
100
AcDbEntity
  8
NOTCH
100
AcDbCircle
 10
1893.322148585417
 20
8.463088118945093e-12
 30
0.0
 40
1.0
  0
TEXT
  5
4B
330
17
100
AcDbEntity
  8
LABEL
100
AcDbText
 10
1895.322148585417
 20
2.000000000008463
 30
0.0
 40
3.0
  1
J0770
100
AcDbText
  0
CIRCLE
  5
4C
330
17
100
AcDbEntity
  8
NOTCH
100
AcDbCircle
 10
1986.7648205251571
 20
7.389371923275883e-12
 30
0.0
 40
1.0
  0
TEXT
  5
4D
330
17
100
AcDbEntity
  8
LABEL
100
AcDbText
 10
1988.7648205251571
 20
2.000000000007389
 30
0.0
 40
3.0
  1
J0770
100
AcDbText
  0
CIRCLE
  5
4E
330
17
100
AcDbEntity
  8
NOTCH
100
AcDbCircle
 10
2033.6194248081956
 20
6.777409206088591e-12
 30
0.0
 40
1.0
  0
TEXT
  5
4F
330
17
100
AcDbEntity
  8
LABEL
100
AcDbText
 10
2035.6194248081956
 20
2.0000000000067772
 30
0.0
 40
3.0
  1
J0770
100
AcDbText
  0
CIRCLE
  5
50
330
17
100
AcDbEntity
  8
NOTCH
100
AcDbCircle
 10
2127.7967980546264
 20
5.488707965255727e-12
 30
0.0
 40
1.0
  0
TEXT
  5
51
330
17
100
AcDbEntity
  8
LABEL
100
AcDbText
 10
2129.7967980546264
 20
2.0000000000054885
 30
0.0
 40
3.0
  1
J0770
100
AcDbText
  0
CIRCLE
  5
52
330
17
100
AcDbEntity
  8
NOTCH
100
AcDbCircle
 10
2223.0521918754903
 20
4.270259200576147e-12
 30
0.0
 40
1.0
  0
TEXT
  5
53
330
17
100
AcDbEntity
  8
LABEL
100
AcDbText
 10
2225.0521918754903
 20
2.0000000000042704
 30
0.0
 40
3.0
  1
J0770
100
AcDbText
  0
CIRCLE
  5
54
330
17
100
AcDbEntity
  8
NOTCH
100
AcDbCircle
 10
2271.500073450753
 20
3.6374868678579577e-12
 30
0.0
 40
1.0
  0
TEXT
  5
55
330
17
100
AcDbEntity
  8
LABEL
100
AcDbText
 10
2273.500073450753
 20
2.0000000000036375
 30
0.0
 40
3.0
  1
J0770
100
AcDbText
  0
CIRCLE
  5
56
330
17
100
AcDbEntity
  8
NOTCH
100
AcDbCircle
 10
2371.276536407009
 20
1.7765645517701712e-12
 30
0.0
 40
1.0
  0
TEXT
  5
57
330
17
100
AcDbEntity
  8
LABEL
100
AcDbText
 10
2373.276536407009
 20
2.0000000000017764
 30
0.0
 40
3.0
  1
J0770
100
AcDbText
  0
CIRCLE
  5
58
330
17
100
AcDbEntity
  8
NOTCH
100
AcDbCircle
 10
2449.997353413689
 20
7.410661792395431e-13
 30
0.0
 40
1.0
  0
TEXT
  5
59
330
17
100
AcDbEntity
  8
LABEL
100
AcDbText
 10
2451.997353413689
 20
2.000000000000741
 30
0.0
 40
3.0
  1
J0770
100
AcDbText
  0
CIRCLE
  5
5A
330
17
100
AcDbEntity
  8
NOTCH
100
AcDbCircle
 10
2506.591917857666
 20
3.15845158070992e-13
 30
0.0
 40
1.0
  0
TEXT
  5
5B
330
17
100
AcDbEntity
  8
LABEL
100
AcDbText
 10
2508.591917857666
 20
2.0000000000003157
 30
0.0
 40
3.0
  1
J0770
100
AcDbText
  0
CIRCLE
  5
5C
330
17
100
AcDbEntity
  8
NOTCH
100
AcDbCircle
 10
2605.746937471351
 20
-1.2942584523406545e-13
 30
0.0
 40
1.0
  0
TEXT
  5
5D
330
17
100
AcDbEntity
  8
LABEL
100
AcDbText
 10
2607.746937471351
 20
1.9999999999998705
 30
0.0
 40
3.0
  1
J0770
100
AcDbText
  0
CIRCLE
  5
5E
330
17
100
AcDbEntity
  8
NOTCH
100
AcDbCircle
 10
2698.6953403696266
 20
1.456970251292059e-14
 30
0.0
 40
1.0
  0
TEXT
  5
5F
330
17
100
AcDbEntity
  8
LABEL
100
AcDbText
 10
2700.6953403696266
 20
2.0000000000000147
 30
0.0
 40
3.0
  1
J0770
100
AcDbText
  0
CIRCLE
  5
60
330
17
100
AcDbEntity
  8
NOTCH
100
AcDbCircle
 10
375.9568037048307
 20
3.5154985168346066e-12
 30
0.0
 40
1.0
  0
TEXT
  5
61
330
17
100
AcDbEntity
  8
LABEL
100
AcDbText
 10
377.9568037048307
 20
2.0000000000035154
 30
0.0
 40
3.0
  1
J0770
100
AcDbText
  0
CIRCLE
  5
62
330
17
100
AcDbEntity
  8
NOTCH
100
AcDbCircle
 10
450.15705551477936
 20
4.258103515487473e-12
 30
0.0
 40
1.0
  0
TEXT
  5
63
330
17
100
AcDbEntity
  8
LABEL
100
AcDbText
 10
452.15705551477936
 20
2.000000000004258
 30
0.0
 40
3.0
  1
J0770
100
AcDbText
  0
CIRCLE
  5
64
330
17
100
AcDbEntity
  8
NOTCH
100
AcDbCircle
 10
538.3535969936277
 20
5.058659814943477e-12
 30
0.0
 40
1.0
  0
TEXT
  5
65
330
17
100
AcDbEntity
  8
LABEL
100
AcDbText
 10
540.3535969936277
 20
2.0000000000050586
 30
0.0
 40
3.0
  1
J0770
100
AcDbText
  0
CIRCLE
  5
66
330
17
100
AcDbEntity
  8
NOTCH
100
AcDbCircle
 10
616.170036648351
 20
5.72523498285604e-12
 30
0.0
 40
1.0
  0
TEXT
  5
67
330
17
100
AcDbEntity
  8
LABEL
100
AcDbText
 10
618.170036648351
 20
2.000000000005725
 30
0.0
 40
3.0
  1
J0770
100
AcDbText
  0
CIRCLE
  5
68
330
17
100
AcDbEntity
  8
NOTCH
100
AcDbCircle
 10
710.7017947590637
 20
6.5133508907262415e-12
 30
0.0
 40
1.0
  0
TEXT
  5
69
330
17
100
AcDbEntity
  8
LABEL
100
AcDbText
 10
712.7017947590637
 20
2.0000000000065135
 30
0.0
 40
3.0
  1
J0770
100
AcDbText
  0
CIRCLE
  5
6A
330
17
100
AcDbEntity
  8
NOTCH
100
AcDbCircle
 10
759.4925621663504
 20
6.8976580691164465e-12
 30
0.0
 40
1.0
  0
TEXT
  5
6B
330
17
100
AcDbEntity
  8
LABEL
100
AcDbText
 10
761.4925621663504
 20
2.0000000000068976
 30
0.0
 40
3.0
  1
J0770
100
AcDbText
  0
CIRCLE
  5
6C
330
17
100
AcDbEntity
  8
NOTCH
100
AcDbCircle
 10
836.8900802211297
 20
7.576989742289384e-12
 30
0.0
 40
1.0
  0
TEXT
  5
6D
330
17
100
AcDbEntity
  8
LABEL
100
AcDbText
 10
838.8900802211297
 20
2.000000000007577
 30
0.0
 40
3.0
  1
J0770
100
AcDbText
  0
CIRCLE
  5
6E
330
17
100
AcDbEntity
  8
NOTCH
100
AcDbCircle
 10
913.6687170859469
 20
8.142925282323508e-12
 30
0.0
 40
1.0
  0
TEXT
  5
6F
330
17
100
AcDbEntity
  8
LABEL
100
AcDbText
 10
915.6687170859469
 20
2.000000000008143
 30
0.0
 40
3.0
  1
J0770
100
AcDbText
  0
CIRCLE
  5
70
330
17
100
AcDbEntity
  8
NOTCH
100
AcDbCircle
 10
991.5463142150326
 20
8.716755235307104e-12
 30
0.0
 40
1.0
  0
TEXT
  5
71
330
17
100
AcDbEntity
  8
LABEL
100
AcDbText
 10
993.5463142150326
 20
2.0000000000087166
 30
0.0
 40
3.0
  1
J0770
100
AcDbText
  0
CIRCLE
  5
72
330
17
100
AcDbEntity
  8
NOTCH
100
AcDbCircle
 10
1043.6044106654585
 20
9.119034369743483e-12
 30
0.0
 40
1.0
  0
TEXT
  5
73
330
17
100
AcDbEntity
  8
LABEL
100
AcDbText
 10
1045.6044106654585
 20
2.000000000009119
 30
0.0
 40
3.0
  1
J0770
100
AcDbText
  0
CIRCLE
  5
74
330
17
100
AcDbEntity
  8
NOTCH
100
AcDbCircle
 10
1154.1221160894977
 20
1.0118397989014963e-11
 30
0.0
 40
1.0
  0
TEXT
  5
75
330
17
100
AcDbEntity
  8
LABEL
100
AcDbText
 10
1156.1221160894977
 20
2.0000000000101186
 30
0.0
 40
3.0
  1
J0770
100
AcDbText
  0
CIRCLE
  5
76
330
17
100
AcDbEntity
  8
NOTCH
100
AcDbCircle
 10
1243.1421065473708
 20
1.0855587374803782e-11
 30
0.0
 40
1.0
  0
TEXT
  5
77
330
17
100
AcDbEntity
  8
LABEL
100
AcDbText
 10
1245.1421065473708
 20
2.0000000000108558
 30
0.0
 40
3.0
  1
J0770
100
AcDbText
  0
CIRCLE
  5
78
330
17
100
AcDbEntity
  8
NOTCH
100
AcDbCircle
 10
1289.404733094183
 20
-61.99999999998889
 30
0.0
 40
1.0
  0
TEXT
  5
79
330
17
100
AcDbEntity
  8
LABEL
100
AcDbText
 10
1291.404733094183
 20
-59.99999999998889
 30
0.0
 40
3.0
  1
J0776
100
AcDbText
  0
CIRCLE
  5
7A
330
17
100
AcDbEntity
  8
NOTCH
100
AcDbCircle
 10
1335.6678937409097
 20
-61.999999999988646
 30
0.0
 40
1.0
  0
TEXT
  5
7B
330
17
100
AcDbEntity
  8
LABEL
100
AcDbText
 10
1337.6678937409097
 20
-59.999999999988646
 30
0.0
 40
3.0
  1
J0776
100
AcDbText
  0
CIRCLE
  5
7C
330
17
100
AcDbEntity
  8
NOTCH
100
AcDbCircle
 10
1428.3220623491252
 20
-61.99999999998835
 30
0.0
 40
1.0
  0
TEXT
  5
7D
330
17
100
AcDbEntity
  8
LABEL
100
AcDbText
 10
1430.3220623491252
 20
-59.99999999998835
 30
0.0
 40
3.0
  1
J0776
100
AcDbText
  0
CIRCLE
  5
7E
330
17
100
AcDbEntity
  8
NOTCH
100
AcDbCircle
 10
1521.2327149087187
 20
-61.999999999988546
 30
0.0
 40
1.0
  0
TEXT
  5
7F
330
17
100
AcDbEntity
  8
LABEL
100
AcDbText
 10
1523.2327149087187
 20
-59.999999999988546
 30
0.0
 40
3.0
  1
J0776
100
AcDbText
  0
CIRCLE
  5
80
330
17
100
AcDbEntity
  8
NOTCH
100
AcDbCircle
 10
1567.6917807198738
 20
-61.999999999988745
 30
0.0
 40
1.0
  0
TEXT
  5
81
330
17
100
AcDbEntity
  8
LABEL
100
AcDbText
 10
1569.6917807198738
 20
-59.999999999988745
 30
0.0
 40
3.0
  1
J0776
100
AcDbText
  0
CIRCLE
  5
82
330
17
100
AcDbEntity
  8
NOTCH
100
AcDbCircle
 10
1660.5798075297307
 20
-61.99999999998936
 30
0.0
 40
1.0
  0
TEXT
  5
83
330
17
100
AcDbEntity
  8
LABEL
100
AcDbText
 10
1662.5798075297307
 20
-59.99999999998936
 30
0.0
 40
3.0
  1
J0776
100
AcDbText
  0
CIRCLE
  5
84
330
17
100
AcDbEntity
  8
NOTCH
100
AcDbCircle
 10
1753.558145191083
 20
-61.99999999999024
 30
0.0
 40
1.0
  0
TEXT
  5
85
330
17
100
AcDbEntity
  8
LABEL
100
AcDbText
 10
1755.558145191083
 20
-59.99999999999024
 30
0.0
 40
3.0
  1
J0776
100
AcDbText
  0
CIRCLE
  5
86
330
17
100
AcDbEntity
  8
NOTCH
100
AcDbCircle
 10
1800.0992000214646
 20
-61.99999999999068
 30
0.0
 40
1.0
  0
TEXT
  5
87
330
17
100
AcDbEntity
  8
LABEL
100
AcDbText
 10
1802.0992000214646
 20
-59.99999999999068
 30
0.0
 40
3.0
  1
J0776
100
AcDbText
  0
CIRCLE
  5
88
330
17
100
AcDbEntity
  8
NOTCH
100
AcDbCircle
 10
1893.3221485854165
 20
-61.99999999999153
 30
0.0
 40
1.0
  0
TEXT
  5
89
330
17
100
AcDbEntity
  8
LABEL
100
AcDbText
 10
1895.3221485854165
 20
-59.99999999999153
 30
0.0
 40
3.0
  1
J0776
100
AcDbText
  0
CIRCLE
  5
8A
330
17
100
AcDbEntity
  8
NOTCH
100
AcDbCircle
 10
1986.7648205251562
 20
-61.99999999999261
 30
0.0
 40
1.0
  0
TEXT
  5
8B
330
17
100
AcDbEntity
  8
LABEL
100
AcDbText
 10
1988.7648205251562
 20
-59.99999999999261
 30
0.0
 40
3.0
  1
J0776
100
AcDbText
  0
CIRCLE
  5
8C
330
17
100
AcDbEntity
  8
NOTCH
100
AcDbCircle
 10
2033.6194248081947
 20
-61.999999999993214
 30
0.0
 40
1.0
  0
TEXT
  5
8D
330
17
100
AcDbEntity
  8
LABEL
100
AcDbText
 10
2035.6194248081947
 20
-59.999999999993214
 30
0.0
 40
3.0
  1
J0776
100
AcDbText
  0
CIRCLE
  5
8E
330
17
100
AcDbEntity
  8
NOTCH
100
AcDbCircle
 10
2127.7967980546255
 20
-61.99999999999451
 30
0.0
 40
1.0
  0
TEXT
  5
8F
330
17
100
AcDbEntity
  8
LABEL
100
AcDbText
 10
2129.7967980546255
 20
-59.99999999999451
 30
0.0
 40
3.0
  1
J0776
100
AcDbText
  0
CIRCLE
  5
90
330
17
100
AcDbEntity
  8
NOTCH
100
AcDbCircle
 10
2223.0521918754894
 20
-61.99999999999572
 30
0.0
 40
1.0
  0
TEXT
  5
91
330
17
100
AcDbEntity
  8
LABEL
100
AcDbText
 10
2225.0521918754894
 20
-59.99999999999572
 30
0.0
 40
3.0
  1
J0776
100
AcDbText
  0
CIRCLE
  5
92
330
17
100
AcDbEntity
  8
NOTCH
100
AcDbCircle
 10
2271.5000734507516
 20
-61.99999999999636
 30
0.0
 40
1.0
  0
TEXT
  5
93
330
17
100
AcDbEntity
  8
LABEL
100
AcDbText
 10
2273.5000734507516
 20
-59.99999999999636
 30
0.0
 40
3.0
  1
J0776
100
AcDbText
  0
CIRCLE
  5
94
330
17
100
AcDbEntity
  8
NOTCH
100
AcDbCircle
 10
2371.2765364070083
 20
-61.999999999998224
 30
0.0
 40
1.0
  0
TEXT
  5
95
330
17
100
AcDbEntity
  8
LABEL
100
AcDbText
 10
2373.2765364070083
 20
-59.999999999998224
 30
0.0
 40
3.0
  1
J0776
100
AcDbText
  0
CIRCLE
  5
96
330
17
100
AcDbEntity
  8
NOTCH
100
AcDbCircle
 10
2449.997353413688
 20
-61.99999999999926
 30
0.0
 40
1.0
  0
TEXT
  5
97
330
17
100
AcDbEntity
  8
LABEL
100
AcDbText
 10
2451.997353413688
 20
-59.99999999999926
 30
0.0
 40
3.0
  1
J0776
100
AcDbText
  0
CIRCLE
  5
98
330
17
100
AcDbEntity
  8
NOTCH
100
AcDbCircle
 10
2506.5919178576655
 20
-61.99999999999967
 30
0.0
 40
1.0
  0
TEXT
  5
99
330
17
100
AcDbEntity
  8
LABEL
100
AcDbText
 10
2508.5919178576655
 20
-59.99999999999967
 30
0.0
 40
3.0
  1
J0776
100
AcDbText
  0
CIRCLE
  5
9A
330
17
100
AcDbEntity
  8
NOTCH
100
AcDbCircle
 10
2605.746937471351
 20
-62.00000000000014
 30
0.0
 40
1.0
  0
TEXT
  5
9B
330
17
100
AcDbEntity
  8
LABEL
100
AcDbText
 10
2607.746937471351
 20
-60.00000000000014
 30
0.0
 40
3.0
  1
J0776
100
AcDbText
  0
CIRCLE
  5
9C
330
17
100
AcDbEntity
  8
NOTCH
100
AcDbCircle
 10
2698.6953403696266
 20
-61.999999999999986
 30
0.0
 40
1.0
  0
TEXT
  5
9D
330
17
100
AcDbEntity
  8
LABEL
100
AcDbText
 10
2700.6953403696266
 20
-59.999999999999986
 30
0.0
 40
3.0
  1
J0776
100
AcDbText
  0
CIRCLE
  5
9E
330
17
100
AcDbEntity
  8
NOTCH
100
AcDbCircle
 10
375.95680370483126
 20
-61.99999999999648
 30
0.0
 40
1.0
  0
TEXT
  5
9F
330
17
100
AcDbEntity
  8
LABEL
100
AcDbText
 10
377.95680370483126
 20
-59.99999999999648
 30
0.0
 40
3.0
  1
J0776
100
AcDbText
  0
CIRCLE
  5
A0
330
17
100
AcDbEntity
  8
NOTCH
100
AcDbCircle
 10
450.1570555147799
 20
-61.999999999995744
 30
0.0
 40
1.0
  0
TEXT
  5
A1
330
17
100
AcDbEntity
  8
LABEL
100
AcDbText
 10
452.1570555147799
 20
-59.999999999995744
 30
0.0
 40
3.0
  1
J0776
100
AcDbText
  0
CIRCLE
  5
A2
330
17
100
AcDbEntity
  8
NOTCH
100
AcDbCircle
 10
538.3535969936283
 20
-61.99999999999495
 30
0.0
 40
1.0
  0
TEXT
  5
A3
330
17
100
AcDbEntity
  8
LABEL
100
AcDbText
 10
540.3535969936283
 20
-59.99999999999495
 30
0.0
 40
3.0
  1
J0776
100
AcDbText
  0
CIRCLE
  5
A4
330
17
100
AcDbEntity
  8
NOTCH
100
AcDbCircle
 10
616.1700366483515
 20
-61.99999999999427
 30
0.0
 40
1.0
  0
TEXT
  5
A5
330
17
100
AcDbEntity
  8
LABEL
100
AcDbText
 10
618.1700366483515
 20
-59.99999999999427
 30
0.0
 40
3.0
  1
J0776
100
AcDbText
  0
CIRCLE
  5
A6
330
17
100
AcDbEntity
  8
NOTCH
100
AcDbCircle
 10
710.7017947590641
 20
-61.99999999999349
 30
0.0
 40
1.0
  0
TEXT
  5
A7
330
17
100
AcDbEntity
  8
LABEL
100
AcDbText
 10
712.7017947590641
 20
-59.99999999999349
 30
0.0
 40
3.0
  1
J0776
100
AcDbText
  0
CIRCLE
  5
A8
330
17
100
AcDbEntity
  8
NOTCH
100
AcDbCircle
 10
759.4925621663509
 20
-61.99999999999311
 30
0.0
 40
1.0
  0
TEXT
  5
A9
330
17
100
AcDbEntity
  8
LABEL
100
AcDbText
 10
761.4925621663509
 20
-59.99999999999311
 30
0.0
 40
3.0
  1
J0776
100
AcDbText
  0
CIRCLE
  5
AA
330
17
100
AcDbEntity
  8
NOTCH
100
AcDbCircle
 10
836.8900802211301
 20
-61.999999999992426
 30
0.0
 40
1.0
  0
TEXT
  5
AB
330
17
100
AcDbEntity
  8
LABEL
100
AcDbText
 10
838.8900802211301
 20
-59.999999999992426
 30
0.0
 40
3.0
  1
J0776
100
AcDbText
  0
CIRCLE
  5
AC
330
17
100
AcDbEntity
  8
NOTCH
100
AcDbCircle
 10
913.6687170859474
 20
-61.99999999999185
 30
0.0
 40
1.0
  0
TEXT
  5
AD
330
17
100
AcDbEntity
  8
LABEL
100
AcDbText
 10
915.6687170859474
 20
-59.99999999999185
 30
0.0
 40
3.0
  1
J0776
100
AcDbText
  0
CIRCLE
  5
AE
330
17
100
AcDbEntity
  8
NOTCH
100
AcDbCircle
 10
991.546314215033
 20
-61.999999999991275
 30
0.0
 40
1.0
  0
TEXT
  5
AF
330
17
100
AcDbEntity
  8
LABEL
100
AcDbText
 10
993.546314215033
 20
-59.999999999991275
 30
0.0
 40
3.0
  1
J0776
100
AcDbText
  0
CIRCLE
  5
B0
330
17
100
AcDbEntity
  8
NOTCH
100
AcDbCircle
 10
1043.604410665459
 20
-61.99999999999088
 30
0.0
 40
1.0
  0
TEXT
  5
B1
330
17
100
AcDbEntity
  8
LABEL
100
AcDbText
 10
1045.604410665459
 20
-59.99999999999088
 30
0.0
 40
3.0
  1
J0776
100
AcDbText
  0
CIRCLE
  5
B2
330
17
100
AcDbEntity
  8
NOTCH
100
AcDbCircle
 10
1154.1221160894981
 20
-61.99999999998988
 30
0.0
 40
1.0
  0
TEXT
  5
B3
330
17
100
AcDbEntity
  8
LABEL
100
AcDbText
 10
1156.1221160894981
 20
-59.99999999998988
 30
0.0
 40
3.0
  1
J0776
100
AcDbText
  0
CIRCLE
  5
B4
330
17
100
AcDbEntity
  8
NOTCH
100
AcDbCircle
 10
1243.142106547371
 20
-61.999999999989136
 30
0.0
 40
1.0
  0
TEXT
  5
B5
330
17
100
AcDbEntity
  8
LABEL
100
AcDbText
 10
1245.142106547371
 20
-59.999999999989136
 30
0.0
 40
3.0
  1
J0776
100
AcDbText
  0
CIRCLE
  5
B6
330
17
100
AcDbEntity
  8
NOTCH
100
AcDbCircle
 10
2801.419317490598
 20
-30.999999999999815
 30
0.0
 40
1.0
  0
TEXT
  5
B7
330
17
100
AcDbEntity
  8
LABEL
100
AcDbText
 10
2803.419317490598
 20
-28.999999999999815
 30
0.0
 40
3.0
  1
J0777
100
AcDbText
  0
CIRCLE
  5
B8
330
17
100
AcDbEntity
  8
NOTCH
100
AcDbCircle
 10
2.772335126457172e-13
 20
-31.0
 30
0.0
 40
1.0
  0
TEXT
  5
B9
330
17
100
AcDbEntity
  8
LABEL
100
AcDbText
 10
2.000000000000277
 20
-29.0
 30
0.0
 40
3.0
  1
J0778
100
AcDbText
  0
ENDSEC
  0
SECTION
  2
OBJECTS
  0
DICTIONARY
  5
A
330
0
100
AcDbDictionary
281
1
  3
ACAD_COLOR
350
B
  3
ACAD_GROUP
350
C
  3
ACAD_LAYOUT
350
D
  3
ACAD_MATERIAL
350
E
  3
ACAD_MLEADERSTYLE
350
F
  3
ACAD_MLINESTYLE
350
10
  3
ACAD_PLOTSETTINGS
350
11
  3
ACAD_PLOTSTYLENAME
350
12
  3
ACAD_SCALELIST
350
14
  3
ACAD_TABLESTYLE
350
15
  3
ACAD_VISUALSTYLE
350
16
  3
EZDXF_META
350
2D
  0
DICTIONARY
  5
B
330
A
100
AcDbDictionary
281
1
  0
DICTIONARY
  5
C
330
A
100
AcDbDictionary
281
1
  0
DICTIONARY
  5
D
330
A
100
AcDbDictionary
281
1
  3
Model
350
1A
  3
Layout1
350
1E
  0
DICTIONARY
  5
E
330
A
100
AcDbDictionary
281
1
  3
ByBlock
350
1F
  3
ByLayer
350
20
  3
Global
350
21
  0
DICTIONARY
  5
F
330
A
100
AcDbDictionary
281
1
  3
Standard
350
2C
  0
DICTIONARY
  5
10
330
A
100
AcDbDictionary
281
1
  3
Standard
350
22
  0
DICTIONARY
  5
11
330
A
100
AcDbDictionary
281
1
  0
ACDBDICTIONARYWDFLT
  5
12
330
A
100
AcDbDictionary
281
1
  3
Normal
350
13
100
AcDbDictionaryWithDefault
340
13
  0
ACDBPLACEHOLDER
  5
13
330
12
  0
DICTIONARY
  5
14
330
A
100
AcDbDictionary
281
1
  0
DICTIONARY
  5
15
330
A
100
AcDbDictionary
281
1
  0
DICTIONARY
  5
16
330
A
100
AcDbDictionary
281
1
  0
LAYOUT
  5
1A
330
D
100
AcDbPlotSettings
  1

  4
A3
  6

 40
7.5
 41
20.0
 42
7.5
 43
20.0
 44
420.0
 45
297.0
 46
0.0
 47
0.0
 48
0.0
 49
0.0
140
0.0
141
0.0
142
1.0
143
1.0
 70
1024
 72
1
 73
0
 74
5
  7

 75
16
 76
0
 77
2
 78
300
147
1.0
148
0.0
149
0.0
100
AcDbLayout
  1
Model
 70
1
 71
0
 10
0.0
 20
0.0
 11
420.0
 21
297.0
 12
0.0
 22
0.0
 32
0.0
 14
1e+20
 24
1e+20
 34
1e+20
 15
-1e+20
 25
-1e+20
 35
-1e+20
146
0.0
 13
0.0
 23
0.0
 33
0.0
 16
1.0
 26
0.0
 36
0.0
 17
0.0
 27
1.0
 37
0.0
 76
1
330
17
  0
LAYOUT
  5
1E
330
D
100
AcDbPlotSettings
  1

  4
A3
  6

 40
7.5
 41
20.0
 42
7.5
 43
20.0
 44
420.0
 45
297.0
 46
0.0
 47
0.0
 48
0.0
 49
0.0
140
0.0
141
0.0
142
1.0
143
1.0
 70
0
 72
1
 73
0
 74
5
  7

 75
16
 76
0
 77
2
 78
300
147
1.0
148
0.0
149
0.0
100
AcDbLayout
  1
Layout1
 70
1
 71
1
 10
0.0
 20
0.0
 11
420.0
 21
297.0
 12
0.0
 22
0.0
 32
0.0
 14
1e+20
 24
1e+20
 34
1e+20
 15
-1e+20
 25
-1e+20
 35
-1e+20
146
0.0
 13
0.0
 23
0.0
 33
0.0
 16
1.0
 26
0.0
 36
0.0
 17
0.0
 27
1.0
 37
0.0
 76
1
330
1B
  0
MATERIAL
  5
1F
102
{ACAD_REACTORS
330
E
102
}
330
E
100
AcDbMaterial
  1
ByBlock
  2

 70
0
 40
1.0
 71
1
 41
1.0
 91
-1023410177
 42
1.0
 72
1
  3

 73
1
 74
1
 75
1
 44
0.5
 73
0
 45
1.0
 46
1.0
 77
1
  4

 78
1
 79
1
170
1
 48
1.0
171
1
  6

172
1
173
1
174
1
140
1.0
141
1.0
175
1
  7

176
1
177
1
178
1
143
1.0
179
1
  8

270
1
271
1
272
1
145
1.0
146
1.0
273
1
  9

274
1
275
1
276
1
 42
1.0
 72
1
  3

 73
1
 74
1
 75
1
 94
63
  0
MATERIAL
  5
20
102
{ACAD_REACTORS
330
E
102
}
330
E
100
AcDbMaterial
  1
ByLayer
  2

 70
0
 40
1.0
 71
1
 41
1.0
 91
-1023410177
 42
1.0
 72
1
  3

 73
1
 74
1
 75
1
 44
0.5
 73
0
 45
1.0
 46
1.0
 77
1
  4

 78
1
 79
1
170
1
 48
1.0
171
1
  6

172
1
173
1
174
1
140
1.0
141
1.0
175
1
  7

176
1
177
1
178
1
143
1.0
179
1
  8

270
1
271
1
272
1
145
1.0
146
1.0
273
1
  9

274
1
275
1
276
1
 42
1.0
 72
1
  3

 73
1
 74
1
 75
1
 94
63
  0
MATERIAL
  5
21
102
{ACAD_REACTORS
330
E
102
}
330
E
100
AcDbMaterial
  1
Global
  2

 70
0
 40
1.0
 71
1
 41
1.0
 91
-1023410177
 42
1.0
 72
1
  3

 73
1
 74
1
 75
1
 44
0.5
 73
0
 45
1.0
 46
1.0
 77
1
  4

 78
1
 79
1
170
1
 48
1.0
171
1
  6

172
1
173
1
174
1
140
1.0
141
1.0
175
1
  7

176
1
177
1
178
1
143
1.0
179
1
  8

270
1
271
1
272
1
145
1.0
146
1.0
273
1
  9

274
1
275
1
276
1
 42
1.0
 72
1
  3

 73
1
 74
1
 75
1
 94
63
  0
MLINESTYLE
  5
22
102
{ACAD_REACTORS
330
10
102
}
330
10
100
AcDbMlineStyle
  2
Standard
 70
0
  3

 62
256
 51
90.0
 52
90.0
 71
2
 49
0.5
 62
256
  6
BYLAYER
 49
-0.5
 62
256
  6
BYLAYER
  0
MLEADERSTYLE
  5
2C
102
{ACAD_REACTORS
330
F
102
}
330
F
100
AcDbMLeaderStyle
179
2
170
2
171
1
172
0
 90
2
 40
0.0
 41
0.0
173
1
 91
-1056964608
 92
-2
290
1
 42
2.0
291
1
 43
8.0
  3
Standard
 44
4.0
300

342
29
174
1
175
1
176
0
178
1
 93
-1056964608
 45
4.0
292
0
297
0
 46
4.0
 94
-1056964608
 47
1.0
 49
1.0
140
1.0
294
1
141
0.0
177
0
142
1.0
295
0
296
0
143
3.75
271
0
272
9
273
9
  0
DICTIONARY
  5
2D
330
A
100
AcDbDictionary
280
1
281
1
  3
CREATED_BY_EZDXF
350
2E
  3
WRITTEN_BY_EZDXF
350
BC
  0
DICTIONARYVAR
  5
2E
330
2D
100
DictionaryVariables
280
0
  1
1.4.4 @ 2026-10-04T18:29:02.094700+00:00
  0
DICTIONARYVAR
  5
BC
330
2D
100
DictionaryVariables
280
0
  1
1.4.4 @ 2026-10-04T18:29:02.100120+00:00
  0
ENDSEC
  0
EOF
