  0
SECTION
  2
HEADER
  9
$ACADVER
  1
AC1024
  9
$ACADMAINTVER
 70
6
  9
$DWGCODEPAGE
  3
ANSI_1252
  9
$LASTSAVEDBY
  1
ezdxf
  9
$INSBASE
 10
0.0
 20
0.0
 30
0.0
  9
$EXTMIN
 10
1e+20
 20
1e+20
 30
1e+20
  9
$EXTMAX
 10
-1e+20
 20
-1e+20
 30
-1e+20
  9
$LIMMIN
 10
0.0
 20
0.0
  9
$LIMMAX
 10
420.0
 20
297.0
  9
$ORTHOMODE
 70
0
  9
$REGENMODE
 70
1
  9
$FILLMODE
 70
1
  9
$QTEXTMODE
 70
0
  9
$MIRRTEXT
 70
1
  9
$LTSCALE
 40
1.0
  9
$ATTMODE
 70
1
  9
$TEXTSIZE
 40
2.5
  9
$TRACEWID
 40
1.0
  9
$TEXTSTYLE
  7
Standard
  9
$CLAYER
  8
0
  9
$CELTYPE
  6
ByLayer
  9
$CECOLOR
 62
256
  9
$CELTSCALE
 40
1.0
  9
$DISPSILH
 70
0
  9
$DIMSCALE
 40
1.0
  9
$DIMASZ
 40
2.5
  9
$DIMEXO
 40
0.625
  9
$DIMDLI
 40
3.75
  9
$DIMRND
 40
0.0
  9
$DIMDLE
 40
0.0
  9
$DIMEXE
 40
1.25
  9
$DIMTP
 40
0.0
  9
$DIMTM
 40
0.0
  9
$DIMTXT
 40
2.5
  9
$DIMCEN
 40
2.5
  9
$DIMTSZ
 40
0.0
  9
$DIMTOL
 70
0
  9
$DIMLIM
 70
0
  9
$DIMTIH
 70
0
  9
$DIMTOH
 70
0
  9
$DIMSE1
 70
0
  9
$DIMSE2
 70
0
  9
$DIMTAD
 70
1
  9
$DIMZIN
 70
8
  9
$DIMBLK
  1

  9
$DIMASO
 70
1
  9
$DIMSHO
 70
1
  9
$DIMPOST
  1

  9
$DIMAPOST
  1

  9
$DIMALT
 70
0
  9
$DIMALTD
 70
3
  9
$DIMALTF
 40
0.03937007874
  9
$DIMLFAC
 40
1.0
  9
$DIMTOFL
 70
1
  9
$DIMTVP
 40
0.0
  9
$DIMTIX
 70
0
  9
$DIMSOXD
 70
0
  9
$DIMSAH
 70
0
  9
$DIMBLK1
  1

  9
$DIMBLK2
  1

  9
$DIMSTYLE
  2
ISO-25
  9
$DIMCLRD
 70
0
  9
$DIMCLRE
 70
0
  9
$DIMCLRT
 70
0
  9
$DIMTFAC
 40
1.0
  9
$DIMGAP
 40
0.625
  9
$DIMJUST
 70
0
  9
$DIMSD1
 70
0
  9
$DIMSD2
 70
0
  9
$DIMTOLJ
 70
0
  9
$DIMTZIN
 70
8
  9
$DIMALTZ
 70
0
  9
$DIMALTTZ
 70
0
  9
$DIMUPT
 70
0
  9
$DIMDEC
 70
2
  9
$DIMTDEC
 70
2
  9
$DIMALTU
 70
2
  9
$DIMALTTD
 70
3
  9
$DIMTXSTY
  7
Standard
  9
$DIMAUNIT
 70
0
  9
$DIMADEC
 70
0
  9
$DIMALTRND
 40
0.0
  9
$DIMAZIN
 70
0
  9
$DIMDSEP
 70
44
  9
$DIMATFIT
 70
3
  9
$DIMFRAC
 70
0
  9
$DIMLDRBLK
  1

  9
$DIMLUNIT
 70
2
  9
$DIMLWD
 70
-2
  9
$DIMLWE
 70
-2
  9
$DIMTMOVE
 70
0
  9
$DIMFXL
 40
1.0
  9
$DIMFXLON
 70
0
  9
$DIMJOGANG
 40
0.785398163397
  9
$DIMTFILL
 70
0
  9
$DIMTFILLCLR
 70
0
  9
$DIMARCSYM
 70
0
  9
$DIMLTYPE
  6

  9
$DIMLTEX1
  6

  9
$DIMLTEX2
  6

  9
$DIMTXTDIRECTION
 70
0
  9
$LUNITS
 70
2
  9
$LUPREC
 70
4
  9
$SKETCHINC
 40
1.0
  9
$FILLETRAD
 40
10.0
  9
$AUNITS
 70
0
  9
$AUPREC
 70
2
  9
$MENU
  1
.
  9
$ELEVATION
 40
0.0
  9
$PELEVATION
 40
0.0
  9
$THICKNESS
 40
0.0
  9
$LIMCHECK
 70
0
  9
$CHAMFERA
 40
0.0
  9
$CHAMFERB
 40
0.0
  9
$CHAMFERC
 40
0.0
  9
$CHAMFERD
 40
0.0
  9
$SKPOLY
 70
0
  9
$TDCREATE
 40
2461318.770150463
  9
$TDUCREATE
 40
2458532.153996898
  9
$TDUPDATE
 40
2461318.770150463
  9
$TDUUPDATE
 40
2458532.1544311
  9
$TDINDWG
 40
0.0
  9
$TDUSRTIMER
 40
0.0
  9
$USRTIMER
 70
1
  9
$ANGBASE
 50
0.0
  9
$ANGDIR
 70
0
  9
$PDMODE
 70
0
  9
$PDSIZE
 40
0.0
  9
$PLINEWID
 40
0.0
  9
$SPLFRAME
 70
0
  9
$SPLINETYPE
 70
6
  9
$SPLINESEGS
 70
8
  9
$HANDSEED
  5
BD
  9
$SURFTAB1
 70
6
  9
$SURFTAB2
 70
6
  9
$SURFTYPE
 70
6
  9
$SURFU
 70
6
  9
$SURFV
 70
6
  9
$UCSBASE
  2

  9
$UCSNAME
  2

  9
$UCSORG
 10
0.0
 20
0.0
 30
0.0
  9
$UCSXDIR
 10
1.0
 20
0.0
 30
0.0
  9
$UCSYDIR
 10
0.0
 20
1.0
 30
0.0
  9
$UCSORTHOREF
  2

  9
$UCSORTHOVIEW
 70
0
  9
$UCSORGTOP
 10
0.0
 20
0.0
 30
0.0
  9
$UCSORGBOTTOM
 10
0.0
 20
0.0
 30
0.0
  9
$UCSORGLEFT
 10
0.0
 20
0.0
 30
0.0
  9
$UCSORGRIGHT
 10
0.0
 20
0.0
 30
0.0
  9
$UCSORGFRONT
 10
0.0
 20
0.0
 30
0.0
  9
$UCSORGBACK
 10
0.0
 20
0.0
 30
0.0
  9
$PUCSBASE
  2

  9
$PUCSNAME
  2

  9
$PUCSORG
 10
0.0
 20
0.0
 30
0.0
  9
$PUCSXDIR
 10
1.0
 20
0.0
 30
0.0
  9
$PUCSYDIR
 10
0.0
 20
1.0
 30
0.0
  9
$PUCSORTHOREF
  2

  9
$PUCSORTHOVIEW
 70
0
  9
$PUCSORGTOP
 10
0.0
 20
0.0
 30
0.0
  9
$PUCSORGBOTTOM
 10
0.0
 20
0.0
 30
0.0
  9
$PUCSORGLEFT
 10
0.0
 20
0.0
 30
0.0
  9
$PUCSORGRIGHT
 10
0.0
 20
0.0
 30
0.0
  9
$PUCSORGFRONT
 10
0.0
 20
0.0
 30
0.0
  9
$PUCSORGBACK
 10
0.0
 20
0.0
 30
0.0
  9
$USERI1
 70
0
  9
$USERI2
 70
0
  9
$USERI3
 70
0
  9
$USERI4
 70
0
  9
$USERI5
 70
0
  9
$USERR1
 40
0.0
  9
$USERR2
 40
0.0
  9
$USERR3
 40
0.0
  9
$USERR4
 40
0.0
  9
$USERR5
 40
0.0
  9
$WORLDVIEW
 70
1
  9
$SHADEDGE
 70
3
  9
$SHADEDIF
 70
70
  9
$TILEMODE
 70
1
  9
$MAXACTVP
 70
64
  9
$PINSBASE
 10
0.0
 20
0.0
 30
0.0
  9
$PLIMCHECK
 70
0
  9
$PEXTMIN
 10
1e+20
 20
1e+20
 30
1e+20
  9
$PEXTMAX
 10
-1e+20
 20
-1e+20
 30
-1e+20
  9
$PLIMMIN
 10
0.0
 20
0.0
  9
$PLIMMAX
 10
420.0
 20
297.0
  9
$UNITMODE
 70
0
  9
$VISRETAIN
 70
1
  9
$PLINEGEN
 70
0
  9
$PSLTSCALE
 70
1
  9
$TREEDEPTH
 70
3020
  9
$CMLSTYLE
  2
Standard
  9
$CMLJUST
 70
0
  9
$CMLSCALE
 40
20.0
  9
$PROXYGRAPHICS
 70
1
  9
$MEASUREMENT
 70
1
  9
$CELWEIGHT
370
-1
  9
$ENDCAPS
280
0
  9
$JOINSTYLE
280
0
  9
$LWDISPLAY
290
0
  9
$INSUNITS
 70
4
  9
$HYPERLINKBASE
  1

  9
$STYLESHEET
  1

  9
$XEDIT
290
1
  9
$CEPSNTYPE
380
0
  9
$PSTYLEMODE
290
1
  9
$FINGERPRINTGUID
  2
{6F17C331-88DC-4FF5-858D-23315B4AA1E6}
  9
$VERSIONGUID
  2
{F473BB5C-50BD-46AB-B7E5-8C6F733F0606}
  9
$EXTNAMES
290
1
  9
$PSVPSCALE
 40
0.0
  9
$OLESTARTUP
290
0
  9
$SORTENTS
280
127
  9
$INDEXCTL
280
0
  9
$HIDETEXT
280
1
  9
$XCLIPFRAME
280
1
  9
$HALOGAP
280
0
  9
$OBSCOLOR
 70
257
  9
$OBSLTYPE
280
0
  9
$INTERSECTIONDISPLAY
280
0
  9
$INTERSECTIONCOLOR
 70
257
  9
$DIMASSOC
280
2
  9
$PROJECTNAME
  1

  9
$CAMERADISPLAY
290
0
  9
$LENSLENGTH
 40
50.0
  9
$CAMERAHEIGHT
 40
0.0
  9
$STEPSPERSEC
 40
24.0
  9
$STEPSIZE
 40
100.0
  9
$3DDWFPREC
 40
2.0
  9
$PSOLWIDTH
 40
0.005
  9
$PSOLHEIGHT
 40
0.08
  9
$LOFTANG1
 40
1.570796326795
  9
$LOFTANG2
 40
1.570796326795
  9
$LOFTMAG1
 40
0.0
  9
$LOFTMAG2
 40
0.0
  9
$LOFTPARAM
 70
7
  9
$LOFTNORMALS
280
1
  9
$LATITUDE
 40
37.795
  9
$LONGITUDE
 40
-122.394
  9
$NORTHDIRECTION
 40
0.0
  9
$TIMEZONE
 70
-8000
  9
$LIGHTGLYPHDISPLAY
280
1
  9
$TILEMODELIGHTSYNCH
280
1
  9
$CMATERIAL
347
20
  9
$SOLIDHIST
280
0
  9
$SHOWHIST
280
1
  9
$DWFFRAME
280
2
  9
$DGNFRAME
280
2
  9
$REALWORLDSCALE
290
1
  9
$INTERFERECOLOR
 62
256
  9
$CSHADOW
280
0
  9
$SHADOWPLANELOCATION
 40
0.0
  0
ENDSEC
  0
SECTION
  2
CLASSES
  0
CLASS
  1
ACDBDICTIONARYWDFLT
  2
AcDbDictionaryWithDefault
  3
ObjectDBX Classes
 90
0
 91
0
280
0
281
0
  0
CLASS
  1
SUN
  2
AcDbSun
  3
SCENEOE
 90
1153
 91
0
280
0
281
0
  0
CLASS
  1
VISUALSTYLE
  2
AcDbVisualStyle
  3
ObjectDBX Classes
 90
4095
 91
0
280
0
281
0
  0
CLASS
  1
MATERIAL
  2
AcDbMaterial
  3
ObjectDBX Classes
 90
1153
 91
0
280
0
281
0
  0
CLASS
  1
SCALE
  2
AcDbScale
  3
ObjectDBX Classes
 90
1153
 91
0
280
0
281
0
  0
CLASS
  1
TABLESTYLE
  2
AcDbTableStyle
  3
ObjectDBX Classes
 90
4095
 91
0
280
0
281
0
  0
CLASS
  1
MLEADERSTYLE
  2
AcDbMLeaderStyle
  3
ACDB_MLEADERSTYLE_CLASS
 90
4095
 91
0
280
0
281
0
  0
CLASS
  1
DICTIONARYVAR
  2
AcDbDictionaryVar
  3
ObjectDBX Classes
 90
0
 91
0
280
0
281
0
  0
CLASS
  1
CELLSTYLEMAP
  2
AcDbCellStyleMap
  3
ObjectDBX Classes
 90
1152
 91
0
280
0
281
0
  0
CLASS
  1
MENTALRAYRENDERSETTINGS
  2
AcDbMentalRayRenderSettings
  3
SCENEOE
 90
1024
 91
0
280
0
281
0
  0
CLASS
  1
ACDBDETAILVIEWSTYLE
  2
AcDbDetailViewStyle
  3
ObjectDBX Classes
 90
1025
 91
0
280
0
281
0
  0
CLASS
  1
ACDBSECTIONVIEWSTYLE
  2
AcDbSectionViewStyle
  3
ObjectDBX Classes
 90
1025
 91
0
280
0
281
0
  0
CLASS
  1
RASTERVARIABLES
  2
AcDbRasterVariables
  3
ISM
 90
0
 91
0
280
0
281
0
  0
CLASS
  1
LAYOUT
  2
AcDbLayout
  3
ObjectDBX Classes
 90
0
 91
0
280
0
281
0
  0
CLASS
  1
ACDBPLACEHOLDER
  2
AcDbPlaceHolder
  3
ObjectDBX Classes
 90
0
 91
0
280
0
281
0
  0
ENDSEC
  0
SECTION
  2
TABLES
  0
TABLE
  2
VPORT
  5
8
330
0
100
AcDbSymbolTable
 70
1
  0
VPORT
  5
23
330
8
100
AcDbSymbolTableRecord
100
AcDbViewportTableRecord
  2
*Active
 70
0
 10
0.0
 20
0.0
 11
1.0
 21
1.0
 12
0.0
 22
0.0
 13
0.0
 23
0.0
 14
0.5
 24
0.5
 15
0.5
 25
0.5
 16
0.0
 26
0.0
 36
1.0
 17
0.0
 27
0.0
 37
0.0
 40
1000.0
 41
1.34
 42
50.0
 43
0.0
 44
0.0
 50
0.0
 51
0.0
 71
0
 72
1000
 73
1
 74
3
 75
0
 76
0
 77
0
 78
0
281
0
 65
0
146
0.0
  0
ENDTAB
  0
TABLE
  2
LTYPE
  5
2
330
0
100
AcDbSymbolTable
 70
3
  0
LTYPE
  5
24
330
2
100
AcDbSymbolTableRecord
100
AcDbLinetypeTableRecord
  2
ByBlock
 70
0
  3

 72
65
 73
0
 40
0.0
  0
LTYPE
  5
25
330
2
100
AcDbSymbolTableRecord
100
AcDbLinetypeTableRecord
  2
ByLayer
 70
0
  3

 72
65
 73
0
 40
0.0
  0
LTYPE
  5
26
330
2
100
AcDbSymbolTableRecord
100
AcDbLinetypeTableRecord
  2
Continuous
 70
0
  3

 72
65
 73
0
 40
0.0
  0
ENDTAB
  0
TABLE
  2
LAYER
  5
1
330
0
100
AcDbSymbolTable
 70
8
  0
LAYER
  5
27
330
1
100
AcDbSymbolTableRecord
100
AcDbLayerTableRecord
  2
0
 70
0
 62
7
  6
Continuous
370
-3
390
13
347
21
  0
LAYER
  5
28
330
1
100
AcDbSymbolTableRecord
100
AcDbLayerTableRecord
  2
Defpoints
 70
0
 62
7
  6
Continuous
290
0
370
-3
390
13
347
21
  0
LAYER
  5
2F
330
1
100
AcDbSymbolTableRecord
100
AcDbLayerTableRecord
  2
CUT
 70
0
 62
1
  6
Continuous
370
-3
390
13
347
21
  0
LAYER
  5
30
330
1
100
AcDbSymbolTableRecord
100
AcDbLayerTableRecord
  2
SEW
 70
0
 62
5
  6
Continuous
370
-3
390
13
347
21
  0
LAYER
  5
31
330
1
100
AcDbSymbolTableRecord
100
AcDbLayerTableRecord
  2
GRAIN
 70
0
 62
3
  6
Continuous
370
-3
390
13
347
21
  0
LAYER
  5
32
330
1
100
AcDbSymbolTableRecord
100
AcDbLayerTableRecord
  2
NOTCH
 70
0
 62
2
  6
Continuous
370
-3
390
13
347
21
  0
LAYER
  5
33
330
1
100
AcDbSymbolTableRecord
100
AcDbLayerTableRecord
  2
LABEL
 70
0
 62
7
  6
Continuous
370
-3
390
13
347
21
  0
LAYER
  5
34
330
1
100
AcDbSymbolTableRecord
100
AcDbLayerTableRecord
  2
ATTACHMENT
 70
0
 62
4
  6
Continuous
370
-3
390
13
347
21
  0
ENDTAB
  0
TABLE
  2
STYLE
  5
5
330
0
100
AcDbSymbolTable
 70
1
  0
STYLE
  5
29
330
5
100
AcDbSymbolTableRecord
100
AcDbTextStyleTableRecord
  2
Standard
 70
0
 40
0.0
 41
1.0
 50
0.0
 71
0
 42
2.5
  3
txt
  4

  0
ENDTAB
  0
TABLE
  2
VIEW
  5
7
330
0
100
AcDbSymbolTable
 70
0
  0
ENDTAB
  0
TABLE
  2
UCS
  5
6
330
0
100
AcDbSymbolTable
 70
0
  0
ENDTAB
  0
TABLE
  2
APPID
  5
3
330
0
100
AcDbSymbolTable
 70
3
  0
APPID
  5
2A
330
3
100
AcDbSymbolTableRecord
100
AcDbRegAppTableRecord
  2
ACAD
 70
0
  0
APPID
  5
BA
330
3
100
AcDbSymbolTableRecord
100
AcDbRegAppTableRecord
  2
HATCHBACKGROUNDCOLOR
 70
0
  0
APPID
  5
BB
330
3
100
AcDbSymbolTableRecord
100
AcDbRegAppTableRecord
  2
EZDXF
 70
0
  0
ENDTAB
  0
TABLE
  2
DIMSTYLE
  5
4
330
0
100
AcDbSymbolTable
 70
1
100
AcDbDimStyleTable
  0
DIMSTYLE
105
2B
330
4
100
AcDbSymbolTableRecord
100
AcDbDimStyleTableRecord
  2
Standard
 70
0
 40
1.0
 41
2.5
 42
0.625
 43
3.75
 44
1.25
 45
0.0
 46
0.0
 47
0.0
 48
0.0
 49
2.5
140
2.5
141
2.5
142
0.0
143
0.03937007874
144
1.0
145
0.0
146
1.0
147
0.625
148
0.0
 69
0
 70
0
 71
0
 72
0
 73
0
 74
0
 75
0
 76
0
 77
1
 78
8
 79
3
170
0
171
3
172
1
173
0
174
0
175
0
176
0
177
0
178
0
179
2
271
2
272
2
273
2
274
3
275
0
276
0
277
2
278
44
279
0
280
0
281
0
282
0
283
0
284
8
285
0
286
0
288
0
289
3
290
0
371
-2
372
-2
  0
ENDTAB
  0
TABLE
  2
BLOCK_RECORD
  5
9
330
0
100
AcDbSymbolTable
 70
2
  0
BLOCK_RECORD
  5
17
330
9
100
AcDbSymbolTableRecord
100
AcDbBlockTableRecord
  2
*Model_Space
340
1A
 70
0
280
1
281
0
  0
BLOCK_RECORD
  5
1B
330
9
100
AcDbSymbolTableRecord
100
AcDbBlockTableRecord
  2
*Paper_Space
340
1E
 70
0
280
1
281
0
  0
ENDTAB
  0
ENDSEC
  0
SECTION
  2
BLOCKS
  0
BLOCK
  5
18
330
17
100
AcDbEntity
  8
0
100
AcDbBlockBegin
  2
*Model_Space
 70
0
 10
0.0
 20
0.0
 30
0.0
  3
*Model_Space
  1

  0
ENDBLK
  5
19
330
17
100
AcDbEntity
  8
0
100
AcDbBlockEnd
  0
BLOCK
  5
1C
330
1B
100
AcDbEntity
  8
0
100
AcDbBlockBegin
  2
*Paper_Space
 70
0
 10
0.0
 20
0.0
 30
0.0
  3
*Paper_Space
  1

  0
ENDBLK
  5
1D
330
1B
100
AcDbEntity
  8
0
100
AcDbBlockEnd
  0
ENDSEC
  0
SECTION
  2
ENTITIES
  0
LWPOLYLINE
  5
35
330
17
100
AcDbEntity
  8
CUT
100
AcDbPolyline
 90
201
 70
1
 10
-12.006448839821065
 20
2.9404682169878753
 10
12.450515293121159
 20
49.62763483625784
 10
35.58718958560653
 20
92.11071877207625
 10
58.753081345316005
 20
132.89377477620243
 10
81.96113573683074
 20
171.59034986333506
 10
105.18192368310554
 20
207.92876101359428
 10
128.29760203892548
 20
242.2825398939823
 10
151.3688898130094
 20
277.02009920135924
 10
174.53556000198748
 20
311.1002344126614
 10
197.8289846883366
 20
343.8190735224927
 10
221.39053157154297
 20
373.93417415116267
 10
245.27053334651197
 20
399.4453397706913
 10
269.48276212112296
 20
420.3129832966266
 10
293.50864182298994
 20
435.7591710732595
 10
316.9609031351625
 20
449.43466785723064
 10
340.4647405613845
 20
462.39074131647084
 10
364.3102060643037
 20
473.9609769441294
 10
388.4803305607707
 20
483.25317713253315
 10
413.1545363405768
 20
489.8951270519472
 10
437.94487925190793
 20
492.35378427483863
 10
462.94587619598923
 20
491.9726169960219
 10
487.8718418363002
 20
486.6103639709966
 10
512.1050156810207
 20
478.6174726305366
 10
536.0227097942728
 20
468.4435110064312
 10
559.5776463148405
 20
456.85943862176174
 10
582.7788918942159
 20
444.8917372049378
 10
605.7542875356467
 20
433.3573932044631
 10
628.6974642502039
 20
422.4887206488115
 10
651.8169157406419
 20
411.9932444160895
 10
675.1331883084282
 20
401.1294711206035
 10
698.472737773911
 20
389.6873316237781
 10
721.9716287148227
 20
377.7488260238994
 10
745.2060528298949
 20
364.45469620692023
 10
763.1434197245616
 20
355.0182883399853
 10
778.4150248306105
 20
361.4886833197897
 10
799.1611657971569
 20
385.7532049329003
 10
821.8496519939099
 20
420.23186657083374
 10
845.5450848575598
 20
455.13128514245324
 10
871.7538747775499
 20
482.10983302391975
 10
899.6143323275868
 20
488.96538425999995
 10
924.1870035569516
 20
489.0190363805884
 10
947.3182615519437
 20
489.06954131070864
 10
970.4521909239468
 20
489.1149239654327
 10
993.6421889676849
 20
489.1501730821978
 10
1016.9855886382163
 20
488.9778747068426
 10
1040.3382891281
 20
488.18928497688864
 10
1063.6603244572034
 20
487.1623457252596
 10
1086.9911788458428
 20
485.6391892302126
 10
1110.2419324992309
 20
483.8506827822691
 10
1133.4689909857505
 20
481.8833299796025
 10
1156.6502021943834
 20
479.74319323297016
 10
1179.805744503179
 20
477.59085698346155
 10
1202.9253111474975
 20
475.39492328599965
 10
1225.9998855941499
 20
473.31477381231133
 10
1249.102409123463
 20
471.3595456578882
 10
1272.246073746966
 20
469.4023556124486
 10
1295.399194273575
 20
467.4115432580193
 10
1318.5624123857565
 20
465.38474511084013
 10
1341.7335071979355
 20
463.2852237568511
 10
1364.9053498266499
 20
461.1202530358117
 10
1388.0803928964708
 20
458.88045368086694
 10
1411.2582536464952
 20
456.5629590748693
 10
1434.4396545726227
 20
454.1600204033105
 10
1457.6240025036655
 20
451.66597965769427
 10
1480.812474298392
 20
449.0753533588624
 10
1504.004028976878
 20
446.37788590762466
 10
1527.1925762272997
 20
443.5730779820665
 10
1550.3795170259089
 20
440.6744601463719
 10
1573.568794312556
 20
437.6747032238354
 10
1596.757082503894
 20
434.5723642868109
 10
1619.9523913591281
 20
431.3726874135211
 10
1643.1639650966292
 20
428.04046643922715
 10
1666.3854276763823
 20
424.546007440126
 10
1689.6176791507303
 20
420.8804745574696
 10
1712.8620127218617
 20
417.0090135503663
 10
1736.1156855128193
 20
412.91787868521783
 10
1759.3809203434053
 20
408.5824974168576
 10
1782.6570444042927
 20
403.9791525780209
 10
1805.939374346821
 20
399.08655918845716
 10
1829.2376162533228
 20
393.897344455761
 10
1852.5806563141282
 20
388.3405481623157
 10
1875.964269923255
 20
382.2860833162204
 10
1899.3666357744235
 20
375.68634817094454
 10
1922.7974417550465
 20
368.4944456803469
 10
1946.2467346641006
 20
360.6097006092158
 10
1969.7018233802296
 20
352.02865334792824
 10
1993.1748174643692
 20
342.69306780095815
 10
2016.643969182358
 20
332.5375231870218
 10
2040.11767736073
 20
321.6038689449199
 10
2063.6493513630567
 20
309.73928769716616
 10
2087.2163876971385
 20
296.6848505791298
 10
2110.8800277100668
 20
282.34986245944606
 10
2134.721600193095
 20
265.9132855504755
 10
2158.6095467163173
 20
246.54402967573688
 10
2182.383087979077
 20
224.0818417403474
 10
2206.119463060669
 20
198.76827615760226
 10
2230.0916974309102
 20
169.09625997954592
 10
2254.1809361214578
 20
129.54893797870625
 10
2277.9511873982483
 20
73.29268116045199
 10
2302.0011600509156
 20
1.981794123114733
 10
2302.2935418778884
 20
-131.92908263035696
 10
2278.555198298095
 20
-203.344310969514
 10
2255.030832997269
 20
-259.70383114273926
 10
2231.1145188910436
 20
-299.3559687610406
 10
2207.27208458892
 20
-329.1323837789877
 10
2183.646474882023
 20
-354.54935980887444
 10
2159.9712479769087
 20
-377.11514767476075
 10
2136.168110712972
 20
-396.58853255340256
 10
2112.3985406497663
 20
-413.12906392207935
 10
2088.7977241602866
 20
-427.56724954504705
 10
2065.2879185294864
 20
-440.7244745276322
 10
2041.808279040883
 20
-452.691700564667
 10
2018.382539659507
 20
-463.72775534729305
 10
1994.957958852635
 20
-473.9856880235112
 10
1971.5259551260285
 20
-483.42368622945787
 10
1948.1085616854123
 20
-492.1070751548428
 10
1924.693923390194
 20
-500.09414321986907
 10
1901.2947463481173
 20
-507.38829458169477
 10
1877.9214232930533
 20
-514.0901600520932
 10
1854.564471219588
 20
-520.2466785350493
 10
1831.2459190928155
 20
-525.9053560341475
 10
1807.9705595412404
 20
-531.1962598529952
 10
1784.709816518387
 20
-536.1904756726144
 10
1761.4540162299202
 20
-540.8954185995502
 10
1738.2079349268945
 20
-545.3323529599078
 10
1714.9723489801827
 20
-549.5249927567968
 10
1691.7451428943334
 20
-553.4979200076931
 10
1668.5291195448924
 20
-557.2648683375652
 10
1645.3231379432343
 20
-560.8606973021268
 10
1622.1263366299288
 20
-564.2942466062256
 10
1598.9452212513445
 20
-567.5951820477154
 10
1575.7707014153168
 20
-570.7987498232234
 10
1552.594744539062
 20
-573.8997408814936
 10
1529.420682475361
 20
-576.8995836142622
 10
1506.2446043268008
 20
-579.8056243463705
 10
1483.065050045384
 20
-582.6043387604057
 10
1459.8881120653173
 20
-585.2961995783971
 10
1436.7148761406718
 20
-587.8914577560114
 10
1413.5441893690786
 20
-590.3956018592245
 10
1390.3766696234254
 20
-592.8142872523312
 10
1367.2116282521317
 20
-595.1552658309487
 10
1344.0494605304077
 20
-597.4214025134523
 10
1320.88775481437
 20
-599.6220871873712
 10
1297.7336081561564
 20
-601.7500149519518
 10
1274.589401844797
 20
-603.8419131728368
 10
1251.4545045252137
 20
-605.9001481133093
 10
1228.3607393394211
 20
-607.9562415269784
 10
1205.2954684756537
 20
-610.1371330209967
 10
1182.185711448777
 20
-612.4340041063847
 10
1159.0472409919164
 20
-614.6867120685641
 10
1135.8681440623423
 20
-616.9287791132322
 10
1112.649898053068
 20
-618.9975408776779
 10
1089.4071761180876
 20
-620.8875614644619
 10
1066.0831954836988
 20
-622.5125844115234
 10
1042.765866947567
 20
-623.6413563353474
 10
1019.4168327203691
 20
-624.5319149183961
 10
996.0744080080549
 20
-624.8061474081245
 10
972.8897782245427
 20
-624.8721505912034
 10
949.7532303443843
 20
-624.9277972305972
 10
926.6193121697158
 20
-624.9783082638288
 10
902.0466409403526
 20
-625.0319603844172
 10
874.1565122630245
 20
-618.2981353191393
 10
847.8301625390665
 20
-591.4342929827474
 10
823.9825571178096
 20
-556.6386801715765
 10
801.1437261205028
 20
-522.2594231563355
 10
780.291824853071
 20
-498.0857269629512
 10
764.992110488603
 20
-491.68208158897744
 10
747.0961214421932
 20
-501.19672822434353
 10
723.9199715471317
 20
-514.592191172349
 10
700.4734376195981
 20
-526.6331976998873
 10
677.1840761210145
 20
-538.1771470459801
 10
653.9154656936414
 20
-549.1426340597965
 10
630.8420661905809
 20
-559.7389680457791
 10
607.946569453213
 20
-570.7077250412799
 10
585.021760944504
 20
-582.3422878281086
 10
561.8729970326499
 20
-594.4111901390191
 10
538.3688703239043
 20
-606.0980115700396
 10
514.4958318216272
 20
-616.3763197719079
 10
490.2977923168294
 20
-624.4749561196804
 10
465.39548017305896
 20
-629.9460045110451
 10
440.39638607846325
 20
-630.4363422943128
 10
415.59554308690304
 20
-628.0859627698987
 10
390.89256855294246
 20
-621.5518232878507
 10
366.6820974060645
 20
-612.3652575877516
 10
342.78633445169277
 20
-600.8992604501723
 10
319.22614465204083
 20
-588.0459468757048
 10
295.71438890308957
 20
-574.4729916137026
 10
271.6212879953741
 20
-559.131867113508
 10
247.31816542526482
 20
-538.3701523022987
 10
223.32698939480616
 20
-512.9635089050528
 10
199.6341607959536
 20
-482.95158376870165
 10
176.19808185472115
 20
-450.33477414277195
 10
152.8828117061992
 20
-416.35612788416904
 10
129.66005222925767
 20
-381.71964728257797
 10
106.39457848289781
 20
-347.4671372932457
 10
83.0153296730969
 20
-311.23047294813165
 10
59.638516686625366
 20
-272.63561154522887
 10
36.294754703017205
 20
-231.95410500342385
 10
12.972786240692562
 20
-189.57245915222325
 10
-11.687817825960398
 20
-142.9925361316418
 10
-12.006448839821065
 20
2.9404682169878753
  0
LWPOLYLINE
  5
36
330
17
100
AcDbEntity
  8
SEW
100
AcDbPolyline
 90
200
 70
1
 10
0.0
 20
0.0
 10
23.035356507654623
 20
43.97338613088837
 10
46.07435853059547
 20
86.2771262607299
 10
69.1171539870072
 20
126.84347386082115
 10
92.16461656047089
 20
165.27228185120552
 10
115.21721798410621
 20
201.34749646292582
 10
138.27376986102894
 20
235.61340346904979
 10
161.32934358891174
 20
270.3273027355475
 10
184.3866523473355
 20
304.2465580141796
 10
207.44729601695371
 20
336.63842396584306
 10
230.51429094204835
 20
366.1214149092505
 10
253.59182975769014
 20
390.77530398199127
 10
276.6797512050643
 20
410.67394772121645
 10
299.77869531818675
 20
425.52421054782644
 10
322.88065042870323
 20
438.9954365678663
 10
345.9842120839345
 20
451.7308651086251
 10
369.0911002970081
 20
462.94273015753754
 10
392.2030681454552
 20
471.8281222053573
 10
415.3208491158331
 20
478.05110440885744
 10
438.44720946499484
 20
480.34473112935217
 10
461.57934776442943
 20
479.99205662487026
 10
484.721586173663
 20
475.01353183243134
 10
507.86962469974674
 20
467.37855352256054
 10
531.0224965182111
 20
457.52992730242784
 10
554.1787294018931
 20
446.1419332126705
 10
577.3361786966265
 20
434.19682286131183
 10
600.4929299119631
 20
422.571432873709
 10
623.6482483295292
 20
411.6022642649569
 10
646.8025670444877
 20
401.09095945055736
 10
669.9574911988777
 20
390.3023633764573
 10
693.1136459968777
 20
378.9501325289576
 10
716.2707016832894
 20
367.185294788994
 10
739.4310038357022
 20
353.93357562049925
 10
762.588972186401
 20
341.750737637086
 10
785.6989617991417
 20
351.54216163837714
 10
808.7714100840105
 20
378.5275138047553
 10
831.826281755711
 20
413.56295480250225
 10
854.8835027766966
 20
447.52239382773934
 10
877.9629991094208
 20
471.27974007658776
 10
901.0819463728689
 20
476.9685600539393
 10
924.2132043678612
 20
477.01906498405964
 10
947.3444623628533
 20
477.0695699141799
 10
970.475731553891
 20
477.11494705550734
 10
993.6070230559052
 20
477.15010576958014
 10
1016.7387641099509
 20
476.97936965320457
 10
1039.8718379961244
 20
476.19819642243385
 10
1063.0054303720613
 20
475.1795548799271
 10
1086.1400963435824
 20
473.66920655970335
 10
1109.2753502487208
 20
471.88958464288345
 10
1132.4109971412859
 20
469.92997448467037
 10
1155.54702908963
 20
467.794008779588
 10
1178.6830928334584
 20
465.64348074284226
 10
1201.8192591587826
 20
463.44597038092775
 10
1224.9551813128085
 20
461.3602904736663
 10
1248.0908247578252
 20
459.4022592924841
 10
1271.2264648846253
 20
457.44574785457365
 10
1294.362176635944
 20
455.45643238713564
 10
1317.4979649867303
 20
453.43203436369157
 10
1340.6339104083936
 20
451.3356978784611
 10
1363.7699983925897
 20
449.17406775315084
 10
1386.9062488659563
 20
446.9380175878949
 10
1410.0426681183883
 20
444.62466661051644
 10
1433.1792728385217
 20
442.2263714260387
 10
1456.3160754427256
 20
439.73744533720526
 10
1479.4530875471712
 20
437.15256813767377
 10
1502.5903316892982
 20
434.46141768010546
 10
1525.7278105047953
 20
431.6627868190039
 10
1548.8654941877674
 20
428.7703266543519
 10
1572.003397632869
 20
425.77721543426264
 10
1595.1415249136403
 20
422.6815874775694
 10
1618.279862216193
 20
419.48976954509766
 10
1641.4184832088067
 20
416.1680215645522
 10
1664.5574541956391
 20
412.6859762318272
 10
1687.6967938028265
 20
409.0351027765898
 10
1710.8365770217242
 20
405.18105515803177
 10
1733.9768343312203
 20
401.10987404533466
 10
1757.1176178616015
 20
396.7976837672937
 10
1780.2589789079873
 20
392.22099115911396
 10
1803.4009653009218
 20
387.35788983175814
 10
1826.5435880527402
 20
382.203336135436
 10
1849.686985297458
 20
376.69406469126307
 10
1872.8314377168379
 20
370.7015232518781
 10
1895.977057796607
 20
364.1741933540751
 10
1919.1239386274474
 20
357.0694394657728
 10
1942.2723015641873
 20
349.28588107541555
 10
1965.4221619267746
 20
340.8165016470203
 10
1988.5736343675571
 20
331.60879040513476
 10
2011.726877843093
 20
321.5899452462401
 10
2034.8817945094936
 20
310.8047786713073
 10
2058.0386553577605
 20
299.1291768016729
 10
2081.1980337216532
 20
286.300552775366
 10
2104.360037592865
 20
272.269446396952
 10
2127.526277032537
 20
256.2984496637101
 10
2150.6986694430448
 20
237.50939228731937
 10
2173.877855653228
 20
215.60877466002032
 10
2197.0632106728813
 20
190.88284229537786
 10
2220.257261926651
 20
162.17403470542394
 10
2243.471842848692
 20
124.06263904729744
 10
2266.7233608723927
 20
69.03405082901727
 10
2290.0054585087805
 20
-1.520375366583048e-13
 10
2290.2893006269665
 20
-129.99969012906138
 10
2267.30888227337
 20
-199.13475081831893
 10
2244.297884307086
 20
-254.26434889683924
 10
2221.2499492391435
 20
-292.4767544152061
 10
2198.181484502928
 20
-321.2865718654002
 10
2175.1043235325965
 20
-346.11351409028293
 10
2152.0209937527948
 20
-368.1151415778224
 10
2128.93087017332
 20
-387.0052088144533
 10
2105.834593623007
 20
-403.0772154079355
 10
2082.734081504233
 20
-417.20933164658976
 10
2059.6309438781404
 20
-430.1389655331369
 10
2036.5252887364231
 20
-441.91557726301113
 10
2013.4176894128407
 20
-452.80175369818375
 10
1990.3084168983953
 20
-462.92160871731886
 10
1967.1973733491902
 20
-472.23032981944465
 10
1944.0847177217884
 20
-480.80071910808
 10
1920.970564668543
 20
-488.68528735867756
 10
1897.854929509401
 20
-495.89105110721994
 10
1874.738033599187
 20
-502.5193908652628
 10
1851.619970028587
 20
-508.6129421648882
 10
1828.5008512833203
 20
-514.2232234693015
 10
1805.3809580451557
 20
-519.4787870258643
 10
1782.2604284481092
 20
-524.4428982134604
 10
1759.1392735045144
 20
-529.1206006818808
 10
1736.0175410449092
 20
-533.5338008201624
 10
1712.8952823644188
 20
-537.7059917931
 10
1689.7725495933344
 20
-541.6610492718986
 10
1666.6493732105369
 20
-545.4129325873766
 10
1643.525828207384
 20
-548.995987780342
 10
1620.4019332100133
 20
-552.4187456211282
 10
1597.2777545225845
 20
-555.7115734138407
 10
1574.153365813377
 20
-558.9082112307749
 10
1551.028753268495
 20
-562.0023323111051
 10
1527.903920961479
 20
-564.9958023359978
 10
1504.778883786991
 20
-567.8954430573402
 10
1481.6536119391349
 20
-570.6876033751495
 10
1458.528108053596
 20
-573.3734904349212
 10
1435.4023946678155
 20
-575.963426383995
 10
1412.2764833979634
 20
-578.4627314287134
 10
1389.1503866604182
 20
-580.8770922663324
 10
1366.0241211437988
 20
-583.2141522918291
 10
1342.8976931380043
 20
-585.4767922773801
 10
1319.7711225696837
 20
-587.6741386228509
 10
1296.644394930479
 20
-589.7995465065355
 10
1273.5175906918034
 20
-591.8898718342136
 10
1250.3907148286178
 20
-593.9473931323646
 10
1227.2638422836405
 20
-596.0064341737858
 10
1204.1372484476826
 20
-598.1931239412876
 10
1181.010898783015
 20
-600.491644163442
 10
1157.884446536854
 20
-602.7431820604269
 10
1134.7579624952145
 20
-604.9801576257485
 10
1111.6310933978036
 20
-607.040777644201
 10
1088.5038313129685
 20
-608.9214094212607
 10
1065.3759812945073
 20
-610.5327676017242
 10
1042.2470576804646
 20
-611.6524190044715
 10
1019.1176155766535
 20
-612.5346020954828
 10
995.9868406407136
 20
-612.8063480720987
 10
972.855616152739
 20
-612.8721992182665
 10
949.7243693537969
 20
-612.9278319371798
 10
926.5931113588063
 20
-612.9783368673001
 10
903.4618533638157
 20
-613.0288417974203
 10
880.318284637284
 20
-607.4410316803094
 10
857.1352649800245
 20
-583.7846952917012
 10
833.9299700110219
 20
-549.9262661267039
 10
810.7223256927382
 20
-514.9918349891972
 10
787.5322579876253
 20
-488.1074926830599
 10
764.3797316103766
 20
-478.4170785420094
 10
741.2751839710905
 20
-490.7009263856629
 10
718.172970133518
 20
-504.05365541439795
 10
695.0675098299434
 20
-515.9195030146017
 10
671.9611486379549
 20
-527.372743722341
 10
648.8535568023625
 20
-538.2623496566807
 10
625.7453595273369
 20
-548.8746643313201
 10
602.6381619549186
 20
-559.9448428003119
 10
579.532397180269
 20
-571.6712426481549
 10
556.4273304850136
 20
-583.7173628597534
 10
533.3210473787069
 20
-595.2063668097505
 10
510.21140320718786
 20
-605.1560028901233
 10
487.09692574328056
 20
-612.8919910602332
 10
463.97664816252745
 20
-617.9715257129111
 10
440.84627047198285
 20
-618.4252100776329
 10
417.7101148311642
 20
-616.2325932173777
 10
394.5653798115556
 20
-610.1106208741176
 10
371.41483167001786
 20
-601.326238686538
 10
348.25920389310943
 20
-590.2153834978649
 10
325.1002495583603
 20
-577.5809648173456
 10
301.9396886788926
 20
-564.2107486575458
 10
278.7761168020279
 20
-549.4614956911753
 10
255.60152225941536
 20
-529.6638618121899
 10
232.41654508507722
 20
-505.11098259968907
 10
209.2210240201842
 20
-475.7290015165212
 10
186.01915169981572
 20
-443.4381454250973
 10
162.81394446825314
 20
-409.6199000067047
 10
139.6070022061519
 20
-375.0070106004464
 10
116.40103809309251
 20
-340.8421134545622
 10
93.19112352674284
 20
-304.86790870308164
 10
69.97607011022149
 20
-266.54011057293695
 10
46.75634957664909
 20
-226.0747728330855
 10
23.532835609605673
 20
-183.87204256348375
 10
0.3056761272760013
 20
-139.9996662928352
  0
LINE
  5
37
330
17
100
AcDbEntity
  8
GRAIN
100
AcDbLine
 10
1105.144650313483
 20
-64.99984506453076
 30
0.0
 11
1185.144650313483
 21
-64.99984506453076
 31
0.0
  0
LINE
  5
38
330
17
100
AcDbEntity
  8
GRAIN
100
AcDbLine
 10
1185.144650313483
 20
-64.99984506453076
 30
0.0
 11
1180.144650313483
 21
-61.99984506453076
 31
0.0
  0
TEXT
  5
39
330
17
100
AcDbEntity
  8
LABEL
100
AcDbText
 10
1145.144650313483
 20
-64.99984506453076
 30
0.0
 40
6.0
  1
F08_BOTTOM
100
AcDbText
  0
CIRCLE
  5
3A
330
17
100
AcDbEntity
  8
NOTCH
100
AcDbCircle
 10
958.9100969583722
 20
477.0922584848436
 30
0.0
 40
1.0
  0
TEXT
  5
3B
330
17
100
AcDbEntity
  8
LABEL
100
AcDbText
 10
960.9100969583722
 20
479.0922584848436
 30
0.0
 40
3.0
  1
J0769
100
AcDbText
  0
CIRCLE
  5
3C
330
17
100
AcDbEntity
  8
NOTCH
100
AcDbCircle
 10
1005.172893582928
 20
477.06473771139235
 30
0.0
 40
1.0
  0
TEXT
  5
3D
330
17
100
AcDbEntity
  8
LABEL
100
AcDbText
 10
1007.172893582928
 20
479.06473771139235
 30
0.0
 40
3.0
  1
J0769
100
AcDbText
  0
CIRCLE
  5
3E
330
17
100
AcDbEntity
  8
NOTCH
100
AcDbCircle
 10
1097.7077232961515
 20
472.7793956012934
 30
0.0
 40
1.0
  0
TEXT
  5
3F
330
17
100
AcDbEntity
  8
LABEL
100
AcDbText
 10
1099.7077232961515
 20
474.7793956012934
 30
0.0
 40
3.0
  1
J0769
100
AcDbText
  0
CIRCLE
  5
40
330
17
100
AcDbEntity
  8
NOTCH
100
AcDbCircle
 10
1190.2511759961205
 20
464.544725561885
 30
0.0
 40
1.0
  0
TEXT
  5
41
330
17
100
AcDbEntity
  8
LABEL
100
AcDbText
 10
1192.2511759961205
 20
466.544725561885
 30
0.0
 40
3.0
  1
J0769
100
AcDbText
  0
CIRCLE
  5
42
330
17
100
AcDbEntity
  8
NOTCH
100
AcDbCircle
 10
1236.5230030353168
 20
460.3812748830752
 30
0.0
 40
1.0
  0
TEXT
  5
43
330
17
100
AcDbEntity
  8
LABEL
100
AcDbText
 10
1238.5230030353168
 20
462.3812748830752
 30
0.0
 40
3.0
  1
J0769
100
AcDbText
  0
CIRCLE
  5
44
330
17
100
AcDbEntity
  8
NOTCH
100
AcDbCircle
 10
1329.0659376975618
 20
452.3838661210763
 30
0.0
 40
1.0
  0
TEXT
  5
45
330
17
100
AcDbEntity
  8
LABEL
100
AcDbText
 10
1331.0659376975618
 20
454.3838661210763
 30
0.0
 40
3.0
  1
J0769
100
AcDbText
  0
CIRCLE
  5
46
330
17
100
AcDbEntity
  8
NOTCH
100
AcDbCircle
 10
1421.6109704784549
 20
443.42551901827756
 30
0.0
 40
1.0
  0
TEXT
  5
47
330
17
100
AcDbEntity
  8
LABEL
100
AcDbText
 10
1423.6109704784549
 20
445.42551901827756
 30
0.0
 40
3.0
  1
J0769
100
AcDbText
  0
CIRCLE
  5
48
330
17
100
AcDbEntity
  8
NOTCH
100
AcDbCircle
 10
1467.8845814949484
 20
438.4450067374395
 30
0.0
 40
1.0
  0
TEXT
  5
49
330
17
100
AcDbEntity
  8
LABEL
100
AcDbText
 10
1469.8845814949484
 20
440.4450067374395
 30
0.0
 40
3.0
  1
J0769
100
AcDbText
  0
CIRCLE
  5
4A
330
17
100
AcDbEntity
  8
NOTCH
100
AcDbCircle
 10
1560.4344459103181
 20
427.2737710443073
 30
0.0
 40
1.0
  0
TEXT
  5
4B
330
17
100
AcDbEntity
  8
LABEL
100
AcDbText
 10
1562.4344459103181
 20
429.2737710443073
 30
0.0
 40
3.0
  1
J0769
100
AcDbText
  0
CIRCLE
  5
4C
330
17
100
AcDbEntity
  8
NOTCH
100
AcDbCircle
 10
1652.987968702223
 20
414.4269988981897
 30
0.0
 40
1.0
  0
TEXT
  5
4D
330
17
100
AcDbEntity
  8
LABEL
100
AcDbText
 10
1654.987968702223
 20
416.4269988981897
 30
0.0
 40
3.0
  1
J0769
100
AcDbText
  0
CIRCLE
  5
4E
330
17
100
AcDbEntity
  8
NOTCH
100
AcDbCircle
 10
1699.2666854122754
 20
407.1080789673108
 30
0.0
 40
1.0
  0
TEXT
  5
4F
330
17
100
AcDbEntity
  8
LABEL
100
AcDbText
 10
1701.2666854122754
 20
409.1080789673108
 30
0.0
 40
3.0
  1
J0769
100
AcDbText
  0
CIRCLE
  5
50
330
17
100
AcDbEntity
  8
NOTCH
100
AcDbCircle
 10
1791.8299721044546
 20
389.78944049543605
 30
0.0
 40
1.0
  0
TEXT
  5
51
330
17
100
AcDbEntity
  8
LABEL
100
AcDbText
 10
1793.8299721044546
 20
391.78944049543605
 30
0.0
 40
3.0
  1
J0769
100
AcDbText
  0
CIRCLE
  5
52
330
17
100
AcDbEntity
  8
NOTCH
100
AcDbCircle
 10
1884.4042477567223
 20
367.43785830297657
 30
0.0
 40
1.0
  0
TEXT
  5
53
330
17
100
AcDbEntity
  8
LABEL
100
AcDbText
 10
1886.4042477567223
 20
369.43785830297657
 30
0.0
 40
3.0
  1
J0769
100
AcDbText
  0
CIRCLE
  5
54
330
17
100
AcDbEntity
  8
NOTCH
100
AcDbCircle
 10
1930.6981200958173
 20
353.1776602705942
 30
0.0
 40
1.0
  0
TEXT
  5
55
330
17
100
AcDbEntity
  8
LABEL
100
AcDbText
 10
1932.6981200958173
 20
355.1776602705942
 30
0.0
 40
3.0
  1
J0769
100
AcDbText
  0
CIRCLE
  5
56
330
17
100
AcDbEntity
  8
NOTCH
100
AcDbCircle
 10
2023.3043361762934
 20
316.19736195877374
 30
0.0
 40
1.0
  0
TEXT
  5
57
330
17
100
AcDbEntity
  8
LABEL
100
AcDbText
 10
2025.3043361762934
 20
318.19736195877374
 30
0.0
 40
3.0
  1
J0769
100
AcDbText
  0
CIRCLE
  5
58
330
17
100
AcDbEntity
  8
NOTCH
100
AcDbCircle
 10
2092.779035657259
 20
279.28499958615896
 30
0.0
 40
1.0
  0
TEXT
  5
59
330
17
100
AcDbEntity
  8
LABEL
100
AcDbText
 10
2094.779035657259
 20
281.28499958615896
 30
0.0
 40
3.0
  1
J0769
100
AcDbText
  0
CIRCLE
  5
5A
330
17
100
AcDbEntity
  8
NOTCH
100
AcDbCircle
 10
2139.112473237791
 20
246.90392097551472
 30
0.0
 40
1.0
  0
TEXT
  5
5B
330
17
100
AcDbEntity
  8
LABEL
100
AcDbText
 10
2141.112473237791
 20
248.90392097551472
 30
0.0
 40
3.0
  1
J0769
100
AcDbText
  0
CIRCLE
  5
5C
330
17
100
AcDbEntity
  8
NOTCH
100
AcDbCircle
 10
2208.6602362997664
 20
176.5284385004009
 30
0.0
 40
1.0
  0
TEXT
  5
5D
330
17
100
AcDbEntity
  8
LABEL
100
AcDbText
 10
2210.6602362997664
 20
178.5284385004009
 30
0.0
 40
3.0
  1
J0769
100
AcDbText
  0
CIRCLE
  5
5E
330
17
100
AcDbEntity
  8
NOTCH
100
AcDbCircle
 10
2255.0976018605425
 20
96.54834493815736
 30
0.0
 40
1.0
  0
TEXT
  5
5F
330
17
100
AcDbEntity
  8
LABEL
100
AcDbText
 10
2257.0976018605425
 20
98.54834493815736
 30
0.0
 40
3.0
  1
J0769
100
AcDbText
  0
CIRCLE
  5
60
330
17
100
AcDbEntity
  8
NOTCH
100
AcDbCircle
 10
195.9169741821446
 20
320.4424909900113
 30
0.0
 40
1.0
  0
TEXT
  5
61
330
17
100
AcDbEntity
  8
LABEL
100
AcDbText
 10
197.9169741821446
 20
322.4424909900113
 30
0.0
 40
3.0
  1
J0769
100
AcDbText
  0
CIRCLE
  5
62
330
17
100
AcDbEntity
  8
NOTCH
100
AcDbCircle
 10
242.05306034986924
 20
378.4483594456209
 30
0.0
 40
1.0
  0
TEXT
  5
63
330
17
100
AcDbEntity
  8
LABEL
100
AcDbText
 10
244.05306034986924
 20
380.4483594456209
 30
0.0
 40
3.0
  1
J0769
100
AcDbText
  0
CIRCLE
  5
64
330
17
100
AcDbEntity
  8
NOTCH
100
AcDbCircle
 10
311.329672873445
 20
432.2598235578464
 30
0.0
 40
1.0
  0
TEXT
  5
65
330
17
100
AcDbEntity
  8
LABEL
100
AcDbText
 10
313.329672873445
 20
434.2598235578464
 30
0.0
 40
3.0
  1
J0769
100
AcDbText
  0
CIRCLE
  5
66
330
17
100
AcDbEntity
  8
NOTCH
100
AcDbCircle
 10
380.64708422123164
 20
467.38542618144743
 30
0.0
 40
1.0
  0
TEXT
  5
67
330
17
100
AcDbEntity
  8
LABEL
100
AcDbText
 10
382.64708422123164
 20
469.38542618144743
 30
0.0
 40
3.0
  1
J0769
100
AcDbText
  0
CIRCLE
  5
68
330
17
100
AcDbEntity
  8
NOTCH
100
AcDbCircle
 10
473.1504669690462
 20
477.5027942286508
 30
0.0
 40
1.0
  0
TEXT
  5
69
330
17
100
AcDbEntity
  8
LABEL
100
AcDbText
 10
475.1504669690462
 20
479.5027942286508
 30
0.0
 40
3.0
  1
J0769
100
AcDbText
  0
CIRCLE
  5
6A
330
17
100
AcDbEntity
  8
NOTCH
100
AcDbCircle
 10
519.446060608979
 20
462.4542404124942
 30
0.0
 40
1.0
  0
TEXT
  5
6B
330
17
100
AcDbEntity
  8
LABEL
100
AcDbText
 10
521.446060608979
 20
464.4542404124942
 30
0.0
 40
3.0
  1
J0769
100
AcDbText
  0
CIRCLE
  5
6C
330
17
100
AcDbEntity
  8
NOTCH
100
AcDbCircle
 10
588.9145543042948
 20
428.3841278675104
 30
0.0
 40
1.0
  0
TEXT
  5
6D
330
17
100
AcDbEntity
  8
LABEL
100
AcDbText
 10
590.9145543042948
 20
430.3841278675104
 30
0.0
 40
3.0
  1
J0769
100
AcDbText
  0
CIRCLE
  5
6E
330
17
100
AcDbEntity
  8
NOTCH
100
AcDbCircle
 10
658.3800291216827
 20
395.69666141350734
 30
0.0
 40
1.0
  0
TEXT
  5
6F
330
17
100
AcDbEntity
  8
LABEL
100
AcDbText
 10
660.3800291216827
 20
397.69666141350734
 30
0.0
 40
3.0
  1
J0769
100
AcDbText
  0
CIRCLE
  5
70
330
17
100
AcDbEntity
  8
NOTCH
100
AcDbCircle
 10
727.8508527594959
 20
360.5594352047466
 30
0.0
 40
1.0
  0
TEXT
  5
71
330
17
100
AcDbEntity
  8
LABEL
100
AcDbText
 10
729.8508527594959
 20
362.5594352047466
 30
0.0
 40
3.0
  1
J0769
100
AcDbText
  0
CIRCLE
  5
72
330
17
100
AcDbEntity
  8
NOTCH
100
AcDbCircle
 10
774.1439669927713
 20
346.64644963773156
 30
0.0
 40
1.0
  0
TEXT
  5
73
330
17
100
AcDbEntity
  8
LABEL
100
AcDbText
 10
776.1439669927713
 20
348.64644963773156
 30
0.0
 40
3.0
  1
J0769
100
AcDbText
  0
CIRCLE
  5
74
330
17
100
AcDbEntity
  8
NOTCH
100
AcDbCircle
 10
843.3548922662037
 20
430.5426743151208
 30
0.0
 40
1.0
  0
TEXT
  5
75
330
17
100
AcDbEntity
  8
LABEL
100
AcDbText
 10
845.3548922662037
 20
432.5426743151208
 30
0.0
 40
3.0
  1
J0769
100
AcDbText
  0
CIRCLE
  5
76
330
17
100
AcDbEntity
  8
NOTCH
100
AcDbCircle
 10
912.6475753703651
 20
476.99381251899945
 30
0.0
 40
1.0
  0
TEXT
  5
77
330
17
100
AcDbEntity
  8
LABEL
100
AcDbText
 10
914.6475753703651
 20
478.99381251899945
 30
0.0
 40
3.0
  1
J0769
100
AcDbText
  0
CIRCLE
  5
78
330
17
100
AcDbEntity
  8
NOTCH
100
AcDbCircle
 10
961.2899927532679
 20
-612.9000155777231
 30
0.0
 40
1.0
  0
TEXT
  5
79
330
17
100
AcDbEntity
  8
LABEL
100
AcDbText
 10
963.2899927532679
 20
-610.9000155777231
 30
0.0
 40
3.0
  1
J0770
100
AcDbText
  0
CIRCLE
  5
7A
330
17
100
AcDbEntity
  8
NOTCH
100
AcDbCircle
 10
1007.5522281086835
 20
-612.6704750837907
 30
0.0
 40
1.0
  0
TEXT
  5
7B
330
17
100
AcDbEntity
  8
LABEL
100
AcDbText
 10
1009.5522281086835
 20
-610.6704750837907
 30
0.0
 40
3.0
  1
J0770
100
AcDbText
  0
CIRCLE
  5
7C
330
17
100
AcDbEntity
  8
NOTCH
100
AcDbCircle
 10
1100.067462355386
 20
-607.9810935327308
 30
0.0
 40
1.0
  0
TEXT
  5
7D
330
17
100
AcDbEntity
  8
LABEL
100
AcDbText
 10
1102.067462355386
 20
-605.9810935327308
 30
0.0
 40
3.0
  1
J0770
100
AcDbText
  0
CIRCLE
  5
7E
330
17
100
AcDbEntity
  8
NOTCH
100
AcDbCircle
 10
1192.5740736153489
 20
-599.3423840523648
 30
0.0
 40
1.0
  0
TEXT
  5
7F
330
17
100
AcDbEntity
  8
LABEL
100
AcDbText
 10
1194.5740736153489
 20
-597.3423840523648
 30
0.0
 40
3.0
  1
J0770
100
AcDbText
  0
CIRCLE
  5
80
330
17
100
AcDbEntity
  8
NOTCH
100
AcDbCircle
 10
1238.8272785561292
 20
-594.9769136530751
 30
0.0
 40
1.0
  0
TEXT
  5
81
330
17
100
AcDbEntity
  8
LABEL
100
AcDbText
 10
1240.8272785561292
 20
-592.9769136530751
 30
0.0
 40
3.0
  1
J0770
100
AcDbText
  0
CIRCLE
  5
82
330
17
100
AcDbEntity
  8
NOTCH
100
AcDbCircle
 10
1331.334407853844
 20
-586.5754654501155
 30
0.0
 40
1.0
  0
TEXT
  5
83
330
17
100
AcDbEntity
  8
LABEL
100
AcDbText
 10
1333.334407853844
 20
-584.5754654501155
 30
0.0
 40
3.0
  1
J0770
100
AcDbText
  0
CIRCLE
  5
84
330
17
100
AcDbEntity
  8
NOTCH
100
AcDbCircle
 10
1423.8394390328895
 20
-577.2130789063542
 30
0.0
 40
1.0
  0
TEXT
  5
85
330
17
100
AcDbEntity
  8
LABEL
100
AcDbText
 10
1425.8394390328895
 20
-575.2130789063542
 30
0.0
 40
3.0
  1
J0770
100
AcDbText
  0
CIRCLE
  5
86
330
17
100
AcDbEntity
  8
NOTCH
100
AcDbCircle
 10
1470.0908599963655
 20
-572.0305469050354
 30
0.0
 40
1.0
  0
TEXT
  5
87
330
17
100
AcDbEntity
  8
LABEL
100
AcDbText
 10
1472.0908599963655
 20
-570.0305469050354
 30
0.0
 40
3.0
  1
J0770
100
AcDbText
  0
CIRCLE
  5
88
330
17
100
AcDbEntity
  8
NOTCH
100
AcDbCircle
 10
1562.591059540936
 20
-560.45527177094
 30
0.0
 40
1.0
  0
TEXT
  5
89
330
17
100
AcDbEntity
  8
LABEL
100
AcDbText
 10
1564.591059540936
 20
-558.45527177094
 30
0.0
 40
3.0
  1
J0770
100
AcDbText
  0
CIRCLE
  5
8A
330
17
100
AcDbEntity
  8
NOTCH
100
AcDbCircle
 10
1655.0876007089605
 20
-547.2044601838593
 30
0.0
 40
1.0
  0
TEXT
  5
8B
330
17
100
AcDbEntity
  8
LABEL
100
AcDbText
 10
1657.0876007089605
 20
-545.2044601838593
 30
0.0
 40
3.0
  1
J0770
100
AcDbText
  0
CIRCLE
  5
8C
330
17
100
AcDbEntity
  8
NOTCH
100
AcDbCircle
 10
1701.3339159788766
 20
-539.6835205324993
 30
0.0
 40
1.0
  0
TEXT
  5
8D
330
17
100
AcDbEntity
  8
LABEL
100
AcDbText
 10
1703.3339159788766
 20
-537.6835205324993
 30
0.0
 40
3.0
  1
J0770
100
AcDbText
  0
CIRCLE
  5
8E
330
17
100
AcDbEntity
  8
NOTCH
100
AcDbCircle
 10
1793.8206932466323
 20
-521.9608426196623
 30
0.0
 40
1.0
  0
TEXT
  5
8F
330
17
100
AcDbEntity
  8
LABEL
100
AcDbText
 10
1795.8206932466323
 20
-519.9608426196623
 30
0.0
 40
3.0
  1
J0770
100
AcDbText
  0
CIRCLE
  5
90
330
17
100
AcDbEntity
  8
NOTCH
100
AcDbCircle
 10
1886.2964815542941
 20
-499.20522098624133
 30
0.0
 40
1.0
  0
TEXT
  5
91
330
17
100
AcDbEntity
  8
LABEL
100
AcDbText
 10
1888.2964815542941
 20
-497.20522098624133
 30
0.0
 40
3.0
  1
J0770
100
AcDbText
  0
CIRCLE
  5
92
330
17
100
AcDbEntity
  8
NOTCH
100
AcDbCircle
 10
1932.5276411951656
 20
-484.7430032333788
 30
0.0
 40
1.0
  0
TEXT
  5
93
330
17
100
AcDbEntity
  8
LABEL
100
AcDbText
 10
1934.5276411951656
 20
-482.7430032333788
 30
0.0
 40
3.0
  1
J0770
100
AcDbText
  0
CIRCLE
  5
94
330
17
100
AcDbEntity
  8
NOTCH
100
AcDbCircle
 10
2024.9714890746318
 20
-447.35866548059744
 30
0.0
 40
1.0
  0
TEXT
  5
95
330
17
100
AcDbEntity
  8
LABEL
100
AcDbText
 10
2026.9714890746318
 20
-445.35866548059744
 30
0.0
 40
3.0
  1
J0770
100
AcDbText
  0
CIRCLE
  5
96
330
17
100
AcDbEntity
  8
NOTCH
100
AcDbCircle
 10
2094.2843375636203
 20
-410.14327352726264
 30
0.0
 40
1.0
  0
TEXT
  5
97
330
17
100
AcDbEntity
  8
LABEL
100
AcDbText
 10
2096.2843375636203
 20
-408.14327352726264
 30
0.0
 40
3.0
  1
J0770
100
AcDbText
  0
CIRCLE
  5
98
330
17
100
AcDbEntity
  8
NOTCH
100
AcDbCircle
 10
2140.4759319630575
 20
-377.56017519613783
 30
0.0
 40
1.0
  0
TEXT
  5
99
330
17
100
AcDbEntity
  8
LABEL
100
AcDbText
 10
2142.4759319630575
 20
-375.56017519613783
 30
0.0
 40
3.0
  1
J0770
100
AcDbText
  0
CIRCLE
  5
9A
330
17
100
AcDbEntity
  8
NOTCH
100
AcDbCircle
 10
2209.7157168710355
 20
-306.88166314030315
 30
0.0
 40
1.0
  0
TEXT
  5
9B
330
17
100
AcDbEntity
  8
LABEL
100
AcDbText
 10
2211.7157168710355
 20
-304.88166314030315
 30
0.0
 40
3.0
  1
J0770
100
AcDbText
  0
CIRCLE
  5
9C
330
17
100
AcDbEntity
  8
NOTCH
100
AcDbCircle
 10
2255.803383290228
 20
-226.6995498575791
 30
0.0
 40
1.0
  0
TEXT
  5
9D
330
17
100
AcDbEntity
  8
LABEL
100
AcDbText
 10
2257.803383290228
 20
-224.6995498575791
 30
0.0
 40
3.0
  1
J0770
100
AcDbText
  0
CIRCLE
  5
9E
330
17
100
AcDbEntity
  8
NOTCH
100
AcDbCircle
 10
197.62008785999996
 20
-459.58357347080926
 30
0.0
 40
1.0
  0
TEXT
  5
9F
330
17
100
AcDbEntity
  8
LABEL
100
AcDbText
 10
199.62008785999996
 20
-457.58357347080926
 30
0.0
 40
3.0
  1
J0770
100
AcDbText
  0
CIRCLE
  5
A0
330
17
100
AcDbEntity
  8
NOTCH
100
AcDbCircle
 10
244.0090336722463
 20
-517.3874222059395
 30
0.0
 40
1.0
  0
TEXT
  5
A1
330
17
100
AcDbEntity
  8
LABEL
100
AcDbText
 10
246.0090336722463
 20
-515.3874222059395
 30
0.0
 40
3.0
  1
J0770
100
AcDbText
  0
CIRCLE
  5
A2
330
17
100
AcDbEntity
  8
NOTCH
100
AcDbCircle
 10
313.5199691186265
 20
-570.8958567374457
 30
0.0
 40
1.0
  0
TEXT
  5
A3
330
17
100
AcDbEntity
  8
LABEL
100
AcDbText
 10
315.5199691186265
 20
-568.8958567374457
 30
0.0
 40
3.0
  1
J0770
100
AcDbText
  0
CIRCLE
  5
A4
330
17
100
AcDbEntity
  8
NOTCH
100
AcDbCircle
 10
382.9901057407867
 20
-605.7184297803278
 30
0.0
 40
1.0
  0
TEXT
  5
A5
330
17
100
AcDbEntity
  8
LABEL
100
AcDbText
 10
384.9901057407867
 20
-603.7184297803278
 30
0.0
 40
3.0
  1
J0770
100
AcDbText
  0
CIRCLE
  5
A6
330
17
100
AcDbEntity
  8
NOTCH
100
AcDbCircle
 10
475.536786952904
 20
-615.4317583865721
 30
0.0
 40
1.0
  0
TEXT
  5
A7
330
17
100
AcDbEntity
  8
LABEL
100
AcDbText
 10
477.536786952904
 20
-613.4317583865721
 30
0.0
 40
3.0
  1
J0770
100
AcDbText
  0
CIRCLE
  5
A8
330
17
100
AcDbEntity
  8
NOTCH
100
AcDbCircle
 10
521.7662252929474
 20
-600.1811848499369
 30
0.0
 40
1.0
  0
TEXT
  5
A9
330
17
100
AcDbEntity
  8
LABEL
100
AcDbText
 10
523.7662252929474
 20
-598.1811848499369
 30
0.0
 40
3.0
  1
J0770
100
AcDbText
  0
CIRCLE
  5
AA
330
17
100
AcDbEntity
  8
NOTCH
100
AcDbCircle
 10
591.0852795675937
 20
-565.8080427242335
 30
0.0
 40
1.0
  0
TEXT
  5
AB
330
17
100
AcDbEntity
  8
LABEL
100
AcDbText
 10
593.0852795675937
 20
-563.8080427242335
 30
0.0
 40
3.0
  1
J0770
100
AcDbText
  0
CIRCLE
  5
AC
330
17
100
AcDbEntity
  8
NOTCH
100
AcDbCircle
 10
660.4073527201588
 20
-532.8175466895109
 30
0.0
 40
1.0
  0
TEXT
  5
AD
330
17
100
AcDbEntity
  8
LABEL
100
AcDbText
 10
662.4073527201588
 20
-530.8175466895109
 30
0.0
 40
3.0
  1
J0770
100
AcDbText
  0
CIRCLE
  5
AE
330
17
100
AcDbEntity
  8
NOTCH
100
AcDbCircle
 10
729.7240770523042
 20
-497.3772909000304
 30
0.0
 40
1.0
  0
TEXT
  5
AF
330
17
100
AcDbEntity
  8
LABEL
100
AcDbText
 10
731.7240770523042
 20
-495.3772909000304
 30
0.0
 40
3.0
  1
J0770
100
AcDbText
  0
CIRCLE
  5
B0
330
17
100
AcDbEntity
  8
NOTCH
100
AcDbCircle
 10
775.9559947990009
 20
-483.26228561253464
 30
0.0
 40
1.0
  0
TEXT
  5
B1
330
17
100
AcDbEntity
  8
LABEL
100
AcDbText
 10
777.9559947990009
 20
-481.26228561253464
 30
0.0
 40
3.0
  1
J0770
100
AcDbText
  0
CIRCLE
  5
B2
330
17
100
AcDbEntity
  8
NOTCH
100
AcDbCircle
 10
845.5326174955233
 20
-566.8554807092025
 30
0.0
 40
1.0
  0
TEXT
  5
B3
330
17
100
AcDbEntity
  8
LABEL
100
AcDbText
 10
847.5326174955233
 20
-564.8554807092025
 30
0.0
 40
3.0
  1
J0770
100
AcDbText
  0
CIRCLE
  5
B4
330
17
100
AcDbEntity
  8
NOTCH
100
AcDbCircle
 10
915.0274823613111
 20
-613.0035893323602
 30
0.0
 40
1.0
  0
TEXT
  5
B5
330
17
100
AcDbEntity
  8
LABEL
100
AcDbText
 10
917.0274823613111
 20
-611.0035893323602
 30
0.0
 40
3.0
  1
J0770
100
AcDbText
  0
CIRCLE
  5
B6
330
17
100
AcDbEntity
  8
NOTCH
100
AcDbCircle
 10
2290.1473795678735
 20
-64.99984506453076
 30
0.0
 40
1.0
  0
TEXT
  5
B7
330
17
100
AcDbEntity
  8
LABEL
100
AcDbText
 10
2292.1473795678735
 20
-62.99984506453076
 30
0.0
 40
3.0
  1
J0771
100
AcDbText
  0
CIRCLE
  5
B8
330
17
100
AcDbEntity
  8
NOTCH
100
AcDbCircle
 10
0.15283806363800065
 20
-69.9998331464176
 30
0.0
 40
1.0
  0
TEXT
  5
B9
330
17
100
AcDbEntity
  8
LABEL
100
AcDbText
 10
2.1528380636380007
 20
-67.9998331464176
 30
0.0
 40
3.0
  1
J0772
100
AcDbText
  0
ENDSEC
  0
SECTION
  2
OBJECTS
  0
DICTIONARY
  5
A
330
0
100
AcDbDictionary
281
1
  3
ACAD_COLOR
350
B
  3
ACAD_GROUP
350
C
  3
ACAD_LAYOUT
350
D
  3
ACAD_MATERIAL
350
E
  3
ACAD_MLEADERSTYLE
350
F
  3
ACAD_MLINESTYLE
350
10
  3
ACAD_PLOTSETTINGS
350
11
  3
ACAD_PLOTSTYLENAME
350
12
  3
ACAD_SCALELIST
350
14
  3
ACAD_TABLESTYLE
350
15
  3
ACAD_VISUALSTYLE
350
16
  3
EZDXF_META
350
2D
  0
DICTIONARY
  5
B
330
A
100
AcDbDictionary
281
1
  0
DICTIONARY
  5
C
330
A
100
AcDbDictionary
281
1
  0
DICTIONARY
  5
D
330
A
100
AcDbDictionary
281
1
  3
Model
350
1A
  3
Layout1
350
1E
  0
DICTIONARY
  5
E
330
A
100
AcDbDictionary
281
1
  3
ByBlock
350
1F
  3
ByLayer
350
20
  3
Global
350
21
  0
DICTIONARY
  5
F
330
A
100
AcDbDictionary
281
1
  3
Standard
350
2C
  0
DICTIONARY
  5
10
330
A
100
AcDbDictionary
281
1
  3
Standard
350
22
  0
DICTIONARY
  5
11
330
A
100
AcDbDictionary
281
1
  0
ACDBDICTIONARYWDFLT
  5
12
330
A
100
AcDbDictionary
281
1
  3
Normal
350
13
100
AcDbDictionaryWithDefault
340
13
  0
ACDBPLACEHOLDER
  5
13
330
12
  0
DICTIONARY
  5
14
330
A
100
AcDbDictionary
281
1
  0
DICTIONARY
  5
15
330
A
100
AcDbDictionary
281
1
  0
DICTIONARY
  5
16
330
A
100
AcDbDictionary
281
1
  0
LAYOUT
  5
1A
330
D
100
AcDbPlotSettings
  1

  4
A3
  6

 40
7.5
 41
20.0
 42
7.5
 43
20.0
 44
420.0
 45
297.0
 46
0.0
 47
0.0
 48
0.0
 49
0.0
140
0.0
141
0.0
142
1.0
143
1.0
 70
1024
 72
1
 73
0
 74
5
  7

 75
16
 76
0
 77
2
 78
300
147
1.0
148
0.0
149
0.0
100
AcDbLayout
  1
Model
 70
1
 71
0
 10
0.0
 20
0.0
 11
420.0
 21
297.0
 12
0.0
 22
0.0
 32
0.0
 14
1e+20
 24
1e+20
 34
1e+20
 15
-1e+20
 25
-1e+20
 35
-1e+20
146
0.0
 13
0.0
 23
0.0
 33
0.0
 16
1.0
 26
0.0
 36
0.0
 17
0.0
 27
1.0
 37
0.0
 76
1
330
17
  0
LAYOUT
  5
1E
330
D
100
AcDbPlotSettings
  1

  4
A3
  6

 40
7.5
 41
20.0
 42
7.5
 43
20.0
 44
420.0
 45
297.0
 46
0.0
 47
0.0
 48
0.0
 49
0.0
140
0.0
141
0.0
142
1.0
143
1.0
 70
0
 72
1
 73
0
 74
5
  7

 75
16
 76
0
 77
2
 78
300
147
1.0
148
0.0
149
0.0
100
AcDbLayout
  1
Layout1
 70
1
 71
1
 10
0.0
 20
0.0
 11
420.0
 21
297.0
 12
0.0
 22
0.0
 32
0.0
 14
1e+20
 24
1e+20
 34
1e+20
 15
-1e+20
 25
-1e+20
 35
-1e+20
146
0.0
 13
0.0
 23
0.0
 33
0.0
 16
1.0
 26
0.0
 36
0.0
 17
0.0
 27
1.0
 37
0.0
 76
1
330
1B
  0
MATERIAL
  5
1F
102
{ACAD_REACTORS
330
E
102
}
330
E
100
AcDbMaterial
  1
ByBlock
  2

 70
0
 40
1.0
 71
1
 41
1.0
 91
-1023410177
 42
1.0
 72
1
  3

 73
1
 74
1
 75
1
 44
0.5
 73
0
 45
1.0
 46
1.0
 77
1
  4

 78
1
 79
1
170
1
 48
1.0
171
1
  6

172
1
173
1
174
1
140
1.0
141
1.0
175
1
  7

176
1
177
1
178
1
143
1.0
179
1
  8

270
1
271
1
272
1
145
1.0
146
1.0
273
1
  9

274
1
275
1
276
1
 42
1.0
 72
1
  3

 73
1
 74
1
 75
1
 94
63
  0
MATERIAL
  5
20
102
{ACAD_REACTORS
330
E
102
}
330
E
100
AcDbMaterial
  1
ByLayer
  2

 70
0
 40
1.0
 71
1
 41
1.0
 91
-1023410177
 42
1.0
 72
1
  3

 73
1
 74
1
 75
1
 44
0.5
 73
0
 45
1.0
 46
1.0
 77
1
  4

 78
1
 79
1
170
1
 48
1.0
171
1
  6

172
1
173
1
174
1
140
1.0
141
1.0
175
1
  7

176
1
177
1
178
1
143
1.0
179
1
  8

270
1
271
1
272
1
145
1.0
146
1.0
273
1
  9

274
1
275
1
276
1
 42
1.0
 72
1
  3

 73
1
 74
1
 75
1
 94
63
  0
MATERIAL
  5
21
102
{ACAD_REACTORS
330
E
102
}
330
E
100
AcDbMaterial
  1
Global
  2

 70
0
 40
1.0
 71
1
 41
1.0
 91
-1023410177
 42
1.0
 72
1
  3

 73
1
 74
1
 75
1
 44
0.5
 73
0
 45
1.0
 46
1.0
 77
1
  4

 78
1
 79
1
170
1
 48
1.0
171
1
  6

172
1
173
1
174
1
140
1.0
141
1.0
175
1
  7

176
1
177
1
178
1
143
1.0
179
1
  8

270
1
271
1
272
1
145
1.0
146
1.0
273
1
  9

274
1
275
1
276
1
 42
1.0
 72
1
  3

 73
1
 74
1
 75
1
 94
63
  0
MLINESTYLE
  5
22
102
{ACAD_REACTORS
330
10
102
}
330
10
100
AcDbMlineStyle
  2
Standard
 70
0
  3

 62
256
 51
90.0
 52
90.0
 71
2
 49
0.5
 62
256
  6
BYLAYER
 49
-0.5
 62
256
  6
BYLAYER
  0
MLEADERSTYLE
  5
2C
102
{ACAD_REACTORS
330
F
102
}
330
F
100
AcDbMLeaderStyle
179
2
170
2
171
1
172
0
 90
2
 40
0.0
 41
0.0
173
1
 91
-1056964608
 92
-2
290
1
 42
2.0
291
1
 43
8.0
  3
Standard
 44
4.0
300

342
29
174
1
175
1
176
0
178
1
 93
-1056964608
 45
4.0
292
0
297
0
 46
4.0
 94
-1056964608
 47
1.0
 49
1.0
140
1.0
294
1
141
0.0
177
0
142
1.0
295
0
296
0
143
3.75
271
0
272
9
273
9
  0
DICTIONARY
  5
2D
330
A
100
AcDbDictionary
280
1
281
1
  3
CREATED_BY_EZDXF
350
2E
  3
WRITTEN_BY_EZDXF
350
BC
  0
DICTIONARYVAR
  5
2E
330
2D
100
DictionaryVariables
280
0
  1
1.4.4 @ 2026-10-04T18:29:01.989845+00:00
  0
DICTIONARYVAR
  5
BC
330
2D
100
DictionaryVariables
280
0
  1
1.4.4 @ 2026-10-04T18:29:01.995341+00:00
  0
ENDSEC
  0
EOF
