  0
SECTION
  2
HEADER
  9
$ACADVER
  1
AC1024
  9
$ACADMAINTVER
 70
6
  9
$DWGCODEPAGE
  3
ANSI_1252
  9
$LASTSAVEDBY
  1
ezdxf
  9
$INSBASE
 10
0.0
 20
0.0
 30
0.0
  9
$EXTMIN
 10
1e+20
 20
1e+20
 30
1e+20
  9
$EXTMAX
 10
-1e+20
 20
-1e+20
 30
-1e+20
  9
$LIMMIN
 10
0.0
 20
0.0
  9
$LIMMAX
 10
420.0
 20
297.0
  9
$ORTHOMODE
 70
0
  9
$REGENMODE
 70
1
  9
$FILLMODE
 70
1
  9
$QTEXTMODE
 70
0
  9
$MIRRTEXT
 70
1
  9
$LTSCALE
 40
1.0
  9
$ATTMODE
 70
1
  9
$TEXTSIZE
 40
2.5
  9
$TRACEWID
 40
1.0
  9
$TEXTSTYLE
  7
Standard
  9
$CLAYER
  8
0
  9
$CELTYPE
  6
ByLayer
  9
$CECOLOR
 62
256
  9
$CELTSCALE
 40
1.0
  9
$DISPSILH
 70
0
  9
$DIMSCALE
 40
1.0
  9
$DIMASZ
 40
2.5
  9
$DIMEXO
 40
0.625
  9
$DIMDLI
 40
3.75
  9
$DIMRND
 40
0.0
  9
$DIMDLE
 40
0.0
  9
$DIMEXE
 40
1.25
  9
$DIMTP
 40
0.0
  9
$DIMTM
 40
0.0
  9
$DIMTXT
 40
2.5
  9
$DIMCEN
 40
2.5
  9
$DIMTSZ
 40
0.0
  9
$DIMTOL
 70
0
  9
$DIMLIM
 70
0
  9
$DIMTIH
 70
0
  9
$DIMTOH
 70
0
  9
$DIMSE1
 70
0
  9
$DIMSE2
 70
0
  9
$DIMTAD
 70
1
  9
$DIMZIN
 70
8
  9
$DIMBLK
  1

  9
$DIMASO
 70
1
  9
$DIMSHO
 70
1
  9
$DIMPOST
  1

  9
$DIMAPOST
  1

  9
$DIMALT
 70
0
  9
$DIMALTD
 70
3
  9
$DIMALTF
 40
0.03937007874
  9
$DIMLFAC
 40
1.0
  9
$DIMTOFL
 70
1
  9
$DIMTVP
 40
0.0
  9
$DIMTIX
 70
0
  9
$DIMSOXD
 70
0
  9
$DIMSAH
 70
0
  9
$DIMBLK1
  1

  9
$DIMBLK2
  1

  9
$DIMSTYLE
  2
ISO-25
  9
$DIMCLRD
 70
0
  9
$DIMCLRE
 70
0
  9
$DIMCLRT
 70
0
  9
$DIMTFAC
 40
1.0
  9
$DIMGAP
 40
0.625
  9
$DIMJUST
 70
0
  9
$DIMSD1
 70
0
  9
$DIMSD2
 70
0
  9
$DIMTOLJ
 70
0
  9
$DIMTZIN
 70
8
  9
$DIMALTZ
 70
0
  9
$DIMALTTZ
 70
0
  9
$DIMUPT
 70
0
  9
$DIMDEC
 70
2
  9
$DIMTDEC
 70
2
  9
$DIMALTU
 70
2
  9
$DIMALTTD
 70
3
  9
$DIMTXSTY
  7
Standard
  9
$DIMAUNIT
 70
0
  9
$DIMADEC
 70
0
  9
$DIMALTRND
 40
0.0
  9
$DIMAZIN
 70
0
  9
$DIMDSEP
 70
44
  9
$DIMATFIT
 70
3
  9
$DIMFRAC
 70
0
  9
$DIMLDRBLK
  1

  9
$DIMLUNIT
 70
2
  9
$DIMLWD
 70
-2
  9
$DIMLWE
 70
-2
  9
$DIMTMOVE
 70
0
  9
$DIMFXL
 40
1.0
  9
$DIMFXLON
 70
0
  9
$DIMJOGANG
 40
0.785398163397
  9
$DIMTFILL
 70
0
  9
$DIMTFILLCLR
 70
0
  9
$DIMARCSYM
 70
0
  9
$DIMLTYPE
  6

  9
$DIMLTEX1
  6

  9
$DIMLTEX2
  6

  9
$DIMTXTDIRECTION
 70
0
  9
$LUNITS
 70
2
  9
$LUPREC
 70
4
  9
$SKETCHINC
 40
1.0
  9
$FILLETRAD
 40
10.0
  9
$AUNITS
 70
0
  9
$AUPREC
 70
2
  9
$MENU
  1
.
  9
$ELEVATION
 40
0.0
  9
$PELEVATION
 40
0.0
  9
$THICKNESS
 40
0.0
  9
$LIMCHECK
 70
0
  9
$CHAMFERA
 40
0.0
  9
$CHAMFERB
 40
0.0
  9
$CHAMFERC
 40
0.0
  9
$CHAMFERD
 40
0.0
  9
$SKPOLY
 70
0
  9
$TDCREATE
 40
2461318.770138889
  9
$TDUCREATE
 40
2458532.153996898
  9
$TDUPDATE
 40
2461318.770138889
  9
$TDUUPDATE
 40
2458532.1544311
  9
$TDINDWG
 40
0.0
  9
$TDUSRTIMER
 40
0.0
  9
$USRTIMER
 70
1
  9
$ANGBASE
 50
0.0
  9
$ANGDIR
 70
0
  9
$PDMODE
 70
0
  9
$PDSIZE
 40
0.0
  9
$PLINEWID
 40
0.0
  9
$SPLFRAME
 70
0
  9
$SPLINETYPE
 70
6
  9
$SPLINESEGS
 70
8
  9
$HANDSEED
  5
6F
  9
$SURFTAB1
 70
6
  9
$SURFTAB2
 70
6
  9
$SURFTYPE
 70
6
  9
$SURFU
 70
6
  9
$SURFV
 70
6
  9
$UCSBASE
  2

  9
$UCSNAME
  2

  9
$UCSORG
 10
0.0
 20
0.0
 30
0.0
  9
$UCSXDIR
 10
1.0
 20
0.0
 30
0.0
  9
$UCSYDIR
 10
0.0
 20
1.0
 30
0.0
  9
$UCSORTHOREF
  2

  9
$UCSORTHOVIEW
 70
0
  9
$UCSORGTOP
 10
0.0
 20
0.0
 30
0.0
  9
$UCSORGBOTTOM
 10
0.0
 20
0.0
 30
0.0
  9
$UCSORGLEFT
 10
0.0
 20
0.0
 30
0.0
  9
$UCSORGRIGHT
 10
0.0
 20
0.0
 30
0.0
  9
$UCSORGFRONT
 10
0.0
 20
0.0
 30
0.0
  9
$UCSORGBACK
 10
0.0
 20
0.0
 30
0.0
  9
$PUCSBASE
  2

  9
$PUCSNAME
  2

  9
$PUCSORG
 10
0.0
 20
0.0
 30
0.0
  9
$PUCSXDIR
 10
1.0
 20
0.0
 30
0.0
  9
$PUCSYDIR
 10
0.0
 20
1.0
 30
0.0
  9
$PUCSORTHOREF
  2

  9
$PUCSORTHOVIEW
 70
0
  9
$PUCSORGTOP
 10
0.0
 20
0.0
 30
0.0
  9
$PUCSORGBOTTOM
 10
0.0
 20
0.0
 30
0.0
  9
$PUCSORGLEFT
 10
0.0
 20
0.0
 30
0.0
  9
$PUCSORGRIGHT
 10
0.0
 20
0.0
 30
0.0
  9
$PUCSORGFRONT
 10
0.0
 20
0.0
 30
0.0
  9
$PUCSORGBACK
 10
0.0
 20
0.0
 30
0.0
  9
$USERI1
 70
0
  9
$USERI2
 70
0
  9
$USERI3
 70
0
  9
$USERI4
 70
0
  9
$USERI5
 70
0
  9
$USERR1
 40
0.0
  9
$USERR2
 40
0.0
  9
$USERR3
 40
0.0
  9
$USERR4
 40
0.0
  9
$USERR5
 40
0.0
  9
$WORLDVIEW
 70
1
  9
$SHADEDGE
 70
3
  9
$SHADEDIF
 70
70
  9
$TILEMODE
 70
1
  9
$MAXACTVP
 70
64
  9
$PINSBASE
 10
0.0
 20
0.0
 30
0.0
  9
$PLIMCHECK
 70
0
  9
$PEXTMIN
 10
1e+20
 20
1e+20
 30
1e+20
  9
$PEXTMAX
 10
-1e+20
 20
-1e+20
 30
-1e+20
  9
$PLIMMIN
 10
0.0
 20
0.0
  9
$PLIMMAX
 10
420.0
 20
297.0
  9
$UNITMODE
 70
0
  9
$VISRETAIN
 70
1
  9
$PLINEGEN
 70
0
  9
$PSLTSCALE
 70
1
  9
$TREEDEPTH
 70
3020
  9
$CMLSTYLE
  2
Standard
  9
$CMLJUST
 70
0
  9
$CMLSCALE
 40
20.0
  9
$PROXYGRAPHICS
 70
1
  9
$MEASUREMENT
 70
1
  9
$CELWEIGHT
370
-1
  9
$ENDCAPS
280
0
  9
$JOINSTYLE
280
0
  9
$LWDISPLAY
290
0
  9
$INSUNITS
 70
4
  9
$HYPERLINKBASE
  1

  9
$STYLESHEET
  1

  9
$XEDIT
290
1
  9
$CEPSNTYPE
380
0
  9
$PSTYLEMODE
290
1
  9
$FINGERPRINTGUID
  2
{466DD857-3525-46C4-A2AB-91029D82F218}
  9
$VERSIONGUID
  2
{5B356379-7698-45CC-998F-95341D973704}
  9
$EXTNAMES
290
1
  9
$PSVPSCALE
 40
0.0
  9
$OLESTARTUP
290
0
  9
$SORTENTS
280
127
  9
$INDEXCTL
280
0
  9
$HIDETEXT
280
1
  9
$XCLIPFRAME
280
1
  9
$HALOGAP
280
0
  9
$OBSCOLOR
 70
257
  9
$OBSLTYPE
280
0
  9
$INTERSECTIONDISPLAY
280
0
  9
$INTERSECTIONCOLOR
 70
257
  9
$DIMASSOC
280
2
  9
$PROJECTNAME
  1

  9
$CAMERADISPLAY
290
0
  9
$LENSLENGTH
 40
50.0
  9
$CAMERAHEIGHT
 40
0.0
  9
$STEPSPERSEC
 40
24.0
  9
$STEPSIZE
 40
100.0
  9
$3DDWFPREC
 40
2.0
  9
$PSOLWIDTH
 40
0.005
  9
$PSOLHEIGHT
 40
0.08
  9
$LOFTANG1
 40
1.570796326795
  9
$LOFTANG2
 40
1.570796326795
  9
$LOFTMAG1
 40
0.0
  9
$LOFTMAG2
 40
0.0
  9
$LOFTPARAM
 70
7
  9
$LOFTNORMALS
280
1
  9
$LATITUDE
 40
37.795
  9
$LONGITUDE
 40
-122.394
  9
$NORTHDIRECTION
 40
0.0
  9
$TIMEZONE
 70
-8000
  9
$LIGHTGLYPHDISPLAY
280
1
  9
$TILEMODELIGHTSYNCH
280
1
  9
$CMATERIAL
347
20
  9
$SOLIDHIST
280
0
  9
$SHOWHIST
280
1
  9
$DWFFRAME
280
2
  9
$DGNFRAME
280
2
  9
$REALWORLDSCALE
290
1
  9
$INTERFERECOLOR
 62
256
  9
$CSHADOW
280
0
  9
$SHADOWPLANELOCATION
 40
0.0
  0
ENDSEC
  0
SECTION
  2
CLASSES
  0
CLASS
  1
ACDBDICTIONARYWDFLT
  2
AcDbDictionaryWithDefault
  3
ObjectDBX Classes
 90
0
 91
0
280
0
281
0
  0
CLASS
  1
SUN
  2
AcDbSun
  3
SCENEOE
 90
1153
 91
0
280
0
281
0
  0
CLASS
  1
VISUALSTYLE
  2
AcDbVisualStyle
  3
ObjectDBX Classes
 90
4095
 91
0
280
0
281
0
  0
CLASS
  1
MATERIAL
  2
AcDbMaterial
  3
ObjectDBX Classes
 90
1153
 91
0
280
0
281
0
  0
CLASS
  1
SCALE
  2
AcDbScale
  3
ObjectDBX Classes
 90
1153
 91
0
280
0
281
0
  0
CLASS
  1
TABLESTYLE
  2
AcDbTableStyle
  3
ObjectDBX Classes
 90
4095
 91
0
280
0
281
0
  0
CLASS
  1
MLEADERSTYLE
  2
AcDbMLeaderStyle
  3
ACDB_MLEADERSTYLE_CLASS
 90
4095
 91
0
280
0
281
0
  0
CLASS
  1
DICTIONARYVAR
  2
AcDbDictionaryVar
  3
ObjectDBX Classes
 90
0
 91
0
280
0
281
0
  0
CLASS
  1
CELLSTYLEMAP
  2
AcDbCellStyleMap
  3
ObjectDBX Classes
 90
1152
 91
0
280
0
281
0
  0
CLASS
  1
MENTALRAYRENDERSETTINGS
  2
AcDbMentalRayRenderSettings
  3
SCENEOE
 90
1024
 91
0
280
0
281
0
  0
CLASS
  1
ACDBDETAILVIEWSTYLE
  2
AcDbDetailViewStyle
  3
ObjectDBX Classes
 90
1025
 91
0
280
0
281
0
  0
CLASS
  1
ACDBSECTIONVIEWSTYLE
  2
AcDbSectionViewStyle
  3
ObjectDBX Classes
 90
1025
 91
0
280
0
281
0
  0
CLASS
  1
RASTERVARIABLES
  2
AcDbRasterVariables
  3
ISM
 90
0
 91
0
280
0
281
0
  0
CLASS
  1
LAYOUT
  2
AcDbLayout
  3
ObjectDBX Classes
 90
0
 91
0
280
0
281
0
  0
CLASS
  1
ACDBPLACEHOLDER
  2
AcDbPlaceHolder
  3
ObjectDBX Classes
 90
0
 91
0
280
0
281
0
  0
ENDSEC
  0
SECTION
  2
TABLES
  0
TABLE
  2
VPORT
  5
8
330
0
100
AcDbSymbolTable
 70
1
  0
VPORT
  5
23
330
8
100
AcDbSymbolTableRecord
100
AcDbViewportTableRecord
  2
*Active
 70
0
 10
0.0
 20
0.0
 11
1.0
 21
1.0
 12
0.0
 22
0.0
 13
0.0
 23
0.0
 14
0.5
 24
0.5
 15
0.5
 25
0.5
 16
0.0
 26
0.0
 36
1.0
 17
0.0
 27
0.0
 37
0.0
 40
1000.0
 41
1.34
 42
50.0
 43
0.0
 44
0.0
 50
0.0
 51
0.0
 71
0
 72
1000
 73
1
 74
3
 75
0
 76
0
 77
0
 78
0
281
0
 65
0
146
0.0
  0
ENDTAB
  0
TABLE
  2
LTYPE
  5
2
330
0
100
AcDbSymbolTable
 70
3
  0
LTYPE
  5
24
330
2
100
AcDbSymbolTableRecord
100
AcDbLinetypeTableRecord
  2
ByBlock
 70
0
  3

 72
65
 73
0
 40
0.0
  0
LTYPE
  5
25
330
2
100
AcDbSymbolTableRecord
100
AcDbLinetypeTableRecord
  2
ByLayer
 70
0
  3

 72
65
 73
0
 40
0.0
  0
LTYPE
  5
26
330
2
100
AcDbSymbolTableRecord
100
AcDbLinetypeTableRecord
  2
Continuous
 70
0
  3

 72
65
 73
0
 40
0.0
  0
ENDTAB
  0
TABLE
  2
LAYER
  5
1
330
0
100
AcDbSymbolTable
 70
8
  0
LAYER
  5
27
330
1
100
AcDbSymbolTableRecord
100
AcDbLayerTableRecord
  2
0
 70
0
 62
7
  6
Continuous
370
-3
390
13
347
21
  0
LAYER
  5
28
330
1
100
AcDbSymbolTableRecord
100
AcDbLayerTableRecord
  2
Defpoints
 70
0
 62
7
  6
Continuous
290
0
370
-3
390
13
347
21
  0
LAYER
  5
2F
330
1
100
AcDbSymbolTableRecord
100
AcDbLayerTableRecord
  2
CUT
 70
0
 62
1
  6
Continuous
370
-3
390
13
347
21
  0
LAYER
  5
30
330
1
100
AcDbSymbolTableRecord
100
AcDbLayerTableRecord
  2
SEW
 70
0
 62
5
  6
Continuous
370
-3
390
13
347
21
  0
LAYER
  5
31
330
1
100
AcDbSymbolTableRecord
100
AcDbLayerTableRecord
  2
GRAIN
 70
0
 62
3
  6
Continuous
370
-3
390
13
347
21
  0
LAYER
  5
32
330
1
100
AcDbSymbolTableRecord
100
AcDbLayerTableRecord
  2
NOTCH
 70
0
 62
2
  6
Continuous
370
-3
390
13
347
21
  0
LAYER
  5
33
330
1
100
AcDbSymbolTableRecord
100
AcDbLayerTableRecord
  2
LABEL
 70
0
 62
7
  6
Continuous
370
-3
390
13
347
21
  0
LAYER
  5
34
330
1
100
AcDbSymbolTableRecord
100
AcDbLayerTableRecord
  2
ATTACHMENT
 70
0
 62
4
  6
Continuous
370
-3
390
13
347
21
  0
ENDTAB
  0
TABLE
  2
STYLE
  5
5
330
0
100
AcDbSymbolTable
 70
1
  0
STYLE
  5
29
330
5
100
AcDbSymbolTableRecord
100
AcDbTextStyleTableRecord
  2
Standard
 70
0
 40
0.0
 41
1.0
 50
0.0
 71
0
 42
2.5
  3
txt
  4

  0
ENDTAB
  0
TABLE
  2
VIEW
  5
7
330
0
100
AcDbSymbolTable
 70
0
  0
ENDTAB
  0
TABLE
  2
UCS
  5
6
330
0
100
AcDbSymbolTable
 70
0
  0
ENDTAB
  0
TABLE
  2
APPID
  5
3
330
0
100
AcDbSymbolTable
 70
3
  0
APPID
  5
2A
330
3
100
AcDbSymbolTableRecord
100
AcDbRegAppTableRecord
  2
ACAD
 70
0
  0
APPID
  5
6C
330
3
100
AcDbSymbolTableRecord
100
AcDbRegAppTableRecord
  2
HATCHBACKGROUNDCOLOR
 70
0
  0
APPID
  5
6D
330
3
100
AcDbSymbolTableRecord
100
AcDbRegAppTableRecord
  2
EZDXF
 70
0
  0
ENDTAB
  0
TABLE
  2
DIMSTYLE
  5
4
330
0
100
AcDbSymbolTable
 70
1
100
AcDbDimStyleTable
  0
DIMSTYLE
105
2B
330
4
100
AcDbSymbolTableRecord
100
AcDbDimStyleTableRecord
  2
Standard
 70
0
 40
1.0
 41
2.5
 42
0.625
 43
3.75
 44
1.25
 45
0.0
 46
0.0
 47
0.0
 48
0.0
 49
2.5
140
2.5
141
2.5
142
0.0
143
0.03937007874
144
1.0
145
0.0
146
1.0
147
0.625
148
0.0
 69
0
 70
0
 71
0
 72
0
 73
0
 74
0
 75
0
 76
0
 77
1
 78
8
 79
3
170
0
171
3
172
1
173
0
174
0
175
0
176
0
177
0
178
0
179
2
271
2
272
2
273
2
274
3
275
0
276
0
277
2
278
44
279
0
280
0
281
0
282
0
283
0
284
8
285
0
286
0
288
0
289
3
290
0
371
-2
372
-2
  0
ENDTAB
  0
TABLE
  2
BLOCK_RECORD
  5
9
330
0
100
AcDbSymbolTable
 70
2
  0
BLOCK_RECORD
  5
17
330
9
100
AcDbSymbolTableRecord
100
AcDbBlockTableRecord
  2
*Model_Space
340
1A
 70
0
280
1
281
0
  0
BLOCK_RECORD
  5
1B
330
9
100
AcDbSymbolTableRecord
100
AcDbBlockTableRecord
  2
*Paper_Space
340
1E
 70
0
280
1
281
0
  0
ENDTAB
  0
ENDSEC
  0
SECTION
  2
BLOCKS
  0
BLOCK
  5
18
330
17
100
AcDbEntity
  8
0
100
AcDbBlockBegin
  2
*Model_Space
 70
0
 10
0.0
 20
0.0
 30
0.0
  3
*Model_Space
  1

  0
ENDBLK
  5
19
330
17
100
AcDbEntity
  8
0
100
AcDbBlockEnd
  0
BLOCK
  5
1C
330
1B
100
AcDbEntity
  8
0
100
AcDbBlockBegin
  2
*Paper_Space
 70
0
 10
0.0
 20
0.0
 30
0.0
  3
*Paper_Space
  1

  0
ENDBLK
  5
1D
330
1B
100
AcDbEntity
  8
0
100
AcDbBlockEnd
  0
ENDSEC
  0
SECTION
  2
ENTITIES
  0
LWPOLYLINE
  5
35
330
17
100
AcDbEntity
  8
CUT
100
AcDbPolyline
 90
41
 70
1
 10
-16.744534831436606
 20
1.7178351096995474
 10
49.39337486083444
 20
56.46034924856301
 10
104.76329269576874
 20
102.20543436418454
 10
165.92609784671066
 20
136.24058278169707
 10
232.24016484742322
 20
158.0905471661924
 10
312.64272807383
 20
161.9394109598765
 10
401.63087618181254
 20
150.35192157926195
 10
490.4118856622863
 20
129.2711409267799
 10
570.7319472846243
 20
104.71744763909793
 10
643.8815751237531
 20
78.23803044919146
 10
719.7092278531732
 20
45.124040690256834
 10
794.8841098378047
 20
9.560376463002479
 10
833.4954373597046
 20
-42.57497328075116
 10
867.729329378338
 20
-94.21770143403221
 10
899.2322498046705
 20
-147.10082553047275
 10
927.8145114465414
 20
-200.99090085432314
 10
953.2921492291855
 20
-255.61483042340106
 10
975.5325389552307
 20
-310.67970643195287
 10
994.4640140074671
 20
-365.88380723034703
 10
1010.080289560118
 20
-420.92452025296063
 10
1026.792098613528
 20
-494.4733166957172
 10
957.0558216055937
 20
-476.2376904710841
 10
902.5286777433965
 20
-461.2297029905808
 10
846.300748119479
 20
-445.9564642948106
 10
775.6322159082655
 20
-421.8225374921405
 10
688.4801484495699
 20
-387.8137559145128
 10
592.3780676393059
 20
-348.54305380241044
 10
495.0656997921499
 20
-309.0719017717168
 10
399.91884829516914
 20
-271.5834867818194
 10
297.2747390450601
 20
-229.40587706240538
 10
188.1528807366579
 20
-183.4571823341059
 10
66.91638475864548
 20
-128.53533729228894
 10
59.459804287639834
 20
-113.63960185765846
 10
53.63821615988421
 20
-101.82589049774703
 10
47.15909413466189
 20
-89.58119629128232
 10
39.84432501970555
 20
-76.81361052254219
 10
31.656465504718255
 20
-63.57352937460983
 10
22.608153202346863
 20
-49.93307999644592
 10
12.740238821540633
 20
-35.98278444112001
 10
2.1083205402516247
 20
-21.839387161124396
 10
-16.744534831436606
 20
1.7178351096995474
  0
LWPOLYLINE
  5
36
330
17
100
AcDbEntity
  8
SEW
100
AcDbPolyline
 90
40
 70
1
 10
0.0
 20
0.0
 10
57.04482553165537
 20
47.21614551692696
 10
111.55887943263434
 20
92.25413333958983
 10
170.76457595063746
 20
125.20021328441081
 10
234.44478032821445
 20
146.18234061544132
 10
312.151021525888
 20
149.90213170527042
 10
399.4641785933505
 20
138.5327493569665
 10
487.2685124244256
 20
117.68387736664178
 10
566.9332014895944
 20
93.33053024942913
 10
639.4334863201216
 20
67.08616858792432
 10
714.7410388241971
 20
34.19930696649298
 10
787.031926757844
 20
4.8175183661152566e-14
 10
823.6661224162006
 20
-49.46570671899896
 10
857.5677718487216
 20
-100.60723817673039
 10
888.7705227080629
 20
-152.98647551453578
 10
917.0692453434339
 20
-206.3419556895143
 10
942.283573821924
 20
-260.4013514110003
 10
964.2855993551517
 20
-314.87606263898584
 10
983.0079826176936
 20
-369.47045266721767
 10
998.4490801552499
 20
-423.8937378771505
 10
1010.7124914402181
 20
-477.865102521715
 10
960.1660983033711
 20
-464.64751804782594
 10
905.6937044747474
 20
-449.65459990270733
 10
849.8162193773198
 20
-434.476552741438
 10
779.7543672658595
 20
-410.5498125416581
 10
692.9312138932536
 20
-376.66938095775754
 10
596.9029258354857
 20
-337.42883316881733
 10
499.52050097939133
 20
-297.9292651113452
 10
404.3990015294642
 20
-260.4508389760009
 10
301.8837295823352
 20
-218.3261699418546
 10
192.95807997720195
 20
-172.46009416771608
 10
75.74287238451488
 20
-119.35994956177572
 10
70.20722820426374
 20
-108.30159761480716
 10
64.3257775913368
 20
-96.36640769860124
 10
57.67150475839049
 20
-83.79070134693437
 10
50.15638536493588
 20
-70.67341358154646
 10
41.76201981302676
 20
-57.09940429508435
 10
32.50871840796868
 20
-43.14993115814277
 10
22.436690299427365
 20
-28.91107950890281
 10
11.591056516322048
 20
-14.483381393713492
  0
LINE
  5
37
330
17
100
AcDbEntity
  8
GRAIN
100
AcDbLine
 10
492.69971464812295
 20
-162.72328484112592
 30
0.0
 11
572.699714648123
 21
-162.72328484112592
 31
0.0
  0
LINE
  5
38
330
17
100
AcDbEntity
  8
GRAIN
100
AcDbLine
 10
572.699714648123
 20
-162.72328484112592
 30
0.0
 11
567.699714648123
 21
-159.72328484112592
 31
0.0
  0
TEXT
  5
39
330
17
100
AcDbEntity
  8
LABEL
100
AcDbText
 10
532.699714648123
 20
-162.72328484112592
 30
0.0
 40
6.0
  1
H08_CANOPY_O1_A
100
AcDbText
  0
CIRCLE
  5
3A
330
17
100
AcDbEntity
  8
NOTCH
100
AcDbCircle
 10
141.16172769163592
 20
108.72717331200032
 30
0.0
 40
1.0
  0
TEXT
  5
3B
330
17
100
AcDbEntity
  8
LABEL
100
AcDbText
 10
143.16172769163592
 20
110.72717331200032
 30
0.0
 40
3.0
  1
J0926
100
AcDbText
  0
CIRCLE
  5
3C
330
17
100
AcDbEntity
  8
NOTCH
100
AcDbCircle
 10
273.2979009270512
 20
148.04223616035586
 30
0.0
 40
1.0
  0
TEXT
  5
3D
330
17
100
AcDbEntity
  8
LABEL
100
AcDbText
 10
275.2979009270512
 20
150.04223616035586
 30
0.0
 40
3.0
  1
J0926
100
AcDbText
  0
CIRCLE
  5
3E
330
17
100
AcDbEntity
  8
NOTCH
100
AcDbCircle
 10
355.80760005961923
 20
144.21744053111846
 30
0.0
 40
1.0
  0
TEXT
  5
3F
330
17
100
AcDbEntity
  8
LABEL
100
AcDbText
 10
357.80760005961923
 20
146.21744053111846
 30
0.0
 40
3.0
  1
J0926
100
AcDbText
  0
CIRCLE
  5
40
330
17
100
AcDbEntity
  8
NOTCH
100
AcDbCircle
 10
443.366345508888
 20
128.10831336180414
 30
0.0
 40
1.0
  0
TEXT
  5
41
330
17
100
AcDbEntity
  8
LABEL
100
AcDbText
 10
445.366345508888
 20
130.10831336180414
 30
0.0
 40
3.0
  1
J0926
100
AcDbText
  0
CIRCLE
  5
42
330
17
100
AcDbEntity
  8
NOTCH
100
AcDbCircle
 10
527.1008569570099
 20
105.50720380803546
 30
0.0
 40
1.0
  0
TEXT
  5
43
330
17
100
AcDbEntity
  8
LABEL
100
AcDbText
 10
529.1008569570099
 20
107.50720380803546
 30
0.0
 40
3.0
  1
J0926
100
AcDbText
  0
CIRCLE
  5
44
330
17
100
AcDbEntity
  8
NOTCH
100
AcDbCircle
 10
603.183343904858
 20
80.20834941867673
 30
0.0
 40
1.0
  0
TEXT
  5
45
330
17
100
AcDbEntity
  8
LABEL
100
AcDbText
 10
605.183343904858
 20
82.20834941867673
 30
0.0
 40
3.0
  1
J0926
100
AcDbText
  0
CIRCLE
  5
46
330
17
100
AcDbEntity
  8
NOTCH
100
AcDbCircle
 10
677.0872625721593
 20
50.64273777720865
 30
0.0
 40
1.0
  0
TEXT
  5
47
330
17
100
AcDbEntity
  8
LABEL
100
AcDbText
 10
679.0872625721593
 20
52.64273777720865
 30
0.0
 40
3.0
  1
J0926
100
AcDbText
  0
CIRCLE
  5
48
330
17
100
AcDbEntity
  8
NOTCH
100
AcDbCircle
 10
750.8864827910205
 20
17.099653483246517
 30
0.0
 40
1.0
  0
TEXT
  5
49
330
17
100
AcDbEntity
  8
LABEL
100
AcDbText
 10
752.8864827910205
 20
19.099653483246517
 30
0.0
 40
3.0
  1
J0926
100
AcDbText
  0
CIRCLE
  5
4A
330
17
100
AcDbEntity
  8
NOTCH
100
AcDbCircle
 10
28.522412765827685
 20
23.60807275846348
 30
0.0
 40
1.0
  0
TEXT
  5
4B
330
17
100
AcDbEntity
  8
LABEL
100
AcDbText
 10
30.522412765827685
 20
25.60807275846348
 30
0.0
 40
3.0
  1
J0926
100
AcDbText
  0
CIRCLE
  5
4C
330
17
100
AcDbEntity
  8
NOTCH
100
AcDbCircle
 10
902.9198840257484
 20
-179.66421560202502
 30
0.0
 40
1.0
  0
TEXT
  5
4D
330
17
100
AcDbEntity
  8
LABEL
100
AcDbText
 10
904.9198840257484
 20
-177.66421560202502
 30
0.0
 40
3.0
  1
J0931
100
AcDbText
  0
CIRCLE
  5
4E
330
17
100
AcDbEntity
  8
NOTCH
100
AcDbCircle
 10
840.6169471324611
 20
-75.03647244786467
 30
0.0
 40
1.0
  0
TEXT
  5
4F
330
17
100
AcDbEntity
  8
LABEL
100
AcDbText
 10
842.6169471324611
 20
-73.03647244786467
 30
0.0
 40
3.0
  1
J0931
100
AcDbText
  0
CIRCLE
  5
50
330
17
100
AcDbEntity
  8
NOTCH
100
AcDbCircle
 10
953.2845865885379
 20
-287.6387070249931
 30
0.0
 40
1.0
  0
TEXT
  5
51
330
17
100
AcDbEntity
  8
LABEL
100
AcDbText
 10
955.2845865885379
 20
-285.6387070249931
 30
0.0
 40
3.0
  1
J0932
100
AcDbText
  0
CIRCLE
  5
52
330
17
100
AcDbEntity
  8
NOTCH
100
AcDbCircle
 10
1004.580785797734
 20
-450.87942019943273
 30
0.0
 40
1.0
  0
TEXT
  5
53
330
17
100
AcDbEntity
  8
LABEL
100
AcDbText
 10
1006.580785797734
 20
-448.87942019943273
 30
0.0
 40
3.0
  1
J0933
100
AcDbText
  0
CIRCLE
  5
54
330
17
100
AcDbEntity
  8
NOTCH
100
AcDbCircle
 10
973.6467909864227
 20
-342.17325765310176
 30
0.0
 40
1.0
  0
TEXT
  5
55
330
17
100
AcDbEntity
  8
LABEL
100
AcDbText
 10
975.6467909864227
 20
-340.17325765310176
 30
0.0
 40
3.0
  1
J0933
100
AcDbText
  0
CIRCLE
  5
56
330
17
100
AcDbEntity
  8
NOTCH
100
AcDbCircle
 10
353.1413655558997
 20
-239.38850445892774
 30
0.0
 40
1.0
  0
TEXT
  5
57
330
17
100
AcDbEntity
  8
LABEL
100
AcDbText
 10
355.1413655558997
 20
-237.38850445892774
 30
0.0
 40
3.0
  1
J0934
100
AcDbText
  0
CIRCLE
  5
58
330
17
100
AcDbEntity
  8
NOTCH
100
AcDbCircle
 10
451.9597512544278
 20
-279.19005204367306
 30
0.0
 40
1.0
  0
TEXT
  5
59
330
17
100
AcDbEntity
  8
LABEL
100
AcDbText
 10
453.9597512544278
 20
-277.19005204367306
 30
0.0
 40
3.0
  1
J0934
100
AcDbText
  0
CIRCLE
  5
5A
330
17
100
AcDbEntity
  8
NOTCH
100
AcDbCircle
 10
548.2117134074385
 20
-317.67904914008125
 30
0.0
 40
1.0
  0
TEXT
  5
5B
330
17
100
AcDbEntity
  8
LABEL
100
AcDbText
 10
550.2117134074385
 20
-315.67904914008125
 30
0.0
 40
3.0
  1
J0934
100
AcDbText
  0
CIRCLE
  5
5C
330
17
100
AcDbEntity
  8
NOTCH
100
AcDbCircle
 10
134.3504761808584
 20
-145.9100218647459
 30
0.0
 40
1.0
  0
TEXT
  5
5D
330
17
100
AcDbEntity
  8
LABEL
100
AcDbText
 10
136.3504761808584
 20
-143.9100218647459
 30
0.0
 40
3.0
  1
J0934
100
AcDbText
  0
CIRCLE
  5
5E
330
17
100
AcDbEntity
  8
NOTCH
100
AcDbCircle
 10
247.4209047797686
 20
-195.39313205478533
 30
0.0
 40
1.0
  0
TEXT
  5
5F
330
17
100
AcDbEntity
  8
LABEL
100
AcDbText
 10
249.4209047797686
 20
-193.39313205478533
 30
0.0
 40
3.0
  1
J0934
100
AcDbText
  0
CIRCLE
  5
60
330
17
100
AcDbEntity
  8
NOTCH
100
AcDbCircle
 10
644.9170698643696
 20
-357.04910706328747
 30
0.0
 40
1.0
  0
TEXT
  5
61
330
17
100
AcDbEntity
  8
LABEL
100
AcDbText
 10
646.9170698643696
 20
-355.04910706328747
 30
0.0
 40
3.0
  1
J0935
100
AcDbText
  0
CIRCLE
  5
62
330
17
100
AcDbEntity
  8
NOTCH
100
AcDbCircle
 10
736.3427905795565
 20
-393.60959674970786
 30
0.0
 40
1.0
  0
TEXT
  5
63
330
17
100
AcDbEntity
  8
LABEL
100
AcDbText
 10
738.3427905795565
 20
-391.60959674970786
 30
0.0
 40
3.0
  1
J0935
100
AcDbText
  0
CIRCLE
  5
64
330
17
100
AcDbEntity
  8
NOTCH
100
AcDbCircle
 10
814.7852933215897
 20
-422.51318264154804
 30
0.0
 40
1.0
  0
TEXT
  5
65
330
17
100
AcDbEntity
  8
LABEL
100
AcDbText
 10
816.7852933215897
 20
-420.51318264154804
 30
0.0
 40
3.0
  1
J0935
100
AcDbText
  0
CIRCLE
  5
66
330
17
100
AcDbEntity
  8
NOTCH
100
AcDbCircle
 10
932.9299013890593
 20
-457.15105897526666
 30
0.0
 40
1.0
  0
TEXT
  5
67
330
17
100
AcDbEntity
  8
LABEL
100
AcDbText
 10
934.9299013890593
 20
-455.15105897526666
 30
0.0
 40
3.0
  1
J0935
100
AcDbText
  0
CIRCLE
  5
68
330
17
100
AcDbEntity
  8
NOTCH
100
AcDbCircle
 10
72.97505029438932
 20
-113.83077358829144
 30
0.0
 40
1.0
  0
TEXT
  5
69
330
17
100
AcDbEntity
  8
LABEL
100
AcDbText
 10
74.97505029438932
 20
-111.83077358829144
 30
0.0
 40
3.0
  1
J0936
100
AcDbText
  0
CIRCLE
  5
6A
330
17
100
AcDbEntity
  8
NOTCH
100
AcDbCircle
 10
27.47270435369802
 20
-36.03050533352279
 30
0.0
 40
1.0
  0
TEXT
  5
6B
330
17
100
AcDbEntity
  8
LABEL
100
AcDbText
 10
29.47270435369802
 20
-34.03050533352279
 30
0.0
 40
3.0
  1
J0936
100
AcDbText
  0
ENDSEC
  0
SECTION
  2
OBJECTS
  0
DICTIONARY
  5
A
330
0
100
AcDbDictionary
281
1
  3
ACAD_COLOR
350
B
  3
ACAD_GROUP
350
C
  3
ACAD_LAYOUT
350
D
  3
ACAD_MATERIAL
350
E
  3
ACAD_MLEADERSTYLE
350
F
  3
ACAD_MLINESTYLE
350
10
  3
ACAD_PLOTSETTINGS
350
11
  3
ACAD_PLOTSTYLENAME
350
12
  3
ACAD_SCALELIST
350
14
  3
ACAD_TABLESTYLE
350
15
  3
ACAD_VISUALSTYLE
350
16
  3
EZDXF_META
350
2D
  0
DICTIONARY
  5
B
330
A
100
AcDbDictionary
281
1
  0
DICTIONARY
  5
C
330
A
100
AcDbDictionary
281
1
  0
DICTIONARY
  5
D
330
A
100
AcDbDictionary
281
1
  3
Model
350
1A
  3
Layout1
350
1E
  0
DICTIONARY
  5
E
330
A
100
AcDbDictionary
281
1
  3
ByBlock
350
1F
  3
ByLayer
350
20
  3
Global
350
21
  0
DICTIONARY
  5
F
330
A
100
AcDbDictionary
281
1
  3
Standard
350
2C
  0
DICTIONARY
  5
10
330
A
100
AcDbDictionary
281
1
  3
Standard
350
22
  0
DICTIONARY
  5
11
330
A
100
AcDbDictionary
281
1
  0
ACDBDICTIONARYWDFLT
  5
12
330
A
100
AcDbDictionary
281
1
  3
Normal
350
13
100
AcDbDictionaryWithDefault
340
13
  0
ACDBPLACEHOLDER
  5
13
330
12
  0
DICTIONARY
  5
14
330
A
100
AcDbDictionary
281
1
  0
DICTIONARY
  5
15
330
A
100
AcDbDictionary
281
1
  0
DICTIONARY
  5
16
330
A
100
AcDbDictionary
281
1
  0
LAYOUT
  5
1A
330
D
100
AcDbPlotSettings
  1

  4
A3
  6

 40
7.5
 41
20.0
 42
7.5
 43
20.0
 44
420.0
 45
297.0
 46
0.0
 47
0.0
 48
0.0
 49
0.0
140
0.0
141
0.0
142
1.0
143
1.0
 70
1024
 72
1
 73
0
 74
5
  7

 75
16
 76
0
 77
2
 78
300
147
1.0
148
0.0
149
0.0
100
AcDbLayout
  1
Model
 70
1
 71
0
 10
0.0
 20
0.0
 11
420.0
 21
297.0
 12
0.0
 22
0.0
 32
0.0
 14
1e+20
 24
1e+20
 34
1e+20
 15
-1e+20
 25
-1e+20
 35
-1e+20
146
0.0
 13
0.0
 23
0.0
 33
0.0
 16
1.0
 26
0.0
 36
0.0
 17
0.0
 27
1.0
 37
0.0
 76
1
330
17
  0
LAYOUT
  5
1E
330
D
100
AcDbPlotSettings
  1

  4
A3
  6

 40
7.5
 41
20.0
 42
7.5
 43
20.0
 44
420.0
 45
297.0
 46
0.0
 47
0.0
 48
0.0
 49
0.0
140
0.0
141
0.0
142
1.0
143
1.0
 70
0
 72
1
 73
0
 74
5
  7

 75
16
 76
0
 77
2
 78
300
147
1.0
148
0.0
149
0.0
100
AcDbLayout
  1
Layout1
 70
1
 71
1
 10
0.0
 20
0.0
 11
420.0
 21
297.0
 12
0.0
 22
0.0
 32
0.0
 14
1e+20
 24
1e+20
 34
1e+20
 15
-1e+20
 25
-1e+20
 35
-1e+20
146
0.0
 13
0.0
 23
0.0
 33
0.0
 16
1.0
 26
0.0
 36
0.0
 17
0.0
 27
1.0
 37
0.0
 76
1
330
1B
  0
MATERIAL
  5
1F
102
{ACAD_REACTORS
330
E
102
}
330
E
100
AcDbMaterial
  1
ByBlock
  2

 70
0
 40
1.0
 71
1
 41
1.0
 91
-1023410177
 42
1.0
 72
1
  3

 73
1
 74
1
 75
1
 44
0.5
 73
0
 45
1.0
 46
1.0
 77
1
  4

 78
1
 79
1
170
1
 48
1.0
171
1
  6

172
1
173
1
174
1
140
1.0
141
1.0
175
1
  7

176
1
177
1
178
1
143
1.0
179
1
  8

270
1
271
1
272
1
145
1.0
146
1.0
273
1
  9

274
1
275
1
276
1
 42
1.0
 72
1
  3

 73
1
 74
1
 75
1
 94
63
  0
MATERIAL
  5
20
102
{ACAD_REACTORS
330
E
102
}
330
E
100
AcDbMaterial
  1
ByLayer
  2

 70
0
 40
1.0
 71
1
 41
1.0
 91
-1023410177
 42
1.0
 72
1
  3

 73
1
 74
1
 75
1
 44
0.5
 73
0
 45
1.0
 46
1.0
 77
1
  4

 78
1
 79
1
170
1
 48
1.0
171
1
  6

172
1
173
1
174
1
140
1.0
141
1.0
175
1
  7

176
1
177
1
178
1
143
1.0
179
1
  8

270
1
271
1
272
1
145
1.0
146
1.0
273
1
  9

274
1
275
1
276
1
 42
1.0
 72
1
  3

 73
1
 74
1
 75
1
 94
63
  0
MATERIAL
  5
21
102
{ACAD_REACTORS
330
E
102
}
330
E
100
AcDbMaterial
  1
Global
  2

 70
0
 40
1.0
 71
1
 41
1.0
 91
-1023410177
 42
1.0
 72
1
  3

 73
1
 74
1
 75
1
 44
0.5
 73
0
 45
1.0
 46
1.0
 77
1
  4

 78
1
 79
1
170
1
 48
1.0
171
1
  6

172
1
173
1
174
1
140
1.0
141
1.0
175
1
  7

176
1
177
1
178
1
143
1.0
179
1
  8

270
1
271
1
272
1
145
1.0
146
1.0
273
1
  9

274
1
275
1
276
1
 42
1.0
 72
1
  3

 73
1
 74
1
 75
1
 94
63
  0
MLINESTYLE
  5
22
102
{ACAD_REACTORS
330
10
102
}
330
10
100
AcDbMlineStyle
  2
Standard
 70
0
  3

 62
256
 51
90.0
 52
90.0
 71
2
 49
0.5
 62
256
  6
BYLAYER
 49
-0.5
 62
256
  6
BYLAYER
  0
MLEADERSTYLE
  5
2C
102
{ACAD_REACTORS
330
F
102
}
330
F
100
AcDbMLeaderStyle
179
2
170
2
171
1
172
0
 90
2
 40
0.0
 41
0.0
173
1
 91
-1056964608
 92
-2
290
1
 42
2.0
291
1
 43
8.0
  3
Standard
 44
4.0
300

342
29
174
1
175
1
176
0
178
1
 93
-1056964608
 45
4.0
292
0
297
0
 46
4.0
 94
-1056964608
 47
1.0
 49
1.0
140
1.0
294
1
141
0.0
177
0
142
1.0
295
0
296
0
143
3.75
271
0
272
9
273
9
  0
DICTIONARY
  5
2D
330
A
100
AcDbDictionary
280
1
281
1
  3
CREATED_BY_EZDXF
350
2E
  3
WRITTEN_BY_EZDXF
350
6E
  0
DICTIONARYVAR
  5
2E
330
2D
100
DictionaryVariables
280
0
  1
1.4.4 @ 2026-10-04T18:29:00.840641+00:00
  0
DICTIONARYVAR
  5
6E
330
2D
100
DictionaryVariables
280
0
  1
1.4.4 @ 2026-10-04T18:29:00.842844+00:00
  0
ENDSEC
  0
EOF
