  0
SECTION
  2
HEADER
  9
$ACADVER
  1
AC1024
  9
$ACADMAINTVER
 70
6
  9
$DWGCODEPAGE
  3
ANSI_1252
  9
$LASTSAVEDBY
  1
ezdxf
  9
$INSBASE
 10
0.0
 20
0.0
 30
0.0
  9
$EXTMIN
 10
1e+20
 20
1e+20
 30
1e+20
  9
$EXTMAX
 10
-1e+20
 20
-1e+20
 30
-1e+20
  9
$LIMMIN
 10
0.0
 20
0.0
  9
$LIMMAX
 10
420.0
 20
297.0
  9
$ORTHOMODE
 70
0
  9
$REGENMODE
 70
1
  9
$FILLMODE
 70
1
  9
$QTEXTMODE
 70
0
  9
$MIRRTEXT
 70
1
  9
$LTSCALE
 40
1.0
  9
$ATTMODE
 70
1
  9
$TEXTSIZE
 40
2.5
  9
$TRACEWID
 40
1.0
  9
$TEXTSTYLE
  7
Standard
  9
$CLAYER
  8
0
  9
$CELTYPE
  6
ByLayer
  9
$CECOLOR
 62
256
  9
$CELTSCALE
 40
1.0
  9
$DISPSILH
 70
0
  9
$DIMSCALE
 40
1.0
  9
$DIMASZ
 40
2.5
  9
$DIMEXO
 40
0.625
  9
$DIMDLI
 40
3.75
  9
$DIMRND
 40
0.0
  9
$DIMDLE
 40
0.0
  9
$DIMEXE
 40
1.25
  9
$DIMTP
 40
0.0
  9
$DIMTM
 40
0.0
  9
$DIMTXT
 40
2.5
  9
$DIMCEN
 40
2.5
  9
$DIMTSZ
 40
0.0
  9
$DIMTOL
 70
0
  9
$DIMLIM
 70
0
  9
$DIMTIH
 70
0
  9
$DIMTOH
 70
0
  9
$DIMSE1
 70
0
  9
$DIMSE2
 70
0
  9
$DIMTAD
 70
1
  9
$DIMZIN
 70
8
  9
$DIMBLK
  1

  9
$DIMASO
 70
1
  9
$DIMSHO
 70
1
  9
$DIMPOST
  1

  9
$DIMAPOST
  1

  9
$DIMALT
 70
0
  9
$DIMALTD
 70
3
  9
$DIMALTF
 40
0.03937007874
  9
$DIMLFAC
 40
1.0
  9
$DIMTOFL
 70
1
  9
$DIMTVP
 40
0.0
  9
$DIMTIX
 70
0
  9
$DIMSOXD
 70
0
  9
$DIMSAH
 70
0
  9
$DIMBLK1
  1

  9
$DIMBLK2
  1

  9
$DIMSTYLE
  2
ISO-25
  9
$DIMCLRD
 70
0
  9
$DIMCLRE
 70
0
  9
$DIMCLRT
 70
0
  9
$DIMTFAC
 40
1.0
  9
$DIMGAP
 40
0.625
  9
$DIMJUST
 70
0
  9
$DIMSD1
 70
0
  9
$DIMSD2
 70
0
  9
$DIMTOLJ
 70
0
  9
$DIMTZIN
 70
8
  9
$DIMALTZ
 70
0
  9
$DIMALTTZ
 70
0
  9
$DIMUPT
 70
0
  9
$DIMDEC
 70
2
  9
$DIMTDEC
 70
2
  9
$DIMALTU
 70
2
  9
$DIMALTTD
 70
3
  9
$DIMTXSTY
  7
Standard
  9
$DIMAUNIT
 70
0
  9
$DIMADEC
 70
0
  9
$DIMALTRND
 40
0.0
  9
$DIMAZIN
 70
0
  9
$DIMDSEP
 70
44
  9
$DIMATFIT
 70
3
  9
$DIMFRAC
 70
0
  9
$DIMLDRBLK
  1

  9
$DIMLUNIT
 70
2
  9
$DIMLWD
 70
-2
  9
$DIMLWE
 70
-2
  9
$DIMTMOVE
 70
0
  9
$DIMFXL
 40
1.0
  9
$DIMFXLON
 70
0
  9
$DIMJOGANG
 40
0.785398163397
  9
$DIMTFILL
 70
0
  9
$DIMTFILLCLR
 70
0
  9
$DIMARCSYM
 70
0
  9
$DIMLTYPE
  6

  9
$DIMLTEX1
  6

  9
$DIMLTEX2
  6

  9
$DIMTXTDIRECTION
 70
0
  9
$LUNITS
 70
2
  9
$LUPREC
 70
4
  9
$SKETCHINC
 40
1.0
  9
$FILLETRAD
 40
10.0
  9
$AUNITS
 70
0
  9
$AUPREC
 70
2
  9
$MENU
  1
.
  9
$ELEVATION
 40
0.0
  9
$PELEVATION
 40
0.0
  9
$THICKNESS
 40
0.0
  9
$LIMCHECK
 70
0
  9
$CHAMFERA
 40
0.0
  9
$CHAMFERB
 40
0.0
  9
$CHAMFERC
 40
0.0
  9
$CHAMFERD
 40
0.0
  9
$SKPOLY
 70
0
  9
$TDCREATE
 40
2461318.770162037
  9
$TDUCREATE
 40
2458532.153996898
  9
$TDUPDATE
 40
2461318.770162037
  9
$TDUUPDATE
 40
2458532.1544311
  9
$TDINDWG
 40
0.0
  9
$TDUSRTIMER
 40
0.0
  9
$USRTIMER
 70
1
  9
$ANGBASE
 50
0.0
  9
$ANGDIR
 70
0
  9
$PDMODE
 70
0
  9
$PDSIZE
 40
0.0
  9
$PLINEWID
 40
0.0
  9
$SPLFRAME
 70
0
  9
$SPLINETYPE
 70
6
  9
$SPLINESEGS
 70
8
  9
$HANDSEED
  5
85
  9
$SURFTAB1
 70
6
  9
$SURFTAB2
 70
6
  9
$SURFTYPE
 70
6
  9
$SURFU
 70
6
  9
$SURFV
 70
6
  9
$UCSBASE
  2

  9
$UCSNAME
  2

  9
$UCSORG
 10
0.0
 20
0.0
 30
0.0
  9
$UCSXDIR
 10
1.0
 20
0.0
 30
0.0
  9
$UCSYDIR
 10
0.0
 20
1.0
 30
0.0
  9
$UCSORTHOREF
  2

  9
$UCSORTHOVIEW
 70
0
  9
$UCSORGTOP
 10
0.0
 20
0.0
 30
0.0
  9
$UCSORGBOTTOM
 10
0.0
 20
0.0
 30
0.0
  9
$UCSORGLEFT
 10
0.0
 20
0.0
 30
0.0
  9
$UCSORGRIGHT
 10
0.0
 20
0.0
 30
0.0
  9
$UCSORGFRONT
 10
0.0
 20
0.0
 30
0.0
  9
$UCSORGBACK
 10
0.0
 20
0.0
 30
0.0
  9
$PUCSBASE
  2

  9
$PUCSNAME
  2

  9
$PUCSORG
 10
0.0
 20
0.0
 30
0.0
  9
$PUCSXDIR
 10
1.0
 20
0.0
 30
0.0
  9
$PUCSYDIR
 10
0.0
 20
1.0
 30
0.0
  9
$PUCSORTHOREF
  2

  9
$PUCSORTHOVIEW
 70
0
  9
$PUCSORGTOP
 10
0.0
 20
0.0
 30
0.0
  9
$PUCSORGBOTTOM
 10
0.0
 20
0.0
 30
0.0
  9
$PUCSORGLEFT
 10
0.0
 20
0.0
 30
0.0
  9
$PUCSORGRIGHT
 10
0.0
 20
0.0
 30
0.0
  9
$PUCSORGFRONT
 10
0.0
 20
0.0
 30
0.0
  9
$PUCSORGBACK
 10
0.0
 20
0.0
 30
0.0
  9
$USERI1
 70
0
  9
$USERI2
 70
0
  9
$USERI3
 70
0
  9
$USERI4
 70
0
  9
$USERI5
 70
0
  9
$USERR1
 40
0.0
  9
$USERR2
 40
0.0
  9
$USERR3
 40
0.0
  9
$USERR4
 40
0.0
  9
$USERR5
 40
0.0
  9
$WORLDVIEW
 70
1
  9
$SHADEDGE
 70
3
  9
$SHADEDIF
 70
70
  9
$TILEMODE
 70
1
  9
$MAXACTVP
 70
64
  9
$PINSBASE
 10
0.0
 20
0.0
 30
0.0
  9
$PLIMCHECK
 70
0
  9
$PEXTMIN
 10
1e+20
 20
1e+20
 30
1e+20
  9
$PEXTMAX
 10
-1e+20
 20
-1e+20
 30
-1e+20
  9
$PLIMMIN
 10
0.0
 20
0.0
  9
$PLIMMAX
 10
420.0
 20
297.0
  9
$UNITMODE
 70
0
  9
$VISRETAIN
 70
1
  9
$PLINEGEN
 70
0
  9
$PSLTSCALE
 70
1
  9
$TREEDEPTH
 70
3020
  9
$CMLSTYLE
  2
Standard
  9
$CMLJUST
 70
0
  9
$CMLSCALE
 40
20.0
  9
$PROXYGRAPHICS
 70
1
  9
$MEASUREMENT
 70
1
  9
$CELWEIGHT
370
-1
  9
$ENDCAPS
280
0
  9
$JOINSTYLE
280
0
  9
$LWDISPLAY
290
0
  9
$INSUNITS
 70
4
  9
$HYPERLINKBASE
  1

  9
$STYLESHEET
  1

  9
$XEDIT
290
1
  9
$CEPSNTYPE
380
0
  9
$PSTYLEMODE
290
1
  9
$FINGERPRINTGUID
  2
{A0185F5C-E94E-404B-A9A6-A46ADA450711}
  9
$VERSIONGUID
  2
{D771ACDB-82D5-4C4D-AFAF-5EAC9158C49A}
  9
$EXTNAMES
290
1
  9
$PSVPSCALE
 40
0.0
  9
$OLESTARTUP
290
0
  9
$SORTENTS
280
127
  9
$INDEXCTL
280
0
  9
$HIDETEXT
280
1
  9
$XCLIPFRAME
280
1
  9
$HALOGAP
280
0
  9
$OBSCOLOR
 70
257
  9
$OBSLTYPE
280
0
  9
$INTERSECTIONDISPLAY
280
0
  9
$INTERSECTIONCOLOR
 70
257
  9
$DIMASSOC
280
2
  9
$PROJECTNAME
  1

  9
$CAMERADISPLAY
290
0
  9
$LENSLENGTH
 40
50.0
  9
$CAMERAHEIGHT
 40
0.0
  9
$STEPSPERSEC
 40
24.0
  9
$STEPSIZE
 40
100.0
  9
$3DDWFPREC
 40
2.0
  9
$PSOLWIDTH
 40
0.005
  9
$PSOLHEIGHT
 40
0.08
  9
$LOFTANG1
 40
1.570796326795
  9
$LOFTANG2
 40
1.570796326795
  9
$LOFTMAG1
 40
0.0
  9
$LOFTMAG2
 40
0.0
  9
$LOFTPARAM
 70
7
  9
$LOFTNORMALS
280
1
  9
$LATITUDE
 40
37.795
  9
$LONGITUDE
 40
-122.394
  9
$NORTHDIRECTION
 40
0.0
  9
$TIMEZONE
 70
-8000
  9
$LIGHTGLYPHDISPLAY
280
1
  9
$TILEMODELIGHTSYNCH
280
1
  9
$CMATERIAL
347
20
  9
$SOLIDHIST
280
0
  9
$SHOWHIST
280
1
  9
$DWFFRAME
280
2
  9
$DGNFRAME
280
2
  9
$REALWORLDSCALE
290
1
  9
$INTERFERECOLOR
 62
256
  9
$CSHADOW
280
0
  9
$SHADOWPLANELOCATION
 40
0.0
  0
ENDSEC
  0
SECTION
  2
CLASSES
  0
CLASS
  1
ACDBDICTIONARYWDFLT
  2
AcDbDictionaryWithDefault
  3
ObjectDBX Classes
 90
0
 91
0
280
0
281
0
  0
CLASS
  1
SUN
  2
AcDbSun
  3
SCENEOE
 90
1153
 91
0
280
0
281
0
  0
CLASS
  1
VISUALSTYLE
  2
AcDbVisualStyle
  3
ObjectDBX Classes
 90
4095
 91
0
280
0
281
0
  0
CLASS
  1
MATERIAL
  2
AcDbMaterial
  3
ObjectDBX Classes
 90
1153
 91
0
280
0
281
0
  0
CLASS
  1
SCALE
  2
AcDbScale
  3
ObjectDBX Classes
 90
1153
 91
0
280
0
281
0
  0
CLASS
  1
TABLESTYLE
  2
AcDbTableStyle
  3
ObjectDBX Classes
 90
4095
 91
0
280
0
281
0
  0
CLASS
  1
MLEADERSTYLE
  2
AcDbMLeaderStyle
  3
ACDB_MLEADERSTYLE_CLASS
 90
4095
 91
0
280
0
281
0
  0
CLASS
  1
DICTIONARYVAR
  2
AcDbDictionaryVar
  3
ObjectDBX Classes
 90
0
 91
0
280
0
281
0
  0
CLASS
  1
CELLSTYLEMAP
  2
AcDbCellStyleMap
  3
ObjectDBX Classes
 90
1152
 91
0
280
0
281
0
  0
CLASS
  1
MENTALRAYRENDERSETTINGS
  2
AcDbMentalRayRenderSettings
  3
SCENEOE
 90
1024
 91
0
280
0
281
0
  0
CLASS
  1
ACDBDETAILVIEWSTYLE
  2
AcDbDetailViewStyle
  3
ObjectDBX Classes
 90
1025
 91
0
280
0
281
0
  0
CLASS
  1
ACDBSECTIONVIEWSTYLE
  2
AcDbSectionViewStyle
  3
ObjectDBX Classes
 90
1025
 91
0
280
0
281
0
  0
CLASS
  1
RASTERVARIABLES
  2
AcDbRasterVariables
  3
ISM
 90
0
 91
0
280
0
281
0
  0
CLASS
  1
LAYOUT
  2
AcDbLayout
  3
ObjectDBX Classes
 90
0
 91
0
280
0
281
0
  0
CLASS
  1
ACDBPLACEHOLDER
  2
AcDbPlaceHolder
  3
ObjectDBX Classes
 90
0
 91
0
280
0
281
0
  0
ENDSEC
  0
SECTION
  2
TABLES
  0
TABLE
  2
VPORT
  5
8
330
0
100
AcDbSymbolTable
 70
1
  0
VPORT
  5
23
330
8
100
AcDbSymbolTableRecord
100
AcDbViewportTableRecord
  2
*Active
 70
0
 10
0.0
 20
0.0
 11
1.0
 21
1.0
 12
0.0
 22
0.0
 13
0.0
 23
0.0
 14
0.5
 24
0.5
 15
0.5
 25
0.5
 16
0.0
 26
0.0
 36
1.0
 17
0.0
 27
0.0
 37
0.0
 40
1000.0
 41
1.34
 42
50.0
 43
0.0
 44
0.0
 50
0.0
 51
0.0
 71
0
 72
1000
 73
1
 74
3
 75
0
 76
0
 77
0
 78
0
281
0
 65
0
146
0.0
  0
ENDTAB
  0
TABLE
  2
LTYPE
  5
2
330
0
100
AcDbSymbolTable
 70
3
  0
LTYPE
  5
24
330
2
100
AcDbSymbolTableRecord
100
AcDbLinetypeTableRecord
  2
ByBlock
 70
0
  3

 72
65
 73
0
 40
0.0
  0
LTYPE
  5
25
330
2
100
AcDbSymbolTableRecord
100
AcDbLinetypeTableRecord
  2
ByLayer
 70
0
  3

 72
65
 73
0
 40
0.0
  0
LTYPE
  5
26
330
2
100
AcDbSymbolTableRecord
100
AcDbLinetypeTableRecord
  2
Continuous
 70
0
  3

 72
65
 73
0
 40
0.0
  0
ENDTAB
  0
TABLE
  2
LAYER
  5
1
330
0
100
AcDbSymbolTable
 70
8
  0
LAYER
  5
27
330
1
100
AcDbSymbolTableRecord
100
AcDbLayerTableRecord
  2
0
 70
0
 62
7
  6
Continuous
370
-3
390
13
347
21
  0
LAYER
  5
28
330
1
100
AcDbSymbolTableRecord
100
AcDbLayerTableRecord
  2
Defpoints
 70
0
 62
7
  6
Continuous
290
0
370
-3
390
13
347
21
  0
LAYER
  5
2F
330
1
100
AcDbSymbolTableRecord
100
AcDbLayerTableRecord
  2
CUT
 70
0
 62
1
  6
Continuous
370
-3
390
13
347
21
  0
LAYER
  5
30
330
1
100
AcDbSymbolTableRecord
100
AcDbLayerTableRecord
  2
SEW
 70
0
 62
5
  6
Continuous
370
-3
390
13
347
21
  0
LAYER
  5
31
330
1
100
AcDbSymbolTableRecord
100
AcDbLayerTableRecord
  2
GRAIN
 70
0
 62
3
  6
Continuous
370
-3
390
13
347
21
  0
LAYER
  5
32
330
1
100
AcDbSymbolTableRecord
100
AcDbLayerTableRecord
  2
NOTCH
 70
0
 62
2
  6
Continuous
370
-3
390
13
347
21
  0
LAYER
  5
33
330
1
100
AcDbSymbolTableRecord
100
AcDbLayerTableRecord
  2
LABEL
 70
0
 62
7
  6
Continuous
370
-3
390
13
347
21
  0
LAYER
  5
34
330
1
100
AcDbSymbolTableRecord
100
AcDbLayerTableRecord
  2
ATTACHMENT
 70
0
 62
4
  6
Continuous
370
-3
390
13
347
21
  0
ENDTAB
  0
TABLE
  2
STYLE
  5
5
330
0
100
AcDbSymbolTable
 70
1
  0
STYLE
  5
29
330
5
100
AcDbSymbolTableRecord
100
AcDbTextStyleTableRecord
  2
Standard
 70
0
 40
0.0
 41
1.0
 50
0.0
 71
0
 42
2.5
  3
txt
  4

  0
ENDTAB
  0
TABLE
  2
VIEW
  5
7
330
0
100
AcDbSymbolTable
 70
0
  0
ENDTAB
  0
TABLE
  2
UCS
  5
6
330
0
100
AcDbSymbolTable
 70
0
  0
ENDTAB
  0
TABLE
  2
APPID
  5
3
330
0
100
AcDbSymbolTable
 70
3
  0
APPID
  5
2A
330
3
100
AcDbSymbolTableRecord
100
AcDbRegAppTableRecord
  2
ACAD
 70
0
  0
APPID
  5
82
330
3
100
AcDbSymbolTableRecord
100
AcDbRegAppTableRecord
  2
HATCHBACKGROUNDCOLOR
 70
0
  0
APPID
  5
83
330
3
100
AcDbSymbolTableRecord
100
AcDbRegAppTableRecord
  2
EZDXF
 70
0
  0
ENDTAB
  0
TABLE
  2
DIMSTYLE
  5
4
330
0
100
AcDbSymbolTable
 70
1
100
AcDbDimStyleTable
  0
DIMSTYLE
105
2B
330
4
100
AcDbSymbolTableRecord
100
AcDbDimStyleTableRecord
  2
Standard
 70
0
 40
1.0
 41
2.5
 42
0.625
 43
3.75
 44
1.25
 45
0.0
 46
0.0
 47
0.0
 48
0.0
 49
2.5
140
2.5
141
2.5
142
0.0
143
0.03937007874
144
1.0
145
0.0
146
1.0
147
0.625
148
0.0
 69
0
 70
0
 71
0
 72
0
 73
0
 74
0
 75
0
 76
0
 77
1
 78
8
 79
3
170
0
171
3
172
1
173
0
174
0
175
0
176
0
177
0
178
0
179
2
271
2
272
2
273
2
274
3
275
0
276
0
277
2
278
44
279
0
280
0
281
0
282
0
283
0
284
8
285
0
286
0
288
0
289
3
290
0
371
-2
372
-2
  0
ENDTAB
  0
TABLE
  2
BLOCK_RECORD
  5
9
330
0
100
AcDbSymbolTable
 70
2
  0
BLOCK_RECORD
  5
17
330
9
100
AcDbSymbolTableRecord
100
AcDbBlockTableRecord
  2
*Model_Space
340
1A
 70
0
280
1
281
0
  0
BLOCK_RECORD
  5
1B
330
9
100
AcDbSymbolTableRecord
100
AcDbBlockTableRecord
  2
*Paper_Space
340
1E
 70
0
280
1
281
0
  0
ENDTAB
  0
ENDSEC
  0
SECTION
  2
BLOCKS
  0
BLOCK
  5
18
330
17
100
AcDbEntity
  8
0
100
AcDbBlockBegin
  2
*Model_Space
 70
0
 10
0.0
 20
0.0
 30
0.0
  3
*Model_Space
  1

  0
ENDBLK
  5
19
330
17
100
AcDbEntity
  8
0
100
AcDbBlockEnd
  0
BLOCK
  5
1C
330
1B
100
AcDbEntity
  8
0
100
AcDbBlockBegin
  2
*Paper_Space
 70
0
 10
0.0
 20
0.0
 30
0.0
  3
*Paper_Space
  1

  0
ENDBLK
  5
1D
330
1B
100
AcDbEntity
  8
0
100
AcDbBlockEnd
  0
ENDSEC
  0
SECTION
  2
ENTITIES
  0
LWPOLYLINE
  5
35
330
17
100
AcDbEntity
  8
CUT
100
AcDbPolyline
 90
77
 70
1
 10
-12.094836357389967
 20
11.898971013155885
 10
42.481969562376285
 20
12.356759638206503
 10
85.14949376848794
 20
12.725380629081231
 10
127.90294714069411
 20
13.117153635430055
 10
170.83705380360797
 20
13.546943585728995
 10
214.081195871206
 20
14.028493332464782
 10
257.4188041496148
 20
14.538333589700839
 10
300.59152257655325
 20
15.036681893461077
 10
343.42671761021126
 20
15.486698146063725
 10
386.2150121328289
 20
15.906371126827112
 10
428.912727640217
 20
16.29009461346217
 10
471.4025750469872
 20
16.6025167194862
 10
513.7729145604725
 20
16.8109512610204
 10
556.1556429136746
 20
16.9352647658078
 10
598.5691014664528
 20
16.998769044580573
 10
641.009211941545
 20
17.019169474080723
 10
683.4794001266432
 20
17.008595884393593
 10
726.0288697590858
 20
16.954376105682936
 10
768.8172682623305
 20
16.82570214715009
 10
811.7599953383166
 20
16.634397929846244
 10
854.7150044812411
 20
16.416225680547615
 10
897.515262012526
 20
16.21670748383636
 10
940.0979398609938
 20
16.075840021812244
 10
982.5748957205441
 20
15.995322333404056
 10
1025.0216811482999
 20
15.955686978754267
 10
1067.4840349326107
 20
15.928495225117217
 10
1110.0255680426185
 20
15.879377745403424
 10
1152.727871008696
 20
15.7653700837213
 10
1195.9447132817916
 20
15.498451144129492
 10
1240.1487662294326
 20
14.992028531461878
 10
1285.3685516163537
 20
14.230269157444662
 10
1331.4595994436356
 20
13.227076202762385
 10
1389.8293140803376
 20
11.687240775872997
 10
1389.8012135222707
 20
-12.034905305627024
 10
1389.9196542540265
 20
-23.998930630441116
 10
1390.2121140734623
 20
-35.98399251574288
 10
1390.7151977060587
 20
-48.00126480484545
 10
1391.5078396728397
 20
-60.02694674391545
 10
1393.58860185361
 20
-80.2822344507936
 10
1338.9825908965074
 20
-110.20698188455886
 10
1291.9773503340375
 20
-134.63391890716974
 10
1245.845932120887
 20
-156.40873298461693
 10
1200.6534446101816
 20
-174.58577278315033
 10
1156.5330699943797
 20
-188.14665064702197
 10
1113.2605046204685
 20
-198.3237935515948
 10
1070.3697580039097
 20
-206.93758770455466
 10
1027.5996753178372
 20
-214.27753450237483
 10
984.8973394662916
 20
-220.5837147713465
 10
942.2115390773705
 20
-226.097687897691
 10
899.422326829579
 20
-231.03226440668791
 10
856.4244393723293
 20
-235.27318145702435
 10
813.3462327222637
 20
-238.96343805132528
 10
770.3519987273085
 20
-242.3276765598427
 10
727.5865582124724
 20
-245.58256167413444
 10
685.0914608080028
 20
-248.94662885533734
 10
642.6458583370422
 20
-252.4361241344682
 10
600.1672902262644
 20
-255.86476924821946
 10
557.6733701452098
 20
-259.0538115291905
 10
515.1744062589456
 20
-261.81000665977797
 10
472.7333962717674
 20
-264.0043821012466
 10
430.2401741183692
 20
-266.0147742561228
 10
387.54099913516177
 20
-267.8569408316958
 10
344.7484500113404
 20
-269.4701164774744
 10
301.95726472418175
 20
-270.92935139964715
 10
258.8654568249299
 20
-272.48677087706466
 10
215.55510307058708
 20
-273.9322952014249
 10
172.27026662208843
 20
-275.0449575854172
 10
129.21085037112618
 20
-275.6117288326885
 10
86.3021157295709
 20
-275.40670001863674
 10
43.51385891097658
 20
-274.51600408651024
 10
-10.650254674685304
 20
-272.75195026454713
 10
-10.927716100426789
 20
-217.66604619349275
 10
-11.055385347388894
 20
-174.11073089334016
 10
-11.189154847765694
 20
-130.57825408798803
 10
-11.382137560419812
 20
-87.07258523517459
 10
-11.654385755046572
 20
-43.584890707317
 10
-12.094836357389967
 20
11.898971013155885
  0
LWPOLYLINE
  5
36
330
17
100
AcDbEntity
  8
SEW
100
AcDbPolyline
 90
76
 70
1
 10
0.0
 20
0.0
 10
42.58412996578634
 20
0.35719441578668515
 10
85.25630706186226
 20
0.7258556047497938
 10
128.01798581861325
 20
1.1177039847439576
 10
170.96392306211635
 20
1.5476123645395996
 10
214.21858680005772
 20
2.029279276455382
 10
257.5599669871646
 20
2.539163907873062
 10
300.7238078160409
 20
3.037409442747464
 10
343.5527797663248
 20
3.4873603171334975
 10
386.33270316424637
 20
3.9069482731593617
 10
429.01076283246175
 20
4.290491069636759
 10
471.47620689716564
 20
4.602733741184373
 10
513.8200289783076
 20
4.811037834180356
 10
556.182225147113
 20
4.935291115666842
 10
598.5809691869399
 20
4.998773362882549
 10
641.0149801905665
 20
5.019170860443169
 10
683.4702602317032
 20
5.008597788468816
 10
726.0031808738045
 20
4.954399097743556
 10
768.7724960762995
 20
4.825782526818923
 10
811.7065374425396
 20
4.634517003212885
 10
854.6565606517953
 20
4.416367739954128
 10
897.4674441722658
 20
4.216800009003526
 10
940.066718046082
 20
4.07587764578276
 10
982.5579197750814
 20
3.9953329534508177
 10
1025.012236317562
 20
3.9556905665039994
 10
1067.4763504557116
 20
3.9284976855835185
 10
1110.00262145682
 20
3.879396241057934
 10
1152.6747950340682
 20
3.765469019561227
 10
1195.8389212865145
 20
3.4988756684111255
 10
1239.9789707401487
 20
2.9931863101510463
 10
1285.136928445978
 20
2.232468467296406
 10
1331.1708067530815
 20
1.230519833638907
 10
1377.815461298661
 20
8.436939039187832e-14
 10
1377.8011431621692
 20
-12.08719501808058
 10
1377.9211033576253
 20
-24.204705566446478
 10
1378.2182382237188
 20
-36.3813517986729
 10
1378.7317170492174
 20
-48.646936407060906
 10
1379.5482468624427
 20
-61.03503625432466
 10
1380.837585492333
 20
-73.58617022887185
 10
1333.3317166074628
 20
-99.61995484496634
 10
1286.6475657495205
 20
-123.88003306848907
 10
1241.0417184832475
 20
-145.40676871921448
 10
1196.644598583555
 20
-163.26390072961328
 10
1153.3931040759364
 20
-176.55771882511206
 10
1110.704777429142
 20
-186.59745640220143
 10
1068.1730746779426
 20
-195.13914339471154
 10
1025.708010234048
 20
-202.42674477888397
 10
983.251976526571
 20
-208.69655172798548
 10
940.7554212926656
 20
-214.18607895687603
 10
898.1459309173598
 20
-219.09992941639615
 10
855.3233574182567
 20
-223.32355510666272
 10
812.3660494575242
 20
-227.003455021328
 10
769.4285927456576
 20
-230.36325078707674
 10
726.6577114208571
 20
-233.61855000236102
 10
684.1263505664307
 20
-236.98548793076367
 10
641.6715319594316
 20
-240.4757408776228
 10
599.2355449966652
 20
-243.90094906655384
 10
556.8360254777377
 20
-247.08290686618273
 10
514.4762616972552
 20
-249.83007442012712
 10
472.14003430472485
 20
-252.0190321688393
 10
429.6980067159833
 20
-254.02700226330342
 10
387.0563537294826
 20
-255.86668717266778
 10
344.3179347574024
 20
-257.47782224259197
 10
301.5360655071818
 20
-258.9367394758214
 10
258.4486018948188
 20
-260.49400194249034
 10
215.20077097019401
 20
-261.9374395078345
 10
172.03710643938848
 20
-263.0469870958411
 10
129.16054712409104
 20
-263.6113514815587
 10
86.45566592660902
 20
-263.40729673095177
 10
43.83404962266179
 20
-262.520069648448
 10
1.291381827100819
 20
-261.13451100540703
 10
1.0721953159933815
 20
-217.61823809551802
 10
0.9445606098938599
 20
-174.0747066681172
 10
0.8107633692614117
 20
-130.53320237868104
 10
0.617695824991689
 20
-87.00840924200774
 10
0.3453160749781232
 20
-43.499700652026924
  0
LINE
  5
37
330
17
100
AcDbEntity
  8
GRAIN
100
AcDbLine
 10
600.1979890830443
 20
-127.20661772358505
 30
0.0
 11
680.1979890830443
 21
-127.20661772358505
 31
0.0
  0
LINE
  5
38
330
17
100
AcDbEntity
  8
GRAIN
100
AcDbLine
 10
680.1979890830443
 20
-127.20661772358505
 30
0.0
 11
675.1979890830443
 21
-124.20661772358505
 31
0.0
  0
TEXT
  5
39
330
17
100
AcDbEntity
  8
LABEL
100
AcDbText
 10
640.1979890830443
 20
-127.20661772358505
 30
0.0
 40
6.0
  1
L08_CONTINUOUS_COVER_O3
100
AcDbText
  0
CIRCLE
  5
3A
330
17
100
AcDbEntity
  8
NOTCH
100
AcDbCircle
 10
1377.808302230415
 20
-6.043597509040248
 30
0.0
 40
1.0
  0
TEXT
  5
3B
330
17
100
AcDbEntity
  8
LABEL
100
AcDbText
 10
1379.808302230415
 20
-4.043597509040248
 30
0.0
 40
3.0
  1
J1010
100
AcDbText
  0
CIRCLE
  5
3C
330
17
100
AcDbEntity
  8
NOTCH
100
AcDbCircle
 10
63.920218513824295
 20
0.5415250102682395
 30
0.0
 40
1.0
  0
TEXT
  5
3D
330
17
100
AcDbEntity
  8
LABEL
100
AcDbText
 10
65.9202185138243
 20
2.5415250102682396
 30
0.0
 40
3.0
  1
J1035
100
AcDbText
  0
CIRCLE
  5
3E
330
17
100
AcDbEntity
  8
NOTCH
100
AcDbCircle
 10
149.49095444036482
 20
1.3326581746417787
 30
0.0
 40
1.0
  0
TEXT
  5
3F
330
17
100
AcDbEntity
  8
LABEL
100
AcDbText
 10
151.49095444036482
 20
3.3326581746417787
 30
0.0
 40
3.0
  1
J1035
100
AcDbText
  0
CIRCLE
  5
40
330
17
100
AcDbEntity
  8
NOTCH
100
AcDbCircle
 10
235.88927689361117
 20
2.284221592164222
 30
0.0
 40
1.0
  0
TEXT
  5
41
330
17
100
AcDbEntity
  8
LABEL
100
AcDbText
 10
237.88927689361117
 20
4.284221592164222
 30
0.0
 40
3.0
  1
J1035
100
AcDbText
  0
CIRCLE
  5
42
330
17
100
AcDbEntity
  8
NOTCH
100
AcDbCircle
 10
322.13829379118283
 20
3.2623848799404804
 30
0.0
 40
1.0
  0
TEXT
  5
43
330
17
100
AcDbEntity
  8
LABEL
100
AcDbText
 10
324.13829379118283
 20
5.26238487994048
 30
0.0
 40
3.0
  1
J1035
100
AcDbText
  0
CIRCLE
  5
44
330
17
100
AcDbEntity
  8
NOTCH
100
AcDbCircle
 10
407.67173299835406
 20
4.09871967139806
 30
0.0
 40
1.0
  0
TEXT
  5
45
330
17
100
AcDbEntity
  8
LABEL
100
AcDbText
 10
409.67173299835406
 20
6.09871967139806
 30
0.0
 40
3.0
  1
J1035
100
AcDbText
  0
CIRCLE
  5
46
330
17
100
AcDbEntity
  8
NOTCH
100
AcDbCircle
 10
492.64811793773663
 20
4.706885787682364
 30
0.0
 40
1.0
  0
TEXT
  5
47
330
17
100
AcDbEntity
  8
LABEL
100
AcDbText
 10
494.64811793773663
 20
6.706885787682364
 30
0.0
 40
3.0
  1
J1035
100
AcDbText
  0
CIRCLE
  5
48
330
17
100
AcDbEntity
  8
NOTCH
100
AcDbCircle
 10
577.3815971670265
 20
4.967032239274696
 30
0.0
 40
1.0
  0
TEXT
  5
49
330
17
100
AcDbEntity
  8
LABEL
100
AcDbText
 10
579.3815971670265
 20
6.967032239274696
 30
0.0
 40
3.0
  1
J1035
100
AcDbText
  0
CIRCLE
  5
4A
330
17
100
AcDbEntity
  8
NOTCH
100
AcDbCircle
 10
662.2426202111349
 20
5.013884324455993
 30
0.0
 40
1.0
  0
TEXT
  5
4B
330
17
100
AcDbEntity
  8
LABEL
100
AcDbText
 10
664.2426202111349
 20
7.013884324455993
 30
0.0
 40
3.0
  1
J1035
100
AcDbText
  0
CIRCLE
  5
4C
330
17
100
AcDbEntity
  8
NOTCH
100
AcDbCircle
 10
747.3878384750519
 20
4.890090812281239
 30
0.0
 40
1.0
  0
TEXT
  5
4D
330
17
100
AcDbEntity
  8
LABEL
100
AcDbText
 10
749.3878384750519
 20
6.890090812281239
 30
0.0
 40
3.0
  1
J1035
100
AcDbText
  0
CIRCLE
  5
4E
330
17
100
AcDbEntity
  8
NOTCH
100
AcDbCircle
 10
833.1815490471674
 20
4.525442371583507
 30
0.0
 40
1.0
  0
TEXT
  5
4F
330
17
100
AcDbEntity
  8
LABEL
100
AcDbText
 10
835.1815490471674
 20
6.525442371583507
 30
0.0
 40
3.0
  1
J1035
100
AcDbText
  0
CIRCLE
  5
50
330
17
100
AcDbEntity
  8
NOTCH
100
AcDbCircle
 10
918.7670811091739
 20
4.1463388273931425
 30
0.0
 40
1.0
  0
TEXT
  5
51
330
17
100
AcDbEntity
  8
LABEL
100
AcDbText
 10
920.7670811091739
 20
6.1463388273931425
 30
0.0
 40
3.0
  1
J1035
100
AcDbText
  0
CIRCLE
  5
52
330
17
100
AcDbEntity
  8
NOTCH
100
AcDbCircle
 10
1003.7850780463216
 20
3.9755117599774086
 30
0.0
 40
1.0
  0
TEXT
  5
53
330
17
100
AcDbEntity
  8
LABEL
100
AcDbText
 10
1005.7850780463216
 20
5.975511759977408
 30
0.0
 40
3.0
  1
J1035
100
AcDbText
  0
CIRCLE
  5
54
330
17
100
AcDbEntity
  8
NOTCH
100
AcDbCircle
 10
1088.7394859562658
 20
3.903946963320726
 30
0.0
 40
1.0
  0
TEXT
  5
55
330
17
100
AcDbEntity
  8
LABEL
100
AcDbText
 10
1090.7394859562658
 20
5.903946963320726
 30
0.0
 40
3.0
  1
J1035
100
AcDbText
  0
CIRCLE
  5
56
330
17
100
AcDbEntity
  8
NOTCH
100
AcDbCircle
 10
1174.2568581602914
 20
3.632172343986176
 30
0.0
 40
1.0
  0
TEXT
  5
57
330
17
100
AcDbEntity
  8
LABEL
100
AcDbText
 10
1176.2568581602914
 20
5.632172343986176
 30
0.0
 40
3.0
  1
J1035
100
AcDbText
  0
CIRCLE
  5
58
330
17
100
AcDbEntity
  8
NOTCH
100
AcDbCircle
 10
1262.5579495930633
 20
2.6128273887237263
 30
0.0
 40
1.0
  0
TEXT
  5
59
330
17
100
AcDbEntity
  8
LABEL
100
AcDbText
 10
1264.5579495930633
 20
4.612827388723726
 30
0.0
 40
3.0
  1
J1035
100
AcDbText
  0
CIRCLE
  5
5A
330
17
100
AcDbEntity
  8
NOTCH
100
AcDbCircle
 10
1354.4931340258713
 20
0.6152599168194957
 30
0.0
 40
1.0
  0
TEXT
  5
5B
330
17
100
AcDbEntity
  8
LABEL
100
AcDbText
 10
1356.4931340258713
 20
2.615259916819496
 30
0.0
 40
3.0
  1
J1035
100
AcDbText
  0
CIRCLE
  5
5C
330
17
100
AcDbEntity
  8
NOTCH
100
AcDbCircle
 10
65.1448577746354
 20
-262.96368318969985
 30
0.0
 40
1.0
  0
TEXT
  5
5D
330
17
100
AcDbEntity
  8
LABEL
100
AcDbText
 10
67.1448577746354
 20
-260.96368318969985
 30
0.0
 40
3.0
  1
J1037
100
AcDbText
  0
CIRCLE
  5
5E
330
17
100
AcDbEntity
  8
NOTCH
100
AcDbCircle
 10
150.59882678173977
 20
-263.32916928869986
 30
0.0
 40
1.0
  0
TEXT
  5
5F
330
17
100
AcDbEntity
  8
LABEL
100
AcDbText
 10
152.59882678173977
 20
-261.32916928869986
 30
0.0
 40
3.0
  1
J1037
100
AcDbText
  0
CIRCLE
  5
60
330
17
100
AcDbEntity
  8
NOTCH
100
AcDbCircle
 10
193.61893870479125
 20
-262.49221330183775
 30
0.0
 40
1.0
  0
TEXT
  5
61
330
17
100
AcDbEntity
  8
LABEL
100
AcDbText
 10
195.61893870479125
 20
-260.49221330183775
 30
0.0
 40
3.0
  1
J1038
100
AcDbText
  0
CIRCLE
  5
62
330
17
100
AcDbEntity
  8
NOTCH
100
AcDbCircle
 10
279.9923337010003
 20
-259.7153707091559
 30
0.0
 40
1.0
  0
TEXT
  5
63
330
17
100
AcDbEntity
  8
LABEL
100
AcDbText
 10
281.9923337010003
 20
-257.7153707091559
 30
0.0
 40
3.0
  1
J1038
100
AcDbText
  0
CIRCLE
  5
64
330
17
100
AcDbEntity
  8
NOTCH
100
AcDbCircle
 10
365.6871442434425
 20
-256.67225470762986
 30
0.0
 40
1.0
  0
TEXT
  5
65
330
17
100
AcDbEntity
  8
LABEL
100
AcDbText
 10
367.6871442434425
 20
-254.67225470762986
 30
0.0
 40
3.0
  1
J1039
100
AcDbText
  0
CIRCLE
  5
66
330
17
100
AcDbEntity
  8
NOTCH
100
AcDbCircle
 10
450.9190205103541
 20
-253.02301721607137
 30
0.0
 40
1.0
  0
TEXT
  5
67
330
17
100
AcDbEntity
  8
LABEL
100
AcDbText
 10
452.9190205103541
 20
-251.02301721607137
 30
0.0
 40
3.0
  1
J1039
100
AcDbText
  0
CIRCLE
  5
68
330
17
100
AcDbEntity
  8
NOTCH
100
AcDbCircle
 10
535.6561435874964
 20
-248.45649064315492
 30
0.0
 40
1.0
  0
TEXT
  5
69
330
17
100
AcDbEntity
  8
LABEL
100
AcDbText
 10
537.6561435874964
 20
-246.45649064315492
 30
0.0
 40
3.0
  1
J1039
100
AcDbText
  0
CIRCLE
  5
6A
330
17
100
AcDbEntity
  8
NOTCH
100
AcDbCircle
 10
620.4535384780484
 20
-242.18834497208832
 30
0.0
 40
1.0
  0
TEXT
  5
6B
330
17
100
AcDbEntity
  8
LABEL
100
AcDbText
 10
622.4535384780484
 20
-240.18834497208832
 30
0.0
 40
3.0
  1
J1039
100
AcDbText
  0
CIRCLE
  5
6C
330
17
100
AcDbEntity
  8
NOTCH
100
AcDbCircle
 10
705.3920309936439
 20
-235.30201896656234
 30
0.0
 40
1.0
  0
TEXT
  5
6D
330
17
100
AcDbEntity
  8
LABEL
100
AcDbText
 10
707.3920309936439
 20
-233.30201896656234
 30
0.0
 40
3.0
  1
J1040
100
AcDbText
  0
CIRCLE
  5
6E
330
17
100
AcDbEntity
  8
NOTCH
100
AcDbCircle
 10
790.8973211015909
 20
-228.68335290420237
 30
0.0
 40
1.0
  0
TEXT
  5
6F
330
17
100
AcDbEntity
  8
LABEL
100
AcDbText
 10
792.8973211015909
 20
-226.68335290420237
 30
0.0
 40
3.0
  1
J1040
100
AcDbText
  0
CIRCLE
  5
70
330
17
100
AcDbEntity
  8
NOTCH
100
AcDbCircle
 10
876.7346441678083
 20
-221.21174226152942
 30
0.0
 40
1.0
  0
TEXT
  5
71
330
17
100
AcDbEntity
  8
LABEL
100
AcDbText
 10
878.7346441678083
 20
-219.21174226152942
 30
0.0
 40
3.0
  1
J1040
100
AcDbText
  0
CIRCLE
  5
72
330
17
100
AcDbEntity
  8
NOTCH
100
AcDbCircle
 10
962.0036989096183
 20
-211.44131534243076
 30
0.0
 40
1.0
  0
TEXT
  5
73
330
17
100
AcDbEntity
  8
LABEL
100
AcDbText
 10
964.0036989096183
 20
-209.44131534243076
 30
0.0
 40
3.0
  1
J1040
100
AcDbText
  0
CIRCLE
  5
74
330
17
100
AcDbEntity
  8
NOTCH
100
AcDbCircle
 10
1046.9405424559955
 20
-198.78294408679776
 30
0.0
 40
1.0
  0
TEXT
  5
75
330
17
100
AcDbEntity
  8
LABEL
100
AcDbText
 10
1048.9405424559955
 20
-196.78294408679776
 30
0.0
 40
3.0
  1
J1040
100
AcDbText
  0
CIRCLE
  5
76
330
17
100
AcDbEntity
  8
NOTCH
100
AcDbCircle
 10
1132.0489407525392
 20
-181.57758761365676
 30
0.0
 40
1.0
  0
TEXT
  5
77
330
17
100
AcDbEntity
  8
LABEL
100
AcDbText
 10
1134.0489407525392
 20
-179.57758761365676
 30
0.0
 40
3.0
  1
J1040
100
AcDbText
  0
CIRCLE
  5
78
330
17
100
AcDbEntity
  8
NOTCH
100
AcDbCircle
 10
1218.8431585334013
 20
-154.33533472441388
 30
0.0
 40
1.0
  0
TEXT
  5
79
330
17
100
AcDbEntity
  8
LABEL
100
AcDbText
 10
1220.8431585334013
 20
-152.33533472441388
 30
0.0
 40
3.0
  1
J1040
100
AcDbText
  0
CIRCLE
  5
7A
330
17
100
AcDbEntity
  8
NOTCH
100
AcDbCircle
 10
1309.9896411784916
 20
-111.7499939567277
 30
0.0
 40
1.0
  0
TEXT
  5
7B
330
17
100
AcDbEntity
  8
LABEL
100
AcDbText
 10
1311.9896411784916
 20
-109.7499939567277
 30
0.0
 40
3.0
  1
J1040
100
AcDbText
  0
CIRCLE
  5
7C
330
17
100
AcDbEntity
  8
NOTCH
100
AcDbCircle
 10
0.1726580374890616
 20
-21.749850326013462
 30
0.0
 40
1.0
  0
TEXT
  5
7D
330
17
100
AcDbEntity
  8
LABEL
100
AcDbText
 10
2.172658037489062
 20
-19.749850326013462
 30
0.0
 40
3.0
  1
J1041
100
AcDbText
  0
CIRCLE
  5
7E
330
17
100
AcDbEntity
  8
NOTCH
100
AcDbCircle
 10
1.0083779629436207
 20
-195.8464723818176
 30
0.0
 40
1.0
  0
TEXT
  5
7F
330
17
100
AcDbEntity
  8
LABEL
100
AcDbText
 10
3.0083779629436207
 20
-193.8464723818176
 30
0.0
 40
3.0
  1
J1041
100
AcDbText
  0
CIRCLE
  5
80
330
17
100
AcDbEntity
  8
NOTCH
100
AcDbCircle
 10
0.4815059499849061
 20
-65.25405494701734
 30
0.0
 40
1.0
  0
TEXT
  5
81
330
17
100
AcDbEntity
  8
LABEL
100
AcDbText
 10
2.481505949984906
 20
-63.25405494701734
 30
0.0
 40
3.0
  1
J1041
100
AcDbText
  0
ENDSEC
  0
SECTION
  2
OBJECTS
  0
DICTIONARY
  5
A
330
0
100
AcDbDictionary
281
1
  3
ACAD_COLOR
350
B
  3
ACAD_GROUP
350
C
  3
ACAD_LAYOUT
350
D
  3
ACAD_MATERIAL
350
E
  3
ACAD_MLEADERSTYLE
350
F
  3
ACAD_MLINESTYLE
350
10
  3
ACAD_PLOTSETTINGS
350
11
  3
ACAD_PLOTSTYLENAME
350
12
  3
ACAD_SCALELIST
350
14
  3
ACAD_TABLESTYLE
350
15
  3
ACAD_VISUALSTYLE
350
16
  3
EZDXF_META
350
2D
  0
DICTIONARY
  5
B
330
A
100
AcDbDictionary
281
1
  0
DICTIONARY
  5
C
330
A
100
AcDbDictionary
281
1
  0
DICTIONARY
  5
D
330
A
100
AcDbDictionary
281
1
  3
Model
350
1A
  3
Layout1
350
1E
  0
DICTIONARY
  5
E
330
A
100
AcDbDictionary
281
1
  3
ByBlock
350
1F
  3
ByLayer
350
20
  3
Global
350
21
  0
DICTIONARY
  5
F
330
A
100
AcDbDictionary
281
1
  3
Standard
350
2C
  0
DICTIONARY
  5
10
330
A
100
AcDbDictionary
281
1
  3
Standard
350
22
  0
DICTIONARY
  5
11
330
A
100
AcDbDictionary
281
1
  0
ACDBDICTIONARYWDFLT
  5
12
330
A
100
AcDbDictionary
281
1
  3
Normal
350
13
100
AcDbDictionaryWithDefault
340
13
  0
ACDBPLACEHOLDER
  5
13
330
12
  0
DICTIONARY
  5
14
330
A
100
AcDbDictionary
281
1
  0
DICTIONARY
  5
15
330
A
100
AcDbDictionary
281
1
  0
DICTIONARY
  5
16
330
A
100
AcDbDictionary
281
1
  0
LAYOUT
  5
1A
330
D
100
AcDbPlotSettings
  1

  4
A3
  6

 40
7.5
 41
20.0
 42
7.5
 43
20.0
 44
420.0
 45
297.0
 46
0.0
 47
0.0
 48
0.0
 49
0.0
140
0.0
141
0.0
142
1.0
143
1.0
 70
1024
 72
1
 73
0
 74
5
  7

 75
16
 76
0
 77
2
 78
300
147
1.0
148
0.0
149
0.0
100
AcDbLayout
  1
Model
 70
1
 71
0
 10
0.0
 20
0.0
 11
420.0
 21
297.0
 12
0.0
 22
0.0
 32
0.0
 14
1e+20
 24
1e+20
 34
1e+20
 15
-1e+20
 25
-1e+20
 35
-1e+20
146
0.0
 13
0.0
 23
0.0
 33
0.0
 16
1.0
 26
0.0
 36
0.0
 17
0.0
 27
1.0
 37
0.0
 76
1
330
17
  0
LAYOUT
  5
1E
330
D
100
AcDbPlotSettings
  1

  4
A3
  6

 40
7.5
 41
20.0
 42
7.5
 43
20.0
 44
420.0
 45
297.0
 46
0.0
 47
0.0
 48
0.0
 49
0.0
140
0.0
141
0.0
142
1.0
143
1.0
 70
0
 72
1
 73
0
 74
5
  7

 75
16
 76
0
 77
2
 78
300
147
1.0
148
0.0
149
0.0
100
AcDbLayout
  1
Layout1
 70
1
 71
1
 10
0.0
 20
0.0
 11
420.0
 21
297.0
 12
0.0
 22
0.0
 32
0.0
 14
1e+20
 24
1e+20
 34
1e+20
 15
-1e+20
 25
-1e+20
 35
-1e+20
146
0.0
 13
0.0
 23
0.0
 33
0.0
 16
1.0
 26
0.0
 36
0.0
 17
0.0
 27
1.0
 37
0.0
 76
1
330
1B
  0
MATERIAL
  5
1F
102
{ACAD_REACTORS
330
E
102
}
330
E
100
AcDbMaterial
  1
ByBlock
  2

 70
0
 40
1.0
 71
1
 41
1.0
 91
-1023410177
 42
1.0
 72
1
  3

 73
1
 74
1
 75
1
 44
0.5
 73
0
 45
1.0
 46
1.0
 77
1
  4

 78
1
 79
1
170
1
 48
1.0
171
1
  6

172
1
173
1
174
1
140
1.0
141
1.0
175
1
  7

176
1
177
1
178
1
143
1.0
179
1
  8

270
1
271
1
272
1
145
1.0
146
1.0
273
1
  9

274
1
275
1
276
1
 42
1.0
 72
1
  3

 73
1
 74
1
 75
1
 94
63
  0
MATERIAL
  5
20
102
{ACAD_REACTORS
330
E
102
}
330
E
100
AcDbMaterial
  1
ByLayer
  2

 70
0
 40
1.0
 71
1
 41
1.0
 91
-1023410177
 42
1.0
 72
1
  3

 73
1
 74
1
 75
1
 44
0.5
 73
0
 45
1.0
 46
1.0
 77
1
  4

 78
1
 79
1
170
1
 48
1.0
171
1
  6

172
1
173
1
174
1
140
1.0
141
1.0
175
1
  7

176
1
177
1
178
1
143
1.0
179
1
  8

270
1
271
1
272
1
145
1.0
146
1.0
273
1
  9

274
1
275
1
276
1
 42
1.0
 72
1
  3

 73
1
 74
1
 75
1
 94
63
  0
MATERIAL
  5
21
102
{ACAD_REACTORS
330
E
102
}
330
E
100
AcDbMaterial
  1
Global
  2

 70
0
 40
1.0
 71
1
 41
1.0
 91
-1023410177
 42
1.0
 72
1
  3

 73
1
 74
1
 75
1
 44
0.5
 73
0
 45
1.0
 46
1.0
 77
1
  4

 78
1
 79
1
170
1
 48
1.0
171
1
  6

172
1
173
1
174
1
140
1.0
141
1.0
175
1
  7

176
1
177
1
178
1
143
1.0
179
1
  8

270
1
271
1
272
1
145
1.0
146
1.0
273
1
  9

274
1
275
1
276
1
 42
1.0
 72
1
  3

 73
1
 74
1
 75
1
 94
63
  0
MLINESTYLE
  5
22
102
{ACAD_REACTORS
330
10
102
}
330
10
100
AcDbMlineStyle
  2
Standard
 70
0
  3

 62
256
 51
90.0
 52
90.0
 71
2
 49
0.5
 62
256
  6
BYLAYER
 49
-0.5
 62
256
  6
BYLAYER
  0
MLEADERSTYLE
  5
2C
102
{ACAD_REACTORS
330
F
102
}
330
F
100
AcDbMLeaderStyle
179
2
170
2
171
1
172
0
 90
2
 40
0.0
 41
0.0
173
1
 91
-1056964608
 92
-2
290
1
 42
2.0
291
1
 43
8.0
  3
Standard
 44
4.0
300

342
29
174
1
175
1
176
0
178
1
 93
-1056964608
 45
4.0
292
0
297
0
 46
4.0
 94
-1056964608
 47
1.0
 49
1.0
140
1.0
294
1
141
0.0
177
0
142
1.0
295
0
296
0
143
3.75
271
0
272
9
273
9
  0
DICTIONARY
  5
2D
330
A
100
AcDbDictionary
280
1
281
1
  3
CREATED_BY_EZDXF
350
2E
  3
WRITTEN_BY_EZDXF
350
84
  0
DICTIONARYVAR
  5
2E
330
2D
100
DictionaryVariables
280
0
  1
1.4.4 @ 2026-10-04T18:29:02.637846+00:00
  0
DICTIONARYVAR
  5
84
330
2D
100
DictionaryVariables
280
0
  1
1.4.4 @ 2026-10-04T18:29:02.640700+00:00
  0
ENDSEC
  0
EOF
