  0
SECTION
  2
HEADER
  9
$ACADVER
  1
AC1024
  9
$ACADMAINTVER
 70
6
  9
$DWGCODEPAGE
  3
ANSI_1252
  9
$LASTSAVEDBY
  1
ezdxf
  9
$INSBASE
 10
0.0
 20
0.0
 30
0.0
  9
$EXTMIN
 10
1e+20
 20
1e+20
 30
1e+20
  9
$EXTMAX
 10
-1e+20
 20
-1e+20
 30
-1e+20
  9
$LIMMIN
 10
0.0
 20
0.0
  9
$LIMMAX
 10
420.0
 20
297.0
  9
$ORTHOMODE
 70
0
  9
$REGENMODE
 70
1
  9
$FILLMODE
 70
1
  9
$QTEXTMODE
 70
0
  9
$MIRRTEXT
 70
1
  9
$LTSCALE
 40
1.0
  9
$ATTMODE
 70
1
  9
$TEXTSIZE
 40
2.5
  9
$TRACEWID
 40
1.0
  9
$TEXTSTYLE
  7
Standard
  9
$CLAYER
  8
0
  9
$CELTYPE
  6
ByLayer
  9
$CECOLOR
 62
256
  9
$CELTSCALE
 40
1.0
  9
$DISPSILH
 70
0
  9
$DIMSCALE
 40
1.0
  9
$DIMASZ
 40
2.5
  9
$DIMEXO
 40
0.625
  9
$DIMDLI
 40
3.75
  9
$DIMRND
 40
0.0
  9
$DIMDLE
 40
0.0
  9
$DIMEXE
 40
1.25
  9
$DIMTP
 40
0.0
  9
$DIMTM
 40
0.0
  9
$DIMTXT
 40
2.5
  9
$DIMCEN
 40
2.5
  9
$DIMTSZ
 40
0.0
  9
$DIMTOL
 70
0
  9
$DIMLIM
 70
0
  9
$DIMTIH
 70
0
  9
$DIMTOH
 70
0
  9
$DIMSE1
 70
0
  9
$DIMSE2
 70
0
  9
$DIMTAD
 70
1
  9
$DIMZIN
 70
8
  9
$DIMBLK
  1

  9
$DIMASO
 70
1
  9
$DIMSHO
 70
1
  9
$DIMPOST
  1

  9
$DIMAPOST
  1

  9
$DIMALT
 70
0
  9
$DIMALTD
 70
3
  9
$DIMALTF
 40
0.03937007874
  9
$DIMLFAC
 40
1.0
  9
$DIMTOFL
 70
1
  9
$DIMTVP
 40
0.0
  9
$DIMTIX
 70
0
  9
$DIMSOXD
 70
0
  9
$DIMSAH
 70
0
  9
$DIMBLK1
  1

  9
$DIMBLK2
  1

  9
$DIMSTYLE
  2
ISO-25
  9
$DIMCLRD
 70
0
  9
$DIMCLRE
 70
0
  9
$DIMCLRT
 70
0
  9
$DIMTFAC
 40
1.0
  9
$DIMGAP
 40
0.625
  9
$DIMJUST
 70
0
  9
$DIMSD1
 70
0
  9
$DIMSD2
 70
0
  9
$DIMTOLJ
 70
0
  9
$DIMTZIN
 70
8
  9
$DIMALTZ
 70
0
  9
$DIMALTTZ
 70
0
  9
$DIMUPT
 70
0
  9
$DIMDEC
 70
2
  9
$DIMTDEC
 70
2
  9
$DIMALTU
 70
2
  9
$DIMALTTD
 70
3
  9
$DIMTXSTY
  7
Standard
  9
$DIMAUNIT
 70
0
  9
$DIMADEC
 70
0
  9
$DIMALTRND
 40
0.0
  9
$DIMAZIN
 70
0
  9
$DIMDSEP
 70
44
  9
$DIMATFIT
 70
3
  9
$DIMFRAC
 70
0
  9
$DIMLDRBLK
  1

  9
$DIMLUNIT
 70
2
  9
$DIMLWD
 70
-2
  9
$DIMLWE
 70
-2
  9
$DIMTMOVE
 70
0
  9
$DIMFXL
 40
1.0
  9
$DIMFXLON
 70
0
  9
$DIMJOGANG
 40
0.785398163397
  9
$DIMTFILL
 70
0
  9
$DIMTFILLCLR
 70
0
  9
$DIMARCSYM
 70
0
  9
$DIMLTYPE
  6

  9
$DIMLTEX1
  6

  9
$DIMLTEX2
  6

  9
$DIMTXTDIRECTION
 70
0
  9
$LUNITS
 70
2
  9
$LUPREC
 70
4
  9
$SKETCHINC
 40
1.0
  9
$FILLETRAD
 40
10.0
  9
$AUNITS
 70
0
  9
$AUPREC
 70
2
  9
$MENU
  1
.
  9
$ELEVATION
 40
0.0
  9
$PELEVATION
 40
0.0
  9
$THICKNESS
 40
0.0
  9
$LIMCHECK
 70
0
  9
$CHAMFERA
 40
0.0
  9
$CHAMFERB
 40
0.0
  9
$CHAMFERC
 40
0.0
  9
$CHAMFERD
 40
0.0
  9
$SKPOLY
 70
0
  9
$TDCREATE
 40
2461318.770162037
  9
$TDUCREATE
 40
2458532.153996898
  9
$TDUPDATE
 40
2461318.770162037
  9
$TDUUPDATE
 40
2458532.1544311
  9
$TDINDWG
 40
0.0
  9
$TDUSRTIMER
 40
0.0
  9
$USRTIMER
 70
1
  9
$ANGBASE
 50
0.0
  9
$ANGDIR
 70
0
  9
$PDMODE
 70
0
  9
$PDSIZE
 40
0.0
  9
$PLINEWID
 40
0.0
  9
$SPLFRAME
 70
0
  9
$SPLINETYPE
 70
6
  9
$SPLINESEGS
 70
8
  9
$HANDSEED
  5
85
  9
$SURFTAB1
 70
6
  9
$SURFTAB2
 70
6
  9
$SURFTYPE
 70
6
  9
$SURFU
 70
6
  9
$SURFV
 70
6
  9
$UCSBASE
  2

  9
$UCSNAME
  2

  9
$UCSORG
 10
0.0
 20
0.0
 30
0.0
  9
$UCSXDIR
 10
1.0
 20
0.0
 30
0.0
  9
$UCSYDIR
 10
0.0
 20
1.0
 30
0.0
  9
$UCSORTHOREF
  2

  9
$UCSORTHOVIEW
 70
0
  9
$UCSORGTOP
 10
0.0
 20
0.0
 30
0.0
  9
$UCSORGBOTTOM
 10
0.0
 20
0.0
 30
0.0
  9
$UCSORGLEFT
 10
0.0
 20
0.0
 30
0.0
  9
$UCSORGRIGHT
 10
0.0
 20
0.0
 30
0.0
  9
$UCSORGFRONT
 10
0.0
 20
0.0
 30
0.0
  9
$UCSORGBACK
 10
0.0
 20
0.0
 30
0.0
  9
$PUCSBASE
  2

  9
$PUCSNAME
  2

  9
$PUCSORG
 10
0.0
 20
0.0
 30
0.0
  9
$PUCSXDIR
 10
1.0
 20
0.0
 30
0.0
  9
$PUCSYDIR
 10
0.0
 20
1.0
 30
0.0
  9
$PUCSORTHOREF
  2

  9
$PUCSORTHOVIEW
 70
0
  9
$PUCSORGTOP
 10
0.0
 20
0.0
 30
0.0
  9
$PUCSORGBOTTOM
 10
0.0
 20
0.0
 30
0.0
  9
$PUCSORGLEFT
 10
0.0
 20
0.0
 30
0.0
  9
$PUCSORGRIGHT
 10
0.0
 20
0.0
 30
0.0
  9
$PUCSORGFRONT
 10
0.0
 20
0.0
 30
0.0
  9
$PUCSORGBACK
 10
0.0
 20
0.0
 30
0.0
  9
$USERI1
 70
0
  9
$USERI2
 70
0
  9
$USERI3
 70
0
  9
$USERI4
 70
0
  9
$USERI5
 70
0
  9
$USERR1
 40
0.0
  9
$USERR2
 40
0.0
  9
$USERR3
 40
0.0
  9
$USERR4
 40
0.0
  9
$USERR5
 40
0.0
  9
$WORLDVIEW
 70
1
  9
$SHADEDGE
 70
3
  9
$SHADEDIF
 70
70
  9
$TILEMODE
 70
1
  9
$MAXACTVP
 70
64
  9
$PINSBASE
 10
0.0
 20
0.0
 30
0.0
  9
$PLIMCHECK
 70
0
  9
$PEXTMIN
 10
1e+20
 20
1e+20
 30
1e+20
  9
$PEXTMAX
 10
-1e+20
 20
-1e+20
 30
-1e+20
  9
$PLIMMIN
 10
0.0
 20
0.0
  9
$PLIMMAX
 10
420.0
 20
297.0
  9
$UNITMODE
 70
0
  9
$VISRETAIN
 70
1
  9
$PLINEGEN
 70
0
  9
$PSLTSCALE
 70
1
  9
$TREEDEPTH
 70
3020
  9
$CMLSTYLE
  2
Standard
  9
$CMLJUST
 70
0
  9
$CMLSCALE
 40
20.0
  9
$PROXYGRAPHICS
 70
1
  9
$MEASUREMENT
 70
1
  9
$CELWEIGHT
370
-1
  9
$ENDCAPS
280
0
  9
$JOINSTYLE
280
0
  9
$LWDISPLAY
290
0
  9
$INSUNITS
 70
4
  9
$HYPERLINKBASE
  1

  9
$STYLESHEET
  1

  9
$XEDIT
290
1
  9
$CEPSNTYPE
380
0
  9
$PSTYLEMODE
290
1
  9
$FINGERPRINTGUID
  2
{90877011-519E-4830-922A-590F8B274927}
  9
$VERSIONGUID
  2
{BE3ECA67-0C51-49CD-B492-271C6C0B9665}
  9
$EXTNAMES
290
1
  9
$PSVPSCALE
 40
0.0
  9
$OLESTARTUP
290
0
  9
$SORTENTS
280
127
  9
$INDEXCTL
280
0
  9
$HIDETEXT
280
1
  9
$XCLIPFRAME
280
1
  9
$HALOGAP
280
0
  9
$OBSCOLOR
 70
257
  9
$OBSLTYPE
280
0
  9
$INTERSECTIONDISPLAY
280
0
  9
$INTERSECTIONCOLOR
 70
257
  9
$DIMASSOC
280
2
  9
$PROJECTNAME
  1

  9
$CAMERADISPLAY
290
0
  9
$LENSLENGTH
 40
50.0
  9
$CAMERAHEIGHT
 40
0.0
  9
$STEPSPERSEC
 40
24.0
  9
$STEPSIZE
 40
100.0
  9
$3DDWFPREC
 40
2.0
  9
$PSOLWIDTH
 40
0.005
  9
$PSOLHEIGHT
 40
0.08
  9
$LOFTANG1
 40
1.570796326795
  9
$LOFTANG2
 40
1.570796326795
  9
$LOFTMAG1
 40
0.0
  9
$LOFTMAG2
 40
0.0
  9
$LOFTPARAM
 70
7
  9
$LOFTNORMALS
280
1
  9
$LATITUDE
 40
37.795
  9
$LONGITUDE
 40
-122.394
  9
$NORTHDIRECTION
 40
0.0
  9
$TIMEZONE
 70
-8000
  9
$LIGHTGLYPHDISPLAY
280
1
  9
$TILEMODELIGHTSYNCH
280
1
  9
$CMATERIAL
347
20
  9
$SOLIDHIST
280
0
  9
$SHOWHIST
280
1
  9
$DWFFRAME
280
2
  9
$DGNFRAME
280
2
  9
$REALWORLDSCALE
290
1
  9
$INTERFERECOLOR
 62
256
  9
$CSHADOW
280
0
  9
$SHADOWPLANELOCATION
 40
0.0
  0
ENDSEC
  0
SECTION
  2
CLASSES
  0
CLASS
  1
ACDBDICTIONARYWDFLT
  2
AcDbDictionaryWithDefault
  3
ObjectDBX Classes
 90
0
 91
0
280
0
281
0
  0
CLASS
  1
SUN
  2
AcDbSun
  3
SCENEOE
 90
1153
 91
0
280
0
281
0
  0
CLASS
  1
VISUALSTYLE
  2
AcDbVisualStyle
  3
ObjectDBX Classes
 90
4095
 91
0
280
0
281
0
  0
CLASS
  1
MATERIAL
  2
AcDbMaterial
  3
ObjectDBX Classes
 90
1153
 91
0
280
0
281
0
  0
CLASS
  1
SCALE
  2
AcDbScale
  3
ObjectDBX Classes
 90
1153
 91
0
280
0
281
0
  0
CLASS
  1
TABLESTYLE
  2
AcDbTableStyle
  3
ObjectDBX Classes
 90
4095
 91
0
280
0
281
0
  0
CLASS
  1
MLEADERSTYLE
  2
AcDbMLeaderStyle
  3
ACDB_MLEADERSTYLE_CLASS
 90
4095
 91
0
280
0
281
0
  0
CLASS
  1
DICTIONARYVAR
  2
AcDbDictionaryVar
  3
ObjectDBX Classes
 90
0
 91
0
280
0
281
0
  0
CLASS
  1
CELLSTYLEMAP
  2
AcDbCellStyleMap
  3
ObjectDBX Classes
 90
1152
 91
0
280
0
281
0
  0
CLASS
  1
MENTALRAYRENDERSETTINGS
  2
AcDbMentalRayRenderSettings
  3
SCENEOE
 90
1024
 91
0
280
0
281
0
  0
CLASS
  1
ACDBDETAILVIEWSTYLE
  2
AcDbDetailViewStyle
  3
ObjectDBX Classes
 90
1025
 91
0
280
0
281
0
  0
CLASS
  1
ACDBSECTIONVIEWSTYLE
  2
AcDbSectionViewStyle
  3
ObjectDBX Classes
 90
1025
 91
0
280
0
281
0
  0
CLASS
  1
RASTERVARIABLES
  2
AcDbRasterVariables
  3
ISM
 90
0
 91
0
280
0
281
0
  0
CLASS
  1
LAYOUT
  2
AcDbLayout
  3
ObjectDBX Classes
 90
0
 91
0
280
0
281
0
  0
CLASS
  1
ACDBPLACEHOLDER
  2
AcDbPlaceHolder
  3
ObjectDBX Classes
 90
0
 91
0
280
0
281
0
  0
ENDSEC
  0
SECTION
  2
TABLES
  0
TABLE
  2
VPORT
  5
8
330
0
100
AcDbSymbolTable
 70
1
  0
VPORT
  5
23
330
8
100
AcDbSymbolTableRecord
100
AcDbViewportTableRecord
  2
*Active
 70
0
 10
0.0
 20
0.0
 11
1.0
 21
1.0
 12
0.0
 22
0.0
 13
0.0
 23
0.0
 14
0.5
 24
0.5
 15
0.5
 25
0.5
 16
0.0
 26
0.0
 36
1.0
 17
0.0
 27
0.0
 37
0.0
 40
1000.0
 41
1.34
 42
50.0
 43
0.0
 44
0.0
 50
0.0
 51
0.0
 71
0
 72
1000
 73
1
 74
3
 75
0
 76
0
 77
0
 78
0
281
0
 65
0
146
0.0
  0
ENDTAB
  0
TABLE
  2
LTYPE
  5
2
330
0
100
AcDbSymbolTable
 70
3
  0
LTYPE
  5
24
330
2
100
AcDbSymbolTableRecord
100
AcDbLinetypeTableRecord
  2
ByBlock
 70
0
  3

 72
65
 73
0
 40
0.0
  0
LTYPE
  5
25
330
2
100
AcDbSymbolTableRecord
100
AcDbLinetypeTableRecord
  2
ByLayer
 70
0
  3

 72
65
 73
0
 40
0.0
  0
LTYPE
  5
26
330
2
100
AcDbSymbolTableRecord
100
AcDbLinetypeTableRecord
  2
Continuous
 70
0
  3

 72
65
 73
0
 40
0.0
  0
ENDTAB
  0
TABLE
  2
LAYER
  5
1
330
0
100
AcDbSymbolTable
 70
8
  0
LAYER
  5
27
330
1
100
AcDbSymbolTableRecord
100
AcDbLayerTableRecord
  2
0
 70
0
 62
7
  6
Continuous
370
-3
390
13
347
21
  0
LAYER
  5
28
330
1
100
AcDbSymbolTableRecord
100
AcDbLayerTableRecord
  2
Defpoints
 70
0
 62
7
  6
Continuous
290
0
370
-3
390
13
347
21
  0
LAYER
  5
2F
330
1
100
AcDbSymbolTableRecord
100
AcDbLayerTableRecord
  2
CUT
 70
0
 62
1
  6
Continuous
370
-3
390
13
347
21
  0
LAYER
  5
30
330
1
100
AcDbSymbolTableRecord
100
AcDbLayerTableRecord
  2
SEW
 70
0
 62
5
  6
Continuous
370
-3
390
13
347
21
  0
LAYER
  5
31
330
1
100
AcDbSymbolTableRecord
100
AcDbLayerTableRecord
  2
GRAIN
 70
0
 62
3
  6
Continuous
370
-3
390
13
347
21
  0
LAYER
  5
32
330
1
100
AcDbSymbolTableRecord
100
AcDbLayerTableRecord
  2
NOTCH
 70
0
 62
2
  6
Continuous
370
-3
390
13
347
21
  0
LAYER
  5
33
330
1
100
AcDbSymbolTableRecord
100
AcDbLayerTableRecord
  2
LABEL
 70
0
 62
7
  6
Continuous
370
-3
390
13
347
21
  0
LAYER
  5
34
330
1
100
AcDbSymbolTableRecord
100
AcDbLayerTableRecord
  2
ATTACHMENT
 70
0
 62
4
  6
Continuous
370
-3
390
13
347
21
  0
ENDTAB
  0
TABLE
  2
STYLE
  5
5
330
0
100
AcDbSymbolTable
 70
1
  0
STYLE
  5
29
330
5
100
AcDbSymbolTableRecord
100
AcDbTextStyleTableRecord
  2
Standard
 70
0
 40
0.0
 41
1.0
 50
0.0
 71
0
 42
2.5
  3
txt
  4

  0
ENDTAB
  0
TABLE
  2
VIEW
  5
7
330
0
100
AcDbSymbolTable
 70
0
  0
ENDTAB
  0
TABLE
  2
UCS
  5
6
330
0
100
AcDbSymbolTable
 70
0
  0
ENDTAB
  0
TABLE
  2
APPID
  5
3
330
0
100
AcDbSymbolTable
 70
3
  0
APPID
  5
2A
330
3
100
AcDbSymbolTableRecord
100
AcDbRegAppTableRecord
  2
ACAD
 70
0
  0
APPID
  5
82
330
3
100
AcDbSymbolTableRecord
100
AcDbRegAppTableRecord
  2
HATCHBACKGROUNDCOLOR
 70
0
  0
APPID
  5
83
330
3
100
AcDbSymbolTableRecord
100
AcDbRegAppTableRecord
  2
EZDXF
 70
0
  0
ENDTAB
  0
TABLE
  2
DIMSTYLE
  5
4
330
0
100
AcDbSymbolTable
 70
1
100
AcDbDimStyleTable
  0
DIMSTYLE
105
2B
330
4
100
AcDbSymbolTableRecord
100
AcDbDimStyleTableRecord
  2
Standard
 70
0
 40
1.0
 41
2.5
 42
0.625
 43
3.75
 44
1.25
 45
0.0
 46
0.0
 47
0.0
 48
0.0
 49
2.5
140
2.5
141
2.5
142
0.0
143
0.03937007874
144
1.0
145
0.0
146
1.0
147
0.625
148
0.0
 69
0
 70
0
 71
0
 72
0
 73
0
 74
0
 75
0
 76
0
 77
1
 78
8
 79
3
170
0
171
3
172
1
173
0
174
0
175
0
176
0
177
0
178
0
179
2
271
2
272
2
273
2
274
3
275
0
276
0
277
2
278
44
279
0
280
0
281
0
282
0
283
0
284
8
285
0
286
0
288
0
289
3
290
0
371
-2
372
-2
  0
ENDTAB
  0
TABLE
  2
BLOCK_RECORD
  5
9
330
0
100
AcDbSymbolTable
 70
2
  0
BLOCK_RECORD
  5
17
330
9
100
AcDbSymbolTableRecord
100
AcDbBlockTableRecord
  2
*Model_Space
340
1A
 70
0
280
1
281
0
  0
BLOCK_RECORD
  5
1B
330
9
100
AcDbSymbolTableRecord
100
AcDbBlockTableRecord
  2
*Paper_Space
340
1E
 70
0
280
1
281
0
  0
ENDTAB
  0
ENDSEC
  0
SECTION
  2
BLOCKS
  0
BLOCK
  5
18
330
17
100
AcDbEntity
  8
0
100
AcDbBlockBegin
  2
*Model_Space
 70
0
 10
0.0
 20
0.0
 30
0.0
  3
*Model_Space
  1

  0
ENDBLK
  5
19
330
17
100
AcDbEntity
  8
0
100
AcDbBlockEnd
  0
BLOCK
  5
1C
330
1B
100
AcDbEntity
  8
0
100
AcDbBlockBegin
  2
*Paper_Space
 70
0
 10
0.0
 20
0.0
 30
0.0
  3
*Paper_Space
  1

  0
ENDBLK
  5
1D
330
1B
100
AcDbEntity
  8
0
100
AcDbBlockEnd
  0
ENDSEC
  0
SECTION
  2
ENTITIES
  0
LWPOLYLINE
  5
35
330
17
100
AcDbEntity
  8
CUT
100
AcDbPolyline
 90
77
 70
1
 10
-20.184486651175206
 20
12.745605243900929
 10
52.40651042402132
 20
10.0929339931688
 10
102.51509954578937
 20
9.558260133614988
 10
150.41222056662568
 20
11.126099419328087
 10
196.66041707764848
 20
14.334538798503036
 10
242.18916597907213
 20
18.366405449564105
 10
286.5691102788501
 20
24.02030466721771
 10
329.6783867242647
 20
31.75715547750471
 10
371.70782203501085
 20
41.423693626136355
 10
413.36677541302276
 20
51.867517533362985
 10
454.97075047019825
 20
62.38678545028406
 10
496.66713138086664
 20
72.71104725963144
 10
538.6860054907061
 20
82.62129102048111
 10
581.198615019585
 20
91.53450040357795
 10
623.9372813126696
 20
99.54414831832038
 10
666.7062876837182
 20
106.81772180917844
 10
709.3508534745566
 20
113.51648215648986
 10
751.8562498748211
 20
119.90726700861441
 10
794.3879990418135
 20
126.11329873925197
 10
837.0745132792877
 20
131.9725837096409
 10
880.0163905993209
 20
137.30566153608183
 10
923.321384681344
 20
141.8470613203714
 10
967.0068975423391
 20
145.37489630118404
 10
1011.055463360374
 20
147.98621498961867
 10
1055.7021731185653
 20
149.20055066894818
 10
1101.115866606894
 20
148.50006746438248
 10
1147.4602628141954
 20
145.38191970995524
 10
1195.2273218543282
 20
139.32105889254265
 10
1245.960824185174
 20
126.67693318667163
 10
1300.6550616251063
 20
105.27646480275746
 10
1358.813475407242
 20
77.4766918729871
 10
1420.0431168377363
 20
45.23991310407482
 10
1489.0679457926803
 20
7.615906259377562
 10
1491.6235413536026
 20
-11.801221937180992
 10
1492.6268685189837
 20
-25.42683491525348
 10
1494.444515995994
 20
-37.52457687804469
 10
1496.9190791169613
 20
-49.26566002031527
 10
1499.8424097737004
 20
-60.87693542377213
 10
1508.4032782875147
 20
-91.82964614015849
 10
1437.5680453788427
 20
-75.89269611441347
 10
1387.5702977379028
 20
-66.2302926389738
 10
1339.300030349672
 20
-59.14014202946891
 10
1293.2030609006915
 20
-55.44022403762982
 10
1249.2693357714575
 20
-55.975963723231416
 10
1206.3500971899766
 20
-59.57313216498446
 10
1163.7324861086802
 20
-64.5734892789485
 10
1121.477055489335
 20
-70.75801080079532
 10
1079.4666978245862
 20
-77.91090435645782
 10
1037.5889864775118
 20
-85.81356891399199
 10
995.7551265481592
 20
-94.27981075824263
 10
953.9310783271438
 20
-103.44383095433142
 10
912.112773409583
 20
-113.21450277554231
 10
870.358617917188
 20
-123.36418262304684
 10
828.7295180532185
 20
-133.63023642452902
 10
787.2448996688248
 20
-143.7521763674411
 10
745.787463026329
 20
-153.688715020568
 10
704.4005856571287
 20
-163.63730793688754
 10
663.170353398421
 20
-173.79065859526912
 10
622.160156369706
 20
-184.32575612096645
 10
581.3435984329425
 20
-195.3855077105264
 10
540.5791452012678
 20
-206.7151227247317
 10
499.8560359208879
 20
-218.2430660391035
 10
459.1616946726498
 20
-229.99180254383643
 10
418.42692240026616
 20
-241.94658232033152
 10
377.5423901754174
 20
-254.08413215669114
 10
336.6954818470484
 20
-266.61853999158603
 10
296.0912313788615
 20
-279.6894502360381
 10
255.89721803938278
 20
-293.30740339347807
 10
216.07173944236652
 20
-307.64149574836784
 10
176.48590968395914
 20
-322.62489719292716
 10
125.16539568706018
 20
-342.8372456165628
 10
107.75583410160432
 20
-289.2212465069724
 10
94.07098341653776
 20
-247.17657160981346
 10
79.40048309334125
 20
-203.1425124152444
 10
61.223256272429936
 20
-153.59669353301337
 10
34.354772561968815
 20
-91.79320884631464
 10
-20.184486651175206
 20
12.745605243900929
  0
LWPOLYLINE
  5
36
330
17
100
AcDbEntity
  8
SEW
100
AcDbPolyline
 90
76
 70
1
 10
0.0
 20
0.0
 10
52.123334948443116
 20
-1.9047275513627036
 10
102.64743937596725
 20
-2.4438350853848254
 10
151.0239686330686
 20
-0.860303101432437
 10
197.6050187662462
 20
2.371227787236683
 10
243.47716534563597
 20
6.433504534758805
 10
288.3884338873937
 20
12.15509319554822
 10
332.0845458631302
 20
19.997263772777362
 10
374.5119838569554
 20
29.755340341823096
 10
416.296588696742
 20
40.23066484217679
 10
457.88362635935573
 20
50.745650259866366
 10
499.48662786171633
 20
61.04679079494687
 10
541.2949286212507
 20
70.90737036856474
 10
583.535293574956
 20
79.76350085368693
 10
626.0486031595979
 20
87.73091469688691
 10
668.6434041604793
 20
94.97486169721068
 10
711.1740442766828
 20
101.65572619360574
 10
753.6146629391108
 20
108.0367715627286
 10
796.0702751890333
 20
114.23169375443437
 10
838.6299823170976
 20
120.07357278283959
 10
881.3817803730014
 20
125.3830441073747
 10
924.430291443926
 20
129.89754648835162
 10
967.8450254466718
 20
133.40351465186865
 10
1011.5738014349391
 20
135.9958753301312
 10
1055.7728015311397
 20
137.19803385644136
 10
1100.6202169006674
 20
136.50628520484557
 10
1146.3012247057611
 20
133.43277160742417
 10
1193.013397673393
 20
127.50575862975995
 10
1242.3084919443515
 20
115.2201221172221
 10
1295.8748682219625
 20
94.26095721015429
 10
1353.428668038177
 20
66.75019028776484
 10
1414.3760303004103
 20
34.662028608316064
 10
1477.9668276813543
 20
9.046753376645678e-14
 10
1479.681223797485
 20
-13.025789242871767
 10
1480.6926091535754
 20
-26.760835904888136
 10
1482.629955974943
 20
-39.655262483077045
 10
1485.2252021702227
 20
-51.968951754228016
 10
1488.2395293533152
 20
-63.94165932267499
 10
1491.4989523918055
 20
-75.72644240279293
 10
1440.0240845344913
 20
-64.1453073808819
 10
1389.58174477811
 20
-54.39698346694082
 10
1340.6534821593636
 20
-47.21018360444613
 10
1293.610807283709
 20
-43.43435970024539
 10
1248.6943245926639
 20
-43.982083396436536
 10
1205.1494604140275
 20
-47.631687080025664
 10
1162.1640734395369
 20
-52.67519562264136
 10
1119.6007989681045
 20
-58.90477329231808
 10
1077.346820701134
 20
-66.09914690986352
 10
1035.2861362131057
 20
-74.03633998649492
 10
993.280640425534
 20
-82.53731710708117
 10
951.2816541030597
 20
-91.73966779395275
 10
909.330387494054
 20
-101.54140555756527
 10
867.5047819782947
 20
-111.70845361318446
 10
825.8706739298954
 20
-121.97574247117691
 10
784.4241799298852
 20
-132.0883803463801
 10
742.9866520222412
 20
-142.02014726421865
 10
701.5635314743241
 20
-151.9774523292666
 10
660.2427173973956
 20
-162.15310965227962
 10
619.0979684700812
 20
-172.72277217587293
 10
578.1677024223638
 20
-183.8133343855449
 10
537.3381855983212
 20
-195.16103244501468
 10
496.5574765591978
 20
-206.70528116350346
 10
455.80779799261495
 20
-218.46999393304787
 10
415.0297193708822
 20
-230.43748319189703
 10
374.0745642239714
 20
-242.59599912935823
 10
333.0965971504614
 20
-255.1706240536035
 10
292.3271357614855
 20
-268.2947173291948
 10
251.93960659087114
 20
-281.97823471634655
 10
211.9155612947924
 20
-296.38379572656044
 10
172.16305418415044
 20
-311.430285243177
 10
132.63863310011592
 20
-326.99679672124347
 10
119.16792186544492
 20
-285.5112235195012
 10
105.46890438173683
 20
-243.4230232337995
 10
90.72830334316963
 20
-199.17855410213141
 10
72.36815577451887
 20
-149.13414661083516
 10
45.190406925501776
 20
-86.6192833640046
  0
LINE
  5
37
330
17
100
AcDbEntity
  8
GRAIN
100
AcDbLine
 10
449.92653667610864
 20
-96.64053667575901
 30
0.0
 11
529.9265366761086
 21
-96.64053667575901
 31
0.0
  0
LINE
  5
38
330
17
100
AcDbEntity
  8
GRAIN
100
AcDbLine
 10
529.9265366761086
 20
-96.64053667575901
 30
0.0
 11
524.9265366761086
 21
-93.64053667575901
 31
0.0
  0
TEXT
  5
39
330
17
100
AcDbEntity
  8
LABEL
100
AcDbText
 10
489.92653667610864
 20
-96.64053667575901
 30
0.0
 40
6.0
  1
L08_CONTINUOUS_COVER_I1
100
AcDbText
  0
CIRCLE
  5
3A
330
17
100
AcDbEntity
  8
NOTCH
100
AcDbCircle
 10
1483.9275790725828
 20
-45.812107118652534
 30
0.0
 40
1.0
  0
TEXT
  5
3B
330
17
100
AcDbEntity
  8
LABEL
100
AcDbText
 10
1485.9275790725828
 20
-43.812107118652534
 30
0.0
 40
3.0
  1
J1003
100
AcDbText
  0
CIRCLE
  5
3C
330
17
100
AcDbEntity
  8
NOTCH
100
AcDbCircle
 10
192.03930773947144
 20
-303.90704048486873
 30
0.0
 40
1.0
  0
TEXT
  5
3D
330
17
100
AcDbEntity
  8
LABEL
100
AcDbText
 10
194.03930773947144
 20
-301.90704048486873
 30
0.0
 40
3.0
  1
J1013
100
AcDbText
  0
CIRCLE
  5
3E
330
17
100
AcDbEntity
  8
NOTCH
100
AcDbCircle
 10
272.13337117617834
 20
-275.1364760227707
 30
0.0
 40
1.0
  0
TEXT
  5
3F
330
17
100
AcDbEntity
  8
LABEL
100
AcDbText
 10
274.13337117617834
 20
-273.1364760227707
 30
0.0
 40
3.0
  1
J1013
100
AcDbText
  0
CIRCLE
  5
40
330
17
100
AcDbEntity
  8
NOTCH
100
AcDbCircle
 10
353.5855806872164
 20
-248.88331159148086
 30
0.0
 40
1.0
  0
TEXT
  5
41
330
17
100
AcDbEntity
  8
LABEL
100
AcDbText
 10
355.5855806872164
 20
-246.88331159148086
 30
0.0
 40
3.0
  1
J1013
100
AcDbText
  0
CIRCLE
  5
42
330
17
100
AcDbEntity
  8
NOTCH
100
AcDbCircle
 10
435.4187586817486
 20
-224.45373856247244
 30
0.0
 40
1.0
  0
TEXT
  5
43
330
17
100
AcDbEntity
  8
LABEL
100
AcDbText
 10
437.4187586817486
 20
-222.45373856247244
 30
0.0
 40
3.0
  1
J1013
100
AcDbText
  0
CIRCLE
  5
44
330
17
100
AcDbEntity
  8
NOTCH
100
AcDbCircle
 10
516.9478310787595
 20
-200.93315680425906
 30
0.0
 40
1.0
  0
TEXT
  5
45
330
17
100
AcDbEntity
  8
LABEL
100
AcDbText
 10
518.9478310787595
 20
-198.93315680425906
 30
0.0
 40
3.0
  1
J1013
100
AcDbText
  0
CIRCLE
  5
46
330
17
100
AcDbEntity
  8
NOTCH
100
AcDbCircle
 10
598.6328354462225
 20
-178.2680532807089
 30
0.0
 40
1.0
  0
TEXT
  5
47
330
17
100
AcDbEntity
  8
LABEL
100
AcDbText
 10
600.6328354462225
 20
-176.2680532807089
 30
0.0
 40
3.0
  1
J1013
100
AcDbText
  0
CIRCLE
  5
48
330
17
100
AcDbEntity
  8
NOTCH
100
AcDbCircle
 10
680.9031244358598
 20
-157.06528099077312
 30
0.0
 40
1.0
  0
TEXT
  5
49
330
17
100
AcDbEntity
  8
LABEL
100
AcDbText
 10
682.9031244358598
 20
-155.06528099077312
 30
0.0
 40
3.0
  1
J1013
100
AcDbText
  0
CIRCLE
  5
4A
330
17
100
AcDbEntity
  8
NOTCH
100
AcDbCircle
 10
763.7054159760633
 20
-137.05426380529937
 30
0.0
 40
1.0
  0
TEXT
  5
4B
330
17
100
AcDbEntity
  8
LABEL
100
AcDbText
 10
765.7054159760633
 20
-135.05426380529937
 30
0.0
 40
3.0
  1
J1013
100
AcDbText
  0
CIRCLE
  5
4C
330
17
100
AcDbEntity
  8
NOTCH
100
AcDbCircle
 10
846.687727954095
 20
-116.84209804218068
 30
0.0
 40
1.0
  0
TEXT
  5
4D
330
17
100
AcDbEntity
  8
LABEL
100
AcDbText
 10
848.687727954095
 20
-114.84209804218068
 30
0.0
 40
3.0
  1
J1013
100
AcDbText
  0
CIRCLE
  5
4E
330
17
100
AcDbEntity
  8
NOTCH
100
AcDbCircle
 10
930.3060207985568
 20
-96.64053667575901
 30
0.0
 40
1.0
  0
TEXT
  5
4F
330
17
100
AcDbEntity
  8
LABEL
100
AcDbText
 10
932.3060207985568
 20
-94.64053667575901
 30
0.0
 40
3.0
  1
J1013
100
AcDbText
  0
CIRCLE
  5
50
330
17
100
AcDbEntity
  8
NOTCH
100
AcDbCircle
 10
1014.2833883193198
 20
-78.28682854678804
 30
0.0
 40
1.0
  0
TEXT
  5
51
330
17
100
AcDbEntity
  8
LABEL
100
AcDbText
 10
1016.2833883193198
 20
-76.28682854678804
 30
0.0
 40
3.0
  1
J1013
100
AcDbText
  0
CIRCLE
  5
52
330
17
100
AcDbEntity
  8
NOTCH
100
AcDbCircle
 10
1098.4738098346193
 20
-62.5019601010908
 30
0.0
 40
1.0
  0
TEXT
  5
53
330
17
100
AcDbEntity
  8
LABEL
100
AcDbText
 10
1100.4738098346193
 20
-60.5019601010908
 30
0.0
 40
3.0
  1
J1013
100
AcDbText
  0
CIRCLE
  5
54
330
17
100
AcDbEntity
  8
NOTCH
100
AcDbCircle
 10
1183.6567669267822
 20
-50.15344135133351
 30
0.0
 40
1.0
  0
TEXT
  5
55
330
17
100
AcDbEntity
  8
LABEL
100
AcDbText
 10
1185.6567669267822
 20
-48.15344135133351
 30
0.0
 40
3.0
  1
J1013
100
AcDbText
  0
CIRCLE
  5
56
330
17
100
AcDbEntity
  8
NOTCH
100
AcDbCircle
 10
1271.1525659381864
 20
-43.70822154834096
 30
0.0
 40
1.0
  0
TEXT
  5
57
330
17
100
AcDbEntity
  8
LABEL
100
AcDbText
 10
1273.1525659381864
 20
-41.70822154834096
 30
0.0
 40
3.0
  1
J1013
100
AcDbText
  0
CIRCLE
  5
58
330
17
100
AcDbEntity
  8
NOTCH
100
AcDbCircle
 10
1365.1176134687369
 20
-50.80358353569348
 30
0.0
 40
1.0
  0
TEXT
  5
59
330
17
100
AcDbEntity
  8
LABEL
100
AcDbText
 10
1367.1176134687369
 20
-48.80358353569348
 30
0.0
 40
3.0
  1
J1013
100
AcDbText
  0
CIRCLE
  5
5A
330
17
100
AcDbEntity
  8
NOTCH
100
AcDbCircle
 10
1465.7615184631484
 20
-69.93587489183741
 30
0.0
 40
1.0
  0
TEXT
  5
5B
330
17
100
AcDbEntity
  8
LABEL
100
AcDbText
 10
1467.7615184631484
 20
-67.93587489183741
 30
0.0
 40
3.0
  1
J1013
100
AcDbText
  0
CIRCLE
  5
5C
330
17
100
AcDbEntity
  8
NOTCH
100
AcDbCircle
 10
77.38538716220518
 20
-2.1742813183737644
 30
0.0
 40
1.0
  0
TEXT
  5
5D
330
17
100
AcDbEntity
  8
LABEL
100
AcDbText
 10
79.38538716220518
 20
-0.17428131837376437
 30
0.0
 40
3.0
  1
J1014
100
AcDbText
  0
CIRCLE
  5
5E
330
17
100
AcDbEntity
  8
NOTCH
100
AcDbCircle
 10
174.3144936996574
 20
0.755462342902123
 30
0.0
 40
1.0
  0
TEXT
  5
5F
330
17
100
AcDbEntity
  8
LABEL
100
AcDbText
 10
176.3144936996574
 20
2.755462342902123
 30
0.0
 40
3.0
  1
J1014
100
AcDbText
  0
CIRCLE
  5
60
330
17
100
AcDbEntity
  8
NOTCH
100
AcDbCircle
 10
265.93279961651484
 20
9.294298865153513
 30
0.0
 40
1.0
  0
TEXT
  5
61
330
17
100
AcDbEntity
  8
LABEL
100
AcDbText
 10
267.93279961651484
 20
11.294298865153513
 30
0.0
 40
3.0
  1
J1014
100
AcDbText
  0
CIRCLE
  5
62
330
17
100
AcDbEntity
  8
NOTCH
100
AcDbCircle
 10
353.29826486004276
 20
24.87630205730023
 30
0.0
 40
1.0
  0
TEXT
  5
63
330
17
100
AcDbEntity
  8
LABEL
100
AcDbText
 10
355.29826486004276
 20
26.87630205730023
 30
0.0
 40
3.0
  1
J1014
100
AcDbText
  0
CIRCLE
  5
64
330
17
100
AcDbEntity
  8
NOTCH
100
AcDbCircle
 10
437.09010752804886
 20
45.48815755102158
 30
0.0
 40
1.0
  0
TEXT
  5
65
330
17
100
AcDbEntity
  8
LABEL
100
AcDbText
 10
439.09010752804886
 20
47.48815755102158
 30
0.0
 40
3.0
  1
J1014
100
AcDbText
  0
CIRCLE
  5
66
330
17
100
AcDbEntity
  8
NOTCH
100
AcDbCircle
 10
520.3907782414835
 20
65.97708058175581
 30
0.0
 40
1.0
  0
TEXT
  5
67
330
17
100
AcDbEntity
  8
LABEL
100
AcDbText
 10
522.3907782414835
 20
67.97708058175581
 30
0.0
 40
3.0
  1
J1014
100
AcDbText
  0
CIRCLE
  5
68
330
17
100
AcDbEntity
  8
NOTCH
100
AcDbCircle
 10
604.791948367277
 20
83.74720777528692
 30
0.0
 40
1.0
  0
TEXT
  5
69
330
17
100
AcDbEntity
  8
LABEL
100
AcDbText
 10
606.791948367277
 20
85.74720777528692
 30
0.0
 40
3.0
  1
J1014
100
AcDbText
  0
CIRCLE
  5
6A
330
17
100
AcDbEntity
  8
NOTCH
100
AcDbCircle
 10
689.908724218581
 20
98.31529394540821
 30
0.0
 40
1.0
  0
TEXT
  5
6B
330
17
100
AcDbEntity
  8
LABEL
100
AcDbText
 10
691.908724218581
 20
100.31529394540821
 30
0.0
 40
3.0
  1
J1014
100
AcDbText
  0
CIRCLE
  5
6C
330
17
100
AcDbEntity
  8
NOTCH
100
AcDbCircle
 10
774.842469064072
 20
111.13423265858148
 30
0.0
 40
1.0
  0
TEXT
  5
6D
330
17
100
AcDbEntity
  8
LABEL
100
AcDbText
 10
776.842469064072
 20
113.13423265858148
 30
0.0
 40
3.0
  1
J1014
100
AcDbText
  0
CIRCLE
  5
6E
330
17
100
AcDbEntity
  8
NOTCH
100
AcDbCircle
 10
860.0058813450496
 20
122.72830844510715
 30
0.0
 40
1.0
  0
TEXT
  5
6F
330
17
100
AcDbEntity
  8
LABEL
100
AcDbText
 10
862.0058813450496
 20
124.72830844510715
 30
0.0
 40
3.0
  1
J1014
100
AcDbText
  0
CIRCLE
  5
70
330
17
100
AcDbEntity
  8
NOTCH
100
AcDbCircle
 10
946.1376584452989
 20
131.65053057011013
 30
0.0
 40
1.0
  0
TEXT
  5
71
330
17
100
AcDbEntity
  8
LABEL
100
AcDbText
 10
948.1376584452989
 20
133.65053057011013
 30
0.0
 40
3.0
  1
J1014
100
AcDbText
  0
CIRCLE
  5
72
330
17
100
AcDbEntity
  8
NOTCH
100
AcDbCircle
 10
1033.6733014830395
 20
136.59695459328628
 30
0.0
 40
1.0
  0
TEXT
  5
73
330
17
100
AcDbEntity
  8
LABEL
100
AcDbText
 10
1035.6733014830395
 20
138.59695459328628
 30
0.0
 40
3.0
  1
J1014
100
AcDbText
  0
CIRCLE
  5
74
330
17
100
AcDbEntity
  8
NOTCH
100
AcDbCircle
 10
1123.4607208032144
 20
134.96952840613488
 30
0.0
 40
1.0
  0
TEXT
  5
75
330
17
100
AcDbEntity
  8
LABEL
100
AcDbText
 10
1125.4607208032144
 20
136.96952840613488
 30
0.0
 40
3.0
  1
J1014
100
AcDbText
  0
CIRCLE
  5
76
330
17
100
AcDbEntity
  8
NOTCH
100
AcDbCircle
 10
1217.6609448088723
 20
121.36294037349103
 30
0.0
 40
1.0
  0
TEXT
  5
77
330
17
100
AcDbEntity
  8
LABEL
100
AcDbText
 10
1219.6609448088723
 20
123.36294037349103
 30
0.0
 40
3.0
  1
J1014
100
AcDbText
  0
CIRCLE
  5
78
330
17
100
AcDbEntity
  8
NOTCH
100
AcDbCircle
 10
1324.6517681300697
 20
80.50557374895956
 30
0.0
 40
1.0
  0
TEXT
  5
79
330
17
100
AcDbEntity
  8
LABEL
100
AcDbText
 10
1326.6517681300697
 20
82.50557374895956
 30
0.0
 40
3.0
  1
J1014
100
AcDbText
  0
CIRCLE
  5
7A
330
17
100
AcDbEntity
  8
NOTCH
100
AcDbCircle
 10
1446.1714289908823
 20
17.331014304158078
 30
0.0
 40
1.0
  0
TEXT
  5
7B
330
17
100
AcDbEntity
  8
LABEL
100
AcDbText
 10
1448.1714289908823
 20
19.331014304158078
 30
0.0
 40
3.0
  1
J1014
100
AcDbText
  0
CIRCLE
  5
7C
330
17
100
AcDbEntity
  8
NOTCH
100
AcDbCircle
 10
125.90327748278042
 20
-306.2540101203723
 30
0.0
 40
1.0
  0
TEXT
  5
7D
330
17
100
AcDbEntity
  8
LABEL
100
AcDbText
 10
127.90327748278042
 20
-304.2540101203723
 30
0.0
 40
3.0
  1
J1015
100
AcDbText
  0
CIRCLE
  5
7E
330
17
100
AcDbEntity
  8
NOTCH
100
AcDbCircle
 10
98.09860386245323
 20
-221.30078866796546
 30
0.0
 40
1.0
  0
TEXT
  5
7F
330
17
100
AcDbEntity
  8
LABEL
100
AcDbText
 10
100.09860386245323
 20
-219.30078866796546
 30
0.0
 40
3.0
  1
J1015
100
AcDbText
  0
CIRCLE
  5
80
330
17
100
AcDbEntity
  8
NOTCH
100
AcDbCircle
 10
58.77928135001032
 20
-117.87671498741989
 30
0.0
 40
1.0
  0
TEXT
  5
81
330
17
100
AcDbEntity
  8
LABEL
100
AcDbText
 10
60.77928135001032
 20
-115.87671498741989
 30
0.0
 40
3.0
  1
J1015
100
AcDbText
  0
ENDSEC
  0
SECTION
  2
OBJECTS
  0
DICTIONARY
  5
A
330
0
100
AcDbDictionary
281
1
  3
ACAD_COLOR
350
B
  3
ACAD_GROUP
350
C
  3
ACAD_LAYOUT
350
D
  3
ACAD_MATERIAL
350
E
  3
ACAD_MLEADERSTYLE
350
F
  3
ACAD_MLINESTYLE
350
10
  3
ACAD_PLOTSETTINGS
350
11
  3
ACAD_PLOTSTYLENAME
350
12
  3
ACAD_SCALELIST
350
14
  3
ACAD_TABLESTYLE
350
15
  3
ACAD_VISUALSTYLE
350
16
  3
EZDXF_META
350
2D
  0
DICTIONARY
  5
B
330
A
100
AcDbDictionary
281
1
  0
DICTIONARY
  5
C
330
A
100
AcDbDictionary
281
1
  0
DICTIONARY
  5
D
330
A
100
AcDbDictionary
281
1
  3
Model
350
1A
  3
Layout1
350
1E
  0
DICTIONARY
  5
E
330
A
100
AcDbDictionary
281
1
  3
ByBlock
350
1F
  3
ByLayer
350
20
  3
Global
350
21
  0
DICTIONARY
  5
F
330
A
100
AcDbDictionary
281
1
  3
Standard
350
2C
  0
DICTIONARY
  5
10
330
A
100
AcDbDictionary
281
1
  3
Standard
350
22
  0
DICTIONARY
  5
11
330
A
100
AcDbDictionary
281
1
  0
ACDBDICTIONARYWDFLT
  5
12
330
A
100
AcDbDictionary
281
1
  3
Normal
350
13
100
AcDbDictionaryWithDefault
340
13
  0
ACDBPLACEHOLDER
  5
13
330
12
  0
DICTIONARY
  5
14
330
A
100
AcDbDictionary
281
1
  0
DICTIONARY
  5
15
330
A
100
AcDbDictionary
281
1
  0
DICTIONARY
  5
16
330
A
100
AcDbDictionary
281
1
  0
LAYOUT
  5
1A
330
D
100
AcDbPlotSettings
  1

  4
A3
  6

 40
7.5
 41
20.0
 42
7.5
 43
20.0
 44
420.0
 45
297.0
 46
0.0
 47
0.0
 48
0.0
 49
0.0
140
0.0
141
0.0
142
1.0
143
1.0
 70
1024
 72
1
 73
0
 74
5
  7

 75
16
 76
0
 77
2
 78
300
147
1.0
148
0.0
149
0.0
100
AcDbLayout
  1
Model
 70
1
 71
0
 10
0.0
 20
0.0
 11
420.0
 21
297.0
 12
0.0
 22
0.0
 32
0.0
 14
1e+20
 24
1e+20
 34
1e+20
 15
-1e+20
 25
-1e+20
 35
-1e+20
146
0.0
 13
0.0
 23
0.0
 33
0.0
 16
1.0
 26
0.0
 36
0.0
 17
0.0
 27
1.0
 37
0.0
 76
1
330
17
  0
LAYOUT
  5
1E
330
D
100
AcDbPlotSettings
  1

  4
A3
  6

 40
7.5
 41
20.0
 42
7.5
 43
20.0
 44
420.0
 45
297.0
 46
0.0
 47
0.0
 48
0.0
 49
0.0
140
0.0
141
0.0
142
1.0
143
1.0
 70
0
 72
1
 73
0
 74
5
  7

 75
16
 76
0
 77
2
 78
300
147
1.0
148
0.0
149
0.0
100
AcDbLayout
  1
Layout1
 70
1
 71
1
 10
0.0
 20
0.0
 11
420.0
 21
297.0
 12
0.0
 22
0.0
 32
0.0
 14
1e+20
 24
1e+20
 34
1e+20
 15
-1e+20
 25
-1e+20
 35
-1e+20
146
0.0
 13
0.0
 23
0.0
 33
0.0
 16
1.0
 26
0.0
 36
0.0
 17
0.0
 27
1.0
 37
0.0
 76
1
330
1B
  0
MATERIAL
  5
1F
102
{ACAD_REACTORS
330
E
102
}
330
E
100
AcDbMaterial
  1
ByBlock
  2

 70
0
 40
1.0
 71
1
 41
1.0
 91
-1023410177
 42
1.0
 72
1
  3

 73
1
 74
1
 75
1
 44
0.5
 73
0
 45
1.0
 46
1.0
 77
1
  4

 78
1
 79
1
170
1
 48
1.0
171
1
  6

172
1
173
1
174
1
140
1.0
141
1.0
175
1
  7

176
1
177
1
178
1
143
1.0
179
1
  8

270
1
271
1
272
1
145
1.0
146
1.0
273
1
  9

274
1
275
1
276
1
 42
1.0
 72
1
  3

 73
1
 74
1
 75
1
 94
63
  0
MATERIAL
  5
20
102
{ACAD_REACTORS
330
E
102
}
330
E
100
AcDbMaterial
  1
ByLayer
  2

 70
0
 40
1.0
 71
1
 41
1.0
 91
-1023410177
 42
1.0
 72
1
  3

 73
1
 74
1
 75
1
 44
0.5
 73
0
 45
1.0
 46
1.0
 77
1
  4

 78
1
 79
1
170
1
 48
1.0
171
1
  6

172
1
173
1
174
1
140
1.0
141
1.0
175
1
  7

176
1
177
1
178
1
143
1.0
179
1
  8

270
1
271
1
272
1
145
1.0
146
1.0
273
1
  9

274
1
275
1
276
1
 42
1.0
 72
1
  3

 73
1
 74
1
 75
1
 94
63
  0
MATERIAL
  5
21
102
{ACAD_REACTORS
330
E
102
}
330
E
100
AcDbMaterial
  1
Global
  2

 70
0
 40
1.0
 71
1
 41
1.0
 91
-1023410177
 42
1.0
 72
1
  3

 73
1
 74
1
 75
1
 44
0.5
 73
0
 45
1.0
 46
1.0
 77
1
  4

 78
1
 79
1
170
1
 48
1.0
171
1
  6

172
1
173
1
174
1
140
1.0
141
1.0
175
1
  7

176
1
177
1
178
1
143
1.0
179
1
  8

270
1
271
1
272
1
145
1.0
146
1.0
273
1
  9

274
1
275
1
276
1
 42
1.0
 72
1
  3

 73
1
 74
1
 75
1
 94
63
  0
MLINESTYLE
  5
22
102
{ACAD_REACTORS
330
10
102
}
330
10
100
AcDbMlineStyle
  2
Standard
 70
0
  3

 62
256
 51
90.0
 52
90.0
 71
2
 49
0.5
 62
256
  6
BYLAYER
 49
-0.5
 62
256
  6
BYLAYER
  0
MLEADERSTYLE
  5
2C
102
{ACAD_REACTORS
330
F
102
}
330
F
100
AcDbMLeaderStyle
179
2
170
2
171
1
172
0
 90
2
 40
0.0
 41
0.0
173
1
 91
-1056964608
 92
-2
290
1
 42
2.0
291
1
 43
8.0
  3
Standard
 44
4.0
300

342
29
174
1
175
1
176
0
178
1
 93
-1056964608
 45
4.0
292
0
297
0
 46
4.0
 94
-1056964608
 47
1.0
 49
1.0
140
1.0
294
1
141
0.0
177
0
142
1.0
295
0
296
0
143
3.75
271
0
272
9
273
9
  0
DICTIONARY
  5
2D
330
A
100
AcDbDictionary
280
1
281
1
  3
CREATED_BY_EZDXF
350
2E
  3
WRITTEN_BY_EZDXF
350
84
  0
DICTIONARYVAR
  5
2E
330
2D
100
DictionaryVariables
280
0
  1
1.4.4 @ 2026-10-04T18:29:02.537710+00:00
  0
DICTIONARYVAR
  5
84
330
2D
100
DictionaryVariables
280
0
  1
1.4.4 @ 2026-10-04T18:29:02.540570+00:00
  0
ENDSEC
  0
EOF
