  0
SECTION
  2
HEADER
  9
$ACADVER
  1
AC1024
  9
$ACADMAINTVER
 70
6
  9
$DWGCODEPAGE
  3
ANSI_1252
  9
$LASTSAVEDBY
  1
ezdxf
  9
$INSBASE
 10
0.0
 20
0.0
 30
0.0
  9
$EXTMIN
 10
1e+20
 20
1e+20
 30
1e+20
  9
$EXTMAX
 10
-1e+20
 20
-1e+20
 30
-1e+20
  9
$LIMMIN
 10
0.0
 20
0.0
  9
$LIMMAX
 10
420.0
 20
297.0
  9
$ORTHOMODE
 70
0
  9
$REGENMODE
 70
1
  9
$FILLMODE
 70
1
  9
$QTEXTMODE
 70
0
  9
$MIRRTEXT
 70
1
  9
$LTSCALE
 40
1.0
  9
$ATTMODE
 70
1
  9
$TEXTSIZE
 40
2.5
  9
$TRACEWID
 40
1.0
  9
$TEXTSTYLE
  7
Standard
  9
$CLAYER
  8
0
  9
$CELTYPE
  6
ByLayer
  9
$CECOLOR
 62
256
  9
$CELTSCALE
 40
1.0
  9
$DISPSILH
 70
0
  9
$DIMSCALE
 40
1.0
  9
$DIMASZ
 40
2.5
  9
$DIMEXO
 40
0.625
  9
$DIMDLI
 40
3.75
  9
$DIMRND
 40
0.0
  9
$DIMDLE
 40
0.0
  9
$DIMEXE
 40
1.25
  9
$DIMTP
 40
0.0
  9
$DIMTM
 40
0.0
  9
$DIMTXT
 40
2.5
  9
$DIMCEN
 40
2.5
  9
$DIMTSZ
 40
0.0
  9
$DIMTOL
 70
0
  9
$DIMLIM
 70
0
  9
$DIMTIH
 70
0
  9
$DIMTOH
 70
0
  9
$DIMSE1
 70
0
  9
$DIMSE2
 70
0
  9
$DIMTAD
 70
1
  9
$DIMZIN
 70
8
  9
$DIMBLK
  1

  9
$DIMASO
 70
1
  9
$DIMSHO
 70
1
  9
$DIMPOST
  1

  9
$DIMAPOST
  1

  9
$DIMALT
 70
0
  9
$DIMALTD
 70
3
  9
$DIMALTF
 40
0.03937007874
  9
$DIMLFAC
 40
1.0
  9
$DIMTOFL
 70
1
  9
$DIMTVP
 40
0.0
  9
$DIMTIX
 70
0
  9
$DIMSOXD
 70
0
  9
$DIMSAH
 70
0
  9
$DIMBLK1
  1

  9
$DIMBLK2
  1

  9
$DIMSTYLE
  2
ISO-25
  9
$DIMCLRD
 70
0
  9
$DIMCLRE
 70
0
  9
$DIMCLRT
 70
0
  9
$DIMTFAC
 40
1.0
  9
$DIMGAP
 40
0.625
  9
$DIMJUST
 70
0
  9
$DIMSD1
 70
0
  9
$DIMSD2
 70
0
  9
$DIMTOLJ
 70
0
  9
$DIMTZIN
 70
8
  9
$DIMALTZ
 70
0
  9
$DIMALTTZ
 70
0
  9
$DIMUPT
 70
0
  9
$DIMDEC
 70
2
  9
$DIMTDEC
 70
2
  9
$DIMALTU
 70
2
  9
$DIMALTTD
 70
3
  9
$DIMTXSTY
  7
Standard
  9
$DIMAUNIT
 70
0
  9
$DIMADEC
 70
0
  9
$DIMALTRND
 40
0.0
  9
$DIMAZIN
 70
0
  9
$DIMDSEP
 70
44
  9
$DIMATFIT
 70
3
  9
$DIMFRAC
 70
0
  9
$DIMLDRBLK
  1

  9
$DIMLUNIT
 70
2
  9
$DIMLWD
 70
-2
  9
$DIMLWE
 70
-2
  9
$DIMTMOVE
 70
0
  9
$DIMFXL
 40
1.0
  9
$DIMFXLON
 70
0
  9
$DIMJOGANG
 40
0.785398163397
  9
$DIMTFILL
 70
0
  9
$DIMTFILLCLR
 70
0
  9
$DIMARCSYM
 70
0
  9
$DIMLTYPE
  6

  9
$DIMLTEX1
  6

  9
$DIMLTEX2
  6

  9
$DIMTXTDIRECTION
 70
0
  9
$LUNITS
 70
2
  9
$LUPREC
 70
4
  9
$SKETCHINC
 40
1.0
  9
$FILLETRAD
 40
10.0
  9
$AUNITS
 70
0
  9
$AUPREC
 70
2
  9
$MENU
  1
.
  9
$ELEVATION
 40
0.0
  9
$PELEVATION
 40
0.0
  9
$THICKNESS
 40
0.0
  9
$LIMCHECK
 70
0
  9
$CHAMFERA
 40
0.0
  9
$CHAMFERB
 40
0.0
  9
$CHAMFERC
 40
0.0
  9
$CHAMFERD
 40
0.0
  9
$SKPOLY
 70
0
  9
$TDCREATE
 40
2461318.7701273146
  9
$TDUCREATE
 40
2458532.153996898
  9
$TDUPDATE
 40
2461318.7701273146
  9
$TDUUPDATE
 40
2458532.1544311
  9
$TDINDWG
 40
0.0
  9
$TDUSRTIMER
 40
0.0
  9
$USRTIMER
 70
1
  9
$ANGBASE
 50
0.0
  9
$ANGDIR
 70
0
  9
$PDMODE
 70
0
  9
$PDSIZE
 40
0.0
  9
$PLINEWID
 40
0.0
  9
$SPLFRAME
 70
0
  9
$SPLINETYPE
 70
6
  9
$SPLINESEGS
 70
8
  9
$HANDSEED
  5
77
  9
$SURFTAB1
 70
6
  9
$SURFTAB2
 70
6
  9
$SURFTYPE
 70
6
  9
$SURFU
 70
6
  9
$SURFV
 70
6
  9
$UCSBASE
  2

  9
$UCSNAME
  2

  9
$UCSORG
 10
0.0
 20
0.0
 30
0.0
  9
$UCSXDIR
 10
1.0
 20
0.0
 30
0.0
  9
$UCSYDIR
 10
0.0
 20
1.0
 30
0.0
  9
$UCSORTHOREF
  2

  9
$UCSORTHOVIEW
 70
0
  9
$UCSORGTOP
 10
0.0
 20
0.0
 30
0.0
  9
$UCSORGBOTTOM
 10
0.0
 20
0.0
 30
0.0
  9
$UCSORGLEFT
 10
0.0
 20
0.0
 30
0.0
  9
$UCSORGRIGHT
 10
0.0
 20
0.0
 30
0.0
  9
$UCSORGFRONT
 10
0.0
 20
0.0
 30
0.0
  9
$UCSORGBACK
 10
0.0
 20
0.0
 30
0.0
  9
$PUCSBASE
  2

  9
$PUCSNAME
  2

  9
$PUCSORG
 10
0.0
 20
0.0
 30
0.0
  9
$PUCSXDIR
 10
1.0
 20
0.0
 30
0.0
  9
$PUCSYDIR
 10
0.0
 20
1.0
 30
0.0
  9
$PUCSORTHOREF
  2

  9
$PUCSORTHOVIEW
 70
0
  9
$PUCSORGTOP
 10
0.0
 20
0.0
 30
0.0
  9
$PUCSORGBOTTOM
 10
0.0
 20
0.0
 30
0.0
  9
$PUCSORGLEFT
 10
0.0
 20
0.0
 30
0.0
  9
$PUCSORGRIGHT
 10
0.0
 20
0.0
 30
0.0
  9
$PUCSORGFRONT
 10
0.0
 20
0.0
 30
0.0
  9
$PUCSORGBACK
 10
0.0
 20
0.0
 30
0.0
  9
$USERI1
 70
0
  9
$USERI2
 70
0
  9
$USERI3
 70
0
  9
$USERI4
 70
0
  9
$USERI5
 70
0
  9
$USERR1
 40
0.0
  9
$USERR2
 40
0.0
  9
$USERR3
 40
0.0
  9
$USERR4
 40
0.0
  9
$USERR5
 40
0.0
  9
$WORLDVIEW
 70
1
  9
$SHADEDGE
 70
3
  9
$SHADEDIF
 70
70
  9
$TILEMODE
 70
1
  9
$MAXACTVP
 70
64
  9
$PINSBASE
 10
0.0
 20
0.0
 30
0.0
  9
$PLIMCHECK
 70
0
  9
$PEXTMIN
 10
1e+20
 20
1e+20
 30
1e+20
  9
$PEXTMAX
 10
-1e+20
 20
-1e+20
 30
-1e+20
  9
$PLIMMIN
 10
0.0
 20
0.0
  9
$PLIMMAX
 10
420.0
 20
297.0
  9
$UNITMODE
 70
0
  9
$VISRETAIN
 70
1
  9
$PLINEGEN
 70
0
  9
$PSLTSCALE
 70
1
  9
$TREEDEPTH
 70
3020
  9
$CMLSTYLE
  2
Standard
  9
$CMLJUST
 70
0
  9
$CMLSCALE
 40
20.0
  9
$PROXYGRAPHICS
 70
1
  9
$MEASUREMENT
 70
1
  9
$CELWEIGHT
370
-1
  9
$ENDCAPS
280
0
  9
$JOINSTYLE
280
0
  9
$LWDISPLAY
290
0
  9
$INSUNITS
 70
4
  9
$HYPERLINKBASE
  1

  9
$STYLESHEET
  1

  9
$XEDIT
290
1
  9
$CEPSNTYPE
380
0
  9
$PSTYLEMODE
290
1
  9
$FINGERPRINTGUID
  2
{AD6A8D50-5D48-4B14-B6D1-EA4CA7129E66}
  9
$VERSIONGUID
  2
{F8330B2C-C1AC-4F45-8597-A6258EC2C2CA}
  9
$EXTNAMES
290
1
  9
$PSVPSCALE
 40
0.0
  9
$OLESTARTUP
290
0
  9
$SORTENTS
280
127
  9
$INDEXCTL
280
0
  9
$HIDETEXT
280
1
  9
$XCLIPFRAME
280
1
  9
$HALOGAP
280
0
  9
$OBSCOLOR
 70
257
  9
$OBSLTYPE
280
0
  9
$INTERSECTIONDISPLAY
280
0
  9
$INTERSECTIONCOLOR
 70
257
  9
$DIMASSOC
280
2
  9
$PROJECTNAME
  1

  9
$CAMERADISPLAY
290
0
  9
$LENSLENGTH
 40
50.0
  9
$CAMERAHEIGHT
 40
0.0
  9
$STEPSPERSEC
 40
24.0
  9
$STEPSIZE
 40
100.0
  9
$3DDWFPREC
 40
2.0
  9
$PSOLWIDTH
 40
0.005
  9
$PSOLHEIGHT
 40
0.08
  9
$LOFTANG1
 40
1.570796326795
  9
$LOFTANG2
 40
1.570796326795
  9
$LOFTMAG1
 40
0.0
  9
$LOFTMAG2
 40
0.0
  9
$LOFTPARAM
 70
7
  9
$LOFTNORMALS
280
1
  9
$LATITUDE
 40
37.795
  9
$LONGITUDE
 40
-122.394
  9
$NORTHDIRECTION
 40
0.0
  9
$TIMEZONE
 70
-8000
  9
$LIGHTGLYPHDISPLAY
280
1
  9
$TILEMODELIGHTSYNCH
280
1
  9
$CMATERIAL
347
20
  9
$SOLIDHIST
280
0
  9
$SHOWHIST
280
1
  9
$DWFFRAME
280
2
  9
$DGNFRAME
280
2
  9
$REALWORLDSCALE
290
1
  9
$INTERFERECOLOR
 62
256
  9
$CSHADOW
280
0
  9
$SHADOWPLANELOCATION
 40
0.0
  0
ENDSEC
  0
SECTION
  2
CLASSES
  0
CLASS
  1
ACDBDICTIONARYWDFLT
  2
AcDbDictionaryWithDefault
  3
ObjectDBX Classes
 90
0
 91
0
280
0
281
0
  0
CLASS
  1
SUN
  2
AcDbSun
  3
SCENEOE
 90
1153
 91
0
280
0
281
0
  0
CLASS
  1
VISUALSTYLE
  2
AcDbVisualStyle
  3
ObjectDBX Classes
 90
4095
 91
0
280
0
281
0
  0
CLASS
  1
MATERIAL
  2
AcDbMaterial
  3
ObjectDBX Classes
 90
1153
 91
0
280
0
281
0
  0
CLASS
  1
SCALE
  2
AcDbScale
  3
ObjectDBX Classes
 90
1153
 91
0
280
0
281
0
  0
CLASS
  1
TABLESTYLE
  2
AcDbTableStyle
  3
ObjectDBX Classes
 90
4095
 91
0
280
0
281
0
  0
CLASS
  1
MLEADERSTYLE
  2
AcDbMLeaderStyle
  3
ACDB_MLEADERSTYLE_CLASS
 90
4095
 91
0
280
0
281
0
  0
CLASS
  1
DICTIONARYVAR
  2
AcDbDictionaryVar
  3
ObjectDBX Classes
 90
0
 91
0
280
0
281
0
  0
CLASS
  1
CELLSTYLEMAP
  2
AcDbCellStyleMap
  3
ObjectDBX Classes
 90
1152
 91
0
280
0
281
0
  0
CLASS
  1
MENTALRAYRENDERSETTINGS
  2
AcDbMentalRayRenderSettings
  3
SCENEOE
 90
1024
 91
0
280
0
281
0
  0
CLASS
  1
ACDBDETAILVIEWSTYLE
  2
AcDbDetailViewStyle
  3
ObjectDBX Classes
 90
1025
 91
0
280
0
281
0
  0
CLASS
  1
ACDBSECTIONVIEWSTYLE
  2
AcDbSectionViewStyle
  3
ObjectDBX Classes
 90
1025
 91
0
280
0
281
0
  0
CLASS
  1
RASTERVARIABLES
  2
AcDbRasterVariables
  3
ISM
 90
0
 91
0
280
0
281
0
  0
CLASS
  1
LAYOUT
  2
AcDbLayout
  3
ObjectDBX Classes
 90
0
 91
0
280
0
281
0
  0
CLASS
  1
ACDBPLACEHOLDER
  2
AcDbPlaceHolder
  3
ObjectDBX Classes
 90
0
 91
0
280
0
281
0
  0
ENDSEC
  0
SECTION
  2
TABLES
  0
TABLE
  2
VPORT
  5
8
330
0
100
AcDbSymbolTable
 70
1
  0
VPORT
  5
23
330
8
100
AcDbSymbolTableRecord
100
AcDbViewportTableRecord
  2
*Active
 70
0
 10
0.0
 20
0.0
 11
1.0
 21
1.0
 12
0.0
 22
0.0
 13
0.0
 23
0.0
 14
0.5
 24
0.5
 15
0.5
 25
0.5
 16
0.0
 26
0.0
 36
1.0
 17
0.0
 27
0.0
 37
0.0
 40
1000.0
 41
1.34
 42
50.0
 43
0.0
 44
0.0
 50
0.0
 51
0.0
 71
0
 72
1000
 73
1
 74
3
 75
0
 76
0
 77
0
 78
0
281
0
 65
0
146
0.0
  0
ENDTAB
  0
TABLE
  2
LTYPE
  5
2
330
0
100
AcDbSymbolTable
 70
3
  0
LTYPE
  5
24
330
2
100
AcDbSymbolTableRecord
100
AcDbLinetypeTableRecord
  2
ByBlock
 70
0
  3

 72
65
 73
0
 40
0.0
  0
LTYPE
  5
25
330
2
100
AcDbSymbolTableRecord
100
AcDbLinetypeTableRecord
  2
ByLayer
 70
0
  3

 72
65
 73
0
 40
0.0
  0
LTYPE
  5
26
330
2
100
AcDbSymbolTableRecord
100
AcDbLinetypeTableRecord
  2
Continuous
 70
0
  3

 72
65
 73
0
 40
0.0
  0
ENDTAB
  0
TABLE
  2
LAYER
  5
1
330
0
100
AcDbSymbolTable
 70
8
  0
LAYER
  5
27
330
1
100
AcDbSymbolTableRecord
100
AcDbLayerTableRecord
  2
0
 70
0
 62
7
  6
Continuous
370
-3
390
13
347
21
  0
LAYER
  5
28
330
1
100
AcDbSymbolTableRecord
100
AcDbLayerTableRecord
  2
Defpoints
 70
0
 62
7
  6
Continuous
290
0
370
-3
390
13
347
21
  0
LAYER
  5
2F
330
1
100
AcDbSymbolTableRecord
100
AcDbLayerTableRecord
  2
CUT
 70
0
 62
1
  6
Continuous
370
-3
390
13
347
21
  0
LAYER
  5
30
330
1
100
AcDbSymbolTableRecord
100
AcDbLayerTableRecord
  2
SEW
 70
0
 62
5
  6
Continuous
370
-3
390
13
347
21
  0
LAYER
  5
31
330
1
100
AcDbSymbolTableRecord
100
AcDbLayerTableRecord
  2
GRAIN
 70
0
 62
3
  6
Continuous
370
-3
390
13
347
21
  0
LAYER
  5
32
330
1
100
AcDbSymbolTableRecord
100
AcDbLayerTableRecord
  2
NOTCH
 70
0
 62
2
  6
Continuous
370
-3
390
13
347
21
  0
LAYER
  5
33
330
1
100
AcDbSymbolTableRecord
100
AcDbLayerTableRecord
  2
LABEL
 70
0
 62
7
  6
Continuous
370
-3
390
13
347
21
  0
LAYER
  5
34
330
1
100
AcDbSymbolTableRecord
100
AcDbLayerTableRecord
  2
ATTACHMENT
 70
0
 62
4
  6
Continuous
370
-3
390
13
347
21
  0
ENDTAB
  0
TABLE
  2
STYLE
  5
5
330
0
100
AcDbSymbolTable
 70
1
  0
STYLE
  5
29
330
5
100
AcDbSymbolTableRecord
100
AcDbTextStyleTableRecord
  2
Standard
 70
0
 40
0.0
 41
1.0
 50
0.0
 71
0
 42
2.5
  3
txt
  4

  0
ENDTAB
  0
TABLE
  2
VIEW
  5
7
330
0
100
AcDbSymbolTable
 70
0
  0
ENDTAB
  0
TABLE
  2
UCS
  5
6
330
0
100
AcDbSymbolTable
 70
0
  0
ENDTAB
  0
TABLE
  2
APPID
  5
3
330
0
100
AcDbSymbolTable
 70
3
  0
APPID
  5
2A
330
3
100
AcDbSymbolTableRecord
100
AcDbRegAppTableRecord
  2
ACAD
 70
0
  0
APPID
  5
74
330
3
100
AcDbSymbolTableRecord
100
AcDbRegAppTableRecord
  2
HATCHBACKGROUNDCOLOR
 70
0
  0
APPID
  5
75
330
3
100
AcDbSymbolTableRecord
100
AcDbRegAppTableRecord
  2
EZDXF
 70
0
  0
ENDTAB
  0
TABLE
  2
DIMSTYLE
  5
4
330
0
100
AcDbSymbolTable
 70
1
100
AcDbDimStyleTable
  0
DIMSTYLE
105
2B
330
4
100
AcDbSymbolTableRecord
100
AcDbDimStyleTableRecord
  2
Standard
 70
0
 40
1.0
 41
2.5
 42
0.625
 43
3.75
 44
1.25
 45
0.0
 46
0.0
 47
0.0
 48
0.0
 49
2.5
140
2.5
141
2.5
142
0.0
143
0.03937007874
144
1.0
145
0.0
146
1.0
147
0.625
148
0.0
 69
0
 70
0
 71
0
 72
0
 73
0
 74
0
 75
0
 76
0
 77
1
 78
8
 79
3
170
0
171
3
172
1
173
0
174
0
175
0
176
0
177
0
178
0
179
2
271
2
272
2
273
2
274
3
275
0
276
0
277
2
278
44
279
0
280
0
281
0
282
0
283
0
284
8
285
0
286
0
288
0
289
3
290
0
371
-2
372
-2
  0
ENDTAB
  0
TABLE
  2
BLOCK_RECORD
  5
9
330
0
100
AcDbSymbolTable
 70
2
  0
BLOCK_RECORD
  5
17
330
9
100
AcDbSymbolTableRecord
100
AcDbBlockTableRecord
  2
*Model_Space
340
1A
 70
0
280
1
281
0
  0
BLOCK_RECORD
  5
1B
330
9
100
AcDbSymbolTableRecord
100
AcDbBlockTableRecord
  2
*Paper_Space
340
1E
 70
0
280
1
281
0
  0
ENDTAB
  0
ENDSEC
  0
SECTION
  2
BLOCKS
  0
BLOCK
  5
18
330
17
100
AcDbEntity
  8
0
100
AcDbBlockBegin
  2
*Model_Space
 70
0
 10
0.0
 20
0.0
 30
0.0
  3
*Model_Space
  1

  0
ENDBLK
  5
19
330
17
100
AcDbEntity
  8
0
100
AcDbBlockEnd
  0
BLOCK
  5
1C
330
1B
100
AcDbEntity
  8
0
100
AcDbBlockBegin
  2
*Paper_Space
 70
0
 10
0.0
 20
0.0
 30
0.0
  3
*Paper_Space
  1

  0
ENDBLK
  5
1D
330
1B
100
AcDbEntity
  8
0
100
AcDbBlockEnd
  0
ENDSEC
  0
SECTION
  2
ENTITIES
  0
LWPOLYLINE
  5
35
330
17
100
AcDbEntity
  8
CUT
100
AcDbPolyline
 90
61
 70
1
 10
-14.976974582828293
 20
8.375969666467133
 10
48.819609722408124
 20
25.65465924511664
 10
101.2478370686043
 20
38.64872432498231
 10
154.07886741374745
 20
50.0975120420438
 10
206.99473976801616
 20
60.661850759059334
 10
259.8023177700541
 20
71.0658663397872
 10
312.46631939933076
 20
81.91525653221706
 10
365.23561388674256
 20
92.7325186805131
 10
418.0963154625482
 20
103.31834623498882
 10
471.0536184201857
 20
113.62336823439983
 10
524.1229599017092
 20
123.60143146728437
 10
577.3153488672637
 20
133.20745667956035
 10
630.6344755440073
 20
142.4441094048802
 10
684.1248667318798
 20
151.2357328505162
 10
737.8695918187228
 20
159.36700095719002
 10
791.9376682804822
 20
166.61480450287192
 10
846.4013924711032
 20
172.75734685605664
 10
901.3922818898982
 20
177.54922967654818
 10
957.1872458328486
 20
180.28853593107786
 10
1013.9668063057709
 20
180.36154180146093
 10
1071.884070406409
 20
177.30118698007104
 10
1131.242341924849
 20
170.62863282675474
 10
1193.0911916429932
 20
158.35594497920115
 10
1259.6511426065279
 20
134.94575734818
 10
1333.2889635404056
 20
95.6204834558138
 10
1440.6597854815695
 20
6.541666746897697
 10
1442.807418631285
 20
-3.940068497963707
 10
1443.0786379217725
 20
-9.440533344794868
 10
1443.2357450220354
 20
-13.750923524197432
 10
1443.4623853713285
 20
-16.884102510370276
 10
1452.526553529018
 20
-45.706690396202205
 10
1339.363180661822
 20
4.198256615489638
 10
1276.9478225904008
 20
20.716766450999383
 10
1218.6678020306995
 20
28.389828149609215
 10
1162.6709465029853
 20
29.745958940398687
 10
1107.4844342974638
 20
27.947274192501872
 10
1052.9235793293278
 20
24.062549361844635
 10
998.955556687733
 20
18.31855160667107
 10
945.4557795454322
 20
10.957994408675834
 10
892.2712605006435
 20
2.3261000345153495
 10
839.2774169194006
 20
-7.129784315121774
 10
786.4639569416626
 20
-17.27037546198987
 10
733.7896965322407
 20
-27.969050538312533
 10
681.2122175582513
 20
-39.0935487738862
 10
628.7030806957287
 20
-50.506025245550326
 10
576.2728096272817
 20
-62.18319280772113
 10
523.9227912262204
 20
-74.13809216632652
 10
471.6358313048146
 20
-86.33382398001636
 10
419.40098541775194
 20
-98.73339848213844
 10
367.1983385422146
 20
-111.30320582858184
 10
314.9641626735806
 20
-123.93332599165204
 10
262.66793903012217
 20
-136.31792995660487
 10
210.50462723233005
 20
-148.81294820463452
 10
158.61467973096643
 20
-161.86583360170732
 10
107.05265072832286
 20
-175.93464011174814
 10
44.1170154926319
 20
-194.19104945065325
 10
28.68552304082194
 20
-141.45478340333915
 10
17.572129669170245
 20
-103.32273862198554
 10
7.453981656175002
 20
-68.41867329284875
 10
-1.881416248902549
 20
-36.082282439509804
 10
-14.976974582828293
 20
8.375969666467133
  0
LWPOLYLINE
  5
36
330
17
100
AcDbEntity
  8
SEW
100
AcDbPolyline
 90
60
 70
1
 10
0.0
 20
0.0
 10
51.831887830801634
 20
14.038166930988695
 10
103.96256612349943
 20
26.958486016352595
 10
156.52445274135636
 20
38.34894874185235
 10
209.3292359964772
 20
48.891109181935974
 10
262.1728172743755
 20
59.302218037098704
 10
314.8876106420018
 20
70.1620719119465
 10
367.6186814359503
 20
80.97149266194467
 10
420.4205447156999
 20
91.54553732218932
 10
473.3083810354071
 20
101.83704172927374
 10
526.2979708862562
 20
111.80011011218313
 10
579.4058155309033
 20
121.39086744696792
 10
632.6317569970547
 20
130.61137738295452
 10
685.995591521169
 20
139.382200110787
 10
739.5644312017724
 20
147.48685776607468
 10
793.4074271968165
 20
154.70448936721039
 10
847.5948789513184
 20
160.81587308838638
 10
902.2076590175101
 20
165.57480761998576
 10
957.4893540757572
 20
168.28891445566538
 10
1013.6576960296296
 20
168.36113443514674
 10
1070.8963599699975
 20
165.33663692339547
 10
1129.4010394656596
 20
158.76003635584112
 10
1189.916579062087
 20
146.75191767978194
 10
1254.8059216516074
 20
123.92930944038412
 10
1326.5631033188515
 20
85.60836529752953
 10
1429.750829499268
 20
8.745809905345047e-14
 10
1430.8672272912254
 20
-5.448689449031153
 10
1431.0894062640934
 20
-9.954591768031003
 10
1431.251527880056
 20
-14.40256019304258
 10
1431.5947492041778
 20
-19.14740745302012
 10
1433.1331026030875
 20
-24.03912230960415
 10
1343.3436444425297
 20
15.557949058795387
 10
1279.2755866215132
 20
32.51385343809027
 10
1219.5989069773448
 20
40.3707972153974
 10
1162.6207180944407
 20
41.75069391887001
 10
1106.8626303276583
 20
39.933379904450945
 10
1051.8621212221856
 20
36.01735176402682
 10
997.5024180028784
 20
30.231666130569003
 10
943.6765090800642
 20
22.826239369506858
 10
890.2559541196742
 20
14.156036157952116
 10
837.0919880233243
 20
4.66979622888517
 10
784.1382353592288
 20
-5.497732194462185
 10
731.35337932584
 20
-16.218870360660024
 10
678.6958913278485
 20
-27.36029714175756
 10
626.1244083639551
 20
-38.786324082111676
 10
573.6326409054061
 20
-50.47718800016729
 10
521.2240822864082
 20
-62.44545588155906
 10
468.88714770616855
 20
-74.6528440917488
 10
416.61061220727623
 20
-87.06231492722974
 10
364.3835999311131
 20
-99.6379891867535
 10
312.1713404005184
 20
-112.2628100227382
 10
259.887597673519
 20
-124.64445830185566
 10
207.64315746820117
 20
-137.15890976640344
 10
155.57130322822425
 20
-150.25755369526146
 10
103.80149146543926
 20
-164.3830541621751
 10
52.27186027506009
 20
-179.33080254941748
 10
40.20439734017214
 20
-138.09092002750947
 10
29.095231582696982
 20
-99.97338094821345
 10
18.98131890066391
 20
-65.0839260268711
 10
9.638754367981587
 20
-32.7227110713691
  0
LINE
  5
37
330
17
100
AcDbEntity
  8
GRAIN
100
AcDbLine
 10
352.93906338447005
 20
-5.473210821746669
 30
0.0
 11
432.93906338447005
 21
-5.473210821746669
 31
0.0
  0
LINE
  5
38
330
17
100
AcDbEntity
  8
GRAIN
100
AcDbLine
 10
432.93906338447005
 20
-5.473210821746669
 30
0.0
 11
427.93906338447005
 21
-2.473210821746669
 31
0.0
  0
TEXT
  5
39
330
17
100
AcDbEntity
  8
LABEL
100
AcDbText
 10
392.93906338447005
 20
-5.473210821746669
 30
0.0
 40
6.0
  1
O08_SMOOTH_LOWER_O2_B
100
AcDbText
  0
CIRCLE
  5
3A
330
17
100
AcDbEntity
  8
NOTCH
100
AcDbCircle
 10
1432.3639259036327
 20
-21.593264881312134
 30
0.0
 40
1.0
  0
TEXT
  5
3B
330
17
100
AcDbEntity
  8
LABEL
100
AcDbText
 10
1434.3639259036327
 20
-19.593264881312134
 30
0.0
 40
3.0
  1
J1059
100
AcDbText
  0
CIRCLE
  5
3C
330
17
100
AcDbEntity
  8
NOTCH
100
AcDbCircle
 10
25.915943915400817
 20
7.019083465494347
 30
0.0
 40
1.0
  0
TEXT
  5
3D
330
17
100
AcDbEntity
  8
LABEL
100
AcDbText
 10
27.915943915400817
 20
9.019083465494347
 30
0.0
 40
3.0
  1
J1181
100
AcDbText
  0
CIRCLE
  5
3E
330
17
100
AcDbEntity
  8
NOTCH
100
AcDbCircle
 10
130.24350943242789
 20
32.653717379102474
 30
0.0
 40
1.0
  0
TEXT
  5
3F
330
17
100
AcDbEntity
  8
LABEL
100
AcDbText
 10
132.24350943242789
 20
34.653717379102474
 30
0.0
 40
3.0
  1
J1181
100
AcDbText
  0
CIRCLE
  5
40
330
17
100
AcDbEntity
  8
NOTCH
100
AcDbCircle
 10
235.75102663542634
 20
54.096663609517336
 30
0.0
 40
1.0
  0
TEXT
  5
41
330
17
100
AcDbEntity
  8
LABEL
100
AcDbText
 10
237.75102663542634
 20
56.096663609517336
 30
0.0
 40
3.0
  1
J1181
100
AcDbText
  0
CIRCLE
  5
42
330
17
100
AcDbEntity
  8
NOTCH
100
AcDbCircle
 10
341.25314603897607
 20
75.56678228694558
 30
0.0
 40
1.0
  0
TEXT
  5
43
330
17
100
AcDbEntity
  8
LABEL
100
AcDbText
 10
343.25314603897607
 20
77.56678228694558
 30
0.0
 40
3.0
  1
J1181
100
AcDbText
  0
CIRCLE
  5
44
330
17
100
AcDbEntity
  8
NOTCH
100
AcDbCircle
 10
446.8644628755535
 20
96.69128952573152
 30
0.0
 40
1.0
  0
TEXT
  5
45
330
17
100
AcDbEntity
  8
LABEL
100
AcDbText
 10
448.8644628755535
 20
98.69128952573152
 30
0.0
 40
3.0
  1
J1181
100
AcDbText
  0
CIRCLE
  5
46
330
17
100
AcDbEntity
  8
NOTCH
100
AcDbCircle
 10
552.8518932085797
 20
116.59548877957553
 30
0.0
 40
1.0
  0
TEXT
  5
47
330
17
100
AcDbEntity
  8
LABEL
100
AcDbText
 10
554.8518932085797
 20
118.59548877957553
 30
0.0
 40
3.0
  1
J1181
100
AcDbText
  0
CIRCLE
  5
48
330
17
100
AcDbEntity
  8
NOTCH
100
AcDbCircle
 10
659.3136742591118
 20
134.99678874687078
 30
0.0
 40
1.0
  0
TEXT
  5
49
330
17
100
AcDbEntity
  8
LABEL
100
AcDbText
 10
661.3136742591118
 20
136.99678874687078
 30
0.0
 40
3.0
  1
J1181
100
AcDbText
  0
CIRCLE
  5
4A
330
17
100
AcDbEntity
  8
NOTCH
100
AcDbCircle
 10
766.4859291992944
 20
151.09567356664252
 30
0.0
 40
1.0
  0
TEXT
  5
4B
330
17
100
AcDbEntity
  8
LABEL
100
AcDbText
 10
768.4859291992944
 20
153.09567356664252
 30
0.0
 40
3.0
  1
J1181
100
AcDbText
  0
CIRCLE
  5
4C
330
17
100
AcDbEntity
  8
NOTCH
100
AcDbCircle
 10
874.9012689844142
 20
163.19534035418607
 30
0.0
 40
1.0
  0
TEXT
  5
4D
330
17
100
AcDbEntity
  8
LABEL
100
AcDbText
 10
876.9012689844142
 20
165.19534035418607
 30
0.0
 40
3.0
  1
J1181
100
AcDbText
  0
CIRCLE
  5
4E
330
17
100
AcDbEntity
  8
NOTCH
100
AcDbCircle
 10
985.5735250526934
 20
168.32502444540606
 30
0.0
 40
1.0
  0
TEXT
  5
4F
330
17
100
AcDbEntity
  8
LABEL
100
AcDbText
 10
987.5735250526934
 20
170.32502444540606
 30
0.0
 40
3.0
  1
J1181
100
AcDbText
  0
CIRCLE
  5
50
330
17
100
AcDbEntity
  8
NOTCH
100
AcDbCircle
 10
1100.1486997178285
 20
162.0483366396183
 30
0.0
 40
1.0
  0
TEXT
  5
51
330
17
100
AcDbEntity
  8
LABEL
100
AcDbText
 10
1102.1486997178285
 20
164.0483366396183
 30
0.0
 40
3.0
  1
J1181
100
AcDbText
  0
CIRCLE
  5
52
330
17
100
AcDbEntity
  8
NOTCH
100
AcDbCircle
 10
1222.3612503568472
 20
135.34061356008303
 30
0.0
 40
1.0
  0
TEXT
  5
53
330
17
100
AcDbEntity
  8
LABEL
100
AcDbText
 10
1224.3612503568472
 20
137.34061356008303
 30
0.0
 40
3.0
  1
J1181
100
AcDbText
  0
CIRCLE
  5
54
330
17
100
AcDbEntity
  8
NOTCH
100
AcDbCircle
 10
1378.1569664090598
 20
42.80418264876481
 30
0.0
 40
1.0
  0
TEXT
  5
55
330
17
100
AcDbEntity
  8
LABEL
100
AcDbText
 10
1380.1569664090598
 20
44.80418264876481
 30
0.0
 40
3.0
  1
J1181
100
AcDbText
  0
CIRCLE
  5
56
330
17
100
AcDbEntity
  8
NOTCH
100
AcDbCircle
 10
46.23812880761612
 20
-158.7108612884635
 30
0.0
 40
1.0
  0
TEXT
  5
57
330
17
100
AcDbEntity
  8
LABEL
100
AcDbText
 10
48.23812880761612
 20
-156.7108612884635
 30
0.0
 40
3.0
  1
J1191
100
AcDbText
  0
CIRCLE
  5
58
330
17
100
AcDbEntity
  8
NOTCH
100
AcDbCircle
 10
24.038275241680445
 20
-82.52865348754227
 30
0.0
 40
1.0
  0
TEXT
  5
59
330
17
100
AcDbEntity
  8
LABEL
100
AcDbText
 10
26.038275241680445
 20
-80.52865348754227
 30
0.0
 40
3.0
  1
J1191
100
AcDbText
  0
CIRCLE
  5
5A
330
17
100
AcDbEntity
  8
NOTCH
100
AcDbCircle
 10
78.03667587024967
 20
-171.8569283557963
 30
0.0
 40
1.0
  0
TEXT
  5
5B
330
17
100
AcDbEntity
  8
LABEL
100
AcDbText
 10
80.03667587024967
 20
-169.8569283557963
 30
0.0
 40
3.0
  1
J1193
100
AcDbText
  0
CIRCLE
  5
5C
330
17
100
AcDbEntity
  8
NOTCH
100
AcDbCircle
 10
181.6072303482127
 20
-143.70823173083244
 30
0.0
 40
1.0
  0
TEXT
  5
5D
330
17
100
AcDbEntity
  8
LABEL
100
AcDbText
 10
183.6072303482127
 20
-141.70823173083244
 30
0.0
 40
3.0
  1
J1193
100
AcDbText
  0
CIRCLE
  5
5E
330
17
100
AcDbEntity
  8
NOTCH
100
AcDbCircle
 10
286.02946903701866
 20
-118.45363416229694
 30
0.0
 40
1.0
  0
TEXT
  5
5F
330
17
100
AcDbEntity
  8
LABEL
100
AcDbText
 10
288.02946903701866
 20
-116.45363416229694
 30
0.0
 40
3.0
  1
J1193
100
AcDbText
  0
CIRCLE
  5
60
330
17
100
AcDbEntity
  8
NOTCH
100
AcDbCircle
 10
390.4971060691947
 20
-93.35015205699162
 30
0.0
 40
1.0
  0
TEXT
  5
61
330
17
100
AcDbEntity
  8
LABEL
100
AcDbText
 10
392.4971060691947
 20
-91.35015205699162
 30
0.0
 40
3.0
  1
J1193
100
AcDbText
  0
CIRCLE
  5
62
330
17
100
AcDbEntity
  8
NOTCH
100
AcDbCircle
 10
495.0556149962884
 20
-68.54914998665393
 30
0.0
 40
1.0
  0
TEXT
  5
63
330
17
100
AcDbEntity
  8
LABEL
100
AcDbText
 10
497.0556149962884
 20
-66.54914998665393
 30
0.0
 40
3.0
  1
J1193
100
AcDbText
  0
CIRCLE
  5
64
330
17
100
AcDbEntity
  8
NOTCH
100
AcDbCircle
 10
599.8785246346806
 20
-44.63175604113948
 30
0.0
 40
1.0
  0
TEXT
  5
65
330
17
100
AcDbEntity
  8
LABEL
100
AcDbText
 10
601.8785246346806
 20
-42.63175604113948
 30
0.0
 40
3.0
  1
J1193
100
AcDbText
  0
CIRCLE
  5
66
330
17
100
AcDbEntity
  8
NOTCH
100
AcDbCircle
 10
705.0246353268442
 20
-21.78958375120879
 30
0.0
 40
1.0
  0
TEXT
  5
67
330
17
100
AcDbEntity
  8
LABEL
100
AcDbText
 10
707.0246353268442
 20
-19.78958375120879
 30
0.0
 40
3.0
  1
J1193
100
AcDbText
  0
CIRCLE
  5
68
330
17
100
AcDbEntity
  8
NOTCH
100
AcDbCircle
 10
810.6151116912765
 20
-0.41396798278850744
 30
0.0
 40
1.0
  0
TEXT
  5
69
330
17
100
AcDbEntity
  8
LABEL
100
AcDbText
 10
812.6151116912765
 20
1.5860320172114926
 30
0.0
 40
3.0
  1
J1193
100
AcDbText
  0
CIRCLE
  5
6A
330
17
100
AcDbEntity
  8
NOTCH
100
AcDbCircle
 10
916.9662315998692
 20
18.491137763729487
 30
0.0
 40
1.0
  0
TEXT
  5
6B
330
17
100
AcDbEntity
  8
LABEL
100
AcDbText
 10
918.9662315998692
 20
20.491137763729487
 30
0.0
 40
3.0
  1
J1193
100
AcDbText
  0
CIRCLE
  5
6C
330
17
100
AcDbEntity
  8
NOTCH
100
AcDbCircle
 10
1024.6822696125319
 20
33.12450894729791
 30
0.0
 40
1.0
  0
TEXT
  5
6D
330
17
100
AcDbEntity
  8
LABEL
100
AcDbText
 10
1026.6822696125319
 20
35.12450894729791
 30
0.0
 40
3.0
  1
J1193
100
AcDbText
  0
CIRCLE
  5
6E
330
17
100
AcDbEntity
  8
NOTCH
100
AcDbCircle
 10
1134.7416742110495
 20
40.84203691166048
 30
0.0
 40
1.0
  0
TEXT
  5
6F
330
17
100
AcDbEntity
  8
LABEL
100
AcDbText
 10
1136.7416742110495
 20
42.84203691166048
 30
0.0
 40
3.0
  1
J1193
100
AcDbText
  0
CIRCLE
  5
70
330
17
100
AcDbEntity
  8
NOTCH
100
AcDbCircle
 10
1249.437246799429
 20
36.44232532674384
 30
0.0
 40
1.0
  0
TEXT
  5
71
330
17
100
AcDbEntity
  8
LABEL
100
AcDbText
 10
1251.437246799429
 20
38.44232532674384
 30
0.0
 40
3.0
  1
J1193
100
AcDbText
  0
CIRCLE
  5
72
330
17
100
AcDbEntity
  8
NOTCH
100
AcDbCircle
 10
1388.2383735228086
 20
-4.240586625404381
 30
0.0
 40
1.0
  0
TEXT
  5
73
330
17
100
AcDbEntity
  8
LABEL
100
AcDbText
 10
1390.2383735228086
 20
-2.240586625404381
 30
0.0
 40
3.0
  1
J1193
100
AcDbText
  0
ENDSEC
  0
SECTION
  2
OBJECTS
  0
DICTIONARY
  5
A
330
0
100
AcDbDictionary
281
1
  3
ACAD_COLOR
350
B
  3
ACAD_GROUP
350
C
  3
ACAD_LAYOUT
350
D
  3
ACAD_MATERIAL
350
E
  3
ACAD_MLEADERSTYLE
350
F
  3
ACAD_MLINESTYLE
350
10
  3
ACAD_PLOTSETTINGS
350
11
  3
ACAD_PLOTSTYLENAME
350
12
  3
ACAD_SCALELIST
350
14
  3
ACAD_TABLESTYLE
350
15
  3
ACAD_VISUALSTYLE
350
16
  3
EZDXF_META
350
2D
  0
DICTIONARY
  5
B
330
A
100
AcDbDictionary
281
1
  0
DICTIONARY
  5
C
330
A
100
AcDbDictionary
281
1
  0
DICTIONARY
  5
D
330
A
100
AcDbDictionary
281
1
  3
Model
350
1A
  3
Layout1
350
1E
  0
DICTIONARY
  5
E
330
A
100
AcDbDictionary
281
1
  3
ByBlock
350
1F
  3
ByLayer
350
20
  3
Global
350
21
  0
DICTIONARY
  5
F
330
A
100
AcDbDictionary
281
1
  3
Standard
350
2C
  0
DICTIONARY
  5
10
330
A
100
AcDbDictionary
281
1
  3
Standard
350
22
  0
DICTIONARY
  5
11
330
A
100
AcDbDictionary
281
1
  0
ACDBDICTIONARYWDFLT
  5
12
330
A
100
AcDbDictionary
281
1
  3
Normal
350
13
100
AcDbDictionaryWithDefault
340
13
  0
ACDBPLACEHOLDER
  5
13
330
12
  0
DICTIONARY
  5
14
330
A
100
AcDbDictionary
281
1
  0
DICTIONARY
  5
15
330
A
100
AcDbDictionary
281
1
  0
DICTIONARY
  5
16
330
A
100
AcDbDictionary
281
1
  0
LAYOUT
  5
1A
330
D
100
AcDbPlotSettings
  1

  4
A3
  6

 40
7.5
 41
20.0
 42
7.5
 43
20.0
 44
420.0
 45
297.0
 46
0.0
 47
0.0
 48
0.0
 49
0.0
140
0.0
141
0.0
142
1.0
143
1.0
 70
1024
 72
1
 73
0
 74
5
  7

 75
16
 76
0
 77
2
 78
300
147
1.0
148
0.0
149
0.0
100
AcDbLayout
  1
Model
 70
1
 71
0
 10
0.0
 20
0.0
 11
420.0
 21
297.0
 12
0.0
 22
0.0
 32
0.0
 14
1e+20
 24
1e+20
 34
1e+20
 15
-1e+20
 25
-1e+20
 35
-1e+20
146
0.0
 13
0.0
 23
0.0
 33
0.0
 16
1.0
 26
0.0
 36
0.0
 17
0.0
 27
1.0
 37
0.0
 76
1
330
17
  0
LAYOUT
  5
1E
330
D
100
AcDbPlotSettings
  1

  4
A3
  6

 40
7.5
 41
20.0
 42
7.5
 43
20.0
 44
420.0
 45
297.0
 46
0.0
 47
0.0
 48
0.0
 49
0.0
140
0.0
141
0.0
142
1.0
143
1.0
 70
0
 72
1
 73
0
 74
5
  7

 75
16
 76
0
 77
2
 78
300
147
1.0
148
0.0
149
0.0
100
AcDbLayout
  1
Layout1
 70
1
 71
1
 10
0.0
 20
0.0
 11
420.0
 21
297.0
 12
0.0
 22
0.0
 32
0.0
 14
1e+20
 24
1e+20
 34
1e+20
 15
-1e+20
 25
-1e+20
 35
-1e+20
146
0.0
 13
0.0
 23
0.0
 33
0.0
 16
1.0
 26
0.0
 36
0.0
 17
0.0
 27
1.0
 37
0.0
 76
1
330
1B
  0
MATERIAL
  5
1F
102
{ACAD_REACTORS
330
E
102
}
330
E
100
AcDbMaterial
  1
ByBlock
  2

 70
0
 40
1.0
 71
1
 41
1.0
 91
-1023410177
 42
1.0
 72
1
  3

 73
1
 74
1
 75
1
 44
0.5
 73
0
 45
1.0
 46
1.0
 77
1
  4

 78
1
 79
1
170
1
 48
1.0
171
1
  6

172
1
173
1
174
1
140
1.0
141
1.0
175
1
  7

176
1
177
1
178
1
143
1.0
179
1
  8

270
1
271
1
272
1
145
1.0
146
1.0
273
1
  9

274
1
275
1
276
1
 42
1.0
 72
1
  3

 73
1
 74
1
 75
1
 94
63
  0
MATERIAL
  5
20
102
{ACAD_REACTORS
330
E
102
}
330
E
100
AcDbMaterial
  1
ByLayer
  2

 70
0
 40
1.0
 71
1
 41
1.0
 91
-1023410177
 42
1.0
 72
1
  3

 73
1
 74
1
 75
1
 44
0.5
 73
0
 45
1.0
 46
1.0
 77
1
  4

 78
1
 79
1
170
1
 48
1.0
171
1
  6

172
1
173
1
174
1
140
1.0
141
1.0
175
1
  7

176
1
177
1
178
1
143
1.0
179
1
  8

270
1
271
1
272
1
145
1.0
146
1.0
273
1
  9

274
1
275
1
276
1
 42
1.0
 72
1
  3

 73
1
 74
1
 75
1
 94
63
  0
MATERIAL
  5
21
102
{ACAD_REACTORS
330
E
102
}
330
E
100
AcDbMaterial
  1
Global
  2

 70
0
 40
1.0
 71
1
 41
1.0
 91
-1023410177
 42
1.0
 72
1
  3

 73
1
 74
1
 75
1
 44
0.5
 73
0
 45
1.0
 46
1.0
 77
1
  4

 78
1
 79
1
170
1
 48
1.0
171
1
  6

172
1
173
1
174
1
140
1.0
141
1.0
175
1
  7

176
1
177
1
178
1
143
1.0
179
1
  8

270
1
271
1
272
1
145
1.0
146
1.0
273
1
  9

274
1
275
1
276
1
 42
1.0
 72
1
  3

 73
1
 74
1
 75
1
 94
63
  0
MLINESTYLE
  5
22
102
{ACAD_REACTORS
330
10
102
}
330
10
100
AcDbMlineStyle
  2
Standard
 70
0
  3

 62
256
 51
90.0
 52
90.0
 71
2
 49
0.5
 62
256
  6
BYLAYER
 49
-0.5
 62
256
  6
BYLAYER
  0
MLEADERSTYLE
  5
2C
102
{ACAD_REACTORS
330
F
102
}
330
F
100
AcDbMLeaderStyle
179
2
170
2
171
1
172
0
 90
2
 40
0.0
 41
0.0
173
1
 91
-1056964608
 92
-2
290
1
 42
2.0
291
1
 43
8.0
  3
Standard
 44
4.0
300

342
29
174
1
175
1
176
0
178
1
 93
-1056964608
 45
4.0
292
0
297
0
 46
4.0
 94
-1056964608
 47
1.0
 49
1.0
140
1.0
294
1
141
0.0
177
0
142
1.0
295
0
296
0
143
3.75
271
0
272
9
273
9
  0
DICTIONARY
  5
2D
330
A
100
AcDbDictionary
280
1
281
1
  3
CREATED_BY_EZDXF
350
2E
  3
WRITTEN_BY_EZDXF
350
76
  0
DICTIONARYVAR
  5
2E
330
2D
100
DictionaryVariables
280
0
  1
1.4.4 @ 2026-10-04T18:28:59.369894+00:00
  0
DICTIONARYVAR
  5
76
330
2D
100
DictionaryVariables
280
0
  1
1.4.4 @ 2026-10-04T18:28:59.372359+00:00
  0
ENDSEC
  0
EOF
