  0
SECTION
  2
HEADER
  9
$ACADVER
  1
AC1024
  9
$ACADMAINTVER
 70
6
  9
$DWGCODEPAGE
  3
ANSI_1252
  9
$LASTSAVEDBY
  1
ezdxf
  9
$INSBASE
 10
0.0
 20
0.0
 30
0.0
  9
$EXTMIN
 10
1e+20
 20
1e+20
 30
1e+20
  9
$EXTMAX
 10
-1e+20
 20
-1e+20
 30
-1e+20
  9
$LIMMIN
 10
0.0
 20
0.0
  9
$LIMMAX
 10
420.0
 20
297.0
  9
$ORTHOMODE
 70
0
  9
$REGENMODE
 70
1
  9
$FILLMODE
 70
1
  9
$QTEXTMODE
 70
0
  9
$MIRRTEXT
 70
1
  9
$LTSCALE
 40
1.0
  9
$ATTMODE
 70
1
  9
$TEXTSIZE
 40
2.5
  9
$TRACEWID
 40
1.0
  9
$TEXTSTYLE
  7
Standard
  9
$CLAYER
  8
0
  9
$CELTYPE
  6
ByLayer
  9
$CECOLOR
 62
256
  9
$CELTSCALE
 40
1.0
  9
$DISPSILH
 70
0
  9
$DIMSCALE
 40
1.0
  9
$DIMASZ
 40
2.5
  9
$DIMEXO
 40
0.625
  9
$DIMDLI
 40
3.75
  9
$DIMRND
 40
0.0
  9
$DIMDLE
 40
0.0
  9
$DIMEXE
 40
1.25
  9
$DIMTP
 40
0.0
  9
$DIMTM
 40
0.0
  9
$DIMTXT
 40
2.5
  9
$DIMCEN
 40
2.5
  9
$DIMTSZ
 40
0.0
  9
$DIMTOL
 70
0
  9
$DIMLIM
 70
0
  9
$DIMTIH
 70
0
  9
$DIMTOH
 70
0
  9
$DIMSE1
 70
0
  9
$DIMSE2
 70
0
  9
$DIMTAD
 70
1
  9
$DIMZIN
 70
8
  9
$DIMBLK
  1

  9
$DIMASO
 70
1
  9
$DIMSHO
 70
1
  9
$DIMPOST
  1

  9
$DIMAPOST
  1

  9
$DIMALT
 70
0
  9
$DIMALTD
 70
3
  9
$DIMALTF
 40
0.03937007874
  9
$DIMLFAC
 40
1.0
  9
$DIMTOFL
 70
1
  9
$DIMTVP
 40
0.0
  9
$DIMTIX
 70
0
  9
$DIMSOXD
 70
0
  9
$DIMSAH
 70
0
  9
$DIMBLK1
  1

  9
$DIMBLK2
  1

  9
$DIMSTYLE
  2
ISO-25
  9
$DIMCLRD
 70
0
  9
$DIMCLRE
 70
0
  9
$DIMCLRT
 70
0
  9
$DIMTFAC
 40
1.0
  9
$DIMGAP
 40
0.625
  9
$DIMJUST
 70
0
  9
$DIMSD1
 70
0
  9
$DIMSD2
 70
0
  9
$DIMTOLJ
 70
0
  9
$DIMTZIN
 70
8
  9
$DIMALTZ
 70
0
  9
$DIMALTTZ
 70
0
  9
$DIMUPT
 70
0
  9
$DIMDEC
 70
2
  9
$DIMTDEC
 70
2
  9
$DIMALTU
 70
2
  9
$DIMALTTD
 70
3
  9
$DIMTXSTY
  7
Standard
  9
$DIMAUNIT
 70
0
  9
$DIMADEC
 70
0
  9
$DIMALTRND
 40
0.0
  9
$DIMAZIN
 70
0
  9
$DIMDSEP
 70
44
  9
$DIMATFIT
 70
3
  9
$DIMFRAC
 70
0
  9
$DIMLDRBLK
  1

  9
$DIMLUNIT
 70
2
  9
$DIMLWD
 70
-2
  9
$DIMLWE
 70
-2
  9
$DIMTMOVE
 70
0
  9
$DIMFXL
 40
1.0
  9
$DIMFXLON
 70
0
  9
$DIMJOGANG
 40
0.785398163397
  9
$DIMTFILL
 70
0
  9
$DIMTFILLCLR
 70
0
  9
$DIMARCSYM
 70
0
  9
$DIMLTYPE
  6

  9
$DIMLTEX1
  6

  9
$DIMLTEX2
  6

  9
$DIMTXTDIRECTION
 70
0
  9
$LUNITS
 70
2
  9
$LUPREC
 70
4
  9
$SKETCHINC
 40
1.0
  9
$FILLETRAD
 40
10.0
  9
$AUNITS
 70
0
  9
$AUPREC
 70
2
  9
$MENU
  1
.
  9
$ELEVATION
 40
0.0
  9
$PELEVATION
 40
0.0
  9
$THICKNESS
 40
0.0
  9
$LIMCHECK
 70
0
  9
$CHAMFERA
 40
0.0
  9
$CHAMFERB
 40
0.0
  9
$CHAMFERC
 40
0.0
  9
$CHAMFERD
 40
0.0
  9
$SKPOLY
 70
0
  9
$TDCREATE
 40
2461318.7701273146
  9
$TDUCREATE
 40
2458532.153996898
  9
$TDUPDATE
 40
2461318.7701273146
  9
$TDUUPDATE
 40
2458532.1544311
  9
$TDINDWG
 40
0.0
  9
$TDUSRTIMER
 40
0.0
  9
$USRTIMER
 70
1
  9
$ANGBASE
 50
0.0
  9
$ANGDIR
 70
0
  9
$PDMODE
 70
0
  9
$PDSIZE
 40
0.0
  9
$PLINEWID
 40
0.0
  9
$SPLFRAME
 70
0
  9
$SPLINETYPE
 70
6
  9
$SPLINESEGS
 70
8
  9
$HANDSEED
  5
A3
  9
$SURFTAB1
 70
6
  9
$SURFTAB2
 70
6
  9
$SURFTYPE
 70
6
  9
$SURFU
 70
6
  9
$SURFV
 70
6
  9
$UCSBASE
  2

  9
$UCSNAME
  2

  9
$UCSORG
 10
0.0
 20
0.0
 30
0.0
  9
$UCSXDIR
 10
1.0
 20
0.0
 30
0.0
  9
$UCSYDIR
 10
0.0
 20
1.0
 30
0.0
  9
$UCSORTHOREF
  2

  9
$UCSORTHOVIEW
 70
0
  9
$UCSORGTOP
 10
0.0
 20
0.0
 30
0.0
  9
$UCSORGBOTTOM
 10
0.0
 20
0.0
 30
0.0
  9
$UCSORGLEFT
 10
0.0
 20
0.0
 30
0.0
  9
$UCSORGRIGHT
 10
0.0
 20
0.0
 30
0.0
  9
$UCSORGFRONT
 10
0.0
 20
0.0
 30
0.0
  9
$UCSORGBACK
 10
0.0
 20
0.0
 30
0.0
  9
$PUCSBASE
  2

  9
$PUCSNAME
  2

  9
$PUCSORG
 10
0.0
 20
0.0
 30
0.0
  9
$PUCSXDIR
 10
1.0
 20
0.0
 30
0.0
  9
$PUCSYDIR
 10
0.0
 20
1.0
 30
0.0
  9
$PUCSORTHOREF
  2

  9
$PUCSORTHOVIEW
 70
0
  9
$PUCSORGTOP
 10
0.0
 20
0.0
 30
0.0
  9
$PUCSORGBOTTOM
 10
0.0
 20
0.0
 30
0.0
  9
$PUCSORGLEFT
 10
0.0
 20
0.0
 30
0.0
  9
$PUCSORGRIGHT
 10
0.0
 20
0.0
 30
0.0
  9
$PUCSORGFRONT
 10
0.0
 20
0.0
 30
0.0
  9
$PUCSORGBACK
 10
0.0
 20
0.0
 30
0.0
  9
$USERI1
 70
0
  9
$USERI2
 70
0
  9
$USERI3
 70
0
  9
$USERI4
 70
0
  9
$USERI5
 70
0
  9
$USERR1
 40
0.0
  9
$USERR2
 40
0.0
  9
$USERR3
 40
0.0
  9
$USERR4
 40
0.0
  9
$USERR5
 40
0.0
  9
$WORLDVIEW
 70
1
  9
$SHADEDGE
 70
3
  9
$SHADEDIF
 70
70
  9
$TILEMODE
 70
1
  9
$MAXACTVP
 70
64
  9
$PINSBASE
 10
0.0
 20
0.0
 30
0.0
  9
$PLIMCHECK
 70
0
  9
$PEXTMIN
 10
1e+20
 20
1e+20
 30
1e+20
  9
$PEXTMAX
 10
-1e+20
 20
-1e+20
 30
-1e+20
  9
$PLIMMIN
 10
0.0
 20
0.0
  9
$PLIMMAX
 10
420.0
 20
297.0
  9
$UNITMODE
 70
0
  9
$VISRETAIN
 70
1
  9
$PLINEGEN
 70
0
  9
$PSLTSCALE
 70
1
  9
$TREEDEPTH
 70
3020
  9
$CMLSTYLE
  2
Standard
  9
$CMLJUST
 70
0
  9
$CMLSCALE
 40
20.0
  9
$PROXYGRAPHICS
 70
1
  9
$MEASUREMENT
 70
1
  9
$CELWEIGHT
370
-1
  9
$ENDCAPS
280
0
  9
$JOINSTYLE
280
0
  9
$LWDISPLAY
290
0
  9
$INSUNITS
 70
4
  9
$HYPERLINKBASE
  1

  9
$STYLESHEET
  1

  9
$XEDIT
290
1
  9
$CEPSNTYPE
380
0
  9
$PSTYLEMODE
290
1
  9
$FINGERPRINTGUID
  2
{A23A5B67-1FC7-4AEE-ABAC-0A697963B204}
  9
$VERSIONGUID
  2
{3B42D347-DD75-42DB-89F7-670815707FEC}
  9
$EXTNAMES
290
1
  9
$PSVPSCALE
 40
0.0
  9
$OLESTARTUP
290
0
  9
$SORTENTS
280
127
  9
$INDEXCTL
280
0
  9
$HIDETEXT
280
1
  9
$XCLIPFRAME
280
1
  9
$HALOGAP
280
0
  9
$OBSCOLOR
 70
257
  9
$OBSLTYPE
280
0
  9
$INTERSECTIONDISPLAY
280
0
  9
$INTERSECTIONCOLOR
 70
257
  9
$DIMASSOC
280
2
  9
$PROJECTNAME
  1

  9
$CAMERADISPLAY
290
0
  9
$LENSLENGTH
 40
50.0
  9
$CAMERAHEIGHT
 40
0.0
  9
$STEPSPERSEC
 40
24.0
  9
$STEPSIZE
 40
100.0
  9
$3DDWFPREC
 40
2.0
  9
$PSOLWIDTH
 40
0.005
  9
$PSOLHEIGHT
 40
0.08
  9
$LOFTANG1
 40
1.570796326795
  9
$LOFTANG2
 40
1.570796326795
  9
$LOFTMAG1
 40
0.0
  9
$LOFTMAG2
 40
0.0
  9
$LOFTPARAM
 70
7
  9
$LOFTNORMALS
280
1
  9
$LATITUDE
 40
37.795
  9
$LONGITUDE
 40
-122.394
  9
$NORTHDIRECTION
 40
0.0
  9
$TIMEZONE
 70
-8000
  9
$LIGHTGLYPHDISPLAY
280
1
  9
$TILEMODELIGHTSYNCH
280
1
  9
$CMATERIAL
347
20
  9
$SOLIDHIST
280
0
  9
$SHOWHIST
280
1
  9
$DWFFRAME
280
2
  9
$DGNFRAME
280
2
  9
$REALWORLDSCALE
290
1
  9
$INTERFERECOLOR
 62
256
  9
$CSHADOW
280
0
  9
$SHADOWPLANELOCATION
 40
0.0
  0
ENDSEC
  0
SECTION
  2
CLASSES
  0
CLASS
  1
ACDBDICTIONARYWDFLT
  2
AcDbDictionaryWithDefault
  3
ObjectDBX Classes
 90
0
 91
0
280
0
281
0
  0
CLASS
  1
SUN
  2
AcDbSun
  3
SCENEOE
 90
1153
 91
0
280
0
281
0
  0
CLASS
  1
VISUALSTYLE
  2
AcDbVisualStyle
  3
ObjectDBX Classes
 90
4095
 91
0
280
0
281
0
  0
CLASS
  1
MATERIAL
  2
AcDbMaterial
  3
ObjectDBX Classes
 90
1153
 91
0
280
0
281
0
  0
CLASS
  1
SCALE
  2
AcDbScale
  3
ObjectDBX Classes
 90
1153
 91
0
280
0
281
0
  0
CLASS
  1
TABLESTYLE
  2
AcDbTableStyle
  3
ObjectDBX Classes
 90
4095
 91
0
280
0
281
0
  0
CLASS
  1
MLEADERSTYLE
  2
AcDbMLeaderStyle
  3
ACDB_MLEADERSTYLE_CLASS
 90
4095
 91
0
280
0
281
0
  0
CLASS
  1
DICTIONARYVAR
  2
AcDbDictionaryVar
  3
ObjectDBX Classes
 90
0
 91
0
280
0
281
0
  0
CLASS
  1
CELLSTYLEMAP
  2
AcDbCellStyleMap
  3
ObjectDBX Classes
 90
1152
 91
0
280
0
281
0
  0
CLASS
  1
MENTALRAYRENDERSETTINGS
  2
AcDbMentalRayRenderSettings
  3
SCENEOE
 90
1024
 91
0
280
0
281
0
  0
CLASS
  1
ACDBDETAILVIEWSTYLE
  2
AcDbDetailViewStyle
  3
ObjectDBX Classes
 90
1025
 91
0
280
0
281
0
  0
CLASS
  1
ACDBSECTIONVIEWSTYLE
  2
AcDbSectionViewStyle
  3
ObjectDBX Classes
 90
1025
 91
0
280
0
281
0
  0
CLASS
  1
RASTERVARIABLES
  2
AcDbRasterVariables
  3
ISM
 90
0
 91
0
280
0
281
0
  0
CLASS
  1
LAYOUT
  2
AcDbLayout
  3
ObjectDBX Classes
 90
0
 91
0
280
0
281
0
  0
CLASS
  1
ACDBPLACEHOLDER
  2
AcDbPlaceHolder
  3
ObjectDBX Classes
 90
0
 91
0
280
0
281
0
  0
ENDSEC
  0
SECTION
  2
TABLES
  0
TABLE
  2
VPORT
  5
8
330
0
100
AcDbSymbolTable
 70
1
  0
VPORT
  5
23
330
8
100
AcDbSymbolTableRecord
100
AcDbViewportTableRecord
  2
*Active
 70
0
 10
0.0
 20
0.0
 11
1.0
 21
1.0
 12
0.0
 22
0.0
 13
0.0
 23
0.0
 14
0.5
 24
0.5
 15
0.5
 25
0.5
 16
0.0
 26
0.0
 36
1.0
 17
0.0
 27
0.0
 37
0.0
 40
1000.0
 41
1.34
 42
50.0
 43
0.0
 44
0.0
 50
0.0
 51
0.0
 71
0
 72
1000
 73
1
 74
3
 75
0
 76
0
 77
0
 78
0
281
0
 65
0
146
0.0
  0
ENDTAB
  0
TABLE
  2
LTYPE
  5
2
330
0
100
AcDbSymbolTable
 70
3
  0
LTYPE
  5
24
330
2
100
AcDbSymbolTableRecord
100
AcDbLinetypeTableRecord
  2
ByBlock
 70
0
  3

 72
65
 73
0
 40
0.0
  0
LTYPE
  5
25
330
2
100
AcDbSymbolTableRecord
100
AcDbLinetypeTableRecord
  2
ByLayer
 70
0
  3

 72
65
 73
0
 40
0.0
  0
LTYPE
  5
26
330
2
100
AcDbSymbolTableRecord
100
AcDbLinetypeTableRecord
  2
Continuous
 70
0
  3

 72
65
 73
0
 40
0.0
  0
ENDTAB
  0
TABLE
  2
LAYER
  5
1
330
0
100
AcDbSymbolTable
 70
8
  0
LAYER
  5
27
330
1
100
AcDbSymbolTableRecord
100
AcDbLayerTableRecord
  2
0
 70
0
 62
7
  6
Continuous
370
-3
390
13
347
21
  0
LAYER
  5
28
330
1
100
AcDbSymbolTableRecord
100
AcDbLayerTableRecord
  2
Defpoints
 70
0
 62
7
  6
Continuous
290
0
370
-3
390
13
347
21
  0
LAYER
  5
2F
330
1
100
AcDbSymbolTableRecord
100
AcDbLayerTableRecord
  2
CUT
 70
0
 62
1
  6
Continuous
370
-3
390
13
347
21
  0
LAYER
  5
30
330
1
100
AcDbSymbolTableRecord
100
AcDbLayerTableRecord
  2
SEW
 70
0
 62
5
  6
Continuous
370
-3
390
13
347
21
  0
LAYER
  5
31
330
1
100
AcDbSymbolTableRecord
100
AcDbLayerTableRecord
  2
GRAIN
 70
0
 62
3
  6
Continuous
370
-3
390
13
347
21
  0
LAYER
  5
32
330
1
100
AcDbSymbolTableRecord
100
AcDbLayerTableRecord
  2
NOTCH
 70
0
 62
2
  6
Continuous
370
-3
390
13
347
21
  0
LAYER
  5
33
330
1
100
AcDbSymbolTableRecord
100
AcDbLayerTableRecord
  2
LABEL
 70
0
 62
7
  6
Continuous
370
-3
390
13
347
21
  0
LAYER
  5
34
330
1
100
AcDbSymbolTableRecord
100
AcDbLayerTableRecord
  2
ATTACHMENT
 70
0
 62
4
  6
Continuous
370
-3
390
13
347
21
  0
ENDTAB
  0
TABLE
  2
STYLE
  5
5
330
0
100
AcDbSymbolTable
 70
1
  0
STYLE
  5
29
330
5
100
AcDbSymbolTableRecord
100
AcDbTextStyleTableRecord
  2
Standard
 70
0
 40
0.0
 41
1.0
 50
0.0
 71
0
 42
2.5
  3
txt
  4

  0
ENDTAB
  0
TABLE
  2
VIEW
  5
7
330
0
100
AcDbSymbolTable
 70
0
  0
ENDTAB
  0
TABLE
  2
UCS
  5
6
330
0
100
AcDbSymbolTable
 70
0
  0
ENDTAB
  0
TABLE
  2
APPID
  5
3
330
0
100
AcDbSymbolTable
 70
3
  0
APPID
  5
2A
330
3
100
AcDbSymbolTableRecord
100
AcDbRegAppTableRecord
  2
ACAD
 70
0
  0
APPID
  5
A0
330
3
100
AcDbSymbolTableRecord
100
AcDbRegAppTableRecord
  2
HATCHBACKGROUNDCOLOR
 70
0
  0
APPID
  5
A1
330
3
100
AcDbSymbolTableRecord
100
AcDbRegAppTableRecord
  2
EZDXF
 70
0
  0
ENDTAB
  0
TABLE
  2
DIMSTYLE
  5
4
330
0
100
AcDbSymbolTable
 70
1
100
AcDbDimStyleTable
  0
DIMSTYLE
105
2B
330
4
100
AcDbSymbolTableRecord
100
AcDbDimStyleTableRecord
  2
Standard
 70
0
 40
1.0
 41
2.5
 42
0.625
 43
3.75
 44
1.25
 45
0.0
 46
0.0
 47
0.0
 48
0.0
 49
2.5
140
2.5
141
2.5
142
0.0
143
0.03937007874
144
1.0
145
0.0
146
1.0
147
0.625
148
0.0
 69
0
 70
0
 71
0
 72
0
 73
0
 74
0
 75
0
 76
0
 77
1
 78
8
 79
3
170
0
171
3
172
1
173
0
174
0
175
0
176
0
177
0
178
0
179
2
271
2
272
2
273
2
274
3
275
0
276
0
277
2
278
44
279
0
280
0
281
0
282
0
283
0
284
8
285
0
286
0
288
0
289
3
290
0
371
-2
372
-2
  0
ENDTAB
  0
TABLE
  2
BLOCK_RECORD
  5
9
330
0
100
AcDbSymbolTable
 70
2
  0
BLOCK_RECORD
  5
17
330
9
100
AcDbSymbolTableRecord
100
AcDbBlockTableRecord
  2
*Model_Space
340
1A
 70
0
280
1
281
0
  0
BLOCK_RECORD
  5
1B
330
9
100
AcDbSymbolTableRecord
100
AcDbBlockTableRecord
  2
*Paper_Space
340
1E
 70
0
280
1
281
0
  0
ENDTAB
  0
ENDSEC
  0
SECTION
  2
BLOCKS
  0
BLOCK
  5
18
330
17
100
AcDbEntity
  8
0
100
AcDbBlockBegin
  2
*Model_Space
 70
0
 10
0.0
 20
0.0
 30
0.0
  3
*Model_Space
  1

  0
ENDBLK
  5
19
330
17
100
AcDbEntity
  8
0
100
AcDbBlockEnd
  0
BLOCK
  5
1C
330
1B
100
AcDbEntity
  8
0
100
AcDbBlockBegin
  2
*Paper_Space
 70
0
 10
0.0
 20
0.0
 30
0.0
  3
*Paper_Space
  1

  0
ENDBLK
  5
1D
330
1B
100
AcDbEntity
  8
0
100
AcDbBlockEnd
  0
ENDSEC
  0
SECTION
  2
ENTITIES
  0
LWPOLYLINE
  5
35
330
17
100
AcDbEntity
  8
CUT
100
AcDbPolyline
 90
109
 70
1
 10
-11.87157966079416
 20
22.354282287461515
 10
41.80869027964225
 20
-13.483809799650585
 10
76.74573544848187
 20
-42.96817771524871
 10
111.22219316280777
 20
-69.65873976737464
 10
145.76791558520694
 20
-94.15491276439161
 10
180.37600620000669
 20
-118.62805369474623
 10
214.6330118753196
 20
-141.66718421746683
 10
248.35828592266
 20
-161.24980003434888
 10
281.74308313484886
 20
-175.64589634464116
 10
315.6288128424114
 20
-185.71859630771897
 10
349.92665723867077
 20
-194.99932789045576
 10
383.94263730984164
 20
-202.53035409286488
 10
417.6411050386041
 20
-207.43832314656703
 10
451.1065573894005
 20
-208.9019631236305
 10
484.71112336851206
 20
-206.50614894950746
 10
518.7682458057938
 20
-201.135719438885
 10
553.2875676781371
 20
-193.9382695420164
 10
588.2188876123203
 20
-186.0870548582452
 10
623.293773865576
 20
-178.826499594927
 10
658.1831704392341
 20
-171.9803866397197
 10
692.9599094945404
 20
-164.66994898623852
 10
727.7563691555931
 20
-156.94628335633416
 10
766.4184969315564
 20
-147.84976130377152
 10
898.7437021306299
 20
-203.79804739654477
 10
949.9444294468717
 20
-203.70163320238493
 10
1003.4898792898504
 20
-203.52557313387715
 10
1056.9285111675342
 20
-202.46375429402815
 10
1110.399145251376
 20
-200.41029839364225
 10
1163.9630492494482
 20
-197.80294635892173
 10
1217.6110110644754
 20
-195.06368747737233
 10
1271.268531932116
 20
-192.5354101759999
 10
1324.8844376336983
 20
-189.9574428104397
 10
1378.4837901488795
 20
-187.22217589860725
 10
1432.0745818699545
 20
-184.29587542949054
 10
1485.656624424119
 20
-181.14483307476993
 10
1539.234818420469
 20
-177.7347484811153
 10
1592.8107768263003
 20
-174.07677539297532
 10
1646.3688863217808
 20
-170.15153901575508
 10
1699.8964752445097
 20
-165.8320897165636
 10
1753.3929282474774
 20
-160.98999294541738
 10
1806.8560539113284
 20
-155.4970044218848
 10
1860.2520323022309
 20
-149.21278886984953
 10
1913.5593129284434
 20
-141.70717827876504
 10
1966.7999084220066
 20
-132.62820055452244
 10
2019.988174810278
 20
-121.70517963404717
 10
2073.049965045315
 20
-108.68816398916985
 10
2125.760869807163
 20
-92.57841550909998
 10
2178.271814169727
 20
-70.28795431396607
 10
2230.901252141802
 20
-39.321255758260186
 10
2302.7886794063065
 20
25.675605139617755
 10
2304.463629791029
 20
-2.6906713881617677
 10
2304.533480542469
 20
-6.076317743926116
 10
2304.5078632654686
 20
-8.801148655923422
 10
2304.5411556841714
 20
-9.969121361048735
 10
2306.0962314154594
 20
-16.414138016108136
 10
2248.702457065161
 20
-109.32529513590072
 10
2192.513078205597
 20
-167.7773614924018
 10
2137.13877251703
 20
-209.24307999489156
 10
2082.245837454367
 20
-238.67845587318686
 10
2027.8278737420674
 20
-262.0093273211063
 10
1973.5739241090855
 20
-281.4303095082932
 10
1919.381036114116
 20
-297.4903689601077
 10
1865.276598567041
 20
-310.68155621921375
 10
1811.3005814716691
 20
-321.64108137427684
 10
1757.421016845687
 20
-331.155682015431
 10
1703.5862951475924
 20
-339.5015578016937
 10
1649.7955466554936
 20
-346.9109417639467
 10
1596.050532987704
 20
-353.61406614105323
 10
1542.333095600668
 20
-359.840734440742
 10
1488.6180895757466
 20
-365.6413892235879
 10
1434.9062748790802
 20
-370.9998963620762
 10
1381.2052337643133
 20
-375.97208938059026
 10
1327.514829866838
 20
-380.6149744036965
 10
1273.8495968090238
 20
-384.98378199110175
 10
1220.257022915288
 20
-389.26261585257424
 10
1166.6539344790915
 20
-393.9335684274916
 10
1112.9019131182936
 20
-398.4164160821231
 10
1058.978398190863
 20
-401.9730024725217
 10
1004.9923720398955
 20
-403.85493426781625
 10
951.2066159917133
 20
-404.36806490643465
 10
893.7101292903217
 20
-405.19196282091343
 10
763.9254463388611
 20
-314.83284698838213
 10
734.6531281075005
 20
-326.88724417791866
 10
699.2380255441907
 20
-340.7703214129038
 10
663.864392542363
 20
-353.97585568549346
 10
628.7193645532362
 20
-366.29401488899464
 10
593.777807722607
 20
-379.12369605658785
 10
558.5292773661183
 20
-393.0102027120737
 10
522.7280454469515
 20
-406.02960061682825
 10
486.34079746319094
 20
-415.9808095775633
 10
449.3620961618366
 20
-420.4914504668613
 10
412.32014345363194
 20
-417.5037207822169
 10
375.9069912635073
 20
-407.8695201113239
 10
340.22982408264437
 20
-393.56167948240767
 10
305.1004691762689
 20
-376.38636521142166
 10
269.5135402555477
 20
-357.33020802733347
 10
233.55991254434693
 20
-329.5957697224356
 10
198.2181059562262
 20
-292.99276852051406
 10
163.43022147353582
 20
-251.31423422280136
 10
128.87172233551453
 20
-207.89451711606603
 10
94.14798445628703
 20
-164.3144281909723
 10
59.093122922778896
 20
-116.42821960953196
 10
24.830639307176185
 20
-65.41716124863763
 10
-12.0411842880615
 20
-22.06372033859947
 10
-12.031567228317014
 20
-14.77352453893892
 10
-12.031278225683026
 20
-11.549160996866783
 10
-12.030016610611867
 20
-7.974939307703018
 10
-12.023674415350444
 20
-4.0801480540973785
 10
-11.87157966079416
 20
22.354282287461515
  0
LWPOLYLINE
  5
36
330
17
100
AcDbEntity
  8
SEW
100
AcDbPolyline
 90
108
 70
1
 10
0.0
 20
0.0
 10
34.58473806032716
 20
-23.089508096549245
 10
69.19971498689111
 20
-52.30207344546507
 10
104.07549777202256
 20
-79.30178009329221
 10
138.83308358776972
 20
-103.948184203491
 10
173.56241312710944
 20
-128.50705934321115
 10
208.26483593608316
 20
-151.84574971587108
 10
242.9505203480223
 20
-171.98602882023565
 10
277.643360700437
 20
-186.94617573431094
 10
312.3515243632659
 20
-197.2633482391442
 10
347.06095026870565
 20
-206.65545059687747
 10
381.7780218311161
 20
-214.34169615147826
 10
416.5113276296901
 20
-219.40038283611568
 10
451.27161974565996
 20
-220.92065372987298
 10
486.07486616556247
 20
-218.43938046688456
 10
520.9288275578867
 20
-212.94329831349245
 10
555.8281565326694
 20
-205.6666150501523
 10
590.7510390544254
 20
-197.81729677156895
 10
625.6653707708917
 20
-190.58997654367516
 10
660.5728738970565
 20
-183.7403106607631
 10
695.4944349965638
 20
-176.39942988484606
 10
730.430806007617
 20
-168.6447085528456
 10
765.3535181833737
 20
-160.42800554873492
 10
896.321934278237
 20
-215.8026290134721
 10
949.975456008014
 20
-215.7015960529545
 10
1003.6288127364403
 20
-215.52518118130845
 10
1057.2779877057546
 20
-214.45917887692383
 10
1110.9211288854326
 20
-212.3990981118833
 10
1164.5607298822067
 20
-209.78806134343623
 10
1218.1993734918535
 20
-207.0492782484029
 10
1271.8390913931719
 20
-204.52183980121015
 10
1325.4783912154626
 20
-201.9427475963146
 10
1379.1167244189514
 20
-199.20549143308406
 10
1432.7539630160525
 20
-196.27665475372044
 10
1486.3899770664198
 20
-193.12243845373055
 10
1540.0246395461022
 20
-189.70875981759937
 10
1593.6580484806925
 20
-186.0468642146906
 10
1647.2900641371557
 20
-182.11621130663454
 10
1700.9199692162356
 20
-177.78850552777078
 10
1754.547067284349
 20
-172.9345837474399
 10
1808.1706629441762
 20
-167.42510797526026
 10
1861.79007809938
 20
-161.1145959711057
 10
1915.404848447944
 20
-153.56569114160538
 10
1969.0161416006813
 20
-144.4234993274588
 10
2022.6256512248249
 20
-133.41396969010881
 10
2076.235660970479
 20
-120.26246589632213
 10
2129.8702890230325
 20
-103.87040486734647
 10
2183.6819659395796
 20
-81.02779347053992
 10
2238.0414453421668
 20
-49.043153748599735
 10
2292.283851809515
 20
1.4036361646580002e-13
 10
2292.4709298097337
 20
-3.16827670531048
 10
2292.5323168468462
 20
-6.143689198454843
 10
2292.506255626163
 20
-8.91574103367035
 10
2292.581760786478
 20
-11.56463137508632
 10
2293.257354650124
 20
-14.364632439760125
 10
2239.165245256971
 20
-101.93093264671121
 10
2184.538699846371
 20
-158.75723188641763
 10
2130.6703477841384
 20
-199.09525319485869
 10
2077.0362105229883
 20
-227.85562077928148
 10
2023.437343197805
 20
-250.8353171517736
 10
1969.8440899441503
 20
-270.01979356010287
 10
1916.2531213794723
 20
-285.90147422102166
 10
1862.6604819396237
 20
-298.9678801317327
 10
1809.0629155693919
 20
-309.8505630063661
 10
1755.4582172405303
 20
-319.31662496564763
 10
1701.8482475640044
 20
-327.6276579516588
 10
1648.2341738948123
 20
-335.0127059149515
 10
1594.6170685720838
 20
-341.6998774531376
 10
1540.9980182364252
 20
-347.9151411966206
 10
1487.3782501371634
 20
-353.7055112867919
 10
1433.7574575350102
 20
-359.0549376942349
 10
1380.1351268467417
 20
-364.019842894394
 10
1326.5110612547317
 20
-368.65699130345854
 10
1272.8852348624746
 20
-373.0225908522572
 10
1219.2586251365324
 20
-377.304142136327
 10
1165.6344061554287
 20
-381.97693601882617
 10
1112.0083061846562
 20
-386.4492819956853
 10
1058.3743434334642
 20
-389.9867706449462
 10
1004.7260597020957
 20
-391.8569288713493
 10
951.0634077712889
 20
-392.3688850634412
 10
897.3983733542206
 20
-393.1378800485832
 10
765.4094061372837
 20
-301.2440902256975
 10
730.1783133910179
 20
-315.75232227032933
 10
694.9494877304287
 20
-329.56237708153515
 10
659.7809390139845
 20
-342.69135016067145
 10
624.6664900019254
 20
-354.9987915833271
 10
589.5099240443278
 20
-367.90741881965147
 10
554.2787199321671
 20
-381.78709963006685
 10
519.0886276355227
 20
-394.5842518328035
 10
484.0192656690072
 20
-404.1750444424617
 10
449.1154819673875
 20
-408.43258806663357
 10
414.3532918253997
 20
-405.6287394626299
 10
379.6892123670088
 20
-396.45730888089383
 10
345.10507562387653
 20
-382.5878131807194
 10
310.57008304202344
 20
-365.70309233912354
 10
276.05528609253554
 20
-347.22104244626644
 10
241.58359158258688
 20
-320.6297595768158
 10
207.15243608252692
 20
-284.96990662023677
 10
172.7323246673287
 20
-243.73199245896475
 10
138.25884586006646
 20
-200.41909592609565
 10
103.6859431336979
 20
-157.02831292761286
 10
68.91932050180203
 20
-109.53584910966835
 10
34.412667917969095
 20
-58.161264343973656
 10
-0.03536151355746648
 20
-17.657691078347774
 10
-0.03156793775096462
 20
-14.78197738361691
 10
-0.0312782738852238
 20
-11.550236567765872
 10
-0.030020060420726406
 20
-7.986828127998621
 10
-0.02373062955300997
 20
-4.124439897420772
  0
LINE
  5
37
330
17
100
AcDbEntity
  8
GRAIN
100
AcDbLine
 10
1670.807038245152
 20
-203.23229369876236
 30
0.0
 11
1750.807038245152
 21
-203.23229369876236
 31
0.0
  0
LINE
  5
38
330
17
100
AcDbEntity
  8
GRAIN
100
AcDbLine
 10
1750.807038245152
 20
-203.23229369876236
 30
0.0
 11
1745.807038245152
 21
-200.23229369876236
 31
0.0
  0
TEXT
  5
39
330
17
100
AcDbEntity
  8
LABEL
100
AcDbText
 10
1710.807038245152
 20
-203.23229369876236
 30
0.0
 40
6.0
  1
O08_SMOOTH_LOWER_I5
100
AcDbText
  0
CIRCLE
  5
3A
330
17
100
AcDbEntity
  8
NOTCH
100
AcDbCircle
 10
2292.3773908096246
 20
-1.5841383526551698
 30
0.0
 40
1.0
  0
TEXT
  5
3B
330
17
100
AcDbEntity
  8
LABEL
100
AcDbText
 10
2294.3773908096246
 20
0.4158616473448302
 30
0.0
 40
3.0
  1
J1055
100
AcDbText
  0
CIRCLE
  5
3C
330
17
100
AcDbEntity
  8
NOTCH
100
AcDbCircle
 10
976.8021343722271
 20
-215.61338861713148
 30
0.0
 40
1.0
  0
TEXT
  5
3D
330
17
100
AcDbEntity
  8
LABEL
100
AcDbText
 10
978.8021343722271
 20
-213.61338861713148
 30
0.0
 40
3.0
  1
J1108
100
AcDbText
  0
CIRCLE
  5
3E
330
17
100
AcDbEntity
  8
NOTCH
100
AcDbCircle
 10
1084.0995582955936
 20
-213.42913849440356
 30
0.0
 40
1.0
  0
TEXT
  5
3F
330
17
100
AcDbEntity
  8
LABEL
100
AcDbText
 10
1086.0995582955936
 20
-211.42913849440356
 30
0.0
 40
3.0
  1
J1108
100
AcDbText
  0
CIRCLE
  5
40
330
17
100
AcDbEntity
  8
NOTCH
100
AcDbCircle
 10
1191.3800516870301
 20
-208.41866979591958
 30
0.0
 40
1.0
  0
TEXT
  5
41
330
17
100
AcDbEntity
  8
LABEL
100
AcDbText
 10
1193.3800516870301
 20
-206.41866979591958
 30
0.0
 40
3.0
  1
J1108
100
AcDbText
  0
CIRCLE
  5
42
330
17
100
AcDbEntity
  8
NOTCH
100
AcDbCircle
 10
1245.0192324425127
 20
-205.78555902480653
 30
0.0
 40
1.0
  0
TEXT
  5
43
330
17
100
AcDbEntity
  8
LABEL
100
AcDbText
 10
1247.0192324425127
 20
-203.78555902480653
 30
0.0
 40
3.0
  1
J1108
100
AcDbText
  0
CIRCLE
  5
44
330
17
100
AcDbEntity
  8
NOTCH
100
AcDbCircle
 10
1352.297557817207
 20
-200.57411951469933
 30
0.0
 40
1.0
  0
TEXT
  5
45
330
17
100
AcDbEntity
  8
LABEL
100
AcDbText
 10
1354.297557817207
 20
-198.57411951469933
 30
0.0
 40
3.0
  1
J1108
100
AcDbText
  0
CIRCLE
  5
46
330
17
100
AcDbEntity
  8
NOTCH
100
AcDbCircle
 10
1459.571970041236
 20
-194.69954660372548
 30
0.0
 40
1.0
  0
TEXT
  5
47
330
17
100
AcDbEntity
  8
LABEL
100
AcDbText
 10
1461.571970041236
 20
-192.69954660372548
 30
0.0
 40
3.0
  1
J1108
100
AcDbText
  0
CIRCLE
  5
48
330
17
100
AcDbEntity
  8
NOTCH
100
AcDbCircle
 10
121.45429067989613
 20
-91.62498214839161
 30
0.0
 40
1.0
  0
TEXT
  5
49
330
17
100
AcDbEntity
  8
LABEL
100
AcDbText
 10
123.45429067989613
 20
-89.62498214839161
 30
0.0
 40
3.0
  1
J1108
100
AcDbText
  0
CIRCLE
  5
4A
330
17
100
AcDbEntity
  8
NOTCH
100
AcDbCircle
 10
1620.474056308924
 20
-184.08153776066257
 30
0.0
 40
1.0
  0
TEXT
  5
4B
330
17
100
AcDbEntity
  8
LABEL
100
AcDbText
 10
1622.474056308924
 20
-182.08153776066257
 30
0.0
 40
3.0
  1
J1108
100
AcDbText
  0
CIRCLE
  5
4C
330
17
100
AcDbEntity
  8
NOTCH
100
AcDbCircle
 10
1727.7335182502923
 20
-175.36154463760533
 30
0.0
 40
1.0
  0
TEXT
  5
4D
330
17
100
AcDbEntity
  8
LABEL
100
AcDbText
 10
1729.7335182502923
 20
-173.36154463760533
 30
0.0
 40
3.0
  1
J1108
100
AcDbText
  0
CIRCLE
  5
4E
330
17
100
AcDbEntity
  8
NOTCH
100
AcDbCircle
 10
1834.9803705217782
 20
-164.269851973183
 30
0.0
 40
1.0
  0
TEXT
  5
4F
330
17
100
AcDbEntity
  8
LABEL
100
AcDbText
 10
1836.9803705217782
 20
-162.269851973183
 30
0.0
 40
3.0
  1
J1108
100
AcDbText
  0
CIRCLE
  5
50
330
17
100
AcDbEntity
  8
NOTCH
100
AcDbCircle
 10
156.1977483574396
 20
-116.22762177335107
 30
0.0
 40
1.0
  0
TEXT
  5
51
330
17
100
AcDbEntity
  8
LABEL
100
AcDbText
 10
158.1977483574396
 20
-114.22762177335107
 30
0.0
 40
3.0
  1
J1108
100
AcDbText
  0
CIRCLE
  5
52
330
17
100
AcDbEntity
  8
NOTCH
100
AcDbCircle
 10
1995.820896412753
 20
-138.9187345087838
 30
0.0
 40
1.0
  0
TEXT
  5
53
330
17
100
AcDbEntity
  8
LABEL
100
AcDbText
 10
1997.820896412753
 20
-136.9187345087838
 30
0.0
 40
3.0
  1
J1108
100
AcDbText
  0
CIRCLE
  5
54
330
17
100
AcDbEntity
  8
NOTCH
100
AcDbCircle
 10
2103.0529749967554
 20
-112.0664353818343
 30
0.0
 40
1.0
  0
TEXT
  5
55
330
17
100
AcDbEntity
  8
LABEL
100
AcDbText
 10
2105.0529749967554
 20
-110.0664353818343
 30
0.0
 40
3.0
  1
J1108
100
AcDbText
  0
CIRCLE
  5
56
330
17
100
AcDbEntity
  8
NOTCH
100
AcDbCircle
 10
2210.861705640873
 20
-65.03547360956983
 30
0.0
 40
1.0
  0
TEXT
  5
57
330
17
100
AcDbEntity
  8
LABEL
100
AcDbText
 10
2212.861705640873
 20
-63.035473609569834
 30
0.0
 40
3.0
  1
J1108
100
AcDbText
  0
CIRCLE
  5
58
330
17
100
AcDbEntity
  8
NOTCH
100
AcDbCircle
 10
2265.1626485758406
 20
-24.521576874299797
 30
0.0
 40
1.0
  0
TEXT
  5
59
330
17
100
AcDbEntity
  8
LABEL
100
AcDbText
 10
2267.1626485758406
 20
-22.521576874299797
 30
0.0
 40
3.0
  1
J1108
100
AcDbText
  0
CIRCLE
  5
5A
330
17
100
AcDbEntity
  8
NOTCH
100
AcDbCircle
 10
260.2969405242296
 20
-179.4661022772733
 30
0.0
 40
1.0
  0
TEXT
  5
5B
330
17
100
AcDbEntity
  8
LABEL
100
AcDbText
 10
262.2969405242296
 20
-177.4661022772733
 30
0.0
 40
3.0
  1
J1108
100
AcDbText
  0
CIRCLE
  5
5C
330
17
100
AcDbEntity
  8
NOTCH
100
AcDbCircle
 10
364.4194860499109
 20
-210.49857337417785
 30
0.0
 40
1.0
  0
TEXT
  5
5D
330
17
100
AcDbEntity
  8
LABEL
100
AcDbText
 10
366.4194860499109
 20
-208.49857337417785
 30
0.0
 40
3.0
  1
J1108
100
AcDbText
  0
CIRCLE
  5
5E
330
17
100
AcDbEntity
  8
NOTCH
100
AcDbCircle
 10
468.6732429556112
 20
-219.68001709837876
 30
0.0
 40
1.0
  0
TEXT
  5
5F
330
17
100
AcDbEntity
  8
LABEL
100
AcDbText
 10
470.6732429556112
 20
-217.68001709837876
 30
0.0
 40
3.0
  1
J1108
100
AcDbText
  0
CIRCLE
  5
60
330
17
100
AcDbEntity
  8
NOTCH
100
AcDbCircle
 10
538.3784920452781
 20
-209.30495668182238
 30
0.0
 40
1.0
  0
TEXT
  5
61
330
17
100
AcDbEntity
  8
LABEL
100
AcDbText
 10
540.3784920452781
 20
-207.30495668182238
 30
0.0
 40
3.0
  1
J1108
100
AcDbText
  0
CIRCLE
  5
62
330
17
100
AcDbEntity
  8
NOTCH
100
AcDbCircle
 10
643.1191223339741
 20
-187.16514360221913
 30
0.0
 40
1.0
  0
TEXT
  5
63
330
17
100
AcDbEntity
  8
LABEL
100
AcDbText
 10
645.1191223339741
 20
-185.16514360221913
 30
0.0
 40
3.0
  1
J1108
100
AcDbText
  0
CIRCLE
  5
64
330
17
100
AcDbEntity
  8
NOTCH
100
AcDbCircle
 10
747.8921620954953
 20
-164.53635705079026
 30
0.0
 40
1.0
  0
TEXT
  5
65
330
17
100
AcDbEntity
  8
LABEL
100
AcDbText
 10
749.8921620954953
 20
-162.53635705079026
 30
0.0
 40
3.0
  1
J1108
100
AcDbText
  0
CIRCLE
  5
66
330
17
100
AcDbEntity
  8
NOTCH
100
AcDbCircle
 10
51.89222652360914
 20
-37.695790771007154
 30
0.0
 40
1.0
  0
TEXT
  5
67
330
17
100
AcDbEntity
  8
LABEL
100
AcDbText
 10
53.89222652360914
 20
-35.695790771007154
 30
0.0
 40
3.0
  1
J1108
100
AcDbText
  0
CIRCLE
  5
68
330
17
100
AcDbEntity
  8
NOTCH
100
AcDbCircle
 10
86.30263181774997
 20
-133.2820810186406
 30
0.0
 40
1.0
  0
TEXT
  5
69
330
17
100
AcDbEntity
  8
LABEL
100
AcDbText
 10
88.30263181774997
 20
-131.2820810186406
 30
0.0
 40
3.0
  1
J1110
100
AcDbText
  0
CIRCLE
  5
6A
330
17
100
AcDbEntity
  8
NOTCH
100
AcDbCircle
 10
155.4955852636976
 20
-222.0755441925302
 30
0.0
 40
1.0
  0
TEXT
  5
6B
330
17
100
AcDbEntity
  8
LABEL
100
AcDbText
 10
157.4955852636976
 20
-220.0755441925302
 30
0.0
 40
3.0
  1
J1110
100
AcDbText
  0
CIRCLE
  5
6C
330
17
100
AcDbEntity
  8
NOTCH
100
AcDbCircle
 10
17.188653202205813
 20
-37.90947771116072
 30
0.0
 40
1.0
  0
TEXT
  5
6D
330
17
100
AcDbEntity
  8
LABEL
100
AcDbText
 10
19.188653202205813
 20
-35.90947771116072
 30
0.0
 40
3.0
  1
J1110
100
AcDbText
  0
CIRCLE
  5
6E
330
17
100
AcDbEntity
  8
NOTCH
100
AcDbCircle
 10
224.3680138325569
 20
-302.7998330985263
 30
0.0
 40
1.0
  0
TEXT
  5
6F
330
17
100
AcDbEntity
  8
LABEL
100
AcDbText
 10
226.3680138325569
 20
-300.7998330985263
 30
0.0
 40
3.0
  1
J1111
100
AcDbText
  0
CIRCLE
  5
70
330
17
100
AcDbEntity
  8
NOTCH
100
AcDbCircle
 10
293.31268456727946
 20
-356.46206739269496
 30
0.0
 40
1.0
  0
TEXT
  5
71
330
17
100
AcDbEntity
  8
LABEL
100
AcDbText
 10
295.31268456727946
 20
-354.46206739269496
 30
0.0
 40
3.0
  1
J1111
100
AcDbText
  0
CIRCLE
  5
72
330
17
100
AcDbEntity
  8
NOTCH
100
AcDbCircle
 10
362.39714399544266
 20
-389.5225610308066
 30
0.0
 40
1.0
  0
TEXT
  5
73
330
17
100
AcDbEntity
  8
LABEL
100
AcDbText
 10
364.39714399544266
 20
-387.5225610308066
 30
0.0
 40
3.0
  1
J1111
100
AcDbText
  0
CIRCLE
  5
74
330
17
100
AcDbEntity
  8
NOTCH
100
AcDbCircle
 10
431.73438689639363
 20
-407.03066376463175
 30
0.0
 40
1.0
  0
TEXT
  5
75
330
17
100
AcDbEntity
  8
LABEL
100
AcDbText
 10
433.73438689639363
 20
-405.03066376463175
 30
0.0
 40
3.0
  1
J1112
100
AcDbText
  0
CIRCLE
  5
76
330
17
100
AcDbEntity
  8
NOTCH
100
AcDbCircle
 10
536.6836737838448
 20
-388.18567573143514
 30
0.0
 40
1.0
  0
TEXT
  5
77
330
17
100
AcDbEntity
  8
LABEL
100
AcDbText
 10
538.6836737838448
 20
-386.18567573143514
 30
0.0
 40
3.0
  1
J1113
100
AcDbText
  0
CIRCLE
  5
78
330
17
100
AcDbEntity
  8
NOTCH
100
AcDbCircle
 10
607.0882070231266
 20
-361.4531052014893
 30
0.0
 40
1.0
  0
TEXT
  5
79
330
17
100
AcDbEntity
  8
LABEL
100
AcDbText
 10
609.0882070231266
 20
-359.4531052014893
 30
0.0
 40
3.0
  1
J1113
100
AcDbText
  0
CIRCLE
  5
7A
330
17
100
AcDbEntity
  8
NOTCH
100
AcDbCircle
 10
642.2237145079549
 20
-348.84507087199927
 30
0.0
 40
1.0
  0
TEXT
  5
7B
330
17
100
AcDbEntity
  8
LABEL
100
AcDbText
 10
644.2237145079549
 20
-346.84507087199927
 30
0.0
 40
3.0
  1
J1114
100
AcDbText
  0
CIRCLE
  5
7C
330
17
100
AcDbEntity
  8
NOTCH
100
AcDbCircle
 10
747.7938597641507
 20
-308.4982062480134
 30
0.0
 40
1.0
  0
TEXT
  5
7D
330
17
100
AcDbEntity
  8
LABEL
100
AcDbText
 10
749.7938597641507
 20
-306.4982062480134
 30
0.0
 40
3.0
  1
J1115
100
AcDbText
  0
CIRCLE
  5
7E
330
17
100
AcDbEntity
  8
NOTCH
100
AcDbCircle
 10
831.4038897457522
 20
-347.1909851371404
 30
0.0
 40
1.0
  0
TEXT
  5
7F
330
17
100
AcDbEntity
  8
LABEL
100
AcDbText
 10
833.4038897457522
 20
-345.1909851371404
 30
0.0
 40
3.0
  1
J1116
100
AcDbText
  0
CIRCLE
  5
80
330
17
100
AcDbEntity
  8
NOTCH
100
AcDbCircle
 10
924.2308905627547
 20
-392.7533825560122
 30
0.0
 40
1.0
  0
TEXT
  5
81
330
17
100
AcDbEntity
  8
LABEL
100
AcDbText
 10
926.2308905627547
 20
-390.7533825560122
 30
0.0
 40
3.0
  1
J1117
100
AcDbText
  0
CIRCLE
  5
82
330
17
100
AcDbEntity
  8
NOTCH
100
AcDbCircle
 10
977.8947337366923
 20
-392.11290696739525
 30
0.0
 40
1.0
  0
TEXT
  5
83
330
17
100
AcDbEntity
  8
LABEL
100
AcDbText
 10
979.8947337366923
 20
-390.11290696739525
 30
0.0
 40
3.0
  1
J1118
100
AcDbText
  0
CIRCLE
  5
84
330
17
100
AcDbEntity
  8
NOTCH
100
AcDbCircle
 10
1085.1913248090602
 20
-388.21802632031574
 30
0.0
 40
1.0
  0
TEXT
  5
85
330
17
100
AcDbEntity
  8
LABEL
100
AcDbText
 10
1087.1913248090602
 20
-386.21802632031574
 30
0.0
 40
3.0
  1
J1118
100
AcDbText
  0
CIRCLE
  5
86
330
17
100
AcDbEntity
  8
NOTCH
100
AcDbCircle
 10
1192.4465156459805
 20
-379.6405390775766
 30
0.0
 40
1.0
  0
TEXT
  5
87
330
17
100
AcDbEntity
  8
LABEL
100
AcDbText
 10
1194.4465156459805
 20
-377.6405390775766
 30
0.0
 40
3.0
  1
J1118
100
AcDbText
  0
CIRCLE
  5
88
330
17
100
AcDbEntity
  8
NOTCH
100
AcDbCircle
 10
1299.6981480586032
 20
-370.83979107785785
 30
0.0
 40
1.0
  0
TEXT
  5
89
330
17
100
AcDbEntity
  8
LABEL
100
AcDbText
 10
1301.6981480586032
 20
-368.83979107785785
 30
0.0
 40
3.0
  1
J1118
100
AcDbText
  0
CIRCLE
  5
8A
330
17
100
AcDbEntity
  8
NOTCH
100
AcDbCircle
 10
1406.946292190876
 20
-361.5373902943145
 30
0.0
 40
1.0
  0
TEXT
  5
8B
330
17
100
AcDbEntity
  8
LABEL
100
AcDbText
 10
1408.946292190876
 20
-359.5373902943145
 30
0.0
 40
3.0
  1
J1118
100
AcDbText
  0
CIRCLE
  5
8C
330
17
100
AcDbEntity
  8
NOTCH
100
AcDbCircle
 10
1514.1881341867943
 20
-350.8103262417062
 30
0.0
 40
1.0
  0
TEXT
  5
8D
330
17
100
AcDbEntity
  8
LABEL
100
AcDbText
 10
1516.1881341867943
 20
-348.8103262417062
 30
0.0
 40
3.0
  1
J1118
100
AcDbText
  0
CIRCLE
  5
8E
330
17
100
AcDbEntity
  8
NOTCH
100
AcDbCircle
 10
1621.425621233448
 20
-338.35629168404455
 30
0.0
 40
1.0
  0
TEXT
  5
8F
330
17
100
AcDbEntity
  8
LABEL
100
AcDbText
 10
1623.425621233448
 20
-336.35629168404455
 30
0.0
 40
3.0
  1
J1119
100
AcDbText
  0
CIRCLE
  5
90
330
17
100
AcDbEntity
  8
NOTCH
100
AcDbCircle
 10
1728.6532324022673
 20
-323.47214145865325
 30
0.0
 40
1.0
  0
TEXT
  5
91
330
17
100
AcDbEntity
  8
LABEL
100
AcDbText
 10
1730.6532324022673
 20
-321.47214145865325
 30
0.0
 40
3.0
  1
J1119
100
AcDbText
  0
CIRCLE
  5
92
330
17
100
AcDbEntity
  8
NOTCH
100
AcDbCircle
 10
1835.8616987545079
 20
-304.4092215690494
 30
0.0
 40
1.0
  0
TEXT
  5
93
330
17
100
AcDbEntity
  8
LABEL
100
AcDbText
 10
1837.8616987545079
 20
-302.4092215690494
 30
0.0
 40
3.0
  1
J1119
100
AcDbText
  0
CIRCLE
  5
94
330
17
100
AcDbEntity
  8
NOTCH
100
AcDbCircle
 10
1943.0486056618113
 20
-277.96063389056224
 30
0.0
 40
1.0
  0
TEXT
  5
95
330
17
100
AcDbEntity
  8
LABEL
100
AcDbText
 10
1945.0486056618113
 20
-275.96063389056224
 30
0.0
 40
3.0
  1
J1120
100
AcDbText
  0
CIRCLE
  5
96
330
17
100
AcDbEntity
  8
NOTCH
100
AcDbCircle
 10
2050.2367768603967
 20
-239.34546896552754
 30
0.0
 40
1.0
  0
TEXT
  5
97
330
17
100
AcDbEntity
  8
LABEL
100
AcDbText
 10
2052.2367768603967
 20
-237.34546896552754
 30
0.0
 40
3.0
  1
J1120
100
AcDbText
  0
CIRCLE
  5
98
330
17
100
AcDbEntity
  8
NOTCH
100
AcDbCircle
 10
2103.8532791535636
 20
-213.47543698707008
 30
0.0
 40
1.0
  0
TEXT
  5
99
330
17
100
AcDbEntity
  8
LABEL
100
AcDbText
 10
2105.8532791535636
 20
-211.47543698707008
 30
0.0
 40
3.0
  1
J1121
100
AcDbText
  0
CIRCLE
  5
9A
330
17
100
AcDbEntity
  8
NOTCH
100
AcDbCircle
 10
2211.8519725516708
 20
-130.3440822665644
 30
0.0
 40
1.0
  0
TEXT
  5
9B
330
17
100
AcDbEntity
  8
LABEL
100
AcDbText
 10
2213.8519725516708
 20
-128.3440822665644
 30
0.0
 40
3.0
  1
J1121
100
AcDbText
  0
CIRCLE
  5
9C
330
17
100
AcDbEntity
  8
NOTCH
100
AcDbCircle
 10
2266.2112999535475
 20
-58.14778254323567
 30
0.0
 40
1.0
  0
TEXT
  5
9D
330
17
100
AcDbEntity
  8
LABEL
100
AcDbText
 10
2268.2112999535475
 20
-56.14778254323567
 30
0.0
 40
3.0
  1
J1121
100
AcDbText
  0
CIRCLE
  5
9E
330
17
100
AcDbEntity
  8
NOTCH
100
AcDbCircle
 10
-0.011865314776504985
 20
-2.062219948710386
 30
0.0
 40
1.0
  0
TEXT
  5
9F
330
17
100
AcDbEntity
  8
LABEL
100
AcDbText
 10
1.9881346852234951
 20
-0.06221994871038605
 30
0.0
 40
3.0
  1
J1122
100
AcDbText
  0
ENDSEC
  0
SECTION
  2
OBJECTS
  0
DICTIONARY
  5
A
330
0
100
AcDbDictionary
281
1
  3
ACAD_COLOR
350
B
  3
ACAD_GROUP
350
C
  3
ACAD_LAYOUT
350
D
  3
ACAD_MATERIAL
350
E
  3
ACAD_MLEADERSTYLE
350
F
  3
ACAD_MLINESTYLE
350
10
  3
ACAD_PLOTSETTINGS
350
11
  3
ACAD_PLOTSTYLENAME
350
12
  3
ACAD_SCALELIST
350
14
  3
ACAD_TABLESTYLE
350
15
  3
ACAD_VISUALSTYLE
350
16
  3
EZDXF_META
350
2D
  0
DICTIONARY
  5
B
330
A
100
AcDbDictionary
281
1
  0
DICTIONARY
  5
C
330
A
100
AcDbDictionary
281
1
  0
DICTIONARY
  5
D
330
A
100
AcDbDictionary
281
1
  3
Model
350
1A
  3
Layout1
350
1E
  0
DICTIONARY
  5
E
330
A
100
AcDbDictionary
281
1
  3
ByBlock
350
1F
  3
ByLayer
350
20
  3
Global
350
21
  0
DICTIONARY
  5
F
330
A
100
AcDbDictionary
281
1
  3
Standard
350
2C
  0
DICTIONARY
  5
10
330
A
100
AcDbDictionary
281
1
  3
Standard
350
22
  0
DICTIONARY
  5
11
330
A
100
AcDbDictionary
281
1
  0
ACDBDICTIONARYWDFLT
  5
12
330
A
100
AcDbDictionary
281
1
  3
Normal
350
13
100
AcDbDictionaryWithDefault
340
13
  0
ACDBPLACEHOLDER
  5
13
330
12
  0
DICTIONARY
  5
14
330
A
100
AcDbDictionary
281
1
  0
DICTIONARY
  5
15
330
A
100
AcDbDictionary
281
1
  0
DICTIONARY
  5
16
330
A
100
AcDbDictionary
281
1
  0
LAYOUT
  5
1A
330
D
100
AcDbPlotSettings
  1

  4
A3
  6

 40
7.5
 41
20.0
 42
7.5
 43
20.0
 44
420.0
 45
297.0
 46
0.0
 47
0.0
 48
0.0
 49
0.0
140
0.0
141
0.0
142
1.0
143
1.0
 70
1024
 72
1
 73
0
 74
5
  7

 75
16
 76
0
 77
2
 78
300
147
1.0
148
0.0
149
0.0
100
AcDbLayout
  1
Model
 70
1
 71
0
 10
0.0
 20
0.0
 11
420.0
 21
297.0
 12
0.0
 22
0.0
 32
0.0
 14
1e+20
 24
1e+20
 34
1e+20
 15
-1e+20
 25
-1e+20
 35
-1e+20
146
0.0
 13
0.0
 23
0.0
 33
0.0
 16
1.0
 26
0.0
 36
0.0
 17
0.0
 27
1.0
 37
0.0
 76
1
330
17
  0
LAYOUT
  5
1E
330
D
100
AcDbPlotSettings
  1

  4
A3
  6

 40
7.5
 41
20.0
 42
7.5
 43
20.0
 44
420.0
 45
297.0
 46
0.0
 47
0.0
 48
0.0
 49
0.0
140
0.0
141
0.0
142
1.0
143
1.0
 70
0
 72
1
 73
0
 74
5
  7

 75
16
 76
0
 77
2
 78
300
147
1.0
148
0.0
149
0.0
100
AcDbLayout
  1
Layout1
 70
1
 71
1
 10
0.0
 20
0.0
 11
420.0
 21
297.0
 12
0.0
 22
0.0
 32
0.0
 14
1e+20
 24
1e+20
 34
1e+20
 15
-1e+20
 25
-1e+20
 35
-1e+20
146
0.0
 13
0.0
 23
0.0
 33
0.0
 16
1.0
 26
0.0
 36
0.0
 17
0.0
 27
1.0
 37
0.0
 76
1
330
1B
  0
MATERIAL
  5
1F
102
{ACAD_REACTORS
330
E
102
}
330
E
100
AcDbMaterial
  1
ByBlock
  2

 70
0
 40
1.0
 71
1
 41
1.0
 91
-1023410177
 42
1.0
 72
1
  3

 73
1
 74
1
 75
1
 44
0.5
 73
0
 45
1.0
 46
1.0
 77
1
  4

 78
1
 79
1
170
1
 48
1.0
171
1
  6

172
1
173
1
174
1
140
1.0
141
1.0
175
1
  7

176
1
177
1
178
1
143
1.0
179
1
  8

270
1
271
1
272
1
145
1.0
146
1.0
273
1
  9

274
1
275
1
276
1
 42
1.0
 72
1
  3

 73
1
 74
1
 75
1
 94
63
  0
MATERIAL
  5
20
102
{ACAD_REACTORS
330
E
102
}
330
E
100
AcDbMaterial
  1
ByLayer
  2

 70
0
 40
1.0
 71
1
 41
1.0
 91
-1023410177
 42
1.0
 72
1
  3

 73
1
 74
1
 75
1
 44
0.5
 73
0
 45
1.0
 46
1.0
 77
1
  4

 78
1
 79
1
170
1
 48
1.0
171
1
  6

172
1
173
1
174
1
140
1.0
141
1.0
175
1
  7

176
1
177
1
178
1
143
1.0
179
1
  8

270
1
271
1
272
1
145
1.0
146
1.0
273
1
  9

274
1
275
1
276
1
 42
1.0
 72
1
  3

 73
1
 74
1
 75
1
 94
63
  0
MATERIAL
  5
21
102
{ACAD_REACTORS
330
E
102
}
330
E
100
AcDbMaterial
  1
Global
  2

 70
0
 40
1.0
 71
1
 41
1.0
 91
-1023410177
 42
1.0
 72
1
  3

 73
1
 74
1
 75
1
 44
0.5
 73
0
 45
1.0
 46
1.0
 77
1
  4

 78
1
 79
1
170
1
 48
1.0
171
1
  6

172
1
173
1
174
1
140
1.0
141
1.0
175
1
  7

176
1
177
1
178
1
143
1.0
179
1
  8

270
1
271
1
272
1
145
1.0
146
1.0
273
1
  9

274
1
275
1
276
1
 42
1.0
 72
1
  3

 73
1
 74
1
 75
1
 94
63
  0
MLINESTYLE
  5
22
102
{ACAD_REACTORS
330
10
102
}
330
10
100
AcDbMlineStyle
  2
Standard
 70
0
  3

 62
256
 51
90.0
 52
90.0
 71
2
 49
0.5
 62
256
  6
BYLAYER
 49
-0.5
 62
256
  6
BYLAYER
  0
MLEADERSTYLE
  5
2C
102
{ACAD_REACTORS
330
F
102
}
330
F
100
AcDbMLeaderStyle
179
2
170
2
171
1
172
0
 90
2
 40
0.0
 41
0.0
173
1
 91
-1056964608
 92
-2
290
1
 42
2.0
291
1
 43
8.0
  3
Standard
 44
4.0
300

342
29
174
1
175
1
176
0
178
1
 93
-1056964608
 45
4.0
292
0
297
0
 46
4.0
 94
-1056964608
 47
1.0
 49
1.0
140
1.0
294
1
141
0.0
177
0
142
1.0
295
0
296
0
143
3.75
271
0
272
9
273
9
  0
DICTIONARY
  5
2D
330
A
100
AcDbDictionary
280
1
281
1
  3
CREATED_BY_EZDXF
350
2E
  3
WRITTEN_BY_EZDXF
350
A2
  0
DICTIONARYVAR
  5
2E
330
2D
100
DictionaryVariables
280
0
  1
1.4.4 @ 2026-10-04T18:28:59.932614+00:00
  0
DICTIONARYVAR
  5
A2
330
2D
100
DictionaryVariables
280
0
  1
1.4.4 @ 2026-10-04T18:28:59.936296+00:00
  0
ENDSEC
  0
EOF
