  0
SECTION
  2
HEADER
  9
$ACADVER
  1
AC1024
  9
$ACADMAINTVER
 70
6
  9
$DWGCODEPAGE
  3
ANSI_1252
  9
$LASTSAVEDBY
  1
ezdxf
  9
$INSBASE
 10
0.0
 20
0.0
 30
0.0
  9
$EXTMIN
 10
1e+20
 20
1e+20
 30
1e+20
  9
$EXTMAX
 10
-1e+20
 20
-1e+20
 30
-1e+20
  9
$LIMMIN
 10
0.0
 20
0.0
  9
$LIMMAX
 10
420.0
 20
297.0
  9
$ORTHOMODE
 70
0
  9
$REGENMODE
 70
1
  9
$FILLMODE
 70
1
  9
$QTEXTMODE
 70
0
  9
$MIRRTEXT
 70
1
  9
$LTSCALE
 40
1.0
  9
$ATTMODE
 70
1
  9
$TEXTSIZE
 40
2.5
  9
$TRACEWID
 40
1.0
  9
$TEXTSTYLE
  7
Standard
  9
$CLAYER
  8
0
  9
$CELTYPE
  6
ByLayer
  9
$CECOLOR
 62
256
  9
$CELTSCALE
 40
1.0
  9
$DISPSILH
 70
0
  9
$DIMSCALE
 40
1.0
  9
$DIMASZ
 40
2.5
  9
$DIMEXO
 40
0.625
  9
$DIMDLI
 40
3.75
  9
$DIMRND
 40
0.0
  9
$DIMDLE
 40
0.0
  9
$DIMEXE
 40
1.25
  9
$DIMTP
 40
0.0
  9
$DIMTM
 40
0.0
  9
$DIMTXT
 40
2.5
  9
$DIMCEN
 40
2.5
  9
$DIMTSZ
 40
0.0
  9
$DIMTOL
 70
0
  9
$DIMLIM
 70
0
  9
$DIMTIH
 70
0
  9
$DIMTOH
 70
0
  9
$DIMSE1
 70
0
  9
$DIMSE2
 70
0
  9
$DIMTAD
 70
1
  9
$DIMZIN
 70
8
  9
$DIMBLK
  1

  9
$DIMASO
 70
1
  9
$DIMSHO
 70
1
  9
$DIMPOST
  1

  9
$DIMAPOST
  1

  9
$DIMALT
 70
0
  9
$DIMALTD
 70
3
  9
$DIMALTF
 40
0.03937007874
  9
$DIMLFAC
 40
1.0
  9
$DIMTOFL
 70
1
  9
$DIMTVP
 40
0.0
  9
$DIMTIX
 70
0
  9
$DIMSOXD
 70
0
  9
$DIMSAH
 70
0
  9
$DIMBLK1
  1

  9
$DIMBLK2
  1

  9
$DIMSTYLE
  2
ISO-25
  9
$DIMCLRD
 70
0
  9
$DIMCLRE
 70
0
  9
$DIMCLRT
 70
0
  9
$DIMTFAC
 40
1.0
  9
$DIMGAP
 40
0.625
  9
$DIMJUST
 70
0
  9
$DIMSD1
 70
0
  9
$DIMSD2
 70
0
  9
$DIMTOLJ
 70
0
  9
$DIMTZIN
 70
8
  9
$DIMALTZ
 70
0
  9
$DIMALTTZ
 70
0
  9
$DIMUPT
 70
0
  9
$DIMDEC
 70
2
  9
$DIMTDEC
 70
2
  9
$DIMALTU
 70
2
  9
$DIMALTTD
 70
3
  9
$DIMTXSTY
  7
Standard
  9
$DIMAUNIT
 70
0
  9
$DIMADEC
 70
0
  9
$DIMALTRND
 40
0.0
  9
$DIMAZIN
 70
0
  9
$DIMDSEP
 70
44
  9
$DIMATFIT
 70
3
  9
$DIMFRAC
 70
0
  9
$DIMLDRBLK
  1

  9
$DIMLUNIT
 70
2
  9
$DIMLWD
 70
-2
  9
$DIMLWE
 70
-2
  9
$DIMTMOVE
 70
0
  9
$DIMFXL
 40
1.0
  9
$DIMFXLON
 70
0
  9
$DIMJOGANG
 40
0.785398163397
  9
$DIMTFILL
 70
0
  9
$DIMTFILLCLR
 70
0
  9
$DIMARCSYM
 70
0
  9
$DIMLTYPE
  6

  9
$DIMLTEX1
  6

  9
$DIMLTEX2
  6

  9
$DIMTXTDIRECTION
 70
0
  9
$LUNITS
 70
2
  9
$LUPREC
 70
4
  9
$SKETCHINC
 40
1.0
  9
$FILLETRAD
 40
10.0
  9
$AUNITS
 70
0
  9
$AUPREC
 70
2
  9
$MENU
  1
.
  9
$ELEVATION
 40
0.0
  9
$PELEVATION
 40
0.0
  9
$THICKNESS
 40
0.0
  9
$LIMCHECK
 70
0
  9
$CHAMFERA
 40
0.0
  9
$CHAMFERB
 40
0.0
  9
$CHAMFERC
 40
0.0
  9
$CHAMFERD
 40
0.0
  9
$SKPOLY
 70
0
  9
$TDCREATE
 40
2461318.770138889
  9
$TDUCREATE
 40
2458532.153996898
  9
$TDUPDATE
 40
2461318.770138889
  9
$TDUUPDATE
 40
2458532.1544311
  9
$TDINDWG
 40
0.0
  9
$TDUSRTIMER
 40
0.0
  9
$USRTIMER
 70
1
  9
$ANGBASE
 50
0.0
  9
$ANGDIR
 70
0
  9
$PDMODE
 70
0
  9
$PDSIZE
 40
0.0
  9
$PLINEWID
 40
0.0
  9
$SPLFRAME
 70
0
  9
$SPLINETYPE
 70
6
  9
$SPLINESEGS
 70
8
  9
$HANDSEED
  5
B9
  9
$SURFTAB1
 70
6
  9
$SURFTAB2
 70
6
  9
$SURFTYPE
 70
6
  9
$SURFU
 70
6
  9
$SURFV
 70
6
  9
$UCSBASE
  2

  9
$UCSNAME
  2

  9
$UCSORG
 10
0.0
 20
0.0
 30
0.0
  9
$UCSXDIR
 10
1.0
 20
0.0
 30
0.0
  9
$UCSYDIR
 10
0.0
 20
1.0
 30
0.0
  9
$UCSORTHOREF
  2

  9
$UCSORTHOVIEW
 70
0
  9
$UCSORGTOP
 10
0.0
 20
0.0
 30
0.0
  9
$UCSORGBOTTOM
 10
0.0
 20
0.0
 30
0.0
  9
$UCSORGLEFT
 10
0.0
 20
0.0
 30
0.0
  9
$UCSORGRIGHT
 10
0.0
 20
0.0
 30
0.0
  9
$UCSORGFRONT
 10
0.0
 20
0.0
 30
0.0
  9
$UCSORGBACK
 10
0.0
 20
0.0
 30
0.0
  9
$PUCSBASE
  2

  9
$PUCSNAME
  2

  9
$PUCSORG
 10
0.0
 20
0.0
 30
0.0
  9
$PUCSXDIR
 10
1.0
 20
0.0
 30
0.0
  9
$PUCSYDIR
 10
0.0
 20
1.0
 30
0.0
  9
$PUCSORTHOREF
  2

  9
$PUCSORTHOVIEW
 70
0
  9
$PUCSORGTOP
 10
0.0
 20
0.0
 30
0.0
  9
$PUCSORGBOTTOM
 10
0.0
 20
0.0
 30
0.0
  9
$PUCSORGLEFT
 10
0.0
 20
0.0
 30
0.0
  9
$PUCSORGRIGHT
 10
0.0
 20
0.0
 30
0.0
  9
$PUCSORGFRONT
 10
0.0
 20
0.0
 30
0.0
  9
$PUCSORGBACK
 10
0.0
 20
0.0
 30
0.0
  9
$USERI1
 70
0
  9
$USERI2
 70
0
  9
$USERI3
 70
0
  9
$USERI4
 70
0
  9
$USERI5
 70
0
  9
$USERR1
 40
0.0
  9
$USERR2
 40
0.0
  9
$USERR3
 40
0.0
  9
$USERR4
 40
0.0
  9
$USERR5
 40
0.0
  9
$WORLDVIEW
 70
1
  9
$SHADEDGE
 70
3
  9
$SHADEDIF
 70
70
  9
$TILEMODE
 70
1
  9
$MAXACTVP
 70
64
  9
$PINSBASE
 10
0.0
 20
0.0
 30
0.0
  9
$PLIMCHECK
 70
0
  9
$PEXTMIN
 10
1e+20
 20
1e+20
 30
1e+20
  9
$PEXTMAX
 10
-1e+20
 20
-1e+20
 30
-1e+20
  9
$PLIMMIN
 10
0.0
 20
0.0
  9
$PLIMMAX
 10
420.0
 20
297.0
  9
$UNITMODE
 70
0
  9
$VISRETAIN
 70
1
  9
$PLINEGEN
 70
0
  9
$PSLTSCALE
 70
1
  9
$TREEDEPTH
 70
3020
  9
$CMLSTYLE
  2
Standard
  9
$CMLJUST
 70
0
  9
$CMLSCALE
 40
20.0
  9
$PROXYGRAPHICS
 70
1
  9
$MEASUREMENT
 70
1
  9
$CELWEIGHT
370
-1
  9
$ENDCAPS
280
0
  9
$JOINSTYLE
280
0
  9
$LWDISPLAY
290
0
  9
$INSUNITS
 70
4
  9
$HYPERLINKBASE
  1

  9
$STYLESHEET
  1

  9
$XEDIT
290
1
  9
$CEPSNTYPE
380
0
  9
$PSTYLEMODE
290
1
  9
$FINGERPRINTGUID
  2
{205FF099-F24B-4D21-88BF-DFBD6F380577}
  9
$VERSIONGUID
  2
{5CA52666-82E2-4EEA-B90D-74D4BD9B901E}
  9
$EXTNAMES
290
1
  9
$PSVPSCALE
 40
0.0
  9
$OLESTARTUP
290
0
  9
$SORTENTS
280
127
  9
$INDEXCTL
280
0
  9
$HIDETEXT
280
1
  9
$XCLIPFRAME
280
1
  9
$HALOGAP
280
0
  9
$OBSCOLOR
 70
257
  9
$OBSLTYPE
280
0
  9
$INTERSECTIONDISPLAY
280
0
  9
$INTERSECTIONCOLOR
 70
257
  9
$DIMASSOC
280
2
  9
$PROJECTNAME
  1

  9
$CAMERADISPLAY
290
0
  9
$LENSLENGTH
 40
50.0
  9
$CAMERAHEIGHT
 40
0.0
  9
$STEPSPERSEC
 40
24.0
  9
$STEPSIZE
 40
100.0
  9
$3DDWFPREC
 40
2.0
  9
$PSOLWIDTH
 40
0.005
  9
$PSOLHEIGHT
 40
0.08
  9
$LOFTANG1
 40
1.570796326795
  9
$LOFTANG2
 40
1.570796326795
  9
$LOFTMAG1
 40
0.0
  9
$LOFTMAG2
 40
0.0
  9
$LOFTPARAM
 70
7
  9
$LOFTNORMALS
280
1
  9
$LATITUDE
 40
37.795
  9
$LONGITUDE
 40
-122.394
  9
$NORTHDIRECTION
 40
0.0
  9
$TIMEZONE
 70
-8000
  9
$LIGHTGLYPHDISPLAY
280
1
  9
$TILEMODELIGHTSYNCH
280
1
  9
$CMATERIAL
347
20
  9
$SOLIDHIST
280
0
  9
$SHOWHIST
280
1
  9
$DWFFRAME
280
2
  9
$DGNFRAME
280
2
  9
$REALWORLDSCALE
290
1
  9
$INTERFERECOLOR
 62
256
  9
$CSHADOW
280
0
  9
$SHADOWPLANELOCATION
 40
0.0
  0
ENDSEC
  0
SECTION
  2
CLASSES
  0
CLASS
  1
ACDBDICTIONARYWDFLT
  2
AcDbDictionaryWithDefault
  3
ObjectDBX Classes
 90
0
 91
0
280
0
281
0
  0
CLASS
  1
SUN
  2
AcDbSun
  3
SCENEOE
 90
1153
 91
0
280
0
281
0
  0
CLASS
  1
VISUALSTYLE
  2
AcDbVisualStyle
  3
ObjectDBX Classes
 90
4095
 91
0
280
0
281
0
  0
CLASS
  1
MATERIAL
  2
AcDbMaterial
  3
ObjectDBX Classes
 90
1153
 91
0
280
0
281
0
  0
CLASS
  1
SCALE
  2
AcDbScale
  3
ObjectDBX Classes
 90
1153
 91
0
280
0
281
0
  0
CLASS
  1
TABLESTYLE
  2
AcDbTableStyle
  3
ObjectDBX Classes
 90
4095
 91
0
280
0
281
0
  0
CLASS
  1
MLEADERSTYLE
  2
AcDbMLeaderStyle
  3
ACDB_MLEADERSTYLE_CLASS
 90
4095
 91
0
280
0
281
0
  0
CLASS
  1
DICTIONARYVAR
  2
AcDbDictionaryVar
  3
ObjectDBX Classes
 90
0
 91
0
280
0
281
0
  0
CLASS
  1
CELLSTYLEMAP
  2
AcDbCellStyleMap
  3
ObjectDBX Classes
 90
1152
 91
0
280
0
281
0
  0
CLASS
  1
MENTALRAYRENDERSETTINGS
  2
AcDbMentalRayRenderSettings
  3
SCENEOE
 90
1024
 91
0
280
0
281
0
  0
CLASS
  1
ACDBDETAILVIEWSTYLE
  2
AcDbDetailViewStyle
  3
ObjectDBX Classes
 90
1025
 91
0
280
0
281
0
  0
CLASS
  1
ACDBSECTIONVIEWSTYLE
  2
AcDbSectionViewStyle
  3
ObjectDBX Classes
 90
1025
 91
0
280
0
281
0
  0
CLASS
  1
RASTERVARIABLES
  2
AcDbRasterVariables
  3
ISM
 90
0
 91
0
280
0
281
0
  0
CLASS
  1
LAYOUT
  2
AcDbLayout
  3
ObjectDBX Classes
 90
0
 91
0
280
0
281
0
  0
CLASS
  1
ACDBPLACEHOLDER
  2
AcDbPlaceHolder
  3
ObjectDBX Classes
 90
0
 91
0
280
0
281
0
  0
ENDSEC
  0
SECTION
  2
TABLES
  0
TABLE
  2
VPORT
  5
8
330
0
100
AcDbSymbolTable
 70
1
  0
VPORT
  5
23
330
8
100
AcDbSymbolTableRecord
100
AcDbViewportTableRecord
  2
*Active
 70
0
 10
0.0
 20
0.0
 11
1.0
 21
1.0
 12
0.0
 22
0.0
 13
0.0
 23
0.0
 14
0.5
 24
0.5
 15
0.5
 25
0.5
 16
0.0
 26
0.0
 36
1.0
 17
0.0
 27
0.0
 37
0.0
 40
1000.0
 41
1.34
 42
50.0
 43
0.0
 44
0.0
 50
0.0
 51
0.0
 71
0
 72
1000
 73
1
 74
3
 75
0
 76
0
 77
0
 78
0
281
0
 65
0
146
0.0
  0
ENDTAB
  0
TABLE
  2
LTYPE
  5
2
330
0
100
AcDbSymbolTable
 70
3
  0
LTYPE
  5
24
330
2
100
AcDbSymbolTableRecord
100
AcDbLinetypeTableRecord
  2
ByBlock
 70
0
  3

 72
65
 73
0
 40
0.0
  0
LTYPE
  5
25
330
2
100
AcDbSymbolTableRecord
100
AcDbLinetypeTableRecord
  2
ByLayer
 70
0
  3

 72
65
 73
0
 40
0.0
  0
LTYPE
  5
26
330
2
100
AcDbSymbolTableRecord
100
AcDbLinetypeTableRecord
  2
Continuous
 70
0
  3

 72
65
 73
0
 40
0.0
  0
ENDTAB
  0
TABLE
  2
LAYER
  5
1
330
0
100
AcDbSymbolTable
 70
8
  0
LAYER
  5
27
330
1
100
AcDbSymbolTableRecord
100
AcDbLayerTableRecord
  2
0
 70
0
 62
7
  6
Continuous
370
-3
390
13
347
21
  0
LAYER
  5
28
330
1
100
AcDbSymbolTableRecord
100
AcDbLayerTableRecord
  2
Defpoints
 70
0
 62
7
  6
Continuous
290
0
370
-3
390
13
347
21
  0
LAYER
  5
2F
330
1
100
AcDbSymbolTableRecord
100
AcDbLayerTableRecord
  2
CUT
 70
0
 62
1
  6
Continuous
370
-3
390
13
347
21
  0
LAYER
  5
30
330
1
100
AcDbSymbolTableRecord
100
AcDbLayerTableRecord
  2
SEW
 70
0
 62
5
  6
Continuous
370
-3
390
13
347
21
  0
LAYER
  5
31
330
1
100
AcDbSymbolTableRecord
100
AcDbLayerTableRecord
  2
GRAIN
 70
0
 62
3
  6
Continuous
370
-3
390
13
347
21
  0
LAYER
  5
32
330
1
100
AcDbSymbolTableRecord
100
AcDbLayerTableRecord
  2
NOTCH
 70
0
 62
2
  6
Continuous
370
-3
390
13
347
21
  0
LAYER
  5
33
330
1
100
AcDbSymbolTableRecord
100
AcDbLayerTableRecord
  2
LABEL
 70
0
 62
7
  6
Continuous
370
-3
390
13
347
21
  0
LAYER
  5
34
330
1
100
AcDbSymbolTableRecord
100
AcDbLayerTableRecord
  2
ATTACHMENT
 70
0
 62
4
  6
Continuous
370
-3
390
13
347
21
  0
ENDTAB
  0
TABLE
  2
STYLE
  5
5
330
0
100
AcDbSymbolTable
 70
1
  0
STYLE
  5
29
330
5
100
AcDbSymbolTableRecord
100
AcDbTextStyleTableRecord
  2
Standard
 70
0
 40
0.0
 41
1.0
 50
0.0
 71
0
 42
2.5
  3
txt
  4

  0
ENDTAB
  0
TABLE
  2
VIEW
  5
7
330
0
100
AcDbSymbolTable
 70
0
  0
ENDTAB
  0
TABLE
  2
UCS
  5
6
330
0
100
AcDbSymbolTable
 70
0
  0
ENDTAB
  0
TABLE
  2
APPID
  5
3
330
0
100
AcDbSymbolTable
 70
3
  0
APPID
  5
2A
330
3
100
AcDbSymbolTableRecord
100
AcDbRegAppTableRecord
  2
ACAD
 70
0
  0
APPID
  5
B6
330
3
100
AcDbSymbolTableRecord
100
AcDbRegAppTableRecord
  2
HATCHBACKGROUNDCOLOR
 70
0
  0
APPID
  5
B7
330
3
100
AcDbSymbolTableRecord
100
AcDbRegAppTableRecord
  2
EZDXF
 70
0
  0
ENDTAB
  0
TABLE
  2
DIMSTYLE
  5
4
330
0
100
AcDbSymbolTable
 70
1
100
AcDbDimStyleTable
  0
DIMSTYLE
105
2B
330
4
100
AcDbSymbolTableRecord
100
AcDbDimStyleTableRecord
  2
Standard
 70
0
 40
1.0
 41
2.5
 42
0.625
 43
3.75
 44
1.25
 45
0.0
 46
0.0
 47
0.0
 48
0.0
 49
2.5
140
2.5
141
2.5
142
0.0
143
0.03937007874
144
1.0
145
0.0
146
1.0
147
0.625
148
0.0
 69
0
 70
0
 71
0
 72
0
 73
0
 74
0
 75
0
 76
0
 77
1
 78
8
 79
3
170
0
171
3
172
1
173
0
174
0
175
0
176
0
177
0
178
0
179
2
271
2
272
2
273
2
274
3
275
0
276
0
277
2
278
44
279
0
280
0
281
0
282
0
283
0
284
8
285
0
286
0
288
0
289
3
290
0
371
-2
372
-2
  0
ENDTAB
  0
TABLE
  2
BLOCK_RECORD
  5
9
330
0
100
AcDbSymbolTable
 70
2
  0
BLOCK_RECORD
  5
17
330
9
100
AcDbSymbolTableRecord
100
AcDbBlockTableRecord
  2
*Model_Space
340
1A
 70
0
280
1
281
0
  0
BLOCK_RECORD
  5
1B
330
9
100
AcDbSymbolTableRecord
100
AcDbBlockTableRecord
  2
*Paper_Space
340
1E
 70
0
280
1
281
0
  0
ENDTAB
  0
ENDSEC
  0
SECTION
  2
BLOCKS
  0
BLOCK
  5
18
330
17
100
AcDbEntity
  8
0
100
AcDbBlockBegin
  2
*Model_Space
 70
0
 10
0.0
 20
0.0
 30
0.0
  3
*Model_Space
  1

  0
ENDBLK
  5
19
330
17
100
AcDbEntity
  8
0
100
AcDbBlockEnd
  0
BLOCK
  5
1C
330
1B
100
AcDbEntity
  8
0
100
AcDbBlockBegin
  2
*Paper_Space
 70
0
 10
0.0
 20
0.0
 30
0.0
  3
*Paper_Space
  1

  0
ENDBLK
  5
1D
330
1B
100
AcDbEntity
  8
0
100
AcDbBlockEnd
  0
ENDSEC
  0
SECTION
  2
ENTITIES
  0
LWPOLYLINE
  5
35
330
17
100
AcDbEntity
  8
CUT
100
AcDbPolyline
 90
101
 70
1
 10
-12.005059983661281
 20
2.9723656337449533
 10
24.128556649636284
 20
71.18833322654488
 10
59.05105820986221
 20
133.2708101258079
 10
96.36945985662697
 20
191.041281520218
 10
139.66388260409866
 20
244.32004496429315
 10
198.92915590688284
 20
297.3991962869587
 10
273.04944019537834
 20
347.5447372089256
 10
353.74341894703065
 20
390.6605373296392
 10
432.026816205951
 20
422.6018945929361
 10
506.9063791233368
 20
444.39425022635515
 10
587.2037709539509
 20
464.06887314193017
 10
666.1288457233195
 20
480.07524513228935
 10
736.3769329397883
 20
490.4654095236234
 10
792.2348830197202
 20
493.18452850828123
 10
841.0753433821095
 20
486.91163406128754
 10
886.7672586887961
 20
473.8693873606167
 10
929.2882955171484
 20
456.93497662258966
 10
968.8400374245238
 20
438.89044994754687
 10
1006.0496833250612
 20
422.2792674597357
 10
1042.579571620097
 20
406.37548480272704
 10
1078.9225326180879
 20
389.28639232787816
 10
1114.6463199686752
 20
371.2639082996463
 10
1144.2462673134187
 20
355.43788008601075
 10
1414.4814151641738
 20
489.40041427285735
 10
1481.07981018696
 20
489.51340060197737
 10
1541.9128015893655
 20
489.58878897130955
 10
1601.0924811619982
 20
487.9656208971664
 10
1659.326004376629
 20
484.3036291552787
 10
1716.4194859153768
 20
479.50462696071816
 10
1772.375253656366
 20
474.45865226904044
 10
1827.4961602170126
 20
469.87111395426433
 10
1882.491269481602
 20
465.17311157204557
 10
1937.3126357205974
 20
460.13687973907355
 10
1991.8588336591051
 20
454.68890854480793
 10
2046.0951604640516
 20
448.75443085471125
 10
2100.046985088474
 20
442.26025387428797
 10
2153.8711221611193
 20
435.231171333631
 10
2207.7107284296544
 20
427.620656539111
 10
2261.601657000147
 20
419.1511034386854
 10
2315.548222199167
 20
409.5455310896024
 10
2369.5559181831936
 20
398.52565787437845
 10
2423.6941134932404
 20
385.7608910279498
 10
2477.9880701153693
 20
370.27125364806193
 10
2532.382604349522
 20
351.2792898463307
 10
2586.843931201621
 20
328.19277970872514
 10
2641.4827026081216
 20
300.35903473489884
 10
2696.7846570967104
 20
265.14800053981486
 10
2754.341471470215
 20
215.38055977915383
 10
2815.9490957815065
 20
145.95064954198753
 10
2959.183906739251
 20
5.036456899446412
 10
2959.279549568347
 20
-51.33902642595916
 10
2799.173400642445
 20
68.81102303871458
 10
2737.545053773626
 20
138.26428696505664
 10
2682.5162743667383
 20
185.84582095149065
 10
2629.66525126301
 20
219.49633473458914
 10
2576.8028388324965
 20
246.42517790614502
 10
2523.836159252364
 20
268.87809735856365
 10
2470.8359659803345
 20
287.38322413792196
 10
2417.746644802073
 20
302.52918853169234
 10
2364.503587252709
 20
315.0828987526625
 10
2311.1466268668737
 20
325.9699941543167
 10
2257.7363755104934
 20
335.48007198214
 10
2204.269677565367
 20
343.8829525663615
 10
2150.7393296561686
 20
351.4497520464098
 10
2097.160686762469
 20
358.4467746425715
 10
2043.4575487555906
 20
364.9110172339684
 10
1989.462729989034
 20
370.8190693869716
 10
1935.1240156924312
 20
376.24631750708903
 10
1880.4738777083464
 20
381.2668192470837
 10
1825.5812789078511
 20
385.9560645887045
 10
1770.4039781896286
 20
390.5482964104411
 10
1714.4383792343283
 20
395.5951576605668
 10
1657.669356172798
 20
400.366887443247
 10
1600.1117968820051
 20
403.986371465006
 10
1541.7003900193604
 20
405.5884675133441
 10
1481.2195749953564
 20
405.51351683225874
 10
1419.8057171126877
 20
405.4093262379225
 10
1143.4561523937875
 20
290.6798055772114
 10
1103.646149410689
 20
311.9647836569888
 10
1068.4736589445529
 20
329.70914097941187
 10
1032.7456139476703
 20
346.50908925360574
 10
996.4321107713365
 20
362.31866571238425
 10
959.0317624538889
 20
379.01498184152683
 10
919.9263120008408
 20
396.8558988229356
 10
879.0783147298536
 20
413.124005511046
 10
836.2900761718504
 20
425.33743012708453
 10
791.34674057258
 20
431.10979177597557
 10
738.7862884980022
 20
428.5511922771814
 10
670.3371307923054
 20
418.4271016550555
 10
592.511245485575
 20
402.64365039652046
 10
513.1827568587797
 20
383.2064300259376
 10
439.9994088777758
 20
361.90772736916773
 10
364.02366949649286
 20
330.9079455521597
 10
285.5268301840179
 20
288.9661044598943
 10
213.79165031695098
 20
240.4341886409072
 10
157.1557527525989
 20
189.70995825130387
 10
115.88418522885048
 20
138.9205506666427
 10
79.6733702214638
 20
82.8646704509406
 10
44.863774028685825
 20
20.982907834825404
 10
-11.901150120727825
 20
-58.276018593527574
 10
-12.005059983661281
 20
2.9723656337449533
  0
LWPOLYLINE
  5
36
330
17
100
AcDbEntity
  8
SEW
100
AcDbPolyline
 90
100
 70
1
 10
0.0
 20
0.0
 10
34.66176085612357
 20
65.43727906527366
 10
69.3299801481128
 20
127.06771294532534
 10
106.0945884751885
 20
183.98088875038144
 10
148.37758361079855
 20
236.0149742647496
 10
206.32816904436663
 20
287.916665120884
 10
279.2559011221479
 20
337.2553934913611
 10
358.85131015421155
 20
379.78421409785057
 10
435.98087847431304
 20
411.25478363800295
 10
510.01233392350804
 20
432.80031278309747
 10
589.8252741522127
 20
452.3562344261764
 10
668.2007541902623
 20
468.2511460506235
 10
737.549376651345
 20
478.5082735573535
 10
791.7585777285999
 20
481.1471327990795
 10
838.6504757094298
 20
475.1245047511371
 10
882.8905526417747
 20
462.49666909278244
 10
924.5750696914445
 20
445.8954103797137
 10
963.9036658716562
 20
427.95268855148794
 10
1001.2086629806488
 20
411.29893924301103
 10
1037.6303587163336
 20
395.4422596851175
 10
1073.6658617137703
 20
378.4977393105961
 10
1109.1140006221322
 20
360.6143186352686
 10
1144.0386047806755
 20
341.94138775719006
 10
1417.3021617939323
 20
477.40518249134135
 10
1481.1001685454128
 20
477.51341787127143
 10
1541.7556999082312
 20
477.5885850690917
 10
1600.5512431258699
 20
475.9759530078511
 10
1658.4467843785817
 20
472.3352151260277
 10
1715.3780366787207
 20
467.54984913740736
 10
1771.3387200268655
 20
462.50343116650566
 10
1826.4878236663
 20
457.9135460982493
 10
1881.431677698847
 20
453.2199222363291
 10
1936.167429810386
 20
448.1915554498458
 10
1990.6098859279377
 20
442.75394579265463
 10
2044.7254587136918
 20
436.83268087110446
 10
2098.55294002934
 20
430.3534710851946
 10
2152.2543300125126
 20
423.3404185167853
 10
2205.939307101379
 20
415.75176137950115
 10
2259.6181203591887
 20
407.3155445371776
 10
2313.296528636889
 20
397.7577194487244
 10
2366.97885682182
 20
386.80423514028536
 10
2420.6694832515254
 20
374.14499660658595
 10
2474.361122151721
 20
358.82719571975684
 10
2528.0584859048117
 20
340.0786504292121
 10
2581.7724891209277
 20
317.30893563419994
 10
2635.5230810394337
 20
289.9276415615094
 10
2689.5995698355937
 20
255.4968675724171
 10
2745.892366725789
 20
206.82238019887015
 10
2807.243330497158
 20
137.68171854818135
 10
2947.192433981803
 20
-1.223145152369087e-13
 10
2947.238749247282
 20
-27.299960712356164
 10
2807.34512228942
 20
77.68180489465158
 10
2745.994158518052
 20
146.82246654534038
 10
2689.7013616278564
 20
195.49695391888733
 10
2635.624872831696
 20
229.9277279079796
 10
2581.87428091319
 20
257.3090219806702
 10
2528.160277697074
 20
280.0787367756823
 10
2474.462913943983
 20
298.82728206622704
 10
2420.771275043788
 20
314.14508295305615
 10
2367.0806486140827
 20
326.8043214867556
 10
2313.3983204291517
 20
337.75780579519466
 10
2259.719912151452
 20
347.3156308836478
 10
2206.0410988936424
 20
355.75184772597134
 10
2152.3561218047757
 20
363.3405048632555
 10
2098.654731821603
 20
370.35355743166485
 10
2044.8272505059554
 20
376.8327672175746
 10
1990.7116777202014
 20
382.7540321391249
 10
1936.2692216026496
 20
388.19164179631605
 10
1881.5334694911105
 20
393.2200085827994
 10
1826.5896154585637
 20
397.91363244471955
 10
1771.4405118191291
 20
402.50351751297586
 10
1715.4798284709843
 20
407.5499354838776
 10
1658.5485761708453
 20
412.335301472498
 10
1600.6530349181335
 20
415.9760393543213
 10
1541.8574917004946
 20
417.5886714155619
 10
1481.2019603376762
 20
417.5135042177417
 10
1417.4039535861957
 20
417.4052688378116
 10
1144.1030729157756
 20
303.9414424432879
 10
1109.1784687572322
 20
322.61437332136643
 10
1073.7303298488705
 20
340.49779399669393
 10
1037.6948268514338
 20
357.4423143712153
 10
1001.2731311157489
 20
373.29899392910886
 10
963.9681340067564
 20
389.95274323758576
 10
924.6395378265447
 20
407.89546506581155
 10
882.955020776875
 20
424.49672377888027
 10
838.7149438445301
 20
437.12455943723495
 10
791.8230458637003
 20
443.1471874851773
 10
737.6138447864455
 20
440.50832824345133
 10
668.2652223253626
 20
430.25120073672133
 10
589.8897422873132
 20
414.3562891122742
 10
510.0768020586085
 20
394.8003674691953
 10
436.04534660941357
 20
373.25483832410083
 10
358.91577828931196
 20
341.78426878394833
 10
279.32036925724833
 20
299.2554481774589
 10
206.39263717946704
 20
249.9167198069818
 10
148.442051745899
 20
198.0150289508474
 10
106.15905661028896
 20
145.98094343647927
 10
69.39444828321322
 20
89.06776763142317
 10
34.726228991224005
 20
27.43733375137148
 10
0.035627127292338336
 20
-20.99996977873542
  0
LINE
  5
37
330
17
100
AcDbEntity
  8
GRAIN
100
AcDbLine
 10
2653.1504302910844
 20
218.3750540534249
 30
0.0
 11
2733.1504302910844
 21
218.3750540534249
 31
0.0
  0
LINE
  5
38
330
17
100
AcDbEntity
  8
GRAIN
100
AcDbLine
 10
2733.1504302910844
 20
218.3750540534249
 30
0.0
 11
2728.1504302910844
 21
221.3750540534249
 31
0.0
  0
TEXT
  5
39
330
17
100
AcDbEntity
  8
LABEL
100
AcDbText
 10
2693.1504302910844
 20
218.3750540534249
 30
0.0
 40
6.0
  1
O08_SMOOTH_LOWER_LEFT
100
AcDbText
  0
CIRCLE
  5
3A
330
17
100
AcDbEntity
  8
NOTCH
100
AcDbCircle
 10
2947.2155916145425
 20
-13.649980356178142
 30
0.0
 40
1.0
  0
TEXT
  5
3B
330
17
100
AcDbEntity
  8
LABEL
100
AcDbText
 10
2949.2155916145425
 20
-11.649980356178142
 30
0.0
 40
3.0
  1
J1057
100
AcDbText
  0
CIRCLE
  5
3C
330
17
100
AcDbEntity
  8
NOTCH
100
AcDbCircle
 10
87.77675244675109
 20
117.52435553395122
 30
0.0
 40
1.0
  0
TEXT
  5
3D
330
17
100
AcDbEntity
  8
LABEL
100
AcDbText
 10
89.77675244675109
 20
119.52435553395122
 30
0.0
 40
3.0
  1
J1068
100
AcDbText
  0
CIRCLE
  5
3E
330
17
100
AcDbEntity
  8
NOTCH
100
AcDbCircle
 10
177.41734446268302
 20
223.9658743789146
 30
0.0
 40
1.0
  0
TEXT
  5
3F
330
17
100
AcDbEntity
  8
LABEL
100
AcDbText
 10
179.41734446268302
 20
225.9658743789146
 30
0.0
 40
3.0
  1
J1068
100
AcDbText
  0
CIRCLE
  5
40
330
17
100
AcDbEntity
  8
NOTCH
100
AcDbCircle
 10
242.8565032183577
 20
274.5860839922203
 30
0.0
 40
1.0
  0
TEXT
  5
41
330
17
100
AcDbEntity
  8
LABEL
100
AcDbText
 10
244.8565032183577
 20
276.5860839922203
 30
0.0
 40
3.0
  1
J1068
100
AcDbText
  0
CIRCLE
  5
42
330
17
100
AcDbEntity
  8
NOTCH
100
AcDbCircle
 10
17.38092805925817
 20
3.21868198631803
 30
0.0
 40
1.0
  0
TEXT
  5
43
330
17
100
AcDbEntity
  8
LABEL
100
AcDbText
 10
19.38092805925817
 20
5.21868198631803
 30
0.0
 40
3.0
  1
J1068
100
AcDbText
  0
CIRCLE
  5
44
330
17
100
AcDbEntity
  8
NOTCH
100
AcDbCircle
 10
319.1180737732801
 20
320.51985848070365
 30
0.0
 40
1.0
  0
TEXT
  5
45
330
17
100
AcDbEntity
  8
LABEL
100
AcDbText
 10
321.1180737732801
 20
322.51985848070365
 30
0.0
 40
3.0
  1
J1072
100
AcDbText
  0
CIRCLE
  5
46
330
17
100
AcDbEntity
  8
NOTCH
100
AcDbCircle
 10
397.48056244936276
 20
357.5195535540246
 30
0.0
 40
1.0
  0
TEXT
  5
47
330
17
100
AcDbEntity
  8
LABEL
100
AcDbText
 10
399.48056244936276
 20
359.5195535540246
 30
0.0
 40
3.0
  1
J1072
100
AcDbText
  0
CIRCLE
  5
48
330
17
100
AcDbEntity
  8
NOTCH
100
AcDbCircle
 10
473.06107433401104
 20
384.0276028966481
 30
0.0
 40
1.0
  0
TEXT
  5
49
330
17
100
AcDbEntity
  8
LABEL
100
AcDbText
 10
475.06107433401104
 20
386.0276028966481
 30
0.0
 40
3.0
  1
J1072
100
AcDbText
  0
CIRCLE
  5
4A
330
17
100
AcDbEntity
  8
NOTCH
100
AcDbCircle
 10
549.9832721729608
 20
404.57832829073476
 30
0.0
 40
1.0
  0
TEXT
  5
4B
330
17
100
AcDbEntity
  8
LABEL
100
AcDbText
 10
551.9832721729608
 20
406.57832829073476
 30
0.0
 40
3.0
  1
J1072
100
AcDbText
  0
CIRCLE
  5
4C
330
17
100
AcDbEntity
  8
NOTCH
100
AcDbCircle
 10
629.077482306338
 20
422.3037449244978
 30
0.0
 40
1.0
  0
TEXT
  5
4D
330
17
100
AcDbEntity
  8
LABEL
100
AcDbText
 10
631.077482306338
 20
424.3037449244978
 30
0.0
 40
3.0
  1
J1072
100
AcDbText
  0
CIRCLE
  5
4E
330
17
100
AcDbEntity
  8
NOTCH
100
AcDbCircle
 10
702.9395335559041
 20
435.37976449008636
 30
0.0
 40
1.0
  0
TEXT
  5
4F
330
17
100
AcDbEntity
  8
LABEL
100
AcDbText
 10
704.9395335559041
 20
437.37976449008636
 30
0.0
 40
3.0
  1
J1072
100
AcDbText
  0
CIRCLE
  5
50
330
17
100
AcDbEntity
  8
NOTCH
100
AcDbCircle
 10
764.7184453250729
 20
441.8277578643143
 30
0.0
 40
1.0
  0
TEXT
  5
51
330
17
100
AcDbEntity
  8
LABEL
100
AcDbText
 10
766.7184453250729
 20
443.8277578643143
 30
0.0
 40
3.0
  1
J1081
100
AcDbText
  0
CIRCLE
  5
52
330
17
100
AcDbEntity
  8
NOTCH
100
AcDbCircle
 10
860.8349823107026
 20
430.8106416080576
 30
0.0
 40
1.0
  0
TEXT
  5
53
330
17
100
AcDbEntity
  8
LABEL
100
AcDbText
 10
862.8349823107026
 20
432.8106416080576
 30
0.0
 40
3.0
  1
J1081
100
AcDbText
  0
CIRCLE
  5
54
330
17
100
AcDbEntity
  8
NOTCH
100
AcDbCircle
 10
944.3038359166505
 20
398.92410415169866
 30
0.0
 40
1.0
  0
TEXT
  5
55
330
17
100
AcDbEntity
  8
LABEL
100
AcDbText
 10
946.3038359166505
 20
400.92410415169866
 30
0.0
 40
3.0
  1
J1081
100
AcDbText
  0
CIRCLE
  5
56
330
17
100
AcDbEntity
  8
NOTCH
100
AcDbCircle
 10
1019.4839789835914
 20
365.37065415016207
 30
0.0
 40
1.0
  0
TEXT
  5
57
330
17
100
AcDbEntity
  8
LABEL
100
AcDbText
 10
1021.4839789835914
 20
367.37065415016207
 30
0.0
 40
3.0
  1
J1081
100
AcDbText
  0
CIRCLE
  5
58
330
17
100
AcDbEntity
  8
NOTCH
100
AcDbCircle
 10
1091.4543993030513
 20
331.55608365903015
 30
0.0
 40
1.0
  0
TEXT
  5
59
330
17
100
AcDbEntity
  8
LABEL
100
AcDbText
 10
1093.4543993030513
 20
333.55608365903015
 30
0.0
 40
3.0
  1
J1081
100
AcDbText
  0
CIRCLE
  5
5A
330
17
100
AcDbEntity
  8
NOTCH
100
AcDbCircle
 10
1280.7535132509856
 20
360.67335564054974
 30
0.0
 40
1.0
  0
TEXT
  5
5B
330
17
100
AcDbEntity
  8
LABEL
100
AcDbText
 10
1282.7535132509856
 20
362.67335564054974
 30
0.0
 40
3.0
  1
J1081
100
AcDbText
  0
CIRCLE
  5
5C
330
17
100
AcDbEntity
  8
NOTCH
100
AcDbCircle
 10
1449.302956961936
 20
417.45938652777664
 30
0.0
 40
1.0
  0
TEXT
  5
5D
330
17
100
AcDbEntity
  8
LABEL
100
AcDbText
 10
1451.302956961936
 20
419.45938652777664
 30
0.0
 40
3.0
  1
J1081
100
AcDbText
  0
CIRCLE
  5
5E
330
17
100
AcDbEntity
  8
NOTCH
100
AcDbCircle
 10
1511.5297260190855
 20
417.55108781665183
 30
0.0
 40
1.0
  0
TEXT
  5
5F
330
17
100
AcDbEntity
  8
LABEL
100
AcDbText
 10
1513.5297260190855
 20
419.55108781665183
 30
0.0
 40
3.0
  1
J1093
100
AcDbText
  0
CIRCLE
  5
60
330
17
100
AcDbEntity
  8
NOTCH
100
AcDbCircle
 10
1629.6008055444895
 20
414.15567041340967
 30
0.0
 40
1.0
  0
TEXT
  5
61
330
17
100
AcDbEntity
  8
LABEL
100
AcDbText
 10
1631.6008055444895
 20
416.15567041340967
 30
0.0
 40
3.0
  1
J1093
100
AcDbText
  0
CIRCLE
  5
62
330
17
100
AcDbEntity
  8
NOTCH
100
AcDbCircle
 10
1743.4601701450567
 20
405.02672649842674
 30
0.0
 40
1.0
  0
TEXT
  5
63
330
17
100
AcDbEntity
  8
LABEL
100
AcDbText
 10
1745.4601701450567
 20
407.02672649842674
 30
0.0
 40
3.0
  1
J1093
100
AcDbText
  0
CIRCLE
  5
64
330
17
100
AcDbEntity
  8
NOTCH
100
AcDbCircle
 10
1854.061542474837
 20
395.56682051375947
 30
0.0
 40
1.0
  0
TEXT
  5
65
330
17
100
AcDbEntity
  8
LABEL
100
AcDbText
 10
1856.061542474837
 20
397.56682051375947
 30
0.0
 40
3.0
  1
J1093
100
AcDbText
  0
CIRCLE
  5
66
330
17
100
AcDbEntity
  8
NOTCH
100
AcDbCircle
 10
1963.4904496614254
 20
385.47283696772047
 30
0.0
 40
1.0
  0
TEXT
  5
67
330
17
100
AcDbEntity
  8
LABEL
100
AcDbText
 10
1965.4904496614254
 20
387.47283696772047
 30
0.0
 40
3.0
  1
J1093
100
AcDbText
  0
CIRCLE
  5
68
330
17
100
AcDbEntity
  8
NOTCH
100
AcDbCircle
 10
2071.740991163779
 20
373.5931623246197
 30
0.0
 40
1.0
  0
TEXT
  5
69
330
17
100
AcDbEntity
  8
LABEL
100
AcDbText
 10
2073.740991163779
 20
375.5931623246197
 30
0.0
 40
3.0
  1
J1093
100
AcDbText
  0
CIRCLE
  5
6A
330
17
100
AcDbEntity
  8
NOTCH
100
AcDbCircle
 10
2179.198610349209
 20
359.5461762946134
 30
0.0
 40
1.0
  0
TEXT
  5
6B
330
17
100
AcDbEntity
  8
LABEL
100
AcDbText
 10
2181.198610349209
 20
361.5461762946134
 30
0.0
 40
3.0
  1
J1093
100
AcDbText
  0
CIRCLE
  5
6C
330
17
100
AcDbEntity
  8
NOTCH
100
AcDbCircle
 10
2286.559116290302
 20
342.5367183394212
 30
0.0
 40
1.0
  0
TEXT
  5
6D
330
17
100
AcDbEntity
  8
LABEL
100
AcDbText
 10
2288.559116290302
 20
344.5367183394212
 30
0.0
 40
3.0
  1
J1093
100
AcDbText
  0
CIRCLE
  5
6E
330
17
100
AcDbEntity
  8
NOTCH
100
AcDbCircle
 10
2393.925961828935
 20
320.4747022199059
 30
0.0
 40
1.0
  0
TEXT
  5
6F
330
17
100
AcDbEntity
  8
LABEL
100
AcDbText
 10
2395.925961828935
 20
322.4747022199059
 30
0.0
 40
3.0
  1
J1093
100
AcDbText
  0
CIRCLE
  5
70
330
17
100
AcDbEntity
  8
NOTCH
100
AcDbCircle
 10
2501.3115958205285
 20
289.4530094209547
 30
0.0
 40
1.0
  0
TEXT
  5
71
330
17
100
AcDbEntity
  8
LABEL
100
AcDbText
 10
2503.3115958205285
 20
291.4530094209547
 30
0.0
 40
3.0
  1
J1093
100
AcDbText
  0
CIRCLE
  5
72
330
17
100
AcDbEntity
  8
NOTCH
100
AcDbCircle
 10
2608.749576872443
 20
243.6183749443249
 30
0.0
 40
1.0
  0
TEXT
  5
73
330
17
100
AcDbEntity
  8
LABEL
100
AcDbText
 10
2610.749576872443
 20
245.6183749443249
 30
0.0
 40
3.0
  1
J1093
100
AcDbText
  0
CIRCLE
  5
74
330
17
100
AcDbEntity
  8
NOTCH
100
AcDbCircle
 10
2717.847760072954
 20
171.15971023211387
 30
0.0
 40
1.0
  0
TEXT
  5
75
330
17
100
AcDbEntity
  8
LABEL
100
AcDbText
 10
2719.847760072954
 20
173.15971023211387
 30
0.0
 40
3.0
  1
J1093
100
AcDbText
  0
CIRCLE
  5
76
330
17
100
AcDbEntity
  8
NOTCH
100
AcDbCircle
 10
2877.2919357683513
 20
25.190922091147705
 30
0.0
 40
1.0
  0
TEXT
  5
77
330
17
100
AcDbEntity
  8
LABEL
100
AcDbText
 10
2879.2919357683513
 20
27.190922091147705
 30
0.0
 40
3.0
  1
J1093
100
AcDbText
  0
CIRCLE
  5
78
330
17
100
AcDbEntity
  8
NOTCH
100
AcDbCircle
 10
87.71228431165065
 20
155.5243008478534
 30
0.0
 40
1.0
  0
TEXT
  5
79
330
17
100
AcDbEntity
  8
LABEL
100
AcDbText
 10
89.71228431165065
 20
157.5243008478534
 30
0.0
 40
3.0
  1
J1152
100
AcDbText
  0
CIRCLE
  5
7A
330
17
100
AcDbEntity
  8
NOTCH
100
AcDbCircle
 10
177.35287632758258
 20
261.9658196928168
 30
0.0
 40
1.0
  0
TEXT
  5
7B
330
17
100
AcDbEntity
  8
LABEL
100
AcDbText
 10
179.35287632758258
 20
263.9658196928168
 30
0.0
 40
3.0
  1
J1152
100
AcDbText
  0
CIRCLE
  5
7C
330
17
100
AcDbEntity
  8
NOTCH
100
AcDbCircle
 10
242.79203508325728
 20
312.58602930612255
 30
0.0
 40
1.0
  0
TEXT
  5
7D
330
17
100
AcDbEntity
  8
LABEL
100
AcDbText
 10
244.79203508325728
 20
314.58602930612255
 30
0.0
 40
3.0
  1
J1152
100
AcDbText
  0
CIRCLE
  5
7E
330
17
100
AcDbEntity
  8
NOTCH
100
AcDbCircle
 10
17.330880428061786
 20
32.71863953263683
 30
0.0
 40
1.0
  0
TEXT
  5
7F
330
17
100
AcDbEntity
  8
LABEL
100
AcDbText
 10
19.330880428061786
 20
34.71863953263683
 30
0.0
 40
3.0
  1
J1152
100
AcDbText
  0
CIRCLE
  5
80
330
17
100
AcDbEntity
  8
NOTCH
100
AcDbCircle
 10
319.05360563817976
 20
358.5198037946058
 30
0.0
 40
1.0
  0
TEXT
  5
81
330
17
100
AcDbEntity
  8
LABEL
100
AcDbText
 10
321.05360563817976
 20
360.5198037946058
 30
0.0
 40
3.0
  1
J1153
100
AcDbText
  0
CIRCLE
  5
82
330
17
100
AcDbEntity
  8
NOTCH
100
AcDbCircle
 10
397.4160943142623
 20
395.51949886792676
 30
0.0
 40
1.0
  0
TEXT
  5
83
330
17
100
AcDbEntity
  8
LABEL
100
AcDbText
 10
399.4160943142623
 20
397.51949886792676
 30
0.0
 40
3.0
  1
J1153
100
AcDbText
  0
CIRCLE
  5
84
330
17
100
AcDbEntity
  8
NOTCH
100
AcDbCircle
 10
472.9966061989105
 20
422.0275482105502
 30
0.0
 40
1.0
  0
TEXT
  5
85
330
17
100
AcDbEntity
  8
LABEL
100
AcDbText
 10
474.9966061989105
 20
424.0275482105502
 30
0.0
 40
3.0
  1
J1153
100
AcDbText
  0
CIRCLE
  5
86
330
17
100
AcDbEntity
  8
NOTCH
100
AcDbCircle
 10
549.9188040378604
 20
442.57827360463693
 30
0.0
 40
1.0
  0
TEXT
  5
87
330
17
100
AcDbEntity
  8
LABEL
100
AcDbText
 10
551.9188040378604
 20
444.57827360463693
 30
0.0
 40
3.0
  1
J1153
100
AcDbText
  0
CIRCLE
  5
88
330
17
100
AcDbEntity
  8
NOTCH
100
AcDbCircle
 10
629.0130141712375
 20
460.30369023839995
 30
0.0
 40
1.0
  0
TEXT
  5
89
330
17
100
AcDbEntity
  8
LABEL
100
AcDbText
 10
631.0130141712375
 20
462.30369023839995
 30
0.0
 40
3.0
  1
J1153
100
AcDbText
  0
CIRCLE
  5
8A
330
17
100
AcDbEntity
  8
NOTCH
100
AcDbCircle
 10
702.8750654208036
 20
473.3797098039885
 30
0.0
 40
1.0
  0
TEXT
  5
8B
330
17
100
AcDbEntity
  8
LABEL
100
AcDbText
 10
704.8750654208036
 20
475.3797098039885
 30
0.0
 40
3.0
  1
J1153
100
AcDbText
  0
CIRCLE
  5
8C
330
17
100
AcDbEntity
  8
NOTCH
100
AcDbCircle
 10
764.6539771899725
 20
479.8277031782165
 30
0.0
 40
1.0
  0
TEXT
  5
8D
330
17
100
AcDbEntity
  8
LABEL
100
AcDbText
 10
766.6539771899725
 20
481.8277031782165
 30
0.0
 40
3.0
  1
J1154
100
AcDbText
  0
CIRCLE
  5
8E
330
17
100
AcDbEntity
  8
NOTCH
100
AcDbCircle
 10
860.7705141756022
 20
468.8105869219598
 30
0.0
 40
1.0
  0
TEXT
  5
8F
330
17
100
AcDbEntity
  8
LABEL
100
AcDbText
 10
862.7705141756022
 20
470.8105869219598
 30
0.0
 40
3.0
  1
J1154
100
AcDbText
  0
CIRCLE
  5
90
330
17
100
AcDbEntity
  8
NOTCH
100
AcDbCircle
 10
944.2393677815503
 20
436.92404946560083
 30
0.0
 40
1.0
  0
TEXT
  5
91
330
17
100
AcDbEntity
  8
LABEL
100
AcDbText
 10
946.2393677815503
 20
438.92404946560083
 30
0.0
 40
3.0
  1
J1154
100
AcDbText
  0
CIRCLE
  5
92
330
17
100
AcDbEntity
  8
NOTCH
100
AcDbCircle
 10
1019.4195108484912
 20
403.3705994640643
 30
0.0
 40
1.0
  0
TEXT
  5
93
330
17
100
AcDbEntity
  8
LABEL
100
AcDbText
 10
1021.4195108484912
 20
405.3705994640643
 30
0.0
 40
3.0
  1
J1154
100
AcDbText
  0
CIRCLE
  5
94
330
17
100
AcDbEntity
  8
NOTCH
100
AcDbCircle
 10
1091.389931167951
 20
369.5560289729324
 30
0.0
 40
1.0
  0
TEXT
  5
95
330
17
100
AcDbEntity
  8
LABEL
100
AcDbText
 10
1093.389931167951
 20
371.5560289729324
 30
0.0
 40
3.0
  1
J1154
100
AcDbText
  0
CIRCLE
  5
96
330
17
100
AcDbEntity
  8
NOTCH
100
AcDbCircle
 10
1280.670383287304
 20
409.6732851242657
 30
0.0
 40
1.0
  0
TEXT
  5
97
330
17
100
AcDbEntity
  8
LABEL
100
AcDbText
 10
1282.670383287304
 20
411.6732851242657
 30
0.0
 40
3.0
  1
J1154
100
AcDbText
  0
CIRCLE
  5
98
330
17
100
AcDbEntity
  8
NOTCH
100
AcDbCircle
 10
1449.2011651696725
 20
477.4593001813064
 30
0.0
 40
1.0
  0
TEXT
  5
99
330
17
100
AcDbEntity
  8
LABEL
100
AcDbText
 10
1451.2011651696725
 20
479.4593001813064
 30
0.0
 40
3.0
  1
J1154
100
AcDbText
  0
CIRCLE
  5
9A
330
17
100
AcDbEntity
  8
NOTCH
100
AcDbCircle
 10
1511.427934226822
 20
477.5510014701816
 30
0.0
 40
1.0
  0
TEXT
  5
9B
330
17
100
AcDbEntity
  8
LABEL
100
AcDbText
 10
1513.427934226822
 20
479.5510014701816
 30
0.0
 40
3.0
  1
J1155
100
AcDbText
  0
CIRCLE
  5
9C
330
17
100
AcDbEntity
  8
NOTCH
100
AcDbCircle
 10
1629.499013752226
 20
474.1555840669394
 30
0.0
 40
1.0
  0
TEXT
  5
9D
330
17
100
AcDbEntity
  8
LABEL
100
AcDbText
 10
1631.499013752226
 20
476.1555840669394
 30
0.0
 40
3.0
  1
J1155
100
AcDbText
  0
CIRCLE
  5
9E
330
17
100
AcDbEntity
  8
NOTCH
100
AcDbCircle
 10
1743.3583783527931
 20
465.0266401519565
 30
0.0
 40
1.0
  0
TEXT
  5
9F
330
17
100
AcDbEntity
  8
LABEL
100
AcDbText
 10
1745.3583783527931
 20
467.0266401519565
 30
0.0
 40
3.0
  1
J1155
100
AcDbText
  0
CIRCLE
  5
A0
330
17
100
AcDbEntity
  8
NOTCH
100
AcDbCircle
 10
1853.9597506825735
 20
455.5667341672892
 30
0.0
 40
1.0
  0
TEXT
  5
A1
330
17
100
AcDbEntity
  8
LABEL
100
AcDbText
 10
1855.9597506825735
 20
457.5667341672892
 30
0.0
 40
3.0
  1
J1155
100
AcDbText
  0
CIRCLE
  5
A2
330
17
100
AcDbEntity
  8
NOTCH
100
AcDbCircle
 10
1963.3886578691618
 20
445.4727506212502
 30
0.0
 40
1.0
  0
TEXT
  5
A3
330
17
100
AcDbEntity
  8
LABEL
100
AcDbText
 10
1965.3886578691618
 20
447.4727506212502
 30
0.0
 40
3.0
  1
J1155
100
AcDbText
  0
CIRCLE
  5
A4
330
17
100
AcDbEntity
  8
NOTCH
100
AcDbCircle
 10
2071.639199371516
 20
433.5930759781495
 30
0.0
 40
1.0
  0
TEXT
  5
A5
330
17
100
AcDbEntity
  8
LABEL
100
AcDbText
 10
2073.639199371516
 20
435.5930759781495
 30
0.0
 40
3.0
  1
J1155
100
AcDbText
  0
CIRCLE
  5
A6
330
17
100
AcDbEntity
  8
NOTCH
100
AcDbCircle
 10
2179.096818556946
 20
419.5460899481432
 30
0.0
 40
1.0
  0
TEXT
  5
A7
330
17
100
AcDbEntity
  8
LABEL
100
AcDbText
 10
2181.096818556946
 20
421.5460899481432
 30
0.0
 40
3.0
  1
J1155
100
AcDbText
  0
CIRCLE
  5
A8
330
17
100
AcDbEntity
  8
NOTCH
100
AcDbCircle
 10
2286.457324498039
 20
402.536631992951
 30
0.0
 40
1.0
  0
TEXT
  5
A9
330
17
100
AcDbEntity
  8
LABEL
100
AcDbText
 10
2288.457324498039
 20
404.536631992951
 30
0.0
 40
3.0
  1
J1155
100
AcDbText
  0
CIRCLE
  5
AA
330
17
100
AcDbEntity
  8
NOTCH
100
AcDbCircle
 10
2393.8241700366725
 20
380.47461587343565
 30
0.0
 40
1.0
  0
TEXT
  5
AB
330
17
100
AcDbEntity
  8
LABEL
100
AcDbText
 10
2395.8241700366725
 20
382.47461587343565
 30
0.0
 40
3.0
  1
J1155
100
AcDbText
  0
CIRCLE
  5
AC
330
17
100
AcDbEntity
  8
NOTCH
100
AcDbCircle
 10
2501.2098040282663
 20
349.4529230744845
 30
0.0
 40
1.0
  0
TEXT
  5
AD
330
17
100
AcDbEntity
  8
LABEL
100
AcDbText
 10
2503.2098040282663
 20
351.4529230744845
 30
0.0
 40
3.0
  1
J1155
100
AcDbText
  0
CIRCLE
  5
AE
330
17
100
AcDbEntity
  8
NOTCH
100
AcDbCircle
 10
2608.6477850801807
 20
303.61828859785464
 30
0.0
 40
1.0
  0
TEXT
  5
AF
330
17
100
AcDbEntity
  8
LABEL
100
AcDbText
 10
2610.6477850801807
 20
305.61828859785464
 30
0.0
 40
3.0
  1
J1155
100
AcDbText
  0
CIRCLE
  5
B0
330
17
100
AcDbEntity
  8
NOTCH
100
AcDbCircle
 10
2717.745968280691
 20
231.1596238856436
 30
0.0
 40
1.0
  0
TEXT
  5
B1
330
17
100
AcDbEntity
  8
LABEL
100
AcDbText
 10
2719.745968280691
 20
233.1596238856436
 30
0.0
 40
3.0
  1
J1155
100
AcDbText
  0
CIRCLE
  5
B2
330
17
100
AcDbEntity
  8
NOTCH
100
AcDbCircle
 10
2877.2178822394803
 20
68.84085927409062
 30
0.0
 40
1.0
  0
TEXT
  5
B3
330
17
100
AcDbEntity
  8
LABEL
100
AcDbText
 10
2879.2178822394803
 20
70.84085927409062
 30
0.0
 40
3.0
  1
J1155
100
AcDbText
  0
CIRCLE
  5
B4
330
17
100
AcDbEntity
  8
NOTCH
100
AcDbCircle
 10
0.017813563646169168
 20
-10.49998488936771
 30
0.0
 40
1.0
  0
TEXT
  5
B5
330
17
100
AcDbEntity
  8
LABEL
100
AcDbText
 10
2.017813563646169
 20
-8.49998488936771
 30
0.0
 40
3.0
  1
J1156
100
AcDbText
  0
ENDSEC
  0
SECTION
  2
OBJECTS
  0
DICTIONARY
  5
A
330
0
100
AcDbDictionary
281
1
  3
ACAD_COLOR
350
B
  3
ACAD_GROUP
350
C
  3
ACAD_LAYOUT
350
D
  3
ACAD_MATERIAL
350
E
  3
ACAD_MLEADERSTYLE
350
F
  3
ACAD_MLINESTYLE
350
10
  3
ACAD_PLOTSETTINGS
350
11
  3
ACAD_PLOTSTYLENAME
350
12
  3
ACAD_SCALELIST
350
14
  3
ACAD_TABLESTYLE
350
15
  3
ACAD_VISUALSTYLE
350
16
  3
EZDXF_META
350
2D
  0
DICTIONARY
  5
B
330
A
100
AcDbDictionary
281
1
  0
DICTIONARY
  5
C
330
A
100
AcDbDictionary
281
1
  0
DICTIONARY
  5
D
330
A
100
AcDbDictionary
281
1
  3
Model
350
1A
  3
Layout1
350
1E
  0
DICTIONARY
  5
E
330
A
100
AcDbDictionary
281
1
  3
ByBlock
350
1F
  3
ByLayer
350
20
  3
Global
350
21
  0
DICTIONARY
  5
F
330
A
100
AcDbDictionary
281
1
  3
Standard
350
2C
  0
DICTIONARY
  5
10
330
A
100
AcDbDictionary
281
1
  3
Standard
350
22
  0
DICTIONARY
  5
11
330
A
100
AcDbDictionary
281
1
  0
ACDBDICTIONARYWDFLT
  5
12
330
A
100
AcDbDictionary
281
1
  3
Normal
350
13
100
AcDbDictionaryWithDefault
340
13
  0
ACDBPLACEHOLDER
  5
13
330
12
  0
DICTIONARY
  5
14
330
A
100
AcDbDictionary
281
1
  0
DICTIONARY
  5
15
330
A
100
AcDbDictionary
281
1
  0
DICTIONARY
  5
16
330
A
100
AcDbDictionary
281
1
  0
LAYOUT
  5
1A
330
D
100
AcDbPlotSettings
  1

  4
A3
  6

 40
7.5
 41
20.0
 42
7.5
 43
20.0
 44
420.0
 45
297.0
 46
0.0
 47
0.0
 48
0.0
 49
0.0
140
0.0
141
0.0
142
1.0
143
1.0
 70
1024
 72
1
 73
0
 74
5
  7

 75
16
 76
0
 77
2
 78
300
147
1.0
148
0.0
149
0.0
100
AcDbLayout
  1
Model
 70
1
 71
0
 10
0.0
 20
0.0
 11
420.0
 21
297.0
 12
0.0
 22
0.0
 32
0.0
 14
1e+20
 24
1e+20
 34
1e+20
 15
-1e+20
 25
-1e+20
 35
-1e+20
146
0.0
 13
0.0
 23
0.0
 33
0.0
 16
1.0
 26
0.0
 36
0.0
 17
0.0
 27
1.0
 37
0.0
 76
1
330
17
  0
LAYOUT
  5
1E
330
D
100
AcDbPlotSettings
  1

  4
A3
  6

 40
7.5
 41
20.0
 42
7.5
 43
20.0
 44
420.0
 45
297.0
 46
0.0
 47
0.0
 48
0.0
 49
0.0
140
0.0
141
0.0
142
1.0
143
1.0
 70
0
 72
1
 73
0
 74
5
  7

 75
16
 76
0
 77
2
 78
300
147
1.0
148
0.0
149
0.0
100
AcDbLayout
  1
Layout1
 70
1
 71
1
 10
0.0
 20
0.0
 11
420.0
 21
297.0
 12
0.0
 22
0.0
 32
0.0
 14
1e+20
 24
1e+20
 34
1e+20
 15
-1e+20
 25
-1e+20
 35
-1e+20
146
0.0
 13
0.0
 23
0.0
 33
0.0
 16
1.0
 26
0.0
 36
0.0
 17
0.0
 27
1.0
 37
0.0
 76
1
330
1B
  0
MATERIAL
  5
1F
102
{ACAD_REACTORS
330
E
102
}
330
E
100
AcDbMaterial
  1
ByBlock
  2

 70
0
 40
1.0
 71
1
 41
1.0
 91
-1023410177
 42
1.0
 72
1
  3

 73
1
 74
1
 75
1
 44
0.5
 73
0
 45
1.0
 46
1.0
 77
1
  4

 78
1
 79
1
170
1
 48
1.0
171
1
  6

172
1
173
1
174
1
140
1.0
141
1.0
175
1
  7

176
1
177
1
178
1
143
1.0
179
1
  8

270
1
271
1
272
1
145
1.0
146
1.0
273
1
  9

274
1
275
1
276
1
 42
1.0
 72
1
  3

 73
1
 74
1
 75
1
 94
63
  0
MATERIAL
  5
20
102
{ACAD_REACTORS
330
E
102
}
330
E
100
AcDbMaterial
  1
ByLayer
  2

 70
0
 40
1.0
 71
1
 41
1.0
 91
-1023410177
 42
1.0
 72
1
  3

 73
1
 74
1
 75
1
 44
0.5
 73
0
 45
1.0
 46
1.0
 77
1
  4

 78
1
 79
1
170
1
 48
1.0
171
1
  6

172
1
173
1
174
1
140
1.0
141
1.0
175
1
  7

176
1
177
1
178
1
143
1.0
179
1
  8

270
1
271
1
272
1
145
1.0
146
1.0
273
1
  9

274
1
275
1
276
1
 42
1.0
 72
1
  3

 73
1
 74
1
 75
1
 94
63
  0
MATERIAL
  5
21
102
{ACAD_REACTORS
330
E
102
}
330
E
100
AcDbMaterial
  1
Global
  2

 70
0
 40
1.0
 71
1
 41
1.0
 91
-1023410177
 42
1.0
 72
1
  3

 73
1
 74
1
 75
1
 44
0.5
 73
0
 45
1.0
 46
1.0
 77
1
  4

 78
1
 79
1
170
1
 48
1.0
171
1
  6

172
1
173
1
174
1
140
1.0
141
1.0
175
1
  7

176
1
177
1
178
1
143
1.0
179
1
  8

270
1
271
1
272
1
145
1.0
146
1.0
273
1
  9

274
1
275
1
276
1
 42
1.0
 72
1
  3

 73
1
 74
1
 75
1
 94
63
  0
MLINESTYLE
  5
22
102
{ACAD_REACTORS
330
10
102
}
330
10
100
AcDbMlineStyle
  2
Standard
 70
0
  3

 62
256
 51
90.0
 52
90.0
 71
2
 49
0.5
 62
256
  6
BYLAYER
 49
-0.5
 62
256
  6
BYLAYER
  0
MLEADERSTYLE
  5
2C
102
{ACAD_REACTORS
330
F
102
}
330
F
100
AcDbMLeaderStyle
179
2
170
2
171
1
172
0
 90
2
 40
0.0
 41
0.0
173
1
 91
-1056964608
 92
-2
290
1
 42
2.0
291
1
 43
8.0
  3
Standard
 44
4.0
300

342
29
174
1
175
1
176
0
178
1
 93
-1056964608
 45
4.0
292
0
297
0
 46
4.0
 94
-1056964608
 47
1.0
 49
1.0
140
1.0
294
1
141
0.0
177
0
142
1.0
295
0
296
0
143
3.75
271
0
272
9
273
9
  0
DICTIONARY
  5
2D
330
A
100
AcDbDictionary
280
1
281
1
  3
CREATED_BY_EZDXF
350
2E
  3
WRITTEN_BY_EZDXF
350
B8
  0
DICTIONARYVAR
  5
2E
330
2D
100
DictionaryVariables
280
0
  1
1.4.4 @ 2026-10-04T18:29:00.706395+00:00
  0
DICTIONARYVAR
  5
B8
330
2D
100
DictionaryVariables
280
0
  1
1.4.4 @ 2026-10-04T18:29:00.710356+00:00
  0
ENDSEC
  0
EOF
