  0
SECTION
  2
HEADER
  9
$ACADVER
  1
AC1024
  9
$ACADMAINTVER
 70
6
  9
$DWGCODEPAGE
  3
ANSI_1252
  9
$LASTSAVEDBY
  1
ezdxf
  9
$INSBASE
 10
0.0
 20
0.0
 30
0.0
  9
$EXTMIN
 10
1e+20
 20
1e+20
 30
1e+20
  9
$EXTMAX
 10
-1e+20
 20
-1e+20
 30
-1e+20
  9
$LIMMIN
 10
0.0
 20
0.0
  9
$LIMMAX
 10
420.0
 20
297.0
  9
$ORTHOMODE
 70
0
  9
$REGENMODE
 70
1
  9
$FILLMODE
 70
1
  9
$QTEXTMODE
 70
0
  9
$MIRRTEXT
 70
1
  9
$LTSCALE
 40
1.0
  9
$ATTMODE
 70
1
  9
$TEXTSIZE
 40
2.5
  9
$TRACEWID
 40
1.0
  9
$TEXTSTYLE
  7
Standard
  9
$CLAYER
  8
0
  9
$CELTYPE
  6
ByLayer
  9
$CECOLOR
 62
256
  9
$CELTSCALE
 40
1.0
  9
$DISPSILH
 70
0
  9
$DIMSCALE
 40
1.0
  9
$DIMASZ
 40
2.5
  9
$DIMEXO
 40
0.625
  9
$DIMDLI
 40
3.75
  9
$DIMRND
 40
0.0
  9
$DIMDLE
 40
0.0
  9
$DIMEXE
 40
1.25
  9
$DIMTP
 40
0.0
  9
$DIMTM
 40
0.0
  9
$DIMTXT
 40
2.5
  9
$DIMCEN
 40
2.5
  9
$DIMTSZ
 40
0.0
  9
$DIMTOL
 70
0
  9
$DIMLIM
 70
0
  9
$DIMTIH
 70
0
  9
$DIMTOH
 70
0
  9
$DIMSE1
 70
0
  9
$DIMSE2
 70
0
  9
$DIMTAD
 70
1
  9
$DIMZIN
 70
8
  9
$DIMBLK
  1

  9
$DIMASO
 70
1
  9
$DIMSHO
 70
1
  9
$DIMPOST
  1

  9
$DIMAPOST
  1

  9
$DIMALT
 70
0
  9
$DIMALTD
 70
3
  9
$DIMALTF
 40
0.03937007874
  9
$DIMLFAC
 40
1.0
  9
$DIMTOFL
 70
1
  9
$DIMTVP
 40
0.0
  9
$DIMTIX
 70
0
  9
$DIMSOXD
 70
0
  9
$DIMSAH
 70
0
  9
$DIMBLK1
  1

  9
$DIMBLK2
  1

  9
$DIMSTYLE
  2
ISO-25
  9
$DIMCLRD
 70
0
  9
$DIMCLRE
 70
0
  9
$DIMCLRT
 70
0
  9
$DIMTFAC
 40
1.0
  9
$DIMGAP
 40
0.625
  9
$DIMJUST
 70
0
  9
$DIMSD1
 70
0
  9
$DIMSD2
 70
0
  9
$DIMTOLJ
 70
0
  9
$DIMTZIN
 70
8
  9
$DIMALTZ
 70
0
  9
$DIMALTTZ
 70
0
  9
$DIMUPT
 70
0
  9
$DIMDEC
 70
2
  9
$DIMTDEC
 70
2
  9
$DIMALTU
 70
2
  9
$DIMALTTD
 70
3
  9
$DIMTXSTY
  7
Standard
  9
$DIMAUNIT
 70
0
  9
$DIMADEC
 70
0
  9
$DIMALTRND
 40
0.0
  9
$DIMAZIN
 70
0
  9
$DIMDSEP
 70
44
  9
$DIMATFIT
 70
3
  9
$DIMFRAC
 70
0
  9
$DIMLDRBLK
  1

  9
$DIMLUNIT
 70
2
  9
$DIMLWD
 70
-2
  9
$DIMLWE
 70
-2
  9
$DIMTMOVE
 70
0
  9
$DIMFXL
 40
1.0
  9
$DIMFXLON
 70
0
  9
$DIMJOGANG
 40
0.785398163397
  9
$DIMTFILL
 70
0
  9
$DIMTFILLCLR
 70
0
  9
$DIMARCSYM
 70
0
  9
$DIMLTYPE
  6

  9
$DIMLTEX1
  6

  9
$DIMLTEX2
  6

  9
$DIMTXTDIRECTION
 70
0
  9
$LUNITS
 70
2
  9
$LUPREC
 70
4
  9
$SKETCHINC
 40
1.0
  9
$FILLETRAD
 40
10.0
  9
$AUNITS
 70
0
  9
$AUPREC
 70
2
  9
$MENU
  1
.
  9
$ELEVATION
 40
0.0
  9
$PELEVATION
 40
0.0
  9
$THICKNESS
 40
0.0
  9
$LIMCHECK
 70
0
  9
$CHAMFERA
 40
0.0
  9
$CHAMFERB
 40
0.0
  9
$CHAMFERC
 40
0.0
  9
$CHAMFERD
 40
0.0
  9
$SKPOLY
 70
0
  9
$TDCREATE
 40
2461318.7701273146
  9
$TDUCREATE
 40
2458532.153996898
  9
$TDUPDATE
 40
2461318.7701273146
  9
$TDUUPDATE
 40
2458532.1544311
  9
$TDINDWG
 40
0.0
  9
$TDUSRTIMER
 40
0.0
  9
$USRTIMER
 70
1
  9
$ANGBASE
 50
0.0
  9
$ANGDIR
 70
0
  9
$PDMODE
 70
0
  9
$PDSIZE
 40
0.0
  9
$PLINEWID
 40
0.0
  9
$SPLFRAME
 70
0
  9
$SPLINETYPE
 70
6
  9
$SPLINESEGS
 70
8
  9
$HANDSEED
  5
9F
  9
$SURFTAB1
 70
6
  9
$SURFTAB2
 70
6
  9
$SURFTYPE
 70
6
  9
$SURFU
 70
6
  9
$SURFV
 70
6
  9
$UCSBASE
  2

  9
$UCSNAME
  2

  9
$UCSORG
 10
0.0
 20
0.0
 30
0.0
  9
$UCSXDIR
 10
1.0
 20
0.0
 30
0.0
  9
$UCSYDIR
 10
0.0
 20
1.0
 30
0.0
  9
$UCSORTHOREF
  2

  9
$UCSORTHOVIEW
 70
0
  9
$UCSORGTOP
 10
0.0
 20
0.0
 30
0.0
  9
$UCSORGBOTTOM
 10
0.0
 20
0.0
 30
0.0
  9
$UCSORGLEFT
 10
0.0
 20
0.0
 30
0.0
  9
$UCSORGRIGHT
 10
0.0
 20
0.0
 30
0.0
  9
$UCSORGFRONT
 10
0.0
 20
0.0
 30
0.0
  9
$UCSORGBACK
 10
0.0
 20
0.0
 30
0.0
  9
$PUCSBASE
  2

  9
$PUCSNAME
  2

  9
$PUCSORG
 10
0.0
 20
0.0
 30
0.0
  9
$PUCSXDIR
 10
1.0
 20
0.0
 30
0.0
  9
$PUCSYDIR
 10
0.0
 20
1.0
 30
0.0
  9
$PUCSORTHOREF
  2

  9
$PUCSORTHOVIEW
 70
0
  9
$PUCSORGTOP
 10
0.0
 20
0.0
 30
0.0
  9
$PUCSORGBOTTOM
 10
0.0
 20
0.0
 30
0.0
  9
$PUCSORGLEFT
 10
0.0
 20
0.0
 30
0.0
  9
$PUCSORGRIGHT
 10
0.0
 20
0.0
 30
0.0
  9
$PUCSORGFRONT
 10
0.0
 20
0.0
 30
0.0
  9
$PUCSORGBACK
 10
0.0
 20
0.0
 30
0.0
  9
$USERI1
 70
0
  9
$USERI2
 70
0
  9
$USERI3
 70
0
  9
$USERI4
 70
0
  9
$USERI5
 70
0
  9
$USERR1
 40
0.0
  9
$USERR2
 40
0.0
  9
$USERR3
 40
0.0
  9
$USERR4
 40
0.0
  9
$USERR5
 40
0.0
  9
$WORLDVIEW
 70
1
  9
$SHADEDGE
 70
3
  9
$SHADEDIF
 70
70
  9
$TILEMODE
 70
1
  9
$MAXACTVP
 70
64
  9
$PINSBASE
 10
0.0
 20
0.0
 30
0.0
  9
$PLIMCHECK
 70
0
  9
$PEXTMIN
 10
1e+20
 20
1e+20
 30
1e+20
  9
$PEXTMAX
 10
-1e+20
 20
-1e+20
 30
-1e+20
  9
$PLIMMIN
 10
0.0
 20
0.0
  9
$PLIMMAX
 10
420.0
 20
297.0
  9
$UNITMODE
 70
0
  9
$VISRETAIN
 70
1
  9
$PLINEGEN
 70
0
  9
$PSLTSCALE
 70
1
  9
$TREEDEPTH
 70
3020
  9
$CMLSTYLE
  2
Standard
  9
$CMLJUST
 70
0
  9
$CMLSCALE
 40
20.0
  9
$PROXYGRAPHICS
 70
1
  9
$MEASUREMENT
 70
1
  9
$CELWEIGHT
370
-1
  9
$ENDCAPS
280
0
  9
$JOINSTYLE
280
0
  9
$LWDISPLAY
290
0
  9
$INSUNITS
 70
4
  9
$HYPERLINKBASE
  1

  9
$STYLESHEET
  1

  9
$XEDIT
290
1
  9
$CEPSNTYPE
380
0
  9
$PSTYLEMODE
290
1
  9
$FINGERPRINTGUID
  2
{CD688278-BD9B-4BB5-B07C-1ECD0271B03A}
  9
$VERSIONGUID
  2
{E289CC6F-86CE-4205-970B-A1D0DC9EC69F}
  9
$EXTNAMES
290
1
  9
$PSVPSCALE
 40
0.0
  9
$OLESTARTUP
290
0
  9
$SORTENTS
280
127
  9
$INDEXCTL
280
0
  9
$HIDETEXT
280
1
  9
$XCLIPFRAME
280
1
  9
$HALOGAP
280
0
  9
$OBSCOLOR
 70
257
  9
$OBSLTYPE
280
0
  9
$INTERSECTIONDISPLAY
280
0
  9
$INTERSECTIONCOLOR
 70
257
  9
$DIMASSOC
280
2
  9
$PROJECTNAME
  1

  9
$CAMERADISPLAY
290
0
  9
$LENSLENGTH
 40
50.0
  9
$CAMERAHEIGHT
 40
0.0
  9
$STEPSPERSEC
 40
24.0
  9
$STEPSIZE
 40
100.0
  9
$3DDWFPREC
 40
2.0
  9
$PSOLWIDTH
 40
0.005
  9
$PSOLHEIGHT
 40
0.08
  9
$LOFTANG1
 40
1.570796326795
  9
$LOFTANG2
 40
1.570796326795
  9
$LOFTMAG1
 40
0.0
  9
$LOFTMAG2
 40
0.0
  9
$LOFTPARAM
 70
7
  9
$LOFTNORMALS
280
1
  9
$LATITUDE
 40
37.795
  9
$LONGITUDE
 40
-122.394
  9
$NORTHDIRECTION
 40
0.0
  9
$TIMEZONE
 70
-8000
  9
$LIGHTGLYPHDISPLAY
280
1
  9
$TILEMODELIGHTSYNCH
280
1
  9
$CMATERIAL
347
20
  9
$SOLIDHIST
280
0
  9
$SHOWHIST
280
1
  9
$DWFFRAME
280
2
  9
$DGNFRAME
280
2
  9
$REALWORLDSCALE
290
1
  9
$INTERFERECOLOR
 62
256
  9
$CSHADOW
280
0
  9
$SHADOWPLANELOCATION
 40
0.0
  0
ENDSEC
  0
SECTION
  2
CLASSES
  0
CLASS
  1
ACDBDICTIONARYWDFLT
  2
AcDbDictionaryWithDefault
  3
ObjectDBX Classes
 90
0
 91
0
280
0
281
0
  0
CLASS
  1
SUN
  2
AcDbSun
  3
SCENEOE
 90
1153
 91
0
280
0
281
0
  0
CLASS
  1
VISUALSTYLE
  2
AcDbVisualStyle
  3
ObjectDBX Classes
 90
4095
 91
0
280
0
281
0
  0
CLASS
  1
MATERIAL
  2
AcDbMaterial
  3
ObjectDBX Classes
 90
1153
 91
0
280
0
281
0
  0
CLASS
  1
SCALE
  2
AcDbScale
  3
ObjectDBX Classes
 90
1153
 91
0
280
0
281
0
  0
CLASS
  1
TABLESTYLE
  2
AcDbTableStyle
  3
ObjectDBX Classes
 90
4095
 91
0
280
0
281
0
  0
CLASS
  1
MLEADERSTYLE
  2
AcDbMLeaderStyle
  3
ACDB_MLEADERSTYLE_CLASS
 90
4095
 91
0
280
0
281
0
  0
CLASS
  1
DICTIONARYVAR
  2
AcDbDictionaryVar
  3
ObjectDBX Classes
 90
0
 91
0
280
0
281
0
  0
CLASS
  1
CELLSTYLEMAP
  2
AcDbCellStyleMap
  3
ObjectDBX Classes
 90
1152
 91
0
280
0
281
0
  0
CLASS
  1
MENTALRAYRENDERSETTINGS
  2
AcDbMentalRayRenderSettings
  3
SCENEOE
 90
1024
 91
0
280
0
281
0
  0
CLASS
  1
ACDBDETAILVIEWSTYLE
  2
AcDbDetailViewStyle
  3
ObjectDBX Classes
 90
1025
 91
0
280
0
281
0
  0
CLASS
  1
ACDBSECTIONVIEWSTYLE
  2
AcDbSectionViewStyle
  3
ObjectDBX Classes
 90
1025
 91
0
280
0
281
0
  0
CLASS
  1
RASTERVARIABLES
  2
AcDbRasterVariables
  3
ISM
 90
0
 91
0
280
0
281
0
  0
CLASS
  1
LAYOUT
  2
AcDbLayout
  3
ObjectDBX Classes
 90
0
 91
0
280
0
281
0
  0
CLASS
  1
ACDBPLACEHOLDER
  2
AcDbPlaceHolder
  3
ObjectDBX Classes
 90
0
 91
0
280
0
281
0
  0
ENDSEC
  0
SECTION
  2
TABLES
  0
TABLE
  2
VPORT
  5
8
330
0
100
AcDbSymbolTable
 70
1
  0
VPORT
  5
23
330
8
100
AcDbSymbolTableRecord
100
AcDbViewportTableRecord
  2
*Active
 70
0
 10
0.0
 20
0.0
 11
1.0
 21
1.0
 12
0.0
 22
0.0
 13
0.0
 23
0.0
 14
0.5
 24
0.5
 15
0.5
 25
0.5
 16
0.0
 26
0.0
 36
1.0
 17
0.0
 27
0.0
 37
0.0
 40
1000.0
 41
1.34
 42
50.0
 43
0.0
 44
0.0
 50
0.0
 51
0.0
 71
0
 72
1000
 73
1
 74
3
 75
0
 76
0
 77
0
 78
0
281
0
 65
0
146
0.0
  0
ENDTAB
  0
TABLE
  2
LTYPE
  5
2
330
0
100
AcDbSymbolTable
 70
3
  0
LTYPE
  5
24
330
2
100
AcDbSymbolTableRecord
100
AcDbLinetypeTableRecord
  2
ByBlock
 70
0
  3

 72
65
 73
0
 40
0.0
  0
LTYPE
  5
25
330
2
100
AcDbSymbolTableRecord
100
AcDbLinetypeTableRecord
  2
ByLayer
 70
0
  3

 72
65
 73
0
 40
0.0
  0
LTYPE
  5
26
330
2
100
AcDbSymbolTableRecord
100
AcDbLinetypeTableRecord
  2
Continuous
 70
0
  3

 72
65
 73
0
 40
0.0
  0
ENDTAB
  0
TABLE
  2
LAYER
  5
1
330
0
100
AcDbSymbolTable
 70
8
  0
LAYER
  5
27
330
1
100
AcDbSymbolTableRecord
100
AcDbLayerTableRecord
  2
0
 70
0
 62
7
  6
Continuous
370
-3
390
13
347
21
  0
LAYER
  5
28
330
1
100
AcDbSymbolTableRecord
100
AcDbLayerTableRecord
  2
Defpoints
 70
0
 62
7
  6
Continuous
290
0
370
-3
390
13
347
21
  0
LAYER
  5
2F
330
1
100
AcDbSymbolTableRecord
100
AcDbLayerTableRecord
  2
CUT
 70
0
 62
1
  6
Continuous
370
-3
390
13
347
21
  0
LAYER
  5
30
330
1
100
AcDbSymbolTableRecord
100
AcDbLayerTableRecord
  2
SEW
 70
0
 62
5
  6
Continuous
370
-3
390
13
347
21
  0
LAYER
  5
31
330
1
100
AcDbSymbolTableRecord
100
AcDbLayerTableRecord
  2
GRAIN
 70
0
 62
3
  6
Continuous
370
-3
390
13
347
21
  0
LAYER
  5
32
330
1
100
AcDbSymbolTableRecord
100
AcDbLayerTableRecord
  2
NOTCH
 70
0
 62
2
  6
Continuous
370
-3
390
13
347
21
  0
LAYER
  5
33
330
1
100
AcDbSymbolTableRecord
100
AcDbLayerTableRecord
  2
LABEL
 70
0
 62
7
  6
Continuous
370
-3
390
13
347
21
  0
LAYER
  5
34
330
1
100
AcDbSymbolTableRecord
100
AcDbLayerTableRecord
  2
ATTACHMENT
 70
0
 62
4
  6
Continuous
370
-3
390
13
347
21
  0
ENDTAB
  0
TABLE
  2
STYLE
  5
5
330
0
100
AcDbSymbolTable
 70
1
  0
STYLE
  5
29
330
5
100
AcDbSymbolTableRecord
100
AcDbTextStyleTableRecord
  2
Standard
 70
0
 40
0.0
 41
1.0
 50
0.0
 71
0
 42
2.5
  3
txt
  4

  0
ENDTAB
  0
TABLE
  2
VIEW
  5
7
330
0
100
AcDbSymbolTable
 70
0
  0
ENDTAB
  0
TABLE
  2
UCS
  5
6
330
0
100
AcDbSymbolTable
 70
0
  0
ENDTAB
  0
TABLE
  2
APPID
  5
3
330
0
100
AcDbSymbolTable
 70
3
  0
APPID
  5
2A
330
3
100
AcDbSymbolTableRecord
100
AcDbRegAppTableRecord
  2
ACAD
 70
0
  0
APPID
  5
9C
330
3
100
AcDbSymbolTableRecord
100
AcDbRegAppTableRecord
  2
HATCHBACKGROUNDCOLOR
 70
0
  0
APPID
  5
9D
330
3
100
AcDbSymbolTableRecord
100
AcDbRegAppTableRecord
  2
EZDXF
 70
0
  0
ENDTAB
  0
TABLE
  2
DIMSTYLE
  5
4
330
0
100
AcDbSymbolTable
 70
1
100
AcDbDimStyleTable
  0
DIMSTYLE
105
2B
330
4
100
AcDbSymbolTableRecord
100
AcDbDimStyleTableRecord
  2
Standard
 70
0
 40
1.0
 41
2.5
 42
0.625
 43
3.75
 44
1.25
 45
0.0
 46
0.0
 47
0.0
 48
0.0
 49
2.5
140
2.5
141
2.5
142
0.0
143
0.03937007874
144
1.0
145
0.0
146
1.0
147
0.625
148
0.0
 69
0
 70
0
 71
0
 72
0
 73
0
 74
0
 75
0
 76
0
 77
1
 78
8
 79
3
170
0
171
3
172
1
173
0
174
0
175
0
176
0
177
0
178
0
179
2
271
2
272
2
273
2
274
3
275
0
276
0
277
2
278
44
279
0
280
0
281
0
282
0
283
0
284
8
285
0
286
0
288
0
289
3
290
0
371
-2
372
-2
  0
ENDTAB
  0
TABLE
  2
BLOCK_RECORD
  5
9
330
0
100
AcDbSymbolTable
 70
2
  0
BLOCK_RECORD
  5
17
330
9
100
AcDbSymbolTableRecord
100
AcDbBlockTableRecord
  2
*Model_Space
340
1A
 70
0
280
1
281
0
  0
BLOCK_RECORD
  5
1B
330
9
100
AcDbSymbolTableRecord
100
AcDbBlockTableRecord
  2
*Paper_Space
340
1E
 70
0
280
1
281
0
  0
ENDTAB
  0
ENDSEC
  0
SECTION
  2
BLOCKS
  0
BLOCK
  5
18
330
17
100
AcDbEntity
  8
0
100
AcDbBlockBegin
  2
*Model_Space
 70
0
 10
0.0
 20
0.0
 30
0.0
  3
*Model_Space
  1

  0
ENDBLK
  5
19
330
17
100
AcDbEntity
  8
0
100
AcDbBlockEnd
  0
BLOCK
  5
1C
330
1B
100
AcDbEntity
  8
0
100
AcDbBlockBegin
  2
*Paper_Space
 70
0
 10
0.0
 20
0.0
 30
0.0
  3
*Paper_Space
  1

  0
ENDBLK
  5
1D
330
1B
100
AcDbEntity
  8
0
100
AcDbBlockEnd
  0
ENDSEC
  0
SECTION
  2
ENTITIES
  0
LWPOLYLINE
  5
35
330
17
100
AcDbEntity
  8
CUT
100
AcDbPolyline
 90
109
 70
1
 10
-12.000265076330574
 20
11.999021216212434
 10
38.70486769200279
 20
12.003157073685356
 10
73.47827830459123
 20
12.004013909478914
 10
108.50830773030033
 20
12.004387321157335
 10
143.37324055916818
 20
12.004836969945439
 10
178.20095844945965
 20
12.005299120628514
 10
212.996876388634
 20
12.005747946184552
 10
247.77286268039092
 20
12.006158234173476
 10
282.5456170595272
 20
12.006490396462436
 10
317.31837399460244
 20
12.00673701687862
 10
352.0911203932902
 20
12.00692859624394
 10
386.86385506917435
 20
12.007099069310362
 10
421.63658176070265
 20
12.007268171622203
 10
456.40930615004186
 20
12.007443985412996
 10
491.18202976105766
 20
12.007630424248946
 10
525.9547536137552
 20
12.007827979490893
 10
560.7274783692536
 20
12.008034869138744
 10
595.5002044963333
 20
12.00824751598523
 10
630.272931643869
 20
12.008461550751148
 10
665.0456596130438
 20
12.008673878691297
 10
699.8183881812749
 20
12.008882784747808
 10
734.5911177060244
 20
12.009085522609356
 10
769.3638526717253
 20
12.009266356264078
 10
899.3639115761782
 20
12.009117888435094
 10
953.017738311701
 20
12.009215291098073
 10
1006.6715815564872
 20
12.009329348022321
 10
1060.3254266752604
 20
12.009454328956789
 10
1113.979272871608
 20
12.00957992329225
 10
1167.6331209233088
 20
12.009697844509667
 10
1221.2869698512711
 20
12.009804183201998
 10
1274.9408184831464
 20
12.009900266779994
 10
1328.5946657876866
 20
12.009991628685789
 10
1382.2485114821086
 20
12.01008422466653
 10
1435.90235700789
 20
12.010180969055092
 10
1489.556203075958
 20
12.01028040684918
 10
1543.2100498450661
 20
12.010377904797052
 10
1596.8638977687126
 20
12.010468307553253
 10
1650.5177461563483
 20
12.010549546897723
 10
1704.1715933295854
 20
12.010625282983378
 10
1757.8254374632616
 20
12.01070473317066
 10
1811.479279616561
 20
12.010799993267442
 10
1865.133123936781
 20
12.010917011316712
 10
1918.7872417898463
 20
12.01103783816527
 10
1972.4423928356446
 20
12.011141159734878
 10
2026.099184905689
 20
12.011223300416603
 10
2079.7580716324387
 20
12.011297469909072
 10
2133.428684706218
 20
12.011292251841876
 10
2187.1777854394513
 20
12.010896520001264
 10
2241.146084360703
 20
12.009683326795546
 10
2314.514177714676
 20
11.998107328980472
 10
2314.5195561713845
 20
-6.367599601644639
 10
2314.520491236946
 20
-12.679093002243512
 10
2314.519628633275
 20
-18.870176582239598
 10
2314.5137243791146
 20
-24.880399453885953
 10
2314.513583777622
 20
-35.410435669945436
 10
2248.751637282958
 20
-105.06865740731796
 10
2192.669248786877
 20
-138.98851099089472
 10
2137.5418391043763
 20
-162.56783240055262
 10
2082.9097352249964
 20
-179.1335266361677
 10
2028.6896639888485
 20
-192.21959554376386
 10
1974.6046595124035
 20
-203.0821672077249
 10
1920.5727694879665
 20
-212.0255307777241
 10
1866.6066601889213
 20
-219.33157752295418
 10
1812.7272578656407
 20
-225.3674449857651
 10
1758.9122501711952
 20
-230.58953197481597
 10
1705.1271561647477
 20
-235.14917355945153
 10
1651.370398123115
 20
-239.17667171866339
 10
1597.642059843099
 20
-242.80195894129585
 10
1543.93009084457
 20
-246.15453447180525
 10
1490.219021372025
 20
-249.25524780272755
 10
1436.5105593634103
 20
-252.09276868273864
 10
1382.8098717772023
 20
-254.70195021734244
 10
1329.1169746333676
 20
-257.1179293006317
 10
1275.4455534081064
 20
-259.37525628753315
 10
1221.8049136961142
 20
-261.582567694255
 10
1168.161510197846
 20
-264.00581419990976
 10
1114.4339248929612
 20
-266.3104263002531
 10
1060.6132381713048
 20
-268.0785677892263
 10
1006.763846763341
 20
-268.8888573016403
 10
953.0212005971272
 20
-268.90210352619306
 10
896.5848201196434
 20
-268.90233039567147
 10
768.0467865067707
 20
-205.97886899640338
 10
737.4871057788433
 20
-213.73963560714958
 10
702.5855152070469
 20
-222.22974862240414
 10
667.660358098594
 20
-230.28150226384295
 10
632.8658633967107
 20
-237.7903065467159
 10
598.250718502399
 20
-245.6351498592435
 10
563.47465696383
 20
-254.1257680796207
 10
528.2985225843812
 20
-262.07627180070693
 10
492.69913027001553
 20
-268.2069359569441
 10
456.69917977081286
 20
-271.1852033399568
 10
420.61107317139556
 20
-269.939377460716
 10
384.79144021039525
 20
-265.01593786344426
 10
349.3094355069398
 20
-257.4344316380425
 10
314.1182827896273
 20
-248.1696849945737
 10
278.5131289774918
 20
-237.83085914749535
 10
242.41915358246746
 20
-222.4962364371322
 10
206.67311665115307
 20
-201.95498129821596
 10
171.4281487861811
 20
-178.45651888692095
 10
136.4852350984639
 20
-153.95651218027342
 10
101.41140446391556
 20
-129.3157381475391
 10
65.98581099035891
 20
-102.21297817677039
 10
31.123257243875596
 20
-73.11518474272718
 10
-12.001601344977535
 20
-38.7823714722879
 10
-12.000581372301825
 20
-26.78706422154924
 10
-12.000294672990725
 20
-20.319460282097747
 10
-12.000071258541555
 20
-13.655924603435588
 10
-11.999848431852053
 20
-6.861135598934049
 10
-12.000265076330574
 20
11.999021216212434
  0
LWPOLYLINE
  5
36
330
17
100
AcDbEntity
  8
SEW
100
AcDbPolyline
 90
108
 70
1
 10
0.0
 20
0.0
 10
38.70584649408456
 20
0.0031571136042520967
 10
73.47857398442275
 20
0.004013913121687603
 10
108.50844906897183
 20
0.004387321982188491
 10
143.37339756365537
 20
0.004836970972330959
 10
178.2011176849345
 20
0.005299121685010625
 10
212.99703117422328
 20
0.00574794718282797
 10
247.77300425669986
 20
0.0061582350086367
 10
282.545731687982
 20
0.006490397009922098
 10
317.3184591027394
 20
0.006737017180428847
 10
352.091186506912
 20
0.00692859642606414
 10
386.86391389908204
 20
0.007099069454568614
 10
421.63664128116517
 20
0.00726817176976087
 10
456.4093686559298
 20
0.007443985575647363
 10
491.1820960260283
 20
0.007630424431752901
 10
525.9548233939731
 20
0.007827979693670536
 10
560.7275507620705
 20
0.008034869357066307
 10
595.5002781324072
 20
0.008247516211156934
 10
630.2730055068473
 20
0.008461550978470681
 10
665.0457328869982
 20
0.008673878915009545
 10
699.8184602743427
 20
0.008882784964367134
 10
734.5911876704583
 20
0.009085522813313155
 10
769.3639150770504
 20
0.009266356426347011
 10
899.363915616241
 20
0.009117888422653585
 10
953.0177619594033
 20
0.009215291121228718
 10
1006.671608295048
 20
0.009329348052048478
 10
1060.3254546279861
 20
0.009454328989343355
 10
1113.9793009615237
 20
0.009579923325126591
 10
1167.6331472970855
 20
0.00969784453864721
 10
1221.2869936345473
 20
0.009804183225566396
 10
1274.9408399728059
 20
0.009900266799235394
 10
1328.594686310418
 20
0.009991628703335207
 10
1382.2485326465414
 20
0.010084224685185184
 10
1435.902378981362
 20
0.010180969075206719
 10
1489.5562253158087
 20
0.010280406869788145
 10
1543.2100716510586
 20
0.010377904816862606
 10
1596.863917987823
 20
0.010468307570287171
 10
1650.5177643260074
 20
0.010549546911478082
 10
1704.1716106652882
 20
0.01062528299589301
 10
1757.8254570062586
 20
0.01070473318644349
 10
1811.4793033520937
 20
0.010799993290669847
 10
1865.1331505531168
 20
0.010917011346222319
 10
1918.7872688133486
 20
0.011037838195698554
 10
1972.4424159435625
 20
0.011141159757124267
 10
2026.0992032759295
 20
0.011223300430662107
 10
2079.758088219326
 20
0.011297469920534915
 10
2133.4286835395283
 20
0.011292251841933202
 10
2187.1776970884684
 20
0.010896520326510305
 10
2241.145814603545
 20
0.009683329827585381
 10
2302.5176908846565
 20
1.409885598324631e-13
 10
2302.5195566859625
 20
-6.371113840327592
 10
2302.520491368606
 20
-12.680870597170426
 10
2302.519628749886
 20
-18.868503660714783
 10
2302.513724457873
 20
-24.874420866026984
 10
2302.5136474625383
 20
-30.640815302052733
 10
2241.145588444058
 20
-95.64481975390328
 10
2187.177744071044
 20
-128.2857508633512
 10
2133.428840519344
 20
-151.27545198592284
 10
2079.7583797241496
 20
-167.54955420575934
 10
2026.09954900445
 20
-180.50016714834965
 10
1972.4427764939876
 20
-191.27673160080505
 10
1918.7876427207227
 20
-200.15773444031757
 10
1865.133541061784
 20
-207.4215409271133
 10
1811.4797101782194
 20
-213.43213863460383
 10
1757.8258723978631
 20
-218.6385860586439
 10
1704.1720317913646
 20
-223.1871006113092
 10
1650.5181901648596
 20
-227.20688819258484
 10
1596.864348421609
 20
-230.8271488063269
 10
1543.210507082406
 20
-234.17609614423907
 10
1489.55666613724
 20
-237.2735057007347
 10
1435.902825193127
 20
-240.10814084532876
 10
1382.2489839317664
 20
-242.71504623466794
 10
1328.5951421873099
 20
-245.12926797139914
 10
1274.9412999883675
 20
-247.38585561491064
 10
1221.2874577022346
 20
-249.5937053681492
 10
1167.6336162689029
 20
-252.0174233891818
 10
1113.9797751446158
 20
-254.31887227774166
 10
1060.3259332512648
 20
-256.08153250511987
 10
1006.6720891333938
 20
-256.88887955311225
 10
953.0182428959133
 20
-256.9021038906929
 10
899.3643964727783
 20
-256.9023192392851
 10
769.3646194590311
 20
-193.26328788865482
 10
734.591990573475
 20
-202.09395139019713
 10
699.8193191136673
 20
-210.55270371922853
 10
665.0466385029697
 20
-218.5693049577097
 10
630.2739530630198
 20
-226.07340270637903
 10
595.5012711064354
 20
-233.95394870260822
 10
560.7285951770186
 20
-242.44374032234452
 10
525.9559152458629
 20
-250.30305533981024
 10
491.1832226923377
 20
-256.29135137506944
 10
456.41051097019954
 20
-259.1680895845634
 10
421.6377766618946
 20
-257.967672705559
 10
386.8650249424713
 20
-253.18812784232972
 10
352.09226136430834
 20
-245.7581664930322
 10
317.3194904046139
 20
-236.60356688042987
 10
282.54671778828
 20
-226.50644323936314
 10
247.77394104080767
 20
-211.73313533469596
 10
212.99791574627346
 20
-191.74929182037758
 10
178.20200401573226
 20
-168.5502233179069
 10
143.37432365141044
 20
-144.13101173960064
 10
108.50924457383623
 20
-119.63688767460117
 10
73.47962103009986
 20
-92.83706907788654
 10
38.706009055359594
 20
-63.81351028886265
 10
-0.0011094316276674676
 20
-32.99777396563675
 10
-0.0005813949176102963
 20
-26.787840378530706
 10
-0.0002946819081712329
 20
-20.319927420457738
 10
-7.126513866532858e-05
 20
-13.656322535676557
 10
0.0001515724946799247
 20
-6.8611998139804955
  0
LINE
  5
37
330
17
100
AcDbEntity
  8
GRAIN
100
AcDbLine
 10
1110.3760950418357
 20
-136.20838130147592
 30
0.0
 11
1190.3760950418357
 21
-136.20838130147592
 31
0.0
  0
LINE
  5
38
330
17
100
AcDbEntity
  8
GRAIN
100
AcDbLine
 10
1190.3760950418357
 20
-136.20838130147592
 30
0.0
 11
1185.3760950418357
 21
-133.20838130147592
 31
0.0
  0
TEXT
  5
39
330
17
100
AcDbEntity
  8
LABEL
100
AcDbText
 10
1150.3760950418357
 20
-136.20838130147592
 30
0.0
 40
6.0
  1
O08_SMOOTH_LOWER_O4
100
AcDbText
  0
CIRCLE
  5
3A
330
17
100
AcDbEntity
  8
NOTCH
100
AcDbCircle
 10
2302.5186237853095
 20
-3.1855569201637253
 30
0.0
 40
1.0
  0
TEXT
  5
3B
330
17
100
AcDbEntity
  8
LABEL
100
AcDbText
 10
2304.5186237853095
 20
-1.1855569201637253
 30
0.0
 40
3.0
  1
J1061
100
AcDbText
  0
CIRCLE
  5
3C
330
17
100
AcDbEntity
  8
NOTCH
100
AcDbCircle
 10
979.8446851272256
 20
0.009272319586638598
 30
0.0
 40
1.0
  0
TEXT
  5
3D
330
17
100
AcDbEntity
  8
LABEL
100
AcDbText
 10
981.8446851272256
 20
2.0092723195866387
 30
0.0
 40
3.0
  1
J1194
100
AcDbText
  0
CIRCLE
  5
3E
330
17
100
AcDbEntity
  8
NOTCH
100
AcDbCircle
 10
1087.152377794755
 20
0.009517126157234972
 30
0.0
 40
1.0
  0
TEXT
  5
3F
330
17
100
AcDbEntity
  8
LABEL
100
AcDbText
 10
1089.152377794755
 20
2.009517126157235
 30
0.0
 40
3.0
  1
J1194
100
AcDbText
  0
CIRCLE
  5
40
330
17
100
AcDbEntity
  8
NOTCH
100
AcDbCircle
 10
1194.4600704658164
 20
0.009751013882106804
 30
0.0
 40
1.0
  0
TEXT
  5
41
330
17
100
AcDbEntity
  8
LABEL
100
AcDbText
 10
1196.4600704658164
 20
2.0097510138821066
 30
0.0
 40
3.0
  1
J1194
100
AcDbText
  0
CIRCLE
  5
42
330
17
100
AcDbEntity
  8
NOTCH
100
AcDbCircle
 10
1248.1139168036766
 20
0.009852225012400895
 30
0.0
 40
1.0
  0
TEXT
  5
43
330
17
100
AcDbEntity
  8
LABEL
100
AcDbText
 10
1250.1139168036766
 20
2.0098522250124007
 30
0.0
 40
3.0
  1
J1194
100
AcDbText
  0
CIRCLE
  5
44
330
17
100
AcDbEntity
  8
NOTCH
100
AcDbCircle
 10
1355.4216094784797
 20
0.010037926694260195
 30
0.0
 40
1.0
  0
TEXT
  5
45
330
17
100
AcDbEntity
  8
LABEL
100
AcDbText
 10
1357.4216094784797
 20
2.01003792669426
 30
0.0
 40
3.0
  1
J1194
100
AcDbText
  0
CIRCLE
  5
46
330
17
100
AcDbEntity
  8
NOTCH
100
AcDbCircle
 10
1462.7293021485852
 20
0.010230687972497432
 30
0.0
 40
1.0
  0
TEXT
  5
47
330
17
100
AcDbEntity
  8
LABEL
100
AcDbText
 10
1464.7293021485852
 20
2.0102306879724976
 30
0.0
 40
3.0
  1
J1194
100
AcDbText
  0
CIRCLE
  5
48
330
17
100
AcDbEntity
  8
NOTCH
100
AcDbCircle
 10
125.9409233163136
 20
0.004612146477259725
 30
0.0
 40
1.0
  0
TEXT
  5
49
330
17
100
AcDbEntity
  8
LABEL
100
AcDbText
 10
127.9409233163136
 20
2.00461214647726
 30
0.0
 40
3.0
  1
J1194
100
AcDbText
  0
CIRCLE
  5
4A
330
17
100
AcDbEntity
  8
NOTCH
100
AcDbCircle
 10
1623.6908411569152
 20
0.010508927240882628
 30
0.0
 40
1.0
  0
TEXT
  5
4B
330
17
100
AcDbEntity
  8
LABEL
100
AcDbText
 10
1625.6908411569152
 20
2.0105089272408825
 30
0.0
 40
3.0
  1
J1194
100
AcDbText
  0
CIRCLE
  5
4C
330
17
100
AcDbEntity
  8
NOTCH
100
AcDbCircle
 10
1730.9985338357733
 20
0.01066500809116825
 30
0.0
 40
1.0
  0
TEXT
  5
4D
330
17
100
AcDbEntity
  8
LABEL
100
AcDbText
 10
1732.9985338357733
 20
2.010665008091168
 30
0.0
 40
3.0
  1
J1194
100
AcDbText
  0
CIRCLE
  5
4E
330
17
100
AcDbEntity
  8
NOTCH
100
AcDbCircle
 10
1838.3062269526054
 20
0.010858502318446083
 30
0.0
 40
1.0
  0
TEXT
  5
4F
330
17
100
AcDbEntity
  8
LABEL
100
AcDbText
 10
1840.3062269526054
 20
2.010858502318446
 30
0.0
 40
3.0
  1
J1194
100
AcDbText
  0
CIRCLE
  5
50
330
17
100
AcDbEntity
  8
NOTCH
100
AcDbCircle
 10
160.78725762429494
 20
0.005068046328670792
 30
0.0
 40
1.0
  0
TEXT
  5
51
330
17
100
AcDbEntity
  8
LABEL
100
AcDbText
 10
162.78725762429494
 20
2.0050680463286708
 30
0.0
 40
3.0
  1
J1194
100
AcDbText
  0
CIRCLE
  5
52
330
17
100
AcDbEntity
  8
NOTCH
100
AcDbCircle
 10
1999.270809609746
 20
0.011182230093893186
 30
0.0
 40
1.0
  0
TEXT
  5
53
330
17
100
AcDbEntity
  8
LABEL
100
AcDbText
 10
2001.270809609746
 20
2.011182230093893
 30
0.0
 40
3.0
  1
J1194
100
AcDbText
  0
CIRCLE
  5
54
330
17
100
AcDbEntity
  8
NOTCH
100
AcDbCircle
 10
2106.593385879427
 20
0.011294860881234058
 30
0.0
 40
1.0
  0
TEXT
  5
55
330
17
100
AcDbEntity
  8
LABEL
100
AcDbText
 10
2108.593385879427
 20
2.011294860881234
 30
0.0
 40
3.0
  1
J1194
100
AcDbText
  0
CIRCLE
  5
56
330
17
100
AcDbEntity
  8
NOTCH
100
AcDbCircle
 10
2214.1617558460066
 20
0.010289925077047842
 30
0.0
 40
1.0
  0
TEXT
  5
57
330
17
100
AcDbEntity
  8
LABEL
100
AcDbText
 10
2216.1617558460066
 20
2.0102899250770476
 30
0.0
 40
3.0
  1
J1194
100
AcDbText
  0
CIRCLE
  5
58
330
17
100
AcDbEntity
  8
NOTCH
100
AcDbCircle
 10
2271.831752744101
 20
0.004841664913863185
 30
0.0
 40
1.0
  0
TEXT
  5
59
330
17
100
AcDbEntity
  8
LABEL
100
AcDbText
 10
2273.831752744101
 20
2.0048416649138634
 30
0.0
 40
3.0
  1
J1194
100
AcDbText
  0
CIRCLE
  5
5A
330
17
100
AcDbEntity
  8
NOTCH
100
AcDbCircle
 10
265.15936797234093
 20
0.006324316009279398
 30
0.0
 40
1.0
  0
TEXT
  5
5B
330
17
100
AcDbEntity
  8
LABEL
100
AcDbText
 10
267.15936797234093
 20
2.0063243160092794
 30
0.0
 40
3.0
  1
J1194
100
AcDbText
  0
CIRCLE
  5
5C
330
17
100
AcDbEntity
  8
NOTCH
100
AcDbCircle
 10
369.477550202997
 20
0.007013832940316377
 30
0.0
 40
1.0
  0
TEXT
  5
5D
330
17
100
AcDbEntity
  8
LABEL
100
AcDbText
 10
371.477550202997
 20
2.0070138329403164
 30
0.0
 40
3.0
  1
J1194
100
AcDbText
  0
CIRCLE
  5
5E
330
17
100
AcDbEntity
  8
NOTCH
100
AcDbCircle
 10
473.79573234097904
 20
0.007537205003700132
 30
0.0
 40
1.0
  0
TEXT
  5
5F
330
17
100
AcDbEntity
  8
LABEL
100
AcDbText
 10
475.79573234097904
 20
2.0075372050037
 30
0.0
 40
3.0
  1
J1194
100
AcDbText
  0
CIRCLE
  5
60
330
17
100
AcDbEntity
  8
NOTCH
100
AcDbCircle
 10
543.3411870780218
 20
0.007931424525368422
 30
0.0
 40
1.0
  0
TEXT
  5
61
330
17
100
AcDbEntity
  8
LABEL
100
AcDbText
 10
545.3411870780218
 20
2.0079314245253683
 30
0.0
 40
3.0
  1
J1194
100
AcDbText
  0
CIRCLE
  5
62
330
17
100
AcDbEntity
  8
NOTCH
100
AcDbCircle
 10
647.6593691969227
 20
0.008567714946740114
 30
0.0
 40
1.0
  0
TEXT
  5
63
330
17
100
AcDbEntity
  8
LABEL
100
AcDbText
 10
649.6593691969227
 20
2.0085677149467402
 30
0.0
 40
3.0
  1
J1194
100
AcDbText
  0
CIRCLE
  5
64
330
17
100
AcDbEntity
  8
NOTCH
100
AcDbCircle
 10
751.9775513737543
 20
0.009175939619830084
 30
0.0
 40
1.0
  0
TEXT
  5
65
330
17
100
AcDbEntity
  8
LABEL
100
AcDbText
 10
753.9775513737543
 20
2.00917593961983
 30
0.0
 40
3.0
  1
J1194
100
AcDbText
  0
CIRCLE
  5
66
330
17
100
AcDbEntity
  8
NOTCH
100
AcDbCircle
 10
56.09221023925366
 20
0.0035855133629698497
 30
0.0
 40
1.0
  0
TEXT
  5
67
330
17
100
AcDbEntity
  8
LABEL
100
AcDbText
 10
58.09221023925366
 20
2.0035855133629696
 30
0.0
 40
3.0
  1
J1194
100
AcDbText
  0
CIRCLE
  5
68
330
17
100
AcDbEntity
  8
NOTCH
100
AcDbCircle
 10
90.99443280196805
 20
-106.23697837624385
 30
0.0
 40
1.0
  0
TEXT
  5
69
330
17
100
AcDbEntity
  8
LABEL
100
AcDbText
 10
92.99443280196805
 20
-104.23697837624385
 30
0.0
 40
3.0
  1
J1196
100
AcDbText
  0
CIRCLE
  5
6A
330
17
100
AcDbEntity
  8
NOTCH
100
AcDbCircle
 10
160.78816383357133
 20
-156.34061752875377
 30
0.0
 40
1.0
  0
TEXT
  5
6B
330
17
100
AcDbEntity
  8
LABEL
100
AcDbText
 10
162.78816383357133
 20
-154.34061752875377
 30
0.0
 40
3.0
  1
J1196
100
AcDbText
  0
CIRCLE
  5
6C
330
17
100
AcDbEntity
  8
NOTCH
100
AcDbCircle
 10
230.38592839354055
 20
-201.74121357753677
 30
0.0
 40
1.0
  0
TEXT
  5
6D
330
17
100
AcDbEntity
  8
LABEL
100
AcDbText
 10
232.38592839354055
 20
-199.74121357753677
 30
0.0
 40
3.0
  1
J1196
100
AcDbText
  0
CIRCLE
  5
6E
330
17
100
AcDbEntity
  8
NOTCH
100
AcDbCircle
 10
299.9331040964469
 20
-231.5550050598965
 30
0.0
 40
1.0
  0
TEXT
  5
6F
330
17
100
AcDbEntity
  8
LABEL
100
AcDbText
 10
301.9331040964469
 20
-229.5550050598965
 30
0.0
 40
3.0
  1
J1196
100
AcDbText
  0
CIRCLE
  5
70
330
17
100
AcDbEntity
  8
NOTCH
100
AcDbCircle
 10
404.25140080218296
 20
-255.57790027394435
 30
0.0
 40
1.0
  0
TEXT
  5
71
330
17
100
AcDbEntity
  8
LABEL
100
AcDbText
 10
406.25140080218296
 20
-253.57790027394435
 30
0.0
 40
3.0
  1
J1196
100
AcDbText
  0
CIRCLE
  5
72
330
17
100
AcDbEntity
  8
NOTCH
100
AcDbCircle
 10
56.092815042729725
 20
-78.32528968337459
 30
0.0
 40
1.0
  0
TEXT
  5
73
330
17
100
AcDbEntity
  8
LABEL
100
AcDbText
 10
58.092815042729725
 20
-76.32528968337459
 30
0.0
 40
3.0
  1
J1196
100
AcDbText
  0
CIRCLE
  5
74
330
17
100
AcDbEntity
  8
NOTCH
100
AcDbCircle
 10
439.02414381604706
 20
-258.56788114506116
 30
0.0
 40
1.0
  0
TEXT
  5
75
330
17
100
AcDbEntity
  8
LABEL
100
AcDbText
 10
441.02414381604706
 20
-256.56788114506116
 30
0.0
 40
3.0
  1
J1197
100
AcDbText
  0
CIRCLE
  5
76
330
17
100
AcDbEntity
  8
NOTCH
100
AcDbCircle
 10
543.3422552114407
 20
-246.3733978310774
 30
0.0
 40
1.0
  0
TEXT
  5
77
330
17
100
AcDbEntity
  8
LABEL
100
AcDbText
 10
545.3422552114407
 20
-244.3733978310774
 30
0.0
 40
3.0
  1
J1197
100
AcDbText
  0
CIRCLE
  5
78
330
17
100
AcDbEntity
  8
NOTCH
100
AcDbCircle
 10
647.6602957829948
 20
-222.32135383204437
 30
0.0
 40
1.0
  0
TEXT
  5
79
330
17
100
AcDbEntity
  8
LABEL
100
AcDbText
 10
649.6602957829948
 20
-220.32135383204437
 30
0.0
 40
3.0
  1
J1198
100
AcDbText
  0
CIRCLE
  5
7A
330
17
100
AcDbEntity
  8
NOTCH
100
AcDbCircle
 10
751.978305016253
 20
-197.67861963942596
 30
0.0
 40
1.0
  0
TEXT
  5
7B
330
17
100
AcDbEntity
  8
LABEL
100
AcDbText
 10
753.978305016253
 20
-195.67861963942596
 30
0.0
 40
3.0
  1
J1199
100
AcDbText
  0
CIRCLE
  5
7C
330
17
100
AcDbEntity
  8
NOTCH
100
AcDbCircle
 10
834.3645079659047
 20
-225.08280356396995
 30
0.0
 40
1.0
  0
TEXT
  5
7D
330
17
100
AcDbEntity
  8
LABEL
100
AcDbText
 10
836.3645079659047
 20
-223.08280356396995
 30
0.0
 40
3.0
  1
J1200
100
AcDbText
  0
CIRCLE
  5
7E
330
17
100
AcDbEntity
  8
NOTCH
100
AcDbCircle
 10
926.1913196843458
 20
-256.902211564989
 30
0.0
 40
1.0
  0
TEXT
  5
7F
330
17
100
AcDbEntity
  8
LABEL
100
AcDbText
 10
928.1913196843458
 20
-254.902211564989
 30
0.0
 40
3.0
  1
J1200
100
AcDbText
  0
CIRCLE
  5
80
330
17
100
AcDbEntity
  8
NOTCH
100
AcDbCircle
 10
979.8451660146536
 20
-256.89549172190254
 30
0.0
 40
1.0
  0
TEXT
  5
81
330
17
100
AcDbEntity
  8
LABEL
100
AcDbText
 10
981.8451660146536
 20
-254.89549172190254
 30
0.0
 40
3.0
  1
J1201
100
AcDbText
  0
CIRCLE
  5
82
330
17
100
AcDbEntity
  8
NOTCH
100
AcDbCircle
 10
1087.1528541979403
 20
-255.20020239143076
 30
0.0
 40
1.0
  0
TEXT
  5
83
330
17
100
AcDbEntity
  8
LABEL
100
AcDbText
 10
1089.1528541979403
 20
-253.20020239143076
 30
0.0
 40
3.0
  1
J1201
100
AcDbText
  0
CIRCLE
  5
84
330
17
100
AcDbEntity
  8
NOTCH
100
AcDbCircle
 10
1194.4605369855688
 20
-250.8055643786655
 30
0.0
 40
1.0
  0
TEXT
  5
85
330
17
100
AcDbEntity
  8
LABEL
100
AcDbText
 10
1196.4605369855688
 20
-248.8055643786655
 30
0.0
 40
3.0
  1
J1201
100
AcDbText
  0
CIRCLE
  5
86
330
17
100
AcDbEntity
  8
NOTCH
100
AcDbCircle
 10
1301.7682210878388
 20
-246.25756179315488
 30
0.0
 40
1.0
  0
TEXT
  5
87
330
17
100
AcDbEntity
  8
LABEL
100
AcDbText
 10
1303.7682210878388
 20
-244.25756179315488
 30
0.0
 40
3.0
  1
J1201
100
AcDbText
  0
CIRCLE
  5
88
330
17
100
AcDbEntity
  8
NOTCH
100
AcDbCircle
 10
1409.0759045624468
 20
-241.41159353999836
 30
0.0
 40
1.0
  0
TEXT
  5
89
330
17
100
AcDbEntity
  8
LABEL
100
AcDbText
 10
1411.0759045624468
 20
-239.41159353999836
 30
0.0
 40
3.0
  1
J1201
100
AcDbText
  0
CIRCLE
  5
8A
330
17
100
AcDbEntity
  8
NOTCH
100
AcDbCircle
 10
1516.383586609823
 20
-235.72480092248688
 30
0.0
 40
1.0
  0
TEXT
  5
8B
330
17
100
AcDbEntity
  8
LABEL
100
AcDbText
 10
1518.383586609823
 20
-233.72480092248688
 30
0.0
 40
3.0
  1
J1201
100
AcDbText
  0
CIRCLE
  5
8C
330
17
100
AcDbEntity
  8
NOTCH
100
AcDbCircle
 10
1623.6912692932342
 20
-229.01701849945587
 30
0.0
 40
1.0
  0
TEXT
  5
8D
330
17
100
AcDbEntity
  8
LABEL
100
AcDbText
 10
1625.6912692932342
 20
-227.01701849945587
 30
0.0
 40
3.0
  1
J1201
100
AcDbText
  0
CIRCLE
  5
8E
330
17
100
AcDbEntity
  8
NOTCH
100
AcDbCircle
 10
1730.9989520946137
 20
-220.91284333497657
 30
0.0
 40
1.0
  0
TEXT
  5
8F
330
17
100
AcDbEntity
  8
LABEL
100
AcDbText
 10
1732.9989520946137
 20
-218.91284333497657
 30
0.0
 40
3.0
  1
J1201
100
AcDbText
  0
CIRCLE
  5
90
330
17
100
AcDbEntity
  8
NOTCH
100
AcDbCircle
 10
1838.3066256200018
 20
-210.4268397808586
 30
0.0
 40
1.0
  0
TEXT
  5
91
330
17
100
AcDbEntity
  8
LABEL
100
AcDbText
 10
1840.3066256200018
 20
-208.4268397808586
 30
0.0
 40
3.0
  1
J1201
100
AcDbText
  0
CIRCLE
  5
92
330
17
100
AcDbEntity
  8
NOTCH
100
AcDbCircle
 10
1945.6152096073552
 20
-195.7172330205613
 30
0.0
 40
1.0
  0
TEXT
  5
93
330
17
100
AcDbEntity
  8
LABEL
100
AcDbText
 10
1947.6152096073552
 20
-193.7172330205613
 30
0.0
 40
3.0
  1
J1201
100
AcDbText
  0
CIRCLE
  5
94
330
17
100
AcDbEntity
  8
NOTCH
100
AcDbCircle
 10
2052.9289643642996
 20
-174.0248606770545
 30
0.0
 40
1.0
  0
TEXT
  5
95
330
17
100
AcDbEntity
  8
LABEL
100
AcDbText
 10
2054.9289643642996
 20
-172.0248606770545
 30
0.0
 40
3.0
  1
J1201
100
AcDbText
  0
CIRCLE
  5
96
330
17
100
AcDbEntity
  8
NOTCH
100
AcDbCircle
 10
2160.303292295194
 20
-139.78060142463704
 30
0.0
 40
1.0
  0
TEXT
  5
97
330
17
100
AcDbEntity
  8
LABEL
100
AcDbText
 10
2162.303292295194
 20
-137.78060142463704
 30
0.0
 40
3.0
  1
J1201
100
AcDbText
  0
CIRCLE
  5
98
330
17
100
AcDbEntity
  8
NOTCH
100
AcDbCircle
 10
2271.829617953298
 20
-63.142817527978
 30
0.0
 40
1.0
  0
TEXT
  5
99
330
17
100
AcDbEntity
  8
LABEL
100
AcDbText
 10
2273.829617953298
 20
-61.142817527978
 30
0.0
 40
3.0
  1
J1201
100
AcDbText
  0
CIRCLE
  5
9A
330
17
100
AcDbEntity
  8
NOTCH
100
AcDbCircle
 10
7.578624733996235e-05
 20
-3.4305999069902477
 30
0.0
 40
1.0
  0
TEXT
  5
9B
330
17
100
AcDbEntity
  8
LABEL
100
AcDbText
 10
2.00007578624734
 20
-1.4305999069902477
 30
0.0
 40
3.0
  1
J1202
100
AcDbText
  0
ENDSEC
  0
SECTION
  2
OBJECTS
  0
DICTIONARY
  5
A
330
0
100
AcDbDictionary
281
1
  3
ACAD_COLOR
350
B
  3
ACAD_GROUP
350
C
  3
ACAD_LAYOUT
350
D
  3
ACAD_MATERIAL
350
E
  3
ACAD_MLEADERSTYLE
350
F
  3
ACAD_MLINESTYLE
350
10
  3
ACAD_PLOTSETTINGS
350
11
  3
ACAD_PLOTSTYLENAME
350
12
  3
ACAD_SCALELIST
350
14
  3
ACAD_TABLESTYLE
350
15
  3
ACAD_VISUALSTYLE
350
16
  3
EZDXF_META
350
2D
  0
DICTIONARY
  5
B
330
A
100
AcDbDictionary
281
1
  0
DICTIONARY
  5
C
330
A
100
AcDbDictionary
281
1
  0
DICTIONARY
  5
D
330
A
100
AcDbDictionary
281
1
  3
Model
350
1A
  3
Layout1
350
1E
  0
DICTIONARY
  5
E
330
A
100
AcDbDictionary
281
1
  3
ByBlock
350
1F
  3
ByLayer
350
20
  3
Global
350
21
  0
DICTIONARY
  5
F
330
A
100
AcDbDictionary
281
1
  3
Standard
350
2C
  0
DICTIONARY
  5
10
330
A
100
AcDbDictionary
281
1
  3
Standard
350
22
  0
DICTIONARY
  5
11
330
A
100
AcDbDictionary
281
1
  0
ACDBDICTIONARYWDFLT
  5
12
330
A
100
AcDbDictionary
281
1
  3
Normal
350
13
100
AcDbDictionaryWithDefault
340
13
  0
ACDBPLACEHOLDER
  5
13
330
12
  0
DICTIONARY
  5
14
330
A
100
AcDbDictionary
281
1
  0
DICTIONARY
  5
15
330
A
100
AcDbDictionary
281
1
  0
DICTIONARY
  5
16
330
A
100
AcDbDictionary
281
1
  0
LAYOUT
  5
1A
330
D
100
AcDbPlotSettings
  1

  4
A3
  6

 40
7.5
 41
20.0
 42
7.5
 43
20.0
 44
420.0
 45
297.0
 46
0.0
 47
0.0
 48
0.0
 49
0.0
140
0.0
141
0.0
142
1.0
143
1.0
 70
1024
 72
1
 73
0
 74
5
  7

 75
16
 76
0
 77
2
 78
300
147
1.0
148
0.0
149
0.0
100
AcDbLayout
  1
Model
 70
1
 71
0
 10
0.0
 20
0.0
 11
420.0
 21
297.0
 12
0.0
 22
0.0
 32
0.0
 14
1e+20
 24
1e+20
 34
1e+20
 15
-1e+20
 25
-1e+20
 35
-1e+20
146
0.0
 13
0.0
 23
0.0
 33
0.0
 16
1.0
 26
0.0
 36
0.0
 17
0.0
 27
1.0
 37
0.0
 76
1
330
17
  0
LAYOUT
  5
1E
330
D
100
AcDbPlotSettings
  1

  4
A3
  6

 40
7.5
 41
20.0
 42
7.5
 43
20.0
 44
420.0
 45
297.0
 46
0.0
 47
0.0
 48
0.0
 49
0.0
140
0.0
141
0.0
142
1.0
143
1.0
 70
0
 72
1
 73
0
 74
5
  7

 75
16
 76
0
 77
2
 78
300
147
1.0
148
0.0
149
0.0
100
AcDbLayout
  1
Layout1
 70
1
 71
1
 10
0.0
 20
0.0
 11
420.0
 21
297.0
 12
0.0
 22
0.0
 32
0.0
 14
1e+20
 24
1e+20
 34
1e+20
 15
-1e+20
 25
-1e+20
 35
-1e+20
146
0.0
 13
0.0
 23
0.0
 33
0.0
 16
1.0
 26
0.0
 36
0.0
 17
0.0
 27
1.0
 37
0.0
 76
1
330
1B
  0
MATERIAL
  5
1F
102
{ACAD_REACTORS
330
E
102
}
330
E
100
AcDbMaterial
  1
ByBlock
  2

 70
0
 40
1.0
 71
1
 41
1.0
 91
-1023410177
 42
1.0
 72
1
  3

 73
1
 74
1
 75
1
 44
0.5
 73
0
 45
1.0
 46
1.0
 77
1
  4

 78
1
 79
1
170
1
 48
1.0
171
1
  6

172
1
173
1
174
1
140
1.0
141
1.0
175
1
  7

176
1
177
1
178
1
143
1.0
179
1
  8

270
1
271
1
272
1
145
1.0
146
1.0
273
1
  9

274
1
275
1
276
1
 42
1.0
 72
1
  3

 73
1
 74
1
 75
1
 94
63
  0
MATERIAL
  5
20
102
{ACAD_REACTORS
330
E
102
}
330
E
100
AcDbMaterial
  1
ByLayer
  2

 70
0
 40
1.0
 71
1
 41
1.0
 91
-1023410177
 42
1.0
 72
1
  3

 73
1
 74
1
 75
1
 44
0.5
 73
0
 45
1.0
 46
1.0
 77
1
  4

 78
1
 79
1
170
1
 48
1.0
171
1
  6

172
1
173
1
174
1
140
1.0
141
1.0
175
1
  7

176
1
177
1
178
1
143
1.0
179
1
  8

270
1
271
1
272
1
145
1.0
146
1.0
273
1
  9

274
1
275
1
276
1
 42
1.0
 72
1
  3

 73
1
 74
1
 75
1
 94
63
  0
MATERIAL
  5
21
102
{ACAD_REACTORS
330
E
102
}
330
E
100
AcDbMaterial
  1
Global
  2

 70
0
 40
1.0
 71
1
 41
1.0
 91
-1023410177
 42
1.0
 72
1
  3

 73
1
 74
1
 75
1
 44
0.5
 73
0
 45
1.0
 46
1.0
 77
1
  4

 78
1
 79
1
170
1
 48
1.0
171
1
  6

172
1
173
1
174
1
140
1.0
141
1.0
175
1
  7

176
1
177
1
178
1
143
1.0
179
1
  8

270
1
271
1
272
1
145
1.0
146
1.0
273
1
  9

274
1
275
1
276
1
 42
1.0
 72
1
  3

 73
1
 74
1
 75
1
 94
63
  0
MLINESTYLE
  5
22
102
{ACAD_REACTORS
330
10
102
}
330
10
100
AcDbMlineStyle
  2
Standard
 70
0
  3

 62
256
 51
90.0
 52
90.0
 71
2
 49
0.5
 62
256
  6
BYLAYER
 49
-0.5
 62
256
  6
BYLAYER
  0
MLEADERSTYLE
  5
2C
102
{ACAD_REACTORS
330
F
102
}
330
F
100
AcDbMLeaderStyle
179
2
170
2
171
1
172
0
 90
2
 40
0.0
 41
0.0
173
1
 91
-1056964608
 92
-2
290
1
 42
2.0
291
1
 43
8.0
  3
Standard
 44
4.0
300

342
29
174
1
175
1
176
0
178
1
 93
-1056964608
 45
4.0
292
0
297
0
 46
4.0
 94
-1056964608
 47
1.0
 49
1.0
140
1.0
294
1
141
0.0
177
0
142
1.0
295
0
296
0
143
3.75
271
0
272
9
273
9
  0
DICTIONARY
  5
2D
330
A
100
AcDbDictionary
280
1
281
1
  3
CREATED_BY_EZDXF
350
2E
  3
WRITTEN_BY_EZDXF
350
9E
  0
DICTIONARYVAR
  5
2E
330
2D
100
DictionaryVariables
280
0
  1
1.4.4 @ 2026-10-04T18:28:59.708475+00:00
  0
DICTIONARYVAR
  5
9E
330
2D
100
DictionaryVariables
280
0
  1
1.4.4 @ 2026-10-04T18:28:59.712942+00:00
  0
ENDSEC
  0
EOF
