  0
SECTION
  2
HEADER
  9
$ACADVER
  1
AC1024
  9
$ACADMAINTVER
 70
6
  9
$DWGCODEPAGE
  3
ANSI_1252
  9
$LASTSAVEDBY
  1
ezdxf
  9
$INSBASE
 10
0.0
 20
0.0
 30
0.0
  9
$EXTMIN
 10
1e+20
 20
1e+20
 30
1e+20
  9
$EXTMAX
 10
-1e+20
 20
-1e+20
 30
-1e+20
  9
$LIMMIN
 10
0.0
 20
0.0
  9
$LIMMAX
 10
420.0
 20
297.0
  9
$ORTHOMODE
 70
0
  9
$REGENMODE
 70
1
  9
$FILLMODE
 70
1
  9
$QTEXTMODE
 70
0
  9
$MIRRTEXT
 70
1
  9
$LTSCALE
 40
1.0
  9
$ATTMODE
 70
1
  9
$TEXTSIZE
 40
2.5
  9
$TRACEWID
 40
1.0
  9
$TEXTSTYLE
  7
Standard
  9
$CLAYER
  8
0
  9
$CELTYPE
  6
ByLayer
  9
$CECOLOR
 62
256
  9
$CELTSCALE
 40
1.0
  9
$DISPSILH
 70
0
  9
$DIMSCALE
 40
1.0
  9
$DIMASZ
 40
2.5
  9
$DIMEXO
 40
0.625
  9
$DIMDLI
 40
3.75
  9
$DIMRND
 40
0.0
  9
$DIMDLE
 40
0.0
  9
$DIMEXE
 40
1.25
  9
$DIMTP
 40
0.0
  9
$DIMTM
 40
0.0
  9
$DIMTXT
 40
2.5
  9
$DIMCEN
 40
2.5
  9
$DIMTSZ
 40
0.0
  9
$DIMTOL
 70
0
  9
$DIMLIM
 70
0
  9
$DIMTIH
 70
0
  9
$DIMTOH
 70
0
  9
$DIMSE1
 70
0
  9
$DIMSE2
 70
0
  9
$DIMTAD
 70
1
  9
$DIMZIN
 70
8
  9
$DIMBLK
  1

  9
$DIMASO
 70
1
  9
$DIMSHO
 70
1
  9
$DIMPOST
  1

  9
$DIMAPOST
  1

  9
$DIMALT
 70
0
  9
$DIMALTD
 70
3
  9
$DIMALTF
 40
0.03937007874
  9
$DIMLFAC
 40
1.0
  9
$DIMTOFL
 70
1
  9
$DIMTVP
 40
0.0
  9
$DIMTIX
 70
0
  9
$DIMSOXD
 70
0
  9
$DIMSAH
 70
0
  9
$DIMBLK1
  1

  9
$DIMBLK2
  1

  9
$DIMSTYLE
  2
ISO-25
  9
$DIMCLRD
 70
0
  9
$DIMCLRE
 70
0
  9
$DIMCLRT
 70
0
  9
$DIMTFAC
 40
1.0
  9
$DIMGAP
 40
0.625
  9
$DIMJUST
 70
0
  9
$DIMSD1
 70
0
  9
$DIMSD2
 70
0
  9
$DIMTOLJ
 70
0
  9
$DIMTZIN
 70
8
  9
$DIMALTZ
 70
0
  9
$DIMALTTZ
 70
0
  9
$DIMUPT
 70
0
  9
$DIMDEC
 70
2
  9
$DIMTDEC
 70
2
  9
$DIMALTU
 70
2
  9
$DIMALTTD
 70
3
  9
$DIMTXSTY
  7
Standard
  9
$DIMAUNIT
 70
0
  9
$DIMADEC
 70
0
  9
$DIMALTRND
 40
0.0
  9
$DIMAZIN
 70
0
  9
$DIMDSEP
 70
44
  9
$DIMATFIT
 70
3
  9
$DIMFRAC
 70
0
  9
$DIMLDRBLK
  1

  9
$DIMLUNIT
 70
2
  9
$DIMLWD
 70
-2
  9
$DIMLWE
 70
-2
  9
$DIMTMOVE
 70
0
  9
$DIMFXL
 40
1.0
  9
$DIMFXLON
 70
0
  9
$DIMJOGANG
 40
0.785398163397
  9
$DIMTFILL
 70
0
  9
$DIMTFILLCLR
 70
0
  9
$DIMARCSYM
 70
0
  9
$DIMLTYPE
  6

  9
$DIMLTEX1
  6

  9
$DIMLTEX2
  6

  9
$DIMTXTDIRECTION
 70
0
  9
$LUNITS
 70
2
  9
$LUPREC
 70
4
  9
$SKETCHINC
 40
1.0
  9
$FILLETRAD
 40
10.0
  9
$AUNITS
 70
0
  9
$AUPREC
 70
2
  9
$MENU
  1
.
  9
$ELEVATION
 40
0.0
  9
$PELEVATION
 40
0.0
  9
$THICKNESS
 40
0.0
  9
$LIMCHECK
 70
0
  9
$CHAMFERA
 40
0.0
  9
$CHAMFERB
 40
0.0
  9
$CHAMFERC
 40
0.0
  9
$CHAMFERD
 40
0.0
  9
$SKPOLY
 70
0
  9
$TDCREATE
 40
2461318.7701273146
  9
$TDUCREATE
 40
2458532.153996898
  9
$TDUPDATE
 40
2461318.7701273146
  9
$TDUUPDATE
 40
2458532.1544311
  9
$TDINDWG
 40
0.0
  9
$TDUSRTIMER
 40
0.0
  9
$USRTIMER
 70
1
  9
$ANGBASE
 50
0.0
  9
$ANGDIR
 70
0
  9
$PDMODE
 70
0
  9
$PDSIZE
 40
0.0
  9
$PLINEWID
 40
0.0
  9
$SPLFRAME
 70
0
  9
$SPLINETYPE
 70
6
  9
$SPLINESEGS
 70
8
  9
$HANDSEED
  5
9F
  9
$SURFTAB1
 70
6
  9
$SURFTAB2
 70
6
  9
$SURFTYPE
 70
6
  9
$SURFU
 70
6
  9
$SURFV
 70
6
  9
$UCSBASE
  2

  9
$UCSNAME
  2

  9
$UCSORG
 10
0.0
 20
0.0
 30
0.0
  9
$UCSXDIR
 10
1.0
 20
0.0
 30
0.0
  9
$UCSYDIR
 10
0.0
 20
1.0
 30
0.0
  9
$UCSORTHOREF
  2

  9
$UCSORTHOVIEW
 70
0
  9
$UCSORGTOP
 10
0.0
 20
0.0
 30
0.0
  9
$UCSORGBOTTOM
 10
0.0
 20
0.0
 30
0.0
  9
$UCSORGLEFT
 10
0.0
 20
0.0
 30
0.0
  9
$UCSORGRIGHT
 10
0.0
 20
0.0
 30
0.0
  9
$UCSORGFRONT
 10
0.0
 20
0.0
 30
0.0
  9
$UCSORGBACK
 10
0.0
 20
0.0
 30
0.0
  9
$PUCSBASE
  2

  9
$PUCSNAME
  2

  9
$PUCSORG
 10
0.0
 20
0.0
 30
0.0
  9
$PUCSXDIR
 10
1.0
 20
0.0
 30
0.0
  9
$PUCSYDIR
 10
0.0
 20
1.0
 30
0.0
  9
$PUCSORTHOREF
  2

  9
$PUCSORTHOVIEW
 70
0
  9
$PUCSORGTOP
 10
0.0
 20
0.0
 30
0.0
  9
$PUCSORGBOTTOM
 10
0.0
 20
0.0
 30
0.0
  9
$PUCSORGLEFT
 10
0.0
 20
0.0
 30
0.0
  9
$PUCSORGRIGHT
 10
0.0
 20
0.0
 30
0.0
  9
$PUCSORGFRONT
 10
0.0
 20
0.0
 30
0.0
  9
$PUCSORGBACK
 10
0.0
 20
0.0
 30
0.0
  9
$USERI1
 70
0
  9
$USERI2
 70
0
  9
$USERI3
 70
0
  9
$USERI4
 70
0
  9
$USERI5
 70
0
  9
$USERR1
 40
0.0
  9
$USERR2
 40
0.0
  9
$USERR3
 40
0.0
  9
$USERR4
 40
0.0
  9
$USERR5
 40
0.0
  9
$WORLDVIEW
 70
1
  9
$SHADEDGE
 70
3
  9
$SHADEDIF
 70
70
  9
$TILEMODE
 70
1
  9
$MAXACTVP
 70
64
  9
$PINSBASE
 10
0.0
 20
0.0
 30
0.0
  9
$PLIMCHECK
 70
0
  9
$PEXTMIN
 10
1e+20
 20
1e+20
 30
1e+20
  9
$PEXTMAX
 10
-1e+20
 20
-1e+20
 30
-1e+20
  9
$PLIMMIN
 10
0.0
 20
0.0
  9
$PLIMMAX
 10
420.0
 20
297.0
  9
$UNITMODE
 70
0
  9
$VISRETAIN
 70
1
  9
$PLINEGEN
 70
0
  9
$PSLTSCALE
 70
1
  9
$TREEDEPTH
 70
3020
  9
$CMLSTYLE
  2
Standard
  9
$CMLJUST
 70
0
  9
$CMLSCALE
 40
20.0
  9
$PROXYGRAPHICS
 70
1
  9
$MEASUREMENT
 70
1
  9
$CELWEIGHT
370
-1
  9
$ENDCAPS
280
0
  9
$JOINSTYLE
280
0
  9
$LWDISPLAY
290
0
  9
$INSUNITS
 70
4
  9
$HYPERLINKBASE
  1

  9
$STYLESHEET
  1

  9
$XEDIT
290
1
  9
$CEPSNTYPE
380
0
  9
$PSTYLEMODE
290
1
  9
$FINGERPRINTGUID
  2
{0BE5E4E1-0BB3-4789-8536-346882025A26}
  9
$VERSIONGUID
  2
{AA05F3FD-7058-4BDC-8C74-C36821E163D6}
  9
$EXTNAMES
290
1
  9
$PSVPSCALE
 40
0.0
  9
$OLESTARTUP
290
0
  9
$SORTENTS
280
127
  9
$INDEXCTL
280
0
  9
$HIDETEXT
280
1
  9
$XCLIPFRAME
280
1
  9
$HALOGAP
280
0
  9
$OBSCOLOR
 70
257
  9
$OBSLTYPE
280
0
  9
$INTERSECTIONDISPLAY
280
0
  9
$INTERSECTIONCOLOR
 70
257
  9
$DIMASSOC
280
2
  9
$PROJECTNAME
  1

  9
$CAMERADISPLAY
290
0
  9
$LENSLENGTH
 40
50.0
  9
$CAMERAHEIGHT
 40
0.0
  9
$STEPSPERSEC
 40
24.0
  9
$STEPSIZE
 40
100.0
  9
$3DDWFPREC
 40
2.0
  9
$PSOLWIDTH
 40
0.005
  9
$PSOLHEIGHT
 40
0.08
  9
$LOFTANG1
 40
1.570796326795
  9
$LOFTANG2
 40
1.570796326795
  9
$LOFTMAG1
 40
0.0
  9
$LOFTMAG2
 40
0.0
  9
$LOFTPARAM
 70
7
  9
$LOFTNORMALS
280
1
  9
$LATITUDE
 40
37.795
  9
$LONGITUDE
 40
-122.394
  9
$NORTHDIRECTION
 40
0.0
  9
$TIMEZONE
 70
-8000
  9
$LIGHTGLYPHDISPLAY
280
1
  9
$TILEMODELIGHTSYNCH
280
1
  9
$CMATERIAL
347
20
  9
$SOLIDHIST
280
0
  9
$SHOWHIST
280
1
  9
$DWFFRAME
280
2
  9
$DGNFRAME
280
2
  9
$REALWORLDSCALE
290
1
  9
$INTERFERECOLOR
 62
256
  9
$CSHADOW
280
0
  9
$SHADOWPLANELOCATION
 40
0.0
  0
ENDSEC
  0
SECTION
  2
CLASSES
  0
CLASS
  1
ACDBDICTIONARYWDFLT
  2
AcDbDictionaryWithDefault
  3
ObjectDBX Classes
 90
0
 91
0
280
0
281
0
  0
CLASS
  1
SUN
  2
AcDbSun
  3
SCENEOE
 90
1153
 91
0
280
0
281
0
  0
CLASS
  1
VISUALSTYLE
  2
AcDbVisualStyle
  3
ObjectDBX Classes
 90
4095
 91
0
280
0
281
0
  0
CLASS
  1
MATERIAL
  2
AcDbMaterial
  3
ObjectDBX Classes
 90
1153
 91
0
280
0
281
0
  0
CLASS
  1
SCALE
  2
AcDbScale
  3
ObjectDBX Classes
 90
1153
 91
0
280
0
281
0
  0
CLASS
  1
TABLESTYLE
  2
AcDbTableStyle
  3
ObjectDBX Classes
 90
4095
 91
0
280
0
281
0
  0
CLASS
  1
MLEADERSTYLE
  2
AcDbMLeaderStyle
  3
ACDB_MLEADERSTYLE_CLASS
 90
4095
 91
0
280
0
281
0
  0
CLASS
  1
DICTIONARYVAR
  2
AcDbDictionaryVar
  3
ObjectDBX Classes
 90
0
 91
0
280
0
281
0
  0
CLASS
  1
CELLSTYLEMAP
  2
AcDbCellStyleMap
  3
ObjectDBX Classes
 90
1152
 91
0
280
0
281
0
  0
CLASS
  1
MENTALRAYRENDERSETTINGS
  2
AcDbMentalRayRenderSettings
  3
SCENEOE
 90
1024
 91
0
280
0
281
0
  0
CLASS
  1
ACDBDETAILVIEWSTYLE
  2
AcDbDetailViewStyle
  3
ObjectDBX Classes
 90
1025
 91
0
280
0
281
0
  0
CLASS
  1
ACDBSECTIONVIEWSTYLE
  2
AcDbSectionViewStyle
  3
ObjectDBX Classes
 90
1025
 91
0
280
0
281
0
  0
CLASS
  1
RASTERVARIABLES
  2
AcDbRasterVariables
  3
ISM
 90
0
 91
0
280
0
281
0
  0
CLASS
  1
LAYOUT
  2
AcDbLayout
  3
ObjectDBX Classes
 90
0
 91
0
280
0
281
0
  0
CLASS
  1
ACDBPLACEHOLDER
  2
AcDbPlaceHolder
  3
ObjectDBX Classes
 90
0
 91
0
280
0
281
0
  0
ENDSEC
  0
SECTION
  2
TABLES
  0
TABLE
  2
VPORT
  5
8
330
0
100
AcDbSymbolTable
 70
1
  0
VPORT
  5
23
330
8
100
AcDbSymbolTableRecord
100
AcDbViewportTableRecord
  2
*Active
 70
0
 10
0.0
 20
0.0
 11
1.0
 21
1.0
 12
0.0
 22
0.0
 13
0.0
 23
0.0
 14
0.5
 24
0.5
 15
0.5
 25
0.5
 16
0.0
 26
0.0
 36
1.0
 17
0.0
 27
0.0
 37
0.0
 40
1000.0
 41
1.34
 42
50.0
 43
0.0
 44
0.0
 50
0.0
 51
0.0
 71
0
 72
1000
 73
1
 74
3
 75
0
 76
0
 77
0
 78
0
281
0
 65
0
146
0.0
  0
ENDTAB
  0
TABLE
  2
LTYPE
  5
2
330
0
100
AcDbSymbolTable
 70
3
  0
LTYPE
  5
24
330
2
100
AcDbSymbolTableRecord
100
AcDbLinetypeTableRecord
  2
ByBlock
 70
0
  3

 72
65
 73
0
 40
0.0
  0
LTYPE
  5
25
330
2
100
AcDbSymbolTableRecord
100
AcDbLinetypeTableRecord
  2
ByLayer
 70
0
  3

 72
65
 73
0
 40
0.0
  0
LTYPE
  5
26
330
2
100
AcDbSymbolTableRecord
100
AcDbLinetypeTableRecord
  2
Continuous
 70
0
  3

 72
65
 73
0
 40
0.0
  0
ENDTAB
  0
TABLE
  2
LAYER
  5
1
330
0
100
AcDbSymbolTable
 70
8
  0
LAYER
  5
27
330
1
100
AcDbSymbolTableRecord
100
AcDbLayerTableRecord
  2
0
 70
0
 62
7
  6
Continuous
370
-3
390
13
347
21
  0
LAYER
  5
28
330
1
100
AcDbSymbolTableRecord
100
AcDbLayerTableRecord
  2
Defpoints
 70
0
 62
7
  6
Continuous
290
0
370
-3
390
13
347
21
  0
LAYER
  5
2F
330
1
100
AcDbSymbolTableRecord
100
AcDbLayerTableRecord
  2
CUT
 70
0
 62
1
  6
Continuous
370
-3
390
13
347
21
  0
LAYER
  5
30
330
1
100
AcDbSymbolTableRecord
100
AcDbLayerTableRecord
  2
SEW
 70
0
 62
5
  6
Continuous
370
-3
390
13
347
21
  0
LAYER
  5
31
330
1
100
AcDbSymbolTableRecord
100
AcDbLayerTableRecord
  2
GRAIN
 70
0
 62
3
  6
Continuous
370
-3
390
13
347
21
  0
LAYER
  5
32
330
1
100
AcDbSymbolTableRecord
100
AcDbLayerTableRecord
  2
NOTCH
 70
0
 62
2
  6
Continuous
370
-3
390
13
347
21
  0
LAYER
  5
33
330
1
100
AcDbSymbolTableRecord
100
AcDbLayerTableRecord
  2
LABEL
 70
0
 62
7
  6
Continuous
370
-3
390
13
347
21
  0
LAYER
  5
34
330
1
100
AcDbSymbolTableRecord
100
AcDbLayerTableRecord
  2
ATTACHMENT
 70
0
 62
4
  6
Continuous
370
-3
390
13
347
21
  0
ENDTAB
  0
TABLE
  2
STYLE
  5
5
330
0
100
AcDbSymbolTable
 70
1
  0
STYLE
  5
29
330
5
100
AcDbSymbolTableRecord
100
AcDbTextStyleTableRecord
  2
Standard
 70
0
 40
0.0
 41
1.0
 50
0.0
 71
0
 42
2.5
  3
txt
  4

  0
ENDTAB
  0
TABLE
  2
VIEW
  5
7
330
0
100
AcDbSymbolTable
 70
0
  0
ENDTAB
  0
TABLE
  2
UCS
  5
6
330
0
100
AcDbSymbolTable
 70
0
  0
ENDTAB
  0
TABLE
  2
APPID
  5
3
330
0
100
AcDbSymbolTable
 70
3
  0
APPID
  5
2A
330
3
100
AcDbSymbolTableRecord
100
AcDbRegAppTableRecord
  2
ACAD
 70
0
  0
APPID
  5
9C
330
3
100
AcDbSymbolTableRecord
100
AcDbRegAppTableRecord
  2
HATCHBACKGROUNDCOLOR
 70
0
  0
APPID
  5
9D
330
3
100
AcDbSymbolTableRecord
100
AcDbRegAppTableRecord
  2
EZDXF
 70
0
  0
ENDTAB
  0
TABLE
  2
DIMSTYLE
  5
4
330
0
100
AcDbSymbolTable
 70
1
100
AcDbDimStyleTable
  0
DIMSTYLE
105
2B
330
4
100
AcDbSymbolTableRecord
100
AcDbDimStyleTableRecord
  2
Standard
 70
0
 40
1.0
 41
2.5
 42
0.625
 43
3.75
 44
1.25
 45
0.0
 46
0.0
 47
0.0
 48
0.0
 49
2.5
140
2.5
141
2.5
142
0.0
143
0.03937007874
144
1.0
145
0.0
146
1.0
147
0.625
148
0.0
 69
0
 70
0
 71
0
 72
0
 73
0
 74
0
 75
0
 76
0
 77
1
 78
8
 79
3
170
0
171
3
172
1
173
0
174
0
175
0
176
0
177
0
178
0
179
2
271
2
272
2
273
2
274
3
275
0
276
0
277
2
278
44
279
0
280
0
281
0
282
0
283
0
284
8
285
0
286
0
288
0
289
3
290
0
371
-2
372
-2
  0
ENDTAB
  0
TABLE
  2
BLOCK_RECORD
  5
9
330
0
100
AcDbSymbolTable
 70
2
  0
BLOCK_RECORD
  5
17
330
9
100
AcDbSymbolTableRecord
100
AcDbBlockTableRecord
  2
*Model_Space
340
1A
 70
0
280
1
281
0
  0
BLOCK_RECORD
  5
1B
330
9
100
AcDbSymbolTableRecord
100
AcDbBlockTableRecord
  2
*Paper_Space
340
1E
 70
0
280
1
281
0
  0
ENDTAB
  0
ENDSEC
  0
SECTION
  2
BLOCKS
  0
BLOCK
  5
18
330
17
100
AcDbEntity
  8
0
100
AcDbBlockBegin
  2
*Model_Space
 70
0
 10
0.0
 20
0.0
 30
0.0
  3
*Model_Space
  1

  0
ENDBLK
  5
19
330
17
100
AcDbEntity
  8
0
100
AcDbBlockEnd
  0
BLOCK
  5
1C
330
1B
100
AcDbEntity
  8
0
100
AcDbBlockBegin
  2
*Paper_Space
 70
0
 10
0.0
 20
0.0
 30
0.0
  3
*Paper_Space
  1

  0
ENDBLK
  5
1D
330
1B
100
AcDbEntity
  8
0
100
AcDbBlockEnd
  0
ENDSEC
  0
SECTION
  2
ENTITIES
  0
LWPOLYLINE
  5
35
330
17
100
AcDbEntity
  8
CUT
100
AcDbPolyline
 90
111
 70
1
 10
-12.008061658663875
 20
5.180161476924945
 10
30.339743083108235
 20
45.004732605133306
 10
65.15674933788935
 20
79.33612040905416
 10
100.52992811006932
 20
111.30818032156884
 10
135.55567646295168
 20
140.37781275917789
 10
170.47032682028484
 20
169.29965775105825
 10
205.68167889643217
 20
197.03647891303615
 10
241.43143134849336
 20
221.31145264040947
 10
277.6090330969188
 20
239.48125724362967
 10
313.295623143051
 20
251.7423821804996
 10
348.5312061755802
 20
262.72179054162103
 10
384.109665436204
 20
271.72695316305516
 10
420.096843561307
 20
277.60121718387904
 10
456.41542826630314
 20
279.12277517319893
 10
492.63283334700293
 20
275.6356995762357
 10
528.3741777858479
 20
268.42655088532695
 10
563.6217448397051
 20
259.0830334256641
 10
598.410377289066
 20
249.11822494494265
 10
633.0137847916634
 20
239.92042029814058
 10
667.8220918462117
 20
231.11195642574415
 10
702.7807316357442
 20
221.65865287199006
 10
737.7125342205189
 20
211.6895467735574
 10
767.6069486506744
 20
202.78178325599063
 10
895.825897527765
 20
276.94916814690873
 10
952.6928335807086
 20
277.01582490063834
 10
1006.4547753894204
 20
277.0633700015174
 10
1060.3401331755717
 20
276.1710637597394
 10
1114.1929177367542
 20
274.1493040307333
 10
1167.9367467797852
 20
271.49562725232084
 10
1221.5816224050598
 20
268.70275072661497
 10
1275.21654180619
 20
266.1646504770471
 10
1328.9005663390476
 20
263.5667455232743
 10
1382.6036863539946
 20
260.7819794642183
 10
1436.3162319979829
 20
257.76941164065227
 10
1490.0382259366268
 20
254.48761696123842
 10
1543.7636318067205
 20
250.89555680526794
 10
1597.4904212812958
 20
247.0065994028904
 10
1651.2367963692557
 20
242.79597252962748
 10
1705.0170529034565
 20
238.1108297073971
 10
1758.831186297439
 20
232.79792859052063
 10
1812.6810958627998
 20
226.70354055166175
 10
1866.6070389881265
 20
219.64843660347296
 10
1920.634974426522
 20
211.09379509725608
 10
1974.7396381674077
 20
200.60658581223316
 10
2028.9049997068862
 20
187.8544206396088
 10
2083.221928019257
 20
172.47560165769315
 10
2137.9893429989297
 20
152.98046842289256
 10
2193.2552332756145
 20
125.21288395118192
 10
2249.3812930010017
 20
85.32367370721109
 10
2314.5057007643245
 20
4.244701847391967
 10
2314.5464759317315
 20
-5.444279073589538
 10
2314.548553460079
 20
-11.233770937915226
 10
2314.549655962979
 20
-17.24156644248094
 10
2314.5510276208697
 20
-23.428238962393642
 10
2314.5531939254374
 20
-29.732710026656004
 10
2314.573436244065
 20
-48.090634293801564
 10
2241.210306571617
 20
-48.224274058512535
 10
2187.2375304891048
 20
-48.30139956118073
 10
2133.487545445812
 20
-48.37364846310814
 10
2079.8162560244177
 20
-48.44250289496382
 10
2026.1569084232865
 20
-48.50910109622469
 10
1972.499835514375
 20
-48.574253394133095
 10
1918.844515520174
 20
-48.63846708132922
 10
1865.190295383891
 20
-48.70206134342817
 10
1811.5363933860037
 20
-48.76524777518884
 10
1757.882530652153
 20
-48.82819803118589
 10
1704.2286935199934
 20
-48.89102590583925
 10
1650.574870163209
 20
-48.95379231268708
 10
1596.9210544128534
 20
-49.01653065508076
 10
1543.2672451579451
 20
-49.079263458668706
 10
1489.6134398463116
 20
-49.14200820734053
 10
1435.9596364051088
 20
-49.20477629403621
 10
1382.3058331673324
 20
-49.267571868495835
 10
1328.6520291284612
 20
-49.330392316605
 10
1274.9982239789413
 20
-49.39323216777527
 10
1221.3444182623778
 20
-49.45608658984559
 10
1167.690612870651
 20
-49.51895527903035
 10
1114.036807541931
 20
-49.5818411685656
 10
1060.3830006898477
 20
-49.644741699938066
 10
1006.7291921068736
 20
-49.707645436016094
 10
953.0753800954719
 20
-49.770535395037435
 10
899.4215604855613
 20
-49.83337793253133
 10
769.4216200312428
 20
-49.98389866506275
 10
734.6490838306914
 20
-50.02492786125596
 10
699.8764427219877
 20
-50.06615476869489
 10
665.1037844663023
 20
-50.10754008552959
 10
630.3311075425886
 20
-50.14902270211296
 10
595.5584180169193
 20
-50.19055509660335
 10
560.7857222100288
 20
-50.23211165321073
 10
526.0130236533191
 20
-50.27368173907963
 10
491.24032317587904
 20
-50.31526005449596
 10
456.4676212118877
 20
-50.35684104866691
 10
421.69491686908253
 20
-50.39841657660094
 10
386.92220865574353
 20
-50.43997560343421
 10
352.1494968255148
 20
-50.4815078624139
 10
317.37678293102726
 20
-50.52300761014878
 10
282.6040683650744
 20
-50.56447315341018
 10
247.8313525675732
 20
-50.605901242558275
 10
213.0553601006252
 20
-50.647206506997854
 10
178.25936583097183
 20
-50.6882318907939
 10
143.4315311161248
 20
-50.728894134020535
 10
108.56660474382592
 20
-50.769311365828194
 10
73.53685190463199
 20
-50.81049275601458
 10
38.7640436932634
 20
-50.85107032200484
 10
-11.940057219548104
 20
-50.90196138161059
 10
-11.964767854696955
 20
-32.044457568533296
 10
-11.973164371572551
 20
-25.24844132801587
 10
-11.980919527770938
 20
-18.583978698522532
 10
-11.987274382083314
 20
-12.11389086335516
 10
-11.990841386449766
 20
-5.904939060138368
 10
-12.008061658663875
 20
5.180161476924945
  0
LWPOLYLINE
  5
36
330
17
100
AcDbEntity
  8
SEW
100
AcDbPolyline
 90
110
 70
1
 10
0.0
 20
0.0
 10
38.66407706182789
 20
36.3603331139488
 10
73.39662512691382
 20
70.60844072880272
 10
108.38855542880727
 20
102.23590907910412
 10
143.21943813153254
 20
131.14381270030898
 10
178.01177204034386
 20
159.96432891967825
 10
212.7738704729536
 20
187.3472622803521
 10
247.52097973473565
 20
210.94141626961417
 10
282.2725778446137
 20
228.39502614947864
 10
317.0309598441401
 20
240.3372392818828
 10
351.7907663054152
 20
251.16839565410908
 10
386.5530079608016
 20
259.96696775919173
 10
421.31898148572355
 20
265.6418919423665
 10
456.09000136847885
 20
267.09861509193706
 10
490.866789613801
 20
263.7502446230753
 10
525.6479922099298
 20
256.7347597525174
 10
560.4318444240184
 20
247.5141650379922
 10
595.2165769073471
 20
237.55047365822747
 10
630.0004196677558
 20
228.30470817830167
 10
664.7837219630145
 20
219.50257191955492
 10
699.567762302618
 20
210.0964824911339
 10
734.3524393220586
 20
200.16936421646295
 10
769.1376860255335
 20
189.80425898054273
 10
899.0530827303044
 20
264.9529426583003
 10
952.706899407897
 20
265.0158331442868
 10
1006.3607319087615
 20
265.0632821412676
 10
1060.0156595764468
 20
264.17479167137
 10
1113.6719061634008
 20
262.160410438476
 10
1167.3288963569012
 20
259.5110214497981
 10
1220.9860543100604
 20
256.7175054776431
 10
1274.6429125928819
 20
254.17836704098147
 10
1328.2998373350542
 20
251.58177351423157
 10
1381.9569788860933
 20
248.79939166051977
 10
1435.6143857116133
 20
245.78991639993612
 10
1489.2721066835884
 20
242.51204805803465
 10
1542.9301910149636
 20
238.92448899447945
 10
1596.5886236732988
 20
235.0404795286736
 10
1650.2474320861252
 20
230.83671285007338
 10
1703.9067946019625
 20
226.16210188058764
 10
1757.566892237166
 20
220.86440823251613
 10
1811.227907635628
 20
214.79139802624138
 10
1864.8900486721207
 20
207.77080717231874
 10
1918.5542823352891
 20
199.27375325069113
 10
1972.2219127213857
 20
188.87125496725878
 10
2025.893971758214
 20
176.23522813129588
 10
2079.571311717395
 20
161.03749658956247
 10
2133.2654947847645
 20
141.92439342008373
 10
2187.0497700688666
 20
114.90122597042985
 10
2241.0700865385447
 20
76.50858320077984
 10
2302.5234579302823
 20
1.4098829582844026e-13
 10
2302.546484992673
 20
-5.471682456680915
 10
2302.548554232696
 20
-11.238077073781163
 10
2302.54965620706
 20
-17.243997604563866
 10
2302.5510280779686
 20
-23.431630914184964
 10
2302.553196198747
 20
-29.741387592731826
 10
2302.560221287367
 20
-36.11249789999143
 10
2241.188447164542
 20
-36.22429396826562
 10
2187.220383066777
 20
-36.301411812607505
 10
2133.471415478118
 20
-36.37365930377378
 10
2079.8008613461657
 20
-36.44251276980616
 10
2026.1420148826498
 20
-36.50911033862628
 10
1972.485264705643
 20
-36.57426224032248
 10
1918.8301541544665
 20
-36.638475675033334
 10
1865.1760722603854
 20
-36.70206977248289
 10
1811.5222613914434
 20
-36.765256096577986
 10
1757.86845146918
 20
-36.82820629049678
 10
1704.2146417015426
 20
-36.89103413307548
 10
1650.5608320887611
 20
-36.953800523837145
 10
1596.9070226131857
 20
-37.01653885889197
 10
1543.2532132581541
 20
-37.07927166259692
 10
1489.5994040118678
 20
-37.142016415870074
 10
1435.9455948630125
 20
-37.20478450924298
 10
1382.2917857966163
 20
-37.267580090524326
 10
1328.6379767933854
 20
-37.33040054444601
 10
1274.9841678340042
 20
-37.39324040007842
 10
1221.3303589027585
 20
-37.45609482591468
 10
1167.6765499915566
 20
-37.51896351922338
 10
1114.0227410971595
 20
-37.58184941293784
 10
1060.3689322106668
 20
-37.64474994669533
 10
1006.7151233141058
 20
-37.707653683141004
 10
953.0613143849189
 20
-37.77054363854916
 10
899.4075053830896
 20
-37.83338616361355
 10
769.4075933406983
 20
-37.98390686216967
 10
734.6348905733934
 20
-38.02493625490016
 10
699.8621880417724
 20
-38.06616323516292
 10
665.0894856732003
 20
-38.107548604499385
 10
630.3167833793619
 20
-38.14903125134844
 10
595.5440810976802
 20
-38.19056366107456
 10
560.7713787968631
 20
-38.232120225442785
 10
525.9986764654296
 20
-38.27369031582429
 10
491.22597409893
 20
-38.3152686334994
 10
456.45327169214596
 20
-38.356849628199846
 10
421.68056923670736
 20
-38.39842515387712
 10
386.9078667194542
 20
-38.439984173901294
 10
352.1351641282361
 20
-38.48151642184242
 10
317.3624614541472
 20
-38.523016156180994
 10
282.5897586923469
 20
-38.56448168536044
 10
247.81705582067067
 20
-38.6059097591018
 10
213.04110708331274
 20
-38.64721497152178
 10
178.24521752832302
 20
-38.688240231399625
 10
143.41752086884347
 20
-38.728902312649524
 10
108.55259557118453
 20
-38.7693195428011
 10
73.52274457298698
 20
-38.81050104838437
 10
38.75004049708879
 20
-38.85107849240358
 10
0.0442126646812544
 20
-38.88992691623299
 10
0.035221842625685874
 20
-32.02873293338859
 10
0.026826469665172253
 20
-25.233615330215933
 10
0.019072347700583813
 20
-18.570014866045362
 10
0.012719830100016236
 20
-12.10210495793554
 10
0.009153260330557968
 20
-5.892172303932555
  0
LINE
  5
37
330
17
100
AcDbEntity
  8
GRAIN
100
AcDbLine
 10
1115.9894246883625
 20
108.56856752476699
 30
0.0
 11
1195.9894246883625
 21
108.56856752476699
 31
0.0
  0
LINE
  5
38
330
17
100
AcDbEntity
  8
GRAIN
100
AcDbLine
 10
1195.9894246883625
 20
108.56856752476699
 30
0.0
 11
1190.9894246883625
 21
111.56856752476699
 31
0.0
  0
TEXT
  5
39
330
17
100
AcDbEntity
  8
LABEL
100
AcDbText
 10
1155.9894246883625
 20
108.56856752476699
 30
0.0
 40
6.0
  1
O08_SMOOTH_LOWER_O3
100
AcDbText
  0
CIRCLE
  5
3A
330
17
100
AcDbEntity
  8
NOTCH
100
AcDbCircle
 10
2302.552112138358
 20
-26.586509253458395
 30
0.0
 40
1.0
  0
TEXT
  5
3B
330
17
100
AcDbEntity
  8
LABEL
100
AcDbText
 10
2304.552112138358
 20
-24.586509253458395
 30
0.0
 40
3.0
  1
J1060
100
AcDbText
  0
CIRCLE
  5
3C
330
17
100
AcDbEntity
  8
NOTCH
100
AcDbCircle
 10
90.89259027786053
 20
86.42217490395342
 30
0.0
 40
1.0
  0
TEXT
  5
3D
330
17
100
AcDbEntity
  8
LABEL
100
AcDbText
 10
92.89259027786053
 20
88.42217490395342
 30
0.0
 40
3.0
  1
J1183
100
AcDbText
  0
CIRCLE
  5
3E
330
17
100
AcDbEntity
  8
NOTCH
100
AcDbCircle
 10
160.6156050859382
 20
145.55407080999362
 30
0.0
 40
1.0
  0
TEXT
  5
3F
330
17
100
AcDbEntity
  8
LABEL
100
AcDbText
 10
162.6156050859382
 20
147.55407080999362
 30
0.0
 40
3.0
  1
J1183
100
AcDbText
  0
CIRCLE
  5
40
330
17
100
AcDbEntity
  8
NOTCH
100
AcDbCircle
 10
230.14742510384463
 20
199.14433927498314
 30
0.0
 40
1.0
  0
TEXT
  5
41
330
17
100
AcDbEntity
  8
LABEL
100
AcDbText
 10
232.14742510384463
 20
201.14433927498314
 30
0.0
 40
3.0
  1
J1183
100
AcDbText
  0
CIRCLE
  5
42
330
17
100
AcDbEntity
  8
NOTCH
100
AcDbCircle
 10
299.6517688443769
 20
234.36613271568072
 30
0.0
 40
1.0
  0
TEXT
  5
43
330
17
100
AcDbEntity
  8
LABEL
100
AcDbText
 10
301.6517688443769
 20
236.36613271568072
 30
0.0
 40
3.0
  1
J1183
100
AcDbText
  0
CIRCLE
  5
44
330
17
100
AcDbEntity
  8
NOTCH
100
AcDbCircle
 10
403.9359947232626
 20
262.8044298507791
 30
0.0
 40
1.0
  0
TEXT
  5
45
330
17
100
AcDbEntity
  8
LABEL
100
AcDbText
 10
405.9359947232626
 20
264.8044298507791
 30
0.0
 40
3.0
  1
J1183
100
AcDbText
  0
CIRCLE
  5
46
330
17
100
AcDbEntity
  8
NOTCH
100
AcDbCircle
 10
56.03035109437086
 20
53.48438692137576
 30
0.0
 40
1.0
  0
TEXT
  5
47
330
17
100
AcDbEntity
  8
LABEL
100
AcDbText
 10
58.03035109437086
 20
55.48438692137576
 30
0.0
 40
3.0
  1
J1183
100
AcDbText
  0
CIRCLE
  5
48
330
17
100
AcDbEntity
  8
NOTCH
100
AcDbCircle
 10
438.7044914271012
 20
266.3702535171518
 30
0.0
 40
1.0
  0
TEXT
  5
49
330
17
100
AcDbEntity
  8
LABEL
100
AcDbText
 10
440.7044914271012
 20
268.3702535171518
 30
0.0
 40
3.0
  1
J1186
100
AcDbText
  0
CIRCLE
  5
4A
330
17
100
AcDbEntity
  8
NOTCH
100
AcDbCircle
 10
543.0399183169741
 20
252.1244623952548
 30
0.0
 40
1.0
  0
TEXT
  5
4B
330
17
100
AcDbEntity
  8
LABEL
100
AcDbText
 10
545.0399183169741
 20
254.1244623952548
 30
0.0
 40
3.0
  1
J1186
100
AcDbText
  0
CIRCLE
  5
4C
330
17
100
AcDbEntity
  8
NOTCH
100
AcDbCircle
 10
647.3920708153851
 20
223.9036400489283
 30
0.0
 40
1.0
  0
TEXT
  5
4D
330
17
100
AcDbEntity
  8
LABEL
100
AcDbText
 10
649.3920708153851
 20
225.9036400489283
 30
0.0
 40
3.0
  1
J1188
100
AcDbText
  0
CIRCLE
  5
4E
330
17
100
AcDbEntity
  8
NOTCH
100
AcDbCircle
 10
751.745062673796
 20
194.98681159850284
 30
0.0
 40
1.0
  0
TEXT
  5
4F
330
17
100
AcDbEntity
  8
LABEL
100
AcDbText
 10
753.745062673796
 20
196.98681159850284
 30
0.0
 40
3.0
  1
J1190
100
AcDbText
  0
CIRCLE
  5
50
330
17
100
AcDbEntity
  8
NOTCH
100
AcDbCircle
 10
834.0953843779189
 20
227.3786008194215
 30
0.0
 40
1.0
  0
TEXT
  5
51
330
17
100
AcDbEntity
  8
LABEL
100
AcDbText
 10
836.0953843779189
 20
229.3786008194215
 30
0.0
 40
3.0
  1
J1192
100
AcDbText
  0
CIRCLE
  5
52
330
17
100
AcDbEntity
  8
NOTCH
100
AcDbCircle
 10
925.8799910691007
 20
264.98438790129353
 30
0.0
 40
1.0
  0
TEXT
  5
53
330
17
100
AcDbEntity
  8
LABEL
100
AcDbText
 10
927.8799910691007
 20
266.98438790129353
 30
0.0
 40
3.0
  1
J1192
100
AcDbText
  0
CIRCLE
  5
54
330
17
100
AcDbEntity
  8
NOTCH
100
AcDbCircle
 10
979.5338156583293
 20
265.0395576427772
 30
0.0
 40
1.0
  0
TEXT
  5
55
330
17
100
AcDbEntity
  8
LABEL
100
AcDbText
 10
981.5338156583293
 20
267.0395576427772
 30
0.0
 40
3.0
  1
J1193
100
AcDbText
  0
CIRCLE
  5
56
330
17
100
AcDbEntity
  8
NOTCH
100
AcDbCircle
 10
1086.8437828699239
 20
263.167601054923
 30
0.0
 40
1.0
  0
TEXT
  5
57
330
17
100
AcDbEntity
  8
LABEL
100
AcDbText
 10
1088.8437828699239
 20
265.167601054923
 30
0.0
 40
3.0
  1
J1193
100
AcDbText
  0
CIRCLE
  5
58
330
17
100
AcDbEntity
  8
NOTCH
100
AcDbCircle
 10
1194.1574753334808
 20
258.1142634637206
 30
0.0
 40
1.0
  0
TEXT
  5
59
330
17
100
AcDbEntity
  8
LABEL
100
AcDbText
 10
1196.1574753334808
 20
260.1142634637206
 30
0.0
 40
3.0
  1
J1193
100
AcDbText
  0
CIRCLE
  5
5A
330
17
100
AcDbEntity
  8
NOTCH
100
AcDbCircle
 10
1301.4713749639682
 20
252.88007027760654
 30
0.0
 40
1.0
  0
TEXT
  5
5B
330
17
100
AcDbEntity
  8
LABEL
100
AcDbText
 10
1303.4713749639682
 20
254.88007027760654
 30
0.0
 40
3.0
  1
J1193
100
AcDbText
  0
CIRCLE
  5
5C
330
17
100
AcDbEntity
  8
NOTCH
100
AcDbCircle
 10
1408.7856822988533
 20
247.29465403022795
 30
0.0
 40
1.0
  0
TEXT
  5
5D
330
17
100
AcDbEntity
  8
LABEL
100
AcDbText
 10
1410.7856822988533
 20
249.29465403022795
 30
0.0
 40
3.0
  1
J1193
100
AcDbText
  0
CIRCLE
  5
5E
330
17
100
AcDbEntity
  8
NOTCH
100
AcDbCircle
 10
1516.101148849276
 20
240.71826852625705
 30
0.0
 40
1.0
  0
TEXT
  5
5F
330
17
100
AcDbEntity
  8
LABEL
100
AcDbText
 10
1518.101148849276
 20
242.71826852625705
 30
0.0
 40
3.0
  1
J1193
100
AcDbText
  0
CIRCLE
  5
60
330
17
100
AcDbEntity
  8
NOTCH
100
AcDbCircle
 10
1623.418027879712
 20
232.93859618937347
 30
0.0
 40
1.0
  0
TEXT
  5
61
330
17
100
AcDbEntity
  8
LABEL
100
AcDbText
 10
1625.418027879712
 20
234.93859618937347
 30
0.0
 40
3.0
  1
J1193
100
AcDbText
  0
CIRCLE
  5
62
330
17
100
AcDbEntity
  8
NOTCH
100
AcDbCircle
 10
1730.7368434195641
 20
223.51325505655188
 30
0.0
 40
1.0
  0
TEXT
  5
63
330
17
100
AcDbEntity
  8
LABEL
100
AcDbText
 10
1732.7368434195641
 20
225.51325505655188
 30
0.0
 40
3.0
  1
J1193
100
AcDbText
  0
CIRCLE
  5
64
330
17
100
AcDbEntity
  8
NOTCH
100
AcDbCircle
 10
1838.0589781538742
 20
211.28110259928008
 30
0.0
 40
1.0
  0
TEXT
  5
65
330
17
100
AcDbEntity
  8
LABEL
100
AcDbText
 10
1840.0589781538742
 20
213.28110259928008
 30
0.0
 40
3.0
  1
J1193
100
AcDbText
  0
CIRCLE
  5
66
330
17
100
AcDbEntity
  8
NOTCH
100
AcDbCircle
 10
1945.3880975283373
 20
194.07250410897495
 30
0.0
 40
1.0
  0
TEXT
  5
67
330
17
100
AcDbEntity
  8
LABEL
100
AcDbText
 10
1947.3880975283373
 20
196.07250410897495
 30
0.0
 40
3.0
  1
J1193
100
AcDbText
  0
CIRCLE
  5
68
330
17
100
AcDbEntity
  8
NOTCH
100
AcDbCircle
 10
2052.7326417378044
 20
168.6363623604292
 30
0.0
 40
1.0
  0
TEXT
  5
69
330
17
100
AcDbEntity
  8
LABEL
100
AcDbText
 10
2054.7326417378044
 20
170.6363623604292
 30
0.0
 40
3.0
  1
J1193
100
AcDbText
  0
CIRCLE
  5
6A
330
17
100
AcDbEntity
  8
NOTCH
100
AcDbCircle
 10
2160.1576324268153
 20
128.41280969525678
 30
0.0
 40
1.0
  0
TEXT
  5
6B
330
17
100
AcDbEntity
  8
LABEL
100
AcDbText
 10
2162.1576324268153
 20
130.41280969525678
 30
0.0
 40
3.0
  1
J1193
100
AcDbText
  0
CIRCLE
  5
6C
330
17
100
AcDbEntity
  8
NOTCH
100
AcDbCircle
 10
2271.7967722344138
 20
38.25429160038999
 30
0.0
 40
1.0
  0
TEXT
  5
6D
330
17
100
AcDbEntity
  8
LABEL
100
AcDbText
 10
2273.7967722344138
 20
40.25429160038999
 30
0.0
 40
3.0
  1
J1193
100
AcDbText
  0
CIRCLE
  5
6E
330
17
100
AcDbEntity
  8
NOTCH
100
AcDbCircle
 10
979.8882188495123
 20
-37.73909866084508
 30
0.0
 40
1.0
  0
TEXT
  5
6F
330
17
100
AcDbEntity
  8
LABEL
100
AcDbText
 10
981.8882188495123
 20
-35.73909866084508
 30
0.0
 40
3.0
  1
J1194
100
AcDbText
  0
CIRCLE
  5
70
330
17
100
AcDbEntity
  8
NOTCH
100
AcDbCircle
 10
1087.1958366539131
 20
-37.613299679816585
 30
0.0
 40
1.0
  0
TEXT
  5
71
330
17
100
AcDbEntity
  8
LABEL
100
AcDbText
 10
1089.1958366539131
 20
-35.613299679816585
 30
0.0
 40
3.0
  1
J1194
100
AcDbText
  0
CIRCLE
  5
72
330
17
100
AcDbEntity
  8
NOTCH
100
AcDbCircle
 10
1194.5034544471575
 20
-37.487529172569026
 30
0.0
 40
1.0
  0
TEXT
  5
73
330
17
100
AcDbEntity
  8
LABEL
100
AcDbText
 10
1196.5034544471575
 20
-35.487529172569026
 30
0.0
 40
3.0
  1
J1194
100
AcDbText
  0
CIRCLE
  5
74
330
17
100
AcDbEntity
  8
NOTCH
100
AcDbCircle
 10
1248.1572633683813
 20
-37.42466761299655
 30
0.0
 40
1.0
  0
TEXT
  5
75
330
17
100
AcDbEntity
  8
LABEL
100
AcDbText
 10
1250.1572633683813
 20
-35.42466761299655
 30
0.0
 40
3.0
  1
J1194
100
AcDbText
  0
CIRCLE
  5
76
330
17
100
AcDbEntity
  8
NOTCH
100
AcDbCircle
 10
1355.4648812950009
 20
-37.29899031748516
 30
0.0
 40
1.0
  0
TEXT
  5
77
330
17
100
AcDbEntity
  8
LABEL
100
AcDbText
 10
1357.4648812950009
 20
-35.29899031748516
 30
0.0
 40
3.0
  1
J1194
100
AcDbText
  0
CIRCLE
  5
78
330
17
100
AcDbEntity
  8
NOTCH
100
AcDbCircle
 10
1462.7724994374403
 20
-37.17340046255653
 30
0.0
 40
1.0
  0
TEXT
  5
79
330
17
100
AcDbEntity
  8
LABEL
100
AcDbText
 10
1464.7724994374403
 20
-35.17340046255653
 30
0.0
 40
3.0
  1
J1194
100
AcDbText
  0
CIRCLE
  5
7A
330
17
100
AcDbEntity
  8
NOTCH
100
AcDbCircle
 10
125.985058220014
 20
-38.74911092772531
 30
0.0
 40
1.0
  0
TEXT
  5
7B
330
17
100
AcDbEntity
  8
LABEL
100
AcDbText
 10
127.985058220014
 20
-36.74911092772531
 30
0.0
 40
3.0
  1
J1194
100
AcDbText
  0
CIRCLE
  5
7C
330
17
100
AcDbEntity
  8
NOTCH
100
AcDbCircle
 10
1623.7339273509733
 20
-36.98516969136456
 30
0.0
 40
1.0
  0
TEXT
  5
7D
330
17
100
AcDbEntity
  8
LABEL
100
AcDbText
 10
1625.7339273509733
 20
-34.98516969136456
 30
0.0
 40
3.0
  1
J1194
100
AcDbText
  0
CIRCLE
  5
7E
330
17
100
AcDbEntity
  8
NOTCH
100
AcDbCircle
 10
1731.0415465853612
 20
-36.85962021178613
 30
0.0
 40
1.0
  0
TEXT
  5
7F
330
17
100
AcDbEntity
  8
LABEL
100
AcDbText
 10
1733.0415465853612
 20
-34.85962021178613
 30
0.0
 40
3.0
  1
J1194
100
AcDbText
  0
CIRCLE
  5
80
330
17
100
AcDbEntity
  8
NOTCH
100
AcDbCircle
 10
1838.3491668259144
 20
-36.73366293453044
 30
0.0
 40
1.0
  0
TEXT
  5
81
330
17
100
AcDbEntity
  8
LABEL
100
AcDbText
 10
1840.3491668259144
 20
-34.73366293453044
 30
0.0
 40
3.0
  1
J1194
100
AcDbText
  0
CIRCLE
  5
82
330
17
100
AcDbEntity
  8
NOTCH
100
AcDbCircle
 10
160.83136919858325
 20
-38.70857127202457
 30
0.0
 40
1.0
  0
TEXT
  5
83
330
17
100
AcDbEntity
  8
LABEL
100
AcDbText
 10
162.83136919858325
 20
-36.70857127202457
 30
0.0
 40
3.0
  1
J1194
100
AcDbText
  0
CIRCLE
  5
84
330
17
100
AcDbEntity
  8
NOTCH
100
AcDbCircle
 10
1999.3136397941464
 20
-36.541686289474384
 30
0.0
 40
1.0
  0
TEXT
  5
85
330
17
100
AcDbEntity
  8
LABEL
100
AcDbText
 10
2001.3136397941464
 20
-34.541686289474384
 30
0.0
 40
3.0
  1
J1194
100
AcDbText
  0
CIRCLE
  5
86
330
17
100
AcDbEntity
  8
NOTCH
100
AcDbCircle
 10
2106.636138412142
 20
-36.40808603678997
 30
0.0
 40
1.0
  0
TEXT
  5
87
330
17
100
AcDbEntity
  8
LABEL
100
AcDbText
 10
2108.636138412142
 20
-34.40808603678997
 30
0.0
 40
3.0
  1
J1194
100
AcDbText
  0
CIRCLE
  5
88
330
17
100
AcDbEntity
  8
NOTCH
100
AcDbCircle
 10
2214.2044151156597
 20
-36.26285289043656
 30
0.0
 40
1.0
  0
TEXT
  5
89
330
17
100
AcDbEntity
  8
LABEL
100
AcDbText
 10
2216.2044151156597
 20
-34.26285289043656
 30
0.0
 40
3.0
  1
J1194
100
AcDbText
  0
CIRCLE
  5
8A
330
17
100
AcDbEntity
  8
NOTCH
100
AcDbCircle
 10
2271.8743342259545
 20
-36.168395934128526
 30
0.0
 40
1.0
  0
TEXT
  5
8B
330
17
100
AcDbEntity
  8
LABEL
100
AcDbText
 10
2273.8743342259545
 20
-34.168395934128526
 30
0.0
 40
3.0
  1
J1194
100
AcDbText
  0
CIRCLE
  5
8C
330
17
100
AcDbEntity
  8
NOTCH
100
AcDbCircle
 10
265.2034072565088
 20
-38.58519572223112
 30
0.0
 40
1.0
  0
TEXT
  5
8D
330
17
100
AcDbEntity
  8
LABEL
100
AcDbText
 10
267.2034072565088
 20
-36.58519572223112
 30
0.0
 40
3.0
  1
J1194
100
AcDbText
  0
CIRCLE
  5
8E
330
17
100
AcDbEntity
  8
NOTCH
100
AcDbCircle
 10
369.52151542384513
 20
-38.460750297871854
 30
0.0
 40
1.0
  0
TEXT
  5
8F
330
17
100
AcDbEntity
  8
LABEL
100
AcDbText
 10
371.52151542384513
 20
-36.460750297871854
 30
0.0
 40
3.0
  1
J1194
100
AcDbText
  0
CIRCLE
  5
90
330
17
100
AcDbEntity
  8
NOTCH
100
AcDbCircle
 10
473.839622895538
 20
-38.33605913084962
 30
0.0
 40
1.0
  0
TEXT
  5
91
330
17
100
AcDbEntity
  8
LABEL
100
AcDbText
 10
475.839622895538
 20
-36.33605913084962
 30
0.0
 40
3.0
  1
J1194
100
AcDbText
  0
CIRCLE
  5
92
330
17
100
AcDbEntity
  8
NOTCH
100
AcDbCircle
 10
543.3850276311464
 20
-38.25290527063353
 30
0.0
 40
1.0
  0
TEXT
  5
93
330
17
100
AcDbEntity
  8
LABEL
100
AcDbText
 10
545.3850276311464
 20
-36.25290527063353
 30
0.0
 40
3.0
  1
J1194
100
AcDbText
  0
CIRCLE
  5
94
330
17
100
AcDbEntity
  8
NOTCH
100
AcDbCircle
 10
647.7031345262811
 20
-38.128289927923916
 30
0.0
 40
1.0
  0
TEXT
  5
95
330
17
100
AcDbEntity
  8
LABEL
100
AcDbText
 10
649.7031345262811
 20
-36.128289927923916
 30
0.0
 40
3.0
  1
J1194
100
AcDbText
  0
CIRCLE
  5
96
330
17
100
AcDbEntity
  8
NOTCH
100
AcDbCircle
 10
752.0212419570458
 20
-38.004421558534915
 30
0.0
 40
1.0
  0
TEXT
  5
97
330
17
100
AcDbEntity
  8
LABEL
100
AcDbText
 10
754.0212419570458
 20
-36.004421558534915
 30
0.0
 40
3.0
  1
J1194
100
AcDbText
  0
CIRCLE
  5
98
330
17
100
AcDbEntity
  8
NOTCH
100
AcDbCircle
 10
56.136392535037885
 20
-38.83078977039398
 30
0.0
 40
1.0
  0
TEXT
  5
99
330
17
100
AcDbEntity
  8
LABEL
100
AcDbText
 10
58.136392535037885
 20
-36.83078977039398
 30
0.0
 40
3.0
  1
J1194
100
AcDbText
  0
CIRCLE
  5
9A
330
17
100
AcDbEntity
  8
NOTCH
100
AcDbCircle
 10
0.031024156145429062
 20
-28.63117413180226
 30
0.0
 40
1.0
  0
TEXT
  5
9B
330
17
100
AcDbEntity
  8
LABEL
100
AcDbText
 10
2.031024156145429
 20
-26.63117413180226
 30
0.0
 40
3.0
  1
J1195
100
AcDbText
  0
ENDSEC
  0
SECTION
  2
OBJECTS
  0
DICTIONARY
  5
A
330
0
100
AcDbDictionary
281
1
  3
ACAD_COLOR
350
B
  3
ACAD_GROUP
350
C
  3
ACAD_LAYOUT
350
D
  3
ACAD_MATERIAL
350
E
  3
ACAD_MLEADERSTYLE
350
F
  3
ACAD_MLINESTYLE
350
10
  3
ACAD_PLOTSETTINGS
350
11
  3
ACAD_PLOTSTYLENAME
350
12
  3
ACAD_SCALELIST
350
14
  3
ACAD_TABLESTYLE
350
15
  3
ACAD_VISUALSTYLE
350
16
  3
EZDXF_META
350
2D
  0
DICTIONARY
  5
B
330
A
100
AcDbDictionary
281
1
  0
DICTIONARY
  5
C
330
A
100
AcDbDictionary
281
1
  0
DICTIONARY
  5
D
330
A
100
AcDbDictionary
281
1
  3
Model
350
1A
  3
Layout1
350
1E
  0
DICTIONARY
  5
E
330
A
100
AcDbDictionary
281
1
  3
ByBlock
350
1F
  3
ByLayer
350
20
  3
Global
350
21
  0
DICTIONARY
  5
F
330
A
100
AcDbDictionary
281
1
  3
Standard
350
2C
  0
DICTIONARY
  5
10
330
A
100
AcDbDictionary
281
1
  3
Standard
350
22
  0
DICTIONARY
  5
11
330
A
100
AcDbDictionary
281
1
  0
ACDBDICTIONARYWDFLT
  5
12
330
A
100
AcDbDictionary
281
1
  3
Normal
350
13
100
AcDbDictionaryWithDefault
340
13
  0
ACDBPLACEHOLDER
  5
13
330
12
  0
DICTIONARY
  5
14
330
A
100
AcDbDictionary
281
1
  0
DICTIONARY
  5
15
330
A
100
AcDbDictionary
281
1
  0
DICTIONARY
  5
16
330
A
100
AcDbDictionary
281
1
  0
LAYOUT
  5
1A
330
D
100
AcDbPlotSettings
  1

  4
A3
  6

 40
7.5
 41
20.0
 42
7.5
 43
20.0
 44
420.0
 45
297.0
 46
0.0
 47
0.0
 48
0.0
 49
0.0
140
0.0
141
0.0
142
1.0
143
1.0
 70
1024
 72
1
 73
0
 74
5
  7

 75
16
 76
0
 77
2
 78
300
147
1.0
148
0.0
149
0.0
100
AcDbLayout
  1
Model
 70
1
 71
0
 10
0.0
 20
0.0
 11
420.0
 21
297.0
 12
0.0
 22
0.0
 32
0.0
 14
1e+20
 24
1e+20
 34
1e+20
 15
-1e+20
 25
-1e+20
 35
-1e+20
146
0.0
 13
0.0
 23
0.0
 33
0.0
 16
1.0
 26
0.0
 36
0.0
 17
0.0
 27
1.0
 37
0.0
 76
1
330
17
  0
LAYOUT
  5
1E
330
D
100
AcDbPlotSettings
  1

  4
A3
  6

 40
7.5
 41
20.0
 42
7.5
 43
20.0
 44
420.0
 45
297.0
 46
0.0
 47
0.0
 48
0.0
 49
0.0
140
0.0
141
0.0
142
1.0
143
1.0
 70
0
 72
1
 73
0
 74
5
  7

 75
16
 76
0
 77
2
 78
300
147
1.0
148
0.0
149
0.0
100
AcDbLayout
  1
Layout1
 70
1
 71
1
 10
0.0
 20
0.0
 11
420.0
 21
297.0
 12
0.0
 22
0.0
 32
0.0
 14
1e+20
 24
1e+20
 34
1e+20
 15
-1e+20
 25
-1e+20
 35
-1e+20
146
0.0
 13
0.0
 23
0.0
 33
0.0
 16
1.0
 26
0.0
 36
0.0
 17
0.0
 27
1.0
 37
0.0
 76
1
330
1B
  0
MATERIAL
  5
1F
102
{ACAD_REACTORS
330
E
102
}
330
E
100
AcDbMaterial
  1
ByBlock
  2

 70
0
 40
1.0
 71
1
 41
1.0
 91
-1023410177
 42
1.0
 72
1
  3

 73
1
 74
1
 75
1
 44
0.5
 73
0
 45
1.0
 46
1.0
 77
1
  4

 78
1
 79
1
170
1
 48
1.0
171
1
  6

172
1
173
1
174
1
140
1.0
141
1.0
175
1
  7

176
1
177
1
178
1
143
1.0
179
1
  8

270
1
271
1
272
1
145
1.0
146
1.0
273
1
  9

274
1
275
1
276
1
 42
1.0
 72
1
  3

 73
1
 74
1
 75
1
 94
63
  0
MATERIAL
  5
20
102
{ACAD_REACTORS
330
E
102
}
330
E
100
AcDbMaterial
  1
ByLayer
  2

 70
0
 40
1.0
 71
1
 41
1.0
 91
-1023410177
 42
1.0
 72
1
  3

 73
1
 74
1
 75
1
 44
0.5
 73
0
 45
1.0
 46
1.0
 77
1
  4

 78
1
 79
1
170
1
 48
1.0
171
1
  6

172
1
173
1
174
1
140
1.0
141
1.0
175
1
  7

176
1
177
1
178
1
143
1.0
179
1
  8

270
1
271
1
272
1
145
1.0
146
1.0
273
1
  9

274
1
275
1
276
1
 42
1.0
 72
1
  3

 73
1
 74
1
 75
1
 94
63
  0
MATERIAL
  5
21
102
{ACAD_REACTORS
330
E
102
}
330
E
100
AcDbMaterial
  1
Global
  2

 70
0
 40
1.0
 71
1
 41
1.0
 91
-1023410177
 42
1.0
 72
1
  3

 73
1
 74
1
 75
1
 44
0.5
 73
0
 45
1.0
 46
1.0
 77
1
  4

 78
1
 79
1
170
1
 48
1.0
171
1
  6

172
1
173
1
174
1
140
1.0
141
1.0
175
1
  7

176
1
177
1
178
1
143
1.0
179
1
  8

270
1
271
1
272
1
145
1.0
146
1.0
273
1
  9

274
1
275
1
276
1
 42
1.0
 72
1
  3

 73
1
 74
1
 75
1
 94
63
  0
MLINESTYLE
  5
22
102
{ACAD_REACTORS
330
10
102
}
330
10
100
AcDbMlineStyle
  2
Standard
 70
0
  3

 62
256
 51
90.0
 52
90.0
 71
2
 49
0.5
 62
256
  6
BYLAYER
 49
-0.5
 62
256
  6
BYLAYER
  0
MLEADERSTYLE
  5
2C
102
{ACAD_REACTORS
330
F
102
}
330
F
100
AcDbMLeaderStyle
179
2
170
2
171
1
172
0
 90
2
 40
0.0
 41
0.0
173
1
 91
-1056964608
 92
-2
290
1
 42
2.0
291
1
 43
8.0
  3
Standard
 44
4.0
300

342
29
174
1
175
1
176
0
178
1
 93
-1056964608
 45
4.0
292
0
297
0
 46
4.0
 94
-1056964608
 47
1.0
 49
1.0
140
1.0
294
1
141
0.0
177
0
142
1.0
295
0
296
0
143
3.75
271
0
272
9
273
9
  0
DICTIONARY
  5
2D
330
A
100
AcDbDictionary
280
1
281
1
  3
CREATED_BY_EZDXF
350
2E
  3
WRITTEN_BY_EZDXF
350
9E
  0
DICTIONARYVAR
  5
2E
330
2D
100
DictionaryVariables
280
0
  1
1.4.4 @ 2026-10-04T18:28:59.635159+00:00
  0
DICTIONARYVAR
  5
9E
330
2D
100
DictionaryVariables
280
0
  1
1.4.4 @ 2026-10-04T18:28:59.638861+00:00
  0
ENDSEC
  0
EOF
