  0
SECTION
  2
HEADER
  9
$ACADVER
  1
AC1024
  9
$ACADMAINTVER
 70
6
  9
$DWGCODEPAGE
  3
ANSI_1252
  9
$LASTSAVEDBY
  1
ezdxf
  9
$INSBASE
 10
0.0
 20
0.0
 30
0.0
  9
$EXTMIN
 10
1e+20
 20
1e+20
 30
1e+20
  9
$EXTMAX
 10
-1e+20
 20
-1e+20
 30
-1e+20
  9
$LIMMIN
 10
0.0
 20
0.0
  9
$LIMMAX
 10
420.0
 20
297.0
  9
$ORTHOMODE
 70
0
  9
$REGENMODE
 70
1
  9
$FILLMODE
 70
1
  9
$QTEXTMODE
 70
0
  9
$MIRRTEXT
 70
1
  9
$LTSCALE
 40
1.0
  9
$ATTMODE
 70
1
  9
$TEXTSIZE
 40
2.5
  9
$TRACEWID
 40
1.0
  9
$TEXTSTYLE
  7
Standard
  9
$CLAYER
  8
0
  9
$CELTYPE
  6
ByLayer
  9
$CECOLOR
 62
256
  9
$CELTSCALE
 40
1.0
  9
$DISPSILH
 70
0
  9
$DIMSCALE
 40
1.0
  9
$DIMASZ
 40
2.5
  9
$DIMEXO
 40
0.625
  9
$DIMDLI
 40
3.75
  9
$DIMRND
 40
0.0
  9
$DIMDLE
 40
0.0
  9
$DIMEXE
 40
1.25
  9
$DIMTP
 40
0.0
  9
$DIMTM
 40
0.0
  9
$DIMTXT
 40
2.5
  9
$DIMCEN
 40
2.5
  9
$DIMTSZ
 40
0.0
  9
$DIMTOL
 70
0
  9
$DIMLIM
 70
0
  9
$DIMTIH
 70
0
  9
$DIMTOH
 70
0
  9
$DIMSE1
 70
0
  9
$DIMSE2
 70
0
  9
$DIMTAD
 70
1
  9
$DIMZIN
 70
8
  9
$DIMBLK
  1

  9
$DIMASO
 70
1
  9
$DIMSHO
 70
1
  9
$DIMPOST
  1

  9
$DIMAPOST
  1

  9
$DIMALT
 70
0
  9
$DIMALTD
 70
3
  9
$DIMALTF
 40
0.03937007874
  9
$DIMLFAC
 40
1.0
  9
$DIMTOFL
 70
1
  9
$DIMTVP
 40
0.0
  9
$DIMTIX
 70
0
  9
$DIMSOXD
 70
0
  9
$DIMSAH
 70
0
  9
$DIMBLK1
  1

  9
$DIMBLK2
  1

  9
$DIMSTYLE
  2
ISO-25
  9
$DIMCLRD
 70
0
  9
$DIMCLRE
 70
0
  9
$DIMCLRT
 70
0
  9
$DIMTFAC
 40
1.0
  9
$DIMGAP
 40
0.625
  9
$DIMJUST
 70
0
  9
$DIMSD1
 70
0
  9
$DIMSD2
 70
0
  9
$DIMTOLJ
 70
0
  9
$DIMTZIN
 70
8
  9
$DIMALTZ
 70
0
  9
$DIMALTTZ
 70
0
  9
$DIMUPT
 70
0
  9
$DIMDEC
 70
2
  9
$DIMTDEC
 70
2
  9
$DIMALTU
 70
2
  9
$DIMALTTD
 70
3
  9
$DIMTXSTY
  7
Standard
  9
$DIMAUNIT
 70
0
  9
$DIMADEC
 70
0
  9
$DIMALTRND
 40
0.0
  9
$DIMAZIN
 70
0
  9
$DIMDSEP
 70
44
  9
$DIMATFIT
 70
3
  9
$DIMFRAC
 70
0
  9
$DIMLDRBLK
  1

  9
$DIMLUNIT
 70
2
  9
$DIMLWD
 70
-2
  9
$DIMLWE
 70
-2
  9
$DIMTMOVE
 70
0
  9
$DIMFXL
 40
1.0
  9
$DIMFXLON
 70
0
  9
$DIMJOGANG
 40
0.785398163397
  9
$DIMTFILL
 70
0
  9
$DIMTFILLCLR
 70
0
  9
$DIMARCSYM
 70
0
  9
$DIMLTYPE
  6

  9
$DIMLTEX1
  6

  9
$DIMLTEX2
  6

  9
$DIMTXTDIRECTION
 70
0
  9
$LUNITS
 70
2
  9
$LUPREC
 70
4
  9
$SKETCHINC
 40
1.0
  9
$FILLETRAD
 40
10.0
  9
$AUNITS
 70
0
  9
$AUPREC
 70
2
  9
$MENU
  1
.
  9
$ELEVATION
 40
0.0
  9
$PELEVATION
 40
0.0
  9
$THICKNESS
 40
0.0
  9
$LIMCHECK
 70
0
  9
$CHAMFERA
 40
0.0
  9
$CHAMFERB
 40
0.0
  9
$CHAMFERC
 40
0.0
  9
$CHAMFERD
 40
0.0
  9
$SKPOLY
 70
0
  9
$TDCREATE
 40
2461318.7701273146
  9
$TDUCREATE
 40
2458532.153996898
  9
$TDUPDATE
 40
2461318.7701273146
  9
$TDUUPDATE
 40
2458532.1544311
  9
$TDINDWG
 40
0.0
  9
$TDUSRTIMER
 40
0.0
  9
$USRTIMER
 70
1
  9
$ANGBASE
 50
0.0
  9
$ANGDIR
 70
0
  9
$PDMODE
 70
0
  9
$PDSIZE
 40
0.0
  9
$PLINEWID
 40
0.0
  9
$SPLFRAME
 70
0
  9
$SPLINETYPE
 70
6
  9
$SPLINESEGS
 70
8
  9
$HANDSEED
  5
3D
  9
$SURFTAB1
 70
6
  9
$SURFTAB2
 70
6
  9
$SURFTYPE
 70
6
  9
$SURFU
 70
6
  9
$SURFV
 70
6
  9
$UCSBASE
  2

  9
$UCSNAME
  2

  9
$UCSORG
 10
0.0
 20
0.0
 30
0.0
  9
$UCSXDIR
 10
1.0
 20
0.0
 30
0.0
  9
$UCSYDIR
 10
0.0
 20
1.0
 30
0.0
  9
$UCSORTHOREF
  2

  9
$UCSORTHOVIEW
 70
0
  9
$UCSORGTOP
 10
0.0
 20
0.0
 30
0.0
  9
$UCSORGBOTTOM
 10
0.0
 20
0.0
 30
0.0
  9
$UCSORGLEFT
 10
0.0
 20
0.0
 30
0.0
  9
$UCSORGRIGHT
 10
0.0
 20
0.0
 30
0.0
  9
$UCSORGFRONT
 10
0.0
 20
0.0
 30
0.0
  9
$UCSORGBACK
 10
0.0
 20
0.0
 30
0.0
  9
$PUCSBASE
  2

  9
$PUCSNAME
  2

  9
$PUCSORG
 10
0.0
 20
0.0
 30
0.0
  9
$PUCSXDIR
 10
1.0
 20
0.0
 30
0.0
  9
$PUCSYDIR
 10
0.0
 20
1.0
 30
0.0
  9
$PUCSORTHOREF
  2

  9
$PUCSORTHOVIEW
 70
0
  9
$PUCSORGTOP
 10
0.0
 20
0.0
 30
0.0
  9
$PUCSORGBOTTOM
 10
0.0
 20
0.0
 30
0.0
  9
$PUCSORGLEFT
 10
0.0
 20
0.0
 30
0.0
  9
$PUCSORGRIGHT
 10
0.0
 20
0.0
 30
0.0
  9
$PUCSORGFRONT
 10
0.0
 20
0.0
 30
0.0
  9
$PUCSORGBACK
 10
0.0
 20
0.0
 30
0.0
  9
$USERI1
 70
0
  9
$USERI2
 70
0
  9
$USERI3
 70
0
  9
$USERI4
 70
0
  9
$USERI5
 70
0
  9
$USERR1
 40
0.0
  9
$USERR2
 40
0.0
  9
$USERR3
 40
0.0
  9
$USERR4
 40
0.0
  9
$USERR5
 40
0.0
  9
$WORLDVIEW
 70
1
  9
$SHADEDGE
 70
3
  9
$SHADEDIF
 70
70
  9
$TILEMODE
 70
1
  9
$MAXACTVP
 70
64
  9
$PINSBASE
 10
0.0
 20
0.0
 30
0.0
  9
$PLIMCHECK
 70
0
  9
$PEXTMIN
 10
1e+20
 20
1e+20
 30
1e+20
  9
$PEXTMAX
 10
-1e+20
 20
-1e+20
 30
-1e+20
  9
$PLIMMIN
 10
0.0
 20
0.0
  9
$PLIMMAX
 10
420.0
 20
297.0
  9
$UNITMODE
 70
0
  9
$VISRETAIN
 70
1
  9
$PLINEGEN
 70
0
  9
$PSLTSCALE
 70
1
  9
$TREEDEPTH
 70
3020
  9
$CMLSTYLE
  2
Standard
  9
$CMLJUST
 70
0
  9
$CMLSCALE
 40
20.0
  9
$PROXYGRAPHICS
 70
1
  9
$MEASUREMENT
 70
1
  9
$CELWEIGHT
370
-1
  9
$ENDCAPS
280
0
  9
$JOINSTYLE
280
0
  9
$LWDISPLAY
290
0
  9
$INSUNITS
 70
4
  9
$HYPERLINKBASE
  1

  9
$STYLESHEET
  1

  9
$XEDIT
290
1
  9
$CEPSNTYPE
380
0
  9
$PSTYLEMODE
290
1
  9
$FINGERPRINTGUID
  2
{445CDCEB-24BB-493B-847D-108C7DBB86EB}
  9
$VERSIONGUID
  2
{1E7F5583-16BC-451A-9210-FE17A2007AF2}
  9
$EXTNAMES
290
1
  9
$PSVPSCALE
 40
0.0
  9
$OLESTARTUP
290
0
  9
$SORTENTS
280
127
  9
$INDEXCTL
280
0
  9
$HIDETEXT
280
1
  9
$XCLIPFRAME
280
1
  9
$HALOGAP
280
0
  9
$OBSCOLOR
 70
257
  9
$OBSLTYPE
280
0
  9
$INTERSECTIONDISPLAY
280
0
  9
$INTERSECTIONCOLOR
 70
257
  9
$DIMASSOC
280
2
  9
$PROJECTNAME
  1

  9
$CAMERADISPLAY
290
0
  9
$LENSLENGTH
 40
50.0
  9
$CAMERAHEIGHT
 40
0.0
  9
$STEPSPERSEC
 40
24.0
  9
$STEPSIZE
 40
100.0
  9
$3DDWFPREC
 40
2.0
  9
$PSOLWIDTH
 40
0.005
  9
$PSOLHEIGHT
 40
0.08
  9
$LOFTANG1
 40
1.570796326795
  9
$LOFTANG2
 40
1.570796326795
  9
$LOFTMAG1
 40
0.0
  9
$LOFTMAG2
 40
0.0
  9
$LOFTPARAM
 70
7
  9
$LOFTNORMALS
280
1
  9
$LATITUDE
 40
37.795
  9
$LONGITUDE
 40
-122.394
  9
$NORTHDIRECTION
 40
0.0
  9
$TIMEZONE
 70
-8000
  9
$LIGHTGLYPHDISPLAY
280
1
  9
$TILEMODELIGHTSYNCH
280
1
  9
$CMATERIAL
347
20
  9
$SOLIDHIST
280
0
  9
$SHOWHIST
280
1
  9
$DWFFRAME
280
2
  9
$DGNFRAME
280
2
  9
$REALWORLDSCALE
290
1
  9
$INTERFERECOLOR
 62
256
  9
$CSHADOW
280
0
  9
$SHADOWPLANELOCATION
 40
0.0
  0
ENDSEC
  0
SECTION
  2
CLASSES
  0
CLASS
  1
ACDBDICTIONARYWDFLT
  2
AcDbDictionaryWithDefault
  3
ObjectDBX Classes
 90
0
 91
0
280
0
281
0
  0
CLASS
  1
SUN
  2
AcDbSun
  3
SCENEOE
 90
1153
 91
0
280
0
281
0
  0
CLASS
  1
VISUALSTYLE
  2
AcDbVisualStyle
  3
ObjectDBX Classes
 90
4095
 91
0
280
0
281
0
  0
CLASS
  1
MATERIAL
  2
AcDbMaterial
  3
ObjectDBX Classes
 90
1153
 91
0
280
0
281
0
  0
CLASS
  1
SCALE
  2
AcDbScale
  3
ObjectDBX Classes
 90
1153
 91
0
280
0
281
0
  0
CLASS
  1
TABLESTYLE
  2
AcDbTableStyle
  3
ObjectDBX Classes
 90
4095
 91
0
280
0
281
0
  0
CLASS
  1
MLEADERSTYLE
  2
AcDbMLeaderStyle
  3
ACDB_MLEADERSTYLE_CLASS
 90
4095
 91
0
280
0
281
0
  0
CLASS
  1
DICTIONARYVAR
  2
AcDbDictionaryVar
  3
ObjectDBX Classes
 90
0
 91
0
280
0
281
0
  0
CLASS
  1
CELLSTYLEMAP
  2
AcDbCellStyleMap
  3
ObjectDBX Classes
 90
1152
 91
0
280
0
281
0
  0
CLASS
  1
MENTALRAYRENDERSETTINGS
  2
AcDbMentalRayRenderSettings
  3
SCENEOE
 90
1024
 91
0
280
0
281
0
  0
CLASS
  1
ACDBDETAILVIEWSTYLE
  2
AcDbDetailViewStyle
  3
ObjectDBX Classes
 90
1025
 91
0
280
0
281
0
  0
CLASS
  1
ACDBSECTIONVIEWSTYLE
  2
AcDbSectionViewStyle
  3
ObjectDBX Classes
 90
1025
 91
0
280
0
281
0
  0
CLASS
  1
RASTERVARIABLES
  2
AcDbRasterVariables
  3
ISM
 90
0
 91
0
280
0
281
0
  0
CLASS
  1
LAYOUT
  2
AcDbLayout
  3
ObjectDBX Classes
 90
0
 91
0
280
0
281
0
  0
CLASS
  1
ACDBPLACEHOLDER
  2
AcDbPlaceHolder
  3
ObjectDBX Classes
 90
0
 91
0
280
0
281
0
  0
ENDSEC
  0
SECTION
  2
TABLES
  0
TABLE
  2
VPORT
  5
8
330
0
100
AcDbSymbolTable
 70
1
  0
VPORT
  5
23
330
8
100
AcDbSymbolTableRecord
100
AcDbViewportTableRecord
  2
*Active
 70
0
 10
0.0
 20
0.0
 11
1.0
 21
1.0
 12
0.0
 22
0.0
 13
0.0
 23
0.0
 14
0.5
 24
0.5
 15
0.5
 25
0.5
 16
0.0
 26
0.0
 36
1.0
 17
0.0
 27
0.0
 37
0.0
 40
1000.0
 41
1.34
 42
50.0
 43
0.0
 44
0.0
 50
0.0
 51
0.0
 71
0
 72
1000
 73
1
 74
3
 75
0
 76
0
 77
0
 78
0
281
0
 65
0
146
0.0
  0
ENDTAB
  0
TABLE
  2
LTYPE
  5
2
330
0
100
AcDbSymbolTable
 70
3
  0
LTYPE
  5
24
330
2
100
AcDbSymbolTableRecord
100
AcDbLinetypeTableRecord
  2
ByBlock
 70
0
  3

 72
65
 73
0
 40
0.0
  0
LTYPE
  5
25
330
2
100
AcDbSymbolTableRecord
100
AcDbLinetypeTableRecord
  2
ByLayer
 70
0
  3

 72
65
 73
0
 40
0.0
  0
LTYPE
  5
26
330
2
100
AcDbSymbolTableRecord
100
AcDbLinetypeTableRecord
  2
Continuous
 70
0
  3

 72
65
 73
0
 40
0.0
  0
ENDTAB
  0
TABLE
  2
LAYER
  5
1
330
0
100
AcDbSymbolTable
 70
8
  0
LAYER
  5
27
330
1
100
AcDbSymbolTableRecord
100
AcDbLayerTableRecord
  2
0
 70
0
 62
7
  6
Continuous
370
-3
390
13
347
21
  0
LAYER
  5
28
330
1
100
AcDbSymbolTableRecord
100
AcDbLayerTableRecord
  2
Defpoints
 70
0
 62
7
  6
Continuous
290
0
370
-3
390
13
347
21
  0
LAYER
  5
2F
330
1
100
AcDbSymbolTableRecord
100
AcDbLayerTableRecord
  2
CUT
 70
0
 62
1
  6
Continuous
370
-3
390
13
347
21
  0
LAYER
  5
30
330
1
100
AcDbSymbolTableRecord
100
AcDbLayerTableRecord
  2
SEW
 70
0
 62
5
  6
Continuous
370
-3
390
13
347
21
  0
LAYER
  5
31
330
1
100
AcDbSymbolTableRecord
100
AcDbLayerTableRecord
  2
GRAIN
 70
0
 62
3
  6
Continuous
370
-3
390
13
347
21
  0
LAYER
  5
32
330
1
100
AcDbSymbolTableRecord
100
AcDbLayerTableRecord
  2
NOTCH
 70
0
 62
2
  6
Continuous
370
-3
390
13
347
21
  0
LAYER
  5
33
330
1
100
AcDbSymbolTableRecord
100
AcDbLayerTableRecord
  2
LABEL
 70
0
 62
7
  6
Continuous
370
-3
390
13
347
21
  0
LAYER
  5
34
330
1
100
AcDbSymbolTableRecord
100
AcDbLayerTableRecord
  2
ATTACHMENT
 70
0
 62
4
  6
Continuous
370
-3
390
13
347
21
  0
ENDTAB
  0
TABLE
  2
STYLE
  5
5
330
0
100
AcDbSymbolTable
 70
1
  0
STYLE
  5
29
330
5
100
AcDbSymbolTableRecord
100
AcDbTextStyleTableRecord
  2
Standard
 70
0
 40
0.0
 41
1.0
 50
0.0
 71
0
 42
2.5
  3
txt
  4

  0
ENDTAB
  0
TABLE
  2
VIEW
  5
7
330
0
100
AcDbSymbolTable
 70
0
  0
ENDTAB
  0
TABLE
  2
UCS
  5
6
330
0
100
AcDbSymbolTable
 70
0
  0
ENDTAB
  0
TABLE
  2
APPID
  5
3
330
0
100
AcDbSymbolTable
 70
3
  0
APPID
  5
2A
330
3
100
AcDbSymbolTableRecord
100
AcDbRegAppTableRecord
  2
ACAD
 70
0
  0
APPID
  5
3A
330
3
100
AcDbSymbolTableRecord
100
AcDbRegAppTableRecord
  2
HATCHBACKGROUNDCOLOR
 70
0
  0
APPID
  5
3B
330
3
100
AcDbSymbolTableRecord
100
AcDbRegAppTableRecord
  2
EZDXF
 70
0
  0
ENDTAB
  0
TABLE
  2
DIMSTYLE
  5
4
330
0
100
AcDbSymbolTable
 70
1
100
AcDbDimStyleTable
  0
DIMSTYLE
105
2B
330
4
100
AcDbSymbolTableRecord
100
AcDbDimStyleTableRecord
  2
Standard
 70
0
 40
1.0
 41
2.5
 42
0.625
 43
3.75
 44
1.25
 45
0.0
 46
0.0
 47
0.0
 48
0.0
 49
2.5
140
2.5
141
2.5
142
0.0
143
0.03937007874
144
1.0
145
0.0
146
1.0
147
0.625
148
0.0
 69
0
 70
0
 71
0
 72
0
 73
0
 74
0
 75
0
 76
0
 77
1
 78
8
 79
3
170
0
171
3
172
1
173
0
174
0
175
0
176
0
177
0
178
0
179
2
271
2
272
2
273
2
274
3
275
0
276
0
277
2
278
44
279
0
280
0
281
0
282
0
283
0
284
8
285
0
286
0
288
0
289
3
290
0
371
-2
372
-2
  0
ENDTAB
  0
TABLE
  2
BLOCK_RECORD
  5
9
330
0
100
AcDbSymbolTable
 70
2
  0
BLOCK_RECORD
  5
17
330
9
100
AcDbSymbolTableRecord
100
AcDbBlockTableRecord
  2
*Model_Space
340
1A
 70
0
280
1
281
0
  0
BLOCK_RECORD
  5
1B
330
9
100
AcDbSymbolTableRecord
100
AcDbBlockTableRecord
  2
*Paper_Space
340
1E
 70
0
280
1
281
0
  0
ENDTAB
  0
ENDSEC
  0
SECTION
  2
BLOCKS
  0
BLOCK
  5
18
330
17
100
AcDbEntity
  8
0
100
AcDbBlockBegin
  2
*Model_Space
 70
0
 10
0.0
 20
0.0
 30
0.0
  3
*Model_Space
  1

  0
ENDBLK
  5
19
330
17
100
AcDbEntity
  8
0
100
AcDbBlockEnd
  0
BLOCK
  5
1C
330
1B
100
AcDbEntity
  8
0
100
AcDbBlockBegin
  2
*Paper_Space
 70
0
 10
0.0
 20
0.0
 30
0.0
  3
*Paper_Space
  1

  0
ENDBLK
  5
1D
330
1B
100
AcDbEntity
  8
0
100
AcDbBlockEnd
  0
ENDSEC
  0
SECTION
  2
ENTITIES
  0
LWPOLYLINE
  5
35
330
17
100
AcDbEntity
  8
CUT
100
AcDbPolyline
 90
109
 70
1
 10
0.0
 20
0.0
 10
35.79654392765224
 20
0.0023290553120356456
 10
70.56927128024752
 20
0.0036782556504714385
 10
105.59914622119638
 20
0.00474471261810704
 10
140.46409460187715
 20
0.005947793111825843
 10
175.29181464466367
 20
0.0071908210407615174
 10
210.08772808399112
 20
0.008426292520512075
 10
244.86370113398274
 20
0.009617095750281003
 10
279.6364285436368
 20
0.01072850151855652
 10
314.4091559445845
 20
0.011759341314345516
 10
349.1818833410987
 20
0.012741512977208979
 10
383.9546107313638
 20
0.013706870228982922
 10
418.7273381176761
 20
0.014674091987936797
 10
453.500065503771
 20
0.015650982779382126
 10
488.272792893479
 20
0.016639932676178013
 10
523.0455202911579
 20
0.017640822038210217
 10
557.8182477020716
 20
0.018651554754800063
 10
592.5909751323087
 20
0.019669374928821166
 10
627.3637025892505
 20
0.020690300813611763
 10
662.1364300813457
 20
0.021713732222817885
 10
696.9091576190661
 20
0.02274327758553674
 10
731.6818852172838
 20
0.023762285220516932
 10
766.454612896568
 20
0.024659831780010542
 10
896.9191692887938
 20
0.02041991483403776
 10
950.5730159024084
 20
0.019897525895388728
 10
1004.2268624009919
 20
0.019310784091322187
 10
1057.8807088132673
 20
0.0187583896361239
 10
1111.5345551743605
 20
0.018244884533612275
 10
1165.1884015089856
 20
0.017749235016193424
 10
1218.8422478301004
 20
0.017258783203778875
 10
1272.496094143805
 20
0.016771273307599567
 10
1326.149940452846
 20
0.01628388515957084
 10
1379.8037867586756
 20
0.01579308410747355
 10
1433.4576330621485
 20
0.015298618960510284
 10
1487.111479363962
 20
0.014801983798528155
 10
1540.7653256648696
 20
0.014303998674288717
 10
1594.4191719651924
 20
0.013804827719250505
 10
1648.0730182658922
 20
0.013304443044983837
 10
1701.726864567765
 20
0.01280420192436612
 10
1755.3807108723302
 20
0.012308039296240048
 10
1809.0345571826695
 20
0.011821770009968847
 10
1862.6884043474624
 20
0.01134913158294124
 10
1916.3425225678338
 20
0.010874266650955084
 10
1969.9976696518304
 20
0.010383331465200603
 10
2023.65445692841
 20
0.009876398321122363
 10
2077.313341802057
 20
0.009360783052859966
 10
2130.9839370286754
 20
0.008733113366949388
 10
2184.732950435285
 20
0.007591466823632548
 10
2238.701067699321
 20
0.005438666499836468
 10
2294.013966433756
 20
1.404678597866799e-13
 10
2294.0148168193155
 20
-5.033180077919251
 10
2294.015118057403
 20
-10.017887953025655
 10
2294.014494036379
 20
-14.9061180718419
 10
2294.0120618611504
 20
-19.650794515287156
 10
2294.012624357877
 20
-24.20625182004771
 10
2238.700652703595
 20
-81.50786141299187
 10
2184.7319057831187
 20
-114.14729837090469
 10
2130.9826358218133
 20
-137.13614154092684
 10
2077.3119622222034
 20
-153.40954095531825
 10
2023.6529856852053
 20
-166.35954900381006
 10
1969.996097426466
 20
-177.13553665129987
 10
1916.3408673486206
 20
-186.01595734798616
 10
1862.6866856248073
 20
-193.27917226749273
 10
1809.0327883379714
 20
-199.28917717433404
 10
1755.3788940373609
 20
-204.49504219383243
 10
1701.7250048502008
 20
-209.0429838354517
 10
1648.0711206840072
 20
-213.06220385118215
 10
1594.417240595068
 20
-216.6818964729442
 10
1540.7633633913877
 20
-220.0302695879833
 10
1487.1094887242853
 20
-223.12709540703293
 10
1433.4556164990777
 20
-225.96113886863395
 10
1379.8017463412243
 20
-228.5674498970681
 10
1326.1478779807512
 20
-230.98108042761163
 10
1272.4940111245994
 20
-233.23708204155685
 10
1218.8401447617134
 20
-235.44434684132642
 10
1165.186276661079
 20
-237.86747455016484
 10
1111.5324099807003
 20
-240.16832748064792
 10
1057.8785484586356
 20
-241.93038957795784
 10
1004.2246954170589
 20
-242.7371406843877
 10
950.570849117393
 20
-242.74979039454738
 10
896.9170028324975
 20
-242.7496139640581
 10
766.4592011550291
 20
-184.29053408314888
 10
731.6869371804087
 20
-193.12263687722114
 10
696.9145167436009
 20
-201.58242313076542
 10
662.142031692219
 20
-209.59987422094238
 10
627.369519810639
 20
-217.1047774552387
 10
592.597013412585
 20
-224.986098975098
 10
557.8245233367036
 20
-233.4766524251852
 10
523.0520176932255
 20
-241.3367390405662
 10
488.2794596786991
 20
-247.3258167713023
 10
453.5068132649261
 20
-250.20334508543453
 10
418.73405132564426
 20
-249.0037274076219
 10
383.961189539911
 20
-244.2249830929514
 10
349.18825557039474
 20
-236.79581908556392
 10
314.41527583007587
 20
-227.6420124483908
 10
279.64227429016705
 20
-217.54567715302747
 10
244.86916051956607
 20
-202.77316251398307
 10
210.09268689431016
 20
-182.7900991970153
 10
175.29627374696722
 20
-159.59178278594788
 10
140.46808409332226
 20
-135.1732976160118
 10
105.60252731158447
 20
-110.67985356137098
 10
70.57208302772497
 20
-83.8811078044225
 10
35.79810391079993
 20
-54.85798934031881
 10
0.00015390716272331928
 20
-28.048107126493097
 10
0.00032800953030492983
 20
-22.76966426610949
 10
0.0003152674291156596
 20
-17.27193828813388
 10
0.0002668185738002843
 20
-11.60787414765645
 10
0.00021275429074332807
 20
-5.832019839024564
 10
0.0
 20
0.0
  0
LWPOLYLINE
  5
36
330
17
100
AcDbEntity
  8
SEW
100
AcDbPolyline
 90
108
 70
1
 10
0.0
 20
0.0
 10
35.79654392765224
 20
0.0023290553120356456
 10
70.56927128024752
 20
0.0036782556504714385
 10
105.59914622119638
 20
0.00474471261810704
 10
140.46409460187715
 20
0.005947793111825843
 10
175.29181464466367
 20
0.0071908210407615174
 10
210.08772808399112
 20
0.008426292520512075
 10
244.86370113398274
 20
0.009617095750281003
 10
279.6364285436368
 20
0.01072850151855652
 10
314.4091559445845
 20
0.011759341314345516
 10
349.1818833410987
 20
0.012741512977208979
 10
383.9546107313638
 20
0.013706870228982922
 10
418.7273381176761
 20
0.014674091987936797
 10
453.500065503771
 20
0.015650982779382126
 10
488.272792893479
 20
0.016639932676178013
 10
523.0455202911579
 20
0.017640822038210217
 10
557.8182477020716
 20
0.018651554754800063
 10
592.5909751323087
 20
0.019669374928821166
 10
627.3637025892505
 20
0.020690300813611763
 10
662.1364300813457
 20
0.021713732222817885
 10
696.9091576190661
 20
0.02274327758553674
 10
731.6818852172838
 20
0.023762285220516932
 10
766.454612896568
 20
0.024659831780010542
 10
896.9191692887938
 20
0.02041991483403776
 10
950.5730159024084
 20
0.019897525895388728
 10
1004.2268624009919
 20
0.019310784091322187
 10
1057.8807088132673
 20
0.0187583896361239
 10
1111.5345551743605
 20
0.018244884533612275
 10
1165.1884015089856
 20
0.017749235016193424
 10
1218.8422478301004
 20
0.017258783203778875
 10
1272.496094143805
 20
0.016771273307599567
 10
1326.149940452846
 20
0.01628388515957084
 10
1379.8037867586756
 20
0.01579308410747355
 10
1433.4576330621485
 20
0.015298618960510284
 10
1487.111479363962
 20
0.014801983798528155
 10
1540.7653256648696
 20
0.014303998674288717
 10
1594.4191719651924
 20
0.013804827719250505
 10
1648.0730182658922
 20
0.013304443044983837
 10
1701.726864567765
 20
0.01280420192436612
 10
1755.3807108723302
 20
0.012308039296240048
 10
1809.0345571826695
 20
0.011821770009968847
 10
1862.6884043474624
 20
0.01134913158294124
 10
1916.3425225678338
 20
0.010874266650955084
 10
1969.9976696518304
 20
0.010383331465200603
 10
2023.65445692841
 20
0.009876398321122363
 10
2077.313341802057
 20
0.009360783052859966
 10
2130.9839370286754
 20
0.008733113366949388
 10
2184.732950435285
 20
0.007591466823632548
 10
2238.701067699321
 20
0.005438666499836468
 10
2294.013966433756
 20
1.404678597866799e-13
 10
2294.0148168193155
 20
-5.033180077919251
 10
2294.015118057403
 20
-10.017887953025655
 10
2294.014494036379
 20
-14.9061180718419
 10
2294.0120618611504
 20
-19.650794515287156
 10
2294.012624357877
 20
-24.20625182004771
 10
2238.700652703595
 20
-81.50786141299187
 10
2184.7319057831187
 20
-114.14729837090469
 10
2130.9826358218133
 20
-137.13614154092684
 10
2077.3119622222034
 20
-153.40954095531825
 10
2023.6529856852053
 20
-166.35954900381006
 10
1969.996097426466
 20
-177.13553665129987
 10
1916.3408673486206
 20
-186.01595734798616
 10
1862.6866856248073
 20
-193.27917226749273
 10
1809.0327883379714
 20
-199.28917717433404
 10
1755.3788940373609
 20
-204.49504219383243
 10
1701.7250048502008
 20
-209.0429838354517
 10
1648.0711206840072
 20
-213.06220385118215
 10
1594.417240595068
 20
-216.6818964729442
 10
1540.7633633913877
 20
-220.0302695879833
 10
1487.1094887242853
 20
-223.12709540703293
 10
1433.4556164990777
 20
-225.96113886863395
 10
1379.8017463412243
 20
-228.5674498970681
 10
1326.1478779807512
 20
-230.98108042761163
 10
1272.4940111245994
 20
-233.23708204155685
 10
1218.8401447617134
 20
-235.44434684132642
 10
1165.186276661079
 20
-237.86747455016484
 10
1111.5324099807003
 20
-240.16832748064792
 10
1057.8785484586356
 20
-241.93038957795784
 10
1004.2246954170589
 20
-242.7371406843877
 10
950.570849117393
 20
-242.74979039454738
 10
896.9170028324975
 20
-242.7496139640581
 10
766.4592011550291
 20
-184.29053408314888
 10
731.6869371804087
 20
-193.12263687722114
 10
696.9145167436009
 20
-201.58242313076542
 10
662.142031692219
 20
-209.59987422094238
 10
627.369519810639
 20
-217.1047774552387
 10
592.597013412585
 20
-224.986098975098
 10
557.8245233367036
 20
-233.4766524251852
 10
523.0520176932255
 20
-241.3367390405662
 10
488.2794596786991
 20
-247.3258167713023
 10
453.5068132649261
 20
-250.20334508543453
 10
418.73405132564426
 20
-249.0037274076219
 10
383.961189539911
 20
-244.2249830929514
 10
349.18825557039474
 20
-236.79581908556392
 10
314.41527583007587
 20
-227.6420124483908
 10
279.64227429016705
 20
-217.54567715302747
 10
244.86916051956607
 20
-202.77316251398307
 10
210.09268689431016
 20
-182.7900991970153
 10
175.29627374696722
 20
-159.59178278594788
 10
140.46808409332226
 20
-135.1732976160118
 10
105.60252731158447
 20
-110.67985356137098
 10
70.57208302772497
 20
-83.8811078044225
 10
35.79810391079993
 20
-54.85798934031881
 10
0.00015390716272331928
 20
-28.048107126493097
 10
0.00032800953030492983
 20
-22.76966426610949
 10
0.0003152674291156596
 20
-17.27193828813388
 10
0.0002668185738002843
 20
-11.60787414765645
 10
0.00021275429074332807
 20
-5.832019839024564
  0
LINE
  5
37
330
17
100
AcDbEntity
  8
GRAIN
100
AcDbLine
 10
1102.8275458974522
 20
-124.66029799345824
 30
0.0
 11
1182.8275458974522
 21
-124.66029799345824
 31
0.0
  0
LINE
  5
38
330
17
100
AcDbEntity
  8
GRAIN
100
AcDbLine
 10
1182.8275458974522
 20
-124.66029799345824
 30
0.0
 11
1177.8275458974522
 21
-121.66029799345824
 31
0.0
  0
TEXT
  5
39
330
17
100
AcDbEntity
  8
LABEL
100
AcDbText
 10
1142.8275458974522
 20
-124.66029799345824
 30
0.0
 40
6.0
  1
O08_SMOOTH_LOWER_W4
100
AcDbText
  0
ENDSEC
  0
SECTION
  2
OBJECTS
  0
DICTIONARY
  5
A
330
0
100
AcDbDictionary
281
1
  3
ACAD_COLOR
350
B
  3
ACAD_GROUP
350
C
  3
ACAD_LAYOUT
350
D
  3
ACAD_MATERIAL
350
E
  3
ACAD_MLEADERSTYLE
350
F
  3
ACAD_MLINESTYLE
350
10
  3
ACAD_PLOTSETTINGS
350
11
  3
ACAD_PLOTSTYLENAME
350
12
  3
ACAD_SCALELIST
350
14
  3
ACAD_TABLESTYLE
350
15
  3
ACAD_VISUALSTYLE
350
16
  3
EZDXF_META
350
2D
  0
DICTIONARY
  5
B
330
A
100
AcDbDictionary
281
1
  0
DICTIONARY
  5
C
330
A
100
AcDbDictionary
281
1
  0
DICTIONARY
  5
D
330
A
100
AcDbDictionary
281
1
  3
Model
350
1A
  3
Layout1
350
1E
  0
DICTIONARY
  5
E
330
A
100
AcDbDictionary
281
1
  3
ByBlock
350
1F
  3
ByLayer
350
20
  3
Global
350
21
  0
DICTIONARY
  5
F
330
A
100
AcDbDictionary
281
1
  3
Standard
350
2C
  0
DICTIONARY
  5
10
330
A
100
AcDbDictionary
281
1
  3
Standard
350
22
  0
DICTIONARY
  5
11
330
A
100
AcDbDictionary
281
1
  0
ACDBDICTIONARYWDFLT
  5
12
330
A
100
AcDbDictionary
281
1
  3
Normal
350
13
100
AcDbDictionaryWithDefault
340
13
  0
ACDBPLACEHOLDER
  5
13
330
12
  0
DICTIONARY
  5
14
330
A
100
AcDbDictionary
281
1
  0
DICTIONARY
  5
15
330
A
100
AcDbDictionary
281
1
  0
DICTIONARY
  5
16
330
A
100
AcDbDictionary
281
1
  0
LAYOUT
  5
1A
330
D
100
AcDbPlotSettings
  1

  4
A3
  6

 40
7.5
 41
20.0
 42
7.5
 43
20.0
 44
420.0
 45
297.0
 46
0.0
 47
0.0
 48
0.0
 49
0.0
140
0.0
141
0.0
142
1.0
143
1.0
 70
1024
 72
1
 73
0
 74
5
  7

 75
16
 76
0
 77
2
 78
300
147
1.0
148
0.0
149
0.0
100
AcDbLayout
  1
Model
 70
1
 71
0
 10
0.0
 20
0.0
 11
420.0
 21
297.0
 12
0.0
 22
0.0
 32
0.0
 14
1e+20
 24
1e+20
 34
1e+20
 15
-1e+20
 25
-1e+20
 35
-1e+20
146
0.0
 13
0.0
 23
0.0
 33
0.0
 16
1.0
 26
0.0
 36
0.0
 17
0.0
 27
1.0
 37
0.0
 76
1
330
17
  0
LAYOUT
  5
1E
330
D
100
AcDbPlotSettings
  1

  4
A3
  6

 40
7.5
 41
20.0
 42
7.5
 43
20.0
 44
420.0
 45
297.0
 46
0.0
 47
0.0
 48
0.0
 49
0.0
140
0.0
141
0.0
142
1.0
143
1.0
 70
0
 72
1
 73
0
 74
5
  7

 75
16
 76
0
 77
2
 78
300
147
1.0
148
0.0
149
0.0
100
AcDbLayout
  1
Layout1
 70
1
 71
1
 10
0.0
 20
0.0
 11
420.0
 21
297.0
 12
0.0
 22
0.0
 32
0.0
 14
1e+20
 24
1e+20
 34
1e+20
 15
-1e+20
 25
-1e+20
 35
-1e+20
146
0.0
 13
0.0
 23
0.0
 33
0.0
 16
1.0
 26
0.0
 36
0.0
 17
0.0
 27
1.0
 37
0.0
 76
1
330
1B
  0
MATERIAL
  5
1F
102
{ACAD_REACTORS
330
E
102
}
330
E
100
AcDbMaterial
  1
ByBlock
  2

 70
0
 40
1.0
 71
1
 41
1.0
 91
-1023410177
 42
1.0
 72
1
  3

 73
1
 74
1
 75
1
 44
0.5
 73
0
 45
1.0
 46
1.0
 77
1
  4

 78
1
 79
1
170
1
 48
1.0
171
1
  6

172
1
173
1
174
1
140
1.0
141
1.0
175
1
  7

176
1
177
1
178
1
143
1.0
179
1
  8

270
1
271
1
272
1
145
1.0
146
1.0
273
1
  9

274
1
275
1
276
1
 42
1.0
 72
1
  3

 73
1
 74
1
 75
1
 94
63
  0
MATERIAL
  5
20
102
{ACAD_REACTORS
330
E
102
}
330
E
100
AcDbMaterial
  1
ByLayer
  2

 70
0
 40
1.0
 71
1
 41
1.0
 91
-1023410177
 42
1.0
 72
1
  3

 73
1
 74
1
 75
1
 44
0.5
 73
0
 45
1.0
 46
1.0
 77
1
  4

 78
1
 79
1
170
1
 48
1.0
171
1
  6

172
1
173
1
174
1
140
1.0
141
1.0
175
1
  7

176
1
177
1
178
1
143
1.0
179
1
  8

270
1
271
1
272
1
145
1.0
146
1.0
273
1
  9

274
1
275
1
276
1
 42
1.0
 72
1
  3

 73
1
 74
1
 75
1
 94
63
  0
MATERIAL
  5
21
102
{ACAD_REACTORS
330
E
102
}
330
E
100
AcDbMaterial
  1
Global
  2

 70
0
 40
1.0
 71
1
 41
1.0
 91
-1023410177
 42
1.0
 72
1
  3

 73
1
 74
1
 75
1
 44
0.5
 73
0
 45
1.0
 46
1.0
 77
1
  4

 78
1
 79
1
170
1
 48
1.0
171
1
  6

172
1
173
1
174
1
140
1.0
141
1.0
175
1
  7

176
1
177
1
178
1
143
1.0
179
1
  8

270
1
271
1
272
1
145
1.0
146
1.0
273
1
  9

274
1
275
1
276
1
 42
1.0
 72
1
  3

 73
1
 74
1
 75
1
 94
63
  0
MLINESTYLE
  5
22
102
{ACAD_REACTORS
330
10
102
}
330
10
100
AcDbMlineStyle
  2
Standard
 70
0
  3

 62
256
 51
90.0
 52
90.0
 71
2
 49
0.5
 62
256
  6
BYLAYER
 49
-0.5
 62
256
  6
BYLAYER
  0
MLEADERSTYLE
  5
2C
102
{ACAD_REACTORS
330
F
102
}
330
F
100
AcDbMLeaderStyle
179
2
170
2
171
1
172
0
 90
2
 40
0.0
 41
0.0
173
1
 91
-1056964608
 92
-2
290
1
 42
2.0
291
1
 43
8.0
  3
Standard
 44
4.0
300

342
29
174
1
175
1
176
0
178
1
 93
-1056964608
 45
4.0
292
0
297
0
 46
4.0
 94
-1056964608
 47
1.0
 49
1.0
140
1.0
294
1
141
0.0
177
0
142
1.0
295
0
296
0
143
3.75
271
0
272
9
273
9
  0
DICTIONARY
  5
2D
330
A
100
AcDbDictionary
280
1
281
1
  3
CREATED_BY_EZDXF
350
2E
  3
WRITTEN_BY_EZDXF
350
3C
  0
DICTIONARYVAR
  5
2E
330
2D
100
DictionaryVariables
280
0
  1
1.4.4 @ 2026-10-04T18:28:59.763989+00:00
  0
DICTIONARYVAR
  5
3C
330
2D
100
DictionaryVariables
280
0
  1
1.4.4 @ 2026-10-04T18:28:59.765876+00:00
  0
ENDSEC
  0
EOF
