  0
SECTION
  2
HEADER
  9
$ACADVER
  1
AC1024
  9
$ACADMAINTVER
 70
6
  9
$DWGCODEPAGE
  3
ANSI_1252
  9
$LASTSAVEDBY
  1
ezdxf
  9
$INSBASE
 10
0.0
 20
0.0
 30
0.0
  9
$EXTMIN
 10
1e+20
 20
1e+20
 30
1e+20
  9
$EXTMAX
 10
-1e+20
 20
-1e+20
 30
-1e+20
  9
$LIMMIN
 10
0.0
 20
0.0
  9
$LIMMAX
 10
420.0
 20
297.0
  9
$ORTHOMODE
 70
0
  9
$REGENMODE
 70
1
  9
$FILLMODE
 70
1
  9
$QTEXTMODE
 70
0
  9
$MIRRTEXT
 70
1
  9
$LTSCALE
 40
1.0
  9
$ATTMODE
 70
1
  9
$TEXTSIZE
 40
2.5
  9
$TRACEWID
 40
1.0
  9
$TEXTSTYLE
  7
Standard
  9
$CLAYER
  8
0
  9
$CELTYPE
  6
ByLayer
  9
$CECOLOR
 62
256
  9
$CELTSCALE
 40
1.0
  9
$DISPSILH
 70
0
  9
$DIMSCALE
 40
1.0
  9
$DIMASZ
 40
2.5
  9
$DIMEXO
 40
0.625
  9
$DIMDLI
 40
3.75
  9
$DIMRND
 40
0.0
  9
$DIMDLE
 40
0.0
  9
$DIMEXE
 40
1.25
  9
$DIMTP
 40
0.0
  9
$DIMTM
 40
0.0
  9
$DIMTXT
 40
2.5
  9
$DIMCEN
 40
2.5
  9
$DIMTSZ
 40
0.0
  9
$DIMTOL
 70
0
  9
$DIMLIM
 70
0
  9
$DIMTIH
 70
0
  9
$DIMTOH
 70
0
  9
$DIMSE1
 70
0
  9
$DIMSE2
 70
0
  9
$DIMTAD
 70
1
  9
$DIMZIN
 70
8
  9
$DIMBLK
  1

  9
$DIMASO
 70
1
  9
$DIMSHO
 70
1
  9
$DIMPOST
  1

  9
$DIMAPOST
  1

  9
$DIMALT
 70
0
  9
$DIMALTD
 70
3
  9
$DIMALTF
 40
0.03937007874
  9
$DIMLFAC
 40
1.0
  9
$DIMTOFL
 70
1
  9
$DIMTVP
 40
0.0
  9
$DIMTIX
 70
0
  9
$DIMSOXD
 70
0
  9
$DIMSAH
 70
0
  9
$DIMBLK1
  1

  9
$DIMBLK2
  1

  9
$DIMSTYLE
  2
ISO-25
  9
$DIMCLRD
 70
0
  9
$DIMCLRE
 70
0
  9
$DIMCLRT
 70
0
  9
$DIMTFAC
 40
1.0
  9
$DIMGAP
 40
0.625
  9
$DIMJUST
 70
0
  9
$DIMSD1
 70
0
  9
$DIMSD2
 70
0
  9
$DIMTOLJ
 70
0
  9
$DIMTZIN
 70
8
  9
$DIMALTZ
 70
0
  9
$DIMALTTZ
 70
0
  9
$DIMUPT
 70
0
  9
$DIMDEC
 70
2
  9
$DIMTDEC
 70
2
  9
$DIMALTU
 70
2
  9
$DIMALTTD
 70
3
  9
$DIMTXSTY
  7
Standard
  9
$DIMAUNIT
 70
0
  9
$DIMADEC
 70
0
  9
$DIMALTRND
 40
0.0
  9
$DIMAZIN
 70
0
  9
$DIMDSEP
 70
44
  9
$DIMATFIT
 70
3
  9
$DIMFRAC
 70
0
  9
$DIMLDRBLK
  1

  9
$DIMLUNIT
 70
2
  9
$DIMLWD
 70
-2
  9
$DIMLWE
 70
-2
  9
$DIMTMOVE
 70
0
  9
$DIMFXL
 40
1.0
  9
$DIMFXLON
 70
0
  9
$DIMJOGANG
 40
0.785398163397
  9
$DIMTFILL
 70
0
  9
$DIMTFILLCLR
 70
0
  9
$DIMARCSYM
 70
0
  9
$DIMLTYPE
  6

  9
$DIMLTEX1
  6

  9
$DIMLTEX2
  6

  9
$DIMTXTDIRECTION
 70
0
  9
$LUNITS
 70
2
  9
$LUPREC
 70
4
  9
$SKETCHINC
 40
1.0
  9
$FILLETRAD
 40
10.0
  9
$AUNITS
 70
0
  9
$AUPREC
 70
2
  9
$MENU
  1
.
  9
$ELEVATION
 40
0.0
  9
$PELEVATION
 40
0.0
  9
$THICKNESS
 40
0.0
  9
$LIMCHECK
 70
0
  9
$CHAMFERA
 40
0.0
  9
$CHAMFERB
 40
0.0
  9
$CHAMFERC
 40
0.0
  9
$CHAMFERD
 40
0.0
  9
$SKPOLY
 70
0
  9
$TDCREATE
 40
2461318.7701273146
  9
$TDUCREATE
 40
2458532.153996898
  9
$TDUPDATE
 40
2461318.7701273146
  9
$TDUUPDATE
 40
2458532.1544311
  9
$TDINDWG
 40
0.0
  9
$TDUSRTIMER
 40
0.0
  9
$USRTIMER
 70
1
  9
$ANGBASE
 50
0.0
  9
$ANGDIR
 70
0
  9
$PDMODE
 70
0
  9
$PDSIZE
 40
0.0
  9
$PLINEWID
 40
0.0
  9
$SPLFRAME
 70
0
  9
$SPLINETYPE
 70
6
  9
$SPLINESEGS
 70
8
  9
$HANDSEED
  5
7B
  9
$SURFTAB1
 70
6
  9
$SURFTAB2
 70
6
  9
$SURFTYPE
 70
6
  9
$SURFU
 70
6
  9
$SURFV
 70
6
  9
$UCSBASE
  2

  9
$UCSNAME
  2

  9
$UCSORG
 10
0.0
 20
0.0
 30
0.0
  9
$UCSXDIR
 10
1.0
 20
0.0
 30
0.0
  9
$UCSYDIR
 10
0.0
 20
1.0
 30
0.0
  9
$UCSORTHOREF
  2

  9
$UCSORTHOVIEW
 70
0
  9
$UCSORGTOP
 10
0.0
 20
0.0
 30
0.0
  9
$UCSORGBOTTOM
 10
0.0
 20
0.0
 30
0.0
  9
$UCSORGLEFT
 10
0.0
 20
0.0
 30
0.0
  9
$UCSORGRIGHT
 10
0.0
 20
0.0
 30
0.0
  9
$UCSORGFRONT
 10
0.0
 20
0.0
 30
0.0
  9
$UCSORGBACK
 10
0.0
 20
0.0
 30
0.0
  9
$PUCSBASE
  2

  9
$PUCSNAME
  2

  9
$PUCSORG
 10
0.0
 20
0.0
 30
0.0
  9
$PUCSXDIR
 10
1.0
 20
0.0
 30
0.0
  9
$PUCSYDIR
 10
0.0
 20
1.0
 30
0.0
  9
$PUCSORTHOREF
  2

  9
$PUCSORTHOVIEW
 70
0
  9
$PUCSORGTOP
 10
0.0
 20
0.0
 30
0.0
  9
$PUCSORGBOTTOM
 10
0.0
 20
0.0
 30
0.0
  9
$PUCSORGLEFT
 10
0.0
 20
0.0
 30
0.0
  9
$PUCSORGRIGHT
 10
0.0
 20
0.0
 30
0.0
  9
$PUCSORGFRONT
 10
0.0
 20
0.0
 30
0.0
  9
$PUCSORGBACK
 10
0.0
 20
0.0
 30
0.0
  9
$USERI1
 70
0
  9
$USERI2
 70
0
  9
$USERI3
 70
0
  9
$USERI4
 70
0
  9
$USERI5
 70
0
  9
$USERR1
 40
0.0
  9
$USERR2
 40
0.0
  9
$USERR3
 40
0.0
  9
$USERR4
 40
0.0
  9
$USERR5
 40
0.0
  9
$WORLDVIEW
 70
1
  9
$SHADEDGE
 70
3
  9
$SHADEDIF
 70
70
  9
$TILEMODE
 70
1
  9
$MAXACTVP
 70
64
  9
$PINSBASE
 10
0.0
 20
0.0
 30
0.0
  9
$PLIMCHECK
 70
0
  9
$PEXTMIN
 10
1e+20
 20
1e+20
 30
1e+20
  9
$PEXTMAX
 10
-1e+20
 20
-1e+20
 30
-1e+20
  9
$PLIMMIN
 10
0.0
 20
0.0
  9
$PLIMMAX
 10
420.0
 20
297.0
  9
$UNITMODE
 70
0
  9
$VISRETAIN
 70
1
  9
$PLINEGEN
 70
0
  9
$PSLTSCALE
 70
1
  9
$TREEDEPTH
 70
3020
  9
$CMLSTYLE
  2
Standard
  9
$CMLJUST
 70
0
  9
$CMLSCALE
 40
20.0
  9
$PROXYGRAPHICS
 70
1
  9
$MEASUREMENT
 70
1
  9
$CELWEIGHT
370
-1
  9
$ENDCAPS
280
0
  9
$JOINSTYLE
280
0
  9
$LWDISPLAY
290
0
  9
$INSUNITS
 70
4
  9
$HYPERLINKBASE
  1

  9
$STYLESHEET
  1

  9
$XEDIT
290
1
  9
$CEPSNTYPE
380
0
  9
$PSTYLEMODE
290
1
  9
$FINGERPRINTGUID
  2
{07DE2E3E-BA1A-4E86-90AA-B7848048A39E}
  9
$VERSIONGUID
  2
{856FA192-EB02-4931-B6CB-0C5F022F1C8E}
  9
$EXTNAMES
290
1
  9
$PSVPSCALE
 40
0.0
  9
$OLESTARTUP
290
0
  9
$SORTENTS
280
127
  9
$INDEXCTL
280
0
  9
$HIDETEXT
280
1
  9
$XCLIPFRAME
280
1
  9
$HALOGAP
280
0
  9
$OBSCOLOR
 70
257
  9
$OBSLTYPE
280
0
  9
$INTERSECTIONDISPLAY
280
0
  9
$INTERSECTIONCOLOR
 70
257
  9
$DIMASSOC
280
2
  9
$PROJECTNAME
  1

  9
$CAMERADISPLAY
290
0
  9
$LENSLENGTH
 40
50.0
  9
$CAMERAHEIGHT
 40
0.0
  9
$STEPSPERSEC
 40
24.0
  9
$STEPSIZE
 40
100.0
  9
$3DDWFPREC
 40
2.0
  9
$PSOLWIDTH
 40
0.005
  9
$PSOLHEIGHT
 40
0.08
  9
$LOFTANG1
 40
1.570796326795
  9
$LOFTANG2
 40
1.570796326795
  9
$LOFTMAG1
 40
0.0
  9
$LOFTMAG2
 40
0.0
  9
$LOFTPARAM
 70
7
  9
$LOFTNORMALS
280
1
  9
$LATITUDE
 40
37.795
  9
$LONGITUDE
 40
-122.394
  9
$NORTHDIRECTION
 40
0.0
  9
$TIMEZONE
 70
-8000
  9
$LIGHTGLYPHDISPLAY
280
1
  9
$TILEMODELIGHTSYNCH
280
1
  9
$CMATERIAL
347
20
  9
$SOLIDHIST
280
0
  9
$SHOWHIST
280
1
  9
$DWFFRAME
280
2
  9
$DGNFRAME
280
2
  9
$REALWORLDSCALE
290
1
  9
$INTERFERECOLOR
 62
256
  9
$CSHADOW
280
0
  9
$SHADOWPLANELOCATION
 40
0.0
  0
ENDSEC
  0
SECTION
  2
CLASSES
  0
CLASS
  1
ACDBDICTIONARYWDFLT
  2
AcDbDictionaryWithDefault
  3
ObjectDBX Classes
 90
0
 91
0
280
0
281
0
  0
CLASS
  1
SUN
  2
AcDbSun
  3
SCENEOE
 90
1153
 91
0
280
0
281
0
  0
CLASS
  1
VISUALSTYLE
  2
AcDbVisualStyle
  3
ObjectDBX Classes
 90
4095
 91
0
280
0
281
0
  0
CLASS
  1
MATERIAL
  2
AcDbMaterial
  3
ObjectDBX Classes
 90
1153
 91
0
280
0
281
0
  0
CLASS
  1
SCALE
  2
AcDbScale
  3
ObjectDBX Classes
 90
1153
 91
0
280
0
281
0
  0
CLASS
  1
TABLESTYLE
  2
AcDbTableStyle
  3
ObjectDBX Classes
 90
4095
 91
0
280
0
281
0
  0
CLASS
  1
MLEADERSTYLE
  2
AcDbMLeaderStyle
  3
ACDB_MLEADERSTYLE_CLASS
 90
4095
 91
0
280
0
281
0
  0
CLASS
  1
DICTIONARYVAR
  2
AcDbDictionaryVar
  3
ObjectDBX Classes
 90
0
 91
0
280
0
281
0
  0
CLASS
  1
CELLSTYLEMAP
  2
AcDbCellStyleMap
  3
ObjectDBX Classes
 90
1152
 91
0
280
0
281
0
  0
CLASS
  1
MENTALRAYRENDERSETTINGS
  2
AcDbMentalRayRenderSettings
  3
SCENEOE
 90
1024
 91
0
280
0
281
0
  0
CLASS
  1
ACDBDETAILVIEWSTYLE
  2
AcDbDetailViewStyle
  3
ObjectDBX Classes
 90
1025
 91
0
280
0
281
0
  0
CLASS
  1
ACDBSECTIONVIEWSTYLE
  2
AcDbSectionViewStyle
  3
ObjectDBX Classes
 90
1025
 91
0
280
0
281
0
  0
CLASS
  1
RASTERVARIABLES
  2
AcDbRasterVariables
  3
ISM
 90
0
 91
0
280
0
281
0
  0
CLASS
  1
LAYOUT
  2
AcDbLayout
  3
ObjectDBX Classes
 90
0
 91
0
280
0
281
0
  0
CLASS
  1
ACDBPLACEHOLDER
  2
AcDbPlaceHolder
  3
ObjectDBX Classes
 90
0
 91
0
280
0
281
0
  0
ENDSEC
  0
SECTION
  2
TABLES
  0
TABLE
  2
VPORT
  5
8
330
0
100
AcDbSymbolTable
 70
1
  0
VPORT
  5
23
330
8
100
AcDbSymbolTableRecord
100
AcDbViewportTableRecord
  2
*Active
 70
0
 10
0.0
 20
0.0
 11
1.0
 21
1.0
 12
0.0
 22
0.0
 13
0.0
 23
0.0
 14
0.5
 24
0.5
 15
0.5
 25
0.5
 16
0.0
 26
0.0
 36
1.0
 17
0.0
 27
0.0
 37
0.0
 40
1000.0
 41
1.34
 42
50.0
 43
0.0
 44
0.0
 50
0.0
 51
0.0
 71
0
 72
1000
 73
1
 74
3
 75
0
 76
0
 77
0
 78
0
281
0
 65
0
146
0.0
  0
ENDTAB
  0
TABLE
  2
LTYPE
  5
2
330
0
100
AcDbSymbolTable
 70
3
  0
LTYPE
  5
24
330
2
100
AcDbSymbolTableRecord
100
AcDbLinetypeTableRecord
  2
ByBlock
 70
0
  3

 72
65
 73
0
 40
0.0
  0
LTYPE
  5
25
330
2
100
AcDbSymbolTableRecord
100
AcDbLinetypeTableRecord
  2
ByLayer
 70
0
  3

 72
65
 73
0
 40
0.0
  0
LTYPE
  5
26
330
2
100
AcDbSymbolTableRecord
100
AcDbLinetypeTableRecord
  2
Continuous
 70
0
  3

 72
65
 73
0
 40
0.0
  0
ENDTAB
  0
TABLE
  2
LAYER
  5
1
330
0
100
AcDbSymbolTable
 70
8
  0
LAYER
  5
27
330
1
100
AcDbSymbolTableRecord
100
AcDbLayerTableRecord
  2
0
 70
0
 62
7
  6
Continuous
370
-3
390
13
347
21
  0
LAYER
  5
28
330
1
100
AcDbSymbolTableRecord
100
AcDbLayerTableRecord
  2
Defpoints
 70
0
 62
7
  6
Continuous
290
0
370
-3
390
13
347
21
  0
LAYER
  5
2F
330
1
100
AcDbSymbolTableRecord
100
AcDbLayerTableRecord
  2
CUT
 70
0
 62
1
  6
Continuous
370
-3
390
13
347
21
  0
LAYER
  5
30
330
1
100
AcDbSymbolTableRecord
100
AcDbLayerTableRecord
  2
SEW
 70
0
 62
5
  6
Continuous
370
-3
390
13
347
21
  0
LAYER
  5
31
330
1
100
AcDbSymbolTableRecord
100
AcDbLayerTableRecord
  2
GRAIN
 70
0
 62
3
  6
Continuous
370
-3
390
13
347
21
  0
LAYER
  5
32
330
1
100
AcDbSymbolTableRecord
100
AcDbLayerTableRecord
  2
NOTCH
 70
0
 62
2
  6
Continuous
370
-3
390
13
347
21
  0
LAYER
  5
33
330
1
100
AcDbSymbolTableRecord
100
AcDbLayerTableRecord
  2
LABEL
 70
0
 62
7
  6
Continuous
370
-3
390
13
347
21
  0
LAYER
  5
34
330
1
100
AcDbSymbolTableRecord
100
AcDbLayerTableRecord
  2
ATTACHMENT
 70
0
 62
4
  6
Continuous
370
-3
390
13
347
21
  0
ENDTAB
  0
TABLE
  2
STYLE
  5
5
330
0
100
AcDbSymbolTable
 70
1
  0
STYLE
  5
29
330
5
100
AcDbSymbolTableRecord
100
AcDbTextStyleTableRecord
  2
Standard
 70
0
 40
0.0
 41
1.0
 50
0.0
 71
0
 42
2.5
  3
txt
  4

  0
ENDTAB
  0
TABLE
  2
VIEW
  5
7
330
0
100
AcDbSymbolTable
 70
0
  0
ENDTAB
  0
TABLE
  2
UCS
  5
6
330
0
100
AcDbSymbolTable
 70
0
  0
ENDTAB
  0
TABLE
  2
APPID
  5
3
330
0
100
AcDbSymbolTable
 70
3
  0
APPID
  5
2A
330
3
100
AcDbSymbolTableRecord
100
AcDbRegAppTableRecord
  2
ACAD
 70
0
  0
APPID
  5
78
330
3
100
AcDbSymbolTableRecord
100
AcDbRegAppTableRecord
  2
HATCHBACKGROUNDCOLOR
 70
0
  0
APPID
  5
79
330
3
100
AcDbSymbolTableRecord
100
AcDbRegAppTableRecord
  2
EZDXF
 70
0
  0
ENDTAB
  0
TABLE
  2
DIMSTYLE
  5
4
330
0
100
AcDbSymbolTable
 70
1
100
AcDbDimStyleTable
  0
DIMSTYLE
105
2B
330
4
100
AcDbSymbolTableRecord
100
AcDbDimStyleTableRecord
  2
Standard
 70
0
 40
1.0
 41
2.5
 42
0.625
 43
3.75
 44
1.25
 45
0.0
 46
0.0
 47
0.0
 48
0.0
 49
2.5
140
2.5
141
2.5
142
0.0
143
0.03937007874
144
1.0
145
0.0
146
1.0
147
0.625
148
0.0
 69
0
 70
0
 71
0
 72
0
 73
0
 74
0
 75
0
 76
0
 77
1
 78
8
 79
3
170
0
171
3
172
1
173
0
174
0
175
0
176
0
177
0
178
0
179
2
271
2
272
2
273
2
274
3
275
0
276
0
277
2
278
44
279
0
280
0
281
0
282
0
283
0
284
8
285
0
286
0
288
0
289
3
290
0
371
-2
372
-2
  0
ENDTAB
  0
TABLE
  2
BLOCK_RECORD
  5
9
330
0
100
AcDbSymbolTable
 70
2
  0
BLOCK_RECORD
  5
17
330
9
100
AcDbSymbolTableRecord
100
AcDbBlockTableRecord
  2
*Model_Space
340
1A
 70
0
280
1
281
0
  0
BLOCK_RECORD
  5
1B
330
9
100
AcDbSymbolTableRecord
100
AcDbBlockTableRecord
  2
*Paper_Space
340
1E
 70
0
280
1
281
0
  0
ENDTAB
  0
ENDSEC
  0
SECTION
  2
BLOCKS
  0
BLOCK
  5
18
330
17
100
AcDbEntity
  8
0
100
AcDbBlockBegin
  2
*Model_Space
 70
0
 10
0.0
 20
0.0
 30
0.0
  3
*Model_Space
  1

  0
ENDBLK
  5
19
330
17
100
AcDbEntity
  8
0
100
AcDbBlockEnd
  0
BLOCK
  5
1C
330
1B
100
AcDbEntity
  8
0
100
AcDbBlockBegin
  2
*Paper_Space
 70
0
 10
0.0
 20
0.0
 30
0.0
  3
*Paper_Space
  1

  0
ENDBLK
  5
1D
330
1B
100
AcDbEntity
  8
0
100
AcDbBlockEnd
  0
ENDSEC
  0
SECTION
  2
ENTITIES
  0
LWPOLYLINE
  5
35
330
17
100
AcDbEntity
  8
CUT
100
AcDbPolyline
 90
61
 70
1
 10
-9.922199045649958
 20
13.762522418554932
 10
54.79449547903288
 20
3.2856219221446823
 10
107.69346901541753
 20
-4.478049432563646
 10
160.77304716216588
 20
-11.315985016605563
 10
214.0296674804295
 20
-17.645452896744523
 10
267.3878673311713
 20
-23.871472815737192
 10
320.71853078499396
 20
-30.314696777082904
 10
374.0152691190352
 20
-36.70664050873352
 10
427.321220013738
 20
-42.943087411803674
 10
480.6502200115854
 20
-48.99099290198394
 10
534.0078659986671
 20
-54.81645258091055
 10
587.4048048463486
 20
-60.386056301014975
 10
640.840820859213
 20
-65.71084507097952
 10
694.303761733394
 20
-70.76894671556404
 10
747.8023185642829
 20
-75.43281514480232
 10
801.3573215521719
 20
-79.5755590292642
 10
854.9880013721042
 20
-83.07030559570832
 10
908.6843047083344
 20
-85.77309904115593
 10
962.4966330625545
 20
-87.25545240845007
 10
1016.5052308026184
 20
-87.17367458870275
 10
1070.7689743466203
 20
-85.26213137907554
 10
1125.2552467843418
 20
-81.2596505788768
 10
1179.9046597380175
 20
-74.13646922785097
 10
1235.3613008142934
 20
-60.846778791320496
 10
1292.2235609567228
 20
-38.918658936636035
 10
1385.3972371820582
 20
23.285767770990656
 10
1383.7930498998865
 20
-6.606621324730033
 10
1382.9283918183553
 20
-12.879966327656426
 10
1381.2927227440812
 20
-19.174773235823107
 10
1379.9580427674778
 20
-22.104295255502663
 10
1379.6320432741575
 20
-28.255595608310696
 10
1294.7610233982987
 20
-132.18317150305165
 10
1229.6715173926848
 20
-180.88015413350175
 10
1168.1845156593743
 20
-212.63426866282393
 10
1109.1620821784115
 20
-232.55600974349153
 10
1051.6166684836412
 20
-246.5087121657489
 10
994.8834468344327
 20
-256.6190484838391
 10
938.7714225060556
 20
-263.4219900109563
 10
883.2251756252508
 20
-267.4108428355001
 10
828.1772712045216
 20
-269.2210296682466
 10
773.4651724713044
 20
-269.6201702008138
 10
718.9923893457548
 20
-268.8738160189009
 10
664.7191696742128
 20
-267.21128821799
 10
610.60881141429
 20
-264.860016034231
 10
556.6052354683665
 20
-262.043574923994
 10
502.67524601464936
 20
-258.8089005833918
 10
448.8220704150824
 20
-255.14102679063888
 10
395.0438281707735
 20
-251.09645185193608
 10
341.3309402283334
 20
-246.73215881949517
 10
287.6885577618374
 20
-242.1065650866885
 10
234.1328409647667
 20
-237.41157918468681
 10
180.50181600375512
 20
-233.11234040544343
 10
126.75529135318111
 20
-228.62055362255143
 10
72.9924595979437
 20
-223.21224891207368
 10
19.440052132317987
 20
-216.1755695095421
 10
-45.65277448625262
 20
-205.967704708801
 10
-38.28768271338901
 20
-160.81120803975173
 10
-32.46068321907588
 20
-124.95924394054516
 10
-26.091677543057386
 20
-85.77008284407245
 10
-19.198487827034786
 20
-43.3580751919192
 10
-9.922199045649958
 20
13.762522418554932
  0
LWPOLYLINE
  5
36
330
17
100
AcDbEntity
  8
SEW
100
AcDbPolyline
 90
60
 70
1
 10
0.0
 20
0.0
 10
52.96429552625535
 20
-8.574320091076425
 10
106.0554803089316
 20
-16.366201160399736
 10
159.29829388351138
 20
-23.225165422127425
 10
212.62617551993887
 20
-29.563102600951115
 10
265.9728127941956
 20
-35.787773358395754
 10
319.2843973530437
 20
-42.22869227447679
 10
372.60359325833923
 20
-48.6233293704175
 10
425.9478995767542
 20
-54.86426360669175
 10
479.32290744410875
 20
-60.91738673167849
 10
532.7342054241457
 20
-66.74870400637931
 10
586.187400114367
 20
-72.32417553008163
 10
639.6807391696045
 20
-77.65467642297496
 10
693.2175252275052
 20
-82.71976452283316
 10
746.8184595444579
 20
-87.39255796151845
 10
800.5043912596868
 20
-91.54542982944082
 10
854.296184849683
 20
-95.05067508425935
 10
908.2173995862154
 20
-97.76478940322664
 10
962.34046740471
 20
-99.25570262483866
 10
1016.725608678315
 20
-99.17335465680938
 10
1071.420007826061
 20
-97.24664078734081
 10
1126.4712759087602
 20
-93.20265624463879
 10
1182.084487424311
 20
-85.95385026983313
 10
1238.9341508876068
 20
-72.33033441698886
 10
1297.7812383116018
 20
-49.636794221783326
 10
1372.1303295012326
 20
8.404691333610465e-14
 10
1371.8371086844243
 20
-5.463869988505448
 10
1371.1369461462314
 20
-10.543752145427934
 10
1369.9405342267635
 20
-15.148095489769254
 10
1368.0952027302344
 20
-19.198459133080544
 10
1367.856449340334
 20
-23.703508501625844
 10
1286.3958775000622
 20
-123.45486974062253
 10
1223.2803233064558
 20
-170.6750321737526
 10
1163.4857488129965
 20
-201.55511598289303
 10
1105.8230371272164
 20
-221.017912490323
 10
1049.1478477324595
 20
-234.75961667798416
 10
993.1072601122096
 20
-244.7465197981251
 10
937.6188268201818
 20
-251.47385804042244
 10
882.5979813060492
 20
-255.42498106604813
 10
827.9362647384912
 20
-257.2224685567555
 10
773.5036069136787
 20
-257.6195704873391
 10
719.258318359405
 20
-256.8763333028494
 10
665.1633709246623
 20
-255.21926643739806
 10
611.1817885402296
 20
-252.87358998694629
 10
557.2769674321048
 20
-250.06229922425825
 10
503.4421959368807
 20
-246.83333597483593
 10
449.6797687305332
 20
-243.17164294393262
 10
395.97972829335527
 20
-239.1329494371265
 10
342.33232687871674
 20
-234.77397733245454
 10
288.7280097341426
 20
-230.15166598022876
 10
235.13627961707564
 20
-225.4535229543983
 10
181.48095959991488
 20
-221.1523366038076
 10
127.8556115540065
 20
-216.67067697750426
 10
74.37499048084169
 20
-211.2907614219756
 10
21.151546462328724
 20
-204.29730715948966
 10
-31.86571128200956
 20
-195.9831345036989
 10
-26.443641508077867
 20
-162.7396009216723
 10
-20.61609635676866
 20
-126.88427954140661
 10
-14.24708143111305
 20
-87.69506153094487
 10
-7.353787030559278
 20
-45.28240978532706
  0
LINE
  5
37
330
17
100
AcDbEntity
  8
GRAIN
100
AcDbLine
 10
577.1598286896542
 20
-144.81194023153944
 30
0.0
 11
657.1598286896542
 21
-144.81194023153944
 31
0.0
  0
LINE
  5
38
330
17
100
AcDbEntity
  8
GRAIN
100
AcDbLine
 10
657.1598286896542
 20
-144.81194023153944
 30
0.0
 11
652.1598286896542
 21
-141.81194023153944
 31
0.0
  0
TEXT
  5
39
330
17
100
AcDbEntity
  8
LABEL
100
AcDbText
 10
617.1598286896542
 20
-144.81194023153944
 30
0.0
 40
6.0
  1
O08_SMOOTH_LOWER_O5_B
100
AcDbText
  0
CIRCLE
  5
3A
330
17
100
AcDbEntity
  8
NOTCH
100
AcDbCircle
 10
1371.9837190928283
 20
-2.731934994252682
 30
0.0
 40
1.0
  0
TEXT
  5
3B
330
17
100
AcDbEntity
  8
LABEL
100
AcDbText
 10
1373.9837190928283
 20
-0.7319349942526818
 30
0.0
 40
3.0
  1
J1062
100
AcDbText
  0
CIRCLE
  5
3C
330
17
100
AcDbEntity
  8
NOTCH
100
AcDbCircle
 10
26.482147763127674
 20
-4.287160045538212
 30
0.0
 40
1.0
  0
TEXT
  5
3D
330
17
100
AcDbEntity
  8
LABEL
100
AcDbText
 10
28.482147763127674
 20
-2.2871600455382124
 30
0.0
 40
3.0
  1
J1201
100
AcDbText
  0
CIRCLE
  5
3E
330
17
100
AcDbEntity
  8
NOTCH
100
AcDbCircle
 10
132.6768870962215
 20
-19.79568329126358
 30
0.0
 40
1.0
  0
TEXT
  5
3F
330
17
100
AcDbEntity
  8
LABEL
100
AcDbText
 10
134.6768870962215
 20
-17.79568329126358
 30
0.0
 40
3.0
  1
J1201
100
AcDbText
  0
CIRCLE
  5
40
330
17
100
AcDbEntity
  8
NOTCH
100
AcDbCircle
 10
239.29949415706722
 20
-32.67543797967343
 30
0.0
 40
1.0
  0
TEXT
  5
41
330
17
100
AcDbEntity
  8
LABEL
100
AcDbText
 10
241.29949415706722
 20
-30.675437979673433
 30
0.0
 40
3.0
  1
J1201
100
AcDbText
  0
CIRCLE
  5
42
330
17
100
AcDbEntity
  8
NOTCH
100
AcDbCircle
 10
345.9439953056915
 20
-45.42601082244715
 30
0.0
 40
1.0
  0
TEXT
  5
43
330
17
100
AcDbEntity
  8
LABEL
100
AcDbText
 10
347.9439953056915
 20
-43.42601082244715
 30
0.0
 40
3.0
  1
J1201
100
AcDbText
  0
CIRCLE
  5
44
330
17
100
AcDbEntity
  8
NOTCH
100
AcDbCircle
 10
452.6354035104315
 20
-57.89082516918512
 30
0.0
 40
1.0
  0
TEXT
  5
45
330
17
100
AcDbEntity
  8
LABEL
100
AcDbText
 10
454.6354035104315
 20
-55.89082516918512
 30
0.0
 40
3.0
  1
J1201
100
AcDbText
  0
CIRCLE
  5
46
330
17
100
AcDbEntity
  8
NOTCH
100
AcDbCircle
 10
559.4608027692564
 20
-69.53643976823048
 30
0.0
 40
1.0
  0
TEXT
  5
47
330
17
100
AcDbEntity
  8
LABEL
100
AcDbText
 10
561.4608027692564
 20
-67.53643976823048
 30
0.0
 40
3.0
  1
J1201
100
AcDbText
  0
CIRCLE
  5
48
330
17
100
AcDbEntity
  8
NOTCH
100
AcDbCircle
 10
666.4491321985549
 20
-80.18722047290406
 30
0.0
 40
1.0
  0
TEXT
  5
49
330
17
100
AcDbEntity
  8
LABEL
100
AcDbText
 10
668.4491321985549
 20
-78.18722047290406
 30
0.0
 40
3.0
  1
J1201
100
AcDbText
  0
CIRCLE
  5
4A
330
17
100
AcDbEntity
  8
NOTCH
100
AcDbCircle
 10
773.6614254020724
 20
-89.46899389547963
 30
0.0
 40
1.0
  0
TEXT
  5
4B
330
17
100
AcDbEntity
  8
LABEL
100
AcDbText
 10
775.6614254020724
 20
-87.46899389547963
 30
0.0
 40
3.0
  1
J1201
100
AcDbText
  0
CIRCLE
  5
4C
330
17
100
AcDbEntity
  8
NOTCH
100
AcDbCircle
 10
881.2567922179492
 20
-96.407732243743
 30
0.0
 40
1.0
  0
TEXT
  5
4D
330
17
100
AcDbEntity
  8
LABEL
100
AcDbText
 10
883.2567922179492
 20
-94.407732243743
 30
0.0
 40
3.0
  1
J1201
100
AcDbText
  0
CIRCLE
  5
4E
330
17
100
AcDbEntity
  8
NOTCH
100
AcDbCircle
 10
989.5330380415126
 20
-99.21452864082403
 30
0.0
 40
1.0
  0
TEXT
  5
4F
330
17
100
AcDbEntity
  8
LABEL
100
AcDbText
 10
991.5330380415126
 20
-97.21452864082403
 30
0.0
 40
3.0
  1
J1201
100
AcDbText
  0
CIRCLE
  5
50
330
17
100
AcDbEntity
  8
NOTCH
100
AcDbCircle
 10
1098.9456418674106
 20
-95.2246485159898
 30
0.0
 40
1.0
  0
TEXT
  5
51
330
17
100
AcDbEntity
  8
LABEL
100
AcDbText
 10
1100.9456418674106
 20
-93.2246485159898
 30
0.0
 40
3.0
  1
J1201
100
AcDbText
  0
CIRCLE
  5
52
330
17
100
AcDbEntity
  8
NOTCH
100
AcDbCircle
 10
1210.509319155959
 20
-79.142092343411
 30
0.0
 40
1.0
  0
TEXT
  5
53
330
17
100
AcDbEntity
  8
LABEL
100
AcDbText
 10
1212.509319155959
 20
-77.142092343411
 30
0.0
 40
3.0
  1
J1201
100
AcDbText
  0
CIRCLE
  5
54
330
17
100
AcDbEntity
  8
NOTCH
100
AcDbCircle
 10
1334.9557839064173
 20
-24.81839711089162
 30
0.0
 40
1.0
  0
TEXT
  5
55
330
17
100
AcDbEntity
  8
LABEL
100
AcDbText
 10
1336.9557839064173
 20
-22.81839711089162
 30
0.0
 40
3.0
  1
J1201
100
AcDbText
  0
CIRCLE
  5
56
330
17
100
AcDbEntity
  8
NOTCH
100
AcDbCircle
 10
-3.676893515279639
 20
-22.64120489266353
 30
0.0
 40
1.0
  0
TEXT
  5
57
330
17
100
AcDbEntity
  8
LABEL
100
AcDbText
 10
-1.6768935152796391
 20
-20.64120489266353
 30
0.0
 40
3.0
  1
J1214
100
AcDbText
  0
CIRCLE
  5
58
330
17
100
AcDbEntity
  8
NOTCH
100
AcDbCircle
 10
-17.431588893940855
 20
-107.28967053617575
 30
0.0
 40
1.0
  0
TEXT
  5
59
330
17
100
AcDbEntity
  8
LABEL
100
AcDbText
 10
-15.431588893940855
 20
-105.28967053617575
 30
0.0
 40
3.0
  1
J1214
100
AcDbText
  0
CIRCLE
  5
5A
330
17
100
AcDbEntity
  8
NOTCH
100
AcDbCircle
 10
-29.154676395043715
 20
-179.3613677126856
 30
0.0
 40
1.0
  0
TEXT
  5
5B
330
17
100
AcDbEntity
  8
LABEL
100
AcDbText
 10
-27.154676395043715
 20
-177.3613677126856
 30
0.0
 40
3.0
  1
J1214
100
AcDbText
  0
CIRCLE
  5
5C
330
17
100
AcDbEntity
  8
NOTCH
100
AcDbCircle
 10
-5.357082409840418
 20
-200.14022083159426
 30
0.0
 40
1.0
  0
TEXT
  5
5D
330
17
100
AcDbEntity
  8
LABEL
100
AcDbText
 10
-3.3570824098404177
 20
-198.14022083159426
 30
0.0
 40
3.0
  1
J1217
100
AcDbText
  0
CIRCLE
  5
5E
330
17
100
AcDbEntity
  8
NOTCH
100
AcDbCircle
 10
101.11530101742409
 20
-213.98071919973992
 30
0.0
 40
1.0
  0
TEXT
  5
5F
330
17
100
AcDbEntity
  8
LABEL
100
AcDbText
 10
103.11530101742409
 20
-211.98071919973992
 30
0.0
 40
3.0
  1
J1217
100
AcDbText
  0
CIRCLE
  5
60
330
17
100
AcDbEntity
  8
NOTCH
100
AcDbCircle
 10
208.30861960849526
 20
-223.30292977910295
 30
0.0
 40
1.0
  0
TEXT
  5
61
330
17
100
AcDbEntity
  8
LABEL
100
AcDbText
 10
210.30861960849526
 20
-221.30292977910295
 30
0.0
 40
3.0
  1
J1217
100
AcDbText
  0
CIRCLE
  5
62
330
17
100
AcDbEntity
  8
NOTCH
100
AcDbCircle
 10
315.5301683064297
 20
-232.46282165634165
 30
0.0
 40
1.0
  0
TEXT
  5
63
330
17
100
AcDbEntity
  8
LABEL
100
AcDbText
 10
317.5301683064297
 20
-230.46282165634165
 30
0.0
 40
3.0
  1
J1217
100
AcDbText
  0
CIRCLE
  5
64
330
17
100
AcDbEntity
  8
NOTCH
100
AcDbCircle
 10
422.8297485119442
 20
-241.15229619052957
 30
0.0
 40
1.0
  0
TEXT
  5
65
330
17
100
AcDbEntity
  8
LABEL
100
AcDbText
 10
424.8297485119442
 20
-239.15229619052957
 30
0.0
 40
3.0
  1
J1217
100
AcDbText
  0
CIRCLE
  5
66
330
17
100
AcDbEntity
  8
NOTCH
100
AcDbCircle
 10
530.3595816844927
 20
-248.44781759954708
 30
0.0
 40
1.0
  0
TEXT
  5
67
330
17
100
AcDbEntity
  8
LABEL
100
AcDbText
 10
532.3595816844927
 20
-246.44781759954708
 30
0.0
 40
3.0
  1
J1217
100
AcDbText
  0
CIRCLE
  5
68
330
17
100
AcDbEntity
  8
NOTCH
100
AcDbCircle
 10
638.1725797324459
 20
-254.04642821217217
 30
0.0
 40
1.0
  0
TEXT
  5
69
330
17
100
AcDbEntity
  8
LABEL
100
AcDbText
 10
640.1725797324459
 20
-252.04642821217217
 30
0.0
 40
3.0
  1
J1218
100
AcDbText
  0
CIRCLE
  5
6A
330
17
100
AcDbEntity
  8
NOTCH
100
AcDbCircle
 10
746.3809626365419
 20
-257.2479518950943
 30
0.0
 40
1.0
  0
TEXT
  5
6B
330
17
100
AcDbEntity
  8
LABEL
100
AcDbText
 10
748.3809626365419
 20
-255.24795189509427
 30
0.0
 40
3.0
  1
J1218
100
AcDbText
  0
CIRCLE
  5
6C
330
17
100
AcDbEntity
  8
NOTCH
100
AcDbCircle
 10
855.2671230222702
 20
-256.3237248114018
 30
0.0
 40
1.0
  0
TEXT
  5
6D
330
17
100
AcDbEntity
  8
LABEL
100
AcDbText
 10
857.2671230222702
 20
-254.3237248114018
 30
0.0
 40
3.0
  1
J1218
100
AcDbText
  0
CIRCLE
  5
6E
330
17
100
AcDbEntity
  8
NOTCH
100
AcDbCircle
 10
965.3630434661957
 20
-248.11018891927375
 30
0.0
 40
1.0
  0
TEXT
  5
6F
330
17
100
AcDbEntity
  8
LABEL
100
AcDbText
 10
967.3630434661957
 20
-246.11018891927375
 30
0.0
 40
3.0
  1
J1219
100
AcDbText
  0
CIRCLE
  5
70
330
17
100
AcDbEntity
  8
NOTCH
100
AcDbCircle
 10
1077.4854424298378
 20
-227.8887645841536
 30
0.0
 40
1.0
  0
TEXT
  5
71
330
17
100
AcDbEntity
  8
LABEL
100
AcDbText
 10
1079.4854424298378
 20
-225.8887645841536
 30
0.0
 40
3.0
  1
J1219
100
AcDbText
  0
CIRCLE
  5
72
330
17
100
AcDbEntity
  8
NOTCH
100
AcDbCircle
 10
1134.6543929701065
 20
-211.286514236608
 30
0.0
 40
1.0
  0
TEXT
  5
73
330
17
100
AcDbEntity
  8
LABEL
100
AcDbText
 10
1136.6543929701065
 20
-209.286514236608
 30
0.0
 40
3.0
  1
J1220
100
AcDbText
  0
CIRCLE
  5
74
330
17
100
AcDbEntity
  8
NOTCH
100
AcDbCircle
 10
1254.838100403259
 20
-147.06495095718756
 30
0.0
 40
1.0
  0
TEXT
  5
75
330
17
100
AcDbEntity
  8
LABEL
100
AcDbText
 10
1256.838100403259
 20
-145.06495095718756
 30
0.0
 40
3.0
  1
J1221
100
AcDbText
  0
CIRCLE
  5
76
330
17
100
AcDbEntity
  8
NOTCH
100
AcDbCircle
 10
1327.126163420198
 20
-73.57918912112419
 30
0.0
 40
1.0
  0
TEXT
  5
77
330
17
100
AcDbEntity
  8
LABEL
100
AcDbText
 10
1329.126163420198
 20
-71.57918912112419
 30
0.0
 40
3.0
  1
J1221
100
AcDbText
  0
ENDSEC
  0
SECTION
  2
OBJECTS
  0
DICTIONARY
  5
A
330
0
100
AcDbDictionary
281
1
  3
ACAD_COLOR
350
B
  3
ACAD_GROUP
350
C
  3
ACAD_LAYOUT
350
D
  3
ACAD_MATERIAL
350
E
  3
ACAD_MLEADERSTYLE
350
F
  3
ACAD_MLINESTYLE
350
10
  3
ACAD_PLOTSETTINGS
350
11
  3
ACAD_PLOTSTYLENAME
350
12
  3
ACAD_SCALELIST
350
14
  3
ACAD_TABLESTYLE
350
15
  3
ACAD_VISUALSTYLE
350
16
  3
EZDXF_META
350
2D
  0
DICTIONARY
  5
B
330
A
100
AcDbDictionary
281
1
  0
DICTIONARY
  5
C
330
A
100
AcDbDictionary
281
1
  0
DICTIONARY
  5
D
330
A
100
AcDbDictionary
281
1
  3
Model
350
1A
  3
Layout1
350
1E
  0
DICTIONARY
  5
E
330
A
100
AcDbDictionary
281
1
  3
ByBlock
350
1F
  3
ByLayer
350
20
  3
Global
350
21
  0
DICTIONARY
  5
F
330
A
100
AcDbDictionary
281
1
  3
Standard
350
2C
  0
DICTIONARY
  5
10
330
A
100
AcDbDictionary
281
1
  3
Standard
350
22
  0
DICTIONARY
  5
11
330
A
100
AcDbDictionary
281
1
  0
ACDBDICTIONARYWDFLT
  5
12
330
A
100
AcDbDictionary
281
1
  3
Normal
350
13
100
AcDbDictionaryWithDefault
340
13
  0
ACDBPLACEHOLDER
  5
13
330
12
  0
DICTIONARY
  5
14
330
A
100
AcDbDictionary
281
1
  0
DICTIONARY
  5
15
330
A
100
AcDbDictionary
281
1
  0
DICTIONARY
  5
16
330
A
100
AcDbDictionary
281
1
  0
LAYOUT
  5
1A
330
D
100
AcDbPlotSettings
  1

  4
A3
  6

 40
7.5
 41
20.0
 42
7.5
 43
20.0
 44
420.0
 45
297.0
 46
0.0
 47
0.0
 48
0.0
 49
0.0
140
0.0
141
0.0
142
1.0
143
1.0
 70
1024
 72
1
 73
0
 74
5
  7

 75
16
 76
0
 77
2
 78
300
147
1.0
148
0.0
149
0.0
100
AcDbLayout
  1
Model
 70
1
 71
0
 10
0.0
 20
0.0
 11
420.0
 21
297.0
 12
0.0
 22
0.0
 32
0.0
 14
1e+20
 24
1e+20
 34
1e+20
 15
-1e+20
 25
-1e+20
 35
-1e+20
146
0.0
 13
0.0
 23
0.0
 33
0.0
 16
1.0
 26
0.0
 36
0.0
 17
0.0
 27
1.0
 37
0.0
 76
1
330
17
  0
LAYOUT
  5
1E
330
D
100
AcDbPlotSettings
  1

  4
A3
  6

 40
7.5
 41
20.0
 42
7.5
 43
20.0
 44
420.0
 45
297.0
 46
0.0
 47
0.0
 48
0.0
 49
0.0
140
0.0
141
0.0
142
1.0
143
1.0
 70
0
 72
1
 73
0
 74
5
  7

 75
16
 76
0
 77
2
 78
300
147
1.0
148
0.0
149
0.0
100
AcDbLayout
  1
Layout1
 70
1
 71
1
 10
0.0
 20
0.0
 11
420.0
 21
297.0
 12
0.0
 22
0.0
 32
0.0
 14
1e+20
 24
1e+20
 34
1e+20
 15
-1e+20
 25
-1e+20
 35
-1e+20
146
0.0
 13
0.0
 23
0.0
 33
0.0
 16
1.0
 26
0.0
 36
0.0
 17
0.0
 27
1.0
 37
0.0
 76
1
330
1B
  0
MATERIAL
  5
1F
102
{ACAD_REACTORS
330
E
102
}
330
E
100
AcDbMaterial
  1
ByBlock
  2

 70
0
 40
1.0
 71
1
 41
1.0
 91
-1023410177
 42
1.0
 72
1
  3

 73
1
 74
1
 75
1
 44
0.5
 73
0
 45
1.0
 46
1.0
 77
1
  4

 78
1
 79
1
170
1
 48
1.0
171
1
  6

172
1
173
1
174
1
140
1.0
141
1.0
175
1
  7

176
1
177
1
178
1
143
1.0
179
1
  8

270
1
271
1
272
1
145
1.0
146
1.0
273
1
  9

274
1
275
1
276
1
 42
1.0
 72
1
  3

 73
1
 74
1
 75
1
 94
63
  0
MATERIAL
  5
20
102
{ACAD_REACTORS
330
E
102
}
330
E
100
AcDbMaterial
  1
ByLayer
  2

 70
0
 40
1.0
 71
1
 41
1.0
 91
-1023410177
 42
1.0
 72
1
  3

 73
1
 74
1
 75
1
 44
0.5
 73
0
 45
1.0
 46
1.0
 77
1
  4

 78
1
 79
1
170
1
 48
1.0
171
1
  6

172
1
173
1
174
1
140
1.0
141
1.0
175
1
  7

176
1
177
1
178
1
143
1.0
179
1
  8

270
1
271
1
272
1
145
1.0
146
1.0
273
1
  9

274
1
275
1
276
1
 42
1.0
 72
1
  3

 73
1
 74
1
 75
1
 94
63
  0
MATERIAL
  5
21
102
{ACAD_REACTORS
330
E
102
}
330
E
100
AcDbMaterial
  1
Global
  2

 70
0
 40
1.0
 71
1
 41
1.0
 91
-1023410177
 42
1.0
 72
1
  3

 73
1
 74
1
 75
1
 44
0.5
 73
0
 45
1.0
 46
1.0
 77
1
  4

 78
1
 79
1
170
1
 48
1.0
171
1
  6

172
1
173
1
174
1
140
1.0
141
1.0
175
1
  7

176
1
177
1
178
1
143
1.0
179
1
  8

270
1
271
1
272
1
145
1.0
146
1.0
273
1
  9

274
1
275
1
276
1
 42
1.0
 72
1
  3

 73
1
 74
1
 75
1
 94
63
  0
MLINESTYLE
  5
22
102
{ACAD_REACTORS
330
10
102
}
330
10
100
AcDbMlineStyle
  2
Standard
 70
0
  3

 62
256
 51
90.0
 52
90.0
 71
2
 49
0.5
 62
256
  6
BYLAYER
 49
-0.5
 62
256
  6
BYLAYER
  0
MLEADERSTYLE
  5
2C
102
{ACAD_REACTORS
330
F
102
}
330
F
100
AcDbMLeaderStyle
179
2
170
2
171
1
172
0
 90
2
 40
0.0
 41
0.0
173
1
 91
-1056964608
 92
-2
290
1
 42
2.0
291
1
 43
8.0
  3
Standard
 44
4.0
300

342
29
174
1
175
1
176
0
178
1
 93
-1056964608
 45
4.0
292
0
297
0
 46
4.0
 94
-1056964608
 47
1.0
 49
1.0
140
1.0
294
1
141
0.0
177
0
142
1.0
295
0
296
0
143
3.75
271
0
272
9
273
9
  0
DICTIONARY
  5
2D
330
A
100
AcDbDictionary
280
1
281
1
  3
CREATED_BY_EZDXF
350
2E
  3
WRITTEN_BY_EZDXF
350
7A
  0
DICTIONARYVAR
  5
2E
330
2D
100
DictionaryVariables
280
0
  1
1.4.4 @ 2026-10-04T18:28:59.779811+00:00
  0
DICTIONARYVAR
  5
7A
330
2D
100
DictionaryVariables
280
0
  1
1.4.4 @ 2026-10-04T18:28:59.782353+00:00
  0
ENDSEC
  0
EOF
