  0
SECTION
  2
HEADER
  9
$ACADVER
  1
AC1024
  9
$ACADMAINTVER
 70
6
  9
$DWGCODEPAGE
  3
ANSI_1252
  9
$LASTSAVEDBY
  1
ezdxf
  9
$INSBASE
 10
0.0
 20
0.0
 30
0.0
  9
$EXTMIN
 10
1e+20
 20
1e+20
 30
1e+20
  9
$EXTMAX
 10
-1e+20
 20
-1e+20
 30
-1e+20
  9
$LIMMIN
 10
0.0
 20
0.0
  9
$LIMMAX
 10
420.0
 20
297.0
  9
$ORTHOMODE
 70
0
  9
$REGENMODE
 70
1
  9
$FILLMODE
 70
1
  9
$QTEXTMODE
 70
0
  9
$MIRRTEXT
 70
1
  9
$LTSCALE
 40
1.0
  9
$ATTMODE
 70
1
  9
$TEXTSIZE
 40
2.5
  9
$TRACEWID
 40
1.0
  9
$TEXTSTYLE
  7
Standard
  9
$CLAYER
  8
0
  9
$CELTYPE
  6
ByLayer
  9
$CECOLOR
 62
256
  9
$CELTSCALE
 40
1.0
  9
$DISPSILH
 70
0
  9
$DIMSCALE
 40
1.0
  9
$DIMASZ
 40
2.5
  9
$DIMEXO
 40
0.625
  9
$DIMDLI
 40
3.75
  9
$DIMRND
 40
0.0
  9
$DIMDLE
 40
0.0
  9
$DIMEXE
 40
1.25
  9
$DIMTP
 40
0.0
  9
$DIMTM
 40
0.0
  9
$DIMTXT
 40
2.5
  9
$DIMCEN
 40
2.5
  9
$DIMTSZ
 40
0.0
  9
$DIMTOL
 70
0
  9
$DIMLIM
 70
0
  9
$DIMTIH
 70
0
  9
$DIMTOH
 70
0
  9
$DIMSE1
 70
0
  9
$DIMSE2
 70
0
  9
$DIMTAD
 70
1
  9
$DIMZIN
 70
8
  9
$DIMBLK
  1

  9
$DIMASO
 70
1
  9
$DIMSHO
 70
1
  9
$DIMPOST
  1

  9
$DIMAPOST
  1

  9
$DIMALT
 70
0
  9
$DIMALTD
 70
3
  9
$DIMALTF
 40
0.03937007874
  9
$DIMLFAC
 40
1.0
  9
$DIMTOFL
 70
1
  9
$DIMTVP
 40
0.0
  9
$DIMTIX
 70
0
  9
$DIMSOXD
 70
0
  9
$DIMSAH
 70
0
  9
$DIMBLK1
  1

  9
$DIMBLK2
  1

  9
$DIMSTYLE
  2
ISO-25
  9
$DIMCLRD
 70
0
  9
$DIMCLRE
 70
0
  9
$DIMCLRT
 70
0
  9
$DIMTFAC
 40
1.0
  9
$DIMGAP
 40
0.625
  9
$DIMJUST
 70
0
  9
$DIMSD1
 70
0
  9
$DIMSD2
 70
0
  9
$DIMTOLJ
 70
0
  9
$DIMTZIN
 70
8
  9
$DIMALTZ
 70
0
  9
$DIMALTTZ
 70
0
  9
$DIMUPT
 70
0
  9
$DIMDEC
 70
2
  9
$DIMTDEC
 70
2
  9
$DIMALTU
 70
2
  9
$DIMALTTD
 70
3
  9
$DIMTXSTY
  7
Standard
  9
$DIMAUNIT
 70
0
  9
$DIMADEC
 70
0
  9
$DIMALTRND
 40
0.0
  9
$DIMAZIN
 70
0
  9
$DIMDSEP
 70
44
  9
$DIMATFIT
 70
3
  9
$DIMFRAC
 70
0
  9
$DIMLDRBLK
  1

  9
$DIMLUNIT
 70
2
  9
$DIMLWD
 70
-2
  9
$DIMLWE
 70
-2
  9
$DIMTMOVE
 70
0
  9
$DIMFXL
 40
1.0
  9
$DIMFXLON
 70
0
  9
$DIMJOGANG
 40
0.785398163397
  9
$DIMTFILL
 70
0
  9
$DIMTFILLCLR
 70
0
  9
$DIMARCSYM
 70
0
  9
$DIMLTYPE
  6

  9
$DIMLTEX1
  6

  9
$DIMLTEX2
  6

  9
$DIMTXTDIRECTION
 70
0
  9
$LUNITS
 70
2
  9
$LUPREC
 70
4
  9
$SKETCHINC
 40
1.0
  9
$FILLETRAD
 40
10.0
  9
$AUNITS
 70
0
  9
$AUPREC
 70
2
  9
$MENU
  1
.
  9
$ELEVATION
 40
0.0
  9
$PELEVATION
 40
0.0
  9
$THICKNESS
 40
0.0
  9
$LIMCHECK
 70
0
  9
$CHAMFERA
 40
0.0
  9
$CHAMFERB
 40
0.0
  9
$CHAMFERC
 40
0.0
  9
$CHAMFERD
 40
0.0
  9
$SKPOLY
 70
0
  9
$TDCREATE
 40
2461318.7701273146
  9
$TDUCREATE
 40
2458532.153996898
  9
$TDUPDATE
 40
2461318.7701273146
  9
$TDUUPDATE
 40
2458532.1544311
  9
$TDINDWG
 40
0.0
  9
$TDUSRTIMER
 40
0.0
  9
$USRTIMER
 70
1
  9
$ANGBASE
 50
0.0
  9
$ANGDIR
 70
0
  9
$PDMODE
 70
0
  9
$PDSIZE
 40
0.0
  9
$PLINEWID
 40
0.0
  9
$SPLFRAME
 70
0
  9
$SPLINETYPE
 70
6
  9
$SPLINESEGS
 70
8
  9
$HANDSEED
  5
99
  9
$SURFTAB1
 70
6
  9
$SURFTAB2
 70
6
  9
$SURFTYPE
 70
6
  9
$SURFU
 70
6
  9
$SURFV
 70
6
  9
$UCSBASE
  2

  9
$UCSNAME
  2

  9
$UCSORG
 10
0.0
 20
0.0
 30
0.0
  9
$UCSXDIR
 10
1.0
 20
0.0
 30
0.0
  9
$UCSYDIR
 10
0.0
 20
1.0
 30
0.0
  9
$UCSORTHOREF
  2

  9
$UCSORTHOVIEW
 70
0
  9
$UCSORGTOP
 10
0.0
 20
0.0
 30
0.0
  9
$UCSORGBOTTOM
 10
0.0
 20
0.0
 30
0.0
  9
$UCSORGLEFT
 10
0.0
 20
0.0
 30
0.0
  9
$UCSORGRIGHT
 10
0.0
 20
0.0
 30
0.0
  9
$UCSORGFRONT
 10
0.0
 20
0.0
 30
0.0
  9
$UCSORGBACK
 10
0.0
 20
0.0
 30
0.0
  9
$PUCSBASE
  2

  9
$PUCSNAME
  2

  9
$PUCSORG
 10
0.0
 20
0.0
 30
0.0
  9
$PUCSXDIR
 10
1.0
 20
0.0
 30
0.0
  9
$PUCSYDIR
 10
0.0
 20
1.0
 30
0.0
  9
$PUCSORTHOREF
  2

  9
$PUCSORTHOVIEW
 70
0
  9
$PUCSORGTOP
 10
0.0
 20
0.0
 30
0.0
  9
$PUCSORGBOTTOM
 10
0.0
 20
0.0
 30
0.0
  9
$PUCSORGLEFT
 10
0.0
 20
0.0
 30
0.0
  9
$PUCSORGRIGHT
 10
0.0
 20
0.0
 30
0.0
  9
$PUCSORGFRONT
 10
0.0
 20
0.0
 30
0.0
  9
$PUCSORGBACK
 10
0.0
 20
0.0
 30
0.0
  9
$USERI1
 70
0
  9
$USERI2
 70
0
  9
$USERI3
 70
0
  9
$USERI4
 70
0
  9
$USERI5
 70
0
  9
$USERR1
 40
0.0
  9
$USERR2
 40
0.0
  9
$USERR3
 40
0.0
  9
$USERR4
 40
0.0
  9
$USERR5
 40
0.0
  9
$WORLDVIEW
 70
1
  9
$SHADEDGE
 70
3
  9
$SHADEDIF
 70
70
  9
$TILEMODE
 70
1
  9
$MAXACTVP
 70
64
  9
$PINSBASE
 10
0.0
 20
0.0
 30
0.0
  9
$PLIMCHECK
 70
0
  9
$PEXTMIN
 10
1e+20
 20
1e+20
 30
1e+20
  9
$PEXTMAX
 10
-1e+20
 20
-1e+20
 30
-1e+20
  9
$PLIMMIN
 10
0.0
 20
0.0
  9
$PLIMMAX
 10
420.0
 20
297.0
  9
$UNITMODE
 70
0
  9
$VISRETAIN
 70
1
  9
$PLINEGEN
 70
0
  9
$PSLTSCALE
 70
1
  9
$TREEDEPTH
 70
3020
  9
$CMLSTYLE
  2
Standard
  9
$CMLJUST
 70
0
  9
$CMLSCALE
 40
20.0
  9
$PROXYGRAPHICS
 70
1
  9
$MEASUREMENT
 70
1
  9
$CELWEIGHT
370
-1
  9
$ENDCAPS
280
0
  9
$JOINSTYLE
280
0
  9
$LWDISPLAY
290
0
  9
$INSUNITS
 70
4
  9
$HYPERLINKBASE
  1

  9
$STYLESHEET
  1

  9
$XEDIT
290
1
  9
$CEPSNTYPE
380
0
  9
$PSTYLEMODE
290
1
  9
$FINGERPRINTGUID
  2
{CB55CF1D-94AC-4501-8AD3-7ED1CA73971A}
  9
$VERSIONGUID
  2
{759F16A2-799B-4CE6-9EB2-190A1E9F72BE}
  9
$EXTNAMES
290
1
  9
$PSVPSCALE
 40
0.0
  9
$OLESTARTUP
290
0
  9
$SORTENTS
280
127
  9
$INDEXCTL
280
0
  9
$HIDETEXT
280
1
  9
$XCLIPFRAME
280
1
  9
$HALOGAP
280
0
  9
$OBSCOLOR
 70
257
  9
$OBSLTYPE
280
0
  9
$INTERSECTIONDISPLAY
280
0
  9
$INTERSECTIONCOLOR
 70
257
  9
$DIMASSOC
280
2
  9
$PROJECTNAME
  1

  9
$CAMERADISPLAY
290
0
  9
$LENSLENGTH
 40
50.0
  9
$CAMERAHEIGHT
 40
0.0
  9
$STEPSPERSEC
 40
24.0
  9
$STEPSIZE
 40
100.0
  9
$3DDWFPREC
 40
2.0
  9
$PSOLWIDTH
 40
0.005
  9
$PSOLHEIGHT
 40
0.08
  9
$LOFTANG1
 40
1.570796326795
  9
$LOFTANG2
 40
1.570796326795
  9
$LOFTMAG1
 40
0.0
  9
$LOFTMAG2
 40
0.0
  9
$LOFTPARAM
 70
7
  9
$LOFTNORMALS
280
1
  9
$LATITUDE
 40
37.795
  9
$LONGITUDE
 40
-122.394
  9
$NORTHDIRECTION
 40
0.0
  9
$TIMEZONE
 70
-8000
  9
$LIGHTGLYPHDISPLAY
280
1
  9
$TILEMODELIGHTSYNCH
280
1
  9
$CMATERIAL
347
20
  9
$SOLIDHIST
280
0
  9
$SHOWHIST
280
1
  9
$DWFFRAME
280
2
  9
$DGNFRAME
280
2
  9
$REALWORLDSCALE
290
1
  9
$INTERFERECOLOR
 62
256
  9
$CSHADOW
280
0
  9
$SHADOWPLANELOCATION
 40
0.0
  0
ENDSEC
  0
SECTION
  2
CLASSES
  0
CLASS
  1
ACDBDICTIONARYWDFLT
  2
AcDbDictionaryWithDefault
  3
ObjectDBX Classes
 90
0
 91
0
280
0
281
0
  0
CLASS
  1
SUN
  2
AcDbSun
  3
SCENEOE
 90
1153
 91
0
280
0
281
0
  0
CLASS
  1
VISUALSTYLE
  2
AcDbVisualStyle
  3
ObjectDBX Classes
 90
4095
 91
0
280
0
281
0
  0
CLASS
  1
MATERIAL
  2
AcDbMaterial
  3
ObjectDBX Classes
 90
1153
 91
0
280
0
281
0
  0
CLASS
  1
SCALE
  2
AcDbScale
  3
ObjectDBX Classes
 90
1153
 91
0
280
0
281
0
  0
CLASS
  1
TABLESTYLE
  2
AcDbTableStyle
  3
ObjectDBX Classes
 90
4095
 91
0
280
0
281
0
  0
CLASS
  1
MLEADERSTYLE
  2
AcDbMLeaderStyle
  3
ACDB_MLEADERSTYLE_CLASS
 90
4095
 91
0
280
0
281
0
  0
CLASS
  1
DICTIONARYVAR
  2
AcDbDictionaryVar
  3
ObjectDBX Classes
 90
0
 91
0
280
0
281
0
  0
CLASS
  1
CELLSTYLEMAP
  2
AcDbCellStyleMap
  3
ObjectDBX Classes
 90
1152
 91
0
280
0
281
0
  0
CLASS
  1
MENTALRAYRENDERSETTINGS
  2
AcDbMentalRayRenderSettings
  3
SCENEOE
 90
1024
 91
0
280
0
281
0
  0
CLASS
  1
ACDBDETAILVIEWSTYLE
  2
AcDbDetailViewStyle
  3
ObjectDBX Classes
 90
1025
 91
0
280
0
281
0
  0
CLASS
  1
ACDBSECTIONVIEWSTYLE
  2
AcDbSectionViewStyle
  3
ObjectDBX Classes
 90
1025
 91
0
280
0
281
0
  0
CLASS
  1
RASTERVARIABLES
  2
AcDbRasterVariables
  3
ISM
 90
0
 91
0
280
0
281
0
  0
CLASS
  1
LAYOUT
  2
AcDbLayout
  3
ObjectDBX Classes
 90
0
 91
0
280
0
281
0
  0
CLASS
  1
ACDBPLACEHOLDER
  2
AcDbPlaceHolder
  3
ObjectDBX Classes
 90
0
 91
0
280
0
281
0
  0
ENDSEC
  0
SECTION
  2
TABLES
  0
TABLE
  2
VPORT
  5
8
330
0
100
AcDbSymbolTable
 70
1
  0
VPORT
  5
23
330
8
100
AcDbSymbolTableRecord
100
AcDbViewportTableRecord
  2
*Active
 70
0
 10
0.0
 20
0.0
 11
1.0
 21
1.0
 12
0.0
 22
0.0
 13
0.0
 23
0.0
 14
0.5
 24
0.5
 15
0.5
 25
0.5
 16
0.0
 26
0.0
 36
1.0
 17
0.0
 27
0.0
 37
0.0
 40
1000.0
 41
1.34
 42
50.0
 43
0.0
 44
0.0
 50
0.0
 51
0.0
 71
0
 72
1000
 73
1
 74
3
 75
0
 76
0
 77
0
 78
0
281
0
 65
0
146
0.0
  0
ENDTAB
  0
TABLE
  2
LTYPE
  5
2
330
0
100
AcDbSymbolTable
 70
3
  0
LTYPE
  5
24
330
2
100
AcDbSymbolTableRecord
100
AcDbLinetypeTableRecord
  2
ByBlock
 70
0
  3

 72
65
 73
0
 40
0.0
  0
LTYPE
  5
25
330
2
100
AcDbSymbolTableRecord
100
AcDbLinetypeTableRecord
  2
ByLayer
 70
0
  3

 72
65
 73
0
 40
0.0
  0
LTYPE
  5
26
330
2
100
AcDbSymbolTableRecord
100
AcDbLinetypeTableRecord
  2
Continuous
 70
0
  3

 72
65
 73
0
 40
0.0
  0
ENDTAB
  0
TABLE
  2
LAYER
  5
1
330
0
100
AcDbSymbolTable
 70
8
  0
LAYER
  5
27
330
1
100
AcDbSymbolTableRecord
100
AcDbLayerTableRecord
  2
0
 70
0
 62
7
  6
Continuous
370
-3
390
13
347
21
  0
LAYER
  5
28
330
1
100
AcDbSymbolTableRecord
100
AcDbLayerTableRecord
  2
Defpoints
 70
0
 62
7
  6
Continuous
290
0
370
-3
390
13
347
21
  0
LAYER
  5
2F
330
1
100
AcDbSymbolTableRecord
100
AcDbLayerTableRecord
  2
CUT
 70
0
 62
1
  6
Continuous
370
-3
390
13
347
21
  0
LAYER
  5
30
330
1
100
AcDbSymbolTableRecord
100
AcDbLayerTableRecord
  2
SEW
 70
0
 62
5
  6
Continuous
370
-3
390
13
347
21
  0
LAYER
  5
31
330
1
100
AcDbSymbolTableRecord
100
AcDbLayerTableRecord
  2
GRAIN
 70
0
 62
3
  6
Continuous
370
-3
390
13
347
21
  0
LAYER
  5
32
330
1
100
AcDbSymbolTableRecord
100
AcDbLayerTableRecord
  2
NOTCH
 70
0
 62
2
  6
Continuous
370
-3
390
13
347
21
  0
LAYER
  5
33
330
1
100
AcDbSymbolTableRecord
100
AcDbLayerTableRecord
  2
LABEL
 70
0
 62
7
  6
Continuous
370
-3
390
13
347
21
  0
LAYER
  5
34
330
1
100
AcDbSymbolTableRecord
100
AcDbLayerTableRecord
  2
ATTACHMENT
 70
0
 62
4
  6
Continuous
370
-3
390
13
347
21
  0
ENDTAB
  0
TABLE
  2
STYLE
  5
5
330
0
100
AcDbSymbolTable
 70
1
  0
STYLE
  5
29
330
5
100
AcDbSymbolTableRecord
100
AcDbTextStyleTableRecord
  2
Standard
 70
0
 40
0.0
 41
1.0
 50
0.0
 71
0
 42
2.5
  3
txt
  4

  0
ENDTAB
  0
TABLE
  2
VIEW
  5
7
330
0
100
AcDbSymbolTable
 70
0
  0
ENDTAB
  0
TABLE
  2
UCS
  5
6
330
0
100
AcDbSymbolTable
 70
0
  0
ENDTAB
  0
TABLE
  2
APPID
  5
3
330
0
100
AcDbSymbolTable
 70
3
  0
APPID
  5
2A
330
3
100
AcDbSymbolTableRecord
100
AcDbRegAppTableRecord
  2
ACAD
 70
0
  0
APPID
  5
96
330
3
100
AcDbSymbolTableRecord
100
AcDbRegAppTableRecord
  2
HATCHBACKGROUNDCOLOR
 70
0
  0
APPID
  5
97
330
3
100
AcDbSymbolTableRecord
100
AcDbRegAppTableRecord
  2
EZDXF
 70
0
  0
ENDTAB
  0
TABLE
  2
DIMSTYLE
  5
4
330
0
100
AcDbSymbolTable
 70
1
100
AcDbDimStyleTable
  0
DIMSTYLE
105
2B
330
4
100
AcDbSymbolTableRecord
100
AcDbDimStyleTableRecord
  2
Standard
 70
0
 40
1.0
 41
2.5
 42
0.625
 43
3.75
 44
1.25
 45
0.0
 46
0.0
 47
0.0
 48
0.0
 49
2.5
140
2.5
141
2.5
142
0.0
143
0.03937007874
144
1.0
145
0.0
146
1.0
147
0.625
148
0.0
 69
0
 70
0
 71
0
 72
0
 73
0
 74
0
 75
0
 76
0
 77
1
 78
8
 79
3
170
0
171
3
172
1
173
0
174
0
175
0
176
0
177
0
178
0
179
2
271
2
272
2
273
2
274
3
275
0
276
0
277
2
278
44
279
0
280
0
281
0
282
0
283
0
284
8
285
0
286
0
288
0
289
3
290
0
371
-2
372
-2
  0
ENDTAB
  0
TABLE
  2
BLOCK_RECORD
  5
9
330
0
100
AcDbSymbolTable
 70
2
  0
BLOCK_RECORD
  5
17
330
9
100
AcDbSymbolTableRecord
100
AcDbBlockTableRecord
  2
*Model_Space
340
1A
 70
0
280
1
281
0
  0
BLOCK_RECORD
  5
1B
330
9
100
AcDbSymbolTableRecord
100
AcDbBlockTableRecord
  2
*Paper_Space
340
1E
 70
0
280
1
281
0
  0
ENDTAB
  0
ENDSEC
  0
SECTION
  2
BLOCKS
  0
BLOCK
  5
18
330
17
100
AcDbEntity
  8
0
100
AcDbBlockBegin
  2
*Model_Space
 70
0
 10
0.0
 20
0.0
 30
0.0
  3
*Model_Space
  1

  0
ENDBLK
  5
19
330
17
100
AcDbEntity
  8
0
100
AcDbBlockEnd
  0
BLOCK
  5
1C
330
1B
100
AcDbEntity
  8
0
100
AcDbBlockBegin
  2
*Paper_Space
 70
0
 10
0.0
 20
0.0
 30
0.0
  3
*Paper_Space
  1

  0
ENDBLK
  5
1D
330
1B
100
AcDbEntity
  8
0
100
AcDbBlockEnd
  0
ENDSEC
  0
SECTION
  2
ENTITIES
  0
LWPOLYLINE
  5
35
330
17
100
AcDbEntity
  8
CUT
100
AcDbPolyline
 90
109
 70
1
 10
-12.000670879260046
 20
11.999144289595579
 10
34.77187150950435
 20
12.002479534644717
 10
69.54475579813003
 20
12.00450413463639
 10
104.57464963062232
 20
12.006425105315103
 10
139.4395700509088
 20
12.008462848963486
 10
174.2672838086886
 20
12.010534738259608
 10
209.06319998601796
 20
12.012596764624401
 10
243.83918932806563
 20
12.014610387793194
 10
278.61194288014775
 20
12.016548074881705
 10
313.3846952908459
 20
12.018413306130995
 10
348.15743836874645
 20
12.020233123902303
 10
382.93017164357036
 20
12.02203515214963
 10
417.7028960760988
 20
12.023838919007716
 10
452.47561703803126
 20
12.025657975815237
 10
487.2483376548479
 20
12.027499103857934
 10
522.0210610534741
 20
12.029357534099478
 10
556.7937874669182
 20
12.031222004808088
 10
591.5665139753581
 20
12.033086950803355
 10
626.3392376581518
 20
12.034956744428863
 10
661.1119579725583
 20
12.03684412375008
 10
695.884681411609
 20
12.038756212717445
 10
730.6574128760678
 20
12.040657745750837
 10
765.4302177003443
 20
12.042336617862196
 10
897.2797314078558
 20
12.033374712844068
 10
950.9332960457449
 20
12.032252407395394
 10
1004.5871833777504
 20
12.030944016671729
 10
1058.241024602637
 20
12.029644725480894
 10
1111.8948632608874
 20
12.028383676217741
 10
1165.5487041635336
 20
12.02715381469187
 10
1219.2025477701948
 20
12.025941507657576
 10
1272.8563927219295
 20
12.024735937536802
 10
1326.510237726378
 20
12.02353557899604
 10
1380.1640830023957
 20
12.022341384219493
 10
1433.8179289763812
 20
12.021149884024329
 10
1487.4717753223397
 20
12.019957617337523
 10
1541.1256208365437
 20
12.018766378808726
 10
1594.7794655759458
 20
12.017580515285033
 10
1648.4333100066083
 20
12.016402569562857
 10
1702.087154465746
 20
12.01523292289702
 10
1755.7409988270276
 20
12.014070953744461
 10
1809.3948430062985
 20
12.012917888389868
 10
1863.048689019423
 20
12.011774368283898
 10
1916.7028092125197
 20
12.010621625855563
 10
1970.357961667513
 20
12.009444408177101
 10
2024.0147553905417
 20
12.008237828412373
 10
2077.673648010544
 20
12.006995962342305
 10
2131.3442808433665
 20
12.005584850864144
 10
2185.093437448319
 20
12.003529166290038
 10
2239.061487824735
 20
12.000182955810734
 10
2304.79423619677
 20
11.999959137956182
 10
2304.79327329691
 20
-3.695982340297499
 10
2304.7928951810554
 20
-7.356144802913198
 10
2304.7924924357235
 20
-10.942888781867294
 10
2304.793372695525
 20
-14.423985282604667
 10
2304.7957574624515
 20
-23.024331434945903
 10
2246.308590079872
 20
-77.0122719852901
 10
2190.5820389337596
 20
-110.71260011455747
 10
2135.4539594291223
 20
-134.289932374024
 10
2080.8214290476594
 20
-150.85401463731256
 10
2026.6010627658243
 20
-163.93871464489683
 10
1972.5158130518066
 20
-174.80001127847387
 10
1918.4837144530704
 20
-183.7421122228736
 10
1864.5174329062954
 20
-191.04689141570307
 10
1810.6378906095888
 20
-197.08149335361685
 10
1756.8227644571887
 20
-202.30233177384915
 10
1703.0375663841114
 20
-206.86073424859563
 10
1649.2807145197519
 20
-210.88699442087292
 10
1595.552289135599
 20
-214.5110348172629
 10
1541.8402375829228
 20
-217.86234731428254
 10
1488.1290915228278
 20
-220.9617813457894
 10
1434.4205608603384
 20
-223.79801504234797
 10
1380.7198116415525
 20
-226.40591188945342
 10
1327.0268573993471
 20
-228.82061145041834
 10
1273.3553822905862
 20
-231.0766589831096
 10
1219.714687525293
 20
-233.28268623570227
 10
1166.071223436518
 20
-235.70463991794117
 10
1112.3435800828634
 20
-238.0079461738951
 10
1058.5228509554422
 20
-239.77477203377052
 10
1004.6734476666179
 20
-240.58375946724587
 10
950.9308073693024
 20
-240.5957603087696
 10
894.9410469464965
 20
-240.59499795772564
 10
764.5856222322003
 20
-187.91356464040916
 10
733.563159871695
 20
-195.79463390490972
 10
698.6618792108852
 20
-204.2868860820013
 10
663.7370544950127
 20
-212.34040823619634
 10
628.9428936117367
 20
-219.85088048991256
 10
594.3280935700315
 20
-227.69731912081124
 10
559.5524137142664
 20
-236.18950685844666
 10
524.3766522685557
 20
-244.141618685626
 10
488.7775551972764
 20
-250.27394320253728
 10
452.77775066491716
 20
-253.25391347176753
 10
416.6895845438935
 20
-252.00980297655772
 10
380.86971528717964
 20
-247.088055914747
 10
345.38735177667576
 20
-239.50821420037806
 10
310.19576541539624
 20
-230.24511254100415
 10
274.5901285061558
 20
-219.9079544086705
 10
238.495428860933
 20
-204.57502340562658
 10
202.74843399681282
 20
-184.03540386126775
 10
167.50241050662748
 20
-160.53849341449103
 10
132.5584358076719
 20
-136.0399871333418
 10
97.48368883058058
 20
-111.40071123126403
 10
62.05630982976766
 20
-84.30016684606967
 10
27.61688283333519
 20
-55.55722168413756
 10
-11.998997495048952
 20
-29.579537586690968
 10
-11.999214039516788
 20
-18.75181153732519
 10
-11.999367508817107
 20
-14.224376453855642
 10
-11.999541586923781
 20
-9.559889189083153
 10
-11.99973146449612
 20
-4.803414832497958
 10
-12.000670879260046
 20
11.999144289595579
  0
LWPOLYLINE
  5
36
330
17
100
AcDbEntity
  8
SEW
100
AcDbPolyline
 90
108
 70
1
 10
0.0
 20
0.0
 10
34.772727202576476
 20
0.002479565153492447
 10
69.5454544801068
 20
0.004504154976243791
 10
104.57532933970373
 20
0.00642512454575079
 10
139.4402776690834
 20
0.00846286982533404
 10
174.26799768476104
 20
0.010534759493735732
 10
209.0639111130423
 20
0.012596785695302638
 10
243.83988416028492
 20
0.014610407909519854
 10
278.61261157164637
 20
0.016548093512885352
 10
313.3853389780175
 20
0.018413323394877945
 10
348.15806638400124
 20
0.020233140335766685
 10
382.9307937873585
 20
0.022035168277245512
 10
417.7035211900348
 20
0.023838935289401005
 10
452.47624859647334
 20
0.02565799243405317
 10
487.24897601266326
 20
0.027499120836759417
 10
522.0217034464621
 20
0.029357551293965008
 10
556.7944309071005
 20
0.031222022058722647
 10
591.5671584047797
 20
0.03308696810704647
 10
626.339885952327
 20
0.03495676194036796
 10
661.1126135665984
 20
0.03684414165780515
 10
695.8853412698342
 20
0.038756230859649465
 10
730.6580690913089
 20
0.040657763693269185
 10
765.4307970744403
 20
0.04233663184862637
 10
897.2791980741457
 20
0.03337472137486236
 10
950.933045034177
 20
0.03225241002067688
 10
1004.5868917524881
 20
0.03094402021523903
 10
1058.2407382871602
 20
0.029644728895823168
 10
1111.894584706908
 20
0.028383679450246852
 10
1165.548431061078
 20
0.027153817799415635
 10
1219.2022773774684
 20
0.025941510703895426
 10
1272.856123671931
 20
0.024735940552951013
 10
1326.5099699529699
 20
0.023535581983627984
 10
1380.1638162248514
 20
0.022341387184916635
 10
1433.8176624903151
 20
0.021149886983279978
 10
1487.4715087495
 20
0.01995762029840018
 10
1541.1253550014824
 20
0.01876638175322382
 10
1594.77920124578
 20
0.01758051819626793
 10
1648.4330474834055
 20
0.016402572434421427
 10
1702.08689371663
 20
0.01523292572990918
 10
1755.7407399486794
 20
0.014070956536837067
 10
1809.394586181987
 20
0.01291789113810033
 10
1863.0484332643878
 20
0.011774371009340676
 10
1916.702551396175
 20
0.010621628625114735
 10
1970.3576983822272
 20
0.009444411065398289
 10
2024.0144855466656
 20
0.008237831446362061
 10
2077.673370285974
 20
0.006995965556096056
 10
2131.343965338638
 20
0.005584855011778983
 10
2185.0929784973937
 20
0.0035291750665352854
 10
2239.06109537326
 20
0.00018295707745537138
 10
2292.7935000119787
 20
1.4039312908429874e-13
 10
2292.7932733194907
 20
-3.6952461755815955
 10
2292.7928952450916
 20
-7.354905099197644
 10
2292.7924922653597
 20
-10.943732268940758
 10
2292.7933731162284
 20
-14.427166219668235
 10
2292.7943005095412
 20
-17.771687405089505
 10
2239.0607175614673
 20
-67.3717212515167
 10
2185.0910279850705
 20
-100.00959692034256
 10
2131.3413233281203
 20
-122.99742194404031
 10
2077.6703881682065
 20
-139.26995735342135
 10
2024.011232804594
 20
-152.21922344549574
 10
1970.3542068909874
 20
-162.99452499267838
 10
1916.698865726022
 20
-171.87427405566498
 10
1863.0445935102264
 20
-179.136820224399
 10
1809.3906214981585
 20
-185.1461579002424
 10
1755.736662948344
 20
-190.35136075345412
 10
1702.082717542622
 20
-194.89863930368003
 10
1648.4287833072772
 20
-198.9171911906624
 10
1594.7748574999312
 20
-202.5362065100297
 10
1541.1209373523584
 20
-205.8838919531804
 10
1487.4670225789955
 20
-208.98002341881823
 10
1433.8131136571214
 20
-211.81337265699773
 10
1380.1592099979612
 20
-214.4189945193213
 10
1326.5053106953385
 20
-216.83193768697922
 10
1272.8514146827872
 20
-219.0872462931448
 10
1219.1975195270486
 20
-221.29381148470478
 10
1165.5436196788537
 20
-223.71623633200326
 10
1111.8897226328954
 20
-226.0163810807466
 10
1058.235837695974
 20
-227.77772978274763
 10
1004.5819741420459
 20
-228.58377959428822
 10
950.9281277448199
 20
-228.5957606079524
 10
897.2742815480742
 20
-228.59502973973923
 10
765.439093307827
 20
-175.31556942286636
 10
730.6672059917873
 20
-184.14915746015888
 10
695.8950403887266
 20
-192.60999309294309
 10
661.1227612885064
 20
-200.6283388502578
 10
626.3504339683881
 20
-208.13409823359197
 10
591.5781140766518
 20
-216.01624326276325
 10
556.8058210143818
 20
-224.50760394866865
 10
522.0335006983887
 20
-232.36851067189738
 10
487.26108762197714
 20
-238.35843004523673
 10
452.4885119693411
 20
-241.23681349691
 10
417.71572058811876
 20
-240.03804948767657
 10
382.9427429700493
 20
-235.26014817275023
 10
348.16963073361035
 20
-227.8318186988648
 10
313.39643185452655
 20
-218.6788446632019
 10
278.6231864410274
 20
-208.58334946029206
 10
243.84971652734376
 20
-193.81167328169548
 10
209.07277256867488
 20
-173.82942860513648
 10
174.27583303403372
 20
-150.63190187435384
 10
139.44710126463485
 20
-126.21419005513765
 10
104.58102077933087
 20
-101.72149158700866
 10
69.54968819978438
 20
-74.9239070571816
 10
34.775237960384814
 20
-45.90135344817591
 10
0.0008728914265762826
 20
-23.098440501080862
 10
0.0007859564156845593
 20
-18.751488157121564
 10
0.0006324835925607005
 20
-14.223949148842532
 10
0.0004584041373957231
 20
-9.559425750772409
 10
0.0002685221126115153
 20
-4.802839859450134
  0
LINE
  5
37
330
17
100
AcDbEntity
  8
GRAIN
100
AcDbLine
 10
1097.9696471462605
 20
-112.35945676552448
 30
0.0
 11
1177.9696471462605
 21
-112.35945676552448
 31
0.0
  0
LINE
  5
38
330
17
100
AcDbEntity
  8
GRAIN
100
AcDbLine
 10
1177.9696471462605
 20
-112.35945676552448
 30
0.0
 11
1172.9696471462605
 21
-109.35945676552448
 31
0.0
  0
TEXT
  5
39
330
17
100
AcDbEntity
  8
LABEL
100
AcDbText
 10
1137.9696471462605
 20
-112.35945676552448
 30
0.0
 40
6.0
  1
O08_SMOOTH_LOWER_I4
100
AcDbText
  0
CIRCLE
  5
3A
330
17
100
AcDbEntity
  8
NOTCH
100
AcDbCircle
 10
2292.793386665735
 20
-1.8476230877907276
 30
0.0
 40
1.0
  0
TEXT
  5
3B
330
17
100
AcDbEntity
  8
LABEL
100
AcDbText
 10
2294.793386665735
 20
0.1523769122092724
 30
0.0
 40
3.0
  1
J1054
100
AcDbText
  0
CIRCLE
  5
3C
330
17
100
AcDbEntity
  8
NOTCH
100
AcDbCircle
 10
977.7599683933325
 20
0.031598215117957955
 30
0.0
 40
1.0
  0
TEXT
  5
3D
330
17
100
AcDbEntity
  8
LABEL
100
AcDbText
 10
979.7599683933325
 20
2.031598215117958
 30
0.0
 40
3.0
  1
J1106
100
AcDbText
  0
CIRCLE
  5
3E
330
17
100
AcDbEntity
  8
NOTCH
100
AcDbCircle
 10
1085.0676614970341
 20
0.02901420417303501
 30
0.0
 40
1.0
  0
TEXT
  5
3F
330
17
100
AcDbEntity
  8
LABEL
100
AcDbText
 10
1087.0676614970341
 20
2.029014204173035
 30
0.0
 40
3.0
  1
J1106
100
AcDbText
  0
CIRCLE
  5
40
330
17
100
AcDbEntity
  8
NOTCH
100
AcDbCircle
 10
1192.375354219273
 20
0.02654766425165553
 30
0.0
 40
1.0
  0
TEXT
  5
41
330
17
100
AcDbEntity
  8
LABEL
100
AcDbText
 10
1194.375354219273
 20
2.0265476642516553
 30
0.0
 40
3.0
  1
J1106
100
AcDbText
  0
CIRCLE
  5
42
330
17
100
AcDbEntity
  8
NOTCH
100
AcDbCircle
 10
1246.0292005246997
 20
0.02533872562842322
 30
0.0
 40
1.0
  0
TEXT
  5
43
330
17
100
AcDbEntity
  8
LABEL
100
AcDbText
 10
1248.0292005246997
 20
2.025338725628423
 30
0.0
 40
3.0
  1
J1106
100
AcDbText
  0
CIRCLE
  5
44
330
17
100
AcDbEntity
  8
NOTCH
100
AcDbCircle
 10
1353.3368930889105
 20
0.02293848458427231
 30
0.0
 40
1.0
  0
TEXT
  5
45
330
17
100
AcDbEntity
  8
LABEL
100
AcDbText
 10
1355.3368930889105
 20
2.022938484584272
 30
0.0
 40
3.0
  1
J1106
100
AcDbText
  0
CIRCLE
  5
46
330
17
100
AcDbEntity
  8
NOTCH
100
AcDbCircle
 10
1460.6445856199075
 20
0.020553753640840076
 30
0.0
 40
1.0
  0
TEXT
  5
47
330
17
100
AcDbEntity
  8
LABEL
100
AcDbText
 10
1462.6445856199075
 20
2.02055375364084
 30
0.0
 40
3.0
  1
J1106
100
AcDbText
  0
CIRCLE
  5
48
330
17
100
AcDbEntity
  8
NOTCH
100
AcDbCircle
 10
122.00780350439356
 20
0.007443997185542416
 30
0.0
 40
1.0
  0
TEXT
  5
49
330
17
100
AcDbEntity
  8
LABEL
100
AcDbText
 10
124.00780350439356
 20
2.0074439971855425
 30
0.0
 40
3.0
  1
J1106
100
AcDbText
  0
CIRCLE
  5
4A
330
17
100
AcDbEntity
  8
NOTCH
100
AcDbCircle
 10
1621.6061243645927
 20
0.016991545315344678
 30
0.0
 40
1.0
  0
TEXT
  5
4B
330
17
100
AcDbEntity
  8
LABEL
100
AcDbText
 10
1623.6061243645927
 20
2.016991545315345
 30
0.0
 40
3.0
  1
J1106
100
AcDbText
  0
CIRCLE
  5
4C
330
17
100
AcDbEntity
  8
NOTCH
100
AcDbCircle
 10
1728.9138168326547
 20
0.014651941133373123
 30
0.0
 40
1.0
  0
TEXT
  5
4D
330
17
100
AcDbEntity
  8
LABEL
100
AcDbText
 10
1730.9138168326547
 20
2.014651941133373
 30
0.0
 40
3.0
  1
J1106
100
AcDbText
  0
CIRCLE
  5
4E
330
17
100
AcDbEntity
  8
NOTCH
100
AcDbCircle
 10
1836.2215097231874
 20
0.012346131073720503
 30
0.0
 40
1.0
  0
TEXT
  5
4F
330
17
100
AcDbEntity
  8
LABEL
100
AcDbText
 10
1838.2215097231874
 20
2.0123461310737203
 30
0.0
 40
3.0
  1
J1106
100
AcDbText
  0
CIRCLE
  5
50
330
17
100
AcDbEntity
  8
NOTCH
100
AcDbCircle
 10
156.85413767692222
 20
0.009498814659534886
 30
0.0
 40
1.0
  0
TEXT
  5
51
330
17
100
AcDbEntity
  8
LABEL
100
AcDbText
 10
158.85413767692222
 20
2.0094988146595347
 30
0.0
 40
3.0
  1
J1106
100
AcDbText
  0
CIRCLE
  5
52
330
17
100
AcDbEntity
  8
NOTCH
100
AcDbCircle
 10
1997.1860919644464
 20
0.008841121255880175
 30
0.0
 40
1.0
  0
TEXT
  5
53
330
17
100
AcDbEntity
  8
LABEL
100
AcDbText
 10
1999.1860919644464
 20
2.0088411212558803
 30
0.0
 40
3.0
  1
J1106
100
AcDbText
  0
CIRCLE
  5
54
330
17
100
AcDbEntity
  8
NOTCH
100
AcDbCircle
 10
2104.508667812306
 20
0.006290410283937519
 30
0.0
 40
1.0
  0
TEXT
  5
55
330
17
100
AcDbEntity
  8
LABEL
100
AcDbText
 10
2106.508667812306
 20
2.0062904102839374
 30
0.0
 40
3.0
  1
J1106
100
AcDbText
  0
CIRCLE
  5
56
330
17
100
AcDbEntity
  8
NOTCH
100
AcDbCircle
 10
2212.0770369353268
 20
0.0018560660719953283
 30
0.0
 40
1.0
  0
TEXT
  5
57
330
17
100
AcDbEntity
  8
LABEL
100
AcDbText
 10
2214.0770369353268
 20
2.0018560660719955
 30
0.0
 40
3.0
  1
J1106
100
AcDbText
  0
CIRCLE
  5
58
330
17
100
AcDbEntity
  8
NOTCH
100
AcDbCircle
 10
2265.9272976926195
 20
9.147853879788225e-05
 30
0.0
 40
1.0
  0
TEXT
  5
59
330
17
100
AcDbEntity
  8
LABEL
100
AcDbText
 10
2267.9272976926195
 20
2.0000914785387978
 30
0.0
 40
3.0
  1
J1106
100
AcDbText
  0
CIRCLE
  5
5A
330
17
100
AcDbEntity
  8
NOTCH
100
AcDbCircle
 10
261.22624786596566
 20
0.015579250711202603
 30
0.0
 40
1.0
  0
TEXT
  5
5B
330
17
100
AcDbEntity
  8
LABEL
100
AcDbText
 10
263.22624786596566
 20
2.0155792507112027
 30
0.0
 40
3.0
  1
J1106
100
AcDbText
  0
CIRCLE
  5
5C
330
17
100
AcDbEntity
  8
NOTCH
100
AcDbCircle
 10
365.5444300856799
 20
0.0211341543065061
 30
0.0
 40
1.0
  0
TEXT
  5
5D
330
17
100
AcDbEntity
  8
LABEL
100
AcDbText
 10
367.5444300856799
 20
2.0211341543065062
 30
0.0
 40
3.0
  1
J1106
100
AcDbText
  0
CIRCLE
  5
5E
330
17
100
AcDbEntity
  8
NOTCH
100
AcDbCircle
 10
469.8626123045683
 20
0.026578556635406293
 30
0.0
 40
1.0
  0
TEXT
  5
5F
330
17
100
AcDbEntity
  8
LABEL
100
AcDbText
 10
471.8626123045683
 20
2.0265785566354064
 30
0.0
 40
3.0
  1
J1106
100
AcDbText
  0
CIRCLE
  5
60
330
17
100
AcDbEntity
  8
NOTCH
100
AcDbCircle
 10
539.4080671767813
 20
0.030289786676343827
 30
0.0
 40
1.0
  0
TEXT
  5
61
330
17
100
AcDbEntity
  8
LABEL
100
AcDbText
 10
541.4080671767813
 20
2.030289786676344
 30
0.0
 40
3.0
  1
J1106
100
AcDbText
  0
CIRCLE
  5
62
330
17
100
AcDbEntity
  8
NOTCH
100
AcDbCircle
 10
643.7262497594627
 20
0.035900451799086554
 30
0.0
 40
1.0
  0
TEXT
  5
63
330
17
100
AcDbEntity
  8
LABEL
100
AcDbText
 10
645.7262497594627
 20
2.0359004517990864
 30
0.0
 40
3.0
  1
J1106
100
AcDbText
  0
CIRCLE
  5
64
330
17
100
AcDbEntity
  8
NOTCH
100
AcDbCircle
 10
748.0444330828745
 20
0.04149719777094778
 30
0.0
 40
1.0
  0
TEXT
  5
65
330
17
100
AcDbEntity
  8
LABEL
100
AcDbText
 10
750.0444330828745
 20
2.0414971977709477
 30
0.0
 40
3.0
  1
J1106
100
AcDbText
  0
CIRCLE
  5
66
330
17
100
AcDbEntity
  8
NOTCH
100
AcDbCircle
 10
52.15909084134164
 20
0.003491860064868119
 30
0.0
 40
1.0
  0
TEXT
  5
67
330
17
100
AcDbEntity
  8
LABEL
100
AcDbText
 10
54.15909084134164
 20
2.003491860064868
 30
0.0
 40
3.0
  1
J1106
100
AcDbText
  0
CIRCLE
  5
68
330
17
100
AcDbEntity
  8
NOTCH
100
AcDbCircle
 10
977.7550509434329
 20
-228.5897701011203
 30
0.0
 40
1.0
  0
TEXT
  5
69
330
17
100
AcDbEntity
  8
LABEL
100
AcDbText
 10
979.7550509434329
 20
-226.5897701011203
 30
0.0
 40
3.0
  1
J1108
100
AcDbText
  0
CIRCLE
  5
6A
330
17
100
AcDbEntity
  8
NOTCH
100
AcDbCircle
 10
1085.0627801644346
 20
-226.8970554317471
 30
0.0
 40
1.0
  0
TEXT
  5
6B
330
17
100
AcDbEntity
  8
LABEL
100
AcDbText
 10
1087.0627801644346
 20
-224.8970554317471
 30
0.0
 40
3.0
  1
J1108
100
AcDbText
  0
CIRCLE
  5
6C
330
17
100
AcDbEntity
  8
NOTCH
100
AcDbCircle
 10
1192.370569602951
 20
-222.50502390835402
 30
0.0
 40
1.0
  0
TEXT
  5
6D
330
17
100
AcDbEntity
  8
LABEL
100
AcDbText
 10
1194.370569602951
 20
-220.50502390835402
 30
0.0
 40
3.0
  1
J1108
100
AcDbText
  0
CIRCLE
  5
6E
330
17
100
AcDbEntity
  8
NOTCH
100
AcDbCircle
 10
1246.024467104918
 20
-220.1905288889248
 30
0.0
 40
1.0
  0
TEXT
  5
6F
330
17
100
AcDbEntity
  8
LABEL
100
AcDbText
 10
1248.024467104918
 20
-218.1905288889248
 30
0.0
 40
3.0
  1
J1108
100
AcDbText
  0
CIRCLE
  5
70
330
17
100
AcDbEntity
  8
NOTCH
100
AcDbCircle
 10
1353.33226034665
 20
-215.62546610315025
 30
0.0
 40
1.0
  0
TEXT
  5
71
330
17
100
AcDbEntity
  8
LABEL
100
AcDbText
 10
1355.33226034665
 20
-213.62546610315025
 30
0.0
 40
3.0
  1
J1108
100
AcDbText
  0
CIRCLE
  5
72
330
17
100
AcDbEntity
  8
NOTCH
100
AcDbCircle
 10
1460.6400681180585
 20
-210.39669803790798
 30
0.0
 40
1.0
  0
TEXT
  5
73
330
17
100
AcDbEntity
  8
LABEL
100
AcDbText
 10
1462.6400681180585
 20
-208.39669803790798
 30
0.0
 40
3.0
  1
J1108
100
AcDbText
  0
CIRCLE
  5
74
330
17
100
AcDbEntity
  8
NOTCH
100
AcDbCircle
 10
122.01406102198285
 20
-113.96784082107315
 30
0.0
 40
1.0
  0
TEXT
  5
75
330
17
100
AcDbEntity
  8
LABEL
100
AcDbText
 10
124.01406102198285
 20
-111.96784082107315
 30
0.0
 40
3.0
  1
J1108
100
AcDbText
  0
CIRCLE
  5
76
330
17
100
AcDbEntity
  8
NOTCH
100
AcDbCircle
 10
1621.601820403604
 20
-200.72669885034605
 30
0.0
 40
1.0
  0
TEXT
  5
77
330
17
100
AcDbEntity
  8
LABEL
100
AcDbText
 10
1623.601820403604
 20
-198.72669885034605
 30
0.0
 40
3.0
  1
J1108
100
AcDbText
  0
CIRCLE
  5
78
330
17
100
AcDbEntity
  8
NOTCH
100
AcDbCircle
 10
1728.909690245483
 20
-192.62500002856706
 30
0.0
 40
1.0
  0
TEXT
  5
79
330
17
100
AcDbEntity
  8
LABEL
100
AcDbText
 10
1730.909690245483
 20
-190.62500002856706
 30
0.0
 40
3.0
  1
J1108
100
AcDbText
  0
CIRCLE
  5
7A
330
17
100
AcDbEntity
  8
NOTCH
100
AcDbCircle
 10
1836.2176075041925
 20
-182.14148906232072
 30
0.0
 40
1.0
  0
TEXT
  5
7B
330
17
100
AcDbEntity
  8
LABEL
100
AcDbText
 10
1838.2176075041925
 20
-180.14148906232072
 30
0.0
 40
3.0
  1
J1108
100
AcDbText
  0
CIRCLE
  5
7C
330
17
100
AcDbEntity
  8
NOTCH
100
AcDbCircle
 10
156.8614671493343
 20
-138.42304596474574
 30
0.0
 40
1.0
  0
TEXT
  5
7D
330
17
100
AcDbEntity
  8
LABEL
100
AcDbText
 10
158.8614671493343
 20
-136.42304596474574
 30
0.0
 40
3.0
  1
J1108
100
AcDbText
  0
CIRCLE
  5
7E
330
17
100
AcDbEntity
  8
NOTCH
100
AcDbCircle
 10
1997.1827198477908
 20
-157.60687421908705
 30
0.0
 40
1.0
  0
TEXT
  5
7F
330
17
100
AcDbEntity
  8
LABEL
100
AcDbText
 10
1999.1827198477908
 20
-155.60687421908705
 30
0.0
 40
3.0
  1
J1108
100
AcDbText
  0
CIRCLE
  5
80
330
17
100
AcDbEntity
  8
NOTCH
100
AcDbCircle
 10
2104.5058557481634
 20
-131.13368964873084
 30
0.0
 40
1.0
  0
TEXT
  5
81
330
17
100
AcDbEntity
  8
LABEL
100
AcDbText
 10
2106.5058557481634
 20
-129.13368964873084
 30
0.0
 40
3.0
  1
J1108
100
AcDbText
  0
CIRCLE
  5
82
330
17
100
AcDbEntity
  8
NOTCH
100
AcDbCircle
 10
2212.075872773269
 20
-83.69065908592964
 30
0.0
 40
1.0
  0
TEXT
  5
83
330
17
100
AcDbEntity
  8
LABEL
100
AcDbText
 10
2214.075872773269
 20
-81.69065908592964
 30
0.0
 40
3.0
  1
J1108
100
AcDbText
  0
CIRCLE
  5
84
330
17
100
AcDbEntity
  8
NOTCH
100
AcDbCircle
 10
2265.927509035504
 20
-42.571704328303106
 30
0.0
 40
1.0
  0
TEXT
  5
85
330
17
100
AcDbEntity
  8
LABEL
100
AcDbText
 10
2267.927509035504
 20
-40.571704328303106
 30
0.0
 40
3.0
  1
J1108
100
AcDbText
  0
CIRCLE
  5
86
330
17
100
AcDbEntity
  8
NOTCH
100
AcDbCircle
 10
261.2364514841856
 20
-201.19751137099377
 30
0.0
 40
1.0
  0
TEXT
  5
87
330
17
100
AcDbEntity
  8
LABEL
100
AcDbText
 10
263.2364514841856
 20
-199.19751137099377
 30
0.0
 40
3.0
  1
J1108
100
AcDbText
  0
CIRCLE
  5
88
330
17
100
AcDbEntity
  8
NOTCH
100
AcDbCircle
 10
365.5561868518298
 20
-231.5459834358075
 30
0.0
 40
1.0
  0
TEXT
  5
89
330
17
100
AcDbEntity
  8
LABEL
100
AcDbText
 10
367.5561868518298
 20
-229.5459834358075
 30
0.0
 40
3.0
  1
J1108
100
AcDbText
  0
CIRCLE
  5
8A
330
17
100
AcDbEntity
  8
NOTCH
100
AcDbCircle
 10
469.8747997956591
 20
-239.79762177107335
 30
0.0
 40
1.0
  0
TEXT
  5
8B
330
17
100
AcDbEntity
  8
LABEL
100
AcDbText
 10
471.8747997956591
 20
-237.79762177107335
 30
0.0
 40
3.0
  1
J1108
100
AcDbText
  0
CIRCLE
  5
8C
330
17
100
AcDbEntity
  8
NOTCH
100
AcDbCircle
 10
539.4196608563852
 20
-228.438057310283
 30
0.0
 40
1.0
  0
TEXT
  5
8D
330
17
100
AcDbEntity
  8
LABEL
100
AcDbText
 10
541.4196608563852
 20
-226.438057310283
 30
0.0
 40
3.0
  1
J1108
100
AcDbText
  0
CIRCLE
  5
8E
330
17
100
AcDbEntity
  8
NOTCH
100
AcDbCircle
 10
643.7365976284473
 20
-204.38121854192488
 30
0.0
 40
1.0
  0
TEXT
  5
8F
330
17
100
AcDbEntity
  8
LABEL
100
AcDbText
 10
645.7365976284473
 20
-202.38121854192488
 30
0.0
 40
3.0
  1
J1108
100
AcDbText
  0
CIRCLE
  5
90
330
17
100
AcDbEntity
  8
NOTCH
100
AcDbCircle
 10
748.0531496498072
 20
-179.73236344151263
 30
0.0
 40
1.0
  0
TEXT
  5
91
330
17
100
AcDbEntity
  8
LABEL
100
AcDbText
 10
750.0531496498072
 20
-177.73236344151263
 30
0.0
 40
3.0
  1
J1108
100
AcDbText
  0
CIRCLE
  5
92
330
17
100
AcDbEntity
  8
NOTCH
100
AcDbCircle
 10
52.1624630800846
 20
-60.41263025267875
 30
0.0
 40
1.0
  0
TEXT
  5
93
330
17
100
AcDbEntity
  8
LABEL
100
AcDbText
 10
54.1624630800846
 20
-58.41263025267875
 30
0.0
 40
3.0
  1
J1108
100
AcDbText
  0
CIRCLE
  5
94
330
17
100
AcDbEntity
  8
NOTCH
100
AcDbCircle
 10
0.00013426105630575766
 20
-2.401419929725067
 30
0.0
 40
1.0
  0
TEXT
  5
95
330
17
100
AcDbEntity
  8
LABEL
100
AcDbText
 10
2.0001342610563055
 20
-0.4014199297250669
 30
0.0
 40
3.0
  1
J1109
100
AcDbText
  0
ENDSEC
  0
SECTION
  2
OBJECTS
  0
DICTIONARY
  5
A
330
0
100
AcDbDictionary
281
1
  3
ACAD_COLOR
350
B
  3
ACAD_GROUP
350
C
  3
ACAD_LAYOUT
350
D
  3
ACAD_MATERIAL
350
E
  3
ACAD_MLEADERSTYLE
350
F
  3
ACAD_MLINESTYLE
350
10
  3
ACAD_PLOTSETTINGS
350
11
  3
ACAD_PLOTSTYLENAME
350
12
  3
ACAD_SCALELIST
350
14
  3
ACAD_TABLESTYLE
350
15
  3
ACAD_VISUALSTYLE
350
16
  3
EZDXF_META
350
2D
  0
DICTIONARY
  5
B
330
A
100
AcDbDictionary
281
1
  0
DICTIONARY
  5
C
330
A
100
AcDbDictionary
281
1
  0
DICTIONARY
  5
D
330
A
100
AcDbDictionary
281
1
  3
Model
350
1A
  3
Layout1
350
1E
  0
DICTIONARY
  5
E
330
A
100
AcDbDictionary
281
1
  3
ByBlock
350
1F
  3
ByLayer
350
20
  3
Global
350
21
  0
DICTIONARY
  5
F
330
A
100
AcDbDictionary
281
1
  3
Standard
350
2C
  0
DICTIONARY
  5
10
330
A
100
AcDbDictionary
281
1
  3
Standard
350
22
  0
DICTIONARY
  5
11
330
A
100
AcDbDictionary
281
1
  0
ACDBDICTIONARYWDFLT
  5
12
330
A
100
AcDbDictionary
281
1
  3
Normal
350
13
100
AcDbDictionaryWithDefault
340
13
  0
ACDBPLACEHOLDER
  5
13
330
12
  0
DICTIONARY
  5
14
330
A
100
AcDbDictionary
281
1
  0
DICTIONARY
  5
15
330
A
100
AcDbDictionary
281
1
  0
DICTIONARY
  5
16
330
A
100
AcDbDictionary
281
1
  0
LAYOUT
  5
1A
330
D
100
AcDbPlotSettings
  1

  4
A3
  6

 40
7.5
 41
20.0
 42
7.5
 43
20.0
 44
420.0
 45
297.0
 46
0.0
 47
0.0
 48
0.0
 49
0.0
140
0.0
141
0.0
142
1.0
143
1.0
 70
1024
 72
1
 73
0
 74
5
  7

 75
16
 76
0
 77
2
 78
300
147
1.0
148
0.0
149
0.0
100
AcDbLayout
  1
Model
 70
1
 71
0
 10
0.0
 20
0.0
 11
420.0
 21
297.0
 12
0.0
 22
0.0
 32
0.0
 14
1e+20
 24
1e+20
 34
1e+20
 15
-1e+20
 25
-1e+20
 35
-1e+20
146
0.0
 13
0.0
 23
0.0
 33
0.0
 16
1.0
 26
0.0
 36
0.0
 17
0.0
 27
1.0
 37
0.0
 76
1
330
17
  0
LAYOUT
  5
1E
330
D
100
AcDbPlotSettings
  1

  4
A3
  6

 40
7.5
 41
20.0
 42
7.5
 43
20.0
 44
420.0
 45
297.0
 46
0.0
 47
0.0
 48
0.0
 49
0.0
140
0.0
141
0.0
142
1.0
143
1.0
 70
0
 72
1
 73
0
 74
5
  7

 75
16
 76
0
 77
2
 78
300
147
1.0
148
0.0
149
0.0
100
AcDbLayout
  1
Layout1
 70
1
 71
1
 10
0.0
 20
0.0
 11
420.0
 21
297.0
 12
0.0
 22
0.0
 32
0.0
 14
1e+20
 24
1e+20
 34
1e+20
 15
-1e+20
 25
-1e+20
 35
-1e+20
146
0.0
 13
0.0
 23
0.0
 33
0.0
 16
1.0
 26
0.0
 36
0.0
 17
0.0
 27
1.0
 37
0.0
 76
1
330
1B
  0
MATERIAL
  5
1F
102
{ACAD_REACTORS
330
E
102
}
330
E
100
AcDbMaterial
  1
ByBlock
  2

 70
0
 40
1.0
 71
1
 41
1.0
 91
-1023410177
 42
1.0
 72
1
  3

 73
1
 74
1
 75
1
 44
0.5
 73
0
 45
1.0
 46
1.0
 77
1
  4

 78
1
 79
1
170
1
 48
1.0
171
1
  6

172
1
173
1
174
1
140
1.0
141
1.0
175
1
  7

176
1
177
1
178
1
143
1.0
179
1
  8

270
1
271
1
272
1
145
1.0
146
1.0
273
1
  9

274
1
275
1
276
1
 42
1.0
 72
1
  3

 73
1
 74
1
 75
1
 94
63
  0
MATERIAL
  5
20
102
{ACAD_REACTORS
330
E
102
}
330
E
100
AcDbMaterial
  1
ByLayer
  2

 70
0
 40
1.0
 71
1
 41
1.0
 91
-1023410177
 42
1.0
 72
1
  3

 73
1
 74
1
 75
1
 44
0.5
 73
0
 45
1.0
 46
1.0
 77
1
  4

 78
1
 79
1
170
1
 48
1.0
171
1
  6

172
1
173
1
174
1
140
1.0
141
1.0
175
1
  7

176
1
177
1
178
1
143
1.0
179
1
  8

270
1
271
1
272
1
145
1.0
146
1.0
273
1
  9

274
1
275
1
276
1
 42
1.0
 72
1
  3

 73
1
 74
1
 75
1
 94
63
  0
MATERIAL
  5
21
102
{ACAD_REACTORS
330
E
102
}
330
E
100
AcDbMaterial
  1
Global
  2

 70
0
 40
1.0
 71
1
 41
1.0
 91
-1023410177
 42
1.0
 72
1
  3

 73
1
 74
1
 75
1
 44
0.5
 73
0
 45
1.0
 46
1.0
 77
1
  4

 78
1
 79
1
170
1
 48
1.0
171
1
  6

172
1
173
1
174
1
140
1.0
141
1.0
175
1
  7

176
1
177
1
178
1
143
1.0
179
1
  8

270
1
271
1
272
1
145
1.0
146
1.0
273
1
  9

274
1
275
1
276
1
 42
1.0
 72
1
  3

 73
1
 74
1
 75
1
 94
63
  0
MLINESTYLE
  5
22
102
{ACAD_REACTORS
330
10
102
}
330
10
100
AcDbMlineStyle
  2
Standard
 70
0
  3

 62
256
 51
90.0
 52
90.0
 71
2
 49
0.5
 62
256
  6
BYLAYER
 49
-0.5
 62
256
  6
BYLAYER
  0
MLEADERSTYLE
  5
2C
102
{ACAD_REACTORS
330
F
102
}
330
F
100
AcDbMLeaderStyle
179
2
170
2
171
1
172
0
 90
2
 40
0.0
 41
0.0
173
1
 91
-1056964608
 92
-2
290
1
 42
2.0
291
1
 43
8.0
  3
Standard
 44
4.0
300

342
29
174
1
175
1
176
0
178
1
 93
-1056964608
 45
4.0
292
0
297
0
 46
4.0
 94
-1056964608
 47
1.0
 49
1.0
140
1.0
294
1
141
0.0
177
0
142
1.0
295
0
296
0
143
3.75
271
0
272
9
273
9
  0
DICTIONARY
  5
2D
330
A
100
AcDbDictionary
280
1
281
1
  3
CREATED_BY_EZDXF
350
2E
  3
WRITTEN_BY_EZDXF
350
98
  0
DICTIONARYVAR
  5
2E
330
2D
100
DictionaryVariables
280
0
  1
1.4.4 @ 2026-10-04T18:28:59.737364+00:00
  0
DICTIONARYVAR
  5
98
330
2D
100
DictionaryVariables
280
0
  1
1.4.4 @ 2026-10-04T18:28:59.740860+00:00
  0
ENDSEC
  0
EOF
