  0
SECTION
  2
HEADER
  9
$ACADVER
  1
AC1024
  9
$ACADMAINTVER
 70
6
  9
$DWGCODEPAGE
  3
ANSI_1252
  9
$LASTSAVEDBY
  1
ezdxf
  9
$INSBASE
 10
0.0
 20
0.0
 30
0.0
  9
$EXTMIN
 10
1e+20
 20
1e+20
 30
1e+20
  9
$EXTMAX
 10
-1e+20
 20
-1e+20
 30
-1e+20
  9
$LIMMIN
 10
0.0
 20
0.0
  9
$LIMMAX
 10
420.0
 20
297.0
  9
$ORTHOMODE
 70
0
  9
$REGENMODE
 70
1
  9
$FILLMODE
 70
1
  9
$QTEXTMODE
 70
0
  9
$MIRRTEXT
 70
1
  9
$LTSCALE
 40
1.0
  9
$ATTMODE
 70
1
  9
$TEXTSIZE
 40
2.5
  9
$TRACEWID
 40
1.0
  9
$TEXTSTYLE
  7
Standard
  9
$CLAYER
  8
0
  9
$CELTYPE
  6
ByLayer
  9
$CECOLOR
 62
256
  9
$CELTSCALE
 40
1.0
  9
$DISPSILH
 70
0
  9
$DIMSCALE
 40
1.0
  9
$DIMASZ
 40
2.5
  9
$DIMEXO
 40
0.625
  9
$DIMDLI
 40
3.75
  9
$DIMRND
 40
0.0
  9
$DIMDLE
 40
0.0
  9
$DIMEXE
 40
1.25
  9
$DIMTP
 40
0.0
  9
$DIMTM
 40
0.0
  9
$DIMTXT
 40
2.5
  9
$DIMCEN
 40
2.5
  9
$DIMTSZ
 40
0.0
  9
$DIMTOL
 70
0
  9
$DIMLIM
 70
0
  9
$DIMTIH
 70
0
  9
$DIMTOH
 70
0
  9
$DIMSE1
 70
0
  9
$DIMSE2
 70
0
  9
$DIMTAD
 70
1
  9
$DIMZIN
 70
8
  9
$DIMBLK
  1

  9
$DIMASO
 70
1
  9
$DIMSHO
 70
1
  9
$DIMPOST
  1

  9
$DIMAPOST
  1

  9
$DIMALT
 70
0
  9
$DIMALTD
 70
3
  9
$DIMALTF
 40
0.03937007874
  9
$DIMLFAC
 40
1.0
  9
$DIMTOFL
 70
1
  9
$DIMTVP
 40
0.0
  9
$DIMTIX
 70
0
  9
$DIMSOXD
 70
0
  9
$DIMSAH
 70
0
  9
$DIMBLK1
  1

  9
$DIMBLK2
  1

  9
$DIMSTYLE
  2
ISO-25
  9
$DIMCLRD
 70
0
  9
$DIMCLRE
 70
0
  9
$DIMCLRT
 70
0
  9
$DIMTFAC
 40
1.0
  9
$DIMGAP
 40
0.625
  9
$DIMJUST
 70
0
  9
$DIMSD1
 70
0
  9
$DIMSD2
 70
0
  9
$DIMTOLJ
 70
0
  9
$DIMTZIN
 70
8
  9
$DIMALTZ
 70
0
  9
$DIMALTTZ
 70
0
  9
$DIMUPT
 70
0
  9
$DIMDEC
 70
2
  9
$DIMTDEC
 70
2
  9
$DIMALTU
 70
2
  9
$DIMALTTD
 70
3
  9
$DIMTXSTY
  7
Standard
  9
$DIMAUNIT
 70
0
  9
$DIMADEC
 70
0
  9
$DIMALTRND
 40
0.0
  9
$DIMAZIN
 70
0
  9
$DIMDSEP
 70
44
  9
$DIMATFIT
 70
3
  9
$DIMFRAC
 70
0
  9
$DIMLDRBLK
  1

  9
$DIMLUNIT
 70
2
  9
$DIMLWD
 70
-2
  9
$DIMLWE
 70
-2
  9
$DIMTMOVE
 70
0
  9
$DIMFXL
 40
1.0
  9
$DIMFXLON
 70
0
  9
$DIMJOGANG
 40
0.785398163397
  9
$DIMTFILL
 70
0
  9
$DIMTFILLCLR
 70
0
  9
$DIMARCSYM
 70
0
  9
$DIMLTYPE
  6

  9
$DIMLTEX1
  6

  9
$DIMLTEX2
  6

  9
$DIMTXTDIRECTION
 70
0
  9
$LUNITS
 70
2
  9
$LUPREC
 70
4
  9
$SKETCHINC
 40
1.0
  9
$FILLETRAD
 40
10.0
  9
$AUNITS
 70
0
  9
$AUPREC
 70
2
  9
$MENU
  1
.
  9
$ELEVATION
 40
0.0
  9
$PELEVATION
 40
0.0
  9
$THICKNESS
 40
0.0
  9
$LIMCHECK
 70
0
  9
$CHAMFERA
 40
0.0
  9
$CHAMFERB
 40
0.0
  9
$CHAMFERC
 40
0.0
  9
$CHAMFERD
 40
0.0
  9
$SKPOLY
 70
0
  9
$TDCREATE
 40
2461318.7701273146
  9
$TDUCREATE
 40
2458532.153996898
  9
$TDUPDATE
 40
2461318.7701273146
  9
$TDUUPDATE
 40
2458532.1544311
  9
$TDINDWG
 40
0.0
  9
$TDUSRTIMER
 40
0.0
  9
$USRTIMER
 70
1
  9
$ANGBASE
 50
0.0
  9
$ANGDIR
 70
0
  9
$PDMODE
 70
0
  9
$PDSIZE
 40
0.0
  9
$PLINEWID
 40
0.0
  9
$SPLFRAME
 70
0
  9
$SPLINETYPE
 70
6
  9
$SPLINESEGS
 70
8
  9
$HANDSEED
  5
9F
  9
$SURFTAB1
 70
6
  9
$SURFTAB2
 70
6
  9
$SURFTYPE
 70
6
  9
$SURFU
 70
6
  9
$SURFV
 70
6
  9
$UCSBASE
  2

  9
$UCSNAME
  2

  9
$UCSORG
 10
0.0
 20
0.0
 30
0.0
  9
$UCSXDIR
 10
1.0
 20
0.0
 30
0.0
  9
$UCSYDIR
 10
0.0
 20
1.0
 30
0.0
  9
$UCSORTHOREF
  2

  9
$UCSORTHOVIEW
 70
0
  9
$UCSORGTOP
 10
0.0
 20
0.0
 30
0.0
  9
$UCSORGBOTTOM
 10
0.0
 20
0.0
 30
0.0
  9
$UCSORGLEFT
 10
0.0
 20
0.0
 30
0.0
  9
$UCSORGRIGHT
 10
0.0
 20
0.0
 30
0.0
  9
$UCSORGFRONT
 10
0.0
 20
0.0
 30
0.0
  9
$UCSORGBACK
 10
0.0
 20
0.0
 30
0.0
  9
$PUCSBASE
  2

  9
$PUCSNAME
  2

  9
$PUCSORG
 10
0.0
 20
0.0
 30
0.0
  9
$PUCSXDIR
 10
1.0
 20
0.0
 30
0.0
  9
$PUCSYDIR
 10
0.0
 20
1.0
 30
0.0
  9
$PUCSORTHOREF
  2

  9
$PUCSORTHOVIEW
 70
0
  9
$PUCSORGTOP
 10
0.0
 20
0.0
 30
0.0
  9
$PUCSORGBOTTOM
 10
0.0
 20
0.0
 30
0.0
  9
$PUCSORGLEFT
 10
0.0
 20
0.0
 30
0.0
  9
$PUCSORGRIGHT
 10
0.0
 20
0.0
 30
0.0
  9
$PUCSORGFRONT
 10
0.0
 20
0.0
 30
0.0
  9
$PUCSORGBACK
 10
0.0
 20
0.0
 30
0.0
  9
$USERI1
 70
0
  9
$USERI2
 70
0
  9
$USERI3
 70
0
  9
$USERI4
 70
0
  9
$USERI5
 70
0
  9
$USERR1
 40
0.0
  9
$USERR2
 40
0.0
  9
$USERR3
 40
0.0
  9
$USERR4
 40
0.0
  9
$USERR5
 40
0.0
  9
$WORLDVIEW
 70
1
  9
$SHADEDGE
 70
3
  9
$SHADEDIF
 70
70
  9
$TILEMODE
 70
1
  9
$MAXACTVP
 70
64
  9
$PINSBASE
 10
0.0
 20
0.0
 30
0.0
  9
$PLIMCHECK
 70
0
  9
$PEXTMIN
 10
1e+20
 20
1e+20
 30
1e+20
  9
$PEXTMAX
 10
-1e+20
 20
-1e+20
 30
-1e+20
  9
$PLIMMIN
 10
0.0
 20
0.0
  9
$PLIMMAX
 10
420.0
 20
297.0
  9
$UNITMODE
 70
0
  9
$VISRETAIN
 70
1
  9
$PLINEGEN
 70
0
  9
$PSLTSCALE
 70
1
  9
$TREEDEPTH
 70
3020
  9
$CMLSTYLE
  2
Standard
  9
$CMLJUST
 70
0
  9
$CMLSCALE
 40
20.0
  9
$PROXYGRAPHICS
 70
1
  9
$MEASUREMENT
 70
1
  9
$CELWEIGHT
370
-1
  9
$ENDCAPS
280
0
  9
$JOINSTYLE
280
0
  9
$LWDISPLAY
290
0
  9
$INSUNITS
 70
4
  9
$HYPERLINKBASE
  1

  9
$STYLESHEET
  1

  9
$XEDIT
290
1
  9
$CEPSNTYPE
380
0
  9
$PSTYLEMODE
290
1
  9
$FINGERPRINTGUID
  2
{CC6982F0-6A48-4AB0-A006-DE2B42A8B217}
  9
$VERSIONGUID
  2
{277CA740-A0EE-4DFE-8881-7418ED4FBA3C}
  9
$EXTNAMES
290
1
  9
$PSVPSCALE
 40
0.0
  9
$OLESTARTUP
290
0
  9
$SORTENTS
280
127
  9
$INDEXCTL
280
0
  9
$HIDETEXT
280
1
  9
$XCLIPFRAME
280
1
  9
$HALOGAP
280
0
  9
$OBSCOLOR
 70
257
  9
$OBSLTYPE
280
0
  9
$INTERSECTIONDISPLAY
280
0
  9
$INTERSECTIONCOLOR
 70
257
  9
$DIMASSOC
280
2
  9
$PROJECTNAME
  1

  9
$CAMERADISPLAY
290
0
  9
$LENSLENGTH
 40
50.0
  9
$CAMERAHEIGHT
 40
0.0
  9
$STEPSPERSEC
 40
24.0
  9
$STEPSIZE
 40
100.0
  9
$3DDWFPREC
 40
2.0
  9
$PSOLWIDTH
 40
0.005
  9
$PSOLHEIGHT
 40
0.08
  9
$LOFTANG1
 40
1.570796326795
  9
$LOFTANG2
 40
1.570796326795
  9
$LOFTMAG1
 40
0.0
  9
$LOFTMAG2
 40
0.0
  9
$LOFTPARAM
 70
7
  9
$LOFTNORMALS
280
1
  9
$LATITUDE
 40
37.795
  9
$LONGITUDE
 40
-122.394
  9
$NORTHDIRECTION
 40
0.0
  9
$TIMEZONE
 70
-8000
  9
$LIGHTGLYPHDISPLAY
280
1
  9
$TILEMODELIGHTSYNCH
280
1
  9
$CMATERIAL
347
20
  9
$SOLIDHIST
280
0
  9
$SHOWHIST
280
1
  9
$DWFFRAME
280
2
  9
$DGNFRAME
280
2
  9
$REALWORLDSCALE
290
1
  9
$INTERFERECOLOR
 62
256
  9
$CSHADOW
280
0
  9
$SHADOWPLANELOCATION
 40
0.0
  0
ENDSEC
  0
SECTION
  2
CLASSES
  0
CLASS
  1
ACDBDICTIONARYWDFLT
  2
AcDbDictionaryWithDefault
  3
ObjectDBX Classes
 90
0
 91
0
280
0
281
0
  0
CLASS
  1
SUN
  2
AcDbSun
  3
SCENEOE
 90
1153
 91
0
280
0
281
0
  0
CLASS
  1
VISUALSTYLE
  2
AcDbVisualStyle
  3
ObjectDBX Classes
 90
4095
 91
0
280
0
281
0
  0
CLASS
  1
MATERIAL
  2
AcDbMaterial
  3
ObjectDBX Classes
 90
1153
 91
0
280
0
281
0
  0
CLASS
  1
SCALE
  2
AcDbScale
  3
ObjectDBX Classes
 90
1153
 91
0
280
0
281
0
  0
CLASS
  1
TABLESTYLE
  2
AcDbTableStyle
  3
ObjectDBX Classes
 90
4095
 91
0
280
0
281
0
  0
CLASS
  1
MLEADERSTYLE
  2
AcDbMLeaderStyle
  3
ACDB_MLEADERSTYLE_CLASS
 90
4095
 91
0
280
0
281
0
  0
CLASS
  1
DICTIONARYVAR
  2
AcDbDictionaryVar
  3
ObjectDBX Classes
 90
0
 91
0
280
0
281
0
  0
CLASS
  1
CELLSTYLEMAP
  2
AcDbCellStyleMap
  3
ObjectDBX Classes
 90
1152
 91
0
280
0
281
0
  0
CLASS
  1
MENTALRAYRENDERSETTINGS
  2
AcDbMentalRayRenderSettings
  3
SCENEOE
 90
1024
 91
0
280
0
281
0
  0
CLASS
  1
ACDBDETAILVIEWSTYLE
  2
AcDbDetailViewStyle
  3
ObjectDBX Classes
 90
1025
 91
0
280
0
281
0
  0
CLASS
  1
ACDBSECTIONVIEWSTYLE
  2
AcDbSectionViewStyle
  3
ObjectDBX Classes
 90
1025
 91
0
280
0
281
0
  0
CLASS
  1
RASTERVARIABLES
  2
AcDbRasterVariables
  3
ISM
 90
0
 91
0
280
0
281
0
  0
CLASS
  1
LAYOUT
  2
AcDbLayout
  3
ObjectDBX Classes
 90
0
 91
0
280
0
281
0
  0
CLASS
  1
ACDBPLACEHOLDER
  2
AcDbPlaceHolder
  3
ObjectDBX Classes
 90
0
 91
0
280
0
281
0
  0
ENDSEC
  0
SECTION
  2
TABLES
  0
TABLE
  2
VPORT
  5
8
330
0
100
AcDbSymbolTable
 70
1
  0
VPORT
  5
23
330
8
100
AcDbSymbolTableRecord
100
AcDbViewportTableRecord
  2
*Active
 70
0
 10
0.0
 20
0.0
 11
1.0
 21
1.0
 12
0.0
 22
0.0
 13
0.0
 23
0.0
 14
0.5
 24
0.5
 15
0.5
 25
0.5
 16
0.0
 26
0.0
 36
1.0
 17
0.0
 27
0.0
 37
0.0
 40
1000.0
 41
1.34
 42
50.0
 43
0.0
 44
0.0
 50
0.0
 51
0.0
 71
0
 72
1000
 73
1
 74
3
 75
0
 76
0
 77
0
 78
0
281
0
 65
0
146
0.0
  0
ENDTAB
  0
TABLE
  2
LTYPE
  5
2
330
0
100
AcDbSymbolTable
 70
3
  0
LTYPE
  5
24
330
2
100
AcDbSymbolTableRecord
100
AcDbLinetypeTableRecord
  2
ByBlock
 70
0
  3

 72
65
 73
0
 40
0.0
  0
LTYPE
  5
25
330
2
100
AcDbSymbolTableRecord
100
AcDbLinetypeTableRecord
  2
ByLayer
 70
0
  3

 72
65
 73
0
 40
0.0
  0
LTYPE
  5
26
330
2
100
AcDbSymbolTableRecord
100
AcDbLinetypeTableRecord
  2
Continuous
 70
0
  3

 72
65
 73
0
 40
0.0
  0
ENDTAB
  0
TABLE
  2
LAYER
  5
1
330
0
100
AcDbSymbolTable
 70
8
  0
LAYER
  5
27
330
1
100
AcDbSymbolTableRecord
100
AcDbLayerTableRecord
  2
0
 70
0
 62
7
  6
Continuous
370
-3
390
13
347
21
  0
LAYER
  5
28
330
1
100
AcDbSymbolTableRecord
100
AcDbLayerTableRecord
  2
Defpoints
 70
0
 62
7
  6
Continuous
290
0
370
-3
390
13
347
21
  0
LAYER
  5
2F
330
1
100
AcDbSymbolTableRecord
100
AcDbLayerTableRecord
  2
CUT
 70
0
 62
1
  6
Continuous
370
-3
390
13
347
21
  0
LAYER
  5
30
330
1
100
AcDbSymbolTableRecord
100
AcDbLayerTableRecord
  2
SEW
 70
0
 62
5
  6
Continuous
370
-3
390
13
347
21
  0
LAYER
  5
31
330
1
100
AcDbSymbolTableRecord
100
AcDbLayerTableRecord
  2
GRAIN
 70
0
 62
3
  6
Continuous
370
-3
390
13
347
21
  0
LAYER
  5
32
330
1
100
AcDbSymbolTableRecord
100
AcDbLayerTableRecord
  2
NOTCH
 70
0
 62
2
  6
Continuous
370
-3
390
13
347
21
  0
LAYER
  5
33
330
1
100
AcDbSymbolTableRecord
100
AcDbLayerTableRecord
  2
LABEL
 70
0
 62
7
  6
Continuous
370
-3
390
13
347
21
  0
LAYER
  5
34
330
1
100
AcDbSymbolTableRecord
100
AcDbLayerTableRecord
  2
ATTACHMENT
 70
0
 62
4
  6
Continuous
370
-3
390
13
347
21
  0
ENDTAB
  0
TABLE
  2
STYLE
  5
5
330
0
100
AcDbSymbolTable
 70
1
  0
STYLE
  5
29
330
5
100
AcDbSymbolTableRecord
100
AcDbTextStyleTableRecord
  2
Standard
 70
0
 40
0.0
 41
1.0
 50
0.0
 71
0
 42
2.5
  3
txt
  4

  0
ENDTAB
  0
TABLE
  2
VIEW
  5
7
330
0
100
AcDbSymbolTable
 70
0
  0
ENDTAB
  0
TABLE
  2
UCS
  5
6
330
0
100
AcDbSymbolTable
 70
0
  0
ENDTAB
  0
TABLE
  2
APPID
  5
3
330
0
100
AcDbSymbolTable
 70
3
  0
APPID
  5
2A
330
3
100
AcDbSymbolTableRecord
100
AcDbRegAppTableRecord
  2
ACAD
 70
0
  0
APPID
  5
9C
330
3
100
AcDbSymbolTableRecord
100
AcDbRegAppTableRecord
  2
HATCHBACKGROUNDCOLOR
 70
0
  0
APPID
  5
9D
330
3
100
AcDbSymbolTableRecord
100
AcDbRegAppTableRecord
  2
EZDXF
 70
0
  0
ENDTAB
  0
TABLE
  2
DIMSTYLE
  5
4
330
0
100
AcDbSymbolTable
 70
1
100
AcDbDimStyleTable
  0
DIMSTYLE
105
2B
330
4
100
AcDbSymbolTableRecord
100
AcDbDimStyleTableRecord
  2
Standard
 70
0
 40
1.0
 41
2.5
 42
0.625
 43
3.75
 44
1.25
 45
0.0
 46
0.0
 47
0.0
 48
0.0
 49
2.5
140
2.5
141
2.5
142
0.0
143
0.03937007874
144
1.0
145
0.0
146
1.0
147
0.625
148
0.0
 69
0
 70
0
 71
0
 72
0
 73
0
 74
0
 75
0
 76
0
 77
1
 78
8
 79
3
170
0
171
3
172
1
173
0
174
0
175
0
176
0
177
0
178
0
179
2
271
2
272
2
273
2
274
3
275
0
276
0
277
2
278
44
279
0
280
0
281
0
282
0
283
0
284
8
285
0
286
0
288
0
289
3
290
0
371
-2
372
-2
  0
ENDTAB
  0
TABLE
  2
BLOCK_RECORD
  5
9
330
0
100
AcDbSymbolTable
 70
2
  0
BLOCK_RECORD
  5
17
330
9
100
AcDbSymbolTableRecord
100
AcDbBlockTableRecord
  2
*Model_Space
340
1A
 70
0
280
1
281
0
  0
BLOCK_RECORD
  5
1B
330
9
100
AcDbSymbolTableRecord
100
AcDbBlockTableRecord
  2
*Paper_Space
340
1E
 70
0
280
1
281
0
  0
ENDTAB
  0
ENDSEC
  0
SECTION
  2
BLOCKS
  0
BLOCK
  5
18
330
17
100
AcDbEntity
  8
0
100
AcDbBlockBegin
  2
*Model_Space
 70
0
 10
0.0
 20
0.0
 30
0.0
  3
*Model_Space
  1

  0
ENDBLK
  5
19
330
17
100
AcDbEntity
  8
0
100
AcDbBlockEnd
  0
BLOCK
  5
1C
330
1B
100
AcDbEntity
  8
0
100
AcDbBlockBegin
  2
*Paper_Space
 70
0
 10
0.0
 20
0.0
 30
0.0
  3
*Paper_Space
  1

  0
ENDBLK
  5
1D
330
1B
100
AcDbEntity
  8
0
100
AcDbBlockEnd
  0
ENDSEC
  0
SECTION
  2
ENTITIES
  0
LWPOLYLINE
  5
35
330
17
100
AcDbEntity
  8
CUT
100
AcDbPolyline
 90
111
 70
1
 10
-12.01460109645756
 20
5.861282994925463
 10
26.776728002520663
 20
36.00200084250135
 10
61.13949895001272
 20
69.97697808429938
 10
96.47021602398226
 20
101.99557504086883
 10
131.45519464554087
 20
131.11361157920763
 10
166.33023642120318
 20
160.08354992943123
 10
201.50360228333327
 20
187.86860959858194
 10
237.22019665121672
 20
212.1923957869359
 10
273.372958059603
 20
230.41155916809277
 10
309.04274145578523
 20
242.7214434801949
 10
344.2632736889865
 20
253.7490268559471
 10
379.82939061337987
 20
262.8028296183012
 10
415.80850970686015
 20
268.72627918457033
 10
452.12498076535286
 20
270.29747162400776
 10
488.3471150286313
 20
266.8599074399441
 10
524.0982796010263
 20
259.6996367544189
 10
559.3585884398475
 20
250.40433596901005
 10
594.1608207472218
 20
240.4871318470639
 10
628.7767775016948
 20
231.33666888431668
 10
663.5970874127794
 20
222.57584316473222
 10
698.5686256439471
 20
213.17048157509095
 10
733.5138198295168
 20
203.24943634544056
 10
763.9460611848768
 20
194.22836516263098
 10
893.8436872217219
 20
256.5828990691186
 10
950.2106682277912
 20
256.7405852661159
 10
1003.9725944230669
 20
256.87478489226385
 10
1057.8592767098721
 20
256.06962716576635
 10
1111.7152440980437
 20
254.13510955756973
 10
1165.4632940251029
 20
251.5685512567936
 10
1219.1126184157392
 20
248.86266997775172
 10
1272.751575767723
 20
246.41159690224129
 10
1326.4397388906466
 20
243.9008337749419
 10
1380.1473024763807
 20
241.2032703706287
 10
1433.8646641296405
 20
238.27795333436063
 10
1487.5919156678276
 20
235.08344702225392
 10
1541.3230845438306
 20
231.57868657709022
 10
1595.0561181151859
 20
227.77704480383835
 10
1648.8092618936394
 20
223.65379110965566
 10
1702.5970622494608
 20
219.05609029882126
 10
1756.4197621801688
 20
213.83068771540727
 10
1810.2795103671401
 20
207.8238514253415
 10
1864.2168640205653
 20
200.8564026503896
 10
1918.2586438476042
 20
192.38945924202628
 10
1972.3802652858578
 20
181.9899065187016
 10
2026.5662076710653
 20
169.3252930728024
 10
2080.9079176718824
 20
154.03408241515606
 10
2135.7067954983
 20
134.62693843698295
 10
2191.016906543961
 20
106.94633908965743
 10
2246.8668880798105
 20
67.3807567383332
 10
2304.795244814057
 20
4.6988778477333355
 10
2304.7999009043747
 20
-3.1542958543607633
 10
2304.808748470196
 20
-6.484344539690843
 10
2304.8192015726386
 20
-9.965191070982089
 10
2304.830271492274
 20
-13.552887199416997
 10
2304.8419389856226
 20
-17.211908514444413
 10
2304.888616649811
 20
-32.91317632871256
 10
2239.1543754104855
 20
-33.08941940292541
 10
2185.1879172591207
 20
-33.24695566110687
 10
2131.438764611375
 20
-33.40222723985234
 10
2077.7679858455763
 20
-33.555473892871916
 10
2024.1090899920098
 20
-33.707674963056334
 10
1970.4523868077765
 20
-33.85929144406618
 10
1916.7973527866993
 20
-34.01046016985947
 10
1863.1433593770007
 20
-34.16124011446826
 10
1809.4896532575392
 20
-34.31170945759748
 10
1755.835972408517
 20
-34.46198006889706
 10
1702.1823091163355
 20
-34.61213142398832
 10
1648.5286581004816
 20
-34.76221877352418
 10
1594.875013405608
 20
-34.912270489231055
 10
1541.221369666731
 20
-35.06229098974403
 10
1487.5677283767043
 20
-35.212291267550704
 10
1433.914090942301
 20
-35.36228842613508
 10
1380.2604529078706
 20
-35.512279728105085
 10
1326.606812891031
 20
-35.66225637760774
 10
1272.9531746549042
 20
-35.812225699728295
 10
1219.299539561588
 20
-35.96219686977436
 10
1165.6459072725056
 20
-36.11217995709843
 10
1111.9922778456275
 20
-36.26219024382305
 10
1058.3386539386963
 20
-36.41223726429311
 10
1004.6850457793482
 20
-36.56235971808953
 10
951.031491148927
 20
-36.712657750700146
 10
897.3792156860642
 20
-36.863501993073996
 10
765.5327189630239
 20
-37.26269852544599
 10
730.7558410502162
 20
-37.35561022187041
 10
695.9826410001633
 20
-37.44679982109318
 10
661.2095826520462
 20
-37.536697664249395
 10
626.4367308509088
 20
-37.6259065917728
 10
591.6640212953826
 20
-37.71484025432074
 10
556.8913848836456
 20
-37.803704659295214
 10
522.1187780805886
 20
-37.89258085179995
 10
487.346176593744
 20
-37.981489380874024
 10
452.5735785911543
 20
-38.07043915007109
 10
417.80098020828063
 20
-38.15944037899945
 10
383.02837392006177
 20
-38.24847947729046
 10
348.2557611455069
 20
-38.33752343961329
 10
313.4831425891354
 20
-38.42655316807462
 10
278.71052189975444
 20
-38.515562617113986
 10
243.93789757419893
 20
-38.60454154303565
 10
209.1619937885933
 20
-38.69340133678817
 10
174.36609182986655
 20
-38.782019185194
 10
139.53835734183448
 20
-38.870351983723715
 10
104.67344935450211
 20
-38.958491514362926
 10
69.64371485087743
 20
-39.0472124728452
 10
34.87101477801429
 20
-39.13504036928603
 10
-11.90105155764879
 20
-39.25311796722219
 10
-11.944207123266766
 20
-22.450860366900475
 10
-11.956225618289224
 20
-17.69378571532402
 10
-11.967853290127094
 20
-13.028870402297356
 10
-11.979034567355585
 20
-8.501067902605483
 10
-11.989714869630822
 20
-4.154145647328889
 10
-12.01460109645756
 20
5.861282994925463
  0
LWPOLYLINE
  5
36
330
17
100
AcDbEntity
  8
SEW
100
AcDbPolyline
 90
110
 70
1
 10
0.0
 20
0.0
 10
34.70467406368774
 20
26.965402146358784
 10
69.39101842777963
 20
61.26030118613487
 10
104.34113041616769
 20
92.93397333380956
 10
139.13178733353837
 20
121.89027570206515
 10
173.88448284766253
 20
150.75857651735575
 10
208.60903951210554
 20
178.18910115603262
 10
243.32389702775956
 20
201.83068251937857
 10
278.05164025273655
 20
219.33170880413564
 10
312.7936673699611
 20
231.32141812843514
 10
347.53862933213156
 20
242.20009998333308
 10
382.2888080572539
 20
251.0461954061939
 10
417.04699229934204
 20
256.76863543698414
 10
451.81598904698893
 20
258.27287809119855
 10
486.59732216200035
 20
254.97204926313682
 10
521.3880851311171
 20
248.00412854798418
 10
556.1845159579553
 20
238.83111499689392
 10
590.9828479843793
 20
228.915022294525
 10
625.779306092174
 20
219.716845181913
 10
660.574620320331
 20
210.96230840181326
 10
695.3715245500787
 20
201.60391346026003
 10
730.1698050075024
 20
191.72457747778262
 10
764.9697134785405
 20
181.40879272152117
 10
896.5905920116248
 20
244.5905365585099
 10
950.2442380043866
 20
244.74063222162027
 10
1003.8979256478937
 20
244.87456112083876
 10
1057.5542207512967
 20
244.07284576661084
 10
1111.213660426566
 20
242.14538747494956
 10
1164.8748746334852
 20
239.58297572346464
 10
1218.536491915571
 20
236.8764744346609
 10
1272.1973991253863
 20
234.4243983436521
 10
1325.8584675702518
 20
231.91490231723037
 10
1379.5200558109038
 20
229.21964811110294
 10
1433.182279780089
 20
226.29733373918026
 10
1486.845255117827
 20
223.1066491510995
 10
1540.5090972961261
 20
219.6062802714266
 10
1594.173770373477
 20
215.80947504084457
 10
1647.8393407338597
 20
211.69293885924236
 10
1701.5062316765343
 20
207.10557320439474
 10
1755.1748707794159
 20
201.89512769018694
 10
1808.845687473925
 20
195.9093624333781
 10
1862.5191676811437
 20
188.9759999566033
 10
1916.1971211918017
 20
180.56605868327566
 10
1969.8815323464441
 20
170.2505165877697
 10
2023.5739429820933
 20
157.70125388703238
 10
2077.27572232806
 20
142.59011327961926
 10
2131.000556210404
 20
123.56334434356918
 10
2184.827394299241
 20
96.62506649342293
 10
2238.905898975035
 20
58.31444451384031
 10
2292.798028635873
 20
1.4039352990409852e-13
 10
2292.799910355852
 20
-3.173794502262554
 10
2292.8087963422636
 20
-6.5183039374305105
 10
2292.8192571678424
 20
-10.001722246078952
 10
2292.8303305245513
 20
-13.590532309888514
 10
2292.8419999917114
 20
-17.250172628353727
 10
2292.8529853253212
 20
-20.94540247797326
 10
2239.120773760634
 20
-21.089466362668258
 10
2185.1528875923914
 20
-21.247006789447088
 10
2131.4040989280616
 20
-21.402277311190115
 10
2077.7337222797887
 20
-21.555522809302467
 10
2024.0750526634283
 20
-21.707723235642465
 10
1970.4184788262498
 20
-21.859339350462275
 10
1916.763543889957
 20
-22.010507796683108
 10
1863.1096367764626
 20
-22.161287498469598
 10
1809.4559999436271
 20
-22.311756647087652
 10
1755.8023635258905
 20
-22.462027133864
 10
1702.1487268948333
 20
-22.612178414313703
 10
1648.4950901863958
 20
-22.762265723818366
 10
1594.8414534572194
 20
-22.91231741724514
 10
1541.1878166991517
 20
-23.062337898237104
 10
1487.5341799304852
 20
-23.212338163402496
 10
1433.8805431912979
 20
-23.362335320043268
 10
1380.2269064670988
 20
-23.512326618350386
 10
1326.573269728584
 20
-23.662303258688773
 10
1272.9196329930285
 20
-23.81227257661491
 10
1219.2659962821003
 20
-23.96224375118248
 10
1165.6123596205155
 20
-24.11222685072942
 10
1111.9587230477284
 20
-24.262237157433304
 10
1058.3050865855698
 20
-24.41228421301515
 10
1004.6514503369714
 20
-24.562406745405113
 10
950.9978145711812
 20
-24.712705005297703
 10
897.3441803155887
 20
-24.863553067939343
 10
765.4963862841086
 20
-25.262753528220262
 10
730.7237816097296
 20
-25.35565304726867
 10
695.9511721893547
 20
-25.446841083083026
 10
661.1785594845488
 20
-25.5367377658548
 10
626.4059452373117
 20
-25.625946081587966
 10
591.6333305476854
 20
-25.714879501134682
 10
556.8607159142562
 20
-25.80374385042918
 10
522.0881014971926
 20
-25.892620062394748
 10
487.3154873011656
 20
-25.981528623964373
 10
452.542873308838
 20
-26.070478434063862
 10
417.7702595160371
 20
-26.159479702434265
 10
382.99764586354735
 20
-26.2485188195823
 10
348.2250322482734
 20
-26.337562784058004
 10
313.45241860905645
 20
-26.426592499928738
 10
278.67980491990187
 20
-26.51560193104719
 10
243.90719113095508
 20
-26.604580830002327
 10
209.13133134917538
 20
-26.693440511235078
 10
174.3355304514515
 20
-26.782058101834217
 10
139.50792211023858
 20
-26.870390579757547
 10
104.64308487405516
 20
-26.95852993112761
 10
69.61332215443936
 20
-27.04725096107346
 10
34.84070561623483
 20
-27.13507864623407
 10
0.06808905392670558
 20
-27.222863244157235
 10
0.05575329567052684
 20
-22.42003920634032
 10
0.043736084367374625
 20
-17.663468479714897
 10
0.03210943237817443
 20
-12.9989595600499
 10
0.020928843108900648
 20
-8.471434348759303
 10
0.01024850007455036
 20
-4.124495123403684
  0
LINE
  5
37
330
17
100
AcDbEntity
  8
GRAIN
100
AcDbLine
 10
1101.7696806873814
 20
109.25767109774404
 30
0.0
 11
1181.7696806873814
 21
109.25767109774404
 31
0.0
  0
LINE
  5
38
330
17
100
AcDbEntity
  8
GRAIN
100
AcDbLine
 10
1181.7696806873814
 20
109.25767109774404
 30
0.0
 11
1176.7696806873814
 21
112.25767109774404
 31
0.0
  0
TEXT
  5
39
330
17
100
AcDbEntity
  8
LABEL
100
AcDbText
 10
1141.7696806873814
 20
109.25767109774404
 30
0.0
 40
6.0
  1
O08_SMOOTH_LOWER_I3
100
AcDbText
  0
CIRCLE
  5
3A
330
17
100
AcDbEntity
  8
NOTCH
100
AcDbCircle
 10
2292.824793846197
 20
-11.796127277983732
 30
0.0
 40
1.0
  0
TEXT
  5
3B
330
17
100
AcDbEntity
  8
LABEL
100
AcDbText
 10
2294.824793846197
 20
-9.796127277983732
 30
0.0
 40
3.0
  1
J1053
100
AcDbText
  0
CIRCLE
  5
3C
330
17
100
AcDbEntity
  8
NOTCH
100
AcDbCircle
 10
86.86607442197365
 20
77.09713725997221
 30
0.0
 40
1.0
  0
TEXT
  5
3D
330
17
100
AcDbEntity
  8
LABEL
100
AcDbText
 10
88.86607442197365
 20
79.09713725997221
 30
0.0
 40
3.0
  1
J1095
100
AcDbText
  0
CIRCLE
  5
3E
330
17
100
AcDbEntity
  8
NOTCH
100
AcDbCircle
 10
156.50813509060043
 20
136.32442610971046
 30
0.0
 40
1.0
  0
TEXT
  5
3F
330
17
100
AcDbEntity
  8
LABEL
100
AcDbText
 10
158.50813509060043
 20
138.32442610971046
 30
0.0
 40
3.0
  1
J1095
100
AcDbText
  0
CIRCLE
  5
40
330
17
100
AcDbEntity
  8
NOTCH
100
AcDbCircle
 10
225.96646826993253
 20
190.0098918377056
 30
0.0
 40
1.0
  0
TEXT
  5
41
330
17
100
AcDbEntity
  8
LABEL
100
AcDbText
 10
227.96646826993253
 20
192.0098918377056
 30
0.0
 40
3.0
  1
J1095
100
AcDbText
  0
CIRCLE
  5
42
330
17
100
AcDbEntity
  8
NOTCH
100
AcDbCircle
 10
295.4226538113488
 20
225.3265634662854
 30
0.0
 40
1.0
  0
TEXT
  5
43
330
17
100
AcDbEntity
  8
LABEL
100
AcDbText
 10
297.4226538113488
 20
227.3265634662854
 30
0.0
 40
3.0
  1
J1095
100
AcDbText
  0
CIRCLE
  5
44
330
17
100
AcDbEntity
  8
NOTCH
100
AcDbCircle
 10
399.66790017829794
 20
253.907415421589
 30
0.0
 40
1.0
  0
TEXT
  5
45
330
17
100
AcDbEntity
  8
LABEL
100
AcDbText
 10
401.66790017829794
 20
255.907415421589
 30
0.0
 40
3.0
  1
J1095
100
AcDbText
  0
CIRCLE
  5
46
330
17
100
AcDbEntity
  8
NOTCH
100
AcDbCircle
 10
52.04784624573368
 20
44.112851666246826
 30
0.0
 40
1.0
  0
TEXT
  5
47
330
17
100
AcDbEntity
  8
LABEL
100
AcDbText
 10
54.04784624573368
 20
46.112851666246826
 30
0.0
 40
3.0
  1
J1095
100
AcDbText
  0
CIRCLE
  5
48
330
17
100
AcDbEntity
  8
NOTCH
100
AcDbCircle
 10
434.4314906731655
 20
257.52075676409135
 30
0.0
 40
1.0
  0
TEXT
  5
49
330
17
100
AcDbEntity
  8
LABEL
100
AcDbText
 10
436.4314906731655
 20
259.52075676409135
 30
0.0
 40
3.0
  1
J1098
100
AcDbText
  0
CIRCLE
  5
4A
330
17
100
AcDbEntity
  8
NOTCH
100
AcDbCircle
 10
538.7863005445363
 20
243.41762177243905
 30
0.0
 40
1.0
  0
TEXT
  5
4B
330
17
100
AcDbEntity
  8
LABEL
100
AcDbText
 10
540.7863005445363
 20
245.41762177243905
 30
0.0
 40
3.0
  1
J1098
100
AcDbText
  0
CIRCLE
  5
4C
330
17
100
AcDbEntity
  8
NOTCH
100
AcDbCircle
 10
643.1769632062525
 20
215.33957679186312
 30
0.0
 40
1.0
  0
TEXT
  5
4D
330
17
100
AcDbEntity
  8
LABEL
100
AcDbText
 10
645.1769632062525
 20
217.33957679186312
 30
0.0
 40
3.0
  1
J1100
100
AcDbText
  0
CIRCLE
  5
4E
330
17
100
AcDbEntity
  8
NOTCH
100
AcDbCircle
 10
747.5697592430215
 20
186.5666850996519
 30
0.0
 40
1.0
  0
TEXT
  5
4F
330
17
100
AcDbEntity
  8
LABEL
100
AcDbText
 10
749.5697592430215
 20
188.5666850996519
 30
0.0
 40
3.0
  1
J1102
100
AcDbText
  0
CIRCLE
  5
50
330
17
100
AcDbEntity
  8
NOTCH
100
AcDbCircle
 10
830.7801527450827
 20
212.99966464001554
 30
0.0
 40
1.0
  0
TEXT
  5
51
330
17
100
AcDbEntity
  8
LABEL
100
AcDbText
 10
832.7801527450827
 20
214.99966464001554
 30
0.0
 40
3.0
  1
J1104
100
AcDbText
  0
CIRCLE
  5
52
330
17
100
AcDbEntity
  8
NOTCH
100
AcDbCircle
 10
923.4174150080057
 20
244.66558439006508
 30
0.0
 40
1.0
  0
TEXT
  5
53
330
17
100
AcDbEntity
  8
LABEL
100
AcDbText
 10
925.4174150080057
 20
246.66558439006508
 30
0.0
 40
3.0
  1
J1104
100
AcDbText
  0
CIRCLE
  5
54
330
17
100
AcDbEntity
  8
NOTCH
100
AcDbCircle
 10
977.0710818261401
 20
244.80759667122953
 30
0.0
 40
1.0
  0
TEXT
  5
55
330
17
100
AcDbEntity
  8
LABEL
100
AcDbText
 10
979.0710818261401
 20
246.80759667122953
 30
0.0
 40
3.0
  1
J1105
100
AcDbText
  0
CIRCLE
  5
56
330
17
100
AcDbEntity
  8
NOTCH
100
AcDbCircle
 10
1084.3839405889314
 20
243.10911662078018
 30
0.0
 40
1.0
  0
TEXT
  5
57
330
17
100
AcDbEntity
  8
LABEL
100
AcDbText
 10
1086.3839405889314
 20
245.10911662078018
 30
0.0
 40
3.0
  1
J1105
100
AcDbText
  0
CIRCLE
  5
58
330
17
100
AcDbEntity
  8
NOTCH
100
AcDbCircle
 10
1191.7056832745282
 20
238.22972507906277
 30
0.0
 40
1.0
  0
TEXT
  5
59
330
17
100
AcDbEntity
  8
LABEL
100
AcDbText
 10
1193.7056832745282
 20
240.22972507906277
 30
0.0
 40
3.0
  1
J1105
100
AcDbText
  0
CIRCLE
  5
5A
330
17
100
AcDbEntity
  8
NOTCH
100
AcDbCircle
 10
1299.027933347819
 20
233.16965033044124
 30
0.0
 40
1.0
  0
TEXT
  5
5B
330
17
100
AcDbEntity
  8
LABEL
100
AcDbText
 10
1301.027933347819
 20
235.16965033044124
 30
0.0
 40
3.0
  1
J1105
100
AcDbText
  0
CIRCLE
  5
5C
330
17
100
AcDbEntity
  8
NOTCH
100
AcDbCircle
 10
1406.3511677954964
 20
227.7584909251416
 30
0.0
 40
1.0
  0
TEXT
  5
5D
330
17
100
AcDbEntity
  8
LABEL
100
AcDbText
 10
1408.3511677954964
 20
229.7584909251416
 30
0.0
 40
3.0
  1
J1105
100
AcDbText
  0
CIRCLE
  5
5E
330
17
100
AcDbEntity
  8
NOTCH
100
AcDbCircle
 10
1513.6771762069766
 20
221.35646471126307
 30
0.0
 40
1.0
  0
TEXT
  5
5F
330
17
100
AcDbEntity
  8
LABEL
100
AcDbText
 10
1515.6771762069766
 20
223.35646471126307
 30
0.0
 40
3.0
  1
J1105
100
AcDbText
  0
CIRCLE
  5
60
330
17
100
AcDbEntity
  8
NOTCH
100
AcDbCircle
 10
1621.0065555536685
 20
213.75120695004347
 30
0.0
 40
1.0
  0
TEXT
  5
61
330
17
100
AcDbEntity
  8
LABEL
100
AcDbText
 10
1623.0065555536685
 20
215.75120695004347
 30
0.0
 40
3.0
  1
J1105
100
AcDbText
  0
CIRCLE
  5
62
330
17
100
AcDbEntity
  8
NOTCH
100
AcDbCircle
 10
1728.340551227975
 20
204.50035044729083
 30
0.0
 40
1.0
  0
TEXT
  5
63
330
17
100
AcDbEntity
  8
LABEL
100
AcDbText
 10
1730.340551227975
 20
206.50035044729083
 30
0.0
 40
3.0
  1
J1105
100
AcDbText
  0
CIRCLE
  5
64
330
17
100
AcDbEntity
  8
NOTCH
100
AcDbCircle
 10
1835.6824275775343
 20
192.4426811949907
 30
0.0
 40
1.0
  0
TEXT
  5
65
330
17
100
AcDbEntity
  8
LABEL
100
AcDbText
 10
1837.6824275775343
 20
194.4426811949907
 30
0.0
 40
3.0
  1
J1105
100
AcDbText
  0
CIRCLE
  5
66
330
17
100
AcDbEntity
  8
NOTCH
100
AcDbCircle
 10
1943.039326769123
 20
175.4082876355227
 30
0.0
 40
1.0
  0
TEXT
  5
67
330
17
100
AcDbEntity
  8
LABEL
100
AcDbText
 10
1945.039326769123
 20
177.4082876355227
 30
0.0
 40
3.0
  1
J1105
100
AcDbText
  0
CIRCLE
  5
68
330
17
100
AcDbEntity
  8
NOTCH
100
AcDbCircle
 10
2050.424832655077
 20
150.14568358332582
 30
0.0
 40
1.0
  0
TEXT
  5
69
330
17
100
AcDbEntity
  8
LABEL
100
AcDbText
 10
2052.424832655077
 20
152.14568358332582
 30
0.0
 40
3.0
  1
J1105
100
AcDbText
  0
CIRCLE
  5
6A
330
17
100
AcDbEntity
  8
NOTCH
100
AcDbCircle
 10
2157.9139752548226
 20
110.09420541849606
 30
0.0
 40
1.0
  0
TEXT
  5
6B
330
17
100
AcDbEntity
  8
LABEL
100
AcDbText
 10
2159.9139752548226
 20
112.09420541849606
 30
0.0
 40
3.0
  1
J1105
100
AcDbText
  0
CIRCLE
  5
6C
330
17
100
AcDbEntity
  8
NOTCH
100
AcDbCircle
 10
2265.851963805454
 20
29.157222256920225
 30
0.0
 40
1.0
  0
TEXT
  5
6D
330
17
100
AcDbEntity
  8
LABEL
100
AcDbText
 10
2267.851963805454
 20
31.157222256920225
 30
0.0
 40
3.0
  1
J1105
100
AcDbText
  0
CIRCLE
  5
6E
330
17
100
AcDbEntity
  8
NOTCH
100
AcDbCircle
 10
977.8246324540762
 20
-24.63755587535141
 30
0.0
 40
1.0
  0
TEXT
  5
6F
330
17
100
AcDbEntity
  8
LABEL
100
AcDbText
 10
979.8246324540762
 20
-22.63755587535141
 30
0.0
 40
3.0
  1
J1106
100
AcDbText
  0
CIRCLE
  5
70
330
17
100
AcDbEntity
  8
NOTCH
100
AcDbCircle
 10
1085.1319048166492
 20
-24.337260685224226
 30
0.0
 40
1.0
  0
TEXT
  5
71
330
17
100
AcDbEntity
  8
LABEL
100
AcDbText
 10
1087.1319048166492
 20
-22.337260685224226
 30
0.0
 40
3.0
  1
J1106
100
AcDbText
  0
CIRCLE
  5
72
330
17
100
AcDbEntity
  8
NOTCH
100
AcDbCircle
 10
1192.439177951308
 20
-24.03723530095595
 30
0.0
 40
1.0
  0
TEXT
  5
73
330
17
100
AcDbEntity
  8
LABEL
100
AcDbText
 10
1194.439177951308
 20
-22.03723530095595
 30
0.0
 40
3.0
  1
J1106
100
AcDbText
  0
CIRCLE
  5
74
330
17
100
AcDbEntity
  8
NOTCH
100
AcDbCircle
 10
1246.0928146375645
 20
-23.887258163898693
 30
0.0
 40
1.0
  0
TEXT
  5
75
330
17
100
AcDbEntity
  8
LABEL
100
AcDbText
 10
1248.0928146375645
 20
-21.887258163898693
 30
0.0
 40
3.0
  1
J1106
100
AcDbText
  0
CIRCLE
  5
76
330
17
100
AcDbEntity
  8
NOTCH
100
AcDbCircle
 10
1353.4000880978415
 20
-23.58731493851958
 30
0.0
 40
1.0
  0
TEXT
  5
77
330
17
100
AcDbEntity
  8
LABEL
100
AcDbText
 10
1355.4000880978415
 20
-21.58731493851958
 30
0.0
 40
3.0
  1
J1106
100
AcDbText
  0
CIRCLE
  5
78
330
17
100
AcDbEntity
  8
NOTCH
100
AcDbCircle
 10
1460.7073615608915
 20
-23.287336741722882
 30
0.0
 40
1.0
  0
TEXT
  5
79
330
17
100
AcDbEntity
  8
LABEL
100
AcDbText
 10
1462.7073615608915
 20
-21.287336741722882
 30
0.0
 40
3.0
  1
J1106
100
AcDbText
  0
CIRCLE
  5
7A
330
17
100
AcDbEntity
  8
NOTCH
100
AcDbCircle
 10
122.07550349214688
 20
-26.914460255442577
 30
0.0
 40
1.0
  0
TEXT
  5
7B
330
17
100
AcDbEntity
  8
LABEL
100
AcDbText
 10
124.07550349214688
 20
-24.914460255442577
 30
0.0
 40
3.0
  1
J1106
100
AcDbText
  0
CIRCLE
  5
7C
330
17
100
AcDbEntity
  8
NOTCH
100
AcDbCircle
 10
1621.6682718218076
 20
-22.837291570531754
 30
0.0
 40
1.0
  0
TEXT
  5
7D
330
17
100
AcDbEntity
  8
LABEL
100
AcDbText
 10
1623.6682718218076
 20
-20.837291570531754
 30
0.0
 40
3.0
  1
J1106
100
AcDbText
  0
CIRCLE
  5
7E
330
17
100
AcDbEntity
  8
NOTCH
100
AcDbCircle
 10
1728.9755452103618
 20
-22.53710277408885
 30
0.0
 40
1.0
  0
TEXT
  5
7F
330
17
100
AcDbEntity
  8
LABEL
100
AcDbText
 10
1730.9755452103618
 20
-20.53710277408885
 30
0.0
 40
3.0
  1
J1106
100
AcDbText
  0
CIRCLE
  5
80
330
17
100
AcDbEntity
  8
NOTCH
100
AcDbCircle
 10
1836.282818360045
 20
-22.236522072778627
 30
0.0
 40
1.0
  0
TEXT
  5
81
330
17
100
AcDbEntity
  8
LABEL
100
AcDbText
 10
1838.282818360045
 20
-20.236522072778627
 30
0.0
 40
3.0
  1
J1106
100
AcDbText
  0
CIRCLE
  5
82
330
17
100
AcDbEntity
  8
NOTCH
100
AcDbCircle
 10
156.92172628084504
 20
-26.826224340795882
 30
0.0
 40
1.0
  0
TEXT
  5
83
330
17
100
AcDbEntity
  8
LABEL
100
AcDbText
 10
158.92172628084504
 20
-24.826224340795882
 30
0.0
 40
3.0
  1
J1106
100
AcDbText
  0
CIRCLE
  5
84
330
17
100
AcDbEntity
  8
NOTCH
100
AcDbCircle
 10
1997.2467657448392
 20
-21.78353129305237
 30
0.0
 40
1.0
  0
TEXT
  5
85
330
17
100
AcDbEntity
  8
LABEL
100
AcDbText
 10
1999.2467657448392
 20
-19.78353129305237
 30
0.0
 40
3.0
  1
J1106
100
AcDbText
  0
CIRCLE
  5
86
330
17
100
AcDbEntity
  8
NOTCH
100
AcDbCircle
 10
2104.5689106039254
 20
-21.47890006024629
 30
0.0
 40
1.0
  0
TEXT
  5
87
330
17
100
AcDbEntity
  8
LABEL
100
AcDbText
 10
2106.5689106039254
 20
-19.47890006024629
 30
0.0
 40
3.0
  1
J1106
100
AcDbText
  0
CIRCLE
  5
88
330
17
100
AcDbEntity
  8
NOTCH
100
AcDbCircle
 10
2212.1368306765125
 20
-21.168236576057673
 30
0.0
 40
1.0
  0
TEXT
  5
89
330
17
100
AcDbEntity
  8
LABEL
100
AcDbText
 10
2214.1368306765125
 20
-19.168236576057673
 30
0.0
 40
3.0
  1
J1106
100
AcDbText
  0
CIRCLE
  5
8A
330
17
100
AcDbEntity
  8
NOTCH
100
AcDbCircle
 10
2265.9868795429775
 20
-21.01743442032076
 30
0.0
 40
1.0
  0
TEXT
  5
8B
330
17
100
AcDbEntity
  8
LABEL
100
AcDbText
 10
2267.9868795429775
 20
-19.01743442032076
 30
0.0
 40
3.0
  1
J1106
100
AcDbText
  0
CIRCLE
  5
8C
330
17
100
AcDbEntity
  8
NOTCH
100
AcDbCircle
 10
261.29349802542845
 20
-26.56009138052476
 30
0.0
 40
1.0
  0
TEXT
  5
8D
330
17
100
AcDbEntity
  8
LABEL
100
AcDbText
 10
263.29349802542845
 20
-24.56009138052476
 30
0.0
 40
3.0
  1
J1106
100
AcDbText
  0
CIRCLE
  5
8E
330
17
100
AcDbEntity
  8
NOTCH
100
AcDbCircle
 10
365.6113390559104
 20
-26.293040801820155
 30
0.0
 40
1.0
  0
TEXT
  5
8F
330
17
100
AcDbEntity
  8
LABEL
100
AcDbText
 10
367.6113390559104
 20
-24.293040801820155
 30
0.0
 40
3.0
  1
J1106
100
AcDbText
  0
CIRCLE
  5
90
330
17
100
AcDbEntity
  8
NOTCH
100
AcDbCircle
 10
469.9291803050018
 20
-26.02600352901412
 30
0.0
 40
1.0
  0
TEXT
  5
91
330
17
100
AcDbEntity
  8
LABEL
100
AcDbText
 10
471.9291803050018
 20
-24.02600352901412
 30
0.0
 40
3.0
  1
J1106
100
AcDbText
  0
CIRCLE
  5
92
330
17
100
AcDbEntity
  8
NOTCH
100
AcDbCircle
 10
539.4744087057244
 20
-25.848181956411963
 30
0.0
 40
1.0
  0
TEXT
  5
93
330
17
100
AcDbEntity
  8
LABEL
100
AcDbText
 10
541.4744087057244
 20
-23.848181956411963
 30
0.0
 40
3.0
  1
J1106
100
AcDbText
  0
CIRCLE
  5
94
330
17
100
AcDbEntity
  8
NOTCH
100
AcDbCircle
 10
643.7922523609302
 20
-25.581341923721382
 30
0.0
 40
1.0
  0
TEXT
  5
95
330
17
100
AcDbEntity
  8
LABEL
100
AcDbText
 10
645.7922523609302
 20
-23.581341923721382
 30
0.0
 40
3.0
  1
J1106
100
AcDbText
  0
CIRCLE
  5
96
330
17
100
AcDbEntity
  8
NOTCH
100
AcDbCircle
 10
748.1100839469191
 20
-25.309203287744467
 30
0.0
 40
1.0
  0
TEXT
  5
97
330
17
100
AcDbEntity
  8
LABEL
100
AcDbText
 10
750.1100839469191
 20
-23.309203287744467
 30
0.0
 40
3.0
  1
J1106
100
AcDbText
  0
CIRCLE
  5
98
330
17
100
AcDbEntity
  8
NOTCH
100
AcDbCircle
 10
52.227013885337094
 20
-27.091164803653765
 30
0.0
 40
1.0
  0
TEXT
  5
99
330
17
100
AcDbEntity
  8
LABEL
100
AcDbText
 10
54.227013885337094
 20
-25.091164803653765
 30
0.0
 40
3.0
  1
J1106
100
AcDbText
  0
CIRCLE
  5
9A
330
17
100
AcDbEntity
  8
NOTCH
100
AcDbCircle
 10
0.03792275837277453
 20
-15.331214019882399
 30
0.0
 40
1.0
  0
TEXT
  5
9B
330
17
100
AcDbEntity
  8
LABEL
100
AcDbText
 10
2.0379227583727744
 20
-13.331214019882399
 30
0.0
 40
3.0
  1
J1107
100
AcDbText
  0
ENDSEC
  0
SECTION
  2
OBJECTS
  0
DICTIONARY
  5
A
330
0
100
AcDbDictionary
281
1
  3
ACAD_COLOR
350
B
  3
ACAD_GROUP
350
C
  3
ACAD_LAYOUT
350
D
  3
ACAD_MATERIAL
350
E
  3
ACAD_MLEADERSTYLE
350
F
  3
ACAD_MLINESTYLE
350
10
  3
ACAD_PLOTSETTINGS
350
11
  3
ACAD_PLOTSTYLENAME
350
12
  3
ACAD_SCALELIST
350
14
  3
ACAD_TABLESTYLE
350
15
  3
ACAD_VISUALSTYLE
350
16
  3
EZDXF_META
350
2D
  0
DICTIONARY
  5
B
330
A
100
AcDbDictionary
281
1
  0
DICTIONARY
  5
C
330
A
100
AcDbDictionary
281
1
  0
DICTIONARY
  5
D
330
A
100
AcDbDictionary
281
1
  3
Model
350
1A
  3
Layout1
350
1E
  0
DICTIONARY
  5
E
330
A
100
AcDbDictionary
281
1
  3
ByBlock
350
1F
  3
ByLayer
350
20
  3
Global
350
21
  0
DICTIONARY
  5
F
330
A
100
AcDbDictionary
281
1
  3
Standard
350
2C
  0
DICTIONARY
  5
10
330
A
100
AcDbDictionary
281
1
  3
Standard
350
22
  0
DICTIONARY
  5
11
330
A
100
AcDbDictionary
281
1
  0
ACDBDICTIONARYWDFLT
  5
12
330
A
100
AcDbDictionary
281
1
  3
Normal
350
13
100
AcDbDictionaryWithDefault
340
13
  0
ACDBPLACEHOLDER
  5
13
330
12
  0
DICTIONARY
  5
14
330
A
100
AcDbDictionary
281
1
  0
DICTIONARY
  5
15
330
A
100
AcDbDictionary
281
1
  0
DICTIONARY
  5
16
330
A
100
AcDbDictionary
281
1
  0
LAYOUT
  5
1A
330
D
100
AcDbPlotSettings
  1

  4
A3
  6

 40
7.5
 41
20.0
 42
7.5
 43
20.0
 44
420.0
 45
297.0
 46
0.0
 47
0.0
 48
0.0
 49
0.0
140
0.0
141
0.0
142
1.0
143
1.0
 70
1024
 72
1
 73
0
 74
5
  7

 75
16
 76
0
 77
2
 78
300
147
1.0
148
0.0
149
0.0
100
AcDbLayout
  1
Model
 70
1
 71
0
 10
0.0
 20
0.0
 11
420.0
 21
297.0
 12
0.0
 22
0.0
 32
0.0
 14
1e+20
 24
1e+20
 34
1e+20
 15
-1e+20
 25
-1e+20
 35
-1e+20
146
0.0
 13
0.0
 23
0.0
 33
0.0
 16
1.0
 26
0.0
 36
0.0
 17
0.0
 27
1.0
 37
0.0
 76
1
330
17
  0
LAYOUT
  5
1E
330
D
100
AcDbPlotSettings
  1

  4
A3
  6

 40
7.5
 41
20.0
 42
7.5
 43
20.0
 44
420.0
 45
297.0
 46
0.0
 47
0.0
 48
0.0
 49
0.0
140
0.0
141
0.0
142
1.0
143
1.0
 70
0
 72
1
 73
0
 74
5
  7

 75
16
 76
0
 77
2
 78
300
147
1.0
148
0.0
149
0.0
100
AcDbLayout
  1
Layout1
 70
1
 71
1
 10
0.0
 20
0.0
 11
420.0
 21
297.0
 12
0.0
 22
0.0
 32
0.0
 14
1e+20
 24
1e+20
 34
1e+20
 15
-1e+20
 25
-1e+20
 35
-1e+20
146
0.0
 13
0.0
 23
0.0
 33
0.0
 16
1.0
 26
0.0
 36
0.0
 17
0.0
 27
1.0
 37
0.0
 76
1
330
1B
  0
MATERIAL
  5
1F
102
{ACAD_REACTORS
330
E
102
}
330
E
100
AcDbMaterial
  1
ByBlock
  2

 70
0
 40
1.0
 71
1
 41
1.0
 91
-1023410177
 42
1.0
 72
1
  3

 73
1
 74
1
 75
1
 44
0.5
 73
0
 45
1.0
 46
1.0
 77
1
  4

 78
1
 79
1
170
1
 48
1.0
171
1
  6

172
1
173
1
174
1
140
1.0
141
1.0
175
1
  7

176
1
177
1
178
1
143
1.0
179
1
  8

270
1
271
1
272
1
145
1.0
146
1.0
273
1
  9

274
1
275
1
276
1
 42
1.0
 72
1
  3

 73
1
 74
1
 75
1
 94
63
  0
MATERIAL
  5
20
102
{ACAD_REACTORS
330
E
102
}
330
E
100
AcDbMaterial
  1
ByLayer
  2

 70
0
 40
1.0
 71
1
 41
1.0
 91
-1023410177
 42
1.0
 72
1
  3

 73
1
 74
1
 75
1
 44
0.5
 73
0
 45
1.0
 46
1.0
 77
1
  4

 78
1
 79
1
170
1
 48
1.0
171
1
  6

172
1
173
1
174
1
140
1.0
141
1.0
175
1
  7

176
1
177
1
178
1
143
1.0
179
1
  8

270
1
271
1
272
1
145
1.0
146
1.0
273
1
  9

274
1
275
1
276
1
 42
1.0
 72
1
  3

 73
1
 74
1
 75
1
 94
63
  0
MATERIAL
  5
21
102
{ACAD_REACTORS
330
E
102
}
330
E
100
AcDbMaterial
  1
Global
  2

 70
0
 40
1.0
 71
1
 41
1.0
 91
-1023410177
 42
1.0
 72
1
  3

 73
1
 74
1
 75
1
 44
0.5
 73
0
 45
1.0
 46
1.0
 77
1
  4

 78
1
 79
1
170
1
 48
1.0
171
1
  6

172
1
173
1
174
1
140
1.0
141
1.0
175
1
  7

176
1
177
1
178
1
143
1.0
179
1
  8

270
1
271
1
272
1
145
1.0
146
1.0
273
1
  9

274
1
275
1
276
1
 42
1.0
 72
1
  3

 73
1
 74
1
 75
1
 94
63
  0
MLINESTYLE
  5
22
102
{ACAD_REACTORS
330
10
102
}
330
10
100
AcDbMlineStyle
  2
Standard
 70
0
  3

 62
256
 51
90.0
 52
90.0
 71
2
 49
0.5
 62
256
  6
BYLAYER
 49
-0.5
 62
256
  6
BYLAYER
  0
MLEADERSTYLE
  5
2C
102
{ACAD_REACTORS
330
F
102
}
330
F
100
AcDbMLeaderStyle
179
2
170
2
171
1
172
0
 90
2
 40
0.0
 41
0.0
173
1
 91
-1056964608
 92
-2
290
1
 42
2.0
291
1
 43
8.0
  3
Standard
 44
4.0
300

342
29
174
1
175
1
176
0
178
1
 93
-1056964608
 45
4.0
292
0
297
0
 46
4.0
 94
-1056964608
 47
1.0
 49
1.0
140
1.0
294
1
141
0.0
177
0
142
1.0
295
0
296
0
143
3.75
271
0
272
9
273
9
  0
DICTIONARY
  5
2D
330
A
100
AcDbDictionary
280
1
281
1
  3
CREATED_BY_EZDXF
350
2E
  3
WRITTEN_BY_EZDXF
350
9E
  0
DICTIONARYVAR
  5
2E
330
2D
100
DictionaryVariables
280
0
  1
1.4.4 @ 2026-10-04T18:28:59.662936+00:00
  0
DICTIONARYVAR
  5
9E
330
2D
100
DictionaryVariables
280
0
  1
1.4.4 @ 2026-10-04T18:28:59.666666+00:00
  0
ENDSEC
  0
EOF
